<?xml version="1.0" encoding="UTF-8" standalone="no"?>
<!DOCTYPE svg PUBLIC "-//W3C//DTD SVG 1.1//EN"
 "http://www.w3.org/Graphics/SVG/1.1/DTD/svg11.dtd">
<!-- Generated by graphviz version 2.38.0 (20140413.2041)
 -->
<!-- Title: src/network/async_service.hpp Pages: 1 -->
<!--zoomable 330 -->
<svg id="main" version="1.1" xmlns="http://www.w3.org/2000/svg" xmlns:xlink="http://www.w3.org/1999/xlink" xml:space="preserve" onload="init(evt)">
<style type="text/css"><![CDATA[
.edge:hover path { stroke: red; }
.edge:hover polygon { stroke: red; fill: red; }
]]></style>
<script type="text/javascript"><![CDATA[
var edges = document.getElementsByTagName('g');
if (edges && edges.length) {
  for (var i=0;i<edges.length;i++) {
    if (edges[i].id.substr(0,4)=='edge') {
      edges[i].setAttribute('class','edge');
    }
  }
}
]]></script>
        <defs>
                <circle id="rim" cx="0" cy="0" r="7"/>
                <circle id="rim2" cx="0" cy="0" r="3.5"/>
                <g id="zoomPlus">
                        <use xlink:href="#rim" fill="#404040">
                                <set attributeName="fill" to="#808080" begin="zoomplus.mouseover" end="zoomplus.mouseout"/>
                        </use>
                        <path d="M-4,0h8M0,-4v8" fill="none" stroke="white" stroke-width="1.5" pointer-events="none"/>
                </g>
                <g id="zoomMin">
                        <use xlink:href="#rim" fill="#404040">
                                <set attributeName="fill" to="#808080" begin="zoomminus.mouseover" end="zoomminus.mouseout"/>
                        </use>
                        <path d="M-4,0h8" fill="none" stroke="white" stroke-width="1.5" pointer-events="none"/>
                </g>
                <g id="dirArrow">
                        <path fill="none" stroke="white" stroke-width="1.5" d="M0,-3.0v7 M-2.5,-0.5L0,-3.0L2.5,-0.5"/>
                </g>
               <g id="resetDef">
                       <use xlink:href="#rim2" fill="#404040">
                               <set attributeName="fill" to="#808080" begin="reset.mouseover" end="reset.mouseout"/>
                       </use>
               </g>
        </defs>

<script type="text/javascript">
var viewWidth = 1266;
var viewHeight = 330;
var sectionId = 'dynsection-0';
</script>
<script xlink:href="svgpan.js"/>
<svg id="graph" class="graph">
<g id="viewport">
<title>src/network/async_service.hpp</title>
<!-- Node1 -->
<g id="node1" class="node"><title>Node1</title>
<polygon fill="#bfbfbf" stroke="black" points="618.226,-302.5 618.226,-321.5 770.226,-321.5 770.226,-302.5 618.226,-302.5"/>
<text text-anchor="middle" x="694.226" y="-309.5" font-family="Helvetica,sans-Serif" font-size="10.00">src/network/async_service.hpp</text>
</g>
<!-- Node2 -->
<g id="node2" class="node"><title>Node2</title>
<polygon fill="none" stroke="#bfbfbf" points="959.726,-118 959.726,-137 1018.73,-137 1018.73,-118 959.726,-118"/>
<text text-anchor="middle" x="989.226" y="-125" font-family="Helvetica,sans-Serif" font-size="10.00">functional</text>
</g>
<!-- Node1&#45;&gt;Node2 -->
<g id="edge1" class="edge"><title>Node1&#45;&gt;Node2</title>
<path fill="none" stroke="midnightblue" d="M708.059,-302.442C754.997,-273.404 908.498,-178.442 966.635,-142.476"/>
<polygon fill="midnightblue" stroke="midnightblue" points="968.76,-145.277 975.423,-137.039 965.077,-139.324 968.76,-145.277"/>
</g>
<!-- Node3 -->
<g id="node3" class="node"><title>Node3</title>
<polygon fill="none" stroke="#bfbfbf" points="391.726,-56.5 391.726,-75.5 432.726,-75.5 432.726,-56.5 391.726,-56.5"/>
<text text-anchor="middle" x="412.226" y="-63.5" font-family="Helvetica,sans-Serif" font-size="10.00">string</text>
</g>
<!-- Node1&#45;&gt;Node3 -->
<g id="edge2" class="edge"><title>Node1&#45;&gt;Node3</title>
<path fill="none" stroke="midnightblue" d="M617.972,-305.482C452.258,-291.579 69.0808,-248.405 6.22583,-143 -0.830704,-131.166 -2.96426,-122.265 6.22583,-112 31.1982,-84.1069 291.218,-71.6117 381.528,-68.0906"/>
<polygon fill="midnightblue" stroke="midnightblue" points="381.812,-71.5824 391.672,-67.7053 381.547,-64.5875 381.812,-71.5824"/>
</g>
<!-- Node4 -->
<g id="node4" class="node"><title>Node4</title>
<polygon fill="none" stroke="#bfbfbf" points="672.226,-246.5 672.226,-265.5 716.226,-265.5 716.226,-246.5 672.226,-246.5"/>
<text text-anchor="middle" x="694.226" y="-253.5" font-family="Helvetica,sans-Serif" font-size="10.00">thread</text>
</g>
<!-- Node1&#45;&gt;Node4 -->
<g id="edge3" class="edge"><title>Node1&#45;&gt;Node4</title>
<path fill="none" stroke="midnightblue" d="M694.226,-302.083C694.226,-295.006 694.226,-284.861 694.226,-275.986"/>
<polygon fill="midnightblue" stroke="midnightblue" points="697.726,-275.751 694.226,-265.751 690.726,-275.751 697.726,-275.751"/>
</g>
<!-- Node5 -->
<g id="node5" class="node"><title>Node5</title>
<g id="a_node5"><a xlink:href="logger_8hpp.html" target="_top" xlink:title="string/logger.hpp">
<polygon fill="none" stroke="black" points="399.726,-246.5 399.726,-265.5 488.726,-265.5 488.726,-246.5 399.726,-246.5"/>
<text text-anchor="middle" x="444.226" y="-253.5" font-family="Helvetica,sans-Serif" font-size="10.00">string/logger.hpp</text>
</a>
</g>
</g>
<!-- Node1&#45;&gt;Node5 -->
<g id="edge4" class="edge"><title>Node1&#45;&gt;Node5</title>
<path fill="none" stroke="midnightblue" d="M654.613,-302.444C611.001,-293.023 540.826,-277.866 493.648,-267.675"/>
<polygon fill="midnightblue" stroke="midnightblue" points="494.167,-264.207 483.654,-265.516 492.689,-271.049 494.167,-264.207"/>
</g>
<!-- Node24 -->
<g id="node24" class="node"><title>Node24</title>
<g id="a_node24"><a xlink:href="concurrent__container_8hpp.html" target="_top" xlink:title="concurrent_container.hpp">
<polygon fill="none" stroke="black" points="961.226,-185 961.226,-204 1087.23,-204 1087.23,-185 961.226,-185"/>
<text text-anchor="middle" x="1024.23" y="-192" font-family="Helvetica,sans-Serif" font-size="10.00">concurrent_container.hpp</text>
</a>
</g>
</g>
<!-- Node1&#45;&gt;Node24 -->
<g id="edge36" class="edge"><title>Node1&#45;&gt;Node24</title>
<path fill="none" stroke="midnightblue" d="M770.387,-304.23C816.356,-298.185 875.302,-286.895 924.226,-266 956.243,-252.326 988.253,-227.263 1007.14,-211"/>
<polygon fill="midnightblue" stroke="midnightblue" points="1009.65,-213.452 1014.85,-204.219 1005.03,-208.196 1009.65,-213.452"/>
</g>
<!-- Node5&#45;&gt;Node3 -->
<g id="edge9" class="edge"><title>Node5&#45;&gt;Node3</title>
<path fill="none" stroke="midnightblue" d="M429.957,-246.45C417.002,-238.218 397.888,-224.855 384.226,-210 360.434,-184.133 351.937,-176.776 342.226,-143 338.419,-129.759 335.624,-124.093 342.226,-112 350.744,-96.3969 367.246,-85.397 382.088,-78.1798"/>
<polygon fill="midnightblue" stroke="midnightblue" points="383.8,-81.2486 391.502,-73.9731 380.944,-74.8577 383.8,-81.2486"/>
</g>
<!-- Node6 -->
<g id="node6" class="node"><title>Node6</title>
<polygon fill="none" stroke="#bfbfbf" points="265.226,-185 265.226,-204 315.226,-204 315.226,-185 265.226,-185"/>
<text text-anchor="middle" x="290.226" y="-192" font-family="Helvetica,sans-Serif" font-size="10.00">iomanip</text>
</g>
<!-- Node5&#45;&gt;Node6 -->
<g id="edge5" class="edge"><title>Node5&#45;&gt;Node6</title>
<path fill="none" stroke="midnightblue" d="M422.161,-246.475C395.859,-236.313 351.713,-219.256 321.801,-207.7"/>
<polygon fill="midnightblue" stroke="midnightblue" points="322.839,-204.348 312.249,-204.009 320.316,-210.878 322.839,-204.348"/>
</g>
<!-- Node7 -->
<g id="node7" class="node"><title>Node7</title>
<polygon fill="none" stroke="#bfbfbf" points="351.226,-118 351.226,-137 405.226,-137 405.226,-118 351.226,-118"/>
<text text-anchor="middle" x="378.226" y="-125" font-family="Helvetica,sans-Serif" font-size="10.00">iostream</text>
</g>
<!-- Node5&#45;&gt;Node7 -->
<g id="edge6" class="edge"><title>Node5&#45;&gt;Node7</title>
<path fill="none" stroke="midnightblue" d="M432.811,-246.22C422.798,-237.928 408.571,-224.612 400.226,-210 388.898,-190.165 383.208,-164.272 380.491,-147.051"/>
<polygon fill="midnightblue" stroke="midnightblue" points="383.956,-146.556 379.105,-137.136 377.023,-147.525 383.956,-146.556"/>
</g>
<!-- Node8 -->
<g id="node8" class="node"><title>Node8</title>
<polygon fill="none" stroke="#bfbfbf" points="497.226,-185 497.226,-204 541.226,-204 541.226,-185 497.226,-185"/>
<text text-anchor="middle" x="519.226" y="-192" font-family="Helvetica,sans-Serif" font-size="10.00">mutex</text>
</g>
<!-- Node5&#45;&gt;Node8 -->
<g id="edge7" class="edge"><title>Node5&#45;&gt;Node8</title>
<path fill="none" stroke="midnightblue" d="M454.971,-246.475C466.778,-237.108 485.969,-221.884 500.308,-210.508"/>
<polygon fill="midnightblue" stroke="midnightblue" points="502.841,-212.966 508.5,-204.009 498.491,-207.482 502.841,-212.966"/>
</g>
<!-- Node9 -->
<g id="node9" class="node"><title>Node9</title>
<polygon fill="none" stroke="#bfbfbf" points="529.726,-118 529.726,-137 588.726,-137 588.726,-118 529.726,-118"/>
<text text-anchor="middle" x="559.226" y="-125" font-family="Helvetica,sans-Serif" font-size="10.00">stdexcept</text>
</g>
<!-- Node5&#45;&gt;Node9 -->
<g id="edge8" class="edge"><title>Node5&#45;&gt;Node9</title>
<path fill="none" stroke="midnightblue" d="M488.982,-247.004C510.91,-240.706 535.667,-229.569 550.226,-210 563.673,-191.926 563.934,-165.054 562.173,-147.168"/>
<polygon fill="midnightblue" stroke="midnightblue" points="565.628,-146.593 560.879,-137.123 558.685,-147.488 565.628,-146.593"/>
</g>
<!-- Node10 -->
<g id="node10" class="node"><title>Node10</title>
<polygon fill="none" stroke="#bfbfbf" points="211.726,-118 211.726,-137 294.726,-137 294.726,-118 211.726,-118"/>
<text text-anchor="middle" x="253.226" y="-125" font-family="Helvetica,sans-Serif" font-size="10.00">unordered_map</text>
</g>
<!-- Node5&#45;&gt;Node10 -->
<g id="edge10" class="edge"><title>Node5&#45;&gt;Node10</title>
<path fill="none" stroke="midnightblue" d="M399.63,-250.488C349.922,-244.448 274.144,-231.873 256.226,-210 241.96,-192.585 244.257,-165.363 248.047,-147.235"/>
<polygon fill="midnightblue" stroke="midnightblue" points="251.503,-147.835 250.464,-137.291 244.701,-146.181 251.503,-147.835"/>
</g>
<!-- Node11 -->
<g id="node11" class="node"><title>Node11</title>
<polygon fill="none" stroke="#bfbfbf" points="718.726,-179.5 718.726,-209.5 823.726,-209.5 823.726,-179.5 718.726,-179.5"/>
<text text-anchor="start" x="726.726" y="-197.5" font-family="Helvetica,sans-Serif" font-size="10.00">boost/chrono/io/time</text>
<text text-anchor="middle" x="771.226" y="-186.5" font-family="Helvetica,sans-Serif" font-size="10.00">_point_io.hpp</text>
</g>
<!-- Node5&#45;&gt;Node11 -->
<g id="edge11" class="edge"><title>Node5&#45;&gt;Node11</title>
<path fill="none" stroke="midnightblue" d="M488.924,-248.27C539.717,-240.431 625.313,-226.644 708.626,-210.046"/>
<polygon fill="midnightblue" stroke="midnightblue" points="709.394,-213.462 718.509,-208.062 708.015,-206.599 709.394,-213.462"/>
</g>
<!-- Node12 -->
<g id="node12" class="node"><title>Node12</title>
<g id="a_node12"><a xlink:href="multibuf_8hpp.html" target="_top" xlink:title="multibuf.hpp">
<polygon fill="none" stroke="black" points="409.226,-185 409.226,-204 479.226,-204 479.226,-185 409.226,-185"/>
<text text-anchor="middle" x="444.226" y="-192" font-family="Helvetica,sans-Serif" font-size="10.00">multibuf.hpp</text>
</a>
</g>
</g>
<!-- Node5&#45;&gt;Node12 -->
<g id="edge12" class="edge"><title>Node5&#45;&gt;Node12</title>
<path fill="none" stroke="midnightblue" d="M444.226,-246.475C444.226,-238.08 444.226,-224.981 444.226,-214.163"/>
<polygon fill="midnightblue" stroke="midnightblue" points="447.726,-214.009 444.226,-204.009 440.726,-214.009 447.726,-214.009"/>
</g>
<!-- Node15 -->
<g id="node15" class="node"><title>Node15</title>
<g id="a_node15"><a xlink:href="string_8hpp.html" target="_top" xlink:title="string.hpp">
<polygon fill="none" stroke="black" points="641.726,-185 641.726,-204 700.726,-204 700.726,-185 641.726,-185"/>
<text text-anchor="middle" x="671.226" y="-192" font-family="Helvetica,sans-Serif" font-size="10.00">string.hpp</text>
</a>
</g>
</g>
<!-- Node5&#45;&gt;Node15 -->
<g id="edge17" class="edge"><title>Node5&#45;&gt;Node15</title>
<path fill="none" stroke="midnightblue" d="M476.749,-246.475C517.693,-235.743 587.973,-217.322 631.894,-205.809"/>
<polygon fill="midnightblue" stroke="midnightblue" points="632.866,-209.173 641.651,-203.252 631.091,-202.402 632.866,-209.173"/>
</g>
<!-- Node22 -->
<g id="node22" class="node"><title>Node22</title>
<g id="a_node22"><a xlink:href="settings_8hpp.html" target="_top" xlink:title="settings.hpp">
<polygon fill="none" stroke="black" points="139.226,-185 139.226,-204 209.226,-204 209.226,-185 139.226,-185"/>
<text text-anchor="middle" x="174.226" y="-192" font-family="Helvetica,sans-Serif" font-size="10.00">settings.hpp</text>
</a>
</g>
</g>
<!-- Node5&#45;&gt;Node22 -->
<g id="edge31" class="edge"><title>Node5&#45;&gt;Node22</title>
<path fill="none" stroke="midnightblue" d="M399.524,-247.077C354.701,-238.856 283.824,-225.105 223.226,-210 219.366,-209.038 215.354,-207.968 211.363,-206.857"/>
<polygon fill="midnightblue" stroke="midnightblue" points="212.159,-203.444 201.581,-204.051 210.229,-210.173 212.159,-203.444"/>
</g>
<!-- Node12&#45;&gt;Node3 -->
<g id="edge16" class="edge"><title>Node12&#45;&gt;Node3</title>
<path fill="none" stroke="midnightblue" d="M453.822,-184.757C469.204,-169.639 496.29,-137.761 482.226,-112 473.707,-96.3969 457.206,-85.397 442.363,-78.1798"/>
<polygon fill="midnightblue" stroke="midnightblue" points="443.508,-74.8577 432.95,-73.9731 440.652,-81.2486 443.508,-74.8577"/>
</g>
<!-- Node12&#45;&gt;Node7 -->
<g id="edge13" class="edge"><title>Node12&#45;&gt;Node7</title>
<path fill="none" stroke="midnightblue" d="M435.325,-184.734C424.835,-174.403 407.202,-157.037 394.301,-144.332"/>
<polygon fill="midnightblue" stroke="midnightblue" points="396.567,-141.651 386.986,-137.127 391.655,-146.638 396.567,-141.651"/>
</g>
<!-- Node13 -->
<g id="node13" class="node"><title>Node13</title>
<polygon fill="none" stroke="#bfbfbf" points="423.226,-118 423.226,-137 473.226,-137 473.226,-118 423.226,-118"/>
<text text-anchor="middle" x="448.226" y="-125" font-family="Helvetica,sans-Serif" font-size="10.00">fstream</text>
</g>
<!-- Node12&#45;&gt;Node13 -->
<g id="edge14" class="edge"><title>Node12&#45;&gt;Node13</title>
<path fill="none" stroke="midnightblue" d="M444.765,-184.734C445.353,-175.183 446.311,-159.618 447.07,-147.283"/>
<polygon fill="midnightblue" stroke="midnightblue" points="450.574,-147.323 447.695,-137.127 443.587,-146.893 450.574,-147.323"/>
</g>
<!-- Node14 -->
<g id="node14" class="node"><title>Node14</title>
<polygon fill="none" stroke="#bfbfbf" points="785.226,-118 785.226,-137 829.226,-137 829.226,-118 785.226,-118"/>
<text text-anchor="middle" x="807.226" y="-125" font-family="Helvetica,sans-Serif" font-size="10.00">vector</text>
</g>
<!-- Node12&#45;&gt;Node14 -->
<g id="edge15" class="edge"><title>Node12&#45;&gt;Node14</title>
<path fill="none" stroke="midnightblue" d="M467.281,-184.97C473.964,-182.753 481.321,-180.554 488.226,-179 614.075,-150.68 652.287,-178.764 776.226,-143 778.153,-142.444 780.11,-141.783 782.057,-141.053"/>
<polygon fill="midnightblue" stroke="midnightblue" points="783.688,-144.162 791.507,-137.014 780.936,-137.726 783.688,-144.162"/>
</g>
<!-- Node15&#45;&gt;Node2 -->
<g id="edge19" class="edge"><title>Node15&#45;&gt;Node2</title>
<path fill="none" stroke="midnightblue" d="M691.474,-184.859C697.139,-182.694 703.354,-180.549 709.226,-179 811.818,-151.933 842.036,-167.69 945.226,-143 948.694,-142.17 952.282,-141.193 955.842,-140.144"/>
<polygon fill="midnightblue" stroke="midnightblue" points="957.189,-143.39 965.686,-137.061 955.097,-136.709 957.189,-143.39"/>
</g>
<!-- Node15&#45;&gt;Node3 -->
<g id="edge22" class="edge"><title>Node15&#45;&gt;Node3</title>
<path fill="none" stroke="midnightblue" d="M665.916,-184.807C655.162,-167.977 629.101,-130.938 597.226,-112 548.263,-82.909 481.405,-72.5925 442.92,-68.9564"/>
<polygon fill="midnightblue" stroke="midnightblue" points="443.118,-65.4606 432.856,-68.0979 442.522,-72.4352 443.118,-65.4606"/>
</g>
<!-- Node15&#45;&gt;Node9 -->
<g id="edge21" class="edge"><title>Node15&#45;&gt;Node9</title>
<path fill="none" stroke="midnightblue" d="M656.121,-184.734C637.313,-173.818 604.971,-155.049 582.868,-142.221"/>
<polygon fill="midnightblue" stroke="midnightblue" points="584.497,-139.12 574.091,-137.127 580.983,-145.174 584.497,-139.12"/>
</g>
<!-- Node15&#45;&gt;Node10 -->
<g id="edge24" class="edge"><title>Node15&#45;&gt;Node10</title>
<path fill="none" stroke="midnightblue" d="M641.72,-189.064C584.119,-180.383 452.67,-160.473 342.226,-143 330.146,-141.089 317.15,-138.994 304.922,-137.005"/>
<polygon fill="midnightblue" stroke="midnightblue" points="305.302,-133.521 294.869,-135.366 304.175,-140.429 305.302,-133.521"/>
</g>
<!-- Node15&#45;&gt;Node14 -->
<g id="edge25" class="edge"><title>Node15&#45;&gt;Node14</title>
<path fill="none" stroke="midnightblue" d="M689.286,-184.869C712.452,-173.796 752.855,-154.486 779.821,-141.598"/>
<polygon fill="midnightblue" stroke="midnightblue" points="781.578,-144.637 789.091,-137.167 778.56,-138.322 781.578,-144.637"/>
</g>
<!-- Node16 -->
<g id="node16" class="node"><title>Node16</title>
<polygon fill="none" stroke="#bfbfbf" points="817.226,-56.5 817.226,-75.5 863.226,-75.5 863.226,-56.5 817.226,-56.5"/>
<text text-anchor="middle" x="840.226" y="-63.5" font-family="Helvetica,sans-Serif" font-size="10.00">cstdint</text>
</g>
<!-- Node15&#45;&gt;Node16 -->
<g id="edge18" class="edge"><title>Node15&#45;&gt;Node16</title>
<path fill="none" stroke="midnightblue" d="M691.499,-184.953C697.164,-182.788 703.373,-180.62 709.226,-179 797.536,-154.558 853.362,-213.222 912.226,-143 921.077,-132.441 918.905,-124.051 912.226,-112 903.726,-96.6647 887.582,-85.8652 872.731,-78.6972"/>
<polygon fill="midnightblue" stroke="midnightblue" points="873.813,-75.3486 863.252,-74.5 870.979,-81.7492 873.813,-75.3486"/>
</g>
<!-- Node17 -->
<g id="node17" class="node"><title>Node17</title>
<polygon fill="none" stroke="#bfbfbf" points="645.226,-118 645.226,-137 697.226,-137 697.226,-118 645.226,-118"/>
<text text-anchor="middle" x="671.226" y="-125" font-family="Helvetica,sans-Serif" font-size="10.00">memory</text>
</g>
<!-- Node15&#45;&gt;Node17 -->
<g id="edge20" class="edge"><title>Node15&#45;&gt;Node17</title>
<path fill="none" stroke="midnightblue" d="M671.226,-184.734C671.226,-175.183 671.226,-159.618 671.226,-147.283"/>
<polygon fill="midnightblue" stroke="midnightblue" points="674.726,-147.127 671.226,-137.127 667.726,-147.127 674.726,-147.127"/>
</g>
<!-- Node18 -->
<g id="node18" class="node"><title>Node18</title>
<polygon fill="none" stroke="#bfbfbf" points="715.226,-118 715.226,-137 767.226,-137 767.226,-118 715.226,-118"/>
<text text-anchor="middle" x="741.226" y="-125" font-family="Helvetica,sans-Serif" font-size="10.00">sstream</text>
</g>
<!-- Node15&#45;&gt;Node18 -->
<g id="edge23" class="edge"><title>Node15&#45;&gt;Node18</title>
<path fill="none" stroke="midnightblue" d="M680.666,-184.734C691.897,-174.305 710.847,-156.709 724.562,-143.973"/>
<polygon fill="midnightblue" stroke="midnightblue" points="726.989,-146.497 731.935,-137.127 722.225,-141.367 726.989,-146.497"/>
</g>
<!-- Node19 -->
<g id="node19" class="node"><title>Node19</title>
<g id="a_node19"><a xlink:href="color_8hpp.html" target="_top" xlink:title="color.hpp">
<polygon fill="none" stroke="black" points="847.226,-118 847.226,-137 903.226,-137 903.226,-118 847.226,-118"/>
<text text-anchor="middle" x="875.226" y="-125" font-family="Helvetica,sans-Serif" font-size="10.00">color.hpp</text>
</a>
</g>
</g>
<!-- Node15&#45;&gt;Node19 -->
<g id="edge26" class="edge"><title>Node15&#45;&gt;Node19</title>
<path fill="none" stroke="midnightblue" d="M692.805,-184.87C698.138,-182.847 703.861,-180.768 709.226,-179 765.759,-160.37 781.777,-161.884 838.226,-143 840.489,-142.243 842.817,-141.426 845.149,-140.578"/>
<polygon fill="midnightblue" stroke="midnightblue" points="846.499,-143.81 854.618,-137.003 844.027,-137.261 846.499,-143.81"/>
</g>
<!-- Node19&#45;&gt;Node3 -->
<g id="edge28" class="edge"><title>Node19&#45;&gt;Node3</title>
<path fill="none" stroke="midnightblue" d="M856.339,-117.973C850.622,-115.701 844.258,-113.472 838.226,-112 693.223,-76.6122 513.751,-69.053 442.977,-67.4384"/>
<polygon fill="midnightblue" stroke="midnightblue" points="443.025,-63.9388 432.956,-67.2338 442.882,-70.9373 443.025,-63.9388"/>
</g>
<!-- Node19&#45;&gt;Node16 -->
<g id="edge27" class="edge"><title>Node19&#45;&gt;Node16</title>
<path fill="none" stroke="midnightblue" d="M870.211,-117.975C865.065,-109.227 856.914,-95.3691 850.408,-84.3093"/>
<polygon fill="midnightblue" stroke="midnightblue" points="853.318,-82.3539 845.231,-75.5091 847.285,-85.903 853.318,-82.3539"/>
</g>
<!-- Node20 -->
<g id="node20" class="node"><title>Node20</title>
<g id="a_node20"><a xlink:href="math_8hpp.html" target="_top" xlink:title="math.hpp">
<polygon fill="none" stroke="black" points="881.726,-56.5 881.726,-75.5 938.726,-75.5 938.726,-56.5 881.726,-56.5"/>
<text text-anchor="middle" x="910.226" y="-63.5" font-family="Helvetica,sans-Serif" font-size="10.00">math.hpp</text>
</a>
</g>
</g>
<!-- Node19&#45;&gt;Node20 -->
<g id="edge29" class="edge"><title>Node19&#45;&gt;Node20</title>
<path fill="none" stroke="midnightblue" d="M880.24,-117.975C885.387,-109.227 893.538,-95.3691 900.044,-84.3093"/>
<polygon fill="midnightblue" stroke="midnightblue" points="903.167,-85.903 905.22,-75.5091 897.133,-82.3539 903.167,-85.903"/>
</g>
<!-- Node21 -->
<g id="node21" class="node"><title>Node21</title>
<polygon fill="none" stroke="#bfbfbf" points="882.226,-0.5 882.226,-19.5 938.226,-19.5 938.226,-0.5 882.226,-0.5"/>
<text text-anchor="middle" x="910.226" y="-7.5" font-family="Helvetica,sans-Serif" font-size="10.00">algorithm</text>
</g>
<!-- Node20&#45;&gt;Node21 -->
<g id="edge30" class="edge"><title>Node20&#45;&gt;Node21</title>
<path fill="none" stroke="midnightblue" d="M910.226,-56.083C910.226,-49.0059 910.226,-38.8611 910.226,-29.9865"/>
<polygon fill="midnightblue" stroke="midnightblue" points="913.726,-29.751 910.226,-19.7511 906.726,-29.7511 913.726,-29.751"/>
</g>
<!-- Node22&#45;&gt;Node3 -->
<g id="edge32" class="edge"><title>Node22&#45;&gt;Node3</title>
<path fill="none" stroke="midnightblue" d="M170.181,-184.689C163.336,-168.306 151.82,-132.925 169.226,-112 195.895,-79.9386 322.187,-70.6212 381.42,-67.9935"/>
<polygon fill="midnightblue" stroke="midnightblue" points="381.812,-71.4806 391.661,-67.5768 381.527,-64.4864 381.812,-71.4806"/>
</g>
<!-- Node22&#45;&gt;Node10 -->
<g id="edge34" class="edge"><title>Node22&#45;&gt;Node10</title>
<path fill="none" stroke="midnightblue" d="M184.88,-184.734C197.673,-174.208 219.342,-156.379 234.852,-143.617"/>
<polygon fill="midnightblue" stroke="midnightblue" points="237.242,-146.184 242.74,-137.127 232.794,-140.778 237.242,-146.184"/>
</g>
<!-- Node22&#45;&gt;Node16 -->
<g id="edge33" class="edge"><title>Node22&#45;&gt;Node16</title>
<path fill="none" stroke="midnightblue" d="M174.297,-184.851C174.955,-167.758 179.092,-129.775 202.226,-112 250.405,-74.9817 682.556,-68.3687 806.897,-67.2291"/>
<polygon fill="midnightblue" stroke="midnightblue" points="806.998,-70.7285 816.968,-67.1428 806.938,-63.7287 806.998,-70.7285"/>
</g>
<!-- Node23 -->
<g id="node23" class="node"><title>Node23</title>
<polygon fill="none" stroke="#bfbfbf" points="15.7258,-112.5 15.7258,-142.5 116.726,-142.5 116.726,-112.5 15.7258,-112.5"/>
<text text-anchor="start" x="23.7258" y="-130.5" font-family="Helvetica,sans-Serif" font-size="10.00">boost/property_tree</text>
<text text-anchor="middle" x="66.2258" y="-119.5" font-family="Helvetica,sans-Serif" font-size="10.00">/ptree.hpp</text>
</g>
<!-- Node22&#45;&gt;Node23 -->
<g id="edge35" class="edge"><title>Node22&#45;&gt;Node23</title>
<path fill="none" stroke="midnightblue" d="M159.66,-184.734C144.012,-175.316 118.649,-160.051 98.2949,-147.801"/>
<polygon fill="midnightblue" stroke="midnightblue" points="100.008,-144.747 89.6353,-142.589 96.3984,-150.744 100.008,-144.747"/>
</g>
<!-- Node24&#45;&gt;Node2 -->
<g id="edge39" class="edge"><title>Node24&#45;&gt;Node2</title>
<path fill="none" stroke="midnightblue" d="M1019.51,-184.734C1014.21,-174.89 1005.47,-158.66 998.735,-146.159"/>
<polygon fill="midnightblue" stroke="midnightblue" points="1001.69,-144.273 993.871,-137.127 995.531,-147.591 1001.69,-144.273"/>
</g>
<!-- Node24&#45;&gt;Node14 -->
<g id="edge41" class="edge"><title>Node24&#45;&gt;Node14</title>
<path fill="none" stroke="midnightblue" d="M985.146,-184.963C947.082,-176.166 887.865,-161.193 838.226,-143 836.615,-142.41 834.973,-141.768 833.328,-141.094"/>
<polygon fill="midnightblue" stroke="midnightblue" points="834.62,-137.839 824.057,-137.015 831.801,-144.246 834.62,-137.839"/>
</g>
<!-- Node25 -->
<g id="node25" class="node"><title>Node25</title>
<polygon fill="none" stroke="#bfbfbf" points="1037.23,-118 1037.23,-137 1083.23,-137 1083.23,-118 1037.23,-118"/>
<text text-anchor="middle" x="1060.23" y="-125" font-family="Helvetica,sans-Serif" font-size="10.00">atomic</text>
</g>
<!-- Node24&#45;&gt;Node25 -->
<g id="edge37" class="edge"><title>Node24&#45;&gt;Node25</title>
<path fill="none" stroke="midnightblue" d="M1029.08,-184.734C1034.53,-174.89 1043.52,-158.66 1050.45,-146.159"/>
<polygon fill="midnightblue" stroke="midnightblue" points="1053.66,-147.571 1055.45,-137.127 1047.54,-144.179 1053.66,-147.571"/>
</g>
<!-- Node26 -->
<g id="node26" class="node"><title>Node26</title>
<polygon fill="none" stroke="#bfbfbf" points="1101.73,-118 1101.73,-137 1196.73,-137 1196.73,-118 1101.73,-118"/>
<text text-anchor="middle" x="1149.23" y="-125" font-family="Helvetica,sans-Serif" font-size="10.00">condition_variable</text>
</g>
<!-- Node24&#45;&gt;Node26 -->
<g id="edge38" class="edge"><title>Node24&#45;&gt;Node26</title>
<path fill="none" stroke="midnightblue" d="M1040.82,-184.869C1061.93,-173.893 1098.6,-154.824 1123.38,-141.938"/>
<polygon fill="midnightblue" stroke="midnightblue" points="1125.3,-144.886 1132.56,-137.167 1122.07,-138.676 1125.3,-144.886"/>
</g>
<!-- Node27 -->
<g id="node27" class="node"><title>Node27</title>
<polygon fill="none" stroke="#bfbfbf" points="1214.73,-118 1214.73,-137 1257.73,-137 1257.73,-118 1214.73,-118"/>
<text text-anchor="middle" x="1236.23" y="-125" font-family="Helvetica,sans-Serif" font-size="10.00">queue</text>
</g>
<!-- Node24&#45;&gt;Node27 -->
<g id="edge40" class="edge"><title>Node24&#45;&gt;Node27</title>
<path fill="none" stroke="midnightblue" d="M1061.89,-184.921C1098.91,-176.042 1156.74,-160.964 1205.23,-143 1206.65,-142.471 1208.11,-141.903 1209.56,-141.308"/>
<polygon fill="midnightblue" stroke="midnightblue" points="1211.31,-144.365 1219.06,-137.144 1208.5,-137.954 1211.31,-144.365"/>
</g>
</g>
</svg>
        <g id="navigator" transform="translate(0 0)" fill="#404254">
                <rect fill="#f2f5e9" fill-opacity="0.5" stroke="#606060" stroke-width=".5" x="0" y="0" width="60" height="60"/>
                <use id="zoomplus" xlink:href="#zoomPlus" x="17" y="9" onmousedown="handleZoom(evt,'in')"/>
                <use id="zoomminus" xlink:href="#zoomMin" x="42" y="9" onmousedown="handleZoom(evt,'out')"/>
                <use id="reset" xlink:href="#resetDef" x="30" y="36" onmousedown="handleReset()"/>
                <g id="arrowUp" xlink:href="#dirArrow" transform="translate(30 24)" onmousedown="handlePan(0,-1)">
                  <use xlink:href="#rim" fill="#404040">
                        <set attributeName="fill" to="#808080" begin="arrowUp.mouseover" end="arrowUp.mouseout"/>
                  </use>
                  <path fill="none" stroke="white" stroke-width="1.5" d="M0,-3.0v7 M-2.5,-0.5L0,-3.0L2.5,-0.5"/>
                </g>
                <g id="arrowRight" xlink:href="#dirArrow" transform="rotate(90) translate(36 -43)" onmousedown="handlePan(1,0)">
                  <use xlink:href="#rim" fill="#404040">
                        <set attributeName="fill" to="#808080" begin="arrowRight.mouseover" end="arrowRight.mouseout"/>
                  </use>
                  <path fill="none" stroke="white" stroke-width="1.5" d="M0,-3.0v7 M-2.5,-0.5L0,-3.0L2.5,-0.5"/>
                </g>
                <g id="arrowDown" xlink:href="#dirArrow" transform="rotate(180) translate(-30 -48)" onmousedown="handlePan(0,1)">
                  <use xlink:href="#rim" fill="#404040">
                        <set attributeName="fill" to="#808080" begin="arrowDown.mouseover" end="arrowDown.mouseout"/>
                  </use>
                  <path fill="none" stroke="white" stroke-width="1.5" d="M0,-3.0v7 M-2.5,-0.5L0,-3.0L2.5,-0.5"/>
                </g>
                <g id="arrowLeft" xlink:href="#dirArrow" transform="rotate(270) translate(-36 17)" onmousedown="handlePan(-1,0)">
                  <use xlink:href="#rim" fill="#404040">
                        <set attributeName="fill" to="#808080" begin="arrowLeft.mouseover" end="arrowLeft.mouseout"/>
                  </use>
                  <path fill="none" stroke="white" stroke-width="1.5" d="M0,-3.0v7 M-2.5,-0.5L0,-3.0L2.5,-0.5"/>
                </g>
        </g>
        <svg viewBox="0 0 15 15" width="100%" height="30px" preserveAspectRatio="xMaxYMin meet">
         <g id="arrow_out" transform="scale(0.3 0.3)">
          <a xlink:href="async__service_8hpp__incl_org.svg" target="_base">
           <rect id="button" ry="5" rx="5" y="6" x="6" height="38" width="38"
                fill="#f2f5e9" fill-opacity="0.5" stroke="#606060" stroke-width="1.0"/>
           <path id="arrow"
             d="M 11.500037,31.436501 C 11.940474,20.09759 22.043105,11.32322 32.158766,21.979434 L 37.068811,17.246167 C 37.068811,17.246167 37.088388,32 37.088388,32 L 22.160133,31.978069 C 22.160133,31.978069 26.997745,27.140456 26.997745,27.140456 C 18.528582,18.264221 13.291696,25.230495 11.500037,31.436501 z"
             style="fill:#404040;"/>
          </a>
         </g>
        </svg>
</svg>
