<?xml version="1.0" encoding="UTF-8" standalone="no"?>
<!DOCTYPE svg PUBLIC "-//W3C//DTD SVG 1.1//EN"
 "http://www.w3.org/Graphics/SVG/1.1/DTD/svg11.dtd">
<!-- Generated by graphviz version 2.38.0 (20140413.2041)
 -->
<!-- Title: src/network/async_service.hpp Pages: 1 -->
<svg width="342pt" height="196pt"
 viewBox="0.00 0.00 341.50 196.00" xmlns="http://www.w3.org/2000/svg" xmlns:xlink="http://www.w3.org/1999/xlink">
<g id="graph0" class="graph" transform="scale(1 1) rotate(0) translate(4 192)">
<title>src/network/async_service.hpp</title>
<!-- Node1 -->
<g id="node1" class="node"><title>Node1</title>
<polygon fill="#bfbfbf" stroke="black" points="167,-168.5 167,-187.5 319,-187.5 319,-168.5 167,-168.5"/>
<text text-anchor="middle" x="243" y="-175.5" font-family="Helvetica,sans-Serif" font-size="10.00">src/network/async_service.hpp</text>
</g>
<!-- Node2 -->
<g id="node2" class="node"><title>Node2</title>
<g id="a_node2"><a xlink:href="http_8hpp.html" target="_top" xlink:title="src/network/http.hpp">
<polygon fill="none" stroke="black" points="136,-112.5 136,-131.5 242,-131.5 242,-112.5 136,-112.5"/>
<text text-anchor="middle" x="189" y="-119.5" font-family="Helvetica,sans-Serif" font-size="10.00">src/network/http.hpp</text>
</a>
</g>
</g>
<!-- Node1&#45;&gt;Node2 -->
<g id="edge1" class="edge"><title>Node1&#45;&gt;Node2</title>
<path fill="none" stroke="midnightblue" d="M227.002,-161.002C217.433,-151.433 205.639,-139.639 197.751,-131.751"/>
<polygon fill="midnightblue" stroke="midnightblue" points="224.537,-163.487 234.083,-168.083 229.487,-158.537 224.537,-163.487"/>
</g>
<!-- Node7 -->
<g id="node7" class="node"><title>Node7</title>
<g id="a_node7"><a xlink:href="main_8cpp.html" target="_top" xlink:title="src/main.cpp">
<polygon fill="none" stroke="black" points="260.5,-112.5 260.5,-131.5 333.5,-131.5 333.5,-112.5 260.5,-112.5"/>
<text text-anchor="middle" x="297" y="-119.5" font-family="Helvetica,sans-Serif" font-size="10.00">src/main.cpp</text>
</a>
</g>
</g>
<!-- Node1&#45;&gt;Node7 -->
<g id="edge6" class="edge"><title>Node1&#45;&gt;Node7</title>
<path fill="none" stroke="midnightblue" d="M258.998,-161.002C268.567,-151.433 280.361,-139.639 288.249,-131.751"/>
<polygon fill="midnightblue" stroke="midnightblue" points="256.513,-158.537 251.917,-168.083 261.463,-163.487 256.513,-158.537"/>
</g>
<!-- Node3 -->
<g id="node3" class="node"><title>Node3</title>
<g id="a_node3"><a xlink:href="web-api_8hpp.html" target="_top" xlink:title="src/handler/web&#45;api.hpp">
<polygon fill="none" stroke="black" points="64,-56.5 64,-75.5 184,-75.5 184,-56.5 64,-56.5"/>
<text text-anchor="middle" x="124" y="-63.5" font-family="Helvetica,sans-Serif" font-size="10.00">src/handler/web&#45;api.hpp</text>
</a>
</g>
</g>
<!-- Node2&#45;&gt;Node3 -->
<g id="edge2" class="edge"><title>Node2&#45;&gt;Node3</title>
<path fill="none" stroke="midnightblue" d="M170.727,-105.82C159.082,-96.1452 144.401,-83.9481 134.633,-75.8339"/>
<polygon fill="midnightblue" stroke="midnightblue" points="168.628,-108.626 178.557,-112.324 173.101,-103.242 168.628,-108.626"/>
</g>
<!-- Node6 -->
<g id="node6" class="node"><title>Node6</title>
<g id="a_node6"><a xlink:href="http_8cpp.html" target="_top" xlink:title="src/network/http.cpp">
<polygon fill="none" stroke="black" points="202,-56.5 202,-75.5 308,-75.5 308,-56.5 202,-56.5"/>
<text text-anchor="middle" x="255" y="-63.5" font-family="Helvetica,sans-Serif" font-size="10.00">src/network/http.cpp</text>
</a>
</g>
</g>
<!-- Node2&#45;&gt;Node6 -->
<g id="edge5" class="edge"><title>Node2&#45;&gt;Node6</title>
<path fill="none" stroke="midnightblue" d="M207.554,-105.82C219.378,-96.1452 234.286,-83.9481 244.203,-75.8339"/>
<polygon fill="midnightblue" stroke="midnightblue" points="205.127,-103.283 199.604,-112.324 209.56,-108.7 205.127,-103.283"/>
</g>
<!-- Node4 -->
<g id="node4" class="node"><title>Node4</title>
<g id="a_node4"><a xlink:href="web-api_8cpp.html" target="_top" xlink:title="This files defines some simple Handlers using web APIs. ">
<polygon fill="none" stroke="black" points="0,-0.5 0,-19.5 120,-19.5 120,-0.5 0,-0.5"/>
<text text-anchor="middle" x="60" y="-7.5" font-family="Helvetica,sans-Serif" font-size="10.00">src/handler/web&#45;api.cpp</text>
</a>
</g>
</g>
<!-- Node3&#45;&gt;Node4 -->
<g id="edge3" class="edge"><title>Node3&#45;&gt;Node4</title>
<path fill="none" stroke="midnightblue" d="M106.009,-49.8197C94.5424,-40.1452 80.0867,-27.9481 70.4698,-19.8339"/>
<polygon fill="midnightblue" stroke="midnightblue" points="103.817,-52.5502 113.717,-56.324 108.331,-47.2002 103.817,-52.5502"/>
</g>
<!-- Node5 -->
<g id="node5" class="node"><title>Node5</title>
<g id="a_node5"><a xlink:href="fun_8cpp.html" target="_top" xlink:title="This file contains definitions for handlers which are pretty useless. ">
<polygon fill="none" stroke="black" points="138,-0.5 138,-19.5 238,-19.5 238,-0.5 138,-0.5"/>
<text text-anchor="middle" x="188" y="-7.5" font-family="Helvetica,sans-Serif" font-size="10.00">src/handler/fun.cpp</text>
</a>
</g>
</g>
<!-- Node3&#45;&gt;Node5 -->
<g id="edge4" class="edge"><title>Node3&#45;&gt;Node5</title>
<path fill="none" stroke="midnightblue" d="M141.991,-49.8197C153.458,-40.1452 167.913,-27.9481 177.53,-19.8339"/>
<polygon fill="midnightblue" stroke="midnightblue" points="139.669,-47.2002 134.283,-56.324 144.183,-52.5502 139.669,-47.2002"/>
</g>
</g>
</svg>
