<?xml version="1.0" encoding="UTF-8" standalone="no"?>
<!DOCTYPE svg PUBLIC "-//W3C//DTD SVG 1.1//EN"
 "http://www.w3.org/Graphics/SVG/1.1/DTD/svg11.dtd">
<!-- Generated by graphviz version 2.38.0 (20140413.2041)
 -->
<!-- Title: src/user/auth_system.hpp Pages: 1 -->
<svg width="213pt" height="196pt"
 viewBox="0.00 0.00 212.50 196.00" xmlns="http://www.w3.org/2000/svg" xmlns:xlink="http://www.w3.org/1999/xlink">
<g id="graph0" class="graph" transform="scale(1 1) rotate(0) translate(4 192)">
<title>src/user/auth_system.hpp</title>
<!-- Node1 -->
<g id="node1" class="node"><title>Node1</title>
<polygon fill="#bfbfbf" stroke="black" points="21.5,-168.5 21.5,-187.5 151.5,-187.5 151.5,-168.5 21.5,-168.5"/>
<text text-anchor="middle" x="86.5" y="-175.5" font-family="Helvetica,sans-Serif" font-size="10.00">src/user/auth_system.hpp</text>
</g>
<!-- Node2 -->
<g id="node2" class="node"><title>Node2</title>
<polygon fill="none" stroke="#bfbfbf" points="0,-0.5 0,-19.5 83,-19.5 83,-0.5 0,-0.5"/>
<text text-anchor="middle" x="41.5" y="-7.5" font-family="Helvetica,sans-Serif" font-size="10.00">unordered_map</text>
</g>
<!-- Node1&#45;&gt;Node2 -->
<g id="edge1" class="edge"><title>Node1&#45;&gt;Node2</title>
<path fill="none" stroke="midnightblue" d="M83.1579,-168.463C79.7131,-159.477 74.3207,-144.878 70.5,-132 59.8382,-96.0649 50.3063,-53.2535 45.271,-29.397"/>
<polygon fill="midnightblue" stroke="midnightblue" points="48.6945,-28.6684 43.2304,-19.5913 41.8413,-30.0947 48.6945,-28.6684"/>
</g>
<!-- Node3 -->
<g id="node3" class="node"><title>Node3</title>
<g id="a_node3"><a xlink:href="user__group_8hpp.html" target="_top" xlink:title="user_group.hpp">
<polygon fill="none" stroke="black" points="80,-112.5 80,-131.5 163,-131.5 163,-112.5 80,-112.5"/>
<text text-anchor="middle" x="121.5" y="-119.5" font-family="Helvetica,sans-Serif" font-size="10.00">user_group.hpp</text>
</a>
</g>
</g>
<!-- Node1&#45;&gt;Node3 -->
<g id="edge2" class="edge"><title>Node1&#45;&gt;Node3</title>
<path fill="none" stroke="midnightblue" d="M92.2795,-168.083C97.1724,-160.534 104.327,-149.495 110.333,-140.23"/>
<polygon fill="midnightblue" stroke="midnightblue" points="113.326,-142.046 115.828,-131.751 107.452,-138.239 113.326,-142.046"/>
</g>
<!-- Node4 -->
<g id="node4" class="node"><title>Node4</title>
<polygon fill="none" stroke="#bfbfbf" points="160.5,-0.5 160.5,-19.5 204.5,-19.5 204.5,-0.5 160.5,-0.5"/>
<text text-anchor="middle" x="182.5" y="-7.5" font-family="Helvetica,sans-Serif" font-size="10.00">vector</text>
</g>
<!-- Node3&#45;&gt;Node4 -->
<g id="edge3" class="edge"><title>Node3&#45;&gt;Node4</title>
<path fill="none" stroke="midnightblue" d="M129.829,-112.293C137.763,-103.639 149.632,-89.7107 157.5,-76 165.962,-61.2531 172.671,-43.0939 177,-29.7212"/>
<polygon fill="midnightblue" stroke="midnightblue" points="180.459,-30.3813 180.062,-19.7939 173.77,-28.3179 180.459,-30.3813"/>
</g>
<!-- Node5 -->
<g id="node5" class="node"><title>Node5</title>
<g id="a_node5"><a xlink:href="user_8hpp.html" target="_top" xlink:title="user.hpp">
<polygon fill="none" stroke="black" points="94.5,-56.5 94.5,-75.5 148.5,-75.5 148.5,-56.5 94.5,-56.5"/>
<text text-anchor="middle" x="121.5" y="-63.5" font-family="Helvetica,sans-Serif" font-size="10.00">user.hpp</text>
</a>
</g>
</g>
<!-- Node3&#45;&gt;Node5 -->
<g id="edge4" class="edge"><title>Node3&#45;&gt;Node5</title>
<path fill="none" stroke="midnightblue" d="M121.5,-112.083C121.5,-105.006 121.5,-94.8611 121.5,-85.9865"/>
<polygon fill="midnightblue" stroke="midnightblue" points="125,-85.751 121.5,-75.7511 118,-85.7511 125,-85.751"/>
</g>
<!-- Node5&#45;&gt;Node2 -->
<g id="edge7" class="edge"><title>Node5&#45;&gt;Node2</title>
<path fill="none" stroke="midnightblue" d="M108.647,-56.324C96.2836,-47.979 77.3699,-35.2122 62.7628,-25.3524"/>
<polygon fill="midnightblue" stroke="midnightblue" points="64.5682,-22.3483 54.3215,-19.6545 60.6518,-28.1503 64.5682,-22.3483"/>
</g>
<!-- Node5&#45;&gt;Node4 -->
<g id="edge6" class="edge"><title>Node5&#45;&gt;Node4</title>
<path fill="none" stroke="midnightblue" d="M131.301,-56.324C140.318,-48.3414 153.906,-36.3128 164.818,-26.6529"/>
<polygon fill="midnightblue" stroke="midnightblue" points="167.353,-29.083 172.521,-19.8339 162.713,-23.8416 167.353,-29.083"/>
</g>
<!-- Node6 -->
<g id="node6" class="node"><title>Node6</title>
<polygon fill="none" stroke="#bfbfbf" points="101,-0.5 101,-19.5 142,-19.5 142,-0.5 101,-0.5"/>
<text text-anchor="middle" x="121.5" y="-7.5" font-family="Helvetica,sans-Serif" font-size="10.00">string</text>
</g>
<!-- Node5&#45;&gt;Node6 -->
<g id="edge5" class="edge"><title>Node5&#45;&gt;Node6</title>
<path fill="none" stroke="midnightblue" d="M121.5,-56.083C121.5,-49.0059 121.5,-38.8611 121.5,-29.9865"/>
<polygon fill="midnightblue" stroke="midnightblue" points="125,-29.751 121.5,-19.7511 118,-29.7511 125,-29.751"/>
</g>
</g>
</svg>
