<?xml version="1.0" encoding="UTF-8" standalone="no"?>
<!DOCTYPE svg PUBLIC "-//W3C//DTD SVG 1.1//EN"
 "http://www.w3.org/Graphics/SVG/1.1/DTD/svg11.dtd">
<!-- Generated by graphviz version 2.38.0 (20140413.2041)
 -->
<!-- Title: src/user/auth_system.hpp Pages: 1 -->
<svg width="1644pt" height="341pt"
 viewBox="0.00 0.00 1644.00 341.00" xmlns="http://www.w3.org/2000/svg" xmlns:xlink="http://www.w3.org/1999/xlink">
<g id="graph0" class="graph" transform="scale(1 1) rotate(0) translate(4 337)">
<title>src/user/auth_system.hpp</title>
<!-- Node1 -->
<g id="node1" class="node"><title>Node1</title>
<polygon fill="#bfbfbf" stroke="black" points="1303,-313.5 1303,-332.5 1433,-332.5 1433,-313.5 1303,-313.5"/>
<text text-anchor="middle" x="1368" y="-320.5" font-family="Helvetica,sans-Serif" font-size="10.00">src/user/auth_system.hpp</text>
</g>
<!-- Node2 -->
<g id="node2" class="node"><title>Node2</title>
<g id="a_node2"><a xlink:href="src_2network_2connection_8hpp.html" target="_top" xlink:title="src/network/connection.hpp">
<polygon fill="none" stroke="black" points="1299.5,-257.5 1299.5,-276.5 1436.5,-276.5 1436.5,-257.5 1299.5,-257.5"/>
<text text-anchor="middle" x="1368" y="-264.5" font-family="Helvetica,sans-Serif" font-size="10.00">src/network/connection.hpp</text>
</a>
</g>
</g>
<!-- Node1&#45;&gt;Node2 -->
<g id="edge1" class="edge"><title>Node1&#45;&gt;Node2</title>
<path fill="none" stroke="midnightblue" d="M1368,-302.805C1368,-293.91 1368,-283.78 1368,-276.751"/>
<polygon fill="midnightblue" stroke="midnightblue" points="1364.5,-303.083 1368,-313.083 1371.5,-303.083 1364.5,-303.083"/>
</g>
<!-- Node3 -->
<g id="node3" class="node"><title>Node3</title>
<g id="a_node3"><a xlink:href="melanobot_8hpp.html" target="_top" xlink:title="src/melanobot.hpp">
<polygon fill="none" stroke="black" points="1281.5,-196 1281.5,-215 1378.5,-215 1378.5,-196 1281.5,-196"/>
<text text-anchor="middle" x="1330" y="-203" font-family="Helvetica,sans-Serif" font-size="10.00">src/melanobot.hpp</text>
</a>
</g>
</g>
<!-- Node2&#45;&gt;Node3 -->
<g id="edge2" class="edge"><title>Node2&#45;&gt;Node3</title>
<path fill="none" stroke="midnightblue" d="M1357.15,-249.005C1350.05,-237.888 1341.07,-223.84 1335.43,-215.009"/>
<polygon fill="midnightblue" stroke="midnightblue" points="1354.22,-250.931 1362.56,-257.475 1360.12,-247.163 1354.22,-250.931"/>
</g>
<!-- Node5 -->
<g id="node5" class="node"><title>Node5</title>
<g id="a_node5"><a xlink:href="handler_8hpp.html" target="_top" xlink:title="src/handler/handler.hpp">
<polygon fill="none" stroke="black" points="827,-129 827,-148 945,-148 945,-129 827,-129"/>
<text text-anchor="middle" x="886" y="-136" font-family="Helvetica,sans-Serif" font-size="10.00">src/handler/handler.hpp</text>
</a>
</g>
</g>
<!-- Node2&#45;&gt;Node5 -->
<g id="edge27" class="edge"><title>Node2&#45;&gt;Node5</title>
<path fill="none" stroke="midnightblue" d="M1325.41,-254.822C1230.45,-229.901 1003.12,-170.237 918.479,-148.024"/>
<polygon fill="midnightblue" stroke="midnightblue" points="1324.69,-258.251 1335.25,-257.405 1326.47,-251.481 1324.69,-258.251"/>
</g>
<!-- Node20 -->
<g id="node20" class="node"><title>Node20</title>
<g id="a_node20"><a xlink:href="modules_2irc_2network_2connection_8hpp.html" target="_top" xlink:title="modules/irc/network\l/connection.hpp">
<polygon fill="none" stroke="black" points="1410,-123.5 1410,-153.5 1514,-153.5 1514,-123.5 1410,-123.5"/>
<text text-anchor="start" x="1418" y="-141.5" font-family="Helvetica,sans-Serif" font-size="10.00">modules/irc/network</text>
<text text-anchor="middle" x="1462" y="-130.5" font-family="Helvetica,sans-Serif" font-size="10.00">/connection.hpp</text>
</a>
</g>
</g>
<!-- Node2&#45;&gt;Node20 -->
<g id="edge31" class="edge"><title>Node2&#45;&gt;Node20</title>
<path fill="none" stroke="midnightblue" d="M1380.54,-249.13C1399.16,-224.067 1433.81,-177.431 1451.31,-153.888"/>
<polygon fill="midnightblue" stroke="midnightblue" points="1377.62,-247.191 1374.46,-257.305 1383.23,-251.366 1377.62,-247.191"/>
</g>
<!-- Node23 -->
<g id="node23" class="node"><title>Node23</title>
<g id="a_node23"><a xlink:href="buffer_8hpp.html" target="_top" xlink:title="modules/irc/network\l/buffer.hpp">
<polygon fill="none" stroke="black" points="1435,-190.5 1435,-220.5 1539,-220.5 1539,-190.5 1435,-190.5"/>
<text text-anchor="start" x="1443" y="-208.5" font-family="Helvetica,sans-Serif" font-size="10.00">modules/irc/network</text>
<text text-anchor="middle" x="1487" y="-197.5" font-family="Helvetica,sans-Serif" font-size="10.00">/buffer.hpp</text>
</a>
</g>
</g>
<!-- Node2&#45;&gt;Node23 -->
<g id="edge28" class="edge"><title>Node2&#45;&gt;Node23</title>
<path fill="none" stroke="midnightblue" d="M1394.12,-252.938C1413.31,-243.347 1439.33,-230.334 1458.95,-220.523"/>
<polygon fill="midnightblue" stroke="midnightblue" points="1392.43,-249.872 1385.05,-257.475 1395.56,-256.133 1392.43,-249.872"/>
</g>
<!-- Node4 -->
<g id="node4" class="node"><title>Node4</title>
<g id="a_node4"><a xlink:href="melanobot_8cpp.html" target="_top" xlink:title="src/melanobot.cpp">
<polygon fill="none" stroke="black" points="1256.5,-62 1256.5,-81 1353.5,-81 1353.5,-62 1256.5,-62"/>
<text text-anchor="middle" x="1305" y="-69" font-family="Helvetica,sans-Serif" font-size="10.00">src/melanobot.cpp</text>
</a>
</g>
</g>
<!-- Node3&#45;&gt;Node4 -->
<g id="edge3" class="edge"><title>Node3&#45;&gt;Node4</title>
<path fill="none" stroke="midnightblue" d="M1321.34,-186.684C1317.15,-177.206 1312.5,-165.221 1310,-154 1304.21,-127.987 1304.23,-96.227 1304.64,-81.19"/>
<polygon fill="midnightblue" stroke="midnightblue" points="1318.2,-188.229 1325.58,-195.829 1324.55,-185.285 1318.2,-188.229"/>
</g>
<!-- Node3&#45;&gt;Node5 -->
<g id="edge4" class="edge"><title>Node3&#45;&gt;Node5</title>
<path fill="none" stroke="midnightblue" d="M1271.19,-195.891C1186.01,-183.421 1029.24,-160.47 944.331,-148.039"/>
<polygon fill="midnightblue" stroke="midnightblue" points="1270.81,-199.372 1281.21,-197.358 1271.83,-192.446 1270.81,-199.372"/>
</g>
<!-- Node19 -->
<g id="node19" class="node"><title>Node19</title>
<g id="a_node19"><a xlink:href="main_8cpp.html" target="_top" xlink:title="src/main.cpp">
<polygon fill="none" stroke="black" points="1318.5,-129 1318.5,-148 1391.5,-148 1391.5,-129 1318.5,-129"/>
<text text-anchor="middle" x="1355" y="-136" font-family="Helvetica,sans-Serif" font-size="10.00">src/main.cpp</text>
</a>
</g>
</g>
<!-- Node3&#45;&gt;Node19 -->
<g id="edge22" class="edge"><title>Node3&#45;&gt;Node19</title>
<path fill="none" stroke="midnightblue" d="M1337,-186.29C1341.8,-173.808 1347.96,-157.814 1351.68,-148.127"/>
<polygon fill="midnightblue" stroke="midnightblue" points="1333.69,-185.144 1333.37,-195.734 1340.23,-187.657 1333.69,-185.144"/>
</g>
<!-- Node3&#45;&gt;Node20 -->
<g id="edge23" class="edge"><title>Node3&#45;&gt;Node20</title>
<path fill="none" stroke="midnightblue" d="M1356.72,-191.342C1378.94,-180.4 1410.5,-164.86 1433.26,-153.652"/>
<polygon fill="midnightblue" stroke="midnightblue" points="1354.95,-188.311 1347.53,-195.869 1358.05,-194.591 1354.95,-188.311"/>
</g>
<!-- Node5&#45;&gt;Node4 -->
<g id="edge5" class="edge"><title>Node5&#45;&gt;Node4</title>
<path fill="none" stroke="midnightblue" d="M955.078,-130.043C1028,-121.656 1146.14,-106.605 1247,-87 1255.66,-85.3166 1264.96,-83.1526 1273.53,-81.0126"/>
<polygon fill="midnightblue" stroke="midnightblue" points="954.633,-126.57 945.094,-131.182 955.427,-133.525 954.633,-126.57"/>
</g>
<!-- Node6 -->
<g id="node6" class="node"><title>Node6</title>
<g id="a_node6"><a xlink:href="web-api_8hpp.html" target="_top" xlink:title="src/handler/web&#45;api.hpp">
<polygon fill="none" stroke="black" points="118,-62 118,-81 238,-81 238,-62 118,-62"/>
<text text-anchor="middle" x="178" y="-69" font-family="Helvetica,sans-Serif" font-size="10.00">src/handler/web&#45;api.hpp</text>
</a>
</g>
</g>
<!-- Node5&#45;&gt;Node6 -->
<g id="edge6" class="edge"><title>Node5&#45;&gt;Node6</title>
<path fill="none" stroke="midnightblue" d="M816.386,-134.924C698.627,-129.913 452.822,-116.635 247,-87 236.338,-85.4649 224.853,-83.2718 214.37,-81.0544"/>
<polygon fill="midnightblue" stroke="midnightblue" points="816.557,-138.434 826.694,-135.355 816.849,-131.44 816.557,-138.434"/>
</g>
<!-- Node9 -->
<g id="node9" class="node"><title>Node9</title>
<g id="a_node9"><a xlink:href="misc_8cpp.html" target="_top" xlink:title="This file defines handlers which perform miscellaneous tasks. ">
<polygon fill="none" stroke="black" points="387.5,-62 387.5,-81 494.5,-81 494.5,-62 387.5,-62"/>
<text text-anchor="middle" x="441" y="-69" font-family="Helvetica,sans-Serif" font-size="10.00">src/handler/misc.cpp</text>
</a>
</g>
</g>
<!-- Node5&#45;&gt;Node9 -->
<g id="edge9" class="edge"><title>Node5&#45;&gt;Node9</title>
<path fill="none" stroke="midnightblue" d="M816.946,-130.47C740.01,-122.157 612.083,-106.897 503,-87 493.756,-85.3139 483.816,-83.149 474.66,-81.009"/>
<polygon fill="midnightblue" stroke="midnightblue" points="816.678,-133.962 826.995,-131.548 817.425,-127.001 816.678,-133.962"/>
</g>
<!-- Node10 -->
<g id="node10" class="node"><title>Node10</title>
<g id="a_node10"><a xlink:href="bridge_8hpp.html" target="_top" xlink:title="src/handler/bridge.hpp">
<polygon fill="none" stroke="black" points="256.5,-62 256.5,-81 369.5,-81 369.5,-62 256.5,-62"/>
<text text-anchor="middle" x="313" y="-69" font-family="Helvetica,sans-Serif" font-size="10.00">src/handler/bridge.hpp</text>
</a>
</g>
</g>
<!-- Node5&#45;&gt;Node10 -->
<g id="edge10" class="edge"><title>Node5&#45;&gt;Node10</title>
<path fill="none" stroke="midnightblue" d="M816.56,-133.256C718.417,-126.655 533.721,-112.016 378,-87 368.068,-85.4045 357.38,-83.2188 347.596,-81.0283"/>
<polygon fill="midnightblue" stroke="midnightblue" points="816.439,-136.756 826.649,-133.927 816.904,-129.771 816.439,-136.756"/>
</g>
<!-- Node12 -->
<g id="node12" class="node"><title>Node12</title>
<g id="a_node12"><a xlink:href="admin_8cpp.html" target="_top" xlink:title="This file defines handlers which allows admin to administrate the bot. ">
<polygon fill="none" stroke="black" points="512.5,-62 512.5,-81 625.5,-81 625.5,-62 512.5,-62"/>
<text text-anchor="middle" x="569" y="-69" font-family="Helvetica,sans-Serif" font-size="10.00">src/handler/admin.cpp</text>
</a>
</g>
</g>
<!-- Node5&#45;&gt;Node12 -->
<g id="edge12" class="edge"><title>Node5&#45;&gt;Node12</title>
<path fill="none" stroke="midnightblue" d="M831.949,-127.021C780.873,-117.035 702.138,-101.426 634,-87 625.177,-85.1321 615.696,-83.0564 606.778,-81.0728"/>
<polygon fill="midnightblue" stroke="midnightblue" points="831.299,-130.46 841.784,-128.941 832.64,-123.589 831.299,-130.46"/>
</g>
<!-- Node13 -->
<g id="node13" class="node"><title>Node13</title>
<g id="a_node13"><a xlink:href="handler_8cpp.html" target="_top" xlink:title="This file contains the definitions for the most basic and reusable handlers. ">
<polygon fill="none" stroke="black" points="763,-62 763,-81 881,-81 881,-62 763,-62"/>
<text text-anchor="middle" x="822" y="-69" font-family="Helvetica,sans-Serif" font-size="10.00">src/handler/handler.cpp</text>
</a>
</g>
</g>
<!-- Node5&#45;&gt;Node13 -->
<g id="edge13" class="edge"><title>Node5&#45;&gt;Node13</title>
<path fill="none" stroke="midnightblue" d="M870.243,-121.497C857.692,-108.75 840.604,-91.3947 830.495,-81.1273"/>
<polygon fill="midnightblue" stroke="midnightblue" points="867.859,-124.064 877.369,-128.734 872.847,-119.152 867.859,-124.064"/>
</g>
<!-- Node14 -->
<g id="node14" class="node"><title>Node14</title>
<g id="a_node14"><a xlink:href="irc__actions_8hpp.html" target="_top" xlink:title="File containing Handlers which manage responses to various IRC commands. ">
<polygon fill="none" stroke="black" points="643.5,-56.5 643.5,-86.5 744.5,-86.5 744.5,-56.5 643.5,-56.5"/>
<text text-anchor="start" x="651.5" y="-74.5" font-family="Helvetica,sans-Serif" font-size="10.00">modules/irc/handler</text>
<text text-anchor="middle" x="694" y="-63.5" font-family="Helvetica,sans-Serif" font-size="10.00">/irc_actions.hpp</text>
</a>
</g>
</g>
<!-- Node5&#45;&gt;Node14 -->
<g id="edge14" class="edge"><title>Node5&#45;&gt;Node14</title>
<path fill="none" stroke="midnightblue" d="M850.946,-125.633C818.391,-114.612 769.894,-98.1933 735.437,-86.5281"/>
<polygon fill="midnightblue" stroke="midnightblue" points="849.91,-128.977 860.504,-128.869 852.154,-122.347 849.91,-128.977"/>
</g>
<!-- Node16 -->
<g id="node16" class="node"><title>Node16</title>
<g id="a_node16"><a xlink:href="ctcp_8hpp.html" target="_top" xlink:title="This files has handlers for CTCP messages. ">
<polygon fill="none" stroke="black" points="899.5,-56.5 899.5,-86.5 1000.5,-86.5 1000.5,-56.5 899.5,-56.5"/>
<text text-anchor="start" x="907.5" y="-74.5" font-family="Helvetica,sans-Serif" font-size="10.00">modules/irc/handler</text>
<text text-anchor="middle" x="950" y="-63.5" font-family="Helvetica,sans-Serif" font-size="10.00">/ctcp.hpp</text>
</a>
</g>
</g>
<!-- Node5&#45;&gt;Node16 -->
<g id="edge16" class="edge"><title>Node5&#45;&gt;Node16</title>
<path fill="none" stroke="midnightblue" d="M901.947,-121.304C912.452,-110.635 926.072,-96.8021 936.128,-86.589"/>
<polygon fill="midnightblue" stroke="midnightblue" points="899.153,-119.152 894.631,-128.734 904.141,-124.064 899.153,-119.152"/>
</g>
<!-- Node17 -->
<g id="node17" class="node"><title>Node17</title>
<g id="a_node17"><a xlink:href="irc__admin_8hpp.html" target="_top" xlink:title="This file defines handlers which allows admin to administrate the bot (IRC&#45;specific actions) ...">
<polygon fill="none" stroke="black" points="1018.5,-56.5 1018.5,-86.5 1119.5,-86.5 1119.5,-56.5 1018.5,-56.5"/>
<text text-anchor="start" x="1026.5" y="-74.5" font-family="Helvetica,sans-Serif" font-size="10.00">modules/irc/handler</text>
<text text-anchor="middle" x="1069" y="-63.5" font-family="Helvetica,sans-Serif" font-size="10.00">/irc_admin.hpp</text>
</a>
</g>
</g>
<!-- Node5&#45;&gt;Node17 -->
<g id="edge18" class="edge"><title>Node5&#45;&gt;Node17</title>
<path fill="none" stroke="midnightblue" d="M919.813,-125.49C950.838,-114.47 996.805,-98.143 1029.51,-86.5281"/>
<polygon fill="midnightblue" stroke="midnightblue" points="918.553,-122.223 910.301,-128.869 920.896,-128.82 918.553,-122.223"/>
</g>
<!-- Node18 -->
<g id="node18" class="node"><title>Node18</title>
<g id="a_node18"><a xlink:href="irc__whois_8hpp.html" target="_top" xlink:title="This file contains handlers for WHOIS recognition on IRC. ">
<polygon fill="none" stroke="black" points="1137.5,-56.5 1137.5,-86.5 1238.5,-86.5 1238.5,-56.5 1137.5,-56.5"/>
<text text-anchor="start" x="1145.5" y="-74.5" font-family="Helvetica,sans-Serif" font-size="10.00">modules/irc/handler</text>
<text text-anchor="middle" x="1188" y="-63.5" font-family="Helvetica,sans-Serif" font-size="10.00">/irc_whois.hpp</text>
</a>
</g>
</g>
<!-- Node5&#45;&gt;Node18 -->
<g id="edge20" class="edge"><title>Node5&#45;&gt;Node18</title>
<path fill="none" stroke="midnightblue" d="M938.999,-126.939C988.097,-117.036 1063.11,-101.608 1128,-87 1131.03,-86.3175 1134.15,-85.6035 1137.29,-84.874"/>
<polygon fill="midnightblue" stroke="midnightblue" points="938.041,-123.561 928.928,-128.965 939.422,-130.424 938.041,-123.561"/>
</g>
<!-- Node7 -->
<g id="node7" class="node"><title>Node7</title>
<g id="a_node7"><a xlink:href="web-api_8cpp.html" target="_top" xlink:title="This files defines some simple Handlers using web APIs. ">
<polygon fill="none" stroke="black" points="118,-0.5 118,-19.5 238,-19.5 238,-0.5 118,-0.5"/>
<text text-anchor="middle" x="178" y="-7.5" font-family="Helvetica,sans-Serif" font-size="10.00">src/handler/web&#45;api.cpp</text>
</a>
</g>
</g>
<!-- Node6&#45;&gt;Node7 -->
<g id="edge7" class="edge"><title>Node6&#45;&gt;Node7</title>
<path fill="none" stroke="midnightblue" d="M178,-51.8165C178,-40.9962 178,-27.898 178,-19.5091"/>
<polygon fill="midnightblue" stroke="midnightblue" points="174.5,-51.9751 178,-61.9751 181.5,-51.9751 174.5,-51.9751"/>
</g>
<!-- Node8 -->
<g id="node8" class="node"><title>Node8</title>
<g id="a_node8"><a xlink:href="fun_8cpp.html" target="_top" xlink:title="This file contains definitions for handlers which are pretty useless. ">
<polygon fill="none" stroke="black" points="0,-0.5 0,-19.5 100,-19.5 100,-0.5 0,-0.5"/>
<text text-anchor="middle" x="50" y="-7.5" font-family="Helvetica,sans-Serif" font-size="10.00">src/handler/fun.cpp</text>
</a>
</g>
</g>
<!-- Node6&#45;&gt;Node8 -->
<g id="edge8" class="edge"><title>Node6&#45;&gt;Node8</title>
<path fill="none" stroke="midnightblue" d="M150.408,-57.6742C125.571,-46.1287 89.7714,-29.4875 68.3053,-19.5091"/>
<polygon fill="midnightblue" stroke="midnightblue" points="149.117,-60.9336 159.661,-61.9751 152.068,-54.5859 149.117,-60.9336"/>
</g>
<!-- Node11 -->
<g id="node11" class="node"><title>Node11</title>
<g id="a_node11"><a xlink:href="bridge_8cpp.html" target="_top" xlink:title="src/handler/bridge.cpp">
<polygon fill="none" stroke="black" points="256.5,-0.5 256.5,-19.5 369.5,-19.5 369.5,-0.5 256.5,-0.5"/>
<text text-anchor="middle" x="313" y="-7.5" font-family="Helvetica,sans-Serif" font-size="10.00">src/handler/bridge.cpp</text>
</a>
</g>
</g>
<!-- Node10&#45;&gt;Node11 -->
<g id="edge11" class="edge"><title>Node10&#45;&gt;Node11</title>
<path fill="none" stroke="midnightblue" d="M313,-51.8165C313,-40.9962 313,-27.898 313,-19.5091"/>
<polygon fill="midnightblue" stroke="midnightblue" points="309.5,-51.9751 313,-61.9751 316.5,-51.9751 309.5,-51.9751"/>
</g>
<!-- Node15 -->
<g id="node15" class="node"><title>Node15</title>
<g id="a_node15"><a xlink:href="irc_8cpp.html" target="_top" xlink:title="modules/irc/irc.cpp">
<polygon fill="none" stroke="black" points="1019.5,-0.5 1019.5,-19.5 1118.5,-19.5 1118.5,-0.5 1019.5,-0.5"/>
<text text-anchor="middle" x="1069" y="-7.5" font-family="Helvetica,sans-Serif" font-size="10.00">modules/irc/irc.cpp</text>
</a>
</g>
</g>
<!-- Node14&#45;&gt;Node15 -->
<g id="edge15" class="edge"><title>Node14&#45;&gt;Node15</title>
<path fill="none" stroke="midnightblue" d="M754.598,-56.0032C854.217,-37.2223 959.121,-23.7435 1019.38,-16.6062"/>
<polygon fill="midnightblue" stroke="midnightblue" points="753.833,-52.5859 744.665,-57.897 755.144,-59.462 753.833,-52.5859"/>
</g>
<!-- Node16&#45;&gt;Node15 -->
<g id="edge17" class="edge"><title>Node16&#45;&gt;Node15</title>
<path fill="none" stroke="midnightblue" d="M987.409,-51.7954C1008.91,-41.0428 1034.91,-28.0467 1051.68,-19.6578"/>
<polygon fill="midnightblue" stroke="midnightblue" points="985.58,-48.7966 978.201,-56.3993 988.711,-55.0576 985.58,-48.7966"/>
</g>
<!-- Node17&#45;&gt;Node15 -->
<g id="edge19" class="edge"><title>Node17&#45;&gt;Node15</title>
<path fill="none" stroke="midnightblue" d="M1069,-46.2892C1069,-36.857 1069,-26.6548 1069,-19.6578"/>
<polygon fill="midnightblue" stroke="midnightblue" points="1065.5,-46.3993 1069,-56.3993 1072.5,-46.3994 1065.5,-46.3993"/>
</g>
<!-- Node18&#45;&gt;Node15 -->
<g id="edge21" class="edge"><title>Node18&#45;&gt;Node15</title>
<path fill="none" stroke="midnightblue" d="M1150.59,-51.7954C1129.09,-41.0428 1103.09,-28.0467 1086.32,-19.6578"/>
<polygon fill="midnightblue" stroke="midnightblue" points="1149.29,-55.0576 1159.8,-56.3993 1152.42,-48.7966 1149.29,-55.0576"/>
</g>
<!-- Node20&#45;&gt;Node15 -->
<g id="edge24" class="edge"><title>Node20&#45;&gt;Node15</title>
<path fill="none" stroke="midnightblue" d="M1437.29,-117.026C1408.33,-93.0443 1364.09,-56.4878 1363,-56 1282.62,-20.0756 1178.9,-12.0427 1118.58,-10.6841"/>
<polygon fill="midnightblue" stroke="midnightblue" points="1435.07,-119.734 1445.01,-123.417 1439.54,-114.343 1435.07,-119.734"/>
</g>
<!-- Node21 -->
<g id="node21" class="node"><title>Node21</title>
<g id="a_node21"><a xlink:href="buffer_8cpp.html" target="_top" xlink:title="modules/irc/network\l/buffer.cpp">
<polygon fill="none" stroke="black" points="1532,-56.5 1532,-86.5 1636,-86.5 1636,-56.5 1532,-56.5"/>
<text text-anchor="start" x="1540" y="-74.5" font-family="Helvetica,sans-Serif" font-size="10.00">modules/irc/network</text>
<text text-anchor="middle" x="1584" y="-63.5" font-family="Helvetica,sans-Serif" font-size="10.00">/buffer.cpp</text>
</a>
</g>
</g>
<!-- Node20&#45;&gt;Node21 -->
<g id="edge25" class="edge"><title>Node20&#45;&gt;Node21</title>
<path fill="none" stroke="midnightblue" d="M1497.52,-118.575C1516.71,-108.35 1540,-95.94 1557.58,-86.5765"/>
<polygon fill="midnightblue" stroke="midnightblue" points="1495.65,-115.605 1488.47,-123.396 1498.94,-121.783 1495.65,-115.605"/>
</g>
<!-- Node22 -->
<g id="node22" class="node"><title>Node22</title>
<g id="a_node22"><a xlink:href="connection_8cpp.html" target="_top" xlink:title="modules/irc/network\l/connection.cpp">
<polygon fill="none" stroke="black" points="1410,-56.5 1410,-86.5 1514,-86.5 1514,-56.5 1410,-56.5"/>
<text text-anchor="start" x="1418" y="-74.5" font-family="Helvetica,sans-Serif" font-size="10.00">modules/irc/network</text>
<text text-anchor="middle" x="1462" y="-63.5" font-family="Helvetica,sans-Serif" font-size="10.00">/connection.cpp</text>
</a>
</g>
</g>
<!-- Node20&#45;&gt;Node22 -->
<g id="edge26" class="edge"><title>Node20&#45;&gt;Node22</title>
<path fill="none" stroke="midnightblue" d="M1462,-113.108C1462,-104.154 1462,-94.3227 1462,-86.5765"/>
<polygon fill="midnightblue" stroke="midnightblue" points="1458.5,-113.396 1462,-123.396 1465.5,-113.396 1458.5,-113.396"/>
</g>
<!-- Node23&#45;&gt;Node20 -->
<g id="edge30" class="edge"><title>Node23&#45;&gt;Node20</title>
<path fill="none" stroke="midnightblue" d="M1477.96,-180.991C1474.42,-171.804 1470.49,-161.578 1467.41,-153.577"/>
<polygon fill="midnightblue" stroke="midnightblue" points="1474.72,-182.319 1481.58,-190.396 1481.25,-179.806 1474.72,-182.319"/>
</g>
<!-- Node23&#45;&gt;Node21 -->
<g id="edge29" class="edge"><title>Node23&#45;&gt;Node21</title>
<path fill="none" stroke="midnightblue" d="M1503.39,-182.189C1523.48,-154.859 1556.9,-109.383 1573.69,-86.5247"/>
<polygon fill="midnightblue" stroke="midnightblue" points="1500.48,-180.243 1497.38,-190.374 1506.12,-184.388 1500.48,-180.243"/>
</g>
</g>
</svg>
