<?xml version="1.0" encoding="UTF-8" standalone="no"?>
<!DOCTYPE svg PUBLIC "-//W3C//DTD SVG 1.1//EN"
 "http://www.w3.org/Graphics/SVG/1.1/DTD/svg11.dtd">
<!-- Generated by graphviz version 2.38.0 (20140413.2041)
 -->
<!-- Title: src/user/auth_system.hpp Pages: 1 -->
<!--zoomable 408 -->
<svg id="main" version="1.1" xmlns="http://www.w3.org/2000/svg" xmlns:xlink="http://www.w3.org/1999/xlink" xml:space="preserve" onload="init(evt)">
<style type="text/css"><![CDATA[
.edge:hover path { stroke: red; }
.edge:hover polygon { stroke: red; fill: red; }
]]></style>
<script type="text/javascript"><![CDATA[
var edges = document.getElementsByTagName('g');
if (edges && edges.length) {
  for (var i=0;i<edges.length;i++) {
    if (edges[i].id.substr(0,4)=='edge') {
      edges[i].setAttribute('class','edge');
    }
  }
}
]]></script>
        <defs>
                <circle id="rim" cx="0" cy="0" r="7"/>
                <circle id="rim2" cx="0" cy="0" r="3.5"/>
                <g id="zoomPlus">
                        <use xlink:href="#rim" fill="#404040">
                                <set attributeName="fill" to="#808080" begin="zoomplus.mouseover" end="zoomplus.mouseout"/>
                        </use>
                        <path d="M-4,0h8M0,-4v8" fill="none" stroke="white" stroke-width="1.5" pointer-events="none"/>
                </g>
                <g id="zoomMin">
                        <use xlink:href="#rim" fill="#404040">
                                <set attributeName="fill" to="#808080" begin="zoomminus.mouseover" end="zoomminus.mouseout"/>
                        </use>
                        <path d="M-4,0h8" fill="none" stroke="white" stroke-width="1.5" pointer-events="none"/>
                </g>
                <g id="dirArrow">
                        <path fill="none" stroke="white" stroke-width="1.5" d="M0,-3.0v7 M-2.5,-0.5L0,-3.0L2.5,-0.5"/>
                </g>
               <g id="resetDef">
                       <use xlink:href="#rim2" fill="#404040">
                               <set attributeName="fill" to="#808080" begin="reset.mouseover" end="reset.mouseout"/>
                       </use>
               </g>
        </defs>

<script type="text/javascript">
var viewWidth = 1575;
var viewHeight = 408;
var sectionId = 'dynsection-1';
</script>
<script xlink:href="svgpan.js"/>
<svg id="graph" class="graph">
<g id="viewport">
<title>src/user/auth_system.hpp</title>
<!-- Node1 -->
<g id="node1" class="node"><title>Node1</title>
<polygon fill="#bfbfbf" stroke="black" points="1175.5,-380.5 1175.5,-399.5 1305.5,-399.5 1305.5,-380.5 1175.5,-380.5"/>
<text text-anchor="middle" x="1240.5" y="-387.5" font-family="Helvetica,sans-Serif" font-size="10.00">src/user/auth_system.hpp</text>
</g>
<!-- Node2 -->
<g id="node2" class="node"><title>Node2</title>
<g id="a_node2"><a xlink:href="src_2network_2connection_8hpp.html" target="_top" xlink:title="src/network/connection.hpp">
<polygon fill="none" stroke="black" points="1172,-324.5 1172,-343.5 1309,-343.5 1309,-324.5 1172,-324.5"/>
<text text-anchor="middle" x="1240.5" y="-331.5" font-family="Helvetica,sans-Serif" font-size="10.00">src/network/connection.hpp</text>
</a>
</g>
</g>
<!-- Node1&#45;&gt;Node2 -->
<g id="edge1" class="edge"><title>Node1&#45;&gt;Node2</title>
<path fill="none" stroke="midnightblue" d="M1240.5,-369.805C1240.5,-360.91 1240.5,-350.78 1240.5,-343.751"/>
<polygon fill="midnightblue" stroke="midnightblue" points="1237,-370.083 1240.5,-380.083 1244,-370.083 1237,-370.083"/>
</g>
<!-- Node3 -->
<g id="node3" class="node"><title>Node3</title>
<g id="a_node3"><a xlink:href="melanobot_8hpp.html" target="_top" xlink:title="src/melanobot.hpp">
<polygon fill="none" stroke="black" points="1154,-263 1154,-282 1251,-282 1251,-263 1154,-263"/>
<text text-anchor="middle" x="1202.5" y="-270" font-family="Helvetica,sans-Serif" font-size="10.00">src/melanobot.hpp</text>
</a>
</g>
</g>
<!-- Node2&#45;&gt;Node3 -->
<g id="edge2" class="edge"><title>Node2&#45;&gt;Node3</title>
<path fill="none" stroke="midnightblue" d="M1229.65,-316.005C1222.55,-304.888 1213.57,-290.84 1207.93,-282.009"/>
<polygon fill="midnightblue" stroke="midnightblue" points="1226.72,-317.931 1235.06,-324.475 1232.62,-314.163 1226.72,-317.931"/>
</g>
<!-- Node5 -->
<g id="node5" class="node"><title>Node5</title>
<g id="a_node5"><a xlink:href="handler_8hpp.html" target="_top" xlink:title="src/handler/handler.hpp">
<polygon fill="none" stroke="black" points="696.5,-196 696.5,-215 814.5,-215 814.5,-196 696.5,-196"/>
<text text-anchor="middle" x="755.5" y="-203" font-family="Helvetica,sans-Serif" font-size="10.00">src/handler/handler.hpp</text>
</a>
</g>
</g>
<!-- Node2&#45;&gt;Node5 -->
<g id="edge31" class="edge"><title>Node2&#45;&gt;Node5</title>
<path fill="none" stroke="midnightblue" d="M1197.64,-321.822C1102.1,-296.901 873.346,-237.237 788.181,-215.024"/>
<polygon fill="midnightblue" stroke="midnightblue" points="1196.99,-325.267 1207.55,-324.405 1198.75,-318.494 1196.99,-325.267"/>
</g>
<!-- Node23 -->
<g id="node23" class="node"><title>Node23</title>
<g id="a_node23"><a xlink:href="modules_2irc_2network_2connection_8hpp.html" target="_top" xlink:title="modules/irc/network\l/connection.hpp">
<polygon fill="none" stroke="black" points="1285.5,-190.5 1285.5,-220.5 1389.5,-220.5 1389.5,-190.5 1285.5,-190.5"/>
<text text-anchor="start" x="1293.5" y="-208.5" font-family="Helvetica,sans-Serif" font-size="10.00">modules/irc/network</text>
<text text-anchor="middle" x="1337.5" y="-197.5" font-family="Helvetica,sans-Serif" font-size="10.00">/connection.hpp</text>
</a>
</g>
</g>
<!-- Node2&#45;&gt;Node23 -->
<g id="edge35" class="edge"><title>Node2&#45;&gt;Node23</title>
<path fill="none" stroke="midnightblue" d="M1253.42,-316.019C1265.15,-300.602 1282.95,-277.25 1298.5,-257 1307.94,-244.699 1318.72,-230.749 1326.55,-220.632"/>
<polygon fill="midnightblue" stroke="midnightblue" points="1250.54,-314.018 1247.27,-324.095 1256.11,-318.256 1250.54,-314.018"/>
</g>
<!-- Node26 -->
<g id="node26" class="node"><title>Node26</title>
<g id="a_node26"><a xlink:href="buffer_8hpp.html" target="_top" xlink:title="modules/irc/network\l/buffer.hpp">
<polygon fill="none" stroke="black" points="1307.5,-257.5 1307.5,-287.5 1411.5,-287.5 1411.5,-257.5 1307.5,-257.5"/>
<text text-anchor="start" x="1315.5" y="-275.5" font-family="Helvetica,sans-Serif" font-size="10.00">modules/irc/network</text>
<text text-anchor="middle" x="1359.5" y="-264.5" font-family="Helvetica,sans-Serif" font-size="10.00">/buffer.hpp</text>
</a>
</g>
</g>
<!-- Node2&#45;&gt;Node26 -->
<g id="edge32" class="edge"><title>Node2&#45;&gt;Node26</title>
<path fill="none" stroke="midnightblue" d="M1266.62,-319.938C1285.81,-310.347 1311.83,-297.334 1331.45,-287.523"/>
<polygon fill="midnightblue" stroke="midnightblue" points="1264.93,-316.872 1257.55,-324.475 1268.06,-323.133 1264.93,-316.872"/>
</g>
<!-- Node4 -->
<g id="node4" class="node"><title>Node4</title>
<g id="a_node4"><a xlink:href="melanobot_8cpp.html" target="_top" xlink:title="src/melanobot.cpp">
<polygon fill="none" stroke="black" points="1187,-129 1187,-148 1284,-148 1284,-129 1187,-129"/>
<text text-anchor="middle" x="1235.5" y="-136" font-family="Helvetica,sans-Serif" font-size="10.00">src/melanobot.cpp</text>
</a>
</g>
</g>
<!-- Node3&#45;&gt;Node4 -->
<g id="edge3" class="edge"><title>Node3&#45;&gt;Node4</title>
<path fill="none" stroke="midnightblue" d="M1207.32,-252.985C1209.79,-243.438 1212.83,-231.602 1215.5,-221 1222.18,-194.437 1229.83,-162.935 1233.43,-148.074"/>
<polygon fill="midnightblue" stroke="midnightblue" points="1203.86,-252.371 1204.74,-262.93 1210.64,-254.13 1203.86,-252.371"/>
</g>
<!-- Node3&#45;&gt;Node5 -->
<g id="edge4" class="edge"><title>Node3&#45;&gt;Node5</title>
<path fill="none" stroke="midnightblue" d="M1143.73,-262.954C1057.99,-250.487 899.564,-227.449 813.991,-215.005"/>
<polygon fill="midnightblue" stroke="midnightblue" points="1143.41,-266.445 1153.81,-264.42 1144.42,-259.517 1143.41,-266.445"/>
</g>
<!-- Node22 -->
<g id="node22" class="node"><title>Node22</title>
<g id="a_node22"><a xlink:href="main_8cpp.html" target="_top" xlink:title="src/main.cpp">
<polygon fill="none" stroke="black" points="1134,-196 1134,-215 1207,-215 1207,-196 1134,-196"/>
<text text-anchor="middle" x="1170.5" y="-203" font-family="Helvetica,sans-Serif" font-size="10.00">src/main.cpp</text>
</a>
</g>
</g>
<!-- Node3&#45;&gt;Node22 -->
<g id="edge26" class="edge"><title>Node3&#45;&gt;Node22</title>
<path fill="none" stroke="midnightblue" d="M1193.72,-253.663C1187.55,-241.128 1179.56,-224.91 1174.75,-215.127"/>
<polygon fill="midnightblue" stroke="midnightblue" points="1190.63,-255.308 1198.18,-262.734 1196.91,-252.216 1190.63,-255.308"/>
</g>
<!-- Node3&#45;&gt;Node23 -->
<g id="edge27" class="edge"><title>Node3&#45;&gt;Node23</title>
<path fill="none" stroke="midnightblue" d="M1229.55,-258.474C1252.38,-247.485 1284.97,-231.791 1308.36,-220.528"/>
<polygon fill="midnightblue" stroke="midnightblue" points="1227.92,-255.377 1220.43,-262.869 1230.96,-261.684 1227.92,-255.377"/>
</g>
<!-- Node5&#45;&gt;Node4 -->
<g id="edge5" class="edge"><title>Node5&#45;&gt;Node4</title>
<path fill="none" stroke="midnightblue" d="M824.738,-198.909C908.67,-191.512 1054.2,-176.697 1177.5,-154 1186.28,-152.384 1195.7,-150.217 1204.35,-148.052"/>
<polygon fill="midnightblue" stroke="midnightblue" points="824.221,-195.44 814.563,-199.796 824.829,-202.414 824.221,-195.44"/>
</g>
<!-- Node6 -->
<g id="node6" class="node"><title>Node6</title>
<g id="a_node6"><a xlink:href="misc_8cpp.html" target="_top" xlink:title="This file defines handlers which perform miscellaneous tasks. ">
<polygon fill="none" stroke="black" points="824,-129 824,-148 931,-148 931,-129 824,-129"/>
<text text-anchor="middle" x="877.5" y="-136" font-family="Helvetica,sans-Serif" font-size="10.00">src/handler/misc.cpp</text>
</a>
</g>
</g>
<!-- Node5&#45;&gt;Node6 -->
<g id="edge6" class="edge"><title>Node5&#45;&gt;Node6</title>
<path fill="none" stroke="midnightblue" d="M780.644,-191.103C804.805,-178.231 840.6,-159.16 861.232,-148.167"/>
<polygon fill="midnightblue" stroke="midnightblue" points="778.88,-188.077 771.701,-195.869 782.172,-194.255 778.88,-188.077"/>
</g>
<!-- Node7 -->
<g id="node7" class="node"><title>Node7</title>
<g id="a_node7"><a xlink:href="bridge_8hpp.html" target="_top" xlink:title="src/handler/bridge.hpp">
<polygon fill="none" stroke="black" points="268,-129 268,-148 381,-148 381,-129 268,-129"/>
<text text-anchor="middle" x="324.5" y="-136" font-family="Helvetica,sans-Serif" font-size="10.00">src/handler/bridge.hpp</text>
</a>
</g>
</g>
<!-- Node5&#45;&gt;Node7 -->
<g id="edge7" class="edge"><title>Node5&#45;&gt;Node7</title>
<path fill="none" stroke="midnightblue" d="M686.455,-196.108C613.839,-186.98 496.338,-171.352 395.5,-154 385.333,-152.25 374.395,-150.134 364.222,-148.065"/>
<polygon fill="midnightblue" stroke="midnightblue" points="686.04,-199.583 696.397,-197.353 686.909,-192.638 686.04,-199.583"/>
</g>
<!-- Node9 -->
<g id="node9" class="node"><title>Node9</title>
<g id="a_node9"><a xlink:href="admin_8cpp.html" target="_top" xlink:title="This file defines handlers which allows admin to administrate the bot. ">
<polygon fill="none" stroke="black" points="0,-129 0,-148 113,-148 113,-129 0,-129"/>
<text text-anchor="middle" x="56.5" y="-136" font-family="Helvetica,sans-Serif" font-size="10.00">src/handler/admin.cpp</text>
</a>
</g>
</g>
<!-- Node5&#45;&gt;Node9 -->
<g id="edge9" class="edge"><title>Node5&#45;&gt;Node9</title>
<path fill="none" stroke="midnightblue" d="M686.055,-202.065C569.181,-197.274 325.989,-184.325 122.5,-154 112.289,-152.478 101.299,-150.289 91.2726,-148.072"/>
<polygon fill="midnightblue" stroke="midnightblue" points="686.155,-205.572 696.288,-202.477 686.436,-198.577 686.155,-205.572"/>
</g>
<!-- Node10 -->
<g id="node10" class="node"><title>Node10</title>
<g id="a_node10"><a xlink:href="handler_8cpp.html" target="_top" xlink:title="This file contains the definitions for the most basic and reusable handlers. ">
<polygon fill="none" stroke="black" points="131.5,-129 131.5,-148 249.5,-148 249.5,-129 131.5,-129"/>
<text text-anchor="middle" x="190.5" y="-136" font-family="Helvetica,sans-Serif" font-size="10.00">src/handler/handler.cpp</text>
</a>
</g>
</g>
<!-- Node5&#45;&gt;Node10 -->
<g id="edge10" class="edge"><title>Node5&#45;&gt;Node10</title>
<path fill="none" stroke="midnightblue" d="M686.129,-199.846C589.785,-192.839 410.196,-177.808 258.5,-154 248.245,-152.39 237.205,-150.226 227.066,-148.061"/>
<polygon fill="midnightblue" stroke="midnightblue" points="686.098,-203.353 696.323,-200.58 686.601,-196.371 686.098,-203.353"/>
</g>
<!-- Node11 -->
<g id="node11" class="node"><title>Node11</title>
<g id="a_node11"><a xlink:href="fun-handlers_8hpp.html" target="_top" xlink:title="This file contains definitions for handlers which are pretty useless. ">
<polygon fill="none" stroke="black" points="368,-62 368,-81 513,-81 513,-62 368,-62"/>
<text text-anchor="middle" x="440.5" y="-69" font-family="Helvetica,sans-Serif" font-size="10.00">modules/fun/fun&#45;handlers.hpp</text>
</a>
</g>
</g>
<!-- Node5&#45;&gt;Node11 -->
<g id="edge11" class="edge"><title>Node5&#45;&gt;Node11</title>
<path fill="none" stroke="midnightblue" d="M686.251,-203.95C600.293,-201.627 461.017,-191.924 428.5,-154 410.626,-133.154 426.313,-97.7333 435.274,-81.3258"/>
<polygon fill="midnightblue" stroke="midnightblue" points="686.376,-207.454 696.459,-204.199 686.547,-200.456 686.376,-207.454"/>
</g>
<!-- Node14 -->
<g id="node14" class="node"><title>Node14</title>
<g id="a_node14"><a xlink:href="web-api_8hpp.html" target="_top" xlink:title="modules/web/web&#45;api.hpp">
<polygon fill="none" stroke="black" points="437.5,-129 437.5,-148 567.5,-148 567.5,-129 437.5,-129"/>
<text text-anchor="middle" x="502.5" y="-136" font-family="Helvetica,sans-Serif" font-size="10.00">modules/web/web&#45;api.hpp</text>
</a>
</g>
</g>
<!-- Node5&#45;&gt;Node14 -->
<g id="edge14" class="edge"><title>Node5&#45;&gt;Node14</title>
<path fill="none" stroke="midnightblue" d="M712.311,-193.404C662.379,-180.576 581.265,-159.736 535.909,-148.083"/>
<polygon fill="midnightblue" stroke="midnightblue" points="711.608,-196.837 722.165,-195.936 713.35,-190.057 711.608,-196.837"/>
</g>
<!-- Node17 -->
<g id="node17" class="node"><title>Node17</title>
<g id="a_node17"><a xlink:href="irc__actions_8hpp.html" target="_top" xlink:title="File containing Handlers which manage responses to various IRC commands. ">
<polygon fill="none" stroke="black" points="1068,-123.5 1068,-153.5 1169,-153.5 1169,-123.5 1068,-123.5"/>
<text text-anchor="start" x="1076" y="-141.5" font-family="Helvetica,sans-Serif" font-size="10.00">modules/irc/handler</text>
<text text-anchor="middle" x="1118.5" y="-130.5" font-family="Helvetica,sans-Serif" font-size="10.00">/irc_actions.hpp</text>
</a>
</g>
</g>
<!-- Node5&#45;&gt;Node17 -->
<g id="edge18" class="edge"><title>Node5&#45;&gt;Node17</title>
<path fill="none" stroke="midnightblue" d="M824.373,-194.467C885.956,-185.152 978.559,-170.299 1058.5,-154 1061.55,-153.379 1064.67,-152.713 1067.82,-152.019"/>
<polygon fill="midnightblue" stroke="midnightblue" points="823.751,-191.021 814.384,-195.97 824.793,-197.943 823.751,-191.021"/>
</g>
<!-- Node19 -->
<g id="node19" class="node"><title>Node19</title>
<g id="a_node19"><a xlink:href="ctcp_8hpp.html" target="_top" xlink:title="This files has handlers for CTCP messages. ">
<polygon fill="none" stroke="black" points="949,-123.5 949,-153.5 1050,-153.5 1050,-123.5 949,-123.5"/>
<text text-anchor="start" x="957" y="-141.5" font-family="Helvetica,sans-Serif" font-size="10.00">modules/irc/handler</text>
<text text-anchor="middle" x="999.5" y="-130.5" font-family="Helvetica,sans-Serif" font-size="10.00">/ctcp.hpp</text>
</a>
</g>
</g>
<!-- Node5&#45;&gt;Node19 -->
<g id="edge20" class="edge"><title>Node5&#45;&gt;Node19</title>
<path fill="none" stroke="midnightblue" d="M797.53,-193.304C839.421,-182.144 903.798,-164.994 948.57,-153.068"/>
<polygon fill="midnightblue" stroke="midnightblue" points="796.412,-189.979 787.65,-195.936 798.214,-196.743 796.412,-189.979"/>
</g>
<!-- Node20 -->
<g id="node20" class="node"><title>Node20</title>
<g id="a_node20"><a xlink:href="irc__admin_8hpp.html" target="_top" xlink:title="This file defines handlers which allows admin to administrate the bot (IRC&#45;specific actions) ...">
<polygon fill="none" stroke="black" points="586,-123.5 586,-153.5 687,-153.5 687,-123.5 586,-123.5"/>
<text text-anchor="start" x="594" y="-141.5" font-family="Helvetica,sans-Serif" font-size="10.00">modules/irc/handler</text>
<text text-anchor="middle" x="636.5" y="-130.5" font-family="Helvetica,sans-Serif" font-size="10.00">/irc_admin.hpp</text>
</a>
</g>
</g>
<!-- Node5&#45;&gt;Node20 -->
<g id="edge22" class="edge"><title>Node5&#45;&gt;Node20</title>
<path fill="none" stroke="midnightblue" d="M730.604,-190.902C710.583,-179.966 682.55,-164.653 662.294,-153.589"/>
<polygon fill="midnightblue" stroke="midnightblue" points="728.997,-194.012 739.451,-195.734 732.353,-187.868 728.997,-194.012"/>
</g>
<!-- Node21 -->
<g id="node21" class="node"><title>Node21</title>
<g id="a_node21"><a xlink:href="irc__whois_8hpp.html" target="_top" xlink:title="This file contains handlers for WHOIS recognition on IRC. ">
<polygon fill="none" stroke="black" points="705,-123.5 705,-153.5 806,-153.5 806,-123.5 705,-123.5"/>
<text text-anchor="start" x="713" y="-141.5" font-family="Helvetica,sans-Serif" font-size="10.00">modules/irc/handler</text>
<text text-anchor="middle" x="755.5" y="-130.5" font-family="Helvetica,sans-Serif" font-size="10.00">/irc_whois.hpp</text>
</a>
</g>
</g>
<!-- Node5&#45;&gt;Node21 -->
<g id="edge24" class="edge"><title>Node5&#45;&gt;Node21</title>
<path fill="none" stroke="midnightblue" d="M755.5,-185.411C755.5,-175.222 755.5,-162.901 755.5,-153.589"/>
<polygon fill="midnightblue" stroke="midnightblue" points="752,-185.734 755.5,-195.734 759,-185.734 752,-185.734"/>
</g>
<!-- Node8 -->
<g id="node8" class="node"><title>Node8</title>
<g id="a_node8"><a xlink:href="bridge_8cpp.html" target="_top" xlink:title="src/handler/bridge.cpp">
<polygon fill="none" stroke="black" points="237,-62 237,-81 350,-81 350,-62 237,-62"/>
<text text-anchor="middle" x="293.5" y="-69" font-family="Helvetica,sans-Serif" font-size="10.00">src/handler/bridge.cpp</text>
</a>
</g>
</g>
<!-- Node7&#45;&gt;Node8 -->
<g id="edge8" class="edge"><title>Node7&#45;&gt;Node8</title>
<path fill="none" stroke="midnightblue" d="M315.993,-119.663C310.015,-107.128 302.28,-90.9104 297.615,-81.1273"/>
<polygon fill="midnightblue" stroke="midnightblue" points="312.855,-121.214 320.319,-128.734 319.174,-118.201 312.855,-121.214"/>
</g>
<!-- Node12 -->
<g id="node12" class="node"><title>Node12</title>
<g id="a_node12"><a xlink:href="fun-handlers_8cpp.html" target="_top" xlink:title="modules/fun/fun&#45;handlers.cpp">
<polygon fill="none" stroke="black" points="368,-0.5 368,-19.5 513,-19.5 513,-0.5 368,-0.5"/>
<text text-anchor="middle" x="440.5" y="-7.5" font-family="Helvetica,sans-Serif" font-size="10.00">modules/fun/fun&#45;handlers.cpp</text>
</a>
</g>
</g>
<!-- Node11&#45;&gt;Node12 -->
<g id="edge12" class="edge"><title>Node11&#45;&gt;Node12</title>
<path fill="none" stroke="midnightblue" d="M440.5,-51.8165C440.5,-40.9962 440.5,-27.898 440.5,-19.5091"/>
<polygon fill="midnightblue" stroke="midnightblue" points="437,-51.9751 440.5,-61.9751 444,-51.9751 437,-51.9751"/>
</g>
<!-- Node13 -->
<g id="node13" class="node"><title>Node13</title>
<g id="a_node13"><a xlink:href="fun_8cpp.html" target="_top" xlink:title="modules/fun/fun.cpp">
<polygon fill="none" stroke="black" points="245,-0.5 245,-19.5 350,-19.5 350,-0.5 245,-0.5"/>
<text text-anchor="middle" x="297.5" y="-7.5" font-family="Helvetica,sans-Serif" font-size="10.00">modules/fun/fun.cpp</text>
</a>
</g>
</g>
<!-- Node11&#45;&gt;Node13 -->
<g id="edge13" class="edge"><title>Node11&#45;&gt;Node13</title>
<path fill="none" stroke="midnightblue" d="M410.773,-58.1313C382.992,-46.5717 342.25,-29.62 317.95,-19.5091"/>
<polygon fill="midnightblue" stroke="midnightblue" points="409.434,-61.3649 420.012,-61.9751 412.123,-54.902 409.434,-61.3649"/>
</g>
<!-- Node14&#45;&gt;Node11 -->
<g id="edge15" class="edge"><title>Node14&#45;&gt;Node11</title>
<path fill="none" stroke="midnightblue" d="M487.235,-121.497C475.077,-108.75 458.523,-91.3947 448.729,-81.1273"/>
<polygon fill="midnightblue" stroke="midnightblue" points="484.704,-123.913 494.138,-128.734 489.769,-119.082 484.704,-123.913"/>
</g>
<!-- Node15 -->
<g id="node15" class="node"><title>Node15</title>
<g id="a_node15"><a xlink:href="web-api-concrete_8hpp.html" target="_top" xlink:title="This files defines some simple Handlers using web APIs. ">
<polygon fill="none" stroke="black" points="532,-56.5 532,-86.5 643,-86.5 643,-56.5 532,-56.5"/>
<text text-anchor="start" x="540" y="-74.5" font-family="Helvetica,sans-Serif" font-size="10.00">modules/web/web&#45;api</text>
<text text-anchor="middle" x="587.5" y="-63.5" font-family="Helvetica,sans-Serif" font-size="10.00">&#45;concrete.hpp</text>
</a>
</g>
</g>
<!-- Node14&#45;&gt;Node15 -->
<g id="edge16" class="edge"><title>Node14&#45;&gt;Node15</title>
<path fill="none" stroke="midnightblue" d="M522.057,-122.544C536.205,-111.725 555.197,-97.2026 569.076,-86.589"/>
<polygon fill="midnightblue" stroke="midnightblue" points="519.781,-119.879 513.963,-128.734 524.033,-125.44 519.781,-119.879"/>
</g>
<!-- Node16 -->
<g id="node16" class="node"><title>Node16</title>
<g id="a_node16"><a xlink:href="web_8cpp.html" target="_top" xlink:title="modules/web/web.cpp">
<polygon fill="none" stroke="black" points="531.5,-0.5 531.5,-19.5 645.5,-19.5 645.5,-0.5 531.5,-0.5"/>
<text text-anchor="middle" x="588.5" y="-7.5" font-family="Helvetica,sans-Serif" font-size="10.00">modules/web/web.cpp</text>
</a>
</g>
</g>
<!-- Node15&#45;&gt;Node16 -->
<g id="edge17" class="edge"><title>Node15&#45;&gt;Node16</title>
<path fill="none" stroke="midnightblue" d="M587.907,-46.2892C588.065,-36.857 588.237,-26.6548 588.354,-19.6578"/>
<polygon fill="midnightblue" stroke="midnightblue" points="584.406,-46.3419 587.737,-56.3993 591.405,-46.4596 584.406,-46.3419"/>
</g>
<!-- Node18 -->
<g id="node18" class="node"><title>Node18</title>
<g id="a_node18"><a xlink:href="irc_8cpp.html" target="_top" xlink:title="modules/irc/irc.cpp">
<polygon fill="none" stroke="black" points="950,-62 950,-81 1049,-81 1049,-62 950,-62"/>
<text text-anchor="middle" x="999.5" y="-69" font-family="Helvetica,sans-Serif" font-size="10.00">modules/irc/irc.cpp</text>
</a>
</g>
</g>
<!-- Node17&#45;&gt;Node18 -->
<g id="edge19" class="edge"><title>Node17&#45;&gt;Node18</title>
<path fill="none" stroke="midnightblue" d="M1083.67,-118.473C1060.95,-106.064 1032.4,-90.4716 1015.07,-81.007"/>
<polygon fill="midnightblue" stroke="midnightblue" points="1082.22,-121.674 1092.68,-123.396 1085.58,-115.531 1082.22,-121.674"/>
</g>
<!-- Node19&#45;&gt;Node18 -->
<g id="edge21" class="edge"><title>Node19&#45;&gt;Node18</title>
<path fill="none" stroke="midnightblue" d="M999.5,-113.25C999.5,-102.017 999.5,-89.3767 999.5,-81.1945"/>
<polygon fill="midnightblue" stroke="midnightblue" points="996,-113.396 999.5,-123.396 1003,-113.396 996,-113.396"/>
</g>
<!-- Node20&#45;&gt;Node18 -->
<g id="edge23" class="edge"><title>Node20&#45;&gt;Node18</title>
<path fill="none" stroke="midnightblue" d="M697.294,-122.711C791.702,-103.578 891.477,-88.1198 949.789,-79.5662"/>
<polygon fill="midnightblue" stroke="midnightblue" points="696.389,-119.323 687.293,-124.756 697.791,-126.182 696.389,-119.323"/>
</g>
<!-- Node21&#45;&gt;Node18 -->
<g id="edge25" class="edge"><title>Node21&#45;&gt;Node18</title>
<path fill="none" stroke="midnightblue" d="M815.998,-121.384C863.874,-108.63 928.861,-91.3177 967.27,-81.0859"/>
<polygon fill="midnightblue" stroke="midnightblue" points="814.819,-118.076 806.057,-124.032 816.621,-124.84 814.819,-118.076"/>
</g>
<!-- Node23&#45;&gt;Node18 -->
<g id="edge28" class="edge"><title>Node23&#45;&gt;Node18</title>
<path fill="none" stroke="midnightblue" d="M1330.7,-180.818C1324.07,-162.112 1312.06,-136.916 1292.5,-123 1254.23,-95.765 1122.28,-81.7305 1049.2,-75.8924"/>
<polygon fill="midnightblue" stroke="midnightblue" points="1327.41,-182.016 1333.85,-190.43 1334.07,-179.837 1327.41,-182.016"/>
</g>
<!-- Node24 -->
<g id="node24" class="node"><title>Node24</title>
<g id="a_node24"><a xlink:href="buffer_8cpp.html" target="_top" xlink:title="modules/irc/network\l/buffer.cpp">
<polygon fill="none" stroke="black" points="1462.5,-123.5 1462.5,-153.5 1566.5,-153.5 1566.5,-123.5 1462.5,-123.5"/>
<text text-anchor="start" x="1470.5" y="-141.5" font-family="Helvetica,sans-Serif" font-size="10.00">modules/irc/network</text>
<text text-anchor="middle" x="1514.5" y="-130.5" font-family="Helvetica,sans-Serif" font-size="10.00">/buffer.cpp</text>
</a>
</g>
</g>
<!-- Node23&#45;&gt;Node24 -->
<g id="edge29" class="edge"><title>Node23&#45;&gt;Node24</title>
<path fill="none" stroke="midnightblue" d="M1385.65,-186.819C1414.1,-176.371 1449.63,-163.323 1476.17,-153.577"/>
<polygon fill="midnightblue" stroke="midnightblue" points="1384.09,-183.663 1375.91,-190.396 1386.5,-190.234 1384.09,-183.663"/>
</g>
<!-- Node25 -->
<g id="node25" class="node"><title>Node25</title>
<g id="a_node25"><a xlink:href="connection_8cpp.html" target="_top" xlink:title="modules/irc/network\l/connection.cpp">
<polygon fill="none" stroke="black" points="1340.5,-123.5 1340.5,-153.5 1444.5,-153.5 1444.5,-123.5 1340.5,-123.5"/>
<text text-anchor="start" x="1348.5" y="-141.5" font-family="Helvetica,sans-Serif" font-size="10.00">modules/irc/network</text>
<text text-anchor="middle" x="1392.5" y="-130.5" font-family="Helvetica,sans-Serif" font-size="10.00">/connection.cpp</text>
</a>
</g>
</g>
<!-- Node23&#45;&gt;Node25 -->
<g id="edge30" class="edge"><title>Node23&#45;&gt;Node25</title>
<path fill="none" stroke="midnightblue" d="M1355.92,-182.736C1364.05,-173.119 1373.39,-162.089 1380.59,-153.577"/>
<polygon fill="midnightblue" stroke="midnightblue" points="1353.22,-180.501 1349.43,-190.396 1358.57,-185.023 1353.22,-180.501"/>
</g>
<!-- Node26&#45;&gt;Node23 -->
<g id="edge34" class="edge"><title>Node26&#45;&gt;Node23</title>
<path fill="none" stroke="midnightblue" d="M1351.44,-247.697C1348.36,-238.587 1344.94,-228.493 1342.26,-220.577"/>
<polygon fill="midnightblue" stroke="midnightblue" points="1348.21,-249.046 1354.73,-257.396 1354.84,-246.802 1348.21,-249.046"/>
</g>
<!-- Node26&#45;&gt;Node24 -->
<g id="edge33" class="edge"><title>Node26&#45;&gt;Node24</title>
<path fill="none" stroke="midnightblue" d="M1384.05,-250.593C1415.93,-223.441 1470.73,-176.779 1498.03,-153.525"/>
<polygon fill="midnightblue" stroke="midnightblue" points="1381.43,-248.225 1376.09,-257.374 1385.97,-253.555 1381.43,-248.225"/>
</g>
</g>
</svg>
        <g id="navigator" transform="translate(0 0)" fill="#404254">
                <rect fill="#f2f5e9" fill-opacity="0.5" stroke="#606060" stroke-width=".5" x="0" y="0" width="60" height="60"/>
                <use id="zoomplus" xlink:href="#zoomPlus" x="17" y="9" onmousedown="handleZoom(evt,'in')"/>
                <use id="zoomminus" xlink:href="#zoomMin" x="42" y="9" onmousedown="handleZoom(evt,'out')"/>
                <use id="reset" xlink:href="#resetDef" x="30" y="36" onmousedown="handleReset()"/>
                <g id="arrowUp" xlink:href="#dirArrow" transform="translate(30 24)" onmousedown="handlePan(0,-1)">
                  <use xlink:href="#rim" fill="#404040">
                        <set attributeName="fill" to="#808080" begin="arrowUp.mouseover" end="arrowUp.mouseout"/>
                  </use>
                  <path fill="none" stroke="white" stroke-width="1.5" d="M0,-3.0v7 M-2.5,-0.5L0,-3.0L2.5,-0.5"/>
                </g>
                <g id="arrowRight" xlink:href="#dirArrow" transform="rotate(90) translate(36 -43)" onmousedown="handlePan(1,0)">
                  <use xlink:href="#rim" fill="#404040">
                        <set attributeName="fill" to="#808080" begin="arrowRight.mouseover" end="arrowRight.mouseout"/>
                  </use>
                  <path fill="none" stroke="white" stroke-width="1.5" d="M0,-3.0v7 M-2.5,-0.5L0,-3.0L2.5,-0.5"/>
                </g>
                <g id="arrowDown" xlink:href="#dirArrow" transform="rotate(180) translate(-30 -48)" onmousedown="handlePan(0,1)">
                  <use xlink:href="#rim" fill="#404040">
                        <set attributeName="fill" to="#808080" begin="arrowDown.mouseover" end="arrowDown.mouseout"/>
                  </use>
                  <path fill="none" stroke="white" stroke-width="1.5" d="M0,-3.0v7 M-2.5,-0.5L0,-3.0L2.5,-0.5"/>
                </g>
                <g id="arrowLeft" xlink:href="#dirArrow" transform="rotate(270) translate(-36 17)" onmousedown="handlePan(-1,0)">
                  <use xlink:href="#rim" fill="#404040">
                        <set attributeName="fill" to="#808080" begin="arrowLeft.mouseover" end="arrowLeft.mouseout"/>
                  </use>
                  <path fill="none" stroke="white" stroke-width="1.5" d="M0,-3.0v7 M-2.5,-0.5L0,-3.0L2.5,-0.5"/>
                </g>
        </g>
        <svg viewBox="0 0 15 15" width="100%" height="30px" preserveAspectRatio="xMaxYMin meet">
         <g id="arrow_out" transform="scale(0.3 0.3)">
          <a xlink:href="auth__system_8hpp__dep__incl_org.svg" target="_base">
           <rect id="button" ry="5" rx="5" y="6" x="6" height="38" width="38"
                fill="#f2f5e9" fill-opacity="0.5" stroke="#606060" stroke-width="1.0"/>
           <path id="arrow"
             d="M 11.500037,31.436501 C 11.940474,20.09759 22.043105,11.32322 32.158766,21.979434 L 37.068811,17.246167 C 37.068811,17.246167 37.088388,32 37.088388,32 L 22.160133,31.978069 C 22.160133,31.978069 26.997745,27.140456 26.997745,27.140456 C 18.528582,18.264221 13.291696,25.230495 11.500037,31.436501 z"
             style="fill:#404040;"/>
          </a>
         </g>
        </svg>
</svg>
