<?xml version="1.0" encoding="UTF-8" standalone="no"?>
<!DOCTYPE svg PUBLIC "-//W3C//DTD SVG 1.1//EN"
 "http://www.w3.org/Graphics/SVG/1.1/DTD/svg11.dtd">
<!-- Generated by graphviz version 2.38.0 (20140413.2041)
 -->
<!-- Title: modules/irc/network/buffer.hpp Pages: 1 -->
<svg width="1729pt" height="442pt"
 viewBox="0.00 0.00 1728.78 442.00" xmlns="http://www.w3.org/2000/svg" xmlns:xlink="http://www.w3.org/1999/xlink">
<g id="graph0" class="graph" transform="scale(1 1) rotate(0) translate(4 438)">
<title>modules/irc/network/buffer.hpp</title>
<!-- Node1 -->
<g id="node1" class="node"><title>Node1</title>
<polygon fill="#bfbfbf" stroke="black" points="507,-403.5 507,-433.5 611,-433.5 611,-403.5 507,-403.5"/>
<text text-anchor="start" x="515" y="-421.5" font-family="Helvetica,sans-Serif" font-size="10.00">modules/irc/network</text>
<text text-anchor="middle" x="559" y="-410.5" font-family="Helvetica,sans-Serif" font-size="10.00">/buffer.hpp</text>
</g>
<!-- Node2 -->
<g id="node2" class="node"><title>Node2</title>
<polygon fill="none" stroke="#bfbfbf" points="242,-123.5 242,-142.5 286,-142.5 286,-123.5 242,-123.5"/>
<text text-anchor="middle" x="264" y="-130.5" font-family="Helvetica,sans-Serif" font-size="10.00">mutex</text>
</g>
<!-- Node1&#45;&gt;Node2 -->
<g id="edge1" class="edge"><title>Node1&#45;&gt;Node2</title>
<path fill="none" stroke="midnightblue" d="M506.922,-408.965C419.333,-393.123 252,-355.814 252,-302 252,-302 252,-302 252,-244 252,-211.758 257.158,-174.512 260.711,-152.681"/>
<polygon fill="midnightblue" stroke="midnightblue" points="264.212,-152.967 262.431,-142.523 257.31,-151.798 264.212,-152.967"/>
</g>
<!-- Node3 -->
<g id="node3" class="node"><title>Node3</title>
<polygon fill="none" stroke="#bfbfbf" points="0,-123.5 0,-142.5 44,-142.5 44,-123.5 0,-123.5"/>
<text text-anchor="middle" x="22" y="-130.5" font-family="Helvetica,sans-Serif" font-size="10.00">thread</text>
</g>
<!-- Node1&#45;&gt;Node3 -->
<g id="edge2" class="edge"><title>Node1&#45;&gt;Node3</title>
<path fill="none" stroke="midnightblue" d="M506.572,-417.568C368.783,-416.34 7,-403.458 7,-302 7,-302 7,-302 7,-244 7,-211.502 13.5069,-174.095 17.9494,-152.343"/>
<polygon fill="midnightblue" stroke="midnightblue" points="21.3852,-153.013 20.039,-142.504 14.5379,-151.559 21.3852,-153.013"/>
</g>
<!-- Node4 -->
<g id="node4" class="node"><title>Node4</title>
<polygon fill="none" stroke="#bfbfbf" points="1239,-347.5 1239,-366.5 1319,-366.5 1319,-347.5 1239,-347.5"/>
<text text-anchor="middle" x="1279" y="-354.5" font-family="Helvetica,sans-Serif" font-size="10.00">boost/asio.hpp</text>
</g>
<!-- Node1&#45;&gt;Node4 -->
<g id="edge3" class="edge"><title>Node1&#45;&gt;Node4</title>
<path fill="none" stroke="midnightblue" d="M611.395,-415.124C724.005,-409.668 997.356,-394.545 1225,-367 1226.27,-366.846 1227.56,-366.683 1228.86,-366.513"/>
<polygon fill="midnightblue" stroke="midnightblue" points="1229.54,-369.952 1238.95,-365.084 1228.56,-363.021 1229.54,-369.952"/>
</g>
<!-- Node5 -->
<g id="node5" class="node"><title>Node5</title>
<g id="a_node5"><a xlink:href="src_2network_2connection_8hpp.html" target="_top" xlink:title="network/connection.hpp">
<polygon fill="none" stroke="black" points="787,-347.5 787,-366.5 907,-366.5 907,-347.5 787,-347.5"/>
<text text-anchor="middle" x="847" y="-354.5" font-family="Helvetica,sans-Serif" font-size="10.00">network/connection.hpp</text>
</a>
</g>
</g>
<!-- Node1&#45;&gt;Node5 -->
<g id="edge4" class="edge"><title>Node1&#45;&gt;Node5</title>
<path fill="none" stroke="midnightblue" d="M611.155,-406.725C663.431,-395.925 743.424,-379.399 795.476,-368.645"/>
<polygon fill="midnightblue" stroke="midnightblue" points="796.412,-372.025 805.497,-366.574 794.996,-365.17 796.412,-372.025"/>
</g>
<!-- Node8 -->
<g id="node8" class="node"><title>Node8</title>
<g id="a_node8"><a xlink:href="logger_8hpp.html" target="_top" xlink:title="string/logger.hpp">
<polygon fill="none" stroke="black" points="1343.5,-235.5 1343.5,-254.5 1432.5,-254.5 1432.5,-235.5 1343.5,-235.5"/>
<text text-anchor="middle" x="1388" y="-242.5" font-family="Helvetica,sans-Serif" font-size="10.00">string/logger.hpp</text>
</a>
</g>
</g>
<!-- Node1&#45;&gt;Node8 -->
<g id="edge81" class="edge"><title>Node1&#45;&gt;Node8</title>
<path fill="none" stroke="midnightblue" d="M611.132,-411.963C719.876,-399.699 978.3,-366.829 1189,-311 1248.31,-295.286 1315.93,-272.033 1355.11,-258.016"/>
<polygon fill="midnightblue" stroke="midnightblue" points="1356.45,-261.255 1364.67,-254.577 1354.08,-254.668 1356.45,-261.255"/>
</g>
<!-- Node43 -->
<g id="node43" class="node"><title>Node43</title>
<g id="a_node43"><a xlink:href="concurrent__container_8hpp.html" target="_top" xlink:title="concurrent_container.hpp">
<polygon fill="none" stroke="black" points="60,-235.5 60,-254.5 186,-254.5 186,-235.5 60,-235.5"/>
<text text-anchor="middle" x="123" y="-242.5" font-family="Helvetica,sans-Serif" font-size="10.00">concurrent_container.hpp</text>
</a>
</g>
</g>
<!-- Node1&#45;&gt;Node43 -->
<g id="edge76" class="edge"><title>Node1&#45;&gt;Node43</title>
<path fill="none" stroke="midnightblue" d="M506.73,-413.376C428.097,-406.489 283.704,-390.994 238,-367 190.486,-342.056 151.541,-289.892 133.627,-262.935"/>
<polygon fill="midnightblue" stroke="midnightblue" points="136.562,-261.028 128.189,-254.537 130.687,-264.833 136.562,-261.028"/>
</g>
<!-- Node6 -->
<g id="node6" class="node"><title>Node6</title>
<polygon fill="none" stroke="#bfbfbf" points="178,-123.5 178,-142.5 224,-142.5 224,-123.5 178,-123.5"/>
<text text-anchor="middle" x="201" y="-130.5" font-family="Helvetica,sans-Serif" font-size="10.00">atomic</text>
</g>
<!-- Node5&#45;&gt;Node6 -->
<g id="edge5" class="edge"><title>Node5&#45;&gt;Node6</title>
<path fill="none" stroke="midnightblue" d="M802.118,-347.498C728.072,-332.811 576.246,-299.89 453,-255 366.12,-223.356 268.982,-171.794 224.974,-147.488"/>
<polygon fill="midnightblue" stroke="midnightblue" points="226.611,-144.394 216.17,-142.597 223.212,-150.513 226.611,-144.394"/>
</g>
<!-- Node7 -->
<g id="node7" class="node"><title>Node7</title>
<polygon fill="none" stroke="#bfbfbf" points="940,-62 940,-81 986,-81 986,-62 940,-62"/>
<text text-anchor="middle" x="963" y="-69" font-family="Helvetica,sans-Serif" font-size="10.00">cstdint</text>
</g>
<!-- Node5&#45;&gt;Node7 -->
<g id="edge6" class="edge"><title>Node5&#45;&gt;Node7</title>
<path fill="none" stroke="midnightblue" d="M849.562,-347.249C854.749,-328.738 866,-284.179 866,-246 866,-246 866,-246 866,-188 866,-157.902 867.018,-147.136 885,-123 892.28,-113.228 918.132,-97.4027 938.1,-86.0716"/>
<polygon fill="midnightblue" stroke="midnightblue" points="940.028,-89.0037 947.048,-81.0681 936.612,-82.8941 940.028,-89.0037"/>
</g>
<!-- Node5&#45;&gt;Node8 -->
<g id="edge7" class="edge"><title>Node5&#45;&gt;Node8</title>
<path fill="none" stroke="midnightblue" d="M907.01,-352.167C969.49,-347.027 1069.68,-335.53 1153,-311 1173.61,-304.933 1176.67,-297.941 1197,-291 1241.99,-275.641 1294.67,-263.657 1333.3,-255.931"/>
<polygon fill="midnightblue" stroke="midnightblue" points="1334.17,-259.327 1343.31,-253.962 1332.82,-252.459 1334.17,-259.327"/>
</g>
<!-- Node27 -->
<g id="node27" class="node"><title>Node27</title>
<g id="a_node27"><a xlink:href="string__functions_8hpp.html" target="_top" xlink:title="string/string_functions.hpp">
<polygon fill="none" stroke="black" points="630.5,-179.5 630.5,-198.5 761.5,-198.5 761.5,-179.5 630.5,-179.5"/>
<text text-anchor="middle" x="696" y="-186.5" font-family="Helvetica,sans-Serif" font-size="10.00">string/string_functions.hpp</text>
</a>
</g>
</g>
<!-- Node5&#45;&gt;Node27 -->
<g id="edge40" class="edge"><title>Node5&#45;&gt;Node27</title>
<path fill="none" stroke="midnightblue" d="M838.882,-347.075C814.598,-320.38 742.269,-240.865 710.847,-206.322"/>
<polygon fill="midnightblue" stroke="midnightblue" points="713.112,-203.61 703.794,-198.568 707.934,-208.321 713.112,-203.61"/>
</g>
<!-- Node31 -->
<g id="node31" class="node"><title>Node31</title>
<g id="a_node31"><a xlink:href="auth__system_8hpp.html" target="_top" xlink:title="user/auth_system.hpp">
<polygon fill="none" stroke="black" points="1031.5,-291.5 1031.5,-310.5 1144.5,-310.5 1144.5,-291.5 1031.5,-291.5"/>
<text text-anchor="middle" x="1088" y="-298.5" font-family="Helvetica,sans-Serif" font-size="10.00">user/auth_system.hpp</text>
</a>
</g>
</g>
<!-- Node5&#45;&gt;Node31 -->
<g id="edge48" class="edge"><title>Node5&#45;&gt;Node31</title>
<path fill="none" stroke="midnightblue" d="M885.187,-347.444C927.141,-338.043 994.594,-322.929 1040.07,-312.739"/>
<polygon fill="midnightblue" stroke="midnightblue" points="1041,-316.118 1049.99,-310.516 1039.47,-309.288 1041,-316.118"/>
</g>
<!-- Node34 -->
<g id="node34" class="node"><title>Node34</title>
<g id="a_node34"><a xlink:href="user__manager_8hpp.html" target="_top" xlink:title="user/user_manager.hpp">
<polygon fill="none" stroke="black" points="894.5,-291.5 894.5,-310.5 1013.5,-310.5 1013.5,-291.5 894.5,-291.5"/>
<text text-anchor="middle" x="954" y="-298.5" font-family="Helvetica,sans-Serif" font-size="10.00">user/user_manager.hpp</text>
</a>
</g>
</g>
<!-- Node5&#45;&gt;Node34 -->
<g id="edge57" class="edge"><title>Node5&#45;&gt;Node34</title>
<path fill="none" stroke="midnightblue" d="M864.191,-347.324C881.351,-338.664 907.946,-325.242 927.747,-315.249"/>
<polygon fill="midnightblue" stroke="midnightblue" points="929.501,-318.285 936.851,-310.655 926.347,-312.035 929.501,-318.285"/>
</g>
<!-- Node36 -->
<g id="node36" class="node"><title>Node36</title>
<g id="a_node36"><a xlink:href="network_8hpp.html" target="_top" xlink:title="network.hpp">
<polygon fill="none" stroke="black" points="696,-291.5 696,-310.5 766,-310.5 766,-291.5 696,-291.5"/>
<text text-anchor="middle" x="731" y="-298.5" font-family="Helvetica,sans-Serif" font-size="10.00">network.hpp</text>
</a>
</g>
</g>
<!-- Node5&#45;&gt;Node36 -->
<g id="edge60" class="edge"><title>Node5&#45;&gt;Node36</title>
<path fill="none" stroke="midnightblue" d="M828.619,-347.444C809.784,-338.675 780.269,-324.935 758.621,-314.858"/>
<polygon fill="midnightblue" stroke="midnightblue" points="759.838,-311.564 749.295,-310.516 756.883,-317.91 759.838,-311.564"/>
</g>
<!-- Node8&#45;&gt;Node2 -->
<g id="edge10" class="edge"><title>Node8&#45;&gt;Node2</title>
<path fill="none" stroke="midnightblue" d="M1343.46,-242.271C1152.12,-234.81 408.421,-205.454 385,-199 346.642,-188.43 306.884,-164.026 283.846,-148.312"/>
<polygon fill="midnightblue" stroke="midnightblue" points="285.804,-145.41 275.598,-142.566 281.802,-151.154 285.804,-145.41"/>
</g>
<!-- Node9 -->
<g id="node9" class="node"><title>Node9</title>
<polygon fill="none" stroke="#bfbfbf" points="1504,-179.5 1504,-198.5 1554,-198.5 1554,-179.5 1504,-179.5"/>
<text text-anchor="middle" x="1529" y="-186.5" font-family="Helvetica,sans-Serif" font-size="10.00">iomanip</text>
</g>
<!-- Node8&#45;&gt;Node9 -->
<g id="edge8" class="edge"><title>Node8&#45;&gt;Node9</title>
<path fill="none" stroke="midnightblue" d="M1410.34,-235.444C1433.75,-226.478 1470.74,-212.314 1497.19,-202.183"/>
<polygon fill="midnightblue" stroke="midnightblue" points="1498.68,-205.361 1506.76,-198.516 1496.17,-198.824 1498.68,-205.361"/>
</g>
<!-- Node10 -->
<g id="node10" class="node"><title>Node10</title>
<polygon fill="none" stroke="#bfbfbf" points="1638,-123.5 1638,-142.5 1692,-142.5 1692,-123.5 1638,-123.5"/>
<text text-anchor="middle" x="1665" y="-130.5" font-family="Helvetica,sans-Serif" font-size="10.00">iostream</text>
</g>
<!-- Node8&#45;&gt;Node10 -->
<g id="edge9" class="edge"><title>Node8&#45;&gt;Node10</title>
<path fill="none" stroke="midnightblue" d="M1432.84,-238.935C1472.92,-233.162 1532.49,-221.457 1580,-199 1606.6,-186.426 1632.83,-164.529 1648.95,-149.659"/>
<polygon fill="midnightblue" stroke="midnightblue" points="1651.55,-152.021 1656.42,-142.61 1646.74,-146.932 1651.55,-152.021"/>
</g>
<!-- Node11 -->
<g id="node11" class="node"><title>Node11</title>
<polygon fill="none" stroke="#bfbfbf" points="1454.5,-123.5 1454.5,-142.5 1513.5,-142.5 1513.5,-123.5 1454.5,-123.5"/>
<text text-anchor="middle" x="1484" y="-130.5" font-family="Helvetica,sans-Serif" font-size="10.00">stdexcept</text>
</g>
<!-- Node8&#45;&gt;Node11 -->
<g id="edge11" class="edge"><title>Node8&#45;&gt;Node11</title>
<path fill="none" stroke="midnightblue" d="M1432.61,-238.737C1479.03,-232.234 1547.14,-219.453 1563,-199 1579.87,-177.247 1547.36,-158.01 1519.08,-146.215"/>
<polygon fill="midnightblue" stroke="midnightblue" points="1520.31,-142.939 1509.72,-142.507 1517.73,-149.446 1520.31,-142.939"/>
</g>
<!-- Node12 -->
<g id="node12" class="node"><title>Node12</title>
<polygon fill="none" stroke="#bfbfbf" points="1183.5,-62 1183.5,-81 1224.5,-81 1224.5,-62 1183.5,-62"/>
<text text-anchor="middle" x="1204" y="-69" font-family="Helvetica,sans-Serif" font-size="10.00">string</text>
</g>
<!-- Node8&#45;&gt;Node12 -->
<g id="edge12" class="edge"><title>Node8&#45;&gt;Node12</title>
<path fill="none" stroke="midnightblue" d="M1384.31,-235.23C1374.79,-213.551 1347.47,-156.76 1309,-123 1287.25,-103.908 1257.01,-90.3817 1234.57,-82.164"/>
<polygon fill="midnightblue" stroke="midnightblue" points="1235.46,-78.7673 1224.86,-78.7609 1233.14,-85.3729 1235.46,-78.7673"/>
</g>
<!-- Node13 -->
<g id="node13" class="node"><title>Node13</title>
<polygon fill="none" stroke="#bfbfbf" points="1384.5,-62 1384.5,-81 1467.5,-81 1467.5,-62 1384.5,-62"/>
<text text-anchor="middle" x="1426" y="-69" font-family="Helvetica,sans-Serif" font-size="10.00">unordered_map</text>
</g>
<!-- Node8&#45;&gt;Node13 -->
<g id="edge13" class="edge"><title>Node8&#45;&gt;Node13</title>
<path fill="none" stroke="midnightblue" d="M1432.92,-239.7C1478.93,-234.21 1551.9,-222.46 1611,-199 1654.79,-181.619 1678.12,-184.183 1701,-143 1705.32,-135.23 1706.69,-129.829 1701,-123 1673.16,-89.5859 1549.56,-78.2068 1477.9,-74.3864"/>
<polygon fill="midnightblue" stroke="midnightblue" points="1477.88,-70.8812 1467.72,-73.8758 1477.53,-77.8725 1477.88,-70.8812"/>
</g>
<!-- Node14 -->
<g id="node14" class="node"><title>Node14</title>
<g id="a_node14"><a xlink:href="multibuf_8hpp.html" target="_top" xlink:title="multibuf.hpp">
<polygon fill="none" stroke="black" points="1416,-179.5 1416,-198.5 1486,-198.5 1486,-179.5 1416,-179.5"/>
<text text-anchor="middle" x="1451" y="-186.5" font-family="Helvetica,sans-Serif" font-size="10.00">multibuf.hpp</text>
</a>
</g>
</g>
<!-- Node8&#45;&gt;Node14 -->
<g id="edge14" class="edge"><title>Node8&#45;&gt;Node14</title>
<path fill="none" stroke="midnightblue" d="M1398.12,-235.324C1407.53,-227.263 1421.74,-215.077 1433.07,-205.369"/>
<polygon fill="midnightblue" stroke="midnightblue" points="1435.38,-207.999 1440.69,-198.834 1430.82,-202.684 1435.38,-207.999"/>
</g>
<!-- Node17 -->
<g id="node17" class="node"><title>Node17</title>
<g id="a_node17"><a xlink:href="string_8hpp.html" target="_top" xlink:title="string.hpp">
<polygon fill="none" stroke="black" points="1139.5,-179.5 1139.5,-198.5 1198.5,-198.5 1198.5,-179.5 1139.5,-179.5"/>
<text text-anchor="middle" x="1169" y="-186.5" font-family="Helvetica,sans-Serif" font-size="10.00">string.hpp</text>
</a>
</g>
</g>
<!-- Node8&#45;&gt;Node17 -->
<g id="edge19" class="edge"><title>Node8&#45;&gt;Node17</title>
<path fill="none" stroke="midnightblue" d="M1353.3,-235.444C1313.86,-225.718 1249.61,-209.876 1208.34,-199.699"/>
<polygon fill="midnightblue" stroke="midnightblue" points="1209.17,-196.3 1198.62,-197.304 1207.49,-203.097 1209.17,-196.3"/>
</g>
<!-- Node25 -->
<g id="node25" class="node"><title>Node25</title>
<g id="a_node25"><a xlink:href="settings_8hpp.html" target="_top" xlink:title="settings.hpp">
<polygon fill="none" stroke="black" points="1006,-123.5 1006,-142.5 1076,-142.5 1076,-123.5 1006,-123.5"/>
<text text-anchor="middle" x="1041" y="-130.5" font-family="Helvetica,sans-Serif" font-size="10.00">settings.hpp</text>
</a>
</g>
</g>
<!-- Node8&#45;&gt;Node25 -->
<g id="edge34" class="edge"><title>Node8&#45;&gt;Node25</title>
<path fill="none" stroke="midnightblue" d="M1343.36,-242.351C1290.51,-239.033 1200.72,-229.046 1130,-199 1102.11,-187.15 1074.66,-165.081 1057.78,-149.975"/>
<polygon fill="midnightblue" stroke="midnightblue" points="1059.71,-146.989 1049.98,-142.801 1054.97,-152.144 1059.71,-146.989"/>
</g>
<!-- Node14&#45;&gt;Node10 -->
<g id="edge15" class="edge"><title>Node14&#45;&gt;Node10</title>
<path fill="none" stroke="midnightblue" d="M1484.91,-179.444C1523.91,-169.601 1587.74,-153.496 1628,-143.336"/>
<polygon fill="midnightblue" stroke="midnightblue" points="1628.86,-146.729 1637.7,-140.889 1627.15,-139.942 1628.86,-146.729"/>
</g>
<!-- Node14&#45;&gt;Node12 -->
<g id="edge18" class="edge"><title>Node14&#45;&gt;Node12</title>
<path fill="none" stroke="midnightblue" d="M1473.06,-179.478C1500.38,-167.704 1541.1,-145.37 1522,-123 1503.45,-101.27 1311.71,-82.0398 1235.24,-75.1755"/>
<polygon fill="midnightblue" stroke="midnightblue" points="1235.1,-71.6493 1224.83,-74.2537 1234.48,-78.622 1235.1,-71.6493"/>
</g>
<!-- Node15 -->
<g id="node15" class="node"><title>Node15</title>
<polygon fill="none" stroke="#bfbfbf" points="1570,-123.5 1570,-142.5 1620,-142.5 1620,-123.5 1570,-123.5"/>
<text text-anchor="middle" x="1595" y="-130.5" font-family="Helvetica,sans-Serif" font-size="10.00">fstream</text>
</g>
<!-- Node14&#45;&gt;Node15 -->
<g id="edge16" class="edge"><title>Node14&#45;&gt;Node15</title>
<path fill="none" stroke="midnightblue" d="M1473.82,-179.444C1497.83,-170.438 1535.83,-156.189 1562.87,-146.049"/>
<polygon fill="midnightblue" stroke="midnightblue" points="1564.16,-149.305 1572.29,-142.516 1561.7,-142.751 1564.16,-149.305"/>
</g>
<!-- Node16 -->
<g id="node16" class="node"><title>Node16</title>
<polygon fill="none" stroke="#bfbfbf" points="1132,-123.5 1132,-142.5 1176,-142.5 1176,-123.5 1132,-123.5"/>
<text text-anchor="middle" x="1154" y="-130.5" font-family="Helvetica,sans-Serif" font-size="10.00">vector</text>
</g>
<!-- Node14&#45;&gt;Node16 -->
<g id="edge17" class="edge"><title>Node14&#45;&gt;Node16</title>
<path fill="none" stroke="midnightblue" d="M1415.76,-181.593C1357.59,-171.016 1242.32,-150.058 1186.2,-139.855"/>
<polygon fill="midnightblue" stroke="midnightblue" points="1186.59,-136.367 1176.12,-138.022 1185.33,-143.254 1186.59,-136.367"/>
</g>
<!-- Node17&#45;&gt;Node7 -->
<g id="edge20" class="edge"><title>Node17&#45;&gt;Node7</title>
<path fill="none" stroke="midnightblue" d="M1139.48,-187.578C1102.28,-185.555 1038.23,-176.935 997,-143 980.974,-129.809 971.968,-107.26 967.31,-91.2163"/>
<polygon fill="midnightblue" stroke="midnightblue" points="970.648,-90.1435 964.747,-81.3437 963.872,-91.9023 970.648,-90.1435"/>
</g>
<!-- Node17&#45;&gt;Node11 -->
<g id="edge23" class="edge"><title>Node17&#45;&gt;Node11</title>
<path fill="none" stroke="midnightblue" d="M1198.76,-180.896C1201.88,-180.224 1205,-179.579 1208,-179 1310.46,-159.255 1337.3,-161.46 1440,-143 1441.44,-142.741 1442.9,-142.472 1444.38,-142.196"/>
<polygon fill="midnightblue" stroke="midnightblue" points="1445.06,-145.629 1454.22,-140.293 1443.73,-138.756 1445.06,-145.629"/>
</g>
<!-- Node17&#45;&gt;Node12 -->
<g id="edge24" class="edge"><title>Node17&#45;&gt;Node12</title>
<path fill="none" stroke="midnightblue" d="M1172.27,-179.441C1175.65,-170.437 1181,-155.823 1185,-143 1190.42,-125.622 1195.74,-105.555 1199.36,-91.2854"/>
<polygon fill="midnightblue" stroke="midnightblue" points="1202.84,-91.7966 1201.88,-81.246 1196.05,-90.0967 1202.84,-91.7966"/>
</g>
<!-- Node17&#45;&gt;Node13 -->
<g id="edge26" class="edge"><title>Node17&#45;&gt;Node13</title>
<path fill="none" stroke="midnightblue" d="M1196.03,-179.4C1221.44,-171.034 1260.35,-157.495 1293,-143 1332.57,-125.435 1376.62,-101.082 1402.78,-86.0809"/>
<polygon fill="midnightblue" stroke="midnightblue" points="1404.66,-89.0381 1411.57,-81.0071 1401.16,-82.9759 1404.66,-89.0381"/>
</g>
<!-- Node17&#45;&gt;Node16 -->
<g id="edge27" class="edge"><title>Node17&#45;&gt;Node16</title>
<path fill="none" stroke="midnightblue" d="M1166.52,-179.083C1164.51,-171.849 1161.61,-161.409 1159.11,-152.397"/>
<polygon fill="midnightblue" stroke="midnightblue" points="1162.48,-151.449 1156.43,-142.751 1155.74,-153.323 1162.48,-151.449"/>
</g>
<!-- Node18 -->
<g id="node18" class="node"><title>Node18</title>
<polygon fill="none" stroke="#bfbfbf" points="427.5,-123.5 427.5,-142.5 486.5,-142.5 486.5,-123.5 427.5,-123.5"/>
<text text-anchor="middle" x="457" y="-130.5" font-family="Helvetica,sans-Serif" font-size="10.00">functional</text>
</g>
<!-- Node17&#45;&gt;Node18 -->
<g id="edge21" class="edge"><title>Node17&#45;&gt;Node18</title>
<path fill="none" stroke="midnightblue" d="M1139.49,-185.806C1052.57,-179.336 789.892,-159.738 572,-143 547.006,-141.08 518.959,-138.886 496.821,-137.145"/>
<polygon fill="midnightblue" stroke="midnightblue" points="497.026,-133.65 486.783,-136.354 496.477,-140.629 497.026,-133.65"/>
</g>
<!-- Node19 -->
<g id="node19" class="node"><title>Node19</title>
<polygon fill="none" stroke="#bfbfbf" points="1232,-123.5 1232,-142.5 1284,-142.5 1284,-123.5 1232,-123.5"/>
<text text-anchor="middle" x="1258" y="-130.5" font-family="Helvetica,sans-Serif" font-size="10.00">memory</text>
</g>
<!-- Node17&#45;&gt;Node19 -->
<g id="edge22" class="edge"><title>Node17&#45;&gt;Node19</title>
<path fill="none" stroke="midnightblue" d="M1183.3,-179.324C1197.18,-170.9 1218.49,-157.971 1234.8,-148.074"/>
<polygon fill="midnightblue" stroke="midnightblue" points="1237,-150.834 1243.74,-142.655 1233.37,-144.85 1237,-150.834"/>
</g>
<!-- Node20 -->
<g id="node20" class="node"><title>Node20</title>
<polygon fill="none" stroke="#bfbfbf" points="786,-123.5 786,-142.5 838,-142.5 838,-123.5 786,-123.5"/>
<text text-anchor="middle" x="812" y="-130.5" font-family="Helvetica,sans-Serif" font-size="10.00">sstream</text>
</g>
<!-- Node17&#45;&gt;Node20 -->
<g id="edge25" class="edge"><title>Node17&#45;&gt;Node20</title>
<path fill="none" stroke="midnightblue" d="M1139.48,-183.535C1074.49,-173.705 919.198,-150.215 848.351,-139.499"/>
<polygon fill="midnightblue" stroke="midnightblue" points="848.543,-135.988 838.132,-137.953 847.496,-142.909 848.543,-135.988"/>
</g>
<!-- Node21 -->
<g id="node21" class="node"><title>Node21</title>
<g id="a_node21"><a xlink:href="color_8hpp.html" target="_top" xlink:title="color.hpp">
<polygon fill="none" stroke="black" points="894,-123.5 894,-142.5 950,-142.5 950,-123.5 894,-123.5"/>
<text text-anchor="middle" x="922" y="-130.5" font-family="Helvetica,sans-Serif" font-size="10.00">color.hpp</text>
</a>
</g>
</g>
<!-- Node17&#45;&gt;Node21 -->
<g id="edge28" class="edge"><title>Node17&#45;&gt;Node21</title>
<path fill="none" stroke="midnightblue" d="M1139.21,-181.486C1094.4,-171.692 1009.69,-153.172 960.341,-142.382"/>
<polygon fill="midnightblue" stroke="midnightblue" points="960.89,-138.92 950.374,-140.203 959.395,-145.758 960.89,-138.92"/>
</g>
<!-- Node21&#45;&gt;Node7 -->
<g id="edge29" class="edge"><title>Node21&#45;&gt;Node7</title>
<path fill="none" stroke="midnightblue" d="M927.874,-123.475C933.963,-114.638 943.645,-100.589 951.303,-89.475"/>
<polygon fill="midnightblue" stroke="midnightblue" points="954.344,-91.2294 957.137,-81.0091 948.58,-87.2575 954.344,-91.2294"/>
</g>
<!-- Node21&#45;&gt;Node12 -->
<g id="edge30" class="edge"><title>Node21&#45;&gt;Node12</title>
<path fill="none" stroke="midnightblue" d="M950.07,-126.077C1003.34,-114.838 1118.66,-90.5057 1173.65,-78.9039"/>
<polygon fill="midnightblue" stroke="midnightblue" points="1174.43,-82.3154 1183.5,-76.8263 1172.99,-75.4662 1174.43,-82.3154"/>
</g>
<!-- Node22 -->
<g id="node22" class="node"><title>Node22</title>
<g id="a_node22"><a xlink:href="math_8hpp.html" target="_top" xlink:title="math.hpp">
<polygon fill="none" stroke="black" points="581.5,-62 581.5,-81 638.5,-81 638.5,-62 581.5,-62"/>
<text text-anchor="middle" x="610" y="-69" font-family="Helvetica,sans-Serif" font-size="10.00">math.hpp</text>
</a>
</g>
</g>
<!-- Node21&#45;&gt;Node22 -->
<g id="edge31" class="edge"><title>Node21&#45;&gt;Node22</title>
<path fill="none" stroke="midnightblue" d="M893.762,-126.615C837.777,-115.938 712.63,-92.0722 648.902,-79.9187"/>
<polygon fill="midnightblue" stroke="midnightblue" points="649.33,-76.4375 638.852,-78.0022 648.019,-83.3136 649.33,-76.4375"/>
</g>
<!-- Node24 -->
<g id="node24" class="node"><title>Node24</title>
<g id="a_node24"><a xlink:href="c_09_09-compat_8hpp.html" target="_top" xlink:title="This file defined some compatibility for features of C++14 and beyond. ">
<polygon fill="none" stroke="black" points="834,-62 834,-81 922,-81 922,-62 834,-62"/>
<text text-anchor="middle" x="878" y="-69" font-family="Helvetica,sans-Serif" font-size="10.00">c++&#45;compat.hpp</text>
</a>
</g>
</g>
<!-- Node21&#45;&gt;Node24 -->
<g id="edge33" class="edge"><title>Node21&#45;&gt;Node24</title>
<path fill="none" stroke="midnightblue" d="M915.696,-123.475C909.096,-114.55 898.563,-100.307 890.307,-89.1425"/>
<polygon fill="midnightblue" stroke="midnightblue" points="893.052,-86.9684 884.292,-81.0091 887.424,-91.1305 893.052,-86.9684"/>
</g>
<!-- Node23 -->
<g id="node23" class="node"><title>Node23</title>
<polygon fill="none" stroke="#bfbfbf" points="553,-0.5 553,-19.5 609,-19.5 609,-0.5 553,-0.5"/>
<text text-anchor="middle" x="581" y="-7.5" font-family="Helvetica,sans-Serif" font-size="10.00">algorithm</text>
</g>
<!-- Node22&#45;&gt;Node23 -->
<g id="edge32" class="edge"><title>Node22&#45;&gt;Node23</title>
<path fill="none" stroke="midnightblue" d="M605.845,-61.9751C601.624,-53.3152 594.963,-39.6486 589.6,-28.6453"/>
<polygon fill="midnightblue" stroke="midnightblue" points="592.675,-26.9648 585.147,-19.5091 586.382,-30.0317 592.675,-26.9648"/>
</g>
<!-- Node25&#45;&gt;Node7 -->
<g id="edge36" class="edge"><title>Node25&#45;&gt;Node7</title>
<path fill="none" stroke="midnightblue" d="M1029.82,-123.475C1017.43,-114.02 997.21,-98.5961 982.254,-87.1871"/>
<polygon fill="midnightblue" stroke="midnightblue" points="984.228,-84.2914 974.155,-81.0091 979.983,-89.857 984.228,-84.2914"/>
</g>
<!-- Node25&#45;&gt;Node12 -->
<g id="edge35" class="edge"><title>Node25&#45;&gt;Node12</title>
<path fill="none" stroke="midnightblue" d="M1064.35,-123.475C1093.11,-112.979 1142.01,-95.1273 1173.65,-83.5779"/>
<polygon fill="midnightblue" stroke="midnightblue" points="1175.08,-86.7837 1183.27,-80.0669 1172.68,-80.2081 1175.08,-86.7837"/>
</g>
<!-- Node25&#45;&gt;Node13 -->
<g id="edge37" class="edge"><title>Node25&#45;&gt;Node13</title>
<path fill="none" stroke="midnightblue" d="M1076.19,-126.562C1144.32,-116.033 1294.52,-92.819 1374.13,-80.5166"/>
<polygon fill="midnightblue" stroke="midnightblue" points="1375.06,-83.914 1384.41,-78.9277 1373.99,-76.9961 1375.06,-83.914"/>
</g>
<!-- Node25&#45;&gt;Node24 -->
<g id="edge39" class="edge"><title>Node25&#45;&gt;Node24</title>
<path fill="none" stroke="midnightblue" d="M1017.65,-123.475C989.686,-113.269 942.674,-96.108 911.009,-84.5492"/>
<polygon fill="midnightblue" stroke="midnightblue" points="911.905,-81.1503 901.311,-81.0091 909.504,-87.7259 911.905,-81.1503"/>
</g>
<!-- Node26 -->
<g id="node26" class="node"><title>Node26</title>
<polygon fill="none" stroke="#bfbfbf" points="1004.5,-56.5 1004.5,-86.5 1105.5,-86.5 1105.5,-56.5 1004.5,-56.5"/>
<text text-anchor="start" x="1012.5" y="-74.5" font-family="Helvetica,sans-Serif" font-size="10.00">boost/property_tree</text>
<text text-anchor="middle" x="1055" y="-63.5" font-family="Helvetica,sans-Serif" font-size="10.00">/ptree.hpp</text>
</g>
<!-- Node25&#45;&gt;Node26 -->
<g id="edge38" class="edge"><title>Node25&#45;&gt;Node26</title>
<path fill="none" stroke="midnightblue" d="M1043.01,-123.475C1044.67,-116.396 1047.12,-105.97 1049.38,-96.3896"/>
<polygon fill="midnightblue" stroke="midnightblue" points="1052.82,-97.0588 1051.7,-86.523 1046,-95.4555 1052.82,-97.0588"/>
</g>
<!-- Node27&#45;&gt;Node12 -->
<g id="edge45" class="edge"><title>Node27&#45;&gt;Node12</title>
<path fill="none" stroke="midnightblue" d="M761.643,-180.58C871.536,-168.136 1081.2,-144.28 1085,-143 1095.25,-139.545 1150.04,-106.019 1181.58,-86.4702"/>
<polygon fill="midnightblue" stroke="midnightblue" points="1183.53,-89.3811 1190.18,-81.1322 1179.84,-83.4344 1183.53,-89.3811"/>
</g>
<!-- Node27&#45;&gt;Node20 -->
<g id="edge44" class="edge"><title>Node27&#45;&gt;Node20</title>
<path fill="none" stroke="midnightblue" d="M714.381,-179.444C733.216,-170.675 762.731,-156.935 784.379,-146.858"/>
<polygon fill="midnightblue" stroke="midnightblue" points="786.117,-149.91 793.705,-142.516 783.162,-143.564 786.117,-149.91"/>
</g>
<!-- Node27&#45;&gt;Node23 -->
<g id="edge41" class="edge"><title>Node27&#45;&gt;Node23</title>
<path fill="none" stroke="midnightblue" d="M630.25,-179.599C608.036,-173.266 585.473,-162.222 572,-143 548.024,-108.793 562.654,-56.5725 573.14,-29.1943"/>
<polygon fill="midnightblue" stroke="midnightblue" points="576.474,-30.2869 576.996,-19.7049 569.989,-27.6514 576.474,-30.2869"/>
</g>
<!-- Node27&#45;&gt;Node25 -->
<g id="edge47" class="edge"><title>Node27&#45;&gt;Node25</title>
<path fill="none" stroke="midnightblue" d="M750.666,-179.444C818.339,-168.851 932.359,-151.005 995.495,-141.123"/>
<polygon fill="midnightblue" stroke="midnightblue" points="996.211,-144.553 1005.55,-139.549 995.129,-137.637 996.211,-144.553"/>
</g>
<!-- Node28 -->
<g id="node28" class="node"><title>Node28</title>
<polygon fill="none" stroke="#bfbfbf" points="581.5,-123.5 581.5,-142.5 628.5,-142.5 628.5,-123.5 581.5,-123.5"/>
<text text-anchor="middle" x="605" y="-130.5" font-family="Helvetica,sans-Serif" font-size="10.00">iterator</text>
</g>
<!-- Node27&#45;&gt;Node28 -->
<g id="edge42" class="edge"><title>Node27&#45;&gt;Node28</title>
<path fill="none" stroke="midnightblue" d="M681.379,-179.324C667.051,-170.822 644.987,-157.729 628.251,-147.797"/>
<polygon fill="midnightblue" stroke="midnightblue" points="629.97,-144.748 619.584,-142.655 626.398,-150.768 629.97,-144.748"/>
</g>
<!-- Node29 -->
<g id="node29" class="node"><title>Node29</title>
<polygon fill="none" stroke="#bfbfbf" points="646.5,-123.5 646.5,-142.5 687.5,-142.5 687.5,-123.5 646.5,-123.5"/>
<text text-anchor="middle" x="667" y="-130.5" font-family="Helvetica,sans-Serif" font-size="10.00">regex</text>
</g>
<!-- Node27&#45;&gt;Node29 -->
<g id="edge43" class="edge"><title>Node27&#45;&gt;Node29</title>
<path fill="none" stroke="midnightblue" d="M691.211,-179.083C687.242,-171.691 681.475,-160.953 676.565,-151.811"/>
<polygon fill="midnightblue" stroke="midnightblue" points="679.514,-149.905 671.7,-142.751 673.347,-153.217 679.514,-149.905"/>
</g>
<!-- Node30 -->
<g id="node30" class="node"><title>Node30</title>
<polygon fill="none" stroke="#bfbfbf" points="706,-123.5 706,-142.5 768,-142.5 768,-123.5 706,-123.5"/>
<text text-anchor="middle" x="737" y="-130.5" font-family="Helvetica,sans-Serif" font-size="10.00">type_traits</text>
</g>
<!-- Node27&#45;&gt;Node30 -->
<g id="edge46" class="edge"><title>Node27&#45;&gt;Node30</title>
<path fill="none" stroke="midnightblue" d="M702.77,-179.083C708.562,-171.455 717.058,-160.264 724.138,-150.941"/>
<polygon fill="midnightblue" stroke="midnightblue" points="727.096,-152.832 730.356,-142.751 721.521,-148.599 727.096,-152.832"/>
</g>
<!-- Node31&#45;&gt;Node13 -->
<g id="edge49" class="edge"><title>Node31&#45;&gt;Node13</title>
<path fill="none" stroke="midnightblue" d="M1144.61,-295.097C1214.64,-288.501 1337.31,-275.214 1441,-255 1536.65,-236.353 1566.95,-244.739 1653,-199 1686.37,-181.261 1701.38,-177.418 1717,-143 1720.67,-134.905 1722.72,-129.802 1717,-123 1687.01,-87.3543 1552.99,-76.8685 1477.73,-73.7845"/>
<polygon fill="midnightblue" stroke="midnightblue" points="1477.64,-70.2788 1467.51,-73.3966 1477.37,-77.2737 1477.64,-70.2788"/>
</g>
<!-- Node32 -->
<g id="node32" class="node"><title>Node32</title>
<g id="a_node32"><a xlink:href="user__group_8hpp.html" target="_top" xlink:title="user_group.hpp">
<polygon fill="none" stroke="black" points="1046.5,-235.5 1046.5,-254.5 1129.5,-254.5 1129.5,-235.5 1046.5,-235.5"/>
<text text-anchor="middle" x="1088" y="-242.5" font-family="Helvetica,sans-Serif" font-size="10.00">user_group.hpp</text>
</a>
</g>
</g>
<!-- Node31&#45;&gt;Node32 -->
<g id="edge50" class="edge"><title>Node31&#45;&gt;Node32</title>
<path fill="none" stroke="midnightblue" d="M1088,-291.083C1088,-284.006 1088,-273.861 1088,-264.986"/>
<polygon fill="midnightblue" stroke="midnightblue" points="1091.5,-264.751 1088,-254.751 1084.5,-264.751 1091.5,-264.751"/>
</g>
<!-- Node32&#45;&gt;Node16 -->
<g id="edge51" class="edge"><title>Node32&#45;&gt;Node16</title>
<path fill="none" stroke="midnightblue" d="M1093.18,-235.368C1104.02,-217.296 1129.29,-175.176 1143.62,-151.307"/>
<polygon fill="midnightblue" stroke="midnightblue" points="1146.7,-152.967 1148.85,-142.591 1140.7,-149.366 1146.7,-152.967"/>
</g>
<!-- Node33 -->
<g id="node33" class="node"><title>Node33</title>
<g id="a_node33"><a xlink:href="user_8hpp.html" target="_top" xlink:title="user.hpp">
<polygon fill="none" stroke="black" points="1217,-179.5 1217,-198.5 1271,-198.5 1271,-179.5 1217,-179.5"/>
<text text-anchor="middle" x="1244" y="-186.5" font-family="Helvetica,sans-Serif" font-size="10.00">user.hpp</text>
</a>
</g>
</g>
<!-- Node32&#45;&gt;Node33 -->
<g id="edge52" class="edge"><title>Node32&#45;&gt;Node33</title>
<path fill="none" stroke="midnightblue" d="M1112.72,-235.444C1138.85,-226.399 1180.26,-212.064 1209.58,-201.916"/>
<polygon fill="midnightblue" stroke="midnightblue" points="1211.09,-205.095 1219.4,-198.516 1208.8,-198.48 1211.09,-205.095"/>
</g>
<!-- Node33&#45;&gt;Node12 -->
<g id="edge53" class="edge"><title>Node33&#45;&gt;Node12</title>
<path fill="none" stroke="midnightblue" d="M1258.72,-179.426C1277.34,-167.414 1305.59,-144.615 1293,-123 1280.4,-101.363 1254.7,-88.2441 1234.14,-80.8219"/>
<polygon fill="midnightblue" stroke="midnightblue" points="1235.13,-77.4641 1224.54,-77.6236 1232.92,-84.1052 1235.13,-77.4641"/>
</g>
<!-- Node33&#45;&gt;Node13 -->
<g id="edge55" class="edge"><title>Node33&#45;&gt;Node13</title>
<path fill="none" stroke="midnightblue" d="M1257.68,-179.319C1288.77,-159.586 1365.02,-111.199 1403.3,-86.9068"/>
<polygon fill="midnightblue" stroke="midnightblue" points="1405.59,-89.5955 1412.16,-81.282 1401.84,-83.6851 1405.59,-89.5955"/>
</g>
<!-- Node33&#45;&gt;Node16 -->
<g id="edge54" class="edge"><title>Node33&#45;&gt;Node16</title>
<path fill="none" stroke="midnightblue" d="M1229.54,-179.324C1215.5,-170.9 1193.95,-157.971 1177.46,-148.074"/>
<polygon fill="midnightblue" stroke="midnightblue" points="1178.8,-144.798 1168.42,-142.655 1175.2,-150.801 1178.8,-144.798"/>
</g>
<!-- Node33&#45;&gt;Node25 -->
<g id="edge56" class="edge"><title>Node33&#45;&gt;Node25</title>
<path fill="none" stroke="midnightblue" d="M1216.62,-180.717C1182.3,-171.588 1123.12,-155.845 1083.04,-145.184"/>
<polygon fill="midnightblue" stroke="midnightblue" points="1083.86,-141.778 1073.29,-142.59 1082.06,-148.543 1083.86,-141.778"/>
</g>
<!-- Node34&#45;&gt;Node33 -->
<g id="edge58" class="edge"><title>Node34&#45;&gt;Node33</title>
<path fill="none" stroke="midnightblue" d="M1007.33,-291.491C1044.82,-284.428 1095.66,-272.652 1138,-255 1170.11,-241.614 1203.8,-219.324 1224.35,-204.644"/>
<polygon fill="midnightblue" stroke="midnightblue" points="1226.53,-207.387 1232.57,-198.68 1222.42,-201.722 1226.53,-207.387"/>
</g>
<!-- Node35 -->
<g id="node35" class="node"><title>Node35</title>
<polygon fill="none" stroke="#bfbfbf" points="939.5,-235.5 939.5,-254.5 968.5,-254.5 968.5,-235.5 939.5,-235.5"/>
<text text-anchor="middle" x="954" y="-242.5" font-family="Helvetica,sans-Serif" font-size="10.00">list</text>
</g>
<!-- Node34&#45;&gt;Node35 -->
<g id="edge59" class="edge"><title>Node34&#45;&gt;Node35</title>
<path fill="none" stroke="midnightblue" d="M954,-291.083C954,-284.006 954,-273.861 954,-264.986"/>
<polygon fill="midnightblue" stroke="midnightblue" points="957.5,-264.751 954,-254.751 950.5,-264.751 957.5,-264.751"/>
</g>
<!-- Node36&#45;&gt;Node20 -->
<g id="edge61" class="edge"><title>Node36&#45;&gt;Node20</title>
<path fill="none" stroke="midnightblue" d="M735.355,-291.075C748.215,-264.719 786.198,-186.878 803.382,-151.661"/>
<polygon fill="midnightblue" stroke="midnightblue" points="806.579,-153.09 807.819,-142.568 800.288,-150.02 806.579,-153.09"/>
</g>
<!-- Node36&#45;&gt;Node27 -->
<g id="edge62" class="edge"><title>Node36&#45;&gt;Node27</title>
<path fill="none" stroke="midnightblue" d="M728.254,-291.368C722.58,-273.537 709.458,-232.295 701.814,-208.272"/>
<polygon fill="midnightblue" stroke="midnightblue" points="705.101,-207.059 698.734,-198.591 698.43,-209.182 705.101,-207.059"/>
</g>
<!-- Node37 -->
<g id="node37" class="node"><title>Node37</title>
<g id="a_node37"><a xlink:href="time_8hpp.html" target="_top" xlink:title="time/time.hpp">
<polygon fill="none" stroke="black" points="462,-235.5 462,-254.5 538,-254.5 538,-235.5 462,-235.5"/>
<text text-anchor="middle" x="500" y="-242.5" font-family="Helvetica,sans-Serif" font-size="10.00">time/time.hpp</text>
</a>
</g>
</g>
<!-- Node36&#45;&gt;Node37 -->
<g id="edge63" class="edge"><title>Node36&#45;&gt;Node37</title>
<path fill="none" stroke="midnightblue" d="M695.916,-291.799C655.987,-282.465 590.604,-267.18 546.466,-256.862"/>
<polygon fill="midnightblue" stroke="midnightblue" points="547.095,-253.415 536.561,-254.547 545.502,-260.231 547.095,-253.415"/>
</g>
<!-- Node37&#45;&gt;Node18 -->
<g id="edge65" class="edge"><title>Node37&#45;&gt;Node18</title>
<path fill="none" stroke="midnightblue" d="M497.871,-235.422C494.633,-222.828 487.991,-198.693 480,-179 476.247,-169.752 471.288,-159.838 466.936,-151.676"/>
<polygon fill="midnightblue" stroke="midnightblue" points="469.922,-149.842 462.05,-142.751 463.782,-153.203 469.922,-149.842"/>
</g>
<!-- Node37&#45;&gt;Node22 -->
<g id="edge75" class="edge"><title>Node37&#45;&gt;Node22</title>
<path fill="none" stroke="midnightblue" d="M461.789,-236.875C437.233,-230.571 406.095,-219.128 385,-199 359.274,-174.453 337.483,-150.52 360,-123 386.229,-90.9429 507.639,-78.77 571.105,-74.5392"/>
<polygon fill="midnightblue" stroke="midnightblue" points="571.381,-78.0289 581.14,-73.9044 570.939,-71.0429 571.381,-78.0289"/>
</g>
<!-- Node37&#45;&gt;Node24 -->
<g id="edge74" class="edge"><title>Node37&#45;&gt;Node24</title>
<path fill="none" stroke="midnightblue" d="M532.185,-235.488C550.539,-228.801 572.016,-217.45 583,-199 600.459,-169.674 549.919,-149.024 572,-123 603.63,-85.7218 744.363,-75.9198 823.496,-73.371"/>
<polygon fill="midnightblue" stroke="midnightblue" points="823.874,-76.8615 833.767,-73.0697 823.669,-69.8645 823.874,-76.8615"/>
</g>
<!-- Node38 -->
<g id="node38" class="node"><title>Node38</title>
<polygon fill="none" stroke="#bfbfbf" points="528,-179.5 528,-198.5 574,-198.5 574,-179.5 528,-179.5"/>
<text text-anchor="middle" x="551" y="-186.5" font-family="Helvetica,sans-Serif" font-size="10.00">chrono</text>
</g>
<!-- Node37&#45;&gt;Node38 -->
<g id="edge64" class="edge"><title>Node37&#45;&gt;Node38</title>
<path fill="none" stroke="midnightblue" d="M508.422,-235.083C515.848,-227.22 526.852,-215.569 535.812,-206.081"/>
<polygon fill="midnightblue" stroke="midnightblue" points="538.413,-208.424 542.735,-198.751 533.324,-203.618 538.413,-208.424"/>
</g>
<!-- Node39 -->
<g id="node39" class="node"><title>Node39</title>
<g id="a_node39"><a xlink:href="functional_8hpp.html" target="_top" xlink:title="functional.hpp">
<polygon fill="none" stroke="black" points="394.5,-179.5 394.5,-198.5 471.5,-198.5 471.5,-179.5 394.5,-179.5"/>
<text text-anchor="middle" x="433" y="-186.5" font-family="Helvetica,sans-Serif" font-size="10.00">functional.hpp</text>
</a>
</g>
</g>
<!-- Node37&#45;&gt;Node39 -->
<g id="edge66" class="edge"><title>Node37&#45;&gt;Node39</title>
<path fill="none" stroke="midnightblue" d="M489.235,-235.324C479.234,-227.263 464.113,-215.077 452.07,-205.369"/>
<polygon fill="midnightblue" stroke="midnightblue" points="453.943,-202.384 443.961,-198.834 449.55,-207.834 453.943,-202.384"/>
</g>
<!-- Node41 -->
<g id="node41" class="node"><title>Node41</title>
<g id="a_node41"><a xlink:href="concurrency_8hpp.html" target="_top" xlink:title="concurrency.hpp">
<polygon fill="none" stroke="black" points="96.5,-179.5 96.5,-198.5 185.5,-198.5 185.5,-179.5 96.5,-179.5"/>
<text text-anchor="middle" x="141" y="-186.5" font-family="Helvetica,sans-Serif" font-size="10.00">concurrency.hpp</text>
</a>
</g>
</g>
<!-- Node37&#45;&gt;Node41 -->
<g id="edge69" class="edge"><title>Node37&#45;&gt;Node41</title>
<path fill="none" stroke="midnightblue" d="M461.921,-238.272C398.065,-228.667 269.185,-209.281 195.661,-198.222"/>
<polygon fill="midnightblue" stroke="midnightblue" points="196.076,-194.745 185.666,-196.719 195.035,-201.667 196.076,-194.745"/>
</g>
<!-- Node39&#45;&gt;Node18 -->
<g id="edge67" class="edge"><title>Node39&#45;&gt;Node18</title>
<path fill="none" stroke="midnightblue" d="M436.963,-179.083C440.213,-171.77 444.919,-161.181 448.954,-152.103"/>
<polygon fill="midnightblue" stroke="midnightblue" points="452.248,-153.311 453.111,-142.751 445.851,-150.468 452.248,-153.311"/>
</g>
<!-- Node40 -->
<g id="node40" class="node"><title>Node40</title>
<polygon fill="none" stroke="#bfbfbf" points="369,-123.5 369,-142.5 409,-142.5 409,-123.5 369,-123.5"/>
<text text-anchor="middle" x="389" y="-130.5" font-family="Helvetica,sans-Serif" font-size="10.00">utility</text>
</g>
<!-- Node39&#45;&gt;Node40 -->
<g id="edge68" class="edge"><title>Node39&#45;&gt;Node40</title>
<path fill="none" stroke="midnightblue" d="M425.734,-179.083C419.455,-171.377 410.212,-160.033 402.569,-150.653"/>
<polygon fill="midnightblue" stroke="midnightblue" points="405.161,-148.293 396.131,-142.751 399.734,-152.714 405.161,-148.293"/>
</g>
<!-- Node41&#45;&gt;Node2 -->
<g id="edge73" class="edge"><title>Node41&#45;&gt;Node2</title>
<path fill="none" stroke="midnightblue" d="M160.49,-179.444C180.642,-170.596 212.323,-156.687 235.331,-146.586"/>
<polygon fill="midnightblue" stroke="midnightblue" points="236.852,-149.741 244.601,-142.516 234.038,-143.332 236.852,-149.741"/>
</g>
<!-- Node41&#45;&gt;Node3 -->
<g id="edge72" class="edge"><title>Node41&#45;&gt;Node3</title>
<path fill="none" stroke="midnightblue" d="M122.144,-179.444C102.734,-170.636 72.2699,-156.812 50.0355,-146.722"/>
<polygon fill="midnightblue" stroke="midnightblue" points="51.3203,-143.462 40.7677,-142.516 48.4277,-149.836 51.3203,-143.462"/>
</g>
<!-- Node41&#45;&gt;Node6 -->
<g id="edge70" class="edge"><title>Node41&#45;&gt;Node6</title>
<path fill="none" stroke="midnightblue" d="M150.64,-179.324C159.51,-171.341 172.875,-159.313 183.608,-149.653"/>
<polygon fill="midnightblue" stroke="midnightblue" points="186.093,-152.125 191.185,-142.834 181.41,-146.922 186.093,-152.125"/>
</g>
<!-- Node42 -->
<g id="node42" class="node"><title>Node42</title>
<polygon fill="none" stroke="#bfbfbf" points="64.5,-123.5 64.5,-142.5 159.5,-142.5 159.5,-123.5 64.5,-123.5"/>
<text text-anchor="middle" x="112" y="-130.5" font-family="Helvetica,sans-Serif" font-size="10.00">condition_variable</text>
</g>
<!-- Node41&#45;&gt;Node42 -->
<g id="edge71" class="edge"><title>Node41&#45;&gt;Node42</title>
<path fill="none" stroke="midnightblue" d="M136.211,-179.083C132.242,-171.691 126.475,-160.953 121.565,-151.811"/>
<polygon fill="midnightblue" stroke="midnightblue" points="124.514,-149.905 116.7,-142.751 118.347,-153.217 124.514,-149.905"/>
</g>
<!-- Node43&#45;&gt;Node16 -->
<g id="edge80" class="edge"><title>Node43&#45;&gt;Node16</title>
<path fill="none" stroke="midnightblue" d="M186.086,-241.512C302.018,-236.517 556.632,-223.586 770,-199 925.191,-181.118 963.875,-173.929 1117,-143 1118.5,-142.697 1120.03,-142.376 1121.57,-142.042"/>
<polygon fill="midnightblue" stroke="midnightblue" points="1122.79,-145.353 1131.76,-139.71 1121.23,-138.529 1122.79,-145.353"/>
</g>
<!-- Node43&#45;&gt;Node18 -->
<g id="edge78" class="edge"><title>Node43&#45;&gt;Node18</title>
<path fill="none" stroke="midnightblue" d="M148.93,-235.46C208.12,-215.966 353.281,-168.159 421.053,-145.839"/>
<polygon fill="midnightblue" stroke="midnightblue" points="422.452,-149.063 430.856,-142.61 420.263,-142.414 422.452,-149.063"/>
</g>
<!-- Node43&#45;&gt;Node41 -->
<g id="edge77" class="edge"><title>Node43&#45;&gt;Node41</title>
<path fill="none" stroke="midnightblue" d="M125.972,-235.083C128.384,-227.849 131.864,-217.409 134.868,-208.397"/>
<polygon fill="midnightblue" stroke="midnightblue" points="138.241,-209.345 138.083,-198.751 131.6,-207.131 138.241,-209.345"/>
</g>
<!-- Node44 -->
<g id="node44" class="node"><title>Node44</title>
<polygon fill="none" stroke="#bfbfbf" points="35.5,-179.5 35.5,-198.5 78.5,-198.5 78.5,-179.5 35.5,-179.5"/>
<text text-anchor="middle" x="57" y="-186.5" font-family="Helvetica,sans-Serif" font-size="10.00">queue</text>
</g>
<!-- Node43&#45;&gt;Node44 -->
<g id="edge79" class="edge"><title>Node43&#45;&gt;Node44</title>
<path fill="none" stroke="midnightblue" d="M112.396,-235.324C102.544,-227.263 87.6491,-215.077 75.7849,-205.369"/>
<polygon fill="midnightblue" stroke="midnightblue" points="77.7529,-202.457 67.797,-198.834 73.3202,-207.875 77.7529,-202.457"/>
</g>
</g>
</svg>
