<?xml version="1.0" encoding="UTF-8" standalone="no"?>
<!DOCTYPE svg PUBLIC "-//W3C//DTD SVG 1.1//EN"
 "http://www.w3.org/Graphics/SVG/1.1/DTD/svg11.dtd">
<!-- Generated by graphviz version 2.38.0 (20140413.2041)
 -->
<!-- Title: handler::SimpleAction Pages: 1 -->
<svg width="895pt" height="807pt"
 viewBox="0.00 0.00 895.00 807.00" xmlns="http://www.w3.org/2000/svg" xmlns:xlink="http://www.w3.org/1999/xlink">
<g id="graph0" class="graph" transform="scale(1 1) rotate(0) translate(4 803)">
<title>handler::SimpleAction</title>
<!-- Node1 -->
<g id="node1" class="node"><title>Node1</title>
<polygon fill="#bfbfbf" stroke="black" points="290,-437.5 290,-456.5 402,-456.5 402,-437.5 290,-437.5"/>
<text text-anchor="middle" x="346" y="-444.5" font-family="Helvetica,sans-Serif" font-size="10.00">handler::SimpleAction</text>
</g>
<!-- Node4 -->
<g id="node4" class="node"><title>Node4</title>
<g id="a_node4"><a xlink:href="classhandler_1_1AdminJoin.html" target="_top" xlink:title="Makes the bot join channels (IRC) ">
<polygon fill="none" stroke="black" points="450,-779.5 450,-798.5 550,-798.5 550,-779.5 450,-779.5"/>
<text text-anchor="middle" x="500" y="-786.5" font-family="Helvetica,sans-Serif" font-size="10.00">handler::AdminJoin</text>
</a>
</g>
</g>
<!-- Node1&#45;&gt;Node4 -->
<g id="edge3" class="edge"><title>Node1&#45;&gt;Node4</title>
<path fill="none" stroke="midnightblue" d="M346.488,-467.114C346.19,-523.194 353.225,-682.875 438,-770 441.79,-773.895 446.364,-776.996 451.284,-779.462"/>
<polygon fill="midnightblue" stroke="midnightblue" points="349.992,-466.833 346.637,-456.783 342.993,-466.732 349.992,-466.833"/>
</g>
<!-- Node5 -->
<g id="node5" class="node"><title>Node5</title>
<g id="a_node5"><a xlink:href="classhandler_1_1AdminNick.html" target="_top" xlink:title="Changes the bot nick (IRC) ">
<polygon fill="none" stroke="black" points="449,-741.5 449,-760.5 551,-760.5 551,-741.5 449,-741.5"/>
<text text-anchor="middle" x="500" y="-748.5" font-family="Helvetica,sans-Serif" font-size="10.00">handler::AdminNick</text>
</a>
</g>
</g>
<!-- Node1&#45;&gt;Node5 -->
<g id="edge4" class="edge"><title>Node1&#45;&gt;Node5</title>
<path fill="none" stroke="midnightblue" d="M347.371,-466.797C349.426,-518.107 362.101,-656.639 438,-732 441.936,-735.908 446.661,-739.014 451.717,-741.482"/>
<polygon fill="midnightblue" stroke="midnightblue" points="350.867,-466.605 347.065,-456.717 343.87,-466.818 350.867,-466.605"/>
</g>
<!-- Node6 -->
<g id="node6" class="node"><title>Node6</title>
<g id="a_node6"><a xlink:href="classhandler_1_1AdminPart.html" target="_top" xlink:title="Makes the bot part channels (IRC) ">
<polygon fill="none" stroke="black" points="450,-703.5 450,-722.5 550,-722.5 550,-703.5 450,-703.5"/>
<text text-anchor="middle" x="500" y="-710.5" font-family="Helvetica,sans-Serif" font-size="10.00">handler::AdminPart</text>
</a>
</g>
</g>
<!-- Node1&#45;&gt;Node6 -->
<g id="edge5" class="edge"><title>Node1&#45;&gt;Node6</title>
<path fill="none" stroke="midnightblue" d="M348.514,-466.922C353.129,-513.513 371.117,-630.446 438,-694 442.101,-697.897 446.989,-700.995 452.187,-703.458"/>
<polygon fill="midnightblue" stroke="midnightblue" points="351.974,-466.32 347.607,-456.667 345.001,-466.937 351.974,-466.32"/>
</g>
<!-- Node7 -->
<g id="node7" class="node"><title>Node7</title>
<g id="a_node7"><a xlink:href="classhandler_1_1AdminQuit.html" target="_top" xlink:title="Quits the bot. ">
<polygon fill="none" stroke="black" points="450,-665.5 450,-684.5 550,-684.5 550,-665.5 450,-665.5"/>
<text text-anchor="middle" x="500" y="-672.5" font-family="Helvetica,sans-Serif" font-size="10.00">handler::AdminQuit</text>
</a>
</g>
</g>
<!-- Node1&#45;&gt;Node7 -->
<g id="edge6" class="edge"><title>Node1&#45;&gt;Node7</title>
<path fill="none" stroke="midnightblue" d="M349.975,-466.618C357.258,-507.817 379.83,-603.833 438,-656 442.294,-659.851 447.36,-662.921 452.708,-665.369"/>
<polygon fill="midnightblue" stroke="midnightblue" points="353.393,-465.829 348.31,-456.533 346.486,-466.97 353.393,-465.829"/>
</g>
<!-- Node8 -->
<g id="node8" class="node"><title>Node8</title>
<g id="a_node8"><a xlink:href="classhandler_1_1AdminRaw.html" target="_top" xlink:title="Makes the bot execute a raw command (IRC) ">
<polygon fill="none" stroke="black" points="449,-627.5 449,-646.5 551,-646.5 551,-627.5 449,-627.5"/>
<text text-anchor="middle" x="500" y="-634.5" font-family="Helvetica,sans-Serif" font-size="10.00">handler::AdminRaw</text>
</a>
</g>
</g>
<!-- Node1&#45;&gt;Node8 -->
<g id="edge7" class="edge"><title>Node1&#45;&gt;Node8</title>
<path fill="none" stroke="midnightblue" d="M352.152,-466.887C362.393,-502.478 388.694,-577.152 438,-618 442.698,-621.892 448.193,-624.989 453.925,-627.452"/>
<polygon fill="midnightblue" stroke="midnightblue" points="355.404,-465.514 349.382,-456.797 348.654,-467.367 355.404,-465.514"/>
</g>
<!-- Node9 -->
<g id="node9" class="node"><title>Node9</title>
<g id="a_node9"><a xlink:href="classhandler_1_1Cointoss.html" target="_top" xlink:title="Shows one of the given items, at random. ">
<polygon fill="none" stroke="black" points="453.5,-589.5 453.5,-608.5 546.5,-608.5 546.5,-589.5 453.5,-589.5"/>
<text text-anchor="middle" x="500" y="-596.5" font-family="Helvetica,sans-Serif" font-size="10.00">handler::Cointoss</text>
</a>
</g>
</g>
<!-- Node1&#45;&gt;Node9 -->
<g id="edge8" class="edge"><title>Node1&#45;&gt;Node9</title>
<path fill="none" stroke="midnightblue" d="M355.024,-466.054C368.147,-494.937 396.917,-549.644 438,-580 443.263,-583.889 449.341,-586.995 455.577,-589.471"/>
<polygon fill="midnightblue" stroke="midnightblue" points="358.13,-464.422 350.904,-456.674 351.721,-467.237 358.13,-464.422"/>
</g>
<!-- Node10 -->
<g id="node10" class="node"><title>Node10</title>
<g id="a_node10"><a xlink:href="classhandler_1_1Echo.html" target="_top" xlink:title="Just repeat what it has been told. ">
<polygon fill="none" stroke="black" points="461.5,-551.5 461.5,-570.5 538.5,-570.5 538.5,-551.5 461.5,-551.5"/>
<text text-anchor="middle" x="500" y="-558.5" font-family="Helvetica,sans-Serif" font-size="10.00">handler::Echo</text>
</a>
</g>
</g>
<!-- Node1&#45;&gt;Node10 -->
<g id="edge9" class="edge"><title>Node1&#45;&gt;Node10</title>
<path fill="none" stroke="midnightblue" d="M359.558,-464.805C375.477,-486.115 404.868,-521.485 438,-542 445.073,-546.38 453.237,-549.824 461.246,-552.505"/>
<polygon fill="midnightblue" stroke="midnightblue" points="362.308,-462.636 353.588,-456.618 356.651,-466.76 362.308,-462.636"/>
</g>
<!-- Node11 -->
<g id="node11" class="node"><title>Node11</title>
<g id="a_node11"><a xlink:href="classhandler_1_1Help.html" target="_top" xlink:title="Handler showing help on the available handlers. ">
<polygon fill="none" stroke="black" points="463,-513.5 463,-532.5 537,-532.5 537,-513.5 463,-513.5"/>
<text text-anchor="middle" x="500" y="-520.5" font-family="Helvetica,sans-Serif" font-size="10.00">handler::Help</text>
</a>
</g>
</g>
<!-- Node1&#45;&gt;Node11 -->
<g id="edge10" class="edge"><title>Node1&#45;&gt;Node11</title>
<path fill="none" stroke="midnightblue" d="M368.475,-462.68C386.371,-475.188 412.901,-492.466 438,-504 445.861,-507.613 454.595,-510.788 462.94,-513.457"/>
<polygon fill="midnightblue" stroke="midnightblue" points="370.136,-459.567 359.957,-456.629 366.082,-465.273 370.136,-459.567"/>
</g>
<!-- Node12 -->
<g id="node12" class="node"><title>Node12</title>
<g id="a_node12"><a xlink:href="classhandler_1_1License.html" target="_top" xlink:title="Handler showing licensing information. ">
<polygon fill="none" stroke="black" points="456,-475.5 456,-494.5 544,-494.5 544,-475.5 456,-475.5"/>
<text text-anchor="middle" x="500" y="-482.5" font-family="Helvetica,sans-Serif" font-size="10.00">handler::License</text>
</a>
</g>
</g>
<!-- Node1&#45;&gt;Node12 -->
<g id="edge11" class="edge"><title>Node1&#45;&gt;Node12</title>
<path fill="none" stroke="midnightblue" d="M395.16,-459.04C416.395,-464.349 440.995,-470.499 460.92,-475.48"/>
<polygon fill="midnightblue" stroke="midnightblue" points="395.906,-455.619 385.356,-456.589 394.209,-462.41 395.906,-455.619"/>
</g>
<!-- Node13 -->
<g id="node13" class="node"><title>Node13</title>
<g id="a_node13"><a xlink:href="classhandler_1_1ListClear.html" target="_top" xlink:title="Used by AbstractList to remove all elements. ">
<polygon fill="none" stroke="black" points="453.5,-437.5 453.5,-456.5 546.5,-456.5 546.5,-437.5 453.5,-437.5"/>
<text text-anchor="middle" x="500" y="-444.5" font-family="Helvetica,sans-Serif" font-size="10.00">handler::ListClear</text>
</a>
</g>
</g>
<!-- Node1&#45;&gt;Node13 -->
<g id="edge12" class="edge"><title>Node1&#45;&gt;Node13</title>
<path fill="none" stroke="midnightblue" d="M412.698,-447C426.444,-447 440.649,-447 453.467,-447"/>
<polygon fill="midnightblue" stroke="midnightblue" points="412.306,-443.5 402.305,-447 412.305,-450.5 412.306,-443.5"/>
</g>
<!-- Node14 -->
<g id="node14" class="node"><title>Node14</title>
<g id="a_node14"><a xlink:href="classhandler_1_1ListInsert.html" target="_top" xlink:title="Used by AbstractList to add elements. ">
<polygon fill="none" stroke="black" points="452.5,-399.5 452.5,-418.5 547.5,-418.5 547.5,-399.5 452.5,-399.5"/>
<text text-anchor="middle" x="500" y="-406.5" font-family="Helvetica,sans-Serif" font-size="10.00">handler::ListInsert</text>
</a>
</g>
</g>
<!-- Node1&#45;&gt;Node14 -->
<g id="edge13" class="edge"><title>Node1&#45;&gt;Node14</title>
<path fill="none" stroke="midnightblue" d="M395.16,-434.96C416.395,-429.651 440.995,-423.501 460.92,-418.52"/>
<polygon fill="midnightblue" stroke="midnightblue" points="394.209,-431.59 385.356,-437.411 395.906,-438.381 394.209,-431.59"/>
</g>
<!-- Node15 -->
<g id="node15" class="node"><title>Node15</title>
<g id="a_node15"><a xlink:href="classhandler_1_1ListRemove.html" target="_top" xlink:title="Used by AbstractList to remove elements. ">
<polygon fill="none" stroke="black" points="446.5,-361.5 446.5,-380.5 553.5,-380.5 553.5,-361.5 446.5,-361.5"/>
<text text-anchor="middle" x="500" y="-368.5" font-family="Helvetica,sans-Serif" font-size="10.00">handler::ListRemove</text>
</a>
</g>
</g>
<!-- Node1&#45;&gt;Node15 -->
<g id="edge14" class="edge"><title>Node1&#45;&gt;Node15</title>
<path fill="none" stroke="midnightblue" d="M368.475,-431.32C386.371,-418.812 412.901,-401.534 438,-390 445.861,-386.387 454.595,-383.212 462.94,-380.543"/>
<polygon fill="midnightblue" stroke="midnightblue" points="366.082,-428.727 359.957,-437.371 370.136,-434.433 366.082,-428.727"/>
</g>
<!-- Node16 -->
<g id="node16" class="node"><title>Node16</title>
<g id="a_node16"><a xlink:href="classhandler_1_1Morse.html" target="_top" xlink:title="Handler translating between morse and latin. ">
<polygon fill="none" stroke="black" points="459.5,-323.5 459.5,-342.5 540.5,-342.5 540.5,-323.5 459.5,-323.5"/>
<text text-anchor="middle" x="500" y="-330.5" font-family="Helvetica,sans-Serif" font-size="10.00">handler::Morse</text>
</a>
</g>
</g>
<!-- Node1&#45;&gt;Node16 -->
<g id="edge15" class="edge"><title>Node1&#45;&gt;Node16</title>
<path fill="none" stroke="midnightblue" d="M359.558,-429.195C375.477,-407.885 404.868,-372.515 438,-352 444.507,-347.971 451.938,-344.733 459.322,-342.153"/>
<polygon fill="midnightblue" stroke="midnightblue" points="356.651,-427.24 353.588,-437.382 362.308,-431.364 356.651,-427.24"/>
</g>
<!-- Node17 -->
<g id="node17" class="node"><title>Node17</title>
<g id="a_node17"><a xlink:href="classhandler_1_1RenderPony.html" target="_top" xlink:title="Draws a pretty My Little Pony ASCII art. ">
<polygon fill="none" stroke="black" points="446,-285.5 446,-304.5 554,-304.5 554,-285.5 446,-285.5"/>
<text text-anchor="middle" x="500" y="-292.5" font-family="Helvetica,sans-Serif" font-size="10.00">handler::RenderPony</text>
</a>
</g>
</g>
<!-- Node1&#45;&gt;Node17 -->
<g id="edge16" class="edge"><title>Node1&#45;&gt;Node17</title>
<path fill="none" stroke="midnightblue" d="M355.024,-427.946C368.147,-399.063 396.917,-344.356 438,-314 443.263,-310.111 449.341,-307.005 455.577,-304.529"/>
<polygon fill="midnightblue" stroke="midnightblue" points="351.721,-426.763 350.904,-437.326 358.13,-429.578 351.721,-426.763"/>
</g>
<!-- Node18 -->
<g id="node18" class="node"><title>Node18</title>
<g id="a_node18"><a xlink:href="classhandler_1_1ReverseText.html" target="_top" xlink:title="Turns ASCII characters upside&#45;down. ">
<polygon fill="none" stroke="black" points="445,-247.5 445,-266.5 555,-266.5 555,-247.5 445,-247.5"/>
<text text-anchor="middle" x="500" y="-254.5" font-family="Helvetica,sans-Serif" font-size="10.00">handler::ReverseText</text>
</a>
</g>
</g>
<!-- Node1&#45;&gt;Node18 -->
<g id="edge17" class="edge"><title>Node1&#45;&gt;Node18</title>
<path fill="none" stroke="midnightblue" d="M352.152,-427.113C362.393,-391.522 388.694,-316.848 438,-276 442.698,-272.108 448.193,-269.011 453.925,-266.548"/>
<polygon fill="midnightblue" stroke="midnightblue" points="348.654,-426.633 349.382,-437.203 355.404,-428.486 348.654,-426.633"/>
</g>
<!-- Node19 -->
<g id="node19" class="node"><title>Node19</title>
<g id="a_node19"><a xlink:href="classhandler_1_1ServerHost.html" target="_top" xlink:title="Shows the server the bot is connected to. ">
<polygon fill="none" stroke="black" points="448,-209.5 448,-228.5 552,-228.5 552,-209.5 448,-209.5"/>
<text text-anchor="middle" x="500" y="-216.5" font-family="Helvetica,sans-Serif" font-size="10.00">handler::ServerHost</text>
</a>
</g>
</g>
<!-- Node1&#45;&gt;Node19 -->
<g id="edge18" class="edge"><title>Node1&#45;&gt;Node19</title>
<path fill="none" stroke="midnightblue" d="M349.975,-427.382C357.258,-386.183 379.83,-290.167 438,-238 442.294,-234.149 447.36,-231.079 452.708,-228.631"/>
<polygon fill="midnightblue" stroke="midnightblue" points="346.486,-427.03 348.31,-437.467 353.393,-428.171 346.486,-427.03"/>
</g>
<!-- Node20 -->
<g id="node20" class="node"><title>Node20</title>
<g id="a_node20"><a xlink:href="classhandler_1_1SimpleGroup.html" target="_top" xlink:title="A simple group of actions which share settings. ">
<polygon fill="none" stroke="black" points="445,-171.5 445,-190.5 555,-190.5 555,-171.5 445,-171.5"/>
<text text-anchor="middle" x="500" y="-178.5" font-family="Helvetica,sans-Serif" font-size="10.00">handler::SimpleGroup</text>
</a>
</g>
</g>
<!-- Node1&#45;&gt;Node20 -->
<g id="edge19" class="edge"><title>Node1&#45;&gt;Node20</title>
<path fill="none" stroke="midnightblue" d="M348.514,-427.078C353.129,-380.487 371.117,-263.554 438,-200 442.101,-196.103 446.989,-193.005 452.187,-190.542"/>
<polygon fill="midnightblue" stroke="midnightblue" points="345.001,-427.063 347.607,-437.333 351.974,-427.68 345.001,-427.063"/>
</g>
<!-- Node23 -->
<g id="node23" class="node"><title>Node23</title>
<g id="a_node23"><a xlink:href="classhandler_1_1SimpleWebApi.html" target="_top" xlink:title="Simple base class for handlers calling web resources. ">
<polygon fill="none" stroke="black" points="440.5,-133.5 440.5,-152.5 559.5,-152.5 559.5,-133.5 440.5,-133.5"/>
<text text-anchor="middle" x="500" y="-140.5" font-family="Helvetica,sans-Serif" font-size="10.00">handler::SimpleWebApi</text>
</a>
</g>
</g>
<!-- Node1&#45;&gt;Node23 -->
<g id="edge22" class="edge"><title>Node1&#45;&gt;Node23</title>
<path fill="none" stroke="midnightblue" d="M347.371,-427.203C349.426,-375.893 362.101,-237.361 438,-162 441.936,-158.092 446.661,-154.986 451.717,-152.518"/>
<polygon fill="midnightblue" stroke="midnightblue" points="343.87,-427.182 347.065,-437.283 350.867,-427.395 343.87,-427.182"/>
</g>
<!-- Node30 -->
<g id="node30" class="node"><title>Node30</title>
<g id="a_node30"><a xlink:href="classhandler_1_1WhoisCheckMe.html" target="_top" xlink:title="Sends a WHOIS about the message sender. ">
<polygon fill="none" stroke="black" points="438,-95.5 438,-114.5 562,-114.5 562,-95.5 438,-95.5"/>
<text text-anchor="middle" x="500" y="-102.5" font-family="Helvetica,sans-Serif" font-size="10.00">handler::WhoisCheckMe</text>
</a>
</g>
</g>
<!-- Node1&#45;&gt;Node30 -->
<g id="edge29" class="edge"><title>Node1&#45;&gt;Node30</title>
<path fill="none" stroke="midnightblue" d="M346.488,-426.886C346.19,-370.806 353.225,-211.125 438,-124 441.79,-120.105 446.364,-117.004 451.284,-114.538"/>
<polygon fill="midnightblue" stroke="midnightblue" points="342.993,-427.268 346.637,-437.217 349.992,-427.167 342.993,-427.268"/>
</g>
<!-- Node2 -->
<g id="node2" class="node"><title>Node2</title>
<g id="a_node2"><a xlink:href="classhandler_1_1Handler.html" target="_top" xlink:title="Message handler abstract base class. ">
<polygon fill="none" stroke="black" points="166,-437.5 166,-456.5 254,-456.5 254,-437.5 166,-437.5"/>
<text text-anchor="middle" x="210" y="-444.5" font-family="Helvetica,sans-Serif" font-size="10.00">handler::Handler</text>
</a>
</g>
</g>
<!-- Node2&#45;&gt;Node1 -->
<g id="edge1" class="edge"><title>Node2&#45;&gt;Node1</title>
<path fill="none" stroke="midnightblue" d="M264.18,-447C272.568,-447 281.258,-447 289.693,-447"/>
<polygon fill="midnightblue" stroke="midnightblue" points="264.136,-443.5 254.136,-447 264.136,-450.5 264.136,-443.5"/>
</g>
<!-- Node3 -->
<g id="node3" class="node"><title>Node3</title>
<g id="a_node3"><a xlink:href="classhandler_1_1HandlerContainer.html" target="_top" xlink:title="Base class for classes which may contain handlers. ">
<polygon fill="none" stroke="black" points="0,-437.5 0,-456.5 130,-456.5 130,-437.5 0,-437.5"/>
<text text-anchor="middle" x="65" y="-444.5" font-family="Helvetica,sans-Serif" font-size="10.00">handler::HandlerContainer</text>
</a>
</g>
</g>
<!-- Node3&#45;&gt;Node2 -->
<g id="edge2" class="edge"><title>Node3&#45;&gt;Node2</title>
<path fill="none" stroke="midnightblue" d="M140.555,-447C149.218,-447 157.821,-447 165.854,-447"/>
<polygon fill="midnightblue" stroke="midnightblue" points="140.388,-443.5 130.388,-447 140.388,-450.5 140.388,-443.5"/>
</g>
<!-- Node21 -->
<g id="node21" class="node"><title>Node21</title>
<g id="a_node21"><a xlink:href="classhandler_1_1AbstractList.html" target="_top" xlink:title="Handles a list of elements (base class) ">
<polygon fill="none" stroke="black" points="598,-171.5 598,-190.5 705,-190.5 705,-171.5 598,-171.5"/>
<text text-anchor="middle" x="651.5" y="-178.5" font-family="Helvetica,sans-Serif" font-size="10.00">handler::AbstractList</text>
</a>
</g>
</g>
<!-- Node20&#45;&gt;Node21 -->
<g id="edge20" class="edge"><title>Node20&#45;&gt;Node21</title>
<path fill="none" stroke="midnightblue" d="M565.613,-181C576.393,-181 587.459,-181 597.892,-181"/>
<polygon fill="midnightblue" stroke="midnightblue" points="565.396,-177.5 555.396,-181 565.396,-184.5 565.396,-177.5"/>
</g>
<!-- Node22 -->
<g id="node22" class="node"><title>Node22</title>
<g id="a_node22"><a xlink:href="classhandler_1_1AdminGroup.html" target="_top" xlink:title="Manages a user group. ">
<polygon fill="none" stroke="black" points="760,-190.5 760,-209.5 868,-209.5 868,-190.5 760,-190.5"/>
<text text-anchor="middle" x="814" y="-197.5" font-family="Helvetica,sans-Serif" font-size="10.00">handler::AdminGroup</text>
</a>
</g>
</g>
<!-- Node21&#45;&gt;Node22 -->
<g id="edge21" class="edge"><title>Node21&#45;&gt;Node22</title>
<path fill="none" stroke="midnightblue" d="M715.114,-188.412C729.876,-190.16 745.476,-192.006 759.779,-193.7"/>
<polygon fill="midnightblue" stroke="midnightblue" points="715.396,-184.921 705.054,-187.221 714.573,-191.873 715.396,-184.921"/>
</g>
<!-- Node24 -->
<g id="node24" class="node"><title>Node24</title>
<g id="a_node24"><a xlink:href="classhandler_1_1SimpleJson.html" target="_top" xlink:title="Simple base class for handlers using AJAX web APIs. ">
<polygon fill="none" stroke="black" points="599,-95.5 599,-114.5 704,-114.5 704,-95.5 599,-95.5"/>
<text text-anchor="middle" x="651.5" y="-102.5" font-family="Helvetica,sans-Serif" font-size="10.00">handler::SimpleJson</text>
</a>
</g>
</g>
<!-- Node23&#45;&gt;Node24 -->
<g id="edge23" class="edge"><title>Node23&#45;&gt;Node24</title>
<path fill="none" stroke="midnightblue" d="M548.652,-130.888C569.473,-125.596 593.538,-119.479 613.046,-114.52"/>
<polygon fill="midnightblue" stroke="midnightblue" points="547.555,-127.555 538.725,-133.411 549.279,-134.34 547.555,-127.555"/>
</g>
<!-- Node25 -->
<g id="node25" class="node"><title>Node25</title>
<g id="a_node25"><a xlink:href="classhandler_1_1ChuckNorris.html" target="_top" xlink:title="Searches for a Chuck Norris joke. ">
<polygon fill="none" stroke="black" points="759.5,-152.5 759.5,-171.5 868.5,-171.5 868.5,-152.5 759.5,-152.5"/>
<text text-anchor="middle" x="814" y="-159.5" font-family="Helvetica,sans-Serif" font-size="10.00">handler::ChuckNorris</text>
</a>
</g>
</g>
<!-- Node24&#45;&gt;Node25 -->
<g id="edge24" class="edge"><title>Node24&#45;&gt;Node25</title>
<path fill="none" stroke="midnightblue" d="M681.949,-118.942C698.963,-126.667 720.913,-136.079 741,-143 751.145,-146.495 762.28,-149.721 772.697,-152.485"/>
<polygon fill="midnightblue" stroke="midnightblue" points="683.101,-115.619 672.553,-114.62 680.175,-121.979 683.101,-115.619"/>
</g>
<!-- Node26 -->
<g id="node26" class="node"><title>Node26</title>
<g id="a_node26"><a xlink:href="classhandler_1_1SearchImageGoogle.html" target="_top" xlink:title="Handler searching images with Google. ">
<polygon fill="none" stroke="black" points="742.5,-114.5 742.5,-133.5 885.5,-133.5 885.5,-114.5 742.5,-114.5"/>
<text text-anchor="middle" x="814" y="-121.5" font-family="Helvetica,sans-Serif" font-size="10.00">handler::SearchImageGoogle</text>
</a>
</g>
</g>
<!-- Node24&#45;&gt;Node26 -->
<g id="edge25" class="edge"><title>Node24&#45;&gt;Node26</title>
<path fill="none" stroke="midnightblue" d="M714.364,-112.323C723.548,-113.411 733.072,-114.538 742.418,-115.645"/>
<polygon fill="midnightblue" stroke="midnightblue" points="714.509,-108.816 704.167,-111.116 713.686,-115.768 714.509,-108.816"/>
</g>
<!-- Node27 -->
<g id="node27" class="node"><title>Node27</title>
<g id="a_node27"><a xlink:href="classhandler_1_1SearchVideoYoutube.html" target="_top" xlink:title="Handler searching a video on Youtube. ">
<polygon fill="none" stroke="black" points="741,-76.5 741,-95.5 887,-95.5 887,-76.5 741,-76.5"/>
<text text-anchor="middle" x="814" y="-83.5" font-family="Helvetica,sans-Serif" font-size="10.00">handler::SearchVideoYoutube</text>
</a>
</g>
</g>
<!-- Node24&#45;&gt;Node27 -->
<g id="edge26" class="edge"><title>Node24&#45;&gt;Node27</title>
<path fill="none" stroke="midnightblue" d="M714.259,-97.6889C723.001,-96.6541 732.052,-95.5827 740.966,-94.5274"/>
<polygon fill="midnightblue" stroke="midnightblue" points="713.686,-94.2323 704.167,-98.8837 714.509,-101.184 713.686,-94.2323"/>
</g>
<!-- Node28 -->
<g id="node28" class="node"><title>Node28</title>
<g id="a_node28"><a xlink:href="classhandler_1_1SearchWebSearx.html" target="_top" xlink:title="Handler searching a web page using Searx. ">
<polygon fill="none" stroke="black" points="748.5,-38.5 748.5,-57.5 879.5,-57.5 879.5,-38.5 748.5,-38.5"/>
<text text-anchor="middle" x="814" y="-45.5" font-family="Helvetica,sans-Serif" font-size="10.00">handler::SearchWebSearx</text>
</a>
</g>
</g>
<!-- Node24&#45;&gt;Node28 -->
<g id="edge27" class="edge"><title>Node24&#45;&gt;Node28</title>
<path fill="none" stroke="midnightblue" d="M681.949,-91.0581C698.963,-83.3327 720.913,-73.9207 741,-67 751.145,-63.5048 762.28,-60.2788 772.697,-57.5148"/>
<polygon fill="midnightblue" stroke="midnightblue" points="680.175,-88.0214 672.553,-95.3802 683.101,-94.3809 680.175,-88.0214"/>
</g>
<!-- Node29 -->
<g id="node29" class="node"><title>Node29</title>
<g id="a_node29"><a xlink:href="classhandler_1_1UrbanDictionary.html" target="_top" xlink:title="Handler searching a definition on Urban Dictionary. ">
<polygon fill="none" stroke="black" points="751.5,-0.5 751.5,-19.5 876.5,-19.5 876.5,-0.5 751.5,-0.5"/>
<text text-anchor="middle" x="814" y="-7.5" font-family="Helvetica,sans-Serif" font-size="10.00">handler::UrbanDictionary</text>
</a>
</g>
</g>
<!-- Node24&#45;&gt;Node29 -->
<g id="edge28" class="edge"><title>Node24&#45;&gt;Node29</title>
<path fill="none" stroke="midnightblue" d="M668.183,-87.5395C684.675,-70.2196 712.189,-44.1383 741,-29 748.324,-25.1516 756.487,-22.0399 764.61,-19.537"/>
<polygon fill="midnightblue" stroke="midnightblue" points="665.259,-85.5442 661.015,-95.2519 670.387,-90.3097 665.259,-85.5442"/>
</g>
</g>
</svg>
