<?xml version="1.0" encoding="UTF-8" standalone="no"?>
<!DOCTYPE svg PUBLIC "-//W3C//DTD SVG 1.1//EN"
 "http://www.w3.org/Graphics/SVG/1.1/DTD/svg11.dtd">
<!-- Generated by graphviz version 2.38.0 (20140413.2041)
 -->
<!-- Title: string::Formatter Pages: 1 -->
<svg width="391pt" height="140pt"
 viewBox="0.00 0.00 391.00 140.00" xmlns="http://www.w3.org/2000/svg" xmlns:xlink="http://www.w3.org/1999/xlink">
<g id="graph0" class="graph" transform="scale(1 1) rotate(0) translate(4 136)">
<title>string::Formatter</title>
<!-- Node1 -->
<g id="node1" class="node"><title>Node1</title>
<polygon fill="#bfbfbf" stroke="black" points="94.5,-112.5 94.5,-131.5 183.5,-131.5 183.5,-112.5 94.5,-112.5"/>
<text text-anchor="middle" x="139" y="-119.5" font-family="Helvetica,sans-Serif" font-size="10.00">string::Formatter</text>
</g>
<!-- Node2 -->
<g id="node2" class="node"><title>Node2</title>
<g id="a_node2"><a xlink:href="classstring_1_1FormatterDarkplaces.html" target="_top" xlink:title="Darkplaces UTF&#45;8. ">
<polygon fill="none" stroke="black" points="0,-56.5 0,-75.5 138,-75.5 138,-56.5 0,-56.5"/>
<text text-anchor="middle" x="69" y="-63.5" font-family="Helvetica,sans-Serif" font-size="10.00">string::FormatterDarkplaces</text>
</a>
</g>
</g>
<!-- Node1&#45;&gt;Node2 -->
<g id="edge1" class="edge"><title>Node1&#45;&gt;Node2</title>
<path fill="none" stroke="midnightblue" d="M119.686,-106.101C107.088,-96.3824 91.0719,-84.0269 80.4513,-75.8339"/>
<polygon fill="midnightblue" stroke="midnightblue" points="117.698,-108.987 127.753,-112.324 121.973,-103.445 117.698,-108.987"/>
</g>
<!-- Node3 -->
<g id="node3" class="node"><title>Node3</title>
<g id="a_node3"><a xlink:href="classstring_1_1FormatterUtf8.html" target="_top" xlink:title="Plain UTF&#45;8. ">
<polygon fill="none" stroke="black" points="156.5,-56.5 156.5,-75.5 263.5,-75.5 263.5,-56.5 156.5,-56.5"/>
<text text-anchor="middle" x="210" y="-63.5" font-family="Helvetica,sans-Serif" font-size="10.00">string::FormatterUtf8</text>
</a>
</g>
</g>
<!-- Node1&#45;&gt;Node3 -->
<g id="edge2" class="edge"><title>Node1&#45;&gt;Node3</title>
<path fill="none" stroke="midnightblue" d="M158.59,-106.101C171.368,-96.3824 187.613,-84.0269 198.385,-75.8339"/>
<polygon fill="midnightblue" stroke="midnightblue" points="156.248,-103.484 150.407,-112.324 160.486,-109.056 156.248,-103.484"/>
</g>
<!-- Node4 -->
<g id="node4" class="node"><title>Node4</title>
<g id="a_node4"><a xlink:href="classstring_1_1FormatterAnsi.html" target="_top" xlink:title="ANSI&#45;formatted UTF&#45;8 or ASCII. ">
<polygon fill="none" stroke="black" points="29,-0.5 29,-19.5 137,-19.5 137,-0.5 29,-0.5"/>
<text text-anchor="middle" x="83" y="-7.5" font-family="Helvetica,sans-Serif" font-size="10.00">string::FormatterAnsi</text>
</a>
</g>
</g>
<!-- Node3&#45;&gt;Node4 -->
<g id="edge3" class="edge"><title>Node3&#45;&gt;Node4</title>
<path fill="none" stroke="midnightblue" d="M180.609,-52.503C156.8,-42.3795 123.894,-28.388 103.029,-19.5164"/>
<polygon fill="midnightblue" stroke="midnightblue" points="179.304,-55.7515 189.876,-56.4435 182.043,-49.3096 179.304,-55.7515"/>
</g>
<!-- Node5 -->
<g id="node5" class="node"><title>Node5</title>
<g id="a_node5"><a xlink:href="classstring_1_1FormatterAscii.html" target="_top" xlink:title="Plain ASCII. ">
<polygon fill="none" stroke="black" points="155,-0.5 155,-19.5 265,-19.5 265,-0.5 155,-0.5"/>
<text text-anchor="middle" x="210" y="-7.5" font-family="Helvetica,sans-Serif" font-size="10.00">string::FormatterAscii</text>
</a>
</g>
</g>
<!-- Node3&#45;&gt;Node5 -->
<g id="edge4" class="edge"><title>Node3&#45;&gt;Node5</title>
<path fill="none" stroke="midnightblue" d="M210,-45.8045C210,-36.9102 210,-26.7798 210,-19.7511"/>
<polygon fill="midnightblue" stroke="midnightblue" points="206.5,-46.083 210,-56.083 213.5,-46.083 206.5,-46.083"/>
</g>
<!-- Node6 -->
<g id="node6" class="node"><title>Node6</title>
<g id="a_node6"><a xlink:href="classstring_1_1FormatterIrc.html" target="_top" xlink:title="UTF&#45;8 with IRC colors. ">
<polygon fill="none" stroke="black" points="283,-0.5 283,-19.5 383,-19.5 383,-0.5 283,-0.5"/>
<text text-anchor="middle" x="333" y="-7.5" font-family="Helvetica,sans-Serif" font-size="10.00">string::FormatterIrc</text>
</a>
</g>
</g>
<!-- Node3&#45;&gt;Node6 -->
<g id="edge5" class="edge"><title>Node3&#45;&gt;Node6</title>
<path fill="none" stroke="midnightblue" d="M238.773,-52.3678C261.807,-42.2553 293.484,-28.3486 313.601,-19.5164"/>
<polygon fill="midnightblue" stroke="midnightblue" points="237.239,-49.2188 229.49,-56.4435 240.053,-55.6283 237.239,-49.2188"/>
</g>
</g>
</svg>
