<?xml version="1.0" encoding="UTF-8" standalone="no"?>
<!DOCTYPE svg PUBLIC "-//W3C//DTD SVG 1.1//EN"
 "http://www.w3.org/Graphics/SVG/1.1/DTD/svg11.dtd">
<!-- Generated by graphviz version 2.38.0 (20140413.2041)
 -->
<!-- Title: handler::SimpleJson Pages: 1 -->
<svg width="294pt" height="423pt"
 viewBox="0.00 0.00 293.50 423.00" xmlns="http://www.w3.org/2000/svg" xmlns:xlink="http://www.w3.org/1999/xlink">
<g id="graph0" class="graph" transform="scale(1 1) rotate(0) translate(4 419)">
<title>handler::SimpleJson</title>
<!-- Node1 -->
<g id="node1" class="node"><title>Node1</title>
<polygon fill="#bfbfbf" stroke="black" points="35.5,-0.5 35.5,-19.5 140.5,-19.5 140.5,-0.5 35.5,-0.5"/>
<text text-anchor="middle" x="88" y="-7.5" font-family="Helvetica,sans-Serif" font-size="10.00">handler::SimpleJson</text>
</g>
<!-- Node2 -->
<g id="node2" class="node"><title>Node2</title>
<g id="a_node2"><a xlink:href="classhandler_1_1SimpleWebApi.html" target="_top" xlink:title="Simple base class for handlers calling web resources. ">
<polygon fill="none" stroke="black" points="28.5,-57.5 28.5,-76.5 147.5,-76.5 147.5,-57.5 28.5,-57.5"/>
<text text-anchor="middle" x="88" y="-64.5" font-family="Helvetica,sans-Serif" font-size="10.00">handler::SimpleWebApi</text>
</a>
</g>
</g>
<!-- Node2&#45;&gt;Node1 -->
<g id="edge1" class="edge"><title>Node2&#45;&gt;Node1</title>
<path fill="none" stroke="midnightblue" d="M88,-47.1166C88,-37.8173 88,-27.0557 88,-19.7149"/>
<polygon fill="midnightblue" stroke="midnightblue" points="84.5001,-47.4062 88,-57.4062 91.5001,-47.4063 84.5001,-47.4062"/>
</g>
<!-- Node3 -->
<g id="node3" class="node"><title>Node3</title>
<g id="a_node3"><a xlink:href="classhandler_1_1SimpleAction.html" target="_top" xlink:title="A simple action sends a message to the same connection it came from. ">
<polygon fill="none" stroke="black" points="32,-114.5 32,-133.5 144,-133.5 144,-114.5 32,-114.5"/>
<text text-anchor="middle" x="88" y="-121.5" font-family="Helvetica,sans-Serif" font-size="10.00">handler::SimpleAction</text>
</a>
</g>
</g>
<!-- Node3&#45;&gt;Node2 -->
<g id="edge2" class="edge"><title>Node3&#45;&gt;Node2</title>
<path fill="none" stroke="midnightblue" d="M88,-104.117C88,-94.8173 88,-84.0557 88,-76.7149"/>
<polygon fill="midnightblue" stroke="midnightblue" points="84.5001,-104.406 88,-114.406 91.5001,-104.406 84.5001,-104.406"/>
</g>
<!-- Node4 -->
<g id="node4" class="node"><title>Node4</title>
<g id="a_node4"><a xlink:href="classhandler_1_1Handler.html" target="_top" xlink:title="Message handler abstract base class. ">
<polygon fill="none" stroke="black" points="44,-171.5 44,-190.5 132,-190.5 132,-171.5 44,-171.5"/>
<text text-anchor="middle" x="88" y="-178.5" font-family="Helvetica,sans-Serif" font-size="10.00">handler::Handler</text>
</a>
</g>
</g>
<!-- Node4&#45;&gt;Node3 -->
<g id="edge3" class="edge"><title>Node4&#45;&gt;Node3</title>
<path fill="none" stroke="midnightblue" d="M88,-161.117C88,-151.817 88,-141.056 88,-133.715"/>
<polygon fill="midnightblue" stroke="midnightblue" points="84.5001,-161.406 88,-171.406 91.5001,-161.406 84.5001,-161.406"/>
</g>
<!-- Node4&#45;&gt;Node4 -->
<g id="edge9" class="edge"><title>Node4&#45;&gt;Node4</title>
<path fill="none" stroke="#9a32cd" stroke-dasharray="5,2" d="M142.258,-185.125C147.019,-184.255 150,-182.88 150,-181 150,-177.992 142.369,-176.277 132.024,-175.854"/>
<polygon fill="#9a32cd" stroke="#9a32cd" points="141.627,-181.671 132.024,-186.146 142.323,-188.636 141.627,-181.671"/>
<text text-anchor="middle" x="183.5" y="-178.5" font-family="Helvetica,sans-Serif" font-size="10.00"> parent_handler</text>
</g>
<!-- Node5 -->
<g id="node5" class="node"><title>Node5</title>
<g id="a_node5"><a xlink:href="classhandler_1_1HandlerContainer.html" target="_top" xlink:title="Base class for classes which may contain handlers. ">
<polygon fill="none" stroke="black" points="0,-311 0,-330 130,-330 130,-311 0,-311"/>
<text text-anchor="middle" x="65" y="-318" font-family="Helvetica,sans-Serif" font-size="10.00">handler::HandlerContainer</text>
</a>
</g>
</g>
<!-- Node5&#45;&gt;Node4 -->
<g id="edge4" class="edge"><title>Node5&#45;&gt;Node4</title>
<path fill="none" stroke="midnightblue" d="M68.1177,-300.862C73.1577,-270.731 82.8998,-212.49 86.5618,-190.598"/>
<polygon fill="midnightblue" stroke="midnightblue" points="64.6366,-300.458 66.4388,-310.899 71.5407,-301.613 64.6366,-300.458"/>
</g>
<!-- Node6 -->
<g id="node6" class="node"><title>Node6</title>
<g id="a_node6"><a xlink:href="classMelanobot.html" target="_top" xlink:title="Main bot class. ">
<polygon fill="none" stroke="black" points="93,-238.5 93,-257.5 155,-257.5 155,-238.5 93,-238.5"/>
<text text-anchor="middle" x="124" y="-245.5" font-family="Helvetica,sans-Serif" font-size="10.00">Melanobot</text>
</a>
</g>
</g>
<!-- Node5&#45;&gt;Node6 -->
<g id="edge6" class="edge"><title>Node5&#45;&gt;Node6</title>
<path fill="none" stroke="midnightblue" d="M78.8946,-302.897C90.7398,-288.743 107.299,-268.957 116.706,-257.715"/>
<polygon fill="midnightblue" stroke="midnightblue" points="75.9684,-300.94 72.2346,-310.855 81.3366,-305.433 75.9684,-300.94"/>
</g>
<!-- Node6&#45;&gt;Node4 -->
<g id="edge5" class="edge"><title>Node6&#45;&gt;Node4</title>
<path fill="none" stroke="#9a32cd" stroke-dasharray="5,2" d="M114.121,-229.163C107.179,-216.628 98.1965,-200.41 92.7782,-190.627"/>
<polygon fill="#9a32cd" stroke="#9a32cd" points="111.238,-231.182 119.145,-238.234 117.362,-227.79 111.238,-231.182"/>
<text text-anchor="middle" x="117.5" y="-212" font-family="Helvetica,sans-Serif" font-size="10.00"> bot</text>
</g>
<!-- Node7 -->
<g id="node7" class="node"><title>Node7</title>
<g id="a_node7"><a xlink:href="classConcurrentQueue.html" target="_top" xlink:title="ConcurrentQueue\&lt; network\l::Message \&gt;">
<polygon fill="none" stroke="black" points="148.5,-305.5 148.5,-335.5 285.5,-335.5 285.5,-305.5 148.5,-305.5"/>
<text text-anchor="start" x="156.5" y="-323.5" font-family="Helvetica,sans-Serif" font-size="10.00">ConcurrentQueue&lt; network</text>
<text text-anchor="middle" x="217" y="-312.5" font-family="Helvetica,sans-Serif" font-size="10.00">::Message &gt;</text>
</a>
</g>
</g>
<!-- Node7&#45;&gt;Node6 -->
<g id="edge7" class="edge"><title>Node7&#45;&gt;Node6</title>
<path fill="none" stroke="#9a32cd" stroke-dasharray="5,2" d="M189.753,-298.845C171.69,-285.152 148.921,-267.891 135.465,-257.691"/>
<polygon fill="#9a32cd" stroke="#9a32cd" points="188.097,-301.981 198.18,-305.233 192.325,-296.403 188.097,-301.981"/>
<text text-anchor="middle" x="197.5" y="-279" font-family="Helvetica,sans-Serif" font-size="10.00"> messages</text>
</g>
<!-- Node8 -->
<g id="node8" class="node"><title>Node8</title>
<g id="a_node8"><a xlink:href="classConcurrentContainer.html" target="_top" xlink:title="ConcurrentContainer\l\&lt; std::queue\&lt; network\l::Message, Container \&gt; \&gt;">
<polygon fill="none" stroke="black" points="153,-373.5 153,-414.5 281,-414.5 281,-373.5 153,-373.5"/>
<text text-anchor="start" x="161" y="-402.5" font-family="Helvetica,sans-Serif" font-size="10.00">ConcurrentContainer</text>
<text text-anchor="start" x="161" y="-391.5" font-family="Helvetica,sans-Serif" font-size="10.00">&lt; std::queue&lt; network</text>
<text text-anchor="middle" x="217" y="-380.5" font-family="Helvetica,sans-Serif" font-size="10.00">::Message, Container &gt; &gt;</text>
</a>
</g>
</g>
<!-- Node8&#45;&gt;Node7 -->
<g id="edge8" class="edge"><title>Node8&#45;&gt;Node7</title>
<path fill="none" stroke="midnightblue" d="M217,-363.158C217,-353.687 217,-343.647 217,-335.797"/>
<polygon fill="midnightblue" stroke="midnightblue" points="213.5,-363.462 217,-373.462 220.5,-363.462 213.5,-363.462"/>
</g>
</g>
</svg>
