<?xml version="1.0" encoding="UTF-8" standalone="no"?>
<!DOCTYPE svg PUBLIC "-//W3C//DTD SVG 1.1//EN"
 "http://www.w3.org/Graphics/SVG/1.1/DTD/svg11.dtd">
<!-- Generated by graphviz version 2.38.0 (20140413.2041)
 -->
<!-- Title: handler::HandlerContainer Pages: 1 -->
<!--zoomable 997 -->
<svg id="main" version="1.1" xmlns="http://www.w3.org/2000/svg" xmlns:xlink="http://www.w3.org/1999/xlink" xml:space="preserve" onload="init(evt)">
<style type="text/css"><![CDATA[
.edge:hover path { stroke: red; }
.edge:hover polygon { stroke: red; fill: red; }
]]></style>
<script type="text/javascript"><![CDATA[
var edges = document.getElementsByTagName('g');
if (edges && edges.length) {
  for (var i=0;i<edges.length;i++) {
    if (edges[i].id.substr(0,4)=='edge') {
      edges[i].setAttribute('class','edge');
    }
  }
}
]]></script>
        <defs>
                <circle id="rim" cx="0" cy="0" r="7"/>
                <circle id="rim2" cx="0" cy="0" r="3.5"/>
                <g id="zoomPlus">
                        <use xlink:href="#rim" fill="#404040">
                                <set attributeName="fill" to="#808080" begin="zoomplus.mouseover" end="zoomplus.mouseout"/>
                        </use>
                        <path d="M-4,0h8M0,-4v8" fill="none" stroke="white" stroke-width="1.5" pointer-events="none"/>
                </g>
                <g id="zoomMin">
                        <use xlink:href="#rim" fill="#404040">
                                <set attributeName="fill" to="#808080" begin="zoomminus.mouseover" end="zoomminus.mouseout"/>
                        </use>
                        <path d="M-4,0h8" fill="none" stroke="white" stroke-width="1.5" pointer-events="none"/>
                </g>
                <g id="dirArrow">
                        <path fill="none" stroke="white" stroke-width="1.5" d="M0,-3.0v7 M-2.5,-0.5L0,-3.0L2.5,-0.5"/>
                </g>
               <g id="resetDef">
                       <use xlink:href="#rim2" fill="#404040">
                               <set attributeName="fill" to="#808080" begin="reset.mouseover" end="reset.mouseout"/>
                       </use>
               </g>
        </defs>

<script type="text/javascript">
var viewWidth = 916;
var viewHeight = 997;
var sectionId = 'dynsection-0';
</script>
<script xlink:href="svgpan.js"/>
<svg id="graph" class="graph">
<g id="viewport">
<title>handler::HandlerContainer</title>
<!-- Node1 -->
<g id="node1" class="node"><title>Node1</title>
<polygon fill="#bfbfbf" stroke="black" points="0,-703.5 0,-722.5 130,-722.5 130,-703.5 0,-703.5"/>
<text text-anchor="middle" x="65" y="-710.5" font-family="Helvetica,sans-Serif" font-size="10.00">handler::HandlerContainer</text>
</g>
<!-- Node2 -->
<g id="node2" class="node"><title>Node2</title>
<g id="a_node2"><a xlink:href="classhandler_1_1Handler.html" target="_top" xlink:title="Message handler abstract base class. ">
<polygon fill="none" stroke="black" points="166,-722.5 166,-741.5 254,-741.5 254,-722.5 166,-722.5"/>
<text text-anchor="middle" x="210" y="-729.5" font-family="Helvetica,sans-Serif" font-size="10.00">handler::Handler</text>
</a>
</g>
</g>
<!-- Node1&#45;&gt;Node2 -->
<g id="edge1" class="edge"><title>Node1&#45;&gt;Node2</title>
<path fill="none" stroke="midnightblue" d="M140.555,-722.906C149.218,-724.057 157.821,-725.2 165.854,-726.267"/>
<polygon fill="midnightblue" stroke="midnightblue" points="140.762,-719.403 130.388,-721.555 139.84,-726.342 140.762,-719.403"/>
</g>
<!-- Node49 -->
<g id="node49" class="node"><title>Node49</title>
<g id="a_node49"><a xlink:href="classMelanobot.html" target="_top" xlink:title="Main bot class. ">
<polygon fill="none" stroke="black" points="179,-684.5 179,-703.5 241,-703.5 241,-684.5 179,-684.5"/>
<text text-anchor="middle" x="210" y="-691.5" font-family="Helvetica,sans-Serif" font-size="10.00">Melanobot</text>
</a>
</g>
</g>
<!-- Node1&#45;&gt;Node49 -->
<g id="edge48" class="edge"><title>Node1&#45;&gt;Node49</title>
<path fill="none" stroke="midnightblue" d="M140.325,-703.125C153.977,-701.311 167.491,-699.515 178.873,-698.003"/>
<polygon fill="midnightblue" stroke="midnightblue" points="139.84,-699.658 130.388,-704.445 140.762,-706.597 139.84,-699.658"/>
</g>
<!-- Node3 -->
<g id="node3" class="node"><title>Node3</title>
<g id="a_node3"><a xlink:href="classhandler_1_1AcceptInvite.html" target="_top" xlink:title="Makes the bot join channels (IRC) ">
<polygon fill="none" stroke="black" points="301,-969.5 301,-988.5 410,-988.5 410,-969.5 301,-969.5"/>
<text text-anchor="middle" x="355.5" y="-976.5" font-family="Helvetica,sans-Serif" font-size="10.00">handler::AcceptInvite</text>
</a>
</g>
</g>
<!-- Node2&#45;&gt;Node3 -->
<g id="edge2" class="edge"><title>Node2&#45;&gt;Node3</title>
<path fill="none" stroke="midnightblue" d="M212.003,-751.904C215.313,-795.939 229.492,-902.275 290,-960 294.054,-963.868 298.856,-966.953 303.982,-969.414"/>
<polygon fill="midnightblue" stroke="midnightblue" points="215.494,-751.649 211.362,-741.893 208.508,-752.097 215.494,-751.649"/>
</g>
<!-- Node4 -->
<g id="node4" class="node"><title>Node4</title>
<g id="a_node4"><a xlink:href="classhandler_1_1AnswerQuestions.html" target="_top" xlink:title="Answers direct questions. ">
<polygon fill="none" stroke="black" points="290,-931.5 290,-950.5 421,-950.5 421,-931.5 290,-931.5"/>
<text text-anchor="middle" x="355.5" y="-938.5" font-family="Helvetica,sans-Serif" font-size="10.00">handler::AnswerQuestions</text>
</a>
</g>
</g>
<!-- Node2&#45;&gt;Node4 -->
<g id="edge3" class="edge"><title>Node2&#45;&gt;Node4</title>
<path fill="none" stroke="midnightblue" d="M213.588,-751.925C219.665,-790.515 238.447,-875.715 290,-922 294.343,-925.899 299.45,-929 304.857,-931.466"/>
<polygon fill="midnightblue" stroke="midnightblue" points="216.982,-750.937 212.088,-741.54 210.054,-751.938 216.982,-750.937"/>
</g>
<!-- Node5 -->
<g id="node5" class="node"><title>Node5</title>
<g id="a_node5"><a xlink:href="classhandler_1_1BridgeChat.html" target="_top" xlink:title="Simply echoes chat messages (to be used in a Bridge group) ">
<polygon fill="none" stroke="black" points="304,-893.5 304,-912.5 407,-912.5 407,-893.5 304,-893.5"/>
<text text-anchor="middle" x="355.5" y="-900.5" font-family="Helvetica,sans-Serif" font-size="10.00">handler::BridgeChat</text>
</a>
</g>
</g>
<!-- Node2&#45;&gt;Node5 -->
<g id="edge4" class="edge"><title>Node2&#45;&gt;Node5</title>
<path fill="none" stroke="midnightblue" d="M215.903,-751.958C224.93,-784.485 247.287,-848.821 290,-884 294.686,-887.859 300.129,-890.935 305.829,-893.385"/>
<polygon fill="midnightblue" stroke="midnightblue" points="219.181,-750.661 213.254,-741.88 212.411,-752.441 219.181,-750.661"/>
</g>
<!-- Node6 -->
<g id="node6" class="node"><title>Node6</title>
<g id="a_node6"><a xlink:href="classhandler_1_1Chanhax.html" target="_top" xlink:title="Makes the bot reconnect. ">
<polygon fill="none" stroke="black" points="309,-855.5 309,-874.5 402,-874.5 402,-855.5 309,-855.5"/>
<text text-anchor="middle" x="355.5" y="-862.5" font-family="Helvetica,sans-Serif" font-size="10.00">handler::Chanhax</text>
</a>
</g>
</g>
<!-- Node2&#45;&gt;Node6 -->
<g id="edge5" class="edge"><title>Node2&#45;&gt;Node6</title>
<path fill="none" stroke="midnightblue" d="M219.125,-750.884C231.006,-776.271 255.518,-821.089 290,-846 295.678,-850.102 302.237,-853.324 308.953,-855.855"/>
<polygon fill="midnightblue" stroke="midnightblue" points="222.24,-749.278 214.94,-741.6 215.859,-752.155 222.24,-749.278"/>
</g>
<!-- Node7 -->
<g id="node7" class="node"><title>Node7</title>
<g id="a_node7"><a xlink:href="classhandler_1_1CtcpBase.html" target="_top" xlink:title="Base class for handling CTCP requests. ">
<polygon fill="none" stroke="black" points="306.5,-817.5 306.5,-836.5 404.5,-836.5 404.5,-817.5 306.5,-817.5"/>
<text text-anchor="middle" x="355.5" y="-824.5" font-family="Helvetica,sans-Serif" font-size="10.00">handler::CtcpBase</text>
</a>
</g>
</g>
<!-- Node2&#45;&gt;Node7 -->
<g id="edge6" class="edge"><title>Node2&#45;&gt;Node7</title>
<path fill="none" stroke="midnightblue" d="M225.095,-749.84C239.623,-767.086 263.794,-792.777 290,-808 296.561,-811.811 303.949,-814.912 311.32,-817.418"/>
<polygon fill="midnightblue" stroke="midnightblue" points="227.462,-747.207 218.417,-741.691 222.048,-751.644 227.462,-747.207"/>
</g>
<!-- Node14 -->
<g id="node14" class="node"><title>Node14</title>
<g id="a_node14"><a xlink:href="classhandler_1_1FilterGroup.html" target="_top" xlink:title="Discards messages coming from certain users. ">
<polygon fill="none" stroke="black" points="304.5,-779.5 304.5,-798.5 406.5,-798.5 406.5,-779.5 304.5,-779.5"/>
<text text-anchor="middle" x="355.5" y="-786.5" font-family="Helvetica,sans-Serif" font-size="10.00">handler::FilterGroup</text>
</a>
</g>
</g>
<!-- Node2&#45;&gt;Node14 -->
<g id="edge13" class="edge"><title>Node2&#45;&gt;Node14</title>
<path fill="none" stroke="midnightblue" d="M238.054,-746.357C253.09,-753.993 272.29,-763.184 290,-770 299.042,-773.48 309.002,-776.701 318.332,-779.465"/>
<polygon fill="midnightblue" stroke="midnightblue" points="239.324,-743.074 228.831,-741.605 236.117,-749.297 239.324,-743.074"/>
</g>
<!-- Node15 -->
<g id="node15" class="node"><title>Node15</title>
<g id="a_node15"><a xlink:href="classhandler_1_1IrcJoinMessage.html" target="_top" xlink:title="Prints a message when a user joins a channel. ">
<polygon fill="none" stroke="black" points="294,-741.5 294,-760.5 417,-760.5 417,-741.5 294,-741.5"/>
<text text-anchor="middle" x="355.5" y="-748.5" font-family="Helvetica,sans-Serif" font-size="10.00">handler::IrcJoinMessage</text>
</a>
</g>
</g>
<!-- Node2&#45;&gt;Node15 -->
<g id="edge14" class="edge"><title>Node2&#45;&gt;Node15</title>
<path fill="none" stroke="midnightblue" d="M264.007,-739.018C273.761,-740.31 284.012,-741.667 293.968,-742.985"/>
<polygon fill="midnightblue" stroke="midnightblue" points="264.428,-735.544 254.055,-737.701 263.509,-742.483 264.428,-735.544"/>
</g>
<!-- Node16 -->
<g id="node16" class="node"><title>Node16</title>
<g id="a_node16"><a xlink:href="classhandler_1_1IrcKickMessage.html" target="_top" xlink:title="Prints a message when a user is kicked from a channel. ">
<polygon fill="none" stroke="black" points="293,-703.5 293,-722.5 418,-722.5 418,-703.5 293,-703.5"/>
<text text-anchor="middle" x="355.5" y="-710.5" font-family="Helvetica,sans-Serif" font-size="10.00">handler::IrcKickMessage</text>
</a>
</g>
</g>
<!-- Node2&#45;&gt;Node16 -->
<g id="edge15" class="edge"><title>Node2&#45;&gt;Node16</title>
<path fill="none" stroke="midnightblue" d="M264.039,-724.977C273.438,-723.733 283.297,-722.428 292.908,-721.155"/>
<polygon fill="midnightblue" stroke="midnightblue" points="263.509,-721.517 254.055,-726.299 264.428,-728.456 263.509,-721.517"/>
</g>
<!-- Node17 -->
<g id="node17" class="node"><title>Node17</title>
<g id="a_node17"><a xlink:href="classhandler_1_1IrcKickRejoin.html" target="_top" xlink:title="Joins again once kicked. ">
<polygon fill="none" stroke="black" points="299,-665.5 299,-684.5 412,-684.5 412,-665.5 299,-665.5"/>
<text text-anchor="middle" x="355.5" y="-672.5" font-family="Helvetica,sans-Serif" font-size="10.00">handler::IrcKickRejoin</text>
</a>
</g>
</g>
<!-- Node2&#45;&gt;Node17 -->
<g id="edge16" class="edge"><title>Node2&#45;&gt;Node17</title>
<path fill="none" stroke="midnightblue" d="M242.766,-718.263C246.57,-716.53 250.384,-714.75 254,-713 270.284,-705.117 273.24,-700.812 290,-694 298.76,-690.44 308.434,-687.23 317.566,-684.506"/>
<polygon fill="midnightblue" stroke="midnightblue" points="241.151,-715.151 233.453,-722.431 244.01,-721.54 241.151,-715.151"/>
</g>
<!-- Node18 -->
<g id="node18" class="node"><title>Node18</title>
<g id="a_node18"><a xlink:href="classhandler_1_1QGetWhois.html" target="_top" xlink:title="Parses responses from Q WHOIS and USER (IRC) ">
<polygon fill="none" stroke="black" points="303,-627.5 303,-646.5 408,-646.5 408,-627.5 303,-627.5"/>
<text text-anchor="middle" x="355.5" y="-634.5" font-family="Helvetica,sans-Serif" font-size="10.00">handler::QGetWhois</text>
</a>
</g>
</g>
<!-- Node2&#45;&gt;Node18 -->
<g id="edge17" class="edge"><title>Node2&#45;&gt;Node18</title>
<path fill="none" stroke="midnightblue" d="M248.36,-717.245C250.345,-715.93 252.243,-714.516 254,-713 276.688,-693.429 266.092,-674.061 290,-656 295.123,-652.13 301.022,-649.046 307.127,-646.588"/>
<polygon fill="midnightblue" stroke="midnightblue" points="246.241,-714.423 239.262,-722.395 249.689,-720.515 246.241,-714.423"/>
</g>
<!-- Node19 -->
<g id="node19" class="node"><title>Node19</title>
<g id="a_node19"><a xlink:href="classhandler_1_1QSendWhois.html" target="_top" xlink:title="Asks Q for WHOIS or USERS information when a user joins a channel (IRC) ">
<polygon fill="none" stroke="black" points="299.5,-589.5 299.5,-608.5 411.5,-608.5 411.5,-589.5 299.5,-589.5"/>
<text text-anchor="middle" x="355.5" y="-596.5" font-family="Helvetica,sans-Serif" font-size="10.00">handler::QSendWhois</text>
</a>
</g>
</g>
<!-- Node2&#45;&gt;Node19 -->
<g id="edge18" class="edge"><title>Node2&#45;&gt;Node19</title>
<path fill="none" stroke="midnightblue" d="M250.006,-716.664C251.425,-715.523 252.765,-714.303 254,-713 285.056,-680.225 256.886,-648.695 290,-618 294.195,-614.111 299.147,-611.015 304.413,-608.551"/>
<polygon fill="midnightblue" stroke="midnightblue" points="247.701,-713.987 241.218,-722.367 251.512,-719.859 247.701,-713.987"/>
</g>
<!-- Node20 -->
<g id="node20" class="node"><title>Node20</title>
<g id="a_node20"><a xlink:href="classhandler_1_1Reply.html" target="_top" xlink:title="Fixed reply. ">
<polygon fill="none" stroke="black" points="315.5,-551.5 315.5,-570.5 395.5,-570.5 395.5,-551.5 315.5,-551.5"/>
<text text-anchor="middle" x="355.5" y="-558.5" font-family="Helvetica,sans-Serif" font-size="10.00">handler::Reply</text>
</a>
</g>
</g>
<!-- Node2&#45;&gt;Node20 -->
<g id="edge19" class="edge"><title>Node2&#45;&gt;Node20</title>
<path fill="none" stroke="midnightblue" d="M250.298,-716.7C251.624,-715.551 252.867,-714.32 254,-713 293.896,-666.541 247.18,-623.778 290,-580 296.775,-573.073 305.937,-568.641 315.226,-565.814"/>
<polygon fill="midnightblue" stroke="midnightblue" points="248.237,-713.87 241.976,-722.417 252.2,-719.64 248.237,-713.87"/>
</g>
<!-- Node21 -->
<g id="node21" class="node"><title>Node21</title>
<g id="a_node21"><a xlink:href="classhandler_1_1SimpleAction.html" target="_top" xlink:title="A simple action sends a message to the same connection it came from. ">
<polygon fill="none" stroke="black" points="299.5,-399.5 299.5,-418.5 411.5,-418.5 411.5,-399.5 299.5,-399.5"/>
<text text-anchor="middle" x="355.5" y="-406.5" font-family="Helvetica,sans-Serif" font-size="10.00">handler::SimpleAction</text>
</a>
</g>
</g>
<!-- Node2&#45;&gt;Node21 -->
<g id="edge20" class="edge"><title>Node2&#45;&gt;Node21</title>
<path fill="none" stroke="midnightblue" d="M250.859,-716.354C251.983,-715.305 253.036,-714.189 254,-713 302.903,-652.664 264.868,-615.487 290,-542 306.525,-493.68 336.334,-440.115 348.789,-418.658"/>
<polygon fill="midnightblue" stroke="midnightblue" points="248.648,-713.634 242.599,-722.332 252.752,-719.305 248.648,-713.634"/>
</g>
<!-- Node48 -->
<g id="node48" class="node"><title>Node48</title>
<g id="a_node48"><a xlink:href="classhandler_1_1Whois330.html" target="_top" xlink:title="Sets the global id based on a 330 reply from whois (IRC) ">
<polygon fill="none" stroke="black" points="306.5,-361.5 306.5,-380.5 404.5,-380.5 404.5,-361.5 306.5,-361.5"/>
<text text-anchor="middle" x="355.5" y="-368.5" font-family="Helvetica,sans-Serif" font-size="10.00">handler::Whois330</text>
</a>
</g>
</g>
<!-- Node2&#45;&gt;Node48 -->
<g id="edge47" class="edge"><title>Node2&#45;&gt;Node48</title>
<path fill="none" stroke="midnightblue" d="M251.428,-716.045C252.351,-715.087 253.213,-714.074 254,-713 339.433,-596.529 197.205,-500.695 290,-390 294.35,-384.811 300.039,-380.998 306.238,-378.204"/>
<polygon fill="midnightblue" stroke="midnightblue" points="249.092,-713.427 243.354,-722.334 253.394,-718.95 249.092,-713.427"/>
</g>
<!-- Node8 -->
<g id="node8" class="node"><title>Node8</title>
<g id="a_node8"><a xlink:href="classhandler_1_1CtcpClientInfo.html" target="_top" xlink:title="Shows help about other CTCP handlers. ">
<polygon fill="none" stroke="black" points="463,-950.5 463,-969.5 580,-969.5 580,-950.5 463,-950.5"/>
<text text-anchor="middle" x="521.5" y="-957.5" font-family="Helvetica,sans-Serif" font-size="10.00">handler::CtcpClientInfo</text>
</a>
</g>
</g>
<!-- Node7&#45;&gt;Node8 -->
<g id="edge7" class="edge"><title>Node7&#45;&gt;Node8</title>
<path fill="none" stroke="midnightblue" d="M413.558,-840.334C416.215,-842.006 418.719,-843.886 421,-846 454.114,-876.695 423.952,-910.234 457,-941 461.127,-944.842 466.001,-947.909 471.184,-950.358"/>
<polygon fill="midnightblue" stroke="midnightblue" points="415.123,-837.203 404.639,-835.674 411.881,-843.407 415.123,-837.203"/>
</g>
<!-- Node9 -->
<g id="node9" class="node"><title>Node9</title>
<g id="a_node9"><a xlink:href="classhandler_1_1CtcpPing.html" target="_top" xlink:title="CTCP PING reply, Used to measure round&#45;trip message delays. ">
<polygon fill="none" stroke="black" points="474,-912.5 474,-931.5 569,-931.5 569,-912.5 474,-912.5"/>
<text text-anchor="middle" x="521.5" y="-919.5" font-family="Helvetica,sans-Serif" font-size="10.00">handler::CtcpPing</text>
</a>
</g>
</g>
<!-- Node7&#45;&gt;Node9 -->
<g id="edge8" class="edge"><title>Node7&#45;&gt;Node9</title>
<path fill="none" stroke="midnightblue" d="M413.074,-840.911C415.855,-842.435 418.519,-844.125 421,-846 444.908,-864.061 433.131,-884.888 457,-903 462.133,-906.895 468.06,-909.996 474.186,-912.462"/>
<polygon fill="midnightblue" stroke="midnightblue" points="414.412,-837.673 403.873,-836.588 411.436,-844.009 414.412,-837.673"/>
</g>
<!-- Node10 -->
<g id="node10" class="node"><title>Node10</title>
<g id="a_node10"><a xlink:href="classhandler_1_1CtcpSource.html" target="_top" xlink:title="CTCP SOURCE reply, shows a URL with the sources. ">
<polygon fill="none" stroke="black" points="468.5,-874.5 468.5,-893.5 574.5,-893.5 574.5,-874.5 468.5,-874.5"/>
<text text-anchor="middle" x="521.5" y="-881.5" font-family="Helvetica,sans-Serif" font-size="10.00">handler::CtcpSource</text>
</a>
</g>
</g>
<!-- Node7&#45;&gt;Node10 -->
<g id="edge9" class="edge"><title>Node7&#45;&gt;Node10</title>
<path fill="none" stroke="midnightblue" d="M402.985,-839.482C409.109,-841.478 415.251,-843.664 421,-846 437.76,-852.812 440.254,-858.152 457,-865 465.627,-868.528 475.152,-871.726 484.143,-874.449"/>
<polygon fill="midnightblue" stroke="midnightblue" points="404.023,-836.139 393.434,-836.506 401.94,-842.822 404.023,-836.139"/>
</g>
<!-- Node11 -->
<g id="node11" class="node"><title>Node11</title>
<g id="a_node11"><a xlink:href="classhandler_1_1CtcpTime.html" target="_top" xlink:title="CTCP TIME reply, Shows the local time. ">
<polygon fill="none" stroke="black" points="473,-836.5 473,-855.5 570,-855.5 570,-836.5 473,-836.5"/>
<text text-anchor="middle" x="521.5" y="-843.5" font-family="Helvetica,sans-Serif" font-size="10.00">handler::CtcpTime</text>
</a>
</g>
</g>
<!-- Node7&#45;&gt;Node11 -->
<g id="edge10" class="edge"><title>Node7&#45;&gt;Node11</title>
<path fill="none" stroke="midnightblue" d="M414.853,-833.76C433.847,-835.961 454.691,-838.376 472.81,-840.475"/>
<polygon fill="midnightblue" stroke="midnightblue" points="415.155,-830.272 404.818,-832.598 414.349,-837.226 415.155,-830.272"/>
</g>
<!-- Node12 -->
<g id="node12" class="node"><title>Node12</title>
<g id="a_node12"><a xlink:href="classhandler_1_1CtcpUserInfo.html" target="_top" xlink:title="CTCP USERINFO reply, shows a user&#45;defined string. ">
<polygon fill="none" stroke="black" points="465,-798.5 465,-817.5 578,-817.5 578,-798.5 465,-798.5"/>
<text text-anchor="middle" x="521.5" y="-805.5" font-family="Helvetica,sans-Serif" font-size="10.00">handler::CtcpUserInfo</text>
</a>
</g>
</g>
<!-- Node7&#45;&gt;Node12 -->
<g id="edge11" class="edge"><title>Node7&#45;&gt;Node12</title>
<path fill="none" stroke="midnightblue" d="M415.202,-820.199C431.334,-818.33 448.779,-816.309 464.741,-814.46"/>
<polygon fill="midnightblue" stroke="midnightblue" points="414.349,-816.774 404.818,-821.402 415.155,-823.728 414.349,-816.774"/>
</g>
<!-- Node13 -->
<g id="node13" class="node"><title>Node13</title>
<g id="a_node13"><a xlink:href="classhandler_1_1CtcpVersion.html" target="_top" xlink:title="CTCP VERSION reply, shows a pre&#45;formatted version string. ">
<polygon fill="none" stroke="black" points="467.5,-760.5 467.5,-779.5 575.5,-779.5 575.5,-760.5 467.5,-760.5"/>
<text text-anchor="middle" x="521.5" y="-767.5" font-family="Helvetica,sans-Serif" font-size="10.00">handler::CtcpVersion</text>
</a>
</g>
</g>
<!-- Node7&#45;&gt;Node13 -->
<g id="edge12" class="edge"><title>Node7&#45;&gt;Node13</title>
<path fill="none" stroke="midnightblue" d="M402.985,-814.518C409.109,-812.522 415.251,-810.336 421,-808 437.76,-801.188 440.254,-795.848 457,-789 465.627,-785.472 475.152,-782.274 484.143,-779.551"/>
<polygon fill="midnightblue" stroke="midnightblue" points="401.94,-811.178 393.434,-817.494 404.023,-817.861 401.94,-811.178"/>
</g>
<!-- Node22 -->
<g id="node22" class="node"><title>Node22</title>
<g id="a_node22"><a xlink:href="classhandler_1_1AdminJoin.html" target="_top" xlink:title="Makes the bot join channels (IRC) ">
<polygon fill="none" stroke="black" points="471.5,-722.5 471.5,-741.5 571.5,-741.5 571.5,-722.5 471.5,-722.5"/>
<text text-anchor="middle" x="521.5" y="-729.5" font-family="Helvetica,sans-Serif" font-size="10.00">handler::AdminJoin</text>
</a>
</g>
</g>
<!-- Node21&#45;&gt;Node22 -->
<g id="edge21" class="edge"><title>Node21&#45;&gt;Node22</title>
<path fill="none" stroke="midnightblue" d="M367.256,-427.464C381.47,-452.597 406.411,-499.342 421,-542 446.132,-615.487 404.414,-655.844 457,-713 460.974,-717.319 465.884,-720.671 471.201,-723.27"/>
<polygon fill="midnightblue" stroke="midnightblue" points="370.219,-425.596 362.211,-418.658 364.145,-429.075 370.219,-425.596"/>
</g>
<!-- Node23 -->
<g id="node23" class="node"><title>Node23</title>
<g id="a_node23"><a xlink:href="classhandler_1_1AdminNick.html" target="_top" xlink:title="Changes the bot nick (IRC) ">
<polygon fill="none" stroke="black" points="470.5,-684.5 470.5,-703.5 572.5,-703.5 572.5,-684.5 470.5,-684.5"/>
<text text-anchor="middle" x="521.5" y="-691.5" font-family="Helvetica,sans-Serif" font-size="10.00">handler::AdminNick</text>
</a>
</g>
</g>
<!-- Node21&#45;&gt;Node23 -->
<g id="edge22" class="edge"><title>Node21&#45;&gt;Node23</title>
<path fill="none" stroke="midnightblue" d="M366.899,-427.592C380.713,-452.868 405.205,-499.774 421,-542 442.455,-599.357 414.273,-631.13 457,-675 460.854,-678.957 465.495,-682.098 470.492,-684.59"/>
<polygon fill="midnightblue" stroke="midnightblue" points="369.905,-425.794 362.008,-418.731 363.777,-429.177 369.905,-425.794"/>
</g>
<!-- Node24 -->
<g id="node24" class="node"><title>Node24</title>
<g id="a_node24"><a xlink:href="classhandler_1_1AdminPart.html" target="_top" xlink:title="Makes the bot part channels (IRC) ">
<polygon fill="none" stroke="black" points="471.5,-646.5 471.5,-665.5 571.5,-665.5 571.5,-646.5 471.5,-646.5"/>
<text text-anchor="middle" x="521.5" y="-653.5" font-family="Helvetica,sans-Serif" font-size="10.00">handler::AdminPart</text>
</a>
</g>
</g>
<!-- Node21&#45;&gt;Node24 -->
<g id="edge23" class="edge"><title>Node21&#45;&gt;Node24</title>
<path fill="none" stroke="midnightblue" d="M366.098,-427.451C379.19,-452.91 403.068,-500.389 421,-542 438.869,-583.466 423.952,-606.234 457,-637 461.127,-640.842 466.001,-643.909 471.184,-646.358"/>
<polygon fill="midnightblue" stroke="midnightblue" points="369.194,-425.819 361.493,-418.542 362.975,-429.033 369.194,-425.819"/>
</g>
<!-- Node25 -->
<g id="node25" class="node"><title>Node25</title>
<g id="a_node25"><a xlink:href="classhandler_1_1AdminQuit.html" target="_top" xlink:title="Quits the bot. ">
<polygon fill="none" stroke="black" points="471.5,-608.5 471.5,-627.5 571.5,-627.5 571.5,-608.5 471.5,-608.5"/>
<text text-anchor="middle" x="521.5" y="-615.5" font-family="Helvetica,sans-Serif" font-size="10.00">handler::AdminQuit</text>
</a>
</g>
</g>
<!-- Node21&#45;&gt;Node25 -->
<g id="edge24" class="edge"><title>Node21&#45;&gt;Node25</title>
<path fill="none" stroke="midnightblue" d="M365.413,-427.794C387.17,-473.368 442.287,-586.919 457,-599 461.713,-602.87 467.197,-605.953 472.93,-608.407"/>
<polygon fill="midnightblue" stroke="midnightblue" points="368.54,-426.218 361.081,-418.693 362.219,-429.227 368.54,-426.218"/>
</g>
<!-- Node26 -->
<g id="node26" class="node"><title>Node26</title>
<g id="a_node26"><a xlink:href="classhandler_1_1AdminRaw.html" target="_top" xlink:title="Makes the bot execute a raw command (IRC) ">
<polygon fill="none" stroke="black" points="470.5,-570.5 470.5,-589.5 572.5,-589.5 572.5,-570.5 470.5,-570.5"/>
<text text-anchor="middle" x="521.5" y="-577.5" font-family="Helvetica,sans-Serif" font-size="10.00">handler::AdminRaw</text>
</a>
</g>
</g>
<!-- Node21&#45;&gt;Node26 -->
<g id="edge25" class="edge"><title>Node21&#45;&gt;Node26</title>
<path fill="none" stroke="midnightblue" d="M363.947,-428.088C377.508,-460.348 409.306,-525.588 457,-561 462.266,-564.91 468.335,-568.021 474.589,-570.494"/>
<polygon fill="midnightblue" stroke="midnightblue" points="367.059,-426.449 360.051,-418.503 360.574,-429.085 367.059,-426.449"/>
</g>
<!-- Node27 -->
<g id="node27" class="node"><title>Node27</title>
<g id="a_node27"><a xlink:href="classhandler_1_1AdminReconnect.html" target="_top" xlink:title="Makes the bot reconnect. ">
<polygon fill="none" stroke="black" points="457,-532.5 457,-551.5 586,-551.5 586,-532.5 457,-532.5"/>
<text text-anchor="middle" x="521.5" y="-539.5" font-family="Helvetica,sans-Serif" font-size="10.00">handler::AdminReconnect</text>
</a>
</g>
</g>
<!-- Node21&#45;&gt;Node27 -->
<g id="edge26" class="edge"><title>Node21&#45;&gt;Node27</title>
<path fill="none" stroke="midnightblue" d="M367.725,-427.15C384.224,-452.337 417.397,-497.644 457,-523 463.008,-526.847 469.831,-529.945 476.721,-532.431"/>
<polygon fill="midnightblue" stroke="midnightblue" points="370.573,-425.107 362.239,-418.565 364.674,-428.876 370.573,-425.107"/>
</g>
<!-- Node28 -->
<g id="node28" class="node"><title>Node28</title>
<g id="a_node28"><a xlink:href="classhandler_1_1Cointoss.html" target="_top" xlink:title="Shows one of the given items, at random. ">
<polygon fill="none" stroke="black" points="475,-494.5 475,-513.5 568,-513.5 568,-494.5 475,-494.5"/>
<text text-anchor="middle" x="521.5" y="-501.5" font-family="Helvetica,sans-Serif" font-size="10.00">handler::Cointoss</text>
</a>
</g>
</g>
<!-- Node21&#45;&gt;Node28 -->
<g id="edge27" class="edge"><title>Node21&#45;&gt;Node28</title>
<path fill="none" stroke="midnightblue" d="M374.098,-425.453C393.19,-442.511 425.216,-468.891 457,-485 464.39,-488.746 472.646,-491.887 480.697,-494.468"/>
<polygon fill="midnightblue" stroke="midnightblue" points="376.268,-422.696 366.515,-418.557 371.558,-427.874 376.268,-422.696"/>
</g>
<!-- Node29 -->
<g id="node29" class="node"><title>Node29</title>
<g id="a_node29"><a xlink:href="classhandler_1_1Echo.html" target="_top" xlink:title="Just repeat what it has been told. ">
<polygon fill="none" stroke="black" points="483,-456.5 483,-475.5 560,-475.5 560,-456.5 483,-456.5"/>
<text text-anchor="middle" x="521.5" y="-463.5" font-family="Helvetica,sans-Serif" font-size="10.00">handler::Echo</text>
</a>
</g>
</g>
<!-- Node21&#45;&gt;Node29 -->
<g id="edge28" class="edge"><title>Node21&#45;&gt;Node29</title>
<path fill="none" stroke="midnightblue" d="M389.64,-422.206C409.131,-429.803 434.325,-439.332 457,-447 466.702,-450.281 477.333,-453.577 487.074,-456.481"/>
<polygon fill="midnightblue" stroke="midnightblue" points="390.877,-418.932 380.29,-418.539 388.322,-425.449 390.877,-418.932"/>
</g>
<!-- Node30 -->
<g id="node30" class="node"><title>Node30</title>
<g id="a_node30"><a xlink:href="classhandler_1_1Help.html" target="_top" xlink:title="Handler showing help on the available handlers. ">
<polygon fill="none" stroke="black" points="484.5,-418.5 484.5,-437.5 558.5,-437.5 558.5,-418.5 484.5,-418.5"/>
<text text-anchor="middle" x="521.5" y="-425.5" font-family="Helvetica,sans-Serif" font-size="10.00">handler::Help</text>
</a>
</g>
</g>
<!-- Node21&#45;&gt;Node30 -->
<g id="edge29" class="edge"><title>Node21&#45;&gt;Node30</title>
<path fill="none" stroke="midnightblue" d="M421.583,-416.54C442.972,-419.018 465.966,-421.682 484.397,-423.817"/>
<polygon fill="midnightblue" stroke="midnightblue" points="421.902,-413.054 411.566,-415.38 421.097,-420.007 421.902,-413.054"/>
</g>
<!-- Node31 -->
<g id="node31" class="node"><title>Node31</title>
<g id="a_node31"><a xlink:href="classhandler_1_1License.html" target="_top" xlink:title="Handler showing licensing information. ">
<polygon fill="none" stroke="black" points="477.5,-380.5 477.5,-399.5 565.5,-399.5 565.5,-380.5 477.5,-380.5"/>
<text text-anchor="middle" x="521.5" y="-387.5" font-family="Helvetica,sans-Serif" font-size="10.00">handler::License</text>
</a>
</g>
</g>
<!-- Node21&#45;&gt;Node31 -->
<g id="edge30" class="edge"><title>Node21&#45;&gt;Node31</title>
<path fill="none" stroke="midnightblue" d="M421.515,-401.468C440.235,-399.299 460.189,-396.987 477.242,-395.012"/>
<polygon fill="midnightblue" stroke="midnightblue" points="421.097,-397.993 411.566,-402.62 421.902,-404.946 421.097,-397.993"/>
</g>
<!-- Node32 -->
<g id="node32" class="node"><title>Node32</title>
<g id="a_node32"><a xlink:href="classhandler_1_1ListClear.html" target="_top" xlink:title="Used by AbstractList to remove all elements. ">
<polygon fill="none" stroke="black" points="475,-342.5 475,-361.5 568,-361.5 568,-342.5 475,-342.5"/>
<text text-anchor="middle" x="521.5" y="-349.5" font-family="Helvetica,sans-Serif" font-size="10.00">handler::ListClear</text>
</a>
</g>
</g>
<!-- Node21&#45;&gt;Node32 -->
<g id="edge31" class="edge"><title>Node21&#45;&gt;Node32</title>
<path fill="none" stroke="midnightblue" d="M402.985,-396.518C409.109,-394.522 415.251,-392.336 421,-390 437.76,-383.188 440.254,-377.848 457,-371 465.627,-367.472 475.152,-364.274 484.143,-361.551"/>
<polygon fill="midnightblue" stroke="midnightblue" points="401.94,-393.178 393.434,-399.494 404.023,-399.861 401.94,-393.178"/>
</g>
<!-- Node33 -->
<g id="node33" class="node"><title>Node33</title>
<g id="a_node33"><a xlink:href="classhandler_1_1ListInsert.html" target="_top" xlink:title="Used by AbstractList to add elements. ">
<polygon fill="none" stroke="black" points="474,-304.5 474,-323.5 569,-323.5 569,-304.5 474,-304.5"/>
<text text-anchor="middle" x="521.5" y="-311.5" font-family="Helvetica,sans-Serif" font-size="10.00">handler::ListInsert</text>
</a>
</g>
</g>
<!-- Node21&#45;&gt;Node33 -->
<g id="edge32" class="edge"><title>Node21&#45;&gt;Node33</title>
<path fill="none" stroke="midnightblue" d="M413.074,-395.089C415.855,-393.565 418.519,-391.875 421,-390 444.908,-371.939 433.131,-351.112 457,-333 462.133,-329.105 468.06,-326.004 474.186,-323.538"/>
<polygon fill="midnightblue" stroke="midnightblue" points="411.436,-391.991 403.873,-399.412 414.412,-398.327 411.436,-391.991"/>
</g>
<!-- Node34 -->
<g id="node34" class="node"><title>Node34</title>
<g id="a_node34"><a xlink:href="classhandler_1_1ListRemove.html" target="_top" xlink:title="Used by AbstractList to remove elements. ">
<polygon fill="none" stroke="black" points="468,-266.5 468,-285.5 575,-285.5 575,-266.5 468,-266.5"/>
<text text-anchor="middle" x="521.5" y="-273.5" font-family="Helvetica,sans-Serif" font-size="10.00">handler::ListRemove</text>
</a>
</g>
</g>
<!-- Node21&#45;&gt;Node34 -->
<g id="edge33" class="edge"><title>Node21&#45;&gt;Node34</title>
<path fill="none" stroke="midnightblue" d="M415.542,-394.358C417.467,-393.029 419.296,-391.58 421,-390 454.114,-359.305 423.952,-325.766 457,-295 461.127,-291.158 466.001,-288.091 471.184,-285.642"/>
<polygon fill="midnightblue" stroke="midnightblue" points="413.55,-391.464 406.587,-399.449 417.01,-397.549 413.55,-391.464"/>
</g>
<!-- Node35 -->
<g id="node35" class="node"><title>Node35</title>
<g id="a_node35"><a xlink:href="classhandler_1_1Morse.html" target="_top" xlink:title="Handler translating between morse and latin. ">
<polygon fill="none" stroke="black" points="481,-228.5 481,-247.5 562,-247.5 562,-228.5 481,-228.5"/>
<text text-anchor="middle" x="521.5" y="-235.5" font-family="Helvetica,sans-Serif" font-size="10.00">handler::Morse</text>
</a>
</g>
</g>
<!-- Node21&#45;&gt;Node35 -->
<g id="edge34" class="edge"><title>Node21&#45;&gt;Node35</title>
<path fill="none" stroke="midnightblue" d="M416.487,-394.003C418.081,-392.771 419.592,-391.44 421,-390 463.82,-346.222 414.273,-300.87 457,-257 463.423,-250.405 472.033,-246.077 480.835,-243.242"/>
<polygon fill="midnightblue" stroke="midnightblue" points="414.537,-391.095 407.921,-399.37 418.253,-397.027 414.537,-391.095"/>
</g>
<!-- Node36 -->
<g id="node36" class="node"><title>Node36</title>
<g id="a_node36"><a xlink:href="classhandler_1_1RenderPony.html" target="_top" xlink:title="Draws a pretty My Little Pony ASCII art. ">
<polygon fill="none" stroke="black" points="467.5,-190.5 467.5,-209.5 575.5,-209.5 575.5,-190.5 467.5,-190.5"/>
<text text-anchor="middle" x="521.5" y="-197.5" font-family="Helvetica,sans-Serif" font-size="10.00">handler::RenderPony</text>
</a>
</g>
</g>
<!-- Node21&#45;&gt;Node36 -->
<g id="edge35" class="edge"><title>Node21&#45;&gt;Node36</title>
<path fill="none" stroke="midnightblue" d="M417.076,-393.712C418.462,-392.562 419.775,-391.326 421,-390 473.707,-332.957 404.414,-276.156 457,-219 460.584,-215.105 464.93,-211.996 469.649,-209.516"/>
<polygon fill="midnightblue" stroke="midnightblue" points="414.863,-390.98 408.456,-399.418 418.727,-396.817 414.863,-390.98"/>
</g>
<!-- Node37 -->
<g id="node37" class="node"><title>Node37</title>
<g id="a_node37"><a xlink:href="classhandler_1_1ReverseText.html" target="_top" xlink:title="Turns ASCII characters upside&#45;down. ">
<polygon fill="none" stroke="black" points="466.5,-152.5 466.5,-171.5 576.5,-171.5 576.5,-152.5 466.5,-152.5"/>
<text text-anchor="middle" x="521.5" y="-159.5" font-family="Helvetica,sans-Serif" font-size="10.00">handler::ReverseText</text>
</a>
</g>
</g>
<!-- Node21&#45;&gt;Node37 -->
<g id="edge36" class="edge"><title>Node21&#45;&gt;Node37</title>
<path fill="none" stroke="midnightblue" d="M417.233,-393.694C418.565,-392.548 419.826,-391.319 421,-390 483.678,-319.602 394.473,-251.531 457,-181 460.435,-177.125 464.625,-174.026 469.197,-171.548"/>
<polygon fill="midnightblue" stroke="midnightblue" points="415.191,-390.85 408.912,-399.383 419.142,-396.628 415.191,-390.85"/>
</g>
<!-- Node38 -->
<g id="node38" class="node"><title>Node38</title>
<g id="a_node38"><a xlink:href="classhandler_1_1ServerHost.html" target="_top" xlink:title="Shows the server the bot is connected to. ">
<polygon fill="none" stroke="black" points="469.5,-114.5 469.5,-133.5 573.5,-133.5 573.5,-114.5 469.5,-114.5"/>
<text text-anchor="middle" x="521.5" y="-121.5" font-family="Helvetica,sans-Serif" font-size="10.00">handler::ServerHost</text>
</a>
</g>
</g>
<!-- Node21&#45;&gt;Node38 -->
<g id="edge37" class="edge"><title>Node21&#45;&gt;Node38</title>
<path fill="none" stroke="midnightblue" d="M417.278,-393.734C418.598,-392.576 419.843,-391.334 421,-390 493.693,-306.197 384.486,-226.957 457,-143 460.46,-138.994 464.727,-135.814 469.399,-133.293"/>
<polygon fill="midnightblue" stroke="midnightblue" points="415.231,-390.894 409.014,-399.474 419.224,-396.643 415.231,-390.894"/>
</g>
<!-- Node39 -->
<g id="node39" class="node"><title>Node39</title>
<g id="a_node39"><a xlink:href="classhandler_1_1SimpleGroup.html" target="_top" xlink:title="A simple group of actions which share settings. ">
<polygon fill="none" stroke="black" points="466.5,-76.5 466.5,-95.5 576.5,-95.5 576.5,-76.5 466.5,-76.5"/>
<text text-anchor="middle" x="521.5" y="-83.5" font-family="Helvetica,sans-Serif" font-size="10.00">handler::SimpleGroup</text>
</a>
</g>
</g>
<!-- Node21&#45;&gt;Node39 -->
<g id="edge38" class="edge"><title>Node21&#45;&gt;Node39</title>
<path fill="none" stroke="midnightblue" d="M417.748,-393.369C418.896,-392.316 419.983,-391.195 421,-390 503.735,-292.762 374.472,-202.415 457,-105 460.273,-101.137 464.296,-98.0403 468.716,-95.5611"/>
<polygon fill="midnightblue" stroke="midnightblue" points="415.476,-390.691 409.396,-399.368 419.56,-396.377 415.476,-390.691"/>
</g>
<!-- Node43 -->
<g id="node43" class="node"><title>Node43</title>
<g id="a_node43"><a xlink:href="classhandler_1_1SimpleWebApi.html" target="_top" xlink:title="Simple base class for handlers calling web resources. ">
<polygon fill="none" stroke="black" points="462,-38.5 462,-57.5 581,-57.5 581,-38.5 462,-38.5"/>
<text text-anchor="middle" x="521.5" y="-45.5" font-family="Helvetica,sans-Serif" font-size="10.00">handler::SimpleWebApi</text>
</a>
</g>
</g>
<!-- Node21&#45;&gt;Node43 -->
<g id="edge42" class="edge"><title>Node21&#45;&gt;Node43</title>
<path fill="none" stroke="midnightblue" d="M417.771,-393.389C418.913,-392.33 419.992,-391.202 421,-390 513.795,-279.305 364.441,-177.892 457,-67 460.244,-63.1129 464.249,-60.0008 468.658,-57.5119"/>
<polygon fill="midnightblue" stroke="midnightblue" points="415.498,-390.715 409.455,-399.417 419.606,-396.382 415.498,-390.715"/>
</g>
<!-- Node47 -->
<g id="node47" class="node"><title>Node47</title>
<g id="a_node47"><a xlink:href="classhandler_1_1WhoisCheckMe.html" target="_top" xlink:title="Sends a WHOIS about the message sender. ">
<polygon fill="none" stroke="black" points="459.5,-0.5 459.5,-19.5 583.5,-19.5 583.5,-0.5 459.5,-0.5"/>
<text text-anchor="middle" x="521.5" y="-7.5" font-family="Helvetica,sans-Serif" font-size="10.00">handler::WhoisCheckMe</text>
</a>
</g>
</g>
<!-- Node21&#45;&gt;Node47 -->
<g id="edge46" class="edge"><title>Node21&#45;&gt;Node47</title>
<path fill="none" stroke="midnightblue" d="M417.79,-393.405C418.926,-392.341 419.999,-391.208 421,-390 523.867,-265.835 354.398,-153.384 457,-29 460.149,-25.1829 464.031,-22.1121 468.312,-19.6445"/>
<polygon fill="midnightblue" stroke="midnightblue" points="415.514,-390.733 409.501,-399.456 419.642,-396.387 415.514,-390.733"/>
</g>
<!-- Node40 -->
<g id="node40" class="node"><title>Node40</title>
<g id="a_node40"><a xlink:href="classhandler_1_1AbstractList.html" target="_top" xlink:title="Handles a list of elements (base class) ">
<polygon fill="none" stroke="black" points="622,-114.5 622,-133.5 729,-133.5 729,-114.5 622,-114.5"/>
<text text-anchor="middle" x="675.5" y="-121.5" font-family="Helvetica,sans-Serif" font-size="10.00">handler::AbstractList</text>
</a>
</g>
</g>
<!-- Node39&#45;&gt;Node40 -->
<g id="edge39" class="edge"><title>Node39&#45;&gt;Node40</title>
<path fill="none" stroke="midnightblue" d="M570.66,-98.04C591.895,-103.349 616.495,-109.499 636.42,-114.48"/>
<polygon fill="midnightblue" stroke="midnightblue" points="571.406,-94.6189 560.856,-95.589 569.709,-101.41 571.406,-94.6189"/>
</g>
<!-- Node42 -->
<g id="node42" class="node"><title>Node42</title>
<g id="a_node42"><a xlink:href="classhandler_1_1Bridge.html" target="_top" xlink:title="Acts as bridge across connections. ">
<polygon fill="none" stroke="black" points="634.5,-76.5 634.5,-95.5 716.5,-95.5 716.5,-76.5 634.5,-76.5"/>
<text text-anchor="middle" x="675.5" y="-83.5" font-family="Helvetica,sans-Serif" font-size="10.00">handler::Bridge</text>
</a>
</g>
</g>
<!-- Node39&#45;&gt;Node42 -->
<g id="edge41" class="edge"><title>Node39&#45;&gt;Node42</title>
<path fill="none" stroke="midnightblue" d="M586.892,-86C602.879,-86 619.568,-86 634.038,-86"/>
<polygon fill="midnightblue" stroke="midnightblue" points="586.518,-82.5001 576.517,-86 586.517,-89.5001 586.518,-82.5001"/>
</g>
<!-- Node41 -->
<g id="node41" class="node"><title>Node41</title>
<g id="a_node41"><a xlink:href="classhandler_1_1AdminGroup.html" target="_top" xlink:title="Manages a user group. ">
<polygon fill="none" stroke="black" points="782.5,-114.5 782.5,-133.5 890.5,-133.5 890.5,-114.5 782.5,-114.5"/>
<text text-anchor="middle" x="836.5" y="-121.5" font-family="Helvetica,sans-Serif" font-size="10.00">handler::AdminGroup</text>
</a>
</g>
</g>
<!-- Node40&#45;&gt;Node41 -->
<g id="edge40" class="edge"><title>Node40&#45;&gt;Node41</title>
<path fill="none" stroke="midnightblue" d="M739.209,-124C753.446,-124 768.435,-124 782.237,-124"/>
<polygon fill="midnightblue" stroke="midnightblue" points="739.003,-120.5 729.003,-124 739.003,-127.5 739.003,-120.5"/>
</g>
<!-- Node44 -->
<g id="node44" class="node"><title>Node44</title>
<g id="a_node44"><a xlink:href="classhandler_1_1SimpleJson.html" target="_top" xlink:title="Simple base class for handlers using AJAX web APIs. ">
<polygon fill="none" stroke="red" points="623,-38.5 623,-57.5 728,-57.5 728,-38.5 623,-38.5"/>
<text text-anchor="middle" x="675.5" y="-45.5" font-family="Helvetica,sans-Serif" font-size="10.00">handler::SimpleJson</text>
</a>
</g>
</g>
<!-- Node43&#45;&gt;Node44 -->
<g id="edge43" class="edge"><title>Node43&#45;&gt;Node44</title>
<path fill="none" stroke="midnightblue" d="M591.333,-48C601.92,-48 612.695,-48 622.824,-48"/>
<polygon fill="midnightblue" stroke="midnightblue" points="591.267,-44.5001 581.267,-48 591.267,-51.5001 591.267,-44.5001"/>
</g>
<!-- Node45 -->
<g id="node45" class="node"><title>Node45</title>
<g id="a_node45"><a xlink:href="classhandler_1_1ChuckNorris.html" target="_top" xlink:title="Searches for a Chuck Norris joke. ">
<polygon fill="none" stroke="black" points="782,-57.5 782,-76.5 891,-76.5 891,-57.5 782,-57.5"/>
<text text-anchor="middle" x="836.5" y="-64.5" font-family="Helvetica,sans-Serif" font-size="10.00">handler::ChuckNorris</text>
</a>
</g>
</g>
<!-- Node44&#45;&gt;Node45 -->
<g id="edge44" class="edge"><title>Node44&#45;&gt;Node45</title>
<path fill="none" stroke="midnightblue" d="M738.418,-55.399C752.792,-57.1166 767.973,-58.9308 781.952,-60.6012"/>
<polygon fill="midnightblue" stroke="midnightblue" points="738.467,-51.8801 728.123,-54.1688 737.637,-58.8306 738.467,-51.8801"/>
</g>
<!-- Node46 -->
<g id="node46" class="node"><title>Node46</title>
<g id="a_node46"><a xlink:href="classhandler_1_1SearchImageGoogle.html" target="_top" xlink:title="Handler searching images with Google. ">
<polygon fill="none" stroke="black" points="765,-19.5 765,-38.5 908,-38.5 908,-19.5 765,-19.5"/>
<text text-anchor="middle" x="836.5" y="-26.5" font-family="Helvetica,sans-Serif" font-size="10.00">handler::SearchImageGoogle</text>
</a>
</g>
</g>
<!-- Node44&#45;&gt;Node46 -->
<g id="edge45" class="edge"><title>Node44&#45;&gt;Node46</title>
<path fill="none" stroke="midnightblue" d="M738.184,-40.6289C746.896,-39.5879 755.909,-38.5109 764.774,-37.4516"/>
<polygon fill="midnightblue" stroke="midnightblue" points="737.637,-37.1694 728.123,-41.8312 738.467,-44.1199 737.637,-37.1694"/>
</g>
</g>
</svg>
        <g id="navigator" transform="translate(0 0)" fill="#404254">
                <rect fill="#f2f5e9" fill-opacity="0.5" stroke="#606060" stroke-width=".5" x="0" y="0" width="60" height="60"/>
                <use id="zoomplus" xlink:href="#zoomPlus" x="17" y="9" onmousedown="handleZoom(evt,'in')"/>
                <use id="zoomminus" xlink:href="#zoomMin" x="42" y="9" onmousedown="handleZoom(evt,'out')"/>
                <use id="reset" xlink:href="#resetDef" x="30" y="36" onmousedown="handleReset()"/>
                <g id="arrowUp" xlink:href="#dirArrow" transform="translate(30 24)" onmousedown="handlePan(0,-1)">
                  <use xlink:href="#rim" fill="#404040">
                        <set attributeName="fill" to="#808080" begin="arrowUp.mouseover" end="arrowUp.mouseout"/>
                  </use>
                  <path fill="none" stroke="white" stroke-width="1.5" d="M0,-3.0v7 M-2.5,-0.5L0,-3.0L2.5,-0.5"/>
                </g>
                <g id="arrowRight" xlink:href="#dirArrow" transform="rotate(90) translate(36 -43)" onmousedown="handlePan(1,0)">
                  <use xlink:href="#rim" fill="#404040">
                        <set attributeName="fill" to="#808080" begin="arrowRight.mouseover" end="arrowRight.mouseout"/>
                  </use>
                  <path fill="none" stroke="white" stroke-width="1.5" d="M0,-3.0v7 M-2.5,-0.5L0,-3.0L2.5,-0.5"/>
                </g>
                <g id="arrowDown" xlink:href="#dirArrow" transform="rotate(180) translate(-30 -48)" onmousedown="handlePan(0,1)">
                  <use xlink:href="#rim" fill="#404040">
                        <set attributeName="fill" to="#808080" begin="arrowDown.mouseover" end="arrowDown.mouseout"/>
                  </use>
                  <path fill="none" stroke="white" stroke-width="1.5" d="M0,-3.0v7 M-2.5,-0.5L0,-3.0L2.5,-0.5"/>
                </g>
                <g id="arrowLeft" xlink:href="#dirArrow" transform="rotate(270) translate(-36 17)" onmousedown="handlePan(-1,0)">
                  <use xlink:href="#rim" fill="#404040">
                        <set attributeName="fill" to="#808080" begin="arrowLeft.mouseover" end="arrowLeft.mouseout"/>
                  </use>
                  <path fill="none" stroke="white" stroke-width="1.5" d="M0,-3.0v7 M-2.5,-0.5L0,-3.0L2.5,-0.5"/>
                </g>
        </g>
        <svg viewBox="0 0 15 15" width="100%" height="30px" preserveAspectRatio="xMaxYMin meet">
         <g id="arrow_out" transform="scale(0.3 0.3)">
          <a xlink:href="classhandler_1_1HandlerContainer__inherit__graph_org.svg" target="_base">
           <rect id="button" ry="5" rx="5" y="6" x="6" height="38" width="38"
                fill="#f2f5e9" fill-opacity="0.5" stroke="#606060" stroke-width="1.0"/>
           <path id="arrow"
             d="M 11.500037,31.436501 C 11.940474,20.09759 22.043105,11.32322 32.158766,21.979434 L 37.068811,17.246167 C 37.068811,17.246167 37.088388,32 37.088388,32 L 22.160133,31.978069 C 22.160133,31.978069 26.997745,27.140456 26.997745,27.140456 C 18.528582,18.264221 13.291696,25.230495 11.500037,31.436501 z"
             style="fill:#404040;"/>
          </a>
         </g>
        </svg>
</svg>
