<?xml version="1.0" encoding="UTF-8" standalone="no"?>
<!DOCTYPE svg PUBLIC "-//W3C//DTD SVG 1.1//EN"
 "http://www.w3.org/Graphics/SVG/1.1/DTD/svg11.dtd">
<!-- Generated by graphviz version 2.38.0 (20140413.2041)
 -->
<!-- Title: irc::handler::WhoisCheckMe Pages: 1 -->
<svg width="294pt" height="366pt"
 viewBox="0.00 0.00 293.50 366.00" xmlns="http://www.w3.org/2000/svg" xmlns:xlink="http://www.w3.org/1999/xlink">
<g id="graph0" class="graph" transform="scale(1 1) rotate(0) translate(4 362)">
<title>irc::handler::WhoisCheckMe</title>
<!-- Node1 -->
<g id="node1" class="node"><title>Node1</title>
<polygon fill="#bfbfbf" stroke="black" points="18,-0.5 18,-19.5 158,-19.5 158,-0.5 18,-0.5"/>
<text text-anchor="middle" x="88" y="-7.5" font-family="Helvetica,sans-Serif" font-size="10.00">irc::handler::WhoisCheckMe</text>
</g>
<!-- Node2 -->
<g id="node2" class="node"><title>Node2</title>
<g id="a_node2"><a xlink:href="classhandler_1_1SimpleAction.html" target="_top" xlink:title="A simple action sends a message to the same connection it came from. ">
<polygon fill="none" stroke="black" points="32,-57.5 32,-76.5 144,-76.5 144,-57.5 32,-57.5"/>
<text text-anchor="middle" x="88" y="-64.5" font-family="Helvetica,sans-Serif" font-size="10.00">handler::SimpleAction</text>
</a>
</g>
</g>
<!-- Node2&#45;&gt;Node1 -->
<g id="edge1" class="edge"><title>Node2&#45;&gt;Node1</title>
<path fill="none" stroke="midnightblue" d="M88,-47.1166C88,-37.8173 88,-27.0557 88,-19.7149"/>
<polygon fill="midnightblue" stroke="midnightblue" points="84.5001,-47.4062 88,-57.4062 91.5001,-47.4063 84.5001,-47.4062"/>
</g>
<!-- Node3 -->
<g id="node3" class="node"><title>Node3</title>
<g id="a_node3"><a xlink:href="classhandler_1_1Handler.html" target="_top" xlink:title="Message handler abstract base class. ">
<polygon fill="none" stroke="black" points="44,-114.5 44,-133.5 132,-133.5 132,-114.5 44,-114.5"/>
<text text-anchor="middle" x="88" y="-121.5" font-family="Helvetica,sans-Serif" font-size="10.00">handler::Handler</text>
</a>
</g>
</g>
<!-- Node3&#45;&gt;Node2 -->
<g id="edge2" class="edge"><title>Node3&#45;&gt;Node2</title>
<path fill="none" stroke="midnightblue" d="M88,-104.117C88,-94.8173 88,-84.0557 88,-76.7149"/>
<polygon fill="midnightblue" stroke="midnightblue" points="84.5001,-104.406 88,-114.406 91.5001,-104.406 84.5001,-104.406"/>
</g>
<!-- Node3&#45;&gt;Node3 -->
<g id="edge8" class="edge"><title>Node3&#45;&gt;Node3</title>
<path fill="none" stroke="#9a32cd" stroke-dasharray="5,2" d="M142.258,-128.125C147.019,-127.255 150,-125.88 150,-124 150,-120.992 142.369,-119.277 132.024,-118.854"/>
<polygon fill="#9a32cd" stroke="#9a32cd" points="141.627,-124.671 132.024,-129.146 142.323,-131.636 141.627,-124.671"/>
<text text-anchor="middle" x="183.5" y="-121.5" font-family="Helvetica,sans-Serif" font-size="10.00"> parent_handler</text>
</g>
<!-- Node4 -->
<g id="node4" class="node"><title>Node4</title>
<g id="a_node4"><a xlink:href="classhandler_1_1HandlerContainer.html" target="_top" xlink:title="Base class for classes which may contain handlers. ">
<polygon fill="none" stroke="black" points="0,-254 0,-273 130,-273 130,-254 0,-254"/>
<text text-anchor="middle" x="65" y="-261" font-family="Helvetica,sans-Serif" font-size="10.00">handler::HandlerContainer</text>
</a>
</g>
</g>
<!-- Node4&#45;&gt;Node3 -->
<g id="edge3" class="edge"><title>Node4&#45;&gt;Node3</title>
<path fill="none" stroke="midnightblue" d="M68.1177,-243.862C73.1577,-213.731 82.8998,-155.49 86.5618,-133.598"/>
<polygon fill="midnightblue" stroke="midnightblue" points="64.6366,-243.458 66.4388,-253.899 71.5407,-244.613 64.6366,-243.458"/>
</g>
<!-- Node5 -->
<g id="node5" class="node"><title>Node5</title>
<g id="a_node5"><a xlink:href="classMelanobot.html" target="_top" xlink:title="Main bot class. ">
<polygon fill="none" stroke="black" points="93,-181.5 93,-200.5 155,-200.5 155,-181.5 93,-181.5"/>
<text text-anchor="middle" x="124" y="-188.5" font-family="Helvetica,sans-Serif" font-size="10.00">Melanobot</text>
</a>
</g>
</g>
<!-- Node4&#45;&gt;Node5 -->
<g id="edge5" class="edge"><title>Node4&#45;&gt;Node5</title>
<path fill="none" stroke="midnightblue" d="M78.8946,-245.897C90.7398,-231.743 107.299,-211.957 116.706,-200.715"/>
<polygon fill="midnightblue" stroke="midnightblue" points="75.9684,-243.94 72.2346,-253.855 81.3366,-248.433 75.9684,-243.94"/>
</g>
<!-- Node5&#45;&gt;Node3 -->
<g id="edge4" class="edge"><title>Node5&#45;&gt;Node3</title>
<path fill="none" stroke="#9a32cd" stroke-dasharray="5,2" d="M114.121,-172.163C107.179,-159.628 98.1965,-143.41 92.7782,-133.627"/>
<polygon fill="#9a32cd" stroke="#9a32cd" points="111.238,-174.182 119.145,-181.234 117.362,-170.79 111.238,-174.182"/>
<text text-anchor="middle" x="117.5" y="-155" font-family="Helvetica,sans-Serif" font-size="10.00"> bot</text>
</g>
<!-- Node6 -->
<g id="node6" class="node"><title>Node6</title>
<g id="a_node6"><a xlink:href="classConcurrentQueue.html" target="_top" xlink:title="ConcurrentQueue\&lt; network\l::Message \&gt;">
<polygon fill="none" stroke="black" points="148.5,-248.5 148.5,-278.5 285.5,-278.5 285.5,-248.5 148.5,-248.5"/>
<text text-anchor="start" x="156.5" y="-266.5" font-family="Helvetica,sans-Serif" font-size="10.00">ConcurrentQueue&lt; network</text>
<text text-anchor="middle" x="217" y="-255.5" font-family="Helvetica,sans-Serif" font-size="10.00">::Message &gt;</text>
</a>
</g>
</g>
<!-- Node6&#45;&gt;Node5 -->
<g id="edge6" class="edge"><title>Node6&#45;&gt;Node5</title>
<path fill="none" stroke="#9a32cd" stroke-dasharray="5,2" d="M189.753,-241.845C171.69,-228.152 148.921,-210.891 135.465,-200.691"/>
<polygon fill="#9a32cd" stroke="#9a32cd" points="188.097,-244.981 198.18,-248.233 192.325,-239.403 188.097,-244.981"/>
<text text-anchor="middle" x="197.5" y="-222" font-family="Helvetica,sans-Serif" font-size="10.00"> messages</text>
</g>
<!-- Node7 -->
<g id="node7" class="node"><title>Node7</title>
<g id="a_node7"><a xlink:href="classConcurrentContainer.html" target="_top" xlink:title="ConcurrentContainer\l\&lt; std::queue\&lt; network\l::Message, Container \&gt; \&gt;">
<polygon fill="none" stroke="black" points="153,-316.5 153,-357.5 281,-357.5 281,-316.5 153,-316.5"/>
<text text-anchor="start" x="161" y="-345.5" font-family="Helvetica,sans-Serif" font-size="10.00">ConcurrentContainer</text>
<text text-anchor="start" x="161" y="-334.5" font-family="Helvetica,sans-Serif" font-size="10.00">&lt; std::queue&lt; network</text>
<text text-anchor="middle" x="217" y="-323.5" font-family="Helvetica,sans-Serif" font-size="10.00">::Message, Container &gt; &gt;</text>
</a>
</g>
</g>
<!-- Node7&#45;&gt;Node6 -->
<g id="edge7" class="edge"><title>Node7&#45;&gt;Node6</title>
<path fill="none" stroke="midnightblue" d="M217,-306.158C217,-296.687 217,-286.647 217,-278.797"/>
<polygon fill="midnightblue" stroke="midnightblue" points="213.5,-306.462 217,-316.462 220.5,-306.462 213.5,-306.462"/>
</g>
</g>
</svg>
