<?xml version="1.0" encoding="UTF-8" standalone="no"?>
<!DOCTYPE svg PUBLIC "-//W3C//DTD SVG 1.1//EN"
 "http://www.w3.org/Graphics/SVG/1.1/DTD/svg11.dtd">
<!-- Generated by graphviz version 2.38.0 (20140413.2041)
 -->
<!-- Title: handler::HandlerContainer Pages: 1 -->
<!--zoomable 1006 -->
<svg id="main" version="1.1" xmlns="http://www.w3.org/2000/svg" xmlns:xlink="http://www.w3.org/1999/xlink" xml:space="preserve" onload="init(evt)">
<style type="text/css"><![CDATA[
.edge:hover path { stroke: red; }
.edge:hover polygon { stroke: red; fill: red; }
]]></style>
<script type="text/javascript"><![CDATA[
var edges = document.getElementsByTagName('g');
if (edges && edges.length) {
  for (var i=0;i<edges.length;i++) {
    if (edges[i].id.substr(0,4)=='edge') {
      edges[i].setAttribute('class','edge');
    }
  }
}
]]></script>
        <defs>
                <circle id="rim" cx="0" cy="0" r="7"/>
                <circle id="rim2" cx="0" cy="0" r="3.5"/>
                <g id="zoomPlus">
                        <use xlink:href="#rim" fill="#404040">
                                <set attributeName="fill" to="#808080" begin="zoomplus.mouseover" end="zoomplus.mouseout"/>
                        </use>
                        <path d="M-4,0h8M0,-4v8" fill="none" stroke="white" stroke-width="1.5" pointer-events="none"/>
                </g>
                <g id="zoomMin">
                        <use xlink:href="#rim" fill="#404040">
                                <set attributeName="fill" to="#808080" begin="zoomminus.mouseover" end="zoomminus.mouseout"/>
                        </use>
                        <path d="M-4,0h8" fill="none" stroke="white" stroke-width="1.5" pointer-events="none"/>
                </g>
                <g id="dirArrow">
                        <path fill="none" stroke="white" stroke-width="1.5" d="M0,-3.0v7 M-2.5,-0.5L0,-3.0L2.5,-0.5"/>
                </g>
               <g id="resetDef">
                       <use xlink:href="#rim2" fill="#404040">
                               <set attributeName="fill" to="#808080" begin="reset.mouseover" end="reset.mouseout"/>
                       </use>
               </g>
        </defs>

<script type="text/javascript">
var viewWidth = 914;
var viewHeight = 1006;
var sectionId = 'dynsection-0';
</script>
<script xlink:href="svgpan.js"/>
<svg id="graph" class="graph">
<g id="viewport">
<title>handler::HandlerContainer</title>
<!-- Node1 -->
<g id="node1" class="node"><title>Node1</title>
<polygon fill="#bfbfbf" stroke="black" points="0,-750.5 0,-769.5 130,-769.5 130,-750.5 0,-750.5"/>
<text text-anchor="middle" x="65" y="-757.5" font-family="Helvetica,sans-Serif" font-size="10.00">handler::HandlerContainer</text>
</g>
<!-- Node2 -->
<g id="node2" class="node"><title>Node2</title>
<g id="a_node2"><a xlink:href="classhandler_1_1Handler.html" target="_top" xlink:title="Message handler abstract base class. ">
<polygon fill="none" stroke="black" points="166,-769.5 166,-788.5 254,-788.5 254,-769.5 166,-769.5"/>
<text text-anchor="middle" x="210" y="-776.5" font-family="Helvetica,sans-Serif" font-size="10.00">handler::Handler</text>
</a>
</g>
</g>
<!-- Node1&#45;&gt;Node2 -->
<g id="edge1" class="edge"><title>Node1&#45;&gt;Node2</title>
<path fill="none" stroke="midnightblue" d="M140.555,-769.906C149.218,-771.057 157.821,-772.2 165.854,-773.267"/>
<polygon fill="midnightblue" stroke="midnightblue" points="140.762,-766.403 130.388,-768.555 139.84,-773.342 140.762,-766.403"/>
</g>
<!-- Node45 -->
<g id="node45" class="node"><title>Node45</title>
<g id="a_node45"><a xlink:href="classMelanobot.html" target="_top" xlink:title="Main bot class. ">
<polygon fill="none" stroke="black" points="179,-731.5 179,-750.5 241,-750.5 241,-731.5 179,-731.5"/>
<text text-anchor="middle" x="210" y="-738.5" font-family="Helvetica,sans-Serif" font-size="10.00">Melanobot</text>
</a>
</g>
</g>
<!-- Node1&#45;&gt;Node45 -->
<g id="edge44" class="edge"><title>Node1&#45;&gt;Node45</title>
<path fill="none" stroke="midnightblue" d="M140.325,-750.125C153.977,-748.311 167.491,-746.515 178.873,-745.003"/>
<polygon fill="midnightblue" stroke="midnightblue" points="139.84,-746.658 130.388,-751.445 140.762,-753.597 139.84,-746.658"/>
</g>
<!-- Node3 -->
<g id="node3" class="node"><title>Node3</title>
<g id="a_node3"><a xlink:href="classhandler_1_1AcceptInvite.html" target="_top" xlink:title="Makes the bot join channels (IRC) ">
<polygon fill="none" stroke="black" points="301,-921.5 301,-940.5 410,-940.5 410,-921.5 301,-921.5"/>
<text text-anchor="middle" x="355.5" y="-928.5" font-family="Helvetica,sans-Serif" font-size="10.00">handler::AcceptInvite</text>
</a>
</g>
</g>
<!-- Node2&#45;&gt;Node3 -->
<g id="edge2" class="edge"><title>Node2&#45;&gt;Node3</title>
<path fill="none" stroke="midnightblue" d="M217.351,-798.503C227.816,-827.571 251.453,-882.044 290,-912 294.977,-915.868 300.725,-918.95 306.696,-921.405"/>
<polygon fill="midnightblue" stroke="midnightblue" points="220.544,-797.027 213.981,-788.71 213.925,-799.305 220.544,-797.027"/>
</g>
<!-- Node4 -->
<g id="node4" class="node"><title>Node4</title>
<g id="a_node4"><a xlink:href="classhandler_1_1AnswerQuestions.html" target="_top" xlink:title="Answers direct questions. ">
<polygon fill="none" stroke="black" points="290,-883.5 290,-902.5 421,-902.5 421,-883.5 290,-883.5"/>
<text text-anchor="middle" x="355.5" y="-890.5" font-family="Helvetica,sans-Serif" font-size="10.00">handler::AnswerQuestions</text>
</a>
</g>
</g>
<!-- Node2&#45;&gt;Node4 -->
<g id="edge3" class="edge"><title>Node2&#45;&gt;Node4</title>
<path fill="none" stroke="midnightblue" d="M221.652,-797.517C234.955,-819.016 259.694,-854.067 290,-874 295.852,-877.849 302.504,-880.937 309.259,-883.41"/>
<polygon fill="midnightblue" stroke="midnightblue" points="224.509,-795.475 216.366,-788.696 218.504,-799.073 224.509,-795.475"/>
</g>
<!-- Node5 -->
<g id="node5" class="node"><title>Node5</title>
<g id="a_node5"><a xlink:href="classhandler_1_1CtcpBase.html" target="_top" xlink:title="Base class for handling CTCP requests. ">
<polygon fill="none" stroke="black" points="306.5,-845.5 306.5,-864.5 404.5,-864.5 404.5,-845.5 306.5,-845.5"/>
<text text-anchor="middle" x="355.5" y="-852.5" font-family="Helvetica,sans-Serif" font-size="10.00">handler::CtcpBase</text>
</a>
</g>
</g>
<!-- Node2&#45;&gt;Node5 -->
<g id="edge4" class="edge"><title>Node2&#45;&gt;Node5</title>
<path fill="none" stroke="midnightblue" d="M229.424,-795.081C244.738,-807.734 267.576,-825.009 290,-836 297.547,-839.699 305.951,-842.821 314.133,-845.397"/>
<polygon fill="midnightblue" stroke="midnightblue" points="231.64,-792.371 221.74,-788.596 227.125,-797.72 231.64,-792.371"/>
</g>
<!-- Node12 -->
<g id="node12" class="node"><title>Node12</title>
<g id="a_node12"><a xlink:href="classhandler_1_1FilterGroup.html" target="_top" xlink:title="Discards messages coming from certain users. ">
<polygon fill="none" stroke="black" points="304.5,-807.5 304.5,-826.5 406.5,-826.5 406.5,-807.5 304.5,-807.5"/>
<text text-anchor="middle" x="355.5" y="-814.5" font-family="Helvetica,sans-Serif" font-size="10.00">handler::FilterGroup</text>
</a>
</g>
</g>
<!-- Node2&#45;&gt;Node12 -->
<g id="edge11" class="edge"><title>Node2&#45;&gt;Node12</title>
<path fill="none" stroke="midnightblue" d="M256.973,-791.174C276.816,-796.429 299.693,-802.487 318.3,-807.414"/>
<polygon fill="midnightblue" stroke="midnightblue" points="257.774,-787.766 247.211,-788.589 255.982,-794.532 257.774,-787.766"/>
</g>
<!-- Node13 -->
<g id="node13" class="node"><title>Node13</title>
<g id="a_node13"><a xlink:href="classhandler_1_1QGetWhois.html" target="_top" xlink:title="Parses responses from Q WHOIS and USER (IRC) ">
<polygon fill="none" stroke="black" points="303,-769.5 303,-788.5 408,-788.5 408,-769.5 303,-769.5"/>
<text text-anchor="middle" x="355.5" y="-776.5" font-family="Helvetica,sans-Serif" font-size="10.00">handler::QGetWhois</text>
</a>
</g>
</g>
<!-- Node2&#45;&gt;Node13 -->
<g id="edge12" class="edge"><title>Node2&#45;&gt;Node13</title>
<path fill="none" stroke="midnightblue" d="M264.396,-779C276.977,-779 290.366,-779 302.867,-779"/>
<polygon fill="midnightblue" stroke="midnightblue" points="264.055,-775.5 254.055,-779 264.055,-782.5 264.055,-775.5"/>
</g>
<!-- Node14 -->
<g id="node14" class="node"><title>Node14</title>
<g id="a_node14"><a xlink:href="classhandler_1_1QSendWhois.html" target="_top" xlink:title="Asks Q for WHOIS or USERS information when a user joins a channel (IRC) ">
<polygon fill="none" stroke="black" points="299.5,-731.5 299.5,-750.5 411.5,-750.5 411.5,-731.5 299.5,-731.5"/>
<text text-anchor="middle" x="355.5" y="-738.5" font-family="Helvetica,sans-Serif" font-size="10.00">handler::QSendWhois</text>
</a>
</g>
</g>
<!-- Node2&#45;&gt;Node14 -->
<g id="edge13" class="edge"><title>Node2&#45;&gt;Node14</title>
<path fill="none" stroke="midnightblue" d="M256.973,-766.826C276.816,-761.571 299.693,-755.513 318.3,-750.586"/>
<polygon fill="midnightblue" stroke="midnightblue" points="255.982,-763.468 247.211,-769.411 257.774,-770.234 255.982,-763.468"/>
</g>
<!-- Node15 -->
<g id="node15" class="node"><title>Node15</title>
<g id="a_node15"><a xlink:href="classhandler_1_1Reply.html" target="_top" xlink:title="Fixed reply. ">
<polygon fill="none" stroke="black" points="315.5,-693.5 315.5,-712.5 395.5,-712.5 395.5,-693.5 315.5,-693.5"/>
<text text-anchor="middle" x="355.5" y="-700.5" font-family="Helvetica,sans-Serif" font-size="10.00">handler::Reply</text>
</a>
</g>
</g>
<!-- Node2&#45;&gt;Node15 -->
<g id="edge14" class="edge"><title>Node2&#45;&gt;Node15</title>
<path fill="none" stroke="midnightblue" d="M246.451,-764.727C249.076,-763.253 251.624,-761.676 254,-760 273.012,-746.592 270.16,-734.149 290,-722 297.666,-717.306 306.555,-713.717 315.239,-710.992"/>
<polygon fill="midnightblue" stroke="midnightblue" points="244.701,-761.69 237.363,-769.332 247.865,-767.934 244.701,-761.69"/>
</g>
<!-- Node16 -->
<g id="node16" class="node"><title>Node16</title>
<g id="a_node16"><a xlink:href="classhandler_1_1SimpleAction.html" target="_top" xlink:title="A simple action sends a message to the same connection it came from. ">
<polygon fill="none" stroke="black" points="299.5,-446.5 299.5,-465.5 411.5,-465.5 411.5,-446.5 299.5,-446.5"/>
<text text-anchor="middle" x="355.5" y="-453.5" font-family="Helvetica,sans-Serif" font-size="10.00">handler::SimpleAction</text>
</a>
</g>
</g>
<!-- Node2&#45;&gt;Node16 -->
<g id="edge15" class="edge"><title>Node2&#45;&gt;Node16</title>
<path fill="none" stroke="midnightblue" d="M250.077,-763.729C251.476,-762.571 252.793,-761.33 254,-760 275.248,-736.589 338.1,-514.707 351.831,-465.594"/>
<polygon fill="midnightblue" stroke="midnightblue" points="247.768,-761.06 241.357,-769.496 251.629,-766.899 247.768,-761.06"/>
</g>
<!-- Node44 -->
<g id="node44" class="node"><title>Node44</title>
<g id="a_node44"><a xlink:href="classhandler_1_1Whois330.html" target="_top" xlink:title="Sets the global id based on a 330 reply from whois (IRC) ">
<polygon fill="none" stroke="black" points="306.5,-408.5 306.5,-427.5 404.5,-427.5 404.5,-408.5 306.5,-408.5"/>
<text text-anchor="middle" x="355.5" y="-415.5" font-family="Helvetica,sans-Serif" font-size="10.00">handler::Whois330</text>
</a>
</g>
</g>
<!-- Node2&#45;&gt;Node44 -->
<g id="edge43" class="edge"><title>Node2&#45;&gt;Node44</title>
<path fill="none" stroke="midnightblue" d="M251.428,-763.045C252.351,-762.087 253.213,-761.074 254,-760 339.433,-643.529 197.205,-547.695 290,-437 294.35,-431.811 300.039,-427.998 306.238,-425.204"/>
<polygon fill="midnightblue" stroke="midnightblue" points="249.092,-760.427 243.354,-769.334 253.394,-765.95 249.092,-760.427"/>
</g>
<!-- Node6 -->
<g id="node6" class="node"><title>Node6</title>
<g id="a_node6"><a xlink:href="classhandler_1_1CtcpClientInfo.html" target="_top" xlink:title="Shows help about other CTCP handlers. ">
<polygon fill="none" stroke="black" points="460.5,-978.5 460.5,-997.5 577.5,-997.5 577.5,-978.5 460.5,-978.5"/>
<text text-anchor="middle" x="519" y="-985.5" font-family="Helvetica,sans-Serif" font-size="10.00">handler::CtcpClientInfo</text>
</a>
</g>
</g>
<!-- Node5&#45;&gt;Node6 -->
<g id="edge5" class="edge"><title>Node5&#45;&gt;Node6</title>
<path fill="none" stroke="midnightblue" d="M413.558,-868.334C416.215,-870.006 418.719,-871.886 421,-874 454.114,-904.695 424.125,-938.049 457,-969 461.119,-972.878 466.017,-975.965 471.222,-978.422"/>
<polygon fill="midnightblue" stroke="midnightblue" points="415.123,-865.203 404.639,-863.674 411.881,-871.407 415.123,-865.203"/>
</g>
<!-- Node7 -->
<g id="node7" class="node"><title>Node7</title>
<g id="a_node7"><a xlink:href="classhandler_1_1CtcpPing.html" target="_top" xlink:title="CTCP PING reply, Used to measure round&#45;trip message delays. ">
<polygon fill="none" stroke="black" points="471.5,-940.5 471.5,-959.5 566.5,-959.5 566.5,-940.5 471.5,-940.5"/>
<text text-anchor="middle" x="519" y="-947.5" font-family="Helvetica,sans-Serif" font-size="10.00">handler::CtcpPing</text>
</a>
</g>
</g>
<!-- Node5&#45;&gt;Node7 -->
<g id="edge6" class="edge"><title>Node5&#45;&gt;Node7</title>
<path fill="none" stroke="midnightblue" d="M413.074,-868.911C415.855,-870.435 418.519,-872.125 421,-874 444.908,-892.061 433.233,-912.755 457,-931 462.015,-934.85 467.821,-937.927 473.817,-940.386"/>
<polygon fill="midnightblue" stroke="midnightblue" points="414.412,-865.673 403.873,-864.588 411.436,-872.009 414.412,-865.673"/>
</g>
<!-- Node8 -->
<g id="node8" class="node"><title>Node8</title>
<g id="a_node8"><a xlink:href="classhandler_1_1CtcpSource.html" target="_top" xlink:title="CTCP SOURCE reply, shows a URL with the sources. ">
<polygon fill="none" stroke="black" points="466,-902.5 466,-921.5 572,-921.5 572,-902.5 466,-902.5"/>
<text text-anchor="middle" x="519" y="-909.5" font-family="Helvetica,sans-Serif" font-size="10.00">handler::CtcpSource</text>
</a>
</g>
</g>
<!-- Node5&#45;&gt;Node8 -->
<g id="edge7" class="edge"><title>Node5&#45;&gt;Node8</title>
<path fill="none" stroke="midnightblue" d="M402.985,-867.482C409.109,-869.478 415.251,-871.664 421,-874 437.76,-880.812 440.293,-886.058 457,-893 465.399,-896.49 474.677,-899.693 483.407,-902.436"/>
<polygon fill="midnightblue" stroke="midnightblue" points="404.023,-864.139 393.434,-864.506 401.94,-870.822 404.023,-864.139"/>
</g>
<!-- Node9 -->
<g id="node9" class="node"><title>Node9</title>
<g id="a_node9"><a xlink:href="classhandler_1_1CtcpTime.html" target="_top" xlink:title="CTCP TIME reply, Shows the local time. ">
<polygon fill="none" stroke="black" points="470.5,-864.5 470.5,-883.5 567.5,-883.5 567.5,-864.5 470.5,-864.5"/>
<text text-anchor="middle" x="519" y="-871.5" font-family="Helvetica,sans-Serif" font-size="10.00">handler::CtcpTime</text>
</a>
</g>
</g>
<!-- Node5&#45;&gt;Node9 -->
<g id="edge8" class="edge"><title>Node5&#45;&gt;Node9</title>
<path fill="none" stroke="midnightblue" d="M414.51,-861.825C432.86,-863.984 452.916,-866.343 470.445,-868.405"/>
<polygon fill="midnightblue" stroke="midnightblue" points="414.859,-858.342 404.518,-860.649 414.041,-865.294 414.859,-858.342"/>
</g>
<!-- Node10 -->
<g id="node10" class="node"><title>Node10</title>
<g id="a_node10"><a xlink:href="classhandler_1_1CtcpUserInfo.html" target="_top" xlink:title="CTCP USERINFO reply, shows a user&#45;defined string. ">
<polygon fill="none" stroke="black" points="462.5,-826.5 462.5,-845.5 575.5,-845.5 575.5,-826.5 462.5,-826.5"/>
<text text-anchor="middle" x="519" y="-833.5" font-family="Helvetica,sans-Serif" font-size="10.00">handler::CtcpUserInfo</text>
</a>
</g>
</g>
<!-- Node5&#45;&gt;Node10 -->
<g id="edge9" class="edge"><title>Node5&#45;&gt;Node10</title>
<path fill="none" stroke="midnightblue" d="M414.522,-848.174C430.053,-846.347 446.806,-844.376 462.213,-842.563"/>
<polygon fill="midnightblue" stroke="midnightblue" points="414.041,-844.706 404.518,-849.351 414.859,-851.658 414.041,-844.706"/>
</g>
<!-- Node11 -->
<g id="node11" class="node"><title>Node11</title>
<g id="a_node11"><a xlink:href="classhandler_1_1CtcpVersion.html" target="_top" xlink:title="CTCP VERSION reply, shows a pre&#45;formatted version string. ">
<polygon fill="none" stroke="black" points="465,-788.5 465,-807.5 573,-807.5 573,-788.5 465,-788.5"/>
<text text-anchor="middle" x="519" y="-795.5" font-family="Helvetica,sans-Serif" font-size="10.00">handler::CtcpVersion</text>
</a>
</g>
</g>
<!-- Node5&#45;&gt;Node11 -->
<g id="edge10" class="edge"><title>Node5&#45;&gt;Node11</title>
<path fill="none" stroke="midnightblue" d="M402.985,-842.518C409.109,-840.522 415.251,-838.336 421,-836 437.76,-829.188 440.293,-823.942 457,-817 465.399,-813.51 474.677,-810.307 483.407,-807.564"/>
<polygon fill="midnightblue" stroke="midnightblue" points="401.94,-839.178 393.434,-845.494 404.023,-845.861 401.94,-839.178"/>
</g>
<!-- Node17 -->
<g id="node17" class="node"><title>Node17</title>
<g id="a_node17"><a xlink:href="classhandler_1_1AdminJoin.html" target="_top" xlink:title="Makes the bot join channels (IRC) ">
<polygon fill="none" stroke="black" points="469,-750.5 469,-769.5 569,-769.5 569,-750.5 469,-750.5"/>
<text text-anchor="middle" x="519" y="-757.5" font-family="Helvetica,sans-Serif" font-size="10.00">handler::AdminJoin</text>
</a>
</g>
</g>
<!-- Node16&#45;&gt;Node17 -->
<g id="edge16" class="edge"><title>Node16&#45;&gt;Node17</title>
<path fill="none" stroke="midnightblue" d="M361.042,-475.814C374.739,-533.987 417.154,-702.604 457,-741 460.994,-744.848 465.754,-747.918 470.83,-750.367"/>
<polygon fill="midnightblue" stroke="midnightblue" points="364.369,-474.671 358.694,-465.724 357.551,-476.257 364.369,-474.671"/>
</g>
<!-- Node18 -->
<g id="node18" class="node"><title>Node18</title>
<g id="a_node18"><a xlink:href="classhandler_1_1AdminNick.html" target="_top" xlink:title="Changes the bot nick (IRC) ">
<polygon fill="none" stroke="black" points="468,-712.5 468,-731.5 570,-731.5 570,-712.5 468,-712.5"/>
<text text-anchor="middle" x="519" y="-719.5" font-family="Helvetica,sans-Serif" font-size="10.00">handler::AdminNick</text>
</a>
</g>
</g>
<!-- Node16&#45;&gt;Node18 -->
<g id="edge17" class="edge"><title>Node16&#45;&gt;Node18</title>
<path fill="none" stroke="midnightblue" d="M358.806,-475.668C365.305,-522.149 388.032,-639.625 457,-703 461.247,-706.903 466.286,-710.004 471.619,-712.468"/>
<polygon fill="midnightblue" stroke="midnightblue" points="362.269,-475.156 357.513,-465.688 355.327,-476.055 362.269,-475.156"/>
</g>
<!-- Node19 -->
<g id="node19" class="node"><title>Node19</title>
<g id="a_node19"><a xlink:href="classhandler_1_1AdminPart.html" target="_top" xlink:title="Makes the bot part channels (IRC) ">
<polygon fill="none" stroke="black" points="469,-674.5 469,-693.5 569,-693.5 569,-674.5 469,-674.5"/>
<text text-anchor="middle" x="519" y="-681.5" font-family="Helvetica,sans-Serif" font-size="10.00">handler::AdminPart</text>
</a>
</g>
</g>
<!-- Node16&#45;&gt;Node19 -->
<g id="edge18" class="edge"><title>Node16&#45;&gt;Node19</title>
<path fill="none" stroke="midnightblue" d="M360.367,-475.388C369.578,-516.504 396.705,-612.937 457,-665 461.534,-668.915 466.869,-672.023 472.465,-674.491"/>
<polygon fill="midnightblue" stroke="midnightblue" points="363.778,-474.603 358.273,-465.55 356.931,-476.06 363.778,-474.603"/>
</g>
<!-- Node20 -->
<g id="node20" class="node"><title>Node20</title>
<g id="a_node20"><a xlink:href="classhandler_1_1AdminQuit.html" target="_top" xlink:title="Quits the bot. ">
<polygon fill="none" stroke="black" points="469,-636.5 469,-655.5 569,-655.5 569,-636.5 469,-636.5"/>
<text text-anchor="middle" x="519" y="-643.5" font-family="Helvetica,sans-Serif" font-size="10.00">handler::AdminQuit</text>
</a>
</g>
</g>
<!-- Node16&#45;&gt;Node20 -->
<g id="edge19" class="edge"><title>Node16&#45;&gt;Node20</title>
<path fill="none" stroke="midnightblue" d="M362.64,-475.446C374.821,-510.881 405.417,-586.074 457,-627 461.866,-630.861 467.522,-633.942 473.39,-636.399"/>
<polygon fill="midnightblue" stroke="midnightblue" points="365.915,-474.2 359.448,-465.807 359.269,-476.401 365.915,-474.2"/>
</g>
<!-- Node21 -->
<g id="node21" class="node"><title>Node21</title>
<g id="a_node21"><a xlink:href="classhandler_1_1AdminRaw.html" target="_top" xlink:title="Makes the bot execute a raw command (IRC) ">
<polygon fill="none" stroke="black" points="468,-598.5 468,-617.5 570,-617.5 570,-598.5 468,-598.5"/>
<text text-anchor="middle" x="519" y="-605.5" font-family="Helvetica,sans-Serif" font-size="10.00">handler::AdminRaw</text>
</a>
</g>
</g>
<!-- Node16&#45;&gt;Node21 -->
<g id="edge20" class="edge"><title>Node16&#45;&gt;Node21</title>
<path fill="none" stroke="midnightblue" d="M365.693,-474.667C380.8,-503.436 413.586,-558.474 457,-589 462.535,-592.892 468.896,-596.008 475.374,-598.496"/>
<polygon fill="midnightblue" stroke="midnightblue" points="368.763,-472.983 361.098,-465.669 362.529,-476.167 368.763,-472.983"/>
</g>
<!-- Node22 -->
<g id="node22" class="node"><title>Node22</title>
<g id="a_node22"><a xlink:href="classhandler_1_1Cointoss.html" target="_top" xlink:title="Shows one of the given items, at random. ">
<polygon fill="none" stroke="black" points="472.5,-560.5 472.5,-579.5 565.5,-579.5 565.5,-560.5 472.5,-560.5"/>
<text text-anchor="middle" x="519" y="-567.5" font-family="Helvetica,sans-Serif" font-size="10.00">handler::Cointoss</text>
</a>
</g>
</g>
<!-- Node16&#45;&gt;Node22 -->
<g id="edge21" class="edge"><title>Node16&#45;&gt;Node22</title>
<path fill="none" stroke="midnightblue" d="M370.541,-473.461C388.481,-494.679 421.488,-530.212 457,-551 463.509,-554.811 470.865,-557.937 478.157,-560.475"/>
<polygon fill="midnightblue" stroke="midnightblue" points="373.091,-471.052 364.017,-465.582 367.699,-475.517 373.091,-471.052"/>
</g>
<!-- Node23 -->
<g id="node23" class="node"><title>Node23</title>
<g id="a_node23"><a xlink:href="classhandler_1_1Echo.html" target="_top" xlink:title="Just repeat what it has been told. ">
<polygon fill="none" stroke="black" points="480.5,-522.5 480.5,-541.5 557.5,-541.5 557.5,-522.5 480.5,-522.5"/>
<text text-anchor="middle" x="519" y="-529.5" font-family="Helvetica,sans-Serif" font-size="10.00">handler::Echo</text>
</a>
</g>
</g>
<!-- Node16&#45;&gt;Node23 -->
<g id="edge22" class="edge"><title>Node16&#45;&gt;Node23</title>
<path fill="none" stroke="midnightblue" d="M379.639,-471.019C399.55,-483.474 429.354,-501.019 457,-513 465.142,-516.528 474.152,-519.707 482.693,-522.41"/>
<polygon fill="midnightblue" stroke="midnightblue" points="381.292,-467.922 370.971,-465.526 377.545,-473.835 381.292,-467.922"/>
</g>
<!-- Node24 -->
<g id="node24" class="node"><title>Node24</title>
<g id="a_node24"><a xlink:href="classhandler_1_1Help.html" target="_top" xlink:title="Handler showing help on the available handlers. ">
<polygon fill="none" stroke="black" points="482,-484.5 482,-503.5 556,-503.5 556,-484.5 482,-484.5"/>
<text text-anchor="middle" x="519" y="-491.5" font-family="Helvetica,sans-Serif" font-size="10.00">handler::Help</text>
</a>
</g>
</g>
<!-- Node16&#45;&gt;Node24 -->
<g id="edge23" class="edge"><title>Node16&#45;&gt;Node24</title>
<path fill="none" stroke="midnightblue" d="M407.023,-467.888C431.317,-473.604 459.876,-480.324 481.938,-485.515"/>
<polygon fill="midnightblue" stroke="midnightblue" points="407.789,-464.473 397.253,-465.589 406.186,-471.286 407.789,-464.473"/>
</g>
<!-- Node25 -->
<g id="node25" class="node"><title>Node25</title>
<g id="a_node25"><a xlink:href="classhandler_1_1License.html" target="_top" xlink:title="Handler showing licensing information. ">
<polygon fill="none" stroke="black" points="475,-446.5 475,-465.5 563,-465.5 563,-446.5 475,-446.5"/>
<text text-anchor="middle" x="519" y="-453.5" font-family="Helvetica,sans-Serif" font-size="10.00">handler::License</text>
</a>
</g>
</g>
<!-- Node16&#45;&gt;Node25 -->
<g id="edge24" class="edge"><title>Node16&#45;&gt;Node25</title>
<path fill="none" stroke="midnightblue" d="M421.966,-456C439.773,-456 458.61,-456 474.839,-456"/>
<polygon fill="midnightblue" stroke="midnightblue" points="421.627,-452.5 411.627,-456 421.627,-459.5 421.627,-452.5"/>
</g>
<!-- Node26 -->
<g id="node26" class="node"><title>Node26</title>
<g id="a_node26"><a xlink:href="classhandler_1_1ListClear.html" target="_top" xlink:title="Used by AbstractList to remove all elements. ">
<polygon fill="none" stroke="black" points="472.5,-408.5 472.5,-427.5 565.5,-427.5 565.5,-408.5 472.5,-408.5"/>
<text text-anchor="middle" x="519" y="-415.5" font-family="Helvetica,sans-Serif" font-size="10.00">handler::ListClear</text>
</a>
</g>
</g>
<!-- Node16&#45;&gt;Node26 -->
<g id="edge25" class="edge"><title>Node16&#45;&gt;Node26</title>
<path fill="none" stroke="midnightblue" d="M407.058,-444.104C429.759,-438.763 456.178,-432.546 477.54,-427.52"/>
<polygon fill="midnightblue" stroke="midnightblue" points="406.186,-440.714 397.253,-446.411 407.789,-447.527 406.186,-440.714"/>
</g>
<!-- Node27 -->
<g id="node27" class="node"><title>Node27</title>
<g id="a_node27"><a xlink:href="classhandler_1_1ListInsert.html" target="_top" xlink:title="Used by AbstractList to add elements. ">
<polygon fill="none" stroke="black" points="471.5,-370.5 471.5,-389.5 566.5,-389.5 566.5,-370.5 471.5,-370.5"/>
<text text-anchor="middle" x="519" y="-377.5" font-family="Helvetica,sans-Serif" font-size="10.00">handler::ListInsert</text>
</a>
</g>
</g>
<!-- Node16&#45;&gt;Node27 -->
<g id="edge26" class="edge"><title>Node16&#45;&gt;Node27</title>
<path fill="none" stroke="midnightblue" d="M410.103,-442.659C413.895,-440.979 417.57,-439.1 421,-437 440.84,-424.851 437.254,-411.302 457,-399 463.119,-395.187 470.064,-392.086 477.02,-389.58"/>
<polygon fill="midnightblue" stroke="midnightblue" points="408.533,-439.515 400.509,-446.434 411.096,-446.029 408.533,-439.515"/>
</g>
<!-- Node28 -->
<g id="node28" class="node"><title>Node28</title>
<g id="a_node28"><a xlink:href="classhandler_1_1ListRemove.html" target="_top" xlink:title="Used by AbstractList to remove elements. ">
<polygon fill="none" stroke="black" points="465.5,-332.5 465.5,-351.5 572.5,-351.5 572.5,-332.5 465.5,-332.5"/>
<text text-anchor="middle" x="519" y="-339.5" font-family="Helvetica,sans-Serif" font-size="10.00">handler::ListRemove</text>
</a>
</g>
</g>
<!-- Node16&#45;&gt;Node28 -->
<g id="edge27" class="edge"><title>Node16&#45;&gt;Node28</title>
<path fill="none" stroke="midnightblue" d="M414.667,-441.64C416.896,-440.235 419.02,-438.693 421,-437 449.406,-412.71 428.782,-385.509 457,-361 461.438,-357.145 466.654,-354.072 472.134,-351.622"/>
<polygon fill="midnightblue" stroke="midnightblue" points="412.846,-438.643 405.636,-446.405 416.113,-444.834 412.846,-438.643"/>
</g>
<!-- Node29 -->
<g id="node29" class="node"><title>Node29</title>
<g id="a_node29"><a xlink:href="classhandler_1_1Morse.html" target="_top" xlink:title="Handler translating between morse and latin. ">
<polygon fill="none" stroke="black" points="478.5,-294.5 478.5,-313.5 559.5,-313.5 559.5,-294.5 478.5,-294.5"/>
<text text-anchor="middle" x="519" y="-301.5" font-family="Helvetica,sans-Serif" font-size="10.00">handler::Morse</text>
</a>
</g>
</g>
<!-- Node16&#45;&gt;Node29 -->
<g id="edge28" class="edge"><title>Node16&#45;&gt;Node29</title>
<path fill="none" stroke="midnightblue" d="M416.304,-441.005C417.959,-439.773 419.531,-438.441 421,-437 458.933,-399.796 419.356,-360.497 457,-323 462.894,-317.129 470.57,-313.067 478.478,-310.259"/>
<polygon fill="midnightblue" stroke="midnightblue" points="414.186,-438.196 407.444,-446.368 417.811,-444.184 414.186,-438.196"/>
</g>
<!-- Node30 -->
<g id="node30" class="node"><title>Node30</title>
<g id="a_node30"><a xlink:href="classhandler_1_1RenderPony.html" target="_top" xlink:title="Draws a pretty My Little Pony ASCII art. ">
<polygon fill="none" stroke="black" points="465,-256.5 465,-275.5 573,-275.5 573,-256.5 465,-256.5"/>
<text text-anchor="middle" x="519" y="-263.5" font-family="Helvetica,sans-Serif" font-size="10.00">handler::RenderPony</text>
</a>
</g>
</g>
<!-- Node16&#45;&gt;Node30 -->
<g id="edge29" class="edge"><title>Node16&#45;&gt;Node30</title>
<path fill="none" stroke="midnightblue" d="M416.547,-441.061C418.124,-439.813 419.615,-438.462 421,-437 468.749,-386.604 409.642,-335.764 457,-285 460.632,-281.107 465.046,-278.006 469.822,-275.536"/>
<polygon fill="midnightblue" stroke="midnightblue" points="414.59,-438.158 408.045,-446.489 418.357,-444.058 414.59,-438.158"/>
</g>
<!-- Node31 -->
<g id="node31" class="node"><title>Node31</title>
<g id="a_node31"><a xlink:href="classhandler_1_1ReverseText.html" target="_top" xlink:title="Turns ASCII characters upside&#45;down. ">
<polygon fill="none" stroke="black" points="464,-218.5 464,-237.5 574,-237.5 574,-218.5 464,-218.5"/>
<text text-anchor="middle" x="519" y="-225.5" font-family="Helvetica,sans-Serif" font-size="10.00">handler::ReverseText</text>
</a>
</g>
</g>
<!-- Node16&#45;&gt;Node31 -->
<g id="edge30" class="edge"><title>Node16&#45;&gt;Node31</title>
<path fill="none" stroke="midnightblue" d="M417.112,-440.745C418.487,-439.585 419.788,-438.339 421,-437 478.685,-373.287 399.81,-311.157 457,-247 460.469,-243.108 464.72,-240.005 469.35,-237.532"/>
<polygon fill="midnightblue" stroke="midnightblue" points="414.895,-438.017 408.536,-446.491 418.792,-443.832 414.895,-438.017"/>
</g>
<!-- Node32 -->
<g id="node32" class="node"><title>Node32</title>
<g id="a_node32"><a xlink:href="classhandler_1_1ServerHost.html" target="_top" xlink:title="Shows the server the bot is connected to. ">
<polygon fill="none" stroke="black" points="467,-180.5 467,-199.5 571,-199.5 571,-180.5 467,-180.5"/>
<text text-anchor="middle" x="519" y="-187.5" font-family="Helvetica,sans-Serif" font-size="10.00">handler::ServerHost</text>
</a>
</g>
</g>
<!-- Node16&#45;&gt;Node32 -->
<g id="edge31" class="edge"><title>Node16&#45;&gt;Node32</title>
<path fill="none" stroke="midnightblue" d="M417.257,-440.715C418.583,-439.563 419.835,-438.327 421,-437 488.681,-359.905 389.918,-286.617 457,-209 460.336,-205.14 464.443,-202.053 468.936,-199.587"/>
<polygon fill="midnightblue" stroke="midnightblue" points="415.212,-437.874 408.967,-446.432 419.186,-443.637 415.212,-437.874"/>
</g>
<!-- Node33 -->
<g id="node33" class="node"><title>Node33</title>
<g id="a_node33"><a xlink:href="classhandler_1_1SimpleGroup.html" target="_top" xlink:title="A simple group of actions which share settings. ">
<polygon fill="none" stroke="black" points="464,-142.5 464,-161.5 574,-161.5 574,-142.5 464,-142.5"/>
<text text-anchor="middle" x="519" y="-149.5" font-family="Helvetica,sans-Serif" font-size="10.00">handler::SimpleGroup</text>
</a>
</g>
</g>
<!-- Node16&#45;&gt;Node33 -->
<g id="edge32" class="edge"><title>Node16&#45;&gt;Node33</title>
<path fill="none" stroke="midnightblue" d="M417.733,-440.357C418.886,-439.308 419.978,-438.19 421,-437 498.712,-346.483 379.991,-262.116 457,-171 460.294,-167.103 464.373,-163.993 468.85,-161.513"/>
<polygon fill="midnightblue" stroke="midnightblue" points="415.464,-437.677 409.361,-446.338 419.533,-443.373 415.464,-437.677"/>
</g>
<!-- Node36 -->
<g id="node36" class="node"><title>Node36</title>
<g id="a_node36"><a xlink:href="classhandler_1_1SimpleWebApi.html" target="_top" xlink:title="Simple base class for handlers calling web resources. ">
<polygon fill="none" stroke="black" points="459.5,-104.5 459.5,-123.5 578.5,-123.5 578.5,-104.5 459.5,-104.5"/>
<text text-anchor="middle" x="519" y="-111.5" font-family="Helvetica,sans-Serif" font-size="10.00">handler::SimpleWebApi</text>
</a>
</g>
</g>
<!-- Node16&#45;&gt;Node36 -->
<g id="edge35" class="edge"><title>Node16&#45;&gt;Node36</title>
<path fill="none" stroke="midnightblue" d="M417.76,-440.38C418.905,-439.324 419.988,-438.199 421,-437 508.763,-333.036 370.044,-237.641 457,-133 460.19,-129.161 464.144,-126.085 468.493,-123.621"/>
<polygon fill="midnightblue" stroke="midnightblue" points="415.488,-437.704 409.427,-446.394 419.584,-443.38 415.488,-437.704"/>
</g>
<!-- Node43 -->
<g id="node43" class="node"><title>Node43</title>
<g id="a_node43"><a xlink:href="classhandler_1_1WhoisCheckMe.html" target="_top" xlink:title="Sends a WHOIS about the message sender. ">
<polygon fill="none" stroke="black" points="457,-66.5 457,-85.5 581,-85.5 581,-66.5 457,-66.5"/>
<text text-anchor="middle" x="519" y="-73.5" font-family="Helvetica,sans-Serif" font-size="10.00">handler::WhoisCheckMe</text>
</a>
</g>
</g>
<!-- Node16&#45;&gt;Node43 -->
<g id="edge42" class="edge"><title>Node16&#45;&gt;Node43</title>
<path fill="none" stroke="midnightblue" d="M417.781,-440.398C418.92,-439.336 419.996,-438.205 421,-437 518.83,-319.572 360.082,-213.182 457,-95 460.165,-91.1404 464.102,-88.0506 468.442,-85.5793"/>
<polygon fill="midnightblue" stroke="midnightblue" points="415.506,-437.724 409.479,-446.438 419.625,-443.385 415.506,-437.724"/>
</g>
<!-- Node34 -->
<g id="node34" class="node"><title>Node34</title>
<g id="a_node34"><a xlink:href="classhandler_1_1AbstractList.html" target="_top" xlink:title="Handles a list of elements (base class) ">
<polygon fill="none" stroke="black" points="617,-180.5 617,-199.5 724,-199.5 724,-180.5 617,-180.5"/>
<text text-anchor="middle" x="670.5" y="-187.5" font-family="Helvetica,sans-Serif" font-size="10.00">handler::AbstractList</text>
</a>
</g>
</g>
<!-- Node33&#45;&gt;Node34 -->
<g id="edge33" class="edge"><title>Node33&#45;&gt;Node34</title>
<path fill="none" stroke="midnightblue" d="M567.652,-164.112C588.473,-169.404 612.538,-175.521 632.046,-180.48"/>
<polygon fill="midnightblue" stroke="midnightblue" points="568.279,-160.66 557.725,-161.589 566.555,-167.445 568.279,-160.66"/>
</g>
<!-- Node35 -->
<g id="node35" class="node"><title>Node35</title>
<g id="a_node35"><a xlink:href="classhandler_1_1AdminGroup.html" target="_top" xlink:title="Manages a user group. ">
<polygon fill="none" stroke="black" points="779,-190.5 779,-209.5 887,-209.5 887,-190.5 779,-190.5"/>
<text text-anchor="middle" x="833" y="-197.5" font-family="Helvetica,sans-Serif" font-size="10.00">handler::AdminGroup</text>
</a>
</g>
</g>
<!-- Node34&#45;&gt;Node35 -->
<g id="edge34" class="edge"><title>Node34&#45;&gt;Node35</title>
<path fill="none" stroke="midnightblue" d="M734.114,-193.901C748.876,-194.821 764.476,-195.793 778.779,-196.684"/>
<polygon fill="midnightblue" stroke="midnightblue" points="734.252,-190.403 724.054,-193.274 733.817,-197.39 734.252,-190.403"/>
</g>
<!-- Node37 -->
<g id="node37" class="node"><title>Node37</title>
<g id="a_node37"><a xlink:href="classhandler_1_1SimpleJson.html" target="_top" xlink:title="Simple base class for handlers using AJAX web APIs. ">
<polygon fill="none" stroke="black" points="618,-85.5 618,-104.5 723,-104.5 723,-85.5 618,-85.5"/>
<text text-anchor="middle" x="670.5" y="-92.5" font-family="Helvetica,sans-Serif" font-size="10.00">handler::SimpleJson</text>
</a>
</g>
</g>
<!-- Node36&#45;&gt;Node37 -->
<g id="edge36" class="edge"><title>Node36&#45;&gt;Node37</title>
<path fill="none" stroke="midnightblue" d="M588.76,-105.261C598.529,-104.02 608.436,-102.761 617.807,-101.57"/>
<polygon fill="midnightblue" stroke="midnightblue" points="588.136,-101.812 578.657,-106.545 589.019,-108.756 588.136,-101.812"/>
</g>
<!-- Node38 -->
<g id="node38" class="node"><title>Node38</title>
<g id="a_node38"><a xlink:href="classhandler_1_1ChuckNorris.html" target="_top" xlink:title="Searches for a Chuck Norris joke. ">
<polygon fill="none" stroke="black" points="778.5,-152.5 778.5,-171.5 887.5,-171.5 887.5,-152.5 778.5,-152.5"/>
<text text-anchor="middle" x="833" y="-159.5" font-family="Helvetica,sans-Serif" font-size="10.00">handler::ChuckNorris</text>
</a>
</g>
</g>
<!-- Node37&#45;&gt;Node38 -->
<g id="edge37" class="edge"><title>Node37&#45;&gt;Node38</title>
<path fill="none" stroke="midnightblue" d="M695.51,-110.065C712.895,-120.459 737.242,-133.976 760,-143 769.133,-146.621 779.19,-149.767 788.816,-152.401"/>
<polygon fill="midnightblue" stroke="midnightblue" points="696.986,-106.866 686.623,-104.661 693.349,-112.847 696.986,-106.866"/>
</g>
<!-- Node39 -->
<g id="node39" class="node"><title>Node39</title>
<g id="a_node39"><a xlink:href="classhandler_1_1SearchImageGoogle.html" target="_top" xlink:title="Handler searching images with Google. ">
<polygon fill="none" stroke="black" points="761.5,-114.5 761.5,-133.5 904.5,-133.5 904.5,-114.5 761.5,-114.5"/>
<text text-anchor="middle" x="833" y="-121.5" font-family="Helvetica,sans-Serif" font-size="10.00">handler::SearchImageGoogle</text>
</a>
</g>
</g>
<!-- Node37&#45;&gt;Node39 -->
<g id="edge38" class="edge"><title>Node37&#45;&gt;Node39</title>
<path fill="none" stroke="midnightblue" d="M733.037,-106.119C748.304,-108.877 764.528,-111.809 779.328,-114.483"/>
<polygon fill="midnightblue" stroke="midnightblue" points="733.63,-102.669 723.167,-104.335 732.385,-109.558 733.63,-102.669"/>
</g>
<!-- Node40 -->
<g id="node40" class="node"><title>Node40</title>
<g id="a_node40"><a xlink:href="classhandler_1_1SearchVideoYoutube.html" target="_top" xlink:title="Handler searching a video on Youtube. ">
<polygon fill="none" stroke="black" points="760,-76.5 760,-95.5 906,-95.5 906,-76.5 760,-76.5"/>
<text text-anchor="middle" x="833" y="-83.5" font-family="Helvetica,sans-Serif" font-size="10.00">handler::SearchVideoYoutube</text>
</a>
</g>
</g>
<!-- Node37&#45;&gt;Node40 -->
<g id="edge39" class="edge"><title>Node37&#45;&gt;Node40</title>
<path fill="none" stroke="midnightblue" d="M733.259,-91.5369C742.001,-91.0467 751.052,-90.5392 759.966,-90.0393"/>
<polygon fill="midnightblue" stroke="midnightblue" points="732.955,-88.0483 723.167,-92.1028 733.347,-95.0374 732.955,-88.0483"/>
</g>
<!-- Node41 -->
<g id="node41" class="node"><title>Node41</title>
<g id="a_node41"><a xlink:href="classhandler_1_1SearchWebSearx.html" target="_top" xlink:title="Handler searching a web page using Searx. ">
<polygon fill="none" stroke="black" points="767.5,-38.5 767.5,-57.5 898.5,-57.5 898.5,-38.5 767.5,-38.5"/>
<text text-anchor="middle" x="833" y="-45.5" font-family="Helvetica,sans-Serif" font-size="10.00">handler::SearchWebSearx</text>
</a>
</g>
</g>
<!-- Node37&#45;&gt;Node41 -->
<g id="edge40" class="edge"><title>Node37&#45;&gt;Node41</title>
<path fill="none" stroke="midnightblue" d="M710.226,-82.3006C725.662,-77.3562 743.621,-71.749 760,-67 771.175,-63.7598 783.391,-60.4496 794.536,-57.519"/>
<polygon fill="midnightblue" stroke="midnightblue" points="708.934,-79.0397 700.49,-85.4384 711.081,-85.7023 708.934,-79.0397"/>
</g>
<!-- Node42 -->
<g id="node42" class="node"><title>Node42</title>
<g id="a_node42"><a xlink:href="classhandler_1_1UrbanDictionary.html" target="_top" xlink:title="Handler searching a definition on Urban Dictionary. ">
<polygon fill="none" stroke="black" points="770.5,-0.5 770.5,-19.5 895.5,-19.5 895.5,-0.5 770.5,-0.5"/>
<text text-anchor="middle" x="833" y="-7.5" font-family="Helvetica,sans-Serif" font-size="10.00">handler::UrbanDictionary</text>
</a>
</g>
</g>
<!-- Node37&#45;&gt;Node42 -->
<g id="edge41" class="edge"><title>Node37&#45;&gt;Node42</title>
<path fill="none" stroke="midnightblue" d="M689.002,-78.718C705.956,-63.7691 732.999,-42.0231 760,-29 767.918,-25.181 776.71,-22.0503 785.352,-19.5116"/>
<polygon fill="midnightblue" stroke="midnightblue" points="686.623,-76.1502 681.533,-85.4426 691.307,-81.3522 686.623,-76.1502"/>
</g>
</g>
</svg>
        <g id="navigator" transform="translate(0 0)" fill="#404254">
                <rect fill="#f2f5e9" fill-opacity="0.5" stroke="#606060" stroke-width=".5" x="0" y="0" width="60" height="60"/>
                <use id="zoomplus" xlink:href="#zoomPlus" x="17" y="9" onmousedown="handleZoom(evt,'in')"/>
                <use id="zoomminus" xlink:href="#zoomMin" x="42" y="9" onmousedown="handleZoom(evt,'out')"/>
                <use id="reset" xlink:href="#resetDef" x="30" y="36" onmousedown="handleReset()"/>
                <g id="arrowUp" xlink:href="#dirArrow" transform="translate(30 24)" onmousedown="handlePan(0,-1)">
                  <use xlink:href="#rim" fill="#404040">
                        <set attributeName="fill" to="#808080" begin="arrowUp.mouseover" end="arrowUp.mouseout"/>
                  </use>
                  <path fill="none" stroke="white" stroke-width="1.5" d="M0,-3.0v7 M-2.5,-0.5L0,-3.0L2.5,-0.5"/>
                </g>
                <g id="arrowRight" xlink:href="#dirArrow" transform="rotate(90) translate(36 -43)" onmousedown="handlePan(1,0)">
                  <use xlink:href="#rim" fill="#404040">
                        <set attributeName="fill" to="#808080" begin="arrowRight.mouseover" end="arrowRight.mouseout"/>
                  </use>
                  <path fill="none" stroke="white" stroke-width="1.5" d="M0,-3.0v7 M-2.5,-0.5L0,-3.0L2.5,-0.5"/>
                </g>
                <g id="arrowDown" xlink:href="#dirArrow" transform="rotate(180) translate(-30 -48)" onmousedown="handlePan(0,1)">
                  <use xlink:href="#rim" fill="#404040">
                        <set attributeName="fill" to="#808080" begin="arrowDown.mouseover" end="arrowDown.mouseout"/>
                  </use>
                  <path fill="none" stroke="white" stroke-width="1.5" d="M0,-3.0v7 M-2.5,-0.5L0,-3.0L2.5,-0.5"/>
                </g>
                <g id="arrowLeft" xlink:href="#dirArrow" transform="rotate(270) translate(-36 17)" onmousedown="handlePan(-1,0)">
                  <use xlink:href="#rim" fill="#404040">
                        <set attributeName="fill" to="#808080" begin="arrowLeft.mouseover" end="arrowLeft.mouseout"/>
                  </use>
                  <path fill="none" stroke="white" stroke-width="1.5" d="M0,-3.0v7 M-2.5,-0.5L0,-3.0L2.5,-0.5"/>
                </g>
        </g>
        <svg viewBox="0 0 15 15" width="100%" height="30px" preserveAspectRatio="xMaxYMin meet">
         <g id="arrow_out" transform="scale(0.3 0.3)">
          <a xlink:href="classhandler_1_1HandlerContainer__inherit__graph_org.svg" target="_base">
           <rect id="button" ry="5" rx="5" y="6" x="6" height="38" width="38"
                fill="#f2f5e9" fill-opacity="0.5" stroke="#606060" stroke-width="1.0"/>
           <path id="arrow"
             d="M 11.500037,31.436501 C 11.940474,20.09759 22.043105,11.32322 32.158766,21.979434 L 37.068811,17.246167 C 37.068811,17.246167 37.088388,32 37.088388,32 L 22.160133,31.978069 C 22.160133,31.978069 26.997745,27.140456 26.997745,27.140456 C 18.528582,18.264221 13.291696,25.230495 11.500037,31.436501 z"
             style="fill:#404040;"/>
          </a>
         </g>
        </svg>
</svg>
