<?xml version="1.0" encoding="UTF-8" standalone="no"?>
<!DOCTYPE svg PUBLIC "-//W3C//DTD SVG 1.1//EN"
 "http://www.w3.org/Graphics/SVG/1.1/DTD/svg11.dtd">
<!-- Generated by graphviz version 2.38.0 (20140413.2041)
 -->
<!-- Title: network::irc::IrcConnection Pages: 1 -->
<svg width="957pt" height="217pt"
 viewBox="0.00 0.00 957.00 216.50" xmlns="http://www.w3.org/2000/svg" xmlns:xlink="http://www.w3.org/1999/xlink">
<g id="graph0" class="graph" transform="scale(1 1) rotate(0) translate(4 212.5)">
<title>network::irc::IrcConnection</title>
<!-- Node1 -->
<g id="node1" class="node"><title>Node1</title>
<polygon fill="#bfbfbf" stroke="black" points="651,-79.5 651,-98.5 785,-98.5 785,-79.5 651,-79.5"/>
<text text-anchor="middle" x="718" y="-86.5" font-family="Helvetica,sans-Serif" font-size="10.00">network::irc::IrcConnection</text>
</g>
<!-- Node7 -->
<g id="node7" class="node"><title>Node7</title>
<g id="a_node7"><a xlink:href="classnetwork_1_1irc_1_1Buffer.html" target="_top" xlink:title="IRC buffer. ">
<polygon fill="none" stroke="black" points="849,-113.5 849,-132.5 949,-132.5 949,-113.5 849,-113.5"/>
<text text-anchor="middle" x="899" y="-120.5" font-family="Helvetica,sans-Serif" font-size="10.00">network::irc::Buffer</text>
</a>
</g>
</g>
<!-- Node1&#45;&gt;Node7 -->
<g id="edge9" class="edge"><title>Node1&#45;&gt;Node7</title>
<path fill="none" stroke="#9a32cd" stroke-dasharray="5,2" d="M779.205,-100.436C801.898,-104.746 827.415,-109.593 848.966,-113.686"/>
<polygon fill="#9a32cd" stroke="#9a32cd" points="779.815,-96.989 769.338,-98.5614 778.509,-103.866 779.815,-96.989"/>
<text text-anchor="middle" x="817" y="-114" font-family="Helvetica,sans-Serif" font-size="10.00"> irc</text>
</g>
<!-- Node2 -->
<g id="node2" class="node"><title>Node2</title>
<g id="a_node2"><a xlink:href="classnetwork_1_1Connection.html" target="_top" xlink:title="Abstract service connection. ">
<polygon fill="none" stroke="black" points="414.5,-117.5 414.5,-136.5 521.5,-136.5 521.5,-117.5 414.5,-117.5"/>
<text text-anchor="middle" x="468" y="-124.5" font-family="Helvetica,sans-Serif" font-size="10.00">network::Connection</text>
</a>
</g>
</g>
<!-- Node2&#45;&gt;Node1 -->
<g id="edge1" class="edge"><title>Node2&#45;&gt;Node1</title>
<path fill="none" stroke="midnightblue" d="M531.62,-118.777C562.229,-114.615 599.583,-109.325 633,-104 643.533,-102.322 654.786,-100.401 665.52,-98.5065"/>
<polygon fill="midnightblue" stroke="midnightblue" points="530.955,-115.335 521.514,-120.144 531.893,-122.272 530.955,-115.335"/>
</g>
<!-- Node3 -->
<g id="node3" class="node"><title>Node3</title>
<g id="a_node3"><a xlink:href="classstring_1_1Formatter.html" target="_top" xlink:title="Abstract formatting visitor (and factory) ">
<polygon fill="none" stroke="black" points="423.5,-79.5 423.5,-98.5 512.5,-98.5 512.5,-79.5 423.5,-79.5"/>
<text text-anchor="middle" x="468" y="-86.5" font-family="Helvetica,sans-Serif" font-size="10.00">string::Formatter</text>
</a>
</g>
</g>
<!-- Node3&#45;&gt;Node1 -->
<g id="edge2" class="edge"><title>Node3&#45;&gt;Node1</title>
<path fill="none" stroke="#9a32cd" stroke-dasharray="5,2" d="M523.001,-89C560.554,-89 610.845,-89 650.812,-89"/>
<polygon fill="#9a32cd" stroke="#9a32cd" points="522.767,-85.5001 512.767,-89 522.767,-92.5001 522.767,-85.5001"/>
<text text-anchor="middle" x="600" y="-92" font-family="Helvetica,sans-Serif" font-size="10.00"> formatter_</text>
</g>
<!-- Node4 -->
<g id="node4" class="node"><title>Node4</title>
<g id="a_node4"><a xlink:href="classMelanobot.html" target="_top" xlink:title="Main bot class. ">
<polygon fill="none" stroke="black" points="437,-41.5 437,-60.5 499,-60.5 499,-41.5 437,-41.5"/>
<text text-anchor="middle" x="468" y="-48.5" font-family="Helvetica,sans-Serif" font-size="10.00">Melanobot</text>
</a>
</g>
</g>
<!-- Node4&#45;&gt;Node1 -->
<g id="edge3" class="edge"><title>Node4&#45;&gt;Node1</title>
<path fill="none" stroke="#9a32cd" stroke-dasharray="5,2" d="M509.512,-56.2527C542.741,-60.6643 590.983,-67.3046 633,-74 643.533,-75.6785 654.786,-77.5993 665.52,-79.4935"/>
<polygon fill="#9a32cd" stroke="#9a32cd" points="509.649,-52.7406 499.277,-54.9015 508.733,-59.6804 509.649,-52.7406"/>
<text text-anchor="middle" x="600" y="-77" font-family="Helvetica,sans-Serif" font-size="10.00"> bot</text>
</g>
<!-- Node5 -->
<g id="node5" class="node"><title>Node5</title>
<g id="a_node5"><a xlink:href="classConcurrentQueue.html" target="_top" xlink:title="ConcurrentQueue\&lt; network\l::Message \&gt;">
<polygon fill="none" stroke="black" points="165,-36 165,-66 302,-66 302,-36 165,-36"/>
<text text-anchor="start" x="173" y="-54" font-family="Helvetica,sans-Serif" font-size="10.00">ConcurrentQueue&lt; network</text>
<text text-anchor="middle" x="233.5" y="-43" font-family="Helvetica,sans-Serif" font-size="10.00">::Message &gt;</text>
</a>
</g>
</g>
<!-- Node5&#45;&gt;Node4 -->
<g id="edge4" class="edge"><title>Node5&#45;&gt;Node4</title>
<path fill="none" stroke="#9a32cd" stroke-dasharray="5,2" d="M312.181,-51C354.948,-51 405.568,-51 436.987,-51"/>
<polygon fill="#9a32cd" stroke="#9a32cd" points="312.061,-47.5001 302.061,-51 312.061,-54.5001 312.061,-47.5001"/>
<text text-anchor="middle" x="344.5" y="-54" font-family="Helvetica,sans-Serif" font-size="10.00"> messages</text>
</g>
<!-- Node6 -->
<g id="node6" class="node"><title>Node6</title>
<g id="a_node6"><a xlink:href="classConcurrentContainer.html" target="_top" xlink:title="ConcurrentContainer\l\&lt; std::queue\&lt; network\l::Message, Container \&gt; \&gt;">
<polygon fill="none" stroke="black" points="0,-30.5 0,-71.5 128,-71.5 128,-30.5 0,-30.5"/>
<text text-anchor="start" x="8" y="-59.5" font-family="Helvetica,sans-Serif" font-size="10.00">ConcurrentContainer</text>
<text text-anchor="start" x="8" y="-48.5" font-family="Helvetica,sans-Serif" font-size="10.00">&lt; std::queue&lt; network</text>
<text text-anchor="middle" x="64" y="-37.5" font-family="Helvetica,sans-Serif" font-size="10.00">::Message, Container &gt; &gt;</text>
</a>
</g>
</g>
<!-- Node6&#45;&gt;Node5 -->
<g id="edge5" class="edge"><title>Node6&#45;&gt;Node5</title>
<path fill="none" stroke="midnightblue" d="M138.525,-51C147.293,-51 156.214,-51 164.894,-51"/>
<polygon fill="midnightblue" stroke="midnightblue" points="138.325,-47.5001 128.325,-51 138.325,-54.5001 138.325,-47.5001"/>
</g>
<!-- Node7&#45;&gt;Node1 -->
<g id="edge6" class="edge"><title>Node7&#45;&gt;Node1</title>
<path fill="none" stroke="#9a32cd" stroke-dasharray="5,2" d="M874.773,-108.333C862.308,-101.313 846.381,-93.6547 831,-90 816.338,-86.5161 800.289,-85.0499 785.036,-84.6991"/>
<polygon fill="#9a32cd" stroke="#9a32cd" points="873.168,-111.45 883.563,-113.5 876.715,-105.415 873.168,-111.45"/>
<text text-anchor="middle" x="817" y="-93" font-family="Helvetica,sans-Serif" font-size="10.00"> buffer</text>
</g>
<!-- Node8 -->
<g id="node8" class="node"><title>Node8</title>
<g id="a_node8"><a xlink:href="classConcurrentPriorityQueue.html" target="_top" xlink:title="ConcurrentPriorityQueue\l\&lt; network::Command \&gt;">
<polygon fill="none" stroke="black" points="656,-160 656,-190 780,-190 780,-160 656,-160"/>
<text text-anchor="start" x="664" y="-178" font-family="Helvetica,sans-Serif" font-size="10.00">ConcurrentPriorityQueue</text>
<text text-anchor="middle" x="718" y="-167" font-family="Helvetica,sans-Serif" font-size="10.00">&lt; network::Command &gt;</text>
</a>
</g>
</g>
<!-- Node8&#45;&gt;Node7 -->
<g id="edge7" class="edge"><title>Node8&#45;&gt;Node7</title>
<path fill="none" stroke="#9a32cd" stroke-dasharray="5,2" d="M780.628,-157.097C809.04,-148.843 841.613,-139.381 865.226,-132.521"/>
<polygon fill="#9a32cd" stroke="#9a32cd" points="779.401,-153.809 770.774,-159.959 781.354,-160.531 779.401,-153.809"/>
<text text-anchor="middle" x="817" y="-153" font-family="Helvetica,sans-Serif" font-size="10.00"> buffer</text>
</g>
<!-- Node9 -->
<g id="node9" class="node"><title>Node9</title>
<g id="a_node9"><a xlink:href="classConcurrentContainer.html" target="_top" xlink:title="ConcurrentContainer\l\&lt; std::priority_queue\l\&lt; network::Command, Container,\l Compare \&gt; \&gt;">
<polygon fill="none" stroke="black" points="387,-156 387,-208 549,-208 549,-156 387,-156"/>
<text text-anchor="start" x="395" y="-196" font-family="Helvetica,sans-Serif" font-size="10.00">ConcurrentContainer</text>
<text text-anchor="start" x="395" y="-185" font-family="Helvetica,sans-Serif" font-size="10.00">&lt; std::priority_queue</text>
<text text-anchor="start" x="395" y="-174" font-family="Helvetica,sans-Serif" font-size="10.00">&lt; network::Command, Container,</text>
<text text-anchor="middle" x="468" y="-163" font-family="Helvetica,sans-Serif" font-size="10.00"> Compare &gt; &gt;</text>
</a>
</g>
</g>
<!-- Node9&#45;&gt;Node8 -->
<g id="edge8" class="edge"><title>Node9&#45;&gt;Node8</title>
<path fill="none" stroke="midnightblue" d="M559.472,-179.446C591.571,-178.54 626.91,-177.543 655.969,-176.723"/>
<polygon fill="midnightblue" stroke="midnightblue" points="559.073,-175.956 549.176,-179.737 559.271,-182.953 559.073,-175.956"/>
</g>
<!-- Node10 -->
<g id="node10" class="node"><title>Node10</title>
<g id="a_node10"><a xlink:href="structnetwork_1_1Server.html" target="_top" xlink:title="Identifies a network server. ">
<polygon fill="none" stroke="black" points="425,-0.5 425,-19.5 511,-19.5 511,-0.5 425,-0.5"/>
<text text-anchor="middle" x="468" y="-7.5" font-family="Helvetica,sans-Serif" font-size="10.00">network::Server</text>
</a>
</g>
</g>
<!-- Node10&#45;&gt;Node1 -->
<g id="edge10" class="edge"><title>Node10&#45;&gt;Node1</title>
<path fill="none" stroke="#9a32cd" stroke-dasharray="5,2" d="M521.499,-14.4011C554.327,-18.3335 597.052,-25.6342 633,-39 660.202,-49.1137 688.543,-68.0252 704.364,-79.4687"/>
<polygon fill="#9a32cd" stroke="#9a32cd" points="521.539,-10.8835 511.209,-13.2393 520.753,-17.8393 521.539,-10.8835"/>
<text text-anchor="middle" x="600" y="-53" font-family="Helvetica,sans-Serif" font-size="10.00"> current_server</text>
<text text-anchor="middle" x="600" y="-42" font-family="Helvetica,sans-Serif" font-size="10.00">main_server</text>
</g>
</g>
</svg>
