<?xml version="1.0" encoding="UTF-8" standalone="no"?>
<!DOCTYPE svg PUBLIC "-//W3C//DTD SVG 1.1//EN"
 "http://www.w3.org/Graphics/SVG/1.1/DTD/svg11.dtd">
<!-- Generated by graphviz version 2.38.0 (20140413.2041)
 -->
<!-- Title: handler::AdminGroup Pages: 1 -->
<svg width="1091pt" height="112pt"
 viewBox="0.00 0.00 1091.00 111.50" xmlns="http://www.w3.org/2000/svg" xmlns:xlink="http://www.w3.org/1999/xlink">
<g id="graph0" class="graph" transform="scale(1 1) rotate(0) translate(4 107.5)">
<title>handler::AdminGroup</title>
<!-- Node1 -->
<g id="node1" class="node"><title>Node1</title>
<polygon fill="#bfbfbf" stroke="black" points="975,-33 975,-52 1083,-52 1083,-33 975,-33"/>
<text text-anchor="middle" x="1029" y="-40" font-family="Helvetica,sans-Serif" font-size="10.00">handler::AdminGroup</text>
</g>
<!-- Node2 -->
<g id="node2" class="node"><title>Node2</title>
<g id="a_node2"><a xlink:href="classhandler_1_1AbstractList.html" target="_top" xlink:title="Handles a list of elements (base class) ">
<polygon fill="none" stroke="black" points="781,-55 781,-74 888,-74 888,-55 781,-55"/>
<text text-anchor="middle" x="834.5" y="-62" font-family="Helvetica,sans-Serif" font-size="10.00">handler::AbstractList</text>
</a>
</g>
</g>
<!-- Node2&#45;&gt;Node1 -->
<g id="edge1" class="edge"><title>Node2&#45;&gt;Node1</title>
<path fill="none" stroke="midnightblue" d="M898.122,-57.3432C922.883,-54.5133 951.041,-51.2954 974.793,-48.5808"/>
<polygon fill="midnightblue" stroke="midnightblue" points="897.639,-53.8755 888.101,-58.4884 898.434,-60.8302 897.639,-53.8755"/>
</g>
<!-- Node3 -->
<g id="node3" class="node"><title>Node3</title>
<g id="a_node3"><a xlink:href="classhandler_1_1SimpleAction.html" target="_top" xlink:title="A simple action sends a message to the same connection it came from. ">
<polygon fill="none" stroke="black" points="632,-55 632,-74 744,-74 744,-55 632,-55"/>
<text text-anchor="middle" x="688" y="-62" font-family="Helvetica,sans-Serif" font-size="10.00">handler::SimpleAction</text>
</a>
</g>
</g>
<!-- Node3&#45;&gt;Node2 -->
<g id="edge2" class="edge"><title>Node3&#45;&gt;Node2</title>
<path fill="none" stroke="midnightblue" d="M754.11,-64.5C763.111,-64.5 772.261,-64.5 780.994,-64.5"/>
<polygon fill="midnightblue" stroke="midnightblue" points="754.042,-61.0001 744.041,-64.5 754.041,-68.0001 754.042,-61.0001"/>
</g>
<!-- Node4 -->
<g id="node4" class="node"><title>Node4</title>
<g id="a_node4"><a xlink:href="classhandler_1_1Handler.html" target="_top" xlink:title="Message handler abstract base class. ">
<polygon fill="none" stroke="black" points="507,-55 507,-74 595,-74 595,-55 507,-55"/>
<text text-anchor="middle" x="551" y="-62" font-family="Helvetica,sans-Serif" font-size="10.00">handler::Handler</text>
</a>
</g>
</g>
<!-- Node4&#45;&gt;Node3 -->
<g id="edge3" class="edge"><title>Node4&#45;&gt;Node3</title>
<path fill="none" stroke="midnightblue" d="M605.214,-64.5C614.007,-64.5 623.139,-64.5 631.975,-64.5"/>
<polygon fill="midnightblue" stroke="midnightblue" points="605.086,-61.0001 595.086,-64.5 605.086,-68.0001 605.086,-61.0001"/>
</g>
<!-- Node4&#45;&gt;Node4 -->
<g id="edge9" class="edge"><title>Node4&#45;&gt;Node4</title>
<path fill="none" stroke="#9a32cd" stroke-dasharray="5,2" d="M539.582,-84.2663C540.479,-88.9965 544.285,-92.5 551,-92.5 562.02,-92.5 565.205,-83.0653 560.556,-74.2571"/>
<polygon fill="#9a32cd" stroke="#9a32cd" points="543.056,-84.7285 541.444,-74.2571 536.174,-83.4484 543.056,-84.7285"/>
<text text-anchor="middle" x="551" y="-95.5" font-family="Helvetica,sans-Serif" font-size="10.00"> parent_handler</text>
</g>
<!-- Node5 -->
<g id="node5" class="node"><title>Node5</title>
<g id="a_node5"><a xlink:href="classhandler_1_1HandlerContainer.html" target="_top" xlink:title="Base class for classes which may contain handlers. ">
<polygon fill="none" stroke="black" points="173.5,-64 173.5,-83 303.5,-83 303.5,-64 173.5,-64"/>
<text text-anchor="middle" x="238.5" y="-71" font-family="Helvetica,sans-Serif" font-size="10.00">handler::HandlerContainer</text>
</a>
</g>
</g>
<!-- Node5&#45;&gt;Node4 -->
<g id="edge4" class="edge"><title>Node5&#45;&gt;Node4</title>
<path fill="none" stroke="midnightblue" d="M314.049,-71.3392C374.257,-69.594 456.893,-67.1988 506.699,-65.7551"/>
<polygon fill="midnightblue" stroke="midnightblue" points="313.73,-67.8468 303.836,-71.6352 313.933,-74.8439 313.73,-67.8468"/>
</g>
<!-- Node6 -->
<g id="node6" class="node"><title>Node6</title>
<g id="a_node6"><a xlink:href="classMelanobot.html" target="_top" xlink:title="Main bot class. ">
<polygon fill="none" stroke="black" points="392,-30 392,-49 454,-49 454,-30 392,-30"/>
<text text-anchor="middle" x="423" y="-37" font-family="Helvetica,sans-Serif" font-size="10.00">Melanobot</text>
</a>
</g>
</g>
<!-- Node5&#45;&gt;Node6 -->
<g id="edge6" class="edge"><title>Node5&#45;&gt;Node6</title>
<path fill="none" stroke="midnightblue" d="M300.987,-62.045C331.594,-56.3428 367.218,-49.7059 391.852,-45.1166"/>
<polygon fill="midnightblue" stroke="midnightblue" points="300.012,-58.6662 290.822,-63.9386 301.294,-65.5478 300.012,-58.6662"/>
</g>
<!-- Node6&#45;&gt;Node4 -->
<g id="edge5" class="edge"><title>Node6&#45;&gt;Node4</title>
<path fill="none" stroke="#9a32cd" stroke-dasharray="5,2" d="M464.181,-47.4725C477.741,-50.1629 492.932,-53.1769 506.721,-55.9128"/>
<polygon fill="#9a32cd" stroke="#9a32cd" points="464.67,-44.0013 454.18,-45.4881 463.308,-50.8675 464.67,-44.0013"/>
<text text-anchor="middle" x="480.5" y="-55.5" font-family="Helvetica,sans-Serif" font-size="10.00"> bot</text>
</g>
<!-- Node7 -->
<g id="node7" class="node"><title>Node7</title>
<g id="a_node7"><a xlink:href="classConcurrentQueue.html" target="_top" xlink:title="ConcurrentQueue\&lt; network\l::Message \&gt;">
<polygon fill="none" stroke="black" points="170,-11.5 170,-41.5 307,-41.5 307,-11.5 170,-11.5"/>
<text text-anchor="start" x="178" y="-29.5" font-family="Helvetica,sans-Serif" font-size="10.00">ConcurrentQueue&lt; network</text>
<text text-anchor="middle" x="238.5" y="-18.5" font-family="Helvetica,sans-Serif" font-size="10.00">::Message &gt;</text>
</a>
</g>
</g>
<!-- Node7&#45;&gt;Node6 -->
<g id="edge7" class="edge"><title>Node7&#45;&gt;Node6</title>
<path fill="none" stroke="#9a32cd" stroke-dasharray="5,2" d="M317.312,-23.944C335.94,-24.1966 355.725,-25.1812 374,-27.5 379.88,-28.246 386.077,-29.4617 391.994,-30.8396"/>
<polygon fill="#9a32cd" stroke="#9a32cd" points="317.122,-20.4428 307.099,-23.8752 317.075,-27.4426 317.122,-20.4428"/>
<text text-anchor="middle" x="349.5" y="-30.5" font-family="Helvetica,sans-Serif" font-size="10.00"> messages</text>
</g>
<!-- Node8 -->
<g id="node8" class="node"><title>Node8</title>
<g id="a_node8"><a xlink:href="classConcurrentContainer.html" target="_top" xlink:title="ConcurrentContainer\l\&lt; std::queue\&lt; network\l::Message, std::deque\l\&lt; network::Message \&gt; \&gt; \&gt;">
<polygon fill="none" stroke="black" points="0,-0.5 0,-52.5 133,-52.5 133,-0.5 0,-0.5"/>
<text text-anchor="start" x="8" y="-40.5" font-family="Helvetica,sans-Serif" font-size="10.00">ConcurrentContainer</text>
<text text-anchor="start" x="8" y="-29.5" font-family="Helvetica,sans-Serif" font-size="10.00">&lt; std::queue&lt; network</text>
<text text-anchor="start" x="8" y="-18.5" font-family="Helvetica,sans-Serif" font-size="10.00">::Message, std::deque</text>
<text text-anchor="middle" x="66.5" y="-7.5" font-family="Helvetica,sans-Serif" font-size="10.00">&lt; network::Message &gt; &gt; &gt;</text>
</a>
</g>
</g>
<!-- Node8&#45;&gt;Node7 -->
<g id="edge8" class="edge"><title>Node8&#45;&gt;Node7</title>
<path fill="none" stroke="midnightblue" d="M143.502,-26.5C152.327,-26.5 161.282,-26.5 169.982,-26.5"/>
<polygon fill="midnightblue" stroke="midnightblue" points="143.226,-23.0001 133.226,-26.5 143.226,-30.0001 143.226,-23.0001"/>
</g>
<!-- Node9 -->
<g id="node9" class="node"><title>Node9</title>
<g id="a_node9"><a xlink:href="classnetwork_1_1Connection.html" target="_top" xlink:title="Abstract service connection. ">
<polygon fill="none" stroke="black" points="781,-17 781,-36 888,-36 888,-17 781,-17"/>
<text text-anchor="middle" x="834.5" y="-24" font-family="Helvetica,sans-Serif" font-size="10.00">network::Connection</text>
</a>
</g>
</g>
<!-- Node9&#45;&gt;Node1 -->
<g id="edge10" class="edge"><title>Node9&#45;&gt;Node1</title>
<path fill="none" stroke="#9a32cd" stroke-dasharray="5,2" d="M898.184,-29.2888C917.105,-30.3522 937.917,-31.7429 957,-33.5 962.815,-34.0354 968.888,-34.6776 974.929,-35.3693"/>
<polygon fill="#9a32cd" stroke="#9a32cd" points="898.362,-25.7934 888.187,-28.747 897.983,-32.7831 898.362,-25.7934"/>
<text text-anchor="middle" x="931.5" y="-36.5" font-family="Helvetica,sans-Serif" font-size="10.00"> connection</text>
</g>
</g>
</svg>
