<?xml version="1.0" encoding="UTF-8" standalone="no"?>
<!DOCTYPE svg PUBLIC "-//W3C//DTD SVG 1.1//EN"
 "http://www.w3.org/Graphics/SVG/1.1/DTD/svg11.dtd">
<!-- Generated by graphviz version 2.38.0 (20140413.2041)
 -->
<!-- Title: string::Element Pages: 1 -->
<svg width="243pt" height="256pt"
 viewBox="0.00 0.00 243.00 256.00" xmlns="http://www.w3.org/2000/svg" xmlns:xlink="http://www.w3.org/1999/xlink">
<g id="graph0" class="graph" transform="scale(1 1) rotate(0) translate(4 252)">
<title>string::Element</title>
<!-- Node1 -->
<g id="node1" class="node"><title>Node1</title>
<polygon fill="#bfbfbf" stroke="black" points="0,-114.5 0,-133.5 83,-133.5 83,-114.5 0,-114.5"/>
<text text-anchor="middle" x="41.5" y="-121.5" font-family="Helvetica,sans-Serif" font-size="10.00">string::Element</text>
</g>
<!-- Node2 -->
<g id="node2" class="node"><title>Node2</title>
<g id="a_node2"><a xlink:href="classstring_1_1AsciiSubstring.html" target="_top" xlink:title="Simple ASCII string. ">
<polygon fill="none" stroke="black" points="122,-228.5 122,-247.5 232,-247.5 232,-228.5 122,-228.5"/>
<text text-anchor="middle" x="177" y="-235.5" font-family="Helvetica,sans-Serif" font-size="10.00">string::AsciiSubstring</text>
</a>
</g>
</g>
<!-- Node1&#45;&gt;Node2 -->
<g id="edge1" class="edge"><title>Node1&#45;&gt;Node2</title>
<path fill="none" stroke="midnightblue" d="M52.795,-142.344C65.6574,-163.676 89.5944,-198.566 119,-219 124.482,-222.81 130.786,-225.902 137.157,-228.398"/>
<polygon fill="midnightblue" stroke="midnightblue" points="55.7515,-140.466 47.6847,-133.597 49.7075,-143.997 55.7515,-140.466"/>
</g>
<!-- Node3 -->
<g id="node3" class="node"><title>Node3</title>
<g id="a_node3"><a xlink:href="classstring_1_1Character.html" target="_top" xlink:title="Simple ASCII character. ">
<polygon fill="none" stroke="black" points="132.5,-190.5 132.5,-209.5 221.5,-209.5 221.5,-190.5 132.5,-190.5"/>
<text text-anchor="middle" x="177" y="-197.5" font-family="Helvetica,sans-Serif" font-size="10.00">string::Character</text>
</a>
</g>
</g>
<!-- Node1&#45;&gt;Node3 -->
<g id="edge2" class="edge"><title>Node1&#45;&gt;Node3</title>
<path fill="none" stroke="midnightblue" d="M61.028,-140.471C75.8593,-152.972 97.6433,-169.853 119,-181 126.028,-184.668 133.907,-187.833 141.512,-190.47"/>
<polygon fill="midnightblue" stroke="midnightblue" points="63.0169,-137.565 53.1548,-133.694 58.4501,-142.87 63.0169,-137.565"/>
</g>
<!-- Node4 -->
<g id="node4" class="node"><title>Node4</title>
<g id="a_node4"><a xlink:href="classstring_1_1ClearFormatting.html" target="_top" xlink:title="Simple class representing some code which will clear colors and formats. ">
<polygon fill="none" stroke="black" points="119,-152.5 119,-171.5 235,-171.5 235,-152.5 119,-152.5"/>
<text text-anchor="middle" x="177" y="-159.5" font-family="Helvetica,sans-Serif" font-size="10.00">string::ClearFormatting</text>
</a>
</g>
</g>
<!-- Node1&#45;&gt;Node4 -->
<g id="edge3" class="edge"><title>Node1&#45;&gt;Node4</title>
<path fill="none" stroke="midnightblue" d="M86.03,-136.391C104.312,-141.594 125.249,-147.554 142.323,-152.414"/>
<polygon fill="midnightblue" stroke="midnightblue" points="86.7639,-132.96 76.1877,-133.589 84.8474,-139.693 86.7639,-132.96"/>
</g>
<!-- Node5 -->
<g id="node5" class="node"><title>Node5</title>
<g id="a_node5"><a xlink:href="classstring_1_1Color.html" target="_top" xlink:title="Color code. ">
<polygon fill="none" stroke="black" points="142,-114.5 142,-133.5 212,-133.5 212,-114.5 142,-114.5"/>
<text text-anchor="middle" x="177" y="-121.5" font-family="Helvetica,sans-Serif" font-size="10.00">string::Color</text>
</a>
</g>
</g>
<!-- Node1&#45;&gt;Node5 -->
<g id="edge4" class="edge"><title>Node1&#45;&gt;Node5</title>
<path fill="none" stroke="midnightblue" d="M93.6355,-124C109.74,-124 127.13,-124 141.761,-124"/>
<polygon fill="midnightblue" stroke="midnightblue" points="93.2798,-120.5 83.2798,-124 93.2798,-127.5 93.2798,-120.5"/>
</g>
<!-- Node6 -->
<g id="node6" class="node"><title>Node6</title>
<g id="a_node6"><a xlink:href="classstring_1_1Format.html" target="_top" xlink:title="Formatting flag. ">
<polygon fill="none" stroke="black" points="138.5,-76.5 138.5,-95.5 215.5,-95.5 215.5,-76.5 138.5,-76.5"/>
<text text-anchor="middle" x="177" y="-83.5" font-family="Helvetica,sans-Serif" font-size="10.00">string::Format</text>
</a>
</g>
</g>
<!-- Node1&#45;&gt;Node6 -->
<g id="edge5" class="edge"><title>Node1&#45;&gt;Node6</title>
<path fill="none" stroke="midnightblue" d="M86.03,-111.609C104.312,-106.406 125.249,-100.446 142.323,-95.5859"/>
<polygon fill="midnightblue" stroke="midnightblue" points="84.8474,-108.307 76.1877,-114.411 86.7639,-115.04 84.8474,-108.307"/>
</g>
<!-- Node7 -->
<g id="node7" class="node"><title>Node7</title>
<g id="a_node7"><a xlink:href="classstring_1_1QFont.html" target="_top" xlink:title="qfont character ">
<polygon fill="none" stroke="black" points="140,-38.5 140,-57.5 214,-57.5 214,-38.5 140,-38.5"/>
<text text-anchor="middle" x="177" y="-45.5" font-family="Helvetica,sans-Serif" font-size="10.00">string::QFont</text>
</a>
</g>
</g>
<!-- Node1&#45;&gt;Node7 -->
<g id="edge6" class="edge"><title>Node1&#45;&gt;Node7</title>
<path fill="none" stroke="midnightblue" d="M61.028,-107.529C75.8593,-95.0282 97.6433,-78.1471 119,-67 126.028,-63.3318 133.907,-60.167 141.512,-57.53"/>
<polygon fill="midnightblue" stroke="midnightblue" points="58.4501,-105.13 53.1548,-114.306 63.0169,-110.435 58.4501,-105.13"/>
</g>
<!-- Node8 -->
<g id="node8" class="node"><title>Node8</title>
<g id="a_node8"><a xlink:href="classstring_1_1Unicode.html" target="_top" xlink:title="Unicode point. ">
<polygon fill="none" stroke="black" points="135.5,-0.5 135.5,-19.5 218.5,-19.5 218.5,-0.5 135.5,-0.5"/>
<text text-anchor="middle" x="177" y="-7.5" font-family="Helvetica,sans-Serif" font-size="10.00">string::Unicode</text>
</a>
</g>
</g>
<!-- Node1&#45;&gt;Node8 -->
<g id="edge7" class="edge"><title>Node1&#45;&gt;Node8</title>
<path fill="none" stroke="midnightblue" d="M52.795,-105.656C65.6574,-84.3241 89.5944,-49.4343 119,-29 124.482,-25.1904 130.786,-22.098 137.157,-19.6025"/>
<polygon fill="midnightblue" stroke="midnightblue" points="49.7075,-104.003 47.6847,-114.403 55.7515,-107.534 49.7075,-104.003"/>
</g>
</g>
</svg>
