<?xml version="1.0" encoding="UTF-8" standalone="no"?>
<!DOCTYPE svg PUBLIC "-//W3C//DTD SVG 1.1//EN"
 "http://www.w3.org/Graphics/SVG/1.1/DTD/svg11.dtd">
<!-- Generated by graphviz version 2.38.0 (20140413.2041)
 -->
<!-- Title: handler::SimpleAction Pages: 1 -->
<svg width="911pt" height="750pt"
 viewBox="0.00 0.00 911.00 750.00" xmlns="http://www.w3.org/2000/svg" xmlns:xlink="http://www.w3.org/1999/xlink">
<g id="graph0" class="graph" transform="scale(1 1) rotate(0) translate(4 746)">
<title>handler::SimpleAction</title>
<!-- Node1 -->
<g id="node1" class="node"><title>Node1</title>
<polygon fill="#bfbfbf" stroke="black" points="290,-361.5 290,-380.5 402,-380.5 402,-361.5 290,-361.5"/>
<text text-anchor="middle" x="346" y="-368.5" font-family="Helvetica,sans-Serif" font-size="10.00">handler::SimpleAction</text>
</g>
<!-- Node4 -->
<g id="node4" class="node"><title>Node4</title>
<g id="a_node4"><a xlink:href="classhandler_1_1AdminQuit.html" target="_top" xlink:title="Quits the bot. ">
<polygon fill="none" stroke="black" points="458,-722.5 458,-741.5 558,-741.5 558,-722.5 458,-722.5"/>
<text text-anchor="middle" x="508" y="-729.5" font-family="Helvetica,sans-Serif" font-size="10.00">handler::AdminQuit</text>
</a>
</g>
</g>
<!-- Node1&#45;&gt;Node4 -->
<g id="edge3" class="edge"><title>Node1&#45;&gt;Node4</title>
<path fill="none" stroke="midnightblue" d="M349.665,-390.819C358.893,-456.583 391.48,-666.076 438,-713 443.511,-718.559 450.488,-722.533 457.877,-725.364"/>
<polygon fill="midnightblue" stroke="midnightblue" points="353.089,-390.023 348.258,-380.594 346.154,-390.978 353.089,-390.023"/>
</g>
<!-- Node5 -->
<g id="node5" class="node"><title>Node5</title>
<g id="a_node5"><a xlink:href="classhandler_1_1AdminReconnect.html" target="_top" xlink:title="Makes the bot reconnect. ">
<polygon fill="none" stroke="black" points="443.5,-684.5 443.5,-703.5 572.5,-703.5 572.5,-684.5 443.5,-684.5"/>
<text text-anchor="middle" x="508" y="-691.5" font-family="Helvetica,sans-Serif" font-size="10.00">handler::AdminReconnect</text>
</a>
</g>
</g>
<!-- Node1&#45;&gt;Node5 -->
<g id="edge4" class="edge"><title>Node1&#45;&gt;Node5</title>
<path fill="none" stroke="midnightblue" d="M346.76,-390.793C347.227,-444.619 356.176,-594.969 438,-675 441.908,-678.823 446.512,-681.893 451.455,-684.356"/>
<polygon fill="midnightblue" stroke="midnightblue" points="350.26,-390.573 346.768,-380.57 343.26,-390.567 350.26,-390.573"/>
</g>
<!-- Node6 -->
<g id="node6" class="node"><title>Node6</title>
<g id="a_node6"><a xlink:href="classhandler_1_1Cointoss.html" target="_top" xlink:title="Shows one of the given items, at random. ">
<polygon fill="none" stroke="black" points="461.5,-646.5 461.5,-665.5 554.5,-665.5 554.5,-646.5 461.5,-646.5"/>
<text text-anchor="middle" x="508" y="-653.5" font-family="Helvetica,sans-Serif" font-size="10.00">handler::Cointoss</text>
</a>
</g>
</g>
<!-- Node1&#45;&gt;Node6 -->
<g id="edge5" class="edge"><title>Node1&#45;&gt;Node6</title>
<path fill="none" stroke="midnightblue" d="M347.757,-390.924C350.735,-440.2 365.435,-568.726 438,-637 444.516,-643.13 452.824,-647.315 461.402,-650.164"/>
<polygon fill="midnightblue" stroke="midnightblue" points="351.239,-390.485 347.243,-380.672 344.248,-390.835 351.239,-390.485"/>
</g>
<!-- Node7 -->
<g id="node7" class="node"><title>Node7</title>
<g id="a_node7"><a xlink:href="classhandler_1_1Echo.html" target="_top" xlink:title="Just repeat what it has been told. ">
<polygon fill="none" stroke="black" points="469.5,-608.5 469.5,-627.5 546.5,-627.5 546.5,-608.5 469.5,-608.5"/>
<text text-anchor="middle" x="508" y="-615.5" font-family="Helvetica,sans-Serif" font-size="10.00">handler::Echo</text>
</a>
</g>
</g>
<!-- Node1&#45;&gt;Node7 -->
<g id="edge6" class="edge"><title>Node1&#45;&gt;Node7</title>
<path fill="none" stroke="midnightblue" d="M349.071,-391.049C354.741,-435.378 374.594,-542.272 438,-599 446.612,-606.705 458.073,-611.319 469.176,-614.071"/>
<polygon fill="midnightblue" stroke="midnightblue" points="352.53,-390.495 347.893,-380.969 345.578,-391.307 352.53,-390.495"/>
</g>
<!-- Node8 -->
<g id="node8" class="node"><title>Node8</title>
<g id="a_node8"><a xlink:href="classhandler_1_1Help.html" target="_top" xlink:title="Handler showing help on the available handlers. ">
<polygon fill="none" stroke="black" points="471,-570.5 471,-589.5 545,-589.5 545,-570.5 471,-570.5"/>
<text text-anchor="middle" x="508" y="-577.5" font-family="Helvetica,sans-Serif" font-size="10.00">handler::Help</text>
</a>
</g>
</g>
<!-- Node1&#45;&gt;Node8 -->
<g id="edge7" class="edge"><title>Node1&#45;&gt;Node8</title>
<path fill="none" stroke="midnightblue" d="M350.748,-390.564C359.183,-429.157 383.351,-515.303 438,-561 447.246,-568.731 459.391,-573.331 470.912,-576.063"/>
<polygon fill="midnightblue" stroke="midnightblue" points="354.143,-389.697 348.696,-380.61 347.287,-391.111 354.143,-389.697"/>
</g>
<!-- Node9 -->
<g id="node9" class="node"><title>Node9</title>
<g id="a_node9"><a xlink:href="classhandler_1_1License.html" target="_top" xlink:title="Handler showing licensing information. ">
<polygon fill="none" stroke="black" points="464,-532.5 464,-551.5 552,-551.5 552,-532.5 464,-532.5"/>
<text text-anchor="middle" x="508" y="-539.5" font-family="Helvetica,sans-Serif" font-size="10.00">handler::License</text>
</a>
</g>
</g>
<!-- Node1&#45;&gt;Node9 -->
<g id="edge8" class="edge"><title>Node1&#45;&gt;Node9</title>
<path fill="none" stroke="midnightblue" d="M353.149,-390.186C364.536,-422.593 392.025,-488.048 438,-523 445.517,-528.715 454.652,-532.711 463.782,-535.506"/>
<polygon fill="midnightblue" stroke="midnightblue" points="356.413,-388.912 349.901,-380.555 349.78,-391.149 356.413,-388.912"/>
</g>
<!-- Node10 -->
<g id="node10" class="node"><title>Node10</title>
<g id="a_node10"><a xlink:href="classhandler_1_1ListClear.html" target="_top" xlink:title="Used by AbstractList to remove all elements. ">
<polygon fill="none" stroke="black" points="461.5,-494.5 461.5,-513.5 554.5,-513.5 554.5,-494.5 461.5,-494.5"/>
<text text-anchor="middle" x="508" y="-501.5" font-family="Helvetica,sans-Serif" font-size="10.00">handler::ListClear</text>
</a>
</g>
</g>
<!-- Node1&#45;&gt;Node10 -->
<g id="edge9" class="edge"><title>Node1&#45;&gt;Node10</title>
<path fill="none" stroke="midnightblue" d="M356.85,-389.628C371.255,-415.048 400.484,-460.264 438,-485 445.054,-489.651 453.229,-493.172 461.431,-495.834"/>
<polygon fill="midnightblue" stroke="midnightblue" points="359.796,-387.722 351.912,-380.645 353.662,-391.094 359.796,-387.722"/>
</g>
<!-- Node11 -->
<g id="node11" class="node"><title>Node11</title>
<g id="a_node11"><a xlink:href="classhandler_1_1ListInsert.html" target="_top" xlink:title="Used by AbstractList to add elements. ">
<polygon fill="none" stroke="black" points="460.5,-456.5 460.5,-475.5 555.5,-475.5 555.5,-456.5 460.5,-456.5"/>
<text text-anchor="middle" x="508" y="-463.5" font-family="Helvetica,sans-Serif" font-size="10.00">handler::ListInsert</text>
</a>
</g>
</g>
<!-- Node1&#45;&gt;Node11 -->
<g id="edge10" class="edge"><title>Node1&#45;&gt;Node11</title>
<path fill="none" stroke="midnightblue" d="M362.796,-387.908C379.806,-405.155 408.428,-431.519 438,-447 445.265,-450.803 453.371,-453.908 461.4,-456.422"/>
<polygon fill="midnightblue" stroke="midnightblue" points="365.3,-385.462 355.837,-380.697 360.263,-390.323 365.3,-385.462"/>
</g>
<!-- Node12 -->
<g id="node12" class="node"><title>Node12</title>
<g id="a_node12"><a xlink:href="classhandler_1_1ListRemove.html" target="_top" xlink:title="Used by AbstractList to remove elements. ">
<polygon fill="none" stroke="black" points="454.5,-418.5 454.5,-437.5 561.5,-437.5 561.5,-418.5 454.5,-418.5"/>
<text text-anchor="middle" x="508" y="-425.5" font-family="Helvetica,sans-Serif" font-size="10.00">handler::ListRemove</text>
</a>
</g>
</g>
<!-- Node1&#45;&gt;Node12 -->
<g id="edge11" class="edge"><title>Node1&#45;&gt;Node12</title>
<path fill="none" stroke="midnightblue" d="M376.859,-384.596C394.444,-392.317 417.243,-401.841 438,-409 447.867,-412.403 458.687,-415.619 468.773,-418.403"/>
<polygon fill="midnightblue" stroke="midnightblue" points="378.233,-381.376 367.673,-380.518 375.393,-387.774 378.233,-381.376"/>
</g>
<!-- Node13 -->
<g id="node13" class="node"><title>Node13</title>
<g id="a_node13"><a xlink:href="classhandler_1_1Morse.html" target="_top" xlink:title="Handler translating between morse and latin. ">
<polygon fill="none" stroke="black" points="467.5,-380.5 467.5,-399.5 548.5,-399.5 548.5,-380.5 467.5,-380.5"/>
<text text-anchor="middle" x="508" y="-387.5" font-family="Helvetica,sans-Serif" font-size="10.00">handler::Morse</text>
</a>
</g>
</g>
<!-- Node1&#45;&gt;Node13 -->
<g id="edge12" class="edge"><title>Node1&#45;&gt;Node13</title>
<path fill="none" stroke="midnightblue" d="M412.056,-378.725C430.843,-380.956 450.77,-383.323 467.491,-385.308"/>
<polygon fill="midnightblue" stroke="midnightblue" points="412.406,-375.242 402.063,-377.539 411.58,-382.194 412.406,-375.242"/>
</g>
<!-- Node14 -->
<g id="node14" class="node"><title>Node14</title>
<g id="a_node14"><a xlink:href="classhandler_1_1RenderPony.html" target="_top" xlink:title="Draws a pretty My Little Pony ASCII art. ">
<polygon fill="none" stroke="black" points="454,-342.5 454,-361.5 562,-361.5 562,-342.5 454,-342.5"/>
<text text-anchor="middle" x="508" y="-349.5" font-family="Helvetica,sans-Serif" font-size="10.00">handler::RenderPony</text>
</a>
</g>
</g>
<!-- Node1&#45;&gt;Node14 -->
<g id="edge13" class="edge"><title>Node1&#45;&gt;Node14</title>
<path fill="none" stroke="midnightblue" d="M412.076,-363.272C426.014,-361.617 440.579,-359.887 453.997,-358.294"/>
<polygon fill="midnightblue" stroke="midnightblue" points="411.58,-359.806 402.063,-364.461 412.406,-366.758 411.58,-359.806"/>
</g>
<!-- Node15 -->
<g id="node15" class="node"><title>Node15</title>
<g id="a_node15"><a xlink:href="classhandler_1_1ReverseText.html" target="_top" xlink:title="Turns ASCII characters upside&#45;down. ">
<polygon fill="none" stroke="black" points="453,-304.5 453,-323.5 563,-323.5 563,-304.5 453,-304.5"/>
<text text-anchor="middle" x="508" y="-311.5" font-family="Helvetica,sans-Serif" font-size="10.00">handler::ReverseText</text>
</a>
</g>
</g>
<!-- Node1&#45;&gt;Node15 -->
<g id="edge14" class="edge"><title>Node1&#45;&gt;Node15</title>
<path fill="none" stroke="midnightblue" d="M376.859,-357.404C394.444,-349.683 417.243,-340.159 438,-333 447.867,-329.597 458.687,-326.381 468.773,-323.597"/>
<polygon fill="midnightblue" stroke="midnightblue" points="375.393,-354.226 367.673,-361.482 378.233,-360.624 375.393,-354.226"/>
</g>
<!-- Node16 -->
<g id="node16" class="node"><title>Node16</title>
<g id="a_node16"><a xlink:href="classhandler_1_1ServerHost.html" target="_top" xlink:title="Shows the server the bot is connected to. ">
<polygon fill="none" stroke="black" points="456,-266.5 456,-285.5 560,-285.5 560,-266.5 456,-266.5"/>
<text text-anchor="middle" x="508" y="-273.5" font-family="Helvetica,sans-Serif" font-size="10.00">handler::ServerHost</text>
</a>
</g>
</g>
<!-- Node1&#45;&gt;Node16 -->
<g id="edge15" class="edge"><title>Node1&#45;&gt;Node16</title>
<path fill="none" stroke="midnightblue" d="M362.796,-354.092C379.806,-336.845 408.428,-310.481 438,-295 445.265,-291.197 453.371,-288.092 461.4,-285.578"/>
<polygon fill="midnightblue" stroke="midnightblue" points="360.263,-351.677 355.837,-361.303 365.3,-356.538 360.263,-351.677"/>
</g>
<!-- Node17 -->
<g id="node17" class="node"><title>Node17</title>
<g id="a_node17"><a xlink:href="classhandler_1_1SimpleGroup.html" target="_top" xlink:title="A simple group of actions which share settings. ">
<polygon fill="none" stroke="black" points="453,-228.5 453,-247.5 563,-247.5 563,-228.5 453,-228.5"/>
<text text-anchor="middle" x="508" y="-235.5" font-family="Helvetica,sans-Serif" font-size="10.00">handler::SimpleGroup</text>
</a>
</g>
</g>
<!-- Node1&#45;&gt;Node17 -->
<g id="edge16" class="edge"><title>Node1&#45;&gt;Node17</title>
<path fill="none" stroke="midnightblue" d="M356.85,-352.372C371.255,-326.952 400.484,-281.736 438,-257 443.913,-253.102 450.613,-249.997 457.457,-247.526"/>
<polygon fill="midnightblue" stroke="midnightblue" points="353.662,-350.906 351.912,-361.355 359.796,-354.278 353.662,-350.906"/>
</g>
<!-- Node21 -->
<g id="node21" class="node"><title>Node21</title>
<g id="a_node21"><a xlink:href="classhandler_1_1SimpleWebApi.html" target="_top" xlink:title="Simple base class for handlers calling web resources. ">
<polygon fill="none" stroke="black" points="448.5,-190.5 448.5,-209.5 567.5,-209.5 567.5,-190.5 448.5,-190.5"/>
<text text-anchor="middle" x="508" y="-197.5" font-family="Helvetica,sans-Serif" font-size="10.00">handler::SimpleWebApi</text>
</a>
</g>
</g>
<!-- Node1&#45;&gt;Node21 -->
<g id="edge20" class="edge"><title>Node1&#45;&gt;Node21</title>
<path fill="none" stroke="midnightblue" d="M353.149,-351.814C364.536,-319.407 392.025,-253.952 438,-219 443.143,-215.09 449.044,-211.984 455.183,-209.518"/>
<polygon fill="midnightblue" stroke="midnightblue" points="349.78,-350.851 349.901,-361.445 356.413,-353.088 349.78,-350.851"/>
</g>
<!-- Node28 -->
<g id="node28" class="node"><title>Node28</title>
<g id="a_node28"><a xlink:href="classirc_1_1handler_1_1AdminJoin.html" target="_top" xlink:title="Makes the bot join channels (IRC) ">
<polygon fill="none" stroke="black" points="450,-152.5 450,-171.5 566,-171.5 566,-152.5 450,-152.5"/>
<text text-anchor="middle" x="508" y="-159.5" font-family="Helvetica,sans-Serif" font-size="10.00">irc::handler::AdminJoin</text>
</a>
</g>
</g>
<!-- Node1&#45;&gt;Node28 -->
<g id="edge27" class="edge"><title>Node1&#45;&gt;Node28</title>
<path fill="none" stroke="midnightblue" d="M350.748,-351.436C359.183,-312.843 383.351,-226.697 438,-181 442.671,-177.095 448.081,-173.988 453.777,-171.518"/>
<polygon fill="midnightblue" stroke="midnightblue" points="347.287,-350.889 348.696,-361.39 354.143,-352.303 347.287,-350.889"/>
</g>
<!-- Node29 -->
<g id="node29" class="node"><title>Node29</title>
<g id="a_node29"><a xlink:href="classirc_1_1handler_1_1AdminNick.html" target="_top" xlink:title="Changes the bot nick (IRC) ">
<polygon fill="none" stroke="black" points="448.5,-114.5 448.5,-133.5 567.5,-133.5 567.5,-114.5 448.5,-114.5"/>
<text text-anchor="middle" x="508" y="-121.5" font-family="Helvetica,sans-Serif" font-size="10.00">irc::handler::AdminNick</text>
</a>
</g>
</g>
<!-- Node1&#45;&gt;Node29 -->
<g id="edge28" class="edge"><title>Node1&#45;&gt;Node29</title>
<path fill="none" stroke="midnightblue" d="M349.071,-350.951C354.741,-306.622 374.594,-199.728 438,-143 442.352,-139.106 447.432,-136.002 452.826,-133.528"/>
<polygon fill="midnightblue" stroke="midnightblue" points="345.578,-350.693 347.893,-361.031 352.53,-351.505 345.578,-350.693"/>
</g>
<!-- Node30 -->
<g id="node30" class="node"><title>Node30</title>
<g id="a_node30"><a xlink:href="classirc_1_1handler_1_1AdminPart.html" target="_top" xlink:title="Makes the bot part channels (IRC) ">
<polygon fill="none" stroke="black" points="450,-76.5 450,-95.5 566,-95.5 566,-76.5 450,-76.5"/>
<text text-anchor="middle" x="508" y="-83.5" font-family="Helvetica,sans-Serif" font-size="10.00">irc::handler::AdminPart</text>
</a>
</g>
</g>
<!-- Node1&#45;&gt;Node30 -->
<g id="edge29" class="edge"><title>Node1&#45;&gt;Node30</title>
<path fill="none" stroke="midnightblue" d="M347.757,-351.076C350.735,-301.8 365.435,-173.274 438,-105 442.072,-101.169 446.845,-98.0971 451.946,-95.6368"/>
<polygon fill="midnightblue" stroke="midnightblue" points="344.248,-351.165 347.243,-361.328 351.239,-351.515 344.248,-351.165"/>
</g>
<!-- Node31 -->
<g id="node31" class="node"><title>Node31</title>
<g id="a_node31"><a xlink:href="classirc_1_1handler_1_1AdminRaw.html" target="_top" xlink:title="Makes the bot execute a raw command (IRC) ">
<polygon fill="none" stroke="black" points="448.5,-38.5 448.5,-57.5 567.5,-57.5 567.5,-38.5 448.5,-38.5"/>
<text text-anchor="middle" x="508" y="-45.5" font-family="Helvetica,sans-Serif" font-size="10.00">irc::handler::AdminRaw</text>
</a>
</g>
</g>
<!-- Node1&#45;&gt;Node31 -->
<g id="edge30" class="edge"><title>Node1&#45;&gt;Node31</title>
<path fill="none" stroke="midnightblue" d="M346.76,-351.207C347.227,-297.381 356.176,-147.031 438,-67 441.908,-63.1773 446.512,-60.1074 451.455,-57.6444"/>
<polygon fill="midnightblue" stroke="midnightblue" points="343.26,-351.433 346.768,-361.43 350.26,-351.427 343.26,-351.433"/>
</g>
<!-- Node32 -->
<g id="node32" class="node"><title>Node32</title>
<g id="a_node32"><a xlink:href="classirc_1_1handler_1_1WhoisCheckMe.html" target="_top" xlink:title="Sends a WHOIS about the message sender. ">
<polygon fill="none" stroke="black" points="438,-0.5 438,-19.5 578,-19.5 578,-0.5 438,-0.5"/>
<text text-anchor="middle" x="508" y="-7.5" font-family="Helvetica,sans-Serif" font-size="10.00">irc::handler::WhoisCheckMe</text>
</a>
</g>
</g>
<!-- Node1&#45;&gt;Node32 -->
<g id="edge31" class="edge"><title>Node1&#45;&gt;Node32</title>
<path fill="none" stroke="midnightblue" d="M349.665,-351.181C358.893,-285.417 391.48,-75.9239 438,-29 441.849,-25.1176 446.413,-22.0084 451.333,-19.5215"/>
<polygon fill="midnightblue" stroke="midnightblue" points="346.154,-351.022 348.258,-361.406 353.089,-351.977 346.154,-351.022"/>
</g>
<!-- Node2 -->
<g id="node2" class="node"><title>Node2</title>
<g id="a_node2"><a xlink:href="classhandler_1_1Handler.html" target="_top" xlink:title="Message handler abstract base class. ">
<polygon fill="none" stroke="black" points="166,-361.5 166,-380.5 254,-380.5 254,-361.5 166,-361.5"/>
<text text-anchor="middle" x="210" y="-368.5" font-family="Helvetica,sans-Serif" font-size="10.00">handler::Handler</text>
</a>
</g>
</g>
<!-- Node2&#45;&gt;Node1 -->
<g id="edge1" class="edge"><title>Node2&#45;&gt;Node1</title>
<path fill="none" stroke="midnightblue" d="M264.18,-371C272.568,-371 281.258,-371 289.693,-371"/>
<polygon fill="midnightblue" stroke="midnightblue" points="264.136,-367.5 254.136,-371 264.136,-374.5 264.136,-367.5"/>
</g>
<!-- Node3 -->
<g id="node3" class="node"><title>Node3</title>
<g id="a_node3"><a xlink:href="classhandler_1_1HandlerContainer.html" target="_top" xlink:title="Base class for classes which may contain handlers. ">
<polygon fill="none" stroke="black" points="0,-361.5 0,-380.5 130,-380.5 130,-361.5 0,-361.5"/>
<text text-anchor="middle" x="65" y="-368.5" font-family="Helvetica,sans-Serif" font-size="10.00">handler::HandlerContainer</text>
</a>
</g>
</g>
<!-- Node3&#45;&gt;Node2 -->
<g id="edge2" class="edge"><title>Node3&#45;&gt;Node2</title>
<path fill="none" stroke="midnightblue" d="M140.555,-371C149.218,-371 157.821,-371 165.854,-371"/>
<polygon fill="midnightblue" stroke="midnightblue" points="140.388,-367.5 130.388,-371 140.388,-374.5 140.388,-367.5"/>
</g>
<!-- Node18 -->
<g id="node18" class="node"><title>Node18</title>
<g id="a_node18"><a xlink:href="classhandler_1_1AbstractList.html" target="_top" xlink:title="Handles a list of elements (base class) ">
<polygon fill="none" stroke="black" points="614,-275.5 614,-294.5 721,-294.5 721,-275.5 614,-275.5"/>
<text text-anchor="middle" x="667.5" y="-282.5" font-family="Helvetica,sans-Serif" font-size="10.00">handler::AbstractList</text>
</a>
</g>
</g>
<!-- Node17&#45;&gt;Node18 -->
<g id="edge17" class="edge"><title>Node17&#45;&gt;Node18</title>
<path fill="none" stroke="midnightblue" d="M554.357,-250.227C562.253,-252.431 570.376,-254.745 578,-257 597.781,-262.85 619.906,-269.85 637.085,-275.388"/>
<polygon fill="midnightblue" stroke="midnightblue" points="555.101,-246.802 544.53,-247.508 553.234,-253.548 555.101,-246.802"/>
</g>
<!-- Node20 -->
<g id="node20" class="node"><title>Node20</title>
<g id="a_node20"><a xlink:href="classhandler_1_1Bridge.html" target="_top" xlink:title="Acts as bridge across connections. ">
<polygon fill="none" stroke="black" points="626.5,-228.5 626.5,-247.5 708.5,-247.5 708.5,-228.5 626.5,-228.5"/>
<text text-anchor="middle" x="667.5" y="-235.5" font-family="Helvetica,sans-Serif" font-size="10.00">handler::Bridge</text>
</a>
</g>
</g>
<!-- Node17&#45;&gt;Node20 -->
<g id="edge19" class="edge"><title>Node17&#45;&gt;Node20</title>
<path fill="none" stroke="midnightblue" d="M573.536,-238C591.333,-238 610.131,-238 626.132,-238"/>
<polygon fill="midnightblue" stroke="midnightblue" points="573.203,-234.5 563.203,-238 573.203,-241.5 573.203,-234.5"/>
</g>
<!-- Node19 -->
<g id="node19" class="node"><title>Node19</title>
<g id="a_node19"><a xlink:href="classhandler_1_1AdminGroup.html" target="_top" xlink:title="Manages a user group. ">
<polygon fill="none" stroke="black" points="776,-280.5 776,-299.5 884,-299.5 884,-280.5 776,-280.5"/>
<text text-anchor="middle" x="830" y="-287.5" font-family="Helvetica,sans-Serif" font-size="10.00">handler::AdminGroup</text>
</a>
</g>
</g>
<!-- Node18&#45;&gt;Node19 -->
<g id="edge18" class="edge"><title>Node18&#45;&gt;Node19</title>
<path fill="none" stroke="midnightblue" d="M731.114,-286.951C745.876,-287.41 761.476,-287.896 775.779,-288.342"/>
<polygon fill="midnightblue" stroke="midnightblue" points="731.158,-283.45 721.054,-286.637 730.94,-290.447 731.158,-283.45"/>
</g>
<!-- Node22 -->
<g id="node22" class="node"><title>Node22</title>
<g id="a_node22"><a xlink:href="classhandler_1_1SimpleJson.html" target="_top" xlink:title="Simple base class for handlers using AJAX web APIs. ">
<polygon fill="none" stroke="black" points="615,-171.5 615,-190.5 720,-190.5 720,-171.5 615,-171.5"/>
<text text-anchor="middle" x="667.5" y="-178.5" font-family="Helvetica,sans-Serif" font-size="10.00">handler::SimpleJson</text>
</a>
</g>
</g>
<!-- Node21&#45;&gt;Node22 -->
<g id="edge21" class="edge"><title>Node21&#45;&gt;Node22</title>
<path fill="none" stroke="midnightblue" d="M577.938,-191.684C590.314,-190.191 603.018,-188.658 614.803,-187.237"/>
<polygon fill="midnightblue" stroke="midnightblue" points="577.156,-188.253 567.647,-192.925 577.994,-195.202 577.156,-188.253"/>
</g>
<!-- Node23 -->
<g id="node23" class="node"><title>Node23</title>
<g id="a_node23"><a xlink:href="classhandler_1_1ChuckNorris.html" target="_top" xlink:title="Searches for a Chuck Norris joke. ">
<polygon fill="none" stroke="black" points="775.5,-242.5 775.5,-261.5 884.5,-261.5 884.5,-242.5 775.5,-242.5"/>
<text text-anchor="middle" x="830" y="-249.5" font-family="Helvetica,sans-Serif" font-size="10.00">handler::ChuckNorris</text>
</a>
</g>
</g>
<!-- Node22&#45;&gt;Node23 -->
<g id="edge22" class="edge"><title>Node22&#45;&gt;Node23</title>
<path fill="none" stroke="midnightblue" d="M690.311,-196.102C707.707,-207.572 733.045,-223.023 757,-233 765.831,-236.678 775.573,-239.817 784.961,-242.422"/>
<polygon fill="midnightblue" stroke="midnightblue" points="692.241,-193.182 681.987,-190.517 688.341,-198.995 692.241,-193.182"/>
</g>
<!-- Node24 -->
<g id="node24" class="node"><title>Node24</title>
<g id="a_node24"><a xlink:href="classhandler_1_1SearchImageGoogle.html" target="_top" xlink:title="Handler searching images with Google. ">
<polygon fill="none" stroke="black" points="758.5,-204.5 758.5,-223.5 901.5,-223.5 901.5,-204.5 758.5,-204.5"/>
<text text-anchor="middle" x="830" y="-211.5" font-family="Helvetica,sans-Serif" font-size="10.00">handler::SearchImageGoogle</text>
</a>
</g>
</g>
<!-- Node22&#45;&gt;Node24 -->
<g id="edge23" class="edge"><title>Node22&#45;&gt;Node24</title>
<path fill="none" stroke="midnightblue" d="M724.898,-192.596C743.799,-196.482 764.642,-200.768 782.681,-204.476"/>
<polygon fill="midnightblue" stroke="midnightblue" points="725.423,-189.131 714.923,-190.545 724.013,-195.987 725.423,-189.131"/>
</g>
<!-- Node25 -->
<g id="node25" class="node"><title>Node25</title>
<g id="a_node25"><a xlink:href="classhandler_1_1SearchVideoYoutube.html" target="_top" xlink:title="Handler searching a video on Youtube. ">
<polygon fill="none" stroke="black" points="757,-166.5 757,-185.5 903,-185.5 903,-166.5 757,-166.5"/>
<text text-anchor="middle" x="830" y="-173.5" font-family="Helvetica,sans-Serif" font-size="10.00">handler::SearchVideoYoutube</text>
</a>
</g>
</g>
<!-- Node22&#45;&gt;Node25 -->
<g id="edge24" class="edge"><title>Node22&#45;&gt;Node25</title>
<path fill="none" stroke="midnightblue" d="M730.259,-179.076C739.001,-178.804 748.052,-178.522 756.966,-178.244"/>
<polygon fill="midnightblue" stroke="midnightblue" points="730.053,-175.581 720.167,-179.39 730.271,-182.577 730.053,-175.581"/>
</g>
<!-- Node26 -->
<g id="node26" class="node"><title>Node26</title>
<g id="a_node26"><a xlink:href="classhandler_1_1SearchWebSearx.html" target="_top" xlink:title="Handler searching a web page using Searx. ">
<polygon fill="none" stroke="black" points="764.5,-128.5 764.5,-147.5 895.5,-147.5 895.5,-128.5 764.5,-128.5"/>
<text text-anchor="middle" x="830" y="-135.5" font-family="Helvetica,sans-Serif" font-size="10.00">handler::SearchWebSearx</text>
</a>
</g>
</g>
<!-- Node22&#45;&gt;Node26 -->
<g id="edge25" class="edge"><title>Node22&#45;&gt;Node26</title>
<path fill="none" stroke="midnightblue" d="M713.261,-168.798C727.262,-164.998 742.769,-160.807 757,-157 768.614,-153.893 781.292,-150.536 792.728,-147.52"/>
<polygon fill="midnightblue" stroke="midnightblue" points="712.105,-165.485 703.373,-171.484 713.941,-172.24 712.105,-165.485"/>
</g>
<!-- Node27 -->
<g id="node27" class="node"><title>Node27</title>
<g id="a_node27"><a xlink:href="classhandler_1_1UrbanDictionary.html" target="_top" xlink:title="Handler searching a definition on Urban Dictionary. ">
<polygon fill="none" stroke="black" points="767.5,-90.5 767.5,-109.5 892.5,-109.5 892.5,-90.5 767.5,-90.5"/>
<text text-anchor="middle" x="830" y="-97.5" font-family="Helvetica,sans-Serif" font-size="10.00">handler::UrbanDictionary</text>
</a>
</g>
</g>
<!-- Node22&#45;&gt;Node27 -->
<g id="edge26" class="edge"><title>Node22&#45;&gt;Node27</title>
<path fill="none" stroke="midnightblue" d="M687.499,-164.679C704.636,-150.722 731.062,-131.039 757,-119 765.091,-115.245 774.051,-112.133 782.824,-109.592"/>
<polygon fill="midnightblue" stroke="midnightblue" points="684.887,-162.299 679.436,-171.384 689.363,-167.681 684.887,-162.299"/>
</g>
</g>
</svg>
