<?xml version="1.0" encoding="UTF-8" standalone="no"?>
<!DOCTYPE svg PUBLIC "-//W3C//DTD SVG 1.1//EN"
 "http://www.w3.org/Graphics/SVG/1.1/DTD/svg11.dtd">
<!-- Generated by graphviz version 2.38.0 (20140413.2041)
 -->
<!-- Title: handler::Handler Pages: 1 -->
<svg width="914pt" height="997pt"
 viewBox="0.00 0.00 914.00 997.00" xmlns="http://www.w3.org/2000/svg" xmlns:xlink="http://www.w3.org/1999/xlink">
<g id="graph0" class="graph" transform="scale(1 1) rotate(0) translate(4 993)">
<title>handler::Handler</title>
<!-- Node1 -->
<g id="node1" class="node"><title>Node1</title>
<polygon fill="#bfbfbf" stroke="black" points="166,-779.5 166,-798.5 254,-798.5 254,-779.5 166,-779.5"/>
<text text-anchor="middle" x="210" y="-786.5" font-family="Helvetica,sans-Serif" font-size="10.00">handler::Handler</text>
</g>
<!-- Node3 -->
<g id="node3" class="node"><title>Node3</title>
<g id="a_node3"><a xlink:href="classhandler_1_1AcceptInvite.html" target="_top" xlink:title="Makes the bot join channels (IRC) ">
<polygon fill="none" stroke="black" points="301,-912.5 301,-931.5 410,-931.5 410,-912.5 301,-912.5"/>
<text text-anchor="middle" x="355.5" y="-919.5" font-family="Helvetica,sans-Serif" font-size="10.00">handler::AcceptInvite</text>
</a>
</g>
</g>
<!-- Node1&#45;&gt;Node3 -->
<g id="edge2" class="edge"><title>Node1&#45;&gt;Node3</title>
<path fill="none" stroke="midnightblue" d="M219.125,-807.884C231.006,-833.271 255.518,-878.089 290,-903 295.394,-906.897 301.583,-910 307.947,-912.47"/>
<polygon fill="midnightblue" stroke="midnightblue" points="222.24,-806.278 214.94,-798.6 215.859,-809.155 222.24,-806.278"/>
</g>
<!-- Node4 -->
<g id="node4" class="node"><title>Node4</title>
<g id="a_node4"><a xlink:href="classhandler_1_1AnswerQuestions.html" target="_top" xlink:title="Answers direct questions. ">
<polygon fill="none" stroke="black" points="290,-874.5 290,-893.5 421,-893.5 421,-874.5 290,-874.5"/>
<text text-anchor="middle" x="355.5" y="-881.5" font-family="Helvetica,sans-Serif" font-size="10.00">handler::AnswerQuestions</text>
</a>
</g>
</g>
<!-- Node1&#45;&gt;Node4 -->
<g id="edge3" class="edge"><title>Node1&#45;&gt;Node4</title>
<path fill="none" stroke="midnightblue" d="M225.095,-806.84C239.623,-824.086 263.794,-849.777 290,-865 296.561,-868.811 303.949,-871.912 311.32,-874.418"/>
<polygon fill="midnightblue" stroke="midnightblue" points="227.462,-804.207 218.417,-798.691 222.048,-808.644 227.462,-804.207"/>
</g>
<!-- Node5 -->
<g id="node5" class="node"><title>Node5</title>
<g id="a_node5"><a xlink:href="classhandler_1_1CtcpBase.html" target="_top" xlink:title="Base class for handling CTCP requests. ">
<polygon fill="none" stroke="black" points="306.5,-836.5 306.5,-855.5 404.5,-855.5 404.5,-836.5 306.5,-836.5"/>
<text text-anchor="middle" x="355.5" y="-843.5" font-family="Helvetica,sans-Serif" font-size="10.00">handler::CtcpBase</text>
</a>
</g>
</g>
<!-- Node1&#45;&gt;Node5 -->
<g id="edge4" class="edge"><title>Node1&#45;&gt;Node5</title>
<path fill="none" stroke="midnightblue" d="M238.054,-803.357C253.09,-810.993 272.29,-820.184 290,-827 299.042,-830.48 309.002,-833.701 318.332,-836.465"/>
<polygon fill="midnightblue" stroke="midnightblue" points="239.324,-800.074 228.831,-798.605 236.117,-806.297 239.324,-800.074"/>
</g>
<!-- Node12 -->
<g id="node12" class="node"><title>Node12</title>
<g id="a_node12"><a xlink:href="classhandler_1_1FilterGroup.html" target="_top" xlink:title="Discards messages coming from certain users. ">
<polygon fill="none" stroke="black" points="304.5,-798.5 304.5,-817.5 406.5,-817.5 406.5,-798.5 304.5,-798.5"/>
<text text-anchor="middle" x="355.5" y="-805.5" font-family="Helvetica,sans-Serif" font-size="10.00">handler::FilterGroup</text>
</a>
</g>
</g>
<!-- Node1&#45;&gt;Node12 -->
<g id="edge11" class="edge"><title>Node1&#45;&gt;Node12</title>
<path fill="none" stroke="midnightblue" d="M264.347,-796.063C277.462,-797.8 291.457,-799.653 304.411,-801.368"/>
<polygon fill="midnightblue" stroke="midnightblue" points="264.428,-792.544 254.055,-794.701 263.509,-799.483 264.428,-792.544"/>
</g>
<!-- Node13 -->
<g id="node13" class="node"><title>Node13</title>
<g id="a_node13"><a xlink:href="classhandler_1_1QGetWhois.html" target="_top" xlink:title="Parses responses from Q WHOIS and USER (IRC) ">
<polygon fill="none" stroke="black" points="303,-760.5 303,-779.5 408,-779.5 408,-760.5 303,-760.5"/>
<text text-anchor="middle" x="355.5" y="-767.5" font-family="Helvetica,sans-Serif" font-size="10.00">handler::QGetWhois</text>
</a>
</g>
</g>
<!-- Node1&#45;&gt;Node13 -->
<g id="edge12" class="edge"><title>Node1&#45;&gt;Node13</title>
<path fill="none" stroke="midnightblue" d="M264.019,-781.98C276.709,-780.3 290.241,-778.508 302.867,-776.836"/>
<polygon fill="midnightblue" stroke="midnightblue" points="263.509,-778.517 254.055,-783.299 264.428,-785.456 263.509,-778.517"/>
</g>
<!-- Node14 -->
<g id="node14" class="node"><title>Node14</title>
<g id="a_node14"><a xlink:href="classhandler_1_1QSendWhois.html" target="_top" xlink:title="Asks Q for WHOIS or USERS information when a user joins a channel (IRC) ">
<polygon fill="none" stroke="black" points="299.5,-722.5 299.5,-741.5 411.5,-741.5 411.5,-722.5 299.5,-722.5"/>
<text text-anchor="middle" x="355.5" y="-729.5" font-family="Helvetica,sans-Serif" font-size="10.00">handler::QSendWhois</text>
</a>
</g>
</g>
<!-- Node1&#45;&gt;Node14 -->
<g id="edge13" class="edge"><title>Node1&#45;&gt;Node14</title>
<path fill="none" stroke="midnightblue" d="M238.054,-774.643C253.09,-767.007 272.29,-757.816 290,-751 299.042,-747.52 309.002,-744.299 318.332,-741.535"/>
<polygon fill="midnightblue" stroke="midnightblue" points="236.117,-771.703 228.831,-779.395 239.324,-777.926 236.117,-771.703"/>
</g>
<!-- Node15 -->
<g id="node15" class="node"><title>Node15</title>
<g id="a_node15"><a xlink:href="classhandler_1_1SimpleAction.html" target="_top" xlink:title="A simple action sends a message to the same connection it came from. ">
<polygon fill="none" stroke="black" points="299.5,-456.5 299.5,-475.5 411.5,-475.5 411.5,-456.5 299.5,-456.5"/>
<text text-anchor="middle" x="355.5" y="-463.5" font-family="Helvetica,sans-Serif" font-size="10.00">handler::SimpleAction</text>
</a>
</g>
</g>
<!-- Node1&#45;&gt;Node15 -->
<g id="edge14" class="edge"><title>Node1&#45;&gt;Node15</title>
<path fill="none" stroke="midnightblue" d="M219.379,-770.139C246.346,-709.44 330.288,-520.498 350.222,-475.629"/>
<polygon fill="midnightblue" stroke="midnightblue" points="216.156,-768.773 215.295,-779.333 222.553,-771.616 216.156,-768.773"/>
</g>
<!-- Node42 -->
<g id="node42" class="node"><title>Node42</title>
<g id="a_node42"><a xlink:href="classhandler_1_1Whois330.html" target="_top" xlink:title="Sets the global id based on a 330 reply from whois (IRC) ">
<polygon fill="none" stroke="black" points="306.5,-418.5 306.5,-437.5 404.5,-437.5 404.5,-418.5 306.5,-418.5"/>
<text text-anchor="middle" x="355.5" y="-425.5" font-family="Helvetica,sans-Serif" font-size="10.00">handler::Whois330</text>
</a>
</g>
</g>
<!-- Node1&#45;&gt;Node42 -->
<g id="edge41" class="edge"><title>Node1&#45;&gt;Node42</title>
<path fill="none" stroke="midnightblue" d="M212.965,-769.24C219.868,-703.664 245.058,-494.697 290,-447 294.563,-442.157 300.292,-438.529 306.441,-435.815"/>
<polygon fill="midnightblue" stroke="midnightblue" points="209.458,-769.131 211.919,-779.436 216.421,-769.845 209.458,-769.131"/>
</g>
<!-- Node2 -->
<g id="node2" class="node"><title>Node2</title>
<g id="a_node2"><a xlink:href="classhandler_1_1HandlerContainer.html" target="_top" xlink:title="Base class for classes which may contain handlers. ">
<polygon fill="none" stroke="black" points="0,-779.5 0,-798.5 130,-798.5 130,-779.5 0,-779.5"/>
<text text-anchor="middle" x="65" y="-786.5" font-family="Helvetica,sans-Serif" font-size="10.00">handler::HandlerContainer</text>
</a>
</g>
</g>
<!-- Node2&#45;&gt;Node1 -->
<g id="edge1" class="edge"><title>Node2&#45;&gt;Node1</title>
<path fill="none" stroke="midnightblue" d="M140.555,-789C149.218,-789 157.821,-789 165.854,-789"/>
<polygon fill="midnightblue" stroke="midnightblue" points="140.388,-785.5 130.388,-789 140.388,-792.5 140.388,-785.5"/>
</g>
<!-- Node6 -->
<g id="node6" class="node"><title>Node6</title>
<g id="a_node6"><a xlink:href="classhandler_1_1CtcpClientInfo.html" target="_top" xlink:title="Shows help about other CTCP handlers. ">
<polygon fill="none" stroke="black" points="460.5,-969.5 460.5,-988.5 577.5,-988.5 577.5,-969.5 460.5,-969.5"/>
<text text-anchor="middle" x="519" y="-976.5" font-family="Helvetica,sans-Serif" font-size="10.00">handler::CtcpClientInfo</text>
</a>
</g>
</g>
<!-- Node5&#45;&gt;Node6 -->
<g id="edge5" class="edge"><title>Node5&#45;&gt;Node6</title>
<path fill="none" stroke="midnightblue" d="M413.558,-859.334C416.215,-861.006 418.719,-862.886 421,-865 454.114,-895.695 424.125,-929.049 457,-960 461.119,-963.878 466.017,-966.965 471.222,-969.422"/>
<polygon fill="midnightblue" stroke="midnightblue" points="415.123,-856.203 404.639,-854.674 411.881,-862.407 415.123,-856.203"/>
</g>
<!-- Node7 -->
<g id="node7" class="node"><title>Node7</title>
<g id="a_node7"><a xlink:href="classhandler_1_1CtcpPing.html" target="_top" xlink:title="CTCP PING reply, Used to measure round&#45;trip message delays. ">
<polygon fill="none" stroke="black" points="471.5,-931.5 471.5,-950.5 566.5,-950.5 566.5,-931.5 471.5,-931.5"/>
<text text-anchor="middle" x="519" y="-938.5" font-family="Helvetica,sans-Serif" font-size="10.00">handler::CtcpPing</text>
</a>
</g>
</g>
<!-- Node5&#45;&gt;Node7 -->
<g id="edge6" class="edge"><title>Node5&#45;&gt;Node7</title>
<path fill="none" stroke="midnightblue" d="M413.074,-859.911C415.855,-861.435 418.519,-863.125 421,-865 444.908,-883.061 433.233,-903.755 457,-922 462.015,-925.85 467.821,-928.927 473.817,-931.386"/>
<polygon fill="midnightblue" stroke="midnightblue" points="414.412,-856.673 403.873,-855.588 411.436,-863.009 414.412,-856.673"/>
</g>
<!-- Node8 -->
<g id="node8" class="node"><title>Node8</title>
<g id="a_node8"><a xlink:href="classhandler_1_1CtcpSource.html" target="_top" xlink:title="CTCP SOURCE reply, shows a URL with the sources. ">
<polygon fill="none" stroke="black" points="466,-893.5 466,-912.5 572,-912.5 572,-893.5 466,-893.5"/>
<text text-anchor="middle" x="519" y="-900.5" font-family="Helvetica,sans-Serif" font-size="10.00">handler::CtcpSource</text>
</a>
</g>
</g>
<!-- Node5&#45;&gt;Node8 -->
<g id="edge7" class="edge"><title>Node5&#45;&gt;Node8</title>
<path fill="none" stroke="midnightblue" d="M402.985,-858.482C409.109,-860.478 415.251,-862.664 421,-865 437.76,-871.812 440.293,-877.058 457,-884 465.399,-887.49 474.677,-890.693 483.407,-893.436"/>
<polygon fill="midnightblue" stroke="midnightblue" points="404.023,-855.139 393.434,-855.506 401.94,-861.822 404.023,-855.139"/>
</g>
<!-- Node9 -->
<g id="node9" class="node"><title>Node9</title>
<g id="a_node9"><a xlink:href="classhandler_1_1CtcpTime.html" target="_top" xlink:title="CTCP TIME reply, Shows the local time. ">
<polygon fill="none" stroke="black" points="470.5,-855.5 470.5,-874.5 567.5,-874.5 567.5,-855.5 470.5,-855.5"/>
<text text-anchor="middle" x="519" y="-862.5" font-family="Helvetica,sans-Serif" font-size="10.00">handler::CtcpTime</text>
</a>
</g>
</g>
<!-- Node5&#45;&gt;Node9 -->
<g id="edge8" class="edge"><title>Node5&#45;&gt;Node9</title>
<path fill="none" stroke="midnightblue" d="M414.51,-852.825C432.86,-854.984 452.916,-857.343 470.445,-859.405"/>
<polygon fill="midnightblue" stroke="midnightblue" points="414.859,-849.342 404.518,-851.649 414.041,-856.294 414.859,-849.342"/>
</g>
<!-- Node10 -->
<g id="node10" class="node"><title>Node10</title>
<g id="a_node10"><a xlink:href="classhandler_1_1CtcpUserInfo.html" target="_top" xlink:title="CTCP USERINFO reply, shows a user&#45;defined string. ">
<polygon fill="none" stroke="black" points="462.5,-817.5 462.5,-836.5 575.5,-836.5 575.5,-817.5 462.5,-817.5"/>
<text text-anchor="middle" x="519" y="-824.5" font-family="Helvetica,sans-Serif" font-size="10.00">handler::CtcpUserInfo</text>
</a>
</g>
</g>
<!-- Node5&#45;&gt;Node10 -->
<g id="edge9" class="edge"><title>Node5&#45;&gt;Node10</title>
<path fill="none" stroke="midnightblue" d="M414.522,-839.174C430.053,-837.347 446.806,-835.376 462.213,-833.563"/>
<polygon fill="midnightblue" stroke="midnightblue" points="414.041,-835.706 404.518,-840.351 414.859,-842.658 414.041,-835.706"/>
</g>
<!-- Node11 -->
<g id="node11" class="node"><title>Node11</title>
<g id="a_node11"><a xlink:href="classhandler_1_1CtcpVersion.html" target="_top" xlink:title="CTCP VERSION reply, shows a pre&#45;formatted version string. ">
<polygon fill="none" stroke="black" points="465,-779.5 465,-798.5 573,-798.5 573,-779.5 465,-779.5"/>
<text text-anchor="middle" x="519" y="-786.5" font-family="Helvetica,sans-Serif" font-size="10.00">handler::CtcpVersion</text>
</a>
</g>
</g>
<!-- Node5&#45;&gt;Node11 -->
<g id="edge10" class="edge"><title>Node5&#45;&gt;Node11</title>
<path fill="none" stroke="midnightblue" d="M402.985,-833.518C409.109,-831.522 415.251,-829.336 421,-827 437.76,-820.188 440.293,-814.942 457,-808 465.399,-804.51 474.677,-801.307 483.407,-798.564"/>
<polygon fill="midnightblue" stroke="midnightblue" points="401.94,-830.178 393.434,-836.494 404.023,-836.861 401.94,-830.178"/>
</g>
<!-- Node16 -->
<g id="node16" class="node"><title>Node16</title>
<g id="a_node16"><a xlink:href="classhandler_1_1AdminJoin.html" target="_top" xlink:title="Makes the bot join channels (IRC) ">
<polygon fill="none" stroke="black" points="469,-741.5 469,-760.5 569,-760.5 569,-741.5 469,-741.5"/>
<text text-anchor="middle" x="519" y="-748.5" font-family="Helvetica,sans-Serif" font-size="10.00">handler::AdminJoin</text>
</a>
</g>
</g>
<!-- Node15&#45;&gt;Node16 -->
<g id="edge15" class="edge"><title>Node15&#45;&gt;Node16</title>
<path fill="none" stroke="midnightblue" d="M358.173,-485.82C363.38,-534.859 383.661,-662.885 457,-732 461.117,-735.88 466.014,-738.968 471.218,-741.425"/>
<polygon fill="midnightblue" stroke="midnightblue" points="361.633,-485.239 357.192,-475.62 354.666,-485.909 361.633,-485.239"/>
</g>
<!-- Node17 -->
<g id="node17" class="node"><title>Node17</title>
<g id="a_node17"><a xlink:href="classhandler_1_1AdminNick.html" target="_top" xlink:title="Changes the bot nick (IRC) ">
<polygon fill="none" stroke="black" points="468,-703.5 468,-722.5 570,-722.5 570,-703.5 468,-703.5"/>
<text text-anchor="middle" x="519" y="-710.5" font-family="Helvetica,sans-Serif" font-size="10.00">handler::AdminNick</text>
</a>
</g>
</g>
<!-- Node15&#45;&gt;Node17 -->
<g id="edge16" class="edge"><title>Node15&#45;&gt;Node17</title>
<path fill="none" stroke="midnightblue" d="M359.603,-485.935C367.518,-530.035 392.582,-636.492 457,-694 461.385,-697.915 466.57,-701.023 472.034,-703.491"/>
<polygon fill="midnightblue" stroke="midnightblue" points="363.026,-485.188 357.911,-475.91 356.124,-486.353 363.026,-485.188"/>
</g>
<!-- Node18 -->
<g id="node18" class="node"><title>Node18</title>
<g id="a_node18"><a xlink:href="classhandler_1_1AdminPart.html" target="_top" xlink:title="Makes the bot part channels (IRC) ">
<polygon fill="none" stroke="black" points="469,-665.5 469,-684.5 569,-684.5 569,-665.5 469,-665.5"/>
<text text-anchor="middle" x="519" y="-672.5" font-family="Helvetica,sans-Serif" font-size="10.00">handler::AdminPart</text>
</a>
</g>
</g>
<!-- Node15&#45;&gt;Node18 -->
<g id="edge17" class="edge"><title>Node15&#45;&gt;Node18</title>
<path fill="none" stroke="midnightblue" d="M361.402,-485.437C372.079,-523.802 401.088,-609.561 457,-656 461.693,-659.898 467.185,-662.998 472.916,-665.463"/>
<polygon fill="midnightblue" stroke="midnightblue" points="364.723,-484.307 358.767,-475.544 357.958,-486.108 364.723,-484.307"/>
</g>
<!-- Node19 -->
<g id="node19" class="node"><title>Node19</title>
<g id="a_node19"><a xlink:href="classhandler_1_1AdminQuit.html" target="_top" xlink:title="Quits the bot. ">
<polygon fill="none" stroke="black" points="469,-627.5 469,-646.5 569,-646.5 569,-627.5 469,-627.5"/>
<text text-anchor="middle" x="519" y="-634.5" font-family="Helvetica,sans-Serif" font-size="10.00">handler::AdminQuit</text>
</a>
</g>
</g>
<!-- Node15&#45;&gt;Node19 -->
<g id="edge18" class="edge"><title>Node15&#45;&gt;Node19</title>
<path fill="none" stroke="midnightblue" d="M364.186,-485.496C377.92,-517.828 409.732,-582.492 457,-618 462.144,-621.864 468.088,-624.952 474.206,-627.418"/>
<polygon fill="midnightblue" stroke="midnightblue" points="367.265,-483.778 360.226,-475.859 360.79,-486.439 367.265,-483.778"/>
</g>
<!-- Node20 -->
<g id="node20" class="node"><title>Node20</title>
<g id="a_node20"><a xlink:href="classhandler_1_1AdminRaw.html" target="_top" xlink:title="Makes the bot execute a raw command (IRC) ">
<polygon fill="none" stroke="black" points="468,-589.5 468,-608.5 570,-608.5 570,-589.5 468,-589.5"/>
<text text-anchor="middle" x="519" y="-596.5" font-family="Helvetica,sans-Serif" font-size="10.00">handler::AdminRaw</text>
</a>
</g>
</g>
<!-- Node15&#45;&gt;Node20 -->
<g id="edge19" class="edge"><title>Node15&#45;&gt;Node20</title>
<path fill="none" stroke="midnightblue" d="M367.764,-484.088C384.311,-509.202 417.539,-554.422 457,-580 462.957,-583.861 469.748,-586.979 476.584,-589.485"/>
<polygon fill="midnightblue" stroke="midnightblue" points="370.614,-482.049 362.261,-475.531 364.726,-485.835 370.614,-482.049"/>
</g>
<!-- Node21 -->
<g id="node21" class="node"><title>Node21</title>
<g id="a_node21"><a xlink:href="classhandler_1_1Echo.html" target="_top" xlink:title="Just repeat what it has been told. ">
<polygon fill="none" stroke="black" points="480.5,-551.5 480.5,-570.5 557.5,-570.5 557.5,-551.5 480.5,-551.5"/>
<text text-anchor="middle" x="519" y="-558.5" font-family="Helvetica,sans-Serif" font-size="10.00">handler::Echo</text>
</a>
</g>
</g>
<!-- Node15&#45;&gt;Node21 -->
<g id="edge20" class="edge"><title>Node15&#45;&gt;Node21</title>
<path fill="none" stroke="midnightblue" d="M374.134,-482.383C393.256,-499.381 425.307,-525.713 457,-542 464.301,-545.752 472.477,-548.922 480.414,-551.534"/>
<polygon fill="midnightblue" stroke="midnightblue" points="376.302,-479.624 366.538,-475.512 371.607,-484.816 376.302,-479.624"/>
</g>
<!-- Node22 -->
<g id="node22" class="node"><title>Node22</title>
<g id="a_node22"><a xlink:href="classhandler_1_1Help.html" target="_top" xlink:title="Handler showing help on the available handlers. ">
<polygon fill="none" stroke="black" points="482,-513.5 482,-532.5 556,-532.5 556,-513.5 482,-513.5"/>
<text text-anchor="middle" x="519" y="-520.5" font-family="Helvetica,sans-Serif" font-size="10.00">handler::Help</text>
</a>
</g>
</g>
<!-- Node15&#45;&gt;Node22 -->
<g id="edge21" class="edge"><title>Node15&#45;&gt;Node22</title>
<path fill="none" stroke="midnightblue" d="M390.064,-479.263C409.51,-486.804 434.52,-496.257 457,-504 466.439,-507.251 476.78,-510.565 486.223,-513.495"/>
<polygon fill="midnightblue" stroke="midnightblue" points="391.311,-475.993 380.722,-475.622 388.769,-482.515 391.311,-475.993"/>
</g>
<!-- Node23 -->
<g id="node23" class="node"><title>Node23</title>
<g id="a_node23"><a xlink:href="classhandler_1_1License.html" target="_top" xlink:title="Handler showing licensing information. ">
<polygon fill="none" stroke="black" points="475,-475.5 475,-494.5 563,-494.5 563,-475.5 475,-475.5"/>
<text text-anchor="middle" x="519" y="-482.5" font-family="Helvetica,sans-Serif" font-size="10.00">handler::License</text>
</a>
</g>
</g>
<!-- Node15&#45;&gt;Node23 -->
<g id="edge22" class="edge"><title>Node15&#45;&gt;Node23</title>
<path fill="none" stroke="midnightblue" d="M421.966,-473.702C439.773,-475.797 458.61,-478.013 474.839,-479.922"/>
<polygon fill="midnightblue" stroke="midnightblue" points="421.968,-470.178 411.627,-472.486 421.15,-477.13 421.968,-470.178"/>
</g>
<!-- Node24 -->
<g id="node24" class="node"><title>Node24</title>
<g id="a_node24"><a xlink:href="classhandler_1_1ListClear.html" target="_top" xlink:title="Used by AbstractList to remove all elements. ">
<polygon fill="none" stroke="black" points="472.5,-437.5 472.5,-456.5 565.5,-456.5 565.5,-437.5 472.5,-437.5"/>
<text text-anchor="middle" x="519" y="-444.5" font-family="Helvetica,sans-Serif" font-size="10.00">handler::ListClear</text>
</a>
</g>
</g>
<!-- Node15&#45;&gt;Node24 -->
<g id="edge23" class="edge"><title>Node15&#45;&gt;Node24</title>
<path fill="none" stroke="midnightblue" d="M421.979,-458.297C438.84,-456.313 456.622,-454.221 472.24,-452.384"/>
<polygon fill="midnightblue" stroke="midnightblue" points="421.15,-454.87 411.627,-459.514 421.968,-461.822 421.15,-454.87"/>
</g>
<!-- Node25 -->
<g id="node25" class="node"><title>Node25</title>
<g id="a_node25"><a xlink:href="classhandler_1_1ListInsert.html" target="_top" xlink:title="Used by AbstractList to add elements. ">
<polygon fill="none" stroke="black" points="471.5,-399.5 471.5,-418.5 566.5,-418.5 566.5,-399.5 471.5,-399.5"/>
<text text-anchor="middle" x="519" y="-406.5" font-family="Helvetica,sans-Serif" font-size="10.00">handler::ListInsert</text>
</a>
</g>
</g>
<!-- Node15&#45;&gt;Node25 -->
<g id="edge24" class="edge"><title>Node15&#45;&gt;Node25</title>
<path fill="none" stroke="midnightblue" d="M402.985,-453.518C409.109,-451.522 415.251,-449.336 421,-447 437.76,-440.188 440.293,-434.942 457,-428 465.399,-424.51 474.677,-421.307 483.407,-418.564"/>
<polygon fill="midnightblue" stroke="midnightblue" points="401.94,-450.178 393.434,-456.494 404.023,-456.861 401.94,-450.178"/>
</g>
<!-- Node26 -->
<g id="node26" class="node"><title>Node26</title>
<g id="a_node26"><a xlink:href="classhandler_1_1ListRemove.html" target="_top" xlink:title="Used by AbstractList to remove elements. ">
<polygon fill="none" stroke="black" points="465.5,-361.5 465.5,-380.5 572.5,-380.5 572.5,-361.5 465.5,-361.5"/>
<text text-anchor="middle" x="519" y="-368.5" font-family="Helvetica,sans-Serif" font-size="10.00">handler::ListRemove</text>
</a>
</g>
</g>
<!-- Node15&#45;&gt;Node26 -->
<g id="edge25" class="edge"><title>Node15&#45;&gt;Node26</title>
<path fill="none" stroke="midnightblue" d="M413.074,-452.089C415.855,-450.565 418.519,-448.875 421,-447 444.908,-428.939 433.233,-408.245 457,-390 462.015,-386.15 467.821,-383.073 473.817,-380.614"/>
<polygon fill="midnightblue" stroke="midnightblue" points="411.436,-448.991 403.873,-456.412 414.412,-455.327 411.436,-448.991"/>
</g>
<!-- Node27 -->
<g id="node27" class="node"><title>Node27</title>
<g id="a_node27"><a xlink:href="classhandler_1_1Morse.html" target="_top" xlink:title="Handler translating between morse and latin. ">
<polygon fill="none" stroke="black" points="478.5,-323.5 478.5,-342.5 559.5,-342.5 559.5,-323.5 478.5,-323.5"/>
<text text-anchor="middle" x="519" y="-330.5" font-family="Helvetica,sans-Serif" font-size="10.00">handler::Morse</text>
</a>
</g>
</g>
<!-- Node15&#45;&gt;Node27 -->
<g id="edge26" class="edge"><title>Node15&#45;&gt;Node27</title>
<path fill="none" stroke="midnightblue" d="M415.542,-451.358C417.467,-450.029 419.296,-448.58 421,-447 454.114,-416.305 424.125,-382.951 457,-352 462.976,-346.373 470.595,-342.412 478.406,-339.624"/>
<polygon fill="midnightblue" stroke="midnightblue" points="413.55,-448.464 406.587,-456.449 417.01,-454.549 413.55,-448.464"/>
</g>
<!-- Node28 -->
<g id="node28" class="node"><title>Node28</title>
<g id="a_node28"><a xlink:href="classhandler_1_1RenderPony.html" target="_top" xlink:title="Draws a pretty My Little Pony ASCII art. ">
<polygon fill="none" stroke="black" points="465,-285.5 465,-304.5 573,-304.5 573,-285.5 465,-285.5"/>
<text text-anchor="middle" x="519" y="-292.5" font-family="Helvetica,sans-Serif" font-size="10.00">handler::RenderPony</text>
</a>
</g>
</g>
<!-- Node15&#45;&gt;Node28 -->
<g id="edge27" class="edge"><title>Node15&#45;&gt;Node28</title>
<path fill="none" stroke="midnightblue" d="M416.487,-451.003C418.081,-449.771 419.592,-448.44 421,-447 463.82,-403.222 414.52,-358.109 457,-314 460.693,-310.165 465.146,-307.1 469.944,-304.652"/>
<polygon fill="midnightblue" stroke="midnightblue" points="414.537,-448.095 407.921,-456.37 418.253,-454.027 414.537,-448.095"/>
</g>
<!-- Node29 -->
<g id="node29" class="node"><title>Node29</title>
<g id="a_node29"><a xlink:href="classhandler_1_1ReverseText.html" target="_top" xlink:title="Turns ASCII characters upside&#45;down. ">
<polygon fill="none" stroke="black" points="464,-247.5 464,-266.5 574,-266.5 574,-247.5 464,-247.5"/>
<text text-anchor="middle" x="519" y="-254.5" font-family="Helvetica,sans-Serif" font-size="10.00">handler::ReverseText</text>
</a>
</g>
</g>
<!-- Node15&#45;&gt;Node29 -->
<g id="edge28" class="edge"><title>Node15&#45;&gt;Node29</title>
<path fill="none" stroke="midnightblue" d="M417.076,-450.712C418.462,-449.562 419.775,-448.326 421,-447 473.707,-389.957 404.736,-333.45 457,-276 460.508,-272.144 464.784,-269.063 469.428,-266.603"/>
<polygon fill="midnightblue" stroke="midnightblue" points="414.863,-447.98 408.456,-456.418 418.727,-453.817 414.863,-447.98"/>
</g>
<!-- Node30 -->
<g id="node30" class="node"><title>Node30</title>
<g id="a_node30"><a xlink:href="classhandler_1_1ServerHost.html" target="_top" xlink:title="Shows the server the bot is connected to. ">
<polygon fill="none" stroke="black" points="467,-209.5 467,-228.5 571,-228.5 571,-209.5 467,-209.5"/>
<text text-anchor="middle" x="519" y="-216.5" font-family="Helvetica,sans-Serif" font-size="10.00">handler::ServerHost</text>
</a>
</g>
</g>
<!-- Node15&#45;&gt;Node30 -->
<g id="edge29" class="edge"><title>Node15&#45;&gt;Node30</title>
<path fill="none" stroke="midnightblue" d="M417.233,-450.694C418.565,-449.548 419.826,-448.319 421,-447 483.678,-376.602 394.869,-308.881 457,-238 460.363,-234.163 464.487,-231.092 468.99,-228.634"/>
<polygon fill="midnightblue" stroke="midnightblue" points="415.191,-447.85 408.912,-456.383 419.142,-453.628 415.191,-447.85"/>
</g>
<!-- Node31 -->
<g id="node31" class="node"><title>Node31</title>
<g id="a_node31"><a xlink:href="classhandler_1_1SimpleGroup.html" target="_top" xlink:title="A simple group of actions which share settings. ">
<polygon fill="none" stroke="black" points="464,-171.5 464,-190.5 574,-190.5 574,-171.5 464,-171.5"/>
<text text-anchor="middle" x="519" y="-178.5" font-family="Helvetica,sans-Serif" font-size="10.00">handler::SimpleGroup</text>
</a>
</g>
</g>
<!-- Node15&#45;&gt;Node31 -->
<g id="edge30" class="edge"><title>Node15&#45;&gt;Node31</title>
<path fill="none" stroke="midnightblue" d="M417.278,-450.734C418.598,-449.576 419.843,-448.334 421,-447 493.693,-363.197 384.958,-284.363 457,-200 460.313,-196.12 464.406,-193.021 468.89,-190.547"/>
<polygon fill="midnightblue" stroke="midnightblue" points="415.231,-447.894 409.014,-456.474 419.224,-453.643 415.231,-447.894"/>
</g>
<!-- Node34 -->
<g id="node34" class="node"><title>Node34</title>
<g id="a_node34"><a xlink:href="classhandler_1_1SimpleWebApi.html" target="_top" xlink:title="Simple base class for handlers calling web resources. ">
<polygon fill="none" stroke="black" points="459.5,-133.5 459.5,-152.5 578.5,-152.5 578.5,-133.5 459.5,-133.5"/>
<text text-anchor="middle" x="519" y="-140.5" font-family="Helvetica,sans-Serif" font-size="10.00">handler::SimpleWebApi</text>
</a>
</g>
</g>
<!-- Node15&#45;&gt;Node34 -->
<g id="edge33" class="edge"><title>Node15&#45;&gt;Node34</title>
<path fill="none" stroke="midnightblue" d="M417.748,-450.369C418.896,-449.316 419.983,-448.195 421,-447 503.735,-349.762 375.02,-259.876 457,-162 460.205,-158.173 464.168,-155.105 468.524,-152.647"/>
<polygon fill="midnightblue" stroke="midnightblue" points="415.476,-447.691 409.396,-456.368 419.56,-453.377 415.476,-447.691"/>
</g>
<!-- Node41 -->
<g id="node41" class="node"><title>Node41</title>
<g id="a_node41"><a xlink:href="classhandler_1_1WhoisCheckMe.html" target="_top" xlink:title="Sends a WHOIS about the message sender. ">
<polygon fill="none" stroke="black" points="457,-95.5 457,-114.5 581,-114.5 581,-95.5 457,-95.5"/>
<text text-anchor="middle" x="519" y="-102.5" font-family="Helvetica,sans-Serif" font-size="10.00">handler::WhoisCheckMe</text>
</a>
</g>
</g>
<!-- Node15&#45;&gt;Node41 -->
<g id="edge40" class="edge"><title>Node15&#45;&gt;Node41</title>
<path fill="none" stroke="midnightblue" d="M417.771,-450.389C418.913,-449.33 419.992,-448.202 421,-447 513.795,-336.305 365.065,-235.409 457,-124 460.177,-120.15 464.122,-117.067 468.467,-114.599"/>
<polygon fill="midnightblue" stroke="midnightblue" points="415.498,-447.715 409.455,-456.417 419.606,-453.382 415.498,-447.715"/>
</g>
<!-- Node32 -->
<g id="node32" class="node"><title>Node32</title>
<g id="a_node32"><a xlink:href="classhandler_1_1AbstractList.html" target="_top" xlink:title="Handles a list of elements (base class) ">
<polygon fill="none" stroke="black" points="617,-171.5 617,-190.5 724,-190.5 724,-171.5 617,-171.5"/>
<text text-anchor="middle" x="670.5" y="-178.5" font-family="Helvetica,sans-Serif" font-size="10.00">handler::AbstractList</text>
</a>
</g>
</g>
<!-- Node31&#45;&gt;Node32 -->
<g id="edge31" class="edge"><title>Node31&#45;&gt;Node32</title>
<path fill="none" stroke="midnightblue" d="M584.613,-181C595.393,-181 606.459,-181 616.892,-181"/>
<polygon fill="midnightblue" stroke="midnightblue" points="584.396,-177.5 574.396,-181 584.396,-184.5 584.396,-177.5"/>
</g>
<!-- Node33 -->
<g id="node33" class="node"><title>Node33</title>
<g id="a_node33"><a xlink:href="classhandler_1_1AdminGroup.html" target="_top" xlink:title="Manages a user group. ">
<polygon fill="none" stroke="black" points="779,-190.5 779,-209.5 887,-209.5 887,-190.5 779,-190.5"/>
<text text-anchor="middle" x="833" y="-197.5" font-family="Helvetica,sans-Serif" font-size="10.00">handler::AdminGroup</text>
</a>
</g>
</g>
<!-- Node32&#45;&gt;Node33 -->
<g id="edge32" class="edge"><title>Node32&#45;&gt;Node33</title>
<path fill="none" stroke="midnightblue" d="M734.114,-188.412C748.876,-190.16 764.476,-192.006 778.779,-193.7"/>
<polygon fill="midnightblue" stroke="midnightblue" points="734.396,-184.921 724.054,-187.221 733.573,-191.873 734.396,-184.921"/>
</g>
<!-- Node35 -->
<g id="node35" class="node"><title>Node35</title>
<g id="a_node35"><a xlink:href="classhandler_1_1SimpleJson.html" target="_top" xlink:title="Simple base class for handlers using AJAX web APIs. ">
<polygon fill="none" stroke="black" points="618,-95.5 618,-114.5 723,-114.5 723,-95.5 618,-95.5"/>
<text text-anchor="middle" x="670.5" y="-102.5" font-family="Helvetica,sans-Serif" font-size="10.00">handler::SimpleJson</text>
</a>
</g>
</g>
<!-- Node34&#45;&gt;Node35 -->
<g id="edge34" class="edge"><title>Node34&#45;&gt;Node35</title>
<path fill="none" stroke="midnightblue" d="M567.652,-130.888C588.473,-125.596 612.538,-119.479 632.046,-114.52"/>
<polygon fill="midnightblue" stroke="midnightblue" points="566.555,-127.555 557.725,-133.411 568.279,-134.34 566.555,-127.555"/>
</g>
<!-- Node36 -->
<g id="node36" class="node"><title>Node36</title>
<g id="a_node36"><a xlink:href="classhandler_1_1ChuckNorris.html" target="_top" xlink:title="Searches for a Chuck Norris joke. ">
<polygon fill="none" stroke="black" points="778.5,-152.5 778.5,-171.5 887.5,-171.5 887.5,-152.5 778.5,-152.5"/>
<text text-anchor="middle" x="833" y="-159.5" font-family="Helvetica,sans-Serif" font-size="10.00">handler::ChuckNorris</text>
</a>
</g>
</g>
<!-- Node35&#45;&gt;Node36 -->
<g id="edge35" class="edge"><title>Node35&#45;&gt;Node36</title>
<path fill="none" stroke="midnightblue" d="M700.949,-118.942C717.963,-126.667 739.913,-136.079 760,-143 770.145,-146.495 781.28,-149.721 791.697,-152.485"/>
<polygon fill="midnightblue" stroke="midnightblue" points="702.101,-115.619 691.553,-114.62 699.175,-121.979 702.101,-115.619"/>
</g>
<!-- Node37 -->
<g id="node37" class="node"><title>Node37</title>
<g id="a_node37"><a xlink:href="classhandler_1_1SearchImageGoogle.html" target="_top" xlink:title="Handler searching images with Google. ">
<polygon fill="none" stroke="black" points="761.5,-114.5 761.5,-133.5 904.5,-133.5 904.5,-114.5 761.5,-114.5"/>
<text text-anchor="middle" x="833" y="-121.5" font-family="Helvetica,sans-Serif" font-size="10.00">handler::SearchImageGoogle</text>
</a>
</g>
</g>
<!-- Node35&#45;&gt;Node37 -->
<g id="edge36" class="edge"><title>Node35&#45;&gt;Node37</title>
<path fill="none" stroke="midnightblue" d="M733.364,-112.323C742.548,-113.411 752.072,-114.538 761.418,-115.645"/>
<polygon fill="midnightblue" stroke="midnightblue" points="733.509,-108.816 723.167,-111.116 732.686,-115.768 733.509,-108.816"/>
</g>
<!-- Node38 -->
<g id="node38" class="node"><title>Node38</title>
<g id="a_node38"><a xlink:href="classhandler_1_1SearchVideoYoutube.html" target="_top" xlink:title="Handler searching a video on Youtube. ">
<polygon fill="none" stroke="black" points="760,-76.5 760,-95.5 906,-95.5 906,-76.5 760,-76.5"/>
<text text-anchor="middle" x="833" y="-83.5" font-family="Helvetica,sans-Serif" font-size="10.00">handler::SearchVideoYoutube</text>
</a>
</g>
</g>
<!-- Node35&#45;&gt;Node38 -->
<g id="edge37" class="edge"><title>Node35&#45;&gt;Node38</title>
<path fill="none" stroke="midnightblue" d="M733.259,-97.6889C742.001,-96.6541 751.052,-95.5827 759.966,-94.5274"/>
<polygon fill="midnightblue" stroke="midnightblue" points="732.686,-94.2323 723.167,-98.8837 733.509,-101.184 732.686,-94.2323"/>
</g>
<!-- Node39 -->
<g id="node39" class="node"><title>Node39</title>
<g id="a_node39"><a xlink:href="classhandler_1_1SearchWebSearx.html" target="_top" xlink:title="Handler searching a web page using Searx. ">
<polygon fill="none" stroke="black" points="767.5,-38.5 767.5,-57.5 898.5,-57.5 898.5,-38.5 767.5,-38.5"/>
<text text-anchor="middle" x="833" y="-45.5" font-family="Helvetica,sans-Serif" font-size="10.00">handler::SearchWebSearx</text>
</a>
</g>
</g>
<!-- Node35&#45;&gt;Node39 -->
<g id="edge38" class="edge"><title>Node35&#45;&gt;Node39</title>
<path fill="none" stroke="midnightblue" d="M700.949,-91.0581C717.963,-83.3327 739.913,-73.9207 760,-67 770.145,-63.5048 781.28,-60.2788 791.697,-57.5148"/>
<polygon fill="midnightblue" stroke="midnightblue" points="699.175,-88.0214 691.553,-95.3802 702.101,-94.3809 699.175,-88.0214"/>
</g>
<!-- Node40 -->
<g id="node40" class="node"><title>Node40</title>
<g id="a_node40"><a xlink:href="classhandler_1_1UrbanDictionary.html" target="_top" xlink:title="Handler searching a definition on Urban Dictionary. ">
<polygon fill="none" stroke="black" points="770.5,-0.5 770.5,-19.5 895.5,-19.5 895.5,-0.5 770.5,-0.5"/>
<text text-anchor="middle" x="833" y="-7.5" font-family="Helvetica,sans-Serif" font-size="10.00">handler::UrbanDictionary</text>
</a>
</g>
</g>
<!-- Node35&#45;&gt;Node40 -->
<g id="edge39" class="edge"><title>Node35&#45;&gt;Node40</title>
<path fill="none" stroke="midnightblue" d="M687.183,-87.5395C703.675,-70.2196 731.189,-44.1383 760,-29 767.324,-25.1516 775.487,-22.0399 783.61,-19.537"/>
<polygon fill="midnightblue" stroke="midnightblue" points="684.259,-85.5442 680.015,-95.2519 689.387,-90.3097 684.259,-85.5442"/>
</g>
</g>
</svg>
