<?xml version="1.0" encoding="UTF-8" standalone="no"?>
<!DOCTYPE svg PUBLIC "-//W3C//DTD SVG 1.1//EN"
 "http://www.w3.org/Graphics/SVG/1.1/DTD/svg11.dtd">
<!-- Generated by graphviz version 2.38.0 (20140413.2041)
 -->
<!-- Title: handler::Handler Pages: 1 -->
<!--zoomable 1035 -->
<svg id="main" version="1.1" xmlns="http://www.w3.org/2000/svg" xmlns:xlink="http://www.w3.org/1999/xlink" xml:space="preserve" onload="init(evt)">
<style type="text/css"><![CDATA[
.edge:hover path { stroke: red; }
.edge:hover polygon { stroke: red; fill: red; }
]]></style>
<script type="text/javascript"><![CDATA[
var edges = document.getElementsByTagName('g');
if (edges && edges.length) {
  for (var i=0;i<edges.length;i++) {
    if (edges[i].id.substr(0,4)=='edge') {
      edges[i].setAttribute('class','edge');
    }
  }
}
]]></script>
        <defs>
                <circle id="rim" cx="0" cy="0" r="7"/>
                <circle id="rim2" cx="0" cy="0" r="3.5"/>
                <g id="zoomPlus">
                        <use xlink:href="#rim" fill="#404040">
                                <set attributeName="fill" to="#808080" begin="zoomplus.mouseover" end="zoomplus.mouseout"/>
                        </use>
                        <path d="M-4,0h8M0,-4v8" fill="none" stroke="white" stroke-width="1.5" pointer-events="none"/>
                </g>
                <g id="zoomMin">
                        <use xlink:href="#rim" fill="#404040">
                                <set attributeName="fill" to="#808080" begin="zoomminus.mouseover" end="zoomminus.mouseout"/>
                        </use>
                        <path d="M-4,0h8" fill="none" stroke="white" stroke-width="1.5" pointer-events="none"/>
                </g>
                <g id="dirArrow">
                        <path fill="none" stroke="white" stroke-width="1.5" d="M0,-3.0v7 M-2.5,-0.5L0,-3.0L2.5,-0.5"/>
                </g>
               <g id="resetDef">
                       <use xlink:href="#rim2" fill="#404040">
                               <set attributeName="fill" to="#808080" begin="reset.mouseover" end="reset.mouseout"/>
                       </use>
               </g>
        </defs>

<script type="text/javascript">
var viewWidth = 914;
var viewHeight = 1035;
var sectionId = 'dynsection-0';
</script>
<script xlink:href="svgpan.js"/>
<svg id="graph" class="graph">
<g id="viewport">
<title>handler::Handler</title>
<!-- Node1 -->
<g id="node1" class="node"><title>Node1</title>
<polygon fill="#bfbfbf" stroke="black" points="166,-798.5 166,-817.5 254,-817.5 254,-798.5 166,-798.5"/>
<text text-anchor="middle" x="210" y="-805.5" font-family="Helvetica,sans-Serif" font-size="10.00">handler::Handler</text>
</g>
<!-- Node3 -->
<g id="node3" class="node"><title>Node3</title>
<g id="a_node3"><a xlink:href="classhandler_1_1AcceptInvite.html" target="_top" xlink:title="Makes the bot join channels (IRC) ">
<polygon fill="none" stroke="black" points="301,-950.5 301,-969.5 410,-969.5 410,-950.5 301,-950.5"/>
<text text-anchor="middle" x="355.5" y="-957.5" font-family="Helvetica,sans-Serif" font-size="10.00">handler::AcceptInvite</text>
</a>
</g>
</g>
<!-- Node1&#45;&gt;Node3 -->
<g id="edge2" class="edge"><title>Node1&#45;&gt;Node3</title>
<path fill="none" stroke="midnightblue" d="M217.351,-827.503C227.816,-856.571 251.453,-911.044 290,-941 294.977,-944.868 300.725,-947.95 306.696,-950.405"/>
<polygon fill="midnightblue" stroke="midnightblue" points="220.544,-826.027 213.981,-817.71 213.925,-828.305 220.544,-826.027"/>
</g>
<!-- Node4 -->
<g id="node4" class="node"><title>Node4</title>
<g id="a_node4"><a xlink:href="classhandler_1_1AnswerQuestions.html" target="_top" xlink:title="Answers direct questions. ">
<polygon fill="none" stroke="black" points="290,-912.5 290,-931.5 421,-931.5 421,-912.5 290,-912.5"/>
<text text-anchor="middle" x="355.5" y="-919.5" font-family="Helvetica,sans-Serif" font-size="10.00">handler::AnswerQuestions</text>
</a>
</g>
</g>
<!-- Node1&#45;&gt;Node4 -->
<g id="edge3" class="edge"><title>Node1&#45;&gt;Node4</title>
<path fill="none" stroke="midnightblue" d="M221.652,-826.517C234.955,-848.016 259.694,-883.067 290,-903 295.852,-906.849 302.504,-909.937 309.259,-912.41"/>
<polygon fill="midnightblue" stroke="midnightblue" points="224.509,-824.475 216.366,-817.696 218.504,-828.073 224.509,-824.475"/>
</g>
<!-- Node5 -->
<g id="node5" class="node"><title>Node5</title>
<g id="a_node5"><a xlink:href="classhandler_1_1CtcpBase.html" target="_top" xlink:title="Base class for handling CTCP requests. ">
<polygon fill="none" stroke="black" points="306.5,-874.5 306.5,-893.5 404.5,-893.5 404.5,-874.5 306.5,-874.5"/>
<text text-anchor="middle" x="355.5" y="-881.5" font-family="Helvetica,sans-Serif" font-size="10.00">handler::CtcpBase</text>
</a>
</g>
</g>
<!-- Node1&#45;&gt;Node5 -->
<g id="edge4" class="edge"><title>Node1&#45;&gt;Node5</title>
<path fill="none" stroke="midnightblue" d="M229.424,-824.081C244.738,-836.734 267.576,-854.009 290,-865 297.547,-868.699 305.951,-871.821 314.133,-874.397"/>
<polygon fill="midnightblue" stroke="midnightblue" points="231.64,-821.371 221.74,-817.596 227.125,-826.72 231.64,-821.371"/>
</g>
<!-- Node12 -->
<g id="node12" class="node"><title>Node12</title>
<g id="a_node12"><a xlink:href="classhandler_1_1FilterGroup.html" target="_top" xlink:title="Discards messages coming from certain users. ">
<polygon fill="none" stroke="black" points="304.5,-836.5 304.5,-855.5 406.5,-855.5 406.5,-836.5 304.5,-836.5"/>
<text text-anchor="middle" x="355.5" y="-843.5" font-family="Helvetica,sans-Serif" font-size="10.00">handler::FilterGroup</text>
</a>
</g>
</g>
<!-- Node1&#45;&gt;Node12 -->
<g id="edge11" class="edge"><title>Node1&#45;&gt;Node12</title>
<path fill="none" stroke="midnightblue" d="M256.973,-820.174C276.816,-825.429 299.693,-831.487 318.3,-836.414"/>
<polygon fill="midnightblue" stroke="midnightblue" points="257.774,-816.766 247.211,-817.589 255.982,-823.532 257.774,-816.766"/>
</g>
<!-- Node13 -->
<g id="node13" class="node"><title>Node13</title>
<g id="a_node13"><a xlink:href="classhandler_1_1QGetWhois.html" target="_top" xlink:title="Parses responses from Q WHOIS and USER (IRC) ">
<polygon fill="none" stroke="black" points="303,-798.5 303,-817.5 408,-817.5 408,-798.5 303,-798.5"/>
<text text-anchor="middle" x="355.5" y="-805.5" font-family="Helvetica,sans-Serif" font-size="10.00">handler::QGetWhois</text>
</a>
</g>
</g>
<!-- Node1&#45;&gt;Node13 -->
<g id="edge12" class="edge"><title>Node1&#45;&gt;Node13</title>
<path fill="none" stroke="midnightblue" d="M264.396,-808C276.977,-808 290.366,-808 302.867,-808"/>
<polygon fill="midnightblue" stroke="midnightblue" points="264.055,-804.5 254.055,-808 264.055,-811.5 264.055,-804.5"/>
</g>
<!-- Node14 -->
<g id="node14" class="node"><title>Node14</title>
<g id="a_node14"><a xlink:href="classhandler_1_1QSendWhois.html" target="_top" xlink:title="Asks Q for WHOIS or USERS information when a user joins a channel (IRC) ">
<polygon fill="none" stroke="black" points="299.5,-760.5 299.5,-779.5 411.5,-779.5 411.5,-760.5 299.5,-760.5"/>
<text text-anchor="middle" x="355.5" y="-767.5" font-family="Helvetica,sans-Serif" font-size="10.00">handler::QSendWhois</text>
</a>
</g>
</g>
<!-- Node1&#45;&gt;Node14 -->
<g id="edge13" class="edge"><title>Node1&#45;&gt;Node14</title>
<path fill="none" stroke="midnightblue" d="M256.973,-795.826C276.816,-790.571 299.693,-784.513 318.3,-779.586"/>
<polygon fill="midnightblue" stroke="midnightblue" points="255.982,-792.468 247.211,-798.411 257.774,-799.234 255.982,-792.468"/>
</g>
<!-- Node15 -->
<g id="node15" class="node"><title>Node15</title>
<g id="a_node15"><a xlink:href="classhandler_1_1Reply.html" target="_top" xlink:title="Fixed reply. ">
<polygon fill="none" stroke="black" points="315.5,-722.5 315.5,-741.5 395.5,-741.5 395.5,-722.5 315.5,-722.5"/>
<text text-anchor="middle" x="355.5" y="-729.5" font-family="Helvetica,sans-Serif" font-size="10.00">handler::Reply</text>
</a>
</g>
</g>
<!-- Node1&#45;&gt;Node15 -->
<g id="edge14" class="edge"><title>Node1&#45;&gt;Node15</title>
<path fill="none" stroke="midnightblue" d="M229.424,-791.919C244.738,-779.266 267.576,-761.991 290,-751 297.966,-747.095 306.887,-743.834 315.494,-741.179"/>
<polygon fill="midnightblue" stroke="midnightblue" points="227.125,-789.28 221.74,-798.404 231.64,-794.629 227.125,-789.28"/>
</g>
<!-- Node16 -->
<g id="node16" class="node"><title>Node16</title>
<g id="a_node16"><a xlink:href="classhandler_1_1SimpleAction.html" target="_top" xlink:title="A simple action sends a message to the same connection it came from. ">
<polygon fill="none" stroke="black" points="299.5,-475.5 299.5,-494.5 411.5,-494.5 411.5,-475.5 299.5,-475.5"/>
<text text-anchor="middle" x="355.5" y="-482.5" font-family="Helvetica,sans-Serif" font-size="10.00">handler::SimpleAction</text>
</a>
</g>
</g>
<!-- Node1&#45;&gt;Node16 -->
<g id="edge15" class="edge"><title>Node1&#45;&gt;Node16</title>
<path fill="none" stroke="midnightblue" d="M219.379,-789.139C246.346,-728.44 330.288,-539.498 350.222,-494.629"/>
<polygon fill="midnightblue" stroke="midnightblue" points="216.156,-787.773 215.295,-798.333 222.553,-790.616 216.156,-787.773"/>
</g>
<!-- Node44 -->
<g id="node44" class="node"><title>Node44</title>
<g id="a_node44"><a xlink:href="classhandler_1_1Whois330.html" target="_top" xlink:title="Sets the global id based on a 330 reply from whois (IRC) ">
<polygon fill="none" stroke="black" points="306.5,-437.5 306.5,-456.5 404.5,-456.5 404.5,-437.5 306.5,-437.5"/>
<text text-anchor="middle" x="355.5" y="-444.5" font-family="Helvetica,sans-Serif" font-size="10.00">handler::Whois330</text>
</a>
</g>
</g>
<!-- Node1&#45;&gt;Node44 -->
<g id="edge43" class="edge"><title>Node1&#45;&gt;Node44</title>
<path fill="none" stroke="midnightblue" d="M212.965,-788.24C219.868,-722.664 245.058,-513.697 290,-466 294.563,-461.157 300.292,-457.529 306.441,-454.815"/>
<polygon fill="midnightblue" stroke="midnightblue" points="209.458,-788.131 211.919,-798.436 216.421,-788.845 209.458,-788.131"/>
</g>
<!-- Node2 -->
<g id="node2" class="node"><title>Node2</title>
<g id="a_node2"><a xlink:href="classhandler_1_1HandlerContainer.html" target="_top" xlink:title="Base class for classes which may contain handlers. ">
<polygon fill="none" stroke="black" points="0,-798.5 0,-817.5 130,-817.5 130,-798.5 0,-798.5"/>
<text text-anchor="middle" x="65" y="-805.5" font-family="Helvetica,sans-Serif" font-size="10.00">handler::HandlerContainer</text>
</a>
</g>
</g>
<!-- Node2&#45;&gt;Node1 -->
<g id="edge1" class="edge"><title>Node2&#45;&gt;Node1</title>
<path fill="none" stroke="midnightblue" d="M140.555,-808C149.218,-808 157.821,-808 165.854,-808"/>
<polygon fill="midnightblue" stroke="midnightblue" points="140.388,-804.5 130.388,-808 140.388,-811.5 140.388,-804.5"/>
</g>
<!-- Node6 -->
<g id="node6" class="node"><title>Node6</title>
<g id="a_node6"><a xlink:href="classhandler_1_1CtcpClientInfo.html" target="_top" xlink:title="Shows help about other CTCP handlers. ">
<polygon fill="none" stroke="black" points="460.5,-1007.5 460.5,-1026.5 577.5,-1026.5 577.5,-1007.5 460.5,-1007.5"/>
<text text-anchor="middle" x="519" y="-1014.5" font-family="Helvetica,sans-Serif" font-size="10.00">handler::CtcpClientInfo</text>
</a>
</g>
</g>
<!-- Node5&#45;&gt;Node6 -->
<g id="edge5" class="edge"><title>Node5&#45;&gt;Node6</title>
<path fill="none" stroke="midnightblue" d="M413.558,-897.334C416.215,-899.006 418.719,-900.886 421,-903 454.114,-933.695 424.125,-967.049 457,-998 461.119,-1001.88 466.017,-1004.96 471.222,-1007.42"/>
<polygon fill="midnightblue" stroke="midnightblue" points="415.123,-894.203 404.639,-892.674 411.881,-900.407 415.123,-894.203"/>
</g>
<!-- Node7 -->
<g id="node7" class="node"><title>Node7</title>
<g id="a_node7"><a xlink:href="classhandler_1_1CtcpPing.html" target="_top" xlink:title="CTCP PING reply, Used to measure round&#45;trip message delays. ">
<polygon fill="none" stroke="black" points="471.5,-969.5 471.5,-988.5 566.5,-988.5 566.5,-969.5 471.5,-969.5"/>
<text text-anchor="middle" x="519" y="-976.5" font-family="Helvetica,sans-Serif" font-size="10.00">handler::CtcpPing</text>
</a>
</g>
</g>
<!-- Node5&#45;&gt;Node7 -->
<g id="edge6" class="edge"><title>Node5&#45;&gt;Node7</title>
<path fill="none" stroke="midnightblue" d="M413.074,-897.911C415.855,-899.435 418.519,-901.125 421,-903 444.908,-921.061 433.233,-941.755 457,-960 462.015,-963.85 467.821,-966.927 473.817,-969.386"/>
<polygon fill="midnightblue" stroke="midnightblue" points="414.412,-894.673 403.873,-893.588 411.436,-901.009 414.412,-894.673"/>
</g>
<!-- Node8 -->
<g id="node8" class="node"><title>Node8</title>
<g id="a_node8"><a xlink:href="classhandler_1_1CtcpSource.html" target="_top" xlink:title="CTCP SOURCE reply, shows a URL with the sources. ">
<polygon fill="none" stroke="black" points="466,-931.5 466,-950.5 572,-950.5 572,-931.5 466,-931.5"/>
<text text-anchor="middle" x="519" y="-938.5" font-family="Helvetica,sans-Serif" font-size="10.00">handler::CtcpSource</text>
</a>
</g>
</g>
<!-- Node5&#45;&gt;Node8 -->
<g id="edge7" class="edge"><title>Node5&#45;&gt;Node8</title>
<path fill="none" stroke="midnightblue" d="M402.985,-896.482C409.109,-898.478 415.251,-900.664 421,-903 437.76,-909.812 440.293,-915.058 457,-922 465.399,-925.49 474.677,-928.693 483.407,-931.436"/>
<polygon fill="midnightblue" stroke="midnightblue" points="404.023,-893.139 393.434,-893.506 401.94,-899.822 404.023,-893.139"/>
</g>
<!-- Node9 -->
<g id="node9" class="node"><title>Node9</title>
<g id="a_node9"><a xlink:href="classhandler_1_1CtcpTime.html" target="_top" xlink:title="CTCP TIME reply, Shows the local time. ">
<polygon fill="none" stroke="black" points="470.5,-893.5 470.5,-912.5 567.5,-912.5 567.5,-893.5 470.5,-893.5"/>
<text text-anchor="middle" x="519" y="-900.5" font-family="Helvetica,sans-Serif" font-size="10.00">handler::CtcpTime</text>
</a>
</g>
</g>
<!-- Node5&#45;&gt;Node9 -->
<g id="edge8" class="edge"><title>Node5&#45;&gt;Node9</title>
<path fill="none" stroke="midnightblue" d="M414.51,-890.825C432.86,-892.984 452.916,-895.343 470.445,-897.405"/>
<polygon fill="midnightblue" stroke="midnightblue" points="414.859,-887.342 404.518,-889.649 414.041,-894.294 414.859,-887.342"/>
</g>
<!-- Node10 -->
<g id="node10" class="node"><title>Node10</title>
<g id="a_node10"><a xlink:href="classhandler_1_1CtcpUserInfo.html" target="_top" xlink:title="CTCP USERINFO reply, shows a user&#45;defined string. ">
<polygon fill="none" stroke="black" points="462.5,-855.5 462.5,-874.5 575.5,-874.5 575.5,-855.5 462.5,-855.5"/>
<text text-anchor="middle" x="519" y="-862.5" font-family="Helvetica,sans-Serif" font-size="10.00">handler::CtcpUserInfo</text>
</a>
</g>
</g>
<!-- Node5&#45;&gt;Node10 -->
<g id="edge9" class="edge"><title>Node5&#45;&gt;Node10</title>
<path fill="none" stroke="midnightblue" d="M414.522,-877.174C430.053,-875.347 446.806,-873.376 462.213,-871.563"/>
<polygon fill="midnightblue" stroke="midnightblue" points="414.041,-873.706 404.518,-878.351 414.859,-880.658 414.041,-873.706"/>
</g>
<!-- Node11 -->
<g id="node11" class="node"><title>Node11</title>
<g id="a_node11"><a xlink:href="classhandler_1_1CtcpVersion.html" target="_top" xlink:title="CTCP VERSION reply, shows a pre&#45;formatted version string. ">
<polygon fill="none" stroke="black" points="465,-817.5 465,-836.5 573,-836.5 573,-817.5 465,-817.5"/>
<text text-anchor="middle" x="519" y="-824.5" font-family="Helvetica,sans-Serif" font-size="10.00">handler::CtcpVersion</text>
</a>
</g>
</g>
<!-- Node5&#45;&gt;Node11 -->
<g id="edge10" class="edge"><title>Node5&#45;&gt;Node11</title>
<path fill="none" stroke="midnightblue" d="M402.985,-871.518C409.109,-869.522 415.251,-867.336 421,-865 437.76,-858.188 440.293,-852.942 457,-846 465.399,-842.51 474.677,-839.307 483.407,-836.564"/>
<polygon fill="midnightblue" stroke="midnightblue" points="401.94,-868.178 393.434,-874.494 404.023,-874.861 401.94,-868.178"/>
</g>
<!-- Node17 -->
<g id="node17" class="node"><title>Node17</title>
<g id="a_node17"><a xlink:href="classhandler_1_1AdminJoin.html" target="_top" xlink:title="Makes the bot join channels (IRC) ">
<polygon fill="none" stroke="black" points="469,-779.5 469,-798.5 569,-798.5 569,-779.5 469,-779.5"/>
<text text-anchor="middle" x="519" y="-786.5" font-family="Helvetica,sans-Serif" font-size="10.00">handler::AdminJoin</text>
</a>
</g>
</g>
<!-- Node16&#45;&gt;Node17 -->
<g id="edge16" class="edge"><title>Node16&#45;&gt;Node17</title>
<path fill="none" stroke="midnightblue" d="M361.042,-504.814C374.739,-562.987 417.154,-731.604 457,-770 460.994,-773.848 465.754,-776.918 470.83,-779.367"/>
<polygon fill="midnightblue" stroke="midnightblue" points="364.369,-503.671 358.694,-494.724 357.551,-505.257 364.369,-503.671"/>
</g>
<!-- Node18 -->
<g id="node18" class="node"><title>Node18</title>
<g id="a_node18"><a xlink:href="classhandler_1_1AdminNick.html" target="_top" xlink:title="Changes the bot nick (IRC) ">
<polygon fill="none" stroke="black" points="468,-741.5 468,-760.5 570,-760.5 570,-741.5 468,-741.5"/>
<text text-anchor="middle" x="519" y="-748.5" font-family="Helvetica,sans-Serif" font-size="10.00">handler::AdminNick</text>
</a>
</g>
</g>
<!-- Node16&#45;&gt;Node18 -->
<g id="edge17" class="edge"><title>Node16&#45;&gt;Node18</title>
<path fill="none" stroke="midnightblue" d="M358.806,-504.668C365.305,-551.149 388.032,-668.625 457,-732 461.247,-735.903 466.286,-739.004 471.619,-741.468"/>
<polygon fill="midnightblue" stroke="midnightblue" points="362.269,-504.156 357.513,-494.688 355.327,-505.055 362.269,-504.156"/>
</g>
<!-- Node19 -->
<g id="node19" class="node"><title>Node19</title>
<g id="a_node19"><a xlink:href="classhandler_1_1AdminPart.html" target="_top" xlink:title="Makes the bot part channels (IRC) ">
<polygon fill="none" stroke="black" points="469,-703.5 469,-722.5 569,-722.5 569,-703.5 469,-703.5"/>
<text text-anchor="middle" x="519" y="-710.5" font-family="Helvetica,sans-Serif" font-size="10.00">handler::AdminPart</text>
</a>
</g>
</g>
<!-- Node16&#45;&gt;Node19 -->
<g id="edge18" class="edge"><title>Node16&#45;&gt;Node19</title>
<path fill="none" stroke="midnightblue" d="M360.367,-504.388C369.578,-545.504 396.705,-641.937 457,-694 461.534,-697.915 466.869,-701.023 472.465,-703.491"/>
<polygon fill="midnightblue" stroke="midnightblue" points="363.778,-503.603 358.273,-494.55 356.931,-505.06 363.778,-503.603"/>
</g>
<!-- Node20 -->
<g id="node20" class="node"><title>Node20</title>
<g id="a_node20"><a xlink:href="classhandler_1_1AdminQuit.html" target="_top" xlink:title="Quits the bot. ">
<polygon fill="none" stroke="black" points="469,-665.5 469,-684.5 569,-684.5 569,-665.5 469,-665.5"/>
<text text-anchor="middle" x="519" y="-672.5" font-family="Helvetica,sans-Serif" font-size="10.00">handler::AdminQuit</text>
</a>
</g>
</g>
<!-- Node16&#45;&gt;Node20 -->
<g id="edge19" class="edge"><title>Node16&#45;&gt;Node20</title>
<path fill="none" stroke="midnightblue" d="M362.64,-504.446C374.821,-539.881 405.417,-615.074 457,-656 461.866,-659.861 467.522,-662.942 473.39,-665.399"/>
<polygon fill="midnightblue" stroke="midnightblue" points="365.915,-503.2 359.448,-494.807 359.269,-505.401 365.915,-503.2"/>
</g>
<!-- Node21 -->
<g id="node21" class="node"><title>Node21</title>
<g id="a_node21"><a xlink:href="classhandler_1_1AdminRaw.html" target="_top" xlink:title="Makes the bot execute a raw command (IRC) ">
<polygon fill="none" stroke="black" points="468,-627.5 468,-646.5 570,-646.5 570,-627.5 468,-627.5"/>
<text text-anchor="middle" x="519" y="-634.5" font-family="Helvetica,sans-Serif" font-size="10.00">handler::AdminRaw</text>
</a>
</g>
</g>
<!-- Node16&#45;&gt;Node21 -->
<g id="edge20" class="edge"><title>Node16&#45;&gt;Node21</title>
<path fill="none" stroke="midnightblue" d="M365.693,-503.667C380.8,-532.436 413.586,-587.474 457,-618 462.535,-621.892 468.896,-625.008 475.374,-627.496"/>
<polygon fill="midnightblue" stroke="midnightblue" points="368.763,-501.983 361.098,-494.669 362.529,-505.167 368.763,-501.983"/>
</g>
<!-- Node22 -->
<g id="node22" class="node"><title>Node22</title>
<g id="a_node22"><a xlink:href="classhandler_1_1Cointoss.html" target="_top" xlink:title="Shows one of the given items, at random. ">
<polygon fill="none" stroke="black" points="472.5,-589.5 472.5,-608.5 565.5,-608.5 565.5,-589.5 472.5,-589.5"/>
<text text-anchor="middle" x="519" y="-596.5" font-family="Helvetica,sans-Serif" font-size="10.00">handler::Cointoss</text>
</a>
</g>
</g>
<!-- Node16&#45;&gt;Node22 -->
<g id="edge21" class="edge"><title>Node16&#45;&gt;Node22</title>
<path fill="none" stroke="midnightblue" d="M370.541,-502.461C388.481,-523.679 421.488,-559.212 457,-580 463.509,-583.811 470.865,-586.937 478.157,-589.475"/>
<polygon fill="midnightblue" stroke="midnightblue" points="373.091,-500.052 364.017,-494.582 367.699,-504.517 373.091,-500.052"/>
</g>
<!-- Node23 -->
<g id="node23" class="node"><title>Node23</title>
<g id="a_node23"><a xlink:href="classhandler_1_1Echo.html" target="_top" xlink:title="Just repeat what it has been told. ">
<polygon fill="none" stroke="black" points="480.5,-551.5 480.5,-570.5 557.5,-570.5 557.5,-551.5 480.5,-551.5"/>
<text text-anchor="middle" x="519" y="-558.5" font-family="Helvetica,sans-Serif" font-size="10.00">handler::Echo</text>
</a>
</g>
</g>
<!-- Node16&#45;&gt;Node23 -->
<g id="edge22" class="edge"><title>Node16&#45;&gt;Node23</title>
<path fill="none" stroke="midnightblue" d="M379.639,-500.019C399.55,-512.474 429.354,-530.019 457,-542 465.142,-545.528 474.152,-548.707 482.693,-551.41"/>
<polygon fill="midnightblue" stroke="midnightblue" points="381.292,-496.922 370.971,-494.526 377.545,-502.835 381.292,-496.922"/>
</g>
<!-- Node24 -->
<g id="node24" class="node"><title>Node24</title>
<g id="a_node24"><a xlink:href="classhandler_1_1Help.html" target="_top" xlink:title="Handler showing help on the available handlers. ">
<polygon fill="none" stroke="black" points="482,-513.5 482,-532.5 556,-532.5 556,-513.5 482,-513.5"/>
<text text-anchor="middle" x="519" y="-520.5" font-family="Helvetica,sans-Serif" font-size="10.00">handler::Help</text>
</a>
</g>
</g>
<!-- Node16&#45;&gt;Node24 -->
<g id="edge23" class="edge"><title>Node16&#45;&gt;Node24</title>
<path fill="none" stroke="midnightblue" d="M407.023,-496.888C431.317,-502.604 459.876,-509.324 481.938,-514.515"/>
<polygon fill="midnightblue" stroke="midnightblue" points="407.789,-493.473 397.253,-494.589 406.186,-500.286 407.789,-493.473"/>
</g>
<!-- Node25 -->
<g id="node25" class="node"><title>Node25</title>
<g id="a_node25"><a xlink:href="classhandler_1_1License.html" target="_top" xlink:title="Handler showing licensing information. ">
<polygon fill="none" stroke="black" points="475,-475.5 475,-494.5 563,-494.5 563,-475.5 475,-475.5"/>
<text text-anchor="middle" x="519" y="-482.5" font-family="Helvetica,sans-Serif" font-size="10.00">handler::License</text>
</a>
</g>
</g>
<!-- Node16&#45;&gt;Node25 -->
<g id="edge24" class="edge"><title>Node16&#45;&gt;Node25</title>
<path fill="none" stroke="midnightblue" d="M421.966,-485C439.773,-485 458.61,-485 474.839,-485"/>
<polygon fill="midnightblue" stroke="midnightblue" points="421.627,-481.5 411.627,-485 421.627,-488.5 421.627,-481.5"/>
</g>
<!-- Node26 -->
<g id="node26" class="node"><title>Node26</title>
<g id="a_node26"><a xlink:href="classhandler_1_1ListClear.html" target="_top" xlink:title="Used by AbstractList to remove all elements. ">
<polygon fill="none" stroke="black" points="472.5,-437.5 472.5,-456.5 565.5,-456.5 565.5,-437.5 472.5,-437.5"/>
<text text-anchor="middle" x="519" y="-444.5" font-family="Helvetica,sans-Serif" font-size="10.00">handler::ListClear</text>
</a>
</g>
</g>
<!-- Node16&#45;&gt;Node26 -->
<g id="edge25" class="edge"><title>Node16&#45;&gt;Node26</title>
<path fill="none" stroke="midnightblue" d="M407.058,-473.104C429.759,-467.763 456.178,-461.546 477.54,-456.52"/>
<polygon fill="midnightblue" stroke="midnightblue" points="406.186,-469.714 397.253,-475.411 407.789,-476.527 406.186,-469.714"/>
</g>
<!-- Node27 -->
<g id="node27" class="node"><title>Node27</title>
<g id="a_node27"><a xlink:href="classhandler_1_1ListInsert.html" target="_top" xlink:title="Used by AbstractList to add elements. ">
<polygon fill="none" stroke="black" points="471.5,-399.5 471.5,-418.5 566.5,-418.5 566.5,-399.5 471.5,-399.5"/>
<text text-anchor="middle" x="519" y="-406.5" font-family="Helvetica,sans-Serif" font-size="10.00">handler::ListInsert</text>
</a>
</g>
</g>
<!-- Node16&#45;&gt;Node27 -->
<g id="edge26" class="edge"><title>Node16&#45;&gt;Node27</title>
<path fill="none" stroke="midnightblue" d="M410.103,-471.659C413.895,-469.979 417.57,-468.1 421,-466 440.84,-453.851 437.254,-440.302 457,-428 463.119,-424.187 470.064,-421.086 477.02,-418.58"/>
<polygon fill="midnightblue" stroke="midnightblue" points="408.533,-468.515 400.509,-475.434 411.096,-475.029 408.533,-468.515"/>
</g>
<!-- Node28 -->
<g id="node28" class="node"><title>Node28</title>
<g id="a_node28"><a xlink:href="classhandler_1_1ListRemove.html" target="_top" xlink:title="Used by AbstractList to remove elements. ">
<polygon fill="none" stroke="black" points="465.5,-361.5 465.5,-380.5 572.5,-380.5 572.5,-361.5 465.5,-361.5"/>
<text text-anchor="middle" x="519" y="-368.5" font-family="Helvetica,sans-Serif" font-size="10.00">handler::ListRemove</text>
</a>
</g>
</g>
<!-- Node16&#45;&gt;Node28 -->
<g id="edge27" class="edge"><title>Node16&#45;&gt;Node28</title>
<path fill="none" stroke="midnightblue" d="M414.667,-470.64C416.896,-469.235 419.02,-467.693 421,-466 449.406,-441.71 428.782,-414.509 457,-390 461.438,-386.145 466.654,-383.072 472.134,-380.622"/>
<polygon fill="midnightblue" stroke="midnightblue" points="412.846,-467.643 405.636,-475.405 416.113,-473.834 412.846,-467.643"/>
</g>
<!-- Node29 -->
<g id="node29" class="node"><title>Node29</title>
<g id="a_node29"><a xlink:href="classhandler_1_1Morse.html" target="_top" xlink:title="Handler translating between morse and latin. ">
<polygon fill="none" stroke="black" points="478.5,-323.5 478.5,-342.5 559.5,-342.5 559.5,-323.5 478.5,-323.5"/>
<text text-anchor="middle" x="519" y="-330.5" font-family="Helvetica,sans-Serif" font-size="10.00">handler::Morse</text>
</a>
</g>
</g>
<!-- Node16&#45;&gt;Node29 -->
<g id="edge28" class="edge"><title>Node16&#45;&gt;Node29</title>
<path fill="none" stroke="midnightblue" d="M416.304,-470.005C417.959,-468.773 419.531,-467.441 421,-466 458.933,-428.796 419.356,-389.497 457,-352 462.894,-346.129 470.57,-342.067 478.478,-339.259"/>
<polygon fill="midnightblue" stroke="midnightblue" points="414.186,-467.196 407.444,-475.368 417.811,-473.184 414.186,-467.196"/>
</g>
<!-- Node30 -->
<g id="node30" class="node"><title>Node30</title>
<g id="a_node30"><a xlink:href="classhandler_1_1RenderPony.html" target="_top" xlink:title="Draws a pretty My Little Pony ASCII art. ">
<polygon fill="none" stroke="black" points="465,-285.5 465,-304.5 573,-304.5 573,-285.5 465,-285.5"/>
<text text-anchor="middle" x="519" y="-292.5" font-family="Helvetica,sans-Serif" font-size="10.00">handler::RenderPony</text>
</a>
</g>
</g>
<!-- Node16&#45;&gt;Node30 -->
<g id="edge29" class="edge"><title>Node16&#45;&gt;Node30</title>
<path fill="none" stroke="midnightblue" d="M416.547,-470.061C418.124,-468.813 419.615,-467.462 421,-466 468.749,-415.604 409.642,-364.764 457,-314 460.632,-310.107 465.046,-307.006 469.822,-304.536"/>
<polygon fill="midnightblue" stroke="midnightblue" points="414.59,-467.158 408.045,-475.489 418.357,-473.058 414.59,-467.158"/>
</g>
<!-- Node31 -->
<g id="node31" class="node"><title>Node31</title>
<g id="a_node31"><a xlink:href="classhandler_1_1ReverseText.html" target="_top" xlink:title="Turns ASCII characters upside&#45;down. ">
<polygon fill="none" stroke="black" points="464,-247.5 464,-266.5 574,-266.5 574,-247.5 464,-247.5"/>
<text text-anchor="middle" x="519" y="-254.5" font-family="Helvetica,sans-Serif" font-size="10.00">handler::ReverseText</text>
</a>
</g>
</g>
<!-- Node16&#45;&gt;Node31 -->
<g id="edge30" class="edge"><title>Node16&#45;&gt;Node31</title>
<path fill="none" stroke="midnightblue" d="M417.112,-469.745C418.487,-468.585 419.788,-467.339 421,-466 478.685,-402.287 399.81,-340.157 457,-276 460.469,-272.108 464.72,-269.005 469.35,-266.532"/>
<polygon fill="midnightblue" stroke="midnightblue" points="414.895,-467.017 408.536,-475.491 418.792,-472.832 414.895,-467.017"/>
</g>
<!-- Node32 -->
<g id="node32" class="node"><title>Node32</title>
<g id="a_node32"><a xlink:href="classhandler_1_1ServerHost.html" target="_top" xlink:title="Shows the server the bot is connected to. ">
<polygon fill="none" stroke="black" points="467,-209.5 467,-228.5 571,-228.5 571,-209.5 467,-209.5"/>
<text text-anchor="middle" x="519" y="-216.5" font-family="Helvetica,sans-Serif" font-size="10.00">handler::ServerHost</text>
</a>
</g>
</g>
<!-- Node16&#45;&gt;Node32 -->
<g id="edge31" class="edge"><title>Node16&#45;&gt;Node32</title>
<path fill="none" stroke="midnightblue" d="M417.257,-469.715C418.583,-468.563 419.835,-467.327 421,-466 488.681,-388.905 389.918,-315.617 457,-238 460.336,-234.14 464.443,-231.053 468.936,-228.587"/>
<polygon fill="midnightblue" stroke="midnightblue" points="415.212,-466.874 408.967,-475.432 419.186,-472.637 415.212,-466.874"/>
</g>
<!-- Node33 -->
<g id="node33" class="node"><title>Node33</title>
<g id="a_node33"><a xlink:href="classhandler_1_1SimpleGroup.html" target="_top" xlink:title="A simple group of actions which share settings. ">
<polygon fill="none" stroke="black" points="464,-171.5 464,-190.5 574,-190.5 574,-171.5 464,-171.5"/>
<text text-anchor="middle" x="519" y="-178.5" font-family="Helvetica,sans-Serif" font-size="10.00">handler::SimpleGroup</text>
</a>
</g>
</g>
<!-- Node16&#45;&gt;Node33 -->
<g id="edge32" class="edge"><title>Node16&#45;&gt;Node33</title>
<path fill="none" stroke="midnightblue" d="M417.733,-469.357C418.886,-468.308 419.978,-467.19 421,-466 498.712,-375.483 379.991,-291.116 457,-200 460.294,-196.103 464.373,-192.993 468.85,-190.513"/>
<polygon fill="midnightblue" stroke="midnightblue" points="415.464,-466.677 409.361,-475.338 419.533,-472.373 415.464,-466.677"/>
</g>
<!-- Node36 -->
<g id="node36" class="node"><title>Node36</title>
<g id="a_node36"><a xlink:href="classhandler_1_1SimpleWebApi.html" target="_top" xlink:title="Simple base class for handlers calling web resources. ">
<polygon fill="none" stroke="black" points="459.5,-133.5 459.5,-152.5 578.5,-152.5 578.5,-133.5 459.5,-133.5"/>
<text text-anchor="middle" x="519" y="-140.5" font-family="Helvetica,sans-Serif" font-size="10.00">handler::SimpleWebApi</text>
</a>
</g>
</g>
<!-- Node16&#45;&gt;Node36 -->
<g id="edge35" class="edge"><title>Node16&#45;&gt;Node36</title>
<path fill="none" stroke="midnightblue" d="M417.76,-469.38C418.905,-468.324 419.988,-467.199 421,-466 508.763,-362.036 370.044,-266.641 457,-162 460.19,-158.161 464.144,-155.085 468.493,-152.621"/>
<polygon fill="midnightblue" stroke="midnightblue" points="415.488,-466.704 409.427,-475.394 419.584,-472.38 415.488,-466.704"/>
</g>
<!-- Node43 -->
<g id="node43" class="node"><title>Node43</title>
<g id="a_node43"><a xlink:href="classhandler_1_1WhoisCheckMe.html" target="_top" xlink:title="Sends a WHOIS about the message sender. ">
<polygon fill="none" stroke="black" points="457,-95.5 457,-114.5 581,-114.5 581,-95.5 457,-95.5"/>
<text text-anchor="middle" x="519" y="-102.5" font-family="Helvetica,sans-Serif" font-size="10.00">handler::WhoisCheckMe</text>
</a>
</g>
</g>
<!-- Node16&#45;&gt;Node43 -->
<g id="edge42" class="edge"><title>Node16&#45;&gt;Node43</title>
<path fill="none" stroke="midnightblue" d="M417.781,-469.398C418.92,-468.336 419.996,-467.205 421,-466 518.83,-348.572 360.082,-242.182 457,-124 460.165,-120.14 464.102,-117.051 468.442,-114.579"/>
<polygon fill="midnightblue" stroke="midnightblue" points="415.506,-466.724 409.479,-475.438 419.625,-472.385 415.506,-466.724"/>
</g>
<!-- Node34 -->
<g id="node34" class="node"><title>Node34</title>
<g id="a_node34"><a xlink:href="classhandler_1_1AbstractList.html" target="_top" xlink:title="Handles a list of elements (base class) ">
<polygon fill="none" stroke="black" points="617,-171.5 617,-190.5 724,-190.5 724,-171.5 617,-171.5"/>
<text text-anchor="middle" x="670.5" y="-178.5" font-family="Helvetica,sans-Serif" font-size="10.00">handler::AbstractList</text>
</a>
</g>
</g>
<!-- Node33&#45;&gt;Node34 -->
<g id="edge33" class="edge"><title>Node33&#45;&gt;Node34</title>
<path fill="none" stroke="midnightblue" d="M584.613,-181C595.393,-181 606.459,-181 616.892,-181"/>
<polygon fill="midnightblue" stroke="midnightblue" points="584.396,-177.5 574.396,-181 584.396,-184.5 584.396,-177.5"/>
</g>
<!-- Node35 -->
<g id="node35" class="node"><title>Node35</title>
<g id="a_node35"><a xlink:href="classhandler_1_1AdminGroup.html" target="_top" xlink:title="Manages a user group. ">
<polygon fill="none" stroke="black" points="779,-190.5 779,-209.5 887,-209.5 887,-190.5 779,-190.5"/>
<text text-anchor="middle" x="833" y="-197.5" font-family="Helvetica,sans-Serif" font-size="10.00">handler::AdminGroup</text>
</a>
</g>
</g>
<!-- Node34&#45;&gt;Node35 -->
<g id="edge34" class="edge"><title>Node34&#45;&gt;Node35</title>
<path fill="none" stroke="midnightblue" d="M734.114,-188.412C748.876,-190.16 764.476,-192.006 778.779,-193.7"/>
<polygon fill="midnightblue" stroke="midnightblue" points="734.396,-184.921 724.054,-187.221 733.573,-191.873 734.396,-184.921"/>
</g>
<!-- Node37 -->
<g id="node37" class="node"><title>Node37</title>
<g id="a_node37"><a xlink:href="classhandler_1_1SimpleJson.html" target="_top" xlink:title="Simple base class for handlers using AJAX web APIs. ">
<polygon fill="none" stroke="black" points="618,-95.5 618,-114.5 723,-114.5 723,-95.5 618,-95.5"/>
<text text-anchor="middle" x="670.5" y="-102.5" font-family="Helvetica,sans-Serif" font-size="10.00">handler::SimpleJson</text>
</a>
</g>
</g>
<!-- Node36&#45;&gt;Node37 -->
<g id="edge36" class="edge"><title>Node36&#45;&gt;Node37</title>
<path fill="none" stroke="midnightblue" d="M567.652,-130.888C588.473,-125.596 612.538,-119.479 632.046,-114.52"/>
<polygon fill="midnightblue" stroke="midnightblue" points="566.555,-127.555 557.725,-133.411 568.279,-134.34 566.555,-127.555"/>
</g>
<!-- Node38 -->
<g id="node38" class="node"><title>Node38</title>
<g id="a_node38"><a xlink:href="classhandler_1_1ChuckNorris.html" target="_top" xlink:title="Searches for a Chuck Norris joke. ">
<polygon fill="none" stroke="black" points="778.5,-152.5 778.5,-171.5 887.5,-171.5 887.5,-152.5 778.5,-152.5"/>
<text text-anchor="middle" x="833" y="-159.5" font-family="Helvetica,sans-Serif" font-size="10.00">handler::ChuckNorris</text>
</a>
</g>
</g>
<!-- Node37&#45;&gt;Node38 -->
<g id="edge37" class="edge"><title>Node37&#45;&gt;Node38</title>
<path fill="none" stroke="midnightblue" d="M700.949,-118.942C717.963,-126.667 739.913,-136.079 760,-143 770.145,-146.495 781.28,-149.721 791.697,-152.485"/>
<polygon fill="midnightblue" stroke="midnightblue" points="702.101,-115.619 691.553,-114.62 699.175,-121.979 702.101,-115.619"/>
</g>
<!-- Node39 -->
<g id="node39" class="node"><title>Node39</title>
<g id="a_node39"><a xlink:href="classhandler_1_1SearchImageGoogle.html" target="_top" xlink:title="Handler searching images with Google. ">
<polygon fill="none" stroke="black" points="761.5,-114.5 761.5,-133.5 904.5,-133.5 904.5,-114.5 761.5,-114.5"/>
<text text-anchor="middle" x="833" y="-121.5" font-family="Helvetica,sans-Serif" font-size="10.00">handler::SearchImageGoogle</text>
</a>
</g>
</g>
<!-- Node37&#45;&gt;Node39 -->
<g id="edge38" class="edge"><title>Node37&#45;&gt;Node39</title>
<path fill="none" stroke="midnightblue" d="M733.364,-112.323C742.548,-113.411 752.072,-114.538 761.418,-115.645"/>
<polygon fill="midnightblue" stroke="midnightblue" points="733.509,-108.816 723.167,-111.116 732.686,-115.768 733.509,-108.816"/>
</g>
<!-- Node40 -->
<g id="node40" class="node"><title>Node40</title>
<g id="a_node40"><a xlink:href="classhandler_1_1SearchVideoYoutube.html" target="_top" xlink:title="Handler searching a video on Youtube. ">
<polygon fill="none" stroke="black" points="760,-76.5 760,-95.5 906,-95.5 906,-76.5 760,-76.5"/>
<text text-anchor="middle" x="833" y="-83.5" font-family="Helvetica,sans-Serif" font-size="10.00">handler::SearchVideoYoutube</text>
</a>
</g>
</g>
<!-- Node37&#45;&gt;Node40 -->
<g id="edge39" class="edge"><title>Node37&#45;&gt;Node40</title>
<path fill="none" stroke="midnightblue" d="M733.259,-97.6889C742.001,-96.6541 751.052,-95.5827 759.966,-94.5274"/>
<polygon fill="midnightblue" stroke="midnightblue" points="732.686,-94.2323 723.167,-98.8837 733.509,-101.184 732.686,-94.2323"/>
</g>
<!-- Node41 -->
<g id="node41" class="node"><title>Node41</title>
<g id="a_node41"><a xlink:href="classhandler_1_1SearchWebSearx.html" target="_top" xlink:title="Handler searching a web page using Searx. ">
<polygon fill="none" stroke="black" points="767.5,-38.5 767.5,-57.5 898.5,-57.5 898.5,-38.5 767.5,-38.5"/>
<text text-anchor="middle" x="833" y="-45.5" font-family="Helvetica,sans-Serif" font-size="10.00">handler::SearchWebSearx</text>
</a>
</g>
</g>
<!-- Node37&#45;&gt;Node41 -->
<g id="edge40" class="edge"><title>Node37&#45;&gt;Node41</title>
<path fill="none" stroke="midnightblue" d="M700.949,-91.0581C717.963,-83.3327 739.913,-73.9207 760,-67 770.145,-63.5048 781.28,-60.2788 791.697,-57.5148"/>
<polygon fill="midnightblue" stroke="midnightblue" points="699.175,-88.0214 691.553,-95.3802 702.101,-94.3809 699.175,-88.0214"/>
</g>
<!-- Node42 -->
<g id="node42" class="node"><title>Node42</title>
<g id="a_node42"><a xlink:href="classhandler_1_1UrbanDictionary.html" target="_top" xlink:title="Handler searching a definition on Urban Dictionary. ">
<polygon fill="none" stroke="black" points="770.5,-0.5 770.5,-19.5 895.5,-19.5 895.5,-0.5 770.5,-0.5"/>
<text text-anchor="middle" x="833" y="-7.5" font-family="Helvetica,sans-Serif" font-size="10.00">handler::UrbanDictionary</text>
</a>
</g>
</g>
<!-- Node37&#45;&gt;Node42 -->
<g id="edge41" class="edge"><title>Node37&#45;&gt;Node42</title>
<path fill="none" stroke="midnightblue" d="M687.183,-87.5395C703.675,-70.2196 731.189,-44.1383 760,-29 767.324,-25.1516 775.487,-22.0399 783.61,-19.537"/>
<polygon fill="midnightblue" stroke="midnightblue" points="684.259,-85.5442 680.015,-95.2519 689.387,-90.3097 684.259,-85.5442"/>
</g>
</g>
</svg>
        <g id="navigator" transform="translate(0 0)" fill="#404254">
                <rect fill="#f2f5e9" fill-opacity="0.5" stroke="#606060" stroke-width=".5" x="0" y="0" width="60" height="60"/>
                <use id="zoomplus" xlink:href="#zoomPlus" x="17" y="9" onmousedown="handleZoom(evt,'in')"/>
                <use id="zoomminus" xlink:href="#zoomMin" x="42" y="9" onmousedown="handleZoom(evt,'out')"/>
                <use id="reset" xlink:href="#resetDef" x="30" y="36" onmousedown="handleReset()"/>
                <g id="arrowUp" xlink:href="#dirArrow" transform="translate(30 24)" onmousedown="handlePan(0,-1)">
                  <use xlink:href="#rim" fill="#404040">
                        <set attributeName="fill" to="#808080" begin="arrowUp.mouseover" end="arrowUp.mouseout"/>
                  </use>
                  <path fill="none" stroke="white" stroke-width="1.5" d="M0,-3.0v7 M-2.5,-0.5L0,-3.0L2.5,-0.5"/>
                </g>
                <g id="arrowRight" xlink:href="#dirArrow" transform="rotate(90) translate(36 -43)" onmousedown="handlePan(1,0)">
                  <use xlink:href="#rim" fill="#404040">
                        <set attributeName="fill" to="#808080" begin="arrowRight.mouseover" end="arrowRight.mouseout"/>
                  </use>
                  <path fill="none" stroke="white" stroke-width="1.5" d="M0,-3.0v7 M-2.5,-0.5L0,-3.0L2.5,-0.5"/>
                </g>
                <g id="arrowDown" xlink:href="#dirArrow" transform="rotate(180) translate(-30 -48)" onmousedown="handlePan(0,1)">
                  <use xlink:href="#rim" fill="#404040">
                        <set attributeName="fill" to="#808080" begin="arrowDown.mouseover" end="arrowDown.mouseout"/>
                  </use>
                  <path fill="none" stroke="white" stroke-width="1.5" d="M0,-3.0v7 M-2.5,-0.5L0,-3.0L2.5,-0.5"/>
                </g>
                <g id="arrowLeft" xlink:href="#dirArrow" transform="rotate(270) translate(-36 17)" onmousedown="handlePan(-1,0)">
                  <use xlink:href="#rim" fill="#404040">
                        <set attributeName="fill" to="#808080" begin="arrowLeft.mouseover" end="arrowLeft.mouseout"/>
                  </use>
                  <path fill="none" stroke="white" stroke-width="1.5" d="M0,-3.0v7 M-2.5,-0.5L0,-3.0L2.5,-0.5"/>
                </g>
        </g>
        <svg viewBox="0 0 15 15" width="100%" height="30px" preserveAspectRatio="xMaxYMin meet">
         <g id="arrow_out" transform="scale(0.3 0.3)">
          <a xlink:href="classhandler_1_1Handler__inherit__graph_org.svg" target="_base">
           <rect id="button" ry="5" rx="5" y="6" x="6" height="38" width="38"
                fill="#f2f5e9" fill-opacity="0.5" stroke="#606060" stroke-width="1.0"/>
           <path id="arrow"
             d="M 11.500037,31.436501 C 11.940474,20.09759 22.043105,11.32322 32.158766,21.979434 L 37.068811,17.246167 C 37.068811,17.246167 37.088388,32 37.088388,32 L 22.160133,31.978069 C 22.160133,31.978069 26.997745,27.140456 26.997745,27.140456 C 18.528582,18.264221 13.291696,25.230495 11.500037,31.436501 z"
             style="fill:#404040;"/>
          </a>
         </g>
        </svg>
</svg>
