<?xml version="1.0" encoding="UTF-8" standalone="no"?>
<!DOCTYPE svg PUBLIC "-//W3C//DTD SVG 1.1//EN"
 "http://www.w3.org/Graphics/SVG/1.1/DTD/svg11.dtd">
<!-- Generated by graphviz version 2.38.0 (20140413.2041)
 -->
<!-- Title: handler::SimpleGroup Pages: 1 -->
<svg width="257pt" height="376pt"
 viewBox="0.00 0.00 257.00 376.00" xmlns="http://www.w3.org/2000/svg" xmlns:xlink="http://www.w3.org/1999/xlink">
<g id="graph0" class="graph" transform="scale(1 1) rotate(0) translate(4 372)">
<title>handler::SimpleGroup</title>
<!-- Node1 -->
<g id="node1" class="node"><title>Node1</title>
<polygon fill="#bfbfbf" stroke="black" points="108.5,-0.5 108.5,-19.5 218.5,-19.5 218.5,-0.5 108.5,-0.5"/>
<text text-anchor="middle" x="163.5" y="-7.5" font-family="Helvetica,sans-Serif" font-size="10.00">handler::SimpleGroup</text>
</g>
<!-- Node2 -->
<g id="node2" class="node"><title>Node2</title>
<g id="a_node2"><a xlink:href="classhandler_1_1SimpleAction.html" target="_top" xlink:title="A simple action sends a message to the same connection it came from. ">
<polygon fill="none" stroke="black" points="12.5,-67.5 12.5,-86.5 124.5,-86.5 124.5,-67.5 12.5,-67.5"/>
<text text-anchor="middle" x="68.5" y="-74.5" font-family="Helvetica,sans-Serif" font-size="10.00">handler::SimpleAction</text>
</a>
</g>
</g>
<!-- Node2&#45;&gt;Node1 -->
<g id="edge1" class="edge"><title>Node2&#45;&gt;Node1</title>
<path fill="none" stroke="midnightblue" d="M89.8098,-61.4196C108.591,-48.5695 135.318,-30.2821 150.891,-19.6273"/>
<polygon fill="midnightblue" stroke="midnightblue" points="87.5888,-58.6983 81.3121,-67.2338 91.5416,-64.4755 87.5888,-58.6983"/>
</g>
<!-- Node3 -->
<g id="node3" class="node"><title>Node3</title>
<g id="a_node3"><a xlink:href="classhandler_1_1Handler.html" target="_top" xlink:title="Message handler abstract base class. ">
<polygon fill="none" stroke="black" points="24.5,-124.5 24.5,-143.5 112.5,-143.5 112.5,-124.5 24.5,-124.5"/>
<text text-anchor="middle" x="68.5" y="-131.5" font-family="Helvetica,sans-Serif" font-size="10.00">handler::Handler</text>
</a>
</g>
</g>
<!-- Node3&#45;&gt;Node2 -->
<g id="edge2" class="edge"><title>Node3&#45;&gt;Node2</title>
<path fill="none" stroke="midnightblue" d="M68.5,-114.117C68.5,-104.817 68.5,-94.0557 68.5,-86.7149"/>
<polygon fill="midnightblue" stroke="midnightblue" points="65.0001,-114.406 68.5,-124.406 72.0001,-114.406 65.0001,-114.406"/>
</g>
<!-- Node4 -->
<g id="node4" class="node"><title>Node4</title>
<g id="a_node4"><a xlink:href="classMelanobot.html" target="_top" xlink:title="Main bot class. ">
<polygon fill="none" stroke="black" points="37.5,-191.5 37.5,-210.5 99.5,-210.5 99.5,-191.5 37.5,-191.5"/>
<text text-anchor="middle" x="68.5" y="-198.5" font-family="Helvetica,sans-Serif" font-size="10.00">Melanobot</text>
</a>
</g>
</g>
<!-- Node4&#45;&gt;Node3 -->
<g id="edge3" class="edge"><title>Node4&#45;&gt;Node3</title>
<path fill="none" stroke="#9a32cd" stroke-dasharray="5,2" d="M68.5,-181.037C68.5,-168.67 68.5,-153.12 68.5,-143.627"/>
<polygon fill="#9a32cd" stroke="#9a32cd" points="65.0001,-181.234 68.5,-191.234 72.0001,-181.234 65.0001,-181.234"/>
<text text-anchor="middle" x="77" y="-165" font-family="Helvetica,sans-Serif" font-size="10.00"> bot</text>
</g>
<!-- Node5 -->
<g id="node5" class="node"><title>Node5</title>
<g id="a_node5"><a xlink:href="classConcurrentQueue.html" target="_top" xlink:title="ConcurrentQueue\&lt; network\l::Message \&gt;">
<polygon fill="none" stroke="black" points="0,-258.5 0,-288.5 137,-288.5 137,-258.5 0,-258.5"/>
<text text-anchor="start" x="8" y="-276.5" font-family="Helvetica,sans-Serif" font-size="10.00">ConcurrentQueue&lt; network</text>
<text text-anchor="middle" x="68.5" y="-265.5" font-family="Helvetica,sans-Serif" font-size="10.00">::Message &gt;</text>
</a>
</g>
</g>
<!-- Node5&#45;&gt;Node4 -->
<g id="edge4" class="edge"><title>Node5&#45;&gt;Node4</title>
<path fill="none" stroke="#9a32cd" stroke-dasharray="5,2" d="M68.5,-248.091C68.5,-235.214 68.5,-220.197 68.5,-210.893"/>
<polygon fill="#9a32cd" stroke="#9a32cd" points="65.0001,-248.233 68.5,-258.233 72.0001,-248.233 65.0001,-248.233"/>
<text text-anchor="middle" x="93" y="-232" font-family="Helvetica,sans-Serif" font-size="10.00"> messages</text>
</g>
<!-- Node6 -->
<g id="node6" class="node"><title>Node6</title>
<g id="a_node6"><a xlink:href="classConcurrentContainer.html" target="_top" xlink:title="ConcurrentContainer\l\&lt; std::queue\&lt; network\l::Message, Container \&gt; \&gt;">
<polygon fill="none" stroke="black" points="4.5,-326.5 4.5,-367.5 132.5,-367.5 132.5,-326.5 4.5,-326.5"/>
<text text-anchor="start" x="12.5" y="-355.5" font-family="Helvetica,sans-Serif" font-size="10.00">ConcurrentContainer</text>
<text text-anchor="start" x="12.5" y="-344.5" font-family="Helvetica,sans-Serif" font-size="10.00">&lt; std::queue&lt; network</text>
<text text-anchor="middle" x="68.5" y="-333.5" font-family="Helvetica,sans-Serif" font-size="10.00">::Message, Container &gt; &gt;</text>
</a>
</g>
</g>
<!-- Node6&#45;&gt;Node5 -->
<g id="edge5" class="edge"><title>Node6&#45;&gt;Node5</title>
<path fill="none" stroke="midnightblue" d="M68.5,-316.158C68.5,-306.687 68.5,-296.647 68.5,-288.797"/>
<polygon fill="midnightblue" stroke="midnightblue" points="65.0001,-316.462 68.5,-326.462 72.0001,-316.462 65.0001,-316.462"/>
</g>
<!-- Node7 -->
<g id="node7" class="node"><title>Node7</title>
<g id="a_node7"><a xlink:href="classnetwork_1_1Connection.html" target="_top" xlink:title="Abstract service connection. ">
<polygon fill="none" stroke="black" points="142,-67.5 142,-86.5 249,-86.5 249,-67.5 142,-67.5"/>
<text text-anchor="middle" x="195.5" y="-74.5" font-family="Helvetica,sans-Serif" font-size="10.00">network::Connection</text>
</a>
</g>
</g>
<!-- Node7&#45;&gt;Node1 -->
<g id="edge6" class="edge"><title>Node7&#45;&gt;Node1</title>
<path fill="none" stroke="#9a32cd" stroke-dasharray="5,2" d="M186.719,-58.1635C180.548,-45.6281 172.564,-29.4104 167.747,-19.6273"/>
<polygon fill="#9a32cd" stroke="#9a32cd" points="183.627,-59.808 191.184,-67.2338 189.908,-56.7162 183.627,-59.808"/>
<text text-anchor="middle" x="197" y="-41" font-family="Helvetica,sans-Serif" font-size="10.00"> source</text>
</g>
</g>
</svg>
