<?xml version="1.0" encoding="UTF-8" standalone="no"?>
<!DOCTYPE svg PUBLIC "-//W3C//DTD SVG 1.1//EN"
 "http://www.w3.org/Graphics/SVG/1.1/DTD/svg11.dtd">
<!-- Generated by graphviz version 2.38.0 (20140413.2041)
 -->
<!-- Title: handler::SimpleGroup Pages: 1 -->
<svg width="294pt" height="376pt"
 viewBox="0.00 0.00 293.50 376.00" xmlns="http://www.w3.org/2000/svg" xmlns:xlink="http://www.w3.org/1999/xlink">
<g id="graph0" class="graph" transform="scale(1 1) rotate(0) translate(4 372)">
<title>handler::SimpleGroup</title>
<!-- Node1 -->
<g id="node1" class="node"><title>Node1</title>
<polygon fill="#bfbfbf" stroke="black" points="121,-0.5 121,-19.5 231,-19.5 231,-0.5 121,-0.5"/>
<text text-anchor="middle" x="176" y="-7.5" font-family="Helvetica,sans-Serif" font-size="10.00">handler::SimpleGroup</text>
</g>
<!-- Node2 -->
<g id="node2" class="node"><title>Node2</title>
<g id="a_node2"><a xlink:href="classhandler_1_1SimpleAction.html" target="_top" xlink:title="A simple action sends a message to the same connection it came from. ">
<polygon fill="none" stroke="black" points="25,-67.5 25,-86.5 137,-86.5 137,-67.5 25,-67.5"/>
<text text-anchor="middle" x="81" y="-74.5" font-family="Helvetica,sans-Serif" font-size="10.00">handler::SimpleAction</text>
</a>
</g>
</g>
<!-- Node2&#45;&gt;Node1 -->
<g id="edge1" class="edge"><title>Node2&#45;&gt;Node1</title>
<path fill="none" stroke="midnightblue" d="M102.31,-61.4196C121.091,-48.5695 147.818,-30.2821 163.391,-19.6273"/>
<polygon fill="midnightblue" stroke="midnightblue" points="100.089,-58.6983 93.8121,-67.2338 104.042,-64.4755 100.089,-58.6983"/>
</g>
<!-- Node3 -->
<g id="node3" class="node"><title>Node3</title>
<g id="a_node3"><a xlink:href="classhandler_1_1Handler.html" target="_top" xlink:title="Message handler abstract base class. ">
<polygon fill="none" stroke="black" points="37,-124.5 37,-143.5 125,-143.5 125,-124.5 37,-124.5"/>
<text text-anchor="middle" x="81" y="-131.5" font-family="Helvetica,sans-Serif" font-size="10.00">handler::Handler</text>
</a>
</g>
</g>
<!-- Node3&#45;&gt;Node2 -->
<g id="edge2" class="edge"><title>Node3&#45;&gt;Node2</title>
<path fill="none" stroke="midnightblue" d="M81,-114.117C81,-104.817 81,-94.0557 81,-86.7149"/>
<polygon fill="midnightblue" stroke="midnightblue" points="77.5001,-114.406 81,-124.406 84.5001,-114.406 77.5001,-114.406"/>
</g>
<!-- Node3&#45;&gt;Node3 -->
<g id="edge8" class="edge"><title>Node3&#45;&gt;Node3</title>
<path fill="none" stroke="#9a32cd" stroke-dasharray="5,2" d="M135.258,-138.125C140.019,-137.255 143,-135.88 143,-134 143,-130.992 135.369,-129.277 125.024,-128.854"/>
<polygon fill="#9a32cd" stroke="#9a32cd" points="134.627,-134.671 125.024,-139.146 135.323,-141.636 134.627,-134.671"/>
<text text-anchor="middle" x="176.5" y="-131.5" font-family="Helvetica,sans-Serif" font-size="10.00"> parent_handler</text>
</g>
<!-- Node4 -->
<g id="node4" class="node"><title>Node4</title>
<g id="a_node4"><a xlink:href="classhandler_1_1HandlerContainer.html" target="_top" xlink:title="Base class for classes which may contain handlers. ">
<polygon fill="none" stroke="black" points="0,-264 0,-283 130,-283 130,-264 0,-264"/>
<text text-anchor="middle" x="65" y="-271" font-family="Helvetica,sans-Serif" font-size="10.00">handler::HandlerContainer</text>
</a>
</g>
</g>
<!-- Node4&#45;&gt;Node3 -->
<g id="edge3" class="edge"><title>Node4&#45;&gt;Node3</title>
<path fill="none" stroke="midnightblue" d="M67.1688,-253.862C70.6749,-223.731 77.452,-165.49 79.9995,-143.598"/>
<polygon fill="midnightblue" stroke="midnightblue" points="63.6803,-253.561 66.0009,-263.899 70.6333,-254.37 63.6803,-253.561"/>
</g>
<!-- Node5 -->
<g id="node5" class="node"><title>Node5</title>
<g id="a_node5"><a xlink:href="classMelanobot.html" target="_top" xlink:title="Main bot class. ">
<polygon fill="none" stroke="black" points="93,-191.5 93,-210.5 155,-210.5 155,-191.5 93,-191.5"/>
<text text-anchor="middle" x="124" y="-198.5" font-family="Helvetica,sans-Serif" font-size="10.00">Melanobot</text>
</a>
</g>
</g>
<!-- Node4&#45;&gt;Node5 -->
<g id="edge5" class="edge"><title>Node4&#45;&gt;Node5</title>
<path fill="none" stroke="midnightblue" d="M78.8946,-255.897C90.7398,-241.743 107.299,-221.957 116.706,-210.715"/>
<polygon fill="midnightblue" stroke="midnightblue" points="75.9684,-253.94 72.2346,-263.855 81.3366,-258.433 75.9684,-253.94"/>
</g>
<!-- Node5&#45;&gt;Node3 -->
<g id="edge4" class="edge"><title>Node5&#45;&gt;Node3</title>
<path fill="none" stroke="#9a32cd" stroke-dasharray="5,2" d="M112.446,-182.535C104.121,-169.95 93.2432,-153.507 86.7073,-143.627"/>
<polygon fill="#9a32cd" stroke="#9a32cd" points="109.764,-184.825 118.201,-191.234 115.603,-180.963 109.764,-184.825"/>
<text text-anchor="middle" x="114.5" y="-165" font-family="Helvetica,sans-Serif" font-size="10.00"> bot</text>
</g>
<!-- Node6 -->
<g id="node6" class="node"><title>Node6</title>
<g id="a_node6"><a xlink:href="classConcurrentQueue.html" target="_top" xlink:title="ConcurrentQueue\&lt; network\l::Message \&gt;">
<polygon fill="none" stroke="black" points="148.5,-258.5 148.5,-288.5 285.5,-288.5 285.5,-258.5 148.5,-258.5"/>
<text text-anchor="start" x="156.5" y="-276.5" font-family="Helvetica,sans-Serif" font-size="10.00">ConcurrentQueue&lt; network</text>
<text text-anchor="middle" x="217" y="-265.5" font-family="Helvetica,sans-Serif" font-size="10.00">::Message &gt;</text>
</a>
</g>
</g>
<!-- Node6&#45;&gt;Node5 -->
<g id="edge6" class="edge"><title>Node6&#45;&gt;Node5</title>
<path fill="none" stroke="#9a32cd" stroke-dasharray="5,2" d="M189.753,-251.845C171.69,-238.152 148.921,-220.891 135.465,-210.691"/>
<polygon fill="#9a32cd" stroke="#9a32cd" points="188.097,-254.981 198.18,-258.233 192.325,-249.403 188.097,-254.981"/>
<text text-anchor="middle" x="198.5" y="-232" font-family="Helvetica,sans-Serif" font-size="10.00"> messages</text>
</g>
<!-- Node7 -->
<g id="node7" class="node"><title>Node7</title>
<g id="a_node7"><a xlink:href="classConcurrentContainer.html" target="_top" xlink:title="ConcurrentContainer\l\&lt; std::queue\&lt; network\l::Message, Container \&gt; \&gt;">
<polygon fill="none" stroke="black" points="153,-326.5 153,-367.5 281,-367.5 281,-326.5 153,-326.5"/>
<text text-anchor="start" x="161" y="-355.5" font-family="Helvetica,sans-Serif" font-size="10.00">ConcurrentContainer</text>
<text text-anchor="start" x="161" y="-344.5" font-family="Helvetica,sans-Serif" font-size="10.00">&lt; std::queue&lt; network</text>
<text text-anchor="middle" x="217" y="-333.5" font-family="Helvetica,sans-Serif" font-size="10.00">::Message, Container &gt; &gt;</text>
</a>
</g>
</g>
<!-- Node7&#45;&gt;Node6 -->
<g id="edge7" class="edge"><title>Node7&#45;&gt;Node6</title>
<path fill="none" stroke="midnightblue" d="M217,-316.158C217,-306.687 217,-296.647 217,-288.797"/>
<polygon fill="midnightblue" stroke="midnightblue" points="213.5,-316.462 217,-326.462 220.5,-316.462 213.5,-316.462"/>
</g>
<!-- Node8 -->
<g id="node8" class="node"><title>Node8</title>
<g id="a_node8"><a xlink:href="classnetwork_1_1Connection.html" target="_top" xlink:title="Abstract service connection. ">
<polygon fill="none" stroke="black" points="154.5,-67.5 154.5,-86.5 261.5,-86.5 261.5,-67.5 154.5,-67.5"/>
<text text-anchor="middle" x="208" y="-74.5" font-family="Helvetica,sans-Serif" font-size="10.00">network::Connection</text>
</a>
</g>
</g>
<!-- Node8&#45;&gt;Node1 -->
<g id="edge9" class="edge"><title>Node8&#45;&gt;Node1</title>
<path fill="none" stroke="#9a32cd" stroke-dasharray="5,2" d="M199.219,-58.1635C193.048,-45.6281 185.064,-29.4104 180.247,-19.6273"/>
<polygon fill="#9a32cd" stroke="#9a32cd" points="196.127,-59.808 203.684,-67.2338 202.408,-56.7162 196.127,-59.808"/>
<text text-anchor="middle" x="210.5" y="-41" font-family="Helvetica,sans-Serif" font-size="10.00"> source</text>
</g>
</g>
</svg>
