<?xml version="1.0" encoding="UTF-8" standalone="no"?>
<!DOCTYPE svg PUBLIC "-//W3C//DTD SVG 1.1//EN"
 "http://www.w3.org/Graphics/SVG/1.1/DTD/svg11.dtd">
<!-- Generated by graphviz version 2.38.0 (20140413.2041)
 -->
<!-- Title: handler::CtcpBase Pages: 1 -->
<svg width="379pt" height="180pt"
 viewBox="0.00 0.00 379.00 180.00" xmlns="http://www.w3.org/2000/svg" xmlns:xlink="http://www.w3.org/1999/xlink">
<g id="graph0" class="graph" transform="scale(1 1) rotate(0) translate(4 176)">
<title>handler::CtcpBase</title>
<!-- Node1 -->
<g id="node1" class="node"><title>Node1</title>
<polygon fill="#bfbfbf" stroke="black" points="124,-76.5 124,-95.5 222,-95.5 222,-76.5 124,-76.5"/>
<text text-anchor="middle" x="173" y="-83.5" font-family="Helvetica,sans-Serif" font-size="10.00">handler::CtcpBase</text>
</g>
<!-- Node3 -->
<g id="node3" class="node"><title>Node3</title>
<g id="a_node3"><a xlink:href="classhandler_1_1CtcpPing.html" target="_top" xlink:title="CTCP PING reply, Used to measure round&#45;trip message delays. ">
<polygon fill="none" stroke="black" points="267,-152.5 267,-171.5 362,-171.5 362,-152.5 267,-152.5"/>
<text text-anchor="middle" x="314.5" y="-159.5" font-family="Helvetica,sans-Serif" font-size="10.00">handler::CtcpPing</text>
</a>
</g>
</g>
<!-- Node1&#45;&gt;Node3 -->
<g id="edge2" class="edge"><title>Node1&#45;&gt;Node3</title>
<path fill="none" stroke="midnightblue" d="M194.174,-101.955C210.626,-114.395 234.85,-131.443 258,-143 265.199,-146.594 273.24,-149.779 280.917,-152.465"/>
<polygon fill="midnightblue" stroke="midnightblue" points="195.949,-98.9054 185.889,-95.5822 191.681,-104.454 195.949,-98.9054"/>
</g>
<!-- Node4 -->
<g id="node4" class="node"><title>Node4</title>
<g id="a_node4"><a xlink:href="classhandler_1_1CtcpSource.html" target="_top" xlink:title="CTCP SOURCE reply, shows a URL with the sources. ">
<polygon fill="none" stroke="black" points="261.5,-114.5 261.5,-133.5 367.5,-133.5 367.5,-114.5 261.5,-114.5"/>
<text text-anchor="middle" x="314.5" y="-121.5" font-family="Helvetica,sans-Serif" font-size="10.00">handler::CtcpSource</text>
</a>
</g>
</g>
<!-- Node1&#45;&gt;Node4 -->
<g id="edge3" class="edge"><title>Node1&#45;&gt;Node4</title>
<path fill="none" stroke="midnightblue" d="M218.956,-98.2462C238.185,-103.484 260.303,-109.509 278.31,-114.414"/>
<polygon fill="midnightblue" stroke="midnightblue" points="219.77,-94.8404 209.202,-95.589 217.93,-101.594 219.77,-94.8404"/>
</g>
<!-- Node5 -->
<g id="node5" class="node"><title>Node5</title>
<g id="a_node5"><a xlink:href="classhandler_1_1CtcpTime.html" target="_top" xlink:title="CTCP TIME reply, Shows the local time. ">
<polygon fill="none" stroke="black" points="266,-76.5 266,-95.5 363,-95.5 363,-76.5 266,-76.5"/>
<text text-anchor="middle" x="314.5" y="-83.5" font-family="Helvetica,sans-Serif" font-size="10.00">handler::CtcpTime</text>
</a>
</g>
</g>
<!-- Node1&#45;&gt;Node5 -->
<g id="edge4" class="edge"><title>Node1&#45;&gt;Node5</title>
<path fill="none" stroke="midnightblue" d="M232.168,-86C243.395,-86 255.033,-86 265.876,-86"/>
<polygon fill="midnightblue" stroke="midnightblue" points="232.008,-82.5001 222.008,-86 232.008,-89.5001 232.008,-82.5001"/>
</g>
<!-- Node6 -->
<g id="node6" class="node"><title>Node6</title>
<g id="a_node6"><a xlink:href="classhandler_1_1CtcpUserInfo.html" target="_top" xlink:title="CTCP USERINFO reply, shows a user&#45;defined string. ">
<polygon fill="none" stroke="black" points="258,-38.5 258,-57.5 371,-57.5 371,-38.5 258,-38.5"/>
<text text-anchor="middle" x="314.5" y="-45.5" font-family="Helvetica,sans-Serif" font-size="10.00">handler::CtcpUserInfo</text>
</a>
</g>
</g>
<!-- Node1&#45;&gt;Node6 -->
<g id="edge5" class="edge"><title>Node1&#45;&gt;Node6</title>
<path fill="none" stroke="midnightblue" d="M218.956,-73.7538C238.185,-68.516 260.303,-62.4909 278.31,-57.5859"/>
<polygon fill="midnightblue" stroke="midnightblue" points="217.93,-70.4057 209.202,-76.411 219.77,-77.1596 217.93,-70.4057"/>
</g>
<!-- Node7 -->
<g id="node7" class="node"><title>Node7</title>
<g id="a_node7"><a xlink:href="classhandler_1_1CtcpVersion.html" target="_top" xlink:title="CTCP VERSION reply, shows a pre&#45;formatted version string. ">
<polygon fill="none" stroke="black" points="260.5,-0.5 260.5,-19.5 368.5,-19.5 368.5,-0.5 260.5,-0.5"/>
<text text-anchor="middle" x="314.5" y="-7.5" font-family="Helvetica,sans-Serif" font-size="10.00">handler::CtcpVersion</text>
</a>
</g>
</g>
<!-- Node1&#45;&gt;Node7 -->
<g id="edge6" class="edge"><title>Node1&#45;&gt;Node7</title>
<path fill="none" stroke="midnightblue" d="M194.174,-70.0448C210.626,-57.6047 234.85,-40.5567 258,-29 265.199,-25.4064 273.24,-22.2213 280.917,-19.5349"/>
<polygon fill="midnightblue" stroke="midnightblue" points="191.681,-67.5463 185.889,-76.4178 195.949,-73.0946 191.681,-67.5463"/>
</g>
<!-- Node2 -->
<g id="node2" class="node"><title>Node2</title>
<g id="a_node2"><a xlink:href="classhandler_1_1Handler.html" target="_top" xlink:title="Message handler abstract base class. ">
<polygon fill="none" stroke="black" points="0,-76.5 0,-95.5 88,-95.5 88,-76.5 0,-76.5"/>
<text text-anchor="middle" x="44" y="-83.5" font-family="Helvetica,sans-Serif" font-size="10.00">handler::Handler</text>
</a>
</g>
</g>
<!-- Node2&#45;&gt;Node1 -->
<g id="edge1" class="edge"><title>Node2&#45;&gt;Node1</title>
<path fill="none" stroke="midnightblue" d="M98.3965,-86C106.763,-86 115.369,-86 123.615,-86"/>
<polygon fill="midnightblue" stroke="midnightblue" points="98.351,-82.5001 88.351,-86 98.351,-89.5001 98.351,-82.5001"/>
</g>
</g>
</svg>
