<?xml version="1.0" encoding="UTF-8" standalone="no"?>
<!DOCTYPE svg PUBLIC "-//W3C//DTD SVG 1.1//EN"
 "http://www.w3.org/Graphics/SVG/1.1/DTD/svg11.dtd">
<!-- Generated by graphviz version 2.38.0 (20140413.2041)
 -->
<!-- Title: xonotic::XonoticConnection Pages: 1 -->
<svg width="745pt" height="218pt"
 viewBox="0.00 0.00 745.00 218.00" xmlns="http://www.w3.org/2000/svg" xmlns:xlink="http://www.w3.org/1999/xlink">
<g id="graph0" class="graph" transform="scale(1 1) rotate(0) translate(4 214)">
<title>xonotic::XonoticConnection</title>
<!-- Node1 -->
<g id="node1" class="node"><title>Node1</title>
<polygon fill="#bfbfbf" stroke="black" points="600,-96.5 600,-115.5 737,-115.5 737,-96.5 600,-96.5"/>
<text text-anchor="middle" x="668.5" y="-103.5" font-family="Helvetica,sans-Serif" font-size="10.00">xonotic::XonoticConnection</text>
</g>
<!-- Node2 -->
<g id="node2" class="node"><title>Node2</title>
<g id="a_node2"><a xlink:href="classnetwork_1_1Connection.html" target="_top" xlink:title="Abstract service connection. ">
<polygon fill="none" stroke="black" points="392,-190.5 392,-209.5 499,-209.5 499,-190.5 392,-190.5"/>
<text text-anchor="middle" x="445.5" y="-197.5" font-family="Helvetica,sans-Serif" font-size="10.00">network::Connection</text>
</a>
</g>
</g>
<!-- Node2&#45;&gt;Node1 -->
<g id="edge1" class="edge"><title>Node2&#45;&gt;Node1</title>
<path fill="none" stroke="midnightblue" d="M508.637,-188.126C532.223,-182.433 558.94,-174.516 582,-164 610.723,-150.901 640.364,-128.399 656.085,-115.615"/>
<polygon fill="midnightblue" stroke="midnightblue" points="507.687,-184.754 498.741,-190.431 509.274,-191.571 507.687,-184.754"/>
</g>
<!-- Node3 -->
<g id="node3" class="node"><title>Node3</title>
<g id="a_node3"><a xlink:href="classuser_1_1UserManager.html" target="_top" xlink:title="A class to keep track of users. ">
<polygon fill="none" stroke="black" points="395.5,-152.5 395.5,-171.5 495.5,-171.5 495.5,-152.5 395.5,-152.5"/>
<text text-anchor="middle" x="445.5" y="-159.5" font-family="Helvetica,sans-Serif" font-size="10.00">user::UserManager</text>
</a>
</g>
</g>
<!-- Node3&#45;&gt;Node1 -->
<g id="edge2" class="edge"><title>Node3&#45;&gt;Node1</title>
<path fill="none" stroke="#9a32cd" stroke-dasharray="5,2" d="M505.698,-151.271C529.545,-146.559 557.22,-140.595 582,-134 601.924,-128.697 624.033,-121.418 640.777,-115.611"/>
<polygon fill="#9a32cd" stroke="#9a32cd" points="504.879,-147.865 495.732,-153.212 506.217,-154.736 504.879,-147.865"/>
<text text-anchor="middle" x="549.5" y="-152" font-family="Helvetica,sans-Serif" font-size="10.00"> user_manager</text>
</g>
<!-- Node4 -->
<g id="node4" class="node"><title>Node4</title>
<g id="a_node4"><a xlink:href="classstring_1_1Formatter.html" target="_top" xlink:title="Abstract formatting visitor (and factory) ">
<polygon fill="none" stroke="black" points="401,-114.5 401,-133.5 490,-133.5 490,-114.5 401,-114.5"/>
<text text-anchor="middle" x="445.5" y="-121.5" font-family="Helvetica,sans-Serif" font-size="10.00">string::Formatter</text>
</a>
</g>
</g>
<!-- Node4&#45;&gt;Node1 -->
<g id="edge3" class="edge"><title>Node4&#45;&gt;Node1</title>
<path fill="none" stroke="#9a32cd" stroke-dasharray="5,2" d="M500.434,-119.607C530.434,-117.164 568.05,-114.1 599.99,-111.499"/>
<polygon fill="#9a32cd" stroke="#9a32cd" points="499.845,-116.143 490.162,-120.444 500.414,-123.12 499.845,-116.143"/>
<text text-anchor="middle" x="549.5" y="-122" font-family="Helvetica,sans-Serif" font-size="10.00"> formatter_</text>
</g>
<!-- Node5 -->
<g id="node5" class="node"><title>Node5</title>
<g id="a_node5"><a xlink:href="classMelanobot.html" target="_top" xlink:title="Main bot class. ">
<polygon fill="none" stroke="black" points="414.5,-76.5 414.5,-95.5 476.5,-95.5 476.5,-76.5 414.5,-76.5"/>
<text text-anchor="middle" x="445.5" y="-83.5" font-family="Helvetica,sans-Serif" font-size="10.00">Melanobot</text>
</a>
</g>
</g>
<!-- Node5&#45;&gt;Node1 -->
<g id="edge4" class="edge"><title>Node5&#45;&gt;Node1</title>
<path fill="none" stroke="#9a32cd" stroke-dasharray="5,2" d="M486.939,-89.6597C518.493,-92.5152 563.018,-96.5446 599.958,-99.8876"/>
<polygon fill="#9a32cd" stroke="#9a32cd" points="487.041,-86.1546 476.766,-88.739 486.41,-93.1261 487.041,-86.1546"/>
<text text-anchor="middle" x="549.5" y="-101" font-family="Helvetica,sans-Serif" font-size="10.00"> bot</text>
</g>
<!-- Node6 -->
<g id="node6" class="node"><title>Node6</title>
<g id="a_node6"><a xlink:href="classhandler_1_1HandlerContainer.html" target="_top" xlink:title="Base class for classes which may contain handlers. ">
<polygon fill="none" stroke="black" points="173.5,-89.5 173.5,-108.5 303.5,-108.5 303.5,-89.5 173.5,-89.5"/>
<text text-anchor="middle" x="238.5" y="-96.5" font-family="Helvetica,sans-Serif" font-size="10.00">handler::HandlerContainer</text>
</a>
</g>
</g>
<!-- Node6&#45;&gt;Node5 -->
<g id="edge5" class="edge"><title>Node6&#45;&gt;Node5</title>
<path fill="none" stroke="midnightblue" d="M313.667,-94.2967C348.454,-92.0907 387.968,-89.585 414.383,-87.9099"/>
<polygon fill="midnightblue" stroke="midnightblue" points="313.278,-90.8142 303.52,-94.9402 313.722,-97.8002 313.278,-90.8142"/>
</g>
<!-- Node7 -->
<g id="node7" class="node"><title>Node7</title>
<g id="a_node7"><a xlink:href="classConcurrentQueue.html" target="_top" xlink:title="ConcurrentQueue\&lt; network\l::Message \&gt;">
<polygon fill="none" stroke="black" points="170,-40 170,-70 307,-70 307,-40 170,-40"/>
<text text-anchor="start" x="178" y="-58" font-family="Helvetica,sans-Serif" font-size="10.00">ConcurrentQueue&lt; network</text>
<text text-anchor="middle" x="238.5" y="-47" font-family="Helvetica,sans-Serif" font-size="10.00">::Message &gt;</text>
</a>
</g>
</g>
<!-- Node7&#45;&gt;Node5 -->
<g id="edge6" class="edge"><title>Node7&#45;&gt;Node5</title>
<path fill="none" stroke="#9a32cd" stroke-dasharray="5,2" d="M317.113,-66.7366C351.047,-71.868 388.854,-77.5852 414.4,-81.4484"/>
<polygon fill="#9a32cd" stroke="#9a32cd" points="317.604,-63.2711 307.193,-65.2365 316.557,-70.1924 317.604,-63.2711"/>
<text text-anchor="middle" x="349.5" y="-79" font-family="Helvetica,sans-Serif" font-size="10.00"> messages</text>
</g>
<!-- Node8 -->
<g id="node8" class="node"><title>Node8</title>
<g id="a_node8"><a xlink:href="classConcurrentContainer.html" target="_top" xlink:title="ConcurrentContainer\l\&lt; std::queue\&lt; network\l::Message, std::deque\l\&lt; network::Message \&gt; \&gt; \&gt;">
<polygon fill="none" stroke="black" points="0,-29 0,-81 133,-81 133,-29 0,-29"/>
<text text-anchor="start" x="8" y="-69" font-family="Helvetica,sans-Serif" font-size="10.00">ConcurrentContainer</text>
<text text-anchor="start" x="8" y="-58" font-family="Helvetica,sans-Serif" font-size="10.00">&lt; std::queue&lt; network</text>
<text text-anchor="start" x="8" y="-47" font-family="Helvetica,sans-Serif" font-size="10.00">::Message, std::deque</text>
<text text-anchor="middle" x="66.5" y="-36" font-family="Helvetica,sans-Serif" font-size="10.00">&lt; network::Message &gt; &gt; &gt;</text>
</a>
</g>
</g>
<!-- Node8&#45;&gt;Node7 -->
<g id="edge7" class="edge"><title>Node8&#45;&gt;Node7</title>
<path fill="none" stroke="midnightblue" d="M143.502,-55C152.327,-55 161.282,-55 169.982,-55"/>
<polygon fill="midnightblue" stroke="midnightblue" points="143.226,-51.5001 133.226,-55 143.226,-58.5001 143.226,-51.5001"/>
</g>
<!-- Node9 -->
<g id="node9" class="node"><title>Node9</title>
<g id="a_node9"><a xlink:href="classnetwork_1_1UdpIo.html" target="_top" xlink:title="Class providing a simple interface for UDP connections. ">
<polygon fill="none" stroke="black" points="404,-38.5 404,-57.5 487,-57.5 487,-38.5 404,-38.5"/>
<text text-anchor="middle" x="445.5" y="-45.5" font-family="Helvetica,sans-Serif" font-size="10.00">network::UdpIo</text>
</a>
</g>
</g>
<!-- Node9&#45;&gt;Node1 -->
<g id="edge8" class="edge"><title>Node9&#45;&gt;Node1</title>
<path fill="none" stroke="#9a32cd" stroke-dasharray="5,2" d="M496.942,-57.933C522.564,-63.2903 554.099,-70.3626 582,-78 601.886,-83.4434 623.997,-90.7176 640.75,-96.4874"/>
<polygon fill="#9a32cd" stroke="#9a32cd" points="497.575,-54.4899 487.073,-55.8929 496.158,-61.3449 497.575,-54.4899"/>
<text text-anchor="middle" x="549.5" y="-81" font-family="Helvetica,sans-Serif" font-size="10.00"> io</text>
</g>
<!-- Node10 -->
<g id="node10" class="node"><title>Node10</title>
<g id="a_node10"><a xlink:href="structnetwork_1_1Server.html" target="_top" xlink:title="Identifies a network server. ">
<polygon fill="none" stroke="black" points="402.5,-0.5 402.5,-19.5 488.5,-19.5 488.5,-0.5 402.5,-0.5"/>
<text text-anchor="middle" x="445.5" y="-7.5" font-family="Helvetica,sans-Serif" font-size="10.00">network::Server</text>
</a>
</g>
</g>
<!-- Node10&#45;&gt;Node1 -->
<g id="edge9" class="edge"><title>Node10&#45;&gt;Node1</title>
<path fill="none" stroke="#9a32cd" stroke-dasharray="5,2" d="M498.611,-20.4518C524.404,-26.6555 555.591,-35.7364 582,-48 610.632,-61.2959 640.307,-83.724 656.058,-96.4431"/>
<polygon fill="#9a32cd" stroke="#9a32cd" points="499.182,-16.9911 488.649,-18.1327 497.595,-23.8088 499.182,-16.9911"/>
<text text-anchor="middle" x="549.5" y="-51" font-family="Helvetica,sans-Serif" font-size="10.00"> server_</text>
</g>
</g>
</svg>
