<?xml version="1.0" encoding="UTF-8" standalone="no"?>
<!DOCTYPE svg PUBLIC "-//W3C//DTD SVG 1.1//EN"
 "http://www.w3.org/Graphics/SVG/1.1/DTD/svg11.dtd">
<!-- Generated by graphviz version 2.38.0 (20140413.2041)
 -->
<!-- Title: handler::SimpleAction Pages: 1 -->
<svg width="917pt" height="978pt"
 viewBox="0.00 0.00 917.00 978.00" xmlns="http://www.w3.org/2000/svg" xmlns:xlink="http://www.w3.org/1999/xlink">
<g id="graph0" class="graph" transform="scale(1 1) rotate(0) translate(4 974)">
<title>handler::SimpleAction</title>
<!-- Node1 -->
<g id="node1" class="node"><title>Node1</title>
<polygon fill="#bfbfbf" stroke="black" points="290,-475.5 290,-494.5 402,-494.5 402,-475.5 290,-475.5"/>
<text text-anchor="middle" x="346" y="-482.5" font-family="Helvetica,sans-Serif" font-size="10.00">handler::SimpleAction</text>
</g>
<!-- Node4 -->
<g id="node4" class="node"><title>Node4</title>
<g id="a_node4"><a xlink:href="classfun_1_1Morse.html" target="_top" xlink:title="Handler translating between morse and latin. ">
<polygon fill="none" stroke="black" points="479.5,-950.5 479.5,-969.5 542.5,-969.5 542.5,-950.5 479.5,-950.5"/>
<text text-anchor="middle" x="511" y="-957.5" font-family="Helvetica,sans-Serif" font-size="10.00">fun::Morse</text>
</a>
</g>
</g>
<!-- Node1&#45;&gt;Node4 -->
<g id="edge3" class="edge"><title>Node1&#45;&gt;Node4</title>
<path fill="none" stroke="midnightblue" d="M348.236,-504.974C353.543,-584.329 376.974,-876.131 438,-941 448.541,-952.205 464.84,-957.099 479.266,-959.127"/>
<polygon fill="midnightblue" stroke="midnightblue" points="351.72,-504.613 347.582,-494.86 344.734,-505.065 351.72,-504.613"/>
</g>
<!-- Node5 -->
<g id="node5" class="node"><title>Node5</title>
<g id="a_node5"><a xlink:href="classfun_1_1RenderPony.html" target="_top" xlink:title="Draws a pretty My Little Pony ASCII art. ">
<polygon fill="none" stroke="black" points="466,-912.5 466,-931.5 556,-931.5 556,-912.5 466,-912.5"/>
<text text-anchor="middle" x="511" y="-919.5" font-family="Helvetica,sans-Serif" font-size="10.00">fun::RenderPony</text>
</a>
</g>
</g>
<!-- Node1&#45;&gt;Node5 -->
<g id="edge4" class="edge"><title>Node1&#45;&gt;Node5</title>
<path fill="none" stroke="midnightblue" d="M348.647,-505.201C355.198,-580.609 381.816,-844.308 438,-903 445.42,-910.751 455.597,-915.473 465.963,-918.316"/>
<polygon fill="midnightblue" stroke="midnightblue" points="352.096,-504.445 347.767,-494.776 345.121,-505.035 352.096,-504.445"/>
</g>
<!-- Node6 -->
<g id="node6" class="node"><title>Node6</title>
<g id="a_node6"><a xlink:href="classfun_1_1ReverseText.html" target="_top" xlink:title="Turns ASCII characters upside&#45;down. ">
<polygon fill="none" stroke="black" points="465,-874.5 465,-893.5 557,-893.5 557,-874.5 465,-874.5"/>
<text text-anchor="middle" x="511" y="-881.5" font-family="Helvetica,sans-Serif" font-size="10.00">fun::ReverseText</text>
</a>
</g>
</g>
<!-- Node1&#45;&gt;Node6 -->
<g id="edge5" class="edge"><title>Node1&#45;&gt;Node6</title>
<path fill="none" stroke="midnightblue" d="M349.068,-504.718C356.832,-575.057 386.461,-812.264 438,-865 445.229,-872.397 454.971,-877.026 464.949,-879.895"/>
<polygon fill="midnightblue" stroke="midnightblue" points="352.527,-504.15 347.974,-494.583 345.567,-504.901 352.527,-504.15"/>
</g>
<!-- Node7 -->
<g id="node7" class="node"><title>Node7</title>
<g id="a_node7"><a xlink:href="classfun_1_1Slap.html" target="_top" xlink:title="Slaps someone. ">
<polygon fill="none" stroke="black" points="483,-836.5 483,-855.5 539,-855.5 539,-836.5 483,-836.5"/>
<text text-anchor="middle" x="511" y="-843.5" font-family="Helvetica,sans-Serif" font-size="10.00">fun::Slap</text>
</a>
</g>
</g>
<!-- Node1&#45;&gt;Node7 -->
<g id="edge6" class="edge"><title>Node1&#45;&gt;Node7</title>
<path fill="none" stroke="midnightblue" d="M349.646,-504.838C358.813,-570.663 391.23,-780.326 438,-827 449.713,-838.689 467.713,-843.439 482.785,-845.267"/>
<polygon fill="midnightblue" stroke="midnightblue" points="353.07,-504.038 348.248,-494.603 346.134,-504.985 353.07,-504.038"/>
</g>
<!-- Node8 -->
<g id="node8" class="node"><title>Node8</title>
<g id="a_node8"><a xlink:href="classhandler_1_1AdminConnect.html" target="_top" xlink:title="Makes the bot Connect. ">
<polygon fill="none" stroke="black" points="451.5,-798.5 451.5,-817.5 570.5,-817.5 570.5,-798.5 451.5,-798.5"/>
<text text-anchor="middle" x="511" y="-805.5" font-family="Helvetica,sans-Serif" font-size="10.00">handler::AdminConnect</text>
</a>
</g>
</g>
<!-- Node1&#45;&gt;Node8 -->
<g id="edge7" class="edge"><title>Node1&#45;&gt;Node8</title>
<path fill="none" stroke="midnightblue" d="M346.714,-504.84C347.066,-558.784 355.749,-709.407 438,-789 441.995,-792.866 446.679,-795.969 451.708,-798.457"/>
<polygon fill="midnightblue" stroke="midnightblue" points="350.215,-504.604 346.745,-494.593 343.215,-504.583 350.215,-504.604"/>
</g>
<!-- Node9 -->
<g id="node9" class="node"><title>Node9</title>
<g id="a_node9"><a xlink:href="classhandler_1_1AdminDisconnect.html" target="_top" xlink:title="Makes the bot disconnect. ">
<polygon fill="none" stroke="black" points="445.5,-760.5 445.5,-779.5 576.5,-779.5 576.5,-760.5 445.5,-760.5"/>
<text text-anchor="middle" x="511" y="-767.5" font-family="Helvetica,sans-Serif" font-size="10.00">handler::AdminDisconnect</text>
</a>
</g>
</g>
<!-- Node1&#45;&gt;Node9 -->
<g id="edge8" class="edge"><title>Node1&#45;&gt;Node9</title>
<path fill="none" stroke="midnightblue" d="M347.712,-504.972C350.587,-554.357 365.071,-683.115 438,-751 442.164,-754.876 447.023,-757.98 452.216,-760.465"/>
<polygon fill="midnightblue" stroke="midnightblue" points="351.194,-504.518 347.22,-494.697 344.202,-504.853 351.194,-504.518"/>
</g>
<!-- Node10 -->
<g id="node10" class="node"><title>Node10</title>
<g id="a_node10"><a xlink:href="classhandler_1_1AdminQuit.html" target="_top" xlink:title="Quits the bot. ">
<polygon fill="none" stroke="black" points="461,-722.5 461,-741.5 561,-741.5 561,-722.5 461,-722.5"/>
<text text-anchor="middle" x="511" y="-729.5" font-family="Helvetica,sans-Serif" font-size="10.00">handler::AdminQuit</text>
</a>
</g>
</g>
<!-- Node1&#45;&gt;Node10 -->
<g id="edge9" class="edge"><title>Node1&#45;&gt;Node10</title>
<path fill="none" stroke="midnightblue" d="M348.951,-504.488C354.427,-548.54 373.998,-656.352 438,-713 444.486,-718.741 452.509,-722.778 460.82,-725.61"/>
<polygon fill="midnightblue" stroke="midnightblue" points="352.424,-504.052 347.821,-494.509 345.468,-504.839 352.424,-504.052"/>
</g>
<!-- Node11 -->
<g id="node11" class="node"><title>Node11</title>
<g id="a_node11"><a xlink:href="classhandler_1_1AdminReconnect.html" target="_top" xlink:title="Makes the bot reconnect. ">
<polygon fill="none" stroke="black" points="446.5,-684.5 446.5,-703.5 575.5,-703.5 575.5,-684.5 446.5,-684.5"/>
<text text-anchor="middle" x="511" y="-691.5" font-family="Helvetica,sans-Serif" font-size="10.00">handler::AdminReconnect</text>
</a>
</g>
</g>
<!-- Node1&#45;&gt;Node11 -->
<g id="edge10" class="edge"><title>Node1&#45;&gt;Node11</title>
<path fill="none" stroke="midnightblue" d="M350.706,-504.614C359.066,-543.297 383.107,-629.596 438,-675 442.682,-678.873 448.072,-681.964 453.752,-684.43"/>
<polygon fill="midnightblue" stroke="midnightblue" points="354.099,-503.737 348.674,-494.636 347.24,-505.133 354.099,-503.737"/>
</g>
<!-- Node12 -->
<g id="node12" class="node"><title>Node12</title>
<g id="a_node12"><a xlink:href="classhandler_1_1BridgeAttach.html" target="_top" xlink:title="Attach the parent bridge to the provided connection. ">
<polygon fill="none" stroke="black" points="456,-646.5 456,-665.5 566,-665.5 566,-646.5 456,-646.5"/>
<text text-anchor="middle" x="511" y="-653.5" font-family="Helvetica,sans-Serif" font-size="10.00">handler::BridgeAttach</text>
</a>
</g>
</g>
<!-- Node1&#45;&gt;Node12 -->
<g id="edge11" class="edge"><title>Node1&#45;&gt;Node12</title>
<path fill="none" stroke="midnightblue" d="M353.109,-504.239C364.436,-536.724 391.839,-602.294 438,-637 443.373,-641.04 449.534,-644.222 455.941,-646.729"/>
<polygon fill="midnightblue" stroke="midnightblue" points="356.371,-502.957 349.88,-494.583 349.732,-505.177 356.371,-502.957"/>
</g>
<!-- Node13 -->
<g id="node13" class="node"><title>Node13</title>
<g id="a_node13"><a xlink:href="classhandler_1_1BridgeAttachChannel.html" target="_top" xlink:title="Attach the parent bridge to the provided channel. ">
<polygon fill="none" stroke="black" points="438,-608.5 438,-627.5 584,-627.5 584,-608.5 438,-608.5"/>
<text text-anchor="middle" x="511" y="-615.5" font-family="Helvetica,sans-Serif" font-size="10.00">handler::BridgeAttachChannel</text>
</a>
</g>
</g>
<!-- Node1&#45;&gt;Node13 -->
<g id="edge12" class="edge"><title>Node1&#45;&gt;Node13</title>
<path fill="none" stroke="midnightblue" d="M356.812,-503.684C371.174,-529.171 400.353,-574.465 438,-599 443.957,-602.882 450.678,-605.973 457.559,-608.434"/>
<polygon fill="midnightblue" stroke="midnightblue" points="359.757,-501.774 351.891,-494.677 353.614,-505.13 359.757,-501.774"/>
</g>
<!-- Node14 -->
<g id="node14" class="node"><title>Node14</title>
<g id="a_node14"><a xlink:href="classhandler_1_1Cointoss.html" target="_top" xlink:title="Shows one of the given items, at random. ">
<polygon fill="none" stroke="black" points="464.5,-570.5 464.5,-589.5 557.5,-589.5 557.5,-570.5 464.5,-570.5"/>
<text text-anchor="middle" x="511" y="-577.5" font-family="Helvetica,sans-Serif" font-size="10.00">handler::Cointoss</text>
</a>
</g>
</g>
<!-- Node1&#45;&gt;Node14 -->
<g id="edge13" class="edge"><title>Node1&#45;&gt;Node14</title>
<path fill="none" stroke="midnightblue" d="M362.763,-501.972C379.745,-519.271 408.345,-545.678 438,-561 446.155,-565.213 455.324,-568.551 464.318,-571.175"/>
<polygon fill="midnightblue" stroke="midnightblue" points="365.267,-499.526 355.816,-494.736 360.218,-504.374 365.267,-499.526"/>
</g>
<!-- Node15 -->
<g id="node15" class="node"><title>Node15</title>
<g id="a_node15"><a xlink:href="classhandler_1_1Echo.html" target="_top" xlink:title="Just repeat what it has been told. ">
<polygon fill="none" stroke="black" points="472.5,-532.5 472.5,-551.5 549.5,-551.5 549.5,-532.5 472.5,-532.5"/>
<text text-anchor="middle" x="511" y="-539.5" font-family="Helvetica,sans-Serif" font-size="10.00">handler::Echo</text>
</a>
</g>
</g>
<!-- Node1&#45;&gt;Node15 -->
<g id="edge14" class="edge"><title>Node1&#45;&gt;Node15</title>
<path fill="none" stroke="midnightblue" d="M376.831,-498.679C394.406,-506.428 417.205,-515.952 438,-523 449.019,-526.735 461.19,-530.192 472.34,-533.105"/>
<polygon fill="midnightblue" stroke="midnightblue" points="378.209,-495.461 367.65,-494.583 375.357,-501.853 378.209,-495.461"/>
</g>
<!-- Node16 -->
<g id="node16" class="node"><title>Node16</title>
<g id="a_node16"><a xlink:href="classhandler_1_1Help.html" target="_top" xlink:title="Handler showing help on the available handlers. ">
<polygon fill="none" stroke="black" points="474,-494.5 474,-513.5 548,-513.5 548,-494.5 474,-494.5"/>
<text text-anchor="middle" x="511" y="-501.5" font-family="Helvetica,sans-Serif" font-size="10.00">handler::Help</text>
</a>
</g>
</g>
<!-- Node1&#45;&gt;Node16 -->
<g id="edge15" class="edge"><title>Node1&#45;&gt;Node16</title>
<path fill="none" stroke="midnightblue" d="M412.33,-492.615C433.292,-495.059 455.741,-497.675 473.825,-499.783"/>
<polygon fill="midnightblue" stroke="midnightblue" points="412.522,-489.114 402.184,-491.433 411.712,-496.067 412.522,-489.114"/>
</g>
<!-- Node17 -->
<g id="node17" class="node"><title>Node17</title>
<g id="a_node17"><a xlink:href="classhandler_1_1License.html" target="_top" xlink:title="Handler showing licensing information. ">
<polygon fill="none" stroke="black" points="467,-456.5 467,-475.5 555,-475.5 555,-456.5 467,-456.5"/>
<text text-anchor="middle" x="511" y="-463.5" font-family="Helvetica,sans-Serif" font-size="10.00">handler::License</text>
</a>
</g>
</g>
<!-- Node1&#45;&gt;Node17 -->
<g id="edge16" class="edge"><title>Node1&#45;&gt;Node17</title>
<path fill="none" stroke="midnightblue" d="M412.267,-477.392C430.675,-475.246 450.234,-472.967 466.98,-471.015"/>
<polygon fill="midnightblue" stroke="midnightblue" points="411.712,-473.933 402.184,-478.567 412.522,-480.886 411.712,-473.933"/>
</g>
<!-- Node18 -->
<g id="node18" class="node"><title>Node18</title>
<g id="a_node18"><a xlink:href="classhandler_1_1ListClear.html" target="_top" xlink:title="Used by AbstractList to remove all elements. ">
<polygon fill="none" stroke="black" points="464.5,-418.5 464.5,-437.5 557.5,-437.5 557.5,-418.5 464.5,-418.5"/>
<text text-anchor="middle" x="511" y="-425.5" font-family="Helvetica,sans-Serif" font-size="10.00">handler::ListClear</text>
</a>
</g>
</g>
<!-- Node1&#45;&gt;Node18 -->
<g id="edge17" class="edge"><title>Node1&#45;&gt;Node18</title>
<path fill="none" stroke="midnightblue" d="M376.831,-471.321C394.406,-463.572 417.205,-454.048 438,-447 448.162,-443.556 459.303,-440.347 469.721,-437.584"/>
<polygon fill="midnightblue" stroke="midnightblue" points="375.357,-468.147 367.65,-475.417 378.209,-474.539 375.357,-468.147"/>
</g>
<!-- Node19 -->
<g id="node19" class="node"><title>Node19</title>
<g id="a_node19"><a xlink:href="classhandler_1_1ListInsert.html" target="_top" xlink:title="Used by AbstractList to add elements. ">
<polygon fill="none" stroke="black" points="463.5,-380.5 463.5,-399.5 558.5,-399.5 558.5,-380.5 463.5,-380.5"/>
<text text-anchor="middle" x="511" y="-387.5" font-family="Helvetica,sans-Serif" font-size="10.00">handler::ListInsert</text>
</a>
</g>
</g>
<!-- Node1&#45;&gt;Node19 -->
<g id="edge18" class="edge"><title>Node1&#45;&gt;Node19</title>
<path fill="none" stroke="midnightblue" d="M362.763,-468.028C379.745,-450.729 408.345,-424.322 438,-409 445.81,-404.965 454.551,-401.732 463.177,-399.162"/>
<polygon fill="midnightblue" stroke="midnightblue" points="360.218,-465.626 355.816,-475.264 365.267,-470.474 360.218,-465.626"/>
</g>
<!-- Node20 -->
<g id="node20" class="node"><title>Node20</title>
<g id="a_node20"><a xlink:href="classhandler_1_1ListRemove.html" target="_top" xlink:title="Used by AbstractList to remove elements. ">
<polygon fill="none" stroke="black" points="457.5,-342.5 457.5,-361.5 564.5,-361.5 564.5,-342.5 457.5,-342.5"/>
<text text-anchor="middle" x="511" y="-349.5" font-family="Helvetica,sans-Serif" font-size="10.00">handler::ListRemove</text>
</a>
</g>
</g>
<!-- Node1&#45;&gt;Node20 -->
<g id="edge19" class="edge"><title>Node1&#45;&gt;Node20</title>
<path fill="none" stroke="midnightblue" d="M356.812,-466.316C371.174,-440.829 400.353,-395.535 438,-371 443.957,-367.118 450.678,-364.027 457.559,-361.566"/>
<polygon fill="midnightblue" stroke="midnightblue" points="353.614,-464.87 351.891,-475.323 359.757,-468.226 353.614,-464.87"/>
</g>
<!-- Node21 -->
<g id="node21" class="node"><title>Node21</title>
<g id="a_node21"><a xlink:href="classhandler_1_1ServerHost.html" target="_top" xlink:title="Shows the server the bot is connected to. ">
<polygon fill="none" stroke="black" points="459,-304.5 459,-323.5 563,-323.5 563,-304.5 459,-304.5"/>
<text text-anchor="middle" x="511" y="-311.5" font-family="Helvetica,sans-Serif" font-size="10.00">handler::ServerHost</text>
</a>
</g>
</g>
<!-- Node1&#45;&gt;Node21 -->
<g id="edge20" class="edge"><title>Node1&#45;&gt;Node21</title>
<path fill="none" stroke="midnightblue" d="M353.109,-465.761C364.436,-433.276 391.839,-367.706 438,-333 444.2,-328.339 451.449,-324.819 458.914,-322.161"/>
<polygon fill="midnightblue" stroke="midnightblue" points="349.732,-464.823 349.88,-475.417 356.371,-467.043 349.732,-464.823"/>
</g>
<!-- Node22 -->
<g id="node22" class="node"><title>Node22</title>
<g id="a_node22"><a xlink:href="classhandler_1_1SimpleGroup.html" target="_top" xlink:title="A simple group of actions which share settings. ">
<polygon fill="none" stroke="black" points="456,-266.5 456,-285.5 566,-285.5 566,-266.5 456,-266.5"/>
<text text-anchor="middle" x="511" y="-273.5" font-family="Helvetica,sans-Serif" font-size="10.00">handler::SimpleGroup</text>
</a>
</g>
</g>
<!-- Node1&#45;&gt;Node22 -->
<g id="edge21" class="edge"><title>Node1&#45;&gt;Node22</title>
<path fill="none" stroke="midnightblue" d="M350.706,-465.386C359.066,-426.703 383.107,-340.404 438,-295 443.28,-290.633 449.459,-287.26 455.94,-284.656"/>
<polygon fill="midnightblue" stroke="midnightblue" points="347.24,-464.867 348.674,-475.364 354.099,-466.263 347.24,-464.867"/>
</g>
<!-- Node26 -->
<g id="node26" class="node"><title>Node26</title>
<g id="a_node26"><a xlink:href="classhandler_1_1SimpleWebApi.html" target="_top" xlink:title="Simple base class for handlers calling web resources. ">
<polygon fill="none" stroke="black" points="451.5,-228.5 451.5,-247.5 570.5,-247.5 570.5,-228.5 451.5,-228.5"/>
<text text-anchor="middle" x="511" y="-235.5" font-family="Helvetica,sans-Serif" font-size="10.00">handler::SimpleWebApi</text>
</a>
</g>
</g>
<!-- Node1&#45;&gt;Node26 -->
<g id="edge25" class="edge"><title>Node1&#45;&gt;Node26</title>
<path fill="none" stroke="midnightblue" d="M348.951,-465.512C354.427,-421.46 373.998,-313.648 438,-257 442.356,-253.144 447.406,-250.057 452.77,-247.587"/>
<polygon fill="midnightblue" stroke="midnightblue" points="345.468,-465.161 347.821,-475.491 352.424,-465.948 345.468,-465.161"/>
</g>
<!-- Node33 -->
<g id="node33" class="node"><title>Node33</title>
<g id="a_node33"><a xlink:href="classirc_1_1handler_1_1AdminJoin.html" target="_top" xlink:title="Makes the bot join channels (IRC) ">
<polygon fill="none" stroke="black" points="453,-190.5 453,-209.5 569,-209.5 569,-190.5 453,-190.5"/>
<text text-anchor="middle" x="511" y="-197.5" font-family="Helvetica,sans-Serif" font-size="10.00">irc::handler::AdminJoin</text>
</a>
</g>
</g>
<!-- Node1&#45;&gt;Node33 -->
<g id="edge32" class="edge"><title>Node1&#45;&gt;Node33</title>
<path fill="none" stroke="midnightblue" d="M347.712,-465.028C350.587,-415.643 365.071,-286.885 438,-219 442.353,-214.948 447.466,-211.739 452.926,-209.201"/>
<polygon fill="midnightblue" stroke="midnightblue" points="344.202,-465.147 347.22,-475.303 351.194,-465.482 344.202,-465.147"/>
</g>
<!-- Node34 -->
<g id="node34" class="node"><title>Node34</title>
<g id="a_node34"><a xlink:href="classirc_1_1handler_1_1AdminNick.html" target="_top" xlink:title="Changes the bot nick (IRC) ">
<polygon fill="none" stroke="black" points="451.5,-152.5 451.5,-171.5 570.5,-171.5 570.5,-152.5 451.5,-152.5"/>
<text text-anchor="middle" x="511" y="-159.5" font-family="Helvetica,sans-Serif" font-size="10.00">irc::handler::AdminNick</text>
</a>
</g>
</g>
<!-- Node1&#45;&gt;Node34 -->
<g id="edge33" class="edge"><title>Node1&#45;&gt;Node34</title>
<path fill="none" stroke="midnightblue" d="M346.714,-465.16C347.066,-411.216 355.749,-260.593 438,-181 441.995,-177.134 446.679,-174.031 451.708,-171.543"/>
<polygon fill="midnightblue" stroke="midnightblue" points="343.215,-465.417 346.745,-475.407 350.215,-465.396 343.215,-465.417"/>
</g>
<!-- Node35 -->
<g id="node35" class="node"><title>Node35</title>
<g id="a_node35"><a xlink:href="classirc_1_1handler_1_1AdminPart.html" target="_top" xlink:title="Makes the bot part channels (IRC) ">
<polygon fill="none" stroke="black" points="453,-114.5 453,-133.5 569,-133.5 569,-114.5 453,-114.5"/>
<text text-anchor="middle" x="511" y="-121.5" font-family="Helvetica,sans-Serif" font-size="10.00">irc::handler::AdminPart</text>
</a>
</g>
</g>
<!-- Node1&#45;&gt;Node35 -->
<g id="edge34" class="edge"><title>Node1&#45;&gt;Node35</title>
<path fill="none" stroke="midnightblue" d="M349.646,-465.162C358.813,-399.337 391.23,-189.674 438,-143 442.301,-138.708 447.449,-135.351 452.989,-132.732"/>
<polygon fill="midnightblue" stroke="midnightblue" points="346.134,-465.015 348.248,-475.397 353.07,-465.962 346.134,-465.015"/>
</g>
<!-- Node36 -->
<g id="node36" class="node"><title>Node36</title>
<g id="a_node36"><a xlink:href="classirc_1_1handler_1_1AdminRaw.html" target="_top" xlink:title="Makes the bot execute a raw command (IRC) ">
<polygon fill="none" stroke="black" points="451.5,-76.5 451.5,-95.5 570.5,-95.5 570.5,-76.5 451.5,-76.5"/>
<text text-anchor="middle" x="511" y="-83.5" font-family="Helvetica,sans-Serif" font-size="10.00">irc::handler::AdminRaw</text>
</a>
</g>
</g>
<!-- Node1&#45;&gt;Node36 -->
<g id="edge35" class="edge"><title>Node1&#45;&gt;Node36</title>
<path fill="none" stroke="midnightblue" d="M349.068,-465.282C356.832,-394.943 386.461,-157.736 438,-105 441.885,-101.024 446.497,-97.8482 451.481,-95.3151"/>
<polygon fill="midnightblue" stroke="midnightblue" points="345.567,-465.099 347.974,-475.417 352.527,-465.85 345.567,-465.099"/>
</g>
<!-- Node37 -->
<g id="node37" class="node"><title>Node37</title>
<g id="a_node37"><a xlink:href="classirc_1_1handler_1_1WhoisCheckMe.html" target="_top" xlink:title="Sends a WHOIS about the message sender. ">
<polygon fill="none" stroke="black" points="441,-38.5 441,-57.5 581,-57.5 581,-38.5 441,-38.5"/>
<text text-anchor="middle" x="511" y="-45.5" font-family="Helvetica,sans-Serif" font-size="10.00">irc::handler::WhoisCheckMe</text>
</a>
</g>
</g>
<!-- Node1&#45;&gt;Node37 -->
<g id="edge36" class="edge"><title>Node1&#45;&gt;Node37</title>
<path fill="none" stroke="midnightblue" d="M348.647,-464.799C355.198,-389.391 381.816,-125.692 438,-67 441.665,-63.1711 446.003,-60.0813 450.705,-57.5921"/>
<polygon fill="midnightblue" stroke="midnightblue" points="345.121,-464.965 347.767,-475.224 352.096,-465.555 345.121,-464.965"/>
</g>
<!-- Node38 -->
<g id="node38" class="node"><title>Node38</title>
<g id="a_node38"><a xlink:href="classxonotic_1_1RconCommand.html" target="_top" xlink:title="Send a fixed rcon command to a Xonotic connection. ">
<polygon fill="none" stroke="black" points="450,-0.5 450,-19.5 572,-19.5 572,-0.5 450,-0.5"/>
<text text-anchor="middle" x="511" y="-7.5" font-family="Helvetica,sans-Serif" font-size="10.00">xonotic::RconCommand</text>
</a>
</g>
</g>
<!-- Node1&#45;&gt;Node38 -->
<g id="edge37" class="edge"><title>Node1&#45;&gt;Node38</title>
<path fill="none" stroke="midnightblue" d="M348.236,-465.026C353.543,-385.671 376.974,-93.8687 438,-29 441.632,-25.1394 445.947,-22.0281 450.634,-19.525"/>
<polygon fill="midnightblue" stroke="midnightblue" points="344.734,-464.935 347.582,-475.14 351.72,-465.387 344.734,-464.935"/>
</g>
<!-- Node2 -->
<g id="node2" class="node"><title>Node2</title>
<g id="a_node2"><a xlink:href="classhandler_1_1Handler.html" target="_top" xlink:title="Message handler abstract base class. ">
<polygon fill="none" stroke="black" points="166,-475.5 166,-494.5 254,-494.5 254,-475.5 166,-475.5"/>
<text text-anchor="middle" x="210" y="-482.5" font-family="Helvetica,sans-Serif" font-size="10.00">handler::Handler</text>
</a>
</g>
</g>
<!-- Node2&#45;&gt;Node1 -->
<g id="edge1" class="edge"><title>Node2&#45;&gt;Node1</title>
<path fill="none" stroke="midnightblue" d="M264.18,-485C272.568,-485 281.258,-485 289.693,-485"/>
<polygon fill="midnightblue" stroke="midnightblue" points="264.136,-481.5 254.136,-485 264.136,-488.5 264.136,-481.5"/>
</g>
<!-- Node3 -->
<g id="node3" class="node"><title>Node3</title>
<g id="a_node3"><a xlink:href="classhandler_1_1HandlerContainer.html" target="_top" xlink:title="Base class for classes which may contain handlers. ">
<polygon fill="none" stroke="black" points="0,-475.5 0,-494.5 130,-494.5 130,-475.5 0,-475.5"/>
<text text-anchor="middle" x="65" y="-482.5" font-family="Helvetica,sans-Serif" font-size="10.00">handler::HandlerContainer</text>
</a>
</g>
</g>
<!-- Node3&#45;&gt;Node2 -->
<g id="edge2" class="edge"><title>Node3&#45;&gt;Node2</title>
<path fill="none" stroke="midnightblue" d="M140.555,-485C149.218,-485 157.821,-485 165.854,-485"/>
<polygon fill="midnightblue" stroke="midnightblue" points="140.388,-481.5 130.388,-485 140.388,-488.5 140.388,-481.5"/>
</g>
<!-- Node23 -->
<g id="node23" class="node"><title>Node23</title>
<g id="a_node23"><a xlink:href="classhandler_1_1AbstractList.html" target="_top" xlink:title="Handles a list of elements (base class) ">
<polygon fill="none" stroke="black" points="620,-313.5 620,-332.5 727,-332.5 727,-313.5 620,-313.5"/>
<text text-anchor="middle" x="673.5" y="-320.5" font-family="Helvetica,sans-Serif" font-size="10.00">handler::AbstractList</text>
</a>
</g>
</g>
<!-- Node22&#45;&gt;Node23 -->
<g id="edge22" class="edge"><title>Node22&#45;&gt;Node23</title>
<path fill="none" stroke="midnightblue" d="M559.346,-288.145C567.584,-290.357 576.055,-292.696 584,-295 603.966,-300.789 626.282,-307.854 643.51,-313.438"/>
<polygon fill="midnightblue" stroke="midnightblue" points="560.028,-284.704 549.464,-285.519 558.23,-291.47 560.028,-284.704"/>
</g>
<!-- Node25 -->
<g id="node25" class="node"><title>Node25</title>
<g id="a_node25"><a xlink:href="classhandler_1_1Bridge.html" target="_top" xlink:title="Acts as bridge across connections. ">
<polygon fill="none" stroke="black" points="632.5,-266.5 632.5,-285.5 714.5,-285.5 714.5,-266.5 632.5,-266.5"/>
<text text-anchor="middle" x="673.5" y="-273.5" font-family="Helvetica,sans-Serif" font-size="10.00">handler::Bridge</text>
</a>
</g>
</g>
<!-- Node22&#45;&gt;Node25 -->
<g id="edge24" class="edge"><title>Node22&#45;&gt;Node25</title>
<path fill="none" stroke="midnightblue" d="M576.4,-276C595.331,-276 615.488,-276 632.426,-276"/>
<polygon fill="midnightblue" stroke="midnightblue" points="576.338,-272.5 566.338,-276 576.338,-279.5 576.338,-272.5"/>
</g>
<!-- Node24 -->
<g id="node24" class="node"><title>Node24</title>
<g id="a_node24"><a xlink:href="classhandler_1_1AdminGroup.html" target="_top" xlink:title="Manages a user group. ">
<polygon fill="none" stroke="black" points="782,-318.5 782,-337.5 890,-337.5 890,-318.5 782,-318.5"/>
<text text-anchor="middle" x="836" y="-325.5" font-family="Helvetica,sans-Serif" font-size="10.00">handler::AdminGroup</text>
</a>
</g>
</g>
<!-- Node23&#45;&gt;Node24 -->
<g id="edge23" class="edge"><title>Node23&#45;&gt;Node24</title>
<path fill="none" stroke="midnightblue" d="M737.114,-324.951C751.876,-325.41 767.476,-325.896 781.779,-326.342"/>
<polygon fill="midnightblue" stroke="midnightblue" points="737.158,-321.45 727.054,-324.637 736.94,-328.447 737.158,-321.45"/>
</g>
<!-- Node27 -->
<g id="node27" class="node"><title>Node27</title>
<g id="a_node27"><a xlink:href="classhandler_1_1SimpleJson.html" target="_top" xlink:title="Simple base class for handlers using AJAX web APIs. ">
<polygon fill="none" stroke="black" points="621,-209.5 621,-228.5 726,-228.5 726,-209.5 621,-209.5"/>
<text text-anchor="middle" x="673.5" y="-216.5" font-family="Helvetica,sans-Serif" font-size="10.00">handler::SimpleJson</text>
</a>
</g>
</g>
<!-- Node26&#45;&gt;Node27 -->
<g id="edge26" class="edge"><title>Node26&#45;&gt;Node27</title>
<path fill="none" stroke="midnightblue" d="M580.963,-229.836C594.326,-228.254 608.115,-226.622 620.807,-225.119"/>
<polygon fill="midnightblue" stroke="midnightblue" points="580.372,-226.382 570.853,-231.033 581.195,-233.333 580.372,-226.382"/>
</g>
<!-- Node28 -->
<g id="node28" class="node"><title>Node28</title>
<g id="a_node28"><a xlink:href="classfun_1_1ChuckNorris.html" target="_top" xlink:title="Searches for a Chuck Norris joke. ">
<polygon fill="none" stroke="black" points="790.5,-280.5 790.5,-299.5 881.5,-299.5 881.5,-280.5 790.5,-280.5"/>
<text text-anchor="middle" x="836" y="-287.5" font-family="Helvetica,sans-Serif" font-size="10.00">fun::ChuckNorris</text>
</a>
</g>
</g>
<!-- Node27&#45;&gt;Node28 -->
<g id="edge27" class="edge"><title>Node27&#45;&gt;Node28</title>
<path fill="none" stroke="midnightblue" d="M696.311,-234.102C713.707,-245.572 739.045,-261.023 763,-271 771.831,-274.678 781.573,-277.817 790.961,-280.422"/>
<polygon fill="midnightblue" stroke="midnightblue" points="698.241,-231.182 687.987,-228.517 694.341,-236.995 698.241,-231.182"/>
</g>
<!-- Node29 -->
<g id="node29" class="node"><title>Node29</title>
<g id="a_node29"><a xlink:href="classhandler_1_1SearchImageGoogle.html" target="_top" xlink:title="Handler searching images with Google. ">
<polygon fill="none" stroke="black" points="764.5,-242.5 764.5,-261.5 907.5,-261.5 907.5,-242.5 764.5,-242.5"/>
<text text-anchor="middle" x="836" y="-249.5" font-family="Helvetica,sans-Serif" font-size="10.00">handler::SearchImageGoogle</text>
</a>
</g>
</g>
<!-- Node27&#45;&gt;Node29 -->
<g id="edge28" class="edge"><title>Node27&#45;&gt;Node29</title>
<path fill="none" stroke="midnightblue" d="M730.898,-230.596C749.799,-234.482 770.642,-238.768 788.681,-242.476"/>
<polygon fill="midnightblue" stroke="midnightblue" points="731.423,-227.131 720.923,-228.545 730.013,-233.987 731.423,-227.131"/>
</g>
<!-- Node30 -->
<g id="node30" class="node"><title>Node30</title>
<g id="a_node30"><a xlink:href="classhandler_1_1SearchVideoYoutube.html" target="_top" xlink:title="Handler searching a video on Youtube. ">
<polygon fill="none" stroke="black" points="763,-204.5 763,-223.5 909,-223.5 909,-204.5 763,-204.5"/>
<text text-anchor="middle" x="836" y="-211.5" font-family="Helvetica,sans-Serif" font-size="10.00">handler::SearchVideoYoutube</text>
</a>
</g>
</g>
<!-- Node27&#45;&gt;Node30 -->
<g id="edge29" class="edge"><title>Node27&#45;&gt;Node30</title>
<path fill="none" stroke="midnightblue" d="M736.259,-217.076C745.001,-216.804 754.052,-216.522 762.966,-216.244"/>
<polygon fill="midnightblue" stroke="midnightblue" points="736.053,-213.581 726.167,-217.39 736.271,-220.577 736.053,-213.581"/>
</g>
<!-- Node31 -->
<g id="node31" class="node"><title>Node31</title>
<g id="a_node31"><a xlink:href="classhandler_1_1SearchWebSearx.html" target="_top" xlink:title="Handler searching a web page using Searx. ">
<polygon fill="none" stroke="black" points="770.5,-166.5 770.5,-185.5 901.5,-185.5 901.5,-166.5 770.5,-166.5"/>
<text text-anchor="middle" x="836" y="-173.5" font-family="Helvetica,sans-Serif" font-size="10.00">handler::SearchWebSearx</text>
</a>
</g>
</g>
<!-- Node27&#45;&gt;Node31 -->
<g id="edge30" class="edge"><title>Node27&#45;&gt;Node31</title>
<path fill="none" stroke="midnightblue" d="M719.261,-206.798C733.262,-202.998 748.769,-198.807 763,-195 774.614,-191.893 787.292,-188.536 798.728,-185.52"/>
<polygon fill="midnightblue" stroke="midnightblue" points="718.105,-203.485 709.373,-209.484 719.941,-210.24 718.105,-203.485"/>
</g>
<!-- Node32 -->
<g id="node32" class="node"><title>Node32</title>
<g id="a_node32"><a xlink:href="classhandler_1_1UrbanDictionary.html" target="_top" xlink:title="Handler searching a definition on Urban Dictionary. ">
<polygon fill="none" stroke="black" points="773.5,-128.5 773.5,-147.5 898.5,-147.5 898.5,-128.5 773.5,-128.5"/>
<text text-anchor="middle" x="836" y="-135.5" font-family="Helvetica,sans-Serif" font-size="10.00">handler::UrbanDictionary</text>
</a>
</g>
</g>
<!-- Node27&#45;&gt;Node32 -->
<g id="edge31" class="edge"><title>Node27&#45;&gt;Node32</title>
<path fill="none" stroke="midnightblue" d="M693.499,-202.679C710.636,-188.722 737.062,-169.039 763,-157 771.091,-153.245 780.051,-150.133 788.824,-147.592"/>
<polygon fill="midnightblue" stroke="midnightblue" points="690.887,-200.299 685.436,-209.384 695.363,-205.681 690.887,-200.299"/>
</g>
</g>
</svg>
