<?xml version="1.0" encoding="UTF-8" standalone="no"?>
<!DOCTYPE svg PUBLIC "-//W3C//DTD SVG 1.1//EN"
 "http://www.w3.org/Graphics/SVG/1.1/DTD/svg11.dtd">
<!-- Generated by graphviz version 2.38.0 (20140413.2041)
 -->
<!-- Title: handler::SimpleJson Pages: 1 -->
<svg width="338pt" height="366pt"
 viewBox="0.00 0.00 337.50 366.00" xmlns="http://www.w3.org/2000/svg" xmlns:xlink="http://www.w3.org/1999/xlink">
<g id="graph0" class="graph" transform="scale(1 1) rotate(0) translate(4 362)">
<title>handler::SimpleJson</title>
<!-- Node1 -->
<g id="node1" class="node"><title>Node1</title>
<polygon fill="#bfbfbf" stroke="black" points="106.5,-0.5 106.5,-19.5 211.5,-19.5 211.5,-0.5 106.5,-0.5"/>
<text text-anchor="middle" x="159" y="-7.5" font-family="Helvetica,sans-Serif" font-size="10.00">handler::SimpleJson</text>
</g>
<!-- Node2 -->
<g id="node2" class="node"><title>Node2</title>
<g id="a_node2"><a xlink:href="classhandler_1_1SimpleWebApi.html" target="_top" xlink:title="Simple base class for handlers calling web resources. ">
<polygon fill="none" stroke="black" points="99.5,-57.5 99.5,-76.5 218.5,-76.5 218.5,-57.5 99.5,-57.5"/>
<text text-anchor="middle" x="159" y="-64.5" font-family="Helvetica,sans-Serif" font-size="10.00">handler::SimpleWebApi</text>
</a>
</g>
</g>
<!-- Node2&#45;&gt;Node1 -->
<g id="edge1" class="edge"><title>Node2&#45;&gt;Node1</title>
<path fill="none" stroke="midnightblue" d="M159,-47.1166C159,-37.8173 159,-27.0557 159,-19.7149"/>
<polygon fill="midnightblue" stroke="midnightblue" points="155.5,-47.4062 159,-57.4062 162.5,-47.4063 155.5,-47.4062"/>
</g>
<!-- Node3 -->
<g id="node3" class="node"><title>Node3</title>
<g id="a_node3"><a xlink:href="classhandler_1_1SimpleAction.html" target="_top" xlink:title="A simple action sends a message to the same connection it came from. ">
<polygon fill="none" stroke="black" points="103,-114.5 103,-133.5 215,-133.5 215,-114.5 103,-114.5"/>
<text text-anchor="middle" x="159" y="-121.5" font-family="Helvetica,sans-Serif" font-size="10.00">handler::SimpleAction</text>
</a>
</g>
</g>
<!-- Node3&#45;&gt;Node2 -->
<g id="edge2" class="edge"><title>Node3&#45;&gt;Node2</title>
<path fill="none" stroke="midnightblue" d="M159,-104.117C159,-94.8173 159,-84.0557 159,-76.7149"/>
<polygon fill="midnightblue" stroke="midnightblue" points="155.5,-104.406 159,-114.406 162.5,-104.406 155.5,-104.406"/>
</g>
<!-- Node4 -->
<g id="node4" class="node"><title>Node4</title>
<g id="a_node4"><a xlink:href="classhandler_1_1Handler.html" target="_top" xlink:title="Message handler abstract base class. ">
<polygon fill="none" stroke="black" points="-7.10543e-15,-181.5 -7.10543e-15,-200.5 88,-200.5 88,-181.5 -7.10543e-15,-181.5"/>
<text text-anchor="middle" x="44" y="-188.5" font-family="Helvetica,sans-Serif" font-size="10.00">handler::Handler</text>
</a>
</g>
</g>
<!-- Node4&#45;&gt;Node3 -->
<g id="edge3" class="edge"><title>Node4&#45;&gt;Node3</title>
<path fill="none" stroke="midnightblue" d="M68.2611,-176.287C91.0533,-163.405 124.457,-144.524 143.736,-133.627"/>
<polygon fill="midnightblue" stroke="midnightblue" points="66.4928,-173.266 59.5094,-181.234 69.9373,-179.36 66.4928,-173.266"/>
</g>
<!-- Node5 -->
<g id="node5" class="node"><title>Node5</title>
<g id="a_node5"><a xlink:href="classnetwork_1_1Connection.html" target="_top" xlink:title="Abstract service connection. ">
<polygon fill="none" stroke="black" points="105.5,-181.5 105.5,-200.5 212.5,-200.5 212.5,-181.5 105.5,-181.5"/>
<text text-anchor="middle" x="159" y="-188.5" font-family="Helvetica,sans-Serif" font-size="10.00">network::Connection</text>
</a>
</g>
</g>
<!-- Node5&#45;&gt;Node3 -->
<g id="edge4" class="edge"><title>Node5&#45;&gt;Node3</title>
<path fill="none" stroke="#9a32cd" stroke-dasharray="5,2" d="M159,-171.037C159,-158.67 159,-143.12 159,-133.627"/>
<polygon fill="#9a32cd" stroke="#9a32cd" points="155.5,-171.234 159,-181.234 162.5,-171.234 155.5,-171.234"/>
<text text-anchor="middle" x="175.5" y="-155" font-family="Helvetica,sans-Serif" font-size="10.00"> source</text>
</g>
<!-- Node6 -->
<g id="node6" class="node"><title>Node6</title>
<g id="a_node6"><a xlink:href="classMelanobot.html" target="_top" xlink:title="Main bot class. ">
<polygon fill="none" stroke="black" points="230,-181.5 230,-200.5 292,-200.5 292,-181.5 230,-181.5"/>
<text text-anchor="middle" x="261" y="-188.5" font-family="Helvetica,sans-Serif" font-size="10.00">Melanobot</text>
</a>
</g>
</g>
<!-- Node6&#45;&gt;Node3 -->
<g id="edge5" class="edge"><title>Node6&#45;&gt;Node3</title>
<path fill="none" stroke="#9a32cd" stroke-dasharray="5,2" d="M238.668,-175.769C218.478,-162.903 189.41,-144.379 172.538,-133.627"/>
<polygon fill="#9a32cd" stroke="#9a32cd" points="236.93,-178.811 247.244,-181.234 240.692,-172.908 236.93,-178.811"/>
<text text-anchor="middle" x="224.5" y="-155" font-family="Helvetica,sans-Serif" font-size="10.00"> bot</text>
</g>
<!-- Node7 -->
<g id="node7" class="node"><title>Node7</title>
<g id="a_node7"><a xlink:href="classConcurrentQueue.html" target="_top" xlink:title="ConcurrentQueue\&lt; network\l::Message \&gt;">
<polygon fill="none" stroke="black" points="192.5,-248.5 192.5,-278.5 329.5,-278.5 329.5,-248.5 192.5,-248.5"/>
<text text-anchor="start" x="200.5" y="-266.5" font-family="Helvetica,sans-Serif" font-size="10.00">ConcurrentQueue&lt; network</text>
<text text-anchor="middle" x="261" y="-255.5" font-family="Helvetica,sans-Serif" font-size="10.00">::Message &gt;</text>
</a>
</g>
</g>
<!-- Node7&#45;&gt;Node6 -->
<g id="edge6" class="edge"><title>Node7&#45;&gt;Node6</title>
<path fill="none" stroke="#9a32cd" stroke-dasharray="5,2" d="M261,-238.091C261,-225.214 261,-210.197 261,-200.893"/>
<polygon fill="#9a32cd" stroke="#9a32cd" points="257.5,-238.233 261,-248.233 264.5,-238.233 257.5,-238.233"/>
<text text-anchor="middle" x="285.5" y="-222" font-family="Helvetica,sans-Serif" font-size="10.00"> messages</text>
</g>
<!-- Node8 -->
<g id="node8" class="node"><title>Node8</title>
<g id="a_node8"><a xlink:href="classConcurrentContainer.html" target="_top" xlink:title="ConcurrentContainer\l\&lt; std::queue\&lt; network\l::Message, Container \&gt; \&gt;">
<polygon fill="none" stroke="black" points="197,-316.5 197,-357.5 325,-357.5 325,-316.5 197,-316.5"/>
<text text-anchor="start" x="205" y="-345.5" font-family="Helvetica,sans-Serif" font-size="10.00">ConcurrentContainer</text>
<text text-anchor="start" x="205" y="-334.5" font-family="Helvetica,sans-Serif" font-size="10.00">&lt; std::queue&lt; network</text>
<text text-anchor="middle" x="261" y="-323.5" font-family="Helvetica,sans-Serif" font-size="10.00">::Message, Container &gt; &gt;</text>
</a>
</g>
</g>
<!-- Node8&#45;&gt;Node7 -->
<g id="edge7" class="edge"><title>Node8&#45;&gt;Node7</title>
<path fill="none" stroke="midnightblue" d="M261,-306.158C261,-296.687 261,-286.647 261,-278.797"/>
<polygon fill="midnightblue" stroke="midnightblue" points="257.5,-306.462 261,-316.462 264.5,-306.462 257.5,-306.462"/>
</g>
</g>
</svg>
