<?xml version="1.0" encoding="UTF-8" standalone="no"?>
<!DOCTYPE svg PUBLIC "-//W3C//DTD SVG 1.1//EN"
 "http://www.w3.org/Graphics/SVG/1.1/DTD/svg11.dtd">
<!-- Generated by graphviz version 2.38.0 (20140413.2041)
 -->
<!-- Title: handler::HandlerContainer Pages: 1 -->
<svg width="622pt" height="1092pt"
 viewBox="0.00 0.00 622.00 1092.00" xmlns="http://www.w3.org/2000/svg" xmlns:xlink="http://www.w3.org/1999/xlink">
<g id="graph0" class="graph" transform="scale(1 1) rotate(0) translate(4 1088)">
<title>handler::HandlerContainer</title>
<!-- Node1 -->
<g id="node1" class="node"><title>Node1</title>
<polygon fill="#bfbfbf" stroke="black" points="0,-418.5 0,-437.5 130,-437.5 130,-418.5 0,-418.5"/>
<text text-anchor="middle" x="65" y="-425.5" font-family="Helvetica,sans-Serif" font-size="10.00">handler::HandlerContainer</text>
</g>
<!-- Node2 -->
<g id="node2" class="node"><title>Node2</title>
<g id="a_node2"><a xlink:href="classhandler_1_1Handler.html" target="_top" xlink:title="Message handler abstract base class. ">
<polygon fill="none" stroke="black" points="166,-437.5 166,-456.5 254,-456.5 254,-437.5 166,-437.5"/>
<text text-anchor="middle" x="210" y="-444.5" font-family="Helvetica,sans-Serif" font-size="10.00">handler::Handler</text>
</a>
</g>
</g>
<!-- Node1&#45;&gt;Node2 -->
<g id="edge1" class="edge"><title>Node1&#45;&gt;Node2</title>
<path fill="none" stroke="midnightblue" d="M140.555,-437.906C149.218,-439.057 157.821,-440.2 165.854,-441.267"/>
<polygon fill="midnightblue" stroke="midnightblue" points="140.762,-434.403 130.388,-436.555 139.84,-441.342 140.762,-434.403"/>
</g>
<!-- Node49 -->
<g id="node49" class="node"><title>Node49</title>
<g id="a_node49"><a xlink:href="classMelanobot.html" target="_top" xlink:title="Main bot class. ">
<polygon fill="none" stroke="black" points="179,-399.5 179,-418.5 241,-418.5 241,-399.5 179,-399.5"/>
<text text-anchor="middle" x="210" y="-406.5" font-family="Helvetica,sans-Serif" font-size="10.00">Melanobot</text>
</a>
</g>
</g>
<!-- Node1&#45;&gt;Node49 -->
<g id="edge48" class="edge"><title>Node1&#45;&gt;Node49</title>
<path fill="none" stroke="midnightblue" d="M140.325,-418.125C153.977,-416.311 167.491,-414.515 178.873,-413.003"/>
<polygon fill="midnightblue" stroke="midnightblue" points="139.84,-414.658 130.388,-419.445 140.762,-421.597 139.84,-414.658"/>
</g>
<!-- Node3 -->
<g id="node3" class="node"><title>Node3</title>
<g id="a_node3"><a xlink:href="classfun_1_1AnswerQuestions.html" target="_top" xlink:title="Answers direct questions. ">
<polygon fill="none" stroke="black" points="304.5,-1026.5 304.5,-1045.5 417.5,-1045.5 417.5,-1026.5 304.5,-1026.5"/>
<text text-anchor="middle" x="361" y="-1033.5" font-family="Helvetica,sans-Serif" font-size="10.00">fun::AnswerQuestions</text>
</a>
</g>
</g>
<!-- Node2&#45;&gt;Node3 -->
<g id="edge2" class="edge"><title>Node2&#45;&gt;Node3</title>
<path fill="none" stroke="midnightblue" d="M210.928,-466.757C211.005,-557.416 215.858,-932.762 290,-1017 293.993,-1021.54 298.95,-1025.04 304.369,-1027.74"/>
<polygon fill="midnightblue" stroke="midnightblue" points="214.429,-466.529 210.94,-456.525 207.429,-466.521 214.429,-466.529"/>
</g>
<!-- Node4 -->
<g id="node4" class="node"><title>Node4</title>
<g id="a_node4"><a xlink:href="classhandler_1_1BridgeChat.html" target="_top" xlink:title="Simply echoes chat messages (to be used in a Bridge group) ">
<polygon fill="none" stroke="black" points="309.5,-988.5 309.5,-1007.5 412.5,-1007.5 412.5,-988.5 309.5,-988.5"/>
<text text-anchor="middle" x="361" y="-995.5" font-family="Helvetica,sans-Serif" font-size="10.00">handler::BridgeChat</text>
</a>
</g>
</g>
<!-- Node2&#45;&gt;Node4 -->
<g id="edge3" class="edge"><title>Node2&#45;&gt;Node4</title>
<path fill="none" stroke="midnightblue" d="M211.145,-466.814C212.187,-553.804 220.691,-901.019 290,-979 295.187,-984.836 301.967,-988.959 309.264,-991.857"/>
<polygon fill="midnightblue" stroke="midnightblue" points="214.644,-466.683 211.045,-456.718 207.645,-466.752 214.644,-466.683"/>
</g>
<!-- Node6 -->
<g id="node6" class="node"><title>Node6</title>
<g id="a_node6"><a xlink:href="classhandler_1_1Chanhax.html" target="_top" xlink:title="Changes the channel of a message. ">
<polygon fill="none" stroke="black" points="314.5,-950.5 314.5,-969.5 407.5,-969.5 407.5,-950.5 314.5,-950.5"/>
<text text-anchor="middle" x="361" y="-957.5" font-family="Helvetica,sans-Serif" font-size="10.00">handler::Chanhax</text>
</a>
</g>
</g>
<!-- Node2&#45;&gt;Node6 -->
<g id="edge5" class="edge"><title>Node2&#45;&gt;Node6</title>
<path fill="none" stroke="midnightblue" d="M211.398,-466.97C213.466,-550.3 225.537,-869.281 290,-941 296.398,-948.118 305.166,-952.684 314.334,-955.586"/>
<polygon fill="midnightblue" stroke="midnightblue" points="214.894,-466.744 211.169,-456.826 207.896,-466.902 214.894,-466.744"/>
</g>
<!-- Node7 -->
<g id="node7" class="node"><title>Node7</title>
<g id="a_node7"><a xlink:href="classhandler_1_1EventMessageBase.html" target="_top" xlink:title="Base class for JoinMessage and similar. ">
<polygon fill="none" stroke="black" points="290,-912.5 290,-931.5 432,-931.5 432,-912.5 290,-912.5"/>
<text text-anchor="middle" x="361" y="-919.5" font-family="Helvetica,sans-Serif" font-size="10.00">handler::EventMessageBase</text>
</a>
</g>
</g>
<!-- Node2&#45;&gt;Node7 -->
<g id="edge6" class="edge"><title>Node2&#45;&gt;Node7</title>
<path fill="none" stroke="midnightblue" d="M217.223,-466.837C242.681,-547.997 338.433,-853.246 356.905,-912.134"/>
<polygon fill="midnightblue" stroke="midnightblue" points="220.445,-465.415 214.112,-456.921 213.766,-467.51 220.445,-465.415"/>
</g>
<!-- Node12 -->
<g id="node12" class="node"><title>Node12</title>
<g id="a_node12"><a xlink:href="classhandler_1_1FilterGroup.html" target="_top" xlink:title="Discards messages coming from certain users. ">
<polygon fill="none" stroke="black" points="310,-589.5 310,-608.5 412,-608.5 412,-589.5 310,-589.5"/>
<text text-anchor="middle" x="361" y="-596.5" font-family="Helvetica,sans-Serif" font-size="10.00">handler::FilterGroup</text>
</a>
</g>
</g>
<!-- Node2&#45;&gt;Node12 -->
<g id="edge11" class="edge"><title>Node2&#45;&gt;Node12</title>
<path fill="none" stroke="midnightblue" d="M217.27,-466.607C227.631,-495.812 251.134,-550.458 290,-580 295.915,-584.496 302.821,-587.929 309.949,-590.549"/>
<polygon fill="midnightblue" stroke="midnightblue" points="220.46,-465.115 213.938,-456.766 213.83,-467.36 220.46,-465.115"/>
</g>
<!-- Node13 -->
<g id="node13" class="node"><title>Node13</title>
<g id="a_node13"><a xlink:href="classhandler_1_1Reply.html" target="_top" xlink:title="Fixed reply. ">
<polygon fill="none" stroke="black" points="321,-551.5 321,-570.5 401,-570.5 401,-551.5 321,-551.5"/>
<text text-anchor="middle" x="361" y="-558.5" font-family="Helvetica,sans-Serif" font-size="10.00">handler::Reply</text>
</a>
</g>
</g>
<!-- Node2&#45;&gt;Node13 -->
<g id="edge12" class="edge"><title>Node2&#45;&gt;Node13</title>
<path fill="none" stroke="midnightblue" d="M221.579,-465.63C234.812,-487.238 259.482,-522.393 290,-542 299.217,-547.922 310.254,-552.013 320.809,-554.834"/>
<polygon fill="midnightblue" stroke="midnightblue" points="224.433,-463.58 216.324,-456.76 218.41,-467.147 224.433,-463.58"/>
</g>
<!-- Node15 -->
<g id="node15" class="node"><title>Node15</title>
<g id="a_node15"><a xlink:href="classhandler_1_1SimpleAction.html" target="_top" xlink:title="A simple action sends a message to the same connection it came from. ">
<polygon fill="none" stroke="red" points="305,-513.5 305,-532.5 417,-532.5 417,-513.5 305,-513.5"/>
<text text-anchor="middle" x="361" y="-520.5" font-family="Helvetica,sans-Serif" font-size="10.00">handler::SimpleAction</text>
</a>
</g>
</g>
<!-- Node2&#45;&gt;Node15 -->
<g id="edge14" class="edge"><title>Node2&#45;&gt;Node15</title>
<path fill="none" stroke="midnightblue" d="M229.361,-463.21C244.64,-475.938 267.46,-493.25 290,-504 297.956,-507.795 306.795,-510.935 315.439,-513.494"/>
<polygon fill="midnightblue" stroke="midnightblue" points="231.58,-460.503 221.699,-456.682 227.041,-465.831 231.58,-460.503"/>
</g>
<!-- Node39 -->
<g id="node39" class="node"><title>Node39</title>
<g id="a_node39"><a xlink:href="classirc_1_1handler_1_1AcceptInvite.html" target="_top" xlink:title="Makes the bot join channels (IRC) ">
<polygon fill="none" stroke="black" points="298.5,-475.5 298.5,-494.5 423.5,-494.5 423.5,-475.5 298.5,-475.5"/>
<text text-anchor="middle" x="361" y="-482.5" font-family="Helvetica,sans-Serif" font-size="10.00">irc::handler::AcceptInvite</text>
</a>
</g>
</g>
<!-- Node2&#45;&gt;Node39 -->
<g id="edge38" class="edge"><title>Node2&#45;&gt;Node39</title>
<path fill="none" stroke="midnightblue" d="M258.492,-459.112C279.244,-464.404 303.228,-470.521 322.671,-475.48"/>
<polygon fill="midnightblue" stroke="midnightblue" points="259.154,-455.669 248.599,-456.589 257.424,-462.452 259.154,-455.669"/>
</g>
<!-- Node40 -->
<g id="node40" class="node"><title>Node40</title>
<g id="a_node40"><a xlink:href="classirc_1_1handler_1_1CtcpBase.html" target="_top" xlink:title="Base class for handling CTCP requests. ">
<polygon fill="none" stroke="red" points="304,-437.5 304,-456.5 418,-456.5 418,-437.5 304,-437.5"/>
<text text-anchor="middle" x="361" y="-444.5" font-family="Helvetica,sans-Serif" font-size="10.00">irc::handler::CtcpBase</text>
</a>
</g>
</g>
<!-- Node2&#45;&gt;Node40 -->
<g id="edge39" class="edge"><title>Node2&#45;&gt;Node40</title>
<path fill="none" stroke="midnightblue" d="M264.207,-447C277.102,-447 290.927,-447 303.95,-447"/>
<polygon fill="midnightblue" stroke="midnightblue" points="264.097,-443.5 254.097,-447 264.097,-450.5 264.097,-443.5"/>
</g>
<!-- Node41 -->
<g id="node41" class="node"><title>Node41</title>
<g id="a_node41"><a xlink:href="classirc_1_1handler_1_1IrcKickRejoin.html" target="_top" xlink:title="Joins again once kicked. ">
<polygon fill="none" stroke="black" points="296.5,-399.5 296.5,-418.5 425.5,-418.5 425.5,-399.5 296.5,-399.5"/>
<text text-anchor="middle" x="361" y="-406.5" font-family="Helvetica,sans-Serif" font-size="10.00">irc::handler::IrcKickRejoin</text>
</a>
</g>
</g>
<!-- Node2&#45;&gt;Node41 -->
<g id="edge40" class="edge"><title>Node2&#45;&gt;Node41</title>
<path fill="none" stroke="midnightblue" d="M258.492,-434.888C279.244,-429.596 303.228,-423.479 322.671,-418.52"/>
<polygon fill="midnightblue" stroke="midnightblue" points="257.424,-431.548 248.599,-437.411 259.154,-438.331 257.424,-431.548"/>
</g>
<!-- Node42 -->
<g id="node42" class="node"><title>Node42</title>
<g id="a_node42"><a xlink:href="classirc_1_1handler_1_1QGetWhois.html" target="_top" xlink:title="Parses responses from Q WHOIS and USER (IRC) ">
<polygon fill="none" stroke="black" points="300,-361.5 300,-380.5 422,-380.5 422,-361.5 300,-361.5"/>
<text text-anchor="middle" x="361" y="-368.5" font-family="Helvetica,sans-Serif" font-size="10.00">irc::handler::QGetWhois</text>
</a>
</g>
</g>
<!-- Node2&#45;&gt;Node42 -->
<g id="edge41" class="edge"><title>Node2&#45;&gt;Node42</title>
<path fill="none" stroke="midnightblue" d="M246.451,-432.727C249.076,-431.253 251.624,-429.676 254,-428 273.012,-414.592 270.031,-401.936 290,-390 296.485,-386.124 303.776,-383.021 311.138,-380.541"/>
<polygon fill="midnightblue" stroke="midnightblue" points="244.701,-429.69 237.363,-437.332 247.865,-435.934 244.701,-429.69"/>
</g>
<!-- Node43 -->
<g id="node43" class="node"><title>Node43</title>
<g id="a_node43"><a xlink:href="classirc_1_1handler_1_1QSendWhois.html" target="_top" xlink:title="Asks Q for WHOIS or USERS information when a user joins a channel (IRC) ">
<polygon fill="none" stroke="black" points="297,-323.5 297,-342.5 425,-342.5 425,-323.5 297,-323.5"/>
<text text-anchor="middle" x="361" y="-330.5" font-family="Helvetica,sans-Serif" font-size="10.00">irc::handler::QSendWhois</text>
</a>
</g>
</g>
<!-- Node2&#45;&gt;Node43 -->
<g id="edge42" class="edge"><title>Node2&#45;&gt;Node43</title>
<path fill="none" stroke="midnightblue" d="M249.33,-431.949C250.984,-430.724 252.553,-429.409 254,-428 280.774,-401.921 261.335,-375.985 290,-352 294.636,-348.121 299.994,-345.029 305.641,-342.565"/>
<polygon fill="midnightblue" stroke="midnightblue" points="247.218,-429.138 240.523,-437.348 250.877,-435.105 247.218,-429.138"/>
</g>
<!-- Node44 -->
<g id="node44" class="node"><title>Node44</title>
<g id="a_node44"><a xlink:href="classirc_1_1handler_1_1Whois330.html" target="_top" xlink:title="Sets the global id based on a 330 reply from whois (IRC) ">
<polygon fill="none" stroke="black" points="304,-285.5 304,-304.5 418,-304.5 418,-285.5 304,-285.5"/>
<text text-anchor="middle" x="361" y="-292.5" font-family="Helvetica,sans-Serif" font-size="10.00">irc::handler::Whois330</text>
</a>
</g>
</g>
<!-- Node2&#45;&gt;Node44 -->
<g id="edge43" class="edge"><title>Node2&#45;&gt;Node44</title>
<path fill="none" stroke="midnightblue" d="M250.23,-431.64C251.574,-430.508 252.84,-429.296 254,-428 289.445,-388.418 251.67,-350.796 290,-314 293.997,-310.163 298.688,-307.084 303.716,-304.615"/>
<polygon fill="midnightblue" stroke="midnightblue" points="248.174,-428.805 241.84,-437.298 252.087,-434.609 248.174,-428.805"/>
</g>
<!-- Node45 -->
<g id="node45" class="node"><title>Node45</title>
<g id="a_node45"><a xlink:href="classxonotic_1_1ConnectionEvents.html" target="_top" xlink:title="Show server connect/disconnect messages. ">
<polygon fill="none" stroke="black" points="294,-247.5 294,-266.5 428,-266.5 428,-247.5 294,-247.5"/>
<text text-anchor="middle" x="361" y="-254.5" font-family="Helvetica,sans-Serif" font-size="10.00">xonotic::ConnectionEvents</text>
</a>
</g>
</g>
<!-- Node2&#45;&gt;Node45 -->
<g id="edge44" class="edge"><title>Node2&#45;&gt;Node45</title>
<path fill="none" stroke="midnightblue" d="M250.821,-431.323C251.956,-430.283 253.022,-429.177 254,-428 298.386,-374.618 241.713,-325.881 290,-276 293.679,-272.2 298.034,-269.135 302.746,-266.667"/>
<polygon fill="midnightblue" stroke="midnightblue" points="248.613,-428.599 242.515,-437.263 252.685,-434.292 248.613,-428.599"/>
</g>
<!-- Node46 -->
<g id="node46" class="node"><title>Node46</title>
<g id="a_node46"><a xlink:href="classxonotic_1_1ParseEventlog.html" target="_top" xlink:title="Base class for handlers parsing the Xonotic eventlog. ">
<polygon fill="none" stroke="red" points="302,-209.5 302,-228.5 420,-228.5 420,-209.5 302,-209.5"/>
<text text-anchor="middle" x="361" y="-216.5" font-family="Helvetica,sans-Serif" font-size="10.00">xonotic::ParseEventlog</text>
</a>
</g>
</g>
<!-- Node2&#45;&gt;Node46 -->
<g id="edge45" class="edge"><title>Node2&#45;&gt;Node46</title>
<path fill="none" stroke="midnightblue" d="M250.89,-431.379C252.006,-430.323 253.049,-429.199 254,-428 307.439,-360.686 231.636,-301.091 290,-238 293.506,-234.21 297.685,-231.147 302.23,-228.675"/>
<polygon fill="midnightblue" stroke="midnightblue" points="248.677,-428.661 242.667,-437.386 252.806,-434.314 248.677,-428.661"/>
</g>
<!-- Node47 -->
<g id="node47" class="node"><title>Node47</title>
<g id="a_node47"><a xlink:href="classxonotic_1_1XonoticJoinPart.html" target="_top" xlink:title="Shows player join/part messages. ">
<polygon fill="none" stroke="black" points="299.5,-171.5 299.5,-190.5 422.5,-190.5 422.5,-171.5 299.5,-171.5"/>
<text text-anchor="middle" x="361" y="-178.5" font-family="Helvetica,sans-Serif" font-size="10.00">xonotic::XonoticJoinPart</text>
</a>
</g>
</g>
<!-- Node2&#45;&gt;Node47 -->
<g id="edge46" class="edge"><title>Node2&#45;&gt;Node47</title>
<path fill="none" stroke="midnightblue" d="M250.938,-431.416C252.04,-430.35 253.067,-429.213 254,-428 316.547,-346.684 221.497,-276.366 290,-200 293.448,-196.157 297.586,-193.057 302.106,-190.562"/>
<polygon fill="midnightblue" stroke="midnightblue" points="248.722,-428.702 242.771,-437.468 252.889,-434.326 248.722,-428.702"/>
</g>
<!-- Node48 -->
<g id="node48" class="node"><title>Node48</title>
<g id="a_node48"><a xlink:href="classxonotic_1_1XonoticMatchStart.html" target="_top" xlink:title="Shows match start messages. ">
<polygon fill="none" stroke="black" points="293.5,-133.5 293.5,-152.5 428.5,-152.5 428.5,-133.5 293.5,-133.5"/>
<text text-anchor="middle" x="361" y="-140.5" font-family="Helvetica,sans-Serif" font-size="10.00">xonotic::XonoticMatchStart</text>
</a>
</g>
</g>
<!-- Node2&#45;&gt;Node48 -->
<g id="edge47" class="edge"><title>Node2&#45;&gt;Node48</title>
<path fill="none" stroke="midnightblue" d="M251.395,-431.02C252.327,-430.07 253.2,-429.064 254,-428 325.687,-332.641 211.323,-251.68 290,-162 293.322,-158.214 297.315,-155.147 301.687,-152.667"/>
<polygon fill="midnightblue" stroke="midnightblue" points="249.061,-428.4 243.274,-437.274 253.332,-433.946 249.061,-428.4"/>
</g>
<!-- Node5 -->
<g id="node5" class="node"><title>Node5</title>
<g id="a_node5"><a xlink:href="classfun_1_1RainbowBridgeChat.html" target="_top" xlink:title="Like BridgeChat but more colorful. ">
<polygon fill="none" stroke="black" points="479.5,-1064.5 479.5,-1083.5 602.5,-1083.5 602.5,-1064.5 479.5,-1064.5"/>
<text text-anchor="middle" x="541" y="-1071.5" font-family="Helvetica,sans-Serif" font-size="10.00">fun::RainbowBridgeChat</text>
</a>
</g>
</g>
<!-- Node4&#45;&gt;Node5 -->
<g id="edge4" class="edge"><title>Node4&#45;&gt;Node5</title>
<path fill="none" stroke="midnightblue" d="M420.422,-1011.17C424.449,-1012.88 428.352,-1014.82 432,-1017 451.969,-1028.94 447.989,-1043.13 468,-1055 474.561,-1058.89 481.922,-1062 489.366,-1064.47"/>
<polygon fill="midnightblue" stroke="midnightblue" points="421.453,-1007.81 410.862,-1007.54 418.972,-1014.36 421.453,-1007.81"/>
</g>
<!-- Node8 -->
<g id="node8" class="node"><title>Node8</title>
<g id="a_node8"><a xlink:href="classhandler_1_1JoinMessage.html" target="_top" xlink:title="Prints a message when a user joins a channel (or server) ">
<polygon fill="none" stroke="black" points="485,-1026.5 485,-1045.5 597,-1045.5 597,-1026.5 485,-1026.5"/>
<text text-anchor="middle" x="541" y="-1033.5" font-family="Helvetica,sans-Serif" font-size="10.00">handler::JoinMessage</text>
</a>
</g>
</g>
<!-- Node7&#45;&gt;Node8 -->
<g id="edge7" class="edge"><title>Node7&#45;&gt;Node8</title>
<path fill="none" stroke="midnightblue" d="M425.537,-936.347C427.805,-937.757 429.972,-939.303 432,-941 460.665,-964.985 439.251,-993.116 468,-1017 472.972,-1021.13 478.748,-1024.37 484.825,-1026.92"/>
<polygon fill="midnightblue" stroke="midnightblue" points="426.845,-933.082 416.359,-931.565 423.61,-939.29 426.845,-933.082"/>
</g>
<!-- Node9 -->
<g id="node9" class="node"><title>Node9</title>
<g id="a_node9"><a xlink:href="classhandler_1_1KickMessage.html" target="_top" xlink:title="Prints a message when a user is kicked from a channel. ">
<polygon fill="none" stroke="black" points="484.5,-988.5 484.5,-1007.5 597.5,-1007.5 597.5,-988.5 484.5,-988.5"/>
<text text-anchor="middle" x="541" y="-995.5" font-family="Helvetica,sans-Serif" font-size="10.00">handler::KickMessage</text>
</a>
</g>
</g>
<!-- Node7&#45;&gt;Node9 -->
<g id="edge8" class="edge"><title>Node7&#45;&gt;Node9</title>
<path fill="none" stroke="midnightblue" d="M420.422,-935.166C424.449,-936.884 428.352,-938.82 432,-941 451.969,-952.936 447.989,-967.135 468,-979 474.561,-982.89 481.922,-985.996 489.366,-988.473"/>
<polygon fill="midnightblue" stroke="midnightblue" points="421.453,-931.814 410.862,-931.541 418.972,-938.359 421.453,-931.814"/>
</g>
<!-- Node10 -->
<g id="node10" class="node"><title>Node10</title>
<g id="a_node10"><a xlink:href="classhandler_1_1PartMessage.html" target="_top" xlink:title="Prints a message when a user parts a channel (or server) ">
<polygon fill="none" stroke="black" points="485,-950.5 485,-969.5 597,-969.5 597,-950.5 485,-950.5"/>
<text text-anchor="middle" x="541" y="-957.5" font-family="Helvetica,sans-Serif" font-size="10.00">handler::PartMessage</text>
</a>
</g>
</g>
<!-- Node7&#45;&gt;Node10 -->
<g id="edge9" class="edge"><title>Node7&#45;&gt;Node10</title>
<path fill="none" stroke="midnightblue" d="M416.716,-933.681C441.959,-939.07 471.545,-945.386 495.406,-950.48"/>
<polygon fill="midnightblue" stroke="midnightblue" points="417.427,-930.254 406.917,-931.589 415.966,-937.1 417.427,-930.254"/>
</g>
<!-- Node11 -->
<g id="node11" class="node"><title>Node11</title>
<g id="a_node11"><a xlink:href="classhandler_1_1RenameMessage.html" target="_top" xlink:title="Prints a message when a user changes name. ">
<polygon fill="none" stroke="black" points="475.5,-912.5 475.5,-931.5 606.5,-931.5 606.5,-912.5 475.5,-912.5"/>
<text text-anchor="middle" x="541" y="-919.5" font-family="Helvetica,sans-Serif" font-size="10.00">handler::RenameMessage</text>
</a>
</g>
</g>
<!-- Node7&#45;&gt;Node11 -->
<g id="edge10" class="edge"><title>Node7&#45;&gt;Node11</title>
<path fill="none" stroke="midnightblue" d="M442.243,-922C453.371,-922 464.684,-922 475.476,-922"/>
<polygon fill="midnightblue" stroke="midnightblue" points="442.095,-918.5 432.095,-922 442.095,-925.5 442.095,-918.5"/>
</g>
<!-- Node14 -->
<g id="node14" class="node"><title>Node14</title>
<g id="a_node14"><a xlink:href="classhandler_1_1Command.html" target="_top" xlink:title="Fixed command. ">
<polygon fill="none" stroke="black" points="491.5,-874.5 491.5,-893.5 590.5,-893.5 590.5,-874.5 491.5,-874.5"/>
<text text-anchor="middle" x="541" y="-881.5" font-family="Helvetica,sans-Serif" font-size="10.00">handler::Command</text>
</a>
</g>
</g>
<!-- Node13&#45;&gt;Node14 -->
<g id="edge13" class="edge"><title>Node13&#45;&gt;Node14</title>
<path fill="none" stroke="midnightblue" d="M411.135,-566.389C419.069,-569.32 426.478,-573.65 432,-580 515.772,-676.346 383.889,-768.949 468,-865 474.132,-872.003 482.51,-876.569 491.386,-879.516"/>
<polygon fill="midnightblue" stroke="midnightblue" points="411.869,-562.956 401.287,-563.465 409.877,-569.666 411.869,-562.956"/>
</g>
<!-- Node16 -->
<g id="node16" class="node"><title>Node16</title>
<g id="a_node16"><a xlink:href="classfun_1_1Discord.html" target="_top" xlink:title="Discordian Calendar. ">
<polygon fill="none" stroke="black" points="506,-836.5 506,-855.5 576,-855.5 576,-836.5 506,-836.5"/>
<text text-anchor="middle" x="541" y="-843.5" font-family="Helvetica,sans-Serif" font-size="10.00">fun::Discord</text>
</a>
</g>
</g>
<!-- Node15&#45;&gt;Node16 -->
<g id="edge15" class="edge"><title>Node15&#45;&gt;Node16</title>
<path fill="none" stroke="midnightblue" d="M426.019,-536.392C428.183,-538.059 430.193,-539.921 432,-542 515.772,-638.346 383.889,-730.949 468,-827 477.454,-837.796 492.246,-842.802 505.969,-845.009"/>
<polygon fill="midnightblue" stroke="midnightblue" points="427.364,-533.112 417.007,-530.879 423.711,-539.083 427.364,-533.112"/>
</g>
<!-- Node17 -->
<g id="node17" class="node"><title>Node17</title>
<g id="a_node17"><a xlink:href="classfun_1_1Morse.html" target="_top" xlink:title="Handler translating between morse and latin. ">
<polygon fill="none" stroke="black" points="509.5,-798.5 509.5,-817.5 572.5,-817.5 572.5,-798.5 509.5,-798.5"/>
<text text-anchor="middle" x="541" y="-805.5" font-family="Helvetica,sans-Serif" font-size="10.00">fun::Morse</text>
</a>
</g>
</g>
<!-- Node15&#45;&gt;Node17 -->
<g id="edge16" class="edge"><title>Node15&#45;&gt;Node17</title>
<path fill="none" stroke="midnightblue" d="M426.1,-536.535C428.228,-538.165 430.209,-539.98 432,-542 505.587,-625.019 394.122,-706.24 468,-789 478.331,-800.573 494.797,-805.471 509.377,-807.409"/>
<polygon fill="midnightblue" stroke="midnightblue" points="427.616,-533.359 417.26,-531.121 423.96,-539.329 427.616,-533.359"/>
</g>
<!-- Node18 -->
<g id="node18" class="node"><title>Node18</title>
<g id="a_node18"><a xlink:href="classfun_1_1RenderPony.html" target="_top" xlink:title="Draws a pretty My Little Pony ASCII art. ">
<polygon fill="none" stroke="black" points="496,-760.5 496,-779.5 586,-779.5 586,-760.5 496,-760.5"/>
<text text-anchor="middle" x="541" y="-767.5" font-family="Helvetica,sans-Serif" font-size="10.00">fun::RenderPony</text>
</a>
</g>
</g>
<!-- Node15&#45;&gt;Node18 -->
<g id="edge17" class="edge"><title>Node15&#45;&gt;Node18</title>
<path fill="none" stroke="midnightblue" d="M426.034,-536.593C428.18,-538.208 430.183,-540.003 432,-542 495.428,-611.722 404.327,-681.501 468,-751 475.249,-758.912 485.365,-763.69 495.729,-766.536"/>
<polygon fill="midnightblue" stroke="midnightblue" points="427.513,-533.398 417.144,-531.226 423.895,-539.39 427.513,-533.398"/>
</g>
<!-- Node19 -->
<g id="node19" class="node"><title>Node19</title>
<g id="a_node19"><a xlink:href="classfun_1_1ReverseText.html" target="_top" xlink:title="Turns ASCII characters upside&#45;down. ">
<polygon fill="none" stroke="black" points="495,-722.5 495,-741.5 587,-741.5 587,-722.5 495,-722.5"/>
<text text-anchor="middle" x="541" y="-729.5" font-family="Helvetica,sans-Serif" font-size="10.00">fun::ReverseText</text>
</a>
</g>
</g>
<!-- Node15&#45;&gt;Node19 -->
<g id="edge18" class="edge"><title>Node15&#45;&gt;Node19</title>
<path fill="none" stroke="midnightblue" d="M426.075,-536.776C428.196,-538.342 430.185,-540.077 432,-542 485.315,-598.475 414.486,-656.713 468,-713 475.126,-720.495 484.83,-725.162 494.804,-728.035"/>
<polygon fill="midnightblue" stroke="midnightblue" points="427.701,-533.671 417.322,-531.542 424.108,-539.678 427.701,-533.671"/>
</g>
<!-- Node20 -->
<g id="node20" class="node"><title>Node20</title>
<g id="a_node20"><a xlink:href="classfun_1_1Slap.html" target="_top" xlink:title="Slaps someone. ">
<polygon fill="none" stroke="black" points="513,-684.5 513,-703.5 569,-703.5 569,-684.5 513,-684.5"/>
<text text-anchor="middle" x="541" y="-691.5" font-family="Helvetica,sans-Serif" font-size="10.00">fun::Slap</text>
</a>
</g>
</g>
<!-- Node15&#45;&gt;Node20 -->
<g id="edge19" class="edge"><title>Node15&#45;&gt;Node20</title>
<path fill="none" stroke="midnightblue" d="M425.939,-536.909C428.097,-538.438 430.131,-540.129 432,-542 475.287,-585.317 424.561,-631.835 468,-675 479.738,-686.664 497.738,-691.414 512.804,-693.248"/>
<polygon fill="midnightblue" stroke="midnightblue" points="427.486,-533.76 417.078,-531.779 423.979,-539.818 427.486,-533.76"/>
</g>
<!-- Node21 -->
<g id="node21" class="node"><title>Node21</title>
<g id="a_node21"><a xlink:href="classhandler_1_1AbstractList.html" target="_top" xlink:title="Handles a list of elements (base class) ">
<polygon fill="none" stroke="red" points="487.5,-646.5 487.5,-665.5 594.5,-665.5 594.5,-646.5 487.5,-646.5"/>
<text text-anchor="middle" x="541" y="-653.5" font-family="Helvetica,sans-Serif" font-size="10.00">handler::AbstractList</text>
</a>
</g>
</g>
<!-- Node15&#45;&gt;Node21 -->
<g id="edge20" class="edge"><title>Node15&#45;&gt;Node21</title>
<path fill="none" stroke="midnightblue" d="M425.852,-537.237C428.021,-538.677 430.082,-540.26 432,-542 465.441,-572.339 434.453,-606.779 468,-637 473.571,-642.019 480.313,-645.739 487.411,-648.49"/>
<polygon fill="midnightblue" stroke="midnightblue" points="427.469,-534.132 417.023,-532.362 424.085,-540.26 427.469,-534.132"/>
</g>
<!-- Node22 -->
<g id="node22" class="node"><title>Node22</title>
<g id="a_node22"><a xlink:href="classhandler_1_1Action.html" target="_top" xlink:title="Performs an action. ">
<polygon fill="none" stroke="black" points="500,-608.5 500,-627.5 582,-627.5 582,-608.5 500,-608.5"/>
<text text-anchor="middle" x="541" y="-615.5" font-family="Helvetica,sans-Serif" font-size="10.00">handler::Action</text>
</a>
</g>
</g>
<!-- Node15&#45;&gt;Node22 -->
<g id="edge21" class="edge"><title>Node15&#45;&gt;Node22</title>
<path fill="none" stroke="midnightblue" d="M423.604,-536.741C426.546,-538.308 429.367,-540.055 432,-542 456.1,-559.804 443.838,-581.281 468,-599 477.278,-605.804 488.808,-610.174 499.901,-612.979"/>
<polygon fill="midnightblue" stroke="midnightblue" points="425.024,-533.542 414.475,-532.555 422.106,-539.905 425.024,-533.542"/>
</g>
<!-- Node23 -->
<g id="node23" class="node"><title>Node23</title>
<g id="a_node23"><a xlink:href="classhandler_1_1AdminConnect.html" target="_top" xlink:title="Makes the bot Connect. ">
<polygon fill="none" stroke="black" points="481.5,-570.5 481.5,-589.5 600.5,-589.5 600.5,-570.5 481.5,-570.5"/>
<text text-anchor="middle" x="541" y="-577.5" font-family="Helvetica,sans-Serif" font-size="10.00">handler::AdminConnect</text>
</a>
</g>
</g>
<!-- Node15&#45;&gt;Node23 -->
<g id="edge22" class="edge"><title>Node15&#45;&gt;Node23</title>
<path fill="none" stroke="midnightblue" d="M413.208,-535.488C419.605,-537.459 426.003,-539.637 432,-542 448.832,-548.632 451.145,-554.427 468,-561 477.274,-564.617 487.483,-567.776 497.226,-570.427"/>
<polygon fill="midnightblue" stroke="midnightblue" points="413.791,-532.012 403.211,-532.561 411.824,-538.73 413.791,-532.012"/>
</g>
<!-- Node24 -->
<g id="node24" class="node"><title>Node24</title>
<g id="a_node24"><a xlink:href="classhandler_1_1AdminDisconnect.html" target="_top" xlink:title="Makes the bot disconnect. ">
<polygon fill="none" stroke="black" points="475.5,-532.5 475.5,-551.5 606.5,-551.5 606.5,-532.5 475.5,-532.5"/>
<text text-anchor="middle" x="541" y="-539.5" font-family="Helvetica,sans-Serif" font-size="10.00">handler::AdminDisconnect</text>
</a>
</g>
</g>
<!-- Node15&#45;&gt;Node24 -->
<g id="edge23" class="edge"><title>Node15&#45;&gt;Node24</title>
<path fill="none" stroke="midnightblue" d="M427.442,-529.985C443.071,-531.654 459.744,-533.433 475.337,-535.098"/>
<polygon fill="midnightblue" stroke="midnightblue" points="427.66,-526.489 417.345,-528.908 426.917,-533.449 427.66,-526.489"/>
</g>
<!-- Node25 -->
<g id="node25" class="node"><title>Node25</title>
<g id="a_node25"><a xlink:href="classhandler_1_1AdminQuit.html" target="_top" xlink:title="Quits the bot. ">
<polygon fill="none" stroke="black" points="491,-494.5 491,-513.5 591,-513.5 591,-494.5 491,-494.5"/>
<text text-anchor="middle" x="541" y="-501.5" font-family="Helvetica,sans-Serif" font-size="10.00">handler::AdminQuit</text>
</a>
</g>
</g>
<!-- Node15&#45;&gt;Node25 -->
<g id="edge24" class="edge"><title>Node15&#45;&gt;Node25</title>
<path fill="none" stroke="midnightblue" d="M427.442,-516.015C448.363,-513.781 471.155,-511.349 490.724,-509.26"/>
<polygon fill="midnightblue" stroke="midnightblue" points="426.917,-512.551 417.345,-517.092 427.66,-519.511 426.917,-512.551"/>
</g>
<!-- Node26 -->
<g id="node26" class="node"><title>Node26</title>
<g id="a_node26"><a xlink:href="classhandler_1_1AdminReconnect.html" target="_top" xlink:title="Makes the bot reconnect. ">
<polygon fill="none" stroke="black" points="476.5,-456.5 476.5,-475.5 605.5,-475.5 605.5,-456.5 476.5,-456.5"/>
<text text-anchor="middle" x="541" y="-463.5" font-family="Helvetica,sans-Serif" font-size="10.00">handler::AdminReconnect</text>
</a>
</g>
</g>
<!-- Node15&#45;&gt;Node26 -->
<g id="edge25" class="edge"><title>Node15&#45;&gt;Node26</title>
<path fill="none" stroke="midnightblue" d="M413.208,-510.512C419.605,-508.541 426.003,-506.363 432,-504 448.832,-497.368 451.145,-491.573 468,-485 477.274,-481.383 487.483,-478.224 497.226,-475.573"/>
<polygon fill="midnightblue" stroke="midnightblue" points="411.824,-507.27 403.211,-513.439 413.791,-513.988 411.824,-507.27"/>
</g>
<!-- Node27 -->
<g id="node27" class="node"><title>Node27</title>
<g id="a_node27"><a xlink:href="classhandler_1_1BridgeAttach.html" target="_top" xlink:title="Attach the parent bridge to the provided connection. ">
<polygon fill="none" stroke="black" points="486,-418.5 486,-437.5 596,-437.5 596,-418.5 486,-418.5"/>
<text text-anchor="middle" x="541" y="-425.5" font-family="Helvetica,sans-Serif" font-size="10.00">handler::BridgeAttach</text>
</a>
</g>
</g>
<!-- Node15&#45;&gt;Node27 -->
<g id="edge26" class="edge"><title>Node15&#45;&gt;Node27</title>
<path fill="none" stroke="midnightblue" d="M423.604,-509.259C426.546,-507.692 429.367,-505.945 432,-504 456.1,-486.196 443.838,-464.719 468,-447 473.317,-443.101 479.373,-440.001 485.662,-437.538"/>
<polygon fill="midnightblue" stroke="midnightblue" points="422.106,-506.095 414.475,-513.445 425.024,-512.458 422.106,-506.095"/>
</g>
<!-- Node28 -->
<g id="node28" class="node"><title>Node28</title>
<g id="a_node28"><a xlink:href="classhandler_1_1BridgeAttachChannel.html" target="_top" xlink:title="Attach the parent bridge to the provided channel. ">
<polygon fill="none" stroke="black" points="468,-380.5 468,-399.5 614,-399.5 614,-380.5 468,-380.5"/>
<text text-anchor="middle" x="541" y="-387.5" font-family="Helvetica,sans-Serif" font-size="10.00">handler::BridgeAttachChannel</text>
</a>
</g>
</g>
<!-- Node15&#45;&gt;Node28 -->
<g id="edge27" class="edge"><title>Node15&#45;&gt;Node28</title>
<path fill="none" stroke="midnightblue" d="M425.852,-508.763C428.021,-507.323 430.082,-505.74 432,-504 465.441,-473.661 434.453,-439.221 468,-409 472.322,-405.106 477.35,-401.994 482.701,-399.51"/>
<polygon fill="midnightblue" stroke="midnightblue" points="424.085,-505.74 417.023,-513.638 427.469,-511.868 424.085,-505.74"/>
</g>
<!-- Node29 -->
<g id="node29" class="node"><title>Node29</title>
<g id="a_node29"><a xlink:href="classhandler_1_1Cointoss.html" target="_top" xlink:title="Shows one of the given items, at random. ">
<polygon fill="none" stroke="black" points="494.5,-342.5 494.5,-361.5 587.5,-361.5 587.5,-342.5 494.5,-342.5"/>
<text text-anchor="middle" x="541" y="-349.5" font-family="Helvetica,sans-Serif" font-size="10.00">handler::Cointoss</text>
</a>
</g>
</g>
<!-- Node15&#45;&gt;Node29 -->
<g id="edge28" class="edge"><title>Node15&#45;&gt;Node29</title>
<path fill="none" stroke="midnightblue" d="M425.939,-509.091C428.097,-507.562 430.131,-505.871 432,-504 475.287,-460.683 424.561,-414.165 468,-371 475.153,-363.892 484.631,-359.352 494.353,-356.474"/>
<polygon fill="midnightblue" stroke="midnightblue" points="423.979,-506.182 417.078,-514.221 427.486,-512.24 423.979,-506.182"/>
</g>
<!-- Node30 -->
<g id="node30" class="node"><title>Node30</title>
<g id="a_node30"><a xlink:href="classhandler_1_1Echo.html" target="_top" xlink:title="Just repeat what it has been told. ">
<polygon fill="none" stroke="black" points="502.5,-304.5 502.5,-323.5 579.5,-323.5 579.5,-304.5 502.5,-304.5"/>
<text text-anchor="middle" x="541" y="-311.5" font-family="Helvetica,sans-Serif" font-size="10.00">handler::Echo</text>
</a>
</g>
</g>
<!-- Node15&#45;&gt;Node30 -->
<g id="edge29" class="edge"><title>Node15&#45;&gt;Node30</title>
<path fill="none" stroke="midnightblue" d="M426.075,-509.224C428.196,-507.658 430.185,-505.923 432,-504 485.315,-447.525 414.486,-389.287 468,-333 476.908,-323.631 489.843,-318.682 502.299,-316.13"/>
<polygon fill="midnightblue" stroke="midnightblue" points="424.108,-506.322 417.322,-514.458 427.701,-512.329 424.108,-506.322"/>
</g>
<!-- Node31 -->
<g id="node31" class="node"><title>Node31</title>
<g id="a_node31"><a xlink:href="classhandler_1_1Help.html" target="_top" xlink:title="Handler showing help on the available handlers. ">
<polygon fill="none" stroke="black" points="504,-266.5 504,-285.5 578,-285.5 578,-266.5 504,-266.5"/>
<text text-anchor="middle" x="541" y="-273.5" font-family="Helvetica,sans-Serif" font-size="10.00">handler::Help</text>
</a>
</g>
</g>
<!-- Node15&#45;&gt;Node31 -->
<g id="edge30" class="edge"><title>Node15&#45;&gt;Node31</title>
<path fill="none" stroke="midnightblue" d="M426.034,-509.407C428.18,-507.792 430.183,-505.997 432,-504 495.428,-434.278 404.327,-364.499 468,-295 477.17,-284.991 490.93,-279.996 503.972,-277.586"/>
<polygon fill="midnightblue" stroke="midnightblue" points="423.895,-506.61 417.144,-514.774 427.513,-512.602 423.895,-506.61"/>
</g>
<!-- Node32 -->
<g id="node32" class="node"><title>Node32</title>
<g id="a_node32"><a xlink:href="classhandler_1_1License.html" target="_top" xlink:title="Handler showing licensing information. ">
<polygon fill="none" stroke="black" points="497,-228.5 497,-247.5 585,-247.5 585,-228.5 497,-228.5"/>
<text text-anchor="middle" x="541" y="-235.5" font-family="Helvetica,sans-Serif" font-size="10.00">handler::License</text>
</a>
</g>
</g>
<!-- Node15&#45;&gt;Node32 -->
<g id="edge31" class="edge"><title>Node15&#45;&gt;Node32</title>
<path fill="none" stroke="midnightblue" d="M426.1,-509.465C428.228,-507.835 430.209,-506.02 432,-504 505.587,-420.981 394.122,-339.76 468,-257 475.404,-248.706 485.959,-243.84 496.712,-241.035"/>
<polygon fill="midnightblue" stroke="midnightblue" points="423.96,-506.671 417.26,-514.879 427.616,-512.641 423.96,-506.671"/>
</g>
<!-- Node33 -->
<g id="node33" class="node"><title>Node33</title>
<g id="a_node33"><a xlink:href="classhandler_1_1ListClear.html" target="_top" xlink:title="Used by AbstractList to remove all elements. ">
<polygon fill="none" stroke="black" points="494.5,-190.5 494.5,-209.5 587.5,-209.5 587.5,-190.5 494.5,-190.5"/>
<text text-anchor="middle" x="541" y="-197.5" font-family="Helvetica,sans-Serif" font-size="10.00">handler::ListClear</text>
</a>
</g>
</g>
<!-- Node15&#45;&gt;Node33 -->
<g id="edge32" class="edge"><title>Node15&#45;&gt;Node33</title>
<path fill="none" stroke="midnightblue" d="M426.019,-509.608C428.183,-507.941 430.193,-506.079 432,-504 515.772,-407.654 383.889,-315.051 468,-219 474.814,-211.219 484.4,-206.446 494.361,-203.56"/>
<polygon fill="midnightblue" stroke="midnightblue" points="423.711,-506.917 417.007,-515.121 427.364,-512.888 423.711,-506.917"/>
</g>
<!-- Node34 -->
<g id="node34" class="node"><title>Node34</title>
<g id="a_node34"><a xlink:href="classhandler_1_1ListInsert.html" target="_top" xlink:title="Used by AbstractList to add elements. ">
<polygon fill="none" stroke="black" points="493.5,-152.5 493.5,-171.5 588.5,-171.5 588.5,-152.5 493.5,-152.5"/>
<text text-anchor="middle" x="541" y="-159.5" font-family="Helvetica,sans-Serif" font-size="10.00">handler::ListInsert</text>
</a>
</g>
</g>
<!-- Node15&#45;&gt;Node34 -->
<g id="edge33" class="edge"><title>Node15&#45;&gt;Node34</title>
<path fill="none" stroke="midnightblue" d="M426.057,-509.642C428.211,-507.965 430.208,-506.092 432,-504 525.976,-394.306 373.639,-290.363 468,-181 474.503,-173.463 483.608,-168.741 493.161,-165.823"/>
<polygon fill="midnightblue" stroke="midnightblue" points="423.75,-506.952 417.075,-515.18 427.424,-512.911 423.75,-506.952"/>
</g>
<!-- Node35 -->
<g id="node35" class="node"><title>Node35</title>
<g id="a_node35"><a xlink:href="classhandler_1_1ListRemove.html" target="_top" xlink:title="Used by AbstractList to remove elements. ">
<polygon fill="none" stroke="black" points="487.5,-114.5 487.5,-133.5 594.5,-133.5 594.5,-114.5 487.5,-114.5"/>
<text text-anchor="middle" x="541" y="-121.5" font-family="Helvetica,sans-Serif" font-size="10.00">handler::ListRemove</text>
</a>
</g>
</g>
<!-- Node15&#45;&gt;Node35 -->
<g id="edge34" class="edge"><title>Node15&#45;&gt;Node35</title>
<path fill="none" stroke="midnightblue" d="M426.088,-509.668C428.233,-507.984 430.22,-506.102 432,-504 536.191,-380.944 363.377,-265.688 468,-143 473.117,-136.999 479.883,-132.78 487.223,-129.833"/>
<polygon fill="midnightblue" stroke="midnightblue" points="423.781,-506.98 417.129,-515.226 427.471,-512.928 423.781,-506.98"/>
</g>
<!-- Node36 -->
<g id="node36" class="node"><title>Node36</title>
<g id="a_node36"><a xlink:href="classhandler_1_1ServerHost.html" target="_top" xlink:title="Shows the server the bot is connected to. ">
<polygon fill="none" stroke="black" points="489,-76.5 489,-95.5 593,-95.5 593,-76.5 489,-76.5"/>
<text text-anchor="middle" x="541" y="-83.5" font-family="Helvetica,sans-Serif" font-size="10.00">handler::ServerHost</text>
</a>
</g>
</g>
<!-- Node15&#45;&gt;Node36 -->
<g id="edge35" class="edge"><title>Node15&#45;&gt;Node36</title>
<path fill="none" stroke="midnightblue" d="M426.113,-509.688C428.251,-507.999 430.23,-506.111 432,-504 489.207,-435.786 410.553,-173.012 468,-105 473.506,-98.4817 480.958,-94.0615 488.988,-91.0908"/>
<polygon fill="midnightblue" stroke="midnightblue" points="423.807,-507.002 417.173,-515.263 427.51,-512.942 423.807,-507.002"/>
</g>
<!-- Node37 -->
<g id="node37" class="node"><title>Node37</title>
<g id="a_node37"><a xlink:href="classhandler_1_1SimpleGroup.html" target="_top" xlink:title="A simple group of actions which share settings. ">
<polygon fill="none" stroke="red" points="486,-38.5 486,-57.5 596,-57.5 596,-38.5 486,-38.5"/>
<text text-anchor="middle" x="541" y="-45.5" font-family="Helvetica,sans-Serif" font-size="10.00">handler::SimpleGroup</text>
</a>
</g>
</g>
<!-- Node15&#45;&gt;Node37 -->
<g id="edge36" class="edge"><title>Node15&#45;&gt;Node37</title>
<path fill="none" stroke="midnightblue" d="M426.133,-509.706C428.266,-508.012 430.238,-506.117 432,-504 494.322,-429.097 405.415,-141.683 468,-67 472.733,-61.3521 478.928,-57.2773 485.699,-54.3551"/>
<polygon fill="midnightblue" stroke="midnightblue" points="423.828,-507.02 417.209,-515.293 427.542,-512.953 423.828,-507.02"/>
</g>
<!-- Node38 -->
<g id="node38" class="node"><title>Node38</title>
<g id="a_node38"><a xlink:href="classhandler_1_1SimpleWebApi.html" target="_top" xlink:title="Simple base class for handlers calling web resources. ">
<polygon fill="none" stroke="red" points="481.5,-0.5 481.5,-19.5 600.5,-19.5 600.5,-0.5 481.5,-0.5"/>
<text text-anchor="middle" x="541" y="-7.5" font-family="Helvetica,sans-Serif" font-size="10.00">handler::SimpleWebApi</text>
</a>
</g>
</g>
<!-- Node15&#45;&gt;Node38 -->
<g id="edge37" class="edge"><title>Node15&#45;&gt;Node38</title>
<path fill="none" stroke="midnightblue" d="M426.151,-509.72C428.279,-508.022 430.245,-506.123 432,-504 499.44,-422.404 400.274,-110.358 468,-29 471.722,-24.5289 476.36,-21.0426 481.477,-18.333"/>
<polygon fill="midnightblue" stroke="midnightblue" points="423.845,-507.035 417.24,-515.319 427.57,-512.962 423.845,-507.035"/>
</g>
</g>
</svg>
