<?xml version="1.0" encoding="UTF-8" standalone="no"?>
<!DOCTYPE svg PUBLIC "-//W3C//DTD SVG 1.1//EN"
 "http://www.w3.org/Graphics/SVG/1.1/DTD/svg11.dtd">
<!-- Generated by graphviz version 2.38.0 (20140413.2041)
 -->
<!-- Title: network::irc::IrcConnection Pages: 1 -->
<!--zoomable 293 -->
<svg id="main" version="1.1" xmlns="http://www.w3.org/2000/svg" xmlns:xlink="http://www.w3.org/1999/xlink" xml:space="preserve" onload="init(evt)">
<style type="text/css"><![CDATA[
.edge:hover path { stroke: red; }
.edge:hover polygon { stroke: red; fill: red; }
]]></style>
<script type="text/javascript"><![CDATA[
var edges = document.getElementsByTagName('g');
if (edges && edges.length) {
  for (var i=0;i<edges.length;i++) {
    if (edges[i].id.substr(0,4)=='edge') {
      edges[i].setAttribute('class','edge');
    }
  }
}
]]></script>
        <defs>
                <circle id="rim" cx="0" cy="0" r="7"/>
                <circle id="rim2" cx="0" cy="0" r="3.5"/>
                <g id="zoomPlus">
                        <use xlink:href="#rim" fill="#404040">
                                <set attributeName="fill" to="#808080" begin="zoomplus.mouseover" end="zoomplus.mouseout"/>
                        </use>
                        <path d="M-4,0h8M0,-4v8" fill="none" stroke="white" stroke-width="1.5" pointer-events="none"/>
                </g>
                <g id="zoomMin">
                        <use xlink:href="#rim" fill="#404040">
                                <set attributeName="fill" to="#808080" begin="zoomminus.mouseover" end="zoomminus.mouseout"/>
                        </use>
                        <path d="M-4,0h8" fill="none" stroke="white" stroke-width="1.5" pointer-events="none"/>
                </g>
                <g id="dirArrow">
                        <path fill="none" stroke="white" stroke-width="1.5" d="M0,-3.0v7 M-2.5,-0.5L0,-3.0L2.5,-0.5"/>
                </g>
               <g id="resetDef">
                       <use xlink:href="#rim2" fill="#404040">
                               <set attributeName="fill" to="#808080" begin="reset.mouseover" end="reset.mouseout"/>
                       </use>
               </g>
        </defs>

<script type="text/javascript">
var viewWidth = 957;
var viewHeight = 293;
var sectionId = 'dynsection-1';
</script>
<script xlink:href="svgpan.js"/>
<svg id="graph" class="graph">
<g id="viewport">
<title>network::irc::IrcConnection</title>
<!-- Node1 -->
<g id="node1" class="node"><title>Node1</title>
<polygon fill="#bfbfbf" stroke="black" points="651,-117.5 651,-136.5 785,-136.5 785,-117.5 651,-117.5"/>
<text text-anchor="middle" x="718" y="-124.5" font-family="Helvetica,sans-Serif" font-size="10.00">network::irc::IrcConnection</text>
</g>
<!-- Node8 -->
<g id="node8" class="node"><title>Node8</title>
<g id="a_node8"><a xlink:href="classnetwork_1_1irc_1_1Buffer.html" target="_top" xlink:title="IRC buffer. ">
<polygon fill="none" stroke="black" points="849,-151.5 849,-170.5 949,-170.5 949,-151.5 849,-151.5"/>
<text text-anchor="middle" x="899" y="-158.5" font-family="Helvetica,sans-Serif" font-size="10.00">network::irc::Buffer</text>
</a>
</g>
</g>
<!-- Node1&#45;&gt;Node8 -->
<g id="edge10" class="edge"><title>Node1&#45;&gt;Node8</title>
<path fill="none" stroke="#9a32cd" stroke-dasharray="5,2" d="M779.205,-138.436C801.898,-142.746 827.415,-147.593 848.966,-151.686"/>
<polygon fill="#9a32cd" stroke="#9a32cd" points="779.815,-134.989 769.338,-136.561 778.509,-141.866 779.815,-134.989"/>
<text text-anchor="middle" x="817" y="-152" font-family="Helvetica,sans-Serif" font-size="10.00"> irc</text>
</g>
<!-- Node2 -->
<g id="node2" class="node"><title>Node2</title>
<g id="a_node2"><a xlink:href="classnetwork_1_1Connection.html" target="_top" xlink:title="Abstract service connection. ">
<polygon fill="none" stroke="black" points="414.5,-193.5 414.5,-212.5 521.5,-212.5 521.5,-193.5 414.5,-193.5"/>
<text text-anchor="middle" x="468" y="-200.5" font-family="Helvetica,sans-Serif" font-size="10.00">network::Connection</text>
</a>
</g>
</g>
<!-- Node2&#45;&gt;Node1 -->
<g id="edge1" class="edge"><title>Node2&#45;&gt;Node1</title>
<path fill="none" stroke="midnightblue" d="M531.759,-192.708C562.699,-186.76 600.298,-178.21 633,-167 656.989,-158.776 683.147,-145.595 699.792,-136.63"/>
<polygon fill="midnightblue" stroke="midnightblue" points="530.721,-189.342 521.538,-194.626 532.012,-196.222 530.721,-189.342"/>
</g>
<!-- Node3 -->
<g id="node3" class="node"><title>Node3</title>
<g id="a_node3"><a xlink:href="classuser_1_1UserManager.html" target="_top" xlink:title="user::UserManager">
<polygon fill="none" stroke="black" points="418,-155.5 418,-174.5 518,-174.5 518,-155.5 418,-155.5"/>
<text text-anchor="middle" x="468" y="-162.5" font-family="Helvetica,sans-Serif" font-size="10.00">user::UserManager</text>
</a>
</g>
</g>
<!-- Node3&#45;&gt;Node1 -->
<g id="edge2" class="edge"><title>Node3&#45;&gt;Node1</title>
<path fill="none" stroke="#9a32cd" stroke-dasharray="5,2" d="M528.49,-157.202C559.658,-152.979 598.435,-147.508 633,-142 643.533,-140.322 654.786,-138.401 665.52,-136.507"/>
<polygon fill="#9a32cd" stroke="#9a32cd" points="527.672,-153.78 518.229,-158.584 528.607,-160.718 527.672,-153.78"/>
<text text-anchor="middle" x="600" y="-155" font-family="Helvetica,sans-Serif" font-size="10.00"> user_manager</text>
</g>
<!-- Node4 -->
<g id="node4" class="node"><title>Node4</title>
<g id="a_node4"><a xlink:href="classstring_1_1Formatter.html" target="_top" xlink:title="Abstract formatting visitor (and factory) ">
<polygon fill="none" stroke="black" points="423.5,-117.5 423.5,-136.5 512.5,-136.5 512.5,-117.5 423.5,-117.5"/>
<text text-anchor="middle" x="468" y="-124.5" font-family="Helvetica,sans-Serif" font-size="10.00">string::Formatter</text>
</a>
</g>
</g>
<!-- Node4&#45;&gt;Node1 -->
<g id="edge3" class="edge"><title>Node4&#45;&gt;Node1</title>
<path fill="none" stroke="#9a32cd" stroke-dasharray="5,2" d="M523.001,-127C560.554,-127 610.845,-127 650.812,-127"/>
<polygon fill="#9a32cd" stroke="#9a32cd" points="522.767,-123.5 512.767,-127 522.767,-130.5 522.767,-123.5"/>
<text text-anchor="middle" x="600" y="-130" font-family="Helvetica,sans-Serif" font-size="10.00"> formatter_</text>
</g>
<!-- Node5 -->
<g id="node5" class="node"><title>Node5</title>
<g id="a_node5"><a xlink:href="classMelanobot.html" target="_top" xlink:title="Main bot class. ">
<polygon fill="none" stroke="black" points="437,-79.5 437,-98.5 499,-98.5 499,-79.5 437,-79.5"/>
<text text-anchor="middle" x="468" y="-86.5" font-family="Helvetica,sans-Serif" font-size="10.00">Melanobot</text>
</a>
</g>
</g>
<!-- Node5&#45;&gt;Node1 -->
<g id="edge4" class="edge"><title>Node5&#45;&gt;Node1</title>
<path fill="none" stroke="#9a32cd" stroke-dasharray="5,2" d="M509.512,-94.2527C542.741,-98.6643 590.983,-105.305 633,-112 643.533,-113.678 654.786,-115.599 665.52,-117.493"/>
<polygon fill="#9a32cd" stroke="#9a32cd" points="509.649,-90.7406 499.277,-92.9015 508.733,-97.6804 509.649,-90.7406"/>
<text text-anchor="middle" x="600" y="-115" font-family="Helvetica,sans-Serif" font-size="10.00"> bot</text>
</g>
<!-- Node6 -->
<g id="node6" class="node"><title>Node6</title>
<g id="a_node6"><a xlink:href="classConcurrentQueue.html" target="_top" xlink:title="ConcurrentQueue\&lt; network\l::Message \&gt;">
<polygon fill="none" stroke="black" points="165,-74 165,-104 302,-104 302,-74 165,-74"/>
<text text-anchor="start" x="173" y="-92" font-family="Helvetica,sans-Serif" font-size="10.00">ConcurrentQueue&lt; network</text>
<text text-anchor="middle" x="233.5" y="-81" font-family="Helvetica,sans-Serif" font-size="10.00">::Message &gt;</text>
</a>
</g>
</g>
<!-- Node6&#45;&gt;Node5 -->
<g id="edge5" class="edge"><title>Node6&#45;&gt;Node5</title>
<path fill="none" stroke="#9a32cd" stroke-dasharray="5,2" d="M312.181,-89C354.948,-89 405.568,-89 436.987,-89"/>
<polygon fill="#9a32cd" stroke="#9a32cd" points="312.061,-85.5001 302.061,-89 312.061,-92.5001 312.061,-85.5001"/>
<text text-anchor="middle" x="344.5" y="-92" font-family="Helvetica,sans-Serif" font-size="10.00"> messages</text>
</g>
<!-- Node7 -->
<g id="node7" class="node"><title>Node7</title>
<g id="a_node7"><a xlink:href="classConcurrentContainer.html" target="_top" xlink:title="ConcurrentContainer\l\&lt; std::queue\&lt; network\l::Message, Container \&gt; \&gt;">
<polygon fill="none" stroke="black" points="0,-68.5 0,-109.5 128,-109.5 128,-68.5 0,-68.5"/>
<text text-anchor="start" x="8" y="-97.5" font-family="Helvetica,sans-Serif" font-size="10.00">ConcurrentContainer</text>
<text text-anchor="start" x="8" y="-86.5" font-family="Helvetica,sans-Serif" font-size="10.00">&lt; std::queue&lt; network</text>
<text text-anchor="middle" x="64" y="-75.5" font-family="Helvetica,sans-Serif" font-size="10.00">::Message, Container &gt; &gt;</text>
</a>
</g>
</g>
<!-- Node7&#45;&gt;Node6 -->
<g id="edge6" class="edge"><title>Node7&#45;&gt;Node6</title>
<path fill="none" stroke="midnightblue" d="M138.525,-89C147.293,-89 156.214,-89 164.894,-89"/>
<polygon fill="midnightblue" stroke="midnightblue" points="138.325,-85.5001 128.325,-89 138.325,-92.5001 138.325,-85.5001"/>
</g>
<!-- Node8&#45;&gt;Node1 -->
<g id="edge7" class="edge"><title>Node8&#45;&gt;Node1</title>
<path fill="none" stroke="#9a32cd" stroke-dasharray="5,2" d="M874.773,-146.333C862.308,-139.313 846.381,-131.655 831,-128 816.338,-124.516 800.289,-123.05 785.036,-122.699"/>
<polygon fill="#9a32cd" stroke="#9a32cd" points="873.168,-149.45 883.563,-151.5 876.715,-143.415 873.168,-149.45"/>
<text text-anchor="middle" x="817" y="-131" font-family="Helvetica,sans-Serif" font-size="10.00"> buffer</text>
</g>
<!-- Node9 -->
<g id="node9" class="node"><title>Node9</title>
<g id="a_node9"><a xlink:href="classConcurrentPriorityQueue.html" target="_top" xlink:title="ConcurrentPriorityQueue\l\&lt; network::Command \&gt;">
<polygon fill="none" stroke="black" points="656,-227 656,-257 780,-257 780,-227 656,-227"/>
<text text-anchor="start" x="664" y="-245" font-family="Helvetica,sans-Serif" font-size="10.00">ConcurrentPriorityQueue</text>
<text text-anchor="middle" x="718" y="-234" font-family="Helvetica,sans-Serif" font-size="10.00">&lt; network::Command &gt;</text>
</a>
</g>
</g>
<!-- Node9&#45;&gt;Node8 -->
<g id="edge8" class="edge"><title>Node9&#45;&gt;Node8</title>
<path fill="none" stroke="#9a32cd" stroke-dasharray="5,2" d="M761.628,-222.71C797.999,-206.252 848.757,-183.283 876.97,-170.517"/>
<polygon fill="#9a32cd" stroke="#9a32cd" points="759.917,-219.643 752.249,-226.954 762.803,-226.02 759.917,-219.643"/>
<text text-anchor="middle" x="817" y="-207" font-family="Helvetica,sans-Serif" font-size="10.00"> buffer</text>
</g>
<!-- Node10 -->
<g id="node10" class="node"><title>Node10</title>
<g id="a_node10"><a xlink:href="classConcurrentContainer.html" target="_top" xlink:title="ConcurrentContainer\l\&lt; std::priority_queue\l\&lt; network::Command, Container,\l Compare \&gt; \&gt;">
<polygon fill="none" stroke="black" points="387,-232 387,-284 549,-284 549,-232 387,-232"/>
<text text-anchor="start" x="395" y="-272" font-family="Helvetica,sans-Serif" font-size="10.00">ConcurrentContainer</text>
<text text-anchor="start" x="395" y="-261" font-family="Helvetica,sans-Serif" font-size="10.00">&lt; std::priority_queue</text>
<text text-anchor="start" x="395" y="-250" font-family="Helvetica,sans-Serif" font-size="10.00">&lt; network::Command, Container,</text>
<text text-anchor="middle" x="468" y="-239" font-family="Helvetica,sans-Serif" font-size="10.00"> Compare &gt; &gt;</text>
</a>
</g>
</g>
<!-- Node10&#45;&gt;Node9 -->
<g id="edge9" class="edge"><title>Node10&#45;&gt;Node9</title>
<path fill="none" stroke="midnightblue" d="M559.472,-252.163C591.571,-250.092 626.91,-247.812 655.969,-245.937"/>
<polygon fill="midnightblue" stroke="midnightblue" points="558.93,-248.691 549.176,-252.827 559.381,-255.676 558.93,-248.691"/>
</g>
<!-- Node11 -->
<g id="node11" class="node"><title>Node11</title>
<g id="a_node11"><a xlink:href="classuser_1_1AuthSystem.html" target="_top" xlink:title="User authorization system. ">
<polygon fill="none" stroke="black" points="420.5,-41.5 420.5,-60.5 515.5,-60.5 515.5,-41.5 420.5,-41.5"/>
<text text-anchor="middle" x="468" y="-48.5" font-family="Helvetica,sans-Serif" font-size="10.00">user::AuthSystem</text>
</a>
</g>
</g>
<!-- Node11&#45;&gt;Node1 -->
<g id="edge11" class="edge"><title>Node11&#45;&gt;Node1</title>
<path fill="none" stroke="#9a32cd" stroke-dasharray="5,2" d="M525.741,-60.7117C557.705,-66.9464 598.097,-76.1117 633,-88 656.743,-96.087 682.742,-108.8 699.43,-117.498"/>
<polygon fill="#9a32cd" stroke="#9a32cd" points="526.155,-57.2278 515.676,-58.7907 524.843,-64.1037 526.155,-57.2278"/>
<text text-anchor="middle" x="600" y="-91" font-family="Helvetica,sans-Serif" font-size="10.00"> auth_system</text>
</g>
<!-- Node12 -->
<g id="node12" class="node"><title>Node12</title>
<g id="a_node12"><a xlink:href="structnetwork_1_1Server.html" target="_top" xlink:title="Identifies a network server. ">
<polygon fill="none" stroke="black" points="425,-0.5 425,-19.5 511,-19.5 511,-0.5 425,-0.5"/>
<text text-anchor="middle" x="468" y="-7.5" font-family="Helvetica,sans-Serif" font-size="10.00">network::Server</text>
</a>
</g>
</g>
<!-- Node12&#45;&gt;Node1 -->
<g id="edge12" class="edge"><title>Node12&#45;&gt;Node1</title>
<path fill="none" stroke="#9a32cd" stroke-dasharray="5,2" d="M521.376,-13.6655C554.916,-17.7767 598.463,-26.4984 633,-45 667.312,-63.3814 697.183,-99.9801 710.14,-117.38"/>
<polygon fill="#9a32cd" stroke="#9a32cd" points="521.638,-10.173 511.309,-12.5319 520.855,-17.1291 521.638,-10.173"/>
<text text-anchor="middle" x="600" y="-59" font-family="Helvetica,sans-Serif" font-size="10.00"> current_server</text>
<text text-anchor="middle" x="600" y="-48" font-family="Helvetica,sans-Serif" font-size="10.00">main_server</text>
</g>
</g>
</svg>
        <g id="navigator" transform="translate(0 0)" fill="#404254">
                <rect fill="#f2f5e9" fill-opacity="0.5" stroke="#606060" stroke-width=".5" x="0" y="0" width="60" height="60"/>
                <use id="zoomplus" xlink:href="#zoomPlus" x="17" y="9" onmousedown="handleZoom(evt,'in')"/>
                <use id="zoomminus" xlink:href="#zoomMin" x="42" y="9" onmousedown="handleZoom(evt,'out')"/>
                <use id="reset" xlink:href="#resetDef" x="30" y="36" onmousedown="handleReset()"/>
                <g id="arrowUp" xlink:href="#dirArrow" transform="translate(30 24)" onmousedown="handlePan(0,-1)">
                  <use xlink:href="#rim" fill="#404040">
                        <set attributeName="fill" to="#808080" begin="arrowUp.mouseover" end="arrowUp.mouseout"/>
                  </use>
                  <path fill="none" stroke="white" stroke-width="1.5" d="M0,-3.0v7 M-2.5,-0.5L0,-3.0L2.5,-0.5"/>
                </g>
                <g id="arrowRight" xlink:href="#dirArrow" transform="rotate(90) translate(36 -43)" onmousedown="handlePan(1,0)">
                  <use xlink:href="#rim" fill="#404040">
                        <set attributeName="fill" to="#808080" begin="arrowRight.mouseover" end="arrowRight.mouseout"/>
                  </use>
                  <path fill="none" stroke="white" stroke-width="1.5" d="M0,-3.0v7 M-2.5,-0.5L0,-3.0L2.5,-0.5"/>
                </g>
                <g id="arrowDown" xlink:href="#dirArrow" transform="rotate(180) translate(-30 -48)" onmousedown="handlePan(0,1)">
                  <use xlink:href="#rim" fill="#404040">
                        <set attributeName="fill" to="#808080" begin="arrowDown.mouseover" end="arrowDown.mouseout"/>
                  </use>
                  <path fill="none" stroke="white" stroke-width="1.5" d="M0,-3.0v7 M-2.5,-0.5L0,-3.0L2.5,-0.5"/>
                </g>
                <g id="arrowLeft" xlink:href="#dirArrow" transform="rotate(270) translate(-36 17)" onmousedown="handlePan(-1,0)">
                  <use xlink:href="#rim" fill="#404040">
                        <set attributeName="fill" to="#808080" begin="arrowLeft.mouseover" end="arrowLeft.mouseout"/>
                  </use>
                  <path fill="none" stroke="white" stroke-width="1.5" d="M0,-3.0v7 M-2.5,-0.5L0,-3.0L2.5,-0.5"/>
                </g>
        </g>
        <svg viewBox="0 0 15 15" width="100%" height="30px" preserveAspectRatio="xMaxYMin meet">
         <g id="arrow_out" transform="scale(0.3 0.3)">
          <a xlink:href="classnetwork_1_1irc_1_1IrcConnection__coll__graph_org.svg" target="_base">
           <rect id="button" ry="5" rx="5" y="6" x="6" height="38" width="38"
                fill="#f2f5e9" fill-opacity="0.5" stroke="#606060" stroke-width="1.0"/>
           <path id="arrow"
             d="M 11.500037,31.436501 C 11.940474,20.09759 22.043105,11.32322 32.158766,21.979434 L 37.068811,17.246167 C 37.068811,17.246167 37.088388,32 37.088388,32 L 22.160133,31.978069 C 22.160133,31.978069 26.997745,27.140456 26.997745,27.140456 C 18.528582,18.264221 13.291696,25.230495 11.500037,31.436501 z"
             style="fill:#404040;"/>
          </a>
         </g>
        </svg>
</svg>
