<?xml version="1.0" encoding="UTF-8" standalone="no"?>
<!DOCTYPE svg PUBLIC "-//W3C//DTD SVG 1.1//EN"
 "http://www.w3.org/Graphics/SVG/1.1/DTD/svg11.dtd">
<!-- Generated by graphviz version 2.38.0 (20140413.2041)
 -->
<!-- Title: handler::SimpleAction Pages: 1 -->
<svg width="245pt" height="319pt"
 viewBox="0.00 0.00 245.00 319.00" xmlns="http://www.w3.org/2000/svg" xmlns:xlink="http://www.w3.org/1999/xlink">
<g id="graph0" class="graph" transform="scale(1 1) rotate(0) translate(4 315)">
<title>handler::SimpleAction</title>
<!-- Node1 -->
<g id="node1" class="node"><title>Node1</title>
<polygon fill="#bfbfbf" stroke="black" points="98.5,-0.5 98.5,-19.5 210.5,-19.5 210.5,-0.5 98.5,-0.5"/>
<text text-anchor="middle" x="154.5" y="-7.5" font-family="Helvetica,sans-Serif" font-size="10.00">handler::SimpleAction</text>
</g>
<!-- Node2 -->
<g id="node2" class="node"><title>Node2</title>
<g id="a_node2"><a xlink:href="classhandler_1_1Handler.html" target="_top" xlink:title="Message handler abstract base class. ">
<polygon fill="none" stroke="black" points="24.5,-67.5 24.5,-86.5 112.5,-86.5 112.5,-67.5 24.5,-67.5"/>
<text text-anchor="middle" x="68.5" y="-74.5" font-family="Helvetica,sans-Serif" font-size="10.00">handler::Handler</text>
</a>
</g>
</g>
<!-- Node2&#45;&gt;Node1 -->
<g id="edge1" class="edge"><title>Node2&#45;&gt;Node1</title>
<path fill="none" stroke="midnightblue" d="M88.2564,-61.0678C105.232,-48.2376 129.116,-30.1853 143.085,-19.6273"/>
<polygon fill="midnightblue" stroke="midnightblue" points="85.9657,-58.4119 80.0983,-67.2338 90.1864,-63.9963 85.9657,-58.4119"/>
</g>
<!-- Node3 -->
<g id="node3" class="node"><title>Node3</title>
<g id="a_node3"><a xlink:href="classMelanobot.html" target="_top" xlink:title="Main bot class. ">
<polygon fill="none" stroke="black" points="37.5,-134.5 37.5,-153.5 99.5,-153.5 99.5,-134.5 37.5,-134.5"/>
<text text-anchor="middle" x="68.5" y="-141.5" font-family="Helvetica,sans-Serif" font-size="10.00">Melanobot</text>
</a>
</g>
</g>
<!-- Node3&#45;&gt;Node2 -->
<g id="edge2" class="edge"><title>Node3&#45;&gt;Node2</title>
<path fill="none" stroke="#9a32cd" stroke-dasharray="5,2" d="M68.5,-124.037C68.5,-111.67 68.5,-96.1198 68.5,-86.6273"/>
<polygon fill="#9a32cd" stroke="#9a32cd" points="65.0001,-124.234 68.5,-134.234 72.0001,-124.234 65.0001,-124.234"/>
<text text-anchor="middle" x="77" y="-108" font-family="Helvetica,sans-Serif" font-size="10.00"> bot</text>
</g>
<!-- Node4 -->
<g id="node4" class="node"><title>Node4</title>
<g id="a_node4"><a xlink:href="classConcurrentQueue.html" target="_top" xlink:title="ConcurrentQueue\&lt; network\l::Message \&gt;">
<polygon fill="none" stroke="black" points="0,-201.5 0,-231.5 137,-231.5 137,-201.5 0,-201.5"/>
<text text-anchor="start" x="8" y="-219.5" font-family="Helvetica,sans-Serif" font-size="10.00">ConcurrentQueue&lt; network</text>
<text text-anchor="middle" x="68.5" y="-208.5" font-family="Helvetica,sans-Serif" font-size="10.00">::Message &gt;</text>
</a>
</g>
</g>
<!-- Node4&#45;&gt;Node3 -->
<g id="edge3" class="edge"><title>Node4&#45;&gt;Node3</title>
<path fill="none" stroke="#9a32cd" stroke-dasharray="5,2" d="M68.5,-191.091C68.5,-178.214 68.5,-163.197 68.5,-153.893"/>
<polygon fill="#9a32cd" stroke="#9a32cd" points="65.0001,-191.233 68.5,-201.233 72.0001,-191.233 65.0001,-191.233"/>
<text text-anchor="middle" x="93" y="-175" font-family="Helvetica,sans-Serif" font-size="10.00"> messages</text>
</g>
<!-- Node5 -->
<g id="node5" class="node"><title>Node5</title>
<g id="a_node5"><a xlink:href="classConcurrentContainer.html" target="_top" xlink:title="ConcurrentContainer\l\&lt; std::queue\&lt; network\l::Message, Container \&gt; \&gt;">
<polygon fill="none" stroke="black" points="4.5,-269.5 4.5,-310.5 132.5,-310.5 132.5,-269.5 4.5,-269.5"/>
<text text-anchor="start" x="12.5" y="-298.5" font-family="Helvetica,sans-Serif" font-size="10.00">ConcurrentContainer</text>
<text text-anchor="start" x="12.5" y="-287.5" font-family="Helvetica,sans-Serif" font-size="10.00">&lt; std::queue&lt; network</text>
<text text-anchor="middle" x="68.5" y="-276.5" font-family="Helvetica,sans-Serif" font-size="10.00">::Message, Container &gt; &gt;</text>
</a>
</g>
</g>
<!-- Node5&#45;&gt;Node4 -->
<g id="edge4" class="edge"><title>Node5&#45;&gt;Node4</title>
<path fill="none" stroke="midnightblue" d="M68.5,-259.158C68.5,-249.687 68.5,-239.647 68.5,-231.797"/>
<polygon fill="midnightblue" stroke="midnightblue" points="65.0001,-259.462 68.5,-269.462 72.0001,-259.462 65.0001,-259.462"/>
</g>
<!-- Node6 -->
<g id="node6" class="node"><title>Node6</title>
<g id="a_node6"><a xlink:href="classnetwork_1_1Connection.html" target="_top" xlink:title="Abstract service connection. ">
<polygon fill="none" stroke="black" points="130,-67.5 130,-86.5 237,-86.5 237,-67.5 130,-67.5"/>
<text text-anchor="middle" x="183.5" y="-74.5" font-family="Helvetica,sans-Serif" font-size="10.00">network::Connection</text>
</a>
</g>
</g>
<!-- Node6&#45;&gt;Node1 -->
<g id="edge5" class="edge"><title>Node6&#45;&gt;Node1</title>
<path fill="none" stroke="#9a32cd" stroke-dasharray="5,2" d="M175.376,-57.79C169.806,-45.3076 162.671,-29.3135 158.349,-19.6273"/>
<polygon fill="#9a32cd" stroke="#9a32cd" points="172.318,-59.5276 179.589,-67.2338 178.711,-56.6754 172.318,-59.5276"/>
<text text-anchor="middle" x="187" y="-41" font-family="Helvetica,sans-Serif" font-size="10.00"> source</text>
</g>
</g>
</svg>
