<?xml version="1.0" encoding="UTF-8" standalone="no"?>
<!DOCTYPE svg PUBLIC "-//W3C//DTD SVG 1.1//EN"
 "http://www.w3.org/Graphics/SVG/1.1/DTD/svg11.dtd">
<!-- Generated by graphviz version 2.38.0 (20140413.2041)
 -->
<!-- Title: handler::BridgeAttach Pages: 1 -->
<svg width="1227pt" height="139pt"
 viewBox="0.00 0.00 1227.00 138.50" xmlns="http://www.w3.org/2000/svg" xmlns:xlink="http://www.w3.org/1999/xlink">
<g id="graph0" class="graph" transform="scale(1 1) rotate(0) translate(4 134.5)">
<title>handler::BridgeAttach</title>
<!-- Node1 -->
<g id="node1" class="node"><title>Node1</title>
<polygon fill="#bfbfbf" stroke="black" points="1109,-57 1109,-76 1219,-76 1219,-57 1109,-57"/>
<text text-anchor="middle" x="1164" y="-64" font-family="Helvetica,sans-Serif" font-size="10.00">handler::BridgeAttach</text>
</g>
<!-- Node2 -->
<g id="node2" class="node"><title>Node2</title>
<g id="a_node2"><a xlink:href="classhandler_1_1SimpleAction.html" target="_top" xlink:title="A simple action sends a message to the same connection it came from. ">
<polygon fill="none" stroke="black" points="632,-52 632,-71 744,-71 744,-52 632,-52"/>
<text text-anchor="middle" x="688" y="-59" font-family="Helvetica,sans-Serif" font-size="10.00">handler::SimpleAction</text>
</a>
</g>
</g>
<!-- Node2&#45;&gt;Node1 -->
<g id="edge1" class="edge"><title>Node2&#45;&gt;Node1</title>
<path fill="none" stroke="midnightblue" d="M754.574,-62.1917C848.917,-63.1869 1021.2,-65.0042 1108.78,-65.9281"/>
<polygon fill="midnightblue" stroke="midnightblue" points="754.338,-58.6891 744.301,-62.0833 754.264,-65.6887 754.338,-58.6891"/>
</g>
<!-- Node9 -->
<g id="node9" class="node"><title>Node9</title>
<g id="a_node9"><a xlink:href="classhandler_1_1SimpleGroup.html" target="_top" xlink:title="A simple group of actions which share settings. ">
<polygon fill="none" stroke="black" points="813,-78 813,-97 923,-97 923,-78 813,-78"/>
<text text-anchor="middle" x="868" y="-85" font-family="Helvetica,sans-Serif" font-size="10.00">handler::SimpleGroup</text>
</a>
</g>
</g>
<!-- Node2&#45;&gt;Node9 -->
<g id="edge11" class="edge"><title>Node2&#45;&gt;Node9</title>
<path fill="none" stroke="midnightblue" d="M754.259,-71.0322C773.537,-73.8481 794.419,-76.8982 812.911,-79.5993"/>
<polygon fill="midnightblue" stroke="midnightblue" points="754.745,-67.5662 744.345,-69.584 753.734,-74.4927 754.745,-67.5662"/>
</g>
<!-- Node3 -->
<g id="node3" class="node"><title>Node3</title>
<g id="a_node3"><a xlink:href="classhandler_1_1Handler.html" target="_top" xlink:title="Message handler abstract base class. ">
<polygon fill="none" stroke="black" points="507,-52 507,-71 595,-71 595,-52 507,-52"/>
<text text-anchor="middle" x="551" y="-59" font-family="Helvetica,sans-Serif" font-size="10.00">handler::Handler</text>
</a>
</g>
</g>
<!-- Node3&#45;&gt;Node2 -->
<g id="edge2" class="edge"><title>Node3&#45;&gt;Node2</title>
<path fill="none" stroke="midnightblue" d="M605.214,-61.5C614.007,-61.5 623.139,-61.5 631.975,-61.5"/>
<polygon fill="midnightblue" stroke="midnightblue" points="605.086,-58.0001 595.086,-61.5 605.086,-65.0001 605.086,-58.0001"/>
</g>
<!-- Node3&#45;&gt;Node3 -->
<g id="edge8" class="edge"><title>Node3&#45;&gt;Node3</title>
<path fill="none" stroke="#9a32cd" stroke-dasharray="5,2" d="M539.582,-81.2663C540.479,-85.9965 544.285,-89.5 551,-89.5 562.02,-89.5 565.205,-80.0653 560.556,-71.2571"/>
<polygon fill="#9a32cd" stroke="#9a32cd" points="543.056,-81.7285 541.444,-71.2571 536.174,-80.4484 543.056,-81.7285"/>
<text text-anchor="middle" x="551" y="-92.5" font-family="Helvetica,sans-Serif" font-size="10.00"> parent_handler</text>
</g>
<!-- Node4 -->
<g id="node4" class="node"><title>Node4</title>
<g id="a_node4"><a xlink:href="classhandler_1_1HandlerContainer.html" target="_top" xlink:title="Base class for classes which may contain handlers. ">
<polygon fill="none" stroke="black" points="173.5,-64 173.5,-83 303.5,-83 303.5,-64 173.5,-64"/>
<text text-anchor="middle" x="238.5" y="-71" font-family="Helvetica,sans-Serif" font-size="10.00">handler::HandlerContainer</text>
</a>
</g>
</g>
<!-- Node4&#45;&gt;Node3 -->
<g id="edge3" class="edge"><title>Node4&#45;&gt;Node3</title>
<path fill="none" stroke="midnightblue" d="M314.049,-70.6189C374.257,-68.292 456.893,-65.0983 506.699,-63.1735"/>
<polygon fill="midnightblue" stroke="midnightblue" points="313.693,-67.1299 303.836,-71.0136 313.964,-74.1247 313.693,-67.1299"/>
</g>
<!-- Node5 -->
<g id="node5" class="node"><title>Node5</title>
<g id="a_node5"><a xlink:href="classMelanobot.html" target="_top" xlink:title="Main bot class. ">
<polygon fill="none" stroke="black" points="392,-30 392,-49 454,-49 454,-30 392,-30"/>
<text text-anchor="middle" x="423" y="-37" font-family="Helvetica,sans-Serif" font-size="10.00">Melanobot</text>
</a>
</g>
</g>
<!-- Node4&#45;&gt;Node5 -->
<g id="edge5" class="edge"><title>Node4&#45;&gt;Node5</title>
<path fill="none" stroke="midnightblue" d="M300.987,-62.045C331.594,-56.3428 367.218,-49.7059 391.852,-45.1166"/>
<polygon fill="midnightblue" stroke="midnightblue" points="300.012,-58.6662 290.822,-63.9386 301.294,-65.5478 300.012,-58.6662"/>
</g>
<!-- Node5&#45;&gt;Node3 -->
<g id="edge4" class="edge"><title>Node5&#45;&gt;Node3</title>
<path fill="none" stroke="#9a32cd" stroke-dasharray="5,2" d="M464.181,-46.5158C477.741,-48.8834 492.932,-51.5357 506.721,-53.9433"/>
<polygon fill="#9a32cd" stroke="#9a32cd" points="464.633,-43.0418 454.18,-44.7695 463.429,-49.9375 464.633,-43.0418"/>
<text text-anchor="middle" x="480.5" y="-53.5" font-family="Helvetica,sans-Serif" font-size="10.00"> bot</text>
</g>
<!-- Node6 -->
<g id="node6" class="node"><title>Node6</title>
<g id="a_node6"><a xlink:href="classConcurrentQueue.html" target="_top" xlink:title="ConcurrentQueue\&lt; network\l::Message \&gt;">
<polygon fill="none" stroke="black" points="170,-11.5 170,-41.5 307,-41.5 307,-11.5 170,-11.5"/>
<text text-anchor="start" x="178" y="-29.5" font-family="Helvetica,sans-Serif" font-size="10.00">ConcurrentQueue&lt; network</text>
<text text-anchor="middle" x="238.5" y="-18.5" font-family="Helvetica,sans-Serif" font-size="10.00">::Message &gt;</text>
</a>
</g>
</g>
<!-- Node6&#45;&gt;Node5 -->
<g id="edge6" class="edge"><title>Node6&#45;&gt;Node5</title>
<path fill="none" stroke="#9a32cd" stroke-dasharray="5,2" d="M317.312,-23.944C335.94,-24.1966 355.725,-25.1812 374,-27.5 379.88,-28.246 386.077,-29.4617 391.994,-30.8396"/>
<polygon fill="#9a32cd" stroke="#9a32cd" points="317.122,-20.4428 307.099,-23.8752 317.075,-27.4426 317.122,-20.4428"/>
<text text-anchor="middle" x="349.5" y="-30.5" font-family="Helvetica,sans-Serif" font-size="10.00"> messages</text>
</g>
<!-- Node7 -->
<g id="node7" class="node"><title>Node7</title>
<g id="a_node7"><a xlink:href="classConcurrentContainer.html" target="_top" xlink:title="ConcurrentContainer\l\&lt; std::queue\&lt; network\l::Message, std::deque\l\&lt; network::Message \&gt; \&gt; \&gt;">
<polygon fill="none" stroke="black" points="0,-0.5 0,-52.5 133,-52.5 133,-0.5 0,-0.5"/>
<text text-anchor="start" x="8" y="-40.5" font-family="Helvetica,sans-Serif" font-size="10.00">ConcurrentContainer</text>
<text text-anchor="start" x="8" y="-29.5" font-family="Helvetica,sans-Serif" font-size="10.00">&lt; std::queue&lt; network</text>
<text text-anchor="start" x="8" y="-18.5" font-family="Helvetica,sans-Serif" font-size="10.00">::Message, std::deque</text>
<text text-anchor="middle" x="66.5" y="-7.5" font-family="Helvetica,sans-Serif" font-size="10.00">&lt; network::Message &gt; &gt; &gt;</text>
</a>
</g>
</g>
<!-- Node7&#45;&gt;Node6 -->
<g id="edge7" class="edge"><title>Node7&#45;&gt;Node6</title>
<path fill="none" stroke="midnightblue" d="M143.502,-26.5C152.327,-26.5 161.282,-26.5 169.982,-26.5"/>
<polygon fill="midnightblue" stroke="midnightblue" points="143.226,-23.0001 133.226,-26.5 143.226,-30.0001 143.226,-23.0001"/>
</g>
<!-- Node8 -->
<g id="node8" class="node"><title>Node8</title>
<g id="a_node8"><a xlink:href="classhandler_1_1Bridge.html" target="_top" xlink:title="Acts as bridge across connections. ">
<polygon fill="none" stroke="black" points="960,-78 960,-97 1042,-97 1042,-78 960,-78"/>
<text text-anchor="middle" x="1001" y="-85" font-family="Helvetica,sans-Serif" font-size="10.00">handler::Bridge</text>
</a>
</g>
</g>
<!-- Node8&#45;&gt;Node1 -->
<g id="edge9" class="edge"><title>Node8&#45;&gt;Node1</title>
<path fill="none" stroke="#9a32cd" stroke-dasharray="5,2" d="M1052.2,-80.9528C1070.15,-78.611 1090.46,-75.9621 1108.74,-73.5776"/>
<polygon fill="#9a32cd" stroke="#9a32cd" points="1051.68,-77.4909 1042.21,-82.255 1052.58,-84.4321 1051.68,-77.4909"/>
<text text-anchor="middle" x="1075.5" y="-82.5" font-family="Helvetica,sans-Serif" font-size="10.00"> parent</text>
</g>
<!-- Node9&#45;&gt;Node8 -->
<g id="edge10" class="edge"><title>Node9&#45;&gt;Node8</title>
<path fill="none" stroke="midnightblue" d="M933.186,-87.5C942.219,-87.5 951.285,-87.5 959.697,-87.5"/>
<polygon fill="midnightblue" stroke="midnightblue" points="933.039,-84.0001 923.039,-87.5 933.039,-91.0001 933.039,-84.0001"/>
</g>
<!-- Node10 -->
<g id="node10" class="node"><title>Node10</title>
<g id="a_node10"><a xlink:href="classnetwork_1_1Connection.html" target="_top" xlink:title="Abstract service connection. ">
<polygon fill="none" stroke="black" points="634.5,-111 634.5,-130 741.5,-130 741.5,-111 634.5,-111"/>
<text text-anchor="middle" x="688" y="-118" font-family="Helvetica,sans-Serif" font-size="10.00">network::Connection</text>
</a>
</g>
</g>
<!-- Node10&#45;&gt;Node8 -->
<g id="edge13" class="edge"><title>Node10&#45;&gt;Node8</title>
<path fill="none" stroke="#9a32cd" stroke-dasharray="5,2" d="M751.783,-120.859C766.002,-120.676 781.027,-120.274 795,-119.5 852.094,-116.338 866.658,-116.262 923,-106.5 937.11,-104.055 952.463,-100.461 965.721,-97.0549"/>
<polygon fill="#9a32cd" stroke="#9a32cd" points="751.565,-117.361 741.599,-120.956 751.632,-124.361 751.565,-117.361"/>
<text text-anchor="middle" x="868" y="-120.5" font-family="Helvetica,sans-Serif" font-size="10.00"> destination</text>
</g>
<!-- Node10&#45;&gt;Node9 -->
<g id="edge12" class="edge"><title>Node10&#45;&gt;Node9</title>
<path fill="none" stroke="#9a32cd" stroke-dasharray="5,2" d="M750.391,-109.119C771.656,-105.176 795.256,-100.801 815.631,-97.0235"/>
<polygon fill="#9a32cd" stroke="#9a32cd" points="749.679,-105.691 740.485,-110.955 750.955,-112.573 749.679,-105.691"/>
<text text-anchor="middle" x="778.5" y="-110.5" font-family="Helvetica,sans-Serif" font-size="10.00"> source</text>
</g>
</g>
</svg>
