<?xml version="1.0" encoding="UTF-8" standalone="no"?>
<!DOCTYPE svg PUBLIC "-//W3C//DTD SVG 1.1//EN"
 "http://www.w3.org/Graphics/SVG/1.1/DTD/svg11.dtd">
<!-- Generated by graphviz version 2.38.0 (20140413.2041)
 -->
<!-- Title: handler::HandlerContainer Pages: 1 -->
<svg width="919pt" height="1044pt"
 viewBox="0.00 0.00 919.00 1044.00" xmlns="http://www.w3.org/2000/svg" xmlns:xlink="http://www.w3.org/1999/xlink">
<g id="graph0" class="graph" transform="scale(1 1) rotate(0) translate(4 1040)">
<title>handler::HandlerContainer</title>
<!-- Node1 -->
<g id="node1" class="node"><title>Node1</title>
<polygon fill="#bfbfbf" stroke="black" points="0,-788.5 0,-807.5 130,-807.5 130,-788.5 0,-788.5"/>
<text text-anchor="middle" x="65" y="-795.5" font-family="Helvetica,sans-Serif" font-size="10.00">handler::HandlerContainer</text>
</g>
<!-- Node2 -->
<g id="node2" class="node"><title>Node2</title>
<g id="a_node2"><a xlink:href="classhandler_1_1Handler.html" target="_top" xlink:title="Message handler abstract base class. ">
<polygon fill="none" stroke="black" points="166,-807.5 166,-826.5 254,-826.5 254,-807.5 166,-807.5"/>
<text text-anchor="middle" x="210" y="-814.5" font-family="Helvetica,sans-Serif" font-size="10.00">handler::Handler</text>
</a>
</g>
</g>
<!-- Node1&#45;&gt;Node2 -->
<g id="edge1" class="edge"><title>Node1&#45;&gt;Node2</title>
<path fill="none" stroke="midnightblue" d="M140.555,-807.906C149.218,-809.057 157.821,-810.2 165.854,-811.267"/>
<polygon fill="midnightblue" stroke="midnightblue" points="140.762,-804.403 130.388,-806.555 139.84,-811.342 140.762,-804.403"/>
</g>
<!-- Node48 -->
<g id="node48" class="node"><title>Node48</title>
<g id="a_node48"><a xlink:href="classMelanobot.html" target="_top" xlink:title="Main bot class. ">
<polygon fill="none" stroke="black" points="179,-769.5 179,-788.5 241,-788.5 241,-769.5 179,-769.5"/>
<text text-anchor="middle" x="210" y="-776.5" font-family="Helvetica,sans-Serif" font-size="10.00">Melanobot</text>
</a>
</g>
</g>
<!-- Node1&#45;&gt;Node48 -->
<g id="edge47" class="edge"><title>Node1&#45;&gt;Node48</title>
<path fill="none" stroke="midnightblue" d="M140.325,-788.125C153.977,-786.311 167.491,-784.515 178.873,-783.003"/>
<polygon fill="midnightblue" stroke="midnightblue" points="139.84,-784.658 130.388,-789.445 140.762,-791.597 139.84,-784.658"/>
</g>
<!-- Node3 -->
<g id="node3" class="node"><title>Node3</title>
<g id="a_node3"><a xlink:href="classhandler_1_1AcceptInvite.html" target="_top" xlink:title="Makes the bot join channels (IRC) ">
<polygon fill="none" stroke="black" points="301,-997.5 301,-1016.5 410,-1016.5 410,-997.5 301,-997.5"/>
<text text-anchor="middle" x="355.5" y="-1004.5" font-family="Helvetica,sans-Serif" font-size="10.00">handler::AcceptInvite</text>
</a>
</g>
</g>
<!-- Node2&#45;&gt;Node3 -->
<g id="edge2" class="edge"><title>Node2&#45;&gt;Node3</title>
<path fill="none" stroke="midnightblue" d="M214.62,-836.918C222.148,-872.558 242.873,-947.308 290,-988 294.506,-991.891 299.777,-994.986 305.329,-997.447"/>
<polygon fill="midnightblue" stroke="midnightblue" points="217.996,-835.945 212.624,-826.813 211.129,-837.302 217.996,-835.945"/>
</g>
<!-- Node4 -->
<g id="node4" class="node"><title>Node4</title>
<g id="a_node4"><a xlink:href="classhandler_1_1AnswerQuestions.html" target="_top" xlink:title="Answers direct questions. ">
<polygon fill="none" stroke="black" points="290,-959.5 290,-978.5 421,-978.5 421,-959.5 290,-959.5"/>
<text text-anchor="middle" x="355.5" y="-966.5" font-family="Helvetica,sans-Serif" font-size="10.00">handler::AnswerQuestions</text>
</a>
</g>
</g>
<!-- Node2&#45;&gt;Node4 -->
<g id="edge3" class="edge"><title>Node2&#45;&gt;Node4</title>
<path fill="none" stroke="midnightblue" d="M217.351,-836.503C227.816,-865.571 251.453,-920.044 290,-950 294.977,-953.868 300.725,-956.95 306.696,-959.405"/>
<polygon fill="midnightblue" stroke="midnightblue" points="220.544,-835.027 213.981,-826.71 213.925,-837.305 220.544,-835.027"/>
</g>
<!-- Node5 -->
<g id="node5" class="node"><title>Node5</title>
<g id="a_node5"><a xlink:href="classhandler_1_1Chanhax.html" target="_top" xlink:title="Makes the bot reconnect. ">
<polygon fill="none" stroke="black" points="309,-921.5 309,-940.5 402,-940.5 402,-921.5 309,-921.5"/>
<text text-anchor="middle" x="355.5" y="-928.5" font-family="Helvetica,sans-Serif" font-size="10.00">handler::Chanhax</text>
</a>
</g>
</g>
<!-- Node2&#45;&gt;Node5 -->
<g id="edge4" class="edge"><title>Node2&#45;&gt;Node5</title>
<path fill="none" stroke="midnightblue" d="M221.652,-835.517C234.955,-857.016 259.694,-892.067 290,-912 295.852,-915.849 302.504,-918.937 309.259,-921.41"/>
<polygon fill="midnightblue" stroke="midnightblue" points="224.509,-833.475 216.366,-826.696 218.504,-837.073 224.509,-833.475"/>
</g>
<!-- Node6 -->
<g id="node6" class="node"><title>Node6</title>
<g id="a_node6"><a xlink:href="classhandler_1_1CtcpBase.html" target="_top" xlink:title="Base class for handling CTCP requests. ">
<polygon fill="none" stroke="black" points="306.5,-883.5 306.5,-902.5 404.5,-902.5 404.5,-883.5 306.5,-883.5"/>
<text text-anchor="middle" x="355.5" y="-890.5" font-family="Helvetica,sans-Serif" font-size="10.00">handler::CtcpBase</text>
</a>
</g>
</g>
<!-- Node2&#45;&gt;Node6 -->
<g id="edge5" class="edge"><title>Node2&#45;&gt;Node6</title>
<path fill="none" stroke="midnightblue" d="M229.424,-833.081C244.738,-845.734 267.576,-863.009 290,-874 297.547,-877.699 305.951,-880.821 314.133,-883.397"/>
<polygon fill="midnightblue" stroke="midnightblue" points="231.64,-830.371 221.74,-826.596 227.125,-835.72 231.64,-830.371"/>
</g>
<!-- Node13 -->
<g id="node13" class="node"><title>Node13</title>
<g id="a_node13"><a xlink:href="classhandler_1_1FilterGroup.html" target="_top" xlink:title="Discards messages coming from certain users. ">
<polygon fill="none" stroke="black" points="304.5,-845.5 304.5,-864.5 406.5,-864.5 406.5,-845.5 304.5,-845.5"/>
<text text-anchor="middle" x="355.5" y="-852.5" font-family="Helvetica,sans-Serif" font-size="10.00">handler::FilterGroup</text>
</a>
</g>
</g>
<!-- Node2&#45;&gt;Node13 -->
<g id="edge12" class="edge"><title>Node2&#45;&gt;Node13</title>
<path fill="none" stroke="midnightblue" d="M256.973,-829.174C276.816,-834.429 299.693,-840.487 318.3,-845.414"/>
<polygon fill="midnightblue" stroke="midnightblue" points="257.774,-825.766 247.211,-826.589 255.982,-832.532 257.774,-825.766"/>
</g>
<!-- Node14 -->
<g id="node14" class="node"><title>Node14</title>
<g id="a_node14"><a xlink:href="classhandler_1_1IrcJoinMessage.html" target="_top" xlink:title="Prints a message when a user joins a channel. ">
<polygon fill="none" stroke="black" points="294,-807.5 294,-826.5 417,-826.5 417,-807.5 294,-807.5"/>
<text text-anchor="middle" x="355.5" y="-814.5" font-family="Helvetica,sans-Serif" font-size="10.00">handler::IrcJoinMessage</text>
</a>
</g>
</g>
<!-- Node2&#45;&gt;Node14 -->
<g id="edge13" class="edge"><title>Node2&#45;&gt;Node14</title>
<path fill="none" stroke="midnightblue" d="M264.315,-817C273.977,-817 284.117,-817 293.968,-817"/>
<polygon fill="midnightblue" stroke="midnightblue" points="264.055,-813.5 254.055,-817 264.055,-820.5 264.055,-813.5"/>
</g>
<!-- Node15 -->
<g id="node15" class="node"><title>Node15</title>
<g id="a_node15"><a xlink:href="classhandler_1_1QGetWhois.html" target="_top" xlink:title="Parses responses from Q WHOIS and USER (IRC) ">
<polygon fill="none" stroke="black" points="303,-769.5 303,-788.5 408,-788.5 408,-769.5 303,-769.5"/>
<text text-anchor="middle" x="355.5" y="-776.5" font-family="Helvetica,sans-Serif" font-size="10.00">handler::QGetWhois</text>
</a>
</g>
</g>
<!-- Node2&#45;&gt;Node15 -->
<g id="edge14" class="edge"><title>Node2&#45;&gt;Node15</title>
<path fill="none" stroke="midnightblue" d="M256.973,-804.826C276.816,-799.571 299.693,-793.513 318.3,-788.586"/>
<polygon fill="midnightblue" stroke="midnightblue" points="255.982,-801.468 247.211,-807.411 257.774,-808.234 255.982,-801.468"/>
</g>
<!-- Node16 -->
<g id="node16" class="node"><title>Node16</title>
<g id="a_node16"><a xlink:href="classhandler_1_1QSendWhois.html" target="_top" xlink:title="Asks Q for WHOIS or USERS information when a user joins a channel (IRC) ">
<polygon fill="none" stroke="black" points="299.5,-731.5 299.5,-750.5 411.5,-750.5 411.5,-731.5 299.5,-731.5"/>
<text text-anchor="middle" x="355.5" y="-738.5" font-family="Helvetica,sans-Serif" font-size="10.00">handler::QSendWhois</text>
</a>
</g>
</g>
<!-- Node2&#45;&gt;Node16 -->
<g id="edge15" class="edge"><title>Node2&#45;&gt;Node16</title>
<path fill="none" stroke="midnightblue" d="M246.451,-802.727C249.076,-801.253 251.624,-799.676 254,-798 273.012,-784.592 270.16,-772.149 290,-760 296.272,-756.159 303.363,-753.058 310.491,-750.566"/>
<polygon fill="midnightblue" stroke="midnightblue" points="244.701,-799.69 237.363,-807.332 247.865,-805.934 244.701,-799.69"/>
</g>
<!-- Node17 -->
<g id="node17" class="node"><title>Node17</title>
<g id="a_node17"><a xlink:href="classhandler_1_1Reply.html" target="_top" xlink:title="Fixed reply. ">
<polygon fill="none" stroke="black" points="315.5,-693.5 315.5,-712.5 395.5,-712.5 395.5,-693.5 315.5,-693.5"/>
<text text-anchor="middle" x="355.5" y="-700.5" font-family="Helvetica,sans-Serif" font-size="10.00">handler::Reply</text>
</a>
</g>
</g>
<!-- Node2&#45;&gt;Node17 -->
<g id="edge16" class="edge"><title>Node2&#45;&gt;Node17</title>
<path fill="none" stroke="midnightblue" d="M249.33,-801.949C250.984,-800.724 252.553,-799.409 254,-798 280.774,-771.921 261.594,-746.29 290,-722 297.187,-715.855 306.283,-711.696 315.36,-708.882"/>
<polygon fill="midnightblue" stroke="midnightblue" points="247.218,-799.138 240.523,-807.348 250.877,-805.105 247.218,-799.138"/>
</g>
<!-- Node18 -->
<g id="node18" class="node"><title>Node18</title>
<g id="a_node18"><a xlink:href="classhandler_1_1SimpleAction.html" target="_top" xlink:title="A simple action sends a message to the same connection it came from. ">
<polygon fill="none" stroke="black" points="299.5,-465.5 299.5,-484.5 411.5,-484.5 411.5,-465.5 299.5,-465.5"/>
<text text-anchor="middle" x="355.5" y="-472.5" font-family="Helvetica,sans-Serif" font-size="10.00">handler::SimpleAction</text>
</a>
</g>
</g>
<!-- Node2&#45;&gt;Node18 -->
<g id="edge17" class="edge"><title>Node2&#45;&gt;Node18</title>
<path fill="none" stroke="midnightblue" d="M250.237,-801.646C251.579,-800.512 252.842,-799.298 254,-798 255.402,-796.428 335.06,-538.085 351.537,-484.616"/>
<polygon fill="midnightblue" stroke="midnightblue" points="248.18,-798.812 241.853,-807.31 252.099,-804.612 248.18,-798.812"/>
</g>
<!-- Node47 -->
<g id="node47" class="node"><title>Node47</title>
<g id="a_node47"><a xlink:href="classhandler_1_1Whois330.html" target="_top" xlink:title="Sets the global id based on a 330 reply from whois (IRC) ">
<polygon fill="none" stroke="black" points="306.5,-427.5 306.5,-446.5 404.5,-446.5 404.5,-427.5 306.5,-427.5"/>
<text text-anchor="middle" x="355.5" y="-434.5" font-family="Helvetica,sans-Serif" font-size="10.00">handler::Whois330</text>
</a>
</g>
</g>
<!-- Node2&#45;&gt;Node47 -->
<g id="edge46" class="edge"><title>Node2&#45;&gt;Node47</title>
<path fill="none" stroke="midnightblue" d="M251.436,-801.051C252.357,-800.092 253.216,-799.076 254,-798 344.021,-674.484 192.17,-573.428 290,-456 294.334,-450.798 300.015,-446.978 306.21,-444.18"/>
<polygon fill="midnightblue" stroke="midnightblue" points="249.1,-798.435 243.375,-807.349 253.41,-803.951 249.1,-798.435"/>
</g>
<!-- Node7 -->
<g id="node7" class="node"><title>Node7</title>
<g id="a_node7"><a xlink:href="classhandler_1_1CtcpClientInfo.html" target="_top" xlink:title="Shows help about other CTCP handlers. ">
<polygon fill="none" stroke="black" points="463,-1016.5 463,-1035.5 580,-1035.5 580,-1016.5 463,-1016.5"/>
<text text-anchor="middle" x="521.5" y="-1023.5" font-family="Helvetica,sans-Serif" font-size="10.00">handler::CtcpClientInfo</text>
</a>
</g>
</g>
<!-- Node6&#45;&gt;Node7 -->
<g id="edge6" class="edge"><title>Node6&#45;&gt;Node7</title>
<path fill="none" stroke="midnightblue" d="M413.558,-906.334C416.215,-908.006 418.719,-909.886 421,-912 454.114,-942.695 423.952,-976.234 457,-1007 461.127,-1010.84 466.001,-1013.91 471.184,-1016.36"/>
<polygon fill="midnightblue" stroke="midnightblue" points="415.123,-903.203 404.639,-901.674 411.881,-909.407 415.123,-903.203"/>
</g>
<!-- Node8 -->
<g id="node8" class="node"><title>Node8</title>
<g id="a_node8"><a xlink:href="classhandler_1_1CtcpPing.html" target="_top" xlink:title="CTCP PING reply, Used to measure round&#45;trip message delays. ">
<polygon fill="none" stroke="black" points="474,-978.5 474,-997.5 569,-997.5 569,-978.5 474,-978.5"/>
<text text-anchor="middle" x="521.5" y="-985.5" font-family="Helvetica,sans-Serif" font-size="10.00">handler::CtcpPing</text>
</a>
</g>
</g>
<!-- Node6&#45;&gt;Node8 -->
<g id="edge7" class="edge"><title>Node6&#45;&gt;Node8</title>
<path fill="none" stroke="midnightblue" d="M413.074,-906.911C415.855,-908.435 418.519,-910.125 421,-912 444.908,-930.061 433.131,-950.888 457,-969 462.133,-972.895 468.06,-975.996 474.186,-978.462"/>
<polygon fill="midnightblue" stroke="midnightblue" points="414.412,-903.673 403.873,-902.588 411.436,-910.009 414.412,-903.673"/>
</g>
<!-- Node9 -->
<g id="node9" class="node"><title>Node9</title>
<g id="a_node9"><a xlink:href="classhandler_1_1CtcpSource.html" target="_top" xlink:title="CTCP SOURCE reply, shows a URL with the sources. ">
<polygon fill="none" stroke="black" points="468.5,-940.5 468.5,-959.5 574.5,-959.5 574.5,-940.5 468.5,-940.5"/>
<text text-anchor="middle" x="521.5" y="-947.5" font-family="Helvetica,sans-Serif" font-size="10.00">handler::CtcpSource</text>
</a>
</g>
</g>
<!-- Node6&#45;&gt;Node9 -->
<g id="edge8" class="edge"><title>Node6&#45;&gt;Node9</title>
<path fill="none" stroke="midnightblue" d="M402.985,-905.482C409.109,-907.478 415.251,-909.664 421,-912 437.76,-918.812 440.254,-924.152 457,-931 465.627,-934.528 475.152,-937.726 484.143,-940.449"/>
<polygon fill="midnightblue" stroke="midnightblue" points="404.023,-902.139 393.434,-902.506 401.94,-908.822 404.023,-902.139"/>
</g>
<!-- Node10 -->
<g id="node10" class="node"><title>Node10</title>
<g id="a_node10"><a xlink:href="classhandler_1_1CtcpTime.html" target="_top" xlink:title="CTCP TIME reply, Shows the local time. ">
<polygon fill="none" stroke="black" points="473,-902.5 473,-921.5 570,-921.5 570,-902.5 473,-902.5"/>
<text text-anchor="middle" x="521.5" y="-909.5" font-family="Helvetica,sans-Serif" font-size="10.00">handler::CtcpTime</text>
</a>
</g>
</g>
<!-- Node6&#45;&gt;Node10 -->
<g id="edge9" class="edge"><title>Node6&#45;&gt;Node10</title>
<path fill="none" stroke="midnightblue" d="M414.853,-899.76C433.847,-901.961 454.691,-904.376 472.81,-906.475"/>
<polygon fill="midnightblue" stroke="midnightblue" points="415.155,-896.272 404.818,-898.598 414.349,-903.226 415.155,-896.272"/>
</g>
<!-- Node11 -->
<g id="node11" class="node"><title>Node11</title>
<g id="a_node11"><a xlink:href="classhandler_1_1CtcpUserInfo.html" target="_top" xlink:title="CTCP USERINFO reply, shows a user&#45;defined string. ">
<polygon fill="none" stroke="black" points="465,-864.5 465,-883.5 578,-883.5 578,-864.5 465,-864.5"/>
<text text-anchor="middle" x="521.5" y="-871.5" font-family="Helvetica,sans-Serif" font-size="10.00">handler::CtcpUserInfo</text>
</a>
</g>
</g>
<!-- Node6&#45;&gt;Node11 -->
<g id="edge10" class="edge"><title>Node6&#45;&gt;Node11</title>
<path fill="none" stroke="midnightblue" d="M415.202,-886.199C431.334,-884.33 448.779,-882.309 464.741,-880.46"/>
<polygon fill="midnightblue" stroke="midnightblue" points="414.349,-882.774 404.818,-887.402 415.155,-889.728 414.349,-882.774"/>
</g>
<!-- Node12 -->
<g id="node12" class="node"><title>Node12</title>
<g id="a_node12"><a xlink:href="classhandler_1_1CtcpVersion.html" target="_top" xlink:title="CTCP VERSION reply, shows a pre&#45;formatted version string. ">
<polygon fill="none" stroke="black" points="467.5,-826.5 467.5,-845.5 575.5,-845.5 575.5,-826.5 467.5,-826.5"/>
<text text-anchor="middle" x="521.5" y="-833.5" font-family="Helvetica,sans-Serif" font-size="10.00">handler::CtcpVersion</text>
</a>
</g>
</g>
<!-- Node6&#45;&gt;Node12 -->
<g id="edge11" class="edge"><title>Node6&#45;&gt;Node12</title>
<path fill="none" stroke="midnightblue" d="M402.985,-880.518C409.109,-878.522 415.251,-876.336 421,-874 437.76,-867.188 440.254,-861.848 457,-855 465.627,-851.472 475.152,-848.274 484.143,-845.551"/>
<polygon fill="midnightblue" stroke="midnightblue" points="401.94,-877.178 393.434,-883.494 404.023,-883.861 401.94,-877.178"/>
</g>
<!-- Node19 -->
<g id="node19" class="node"><title>Node19</title>
<g id="a_node19"><a xlink:href="classhandler_1_1AdminJoin.html" target="_top" xlink:title="Makes the bot join channels (IRC) ">
<polygon fill="none" stroke="black" points="471.5,-788.5 471.5,-807.5 571.5,-807.5 571.5,-788.5 471.5,-788.5"/>
<text text-anchor="middle" x="521.5" y="-795.5" font-family="Helvetica,sans-Serif" font-size="10.00">handler::AdminJoin</text>
</a>
</g>
</g>
<!-- Node18&#45;&gt;Node19 -->
<g id="edge18" class="edge"><title>Node18&#45;&gt;Node19</title>
<path fill="none" stroke="midnightblue" d="M362.435,-494.606C382.367,-560.217 446.26,-768.563 457,-779 461.126,-783.01 466.063,-786.178 471.336,-788.681"/>
<polygon fill="midnightblue" stroke="midnightblue" points="365.688,-493.272 359.436,-484.718 358.989,-495.304 365.688,-493.272"/>
</g>
<!-- Node20 -->
<g id="node20" class="node"><title>Node20</title>
<g id="a_node20"><a xlink:href="classhandler_1_1AdminNick.html" target="_top" xlink:title="Changes the bot nick (IRC) ">
<polygon fill="none" stroke="black" points="470.5,-750.5 470.5,-769.5 572.5,-769.5 572.5,-750.5 470.5,-750.5"/>
<text text-anchor="middle" x="521.5" y="-757.5" font-family="Helvetica,sans-Serif" font-size="10.00">handler::AdminNick</text>
</a>
</g>
</g>
<!-- Node18&#45;&gt;Node20 -->
<g id="edge19" class="edge"><title>Node18&#45;&gt;Node20</title>
<path fill="none" stroke="midnightblue" d="M361.485,-494.601C375.925,-549.957 419.157,-705.735 457,-741 461.125,-744.844 465.997,-747.913 471.18,-750.362"/>
<polygon fill="midnightblue" stroke="midnightblue" points="364.809,-493.472 358.922,-484.663 358.03,-495.22 364.809,-493.472"/>
</g>
<!-- Node21 -->
<g id="node21" class="node"><title>Node21</title>
<g id="a_node21"><a xlink:href="classhandler_1_1AdminPart.html" target="_top" xlink:title="Makes the bot part channels (IRC) ">
<polygon fill="none" stroke="black" points="471.5,-712.5 471.5,-731.5 571.5,-731.5 571.5,-712.5 471.5,-712.5"/>
<text text-anchor="middle" x="521.5" y="-719.5" font-family="Helvetica,sans-Serif" font-size="10.00">handler::AdminPart</text>
</a>
</g>
</g>
<!-- Node18&#45;&gt;Node21 -->
<g id="edge20" class="edge"><title>Node18&#45;&gt;Node21</title>
<path fill="none" stroke="midnightblue" d="M359.556,-494.988C367.377,-539.194 392.261,-645.854 457,-703 461.4,-706.884 466.567,-709.974 472.021,-712.433"/>
<polygon fill="midnightblue" stroke="midnightblue" points="362.978,-494.229 357.887,-484.937 356.073,-495.376 362.978,-494.229"/>
</g>
<!-- Node22 -->
<g id="node22" class="node"><title>Node22</title>
<g id="a_node22"><a xlink:href="classhandler_1_1AdminQuit.html" target="_top" xlink:title="Quits the bot. ">
<polygon fill="none" stroke="black" points="471.5,-674.5 471.5,-693.5 571.5,-693.5 571.5,-674.5 471.5,-674.5"/>
<text text-anchor="middle" x="521.5" y="-681.5" font-family="Helvetica,sans-Serif" font-size="10.00">handler::AdminQuit</text>
</a>
</g>
</g>
<!-- Node18&#45;&gt;Node22 -->
<g id="edge21" class="edge"><title>Node18&#45;&gt;Node22</title>
<path fill="none" stroke="midnightblue" d="M361.357,-494.491C371.955,-532.952 400.828,-618.875 457,-665 461.713,-668.87 467.197,-671.953 472.93,-674.407"/>
<polygon fill="midnightblue" stroke="midnightblue" points="364.676,-493.351 358.744,-484.572 357.907,-495.134 364.676,-493.351"/>
</g>
<!-- Node23 -->
<g id="node23" class="node"><title>Node23</title>
<g id="a_node23"><a xlink:href="classhandler_1_1AdminRaw.html" target="_top" xlink:title="Makes the bot execute a raw command (IRC) ">
<polygon fill="none" stroke="black" points="470.5,-636.5 470.5,-655.5 572.5,-655.5 572.5,-636.5 470.5,-636.5"/>
<text text-anchor="middle" x="521.5" y="-643.5" font-family="Helvetica,sans-Serif" font-size="10.00">handler::AdminRaw</text>
</a>
</g>
</g>
<!-- Node18&#45;&gt;Node23 -->
<g id="edge22" class="edge"><title>Node18&#45;&gt;Node23</title>
<path fill="none" stroke="midnightblue" d="M363.947,-494.088C377.508,-526.348 409.306,-591.588 457,-627 462.266,-630.91 468.335,-634.021 474.589,-636.494"/>
<polygon fill="midnightblue" stroke="midnightblue" points="367.059,-492.449 360.051,-484.503 360.574,-495.085 367.059,-492.449"/>
</g>
<!-- Node24 -->
<g id="node24" class="node"><title>Node24</title>
<g id="a_node24"><a xlink:href="classhandler_1_1AdminReconnect.html" target="_top" xlink:title="Makes the bot reconnect. ">
<polygon fill="none" stroke="black" points="457,-598.5 457,-617.5 586,-617.5 586,-598.5 457,-598.5"/>
<text text-anchor="middle" x="521.5" y="-605.5" font-family="Helvetica,sans-Serif" font-size="10.00">handler::AdminReconnect</text>
</a>
</g>
</g>
<!-- Node18&#45;&gt;Node24 -->
<g id="edge23" class="edge"><title>Node18&#45;&gt;Node24</title>
<path fill="none" stroke="midnightblue" d="M367.725,-493.15C384.224,-518.337 417.397,-563.644 457,-589 463.008,-592.847 469.831,-595.945 476.721,-598.431"/>
<polygon fill="midnightblue" stroke="midnightblue" points="370.573,-491.107 362.239,-484.565 364.674,-494.876 370.573,-491.107"/>
</g>
<!-- Node25 -->
<g id="node25" class="node"><title>Node25</title>
<g id="a_node25"><a xlink:href="classhandler_1_1Cointoss.html" target="_top" xlink:title="Shows one of the given items, at random. ">
<polygon fill="none" stroke="black" points="475,-560.5 475,-579.5 568,-579.5 568,-560.5 475,-560.5"/>
<text text-anchor="middle" x="521.5" y="-567.5" font-family="Helvetica,sans-Serif" font-size="10.00">handler::Cointoss</text>
</a>
</g>
</g>
<!-- Node18&#45;&gt;Node25 -->
<g id="edge24" class="edge"><title>Node18&#45;&gt;Node25</title>
<path fill="none" stroke="midnightblue" d="M374.098,-491.453C393.19,-508.511 425.216,-534.891 457,-551 464.39,-554.746 472.646,-557.887 480.697,-560.468"/>
<polygon fill="midnightblue" stroke="midnightblue" points="376.268,-488.696 366.515,-484.557 371.558,-493.874 376.268,-488.696"/>
</g>
<!-- Node26 -->
<g id="node26" class="node"><title>Node26</title>
<g id="a_node26"><a xlink:href="classhandler_1_1Echo.html" target="_top" xlink:title="Just repeat what it has been told. ">
<polygon fill="none" stroke="black" points="483,-522.5 483,-541.5 560,-541.5 560,-522.5 483,-522.5"/>
<text text-anchor="middle" x="521.5" y="-529.5" font-family="Helvetica,sans-Serif" font-size="10.00">handler::Echo</text>
</a>
</g>
</g>
<!-- Node18&#45;&gt;Node26 -->
<g id="edge25" class="edge"><title>Node18&#45;&gt;Node26</title>
<path fill="none" stroke="midnightblue" d="M389.64,-488.206C409.131,-495.803 434.325,-505.332 457,-513 466.702,-516.281 477.333,-519.577 487.074,-522.481"/>
<polygon fill="midnightblue" stroke="midnightblue" points="390.877,-484.932 380.29,-484.539 388.322,-491.449 390.877,-484.932"/>
</g>
<!-- Node27 -->
<g id="node27" class="node"><title>Node27</title>
<g id="a_node27"><a xlink:href="classhandler_1_1Help.html" target="_top" xlink:title="Handler showing help on the available handlers. ">
<polygon fill="none" stroke="black" points="484.5,-484.5 484.5,-503.5 558.5,-503.5 558.5,-484.5 484.5,-484.5"/>
<text text-anchor="middle" x="521.5" y="-491.5" font-family="Helvetica,sans-Serif" font-size="10.00">handler::Help</text>
</a>
</g>
</g>
<!-- Node18&#45;&gt;Node27 -->
<g id="edge26" class="edge"><title>Node18&#45;&gt;Node27</title>
<path fill="none" stroke="midnightblue" d="M421.583,-482.54C442.972,-485.018 465.966,-487.682 484.397,-489.817"/>
<polygon fill="midnightblue" stroke="midnightblue" points="421.902,-479.054 411.566,-481.38 421.097,-486.007 421.902,-479.054"/>
</g>
<!-- Node28 -->
<g id="node28" class="node"><title>Node28</title>
<g id="a_node28"><a xlink:href="classhandler_1_1License.html" target="_top" xlink:title="Handler showing licensing information. ">
<polygon fill="none" stroke="black" points="477.5,-446.5 477.5,-465.5 565.5,-465.5 565.5,-446.5 477.5,-446.5"/>
<text text-anchor="middle" x="521.5" y="-453.5" font-family="Helvetica,sans-Serif" font-size="10.00">handler::License</text>
</a>
</g>
</g>
<!-- Node18&#45;&gt;Node28 -->
<g id="edge27" class="edge"><title>Node18&#45;&gt;Node28</title>
<path fill="none" stroke="midnightblue" d="M421.515,-467.468C440.235,-465.299 460.189,-462.987 477.242,-461.012"/>
<polygon fill="midnightblue" stroke="midnightblue" points="421.097,-463.993 411.566,-468.62 421.902,-470.946 421.097,-463.993"/>
</g>
<!-- Node29 -->
<g id="node29" class="node"><title>Node29</title>
<g id="a_node29"><a xlink:href="classhandler_1_1ListClear.html" target="_top" xlink:title="Used by AbstractList to remove all elements. ">
<polygon fill="none" stroke="black" points="475,-408.5 475,-427.5 568,-427.5 568,-408.5 475,-408.5"/>
<text text-anchor="middle" x="521.5" y="-415.5" font-family="Helvetica,sans-Serif" font-size="10.00">handler::ListClear</text>
</a>
</g>
</g>
<!-- Node18&#45;&gt;Node29 -->
<g id="edge28" class="edge"><title>Node18&#45;&gt;Node29</title>
<path fill="none" stroke="midnightblue" d="M402.985,-462.518C409.109,-460.522 415.251,-458.336 421,-456 437.76,-449.188 440.254,-443.848 457,-437 465.627,-433.472 475.152,-430.274 484.143,-427.551"/>
<polygon fill="midnightblue" stroke="midnightblue" points="401.94,-459.178 393.434,-465.494 404.023,-465.861 401.94,-459.178"/>
</g>
<!-- Node30 -->
<g id="node30" class="node"><title>Node30</title>
<g id="a_node30"><a xlink:href="classhandler_1_1ListInsert.html" target="_top" xlink:title="Used by AbstractList to add elements. ">
<polygon fill="none" stroke="black" points="474,-370.5 474,-389.5 569,-389.5 569,-370.5 474,-370.5"/>
<text text-anchor="middle" x="521.5" y="-377.5" font-family="Helvetica,sans-Serif" font-size="10.00">handler::ListInsert</text>
</a>
</g>
</g>
<!-- Node18&#45;&gt;Node30 -->
<g id="edge29" class="edge"><title>Node18&#45;&gt;Node30</title>
<path fill="none" stroke="midnightblue" d="M413.074,-461.089C415.855,-459.565 418.519,-457.875 421,-456 444.908,-437.939 433.131,-417.112 457,-399 462.133,-395.105 468.06,-392.004 474.186,-389.538"/>
<polygon fill="midnightblue" stroke="midnightblue" points="411.436,-457.991 403.873,-465.412 414.412,-464.327 411.436,-457.991"/>
</g>
<!-- Node31 -->
<g id="node31" class="node"><title>Node31</title>
<g id="a_node31"><a xlink:href="classhandler_1_1ListRemove.html" target="_top" xlink:title="Used by AbstractList to remove elements. ">
<polygon fill="none" stroke="black" points="468,-332.5 468,-351.5 575,-351.5 575,-332.5 468,-332.5"/>
<text text-anchor="middle" x="521.5" y="-339.5" font-family="Helvetica,sans-Serif" font-size="10.00">handler::ListRemove</text>
</a>
</g>
</g>
<!-- Node18&#45;&gt;Node31 -->
<g id="edge30" class="edge"><title>Node18&#45;&gt;Node31</title>
<path fill="none" stroke="midnightblue" d="M415.542,-460.358C417.467,-459.029 419.296,-457.58 421,-456 454.114,-425.305 423.952,-391.766 457,-361 461.127,-357.158 466.001,-354.091 471.184,-351.642"/>
<polygon fill="midnightblue" stroke="midnightblue" points="413.55,-457.464 406.587,-465.449 417.01,-463.549 413.55,-457.464"/>
</g>
<!-- Node32 -->
<g id="node32" class="node"><title>Node32</title>
<g id="a_node32"><a xlink:href="classhandler_1_1Morse.html" target="_top" xlink:title="Handler translating between morse and latin. ">
<polygon fill="none" stroke="black" points="481,-294.5 481,-313.5 562,-313.5 562,-294.5 481,-294.5"/>
<text text-anchor="middle" x="521.5" y="-301.5" font-family="Helvetica,sans-Serif" font-size="10.00">handler::Morse</text>
</a>
</g>
</g>
<!-- Node18&#45;&gt;Node32 -->
<g id="edge31" class="edge"><title>Node18&#45;&gt;Node32</title>
<path fill="none" stroke="midnightblue" d="M416.487,-460.003C418.081,-458.771 419.592,-457.44 421,-456 463.82,-412.222 414.273,-366.87 457,-323 463.423,-316.405 472.033,-312.077 480.835,-309.242"/>
<polygon fill="midnightblue" stroke="midnightblue" points="414.537,-457.095 407.921,-465.37 418.253,-463.027 414.537,-457.095"/>
</g>
<!-- Node33 -->
<g id="node33" class="node"><title>Node33</title>
<g id="a_node33"><a xlink:href="classhandler_1_1RenderPony.html" target="_top" xlink:title="Draws a pretty My Little Pony ASCII art. ">
<polygon fill="none" stroke="black" points="467.5,-256.5 467.5,-275.5 575.5,-275.5 575.5,-256.5 467.5,-256.5"/>
<text text-anchor="middle" x="521.5" y="-263.5" font-family="Helvetica,sans-Serif" font-size="10.00">handler::RenderPony</text>
</a>
</g>
</g>
<!-- Node18&#45;&gt;Node33 -->
<g id="edge32" class="edge"><title>Node18&#45;&gt;Node33</title>
<path fill="none" stroke="midnightblue" d="M417.076,-459.712C418.462,-458.562 419.775,-457.326 421,-456 473.707,-398.957 404.414,-342.156 457,-285 460.584,-281.105 464.93,-277.996 469.649,-275.516"/>
<polygon fill="midnightblue" stroke="midnightblue" points="414.863,-456.98 408.456,-465.418 418.727,-462.817 414.863,-456.98"/>
</g>
<!-- Node34 -->
<g id="node34" class="node"><title>Node34</title>
<g id="a_node34"><a xlink:href="classhandler_1_1ReverseText.html" target="_top" xlink:title="Turns ASCII characters upside&#45;down. ">
<polygon fill="none" stroke="black" points="466.5,-218.5 466.5,-237.5 576.5,-237.5 576.5,-218.5 466.5,-218.5"/>
<text text-anchor="middle" x="521.5" y="-225.5" font-family="Helvetica,sans-Serif" font-size="10.00">handler::ReverseText</text>
</a>
</g>
</g>
<!-- Node18&#45;&gt;Node34 -->
<g id="edge33" class="edge"><title>Node18&#45;&gt;Node34</title>
<path fill="none" stroke="midnightblue" d="M417.233,-459.694C418.565,-458.548 419.826,-457.319 421,-456 483.678,-385.602 394.473,-317.531 457,-247 460.435,-243.125 464.625,-240.026 469.197,-237.548"/>
<polygon fill="midnightblue" stroke="midnightblue" points="415.191,-456.85 408.912,-465.383 419.142,-462.628 415.191,-456.85"/>
</g>
<!-- Node35 -->
<g id="node35" class="node"><title>Node35</title>
<g id="a_node35"><a xlink:href="classhandler_1_1ServerHost.html" target="_top" xlink:title="Shows the server the bot is connected to. ">
<polygon fill="none" stroke="black" points="469.5,-180.5 469.5,-199.5 573.5,-199.5 573.5,-180.5 469.5,-180.5"/>
<text text-anchor="middle" x="521.5" y="-187.5" font-family="Helvetica,sans-Serif" font-size="10.00">handler::ServerHost</text>
</a>
</g>
</g>
<!-- Node18&#45;&gt;Node35 -->
<g id="edge34" class="edge"><title>Node18&#45;&gt;Node35</title>
<path fill="none" stroke="midnightblue" d="M417.278,-459.734C418.598,-458.576 419.843,-457.334 421,-456 493.693,-372.197 384.486,-292.957 457,-209 460.46,-204.994 464.727,-201.814 469.399,-199.293"/>
<polygon fill="midnightblue" stroke="midnightblue" points="415.231,-456.894 409.014,-465.474 419.224,-462.643 415.231,-456.894"/>
</g>
<!-- Node36 -->
<g id="node36" class="node"><title>Node36</title>
<g id="a_node36"><a xlink:href="classhandler_1_1SimpleGroup.html" target="_top" xlink:title="A simple group of actions which share settings. ">
<polygon fill="none" stroke="black" points="466.5,-142.5 466.5,-161.5 576.5,-161.5 576.5,-142.5 466.5,-142.5"/>
<text text-anchor="middle" x="521.5" y="-149.5" font-family="Helvetica,sans-Serif" font-size="10.00">handler::SimpleGroup</text>
</a>
</g>
</g>
<!-- Node18&#45;&gt;Node36 -->
<g id="edge35" class="edge"><title>Node18&#45;&gt;Node36</title>
<path fill="none" stroke="midnightblue" d="M417.748,-459.369C418.896,-458.316 419.983,-457.195 421,-456 503.735,-358.762 374.472,-268.415 457,-171 460.273,-167.137 464.296,-164.04 468.716,-161.561"/>
<polygon fill="midnightblue" stroke="midnightblue" points="415.476,-456.691 409.396,-465.368 419.56,-462.377 415.476,-456.691"/>
</g>
<!-- Node39 -->
<g id="node39" class="node"><title>Node39</title>
<g id="a_node39"><a xlink:href="classhandler_1_1SimpleWebApi.html" target="_top" xlink:title="Simple base class for handlers calling web resources. ">
<polygon fill="none" stroke="black" points="462,-104.5 462,-123.5 581,-123.5 581,-104.5 462,-104.5"/>
<text text-anchor="middle" x="521.5" y="-111.5" font-family="Helvetica,sans-Serif" font-size="10.00">handler::SimpleWebApi</text>
</a>
</g>
</g>
<!-- Node18&#45;&gt;Node39 -->
<g id="edge38" class="edge"><title>Node18&#45;&gt;Node39</title>
<path fill="none" stroke="midnightblue" d="M417.771,-459.389C418.913,-458.33 419.992,-457.202 421,-456 513.795,-345.305 364.441,-243.892 457,-133 460.244,-129.113 464.249,-126.001 468.658,-123.512"/>
<polygon fill="midnightblue" stroke="midnightblue" points="415.498,-456.715 409.455,-465.417 419.606,-462.382 415.498,-456.715"/>
</g>
<!-- Node46 -->
<g id="node46" class="node"><title>Node46</title>
<g id="a_node46"><a xlink:href="classhandler_1_1WhoisCheckMe.html" target="_top" xlink:title="Sends a WHOIS about the message sender. ">
<polygon fill="none" stroke="black" points="459.5,-66.5 459.5,-85.5 583.5,-85.5 583.5,-66.5 459.5,-66.5"/>
<text text-anchor="middle" x="521.5" y="-73.5" font-family="Helvetica,sans-Serif" font-size="10.00">handler::WhoisCheckMe</text>
</a>
</g>
</g>
<!-- Node18&#45;&gt;Node46 -->
<g id="edge45" class="edge"><title>Node18&#45;&gt;Node46</title>
<path fill="none" stroke="midnightblue" d="M417.79,-459.405C418.926,-458.341 419.999,-457.208 421,-456 523.867,-331.835 354.398,-219.384 457,-95 460.149,-91.1829 464.031,-88.1121 468.312,-85.6445"/>
<polygon fill="midnightblue" stroke="midnightblue" points="415.514,-456.733 409.501,-465.456 419.642,-462.387 415.514,-456.733"/>
</g>
<!-- Node37 -->
<g id="node37" class="node"><title>Node37</title>
<g id="a_node37"><a xlink:href="classhandler_1_1AbstractList.html" target="_top" xlink:title="Handles a list of elements (base class) ">
<polygon fill="none" stroke="black" points="622,-180.5 622,-199.5 729,-199.5 729,-180.5 622,-180.5"/>
<text text-anchor="middle" x="675.5" y="-187.5" font-family="Helvetica,sans-Serif" font-size="10.00">handler::AbstractList</text>
</a>
</g>
</g>
<!-- Node36&#45;&gt;Node37 -->
<g id="edge36" class="edge"><title>Node36&#45;&gt;Node37</title>
<path fill="none" stroke="midnightblue" d="M570.66,-164.04C591.895,-169.349 616.495,-175.499 636.42,-180.48"/>
<polygon fill="midnightblue" stroke="midnightblue" points="571.406,-160.619 560.856,-161.589 569.709,-167.41 571.406,-160.619"/>
</g>
<!-- Node38 -->
<g id="node38" class="node"><title>Node38</title>
<g id="a_node38"><a xlink:href="classhandler_1_1AdminGroup.html" target="_top" xlink:title="Manages a user group. ">
<polygon fill="none" stroke="black" points="784,-190.5 784,-209.5 892,-209.5 892,-190.5 784,-190.5"/>
<text text-anchor="middle" x="838" y="-197.5" font-family="Helvetica,sans-Serif" font-size="10.00">handler::AdminGroup</text>
</a>
</g>
</g>
<!-- Node37&#45;&gt;Node38 -->
<g id="edge37" class="edge"><title>Node37&#45;&gt;Node38</title>
<path fill="none" stroke="midnightblue" d="M739.114,-193.901C753.876,-194.821 769.476,-195.793 783.779,-196.684"/>
<polygon fill="midnightblue" stroke="midnightblue" points="739.252,-190.403 729.054,-193.274 738.817,-197.39 739.252,-190.403"/>
</g>
<!-- Node40 -->
<g id="node40" class="node"><title>Node40</title>
<g id="a_node40"><a xlink:href="classhandler_1_1SimpleJson.html" target="_top" xlink:title="Simple base class for handlers using AJAX web APIs. ">
<polygon fill="none" stroke="black" points="623,-85.5 623,-104.5 728,-104.5 728,-85.5 623,-85.5"/>
<text text-anchor="middle" x="675.5" y="-92.5" font-family="Helvetica,sans-Serif" font-size="10.00">handler::SimpleJson</text>
</a>
</g>
</g>
<!-- Node39&#45;&gt;Node40 -->
<g id="edge39" class="edge"><title>Node39&#45;&gt;Node40</title>
<path fill="none" stroke="midnightblue" d="M591.333,-105.396C601.92,-104.072 612.695,-102.726 622.824,-101.459"/>
<polygon fill="midnightblue" stroke="midnightblue" points="590.756,-101.941 581.267,-106.654 591.624,-108.887 590.756,-101.941"/>
</g>
<!-- Node41 -->
<g id="node41" class="node"><title>Node41</title>
<g id="a_node41"><a xlink:href="classhandler_1_1ChuckNorris.html" target="_top" xlink:title="Searches for a Chuck Norris joke. ">
<polygon fill="none" stroke="black" points="783.5,-152.5 783.5,-171.5 892.5,-171.5 892.5,-152.5 783.5,-152.5"/>
<text text-anchor="middle" x="838" y="-159.5" font-family="Helvetica,sans-Serif" font-size="10.00">handler::ChuckNorris</text>
</a>
</g>
</g>
<!-- Node40&#45;&gt;Node41 -->
<g id="edge40" class="edge"><title>Node40&#45;&gt;Node41</title>
<path fill="none" stroke="midnightblue" d="M700.51,-110.065C717.895,-120.459 742.242,-133.976 765,-143 774.133,-146.621 784.19,-149.767 793.816,-152.401"/>
<polygon fill="midnightblue" stroke="midnightblue" points="701.986,-106.866 691.623,-104.661 698.349,-112.847 701.986,-106.866"/>
</g>
<!-- Node42 -->
<g id="node42" class="node"><title>Node42</title>
<g id="a_node42"><a xlink:href="classhandler_1_1SearchImageGoogle.html" target="_top" xlink:title="Handler searching images with Google. ">
<polygon fill="none" stroke="black" points="766.5,-114.5 766.5,-133.5 909.5,-133.5 909.5,-114.5 766.5,-114.5"/>
<text text-anchor="middle" x="838" y="-121.5" font-family="Helvetica,sans-Serif" font-size="10.00">handler::SearchImageGoogle</text>
</a>
</g>
</g>
<!-- Node40&#45;&gt;Node42 -->
<g id="edge41" class="edge"><title>Node40&#45;&gt;Node42</title>
<path fill="none" stroke="midnightblue" d="M738.037,-106.119C753.304,-108.877 769.528,-111.809 784.328,-114.483"/>
<polygon fill="midnightblue" stroke="midnightblue" points="738.63,-102.669 728.167,-104.335 737.385,-109.558 738.63,-102.669"/>
</g>
<!-- Node43 -->
<g id="node43" class="node"><title>Node43</title>
<g id="a_node43"><a xlink:href="classhandler_1_1SearchVideoYoutube.html" target="_top" xlink:title="Handler searching a video on Youtube. ">
<polygon fill="none" stroke="black" points="765,-76.5 765,-95.5 911,-95.5 911,-76.5 765,-76.5"/>
<text text-anchor="middle" x="838" y="-83.5" font-family="Helvetica,sans-Serif" font-size="10.00">handler::SearchVideoYoutube</text>
</a>
</g>
</g>
<!-- Node40&#45;&gt;Node43 -->
<g id="edge42" class="edge"><title>Node40&#45;&gt;Node43</title>
<path fill="none" stroke="midnightblue" d="M738.259,-91.5369C747.001,-91.0467 756.052,-90.5392 764.966,-90.0393"/>
<polygon fill="midnightblue" stroke="midnightblue" points="737.955,-88.0483 728.167,-92.1028 738.347,-95.0374 737.955,-88.0483"/>
</g>
<!-- Node44 -->
<g id="node44" class="node"><title>Node44</title>
<g id="a_node44"><a xlink:href="classhandler_1_1SearchWebSearx.html" target="_top" xlink:title="Handler searching a web page using Searx. ">
<polygon fill="none" stroke="black" points="772.5,-38.5 772.5,-57.5 903.5,-57.5 903.5,-38.5 772.5,-38.5"/>
<text text-anchor="middle" x="838" y="-45.5" font-family="Helvetica,sans-Serif" font-size="10.00">handler::SearchWebSearx</text>
</a>
</g>
</g>
<!-- Node40&#45;&gt;Node44 -->
<g id="edge43" class="edge"><title>Node40&#45;&gt;Node44</title>
<path fill="none" stroke="midnightblue" d="M715.226,-82.3006C730.662,-77.3562 748.621,-71.749 765,-67 776.175,-63.7598 788.391,-60.4496 799.536,-57.519"/>
<polygon fill="midnightblue" stroke="midnightblue" points="713.934,-79.0397 705.49,-85.4384 716.081,-85.7023 713.934,-79.0397"/>
</g>
<!-- Node45 -->
<g id="node45" class="node"><title>Node45</title>
<g id="a_node45"><a xlink:href="classhandler_1_1UrbanDictionary.html" target="_top" xlink:title="Handler searching a definition on Urban Dictionary. ">
<polygon fill="none" stroke="black" points="775.5,-0.5 775.5,-19.5 900.5,-19.5 900.5,-0.5 775.5,-0.5"/>
<text text-anchor="middle" x="838" y="-7.5" font-family="Helvetica,sans-Serif" font-size="10.00">handler::UrbanDictionary</text>
</a>
</g>
</g>
<!-- Node40&#45;&gt;Node45 -->
<g id="edge44" class="edge"><title>Node40&#45;&gt;Node45</title>
<path fill="none" stroke="midnightblue" d="M694.002,-78.718C710.956,-63.7691 737.999,-42.0231 765,-29 772.918,-25.181 781.71,-22.0503 790.352,-19.5116"/>
<polygon fill="midnightblue" stroke="midnightblue" points="691.623,-76.1502 686.533,-85.4426 696.307,-81.3522 691.623,-76.1502"/>
</g>
</g>
</svg>
