<?xml version="1.0" encoding="UTF-8" standalone="no"?>
<!DOCTYPE svg PUBLIC "-//W3C//DTD SVG 1.1//EN"
 "http://www.w3.org/Graphics/SVG/1.1/DTD/svg11.dtd">
<!-- Generated by graphviz version 2.38.0 (20140413.2041)
 -->
<!-- Title: Settings Pages: 1 -->
<svg width="174pt" height="96pt"
 viewBox="0.00 0.00 173.50 96.00" xmlns="http://www.w3.org/2000/svg" xmlns:xlink="http://www.w3.org/1999/xlink">
<g id="graph0" class="graph" transform="scale(1 1) rotate(0) translate(4 92)">
<title>Settings</title>
<!-- Node1 -->
<g id="node1" class="node"><title>Node1</title>
<polygon fill="#bfbfbf" stroke="black" points="25.5,-0.5 25.5,-19.5 78.5,-19.5 78.5,-0.5 25.5,-0.5"/>
<text text-anchor="middle" x="52" y="-7.5" font-family="Helvetica,sans-Serif" font-size="10.00">Settings</text>
</g>
<!-- Node1&#45;&gt;Node1 -->
<g id="edge2" class="edge"><title>Node1&#45;&gt;Node1</title>
<path fill="none" stroke="#9a32cd" stroke-dasharray="5,2" d="M89.0937,-14.5251C93.5711,-13.7078 96.5,-12.1995 96.5,-10 96.5,-6.39062 88.6125,-4.64233 78.9381,-4.75513"/>
<polygon fill="#9a32cd" stroke="#9a32cd" points="88.6656,-11.0466 78.9381,-15.2449 89.1605,-18.0291 88.6656,-11.0466"/>
<text text-anchor="middle" x="131" y="-7.5" font-family="Helvetica,sans-Serif" font-size="10.00"> global_settings</text>
</g>
<!-- Node2 -->
<g id="node2" class="node"><title>Node2</title>
<polygon fill="none" stroke="#bfbfbf" points="0,-57.5 0,-87.5 104,-87.5 104,-57.5 0,-57.5"/>
<text text-anchor="start" x="8" y="-75.5" font-family="Helvetica,sans-Serif" font-size="10.00">boost::property_tree</text>
<text text-anchor="middle" x="52" y="-64.5" font-family="Helvetica,sans-Serif" font-size="10.00">::ptree</text>
</g>
<!-- Node2&#45;&gt;Node1 -->
<g id="edge1" class="edge"><title>Node2&#45;&gt;Node1</title>
<path fill="none" stroke="midnightblue" d="M52,-47.3524C52,-37.5132 52,-26.7753 52,-19.5399"/>
<polygon fill="midnightblue" stroke="midnightblue" points="48.5001,-47.468 52,-57.468 55.5001,-47.4681 48.5001,-47.468"/>
</g>
</g>
</svg>
