<?xml version="1.0" encoding="UTF-8" standalone="no"?>
<!DOCTYPE svg PUBLIC "-//W3C//DTD SVG 1.1//EN"
 "http://www.w3.org/Graphics/SVG/1.1/DTD/svg11.dtd">
<!-- Generated by graphviz version 2.38.0 (20140413.2041)
 -->
<!-- Title: Settings Pages: 1 -->
<svg width="158pt" height="85pt"
 viewBox="0.00 0.00 158.00 85.00" xmlns="http://www.w3.org/2000/svg" xmlns:xlink="http://www.w3.org/1999/xlink">
<g id="graph0" class="graph" transform="scale(1 1) rotate(0) translate(4 81)">
<title>Settings</title>
<!-- Node1 -->
<g id="node1" class="node"><title>Node1</title>
<polygon fill="#bfbfbf" stroke="black" points="10,-0.5 10,-19.5 63,-19.5 63,-0.5 10,-0.5"/>
<text text-anchor="middle" x="36.5" y="-7.5" font-family="Helvetica,sans-Serif" font-size="10.00">Settings</text>
</g>
<!-- Node1&#45;&gt;Node1 -->
<g id="edge2" class="edge"><title>Node1&#45;&gt;Node1</title>
<path fill="none" stroke="#9a32cd" stroke-dasharray="5,2" d="M73.5937,-14.5251C78.0711,-13.7078 81,-12.1995 81,-10 81,-6.39062 73.1125,-4.64233 63.4381,-4.75513"/>
<polygon fill="#9a32cd" stroke="#9a32cd" points="73.1656,-11.0466 63.4381,-15.2449 73.6605,-18.0291 73.1656,-11.0466"/>
<text text-anchor="middle" x="115.5" y="-7.5" font-family="Helvetica,sans-Serif" font-size="10.00"> global_settings</text>
</g>
<!-- Node2 -->
<g id="node2" class="node"><title>Node2</title>
<polygon fill="none" stroke="#bfbfbf" points="0,-57.5 0,-76.5 73,-76.5 73,-57.5 0,-57.5"/>
<text text-anchor="middle" x="36.5" y="-64.5" font-family="Helvetica,sans-Serif" font-size="10.00">PropertyTree</text>
</g>
<!-- Node2&#45;&gt;Node1 -->
<g id="edge1" class="edge"><title>Node2&#45;&gt;Node1</title>
<path fill="none" stroke="midnightblue" d="M36.5,-47.1166C36.5,-37.8173 36.5,-27.0557 36.5,-19.7149"/>
<polygon fill="midnightblue" stroke="midnightblue" points="33.0001,-47.4062 36.5,-57.4062 40.0001,-47.4063 33.0001,-47.4062"/>
</g>
</g>
</svg>
