<?xml version="1.0" encoding="UTF-8" standalone="no"?>
<!DOCTYPE svg PUBLIC "-//W3C//DTD SVG 1.1//EN"
 "http://www.w3.org/Graphics/SVG/1.1/DTD/svg11.dtd">
<!-- Generated by graphviz version 2.38.0 (20140413.2041)
 -->
<!-- Title: network::http::HttpService Pages: 1 -->
<svg width="761pt" height="99pt"
 viewBox="0.00 0.00 761.00 99.00" xmlns="http://www.w3.org/2000/svg" xmlns:xlink="http://www.w3.org/1999/xlink">
<g id="graph0" class="graph" transform="scale(1 1) rotate(0) translate(4 95)">
<title>network::http::HttpService</title>
<!-- Node1 -->
<g id="node1" class="node"><title>Node1</title>
<polygon fill="#bfbfbf" stroke="black" points="622,-52.5 622,-71.5 753,-71.5 753,-52.5 622,-52.5"/>
<text text-anchor="middle" x="687.5" y="-59.5" font-family="Helvetica,sans-Serif" font-size="10.00">network::http::HttpService</text>
</g>
<!-- Node2 -->
<g id="node2" class="node"><title>Node2</title>
<g id="a_node2"><a xlink:href="classnetwork_1_1ThreadedAsyncService.html" target="_top" xlink:title="An AsyncService implemented with a separate thread. ">
<polygon fill="none" stroke="black" points="427,-52.5 427,-71.5 585,-71.5 585,-52.5 427,-52.5"/>
<text text-anchor="middle" x="506" y="-59.5" font-family="Helvetica,sans-Serif" font-size="10.00">network::ThreadedAsyncService</text>
</a>
</g>
</g>
<!-- Node2&#45;&gt;Node1 -->
<g id="edge1" class="edge"><title>Node2&#45;&gt;Node1</title>
<path fill="none" stroke="midnightblue" d="M595.331,-62C604.32,-62 613.327,-62 621.994,-62"/>
<polygon fill="midnightblue" stroke="midnightblue" points="595.209,-58.5001 585.209,-62 595.209,-65.5001 595.209,-58.5001"/>
</g>
<!-- Node3 -->
<g id="node3" class="node"><title>Node3</title>
<g id="a_node3"><a xlink:href="classnetwork_1_1AsyncService.html" target="_top" xlink:title="Base class for external services that might take some time to execute. ">
<polygon fill="none" stroke="black" points="222.5,-71.5 222.5,-90.5 340.5,-90.5 340.5,-71.5 222.5,-71.5"/>
<text text-anchor="middle" x="281.5" y="-78.5" font-family="Helvetica,sans-Serif" font-size="10.00">network::AsyncService</text>
</a>
</g>
</g>
<!-- Node3&#45;&gt;Node2 -->
<g id="edge2" class="edge"><title>Node3&#45;&gt;Node2</title>
<path fill="none" stroke="midnightblue" d="M350.744,-75.1724C374.743,-73.1231 401.897,-70.8043 426.66,-68.6897"/>
<polygon fill="midnightblue" stroke="midnightblue" points="350.335,-71.6946 340.669,-76.0328 350.93,-78.6692 350.335,-71.6946"/>
</g>
<!-- Node4 -->
<g id="node4" class="node"><title>Node4</title>
<g id="a_node4"><a xlink:href="classConcurrentQueue.html" target="_top" xlink:title="ConcurrentQueue\&lt; network\l::ThreadedAsyncService\l::Item \&gt;">
<polygon fill="none" stroke="black" points="213,-11.5 213,-52.5 350,-52.5 350,-11.5 213,-11.5"/>
<text text-anchor="start" x="221" y="-40.5" font-family="Helvetica,sans-Serif" font-size="10.00">ConcurrentQueue&lt; network</text>
<text text-anchor="start" x="221" y="-29.5" font-family="Helvetica,sans-Serif" font-size="10.00">::ThreadedAsyncService</text>
<text text-anchor="middle" x="281.5" y="-18.5" font-family="Helvetica,sans-Serif" font-size="10.00">::Item &gt;</text>
</a>
</g>
</g>
<!-- Node4&#45;&gt;Node2 -->
<g id="edge3" class="edge"><title>Node4&#45;&gt;Node2</title>
<path fill="none" stroke="#9a32cd" stroke-dasharray="5,2" d="M360.306,-42.4907C384.335,-45.7306 410.659,-49.2798 434.189,-52.4524"/>
<polygon fill="#9a32cd" stroke="#9a32cd" points="360.542,-38.9909 350.164,-41.1232 359.606,-45.9281 360.542,-38.9909"/>
<text text-anchor="middle" x="388.5" y="-51" font-family="Helvetica,sans-Serif" font-size="10.00"> requests</text>
</g>
<!-- Node5 -->
<g id="node5" class="node"><title>Node5</title>
<g id="a_node5"><a xlink:href="classConcurrentContainer.html" target="_top" xlink:title="ConcurrentContainer\l\&lt; std::queue\&lt; network\l::ThreadedAsyncService\l::Item, std::deque\&lt; network\l::ThreadedAsyncService::Item \&gt; \&gt; \&gt;">
<polygon fill="none" stroke="black" points="0,-0.5 0,-63.5 176,-63.5 176,-0.5 0,-0.5"/>
<text text-anchor="start" x="8" y="-51.5" font-family="Helvetica,sans-Serif" font-size="10.00">ConcurrentContainer</text>
<text text-anchor="start" x="8" y="-40.5" font-family="Helvetica,sans-Serif" font-size="10.00">&lt; std::queue&lt; network</text>
<text text-anchor="start" x="8" y="-29.5" font-family="Helvetica,sans-Serif" font-size="10.00">::ThreadedAsyncService</text>
<text text-anchor="start" x="8" y="-18.5" font-family="Helvetica,sans-Serif" font-size="10.00">::Item, std::deque&lt; network</text>
<text text-anchor="middle" x="88" y="-7.5" font-family="Helvetica,sans-Serif" font-size="10.00">::ThreadedAsyncService::Item &gt; &gt; &gt;</text>
</a>
</g>
</g>
<!-- Node5&#45;&gt;Node4 -->
<g id="edge4" class="edge"><title>Node5&#45;&gt;Node4</title>
<path fill="none" stroke="midnightblue" d="M186.222,-32C195.228,-32 204.216,-32 212.868,-32"/>
<polygon fill="midnightblue" stroke="midnightblue" points="186.065,-28.5001 176.065,-32 186.065,-35.5001 186.065,-28.5001"/>
</g>
</g>
</svg>
