<?xml version="1.0" encoding="UTF-8" standalone="no"?>
<!DOCTYPE svg PUBLIC "-//W3C//DTD SVG 1.1//EN"
 "http://www.w3.org/Graphics/SVG/1.1/DTD/svg11.dtd">
<!-- Generated by graphviz version 2.38.0 (20140413.2041)
 -->
<!-- Title: handler::Bridge Pages: 1 -->
<svg width="294pt" height="433pt"
 viewBox="0.00 0.00 293.50 433.00" xmlns="http://www.w3.org/2000/svg" xmlns:xlink="http://www.w3.org/1999/xlink">
<g id="graph0" class="graph" transform="scale(1 1) rotate(0) translate(4 429)">
<title>handler::Bridge</title>
<!-- Node1 -->
<g id="node1" class="node"><title>Node1</title>
<polygon fill="#bfbfbf" stroke="black" points="144,-0.5 144,-19.5 226,-19.5 226,-0.5 144,-0.5"/>
<text text-anchor="middle" x="185" y="-7.5" font-family="Helvetica,sans-Serif" font-size="10.00">handler::Bridge</text>
</g>
<!-- Node2 -->
<g id="node2" class="node"><title>Node2</title>
<g id="a_node2"><a xlink:href="classhandler_1_1SimpleGroup.html" target="_top" xlink:title="A simple group of actions which share settings. ">
<polygon fill="none" stroke="black" points="62,-57.5 62,-76.5 172,-76.5 172,-57.5 62,-57.5"/>
<text text-anchor="middle" x="117" y="-64.5" font-family="Helvetica,sans-Serif" font-size="10.00">handler::SimpleGroup</text>
</a>
</g>
</g>
<!-- Node2&#45;&gt;Node1 -->
<g id="edge1" class="edge"><title>Node2&#45;&gt;Node1</title>
<path fill="none" stroke="midnightblue" d="M135.548,-50.9983C147.956,-40.9619 163.853,-28.1044 174.225,-19.7149"/>
<polygon fill="midnightblue" stroke="midnightblue" points="133.199,-48.3962 127.625,-57.4062 137.601,-53.8388 133.199,-48.3962"/>
</g>
<!-- Node3 -->
<g id="node3" class="node"><title>Node3</title>
<g id="a_node3"><a xlink:href="classhandler_1_1SimpleAction.html" target="_top" xlink:title="A simple action sends a message to the same connection it came from. ">
<polygon fill="none" stroke="black" points="25,-124.5 25,-143.5 137,-143.5 137,-124.5 25,-124.5"/>
<text text-anchor="middle" x="81" y="-131.5" font-family="Helvetica,sans-Serif" font-size="10.00">handler::SimpleAction</text>
</a>
</g>
</g>
<!-- Node3&#45;&gt;Node2 -->
<g id="edge2" class="edge"><title>Node3&#45;&gt;Node2</title>
<path fill="none" stroke="midnightblue" d="M90.8787,-115.163C97.8214,-102.628 106.803,-86.4104 112.222,-76.6273"/>
<polygon fill="midnightblue" stroke="midnightblue" points="87.6384,-113.79 85.8551,-124.234 93.7619,-117.182 87.6384,-113.79"/>
</g>
<!-- Node4 -->
<g id="node4" class="node"><title>Node4</title>
<g id="a_node4"><a xlink:href="classhandler_1_1Handler.html" target="_top" xlink:title="Message handler abstract base class. ">
<polygon fill="none" stroke="black" points="37,-181.5 37,-200.5 125,-200.5 125,-181.5 37,-181.5"/>
<text text-anchor="middle" x="81" y="-188.5" font-family="Helvetica,sans-Serif" font-size="10.00">handler::Handler</text>
</a>
</g>
</g>
<!-- Node4&#45;&gt;Node3 -->
<g id="edge3" class="edge"><title>Node4&#45;&gt;Node3</title>
<path fill="none" stroke="midnightblue" d="M81,-171.117C81,-161.817 81,-151.056 81,-143.715"/>
<polygon fill="midnightblue" stroke="midnightblue" points="77.5001,-171.406 81,-181.406 84.5001,-171.406 77.5001,-171.406"/>
</g>
<!-- Node5 -->
<g id="node5" class="node"><title>Node5</title>
<g id="a_node5"><a xlink:href="classhandler_1_1HandlerContainer.html" target="_top" xlink:title="Base class for classes which may contain handlers. ">
<polygon fill="none" stroke="black" points="0,-321 0,-340 130,-340 130,-321 0,-321"/>
<text text-anchor="middle" x="65" y="-328" font-family="Helvetica,sans-Serif" font-size="10.00">handler::HandlerContainer</text>
</a>
</g>
</g>
<!-- Node5&#45;&gt;Node4 -->
<g id="edge4" class="edge"><title>Node5&#45;&gt;Node4</title>
<path fill="none" stroke="midnightblue" d="M67.1688,-310.862C70.6749,-280.731 77.452,-222.49 79.9995,-200.598"/>
<polygon fill="midnightblue" stroke="midnightblue" points="63.6803,-310.561 66.0009,-320.899 70.6333,-311.37 63.6803,-310.561"/>
</g>
<!-- Node6 -->
<g id="node6" class="node"><title>Node6</title>
<g id="a_node6"><a xlink:href="classMelanobot.html" target="_top" xlink:title="Main bot class. ">
<polygon fill="none" stroke="black" points="93,-248.5 93,-267.5 155,-267.5 155,-248.5 93,-248.5"/>
<text text-anchor="middle" x="124" y="-255.5" font-family="Helvetica,sans-Serif" font-size="10.00">Melanobot</text>
</a>
</g>
</g>
<!-- Node5&#45;&gt;Node6 -->
<g id="edge6" class="edge"><title>Node5&#45;&gt;Node6</title>
<path fill="none" stroke="midnightblue" d="M78.8946,-312.897C90.7398,-298.743 107.299,-278.957 116.706,-267.715"/>
<polygon fill="midnightblue" stroke="midnightblue" points="75.9684,-310.94 72.2346,-320.855 81.3366,-315.433 75.9684,-310.94"/>
</g>
<!-- Node6&#45;&gt;Node4 -->
<g id="edge5" class="edge"><title>Node6&#45;&gt;Node4</title>
<path fill="none" stroke="#9a32cd" stroke-dasharray="5,2" d="M112.446,-239.535C104.121,-226.95 93.2432,-210.507 86.7073,-200.627"/>
<polygon fill="#9a32cd" stroke="#9a32cd" points="109.764,-241.825 118.201,-248.234 115.603,-237.963 109.764,-241.825"/>
<text text-anchor="middle" x="114.5" y="-222" font-family="Helvetica,sans-Serif" font-size="10.00"> bot</text>
</g>
<!-- Node7 -->
<g id="node7" class="node"><title>Node7</title>
<g id="a_node7"><a xlink:href="classConcurrentQueue.html" target="_top" xlink:title="ConcurrentQueue\&lt; network\l::Message \&gt;">
<polygon fill="none" stroke="black" points="148.5,-315.5 148.5,-345.5 285.5,-345.5 285.5,-315.5 148.5,-315.5"/>
<text text-anchor="start" x="156.5" y="-333.5" font-family="Helvetica,sans-Serif" font-size="10.00">ConcurrentQueue&lt; network</text>
<text text-anchor="middle" x="217" y="-322.5" font-family="Helvetica,sans-Serif" font-size="10.00">::Message &gt;</text>
</a>
</g>
</g>
<!-- Node7&#45;&gt;Node6 -->
<g id="edge7" class="edge"><title>Node7&#45;&gt;Node6</title>
<path fill="none" stroke="#9a32cd" stroke-dasharray="5,2" d="M189.753,-308.845C171.69,-295.152 148.921,-277.891 135.465,-267.691"/>
<polygon fill="#9a32cd" stroke="#9a32cd" points="188.097,-311.981 198.18,-315.233 192.325,-306.403 188.097,-311.981"/>
<text text-anchor="middle" x="198.5" y="-289" font-family="Helvetica,sans-Serif" font-size="10.00"> messages</text>
</g>
<!-- Node8 -->
<g id="node8" class="node"><title>Node8</title>
<g id="a_node8"><a xlink:href="classConcurrentContainer.html" target="_top" xlink:title="ConcurrentContainer\l\&lt; std::queue\&lt; network\l::Message, Container \&gt; \&gt;">
<polygon fill="none" stroke="black" points="153,-383.5 153,-424.5 281,-424.5 281,-383.5 153,-383.5"/>
<text text-anchor="start" x="161" y="-412.5" font-family="Helvetica,sans-Serif" font-size="10.00">ConcurrentContainer</text>
<text text-anchor="start" x="161" y="-401.5" font-family="Helvetica,sans-Serif" font-size="10.00">&lt; std::queue&lt; network</text>
<text text-anchor="middle" x="217" y="-390.5" font-family="Helvetica,sans-Serif" font-size="10.00">::Message, Container &gt; &gt;</text>
</a>
</g>
</g>
<!-- Node8&#45;&gt;Node7 -->
<g id="edge8" class="edge"><title>Node8&#45;&gt;Node7</title>
<path fill="none" stroke="midnightblue" d="M217,-373.158C217,-363.687 217,-353.647 217,-345.797"/>
<polygon fill="midnightblue" stroke="midnightblue" points="213.5,-373.462 217,-383.462 220.5,-373.462 213.5,-373.462"/>
</g>
<!-- Node9 -->
<g id="node9" class="node"><title>Node9</title>
<g id="a_node9"><a xlink:href="classnetwork_1_1Connection.html" target="_top" xlink:title="Abstract service connection. ">
<polygon fill="none" stroke="black" points="154.5,-124.5 154.5,-143.5 261.5,-143.5 261.5,-124.5 154.5,-124.5"/>
<text text-anchor="middle" x="208" y="-131.5" font-family="Helvetica,sans-Serif" font-size="10.00">network::Connection</text>
</a>
</g>
</g>
<!-- Node9&#45;&gt;Node1 -->
<g id="edge10" class="edge"><title>Node9&#45;&gt;Node1</title>
<path fill="none" stroke="#9a32cd" stroke-dasharray="5,2" d="M204.454,-114.191C199.403,-87.3972 190.338,-39.314 186.639,-19.6944"/>
<polygon fill="#9a32cd" stroke="#9a32cd" points="201.054,-115.048 206.346,-124.226 207.933,-113.751 201.054,-115.048"/>
<text text-anchor="middle" x="223.5" y="-64.5" font-family="Helvetica,sans-Serif" font-size="10.00"> destination</text>
</g>
<!-- Node9&#45;&gt;Node2 -->
<g id="edge9" class="edge"><title>Node9&#45;&gt;Node2</title>
<path fill="none" stroke="#9a32cd" stroke-dasharray="5,2" d="M182.234,-119.375C175.18,-115.332 167.649,-110.716 161,-106 148.157,-96.891 134.627,-84.7728 126.017,-76.6953"/>
<polygon fill="#9a32cd" stroke="#9a32cd" points="180.991,-122.688 191.431,-124.49 184.393,-116.571 180.991,-122.688"/>
<text text-anchor="middle" x="177.5" y="-98" font-family="Helvetica,sans-Serif" font-size="10.00"> source</text>
</g>
</g>
</svg>
