<?xml version="1.0" encoding="UTF-8" standalone="no"?>
<!DOCTYPE svg PUBLIC "-//W3C//DTD SVG 1.1//EN"
 "http://www.w3.org/Graphics/SVG/1.1/DTD/svg11.dtd">
<!-- Generated by graphviz version 2.38.0 (20140413.2041)
 -->
<!-- Title: handler::SimpleWebApi Pages: 1 -->
<svg width="338pt" height="309pt"
 viewBox="0.00 0.00 337.50 309.00" xmlns="http://www.w3.org/2000/svg" xmlns:xlink="http://www.w3.org/1999/xlink">
<g id="graph0" class="graph" transform="scale(1 1) rotate(0) translate(4 305)">
<title>handler::SimpleWebApi</title>
<!-- Node1 -->
<g id="node1" class="node"><title>Node1</title>
<polygon fill="#bfbfbf" stroke="black" points="99.5,-0.5 99.5,-19.5 218.5,-19.5 218.5,-0.5 99.5,-0.5"/>
<text text-anchor="middle" x="159" y="-7.5" font-family="Helvetica,sans-Serif" font-size="10.00">handler::SimpleWebApi</text>
</g>
<!-- Node2 -->
<g id="node2" class="node"><title>Node2</title>
<g id="a_node2"><a xlink:href="classhandler_1_1SimpleAction.html" target="_top" xlink:title="A simple action sends a message to the same connection it came from. ">
<polygon fill="none" stroke="black" points="103,-57.5 103,-76.5 215,-76.5 215,-57.5 103,-57.5"/>
<text text-anchor="middle" x="159" y="-64.5" font-family="Helvetica,sans-Serif" font-size="10.00">handler::SimpleAction</text>
</a>
</g>
</g>
<!-- Node2&#45;&gt;Node1 -->
<g id="edge1" class="edge"><title>Node2&#45;&gt;Node1</title>
<path fill="none" stroke="midnightblue" d="M159,-47.1166C159,-37.8173 159,-27.0557 159,-19.7149"/>
<polygon fill="midnightblue" stroke="midnightblue" points="155.5,-47.4062 159,-57.4062 162.5,-47.4063 155.5,-47.4062"/>
</g>
<!-- Node3 -->
<g id="node3" class="node"><title>Node3</title>
<g id="a_node3"><a xlink:href="classhandler_1_1Handler.html" target="_top" xlink:title="Message handler abstract base class. ">
<polygon fill="none" stroke="black" points="-7.10543e-15,-124.5 -7.10543e-15,-143.5 88,-143.5 88,-124.5 -7.10543e-15,-124.5"/>
<text text-anchor="middle" x="44" y="-131.5" font-family="Helvetica,sans-Serif" font-size="10.00">handler::Handler</text>
</a>
</g>
</g>
<!-- Node3&#45;&gt;Node2 -->
<g id="edge2" class="edge"><title>Node3&#45;&gt;Node2</title>
<path fill="none" stroke="midnightblue" d="M68.2611,-119.287C91.0533,-106.405 124.457,-87.5243 143.736,-76.6273"/>
<polygon fill="midnightblue" stroke="midnightblue" points="66.4928,-116.266 59.5094,-124.234 69.9373,-122.36 66.4928,-116.266"/>
</g>
<!-- Node4 -->
<g id="node4" class="node"><title>Node4</title>
<g id="a_node4"><a xlink:href="classnetwork_1_1Connection.html" target="_top" xlink:title="Abstract service connection. ">
<polygon fill="none" stroke="black" points="105.5,-124.5 105.5,-143.5 212.5,-143.5 212.5,-124.5 105.5,-124.5"/>
<text text-anchor="middle" x="159" y="-131.5" font-family="Helvetica,sans-Serif" font-size="10.00">network::Connection</text>
</a>
</g>
</g>
<!-- Node4&#45;&gt;Node2 -->
<g id="edge3" class="edge"><title>Node4&#45;&gt;Node2</title>
<path fill="none" stroke="#9a32cd" stroke-dasharray="5,2" d="M159,-114.037C159,-101.67 159,-86.1198 159,-76.6273"/>
<polygon fill="#9a32cd" stroke="#9a32cd" points="155.5,-114.234 159,-124.234 162.5,-114.234 155.5,-114.234"/>
<text text-anchor="middle" x="175.5" y="-98" font-family="Helvetica,sans-Serif" font-size="10.00"> source</text>
</g>
<!-- Node5 -->
<g id="node5" class="node"><title>Node5</title>
<g id="a_node5"><a xlink:href="classMelanobot.html" target="_top" xlink:title="Main bot class. ">
<polygon fill="none" stroke="black" points="230,-124.5 230,-143.5 292,-143.5 292,-124.5 230,-124.5"/>
<text text-anchor="middle" x="261" y="-131.5" font-family="Helvetica,sans-Serif" font-size="10.00">Melanobot</text>
</a>
</g>
</g>
<!-- Node5&#45;&gt;Node2 -->
<g id="edge4" class="edge"><title>Node5&#45;&gt;Node2</title>
<path fill="none" stroke="#9a32cd" stroke-dasharray="5,2" d="M238.668,-118.769C218.478,-105.903 189.41,-87.379 172.538,-76.6273"/>
<polygon fill="#9a32cd" stroke="#9a32cd" points="236.93,-121.811 247.244,-124.234 240.692,-115.908 236.93,-121.811"/>
<text text-anchor="middle" x="224.5" y="-98" font-family="Helvetica,sans-Serif" font-size="10.00"> bot</text>
</g>
<!-- Node6 -->
<g id="node6" class="node"><title>Node6</title>
<g id="a_node6"><a xlink:href="classConcurrentQueue.html" target="_top" xlink:title="ConcurrentQueue\&lt; network\l::Message \&gt;">
<polygon fill="none" stroke="black" points="192.5,-191.5 192.5,-221.5 329.5,-221.5 329.5,-191.5 192.5,-191.5"/>
<text text-anchor="start" x="200.5" y="-209.5" font-family="Helvetica,sans-Serif" font-size="10.00">ConcurrentQueue&lt; network</text>
<text text-anchor="middle" x="261" y="-198.5" font-family="Helvetica,sans-Serif" font-size="10.00">::Message &gt;</text>
</a>
</g>
</g>
<!-- Node6&#45;&gt;Node5 -->
<g id="edge5" class="edge"><title>Node6&#45;&gt;Node5</title>
<path fill="none" stroke="#9a32cd" stroke-dasharray="5,2" d="M261,-181.091C261,-168.214 261,-153.197 261,-143.893"/>
<polygon fill="#9a32cd" stroke="#9a32cd" points="257.5,-181.233 261,-191.233 264.5,-181.233 257.5,-181.233"/>
<text text-anchor="middle" x="285.5" y="-165" font-family="Helvetica,sans-Serif" font-size="10.00"> messages</text>
</g>
<!-- Node7 -->
<g id="node7" class="node"><title>Node7</title>
<g id="a_node7"><a xlink:href="classConcurrentContainer.html" target="_top" xlink:title="ConcurrentContainer\l\&lt; std::queue\&lt; network\l::Message, Container \&gt; \&gt;">
<polygon fill="none" stroke="black" points="197,-259.5 197,-300.5 325,-300.5 325,-259.5 197,-259.5"/>
<text text-anchor="start" x="205" y="-288.5" font-family="Helvetica,sans-Serif" font-size="10.00">ConcurrentContainer</text>
<text text-anchor="start" x="205" y="-277.5" font-family="Helvetica,sans-Serif" font-size="10.00">&lt; std::queue&lt; network</text>
<text text-anchor="middle" x="261" y="-266.5" font-family="Helvetica,sans-Serif" font-size="10.00">::Message, Container &gt; &gt;</text>
</a>
</g>
</g>
<!-- Node7&#45;&gt;Node6 -->
<g id="edge6" class="edge"><title>Node7&#45;&gt;Node6</title>
<path fill="none" stroke="midnightblue" d="M261,-249.158C261,-239.687 261,-229.647 261,-221.797"/>
<polygon fill="midnightblue" stroke="midnightblue" points="257.5,-249.462 261,-259.462 264.5,-249.462 257.5,-249.462"/>
</g>
</g>
</svg>
