<?xml version="1.0" encoding="UTF-8" standalone="no"?>
<!DOCTYPE svg PUBLIC "-//W3C//DTD SVG 1.1//EN"
 "http://www.w3.org/Graphics/SVG/1.1/DTD/svg11.dtd">
<!-- Generated by graphviz version 2.38.0 (20140413.2041)
 -->
<!-- Title: handler::SearchImageGoogle Pages: 1 -->
<svg width="1230pt" height="109pt"
 viewBox="0.00 0.00 1230.00 108.50" xmlns="http://www.w3.org/2000/svg" xmlns:xlink="http://www.w3.org/1999/xlink">
<g id="graph0" class="graph" transform="scale(1 1) rotate(0) translate(4 104.5)">
<title>handler::SearchImageGoogle</title>
<!-- Node1 -->
<g id="node1" class="node"><title>Node1</title>
<polygon fill="#bfbfbf" stroke="black" points="1079,-52 1079,-71 1222,-71 1222,-52 1079,-52"/>
<text text-anchor="middle" x="1150.5" y="-59" font-family="Helvetica,sans-Serif" font-size="10.00">handler::SearchImageGoogle</text>
</g>
<!-- Node2 -->
<g id="node2" class="node"><title>Node2</title>
<g id="a_node2"><a xlink:href="classhandler_1_1SimpleJson.html" target="_top" xlink:title="Simple base class for handlers using AJAX web APIs. ">
<polygon fill="none" stroke="black" points="937,-52 937,-71 1042,-71 1042,-52 937,-52"/>
<text text-anchor="middle" x="989.5" y="-59" font-family="Helvetica,sans-Serif" font-size="10.00">handler::SimpleJson</text>
</a>
</g>
</g>
<!-- Node2&#45;&gt;Node1 -->
<g id="edge1" class="edge"><title>Node2&#45;&gt;Node1</title>
<path fill="none" stroke="midnightblue" d="M1052.18,-61.5C1060.9,-61.5 1069.91,-61.5 1078.77,-61.5"/>
<polygon fill="midnightblue" stroke="midnightblue" points="1052.12,-58.0001 1042.12,-61.5 1052.12,-65.0001 1052.12,-58.0001"/>
</g>
<!-- Node3 -->
<g id="node3" class="node"><title>Node3</title>
<g id="a_node3"><a xlink:href="classhandler_1_1SimpleWebApi.html" target="_top" xlink:title="Simple base class for handlers calling web resources. ">
<polygon fill="none" stroke="black" points="781,-52 781,-71 900,-71 900,-52 781,-52"/>
<text text-anchor="middle" x="840.5" y="-59" font-family="Helvetica,sans-Serif" font-size="10.00">handler::SimpleWebApi</text>
</a>
</g>
</g>
<!-- Node3&#45;&gt;Node2 -->
<g id="edge2" class="edge"><title>Node3&#45;&gt;Node2</title>
<path fill="none" stroke="midnightblue" d="M910.103,-61.5C919.096,-61.5 928.187,-61.5 936.835,-61.5"/>
<polygon fill="midnightblue" stroke="midnightblue" points="910.021,-58.0001 900.021,-61.5 910.021,-65.0001 910.021,-58.0001"/>
</g>
<!-- Node4 -->
<g id="node4" class="node"><title>Node4</title>
<g id="a_node4"><a xlink:href="classhandler_1_1SimpleAction.html" target="_top" xlink:title="A simple action sends a message to the same connection it came from. ">
<polygon fill="none" stroke="black" points="632,-52 632,-71 744,-71 744,-52 632,-52"/>
<text text-anchor="middle" x="688" y="-59" font-family="Helvetica,sans-Serif" font-size="10.00">handler::SimpleAction</text>
</a>
</g>
</g>
<!-- Node4&#45;&gt;Node3 -->
<g id="edge3" class="edge"><title>Node4&#45;&gt;Node3</title>
<path fill="none" stroke="midnightblue" d="M754.38,-61.5C763.16,-61.5 772.122,-61.5 780.777,-61.5"/>
<polygon fill="midnightblue" stroke="midnightblue" points="754.186,-58.0001 744.186,-61.5 754.186,-65.0001 754.186,-58.0001"/>
</g>
<!-- Node5 -->
<g id="node5" class="node"><title>Node5</title>
<g id="a_node5"><a xlink:href="classhandler_1_1Handler.html" target="_top" xlink:title="Message handler abstract base class. ">
<polygon fill="none" stroke="black" points="507,-52 507,-71 595,-71 595,-52 507,-52"/>
<text text-anchor="middle" x="551" y="-59" font-family="Helvetica,sans-Serif" font-size="10.00">handler::Handler</text>
</a>
</g>
</g>
<!-- Node5&#45;&gt;Node4 -->
<g id="edge4" class="edge"><title>Node5&#45;&gt;Node4</title>
<path fill="none" stroke="midnightblue" d="M605.214,-61.5C614.007,-61.5 623.139,-61.5 631.975,-61.5"/>
<polygon fill="midnightblue" stroke="midnightblue" points="605.086,-58.0001 595.086,-61.5 605.086,-65.0001 605.086,-58.0001"/>
</g>
<!-- Node5&#45;&gt;Node5 -->
<g id="edge10" class="edge"><title>Node5&#45;&gt;Node5</title>
<path fill="none" stroke="#9a32cd" stroke-dasharray="5,2" d="M539.582,-81.2663C540.479,-85.9965 544.285,-89.5 551,-89.5 562.02,-89.5 565.205,-80.0653 560.556,-71.2571"/>
<polygon fill="#9a32cd" stroke="#9a32cd" points="543.056,-81.7285 541.444,-71.2571 536.174,-80.4484 543.056,-81.7285"/>
<text text-anchor="middle" x="551" y="-92.5" font-family="Helvetica,sans-Serif" font-size="10.00"> parent_handler</text>
</g>
<!-- Node6 -->
<g id="node6" class="node"><title>Node6</title>
<g id="a_node6"><a xlink:href="classhandler_1_1HandlerContainer.html" target="_top" xlink:title="Base class for classes which may contain handlers. ">
<polygon fill="none" stroke="black" points="173.5,-64 173.5,-83 303.5,-83 303.5,-64 173.5,-64"/>
<text text-anchor="middle" x="238.5" y="-71" font-family="Helvetica,sans-Serif" font-size="10.00">handler::HandlerContainer</text>
</a>
</g>
</g>
<!-- Node6&#45;&gt;Node5 -->
<g id="edge5" class="edge"><title>Node6&#45;&gt;Node5</title>
<path fill="none" stroke="midnightblue" d="M314.049,-70.6189C374.257,-68.292 456.893,-65.0983 506.699,-63.1735"/>
<polygon fill="midnightblue" stroke="midnightblue" points="313.693,-67.1299 303.836,-71.0136 313.964,-74.1247 313.693,-67.1299"/>
</g>
<!-- Node7 -->
<g id="node7" class="node"><title>Node7</title>
<g id="a_node7"><a xlink:href="classMelanobot.html" target="_top" xlink:title="Main bot class. ">
<polygon fill="none" stroke="black" points="392,-30 392,-49 454,-49 454,-30 392,-30"/>
<text text-anchor="middle" x="423" y="-37" font-family="Helvetica,sans-Serif" font-size="10.00">Melanobot</text>
</a>
</g>
</g>
<!-- Node6&#45;&gt;Node7 -->
<g id="edge7" class="edge"><title>Node6&#45;&gt;Node7</title>
<path fill="none" stroke="midnightblue" d="M300.987,-62.045C331.594,-56.3428 367.218,-49.7059 391.852,-45.1166"/>
<polygon fill="midnightblue" stroke="midnightblue" points="300.012,-58.6662 290.822,-63.9386 301.294,-65.5478 300.012,-58.6662"/>
</g>
<!-- Node7&#45;&gt;Node5 -->
<g id="edge6" class="edge"><title>Node7&#45;&gt;Node5</title>
<path fill="none" stroke="#9a32cd" stroke-dasharray="5,2" d="M464.181,-46.5158C477.741,-48.8834 492.932,-51.5357 506.721,-53.9433"/>
<polygon fill="#9a32cd" stroke="#9a32cd" points="464.633,-43.0418 454.18,-44.7695 463.429,-49.9375 464.633,-43.0418"/>
<text text-anchor="middle" x="480.5" y="-53.5" font-family="Helvetica,sans-Serif" font-size="10.00"> bot</text>
</g>
<!-- Node8 -->
<g id="node8" class="node"><title>Node8</title>
<g id="a_node8"><a xlink:href="classConcurrentQueue.html" target="_top" xlink:title="ConcurrentQueue\&lt; network\l::Message \&gt;">
<polygon fill="none" stroke="black" points="170,-11.5 170,-41.5 307,-41.5 307,-11.5 170,-11.5"/>
<text text-anchor="start" x="178" y="-29.5" font-family="Helvetica,sans-Serif" font-size="10.00">ConcurrentQueue&lt; network</text>
<text text-anchor="middle" x="238.5" y="-18.5" font-family="Helvetica,sans-Serif" font-size="10.00">::Message &gt;</text>
</a>
</g>
</g>
<!-- Node8&#45;&gt;Node7 -->
<g id="edge8" class="edge"><title>Node8&#45;&gt;Node7</title>
<path fill="none" stroke="#9a32cd" stroke-dasharray="5,2" d="M317.312,-23.944C335.94,-24.1966 355.725,-25.1812 374,-27.5 379.88,-28.246 386.077,-29.4617 391.994,-30.8396"/>
<polygon fill="#9a32cd" stroke="#9a32cd" points="317.122,-20.4428 307.099,-23.8752 317.075,-27.4426 317.122,-20.4428"/>
<text text-anchor="middle" x="349.5" y="-30.5" font-family="Helvetica,sans-Serif" font-size="10.00"> messages</text>
</g>
<!-- Node9 -->
<g id="node9" class="node"><title>Node9</title>
<g id="a_node9"><a xlink:href="classConcurrentContainer.html" target="_top" xlink:title="ConcurrentContainer\l\&lt; std::queue\&lt; network\l::Message, std::deque\l\&lt; network::Message \&gt; \&gt; \&gt;">
<polygon fill="none" stroke="black" points="0,-0.5 0,-52.5 133,-52.5 133,-0.5 0,-0.5"/>
<text text-anchor="start" x="8" y="-40.5" font-family="Helvetica,sans-Serif" font-size="10.00">ConcurrentContainer</text>
<text text-anchor="start" x="8" y="-29.5" font-family="Helvetica,sans-Serif" font-size="10.00">&lt; std::queue&lt; network</text>
<text text-anchor="start" x="8" y="-18.5" font-family="Helvetica,sans-Serif" font-size="10.00">::Message, std::deque</text>
<text text-anchor="middle" x="66.5" y="-7.5" font-family="Helvetica,sans-Serif" font-size="10.00">&lt; network::Message &gt; &gt; &gt;</text>
</a>
</g>
</g>
<!-- Node9&#45;&gt;Node8 -->
<g id="edge9" class="edge"><title>Node9&#45;&gt;Node8</title>
<path fill="none" stroke="midnightblue" d="M143.502,-26.5C152.327,-26.5 161.282,-26.5 169.982,-26.5"/>
<polygon fill="midnightblue" stroke="midnightblue" points="143.226,-23.0001 133.226,-26.5 143.226,-30.0001 143.226,-23.0001"/>
</g>
</g>
</svg>
