<?xml version="1.0" encoding="UTF-8" standalone="no"?>
<!DOCTYPE svg PUBLIC "-//W3C//DTD SVG 1.1//EN"
 "http://www.w3.org/Graphics/SVG/1.1/DTD/svg11.dtd">
<!-- Generated by graphviz version 2.38.0 (20140413.2041)
 -->
<!-- Title: handler::SimpleAction Pages: 1 -->
<svg width="900pt" height="812pt"
 viewBox="0.00 0.00 900.00 812.00" xmlns="http://www.w3.org/2000/svg" xmlns:xlink="http://www.w3.org/1999/xlink">
<g id="graph0" class="graph" transform="scale(1 1) rotate(0) translate(4 808)">
<title>handler::SimpleAction</title>
<!-- Node1 -->
<g id="node1" class="node"><title>Node1</title>
<polygon fill="#bfbfbf" stroke="black" points="290,-423.5 290,-442.5 402,-442.5 402,-423.5 290,-423.5"/>
<text text-anchor="middle" x="346" y="-430.5" font-family="Helvetica,sans-Serif" font-size="10.00">handler::SimpleAction</text>
</g>
<!-- Node4 -->
<g id="node4" class="node"><title>Node4</title>
<g id="a_node4"><a xlink:href="classhandler_1_1AdminJoin.html" target="_top" xlink:title="Makes the bot join channels (IRC) ">
<polygon fill="none" stroke="black" points="452.5,-784.5 452.5,-803.5 552.5,-803.5 552.5,-784.5 452.5,-784.5"/>
<text text-anchor="middle" x="502.5" y="-791.5" font-family="Helvetica,sans-Serif" font-size="10.00">handler::AdminJoin</text>
</a>
</g>
</g>
<!-- Node1&#45;&gt;Node4 -->
<g id="edge3" class="edge"><title>Node1&#45;&gt;Node4</title>
<path fill="none" stroke="midnightblue" d="M349.705,-452.78C359.059,-518.42 392,-727.566 438,-775 442.086,-779.213 447.064,-782.501 452.416,-785.066"/>
<polygon fill="midnightblue" stroke="midnightblue" points="353.129,-451.993 348.278,-442.574 346.197,-452.963 353.129,-451.993"/>
</g>
<!-- Node5 -->
<g id="node5" class="node"><title>Node5</title>
<g id="a_node5"><a xlink:href="classhandler_1_1AdminNick.html" target="_top" xlink:title="Changes the bot nick (IRC) ">
<polygon fill="none" stroke="black" points="451.5,-746.5 451.5,-765.5 553.5,-765.5 553.5,-746.5 451.5,-746.5"/>
<text text-anchor="middle" x="502.5" y="-753.5" font-family="Helvetica,sans-Serif" font-size="10.00">handler::AdminNick</text>
</a>
</g>
</g>
<!-- Node1&#45;&gt;Node5 -->
<g id="edge4" class="edge"><title>Node1&#45;&gt;Node5</title>
<path fill="none" stroke="midnightblue" d="M346.854,-452.698C347.561,-506.281 357.062,-656.072 438,-737 441.906,-740.905 446.58,-744.014 451.596,-746.488"/>
<polygon fill="midnightblue" stroke="midnightblue" points="350.353,-452.509 346.816,-442.522 343.353,-452.535 350.353,-452.509"/>
</g>
<!-- Node6 -->
<g id="node6" class="node"><title>Node6</title>
<g id="a_node6"><a xlink:href="classhandler_1_1AdminPart.html" target="_top" xlink:title="Makes the bot part channels (IRC) ">
<polygon fill="none" stroke="black" points="452.5,-708.5 452.5,-727.5 552.5,-727.5 552.5,-708.5 452.5,-708.5"/>
<text text-anchor="middle" x="502.5" y="-715.5" font-family="Helvetica,sans-Serif" font-size="10.00">handler::AdminPart</text>
</a>
</g>
</g>
<!-- Node1&#45;&gt;Node6 -->
<g id="edge5" class="edge"><title>Node1&#45;&gt;Node6</title>
<path fill="none" stroke="midnightblue" d="M347.85,-452.826C351.041,-501.878 366.191,-629.931 438,-699 442.147,-702.989 447.096,-706.144 452.376,-708.639"/>
<polygon fill="midnightblue" stroke="midnightblue" points="351.333,-452.416 347.29,-442.623 344.343,-452.8 351.333,-452.416"/>
</g>
<!-- Node7 -->
<g id="node7" class="node"><title>Node7</title>
<g id="a_node7"><a xlink:href="classhandler_1_1AdminQuit.html" target="_top" xlink:title="Quits the bot. ">
<polygon fill="none" stroke="black" points="452.5,-670.5 452.5,-689.5 552.5,-689.5 552.5,-670.5 452.5,-670.5"/>
<text text-anchor="middle" x="502.5" y="-677.5" font-family="Helvetica,sans-Serif" font-size="10.00">handler::AdminQuit</text>
</a>
</g>
</g>
<!-- Node1&#45;&gt;Node7 -->
<g id="edge6" class="edge"><title>Node1&#45;&gt;Node7</title>
<path fill="none" stroke="midnightblue" d="M349.162,-452.948C355.017,-497.072 375.223,-603.577 438,-661 442.245,-664.883 447.255,-667.975 452.568,-670.435"/>
<polygon fill="midnightblue" stroke="midnightblue" points="352.624,-452.42 347.941,-442.916 345.675,-453.266 352.624,-452.42"/>
</g>
<!-- Node8 -->
<g id="node8" class="node"><title>Node8</title>
<g id="a_node8"><a xlink:href="classhandler_1_1AdminRaw.html" target="_top" xlink:title="Makes the bot execute a raw command (IRC) ">
<polygon fill="none" stroke="black" points="451.5,-632.5 451.5,-651.5 553.5,-651.5 553.5,-632.5 451.5,-632.5"/>
<text text-anchor="middle" x="502.5" y="-639.5" font-family="Helvetica,sans-Serif" font-size="10.00">handler::AdminRaw</text>
</a>
</g>
</g>
<!-- Node1&#45;&gt;Node8 -->
<g id="edge7" class="edge"><title>Node1&#45;&gt;Node8</title>
<path fill="none" stroke="midnightblue" d="M350.835,-452.461C359.425,-490.87 383.858,-576.704 438,-623 442.548,-626.889 447.868,-629.982 453.459,-632.442"/>
<polygon fill="midnightblue" stroke="midnightblue" points="354.234,-451.617 348.741,-442.557 347.385,-453.065 354.234,-451.617"/>
</g>
<!-- Node9 -->
<g id="node9" class="node"><title>Node9</title>
<g id="a_node9"><a xlink:href="classhandler_1_1AdminReconnect.html" target="_top" xlink:title="Makes the bot reconnect. ">
<polygon fill="none" stroke="black" points="438,-594.5 438,-613.5 567,-613.5 567,-594.5 438,-594.5"/>
<text text-anchor="middle" x="502.5" y="-601.5" font-family="Helvetica,sans-Serif" font-size="10.00">handler::AdminReconnect</text>
</a>
</g>
</g>
<!-- Node1&#45;&gt;Node9 -->
<g id="edge8" class="edge"><title>Node1&#45;&gt;Node9</title>
<path fill="none" stroke="midnightblue" d="M353.398,-452.544C365.008,-484.947 392.631,-549.713 438,-585 442.996,-588.886 448.776,-591.979 454.773,-594.44"/>
<polygon fill="midnightblue" stroke="midnightblue" points="356.637,-451.201 350.072,-442.885 350.018,-453.48 356.637,-451.201"/>
</g>
<!-- Node10 -->
<g id="node10" class="node"><title>Node10</title>
<g id="a_node10"><a xlink:href="classhandler_1_1Cointoss.html" target="_top" xlink:title="Shows one of the given items, at random. ">
<polygon fill="none" stroke="black" points="456,-556.5 456,-575.5 549,-575.5 549,-556.5 456,-556.5"/>
<text text-anchor="middle" x="502.5" y="-563.5" font-family="Helvetica,sans-Serif" font-size="10.00">handler::Cointoss</text>
</a>
</g>
</g>
<!-- Node1&#45;&gt;Node10 -->
<g id="edge9" class="edge"><title>Node1&#45;&gt;Node10</title>
<path fill="none" stroke="midnightblue" d="M356.927,-451.511C371.424,-476.795 400.759,-521.853 438,-547 443.722,-550.864 450.25,-553.96 456.892,-556.437"/>
<polygon fill="midnightblue" stroke="midnightblue" points="359.877,-449.615 351.955,-442.58 353.761,-453.02 359.877,-449.615"/>
</g>
<!-- Node11 -->
<g id="node11" class="node"><title>Node11</title>
<g id="a_node11"><a xlink:href="classhandler_1_1Echo.html" target="_top" xlink:title="Just repeat what it has been told. ">
<polygon fill="none" stroke="black" points="464,-518.5 464,-537.5 541,-537.5 541,-518.5 464,-518.5"/>
<text text-anchor="middle" x="502.5" y="-525.5" font-family="Helvetica,sans-Serif" font-size="10.00">handler::Echo</text>
</a>
</g>
</g>
<!-- Node1&#45;&gt;Node11 -->
<g id="edge10" class="edge"><title>Node1&#45;&gt;Node11</title>
<path fill="none" stroke="midnightblue" d="M362.866,-449.777C379.932,-466.917 408.6,-493.194 438,-509 446.007,-513.305 455.119,-516.762 463.892,-519.485"/>
<polygon fill="midnightblue" stroke="midnightblue" points="365.368,-447.33 355.88,-442.615 360.357,-452.217 365.368,-447.33"/>
</g>
<!-- Node12 -->
<g id="node12" class="node"><title>Node12</title>
<g id="a_node12"><a xlink:href="classhandler_1_1Help.html" target="_top" xlink:title="Handler showing help on the available handlers. ">
<polygon fill="none" stroke="black" points="465.5,-480.5 465.5,-499.5 539.5,-499.5 539.5,-480.5 465.5,-480.5"/>
<text text-anchor="middle" x="502.5" y="-487.5" font-family="Helvetica,sans-Serif" font-size="10.00">handler::Help</text>
</a>
</g>
</g>
<!-- Node1&#45;&gt;Node12 -->
<g id="edge11" class="edge"><title>Node1&#45;&gt;Node12</title>
<path fill="none" stroke="midnightblue" d="M377.267,-446.577C394.824,-454.215 417.459,-463.661 438,-471 447.428,-474.368 457.781,-477.642 467.343,-480.496"/>
<polygon fill="midnightblue" stroke="midnightblue" points="378.645,-443.359 368.082,-442.544 375.831,-449.769 378.645,-443.359"/>
</g>
<!-- Node13 -->
<g id="node13" class="node"><title>Node13</title>
<g id="a_node13"><a xlink:href="classhandler_1_1License.html" target="_top" xlink:title="Handler showing licensing information. ">
<polygon fill="none" stroke="black" points="458.5,-442.5 458.5,-461.5 546.5,-461.5 546.5,-442.5 458.5,-442.5"/>
<text text-anchor="middle" x="502.5" y="-449.5" font-family="Helvetica,sans-Serif" font-size="10.00">handler::License</text>
</a>
</g>
</g>
<!-- Node1&#45;&gt;Node13 -->
<g id="edge12" class="edge"><title>Node1&#45;&gt;Node13</title>
<path fill="none" stroke="midnightblue" d="M412.384,-441.041C427.85,-442.943 443.965,-444.925 458.171,-446.672"/>
<polygon fill="midnightblue" stroke="midnightblue" points="412.694,-437.553 402.342,-439.806 411.84,-444.5 412.694,-437.553"/>
</g>
<!-- Node14 -->
<g id="node14" class="node"><title>Node14</title>
<g id="a_node14"><a xlink:href="classhandler_1_1ListClear.html" target="_top" xlink:title="Used by AbstractList to remove all elements. ">
<polygon fill="none" stroke="black" points="456,-404.5 456,-423.5 549,-423.5 549,-404.5 456,-404.5"/>
<text text-anchor="middle" x="502.5" y="-411.5" font-family="Helvetica,sans-Serif" font-size="10.00">handler::ListClear</text>
</a>
</g>
</g>
<!-- Node1&#45;&gt;Node14 -->
<g id="edge13" class="edge"><title>Node1&#45;&gt;Node14</title>
<path fill="none" stroke="midnightblue" d="M412.326,-424.966C426.92,-423.172 442.096,-421.305 455.702,-419.632"/>
<polygon fill="midnightblue" stroke="midnightblue" points="411.84,-421.5 402.342,-426.194 412.694,-428.447 411.84,-421.5"/>
</g>
<!-- Node15 -->
<g id="node15" class="node"><title>Node15</title>
<g id="a_node15"><a xlink:href="classhandler_1_1ListInsert.html" target="_top" xlink:title="Used by AbstractList to add elements. ">
<polygon fill="none" stroke="black" points="455,-366.5 455,-385.5 550,-385.5 550,-366.5 455,-366.5"/>
<text text-anchor="middle" x="502.5" y="-373.5" font-family="Helvetica,sans-Serif" font-size="10.00">handler::ListInsert</text>
</a>
</g>
</g>
<!-- Node1&#45;&gt;Node15 -->
<g id="edge14" class="edge"><title>Node1&#45;&gt;Node15</title>
<path fill="none" stroke="midnightblue" d="M377.267,-419.423C394.824,-411.785 417.459,-402.339 438,-395 447.428,-391.632 457.781,-388.358 467.343,-385.504"/>
<polygon fill="midnightblue" stroke="midnightblue" points="375.831,-416.231 368.082,-423.456 378.645,-422.641 375.831,-416.231"/>
</g>
<!-- Node16 -->
<g id="node16" class="node"><title>Node16</title>
<g id="a_node16"><a xlink:href="classhandler_1_1ListRemove.html" target="_top" xlink:title="Used by AbstractList to remove elements. ">
<polygon fill="none" stroke="black" points="449,-328.5 449,-347.5 556,-347.5 556,-328.5 449,-328.5"/>
<text text-anchor="middle" x="502.5" y="-335.5" font-family="Helvetica,sans-Serif" font-size="10.00">handler::ListRemove</text>
</a>
</g>
</g>
<!-- Node1&#45;&gt;Node16 -->
<g id="edge15" class="edge"><title>Node1&#45;&gt;Node16</title>
<path fill="none" stroke="midnightblue" d="M362.866,-416.223C379.932,-399.083 408.6,-372.806 438,-357 444.993,-353.24 452.83,-350.127 460.547,-347.585"/>
<polygon fill="midnightblue" stroke="midnightblue" points="360.357,-413.783 355.88,-423.385 365.368,-418.67 360.357,-413.783"/>
</g>
<!-- Node17 -->
<g id="node17" class="node"><title>Node17</title>
<g id="a_node17"><a xlink:href="classhandler_1_1Morse.html" target="_top" xlink:title="Handler translating between morse and latin. ">
<polygon fill="none" stroke="black" points="462,-290.5 462,-309.5 543,-309.5 543,-290.5 462,-290.5"/>
<text text-anchor="middle" x="502.5" y="-297.5" font-family="Helvetica,sans-Serif" font-size="10.00">handler::Morse</text>
</a>
</g>
</g>
<!-- Node1&#45;&gt;Node17 -->
<g id="edge16" class="edge"><title>Node1&#45;&gt;Node17</title>
<path fill="none" stroke="midnightblue" d="M356.927,-414.489C371.424,-389.205 400.759,-344.147 438,-319 445.152,-314.17 453.564,-310.54 461.884,-307.82"/>
<polygon fill="midnightblue" stroke="midnightblue" points="353.761,-412.98 351.955,-423.42 359.877,-416.385 353.761,-412.98"/>
</g>
<!-- Node18 -->
<g id="node18" class="node"><title>Node18</title>
<g id="a_node18"><a xlink:href="classhandler_1_1RenderPony.html" target="_top" xlink:title="Draws a pretty My Little Pony ASCII art. ">
<polygon fill="none" stroke="black" points="448.5,-252.5 448.5,-271.5 556.5,-271.5 556.5,-252.5 448.5,-252.5"/>
<text text-anchor="middle" x="502.5" y="-259.5" font-family="Helvetica,sans-Serif" font-size="10.00">handler::RenderPony</text>
</a>
</g>
</g>
<!-- Node1&#45;&gt;Node18 -->
<g id="edge17" class="edge"><title>Node1&#45;&gt;Node18</title>
<path fill="none" stroke="midnightblue" d="M353.398,-413.456C365.008,-381.053 392.631,-316.287 438,-281 442.996,-277.114 448.776,-274.021 454.773,-271.56"/>
<polygon fill="midnightblue" stroke="midnightblue" points="350.018,-412.52 350.072,-423.115 356.637,-414.799 350.018,-412.52"/>
</g>
<!-- Node19 -->
<g id="node19" class="node"><title>Node19</title>
<g id="a_node19"><a xlink:href="classhandler_1_1ReverseText.html" target="_top" xlink:title="Turns ASCII characters upside&#45;down. ">
<polygon fill="none" stroke="black" points="447.5,-214.5 447.5,-233.5 557.5,-233.5 557.5,-214.5 447.5,-214.5"/>
<text text-anchor="middle" x="502.5" y="-221.5" font-family="Helvetica,sans-Serif" font-size="10.00">handler::ReverseText</text>
</a>
</g>
</g>
<!-- Node1&#45;&gt;Node19 -->
<g id="edge18" class="edge"><title>Node1&#45;&gt;Node19</title>
<path fill="none" stroke="midnightblue" d="M350.835,-413.539C359.425,-375.13 383.858,-289.296 438,-243 442.548,-239.111 447.868,-236.018 453.459,-233.558"/>
<polygon fill="midnightblue" stroke="midnightblue" points="347.385,-412.935 348.741,-423.443 354.234,-414.383 347.385,-412.935"/>
</g>
<!-- Node20 -->
<g id="node20" class="node"><title>Node20</title>
<g id="a_node20"><a xlink:href="classhandler_1_1ServerHost.html" target="_top" xlink:title="Shows the server the bot is connected to. ">
<polygon fill="none" stroke="black" points="450.5,-176.5 450.5,-195.5 554.5,-195.5 554.5,-176.5 450.5,-176.5"/>
<text text-anchor="middle" x="502.5" y="-183.5" font-family="Helvetica,sans-Serif" font-size="10.00">handler::ServerHost</text>
</a>
</g>
</g>
<!-- Node1&#45;&gt;Node20 -->
<g id="edge19" class="edge"><title>Node1&#45;&gt;Node20</title>
<path fill="none" stroke="midnightblue" d="M349.162,-413.052C355.017,-368.928 375.223,-262.423 438,-205 442.245,-201.117 447.255,-198.025 452.568,-195.565"/>
<polygon fill="midnightblue" stroke="midnightblue" points="345.675,-412.734 347.941,-423.084 352.624,-413.58 345.675,-412.734"/>
</g>
<!-- Node21 -->
<g id="node21" class="node"><title>Node21</title>
<g id="a_node21"><a xlink:href="classhandler_1_1SimpleGroup.html" target="_top" xlink:title="A simple group of actions which share settings. ">
<polygon fill="none" stroke="black" points="447.5,-138.5 447.5,-157.5 557.5,-157.5 557.5,-138.5 447.5,-138.5"/>
<text text-anchor="middle" x="502.5" y="-145.5" font-family="Helvetica,sans-Serif" font-size="10.00">handler::SimpleGroup</text>
</a>
</g>
</g>
<!-- Node1&#45;&gt;Node21 -->
<g id="edge20" class="edge"><title>Node1&#45;&gt;Node21</title>
<path fill="none" stroke="midnightblue" d="M347.85,-413.174C351.041,-364.122 366.191,-236.069 438,-167 442.064,-163.091 446.898,-159.983 452.06,-157.511"/>
<polygon fill="midnightblue" stroke="midnightblue" points="344.343,-413.2 347.29,-423.377 351.333,-413.584 344.343,-413.2"/>
</g>
<!-- Node25 -->
<g id="node25" class="node"><title>Node25</title>
<g id="a_node25"><a xlink:href="classhandler_1_1SimpleWebApi.html" target="_top" xlink:title="Simple base class for handlers calling web resources. ">
<polygon fill="none" stroke="black" points="443,-100.5 443,-119.5 562,-119.5 562,-100.5 443,-100.5"/>
<text text-anchor="middle" x="502.5" y="-107.5" font-family="Helvetica,sans-Serif" font-size="10.00">handler::SimpleWebApi</text>
</a>
</g>
</g>
<!-- Node1&#45;&gt;Node25 -->
<g id="edge24" class="edge"><title>Node1&#45;&gt;Node25</title>
<path fill="none" stroke="midnightblue" d="M346.854,-413.302C347.561,-359.719 357.062,-209.928 438,-129 441.906,-125.095 446.58,-121.986 451.596,-119.512"/>
<polygon fill="midnightblue" stroke="midnightblue" points="343.353,-413.465 346.816,-423.478 350.353,-413.491 343.353,-413.465"/>
</g>
<!-- Node32 -->
<g id="node32" class="node"><title>Node32</title>
<g id="a_node32"><a xlink:href="classhandler_1_1WhoisCheckMe.html" target="_top" xlink:title="Sends a WHOIS about the message sender. ">
<polygon fill="none" stroke="black" points="440.5,-62.5 440.5,-81.5 564.5,-81.5 564.5,-62.5 440.5,-62.5"/>
<text text-anchor="middle" x="502.5" y="-69.5" font-family="Helvetica,sans-Serif" font-size="10.00">handler::WhoisCheckMe</text>
</a>
</g>
</g>
<!-- Node1&#45;&gt;Node32 -->
<g id="edge31" class="edge"><title>Node1&#45;&gt;Node32</title>
<path fill="none" stroke="midnightblue" d="M349.705,-413.22C359.059,-347.58 392,-138.434 438,-91 441.765,-87.1175 446.288,-84.0201 451.164,-81.5506"/>
<polygon fill="midnightblue" stroke="midnightblue" points="346.197,-413.037 348.278,-423.426 353.129,-414.007 346.197,-413.037"/>
</g>
<!-- Node2 -->
<g id="node2" class="node"><title>Node2</title>
<g id="a_node2"><a xlink:href="classhandler_1_1Handler.html" target="_top" xlink:title="Message handler abstract base class. ">
<polygon fill="none" stroke="black" points="166,-423.5 166,-442.5 254,-442.5 254,-423.5 166,-423.5"/>
<text text-anchor="middle" x="210" y="-430.5" font-family="Helvetica,sans-Serif" font-size="10.00">handler::Handler</text>
</a>
</g>
</g>
<!-- Node2&#45;&gt;Node1 -->
<g id="edge1" class="edge"><title>Node2&#45;&gt;Node1</title>
<path fill="none" stroke="midnightblue" d="M264.18,-433C272.568,-433 281.258,-433 289.693,-433"/>
<polygon fill="midnightblue" stroke="midnightblue" points="264.136,-429.5 254.136,-433 264.136,-436.5 264.136,-429.5"/>
</g>
<!-- Node3 -->
<g id="node3" class="node"><title>Node3</title>
<g id="a_node3"><a xlink:href="classhandler_1_1HandlerContainer.html" target="_top" xlink:title="Base class for classes which may contain handlers. ">
<polygon fill="none" stroke="black" points="0,-423.5 0,-442.5 130,-442.5 130,-423.5 0,-423.5"/>
<text text-anchor="middle" x="65" y="-430.5" font-family="Helvetica,sans-Serif" font-size="10.00">handler::HandlerContainer</text>
</a>
</g>
</g>
<!-- Node3&#45;&gt;Node2 -->
<g id="edge2" class="edge"><title>Node3&#45;&gt;Node2</title>
<path fill="none" stroke="midnightblue" d="M140.555,-433C149.218,-433 157.821,-433 165.854,-433"/>
<polygon fill="midnightblue" stroke="midnightblue" points="140.388,-429.5 130.388,-433 140.388,-436.5 140.388,-429.5"/>
</g>
<!-- Node22 -->
<g id="node22" class="node"><title>Node22</title>
<g id="a_node22"><a xlink:href="classhandler_1_1AbstractList.html" target="_top" xlink:title="Handles a list of elements (base class) ">
<polygon fill="none" stroke="black" points="603,-185.5 603,-204.5 710,-204.5 710,-185.5 603,-185.5"/>
<text text-anchor="middle" x="656.5" y="-192.5" font-family="Helvetica,sans-Serif" font-size="10.00">handler::AbstractList</text>
</a>
</g>
</g>
<!-- Node21&#45;&gt;Node22 -->
<g id="edge21" class="edge"><title>Node21&#45;&gt;Node22</title>
<path fill="none" stroke="midnightblue" d="M545.456,-160.452C552.649,-162.616 560.044,-164.859 567,-167 586.561,-173.02 608.494,-179.958 625.632,-185.422"/>
<polygon fill="midnightblue" stroke="midnightblue" points="546.418,-157.087 535.834,-157.568 544.408,-163.792 546.418,-157.087"/>
</g>
<!-- Node24 -->
<g id="node24" class="node"><title>Node24</title>
<g id="a_node24"><a xlink:href="classhandler_1_1Bridge.html" target="_top" xlink:title="Acts as bridge across connections. ">
<polygon fill="none" stroke="black" points="615.5,-138.5 615.5,-157.5 697.5,-157.5 697.5,-138.5 615.5,-138.5"/>
<text text-anchor="middle" x="656.5" y="-145.5" font-family="Helvetica,sans-Serif" font-size="10.00">handler::Bridge</text>
</a>
</g>
</g>
<!-- Node21&#45;&gt;Node24 -->
<g id="edge23" class="edge"><title>Node21&#45;&gt;Node24</title>
<path fill="none" stroke="midnightblue" d="M567.892,-148C583.879,-148 600.568,-148 615.038,-148"/>
<polygon fill="midnightblue" stroke="midnightblue" points="567.518,-144.5 557.517,-148 567.517,-151.5 567.518,-144.5"/>
</g>
<!-- Node23 -->
<g id="node23" class="node"><title>Node23</title>
<g id="a_node23"><a xlink:href="classhandler_1_1AdminGroup.html" target="_top" xlink:title="Manages a user group. ">
<polygon fill="none" stroke="black" points="765,-190.5 765,-209.5 873,-209.5 873,-190.5 765,-190.5"/>
<text text-anchor="middle" x="819" y="-197.5" font-family="Helvetica,sans-Serif" font-size="10.00">handler::AdminGroup</text>
</a>
</g>
</g>
<!-- Node22&#45;&gt;Node23 -->
<g id="edge22" class="edge"><title>Node22&#45;&gt;Node23</title>
<path fill="none" stroke="midnightblue" d="M720.114,-196.951C734.876,-197.41 750.476,-197.896 764.779,-198.342"/>
<polygon fill="midnightblue" stroke="midnightblue" points="720.158,-193.45 710.054,-196.637 719.94,-200.447 720.158,-193.45"/>
</g>
<!-- Node26 -->
<g id="node26" class="node"><title>Node26</title>
<g id="a_node26"><a xlink:href="classhandler_1_1SimpleJson.html" target="_top" xlink:title="Simple base class for handlers using AJAX web APIs. ">
<polygon fill="none" stroke="black" points="604,-81.5 604,-100.5 709,-100.5 709,-81.5 604,-81.5"/>
<text text-anchor="middle" x="656.5" y="-88.5" font-family="Helvetica,sans-Serif" font-size="10.00">handler::SimpleJson</text>
</a>
</g>
</g>
<!-- Node25&#45;&gt;Node26 -->
<g id="edge25" class="edge"><title>Node25&#45;&gt;Node26</title>
<path fill="none" stroke="midnightblue" d="M572.333,-101.396C582.92,-100.072 593.695,-98.7257 603.824,-97.4595"/>
<polygon fill="midnightblue" stroke="midnightblue" points="571.756,-97.9407 562.267,-102.654 572.624,-104.887 571.756,-97.9407"/>
</g>
<!-- Node27 -->
<g id="node27" class="node"><title>Node27</title>
<g id="a_node27"><a xlink:href="classhandler_1_1ChuckNorris.html" target="_top" xlink:title="Searches for a Chuck Norris joke. ">
<polygon fill="none" stroke="black" points="764.5,-152.5 764.5,-171.5 873.5,-171.5 873.5,-152.5 764.5,-152.5"/>
<text text-anchor="middle" x="819" y="-159.5" font-family="Helvetica,sans-Serif" font-size="10.00">handler::ChuckNorris</text>
</a>
</g>
</g>
<!-- Node26&#45;&gt;Node27 -->
<g id="edge26" class="edge"><title>Node26&#45;&gt;Node27</title>
<path fill="none" stroke="midnightblue" d="M679.311,-106.102C696.707,-117.572 722.045,-133.023 746,-143 754.831,-146.678 764.573,-149.817 773.961,-152.422"/>
<polygon fill="midnightblue" stroke="midnightblue" points="681.241,-103.182 670.987,-100.517 677.341,-108.995 681.241,-103.182"/>
</g>
<!-- Node28 -->
<g id="node28" class="node"><title>Node28</title>
<g id="a_node28"><a xlink:href="classhandler_1_1SearchImageGoogle.html" target="_top" xlink:title="Handler searching images with Google. ">
<polygon fill="none" stroke="black" points="747.5,-114.5 747.5,-133.5 890.5,-133.5 890.5,-114.5 747.5,-114.5"/>
<text text-anchor="middle" x="819" y="-121.5" font-family="Helvetica,sans-Serif" font-size="10.00">handler::SearchImageGoogle</text>
</a>
</g>
</g>
<!-- Node26&#45;&gt;Node28 -->
<g id="edge27" class="edge"><title>Node26&#45;&gt;Node28</title>
<path fill="none" stroke="midnightblue" d="M713.898,-102.596C732.799,-106.482 753.642,-110.768 771.681,-114.476"/>
<polygon fill="midnightblue" stroke="midnightblue" points="714.423,-99.1307 703.923,-100.545 713.013,-105.987 714.423,-99.1307"/>
</g>
<!-- Node29 -->
<g id="node29" class="node"><title>Node29</title>
<g id="a_node29"><a xlink:href="classhandler_1_1SearchVideoYoutube.html" target="_top" xlink:title="Handler searching a video on Youtube. ">
<polygon fill="none" stroke="black" points="746,-76.5 746,-95.5 892,-95.5 892,-76.5 746,-76.5"/>
<text text-anchor="middle" x="819" y="-83.5" font-family="Helvetica,sans-Serif" font-size="10.00">handler::SearchVideoYoutube</text>
</a>
</g>
</g>
<!-- Node26&#45;&gt;Node29 -->
<g id="edge28" class="edge"><title>Node26&#45;&gt;Node29</title>
<path fill="none" stroke="midnightblue" d="M719.259,-89.076C728.001,-88.8037 737.052,-88.5218 745.966,-88.2441"/>
<polygon fill="midnightblue" stroke="midnightblue" points="719.053,-85.5807 709.167,-89.3904 719.271,-92.5773 719.053,-85.5807"/>
</g>
<!-- Node30 -->
<g id="node30" class="node"><title>Node30</title>
<g id="a_node30"><a xlink:href="classhandler_1_1SearchWebSearx.html" target="_top" xlink:title="Handler searching a web page using Searx. ">
<polygon fill="none" stroke="black" points="753.5,-38.5 753.5,-57.5 884.5,-57.5 884.5,-38.5 753.5,-38.5"/>
<text text-anchor="middle" x="819" y="-45.5" font-family="Helvetica,sans-Serif" font-size="10.00">handler::SearchWebSearx</text>
</a>
</g>
</g>
<!-- Node26&#45;&gt;Node30 -->
<g id="edge29" class="edge"><title>Node26&#45;&gt;Node30</title>
<path fill="none" stroke="midnightblue" d="M702.261,-78.7977C716.262,-74.9982 731.769,-70.8074 746,-67 757.614,-63.8927 770.292,-60.5356 781.728,-57.5202"/>
<polygon fill="midnightblue" stroke="midnightblue" points="701.105,-75.4848 692.373,-81.4842 702.941,-82.24 701.105,-75.4848"/>
</g>
<!-- Node31 -->
<g id="node31" class="node"><title>Node31</title>
<g id="a_node31"><a xlink:href="classhandler_1_1UrbanDictionary.html" target="_top" xlink:title="Handler searching a definition on Urban Dictionary. ">
<polygon fill="none" stroke="black" points="756.5,-0.5 756.5,-19.5 881.5,-19.5 881.5,-0.5 756.5,-0.5"/>
<text text-anchor="middle" x="819" y="-7.5" font-family="Helvetica,sans-Serif" font-size="10.00">handler::UrbanDictionary</text>
</a>
</g>
</g>
<!-- Node26&#45;&gt;Node31 -->
<g id="edge30" class="edge"><title>Node26&#45;&gt;Node31</title>
<path fill="none" stroke="midnightblue" d="M676.499,-74.6786C693.636,-60.7224 720.062,-41.039 746,-29 754.091,-25.2445 763.051,-22.1332 771.824,-19.5916"/>
<polygon fill="midnightblue" stroke="midnightblue" points="673.887,-72.2988 668.436,-81.384 678.363,-77.6809 673.887,-72.2988"/>
</g>
</g>
</svg>
