<?xml version="1.0" encoding="UTF-8" standalone="no"?>
<!DOCTYPE svg PUBLIC "-//W3C//DTD SVG 1.1//EN"
 "http://www.w3.org/Graphics/SVG/1.1/DTD/svg11.dtd">
<!-- Generated by graphviz version 2.38.0 (20140413.2041)
 -->
<!-- Title: ErrorLog Pages: 1 -->
<svg width="135pt" height="219pt"
 viewBox="0.00 0.00 135.00 219.00" xmlns="http://www.w3.org/2000/svg" xmlns:xlink="http://www.w3.org/1999/xlink">
<g id="graph0" class="graph" transform="scale(1 1) rotate(0) translate(4 215)">
<title>ErrorLog</title>
<!-- Node1 -->
<g id="node1" class="node"><title>Node1</title>
<polygon fill="#bfbfbf" stroke="black" points="31.5,-0.5 31.5,-19.5 84.5,-19.5 84.5,-0.5 31.5,-0.5"/>
<text text-anchor="middle" x="58" y="-7.5" font-family="Helvetica,sans-Serif" font-size="10.00">ErrorLog</text>
</g>
<!-- Node2 -->
<g id="node2" class="node"><title>Node2</title>
<g id="a_node2"><a xlink:href="classLog.html" target="_top" xlink:title="Simple log stream&#45;like interface. ">
<polygon fill="none" stroke="black" points="42,-57.5 42,-76.5 74,-76.5 74,-57.5 42,-57.5"/>
<text text-anchor="middle" x="58" y="-64.5" font-family="Helvetica,sans-Serif" font-size="10.00">Log</text>
</a>
</g>
</g>
<!-- Node2&#45;&gt;Node1 -->
<g id="edge1" class="edge"><title>Node2&#45;&gt;Node1</title>
<path fill="none" stroke="midnightblue" d="M58,-47.1166C58,-37.8173 58,-27.0557 58,-19.7149"/>
<polygon fill="midnightblue" stroke="midnightblue" points="54.5001,-47.4062 58,-57.4062 61.5001,-47.4063 54.5001,-47.4062"/>
</g>
<!-- Node3 -->
<g id="node3" class="node"><title>Node3</title>
<g id="a_node3"><a xlink:href="classstring_1_1FormattedString.html" target="_top" xlink:title="A formatted string. ">
<polygon fill="none" stroke="black" points="-7.10543e-15,-124.5 -7.10543e-15,-143.5 116,-143.5 116,-124.5 -7.10543e-15,-124.5"/>
<text text-anchor="middle" x="58" y="-131.5" font-family="Helvetica,sans-Serif" font-size="10.00">string::FormattedString</text>
</a>
</g>
</g>
<!-- Node3&#45;&gt;Node2 -->
<g id="edge2" class="edge"><title>Node3&#45;&gt;Node2</title>
<path fill="none" stroke="#9a32cd" stroke-dasharray="5,2" d="M58,-114.037C58,-101.67 58,-86.1198 58,-76.6273"/>
<polygon fill="#9a32cd" stroke="#9a32cd" points="54.5001,-114.234 58,-124.234 61.5001,-114.234 54.5001,-114.234"/>
<text text-anchor="middle" x="75" y="-98" font-family="Helvetica,sans-Serif" font-size="10.00"> stream</text>
</g>
<!-- Node4 -->
<g id="node4" class="node"><title>Node4</title>
<g id="a_node4"><a xlink:href="classstring_1_1Formatter.html" target="_top" xlink:title="Abstract formatting visitor (and factory) ">
<polygon fill="none" stroke="black" points="13.5,-191.5 13.5,-210.5 102.5,-210.5 102.5,-191.5 13.5,-191.5"/>
<text text-anchor="middle" x="58" y="-198.5" font-family="Helvetica,sans-Serif" font-size="10.00">string::Formatter</text>
</a>
</g>
</g>
<!-- Node4&#45;&gt;Node3 -->
<g id="edge3" class="edge"><title>Node4&#45;&gt;Node3</title>
<path fill="none" stroke="#9a32cd" stroke-dasharray="5,2" d="M58,-181.037C58,-168.67 58,-153.12 58,-143.627"/>
<polygon fill="#9a32cd" stroke="#9a32cd" points="54.5001,-181.234 58,-191.234 61.5001,-181.234 54.5001,-181.234"/>
<text text-anchor="middle" x="92.5" y="-165" font-family="Helvetica,sans-Serif" font-size="10.00"> input_formatter</text>
</g>
</g>
</svg>
