<?xml version="1.0" encoding="UTF-8" standalone="no"?>
<!DOCTYPE svg PUBLIC "-//W3C//DTD SVG 1.1//EN"
 "http://www.w3.org/Graphics/SVG/1.1/DTD/svg11.dtd">
<!-- Generated by graphviz version 2.38.0 (20140413.2041)
 -->
<!-- Title: StdinConnection Pages: 1 -->
<svg width="445pt" height="252pt"
 viewBox="0.00 0.00 445.00 252.00" xmlns="http://www.w3.org/2000/svg" xmlns:xlink="http://www.w3.org/1999/xlink">
<g id="graph0" class="graph" transform="scale(1 1) rotate(0) translate(4 248)">
<title>StdinConnection</title>
<!-- Node1 -->
<g id="node1" class="node"><title>Node1</title>
<polygon fill="#bfbfbf" stroke="black" points="125,-0.5 125,-19.5 214,-19.5 214,-0.5 125,-0.5"/>
<text text-anchor="middle" x="169.5" y="-7.5" font-family="Helvetica,sans-Serif" font-size="10.00">StdinConnection</text>
</g>
<!-- Node2 -->
<g id="node2" class="node"><title>Node2</title>
<g id="a_node2"><a xlink:href="classnetwork_1_1Connection.html" target="_top" xlink:title="Abstract service connection. ">
<polygon fill="none" stroke="black" points="0,-67.5 0,-86.5 107,-86.5 107,-67.5 0,-67.5"/>
<text text-anchor="middle" x="53.5" y="-74.5" font-family="Helvetica,sans-Serif" font-size="10.00">network::Connection</text>
</a>
</g>
</g>
<!-- Node2&#45;&gt;Node1 -->
<g id="edge1" class="edge"><title>Node2&#45;&gt;Node1</title>
<path fill="none" stroke="midnightblue" d="M77.9721,-62.2872C100.962,-49.4047 134.657,-30.5243 154.104,-19.6273"/>
<polygon fill="midnightblue" stroke="midnightblue" points="76.1571,-59.2921 69.1443,-67.2338 79.579,-65.3988 76.1571,-59.2921"/>
</g>
<!-- Node3 -->
<g id="node3" class="node"><title>Node3</title>
<g id="a_node3"><a xlink:href="classstring_1_1Formatter.html" target="_top" xlink:title="Abstract formatting visitor (and factory) ">
<polygon fill="none" stroke="black" points="125,-67.5 125,-86.5 214,-86.5 214,-67.5 125,-67.5"/>
<text text-anchor="middle" x="169.5" y="-74.5" font-family="Helvetica,sans-Serif" font-size="10.00">string::Formatter</text>
</a>
</g>
</g>
<!-- Node3&#45;&gt;Node1 -->
<g id="edge2" class="edge"><title>Node3&#45;&gt;Node1</title>
<path fill="none" stroke="#9a32cd" stroke-dasharray="5,2" d="M169.5,-57.037C169.5,-44.6703 169.5,-29.1198 169.5,-19.6273"/>
<polygon fill="#9a32cd" stroke="#9a32cd" points="166,-57.2338 169.5,-67.2338 173,-57.2338 166,-57.2338"/>
<text text-anchor="middle" x="193.5" y="-41" font-family="Helvetica,sans-Serif" font-size="10.00"> formatter_</text>
</g>
<!-- Node4 -->
<g id="node4" class="node"><title>Node4</title>
<g id="a_node4"><a xlink:href="classMelanobot.html" target="_top" xlink:title="Main bot class. ">
<polygon fill="none" stroke="black" points="231.5,-67.5 231.5,-86.5 293.5,-86.5 293.5,-67.5 231.5,-67.5"/>
<text text-anchor="middle" x="262.5" y="-74.5" font-family="Helvetica,sans-Serif" font-size="10.00">Melanobot</text>
</a>
</g>
</g>
<!-- Node4&#45;&gt;Node1 -->
<g id="edge3" class="edge"><title>Node4&#45;&gt;Node1</title>
<path fill="none" stroke="#9a32cd" stroke-dasharray="5,2" d="M247.392,-60.1545C239.993,-52.8928 230.71,-44.4804 221.5,-38 211.351,-30.8584 199.065,-24.3916 188.985,-19.5784"/>
<polygon fill="#9a32cd" stroke="#9a32cd" points="245.07,-62.7839 254.588,-67.4369 250.049,-57.8637 245.07,-62.7839"/>
<text text-anchor="middle" x="243" y="-41" font-family="Helvetica,sans-Serif" font-size="10.00"> bot</text>
</g>
<!-- Node5 -->
<g id="node5" class="node"><title>Node5</title>
<g id="a_node5"><a xlink:href="classhandler_1_1HandlerContainer.html" target="_top" xlink:title="Base class for classes which may contain handlers. ">
<polygon fill="none" stroke="black" points="151.5,-140 151.5,-159 281.5,-159 281.5,-140 151.5,-140"/>
<text text-anchor="middle" x="216.5" y="-147" font-family="Helvetica,sans-Serif" font-size="10.00">handler::HandlerContainer</text>
</a>
</g>
</g>
<!-- Node5&#45;&gt;Node4 -->
<g id="edge4" class="edge"><title>Node5&#45;&gt;Node4</title>
<path fill="none" stroke="midnightblue" d="M227.86,-131.09C237.054,-116.999 249.617,-97.7445 256.813,-86.7154"/>
<polygon fill="midnightblue" stroke="midnightblue" points="224.674,-129.568 222.141,-139.855 230.536,-133.393 224.674,-129.568"/>
</g>
<!-- Node6 -->
<g id="node6" class="node"><title>Node6</title>
<g id="a_node6"><a xlink:href="classConcurrentQueue.html" target="_top" xlink:title="ConcurrentQueue\&lt; network\l::Message \&gt;">
<polygon fill="none" stroke="black" points="300,-134.5 300,-164.5 437,-164.5 437,-134.5 300,-134.5"/>
<text text-anchor="start" x="308" y="-152.5" font-family="Helvetica,sans-Serif" font-size="10.00">ConcurrentQueue&lt; network</text>
<text text-anchor="middle" x="368.5" y="-141.5" font-family="Helvetica,sans-Serif" font-size="10.00">::Message &gt;</text>
</a>
</g>
</g>
<!-- Node6&#45;&gt;Node4 -->
<g id="edge5" class="edge"><title>Node6&#45;&gt;Node4</title>
<path fill="none" stroke="#9a32cd" stroke-dasharray="5,2" d="M338.769,-128.726C317.876,-114.831 290.965,-96.9316 275.331,-86.5336"/>
<polygon fill="#9a32cd" stroke="#9a32cd" points="337.039,-131.779 347.304,-134.403 340.916,-125.95 337.039,-131.779"/>
<text text-anchor="middle" x="343" y="-108" font-family="Helvetica,sans-Serif" font-size="10.00"> messages</text>
</g>
<!-- Node7 -->
<g id="node7" class="node"><title>Node7</title>
<g id="a_node7"><a xlink:href="classConcurrentContainer.html" target="_top" xlink:title="ConcurrentContainer\l\&lt; std::queue\&lt; network\l::Message, Container \&gt; \&gt;">
<polygon fill="none" stroke="black" points="304.5,-202.5 304.5,-243.5 432.5,-243.5 432.5,-202.5 304.5,-202.5"/>
<text text-anchor="start" x="312.5" y="-231.5" font-family="Helvetica,sans-Serif" font-size="10.00">ConcurrentContainer</text>
<text text-anchor="start" x="312.5" y="-220.5" font-family="Helvetica,sans-Serif" font-size="10.00">&lt; std::queue&lt; network</text>
<text text-anchor="middle" x="368.5" y="-209.5" font-family="Helvetica,sans-Serif" font-size="10.00">::Message, Container &gt; &gt;</text>
</a>
</g>
</g>
<!-- Node7&#45;&gt;Node6 -->
<g id="edge6" class="edge"><title>Node7&#45;&gt;Node6</title>
<path fill="none" stroke="midnightblue" d="M368.5,-192.158C368.5,-182.687 368.5,-172.647 368.5,-164.797"/>
<polygon fill="midnightblue" stroke="midnightblue" points="365,-192.462 368.5,-202.462 372,-192.462 365,-192.462"/>
</g>
</g>
</svg>
