<?xml version="1.0" encoding="UTF-8" standalone="no"?>
<!DOCTYPE svg PUBLIC "-//W3C//DTD SVG 1.1//EN"
 "http://www.w3.org/Graphics/SVG/1.1/DTD/svg11.dtd">
<!-- Generated by graphviz version 2.38.0 (20140413.2041)
 -->
<!-- Title: handler::AdminPart Pages: 1 -->
<svg width="145pt" height="366pt"
 viewBox="0.00 0.00 145.00 366.00" xmlns="http://www.w3.org/2000/svg" xmlns:xlink="http://www.w3.org/1999/xlink">
<g id="graph0" class="graph" transform="scale(1 1) rotate(0) translate(4 362)">
<title>handler::AdminPart</title>
<!-- Node1 -->
<g id="node1" class="node"><title>Node1</title>
<polygon fill="#bfbfbf" stroke="black" points="18.5,-0.5 18.5,-19.5 118.5,-19.5 118.5,-0.5 18.5,-0.5"/>
<text text-anchor="middle" x="68.5" y="-7.5" font-family="Helvetica,sans-Serif" font-size="10.00">handler::AdminPart</text>
</g>
<!-- Node2 -->
<g id="node2" class="node"><title>Node2</title>
<g id="a_node2"><a xlink:href="classhandler_1_1SimpleAction.html" target="_top" xlink:title="A simple action sends a message to the same connection it came from. ">
<polygon fill="none" stroke="black" points="12.5,-57.5 12.5,-76.5 124.5,-76.5 124.5,-57.5 12.5,-57.5"/>
<text text-anchor="middle" x="68.5" y="-64.5" font-family="Helvetica,sans-Serif" font-size="10.00">handler::SimpleAction</text>
</a>
</g>
</g>
<!-- Node2&#45;&gt;Node1 -->
<g id="edge1" class="edge"><title>Node2&#45;&gt;Node1</title>
<path fill="none" stroke="midnightblue" d="M68.5,-47.1166C68.5,-37.8173 68.5,-27.0557 68.5,-19.7149"/>
<polygon fill="midnightblue" stroke="midnightblue" points="65.0001,-47.4062 68.5,-57.4062 72.0001,-47.4063 65.0001,-47.4062"/>
</g>
<!-- Node3 -->
<g id="node3" class="node"><title>Node3</title>
<g id="a_node3"><a xlink:href="classhandler_1_1Handler.html" target="_top" xlink:title="Message handler abstract base class. ">
<polygon fill="none" stroke="black" points="24.5,-114.5 24.5,-133.5 112.5,-133.5 112.5,-114.5 24.5,-114.5"/>
<text text-anchor="middle" x="68.5" y="-121.5" font-family="Helvetica,sans-Serif" font-size="10.00">handler::Handler</text>
</a>
</g>
</g>
<!-- Node3&#45;&gt;Node2 -->
<g id="edge2" class="edge"><title>Node3&#45;&gt;Node2</title>
<path fill="none" stroke="midnightblue" d="M68.5,-104.117C68.5,-94.8173 68.5,-84.0557 68.5,-76.7149"/>
<polygon fill="midnightblue" stroke="midnightblue" points="65.0001,-104.406 68.5,-114.406 72.0001,-104.406 65.0001,-104.406"/>
</g>
<!-- Node4 -->
<g id="node4" class="node"><title>Node4</title>
<g id="a_node4"><a xlink:href="classMelanobot.html" target="_top" xlink:title="Main bot class. ">
<polygon fill="none" stroke="black" points="37.5,-181.5 37.5,-200.5 99.5,-200.5 99.5,-181.5 37.5,-181.5"/>
<text text-anchor="middle" x="68.5" y="-188.5" font-family="Helvetica,sans-Serif" font-size="10.00">Melanobot</text>
</a>
</g>
</g>
<!-- Node4&#45;&gt;Node3 -->
<g id="edge3" class="edge"><title>Node4&#45;&gt;Node3</title>
<path fill="none" stroke="#9a32cd" stroke-dasharray="5,2" d="M68.5,-171.037C68.5,-158.67 68.5,-143.12 68.5,-133.627"/>
<polygon fill="#9a32cd" stroke="#9a32cd" points="65.0001,-171.234 68.5,-181.234 72.0001,-171.234 65.0001,-171.234"/>
<text text-anchor="middle" x="77" y="-155" font-family="Helvetica,sans-Serif" font-size="10.00"> bot</text>
</g>
<!-- Node5 -->
<g id="node5" class="node"><title>Node5</title>
<g id="a_node5"><a xlink:href="classConcurrentQueue.html" target="_top" xlink:title="ConcurrentQueue\&lt; network\l::Message \&gt;">
<polygon fill="none" stroke="black" points="0,-248.5 0,-278.5 137,-278.5 137,-248.5 0,-248.5"/>
<text text-anchor="start" x="8" y="-266.5" font-family="Helvetica,sans-Serif" font-size="10.00">ConcurrentQueue&lt; network</text>
<text text-anchor="middle" x="68.5" y="-255.5" font-family="Helvetica,sans-Serif" font-size="10.00">::Message &gt;</text>
</a>
</g>
</g>
<!-- Node5&#45;&gt;Node4 -->
<g id="edge4" class="edge"><title>Node5&#45;&gt;Node4</title>
<path fill="none" stroke="#9a32cd" stroke-dasharray="5,2" d="M68.5,-238.091C68.5,-225.214 68.5,-210.197 68.5,-200.893"/>
<polygon fill="#9a32cd" stroke="#9a32cd" points="65.0001,-238.233 68.5,-248.233 72.0001,-238.233 65.0001,-238.233"/>
<text text-anchor="middle" x="93" y="-222" font-family="Helvetica,sans-Serif" font-size="10.00"> messages</text>
</g>
<!-- Node6 -->
<g id="node6" class="node"><title>Node6</title>
<g id="a_node6"><a xlink:href="classConcurrentContainer.html" target="_top" xlink:title="ConcurrentContainer\l\&lt; std::queue\&lt; network\l::Message, Container \&gt; \&gt;">
<polygon fill="none" stroke="black" points="4.5,-316.5 4.5,-357.5 132.5,-357.5 132.5,-316.5 4.5,-316.5"/>
<text text-anchor="start" x="12.5" y="-345.5" font-family="Helvetica,sans-Serif" font-size="10.00">ConcurrentContainer</text>
<text text-anchor="start" x="12.5" y="-334.5" font-family="Helvetica,sans-Serif" font-size="10.00">&lt; std::queue&lt; network</text>
<text text-anchor="middle" x="68.5" y="-323.5" font-family="Helvetica,sans-Serif" font-size="10.00">::Message, Container &gt; &gt;</text>
</a>
</g>
</g>
<!-- Node6&#45;&gt;Node5 -->
<g id="edge5" class="edge"><title>Node6&#45;&gt;Node5</title>
<path fill="none" stroke="midnightblue" d="M68.5,-306.158C68.5,-296.687 68.5,-286.647 68.5,-278.797"/>
<polygon fill="midnightblue" stroke="midnightblue" points="65.0001,-306.462 68.5,-316.462 72.0001,-306.462 65.0001,-306.462"/>
</g>
</g>
</svg>
