<?xml version="1.0" encoding="UTF-8" standalone="no"?>
<!DOCTYPE svg PUBLIC "-//W3C//DTD SVG 1.1//EN"
 "http://www.w3.org/Graphics/SVG/1.1/DTD/svg11.dtd">
<!-- Generated by graphviz version 2.38.0 (20140413.2041)
 -->
<!-- Title: handler::SearchWebSearx Pages: 1 -->
<svg width="145pt" height="480pt"
 viewBox="0.00 0.00 145.00 480.00" xmlns="http://www.w3.org/2000/svg" xmlns:xlink="http://www.w3.org/1999/xlink">
<g id="graph0" class="graph" transform="scale(1 1) rotate(0) translate(4 476)">
<title>handler::SearchWebSearx</title>
<!-- Node1 -->
<g id="node1" class="node"><title>Node1</title>
<polygon fill="#bfbfbf" stroke="black" points="3,-0.5 3,-19.5 134,-19.5 134,-0.5 3,-0.5"/>
<text text-anchor="middle" x="68.5" y="-7.5" font-family="Helvetica,sans-Serif" font-size="10.00">handler::SearchWebSearx</text>
</g>
<!-- Node2 -->
<g id="node2" class="node"><title>Node2</title>
<g id="a_node2"><a xlink:href="classhandler_1_1SimpleJson.html" target="_top" xlink:title="Simple base class for handlers using AJAX web APIs. ">
<polygon fill="none" stroke="black" points="16,-57.5 16,-76.5 121,-76.5 121,-57.5 16,-57.5"/>
<text text-anchor="middle" x="68.5" y="-64.5" font-family="Helvetica,sans-Serif" font-size="10.00">handler::SimpleJson</text>
</a>
</g>
</g>
<!-- Node2&#45;&gt;Node1 -->
<g id="edge1" class="edge"><title>Node2&#45;&gt;Node1</title>
<path fill="none" stroke="midnightblue" d="M68.5,-47.1166C68.5,-37.8173 68.5,-27.0557 68.5,-19.7149"/>
<polygon fill="midnightblue" stroke="midnightblue" points="65.0001,-47.4062 68.5,-57.4062 72.0001,-47.4063 65.0001,-47.4062"/>
</g>
<!-- Node3 -->
<g id="node3" class="node"><title>Node3</title>
<g id="a_node3"><a xlink:href="classhandler_1_1SimpleWebApi.html" target="_top" xlink:title="Simple base class for handlers calling web resources. ">
<polygon fill="none" stroke="black" points="9,-114.5 9,-133.5 128,-133.5 128,-114.5 9,-114.5"/>
<text text-anchor="middle" x="68.5" y="-121.5" font-family="Helvetica,sans-Serif" font-size="10.00">handler::SimpleWebApi</text>
</a>
</g>
</g>
<!-- Node3&#45;&gt;Node2 -->
<g id="edge2" class="edge"><title>Node3&#45;&gt;Node2</title>
<path fill="none" stroke="midnightblue" d="M68.5,-104.117C68.5,-94.8173 68.5,-84.0557 68.5,-76.7149"/>
<polygon fill="midnightblue" stroke="midnightblue" points="65.0001,-104.406 68.5,-114.406 72.0001,-104.406 65.0001,-104.406"/>
</g>
<!-- Node4 -->
<g id="node4" class="node"><title>Node4</title>
<g id="a_node4"><a xlink:href="classhandler_1_1SimpleAction.html" target="_top" xlink:title="A simple action sends a message to the same connection it came from. ">
<polygon fill="none" stroke="black" points="12.5,-171.5 12.5,-190.5 124.5,-190.5 124.5,-171.5 12.5,-171.5"/>
<text text-anchor="middle" x="68.5" y="-178.5" font-family="Helvetica,sans-Serif" font-size="10.00">handler::SimpleAction</text>
</a>
</g>
</g>
<!-- Node4&#45;&gt;Node3 -->
<g id="edge3" class="edge"><title>Node4&#45;&gt;Node3</title>
<path fill="none" stroke="midnightblue" d="M68.5,-161.117C68.5,-151.817 68.5,-141.056 68.5,-133.715"/>
<polygon fill="midnightblue" stroke="midnightblue" points="65.0001,-161.406 68.5,-171.406 72.0001,-161.406 65.0001,-161.406"/>
</g>
<!-- Node5 -->
<g id="node5" class="node"><title>Node5</title>
<g id="a_node5"><a xlink:href="classhandler_1_1Handler.html" target="_top" xlink:title="Message handler abstract base class. ">
<polygon fill="none" stroke="black" points="24.5,-228.5 24.5,-247.5 112.5,-247.5 112.5,-228.5 24.5,-228.5"/>
<text text-anchor="middle" x="68.5" y="-235.5" font-family="Helvetica,sans-Serif" font-size="10.00">handler::Handler</text>
</a>
</g>
</g>
<!-- Node5&#45;&gt;Node4 -->
<g id="edge4" class="edge"><title>Node5&#45;&gt;Node4</title>
<path fill="none" stroke="midnightblue" d="M68.5,-218.117C68.5,-208.817 68.5,-198.056 68.5,-190.715"/>
<polygon fill="midnightblue" stroke="midnightblue" points="65.0001,-218.406 68.5,-228.406 72.0001,-218.406 65.0001,-218.406"/>
</g>
<!-- Node6 -->
<g id="node6" class="node"><title>Node6</title>
<g id="a_node6"><a xlink:href="classMelanobot.html" target="_top" xlink:title="Main bot class. ">
<polygon fill="none" stroke="black" points="37.5,-295.5 37.5,-314.5 99.5,-314.5 99.5,-295.5 37.5,-295.5"/>
<text text-anchor="middle" x="68.5" y="-302.5" font-family="Helvetica,sans-Serif" font-size="10.00">Melanobot</text>
</a>
</g>
</g>
<!-- Node6&#45;&gt;Node5 -->
<g id="edge5" class="edge"><title>Node6&#45;&gt;Node5</title>
<path fill="none" stroke="#9a32cd" stroke-dasharray="5,2" d="M68.5,-285.037C68.5,-272.67 68.5,-257.12 68.5,-247.627"/>
<polygon fill="#9a32cd" stroke="#9a32cd" points="65.0001,-285.234 68.5,-295.234 72.0001,-285.234 65.0001,-285.234"/>
<text text-anchor="middle" x="77" y="-269" font-family="Helvetica,sans-Serif" font-size="10.00"> bot</text>
</g>
<!-- Node7 -->
<g id="node7" class="node"><title>Node7</title>
<g id="a_node7"><a xlink:href="classConcurrentQueue.html" target="_top" xlink:title="ConcurrentQueue\&lt; network\l::Message \&gt;">
<polygon fill="none" stroke="black" points="0,-362.5 0,-392.5 137,-392.5 137,-362.5 0,-362.5"/>
<text text-anchor="start" x="8" y="-380.5" font-family="Helvetica,sans-Serif" font-size="10.00">ConcurrentQueue&lt; network</text>
<text text-anchor="middle" x="68.5" y="-369.5" font-family="Helvetica,sans-Serif" font-size="10.00">::Message &gt;</text>
</a>
</g>
</g>
<!-- Node7&#45;&gt;Node6 -->
<g id="edge6" class="edge"><title>Node7&#45;&gt;Node6</title>
<path fill="none" stroke="#9a32cd" stroke-dasharray="5,2" d="M68.5,-352.091C68.5,-339.214 68.5,-324.197 68.5,-314.893"/>
<polygon fill="#9a32cd" stroke="#9a32cd" points="65.0001,-352.233 68.5,-362.233 72.0001,-352.233 65.0001,-352.233"/>
<text text-anchor="middle" x="93" y="-336" font-family="Helvetica,sans-Serif" font-size="10.00"> messages</text>
</g>
<!-- Node8 -->
<g id="node8" class="node"><title>Node8</title>
<g id="a_node8"><a xlink:href="classConcurrentContainer.html" target="_top" xlink:title="ConcurrentContainer\l\&lt; std::queue\&lt; network\l::Message, Container \&gt; \&gt;">
<polygon fill="none" stroke="black" points="4.5,-430.5 4.5,-471.5 132.5,-471.5 132.5,-430.5 4.5,-430.5"/>
<text text-anchor="start" x="12.5" y="-459.5" font-family="Helvetica,sans-Serif" font-size="10.00">ConcurrentContainer</text>
<text text-anchor="start" x="12.5" y="-448.5" font-family="Helvetica,sans-Serif" font-size="10.00">&lt; std::queue&lt; network</text>
<text text-anchor="middle" x="68.5" y="-437.5" font-family="Helvetica,sans-Serif" font-size="10.00">::Message, Container &gt; &gt;</text>
</a>
</g>
</g>
<!-- Node8&#45;&gt;Node7 -->
<g id="edge7" class="edge"><title>Node8&#45;&gt;Node7</title>
<path fill="none" stroke="midnightblue" d="M68.5,-420.158C68.5,-410.687 68.5,-400.647 68.5,-392.797"/>
<polygon fill="midnightblue" stroke="midnightblue" points="65.0001,-420.462 68.5,-430.462 72.0001,-420.462 65.0001,-420.462"/>
</g>
</g>
</svg>
