<?xml version="1.0" encoding="UTF-8" standalone="no"?>
<!DOCTYPE svg PUBLIC "-//W3C//DTD SVG 1.1//EN"
 "http://www.w3.org/Graphics/SVG/1.1/DTD/svg11.dtd">
<!-- Generated by graphviz version 2.38.0 (20140413.2041)
 -->
<!-- Title: network::irc::Buffer Pages: 1 -->
<svg width="778pt" height="326pt"
 viewBox="0.00 0.00 778.00 325.50" xmlns="http://www.w3.org/2000/svg" xmlns:xlink="http://www.w3.org/1999/xlink">
<g id="graph0" class="graph" transform="scale(1 1) rotate(0) translate(4 321.5)">
<title>network::irc::Buffer</title>
<!-- Node1 -->
<g id="node1" class="node"><title>Node1</title>
<polygon fill="#bfbfbf" stroke="black" points="427.5,-17 427.5,-36 527.5,-36 527.5,-17 427.5,-17"/>
<text text-anchor="middle" x="477.5" y="-24" font-family="Helvetica,sans-Serif" font-size="10.00">network::irc::Buffer</text>
</g>
<!-- Node4 -->
<g id="node4" class="node"><title>Node4</title>
<g id="a_node4"><a xlink:href="classnetwork_1_1irc_1_1IrcConnection.html" target="_top" xlink:title="IRC connection. ">
<polygon fill="none" stroke="black" points="636,-149 636,-168 770,-168 770,-149 636,-149"/>
<text text-anchor="middle" x="703" y="-156" font-family="Helvetica,sans-Serif" font-size="10.00">network::irc::IrcConnection</text>
</a>
</g>
</g>
<!-- Node1&#45;&gt;Node4 -->
<g id="edge12" class="edge"><title>Node1&#45;&gt;Node4</title>
<path fill="none" stroke="#9a32cd" stroke-dasharray="5,2" d="M533.852,-38.7536C560.581,-46.2235 592.338,-57.4777 618,-73.5 651.613,-94.4869 681.828,-131.473 695.005,-148.902"/>
<polygon fill="#9a32cd" stroke="#9a32cd" points="534.443,-35.2884 523.877,-36.074 532.627,-42.0487 534.443,-35.2884"/>
<text text-anchor="middle" x="585" y="-76.5" font-family="Helvetica,sans-Serif" font-size="10.00"> buffer</text>
</g>
<!-- Node2 -->
<g id="node2" class="node"><title>Node2</title>
<g id="a_node2"><a xlink:href="classConcurrentPriorityQueue.html" target="_top" xlink:title="ConcurrentPriorityQueue\l\&lt; network::Command \&gt;">
<polygon fill="none" stroke="black" points="205.5,-11.5 205.5,-41.5 329.5,-41.5 329.5,-11.5 205.5,-11.5"/>
<text text-anchor="start" x="213.5" y="-29.5" font-family="Helvetica,sans-Serif" font-size="10.00">ConcurrentPriorityQueue</text>
<text text-anchor="middle" x="267.5" y="-18.5" font-family="Helvetica,sans-Serif" font-size="10.00">&lt; network::Command &gt;</text>
</a>
</g>
</g>
<!-- Node2&#45;&gt;Node1 -->
<g id="edge1" class="edge"><title>Node2&#45;&gt;Node1</title>
<path fill="none" stroke="#9a32cd" stroke-dasharray="5,2" d="M339.555,-26.5C368.471,-26.5 401.177,-26.5 427.374,-26.5"/>
<polygon fill="#9a32cd" stroke="#9a32cd" points="339.501,-23.0001 329.501,-26.5 339.501,-30.0001 339.501,-23.0001"/>
<text text-anchor="middle" x="378.5" y="-29.5" font-family="Helvetica,sans-Serif" font-size="10.00"> buffer</text>
</g>
<!-- Node3 -->
<g id="node3" class="node"><title>Node3</title>
<g id="a_node3"><a xlink:href="classConcurrentContainer.html" target="_top" xlink:title="ConcurrentContainer\l\&lt; std::priority_queue\l\&lt; network::Command, Container,\l Compare \&gt; \&gt;">
<polygon fill="none" stroke="black" points="0,-0.5 0,-52.5 162,-52.5 162,-0.5 0,-0.5"/>
<text text-anchor="start" x="8" y="-40.5" font-family="Helvetica,sans-Serif" font-size="10.00">ConcurrentContainer</text>
<text text-anchor="start" x="8" y="-29.5" font-family="Helvetica,sans-Serif" font-size="10.00">&lt; std::priority_queue</text>
<text text-anchor="start" x="8" y="-18.5" font-family="Helvetica,sans-Serif" font-size="10.00">&lt; network::Command, Container,</text>
<text text-anchor="middle" x="81" y="-7.5" font-family="Helvetica,sans-Serif" font-size="10.00"> Compare &gt; &gt;</text>
</a>
</g>
</g>
<!-- Node3&#45;&gt;Node2 -->
<g id="edge2" class="edge"><title>Node3&#45;&gt;Node2</title>
<path fill="none" stroke="midnightblue" d="M172.356,-26.5C183.534,-26.5 194.749,-26.5 205.345,-26.5"/>
<polygon fill="midnightblue" stroke="midnightblue" points="172.119,-23.0001 162.119,-26.5 172.119,-30.0001 172.119,-23.0001"/>
</g>
<!-- Node4&#45;&gt;Node1 -->
<g id="edge3" class="edge"><title>Node4&#45;&gt;Node1</title>
<path fill="none" stroke="#9a32cd" stroke-dasharray="5,2" d="M697.41,-138.775C688.529,-105.702 665.533,-39.9912 618,-12.5 580.916,8.94751 528.887,-5.71249 499.99,-16.9695"/>
<polygon fill="#9a32cd" stroke="#9a32cd" points="694.058,-139.796 699.895,-148.638 700.845,-138.085 694.058,-139.796"/>
<text text-anchor="middle" x="585" y="-15.5" font-family="Helvetica,sans-Serif" font-size="10.00"> irc</text>
</g>
<!-- Node5 -->
<g id="node5" class="node"><title>Node5</title>
<g id="a_node5"><a xlink:href="classnetwork_1_1Connection.html" target="_top" xlink:title="Abstract service connection. ">
<polygon fill="none" stroke="black" points="424,-298 424,-317 531,-317 531,-298 424,-298"/>
<text text-anchor="middle" x="477.5" y="-305" font-family="Helvetica,sans-Serif" font-size="10.00">network::Connection</text>
</a>
</g>
</g>
<!-- Node5&#45;&gt;Node4 -->
<g id="edge4" class="edge"><title>Node5&#45;&gt;Node4</title>
<path fill="none" stroke="midnightblue" d="M541.226,-299.463C566.665,-293.992 595.328,-284.827 618,-269.5 658.042,-242.43 686.788,-189.908 697.448,-168.225"/>
<polygon fill="midnightblue" stroke="midnightblue" points="540.406,-296.057 531.287,-301.452 541.78,-302.921 540.406,-296.057"/>
</g>
<!-- Node6 -->
<g id="node6" class="node"><title>Node6</title>
<g id="a_node6"><a xlink:href="structnetwork_1_1irc_1_1LoginInfo.html" target="_top" xlink:title="IRC log&#45;in system. ">
<polygon fill="none" stroke="black" points="421,-260 421,-279 534,-279 534,-260 421,-260"/>
<text text-anchor="middle" x="477.5" y="-267" font-family="Helvetica,sans-Serif" font-size="10.00">network::irc::LoginInfo</text>
</a>
</g>
</g>
<!-- Node6&#45;&gt;Node4 -->
<g id="edge5" class="edge"><title>Node6&#45;&gt;Node4</title>
<path fill="none" stroke="#9a32cd" stroke-dasharray="5,2" d="M543.134,-257.639C567.504,-251.595 594.898,-242.841 618,-230.5 649.173,-213.848 678.929,-183.938 693.201,-168.431"/>
<polygon fill="#9a32cd" stroke="#9a32cd" points="542.174,-254.269 533.253,-259.985 543.791,-261.08 542.174,-254.269"/>
<text text-anchor="middle" x="585" y="-257.5" font-family="Helvetica,sans-Serif" font-size="10.00"> login_info</text>
</g>
<!-- Node7 -->
<g id="node7" class="node"><title>Node7</title>
<g id="a_node7"><a xlink:href="classuser_1_1UserManager.html" target="_top" xlink:title="A class to keep track of users. ">
<polygon fill="none" stroke="black" points="427.5,-222 427.5,-241 527.5,-241 527.5,-222 427.5,-222"/>
<text text-anchor="middle" x="477.5" y="-229" font-family="Helvetica,sans-Serif" font-size="10.00">user::UserManager</text>
</a>
</g>
</g>
<!-- Node7&#45;&gt;Node4 -->
<g id="edge6" class="edge"><title>Node7&#45;&gt;Node4</title>
<path fill="none" stroke="#9a32cd" stroke-dasharray="5,2" d="M535.215,-219.699C560.817,-213.754 591.252,-205.821 618,-196.5 641.125,-188.441 666.613,-176.442 683.379,-168.091"/>
<polygon fill="#9a32cd" stroke="#9a32cd" points="534.267,-216.325 525.295,-221.96 535.822,-223.15 534.267,-216.325"/>
<text text-anchor="middle" x="585" y="-218.5" font-family="Helvetica,sans-Serif" font-size="10.00"> user_manager</text>
</g>
<!-- Node8 -->
<g id="node8" class="node"><title>Node8</title>
<g id="a_node8"><a xlink:href="classstring_1_1Formatter.html" target="_top" xlink:title="Abstract formatting visitor (and factory) ">
<polygon fill="none" stroke="black" points="433,-184 433,-203 522,-203 522,-184 433,-184"/>
<text text-anchor="middle" x="477.5" y="-191" font-family="Helvetica,sans-Serif" font-size="10.00">string::Formatter</text>
</a>
</g>
</g>
<!-- Node8&#45;&gt;Node4 -->
<g id="edge7" class="edge"><title>Node8&#45;&gt;Node4</title>
<path fill="none" stroke="#9a32cd" stroke-dasharray="5,2" d="M532.426,-185.055C565.218,-179.92 607.179,-173.349 641.155,-168.028"/>
<polygon fill="#9a32cd" stroke="#9a32cd" points="531.462,-181.663 522.124,-186.669 532.545,-188.579 531.462,-181.663"/>
<text text-anchor="middle" x="585" y="-184.5" font-family="Helvetica,sans-Serif" font-size="10.00"> formatter_</text>
</g>
<!-- Node9 -->
<g id="node9" class="node"><title>Node9</title>
<g id="a_node9"><a xlink:href="classMelanobot.html" target="_top" xlink:title="Main bot class. ">
<polygon fill="none" stroke="black" points="446.5,-146 446.5,-165 508.5,-165 508.5,-146 446.5,-146"/>
<text text-anchor="middle" x="477.5" y="-153" font-family="Helvetica,sans-Serif" font-size="10.00">Melanobot</text>
</a>
</g>
</g>
<!-- Node9&#45;&gt;Node4 -->
<g id="edge8" class="edge"><title>Node9&#45;&gt;Node4</title>
<path fill="none" stroke="#9a32cd" stroke-dasharray="5,2" d="M518.685,-156.039C551.215,-156.476 597.712,-157.1 635.737,-157.611"/>
<polygon fill="#9a32cd" stroke="#9a32cd" points="518.688,-152.539 508.642,-155.905 518.594,-159.539 518.688,-152.539"/>
<text text-anchor="middle" x="585" y="-160.5" font-family="Helvetica,sans-Serif" font-size="10.00"> bot</text>
</g>
<!-- Node10 -->
<g id="node10" class="node"><title>Node10</title>
<g id="a_node10"><a xlink:href="classhandler_1_1HandlerContainer.html" target="_top" xlink:title="Base class for classes which may contain handlers. ">
<polygon fill="none" stroke="black" points="202.5,-168 202.5,-187 332.5,-187 332.5,-168 202.5,-168"/>
<text text-anchor="middle" x="267.5" y="-175" font-family="Helvetica,sans-Serif" font-size="10.00">handler::HandlerContainer</text>
</a>
</g>
</g>
<!-- Node10&#45;&gt;Node9 -->
<g id="edge9" class="edge"><title>Node10&#45;&gt;Node9</title>
<path fill="none" stroke="midnightblue" d="M342.986,-169.622C378.602,-165.855 419.252,-161.555 446.247,-158.7"/>
<polygon fill="midnightblue" stroke="midnightblue" points="342.18,-166.187 332.604,-170.72 342.917,-173.148 342.18,-166.187"/>
</g>
<!-- Node11 -->
<g id="node11" class="node"><title>Node11</title>
<g id="a_node11"><a xlink:href="classConcurrentQueue.html" target="_top" xlink:title="ConcurrentQueue\&lt; network\l::Message \&gt;">
<polygon fill="none" stroke="black" points="199,-118.5 199,-148.5 336,-148.5 336,-118.5 199,-118.5"/>
<text text-anchor="start" x="207" y="-136.5" font-family="Helvetica,sans-Serif" font-size="10.00">ConcurrentQueue&lt; network</text>
<text text-anchor="middle" x="267.5" y="-125.5" font-family="Helvetica,sans-Serif" font-size="10.00">::Message &gt;</text>
</a>
</g>
</g>
<!-- Node11&#45;&gt;Node9 -->
<g id="edge10" class="edge"><title>Node11&#45;&gt;Node9</title>
<path fill="none" stroke="#9a32cd" stroke-dasharray="5,2" d="M346.228,-141.721C381.13,-145.413 420.257,-149.551 446.437,-152.32"/>
<polygon fill="#9a32cd" stroke="#9a32cd" points="346.344,-138.214 336.032,-140.643 345.608,-145.175 346.344,-138.214"/>
<text text-anchor="middle" x="378.5" y="-150.5" font-family="Helvetica,sans-Serif" font-size="10.00"> messages</text>
</g>
<!-- Node12 -->
<g id="node12" class="node"><title>Node12</title>
<g id="a_node12"><a xlink:href="classConcurrentContainer.html" target="_top" xlink:title="ConcurrentContainer\l\&lt; std::queue\&lt; network\l::Message, Container \&gt; \&gt;">
<polygon fill="none" stroke="black" points="17,-113 17,-154 145,-154 145,-113 17,-113"/>
<text text-anchor="start" x="25" y="-142" font-family="Helvetica,sans-Serif" font-size="10.00">ConcurrentContainer</text>
<text text-anchor="start" x="25" y="-131" font-family="Helvetica,sans-Serif" font-size="10.00">&lt; std::queue&lt; network</text>
<text text-anchor="middle" x="81" y="-120" font-family="Helvetica,sans-Serif" font-size="10.00">::Message, Container &gt; &gt;</text>
</a>
</g>
</g>
<!-- Node12&#45;&gt;Node11 -->
<g id="edge11" class="edge"><title>Node12&#45;&gt;Node11</title>
<path fill="none" stroke="midnightblue" d="M155.535,-133.5C169.861,-133.5 184.815,-133.5 198.936,-133.5"/>
<polygon fill="midnightblue" stroke="midnightblue" points="155.236,-130 145.236,-133.5 155.236,-137 155.236,-130"/>
</g>
<!-- Node13 -->
<g id="node13" class="node"><title>Node13</title>
<g id="a_node13"><a xlink:href="classuser_1_1AuthSystem.html" target="_top" xlink:title="User authorization system. ">
<polygon fill="none" stroke="black" points="430,-108 430,-127 525,-127 525,-108 430,-108"/>
<text text-anchor="middle" x="477.5" y="-115" font-family="Helvetica,sans-Serif" font-size="10.00">user::AuthSystem</text>
</a>
</g>
</g>
<!-- Node13&#45;&gt;Node4 -->
<g id="edge13" class="edge"><title>Node13&#45;&gt;Node4</title>
<path fill="none" stroke="#9a32cd" stroke-dasharray="5,2" d="M535.2,-127.517C560.545,-132.032 590.781,-137.469 618,-142.5 629.095,-144.551 641.005,-146.794 652.269,-148.935"/>
<polygon fill="#9a32cd" stroke="#9a32cd" points="535.481,-124.012 525.023,-125.707 534.256,-130.904 535.481,-124.012"/>
<text text-anchor="middle" x="585" y="-145.5" font-family="Helvetica,sans-Serif" font-size="10.00"> auth_system</text>
</g>
<!-- Node14 -->
<g id="node14" class="node"><title>Node14</title>
<g id="a_node14"><a xlink:href="structnetwork_1_1Server.html" target="_top" xlink:title="Identifies a network server. ">
<polygon fill="none" stroke="black" points="434.5,-70 434.5,-89 520.5,-89 520.5,-70 434.5,-70"/>
<text text-anchor="middle" x="477.5" y="-77" font-family="Helvetica,sans-Serif" font-size="10.00">network::Server</text>
</a>
</g>
</g>
<!-- Node14&#45;&gt;Node4 -->
<g id="edge14" class="edge"><title>Node14&#45;&gt;Node4</title>
<path fill="none" stroke="#9a32cd" stroke-dasharray="5,2" d="M530.494,-84.4453C557.304,-88.1672 590.136,-94.5782 618,-105.5 645.774,-116.387 674.371,-136.763 689.995,-148.832"/>
<polygon fill="#9a32cd" stroke="#9a32cd" points="530.905,-80.9694 520.536,-83.1468 529.999,-87.9106 530.905,-80.9694"/>
<text text-anchor="middle" x="585" y="-119.5" font-family="Helvetica,sans-Serif" font-size="10.00"> current_server</text>
<text text-anchor="middle" x="585" y="-108.5" font-family="Helvetica,sans-Serif" font-size="10.00">main_server</text>
</g>
</g>
</svg>
