<?xml version="1.0" encoding="UTF-8" standalone="no"?>
<!DOCTYPE svg PUBLIC "-//W3C//DTD SVG 1.1//EN"
 "http://www.w3.org/Graphics/SVG/1.1/DTD/svg11.dtd">
<!-- Generated by graphviz version 2.38.0 (20140413.2041)
 -->
<!-- Title: handler::SimpleAction Pages: 1 -->
<svg width="900pt" height="845pt"
 viewBox="0.00 0.00 900.00 845.00" xmlns="http://www.w3.org/2000/svg" xmlns:xlink="http://www.w3.org/1999/xlink">
<g id="graph0" class="graph" transform="scale(1 1) rotate(0) translate(4 841)">
<title>handler::SimpleAction</title>
<!-- Node1 -->
<g id="node1" class="node"><title>Node1</title>
<polygon fill="#bfbfbf" stroke="black" points="290,-456.5 290,-475.5 402,-475.5 402,-456.5 290,-456.5"/>
<text text-anchor="middle" x="346" y="-463.5" font-family="Helvetica,sans-Serif" font-size="10.00">handler::SimpleAction</text>
</g>
<!-- Node4 -->
<g id="node4" class="node"><title>Node4</title>
<g id="a_node4"><a xlink:href="classhandler_1_1AdminJoin.html" target="_top" xlink:title="Makes the bot join channels (IRC) ">
<polygon fill="none" stroke="black" points="452.5,-817.5 452.5,-836.5 552.5,-836.5 552.5,-817.5 452.5,-817.5"/>
<text text-anchor="middle" x="502.5" y="-824.5" font-family="Helvetica,sans-Serif" font-size="10.00">handler::AdminJoin</text>
</a>
</g>
</g>
<!-- Node1&#45;&gt;Node4 -->
<g id="edge3" class="edge"><title>Node1&#45;&gt;Node4</title>
<path fill="none" stroke="midnightblue" d="M349.705,-485.78C359.059,-551.42 392,-760.566 438,-808 442.086,-812.213 447.064,-815.501 452.416,-818.066"/>
<polygon fill="midnightblue" stroke="midnightblue" points="353.129,-484.993 348.278,-475.574 346.197,-485.963 353.129,-484.993"/>
</g>
<!-- Node5 -->
<g id="node5" class="node"><title>Node5</title>
<g id="a_node5"><a xlink:href="classhandler_1_1AdminNick.html" target="_top" xlink:title="Changes the bot nick (IRC) ">
<polygon fill="none" stroke="black" points="451.5,-779.5 451.5,-798.5 553.5,-798.5 553.5,-779.5 451.5,-779.5"/>
<text text-anchor="middle" x="502.5" y="-786.5" font-family="Helvetica,sans-Serif" font-size="10.00">handler::AdminNick</text>
</a>
</g>
</g>
<!-- Node1&#45;&gt;Node5 -->
<g id="edge4" class="edge"><title>Node1&#45;&gt;Node5</title>
<path fill="none" stroke="midnightblue" d="M346.854,-485.698C347.561,-539.281 357.062,-689.072 438,-770 441.906,-773.905 446.58,-777.014 451.596,-779.488"/>
<polygon fill="midnightblue" stroke="midnightblue" points="350.353,-485.509 346.816,-475.522 343.353,-485.535 350.353,-485.509"/>
</g>
<!-- Node6 -->
<g id="node6" class="node"><title>Node6</title>
<g id="a_node6"><a xlink:href="classhandler_1_1AdminPart.html" target="_top" xlink:title="Makes the bot part channels (IRC) ">
<polygon fill="none" stroke="black" points="452.5,-741.5 452.5,-760.5 552.5,-760.5 552.5,-741.5 452.5,-741.5"/>
<text text-anchor="middle" x="502.5" y="-748.5" font-family="Helvetica,sans-Serif" font-size="10.00">handler::AdminPart</text>
</a>
</g>
</g>
<!-- Node1&#45;&gt;Node6 -->
<g id="edge5" class="edge"><title>Node1&#45;&gt;Node6</title>
<path fill="none" stroke="midnightblue" d="M347.85,-485.826C351.041,-534.878 366.191,-662.931 438,-732 442.147,-735.989 447.096,-739.144 452.376,-741.639"/>
<polygon fill="midnightblue" stroke="midnightblue" points="351.333,-485.416 347.29,-475.623 344.343,-485.8 351.333,-485.416"/>
</g>
<!-- Node7 -->
<g id="node7" class="node"><title>Node7</title>
<g id="a_node7"><a xlink:href="classhandler_1_1AdminQuit.html" target="_top" xlink:title="Quits the bot. ">
<polygon fill="none" stroke="black" points="452.5,-703.5 452.5,-722.5 552.5,-722.5 552.5,-703.5 452.5,-703.5"/>
<text text-anchor="middle" x="502.5" y="-710.5" font-family="Helvetica,sans-Serif" font-size="10.00">handler::AdminQuit</text>
</a>
</g>
</g>
<!-- Node1&#45;&gt;Node7 -->
<g id="edge6" class="edge"><title>Node1&#45;&gt;Node7</title>
<path fill="none" stroke="midnightblue" d="M349.162,-485.948C355.017,-530.072 375.223,-636.577 438,-694 442.245,-697.883 447.255,-700.975 452.568,-703.435"/>
<polygon fill="midnightblue" stroke="midnightblue" points="352.624,-485.42 347.941,-475.916 345.675,-486.266 352.624,-485.42"/>
</g>
<!-- Node8 -->
<g id="node8" class="node"><title>Node8</title>
<g id="a_node8"><a xlink:href="classhandler_1_1AdminRaw.html" target="_top" xlink:title="Makes the bot execute a raw command (IRC) ">
<polygon fill="none" stroke="black" points="451.5,-665.5 451.5,-684.5 553.5,-684.5 553.5,-665.5 451.5,-665.5"/>
<text text-anchor="middle" x="502.5" y="-672.5" font-family="Helvetica,sans-Serif" font-size="10.00">handler::AdminRaw</text>
</a>
</g>
</g>
<!-- Node1&#45;&gt;Node8 -->
<g id="edge7" class="edge"><title>Node1&#45;&gt;Node8</title>
<path fill="none" stroke="midnightblue" d="M350.835,-485.461C359.425,-523.87 383.858,-609.704 438,-656 442.548,-659.889 447.868,-662.982 453.459,-665.442"/>
<polygon fill="midnightblue" stroke="midnightblue" points="354.234,-484.617 348.741,-475.557 347.385,-486.065 354.234,-484.617"/>
</g>
<!-- Node9 -->
<g id="node9" class="node"><title>Node9</title>
<g id="a_node9"><a xlink:href="classhandler_1_1AdminReconnect.html" target="_top" xlink:title="Makes the bot reconnect. ">
<polygon fill="none" stroke="black" points="438,-627.5 438,-646.5 567,-646.5 567,-627.5 438,-627.5"/>
<text text-anchor="middle" x="502.5" y="-634.5" font-family="Helvetica,sans-Serif" font-size="10.00">handler::AdminReconnect</text>
</a>
</g>
</g>
<!-- Node1&#45;&gt;Node9 -->
<g id="edge8" class="edge"><title>Node1&#45;&gt;Node9</title>
<path fill="none" stroke="midnightblue" d="M353.398,-485.544C365.008,-517.947 392.631,-582.713 438,-618 442.996,-621.886 448.776,-624.979 454.773,-627.44"/>
<polygon fill="midnightblue" stroke="midnightblue" points="356.637,-484.201 350.072,-475.885 350.018,-486.48 356.637,-484.201"/>
</g>
<!-- Node10 -->
<g id="node10" class="node"><title>Node10</title>
<g id="a_node10"><a xlink:href="classhandler_1_1Cointoss.html" target="_top" xlink:title="Shows one of the given items, at random. ">
<polygon fill="none" stroke="black" points="456,-589.5 456,-608.5 549,-608.5 549,-589.5 456,-589.5"/>
<text text-anchor="middle" x="502.5" y="-596.5" font-family="Helvetica,sans-Serif" font-size="10.00">handler::Cointoss</text>
</a>
</g>
</g>
<!-- Node1&#45;&gt;Node10 -->
<g id="edge9" class="edge"><title>Node1&#45;&gt;Node10</title>
<path fill="none" stroke="midnightblue" d="M356.927,-484.511C371.424,-509.795 400.759,-554.853 438,-580 443.722,-583.864 450.25,-586.96 456.892,-589.437"/>
<polygon fill="midnightblue" stroke="midnightblue" points="359.877,-482.615 351.955,-475.58 353.761,-486.02 359.877,-482.615"/>
</g>
<!-- Node11 -->
<g id="node11" class="node"><title>Node11</title>
<g id="a_node11"><a xlink:href="classhandler_1_1Echo.html" target="_top" xlink:title="Just repeat what it has been told. ">
<polygon fill="none" stroke="black" points="464,-551.5 464,-570.5 541,-570.5 541,-551.5 464,-551.5"/>
<text text-anchor="middle" x="502.5" y="-558.5" font-family="Helvetica,sans-Serif" font-size="10.00">handler::Echo</text>
</a>
</g>
</g>
<!-- Node1&#45;&gt;Node11 -->
<g id="edge10" class="edge"><title>Node1&#45;&gt;Node11</title>
<path fill="none" stroke="midnightblue" d="M362.866,-482.777C379.932,-499.917 408.6,-526.194 438,-542 446.007,-546.305 455.119,-549.762 463.892,-552.485"/>
<polygon fill="midnightblue" stroke="midnightblue" points="365.368,-480.33 355.88,-475.615 360.357,-485.217 365.368,-480.33"/>
</g>
<!-- Node12 -->
<g id="node12" class="node"><title>Node12</title>
<g id="a_node12"><a xlink:href="classhandler_1_1Help.html" target="_top" xlink:title="Handler showing help on the available handlers. ">
<polygon fill="none" stroke="black" points="465.5,-513.5 465.5,-532.5 539.5,-532.5 539.5,-513.5 465.5,-513.5"/>
<text text-anchor="middle" x="502.5" y="-520.5" font-family="Helvetica,sans-Serif" font-size="10.00">handler::Help</text>
</a>
</g>
</g>
<!-- Node1&#45;&gt;Node12 -->
<g id="edge11" class="edge"><title>Node1&#45;&gt;Node12</title>
<path fill="none" stroke="midnightblue" d="M377.267,-479.577C394.824,-487.215 417.459,-496.661 438,-504 447.428,-507.368 457.781,-510.642 467.343,-513.496"/>
<polygon fill="midnightblue" stroke="midnightblue" points="378.645,-476.359 368.082,-475.544 375.831,-482.769 378.645,-476.359"/>
</g>
<!-- Node13 -->
<g id="node13" class="node"><title>Node13</title>
<g id="a_node13"><a xlink:href="classhandler_1_1License.html" target="_top" xlink:title="Handler showing licensing information. ">
<polygon fill="none" stroke="black" points="458.5,-475.5 458.5,-494.5 546.5,-494.5 546.5,-475.5 458.5,-475.5"/>
<text text-anchor="middle" x="502.5" y="-482.5" font-family="Helvetica,sans-Serif" font-size="10.00">handler::License</text>
</a>
</g>
</g>
<!-- Node1&#45;&gt;Node13 -->
<g id="edge12" class="edge"><title>Node1&#45;&gt;Node13</title>
<path fill="none" stroke="midnightblue" d="M412.384,-474.041C427.85,-475.943 443.965,-477.925 458.171,-479.672"/>
<polygon fill="midnightblue" stroke="midnightblue" points="412.694,-470.553 402.342,-472.806 411.84,-477.5 412.694,-470.553"/>
</g>
<!-- Node14 -->
<g id="node14" class="node"><title>Node14</title>
<g id="a_node14"><a xlink:href="classhandler_1_1ListClear.html" target="_top" xlink:title="Used by AbstractList to remove all elements. ">
<polygon fill="none" stroke="black" points="456,-437.5 456,-456.5 549,-456.5 549,-437.5 456,-437.5"/>
<text text-anchor="middle" x="502.5" y="-444.5" font-family="Helvetica,sans-Serif" font-size="10.00">handler::ListClear</text>
</a>
</g>
</g>
<!-- Node1&#45;&gt;Node14 -->
<g id="edge13" class="edge"><title>Node1&#45;&gt;Node14</title>
<path fill="none" stroke="midnightblue" d="M412.326,-457.966C426.92,-456.172 442.096,-454.305 455.702,-452.632"/>
<polygon fill="midnightblue" stroke="midnightblue" points="411.84,-454.5 402.342,-459.194 412.694,-461.447 411.84,-454.5"/>
</g>
<!-- Node15 -->
<g id="node15" class="node"><title>Node15</title>
<g id="a_node15"><a xlink:href="classhandler_1_1ListInsert.html" target="_top" xlink:title="Used by AbstractList to add elements. ">
<polygon fill="none" stroke="black" points="455,-399.5 455,-418.5 550,-418.5 550,-399.5 455,-399.5"/>
<text text-anchor="middle" x="502.5" y="-406.5" font-family="Helvetica,sans-Serif" font-size="10.00">handler::ListInsert</text>
</a>
</g>
</g>
<!-- Node1&#45;&gt;Node15 -->
<g id="edge14" class="edge"><title>Node1&#45;&gt;Node15</title>
<path fill="none" stroke="midnightblue" d="M377.267,-452.423C394.824,-444.785 417.459,-435.339 438,-428 447.428,-424.632 457.781,-421.358 467.343,-418.504"/>
<polygon fill="midnightblue" stroke="midnightblue" points="375.831,-449.231 368.082,-456.456 378.645,-455.641 375.831,-449.231"/>
</g>
<!-- Node16 -->
<g id="node16" class="node"><title>Node16</title>
<g id="a_node16"><a xlink:href="classhandler_1_1ListRemove.html" target="_top" xlink:title="Used by AbstractList to remove elements. ">
<polygon fill="none" stroke="black" points="449,-361.5 449,-380.5 556,-380.5 556,-361.5 449,-361.5"/>
<text text-anchor="middle" x="502.5" y="-368.5" font-family="Helvetica,sans-Serif" font-size="10.00">handler::ListRemove</text>
</a>
</g>
</g>
<!-- Node1&#45;&gt;Node16 -->
<g id="edge15" class="edge"><title>Node1&#45;&gt;Node16</title>
<path fill="none" stroke="midnightblue" d="M362.866,-449.223C379.932,-432.083 408.6,-405.806 438,-390 444.993,-386.24 452.83,-383.127 460.547,-380.585"/>
<polygon fill="midnightblue" stroke="midnightblue" points="360.357,-446.783 355.88,-456.385 365.368,-451.67 360.357,-446.783"/>
</g>
<!-- Node17 -->
<g id="node17" class="node"><title>Node17</title>
<g id="a_node17"><a xlink:href="classhandler_1_1Morse.html" target="_top" xlink:title="Handler translating between morse and latin. ">
<polygon fill="none" stroke="black" points="462,-323.5 462,-342.5 543,-342.5 543,-323.5 462,-323.5"/>
<text text-anchor="middle" x="502.5" y="-330.5" font-family="Helvetica,sans-Serif" font-size="10.00">handler::Morse</text>
</a>
</g>
</g>
<!-- Node1&#45;&gt;Node17 -->
<g id="edge16" class="edge"><title>Node1&#45;&gt;Node17</title>
<path fill="none" stroke="midnightblue" d="M356.927,-447.489C371.424,-422.205 400.759,-377.147 438,-352 445.152,-347.17 453.564,-343.54 461.884,-340.82"/>
<polygon fill="midnightblue" stroke="midnightblue" points="353.761,-445.98 351.955,-456.42 359.877,-449.385 353.761,-445.98"/>
</g>
<!-- Node18 -->
<g id="node18" class="node"><title>Node18</title>
<g id="a_node18"><a xlink:href="classhandler_1_1RenderPony.html" target="_top" xlink:title="Draws a pretty My Little Pony ASCII art. ">
<polygon fill="none" stroke="black" points="448.5,-285.5 448.5,-304.5 556.5,-304.5 556.5,-285.5 448.5,-285.5"/>
<text text-anchor="middle" x="502.5" y="-292.5" font-family="Helvetica,sans-Serif" font-size="10.00">handler::RenderPony</text>
</a>
</g>
</g>
<!-- Node1&#45;&gt;Node18 -->
<g id="edge17" class="edge"><title>Node1&#45;&gt;Node18</title>
<path fill="none" stroke="midnightblue" d="M353.398,-446.456C365.008,-414.053 392.631,-349.287 438,-314 442.996,-310.114 448.776,-307.021 454.773,-304.56"/>
<polygon fill="midnightblue" stroke="midnightblue" points="350.018,-445.52 350.072,-456.115 356.637,-447.799 350.018,-445.52"/>
</g>
<!-- Node19 -->
<g id="node19" class="node"><title>Node19</title>
<g id="a_node19"><a xlink:href="classhandler_1_1ReverseText.html" target="_top" xlink:title="Turns ASCII characters upside&#45;down. ">
<polygon fill="none" stroke="black" points="447.5,-247.5 447.5,-266.5 557.5,-266.5 557.5,-247.5 447.5,-247.5"/>
<text text-anchor="middle" x="502.5" y="-254.5" font-family="Helvetica,sans-Serif" font-size="10.00">handler::ReverseText</text>
</a>
</g>
</g>
<!-- Node1&#45;&gt;Node19 -->
<g id="edge18" class="edge"><title>Node1&#45;&gt;Node19</title>
<path fill="none" stroke="midnightblue" d="M350.835,-446.539C359.425,-408.13 383.858,-322.296 438,-276 442.548,-272.111 447.868,-269.018 453.459,-266.558"/>
<polygon fill="midnightblue" stroke="midnightblue" points="347.385,-445.935 348.741,-456.443 354.234,-447.383 347.385,-445.935"/>
</g>
<!-- Node20 -->
<g id="node20" class="node"><title>Node20</title>
<g id="a_node20"><a xlink:href="classhandler_1_1ServerHost.html" target="_top" xlink:title="Shows the server the bot is connected to. ">
<polygon fill="none" stroke="black" points="450.5,-209.5 450.5,-228.5 554.5,-228.5 554.5,-209.5 450.5,-209.5"/>
<text text-anchor="middle" x="502.5" y="-216.5" font-family="Helvetica,sans-Serif" font-size="10.00">handler::ServerHost</text>
</a>
</g>
</g>
<!-- Node1&#45;&gt;Node20 -->
<g id="edge19" class="edge"><title>Node1&#45;&gt;Node20</title>
<path fill="none" stroke="midnightblue" d="M349.162,-446.052C355.017,-401.928 375.223,-295.423 438,-238 442.245,-234.117 447.255,-231.025 452.568,-228.565"/>
<polygon fill="midnightblue" stroke="midnightblue" points="345.675,-445.734 347.941,-456.084 352.624,-446.58 345.675,-445.734"/>
</g>
<!-- Node21 -->
<g id="node21" class="node"><title>Node21</title>
<g id="a_node21"><a xlink:href="classhandler_1_1SimpleGroup.html" target="_top" xlink:title="A simple group of actions which share settings. ">
<polygon fill="none" stroke="black" points="447.5,-171.5 447.5,-190.5 557.5,-190.5 557.5,-171.5 447.5,-171.5"/>
<text text-anchor="middle" x="502.5" y="-178.5" font-family="Helvetica,sans-Serif" font-size="10.00">handler::SimpleGroup</text>
</a>
</g>
</g>
<!-- Node1&#45;&gt;Node21 -->
<g id="edge20" class="edge"><title>Node1&#45;&gt;Node21</title>
<path fill="none" stroke="midnightblue" d="M347.85,-446.174C351.041,-397.122 366.191,-269.069 438,-200 442.064,-196.091 446.898,-192.983 452.06,-190.511"/>
<polygon fill="midnightblue" stroke="midnightblue" points="344.343,-446.2 347.29,-456.377 351.333,-446.584 344.343,-446.2"/>
</g>
<!-- Node24 -->
<g id="node24" class="node"><title>Node24</title>
<g id="a_node24"><a xlink:href="classhandler_1_1SimpleWebApi.html" target="_top" xlink:title="Simple base class for handlers calling web resources. ">
<polygon fill="none" stroke="black" points="443,-133.5 443,-152.5 562,-152.5 562,-133.5 443,-133.5"/>
<text text-anchor="middle" x="502.5" y="-140.5" font-family="Helvetica,sans-Serif" font-size="10.00">handler::SimpleWebApi</text>
</a>
</g>
</g>
<!-- Node1&#45;&gt;Node24 -->
<g id="edge23" class="edge"><title>Node1&#45;&gt;Node24</title>
<path fill="none" stroke="midnightblue" d="M346.854,-446.302C347.561,-392.719 357.062,-242.928 438,-162 441.906,-158.095 446.58,-154.986 451.596,-152.512"/>
<polygon fill="midnightblue" stroke="midnightblue" points="343.353,-446.465 346.816,-456.478 350.353,-446.491 343.353,-446.465"/>
</g>
<!-- Node31 -->
<g id="node31" class="node"><title>Node31</title>
<g id="a_node31"><a xlink:href="classhandler_1_1WhoisCheckMe.html" target="_top" xlink:title="Sends a WHOIS about the message sender. ">
<polygon fill="none" stroke="black" points="440.5,-95.5 440.5,-114.5 564.5,-114.5 564.5,-95.5 440.5,-95.5"/>
<text text-anchor="middle" x="502.5" y="-102.5" font-family="Helvetica,sans-Serif" font-size="10.00">handler::WhoisCheckMe</text>
</a>
</g>
</g>
<!-- Node1&#45;&gt;Node31 -->
<g id="edge30" class="edge"><title>Node1&#45;&gt;Node31</title>
<path fill="none" stroke="midnightblue" d="M349.705,-446.22C359.059,-380.58 392,-171.434 438,-124 441.765,-120.117 446.288,-117.02 451.164,-114.551"/>
<polygon fill="midnightblue" stroke="midnightblue" points="346.197,-446.037 348.278,-456.426 353.129,-447.007 346.197,-446.037"/>
</g>
<!-- Node2 -->
<g id="node2" class="node"><title>Node2</title>
<g id="a_node2"><a xlink:href="classhandler_1_1Handler.html" target="_top" xlink:title="Message handler abstract base class. ">
<polygon fill="none" stroke="black" points="166,-456.5 166,-475.5 254,-475.5 254,-456.5 166,-456.5"/>
<text text-anchor="middle" x="210" y="-463.5" font-family="Helvetica,sans-Serif" font-size="10.00">handler::Handler</text>
</a>
</g>
</g>
<!-- Node2&#45;&gt;Node1 -->
<g id="edge1" class="edge"><title>Node2&#45;&gt;Node1</title>
<path fill="none" stroke="midnightblue" d="M264.18,-466C272.568,-466 281.258,-466 289.693,-466"/>
<polygon fill="midnightblue" stroke="midnightblue" points="264.136,-462.5 254.136,-466 264.136,-469.5 264.136,-462.5"/>
</g>
<!-- Node3 -->
<g id="node3" class="node"><title>Node3</title>
<g id="a_node3"><a xlink:href="classhandler_1_1HandlerContainer.html" target="_top" xlink:title="Base class for classes which may contain handlers. ">
<polygon fill="none" stroke="black" points="0,-456.5 0,-475.5 130,-475.5 130,-456.5 0,-456.5"/>
<text text-anchor="middle" x="65" y="-463.5" font-family="Helvetica,sans-Serif" font-size="10.00">handler::HandlerContainer</text>
</a>
</g>
</g>
<!-- Node3&#45;&gt;Node2 -->
<g id="edge2" class="edge"><title>Node3&#45;&gt;Node2</title>
<path fill="none" stroke="midnightblue" d="M140.555,-466C149.218,-466 157.821,-466 165.854,-466"/>
<polygon fill="midnightblue" stroke="midnightblue" points="140.388,-462.5 130.388,-466 140.388,-469.5 140.388,-462.5"/>
</g>
<!-- Node22 -->
<g id="node22" class="node"><title>Node22</title>
<g id="a_node22"><a xlink:href="classhandler_1_1AbstractList.html" target="_top" xlink:title="Handles a list of elements (base class) ">
<polygon fill="none" stroke="black" points="603,-171.5 603,-190.5 710,-190.5 710,-171.5 603,-171.5"/>
<text text-anchor="middle" x="656.5" y="-178.5" font-family="Helvetica,sans-Serif" font-size="10.00">handler::AbstractList</text>
</a>
</g>
</g>
<!-- Node21&#45;&gt;Node22 -->
<g id="edge21" class="edge"><title>Node21&#45;&gt;Node22</title>
<path fill="none" stroke="midnightblue" d="M567.708,-181C579.451,-181 591.578,-181 602.932,-181"/>
<polygon fill="midnightblue" stroke="midnightblue" points="567.518,-177.5 557.517,-181 567.517,-184.5 567.518,-177.5"/>
</g>
<!-- Node23 -->
<g id="node23" class="node"><title>Node23</title>
<g id="a_node23"><a xlink:href="classhandler_1_1AdminGroup.html" target="_top" xlink:title="Manages a user group. ">
<polygon fill="none" stroke="black" points="765,-190.5 765,-209.5 873,-209.5 873,-190.5 765,-190.5"/>
<text text-anchor="middle" x="819" y="-197.5" font-family="Helvetica,sans-Serif" font-size="10.00">handler::AdminGroup</text>
</a>
</g>
</g>
<!-- Node22&#45;&gt;Node23 -->
<g id="edge22" class="edge"><title>Node22&#45;&gt;Node23</title>
<path fill="none" stroke="midnightblue" d="M720.114,-188.412C734.876,-190.16 750.476,-192.006 764.779,-193.7"/>
<polygon fill="midnightblue" stroke="midnightblue" points="720.396,-184.921 710.054,-187.221 719.573,-191.873 720.396,-184.921"/>
</g>
<!-- Node25 -->
<g id="node25" class="node"><title>Node25</title>
<g id="a_node25"><a xlink:href="classhandler_1_1SimpleJson.html" target="_top" xlink:title="Simple base class for handlers using AJAX web APIs. ">
<polygon fill="none" stroke="black" points="604,-95.5 604,-114.5 709,-114.5 709,-95.5 604,-95.5"/>
<text text-anchor="middle" x="656.5" y="-102.5" font-family="Helvetica,sans-Serif" font-size="10.00">handler::SimpleJson</text>
</a>
</g>
</g>
<!-- Node24&#45;&gt;Node25 -->
<g id="edge24" class="edge"><title>Node24&#45;&gt;Node25</title>
<path fill="none" stroke="midnightblue" d="M551.66,-130.96C572.895,-125.651 597.495,-119.501 617.42,-114.52"/>
<polygon fill="midnightblue" stroke="midnightblue" points="550.709,-127.59 541.856,-133.411 552.406,-134.381 550.709,-127.59"/>
</g>
<!-- Node26 -->
<g id="node26" class="node"><title>Node26</title>
<g id="a_node26"><a xlink:href="classhandler_1_1ChuckNorris.html" target="_top" xlink:title="Searches for a Chuck Norris joke. ">
<polygon fill="none" stroke="black" points="764.5,-152.5 764.5,-171.5 873.5,-171.5 873.5,-152.5 764.5,-152.5"/>
<text text-anchor="middle" x="819" y="-159.5" font-family="Helvetica,sans-Serif" font-size="10.00">handler::ChuckNorris</text>
</a>
</g>
</g>
<!-- Node25&#45;&gt;Node26 -->
<g id="edge25" class="edge"><title>Node25&#45;&gt;Node26</title>
<path fill="none" stroke="midnightblue" d="M686.949,-118.942C703.963,-126.667 725.913,-136.079 746,-143 756.145,-146.495 767.28,-149.721 777.697,-152.485"/>
<polygon fill="midnightblue" stroke="midnightblue" points="688.101,-115.619 677.553,-114.62 685.175,-121.979 688.101,-115.619"/>
</g>
<!-- Node27 -->
<g id="node27" class="node"><title>Node27</title>
<g id="a_node27"><a xlink:href="classhandler_1_1SearchImageGoogle.html" target="_top" xlink:title="Handler searching images with Google. ">
<polygon fill="none" stroke="black" points="747.5,-114.5 747.5,-133.5 890.5,-133.5 890.5,-114.5 747.5,-114.5"/>
<text text-anchor="middle" x="819" y="-121.5" font-family="Helvetica,sans-Serif" font-size="10.00">handler::SearchImageGoogle</text>
</a>
</g>
</g>
<!-- Node25&#45;&gt;Node27 -->
<g id="edge26" class="edge"><title>Node25&#45;&gt;Node27</title>
<path fill="none" stroke="midnightblue" d="M719.364,-112.323C728.548,-113.411 738.072,-114.538 747.418,-115.645"/>
<polygon fill="midnightblue" stroke="midnightblue" points="719.509,-108.816 709.167,-111.116 718.686,-115.768 719.509,-108.816"/>
</g>
<!-- Node28 -->
<g id="node28" class="node"><title>Node28</title>
<g id="a_node28"><a xlink:href="classhandler_1_1SearchVideoYoutube.html" target="_top" xlink:title="Handler searching a video on Youtube. ">
<polygon fill="none" stroke="black" points="746,-76.5 746,-95.5 892,-95.5 892,-76.5 746,-76.5"/>
<text text-anchor="middle" x="819" y="-83.5" font-family="Helvetica,sans-Serif" font-size="10.00">handler::SearchVideoYoutube</text>
</a>
</g>
</g>
<!-- Node25&#45;&gt;Node28 -->
<g id="edge27" class="edge"><title>Node25&#45;&gt;Node28</title>
<path fill="none" stroke="midnightblue" d="M719.259,-97.6889C728.001,-96.6541 737.052,-95.5827 745.966,-94.5274"/>
<polygon fill="midnightblue" stroke="midnightblue" points="718.686,-94.2323 709.167,-98.8837 719.509,-101.184 718.686,-94.2323"/>
</g>
<!-- Node29 -->
<g id="node29" class="node"><title>Node29</title>
<g id="a_node29"><a xlink:href="classhandler_1_1SearchWebSearx.html" target="_top" xlink:title="Handler searching a web page using Searx. ">
<polygon fill="none" stroke="black" points="753.5,-38.5 753.5,-57.5 884.5,-57.5 884.5,-38.5 753.5,-38.5"/>
<text text-anchor="middle" x="819" y="-45.5" font-family="Helvetica,sans-Serif" font-size="10.00">handler::SearchWebSearx</text>
</a>
</g>
</g>
<!-- Node25&#45;&gt;Node29 -->
<g id="edge28" class="edge"><title>Node25&#45;&gt;Node29</title>
<path fill="none" stroke="midnightblue" d="M686.949,-91.0581C703.963,-83.3327 725.913,-73.9207 746,-67 756.145,-63.5048 767.28,-60.2788 777.697,-57.5148"/>
<polygon fill="midnightblue" stroke="midnightblue" points="685.175,-88.0214 677.553,-95.3802 688.101,-94.3809 685.175,-88.0214"/>
</g>
<!-- Node30 -->
<g id="node30" class="node"><title>Node30</title>
<g id="a_node30"><a xlink:href="classhandler_1_1UrbanDictionary.html" target="_top" xlink:title="Handler searching a definition on Urban Dictionary. ">
<polygon fill="none" stroke="black" points="756.5,-0.5 756.5,-19.5 881.5,-19.5 881.5,-0.5 756.5,-0.5"/>
<text text-anchor="middle" x="819" y="-7.5" font-family="Helvetica,sans-Serif" font-size="10.00">handler::UrbanDictionary</text>
</a>
</g>
</g>
<!-- Node25&#45;&gt;Node30 -->
<g id="edge29" class="edge"><title>Node25&#45;&gt;Node30</title>
<path fill="none" stroke="midnightblue" d="M673.183,-87.5395C689.675,-70.2196 717.189,-44.1383 746,-29 753.324,-25.1516 761.487,-22.0399 769.61,-19.537"/>
<polygon fill="midnightblue" stroke="midnightblue" points="670.259,-85.5442 666.015,-95.2519 675.387,-90.3097 670.259,-85.5442"/>
</g>
</g>
</svg>
