<?xml version="1.0" encoding="UTF-8" standalone="no"?>
<!DOCTYPE svg PUBLIC "-//W3C//DTD SVG 1.1//EN"
 "http://www.w3.org/Graphics/SVG/1.1/DTD/svg11.dtd">
<!-- Generated by graphviz version 2.38.0 (20140413.2041)
 -->
<!-- Title: handler::SearchImageGoogle Pages: 1 -->
<!--zoomable 490 -->
<svg id="main" version="1.1" xmlns="http://www.w3.org/2000/svg" xmlns:xlink="http://www.w3.org/1999/xlink" xml:space="preserve" onload="init(evt)">
<style type="text/css"><![CDATA[
.edge:hover path { stroke: red; }
.edge:hover polygon { stroke: red; fill: red; }
]]></style>
<script type="text/javascript"><![CDATA[
var edges = document.getElementsByTagName('g');
if (edges && edges.length) {
  for (var i=0;i<edges.length;i++) {
    if (edges[i].id.substr(0,4)=='edge') {
      edges[i].setAttribute('class','edge');
    }
  }
}
]]></script>
        <defs>
                <circle id="rim" cx="0" cy="0" r="7"/>
                <circle id="rim2" cx="0" cy="0" r="3.5"/>
                <g id="zoomPlus">
                        <use xlink:href="#rim" fill="#404040">
                                <set attributeName="fill" to="#808080" begin="zoomplus.mouseover" end="zoomplus.mouseout"/>
                        </use>
                        <path d="M-4,0h8M0,-4v8" fill="none" stroke="white" stroke-width="1.5" pointer-events="none"/>
                </g>
                <g id="zoomMin">
                        <use xlink:href="#rim" fill="#404040">
                                <set attributeName="fill" to="#808080" begin="zoomminus.mouseover" end="zoomminus.mouseout"/>
                        </use>
                        <path d="M-4,0h8" fill="none" stroke="white" stroke-width="1.5" pointer-events="none"/>
                </g>
                <g id="dirArrow">
                        <path fill="none" stroke="white" stroke-width="1.5" d="M0,-3.0v7 M-2.5,-0.5L0,-3.0L2.5,-0.5"/>
                </g>
               <g id="resetDef">
                       <use xlink:href="#rim2" fill="#404040">
                               <set attributeName="fill" to="#808080" begin="reset.mouseover" end="reset.mouseout"/>
                       </use>
               </g>
        </defs>

<script type="text/javascript">
var viewWidth = 245;
var viewHeight = 490;
var sectionId = 'dynsection-1';
</script>
<script xlink:href="svgpan.js"/>
<svg id="graph" class="graph">
<g id="viewport">
<title>handler::SearchImageGoogle</title>
<!-- Node1 -->
<g id="node1" class="node"><title>Node1</title>
<polygon fill="#bfbfbf" stroke="black" points="83,-0.5 83,-19.5 226,-19.5 226,-0.5 83,-0.5"/>
<text text-anchor="middle" x="154.5" y="-7.5" font-family="Helvetica,sans-Serif" font-size="10.00">handler::SearchImageGoogle</text>
</g>
<!-- Node2 -->
<g id="node2" class="node"><title>Node2</title>
<g id="a_node2"><a xlink:href="classhandler_1_1SimpleJson.html" target="_top" xlink:title="Simple base class for handlers using AJAX web APIs. ">
<polygon fill="none" stroke="black" points="102,-57.5 102,-76.5 207,-76.5 207,-57.5 102,-57.5"/>
<text text-anchor="middle" x="154.5" y="-64.5" font-family="Helvetica,sans-Serif" font-size="10.00">handler::SimpleJson</text>
</a>
</g>
</g>
<!-- Node2&#45;&gt;Node1 -->
<g id="edge1" class="edge"><title>Node2&#45;&gt;Node1</title>
<path fill="none" stroke="midnightblue" d="M154.5,-47.1166C154.5,-37.8173 154.5,-27.0557 154.5,-19.7149"/>
<polygon fill="midnightblue" stroke="midnightblue" points="151,-47.4062 154.5,-57.4062 158,-47.4063 151,-47.4062"/>
</g>
<!-- Node3 -->
<g id="node3" class="node"><title>Node3</title>
<g id="a_node3"><a xlink:href="classhandler_1_1SimpleWebApi.html" target="_top" xlink:title="Simple base class for handlers calling web resources. ">
<polygon fill="none" stroke="black" points="95,-114.5 95,-133.5 214,-133.5 214,-114.5 95,-114.5"/>
<text text-anchor="middle" x="154.5" y="-121.5" font-family="Helvetica,sans-Serif" font-size="10.00">handler::SimpleWebApi</text>
</a>
</g>
</g>
<!-- Node3&#45;&gt;Node2 -->
<g id="edge2" class="edge"><title>Node3&#45;&gt;Node2</title>
<path fill="none" stroke="midnightblue" d="M154.5,-104.117C154.5,-94.8173 154.5,-84.0557 154.5,-76.7149"/>
<polygon fill="midnightblue" stroke="midnightblue" points="151,-104.406 154.5,-114.406 158,-104.406 151,-104.406"/>
</g>
<!-- Node4 -->
<g id="node4" class="node"><title>Node4</title>
<g id="a_node4"><a xlink:href="classhandler_1_1SimpleAction.html" target="_top" xlink:title="A simple action sends a message to the same connection it came from. ">
<polygon fill="none" stroke="black" points="98.5,-171.5 98.5,-190.5 210.5,-190.5 210.5,-171.5 98.5,-171.5"/>
<text text-anchor="middle" x="154.5" y="-178.5" font-family="Helvetica,sans-Serif" font-size="10.00">handler::SimpleAction</text>
</a>
</g>
</g>
<!-- Node4&#45;&gt;Node3 -->
<g id="edge3" class="edge"><title>Node4&#45;&gt;Node3</title>
<path fill="none" stroke="midnightblue" d="M154.5,-161.117C154.5,-151.817 154.5,-141.056 154.5,-133.715"/>
<polygon fill="midnightblue" stroke="midnightblue" points="151,-161.406 154.5,-171.406 158,-161.406 151,-161.406"/>
</g>
<!-- Node5 -->
<g id="node5" class="node"><title>Node5</title>
<g id="a_node5"><a xlink:href="classhandler_1_1Handler.html" target="_top" xlink:title="Message handler abstract base class. ">
<polygon fill="none" stroke="black" points="24.5,-238.5 24.5,-257.5 112.5,-257.5 112.5,-238.5 24.5,-238.5"/>
<text text-anchor="middle" x="68.5" y="-245.5" font-family="Helvetica,sans-Serif" font-size="10.00">handler::Handler</text>
</a>
</g>
</g>
<!-- Node5&#45;&gt;Node4 -->
<g id="edge4" class="edge"><title>Node5&#45;&gt;Node4</title>
<path fill="none" stroke="midnightblue" d="M88.2564,-232.068C105.232,-219.238 129.116,-201.185 143.085,-190.627"/>
<polygon fill="midnightblue" stroke="midnightblue" points="85.9657,-229.412 80.0983,-238.234 90.1864,-234.996 85.9657,-229.412"/>
</g>
<!-- Node6 -->
<g id="node6" class="node"><title>Node6</title>
<g id="a_node6"><a xlink:href="classMelanobot.html" target="_top" xlink:title="Main bot class. ">
<polygon fill="none" stroke="black" points="37.5,-305.5 37.5,-324.5 99.5,-324.5 99.5,-305.5 37.5,-305.5"/>
<text text-anchor="middle" x="68.5" y="-312.5" font-family="Helvetica,sans-Serif" font-size="10.00">Melanobot</text>
</a>
</g>
</g>
<!-- Node6&#45;&gt;Node5 -->
<g id="edge5" class="edge"><title>Node6&#45;&gt;Node5</title>
<path fill="none" stroke="#9a32cd" stroke-dasharray="5,2" d="M68.5,-295.037C68.5,-282.67 68.5,-267.12 68.5,-257.627"/>
<polygon fill="#9a32cd" stroke="#9a32cd" points="65.0001,-295.234 68.5,-305.234 72.0001,-295.234 65.0001,-295.234"/>
<text text-anchor="middle" x="77" y="-279" font-family="Helvetica,sans-Serif" font-size="10.00"> bot</text>
</g>
<!-- Node7 -->
<g id="node7" class="node"><title>Node7</title>
<g id="a_node7"><a xlink:href="classConcurrentQueue.html" target="_top" xlink:title="ConcurrentQueue\&lt; network\l::Message \&gt;">
<polygon fill="none" stroke="black" points="0,-372.5 0,-402.5 137,-402.5 137,-372.5 0,-372.5"/>
<text text-anchor="start" x="8" y="-390.5" font-family="Helvetica,sans-Serif" font-size="10.00">ConcurrentQueue&lt; network</text>
<text text-anchor="middle" x="68.5" y="-379.5" font-family="Helvetica,sans-Serif" font-size="10.00">::Message &gt;</text>
</a>
</g>
</g>
<!-- Node7&#45;&gt;Node6 -->
<g id="edge6" class="edge"><title>Node7&#45;&gt;Node6</title>
<path fill="none" stroke="#9a32cd" stroke-dasharray="5,2" d="M68.5,-362.091C68.5,-349.214 68.5,-334.197 68.5,-324.893"/>
<polygon fill="#9a32cd" stroke="#9a32cd" points="65.0001,-362.233 68.5,-372.233 72.0001,-362.233 65.0001,-362.233"/>
<text text-anchor="middle" x="93" y="-346" font-family="Helvetica,sans-Serif" font-size="10.00"> messages</text>
</g>
<!-- Node8 -->
<g id="node8" class="node"><title>Node8</title>
<g id="a_node8"><a xlink:href="classConcurrentContainer.html" target="_top" xlink:title="ConcurrentContainer\l\&lt; std::queue\&lt; network\l::Message, Container \&gt; \&gt;">
<polygon fill="none" stroke="black" points="4.5,-440.5 4.5,-481.5 132.5,-481.5 132.5,-440.5 4.5,-440.5"/>
<text text-anchor="start" x="12.5" y="-469.5" font-family="Helvetica,sans-Serif" font-size="10.00">ConcurrentContainer</text>
<text text-anchor="start" x="12.5" y="-458.5" font-family="Helvetica,sans-Serif" font-size="10.00">&lt; std::queue&lt; network</text>
<text text-anchor="middle" x="68.5" y="-447.5" font-family="Helvetica,sans-Serif" font-size="10.00">::Message, Container &gt; &gt;</text>
</a>
</g>
</g>
<!-- Node8&#45;&gt;Node7 -->
<g id="edge7" class="edge"><title>Node8&#45;&gt;Node7</title>
<path fill="none" stroke="midnightblue" d="M68.5,-430.158C68.5,-420.687 68.5,-410.647 68.5,-402.797"/>
<polygon fill="midnightblue" stroke="midnightblue" points="65.0001,-430.462 68.5,-440.462 72.0001,-430.462 65.0001,-430.462"/>
</g>
<!-- Node9 -->
<g id="node9" class="node"><title>Node9</title>
<g id="a_node9"><a xlink:href="classnetwork_1_1Connection.html" target="_top" xlink:title="Abstract service connection. ">
<polygon fill="none" stroke="black" points="130,-238.5 130,-257.5 237,-257.5 237,-238.5 130,-238.5"/>
<text text-anchor="middle" x="183.5" y="-245.5" font-family="Helvetica,sans-Serif" font-size="10.00">network::Connection</text>
</a>
</g>
</g>
<!-- Node9&#45;&gt;Node4 -->
<g id="edge8" class="edge"><title>Node9&#45;&gt;Node4</title>
<path fill="none" stroke="#9a32cd" stroke-dasharray="5,2" d="M175.376,-228.79C169.806,-216.308 162.671,-200.314 158.349,-190.627"/>
<polygon fill="#9a32cd" stroke="#9a32cd" points="172.318,-230.528 179.589,-238.234 178.711,-227.675 172.318,-230.528"/>
<text text-anchor="middle" x="187" y="-212" font-family="Helvetica,sans-Serif" font-size="10.00"> source</text>
</g>
</g>
</svg>
        <g id="navigator" transform="translate(0 0)" fill="#404254">
                <rect fill="#f2f5e9" fill-opacity="0.5" stroke="#606060" stroke-width=".5" x="0" y="0" width="60" height="60"/>
                <use id="zoomplus" xlink:href="#zoomPlus" x="17" y="9" onmousedown="handleZoom(evt,'in')"/>
                <use id="zoomminus" xlink:href="#zoomMin" x="42" y="9" onmousedown="handleZoom(evt,'out')"/>
                <use id="reset" xlink:href="#resetDef" x="30" y="36" onmousedown="handleReset()"/>
                <g id="arrowUp" xlink:href="#dirArrow" transform="translate(30 24)" onmousedown="handlePan(0,-1)">
                  <use xlink:href="#rim" fill="#404040">
                        <set attributeName="fill" to="#808080" begin="arrowUp.mouseover" end="arrowUp.mouseout"/>
                  </use>
                  <path fill="none" stroke="white" stroke-width="1.5" d="M0,-3.0v7 M-2.5,-0.5L0,-3.0L2.5,-0.5"/>
                </g>
                <g id="arrowRight" xlink:href="#dirArrow" transform="rotate(90) translate(36 -43)" onmousedown="handlePan(1,0)">
                  <use xlink:href="#rim" fill="#404040">
                        <set attributeName="fill" to="#808080" begin="arrowRight.mouseover" end="arrowRight.mouseout"/>
                  </use>
                  <path fill="none" stroke="white" stroke-width="1.5" d="M0,-3.0v7 M-2.5,-0.5L0,-3.0L2.5,-0.5"/>
                </g>
                <g id="arrowDown" xlink:href="#dirArrow" transform="rotate(180) translate(-30 -48)" onmousedown="handlePan(0,1)">
                  <use xlink:href="#rim" fill="#404040">
                        <set attributeName="fill" to="#808080" begin="arrowDown.mouseover" end="arrowDown.mouseout"/>
                  </use>
                  <path fill="none" stroke="white" stroke-width="1.5" d="M0,-3.0v7 M-2.5,-0.5L0,-3.0L2.5,-0.5"/>
                </g>
                <g id="arrowLeft" xlink:href="#dirArrow" transform="rotate(270) translate(-36 17)" onmousedown="handlePan(-1,0)">
                  <use xlink:href="#rim" fill="#404040">
                        <set attributeName="fill" to="#808080" begin="arrowLeft.mouseover" end="arrowLeft.mouseout"/>
                  </use>
                  <path fill="none" stroke="white" stroke-width="1.5" d="M0,-3.0v7 M-2.5,-0.5L0,-3.0L2.5,-0.5"/>
                </g>
        </g>
        <svg viewBox="0 0 15 15" width="100%" height="30px" preserveAspectRatio="xMaxYMin meet">
         <g id="arrow_out" transform="scale(0.3 0.3)">
          <a xlink:href="classhandler_1_1SearchImageGoogle__coll__graph_org.svg" target="_base">
           <rect id="button" ry="5" rx="5" y="6" x="6" height="38" width="38"
                fill="#f2f5e9" fill-opacity="0.5" stroke="#606060" stroke-width="1.0"/>
           <path id="arrow"
             d="M 11.500037,31.436501 C 11.940474,20.09759 22.043105,11.32322 32.158766,21.979434 L 37.068811,17.246167 C 37.068811,17.246167 37.088388,32 37.088388,32 L 22.160133,31.978069 C 22.160133,31.978069 26.997745,27.140456 26.997745,27.140456 C 18.528582,18.264221 13.291696,25.230495 11.500037,31.436501 z"
             style="fill:#404040;"/>
          </a>
         </g>
        </svg>
</svg>
