<?xml version="1.0" encoding="UTF-8" standalone="no"?>
<!DOCTYPE svg PUBLIC "-//W3C//DTD SVG 1.1//EN"
 "http://www.w3.org/Graphics/SVG/1.1/DTD/svg11.dtd">
<!-- Generated by graphviz version 2.38.0 (20140413.2041)
 -->
<!-- Title: network::irc::Buffer Pages: 1 -->
<!--zoomable 289 -->
<svg id="main" version="1.1" xmlns="http://www.w3.org/2000/svg" xmlns:xlink="http://www.w3.org/1999/xlink" xml:space="preserve" onload="init(evt)">
<style type="text/css"><![CDATA[
.edge:hover path { stroke: red; }
.edge:hover polygon { stroke: red; fill: red; }
]]></style>
<script type="text/javascript"><![CDATA[
var edges = document.getElementsByTagName('g');
if (edges && edges.length) {
  for (var i=0;i<edges.length;i++) {
    if (edges[i].id.substr(0,4)=='edge') {
      edges[i].setAttribute('class','edge');
    }
  }
}
]]></script>
        <defs>
                <circle id="rim" cx="0" cy="0" r="7"/>
                <circle id="rim2" cx="0" cy="0" r="3.5"/>
                <g id="zoomPlus">
                        <use xlink:href="#rim" fill="#404040">
                                <set attributeName="fill" to="#808080" begin="zoomplus.mouseover" end="zoomplus.mouseout"/>
                        </use>
                        <path d="M-4,0h8M0,-4v8" fill="none" stroke="white" stroke-width="1.5" pointer-events="none"/>
                </g>
                <g id="zoomMin">
                        <use xlink:href="#rim" fill="#404040">
                                <set attributeName="fill" to="#808080" begin="zoomminus.mouseover" end="zoomminus.mouseout"/>
                        </use>
                        <path d="M-4,0h8" fill="none" stroke="white" stroke-width="1.5" pointer-events="none"/>
                </g>
                <g id="dirArrow">
                        <path fill="none" stroke="white" stroke-width="1.5" d="M0,-3.0v7 M-2.5,-0.5L0,-3.0L2.5,-0.5"/>
                </g>
               <g id="resetDef">
                       <use xlink:href="#rim2" fill="#404040">
                               <set attributeName="fill" to="#808080" begin="reset.mouseover" end="reset.mouseout"/>
                       </use>
               </g>
        </defs>

<script type="text/javascript">
var viewWidth = 772;
var viewHeight = 289;
var sectionId = 'dynsection-0';
</script>
<script xlink:href="svgpan.js"/>
<svg id="graph" class="graph">
<g id="viewport">
<title>network::irc::Buffer</title>
<!-- Node1 -->
<g id="node1" class="node"><title>Node1</title>
<polygon fill="#bfbfbf" stroke="black" points="424.5,-17 424.5,-36 524.5,-36 524.5,-17 424.5,-17"/>
<text text-anchor="middle" x="474.5" y="-24" font-family="Helvetica,sans-Serif" font-size="10.00">network::irc::Buffer</text>
</g>
<!-- Node4 -->
<g id="node4" class="node"><title>Node4</title>
<g id="a_node4"><a xlink:href="classnetwork_1_1irc_1_1IrcConnection.html" target="_top" xlink:title="IRC connection. ">
<polygon fill="none" stroke="black" points="630,-132 630,-151 764,-151 764,-132 630,-132"/>
<text text-anchor="middle" x="697" y="-139" font-family="Helvetica,sans-Serif" font-size="10.00">network::irc::IrcConnection</text>
</a>
</g>
</g>
<!-- Node1&#45;&gt;Node4 -->
<g id="edge10" class="edge"><title>Node1&#45;&gt;Node4</title>
<path fill="none" stroke="#9a32cd" stroke-dasharray="5,2" d="M526.088,-38.8025C552.639,-46.4147 585.142,-57.605 612,-72.5 642.038,-89.1586 671.822,-117.006 686.531,-131.713"/>
<polygon fill="#9a32cd" stroke="#9a32cd" points="526.8,-35.3677 516.228,-36.06 524.925,-42.1117 526.8,-35.3677"/>
<text text-anchor="middle" x="579" y="-75.5" font-family="Helvetica,sans-Serif" font-size="10.00"> buffer</text>
</g>
<!-- Node2 -->
<g id="node2" class="node"><title>Node2</title>
<g id="a_node2"><a xlink:href="classConcurrentPriorityQueue.html" target="_top" xlink:title="ConcurrentPriorityQueue\l\&lt; network::Command \&gt;">
<polygon fill="none" stroke="black" points="205.5,-11.5 205.5,-41.5 329.5,-41.5 329.5,-11.5 205.5,-11.5"/>
<text text-anchor="start" x="213.5" y="-29.5" font-family="Helvetica,sans-Serif" font-size="10.00">ConcurrentPriorityQueue</text>
<text text-anchor="middle" x="267.5" y="-18.5" font-family="Helvetica,sans-Serif" font-size="10.00">&lt; network::Command &gt;</text>
</a>
</g>
</g>
<!-- Node2&#45;&gt;Node1 -->
<g id="edge1" class="edge"><title>Node2&#45;&gt;Node1</title>
<path fill="none" stroke="#9a32cd" stroke-dasharray="5,2" d="M339.828,-26.5C367.705,-26.5 398.98,-26.5 424.267,-26.5"/>
<polygon fill="#9a32cd" stroke="#9a32cd" points="339.729,-23.0001 329.729,-26.5 339.729,-30.0001 339.729,-23.0001"/>
<text text-anchor="middle" x="378.5" y="-29.5" font-family="Helvetica,sans-Serif" font-size="10.00"> buffer</text>
</g>
<!-- Node3 -->
<g id="node3" class="node"><title>Node3</title>
<g id="a_node3"><a xlink:href="classConcurrentContainer.html" target="_top" xlink:title="ConcurrentContainer\l\&lt; std::priority_queue\l\&lt; network::Command, Container,\l Compare \&gt; \&gt;">
<polygon fill="none" stroke="black" points="0,-0.5 0,-52.5 162,-52.5 162,-0.5 0,-0.5"/>
<text text-anchor="start" x="8" y="-40.5" font-family="Helvetica,sans-Serif" font-size="10.00">ConcurrentContainer</text>
<text text-anchor="start" x="8" y="-29.5" font-family="Helvetica,sans-Serif" font-size="10.00">&lt; std::priority_queue</text>
<text text-anchor="start" x="8" y="-18.5" font-family="Helvetica,sans-Serif" font-size="10.00">&lt; network::Command, Container,</text>
<text text-anchor="middle" x="81" y="-7.5" font-family="Helvetica,sans-Serif" font-size="10.00"> Compare &gt; &gt;</text>
</a>
</g>
</g>
<!-- Node3&#45;&gt;Node2 -->
<g id="edge2" class="edge"><title>Node3&#45;&gt;Node2</title>
<path fill="none" stroke="midnightblue" d="M172.356,-26.5C183.534,-26.5 194.749,-26.5 205.345,-26.5"/>
<polygon fill="midnightblue" stroke="midnightblue" points="172.119,-23.0001 162.119,-26.5 172.119,-30.0001 172.119,-23.0001"/>
</g>
<!-- Node4&#45;&gt;Node1 -->
<g id="edge3" class="edge"><title>Node4&#45;&gt;Node1</title>
<path fill="none" stroke="#9a32cd" stroke-dasharray="5,2" d="M689.973,-121.93C679.57,-91.9999 655.105,-35.8698 612,-12.5 575.77,7.14255 526.17,-6.15656 497.816,-16.845"/>
<polygon fill="#9a32cd" stroke="#9a32cd" points="686.725,-123.259 693.177,-131.662 693.374,-121.069 686.725,-123.259"/>
<text text-anchor="middle" x="579" y="-15.5" font-family="Helvetica,sans-Serif" font-size="10.00"> irc</text>
</g>
<!-- Node5 -->
<g id="node5" class="node"><title>Node5</title>
<g id="a_node5"><a xlink:href="classnetwork_1_1Connection.html" target="_top" xlink:title="Abstract service connection. ">
<polygon fill="none" stroke="black" points="421,-261 421,-280 528,-280 528,-261 421,-261"/>
<text text-anchor="middle" x="474.5" y="-268" font-family="Helvetica,sans-Serif" font-size="10.00">network::Connection</text>
</a>
</g>
</g>
<!-- Node5&#45;&gt;Node4 -->
<g id="edge4" class="edge"><title>Node5&#45;&gt;Node4</title>
<path fill="none" stroke="midnightblue" d="M538.049,-261.292C562.382,-255.784 589.709,-247.098 612,-233.5 647.82,-211.649 677.59,-170.082 689.909,-151.23"/>
<polygon fill="midnightblue" stroke="midnightblue" points="537.236,-257.886 528.184,-263.392 538.693,-264.733 537.236,-257.886"/>
</g>
<!-- Node6 -->
<g id="node6" class="node"><title>Node6</title>
<g id="a_node6"><a xlink:href="classuser_1_1UserManager.html" target="_top" xlink:title="A class to keep track of users. ">
<polygon fill="none" stroke="black" points="424.5,-223 424.5,-242 524.5,-242 524.5,-223 424.5,-223"/>
<text text-anchor="middle" x="474.5" y="-230" font-family="Helvetica,sans-Serif" font-size="10.00">user::UserManager</text>
</a>
</g>
</g>
<!-- Node6&#45;&gt;Node4 -->
<g id="edge5" class="edge"><title>Node6&#45;&gt;Node4</title>
<path fill="none" stroke="#9a32cd" stroke-dasharray="5,2" d="M534.704,-221.265C559.234,-215.5 587.598,-207.362 612,-196.5 639.709,-184.166 668.557,-163.19 684.195,-151.018"/>
<polygon fill="#9a32cd" stroke="#9a32cd" points="533.78,-217.886 524.803,-223.514 535.33,-224.712 533.78,-217.886"/>
<text text-anchor="middle" x="579" y="-221.5" font-family="Helvetica,sans-Serif" font-size="10.00"> user_manager</text>
</g>
<!-- Node7 -->
<g id="node7" class="node"><title>Node7</title>
<g id="a_node7"><a xlink:href="classstring_1_1Formatter.html" target="_top" xlink:title="Abstract formatting visitor (and factory) ">
<polygon fill="none" stroke="black" points="430,-185 430,-204 519,-204 519,-185 430,-185"/>
<text text-anchor="middle" x="474.5" y="-192" font-family="Helvetica,sans-Serif" font-size="10.00">string::Formatter</text>
</a>
</g>
</g>
<!-- Node7&#45;&gt;Node4 -->
<g id="edge6" class="edge"><title>Node7&#45;&gt;Node4</title>
<path fill="none" stroke="#9a32cd" stroke-dasharray="5,2" d="M529.223,-185.22C554.483,-180.514 584.933,-174.346 612,-167.5 630.796,-162.746 651.616,-156.31 667.826,-151.031"/>
<polygon fill="#9a32cd" stroke="#9a32cd" points="528.302,-181.831 519.1,-187.08 529.568,-188.715 528.302,-181.831"/>
<text text-anchor="middle" x="579" y="-184.5" font-family="Helvetica,sans-Serif" font-size="10.00"> formatter_</text>
</g>
<!-- Node8 -->
<g id="node8" class="node"><title>Node8</title>
<g id="a_node8"><a xlink:href="classMelanobot.html" target="_top" xlink:title="Main bot class. ">
<polygon fill="none" stroke="black" points="443.5,-147 443.5,-166 505.5,-166 505.5,-147 443.5,-147"/>
<text text-anchor="middle" x="474.5" y="-154" font-family="Helvetica,sans-Serif" font-size="10.00">Melanobot</text>
</a>
</g>
</g>
<!-- Node8&#45;&gt;Node4 -->
<g id="edge7" class="edge"><title>Node8&#45;&gt;Node4</title>
<path fill="none" stroke="#9a32cd" stroke-dasharray="5,2" d="M515.968,-153.747C547.837,-151.579 592.914,-148.513 629.99,-145.99"/>
<polygon fill="#9a32cd" stroke="#9a32cd" points="515.437,-150.275 505.697,-154.446 515.912,-157.259 515.437,-150.275"/>
<text text-anchor="middle" x="579" y="-155.5" font-family="Helvetica,sans-Serif" font-size="10.00"> bot</text>
</g>
<!-- Node9 -->
<g id="node9" class="node"><title>Node9</title>
<g id="a_node9"><a xlink:href="classConcurrentQueue.html" target="_top" xlink:title="ConcurrentQueue\&lt; network\l::Message \&gt;">
<polygon fill="none" stroke="black" points="199,-141.5 199,-171.5 336,-171.5 336,-141.5 199,-141.5"/>
<text text-anchor="start" x="207" y="-159.5" font-family="Helvetica,sans-Serif" font-size="10.00">ConcurrentQueue&lt; network</text>
<text text-anchor="middle" x="267.5" y="-148.5" font-family="Helvetica,sans-Serif" font-size="10.00">::Message &gt;</text>
</a>
</g>
</g>
<!-- Node9&#45;&gt;Node8 -->
<g id="edge8" class="edge"><title>Node9&#45;&gt;Node8</title>
<path fill="none" stroke="#9a32cd" stroke-dasharray="5,2" d="M346.55,-156.5C380.371,-156.5 417.963,-156.5 443.4,-156.5"/>
<polygon fill="#9a32cd" stroke="#9a32cd" points="346.193,-153 336.193,-156.5 346.193,-160 346.193,-153"/>
<text text-anchor="middle" x="378.5" y="-159.5" font-family="Helvetica,sans-Serif" font-size="10.00"> messages</text>
</g>
<!-- Node10 -->
<g id="node10" class="node"><title>Node10</title>
<g id="a_node10"><a xlink:href="classConcurrentContainer.html" target="_top" xlink:title="ConcurrentContainer\l\&lt; std::queue\&lt; network\l::Message, Container \&gt; \&gt;">
<polygon fill="none" stroke="black" points="17,-136 17,-177 145,-177 145,-136 17,-136"/>
<text text-anchor="start" x="25" y="-165" font-family="Helvetica,sans-Serif" font-size="10.00">ConcurrentContainer</text>
<text text-anchor="start" x="25" y="-154" font-family="Helvetica,sans-Serif" font-size="10.00">&lt; std::queue&lt; network</text>
<text text-anchor="middle" x="81" y="-143" font-family="Helvetica,sans-Serif" font-size="10.00">::Message, Container &gt; &gt;</text>
</a>
</g>
</g>
<!-- Node10&#45;&gt;Node9 -->
<g id="edge9" class="edge"><title>Node10&#45;&gt;Node9</title>
<path fill="none" stroke="midnightblue" d="M155.535,-156.5C169.861,-156.5 184.815,-156.5 198.936,-156.5"/>
<polygon fill="midnightblue" stroke="midnightblue" points="155.236,-153 145.236,-156.5 155.236,-160 155.236,-153"/>
</g>
<!-- Node11 -->
<g id="node11" class="node"><title>Node11</title>
<g id="a_node11"><a xlink:href="classuser_1_1AuthSystem.html" target="_top" xlink:title="User authorization system. ">
<polygon fill="none" stroke="black" points="427,-109 427,-128 522,-128 522,-109 427,-109"/>
<text text-anchor="middle" x="474.5" y="-116" font-family="Helvetica,sans-Serif" font-size="10.00">user::AuthSystem</text>
</a>
</g>
</g>
<!-- Node11&#45;&gt;Node4 -->
<g id="edge11" class="edge"><title>Node11&#45;&gt;Node4</title>
<path fill="none" stroke="#9a32cd" stroke-dasharray="5,2" d="M532.455,-124.283C556.94,-126.785 585.879,-129.761 612,-132.5 617.835,-133.112 623.897,-133.752 629.973,-134.397"/>
<polygon fill="#9a32cd" stroke="#9a32cd" points="532.559,-120.776 522.255,-123.243 531.848,-127.74 532.559,-120.776"/>
<text text-anchor="middle" x="579" y="-135.5" font-family="Helvetica,sans-Serif" font-size="10.00"> auth_system</text>
</g>
<!-- Node12 -->
<g id="node12" class="node"><title>Node12</title>
<g id="a_node12"><a xlink:href="structnetwork_1_1Server.html" target="_top" xlink:title="Identifies a network server. ">
<polygon fill="none" stroke="black" points="431.5,-70 431.5,-89 517.5,-89 517.5,-70 431.5,-70"/>
<text text-anchor="middle" x="474.5" y="-77" font-family="Helvetica,sans-Serif" font-size="10.00">network::Server</text>
</a>
</g>
</g>
<!-- Node12&#45;&gt;Node4 -->
<g id="edge12" class="edge"><title>Node12&#45;&gt;Node4</title>
<path fill="none" stroke="#9a32cd" stroke-dasharray="5,2" d="M527.712,-83.8026C553.499,-86.8621 584.83,-91.9952 612,-100.5 636.934,-108.305 663.729,-122.509 680.183,-131.977"/>
<polygon fill="#9a32cd" stroke="#9a32cd" points="528.085,-80.3226 517.758,-82.6908 527.308,-87.2793 528.085,-80.3226"/>
<text text-anchor="middle" x="579" y="-114.5" font-family="Helvetica,sans-Serif" font-size="10.00"> current_server</text>
<text text-anchor="middle" x="579" y="-103.5" font-family="Helvetica,sans-Serif" font-size="10.00">main_server</text>
</g>
</g>
</svg>
        <g id="navigator" transform="translate(0 0)" fill="#404254">
                <rect fill="#f2f5e9" fill-opacity="0.5" stroke="#606060" stroke-width=".5" x="0" y="0" width="60" height="60"/>
                <use id="zoomplus" xlink:href="#zoomPlus" x="17" y="9" onmousedown="handleZoom(evt,'in')"/>
                <use id="zoomminus" xlink:href="#zoomMin" x="42" y="9" onmousedown="handleZoom(evt,'out')"/>
                <use id="reset" xlink:href="#resetDef" x="30" y="36" onmousedown="handleReset()"/>
                <g id="arrowUp" xlink:href="#dirArrow" transform="translate(30 24)" onmousedown="handlePan(0,-1)">
                  <use xlink:href="#rim" fill="#404040">
                        <set attributeName="fill" to="#808080" begin="arrowUp.mouseover" end="arrowUp.mouseout"/>
                  </use>
                  <path fill="none" stroke="white" stroke-width="1.5" d="M0,-3.0v7 M-2.5,-0.5L0,-3.0L2.5,-0.5"/>
                </g>
                <g id="arrowRight" xlink:href="#dirArrow" transform="rotate(90) translate(36 -43)" onmousedown="handlePan(1,0)">
                  <use xlink:href="#rim" fill="#404040">
                        <set attributeName="fill" to="#808080" begin="arrowRight.mouseover" end="arrowRight.mouseout"/>
                  </use>
                  <path fill="none" stroke="white" stroke-width="1.5" d="M0,-3.0v7 M-2.5,-0.5L0,-3.0L2.5,-0.5"/>
                </g>
                <g id="arrowDown" xlink:href="#dirArrow" transform="rotate(180) translate(-30 -48)" onmousedown="handlePan(0,1)">
                  <use xlink:href="#rim" fill="#404040">
                        <set attributeName="fill" to="#808080" begin="arrowDown.mouseover" end="arrowDown.mouseout"/>
                  </use>
                  <path fill="none" stroke="white" stroke-width="1.5" d="M0,-3.0v7 M-2.5,-0.5L0,-3.0L2.5,-0.5"/>
                </g>
                <g id="arrowLeft" xlink:href="#dirArrow" transform="rotate(270) translate(-36 17)" onmousedown="handlePan(-1,0)">
                  <use xlink:href="#rim" fill="#404040">
                        <set attributeName="fill" to="#808080" begin="arrowLeft.mouseover" end="arrowLeft.mouseout"/>
                  </use>
                  <path fill="none" stroke="white" stroke-width="1.5" d="M0,-3.0v7 M-2.5,-0.5L0,-3.0L2.5,-0.5"/>
                </g>
        </g>
        <svg viewBox="0 0 15 15" width="100%" height="30px" preserveAspectRatio="xMaxYMin meet">
         <g id="arrow_out" transform="scale(0.3 0.3)">
          <a xlink:href="classnetwork_1_1irc_1_1Buffer__coll__graph_org.svg" target="_base">
           <rect id="button" ry="5" rx="5" y="6" x="6" height="38" width="38"
                fill="#f2f5e9" fill-opacity="0.5" stroke="#606060" stroke-width="1.0"/>
           <path id="arrow"
             d="M 11.500037,31.436501 C 11.940474,20.09759 22.043105,11.32322 32.158766,21.979434 L 37.068811,17.246167 C 37.068811,17.246167 37.088388,32 37.088388,32 L 22.160133,31.978069 C 22.160133,31.978069 26.997745,27.140456 26.997745,27.140456 C 18.528582,18.264221 13.291696,25.230495 11.500037,31.436501 z"
             style="fill:#404040;"/>
          </a>
         </g>
        </svg>
</svg>
