<?xml version="1.0" encoding="UTF-8" standalone="no"?>
<!DOCTYPE svg PUBLIC "-//W3C//DTD SVG 1.1//EN"
 "http://www.w3.org/Graphics/SVG/1.1/DTD/svg11.dtd">
<!-- Generated by graphviz version 2.38.0 (20140413.2041)
 -->
<!-- Title: handler::Handler Pages: 1 -->
<svg width="914pt" height="959pt"
 viewBox="0.00 0.00 914.00 959.00" xmlns="http://www.w3.org/2000/svg" xmlns:xlink="http://www.w3.org/1999/xlink">
<g id="graph0" class="graph" transform="scale(1 1) rotate(0) translate(4 955)">
<title>handler::Handler</title>
<!-- Node1 -->
<g id="node1" class="node"><title>Node1</title>
<polygon fill="#bfbfbf" stroke="black" points="166,-760.5 166,-779.5 254,-779.5 254,-760.5 166,-760.5"/>
<text text-anchor="middle" x="210" y="-767.5" font-family="Helvetica,sans-Serif" font-size="10.00">handler::Handler</text>
</g>
<!-- Node3 -->
<g id="node3" class="node"><title>Node3</title>
<g id="a_node3"><a xlink:href="classhandler_1_1AcceptInvite.html" target="_top" xlink:title="Makes the bot join channels (IRC) ">
<polygon fill="none" stroke="black" points="301,-874.5 301,-893.5 410,-893.5 410,-874.5 301,-874.5"/>
<text text-anchor="middle" x="355.5" y="-881.5" font-family="Helvetica,sans-Serif" font-size="10.00">handler::AcceptInvite</text>
</a>
</g>
</g>
<!-- Node1&#45;&gt;Node3 -->
<g id="edge2" class="edge"><title>Node1&#45;&gt;Node3</title>
<path fill="none" stroke="midnightblue" d="M221.652,-788.517C234.955,-810.016 259.694,-845.067 290,-865 295.852,-868.849 302.504,-871.937 309.259,-874.41"/>
<polygon fill="midnightblue" stroke="midnightblue" points="224.509,-786.475 216.366,-779.696 218.504,-790.073 224.509,-786.475"/>
</g>
<!-- Node4 -->
<g id="node4" class="node"><title>Node4</title>
<g id="a_node4"><a xlink:href="classhandler_1_1AnswerQuestions.html" target="_top" xlink:title="Answers direct questions. ">
<polygon fill="none" stroke="black" points="290,-836.5 290,-855.5 421,-855.5 421,-836.5 290,-836.5"/>
<text text-anchor="middle" x="355.5" y="-843.5" font-family="Helvetica,sans-Serif" font-size="10.00">handler::AnswerQuestions</text>
</a>
</g>
</g>
<!-- Node1&#45;&gt;Node4 -->
<g id="edge3" class="edge"><title>Node1&#45;&gt;Node4</title>
<path fill="none" stroke="midnightblue" d="M229.424,-786.081C244.738,-798.734 267.576,-816.009 290,-827 297.547,-830.699 305.951,-833.821 314.133,-836.397"/>
<polygon fill="midnightblue" stroke="midnightblue" points="231.64,-783.371 221.74,-779.596 227.125,-788.72 231.64,-783.371"/>
</g>
<!-- Node5 -->
<g id="node5" class="node"><title>Node5</title>
<g id="a_node5"><a xlink:href="classhandler_1_1CtcpBase.html" target="_top" xlink:title="Base class for handling CTCP requests. ">
<polygon fill="none" stroke="black" points="306.5,-798.5 306.5,-817.5 404.5,-817.5 404.5,-798.5 306.5,-798.5"/>
<text text-anchor="middle" x="355.5" y="-805.5" font-family="Helvetica,sans-Serif" font-size="10.00">handler::CtcpBase</text>
</a>
</g>
</g>
<!-- Node1&#45;&gt;Node5 -->
<g id="edge4" class="edge"><title>Node1&#45;&gt;Node5</title>
<path fill="none" stroke="midnightblue" d="M256.973,-782.174C276.816,-787.429 299.693,-793.487 318.3,-798.414"/>
<polygon fill="midnightblue" stroke="midnightblue" points="257.774,-778.766 247.211,-779.589 255.982,-785.532 257.774,-778.766"/>
</g>
<!-- Node12 -->
<g id="node12" class="node"><title>Node12</title>
<g id="a_node12"><a xlink:href="classhandler_1_1QGetWhois.html" target="_top" xlink:title="Parses responses from Q WHOIS and USER (IRC) ">
<polygon fill="none" stroke="black" points="303,-760.5 303,-779.5 408,-779.5 408,-760.5 303,-760.5"/>
<text text-anchor="middle" x="355.5" y="-767.5" font-family="Helvetica,sans-Serif" font-size="10.00">handler::QGetWhois</text>
</a>
</g>
</g>
<!-- Node1&#45;&gt;Node12 -->
<g id="edge11" class="edge"><title>Node1&#45;&gt;Node12</title>
<path fill="none" stroke="midnightblue" d="M264.396,-770C276.977,-770 290.366,-770 302.867,-770"/>
<polygon fill="midnightblue" stroke="midnightblue" points="264.055,-766.5 254.055,-770 264.055,-773.5 264.055,-766.5"/>
</g>
<!-- Node13 -->
<g id="node13" class="node"><title>Node13</title>
<g id="a_node13"><a xlink:href="classhandler_1_1QSendWhois.html" target="_top" xlink:title="Asks Q for WHOIS or USERS information when a user joins a channel (IRC) ">
<polygon fill="none" stroke="black" points="299.5,-722.5 299.5,-741.5 411.5,-741.5 411.5,-722.5 299.5,-722.5"/>
<text text-anchor="middle" x="355.5" y="-729.5" font-family="Helvetica,sans-Serif" font-size="10.00">handler::QSendWhois</text>
</a>
</g>
</g>
<!-- Node1&#45;&gt;Node13 -->
<g id="edge12" class="edge"><title>Node1&#45;&gt;Node13</title>
<path fill="none" stroke="midnightblue" d="M256.973,-757.826C276.816,-752.571 299.693,-746.513 318.3,-741.586"/>
<polygon fill="midnightblue" stroke="midnightblue" points="255.982,-754.468 247.211,-760.411 257.774,-761.234 255.982,-754.468"/>
</g>
<!-- Node14 -->
<g id="node14" class="node"><title>Node14</title>
<g id="a_node14"><a xlink:href="classhandler_1_1SimpleAction.html" target="_top" xlink:title="A simple action sends a message to the same connection it came from. ">
<polygon fill="none" stroke="black" points="299.5,-437.5 299.5,-456.5 411.5,-456.5 411.5,-437.5 299.5,-437.5"/>
<text text-anchor="middle" x="355.5" y="-444.5" font-family="Helvetica,sans-Serif" font-size="10.00">handler::SimpleAction</text>
</a>
</g>
</g>
<!-- Node1&#45;&gt;Node14 -->
<g id="edge13" class="edge"><title>Node1&#45;&gt;Node14</title>
<path fill="none" stroke="midnightblue" d="M219.379,-751.139C246.346,-690.44 330.288,-501.498 350.222,-456.629"/>
<polygon fill="midnightblue" stroke="midnightblue" points="216.156,-749.773 215.295,-760.333 222.553,-752.616 216.156,-749.773"/>
</g>
<!-- Node40 -->
<g id="node40" class="node"><title>Node40</title>
<g id="a_node40"><a xlink:href="classhandler_1_1Whois330.html" target="_top" xlink:title="Sets the global id based on a 330 reply from whois (IRC) ">
<polygon fill="none" stroke="black" points="306.5,-399.5 306.5,-418.5 404.5,-418.5 404.5,-399.5 306.5,-399.5"/>
<text text-anchor="middle" x="355.5" y="-406.5" font-family="Helvetica,sans-Serif" font-size="10.00">handler::Whois330</text>
</a>
</g>
</g>
<!-- Node1&#45;&gt;Node40 -->
<g id="edge39" class="edge"><title>Node1&#45;&gt;Node40</title>
<path fill="none" stroke="midnightblue" d="M212.965,-750.24C219.868,-684.664 245.058,-475.697 290,-428 294.563,-423.157 300.292,-419.529 306.441,-416.815"/>
<polygon fill="midnightblue" stroke="midnightblue" points="209.458,-750.131 211.919,-760.436 216.421,-750.845 209.458,-750.131"/>
</g>
<!-- Node2 -->
<g id="node2" class="node"><title>Node2</title>
<g id="a_node2"><a xlink:href="classhandler_1_1HandlerContainer.html" target="_top" xlink:title="Base class for classes which may contain handlers. ">
<polygon fill="none" stroke="black" points="0,-760.5 0,-779.5 130,-779.5 130,-760.5 0,-760.5"/>
<text text-anchor="middle" x="65" y="-767.5" font-family="Helvetica,sans-Serif" font-size="10.00">handler::HandlerContainer</text>
</a>
</g>
</g>
<!-- Node2&#45;&gt;Node1 -->
<g id="edge1" class="edge"><title>Node2&#45;&gt;Node1</title>
<path fill="none" stroke="midnightblue" d="M140.555,-770C149.218,-770 157.821,-770 165.854,-770"/>
<polygon fill="midnightblue" stroke="midnightblue" points="140.388,-766.5 130.388,-770 140.388,-773.5 140.388,-766.5"/>
</g>
<!-- Node6 -->
<g id="node6" class="node"><title>Node6</title>
<g id="a_node6"><a xlink:href="classhandler_1_1CtcpClientInfo.html" target="_top" xlink:title="Shows help about other CTCP handlers. ">
<polygon fill="none" stroke="black" points="460.5,-931.5 460.5,-950.5 577.5,-950.5 577.5,-931.5 460.5,-931.5"/>
<text text-anchor="middle" x="519" y="-938.5" font-family="Helvetica,sans-Serif" font-size="10.00">handler::CtcpClientInfo</text>
</a>
</g>
</g>
<!-- Node5&#45;&gt;Node6 -->
<g id="edge5" class="edge"><title>Node5&#45;&gt;Node6</title>
<path fill="none" stroke="midnightblue" d="M413.558,-821.334C416.215,-823.006 418.719,-824.886 421,-827 454.114,-857.695 424.125,-891.049 457,-922 461.119,-925.878 466.017,-928.965 471.222,-931.422"/>
<polygon fill="midnightblue" stroke="midnightblue" points="415.123,-818.203 404.639,-816.674 411.881,-824.407 415.123,-818.203"/>
</g>
<!-- Node7 -->
<g id="node7" class="node"><title>Node7</title>
<g id="a_node7"><a xlink:href="classhandler_1_1CtcpPing.html" target="_top" xlink:title="CTCP PING reply, Used to measure round&#45;trip message delays. ">
<polygon fill="none" stroke="black" points="471.5,-893.5 471.5,-912.5 566.5,-912.5 566.5,-893.5 471.5,-893.5"/>
<text text-anchor="middle" x="519" y="-900.5" font-family="Helvetica,sans-Serif" font-size="10.00">handler::CtcpPing</text>
</a>
</g>
</g>
<!-- Node5&#45;&gt;Node7 -->
<g id="edge6" class="edge"><title>Node5&#45;&gt;Node7</title>
<path fill="none" stroke="midnightblue" d="M413.074,-821.911C415.855,-823.435 418.519,-825.125 421,-827 444.908,-845.061 433.233,-865.755 457,-884 462.015,-887.85 467.821,-890.927 473.817,-893.386"/>
<polygon fill="midnightblue" stroke="midnightblue" points="414.412,-818.673 403.873,-817.588 411.436,-825.009 414.412,-818.673"/>
</g>
<!-- Node8 -->
<g id="node8" class="node"><title>Node8</title>
<g id="a_node8"><a xlink:href="classhandler_1_1CtcpSource.html" target="_top" xlink:title="CTCP SOURCE reply, shows a URL with the sources. ">
<polygon fill="none" stroke="black" points="466,-855.5 466,-874.5 572,-874.5 572,-855.5 466,-855.5"/>
<text text-anchor="middle" x="519" y="-862.5" font-family="Helvetica,sans-Serif" font-size="10.00">handler::CtcpSource</text>
</a>
</g>
</g>
<!-- Node5&#45;&gt;Node8 -->
<g id="edge7" class="edge"><title>Node5&#45;&gt;Node8</title>
<path fill="none" stroke="midnightblue" d="M402.985,-820.482C409.109,-822.478 415.251,-824.664 421,-827 437.76,-833.812 440.293,-839.058 457,-846 465.399,-849.49 474.677,-852.693 483.407,-855.436"/>
<polygon fill="midnightblue" stroke="midnightblue" points="404.023,-817.139 393.434,-817.506 401.94,-823.822 404.023,-817.139"/>
</g>
<!-- Node9 -->
<g id="node9" class="node"><title>Node9</title>
<g id="a_node9"><a xlink:href="classhandler_1_1CtcpTime.html" target="_top" xlink:title="CTCP TIME reply, Shows the local time. ">
<polygon fill="none" stroke="black" points="470.5,-817.5 470.5,-836.5 567.5,-836.5 567.5,-817.5 470.5,-817.5"/>
<text text-anchor="middle" x="519" y="-824.5" font-family="Helvetica,sans-Serif" font-size="10.00">handler::CtcpTime</text>
</a>
</g>
</g>
<!-- Node5&#45;&gt;Node9 -->
<g id="edge8" class="edge"><title>Node5&#45;&gt;Node9</title>
<path fill="none" stroke="midnightblue" d="M414.51,-814.825C432.86,-816.984 452.916,-819.343 470.445,-821.405"/>
<polygon fill="midnightblue" stroke="midnightblue" points="414.859,-811.342 404.518,-813.649 414.041,-818.294 414.859,-811.342"/>
</g>
<!-- Node10 -->
<g id="node10" class="node"><title>Node10</title>
<g id="a_node10"><a xlink:href="classhandler_1_1CtcpUserInfo.html" target="_top" xlink:title="CTCP USERINFO reply, shows a user&#45;defined string. ">
<polygon fill="none" stroke="black" points="462.5,-779.5 462.5,-798.5 575.5,-798.5 575.5,-779.5 462.5,-779.5"/>
<text text-anchor="middle" x="519" y="-786.5" font-family="Helvetica,sans-Serif" font-size="10.00">handler::CtcpUserInfo</text>
</a>
</g>
</g>
<!-- Node5&#45;&gt;Node10 -->
<g id="edge9" class="edge"><title>Node5&#45;&gt;Node10</title>
<path fill="none" stroke="midnightblue" d="M414.522,-801.174C430.053,-799.347 446.806,-797.376 462.213,-795.563"/>
<polygon fill="midnightblue" stroke="midnightblue" points="414.041,-797.706 404.518,-802.351 414.859,-804.658 414.041,-797.706"/>
</g>
<!-- Node11 -->
<g id="node11" class="node"><title>Node11</title>
<g id="a_node11"><a xlink:href="classhandler_1_1CtcpVersion.html" target="_top" xlink:title="CTCP VERSION reply, shows a pre&#45;formatted version string. ">
<polygon fill="none" stroke="black" points="465,-741.5 465,-760.5 573,-760.5 573,-741.5 465,-741.5"/>
<text text-anchor="middle" x="519" y="-748.5" font-family="Helvetica,sans-Serif" font-size="10.00">handler::CtcpVersion</text>
</a>
</g>
</g>
<!-- Node5&#45;&gt;Node11 -->
<g id="edge10" class="edge"><title>Node5&#45;&gt;Node11</title>
<path fill="none" stroke="midnightblue" d="M402.985,-795.518C409.109,-793.522 415.251,-791.336 421,-789 437.76,-782.188 440.293,-776.942 457,-770 465.399,-766.51 474.677,-763.307 483.407,-760.564"/>
<polygon fill="midnightblue" stroke="midnightblue" points="401.94,-792.178 393.434,-798.494 404.023,-798.861 401.94,-792.178"/>
</g>
<!-- Node15 -->
<g id="node15" class="node"><title>Node15</title>
<g id="a_node15"><a xlink:href="classhandler_1_1AdminJoin.html" target="_top" xlink:title="Makes the bot join channels (IRC) ">
<polygon fill="none" stroke="black" points="469,-703.5 469,-722.5 569,-722.5 569,-703.5 469,-703.5"/>
<text text-anchor="middle" x="519" y="-710.5" font-family="Helvetica,sans-Serif" font-size="10.00">handler::AdminJoin</text>
</a>
</g>
</g>
<!-- Node14&#45;&gt;Node15 -->
<g id="edge14" class="edge"><title>Node14&#45;&gt;Node15</title>
<path fill="none" stroke="midnightblue" d="M358.806,-466.668C365.305,-513.149 388.032,-630.625 457,-694 461.247,-697.903 466.286,-701.004 471.619,-703.468"/>
<polygon fill="midnightblue" stroke="midnightblue" points="362.269,-466.156 357.513,-456.688 355.327,-467.055 362.269,-466.156"/>
</g>
<!-- Node16 -->
<g id="node16" class="node"><title>Node16</title>
<g id="a_node16"><a xlink:href="classhandler_1_1AdminNick.html" target="_top" xlink:title="Changes the bot nick (IRC) ">
<polygon fill="none" stroke="black" points="468,-665.5 468,-684.5 570,-684.5 570,-665.5 468,-665.5"/>
<text text-anchor="middle" x="519" y="-672.5" font-family="Helvetica,sans-Serif" font-size="10.00">handler::AdminNick</text>
</a>
</g>
</g>
<!-- Node14&#45;&gt;Node16 -->
<g id="edge15" class="edge"><title>Node14&#45;&gt;Node16</title>
<path fill="none" stroke="midnightblue" d="M360.367,-466.388C369.578,-507.504 396.705,-603.937 457,-656 461.534,-659.915 466.869,-663.023 472.465,-665.491"/>
<polygon fill="midnightblue" stroke="midnightblue" points="363.778,-465.603 358.273,-456.55 356.931,-467.06 363.778,-465.603"/>
</g>
<!-- Node17 -->
<g id="node17" class="node"><title>Node17</title>
<g id="a_node17"><a xlink:href="classhandler_1_1AdminPart.html" target="_top" xlink:title="Makes the bot part channels (IRC) ">
<polygon fill="none" stroke="black" points="469,-627.5 469,-646.5 569,-646.5 569,-627.5 469,-627.5"/>
<text text-anchor="middle" x="519" y="-634.5" font-family="Helvetica,sans-Serif" font-size="10.00">handler::AdminPart</text>
</a>
</g>
</g>
<!-- Node14&#45;&gt;Node17 -->
<g id="edge16" class="edge"><title>Node14&#45;&gt;Node17</title>
<path fill="none" stroke="midnightblue" d="M362.64,-466.446C374.821,-501.881 405.417,-577.074 457,-618 461.866,-621.861 467.522,-624.942 473.39,-627.399"/>
<polygon fill="midnightblue" stroke="midnightblue" points="365.915,-465.2 359.448,-456.807 359.269,-467.401 365.915,-465.2"/>
</g>
<!-- Node18 -->
<g id="node18" class="node"><title>Node18</title>
<g id="a_node18"><a xlink:href="classhandler_1_1AdminQuit.html" target="_top" xlink:title="Quits the bot. ">
<polygon fill="none" stroke="black" points="469,-589.5 469,-608.5 569,-608.5 569,-589.5 469,-589.5"/>
<text text-anchor="middle" x="519" y="-596.5" font-family="Helvetica,sans-Serif" font-size="10.00">handler::AdminQuit</text>
</a>
</g>
</g>
<!-- Node14&#45;&gt;Node18 -->
<g id="edge17" class="edge"><title>Node14&#45;&gt;Node18</title>
<path fill="none" stroke="midnightblue" d="M365.693,-465.667C380.8,-494.436 413.586,-549.474 457,-580 462.535,-583.892 468.896,-587.008 475.374,-589.496"/>
<polygon fill="midnightblue" stroke="midnightblue" points="368.763,-463.983 361.098,-456.669 362.529,-467.167 368.763,-463.983"/>
</g>
<!-- Node19 -->
<g id="node19" class="node"><title>Node19</title>
<g id="a_node19"><a xlink:href="classhandler_1_1AdminRaw.html" target="_top" xlink:title="Makes the bot execute a raw command (IRC) ">
<polygon fill="none" stroke="black" points="468,-551.5 468,-570.5 570,-570.5 570,-551.5 468,-551.5"/>
<text text-anchor="middle" x="519" y="-558.5" font-family="Helvetica,sans-Serif" font-size="10.00">handler::AdminRaw</text>
</a>
</g>
</g>
<!-- Node14&#45;&gt;Node19 -->
<g id="edge18" class="edge"><title>Node14&#45;&gt;Node19</title>
<path fill="none" stroke="midnightblue" d="M370.541,-464.461C388.481,-485.679 421.488,-521.212 457,-542 463.509,-545.811 470.865,-548.937 478.157,-551.475"/>
<polygon fill="midnightblue" stroke="midnightblue" points="373.091,-462.052 364.017,-456.582 367.699,-466.517 373.091,-462.052"/>
</g>
<!-- Node20 -->
<g id="node20" class="node"><title>Node20</title>
<g id="a_node20"><a xlink:href="classhandler_1_1Echo.html" target="_top" xlink:title="Just repeat what it has been told. ">
<polygon fill="none" stroke="black" points="480.5,-513.5 480.5,-532.5 557.5,-532.5 557.5,-513.5 480.5,-513.5"/>
<text text-anchor="middle" x="519" y="-520.5" font-family="Helvetica,sans-Serif" font-size="10.00">handler::Echo</text>
</a>
</g>
</g>
<!-- Node14&#45;&gt;Node20 -->
<g id="edge19" class="edge"><title>Node14&#45;&gt;Node20</title>
<path fill="none" stroke="midnightblue" d="M379.639,-462.019C399.55,-474.474 429.354,-492.019 457,-504 465.142,-507.528 474.152,-510.707 482.693,-513.41"/>
<polygon fill="midnightblue" stroke="midnightblue" points="381.292,-458.922 370.971,-456.526 377.545,-464.835 381.292,-458.922"/>
</g>
<!-- Node21 -->
<g id="node21" class="node"><title>Node21</title>
<g id="a_node21"><a xlink:href="classhandler_1_1Help.html" target="_top" xlink:title="Handler showing help on the available handlers. ">
<polygon fill="none" stroke="black" points="482,-475.5 482,-494.5 556,-494.5 556,-475.5 482,-475.5"/>
<text text-anchor="middle" x="519" y="-482.5" font-family="Helvetica,sans-Serif" font-size="10.00">handler::Help</text>
</a>
</g>
</g>
<!-- Node14&#45;&gt;Node21 -->
<g id="edge20" class="edge"><title>Node14&#45;&gt;Node21</title>
<path fill="none" stroke="midnightblue" d="M407.023,-458.888C431.317,-464.604 459.876,-471.324 481.938,-476.515"/>
<polygon fill="midnightblue" stroke="midnightblue" points="407.789,-455.473 397.253,-456.589 406.186,-462.286 407.789,-455.473"/>
</g>
<!-- Node22 -->
<g id="node22" class="node"><title>Node22</title>
<g id="a_node22"><a xlink:href="classhandler_1_1License.html" target="_top" xlink:title="Handler showing licensing information. ">
<polygon fill="none" stroke="black" points="475,-437.5 475,-456.5 563,-456.5 563,-437.5 475,-437.5"/>
<text text-anchor="middle" x="519" y="-444.5" font-family="Helvetica,sans-Serif" font-size="10.00">handler::License</text>
</a>
</g>
</g>
<!-- Node14&#45;&gt;Node22 -->
<g id="edge21" class="edge"><title>Node14&#45;&gt;Node22</title>
<path fill="none" stroke="midnightblue" d="M421.966,-447C439.773,-447 458.61,-447 474.839,-447"/>
<polygon fill="midnightblue" stroke="midnightblue" points="421.627,-443.5 411.627,-447 421.627,-450.5 421.627,-443.5"/>
</g>
<!-- Node23 -->
<g id="node23" class="node"><title>Node23</title>
<g id="a_node23"><a xlink:href="classhandler_1_1ListClear.html" target="_top" xlink:title="Used by AbstractList to remove all elements. ">
<polygon fill="none" stroke="black" points="472.5,-399.5 472.5,-418.5 565.5,-418.5 565.5,-399.5 472.5,-399.5"/>
<text text-anchor="middle" x="519" y="-406.5" font-family="Helvetica,sans-Serif" font-size="10.00">handler::ListClear</text>
</a>
</g>
</g>
<!-- Node14&#45;&gt;Node23 -->
<g id="edge22" class="edge"><title>Node14&#45;&gt;Node23</title>
<path fill="none" stroke="midnightblue" d="M407.058,-435.104C429.759,-429.763 456.178,-423.546 477.54,-418.52"/>
<polygon fill="midnightblue" stroke="midnightblue" points="406.186,-431.714 397.253,-437.411 407.789,-438.527 406.186,-431.714"/>
</g>
<!-- Node24 -->
<g id="node24" class="node"><title>Node24</title>
<g id="a_node24"><a xlink:href="classhandler_1_1ListInsert.html" target="_top" xlink:title="Used by AbstractList to add elements. ">
<polygon fill="none" stroke="black" points="471.5,-361.5 471.5,-380.5 566.5,-380.5 566.5,-361.5 471.5,-361.5"/>
<text text-anchor="middle" x="519" y="-368.5" font-family="Helvetica,sans-Serif" font-size="10.00">handler::ListInsert</text>
</a>
</g>
</g>
<!-- Node14&#45;&gt;Node24 -->
<g id="edge23" class="edge"><title>Node14&#45;&gt;Node24</title>
<path fill="none" stroke="midnightblue" d="M410.103,-433.659C413.895,-431.979 417.57,-430.1 421,-428 440.84,-415.851 437.254,-402.302 457,-390 463.119,-386.187 470.064,-383.086 477.02,-380.58"/>
<polygon fill="midnightblue" stroke="midnightblue" points="408.533,-430.515 400.509,-437.434 411.096,-437.029 408.533,-430.515"/>
</g>
<!-- Node25 -->
<g id="node25" class="node"><title>Node25</title>
<g id="a_node25"><a xlink:href="classhandler_1_1ListRemove.html" target="_top" xlink:title="Used by AbstractList to remove elements. ">
<polygon fill="none" stroke="black" points="465.5,-323.5 465.5,-342.5 572.5,-342.5 572.5,-323.5 465.5,-323.5"/>
<text text-anchor="middle" x="519" y="-330.5" font-family="Helvetica,sans-Serif" font-size="10.00">handler::ListRemove</text>
</a>
</g>
</g>
<!-- Node14&#45;&gt;Node25 -->
<g id="edge24" class="edge"><title>Node14&#45;&gt;Node25</title>
<path fill="none" stroke="midnightblue" d="M414.667,-432.64C416.896,-431.235 419.02,-429.693 421,-428 449.406,-403.71 428.782,-376.509 457,-352 461.438,-348.145 466.654,-345.072 472.134,-342.622"/>
<polygon fill="midnightblue" stroke="midnightblue" points="412.846,-429.643 405.636,-437.405 416.113,-435.834 412.846,-429.643"/>
</g>
<!-- Node26 -->
<g id="node26" class="node"><title>Node26</title>
<g id="a_node26"><a xlink:href="classhandler_1_1Morse.html" target="_top" xlink:title="Handler translating between morse and latin. ">
<polygon fill="none" stroke="black" points="478.5,-285.5 478.5,-304.5 559.5,-304.5 559.5,-285.5 478.5,-285.5"/>
<text text-anchor="middle" x="519" y="-292.5" font-family="Helvetica,sans-Serif" font-size="10.00">handler::Morse</text>
</a>
</g>
</g>
<!-- Node14&#45;&gt;Node26 -->
<g id="edge25" class="edge"><title>Node14&#45;&gt;Node26</title>
<path fill="none" stroke="midnightblue" d="M416.304,-432.005C417.959,-430.773 419.531,-429.441 421,-428 458.933,-390.796 419.356,-351.497 457,-314 462.894,-308.129 470.57,-304.067 478.478,-301.259"/>
<polygon fill="midnightblue" stroke="midnightblue" points="414.186,-429.196 407.444,-437.368 417.811,-435.184 414.186,-429.196"/>
</g>
<!-- Node27 -->
<g id="node27" class="node"><title>Node27</title>
<g id="a_node27"><a xlink:href="classhandler_1_1RenderPony.html" target="_top" xlink:title="Draws a pretty My Little Pony ASCII art. ">
<polygon fill="none" stroke="black" points="465,-247.5 465,-266.5 573,-266.5 573,-247.5 465,-247.5"/>
<text text-anchor="middle" x="519" y="-254.5" font-family="Helvetica,sans-Serif" font-size="10.00">handler::RenderPony</text>
</a>
</g>
</g>
<!-- Node14&#45;&gt;Node27 -->
<g id="edge26" class="edge"><title>Node14&#45;&gt;Node27</title>
<path fill="none" stroke="midnightblue" d="M416.547,-432.061C418.124,-430.813 419.615,-429.462 421,-428 468.749,-377.604 409.642,-326.764 457,-276 460.632,-272.107 465.046,-269.006 469.822,-266.536"/>
<polygon fill="midnightblue" stroke="midnightblue" points="414.59,-429.158 408.045,-437.489 418.357,-435.058 414.59,-429.158"/>
</g>
<!-- Node28 -->
<g id="node28" class="node"><title>Node28</title>
<g id="a_node28"><a xlink:href="classhandler_1_1ReverseText.html" target="_top" xlink:title="Turns ASCII characters upside&#45;down. ">
<polygon fill="none" stroke="black" points="464,-209.5 464,-228.5 574,-228.5 574,-209.5 464,-209.5"/>
<text text-anchor="middle" x="519" y="-216.5" font-family="Helvetica,sans-Serif" font-size="10.00">handler::ReverseText</text>
</a>
</g>
</g>
<!-- Node14&#45;&gt;Node28 -->
<g id="edge27" class="edge"><title>Node14&#45;&gt;Node28</title>
<path fill="none" stroke="midnightblue" d="M417.112,-431.745C418.487,-430.585 419.788,-429.339 421,-428 478.685,-364.287 399.81,-302.157 457,-238 460.469,-234.108 464.72,-231.005 469.35,-228.532"/>
<polygon fill="midnightblue" stroke="midnightblue" points="414.895,-429.017 408.536,-437.491 418.792,-434.832 414.895,-429.017"/>
</g>
<!-- Node29 -->
<g id="node29" class="node"><title>Node29</title>
<g id="a_node29"><a xlink:href="classhandler_1_1SimpleGroup.html" target="_top" xlink:title="A simple group of actions which share some settings. ">
<polygon fill="none" stroke="black" points="464,-171.5 464,-190.5 574,-190.5 574,-171.5 464,-171.5"/>
<text text-anchor="middle" x="519" y="-178.5" font-family="Helvetica,sans-Serif" font-size="10.00">handler::SimpleGroup</text>
</a>
</g>
</g>
<!-- Node14&#45;&gt;Node29 -->
<g id="edge28" class="edge"><title>Node14&#45;&gt;Node29</title>
<path fill="none" stroke="midnightblue" d="M417.257,-431.715C418.583,-430.563 419.835,-429.327 421,-428 488.681,-350.905 389.918,-277.617 457,-200 460.336,-196.14 464.443,-193.053 468.936,-190.587"/>
<polygon fill="midnightblue" stroke="midnightblue" points="415.212,-428.874 408.967,-437.432 419.186,-434.637 415.212,-428.874"/>
</g>
<!-- Node32 -->
<g id="node32" class="node"><title>Node32</title>
<g id="a_node32"><a xlink:href="classhandler_1_1SimpleWebApi.html" target="_top" xlink:title="Simple base class for handlers calling web resources. ">
<polygon fill="none" stroke="black" points="459.5,-133.5 459.5,-152.5 578.5,-152.5 578.5,-133.5 459.5,-133.5"/>
<text text-anchor="middle" x="519" y="-140.5" font-family="Helvetica,sans-Serif" font-size="10.00">handler::SimpleWebApi</text>
</a>
</g>
</g>
<!-- Node14&#45;&gt;Node32 -->
<g id="edge31" class="edge"><title>Node14&#45;&gt;Node32</title>
<path fill="none" stroke="midnightblue" d="M417.733,-431.357C418.886,-430.308 419.978,-429.19 421,-428 498.712,-337.483 379.991,-253.116 457,-162 460.294,-158.103 464.373,-154.993 468.85,-152.513"/>
<polygon fill="midnightblue" stroke="midnightblue" points="415.464,-428.677 409.361,-437.338 419.533,-434.373 415.464,-428.677"/>
</g>
<!-- Node39 -->
<g id="node39" class="node"><title>Node39</title>
<g id="a_node39"><a xlink:href="classhandler_1_1WhoisCheckMe.html" target="_top" xlink:title="Sends a WHOIS about the message sender. ">
<polygon fill="none" stroke="black" points="457,-95.5 457,-114.5 581,-114.5 581,-95.5 457,-95.5"/>
<text text-anchor="middle" x="519" y="-102.5" font-family="Helvetica,sans-Serif" font-size="10.00">handler::WhoisCheckMe</text>
</a>
</g>
</g>
<!-- Node14&#45;&gt;Node39 -->
<g id="edge38" class="edge"><title>Node14&#45;&gt;Node39</title>
<path fill="none" stroke="midnightblue" d="M417.76,-431.38C418.905,-430.324 419.988,-429.199 421,-428 508.763,-324.036 370.044,-228.641 457,-124 460.19,-120.161 464.144,-117.085 468.493,-114.621"/>
<polygon fill="midnightblue" stroke="midnightblue" points="415.488,-428.704 409.427,-437.394 419.584,-434.38 415.488,-428.704"/>
</g>
<!-- Node30 -->
<g id="node30" class="node"><title>Node30</title>
<g id="a_node30"><a xlink:href="classhandler_1_1AbstractList.html" target="_top" xlink:title="Handles a list of elements (base class) ">
<polygon fill="none" stroke="black" points="617,-171.5 617,-190.5 724,-190.5 724,-171.5 617,-171.5"/>
<text text-anchor="middle" x="670.5" y="-178.5" font-family="Helvetica,sans-Serif" font-size="10.00">handler::AbstractList</text>
</a>
</g>
</g>
<!-- Node29&#45;&gt;Node30 -->
<g id="edge29" class="edge"><title>Node29&#45;&gt;Node30</title>
<path fill="none" stroke="midnightblue" d="M584.613,-181C595.393,-181 606.459,-181 616.892,-181"/>
<polygon fill="midnightblue" stroke="midnightblue" points="584.396,-177.5 574.396,-181 584.396,-184.5 584.396,-177.5"/>
</g>
<!-- Node31 -->
<g id="node31" class="node"><title>Node31</title>
<g id="a_node31"><a xlink:href="classhandler_1_1AdminGroup.html" target="_top" xlink:title="Manages a user group. ">
<polygon fill="none" stroke="black" points="779,-190.5 779,-209.5 887,-209.5 887,-190.5 779,-190.5"/>
<text text-anchor="middle" x="833" y="-197.5" font-family="Helvetica,sans-Serif" font-size="10.00">handler::AdminGroup</text>
</a>
</g>
</g>
<!-- Node30&#45;&gt;Node31 -->
<g id="edge30" class="edge"><title>Node30&#45;&gt;Node31</title>
<path fill="none" stroke="midnightblue" d="M734.114,-188.412C748.876,-190.16 764.476,-192.006 778.779,-193.7"/>
<polygon fill="midnightblue" stroke="midnightblue" points="734.396,-184.921 724.054,-187.221 733.573,-191.873 734.396,-184.921"/>
</g>
<!-- Node33 -->
<g id="node33" class="node"><title>Node33</title>
<g id="a_node33"><a xlink:href="classhandler_1_1SimpleJson.html" target="_top" xlink:title="Simple base class for handlers using AJAX web APIs. ">
<polygon fill="none" stroke="black" points="618,-95.5 618,-114.5 723,-114.5 723,-95.5 618,-95.5"/>
<text text-anchor="middle" x="670.5" y="-102.5" font-family="Helvetica,sans-Serif" font-size="10.00">handler::SimpleJson</text>
</a>
</g>
</g>
<!-- Node32&#45;&gt;Node33 -->
<g id="edge32" class="edge"><title>Node32&#45;&gt;Node33</title>
<path fill="none" stroke="midnightblue" d="M567.652,-130.888C588.473,-125.596 612.538,-119.479 632.046,-114.52"/>
<polygon fill="midnightblue" stroke="midnightblue" points="566.555,-127.555 557.725,-133.411 568.279,-134.34 566.555,-127.555"/>
</g>
<!-- Node34 -->
<g id="node34" class="node"><title>Node34</title>
<g id="a_node34"><a xlink:href="classhandler_1_1ChuckNorris.html" target="_top" xlink:title="Searches for a Chuck Norris joke. ">
<polygon fill="none" stroke="black" points="778.5,-152.5 778.5,-171.5 887.5,-171.5 887.5,-152.5 778.5,-152.5"/>
<text text-anchor="middle" x="833" y="-159.5" font-family="Helvetica,sans-Serif" font-size="10.00">handler::ChuckNorris</text>
</a>
</g>
</g>
<!-- Node33&#45;&gt;Node34 -->
<g id="edge33" class="edge"><title>Node33&#45;&gt;Node34</title>
<path fill="none" stroke="midnightblue" d="M700.949,-118.942C717.963,-126.667 739.913,-136.079 760,-143 770.145,-146.495 781.28,-149.721 791.697,-152.485"/>
<polygon fill="midnightblue" stroke="midnightblue" points="702.101,-115.619 691.553,-114.62 699.175,-121.979 702.101,-115.619"/>
</g>
<!-- Node35 -->
<g id="node35" class="node"><title>Node35</title>
<g id="a_node35"><a xlink:href="classhandler_1_1SearchImageGoogle.html" target="_top" xlink:title="Handler searching images with Google. ">
<polygon fill="none" stroke="black" points="761.5,-114.5 761.5,-133.5 904.5,-133.5 904.5,-114.5 761.5,-114.5"/>
<text text-anchor="middle" x="833" y="-121.5" font-family="Helvetica,sans-Serif" font-size="10.00">handler::SearchImageGoogle</text>
</a>
</g>
</g>
<!-- Node33&#45;&gt;Node35 -->
<g id="edge34" class="edge"><title>Node33&#45;&gt;Node35</title>
<path fill="none" stroke="midnightblue" d="M733.364,-112.323C742.548,-113.411 752.072,-114.538 761.418,-115.645"/>
<polygon fill="midnightblue" stroke="midnightblue" points="733.509,-108.816 723.167,-111.116 732.686,-115.768 733.509,-108.816"/>
</g>
<!-- Node36 -->
<g id="node36" class="node"><title>Node36</title>
<g id="a_node36"><a xlink:href="classhandler_1_1SearchVideoYoutube.html" target="_top" xlink:title="Handler searching a video on Youtube. ">
<polygon fill="none" stroke="black" points="760,-76.5 760,-95.5 906,-95.5 906,-76.5 760,-76.5"/>
<text text-anchor="middle" x="833" y="-83.5" font-family="Helvetica,sans-Serif" font-size="10.00">handler::SearchVideoYoutube</text>
</a>
</g>
</g>
<!-- Node33&#45;&gt;Node36 -->
<g id="edge35" class="edge"><title>Node33&#45;&gt;Node36</title>
<path fill="none" stroke="midnightblue" d="M733.259,-97.6889C742.001,-96.6541 751.052,-95.5827 759.966,-94.5274"/>
<polygon fill="midnightblue" stroke="midnightblue" points="732.686,-94.2323 723.167,-98.8837 733.509,-101.184 732.686,-94.2323"/>
</g>
<!-- Node37 -->
<g id="node37" class="node"><title>Node37</title>
<g id="a_node37"><a xlink:href="classhandler_1_1SearchWebSearx.html" target="_top" xlink:title="Handler searching a web page using Searx. ">
<polygon fill="none" stroke="black" points="767.5,-38.5 767.5,-57.5 898.5,-57.5 898.5,-38.5 767.5,-38.5"/>
<text text-anchor="middle" x="833" y="-45.5" font-family="Helvetica,sans-Serif" font-size="10.00">handler::SearchWebSearx</text>
</a>
</g>
</g>
<!-- Node33&#45;&gt;Node37 -->
<g id="edge36" class="edge"><title>Node33&#45;&gt;Node37</title>
<path fill="none" stroke="midnightblue" d="M700.949,-91.0581C717.963,-83.3327 739.913,-73.9207 760,-67 770.145,-63.5048 781.28,-60.2788 791.697,-57.5148"/>
<polygon fill="midnightblue" stroke="midnightblue" points="699.175,-88.0214 691.553,-95.3802 702.101,-94.3809 699.175,-88.0214"/>
</g>
<!-- Node38 -->
<g id="node38" class="node"><title>Node38</title>
<g id="a_node38"><a xlink:href="classhandler_1_1UrbanDictionary.html" target="_top" xlink:title="Handler searching a definition on Urban Dictionary. ">
<polygon fill="none" stroke="black" points="770.5,-0.5 770.5,-19.5 895.5,-19.5 895.5,-0.5 770.5,-0.5"/>
<text text-anchor="middle" x="833" y="-7.5" font-family="Helvetica,sans-Serif" font-size="10.00">handler::UrbanDictionary</text>
</a>
</g>
</g>
<!-- Node33&#45;&gt;Node38 -->
<g id="edge37" class="edge"><title>Node33&#45;&gt;Node38</title>
<path fill="none" stroke="midnightblue" d="M687.183,-87.5395C703.675,-70.2196 731.189,-44.1383 760,-29 767.324,-25.1516 775.487,-22.0399 783.61,-19.537"/>
<polygon fill="midnightblue" stroke="midnightblue" points="684.259,-85.5442 680.015,-95.2519 689.387,-90.3097 684.259,-85.5442"/>
</g>
</g>
</svg>
