<?xml version="1.0" encoding="UTF-8" standalone="no"?>
<!DOCTYPE svg PUBLIC "-//W3C//DTD SVG 1.1//EN"
 "http://www.w3.org/Graphics/SVG/1.1/DTD/svg11.dtd">
<!-- Generated by graphviz version 2.38.0 (20140413.2041)
 -->
<!-- Title: handler::SimpleJson Pages: 1 -->
<svg width="145pt" height="423pt"
 viewBox="0.00 0.00 145.00 423.00" xmlns="http://www.w3.org/2000/svg" xmlns:xlink="http://www.w3.org/1999/xlink">
<g id="graph0" class="graph" transform="scale(1 1) rotate(0) translate(4 419)">
<title>handler::SimpleJson</title>
<!-- Node1 -->
<g id="node1" class="node"><title>Node1</title>
<polygon fill="#bfbfbf" stroke="black" points="16,-0.5 16,-19.5 121,-19.5 121,-0.5 16,-0.5"/>
<text text-anchor="middle" x="68.5" y="-7.5" font-family="Helvetica,sans-Serif" font-size="10.00">handler::SimpleJson</text>
</g>
<!-- Node2 -->
<g id="node2" class="node"><title>Node2</title>
<g id="a_node2"><a xlink:href="classhandler_1_1SimpleWebApi.html" target="_top" xlink:title="Simple base class for handlers calling web resources. ">
<polygon fill="none" stroke="black" points="9,-57.5 9,-76.5 128,-76.5 128,-57.5 9,-57.5"/>
<text text-anchor="middle" x="68.5" y="-64.5" font-family="Helvetica,sans-Serif" font-size="10.00">handler::SimpleWebApi</text>
</a>
</g>
</g>
<!-- Node2&#45;&gt;Node1 -->
<g id="edge1" class="edge"><title>Node2&#45;&gt;Node1</title>
<path fill="none" stroke="midnightblue" d="M68.5,-47.1166C68.5,-37.8173 68.5,-27.0557 68.5,-19.7149"/>
<polygon fill="midnightblue" stroke="midnightblue" points="65.0001,-47.4062 68.5,-57.4062 72.0001,-47.4063 65.0001,-47.4062"/>
</g>
<!-- Node3 -->
<g id="node3" class="node"><title>Node3</title>
<g id="a_node3"><a xlink:href="classhandler_1_1SimpleAction.html" target="_top" xlink:title="A simple action sends a message to the same connection it came from. ">
<polygon fill="none" stroke="black" points="12.5,-114.5 12.5,-133.5 124.5,-133.5 124.5,-114.5 12.5,-114.5"/>
<text text-anchor="middle" x="68.5" y="-121.5" font-family="Helvetica,sans-Serif" font-size="10.00">handler::SimpleAction</text>
</a>
</g>
</g>
<!-- Node3&#45;&gt;Node2 -->
<g id="edge2" class="edge"><title>Node3&#45;&gt;Node2</title>
<path fill="none" stroke="midnightblue" d="M68.5,-104.117C68.5,-94.8173 68.5,-84.0557 68.5,-76.7149"/>
<polygon fill="midnightblue" stroke="midnightblue" points="65.0001,-104.406 68.5,-114.406 72.0001,-104.406 65.0001,-104.406"/>
</g>
<!-- Node4 -->
<g id="node4" class="node"><title>Node4</title>
<g id="a_node4"><a xlink:href="classhandler_1_1Handler.html" target="_top" xlink:title="Message handler abstract base class. ">
<polygon fill="none" stroke="black" points="24.5,-171.5 24.5,-190.5 112.5,-190.5 112.5,-171.5 24.5,-171.5"/>
<text text-anchor="middle" x="68.5" y="-178.5" font-family="Helvetica,sans-Serif" font-size="10.00">handler::Handler</text>
</a>
</g>
</g>
<!-- Node4&#45;&gt;Node3 -->
<g id="edge3" class="edge"><title>Node4&#45;&gt;Node3</title>
<path fill="none" stroke="midnightblue" d="M68.5,-161.117C68.5,-151.817 68.5,-141.056 68.5,-133.715"/>
<polygon fill="midnightblue" stroke="midnightblue" points="65.0001,-161.406 68.5,-171.406 72.0001,-161.406 65.0001,-161.406"/>
</g>
<!-- Node5 -->
<g id="node5" class="node"><title>Node5</title>
<g id="a_node5"><a xlink:href="classMelanobot.html" target="_top" xlink:title="Main bot class. ">
<polygon fill="none" stroke="black" points="37.5,-238.5 37.5,-257.5 99.5,-257.5 99.5,-238.5 37.5,-238.5"/>
<text text-anchor="middle" x="68.5" y="-245.5" font-family="Helvetica,sans-Serif" font-size="10.00">Melanobot</text>
</a>
</g>
</g>
<!-- Node5&#45;&gt;Node4 -->
<g id="edge4" class="edge"><title>Node5&#45;&gt;Node4</title>
<path fill="none" stroke="#9a32cd" stroke-dasharray="5,2" d="M68.5,-228.037C68.5,-215.67 68.5,-200.12 68.5,-190.627"/>
<polygon fill="#9a32cd" stroke="#9a32cd" points="65.0001,-228.234 68.5,-238.234 72.0001,-228.234 65.0001,-228.234"/>
<text text-anchor="middle" x="77" y="-212" font-family="Helvetica,sans-Serif" font-size="10.00"> bot</text>
</g>
<!-- Node6 -->
<g id="node6" class="node"><title>Node6</title>
<g id="a_node6"><a xlink:href="classConcurrentQueue.html" target="_top" xlink:title="ConcurrentQueue\&lt; network\l::Message \&gt;">
<polygon fill="none" stroke="black" points="0,-305.5 0,-335.5 137,-335.5 137,-305.5 0,-305.5"/>
<text text-anchor="start" x="8" y="-323.5" font-family="Helvetica,sans-Serif" font-size="10.00">ConcurrentQueue&lt; network</text>
<text text-anchor="middle" x="68.5" y="-312.5" font-family="Helvetica,sans-Serif" font-size="10.00">::Message &gt;</text>
</a>
</g>
</g>
<!-- Node6&#45;&gt;Node5 -->
<g id="edge5" class="edge"><title>Node6&#45;&gt;Node5</title>
<path fill="none" stroke="#9a32cd" stroke-dasharray="5,2" d="M68.5,-295.091C68.5,-282.214 68.5,-267.197 68.5,-257.893"/>
<polygon fill="#9a32cd" stroke="#9a32cd" points="65.0001,-295.233 68.5,-305.233 72.0001,-295.233 65.0001,-295.233"/>
<text text-anchor="middle" x="93" y="-279" font-family="Helvetica,sans-Serif" font-size="10.00"> messages</text>
</g>
<!-- Node7 -->
<g id="node7" class="node"><title>Node7</title>
<g id="a_node7"><a xlink:href="classConcurrentContainer.html" target="_top" xlink:title="ConcurrentContainer\l\&lt; std::queue\&lt; network\l::Message, Container \&gt; \&gt;">
<polygon fill="none" stroke="black" points="4.5,-373.5 4.5,-414.5 132.5,-414.5 132.5,-373.5 4.5,-373.5"/>
<text text-anchor="start" x="12.5" y="-402.5" font-family="Helvetica,sans-Serif" font-size="10.00">ConcurrentContainer</text>
<text text-anchor="start" x="12.5" y="-391.5" font-family="Helvetica,sans-Serif" font-size="10.00">&lt; std::queue&lt; network</text>
<text text-anchor="middle" x="68.5" y="-380.5" font-family="Helvetica,sans-Serif" font-size="10.00">::Message, Container &gt; &gt;</text>
</a>
</g>
</g>
<!-- Node7&#45;&gt;Node6 -->
<g id="edge6" class="edge"><title>Node7&#45;&gt;Node6</title>
<path fill="none" stroke="midnightblue" d="M68.5,-363.158C68.5,-353.687 68.5,-343.647 68.5,-335.797"/>
<polygon fill="midnightblue" stroke="midnightblue" points="65.0001,-363.462 68.5,-373.462 72.0001,-363.462 65.0001,-363.462"/>
</g>
</g>
</svg>
