<?xml version="1.0" encoding="UTF-8" standalone="no"?>
<!DOCTYPE svg PUBLIC "-//W3C//DTD SVG 1.1//EN"
 "http://www.w3.org/Graphics/SVG/1.1/DTD/svg11.dtd">
<!-- Generated by graphviz version 2.38.0 (20140413.2041)
 -->
<!-- Title: handler::SimpleJson Pages: 1 -->
<svg width="245pt" height="433pt"
 viewBox="0.00 0.00 245.00 433.00" xmlns="http://www.w3.org/2000/svg" xmlns:xlink="http://www.w3.org/1999/xlink">
<g id="graph0" class="graph" transform="scale(1 1) rotate(0) translate(4 429)">
<title>handler::SimpleJson</title>
<!-- Node1 -->
<g id="node1" class="node"><title>Node1</title>
<polygon fill="#bfbfbf" stroke="black" points="102,-0.5 102,-19.5 207,-19.5 207,-0.5 102,-0.5"/>
<text text-anchor="middle" x="154.5" y="-7.5" font-family="Helvetica,sans-Serif" font-size="10.00">handler::SimpleJson</text>
</g>
<!-- Node2 -->
<g id="node2" class="node"><title>Node2</title>
<g id="a_node2"><a xlink:href="classhandler_1_1SimpleWebApi.html" target="_top" xlink:title="Simple base class for handlers calling web resources. ">
<polygon fill="none" stroke="black" points="95,-57.5 95,-76.5 214,-76.5 214,-57.5 95,-57.5"/>
<text text-anchor="middle" x="154.5" y="-64.5" font-family="Helvetica,sans-Serif" font-size="10.00">handler::SimpleWebApi</text>
</a>
</g>
</g>
<!-- Node2&#45;&gt;Node1 -->
<g id="edge1" class="edge"><title>Node2&#45;&gt;Node1</title>
<path fill="none" stroke="midnightblue" d="M154.5,-47.1166C154.5,-37.8173 154.5,-27.0557 154.5,-19.7149"/>
<polygon fill="midnightblue" stroke="midnightblue" points="151,-47.4062 154.5,-57.4062 158,-47.4063 151,-47.4062"/>
</g>
<!-- Node3 -->
<g id="node3" class="node"><title>Node3</title>
<g id="a_node3"><a xlink:href="classhandler_1_1SimpleAction.html" target="_top" xlink:title="A simple action sends a message to the same connection it came from. ">
<polygon fill="none" stroke="black" points="98.5,-114.5 98.5,-133.5 210.5,-133.5 210.5,-114.5 98.5,-114.5"/>
<text text-anchor="middle" x="154.5" y="-121.5" font-family="Helvetica,sans-Serif" font-size="10.00">handler::SimpleAction</text>
</a>
</g>
</g>
<!-- Node3&#45;&gt;Node2 -->
<g id="edge2" class="edge"><title>Node3&#45;&gt;Node2</title>
<path fill="none" stroke="midnightblue" d="M154.5,-104.117C154.5,-94.8173 154.5,-84.0557 154.5,-76.7149"/>
<polygon fill="midnightblue" stroke="midnightblue" points="151,-104.406 154.5,-114.406 158,-104.406 151,-104.406"/>
</g>
<!-- Node4 -->
<g id="node4" class="node"><title>Node4</title>
<g id="a_node4"><a xlink:href="classhandler_1_1Handler.html" target="_top" xlink:title="Message handler abstract base class. ">
<polygon fill="none" stroke="black" points="24.5,-181.5 24.5,-200.5 112.5,-200.5 112.5,-181.5 24.5,-181.5"/>
<text text-anchor="middle" x="68.5" y="-188.5" font-family="Helvetica,sans-Serif" font-size="10.00">handler::Handler</text>
</a>
</g>
</g>
<!-- Node4&#45;&gt;Node3 -->
<g id="edge3" class="edge"><title>Node4&#45;&gt;Node3</title>
<path fill="none" stroke="midnightblue" d="M88.2564,-175.068C105.232,-162.238 129.116,-144.185 143.085,-133.627"/>
<polygon fill="midnightblue" stroke="midnightblue" points="85.9657,-172.412 80.0983,-181.234 90.1864,-177.996 85.9657,-172.412"/>
</g>
<!-- Node5 -->
<g id="node5" class="node"><title>Node5</title>
<g id="a_node5"><a xlink:href="classMelanobot.html" target="_top" xlink:title="Main bot class. ">
<polygon fill="none" stroke="black" points="37.5,-248.5 37.5,-267.5 99.5,-267.5 99.5,-248.5 37.5,-248.5"/>
<text text-anchor="middle" x="68.5" y="-255.5" font-family="Helvetica,sans-Serif" font-size="10.00">Melanobot</text>
</a>
</g>
</g>
<!-- Node5&#45;&gt;Node4 -->
<g id="edge4" class="edge"><title>Node5&#45;&gt;Node4</title>
<path fill="none" stroke="#9a32cd" stroke-dasharray="5,2" d="M68.5,-238.037C68.5,-225.67 68.5,-210.12 68.5,-200.627"/>
<polygon fill="#9a32cd" stroke="#9a32cd" points="65.0001,-238.234 68.5,-248.234 72.0001,-238.234 65.0001,-238.234"/>
<text text-anchor="middle" x="77" y="-222" font-family="Helvetica,sans-Serif" font-size="10.00"> bot</text>
</g>
<!-- Node6 -->
<g id="node6" class="node"><title>Node6</title>
<g id="a_node6"><a xlink:href="classConcurrentQueue.html" target="_top" xlink:title="ConcurrentQueue\&lt; network\l::Message \&gt;">
<polygon fill="none" stroke="black" points="0,-315.5 0,-345.5 137,-345.5 137,-315.5 0,-315.5"/>
<text text-anchor="start" x="8" y="-333.5" font-family="Helvetica,sans-Serif" font-size="10.00">ConcurrentQueue&lt; network</text>
<text text-anchor="middle" x="68.5" y="-322.5" font-family="Helvetica,sans-Serif" font-size="10.00">::Message &gt;</text>
</a>
</g>
</g>
<!-- Node6&#45;&gt;Node5 -->
<g id="edge5" class="edge"><title>Node6&#45;&gt;Node5</title>
<path fill="none" stroke="#9a32cd" stroke-dasharray="5,2" d="M68.5,-305.091C68.5,-292.214 68.5,-277.197 68.5,-267.893"/>
<polygon fill="#9a32cd" stroke="#9a32cd" points="65.0001,-305.233 68.5,-315.233 72.0001,-305.233 65.0001,-305.233"/>
<text text-anchor="middle" x="93" y="-289" font-family="Helvetica,sans-Serif" font-size="10.00"> messages</text>
</g>
<!-- Node7 -->
<g id="node7" class="node"><title>Node7</title>
<g id="a_node7"><a xlink:href="classConcurrentContainer.html" target="_top" xlink:title="ConcurrentContainer\l\&lt; std::queue\&lt; network\l::Message, Container \&gt; \&gt;">
<polygon fill="none" stroke="black" points="4.5,-383.5 4.5,-424.5 132.5,-424.5 132.5,-383.5 4.5,-383.5"/>
<text text-anchor="start" x="12.5" y="-412.5" font-family="Helvetica,sans-Serif" font-size="10.00">ConcurrentContainer</text>
<text text-anchor="start" x="12.5" y="-401.5" font-family="Helvetica,sans-Serif" font-size="10.00">&lt; std::queue&lt; network</text>
<text text-anchor="middle" x="68.5" y="-390.5" font-family="Helvetica,sans-Serif" font-size="10.00">::Message, Container &gt; &gt;</text>
</a>
</g>
</g>
<!-- Node7&#45;&gt;Node6 -->
<g id="edge6" class="edge"><title>Node7&#45;&gt;Node6</title>
<path fill="none" stroke="midnightblue" d="M68.5,-373.158C68.5,-363.687 68.5,-353.647 68.5,-345.797"/>
<polygon fill="midnightblue" stroke="midnightblue" points="65.0001,-373.462 68.5,-383.462 72.0001,-373.462 65.0001,-373.462"/>
</g>
<!-- Node8 -->
<g id="node8" class="node"><title>Node8</title>
<g id="a_node8"><a xlink:href="classnetwork_1_1Connection.html" target="_top" xlink:title="Abstract service connection. ">
<polygon fill="none" stroke="black" points="130,-181.5 130,-200.5 237,-200.5 237,-181.5 130,-181.5"/>
<text text-anchor="middle" x="183.5" y="-188.5" font-family="Helvetica,sans-Serif" font-size="10.00">network::Connection</text>
</a>
</g>
</g>
<!-- Node8&#45;&gt;Node3 -->
<g id="edge7" class="edge"><title>Node8&#45;&gt;Node3</title>
<path fill="none" stroke="#9a32cd" stroke-dasharray="5,2" d="M175.376,-171.79C169.806,-159.308 162.671,-143.314 158.349,-133.627"/>
<polygon fill="#9a32cd" stroke="#9a32cd" points="172.318,-173.528 179.589,-181.234 178.711,-170.675 172.318,-173.528"/>
<text text-anchor="middle" x="187" y="-155" font-family="Helvetica,sans-Serif" font-size="10.00"> source</text>
</g>
</g>
</svg>
