<?xml version="1.0" encoding="UTF-8" standalone="no"?>
<!DOCTYPE svg PUBLIC "-//W3C//DTD SVG 1.1//EN"
 "http://www.w3.org/Graphics/SVG/1.1/DTD/svg11.dtd">
<!-- Generated by graphviz version 2.38.0 (20140413.2041)
 -->
<!-- Title: string::Formatter Pages: 1 -->
<svg width="362pt" height="140pt"
 viewBox="0.00 0.00 362.00 140.00" xmlns="http://www.w3.org/2000/svg" xmlns:xlink="http://www.w3.org/1999/xlink">
<g id="graph0" class="graph" transform="scale(1 1) rotate(0) translate(4 136)">
<title>string::Formatter</title>
<!-- Node1 -->
<g id="node1" class="node"><title>Node1</title>
<polygon fill="#bfbfbf" stroke="black" points="196.5,-112.5 196.5,-131.5 285.5,-131.5 285.5,-112.5 196.5,-112.5"/>
<text text-anchor="middle" x="241" y="-119.5" font-family="Helvetica,sans-Serif" font-size="10.00">string::Formatter</text>
</g>
<!-- Node2 -->
<g id="node2" class="node"><title>Node2</title>
<g id="a_node2"><a xlink:href="classstring_1_1FormatterUtf8.html" target="_top" xlink:title="Plain UTF&#45;8. ">
<polygon fill="none" stroke="black" points="127.5,-56.5 127.5,-75.5 234.5,-75.5 234.5,-56.5 127.5,-56.5"/>
<text text-anchor="middle" x="181" y="-63.5" font-family="Helvetica,sans-Serif" font-size="10.00">string::FormatterUtf8</text>
</a>
</g>
</g>
<!-- Node1&#45;&gt;Node2 -->
<g id="edge1" class="edge"><title>Node1&#45;&gt;Node2</title>
<path fill="none" stroke="midnightblue" d="M223.819,-105.537C213.121,-95.9087 199.744,-83.8694 190.815,-75.8339"/>
<polygon fill="midnightblue" stroke="midnightblue" points="221.586,-108.236 231.36,-112.324 226.268,-103.033 221.586,-108.236"/>
</g>
<!-- Node6 -->
<g id="node6" class="node"><title>Node6</title>
<g id="a_node6"><a xlink:href="classxonotic_1_1Formatter.html" target="_top" xlink:title="Darkplaces UTF&#45;8. ">
<polygon fill="none" stroke="black" points="253,-56.5 253,-75.5 349,-75.5 349,-56.5 253,-56.5"/>
<text text-anchor="middle" x="301" y="-63.5" font-family="Helvetica,sans-Serif" font-size="10.00">xonotic::Formatter</text>
</a>
</g>
</g>
<!-- Node1&#45;&gt;Node6 -->
<g id="edge5" class="edge"><title>Node1&#45;&gt;Node6</title>
<path fill="none" stroke="midnightblue" d="M258.181,-105.537C268.879,-95.9087 282.256,-83.8694 291.185,-75.8339"/>
<polygon fill="midnightblue" stroke="midnightblue" points="255.732,-103.033 250.64,-112.324 260.414,-108.236 255.732,-103.033"/>
</g>
<!-- Node3 -->
<g id="node3" class="node"><title>Node3</title>
<g id="a_node3"><a xlink:href="classstring_1_1FormatterAnsi.html" target="_top" xlink:title="ANSI&#45;formatted UTF&#45;8 or ASCII. ">
<polygon fill="none" stroke="black" points="0,-0.5 0,-19.5 108,-19.5 108,-0.5 0,-0.5"/>
<text text-anchor="middle" x="54" y="-7.5" font-family="Helvetica,sans-Serif" font-size="10.00">string::FormatterAnsi</text>
</a>
</g>
</g>
<!-- Node2&#45;&gt;Node3 -->
<g id="edge2" class="edge"><title>Node2&#45;&gt;Node3</title>
<path fill="none" stroke="midnightblue" d="M151.609,-52.503C127.8,-42.3795 94.894,-28.388 74.0294,-19.5164"/>
<polygon fill="midnightblue" stroke="midnightblue" points="150.304,-55.7515 160.876,-56.4435 153.043,-49.3096 150.304,-55.7515"/>
</g>
<!-- Node4 -->
<g id="node4" class="node"><title>Node4</title>
<g id="a_node4"><a xlink:href="classstring_1_1FormatterAscii.html" target="_top" xlink:title="Plain ASCII. ">
<polygon fill="none" stroke="black" points="126,-0.5 126,-19.5 236,-19.5 236,-0.5 126,-0.5"/>
<text text-anchor="middle" x="181" y="-7.5" font-family="Helvetica,sans-Serif" font-size="10.00">string::FormatterAscii</text>
</a>
</g>
</g>
<!-- Node2&#45;&gt;Node4 -->
<g id="edge3" class="edge"><title>Node2&#45;&gt;Node4</title>
<path fill="none" stroke="midnightblue" d="M181,-45.8045C181,-36.9102 181,-26.7798 181,-19.7511"/>
<polygon fill="midnightblue" stroke="midnightblue" points="177.5,-46.083 181,-56.083 184.5,-46.083 177.5,-46.083"/>
</g>
<!-- Node5 -->
<g id="node5" class="node"><title>Node5</title>
<g id="a_node5"><a xlink:href="classstring_1_1FormatterIrc.html" target="_top" xlink:title="UTF&#45;8 with IRC colors. ">
<polygon fill="none" stroke="black" points="254,-0.5 254,-19.5 354,-19.5 354,-0.5 254,-0.5"/>
<text text-anchor="middle" x="304" y="-7.5" font-family="Helvetica,sans-Serif" font-size="10.00">string::FormatterIrc</text>
</a>
</g>
</g>
<!-- Node2&#45;&gt;Node5 -->
<g id="edge4" class="edge"><title>Node2&#45;&gt;Node5</title>
<path fill="none" stroke="midnightblue" d="M209.773,-52.3678C232.807,-42.2553 264.484,-28.3486 284.601,-19.5164"/>
<polygon fill="midnightblue" stroke="midnightblue" points="208.239,-49.2188 200.49,-56.4435 211.053,-55.6283 208.239,-49.2188"/>
</g>
</g>
</svg>
