<?xml version="1.0" encoding="UTF-8" standalone="no"?>
<!DOCTYPE svg PUBLIC "-//W3C//DTD SVG 1.1//EN"
 "http://www.w3.org/Graphics/SVG/1.1/DTD/svg11.dtd">
<!-- Generated by graphviz version 2.38.0 (20140413.2041)
 -->
<!-- Title: handler::Handler Pages: 1 -->
<svg width="621pt" height="1244pt"
 viewBox="0.00 0.00 621.00 1244.00" xmlns="http://www.w3.org/2000/svg" xmlns:xlink="http://www.w3.org/1999/xlink">
<g id="graph0" class="graph" transform="scale(1 1) rotate(0) translate(4 1240)">
<title>handler::Handler</title>
<!-- Node1 -->
<g id="node1" class="node"><title>Node1</title>
<polygon fill="#bfbfbf" stroke="black" points="166,-380.5 166,-399.5 254,-399.5 254,-380.5 166,-380.5"/>
<text text-anchor="middle" x="210" y="-387.5" font-family="Helvetica,sans-Serif" font-size="10.00">handler::Handler</text>
</g>
<!-- Node3 -->
<g id="node3" class="node"><title>Node3</title>
<g id="a_node3"><a xlink:href="classfun_1_1AnswerQuestions.html" target="_top" xlink:title="Answers direct questions. ">
<polygon fill="none" stroke="black" points="304,-798.5 304,-817.5 417,-817.5 417,-798.5 304,-798.5"/>
<text text-anchor="middle" x="360.5" y="-805.5" font-family="Helvetica,sans-Serif" font-size="10.00">fun::AnswerQuestions</text>
</a>
</g>
</g>
<!-- Node1&#45;&gt;Node3 -->
<g id="edge2" class="edge"><title>Node1&#45;&gt;Node3</title>
<path fill="none" stroke="midnightblue" d="M212.217,-409.72C217.082,-482.203 237.473,-732.583 290,-789 293.921,-793.211 298.677,-796.523 303.841,-799.121"/>
<polygon fill="midnightblue" stroke="midnightblue" points="215.705,-409.425 211.567,-399.672 208.72,-409.877 215.705,-409.425"/>
</g>
<!-- Node4 -->
<g id="node4" class="node"><title>Node4</title>
<g id="a_node4"><a xlink:href="classhandler_1_1BridgeChat.html" target="_top" xlink:title="Simply echoes chat messages (to be used in a Bridge group) ">
<polygon fill="none" stroke="black" points="309,-760.5 309,-779.5 412,-779.5 412,-760.5 309,-760.5"/>
<text text-anchor="middle" x="360.5" y="-767.5" font-family="Helvetica,sans-Serif" font-size="10.00">handler::BridgeChat</text>
</a>
</g>
</g>
<!-- Node1&#45;&gt;Node4 -->
<g id="edge3" class="edge"><title>Node1&#45;&gt;Node4</title>
<path fill="none" stroke="midnightblue" d="M212.688,-410.003C218.846,-478.292 242.28,-700.761 290,-751 295.169,-756.442 301.733,-760.376 308.753,-763.211"/>
<polygon fill="midnightblue" stroke="midnightblue" points="216.15,-409.419 211.791,-399.762 209.177,-410.03 216.15,-409.419"/>
</g>
<!-- Node6 -->
<g id="node6" class="node"><title>Node6</title>
<g id="a_node6"><a xlink:href="classhandler_1_1Chanhax.html" target="_top" xlink:title="Changes the channel of a message. ">
<polygon fill="none" stroke="black" points="314,-722.5 314,-741.5 407,-741.5 407,-722.5 314,-722.5"/>
<text text-anchor="middle" x="360.5" y="-729.5" font-family="Helvetica,sans-Serif" font-size="10.00">handler::Chanhax</text>
</a>
</g>
</g>
<!-- Node1&#45;&gt;Node6 -->
<g id="edge5" class="edge"><title>Node1&#45;&gt;Node6</title>
<path fill="none" stroke="midnightblue" d="M213.234,-409.922C220.732,-473.317 246.976,-668.799 290,-713 296.456,-719.633 304.987,-724.019 313.854,-726.903"/>
<polygon fill="midnightblue" stroke="midnightblue" points="216.676,-409.221 212.052,-399.688 209.723,-410.024 216.676,-409.221"/>
</g>
<!-- Node7 -->
<g id="node7" class="node"><title>Node7</title>
<g id="a_node7"><a xlink:href="classhandler_1_1FilterGroup.html" target="_top" xlink:title="Discards messages coming from certain users. ">
<polygon fill="none" stroke="black" points="309.5,-684.5 309.5,-703.5 411.5,-703.5 411.5,-684.5 309.5,-684.5"/>
<text text-anchor="middle" x="360.5" y="-691.5" font-family="Helvetica,sans-Serif" font-size="10.00">handler::FilterGroup</text>
</a>
</g>
</g>
<!-- Node1&#45;&gt;Node7 -->
<g id="edge6" class="edge"><title>Node1&#45;&gt;Node7</title>
<path fill="none" stroke="midnightblue" d="M210.289,-409.881C209.583,-461.393 215.104,-600.369 290,-675 295.405,-680.386 302.18,-684.284 309.366,-687.097"/>
<polygon fill="midnightblue" stroke="midnightblue" points="213.79,-409.839 210.528,-399.759 206.792,-409.674 213.79,-409.839"/>
</g>
<!-- Node8 -->
<g id="node8" class="node"><title>Node8</title>
<g id="a_node8"><a xlink:href="classhandler_1_1Reply.html" target="_top" xlink:title="Fixed reply. ">
<polygon fill="none" stroke="black" points="320.5,-646.5 320.5,-665.5 400.5,-665.5 400.5,-646.5 320.5,-646.5"/>
<text text-anchor="middle" x="360.5" y="-653.5" font-family="Helvetica,sans-Serif" font-size="10.00">handler::Reply</text>
</a>
</g>
</g>
<!-- Node1&#45;&gt;Node8 -->
<g id="edge7" class="edge"><title>Node1&#45;&gt;Node8</title>
<path fill="none" stroke="midnightblue" d="M211.289,-409.715C213.075,-456.298 224.231,-573.981 290,-637 298.219,-644.875 309.377,-649.553 320.345,-652.31"/>
<polygon fill="midnightblue" stroke="midnightblue" points="214.787,-409.612 211.012,-399.713 207.79,-409.805 214.787,-409.612"/>
</g>
<!-- Node9 -->
<g id="node9" class="node"><title>Node9</title>
<g id="a_node9"><a xlink:href="classhandler_1_1SimpleAction.html" target="_top" xlink:title="A simple action sends a message to the same connection it came from. ">
<polygon fill="none" stroke="black" points="304.5,-608.5 304.5,-627.5 416.5,-627.5 416.5,-608.5 304.5,-608.5"/>
<text text-anchor="middle" x="360.5" y="-615.5" font-family="Helvetica,sans-Serif" font-size="10.00">handler::SimpleAction</text>
</a>
</g>
</g>
<!-- Node1&#45;&gt;Node9 -->
<g id="edge8" class="edge"><title>Node1&#45;&gt;Node9</title>
<path fill="none" stroke="midnightblue" d="M222.807,-408.129C252.717,-454.05 330.69,-573.766 353.282,-608.453"/>
<polygon fill="midnightblue" stroke="midnightblue" points="225.582,-405.976 217.192,-399.507 219.717,-409.796 225.582,-405.976"/>
</g>
<!-- Node36 -->
<g id="node36" class="node"><title>Node36</title>
<g id="a_node36"><a xlink:href="classirc_1_1handler_1_1AcceptInvite.html" target="_top" xlink:title="Makes the bot join channels (IRC) ">
<polygon fill="none" stroke="black" points="298,-399.5 298,-418.5 423,-418.5 423,-399.5 298,-399.5"/>
<text text-anchor="middle" x="360.5" y="-406.5" font-family="Helvetica,sans-Serif" font-size="10.00">irc::handler::AcceptInvite</text>
</a>
</g>
</g>
<!-- Node1&#45;&gt;Node36 -->
<g id="edge35" class="edge"><title>Node1&#45;&gt;Node36</title>
<path fill="none" stroke="midnightblue" d="M264.505,-396.846C275.334,-398.231 286.803,-399.699 297.886,-401.117"/>
<polygon fill="midnightblue" stroke="midnightblue" points="264.715,-393.344 254.352,-395.547 263.826,-400.288 264.715,-393.344"/>
</g>
<!-- Node37 -->
<g id="node37" class="node"><title>Node37</title>
<g id="a_node37"><a xlink:href="classirc_1_1handler_1_1CtcpBase.html" target="_top" xlink:title="Base class for handling CTCP requests. ">
<polygon fill="none" stroke="black" points="303.5,-361.5 303.5,-380.5 417.5,-380.5 417.5,-361.5 303.5,-361.5"/>
<text text-anchor="middle" x="360.5" y="-368.5" font-family="Helvetica,sans-Serif" font-size="10.00">irc::handler::CtcpBase</text>
</a>
</g>
</g>
<!-- Node1&#45;&gt;Node37 -->
<g id="edge36" class="edge"><title>Node1&#45;&gt;Node37</title>
<path fill="none" stroke="midnightblue" d="M264.302,-383.18C276.987,-381.557 290.56,-379.821 303.368,-378.182"/>
<polygon fill="midnightblue" stroke="midnightblue" points="263.826,-379.712 254.352,-384.453 264.715,-386.656 263.826,-379.712"/>
</g>
<!-- Node44 -->
<g id="node44" class="node"><title>Node44</title>
<g id="a_node44"><a xlink:href="classirc_1_1handler_1_1IrcJoinMessage.html" target="_top" xlink:title="Prints a message when a user joins a channel. ">
<polygon fill="none" stroke="black" points="290.5,-323.5 290.5,-342.5 430.5,-342.5 430.5,-323.5 290.5,-323.5"/>
<text text-anchor="middle" x="360.5" y="-330.5" font-family="Helvetica,sans-Serif" font-size="10.00">irc::handler::IrcJoinMessage</text>
</a>
</g>
</g>
<!-- Node1&#45;&gt;Node44 -->
<g id="edge43" class="edge"><title>Node1&#45;&gt;Node44</title>
<path fill="none" stroke="midnightblue" d="M237.706,-375.657C252.77,-367.95 272.107,-358.686 290,-352 299.491,-348.453 309.934,-345.249 319.776,-342.525"/>
<polygon fill="midnightblue" stroke="midnightblue" points="235.739,-372.735 228.482,-380.454 238.969,-378.945 235.739,-372.735"/>
</g>
<!-- Node45 -->
<g id="node45" class="node"><title>Node45</title>
<g id="a_node45"><a xlink:href="classirc_1_1handler_1_1IrcKickMessage.html" target="_top" xlink:title="Prints a message when a user is kicked from a channel. ">
<polygon fill="none" stroke="black" points="290,-285.5 290,-304.5 431,-304.5 431,-285.5 290,-285.5"/>
<text text-anchor="middle" x="360.5" y="-292.5" font-family="Helvetica,sans-Serif" font-size="10.00">irc::handler::IrcKickMessage</text>
</a>
</g>
</g>
<!-- Node1&#45;&gt;Node45 -->
<g id="edge44" class="edge"><title>Node1&#45;&gt;Node45</title>
<path fill="none" stroke="midnightblue" d="M225.031,-372.05C239.511,-354.719 263.646,-328.965 290,-314 296.744,-310.17 304.298,-307.081 311.874,-304.599"/>
<polygon fill="midnightblue" stroke="midnightblue" points="221.965,-370.273 218.379,-380.243 227.399,-374.686 221.965,-370.273"/>
</g>
<!-- Node46 -->
<g id="node46" class="node"><title>Node46</title>
<g id="a_node46"><a xlink:href="classirc_1_1handler_1_1IrcKickRejoin.html" target="_top" xlink:title="Joins again once kicked. ">
<polygon fill="none" stroke="black" points="296,-247.5 296,-266.5 425,-266.5 425,-247.5 296,-247.5"/>
<text text-anchor="middle" x="360.5" y="-254.5" font-family="Helvetica,sans-Serif" font-size="10.00">irc::handler::IrcKickRejoin</text>
</a>
</g>
</g>
<!-- Node1&#45;&gt;Node46 -->
<g id="edge45" class="edge"><title>Node1&#45;&gt;Node46</title>
<path fill="none" stroke="midnightblue" d="M219.055,-371.018C230.856,-345.518 255.276,-300.572 290,-276 295.514,-272.098 301.794,-268.997 308.272,-266.533"/>
<polygon fill="midnightblue" stroke="midnightblue" points="215.772,-369.787 214.902,-380.346 222.166,-372.634 215.772,-369.787"/>
</g>
<!-- Node47 -->
<g id="node47" class="node"><title>Node47</title>
<g id="a_node47"><a xlink:href="classirc_1_1handler_1_1QGetWhois.html" target="_top" xlink:title="Parses responses from Q WHOIS and USER (IRC) ">
<polygon fill="none" stroke="black" points="299.5,-209.5 299.5,-228.5 421.5,-228.5 421.5,-209.5 299.5,-209.5"/>
<text text-anchor="middle" x="360.5" y="-216.5" font-family="Helvetica,sans-Serif" font-size="10.00">irc::handler::QGetWhois</text>
</a>
</g>
</g>
<!-- Node1&#45;&gt;Node47 -->
<g id="edge46" class="edge"><title>Node1&#45;&gt;Node47</title>
<path fill="none" stroke="midnightblue" d="M215.699,-370.417C224.53,-337.907 246.737,-272.926 290,-238 294.769,-234.15 300.259,-231.078 306.019,-228.626"/>
<polygon fill="midnightblue" stroke="midnightblue" points="212.217,-369.903 213.12,-380.459 218.997,-371.644 212.217,-369.903"/>
</g>
<!-- Node48 -->
<g id="node48" class="node"><title>Node48</title>
<g id="a_node48"><a xlink:href="classirc_1_1handler_1_1QSendWhois.html" target="_top" xlink:title="Asks Q for WHOIS or USERS information when a user joins a channel (IRC) ">
<polygon fill="none" stroke="black" points="296.5,-171.5 296.5,-190.5 424.5,-190.5 424.5,-171.5 296.5,-171.5"/>
<text text-anchor="middle" x="360.5" y="-178.5" font-family="Helvetica,sans-Serif" font-size="10.00">irc::handler::QSendWhois</text>
</a>
</g>
</g>
<!-- Node1&#45;&gt;Node48 -->
<g id="edge47" class="edge"><title>Node1&#45;&gt;Node48</title>
<path fill="none" stroke="midnightblue" d="M213.433,-370.484C219.287,-331.976 237.772,-245.975 290,-200 294.413,-196.115 299.548,-193.017 304.992,-190.546"/>
<polygon fill="midnightblue" stroke="midnightblue" points="209.962,-370.027 212.048,-380.415 216.895,-370.994 209.962,-370.027"/>
</g>
<!-- Node49 -->
<g id="node49" class="node"><title>Node49</title>
<g id="a_node49"><a xlink:href="classirc_1_1handler_1_1Whois330.html" target="_top" xlink:title="Sets the global id based on a 330 reply from whois (IRC) ">
<polygon fill="none" stroke="black" points="303.5,-133.5 303.5,-152.5 417.5,-152.5 417.5,-133.5 303.5,-133.5"/>
<text text-anchor="middle" x="360.5" y="-140.5" font-family="Helvetica,sans-Serif" font-size="10.00">irc::handler::Whois330</text>
</a>
</g>
</g>
<!-- Node1&#45;&gt;Node49 -->
<g id="edge48" class="edge"><title>Node1&#45;&gt;Node49</title>
<path fill="none" stroke="midnightblue" d="M211.921,-370.01C215.065,-325.798 228.929,-219.129 290,-162 294.111,-158.155 298.924,-155.074 304.065,-152.608"/>
<polygon fill="midnightblue" stroke="midnightblue" points="208.423,-369.87 211.32,-380.061 215.411,-370.288 208.423,-369.87"/>
</g>
<!-- Node2 -->
<g id="node2" class="node"><title>Node2</title>
<g id="a_node2"><a xlink:href="classhandler_1_1HandlerContainer.html" target="_top" xlink:title="Base class for classes which may contain handlers. ">
<polygon fill="none" stroke="black" points="0,-380.5 0,-399.5 130,-399.5 130,-380.5 0,-380.5"/>
<text text-anchor="middle" x="65" y="-387.5" font-family="Helvetica,sans-Serif" font-size="10.00">handler::HandlerContainer</text>
</a>
</g>
</g>
<!-- Node2&#45;&gt;Node1 -->
<g id="edge1" class="edge"><title>Node2&#45;&gt;Node1</title>
<path fill="none" stroke="midnightblue" d="M140.555,-390C149.218,-390 157.821,-390 165.854,-390"/>
<polygon fill="midnightblue" stroke="midnightblue" points="140.388,-386.5 130.388,-390 140.388,-393.5 140.388,-386.5"/>
</g>
<!-- Node5 -->
<g id="node5" class="node"><title>Node5</title>
<g id="a_node5"><a xlink:href="classfun_1_1RainbowBridgeChat.html" target="_top" xlink:title="Like BridgeChat but more colorful. ">
<polygon fill="none" stroke="black" points="478.5,-1216.5 478.5,-1235.5 601.5,-1235.5 601.5,-1216.5 478.5,-1216.5"/>
<text text-anchor="middle" x="540" y="-1223.5" font-family="Helvetica,sans-Serif" font-size="10.00">fun::RainbowBridgeChat</text>
</a>
</g>
</g>
<!-- Node4&#45;&gt;Node5 -->
<g id="edge4" class="edge"><title>Node4&#45;&gt;Node5</title>
<path fill="none" stroke="midnightblue" d="M421.23,-780.538C424.884,-782.859 428.207,-785.649 431,-789 490.699,-860.612 406.984,-1135.65 467,-1207 470.246,-1210.86 474.173,-1213.98 478.5,-1216.51"/>
<polygon fill="midnightblue" stroke="midnightblue" points="422.689,-777.354 412.189,-775.934 419.512,-783.591 422.689,-777.354"/>
</g>
<!-- Node10 -->
<g id="node10" class="node"><title>Node10</title>
<g id="a_node10"><a xlink:href="classfun_1_1Morse.html" target="_top" xlink:title="Handler translating between morse and latin. ">
<polygon fill="none" stroke="black" points="508.5,-1178.5 508.5,-1197.5 571.5,-1197.5 571.5,-1178.5 508.5,-1178.5"/>
<text text-anchor="middle" x="540" y="-1185.5" font-family="Helvetica,sans-Serif" font-size="10.00">fun::Morse</text>
</a>
</g>
</g>
<!-- Node9&#45;&gt;Node10 -->
<g id="edge9" class="edge"><title>Node9&#45;&gt;Node10</title>
<path fill="none" stroke="midnightblue" d="M425.343,-631.396C427.401,-633.064 429.302,-634.925 431,-637 506.036,-728.707 391.559,-1077.63 467,-1169 476.959,-1181.06 493.589,-1185.97 508.359,-1187.79"/>
<polygon fill="midnightblue" stroke="midnightblue" points="427.031,-628.321 416.723,-625.874 423.255,-634.215 427.031,-628.321"/>
</g>
<!-- Node11 -->
<g id="node11" class="node"><title>Node11</title>
<g id="a_node11"><a xlink:href="classfun_1_1RenderPony.html" target="_top" xlink:title="Draws a pretty My Little Pony ASCII art. ">
<polygon fill="none" stroke="black" points="495,-1140.5 495,-1159.5 585,-1159.5 585,-1140.5 495,-1140.5"/>
<text text-anchor="middle" x="540" y="-1147.5" font-family="Helvetica,sans-Serif" font-size="10.00">fun::RenderPony</text>
</a>
</g>
</g>
<!-- Node9&#45;&gt;Node11 -->
<g id="edge10" class="edge"><title>Node9&#45;&gt;Node11</title>
<path fill="none" stroke="midnightblue" d="M425.329,-631.407C427.391,-633.072 429.297,-634.929 431,-637 500.922,-722.006 396.702,-1046.3 467,-1131 474.018,-1139.46 484.313,-1144.39 494.936,-1147.21"/>
<polygon fill="midnightblue" stroke="midnightblue" points="427.01,-628.327 416.699,-625.893 423.242,-634.226 427.01,-628.327"/>
</g>
<!-- Node12 -->
<g id="node12" class="node"><title>Node12</title>
<g id="a_node12"><a xlink:href="classfun_1_1ReverseText.html" target="_top" xlink:title="Turns ASCII characters upside&#45;down. ">
<polygon fill="none" stroke="black" points="494,-1102.5 494,-1121.5 586,-1121.5 586,-1102.5 494,-1102.5"/>
<text text-anchor="middle" x="540" y="-1109.5" font-family="Helvetica,sans-Serif" font-size="10.00">fun::ReverseText</text>
</a>
</g>
</g>
<!-- Node9&#45;&gt;Node12 -->
<g id="edge11" class="edge"><title>Node9&#45;&gt;Node12</title>
<path fill="none" stroke="midnightblue" d="M425.313,-631.42C427.38,-633.081 429.29,-634.934 431,-637 495.81,-715.308 401.844,-1014.98 467,-1093 473.795,-1101.14 483.624,-1106.01 493.847,-1108.88"/>
<polygon fill="midnightblue" stroke="midnightblue" points="426.986,-628.335 416.671,-625.916 423.226,-634.24 426.986,-628.335"/>
</g>
<!-- Node13 -->
<g id="node13" class="node"><title>Node13</title>
<g id="a_node13"><a xlink:href="classfun_1_1Slap.html" target="_top" xlink:title="Slaps someone. ">
<polygon fill="none" stroke="black" points="512,-1064.5 512,-1083.5 568,-1083.5 568,-1064.5 512,-1064.5"/>
<text text-anchor="middle" x="540" y="-1071.5" font-family="Helvetica,sans-Serif" font-size="10.00">fun::Slap</text>
</a>
</g>
</g>
<!-- Node9&#45;&gt;Node13 -->
<g id="edge12" class="edge"><title>Node9&#45;&gt;Node13</title>
<path fill="none" stroke="midnightblue" d="M425.295,-631.435C427.366,-633.092 429.283,-634.94 431,-637 490.699,-708.612 406.984,-983.653 467,-1055 477.819,-1067.86 496.216,-1072.56 511.706,-1074.07"/>
<polygon fill="midnightblue" stroke="midnightblue" points="426.957,-628.345 416.638,-625.944 423.208,-634.256 426.957,-628.345"/>
</g>
<!-- Node14 -->
<g id="node14" class="node"><title>Node14</title>
<g id="a_node14"><a xlink:href="classhandler_1_1AdminConnect.html" target="_top" xlink:title="Makes the bot Connect. ">
<polygon fill="none" stroke="black" points="480.5,-1026.5 480.5,-1045.5 599.5,-1045.5 599.5,-1026.5 480.5,-1026.5"/>
<text text-anchor="middle" x="540" y="-1033.5" font-family="Helvetica,sans-Serif" font-size="10.00">handler::AdminConnect</text>
</a>
</g>
</g>
<!-- Node9&#45;&gt;Node14 -->
<g id="edge13" class="edge"><title>Node9&#45;&gt;Node14</title>
<path fill="none" stroke="midnightblue" d="M425.273,-631.454C427.35,-633.106 429.274,-634.948 431,-637 485.592,-701.92 412.121,-952.322 467,-1017 470.68,-1021.34 475.222,-1024.74 480.221,-1027.41"/>
<polygon fill="midnightblue" stroke="midnightblue" points="426.923,-628.356 416.598,-625.977 423.186,-634.275 426.923,-628.356"/>
</g>
<!-- Node15 -->
<g id="node15" class="node"><title>Node15</title>
<g id="a_node15"><a xlink:href="classhandler_1_1AdminDisconnect.html" target="_top" xlink:title="Makes the bot disconnect. ">
<polygon fill="none" stroke="black" points="474.5,-988.5 474.5,-1007.5 605.5,-1007.5 605.5,-988.5 474.5,-988.5"/>
<text text-anchor="middle" x="540" y="-995.5" font-family="Helvetica,sans-Serif" font-size="10.00">handler::AdminDisconnect</text>
</a>
</g>
</g>
<!-- Node9&#45;&gt;Node15 -->
<g id="edge14" class="edge"><title>Node9&#45;&gt;Node15</title>
<path fill="none" stroke="midnightblue" d="M425.246,-631.476C427.33,-633.122 429.263,-634.957 431,-637 529.976,-753.463 367.509,-862.976 467,-979 470.282,-982.827 474.235,-985.93 478.578,-988.439"/>
<polygon fill="midnightblue" stroke="midnightblue" points="426.881,-628.37 416.551,-626.017 423.159,-634.299 426.881,-628.37"/>
</g>
<!-- Node16 -->
<g id="node16" class="node"><title>Node16</title>
<g id="a_node16"><a xlink:href="classhandler_1_1AdminQuit.html" target="_top" xlink:title="Quits the bot. ">
<polygon fill="none" stroke="black" points="490,-950.5 490,-969.5 590,-969.5 590,-950.5 490,-950.5"/>
<text text-anchor="middle" x="540" y="-957.5" font-family="Helvetica,sans-Serif" font-size="10.00">handler::AdminQuit</text>
</a>
</g>
</g>
<!-- Node9&#45;&gt;Node16 -->
<g id="edge15" class="edge"><title>Node9&#45;&gt;Node16</title>
<path fill="none" stroke="midnightblue" d="M425.341,-631.605C427.385,-633.218 429.286,-635.009 431,-637 519.779,-740.099 377.766,-838.295 467,-941 473.02,-947.929 481.239,-952.476 489.974,-955.429"/>
<polygon fill="midnightblue" stroke="midnightblue" points="427.152,-628.61 416.827,-626.236 423.418,-634.531 427.152,-628.61"/>
</g>
<!-- Node17 -->
<g id="node17" class="node"><title>Node17</title>
<g id="a_node17"><a xlink:href="classhandler_1_1AdminReconnect.html" target="_top" xlink:title="Makes the bot reconnect. ">
<polygon fill="none" stroke="black" points="475.5,-912.5 475.5,-931.5 604.5,-931.5 604.5,-912.5 475.5,-912.5"/>
<text text-anchor="middle" x="540" y="-919.5" font-family="Helvetica,sans-Serif" font-size="10.00">handler::AdminReconnect</text>
</a>
</g>
</g>
<!-- Node9&#45;&gt;Node17 -->
<g id="edge16" class="edge"><title>Node9&#45;&gt;Node17</title>
<path fill="none" stroke="midnightblue" d="M425.299,-631.642C427.355,-633.244 429.269,-635.024 431,-637 509.595,-726.751 388.008,-813.598 467,-903 470.338,-906.778 474.331,-909.846 478.7,-912.333"/>
<polygon fill="midnightblue" stroke="midnightblue" points="427.087,-628.632 416.752,-626.301 423.378,-634.568 427.087,-628.632"/>
</g>
<!-- Node18 -->
<g id="node18" class="node"><title>Node18</title>
<g id="a_node18"><a xlink:href="classhandler_1_1BridgeAttach.html" target="_top" xlink:title="Attach the parent bridge to the provided connection. ">
<polygon fill="none" stroke="black" points="485,-874.5 485,-893.5 595,-893.5 595,-874.5 485,-874.5"/>
<text text-anchor="middle" x="540" y="-881.5" font-family="Helvetica,sans-Serif" font-size="10.00">handler::BridgeAttach</text>
</a>
</g>
</g>
<!-- Node9&#45;&gt;Node18 -->
<g id="edge17" class="edge"><title>Node9&#45;&gt;Node18</title>
<path fill="none" stroke="midnightblue" d="M425.244,-631.69C427.315,-633.279 429.248,-635.043 431,-637 499.434,-713.428 398.229,-788.876 467,-865 471.853,-870.372 478.028,-874.303 484.715,-877.166"/>
<polygon fill="midnightblue" stroke="midnightblue" points="427.002,-628.662 416.654,-626.388 423.325,-634.619 427.002,-628.662"/>
</g>
<!-- Node19 -->
<g id="node19" class="node"><title>Node19</title>
<g id="a_node19"><a xlink:href="classhandler_1_1BridgeAttachChannel.html" target="_top" xlink:title="Attach the parent bridge to the provided channel. ">
<polygon fill="none" stroke="black" points="467,-836.5 467,-855.5 613,-855.5 613,-836.5 467,-836.5"/>
<text text-anchor="middle" x="540" y="-843.5" font-family="Helvetica,sans-Serif" font-size="10.00">handler::BridgeAttachChannel</text>
</a>
</g>
</g>
<!-- Node9&#45;&gt;Node19 -->
<g id="edge18" class="edge"><title>Node9&#45;&gt;Node19</title>
<path fill="none" stroke="midnightblue" d="M425.169,-631.759C427.261,-633.329 429.218,-635.07 431,-637 489.307,-700.144 408.414,-764.115 467,-827 470.525,-830.784 474.706,-833.849 479.252,-836.327"/>
<polygon fill="midnightblue" stroke="midnightblue" points="426.884,-628.706 416.519,-626.51 423.253,-634.69 426.884,-628.706"/>
</g>
<!-- Node20 -->
<g id="node20" class="node"><title>Node20</title>
<g id="a_node20"><a xlink:href="classhandler_1_1Cointoss.html" target="_top" xlink:title="Shows one of the given items, at random. ">
<polygon fill="none" stroke="black" points="493.5,-798.5 493.5,-817.5 586.5,-817.5 586.5,-798.5 493.5,-798.5"/>
<text text-anchor="middle" x="540" y="-805.5" font-family="Helvetica,sans-Serif" font-size="10.00">handler::Cointoss</text>
</a>
</g>
</g>
<!-- Node9&#45;&gt;Node20 -->
<g id="edge19" class="edge"><title>Node9&#45;&gt;Node20</title>
<path fill="none" stroke="midnightblue" d="M425.634,-632.286C427.542,-633.715 429.34,-635.282 431,-637 479.241,-686.925 418.538,-739.289 467,-789 474.039,-796.22 483.473,-800.805 493.188,-803.689"/>
<polygon fill="midnightblue" stroke="midnightblue" points="427.032,-629.041 416.664,-626.86 423.409,-635.03 427.032,-629.041"/>
</g>
<!-- Node21 -->
<g id="node21" class="node"><title>Node21</title>
<g id="a_node21"><a xlink:href="classhandler_1_1Echo.html" target="_top" xlink:title="Just repeat what it has been told. ">
<polygon fill="none" stroke="black" points="501.5,-760.5 501.5,-779.5 578.5,-779.5 578.5,-760.5 501.5,-760.5"/>
<text text-anchor="middle" x="540" y="-767.5" font-family="Helvetica,sans-Serif" font-size="10.00">handler::Echo</text>
</a>
</g>
</g>
<!-- Node9&#45;&gt;Node21 -->
<g id="edge20" class="edge"><title>Node9&#45;&gt;Node21</title>
<path fill="none" stroke="midnightblue" d="M425.6,-632.534C427.506,-633.895 429.315,-635.38 431,-637 469.296,-673.831 428.541,-714.339 467,-751 476.264,-759.831 489.131,-764.673 501.428,-767.291"/>
<polygon fill="midnightblue" stroke="midnightblue" points="427.101,-629.357 416.702,-627.328 423.566,-635.399 427.101,-629.357"/>
</g>
<!-- Node22 -->
<g id="node22" class="node"><title>Node22</title>
<g id="a_node22"><a xlink:href="classhandler_1_1Help.html" target="_top" xlink:title="Handler showing help on the available handlers. ">
<polygon fill="none" stroke="black" points="503,-722.5 503,-741.5 577,-741.5 577,-722.5 503,-722.5"/>
<text text-anchor="middle" x="540" y="-729.5" font-family="Helvetica,sans-Serif" font-size="10.00">handler::Help</text>
</a>
</g>
</g>
<!-- Node9&#45;&gt;Node22 -->
<g id="edge21" class="edge"><title>Node9&#45;&gt;Node22</title>
<path fill="none" stroke="midnightblue" d="M424.585,-632.371C426.836,-633.774 428.987,-635.312 431,-637 459.643,-661.011 438.251,-689.116 467,-713 477.044,-721.344 490.369,-726.061 502.824,-728.715"/>
<polygon fill="midnightblue" stroke="midnightblue" points="425.957,-629.139 415.473,-627.608 422.713,-635.343 425.957,-629.139"/>
</g>
<!-- Node23 -->
<g id="node23" class="node"><title>Node23</title>
<g id="a_node23"><a xlink:href="classhandler_1_1License.html" target="_top" xlink:title="Handler showing licensing information. ">
<polygon fill="none" stroke="black" points="496,-684.5 496,-703.5 584,-703.5 584,-684.5 496,-684.5"/>
<text text-anchor="middle" x="540" y="-691.5" font-family="Helvetica,sans-Serif" font-size="10.00">handler::License</text>
</a>
</g>
</g>
<!-- Node9&#45;&gt;Node23 -->
<g id="edge22" class="edge"><title>Node9&#45;&gt;Node23</title>
<path fill="none" stroke="midnightblue" d="M419.505,-631.191C423.503,-632.903 427.378,-634.831 431,-637 450.958,-648.954 446.989,-663.135 467,-675 475.785,-680.209 486.004,-684.012 495.937,-686.782"/>
<polygon fill="midnightblue" stroke="midnightblue" points="420.604,-627.865 410.014,-627.576 418.113,-634.407 420.604,-627.865"/>
</g>
<!-- Node24 -->
<g id="node24" class="node"><title>Node24</title>
<g id="a_node24"><a xlink:href="classhandler_1_1ListClear.html" target="_top" xlink:title="Used by AbstractList to remove all elements. ">
<polygon fill="none" stroke="black" points="493.5,-646.5 493.5,-665.5 586.5,-665.5 586.5,-646.5 493.5,-646.5"/>
<text text-anchor="middle" x="540" y="-653.5" font-family="Helvetica,sans-Serif" font-size="10.00">handler::ListClear</text>
</a>
</g>
</g>
<!-- Node9&#45;&gt;Node24 -->
<g id="edge23" class="edge"><title>Node9&#45;&gt;Node24</title>
<path fill="none" stroke="midnightblue" d="M416.397,-629.753C441.495,-635.126 470.843,-641.409 494.531,-646.48"/>
<polygon fill="midnightblue" stroke="midnightblue" points="416.802,-626.26 406.291,-627.589 415.336,-633.105 416.802,-626.26"/>
</g>
<!-- Node25 -->
<g id="node25" class="node"><title>Node25</title>
<g id="a_node25"><a xlink:href="classhandler_1_1ListInsert.html" target="_top" xlink:title="Used by AbstractList to add elements. ">
<polygon fill="none" stroke="black" points="492.5,-608.5 492.5,-627.5 587.5,-627.5 587.5,-608.5 492.5,-608.5"/>
<text text-anchor="middle" x="540" y="-615.5" font-family="Helvetica,sans-Serif" font-size="10.00">handler::ListInsert</text>
</a>
</g>
</g>
<!-- Node9&#45;&gt;Node25 -->
<g id="edge24" class="edge"><title>Node9&#45;&gt;Node25</title>
<path fill="none" stroke="midnightblue" d="M426.82,-618C448.51,-618 472.21,-618 492.215,-618"/>
<polygon fill="midnightblue" stroke="midnightblue" points="426.689,-614.5 416.689,-618 426.689,-621.5 426.689,-614.5"/>
</g>
<!-- Node26 -->
<g id="node26" class="node"><title>Node26</title>
<g id="a_node26"><a xlink:href="classhandler_1_1ListRemove.html" target="_top" xlink:title="Used by AbstractList to remove elements. ">
<polygon fill="none" stroke="black" points="486.5,-570.5 486.5,-589.5 593.5,-589.5 593.5,-570.5 486.5,-570.5"/>
<text text-anchor="middle" x="540" y="-577.5" font-family="Helvetica,sans-Serif" font-size="10.00">handler::ListRemove</text>
</a>
</g>
</g>
<!-- Node9&#45;&gt;Node26 -->
<g id="edge25" class="edge"><title>Node9&#45;&gt;Node26</title>
<path fill="none" stroke="midnightblue" d="M416.397,-606.247C441.495,-600.874 470.843,-594.591 494.531,-589.52"/>
<polygon fill="midnightblue" stroke="midnightblue" points="415.336,-602.895 406.291,-608.411 416.802,-609.74 415.336,-602.895"/>
</g>
<!-- Node27 -->
<g id="node27" class="node"><title>Node27</title>
<g id="a_node27"><a xlink:href="classhandler_1_1ServerHost.html" target="_top" xlink:title="Shows the server the bot is connected to. ">
<polygon fill="none" stroke="black" points="488,-532.5 488,-551.5 592,-551.5 592,-532.5 488,-532.5"/>
<text text-anchor="middle" x="540" y="-539.5" font-family="Helvetica,sans-Serif" font-size="10.00">handler::ServerHost</text>
</a>
</g>
</g>
<!-- Node9&#45;&gt;Node27 -->
<g id="edge26" class="edge"><title>Node9&#45;&gt;Node27</title>
<path fill="none" stroke="midnightblue" d="M385.478,-602.907C406.361,-590.291 437.789,-572.555 467,-561 476.257,-557.338 486.459,-554.161 496.2,-551.507"/>
<polygon fill="midnightblue" stroke="midnightblue" points="383.369,-600.095 376.671,-608.303 387.026,-606.063 383.369,-600.095"/>
</g>
<!-- Node28 -->
<g id="node28" class="node"><title>Node28</title>
<g id="a_node28"><a xlink:href="classhandler_1_1SimpleGroup.html" target="_top" xlink:title="A simple group of actions which share settings. ">
<polygon fill="none" stroke="red" points="485,-494.5 485,-513.5 595,-513.5 595,-494.5 485,-494.5"/>
<text text-anchor="middle" x="540" y="-501.5" font-family="Helvetica,sans-Serif" font-size="10.00">handler::SimpleGroup</text>
</a>
</g>
</g>
<!-- Node9&#45;&gt;Node28 -->
<g id="edge27" class="edge"><title>Node9&#45;&gt;Node28</title>
<path fill="none" stroke="midnightblue" d="M376.027,-600.594C394.841,-579.176 429.674,-543.176 467,-523 474.165,-519.127 482.164,-516.01 490.152,-513.511"/>
<polygon fill="midnightblue" stroke="midnightblue" points="373.282,-598.418 369.414,-608.282 378.589,-602.984 373.282,-598.418"/>
</g>
<!-- Node29 -->
<g id="node29" class="node"><title>Node29</title>
<g id="a_node29"><a xlink:href="classhandler_1_1SimpleWebApi.html" target="_top" xlink:title="Simple base class for handlers calling web resources. ">
<polygon fill="none" stroke="red" points="480.5,-456.5 480.5,-475.5 599.5,-475.5 599.5,-456.5 480.5,-456.5"/>
<text text-anchor="middle" x="540" y="-463.5" font-family="Helvetica,sans-Serif" font-size="10.00">handler::SimpleWebApi</text>
</a>
</g>
</g>
<!-- Node9&#45;&gt;Node29 -->
<g id="edge28" class="edge"><title>Node9&#45;&gt;Node29</title>
<path fill="none" stroke="midnightblue" d="M371.232,-599.105C387.202,-570.026 421.765,-514.578 467,-485 472.951,-481.109 479.668,-478.012 486.548,-475.549"/>
<polygon fill="midnightblue" stroke="midnightblue" points="367.996,-597.735 366.372,-608.205 374.171,-601.033 367.996,-597.735"/>
</g>
<!-- Node30 -->
<g id="node30" class="node"><title>Node30</title>
<g id="a_node30"><a xlink:href="classirc_1_1handler_1_1AdminJoin.html" target="_top" xlink:title="Makes the bot join channels (IRC) ">
<polygon fill="none" stroke="black" points="482,-418.5 482,-437.5 598,-437.5 598,-418.5 482,-418.5"/>
<text text-anchor="middle" x="540" y="-425.5" font-family="Helvetica,sans-Serif" font-size="10.00">irc::handler::AdminJoin</text>
</a>
</g>
</g>
<!-- Node9&#45;&gt;Node30 -->
<g id="edge29" class="edge"><title>Node9&#45;&gt;Node30</title>
<path fill="none" stroke="midnightblue" d="M367.872,-598.83C380.714,-563.232 413.165,-486.916 467,-447 472.192,-443.15 478.103,-440.079 484.253,-437.63"/>
<polygon fill="midnightblue" stroke="midnightblue" points="364.493,-597.891 364.514,-608.485 371.105,-600.19 364.493,-597.891"/>
</g>
<!-- Node31 -->
<g id="node31" class="node"><title>Node31</title>
<g id="a_node31"><a xlink:href="classirc_1_1handler_1_1AdminNick.html" target="_top" xlink:title="Changes the bot nick (IRC) ">
<polygon fill="none" stroke="black" points="480.5,-380.5 480.5,-399.5 599.5,-399.5 599.5,-380.5 480.5,-380.5"/>
<text text-anchor="middle" x="540" y="-387.5" font-family="Helvetica,sans-Serif" font-size="10.00">irc::handler::AdminNick</text>
</a>
</g>
</g>
<!-- Node9&#45;&gt;Node31 -->
<g id="edge30" class="edge"><title>Node9&#45;&gt;Node31</title>
<path fill="none" stroke="midnightblue" d="M365.682,-598.387C375.59,-556.836 404.501,-459.61 467,-409 471.823,-405.095 477.368,-401.986 483.195,-399.513"/>
<polygon fill="midnightblue" stroke="midnightblue" points="362.225,-597.807 363.425,-608.334 369.051,-599.356 362.225,-597.807"/>
</g>
<!-- Node32 -->
<g id="node32" class="node"><title>Node32</title>
<g id="a_node32"><a xlink:href="classirc_1_1handler_1_1AdminPart.html" target="_top" xlink:title="Makes the bot part channels (IRC) ">
<polygon fill="none" stroke="black" points="482,-342.5 482,-361.5 598,-361.5 598,-342.5 482,-342.5"/>
<text text-anchor="middle" x="540" y="-349.5" font-family="Helvetica,sans-Serif" font-size="10.00">irc::handler::AdminPart</text>
</a>
</g>
</g>
<!-- Node9&#45;&gt;Node32 -->
<g id="edge31" class="edge"><title>Node9&#45;&gt;Node32</title>
<path fill="none" stroke="midnightblue" d="M368.563,-598.862C389.086,-543.658 448.434,-387.041 467,-371 471.5,-367.112 476.707,-364.008 482.223,-361.531"/>
<polygon fill="midnightblue" stroke="midnightblue" points="365.192,-597.885 364.999,-608.478 371.756,-600.318 365.192,-597.885"/>
</g>
<!-- Node33 -->
<g id="node33" class="node"><title>Node33</title>
<g id="a_node33"><a xlink:href="classirc_1_1handler_1_1AdminRaw.html" target="_top" xlink:title="Makes the bot execute a raw command (IRC) ">
<polygon fill="none" stroke="black" points="480.5,-304.5 480.5,-323.5 599.5,-323.5 599.5,-304.5 480.5,-304.5"/>
<text text-anchor="middle" x="540" y="-311.5" font-family="Helvetica,sans-Serif" font-size="10.00">irc::handler::AdminRaw</text>
</a>
</g>
</g>
<!-- Node9&#45;&gt;Node33 -->
<g id="edge32" class="edge"><title>Node9&#45;&gt;Node33</title>
<path fill="none" stroke="midnightblue" d="M368.631,-598.555C392.126,-534.512 465.687,-334.192 467,-333 471.212,-329.177 476.102,-326.106 481.315,-323.643"/>
<polygon fill="midnightblue" stroke="midnightblue" points="365.238,-597.643 365.08,-608.237 371.81,-600.054 365.238,-597.643"/>
</g>
<!-- Node34 -->
<g id="node34" class="node"><title>Node34</title>
<g id="a_node34"><a xlink:href="classirc_1_1handler_1_1WhoisCheckMe.html" target="_top" xlink:title="Sends a WHOIS about the message sender. ">
<polygon fill="none" stroke="black" points="470,-266.5 470,-285.5 610,-285.5 610,-266.5 470,-266.5"/>
<text text-anchor="middle" x="540" y="-273.5" font-family="Helvetica,sans-Serif" font-size="10.00">irc::handler::WhoisCheckMe</text>
</a>
</g>
</g>
<!-- Node9&#45;&gt;Node34 -->
<g id="edge33" class="edge"><title>Node9&#45;&gt;Node34</title>
<path fill="none" stroke="midnightblue" d="M369.248,-598.548C382.724,-564.36 410.95,-491.132 431,-428 449.536,-369.634 423.561,-338.165 467,-295 470.852,-291.173 475.377,-288.09 480.252,-285.61"/>
<polygon fill="midnightblue" stroke="midnightblue" points="365.849,-597.627 365.421,-608.214 372.357,-600.205 365.849,-597.627"/>
</g>
<!-- Node35 -->
<g id="node35" class="node"><title>Node35</title>
<g id="a_node35"><a xlink:href="classxonotic_1_1RconCommand.html" target="_top" xlink:title="Send a fixed rcon command to a Xonotic connection. ">
<polygon fill="none" stroke="black" points="479,-228.5 479,-247.5 601,-247.5 601,-228.5 479,-228.5"/>
<text text-anchor="middle" x="540" y="-235.5" font-family="Helvetica,sans-Serif" font-size="10.00">xonotic::RconCommand</text>
</a>
</g>
</g>
<!-- Node9&#45;&gt;Node35 -->
<g id="edge34" class="edge"><title>Node9&#45;&gt;Node35</title>
<path fill="none" stroke="midnightblue" d="M369.623,-598.661C383.673,-564.647 412.753,-491.677 431,-428 452.395,-353.339 413.486,-313.287 467,-257 470.652,-253.159 474.981,-250.06 479.677,-247.566"/>
<polygon fill="midnightblue" stroke="midnightblue" points="366.234,-597.697 365.623,-608.275 372.696,-600.387 366.234,-597.697"/>
</g>
<!-- Node38 -->
<g id="node38" class="node"><title>Node38</title>
<g id="a_node38"><a xlink:href="classirc_1_1handler_1_1CtcpClientInfo.html" target="_top" xlink:title="Shows help about other CTCP handlers. ">
<polygon fill="none" stroke="black" points="473,-190.5 473,-209.5 607,-209.5 607,-190.5 473,-190.5"/>
<text text-anchor="middle" x="540" y="-197.5" font-family="Helvetica,sans-Serif" font-size="10.00">irc::handler::CtcpClientInfo</text>
</a>
</g>
</g>
<!-- Node37&#45;&gt;Node38 -->
<g id="edge37" class="edge"><title>Node37&#45;&gt;Node38</title>
<path fill="none" stroke="midnightblue" d="M426.344,-356.064C427.984,-354.813 429.542,-353.461 431,-352 474.247,-308.644 423.561,-262.165 467,-219 470.852,-215.173 475.377,-212.09 480.252,-209.61"/>
<polygon fill="midnightblue" stroke="midnightblue" points="424.21,-353.268 417.55,-361.508 427.895,-359.22 424.21,-353.268"/>
</g>
<!-- Node39 -->
<g id="node39" class="node"><title>Node39</title>
<g id="a_node39"><a xlink:href="classirc_1_1handler_1_1CtcpPing.html" target="_top" xlink:title="CTCP PING reply, Used to measure round&#45;trip message delays. ">
<polygon fill="none" stroke="black" points="484.5,-152.5 484.5,-171.5 595.5,-171.5 595.5,-152.5 484.5,-152.5"/>
<text text-anchor="middle" x="540" y="-159.5" font-family="Helvetica,sans-Serif" font-size="10.00">irc::handler::CtcpPing</text>
</a>
</g>
</g>
<!-- Node37&#45;&gt;Node39 -->
<g id="edge38" class="edge"><title>Node37&#45;&gt;Node39</title>
<path fill="none" stroke="midnightblue" d="M426.454,-356.171C428.063,-354.889 429.585,-353.502 431,-352 484.264,-295.476 413.486,-237.287 467,-181 471.81,-175.941 477.795,-172.17 484.244,-169.37"/>
<polygon fill="midnightblue" stroke="midnightblue" points="424.31,-353.388 417.781,-361.732 428.088,-359.281 424.31,-353.388"/>
</g>
<!-- Node40 -->
<g id="node40" class="node"><title>Node40</title>
<g id="a_node40"><a xlink:href="classirc_1_1handler_1_1CtcpSource.html" target="_top" xlink:title="CTCP SOURCE reply, shows a URL with the sources. ">
<polygon fill="none" stroke="black" points="479,-114.5 479,-133.5 601,-133.5 601,-114.5 479,-114.5"/>
<text text-anchor="middle" x="540" y="-121.5" font-family="Helvetica,sans-Serif" font-size="10.00">irc::handler::CtcpSource</text>
</a>
</g>
</g>
<!-- Node37&#45;&gt;Node40 -->
<g id="edge39" class="edge"><title>Node37&#45;&gt;Node40</title>
<path fill="none" stroke="midnightblue" d="M426.419,-356.327C428.047,-355.002 429.581,-353.563 431,-352 494.365,-282.22 403.327,-212.499 467,-143 470.493,-139.187 474.653,-136.102 479.185,-133.61"/>
<polygon fill="midnightblue" stroke="midnightblue" points="424.085,-353.669 417.6,-362.048 427.895,-359.542 424.085,-353.669"/>
</g>
<!-- Node41 -->
<g id="node41" class="node"><title>Node41</title>
<g id="a_node41"><a xlink:href="classirc_1_1handler_1_1CtcpTime.html" target="_top" xlink:title="CTCP TIME reply, Shows the local time. ">
<polygon fill="none" stroke="black" points="483.5,-76.5 483.5,-95.5 596.5,-95.5 596.5,-76.5 483.5,-76.5"/>
<text text-anchor="middle" x="540" y="-83.5" font-family="Helvetica,sans-Serif" font-size="10.00">irc::handler::CtcpTime</text>
</a>
</g>
</g>
<!-- Node37&#45;&gt;Node41 -->
<g id="edge40" class="edge"><title>Node37&#45;&gt;Node41</title>
<path fill="none" stroke="midnightblue" d="M426.473,-356.375C428.085,-355.036 429.601,-353.581 431,-352 504.511,-268.914 393.122,-187.76 467,-105 471.477,-99.985 477.106,-96.2234 483.234,-93.4129"/>
<polygon fill="midnightblue" stroke="midnightblue" points="424.136,-353.723 417.711,-362.147 427.987,-359.568 424.136,-353.723"/>
</g>
<!-- Node42 -->
<g id="node42" class="node"><title>Node42</title>
<g id="a_node42"><a xlink:href="classirc_1_1handler_1_1CtcpUserInfo.html" target="_top" xlink:title="CTCP USERINFO reply, shows a user&#45;defined string. ">
<polygon fill="none" stroke="black" points="475.5,-38.5 475.5,-57.5 604.5,-57.5 604.5,-38.5 475.5,-38.5"/>
<text text-anchor="middle" x="540" y="-45.5" font-family="Helvetica,sans-Serif" font-size="10.00">irc::handler::CtcpUserInfo</text>
</a>
</g>
</g>
<!-- Node37&#45;&gt;Node42 -->
<g id="edge41" class="edge"><title>Node37&#45;&gt;Node42</title>
<path fill="none" stroke="midnightblue" d="M426.512,-356.41C428.113,-355.061 429.616,-353.594 431,-352 514.685,-255.578 382.889,-163.051 467,-67 470.322,-63.2069 474.302,-60.1285 478.664,-57.6352"/>
<polygon fill="midnightblue" stroke="midnightblue" points="424.175,-353.761 417.793,-362.219 428.056,-359.587 424.175,-353.761"/>
</g>
<!-- Node43 -->
<g id="node43" class="node"><title>Node43</title>
<g id="a_node43"><a xlink:href="classirc_1_1handler_1_1CtcpVersion.html" target="_top" xlink:title="CTCP VERSION reply, shows a pre&#45;formatted version string. ">
<polygon fill="none" stroke="black" points="477.5,-0.5 477.5,-19.5 602.5,-19.5 602.5,-0.5 477.5,-0.5"/>
<text text-anchor="middle" x="540" y="-7.5" font-family="Helvetica,sans-Serif" font-size="10.00">irc::handler::CtcpVersion</text>
</a>
</g>
</g>
<!-- Node37&#45;&gt;Node43 -->
<g id="edge42" class="edge"><title>Node37&#45;&gt;Node43</title>
<path fill="none" stroke="midnightblue" d="M426.027,-356.869C427.813,-355.395 429.481,-353.777 431,-352 524.876,-242.221 372.639,-138.363 467,-29 470.294,-25.1827 474.255,-22.0874 478.604,-19.5829"/>
<polygon fill="midnightblue" stroke="midnightblue" points="423.965,-354.035 417.525,-362.448 427.806,-359.888 423.965,-354.035"/>
</g>
</g>
</svg>
