<?xml version="1.0" encoding="UTF-8" standalone="no"?>
<!DOCTYPE svg PUBLIC "-//W3C//DTD SVG 1.1//EN"
 "http://www.w3.org/Graphics/SVG/1.1/DTD/svg11.dtd">
<!-- Generated by graphviz version 2.38.0 (20140413.2041)
 -->
<!-- Title: src/string/color.hpp Pages: 1 -->
<svg width="2091pt" height="520pt"
 viewBox="0.00 0.00 2091.00 520.00" xmlns="http://www.w3.org/2000/svg" xmlns:xlink="http://www.w3.org/1999/xlink">
<g id="graph0" class="graph" transform="scale(1 1) rotate(0) translate(4 516)">
<title>src/string/color.hpp</title>
<!-- Node1 -->
<g id="node1" class="node"><title>Node1</title>
<polygon fill="#bfbfbf" stroke="black" points="1182.5,-492.5 1182.5,-511.5 1282.5,-511.5 1282.5,-492.5 1182.5,-492.5"/>
<text text-anchor="middle" x="1232.5" y="-499.5" font-family="Helvetica,sans-Serif" font-size="10.00">src/string/color.hpp</text>
</g>
<!-- Node2 -->
<g id="node2" class="node"><title>Node2</title>
<g id="a_node2"><a xlink:href="color_8cpp.html" target="_top" xlink:title="src/string/color.cpp">
<polygon fill="none" stroke="black" points="1122.5,-436.5 1122.5,-455.5 1222.5,-455.5 1222.5,-436.5 1122.5,-436.5"/>
<text text-anchor="middle" x="1172.5" y="-443.5" font-family="Helvetica,sans-Serif" font-size="10.00">src/string/color.cpp</text>
</a>
</g>
</g>
<!-- Node1&#45;&gt;Node2 -->
<g id="edge1" class="edge"><title>Node1&#45;&gt;Node2</title>
<path fill="none" stroke="midnightblue" d="M1215.32,-485.537C1204.62,-475.909 1191.24,-463.869 1182.32,-455.834"/>
<polygon fill="midnightblue" stroke="midnightblue" points="1213.09,-488.236 1222.86,-492.324 1217.77,-483.033 1213.09,-488.236"/>
</g>
<!-- Node3 -->
<g id="node3" class="node"><title>Node3</title>
<g id="a_node3"><a xlink:href="string_8hpp.html" target="_top" xlink:title="src/string/string.hpp">
<polygon fill="none" stroke="black" points="1241,-436.5 1241,-455.5 1344,-455.5 1344,-436.5 1241,-436.5"/>
<text text-anchor="middle" x="1292.5" y="-443.5" font-family="Helvetica,sans-Serif" font-size="10.00">src/string/string.hpp</text>
</a>
</g>
</g>
<!-- Node1&#45;&gt;Node3 -->
<g id="edge2" class="edge"><title>Node1&#45;&gt;Node3</title>
<path fill="none" stroke="midnightblue" d="M1249.68,-485.537C1260.38,-475.909 1273.76,-463.869 1282.68,-455.834"/>
<polygon fill="midnightblue" stroke="midnightblue" points="1247.23,-483.033 1242.14,-492.324 1251.91,-488.236 1247.23,-483.033"/>
</g>
<!-- Node4 -->
<g id="node4" class="node"><title>Node4</title>
<g id="a_node4"><a xlink:href="string_8cpp.html" target="_top" xlink:title="src/string/string.cpp">
<polygon fill="none" stroke="black" points="775,-324.5 775,-343.5 878,-343.5 878,-324.5 775,-324.5"/>
<text text-anchor="middle" x="826.5" y="-331.5" font-family="Helvetica,sans-Serif" font-size="10.00">src/string/string.cpp</text>
</a>
</g>
</g>
<!-- Node3&#45;&gt;Node4 -->
<g id="edge3" class="edge"><title>Node3&#45;&gt;Node4</title>
<path fill="none" stroke="midnightblue" d="M1246.39,-434.116C1153.68,-412.231 946.42,-363.307 862.655,-343.535"/>
<polygon fill="midnightblue" stroke="midnightblue" points="1245.78,-437.569 1256.32,-436.46 1247.39,-430.756 1245.78,-437.569"/>
</g>
<!-- Node5 -->
<g id="node5" class="node"><title>Node5</title>
<g id="a_node5"><a xlink:href="logger_8hpp.html" target="_top" xlink:title="src/string/logger.hpp">
<polygon fill="none" stroke="black" points="1240,-380.5 1240,-399.5 1345,-399.5 1345,-380.5 1240,-380.5"/>
<text text-anchor="middle" x="1292.5" y="-387.5" font-family="Helvetica,sans-Serif" font-size="10.00">src/string/logger.hpp</text>
</a>
</g>
</g>
<!-- Node3&#45;&gt;Node5 -->
<g id="edge4" class="edge"><title>Node3&#45;&gt;Node5</title>
<path fill="none" stroke="midnightblue" d="M1292.5,-425.805C1292.5,-416.91 1292.5,-406.78 1292.5,-399.751"/>
<polygon fill="midnightblue" stroke="midnightblue" points="1289,-426.083 1292.5,-436.083 1296,-426.083 1289,-426.083"/>
</g>
<!-- Node7 -->
<g id="node7" class="node"><title>Node7</title>
<g id="a_node7"><a xlink:href="src_2network_2connection_8hpp.html" target="_top" xlink:title="src/network/connection.hpp">
<polygon fill="none" stroke="black" points="953,-324.5 953,-343.5 1090,-343.5 1090,-324.5 953,-324.5"/>
<text text-anchor="middle" x="1021.5" y="-331.5" font-family="Helvetica,sans-Serif" font-size="10.00">src/network/connection.hpp</text>
</a>
</g>
</g>
<!-- Node3&#45;&gt;Node7 -->
<g id="edge58" class="edge"><title>Node3&#45;&gt;Node7</title>
<path fill="none" stroke="midnightblue" d="M1261.92,-432.586C1206.4,-410.05 1090.36,-362.951 1042.67,-343.591"/>
<polygon fill="midnightblue" stroke="midnightblue" points="1260.65,-435.85 1271.24,-436.368 1263.29,-429.364 1260.65,-435.85"/>
</g>
<!-- Node38 -->
<g id="node38" class="node"><title>Node38</title>
<g id="a_node38"><a xlink:href="irc__formatter_8hpp.html" target="_top" xlink:title="modules/irc/irc_formatter.hpp">
<polygon fill="none" stroke="black" points="1840,-380.5 1840,-399.5 1983,-399.5 1983,-380.5 1840,-380.5"/>
<text text-anchor="middle" x="1911.5" y="-387.5" font-family="Helvetica,sans-Serif" font-size="10.00">modules/irc/irc_formatter.hpp</text>
</a>
</g>
</g>
<!-- Node3&#45;&gt;Node38 -->
<g id="edge59" class="edge"><title>Node3&#45;&gt;Node38</title>
<path fill="none" stroke="midnightblue" d="M1354.29,-439.61C1469.69,-429.543 1717.33,-407.939 1839.84,-397.251"/>
<polygon fill="midnightblue" stroke="midnightblue" points="1353.87,-436.133 1344.21,-440.489 1354.48,-443.106 1353.87,-436.133"/>
</g>
<!-- Node40 -->
<g id="node40" class="node"><title>Node40</title>
<g id="a_node40"><a xlink:href="formatter_8hpp.html" target="_top" xlink:title="modules/xonotic/formatter.hpp">
<polygon fill="none" stroke="black" points="1572,-380.5 1572,-399.5 1721,-399.5 1721,-380.5 1572,-380.5"/>
<text text-anchor="middle" x="1646.5" y="-387.5" font-family="Helvetica,sans-Serif" font-size="10.00">modules/xonotic/formatter.hpp</text>
</a>
</g>
</g>
<!-- Node3&#45;&gt;Node40 -->
<g id="edge62" class="edge"><title>Node3&#45;&gt;Node40</title>
<path fill="none" stroke="midnightblue" d="M1354.32,-435.57C1421.05,-425.39 1526.41,-409.319 1590.71,-399.511"/>
<polygon fill="midnightblue" stroke="midnightblue" points="1353.71,-432.122 1344.35,-437.09 1354.77,-439.042 1353.71,-432.122"/>
</g>
<!-- Node5&#45;&gt;Node4 -->
<g id="edge5" class="edge"><title>Node5&#45;&gt;Node4</title>
<path fill="none" stroke="midnightblue" d="M1229.47,-382.372C1150.61,-373.972 1011.46,-358.801 892.5,-344 887.795,-343.415 882.904,-342.786 878.007,-342.143"/>
<polygon fill="midnightblue" stroke="midnightblue" points="1229.4,-385.884 1239.72,-383.461 1230.14,-378.924 1229.4,-385.884"/>
</g>
<!-- Node6 -->
<g id="node6" class="node"><title>Node6</title>
<g id="a_node6"><a xlink:href="logger_8cpp.html" target="_top" xlink:title="src/string/logger.cpp">
<polygon fill="none" stroke="black" points="1300,-324.5 1300,-343.5 1405,-343.5 1405,-324.5 1300,-324.5"/>
<text text-anchor="middle" x="1352.5" y="-331.5" font-family="Helvetica,sans-Serif" font-size="10.00">src/string/logger.cpp</text>
</a>
</g>
</g>
<!-- Node5&#45;&gt;Node6 -->
<g id="edge6" class="edge"><title>Node5&#45;&gt;Node6</title>
<path fill="none" stroke="midnightblue" d="M1309.68,-373.537C1320.38,-363.909 1333.76,-351.869 1342.68,-343.834"/>
<polygon fill="midnightblue" stroke="midnightblue" points="1307.23,-371.033 1302.14,-380.324 1311.91,-376.236 1307.23,-371.033"/>
</g>
<!-- Node5&#45;&gt;Node7 -->
<g id="edge7" class="edge"><title>Node5&#45;&gt;Node7</title>
<path fill="none" stroke="midnightblue" d="M1239.67,-378.473C1188.46,-368.268 1111.73,-352.979 1064.24,-343.516"/>
<polygon fill="midnightblue" stroke="midnightblue" points="1239.07,-381.922 1249.56,-380.444 1240.44,-375.057 1239.07,-381.922"/>
</g>
<!-- Node10 -->
<g id="node10" class="node"><title>Node10</title>
<g id="a_node10"><a xlink:href="handler_8hpp.html" target="_top" xlink:title="src/handler/handler.hpp">
<polygon fill="none" stroke="black" points="800.5,-196 800.5,-215 918.5,-215 918.5,-196 800.5,-196"/>
<text text-anchor="middle" x="859.5" y="-203" font-family="Helvetica,sans-Serif" font-size="10.00">src/handler/handler.hpp</text>
</a>
</g>
</g>
<!-- Node5&#45;&gt;Node10 -->
<g id="edge42" class="edge"><title>Node5&#45;&gt;Node10</title>
<path fill="none" stroke="midnightblue" d="M1229.8,-387.333C1142.4,-383.942 989.477,-373.816 943.5,-344 894.212,-312.037 869.262,-239.988 861.888,-215.127"/>
<polygon fill="midnightblue" stroke="midnightblue" points="1229.74,-390.833 1239.87,-387.704 1230,-383.837 1229.74,-390.833"/>
</g>
<!-- Node27 -->
<g id="node27" class="node"><title>Node27</title>
<g id="a_node27"><a xlink:href="main_8cpp.html" target="_top" xlink:title="src/main.cpp">
<polygon fill="none" stroke="black" points="1447,-196 1447,-215 1520,-215 1520,-196 1447,-196"/>
<text text-anchor="middle" x="1483.5" y="-203" font-family="Helvetica,sans-Serif" font-size="10.00">src/main.cpp</text>
</a>
</g>
</g>
<!-- Node5&#45;&gt;Node27 -->
<g id="edge47" class="edge"><title>Node5&#45;&gt;Node27</title>
<path fill="none" stroke="midnightblue" d="M1355.29,-385.141C1386.9,-379.992 1423.51,-368.635 1447.5,-344 1483.31,-307.229 1484.69,-239.44 1483.95,-215.311"/>
<polygon fill="midnightblue" stroke="midnightblue" points="1354.61,-381.702 1345.22,-386.603 1355.62,-388.629 1354.61,-381.702"/>
</g>
<!-- Node30 -->
<g id="node30" class="node"><title>Node30</title>
<g id="a_node30"><a xlink:href="connection_8cpp.html" target="_top" xlink:title="modules/irc/network\l/connection.cpp">
<polygon fill="none" stroke="black" points="1314.5,-123.5 1314.5,-153.5 1418.5,-153.5 1418.5,-123.5 1314.5,-123.5"/>
<text text-anchor="start" x="1322.5" y="-141.5" font-family="Helvetica,sans-Serif" font-size="10.00">modules/irc/network</text>
<text text-anchor="middle" x="1366.5" y="-130.5" font-family="Helvetica,sans-Serif" font-size="10.00">/connection.cpp</text>
</a>
</g>
</g>
<!-- Node5&#45;&gt;Node30 -->
<g id="edge55" class="edge"><title>Node5&#45;&gt;Node30</title>
<path fill="none" stroke="midnightblue" d="M1354.86,-380.743C1377.13,-374.451 1400.02,-363.398 1413.5,-344 1456.02,-282.826 1400.61,-188.89 1376.6,-153.571"/>
<polygon fill="midnightblue" stroke="midnightblue" points="1353.88,-377.381 1345.05,-383.235 1355.6,-384.166 1353.88,-377.381"/>
</g>
<!-- Node31 -->
<g id="node31" class="node"><title>Node31</title>
<g id="a_node31"><a xlink:href="buffer_8hpp.html" target="_top" xlink:title="modules/irc/network\l/buffer.hpp">
<polygon fill="none" stroke="black" points="1126.5,-257.5 1126.5,-287.5 1230.5,-287.5 1230.5,-257.5 1126.5,-257.5"/>
<text text-anchor="start" x="1134.5" y="-275.5" font-family="Helvetica,sans-Serif" font-size="10.00">modules/irc/network</text>
<text text-anchor="middle" x="1178.5" y="-264.5" font-family="Helvetica,sans-Serif" font-size="10.00">/buffer.hpp</text>
</a>
</g>
</g>
<!-- Node5&#45;&gt;Node31 -->
<g id="edge57" class="edge"><title>Node5&#45;&gt;Node31</title>
<path fill="none" stroke="midnightblue" d="M1230.08,-381.514C1206.82,-375.35 1182.65,-364.184 1168.5,-344 1156.79,-327.297 1164.33,-302.838 1171.17,-287.56"/>
<polygon fill="midnightblue" stroke="midnightblue" points="1229.42,-384.955 1239.96,-383.861 1231.04,-378.145 1229.42,-384.955"/>
</g>
<!-- Node32 -->
<g id="node32" class="node"><title>Node32</title>
<g id="a_node32"><a xlink:href="settings_8cpp.html" target="_top" xlink:title="src/settings.cpp">
<polygon fill="none" stroke="black" points="1248.5,-263 1248.5,-282 1334.5,-282 1334.5,-263 1248.5,-263"/>
<text text-anchor="middle" x="1291.5" y="-270" font-family="Helvetica,sans-Serif" font-size="10.00">src/settings.cpp</text>
</a>
</g>
</g>
<!-- Node5&#45;&gt;Node32 -->
<g id="edge43" class="edge"><title>Node5&#45;&gt;Node32</title>
<path fill="none" stroke="midnightblue" d="M1229.98,-379.579C1209.14,-373.131 1188.05,-362.275 1175.5,-344 1170.47,-336.673 1170.63,-331.435 1175.5,-324 1185.55,-308.66 1231.85,-291.843 1262.83,-282.005"/>
<polygon fill="midnightblue" stroke="midnightblue" points="1229.26,-383.011 1239.83,-382.323 1231.14,-376.268 1229.26,-383.011"/>
</g>
<!-- Node33 -->
<g id="node33" class="node"><title>Node33</title>
<g id="a_node33"><a xlink:href="json_8hpp.html" target="_top" xlink:title="src/string/json.hpp">
<polygon fill="none" stroke="black" points="1185,-324.5 1185,-343.5 1282,-343.5 1282,-324.5 1185,-324.5"/>
<text text-anchor="middle" x="1233.5" y="-331.5" font-family="Helvetica,sans-Serif" font-size="10.00">src/string/json.hpp</text>
</a>
</g>
</g>
<!-- Node5&#45;&gt;Node33 -->
<g id="edge44" class="edge"><title>Node5&#45;&gt;Node33</title>
<path fill="none" stroke="midnightblue" d="M1275.61,-373.537C1265.09,-363.909 1251.93,-351.869 1243.15,-343.834"/>
<polygon fill="midnightblue" stroke="midnightblue" points="1273.28,-376.154 1283.02,-380.324 1278.01,-370.99 1273.28,-376.154"/>
</g>
<!-- Node34 -->
<g id="node34" class="node"><title>Node34</title>
<g id="a_node34"><a xlink:href="async__service_8hpp.html" target="_top" xlink:title="src/network/async_service.hpp">
<polygon fill="none" stroke="black" points="1499.5,-263 1499.5,-282 1651.5,-282 1651.5,-263 1499.5,-263"/>
<text text-anchor="middle" x="1575.5" y="-270" font-family="Helvetica,sans-Serif" font-size="10.00">src/network/async_service.hpp</text>
</a>
</g>
</g>
<!-- Node5&#45;&gt;Node34 -->
<g id="edge48" class="edge"><title>Node5&#45;&gt;Node34</title>
<path fill="none" stroke="midnightblue" d="M1355.48,-381.393C1394.37,-375.006 1444.48,-363.65 1485.5,-344 1519.15,-327.878 1551.92,-297.414 1566.95,-282.368"/>
<polygon fill="midnightblue" stroke="midnightblue" points="1354.68,-377.977 1345.34,-382.989 1355.77,-384.892 1354.68,-377.977"/>
</g>
<!-- Node36 -->
<g id="node36" class="node"><title>Node36</title>
<g id="a_node36"><a xlink:href="http_8cpp.html" target="_top" xlink:title="modules/web/http.cpp">
<polygon fill="none" stroke="black" points="1623,-129 1623,-148 1736,-148 1736,-129 1623,-129"/>
<text text-anchor="middle" x="1679.5" y="-136" font-family="Helvetica,sans-Serif" font-size="10.00">modules/web/http.cpp</text>
</a>
</g>
</g>
<!-- Node5&#45;&gt;Node36 -->
<g id="edge54" class="edge"><title>Node5&#45;&gt;Node36</title>
<path fill="none" stroke="midnightblue" d="M1355.19,-379.553C1400.52,-371.964 1462.95,-359.943 1516.5,-344 1539.44,-337.17 1544.21,-332.725 1566.5,-324 1608.16,-307.692 1632.85,-323.172 1660.5,-288 1694.23,-245.087 1685.41,-172.651 1681.15,-148.004"/>
<polygon fill="midnightblue" stroke="midnightblue" points="1354.51,-376.119 1345.21,-381.199 1355.65,-383.025 1354.51,-376.119"/>
</g>
<!-- Node37 -->
<g id="node37" class="node"><title>Node37</title>
<g id="a_node37"><a xlink:href="xonotic_8cpp.html" target="_top" xlink:title="modules/xonotic/xonotic.cpp">
<polygon fill="none" stroke="black" points="1576,-324.5 1576,-343.5 1717,-343.5 1717,-324.5 1576,-324.5"/>
<text text-anchor="middle" x="1646.5" y="-331.5" font-family="Helvetica,sans-Serif" font-size="10.00">modules/xonotic/xonotic.cpp</text>
</a>
</g>
</g>
<!-- Node5&#45;&gt;Node37 -->
<g id="edge56" class="edge"><title>Node5&#45;&gt;Node37</title>
<path fill="none" stroke="midnightblue" d="M1355.09,-379.453C1421.85,-369.269 1526.62,-353.287 1590.67,-343.516"/>
<polygon fill="midnightblue" stroke="midnightblue" points="1354.47,-376.006 1345.12,-380.974 1355.53,-382.926 1354.47,-376.006"/>
</g>
<!-- Node8 -->
<g id="node8" class="node"><title>Node8</title>
<g id="a_node8"><a xlink:href="melanobot_8hpp.html" target="_top" xlink:title="src/melanobot.hpp">
<polygon fill="none" stroke="black" points="973,-263 973,-282 1070,-282 1070,-263 973,-263"/>
<text text-anchor="middle" x="1021.5" y="-270" font-family="Helvetica,sans-Serif" font-size="10.00">src/melanobot.hpp</text>
</a>
</g>
</g>
<!-- Node7&#45;&gt;Node8 -->
<g id="edge8" class="edge"><title>Node7&#45;&gt;Node8</title>
<path fill="none" stroke="midnightblue" d="M1021.5,-314.317C1021.5,-303.496 1021.5,-290.398 1021.5,-282.009"/>
<polygon fill="midnightblue" stroke="midnightblue" points="1018,-314.475 1021.5,-324.475 1025,-314.475 1018,-314.475"/>
</g>
<!-- Node7&#45;&gt;Node10 -->
<g id="edge37" class="edge"><title>Node7&#45;&gt;Node10</title>
<path fill="none" stroke="midnightblue" d="M1002.44,-318.247C991.113,-309.474 976.475,-298.117 963.5,-288 929.491,-261.482 889.345,-229.959 870.417,-215.083"/>
<polygon fill="midnightblue" stroke="midnightblue" points="1000.32,-321.034 1010.37,-324.389 1004.61,-315.499 1000.32,-321.034"/>
</g>
<!-- Node28 -->
<g id="node28" class="node"><title>Node28</title>
<g id="a_node28"><a xlink:href="modules_2irc_2network_2connection_8hpp.html" target="_top" xlink:title="modules/irc/network\l/connection.hpp">
<polygon fill="none" stroke="black" points="1112.5,-190.5 1112.5,-220.5 1216.5,-220.5 1216.5,-190.5 1112.5,-190.5"/>
<text text-anchor="start" x="1120.5" y="-208.5" font-family="Helvetica,sans-Serif" font-size="10.00">modules/irc/network</text>
<text text-anchor="middle" x="1164.5" y="-197.5" font-family="Helvetica,sans-Serif" font-size="10.00">/connection.hpp</text>
</a>
</g>
</g>
<!-- Node7&#45;&gt;Node28 -->
<g id="edge41" class="edge"><title>Node7&#45;&gt;Node28</title>
<path fill="none" stroke="midnightblue" d="M1041.31,-318.066C1052.44,-309.504 1066.46,-298.417 1078.5,-288 1104.63,-265.385 1133.5,-237.353 1150.26,-220.753"/>
<polygon fill="midnightblue" stroke="midnightblue" points="1038.93,-315.482 1033.1,-324.331 1043.17,-321.047 1038.93,-315.482"/>
</g>
<!-- Node7&#45;&gt;Node31 -->
<g id="edge38" class="edge"><title>Node7&#45;&gt;Node31</title>
<path fill="none" stroke="midnightblue" d="M1053.57,-320.847C1079.07,-311.182 1114.78,-297.647 1141.5,-287.523"/>
<polygon fill="midnightblue" stroke="midnightblue" points="1052.1,-317.658 1043.99,-324.475 1054.59,-324.204 1052.1,-317.658"/>
</g>
<!-- Node9 -->
<g id="node9" class="node"><title>Node9</title>
<g id="a_node9"><a xlink:href="melanobot_8cpp.html" target="_top" xlink:title="src/melanobot.cpp">
<polygon fill="none" stroke="black" points="1039,-129 1039,-148 1136,-148 1136,-129 1039,-129"/>
<text text-anchor="middle" x="1087.5" y="-136" font-family="Helvetica,sans-Serif" font-size="10.00">src/melanobot.cpp</text>
</a>
</g>
</g>
<!-- Node8&#45;&gt;Node9 -->
<g id="edge9" class="edge"><title>Node8&#45;&gt;Node9</title>
<path fill="none" stroke="midnightblue" d="M1030.48,-253.54C1044.89,-224.717 1072.64,-169.224 1083.24,-148.021"/>
<polygon fill="midnightblue" stroke="midnightblue" points="1027.17,-252.33 1025.83,-262.839 1033.43,-255.46 1027.17,-252.33"/>
</g>
<!-- Node8&#45;&gt;Node10 -->
<g id="edge10" class="edge"><title>Node8&#45;&gt;Node10</title>
<path fill="none" stroke="midnightblue" d="M990.606,-259.104C958.441,-246.198 908.915,-226.327 880.843,-215.064"/>
<polygon fill="midnightblue" stroke="midnightblue" points="989.403,-262.393 999.988,-262.869 992.01,-255.896 989.403,-262.393"/>
</g>
<!-- Node8&#45;&gt;Node27 -->
<g id="edge32" class="edge"><title>Node8&#45;&gt;Node27</title>
<path fill="none" stroke="midnightblue" d="M1080.44,-262.476C1092.68,-260.635 1105.51,-258.733 1117.5,-257 1237.96,-239.593 1380.93,-220.246 1446.85,-211.398"/>
<polygon fill="midnightblue" stroke="midnightblue" points="1079.69,-259.05 1070.32,-264.003 1080.73,-265.972 1079.69,-259.05"/>
</g>
<!-- Node8&#45;&gt;Node28 -->
<g id="edge33" class="edge"><title>Node8&#45;&gt;Node28</title>
<path fill="none" stroke="midnightblue" d="M1049.83,-258.621C1074.02,-247.625 1108.75,-231.841 1133.64,-220.528"/>
<polygon fill="midnightblue" stroke="midnightblue" points="1048.14,-255.544 1040.49,-262.869 1051.04,-261.917 1048.14,-255.544"/>
</g>
<!-- Node10&#45;&gt;Node9 -->
<g id="edge11" class="edge"><title>Node10&#45;&gt;Node9</title>
<path fill="none" stroke="midnightblue" d="M899.519,-193.091C944.625,-180.232 1016.93,-159.618 1057.46,-148.064"/>
<polygon fill="midnightblue" stroke="midnightblue" points="898.434,-189.761 889.777,-195.869 900.353,-196.493 898.434,-189.761"/>
</g>
<!-- Node11 -->
<g id="node11" class="node"><title>Node11</title>
<g id="a_node11"><a xlink:href="misc_8cpp.html" target="_top" xlink:title="This file defines handlers which perform miscellaneous tasks. ">
<polygon fill="none" stroke="black" points="637,-129 637,-148 744,-148 744,-129 637,-129"/>
<text text-anchor="middle" x="690.5" y="-136" font-family="Helvetica,sans-Serif" font-size="10.00">src/handler/misc.cpp</text>
</a>
</g>
</g>
<!-- Node10&#45;&gt;Node11 -->
<g id="edge12" class="edge"><title>Node10&#45;&gt;Node11</title>
<path fill="none" stroke="midnightblue" d="M827.704,-192.271C794.162,-179.37 742.177,-159.376 712.766,-148.064"/>
<polygon fill="midnightblue" stroke="midnightblue" points="826.468,-195.545 837.058,-195.869 828.981,-189.012 826.468,-195.545"/>
</g>
<!-- Node12 -->
<g id="node12" class="node"><title>Node12</title>
<g id="a_node12"><a xlink:href="bridge_8hpp.html" target="_top" xlink:title="src/handler/bridge.hpp">
<polygon fill="none" stroke="black" points="0,-129 0,-148 113,-148 113,-129 0,-129"/>
<text text-anchor="middle" x="56.5" y="-136" font-family="Helvetica,sans-Serif" font-size="10.00">src/handler/bridge.hpp</text>
</a>
</g>
</g>
<!-- Node10&#45;&gt;Node12 -->
<g id="edge13" class="edge"><title>Node10&#45;&gt;Node12</title>
<path fill="none" stroke="midnightblue" d="M790.043,-203.242C658.788,-200.092 365.589,-189.369 121.5,-154 111.202,-152.508 100.111,-150.273 90.057,-148.001"/>
<polygon fill="midnightblue" stroke="midnightblue" points="790.268,-206.748 800.346,-203.481 790.43,-199.75 790.268,-206.748"/>
</g>
<!-- Node14 -->
<g id="node14" class="node"><title>Node14</title>
<g id="a_node14"><a xlink:href="admin_8cpp.html" target="_top" xlink:title="This file defines handlers which allows admin to administrate the bot. ">
<polygon fill="none" stroke="black" points="369,-129 369,-148 482,-148 482,-129 369,-129"/>
<text text-anchor="middle" x="425.5" y="-136" font-family="Helvetica,sans-Serif" font-size="10.00">src/handler/admin.cpp</text>
</a>
</g>
</g>
<!-- Node10&#45;&gt;Node14 -->
<g id="edge15" class="edge"><title>Node10&#45;&gt;Node14</title>
<path fill="none" stroke="midnightblue" d="M790.168,-196.661C715.998,-187.885 595.036,-172.447 491.5,-154 481.798,-152.271 471.357,-150.116 461.707,-148"/>
<polygon fill="midnightblue" stroke="midnightblue" points="789.976,-200.163 800.317,-197.855 790.794,-193.211 789.976,-200.163"/>
</g>
<!-- Node15 -->
<g id="node15" class="node"><title>Node15</title>
<g id="a_node15"><a xlink:href="handler_8cpp.html" target="_top" xlink:title="This file contains the definitions for the most basic and reusable handlers. ">
<polygon fill="none" stroke="black" points="500.5,-129 500.5,-148 618.5,-148 618.5,-129 500.5,-129"/>
<text text-anchor="middle" x="559.5" y="-136" font-family="Helvetica,sans-Serif" font-size="10.00">src/handler/handler.cpp</text>
</a>
</g>
</g>
<!-- Node10&#45;&gt;Node15 -->
<g id="edge16" class="edge"><title>Node10&#45;&gt;Node15</title>
<path fill="none" stroke="midnightblue" d="M810.129,-193.803C751.093,-181.012 653.459,-159.858 599.116,-148.083"/>
<polygon fill="midnightblue" stroke="midnightblue" points="809.457,-197.239 819.972,-195.936 810.94,-190.397 809.457,-197.239"/>
</g>
<!-- Node16 -->
<g id="node16" class="node"><title>Node16</title>
<g id="a_node16"><a xlink:href="fun-handlers_8hpp.html" target="_top" xlink:title="This file contains definitions for handlers which are pretty useless. ">
<polygon fill="none" stroke="black" points="1093,-62 1093,-81 1238,-81 1238,-62 1093,-62"/>
<text text-anchor="middle" x="1165.5" y="-69" font-family="Helvetica,sans-Serif" font-size="10.00">modules/fun/fun&#45;handlers.hpp</text>
</a>
</g>
</g>
<!-- Node10&#45;&gt;Node16 -->
<g id="edge17" class="edge"><title>Node10&#45;&gt;Node16</title>
<path fill="none" stroke="midnightblue" d="M898.799,-192.83C925.579,-184.054 961.33,-170.693 990.5,-154 1009.72,-143.002 1010.21,-133.878 1029.5,-123 1063.39,-103.882 1105.91,-89.4466 1134.3,-81.0048"/>
<polygon fill="midnightblue" stroke="midnightblue" points="897.462,-189.583 889.007,-195.966 899.598,-196.249 897.462,-189.583"/>
</g>
<!-- Node19 -->
<g id="node19" class="node"><title>Node19</title>
<g id="a_node19"><a xlink:href="web-api_8hpp.html" target="_top" xlink:title="modules/web/web&#45;api.hpp">
<polygon fill="none" stroke="black" points="1436.5,-129 1436.5,-148 1566.5,-148 1566.5,-129 1436.5,-129"/>
<text text-anchor="middle" x="1501.5" y="-136" font-family="Helvetica,sans-Serif" font-size="10.00">modules/web/web&#45;api.hpp</text>
</a>
</g>
</g>
<!-- Node10&#45;&gt;Node19 -->
<g id="edge20" class="edge"><title>Node10&#45;&gt;Node19</title>
<path fill="none" stroke="midnightblue" d="M928.649,-200.696C1035.86,-194.271 1248.51,-179.421 1427.5,-154 1438.78,-152.398 1450.93,-150.211 1462.07,-148.02"/>
<polygon fill="midnightblue" stroke="midnightblue" points="928.383,-197.206 918.607,-201.292 928.797,-204.194 928.383,-197.206"/>
</g>
<!-- Node22 -->
<g id="node22" class="node"><title>Node22</title>
<g id="a_node22"><a xlink:href="irc__actions_8hpp.html" target="_top" xlink:title="File containing Handlers which manage responses to various IRC commands. ">
<polygon fill="none" stroke="black" points="881,-123.5 881,-153.5 982,-153.5 982,-123.5 881,-123.5"/>
<text text-anchor="start" x="889" y="-141.5" font-family="Helvetica,sans-Serif" font-size="10.00">modules/irc/handler</text>
<text text-anchor="middle" x="931.5" y="-130.5" font-family="Helvetica,sans-Serif" font-size="10.00">/irc_actions.hpp</text>
</a>
</g>
</g>
<!-- Node10&#45;&gt;Node22 -->
<g id="edge24" class="edge"><title>Node10&#45;&gt;Node22</title>
<path fill="none" stroke="midnightblue" d="M876.749,-188.928C888.656,-178.179 904.359,-164.002 915.894,-153.589"/>
<polygon fill="midnightblue" stroke="midnightblue" points="874.288,-186.435 869.21,-195.734 878.978,-191.631 874.288,-186.435"/>
</g>
<!-- Node24 -->
<g id="node24" class="node"><title>Node24</title>
<g id="a_node24"><a xlink:href="ctcp_8hpp.html" target="_top" xlink:title="This files has handlers for CTCP messages. ">
<polygon fill="none" stroke="black" points="250,-123.5 250,-153.5 351,-153.5 351,-123.5 250,-123.5"/>
<text text-anchor="start" x="258" y="-141.5" font-family="Helvetica,sans-Serif" font-size="10.00">modules/irc/handler</text>
<text text-anchor="middle" x="300.5" y="-130.5" font-family="Helvetica,sans-Serif" font-size="10.00">/ctcp.hpp</text>
</a>
</g>
</g>
<!-- Node10&#45;&gt;Node24 -->
<g id="edge26" class="edge"><title>Node10&#45;&gt;Node24</title>
<path fill="none" stroke="midnightblue" d="M789.995,-200.571C693.037,-194.389 511.929,-180.295 359.5,-154 356.797,-153.534 354.035,-153.013 351.254,-152.453"/>
<polygon fill="midnightblue" stroke="midnightblue" points="790.053,-204.081 800.253,-201.215 790.492,-197.095 790.053,-204.081"/>
</g>
<!-- Node25 -->
<g id="node25" class="node"><title>Node25</title>
<g id="a_node25"><a xlink:href="irc__admin_8hpp.html" target="_top" xlink:title="This file defines handlers which allows admin to administrate the bot (IRC&#45;specific actions) ...">
<polygon fill="none" stroke="black" points="762,-123.5 762,-153.5 863,-153.5 863,-123.5 762,-123.5"/>
<text text-anchor="start" x="770" y="-141.5" font-family="Helvetica,sans-Serif" font-size="10.00">modules/irc/handler</text>
<text text-anchor="middle" x="812.5" y="-130.5" font-family="Helvetica,sans-Serif" font-size="10.00">/irc_admin.hpp</text>
</a>
</g>
</g>
<!-- Node10&#45;&gt;Node25 -->
<g id="edge28" class="edge"><title>Node10&#45;&gt;Node25</title>
<path fill="none" stroke="midnightblue" d="M847.103,-187.355C839.488,-176.824 829.855,-163.502 822.687,-153.589"/>
<polygon fill="midnightblue" stroke="midnightblue" points="844.466,-189.681 853.161,-195.734 850.138,-185.579 844.466,-189.681"/>
</g>
<!-- Node26 -->
<g id="node26" class="node"><title>Node26</title>
<g id="a_node26"><a xlink:href="irc__whois_8hpp.html" target="_top" xlink:title="This file contains handlers for WHOIS recognition on IRC. ">
<polygon fill="none" stroke="black" points="131,-123.5 131,-153.5 232,-153.5 232,-123.5 131,-123.5"/>
<text text-anchor="start" x="139" y="-141.5" font-family="Helvetica,sans-Serif" font-size="10.00">modules/irc/handler</text>
<text text-anchor="middle" x="181.5" y="-130.5" font-family="Helvetica,sans-Serif" font-size="10.00">/irc_whois.hpp</text>
</a>
</g>
</g>
<!-- Node10&#45;&gt;Node26 -->
<g id="edge30" class="edge"><title>Node10&#45;&gt;Node26</title>
<path fill="none" stroke="midnightblue" d="M790.162,-202.45C675.238,-198.247 438.332,-186.169 240.5,-154 237.793,-153.56 235.027,-153.06 232.243,-152.516"/>
<polygon fill="midnightblue" stroke="midnightblue" points="790.112,-205.95 800.23,-202.809 790.361,-198.955 790.112,-205.95"/>
</g>
<!-- Node13 -->
<g id="node13" class="node"><title>Node13</title>
<g id="a_node13"><a xlink:href="bridge_8cpp.html" target="_top" xlink:title="src/handler/bridge.cpp">
<polygon fill="none" stroke="black" points="0,-62 0,-81 113,-81 113,-62 0,-62"/>
<text text-anchor="middle" x="56.5" y="-69" font-family="Helvetica,sans-Serif" font-size="10.00">src/handler/bridge.cpp</text>
</a>
</g>
</g>
<!-- Node12&#45;&gt;Node13 -->
<g id="edge14" class="edge"><title>Node12&#45;&gt;Node13</title>
<path fill="none" stroke="midnightblue" d="M56.5,-118.537C56.5,-106.17 56.5,-90.6198 56.5,-81.1273"/>
<polygon fill="midnightblue" stroke="midnightblue" points="53.0001,-118.734 56.5,-128.734 60.0001,-118.734 53.0001,-118.734"/>
</g>
<!-- Node17 -->
<g id="node17" class="node"><title>Node17</title>
<g id="a_node17"><a xlink:href="fun-handlers_8cpp.html" target="_top" xlink:title="modules/fun/fun&#45;handlers.cpp">
<polygon fill="none" stroke="black" points="1054,-0.5 1054,-19.5 1199,-19.5 1199,-0.5 1054,-0.5"/>
<text text-anchor="middle" x="1126.5" y="-7.5" font-family="Helvetica,sans-Serif" font-size="10.00">modules/fun/fun&#45;handlers.cpp</text>
</a>
</g>
</g>
<!-- Node16&#45;&gt;Node17 -->
<g id="edge18" class="edge"><title>Node16&#45;&gt;Node17</title>
<path fill="none" stroke="midnightblue" d="M1154.36,-53.5051C1147.07,-42.388 1137.87,-28.3395 1132.08,-19.5091"/>
<polygon fill="midnightblue" stroke="midnightblue" points="1151.5,-55.5303 1159.91,-61.9751 1157.36,-51.6929 1151.5,-55.5303"/>
</g>
<!-- Node18 -->
<g id="node18" class="node"><title>Node18</title>
<g id="a_node18"><a xlink:href="fun_8cpp.html" target="_top" xlink:title="modules/fun/fun.cpp">
<polygon fill="none" stroke="black" points="1217,-0.5 1217,-19.5 1322,-19.5 1322,-0.5 1217,-0.5"/>
<text text-anchor="middle" x="1269.5" y="-7.5" font-family="Helvetica,sans-Serif" font-size="10.00">modules/fun/fun.cpp</text>
</a>
</g>
</g>
<!-- Node16&#45;&gt;Node18 -->
<g id="edge19" class="edge"><title>Node16&#45;&gt;Node18</title>
<path fill="none" stroke="midnightblue" d="M1189.27,-56.9006C1209.38,-45.3957 1237.57,-29.2667 1254.63,-19.5091"/>
<polygon fill="midnightblue" stroke="midnightblue" points="1187.34,-53.9712 1180.4,-61.9751 1190.82,-60.0471 1187.34,-53.9712"/>
</g>
<!-- Node19&#45;&gt;Node16 -->
<g id="edge21" class="edge"><title>Node19&#45;&gt;Node16</title>
<path fill="none" stroke="midnightblue" d="M1448.04,-127.005C1441.13,-125.654 1434.15,-124.292 1427.5,-123 1351.11,-108.153 1262.15,-91.0442 1210.01,-81.0362"/>
<polygon fill="midnightblue" stroke="midnightblue" points="1447.58,-130.482 1458.07,-128.967 1448.93,-123.612 1447.58,-130.482"/>
</g>
<!-- Node20 -->
<g id="node20" class="node"><title>Node20</title>
<g id="a_node20"><a xlink:href="web-api-concrete_8hpp.html" target="_top" xlink:title="This files defines some simple Handlers using web APIs. ">
<polygon fill="none" stroke="black" points="1450,-56.5 1450,-86.5 1561,-86.5 1561,-56.5 1450,-56.5"/>
<text text-anchor="start" x="1458" y="-74.5" font-family="Helvetica,sans-Serif" font-size="10.00">modules/web/web&#45;api</text>
<text text-anchor="middle" x="1505.5" y="-63.5" font-family="Helvetica,sans-Serif" font-size="10.00">&#45;concrete.hpp</text>
</a>
</g>
</g>
<!-- Node19&#45;&gt;Node20 -->
<g id="edge22" class="edge"><title>Node19&#45;&gt;Node20</title>
<path fill="none" stroke="midnightblue" d="M1502.65,-118.739C1503.29,-108.487 1504.05,-96.0011 1504.63,-86.589"/>
<polygon fill="midnightblue" stroke="midnightblue" points="1499.16,-118.538 1502.04,-128.734 1506.15,-118.968 1499.16,-118.538"/>
</g>
<!-- Node21 -->
<g id="node21" class="node"><title>Node21</title>
<g id="a_node21"><a xlink:href="web_8cpp.html" target="_top" xlink:title="modules/web/web.cpp">
<polygon fill="none" stroke="black" points="1494.5,-0.5 1494.5,-19.5 1608.5,-19.5 1608.5,-0.5 1494.5,-0.5"/>
<text text-anchor="middle" x="1551.5" y="-7.5" font-family="Helvetica,sans-Serif" font-size="10.00">modules/web/web.cpp</text>
</a>
</g>
</g>
<!-- Node20&#45;&gt;Node21 -->
<g id="edge23" class="edge"><title>Node20&#45;&gt;Node21</title>
<path fill="none" stroke="midnightblue" d="M1522.58,-48.4043C1530.31,-38.411 1538.99,-27.1815 1544.81,-19.6578"/>
<polygon fill="midnightblue" stroke="midnightblue" points="1519.75,-46.3472 1516.4,-56.3993 1525.29,-50.6287 1519.75,-46.3472"/>
</g>
<!-- Node23 -->
<g id="node23" class="node"><title>Node23</title>
<g id="a_node23"><a xlink:href="irc_8cpp.html" target="_top" xlink:title="modules/irc/irc.cpp">
<polygon fill="none" stroke="black" points="822,-62 822,-81 921,-81 921,-62 822,-62"/>
<text text-anchor="middle" x="871.5" y="-69" font-family="Helvetica,sans-Serif" font-size="10.00">modules/irc/irc.cpp</text>
</a>
</g>
</g>
<!-- Node22&#45;&gt;Node23 -->
<g id="edge25" class="edge"><title>Node22&#45;&gt;Node23</title>
<path fill="none" stroke="midnightblue" d="M911.651,-115.997C900.699,-104.132 887.701,-90.0516 879.526,-81.1945"/>
<polygon fill="midnightblue" stroke="midnightblue" points="909.126,-118.422 918.481,-123.396 914.27,-113.674 909.126,-118.422"/>
</g>
<!-- Node24&#45;&gt;Node23 -->
<g id="edge27" class="edge"><title>Node24&#45;&gt;Node23</title>
<path fill="none" stroke="midnightblue" d="M361.357,-122.824C535.315,-93.6684 731.647,-80.1624 821.76,-75.0428"/>
<polygon fill="midnightblue" stroke="midnightblue" points="360.525,-119.415 351.252,-124.54 361.697,-126.316 360.525,-119.415"/>
</g>
<!-- Node25&#45;&gt;Node23 -->
<g id="edge29" class="edge"><title>Node25&#45;&gt;Node23</title>
<path fill="none" stroke="midnightblue" d="M832.327,-115.657C843.031,-103.865 855.645,-89.9672 863.608,-81.1945"/>
<polygon fill="midnightblue" stroke="midnightblue" points="829.432,-113.639 825.302,-123.396 834.615,-118.344 829.432,-113.639"/>
</g>
<!-- Node26&#45;&gt;Node23 -->
<g id="edge31" class="edge"><title>Node26&#45;&gt;Node23</title>
<path fill="none" stroke="midnightblue" d="M242.384,-122.853C462.859,-87.9474 716.265,-77.0188 821.681,-73.7619"/>
<polygon fill="midnightblue" stroke="midnightblue" points="241.562,-119.44 232.242,-124.479 242.67,-126.351 241.562,-119.44"/>
</g>
<!-- Node28&#45;&gt;Node23 -->
<g id="edge34" class="edge"><title>Node28&#45;&gt;Node23</title>
<path fill="none" stroke="midnightblue" d="M1165.16,-180.227C1164.27,-161.924 1159.93,-137.561 1144.5,-123 1112.95,-93.2238 990.802,-80.354 921.055,-75.3368"/>
<polygon fill="midnightblue" stroke="midnightblue" points="1161.66,-180.502 1165.33,-190.442 1168.66,-180.384 1161.66,-180.502"/>
</g>
<!-- Node29 -->
<g id="node29" class="node"><title>Node29</title>
<g id="a_node29"><a xlink:href="buffer_8cpp.html" target="_top" xlink:title="modules/irc/network\l/buffer.cpp">
<polygon fill="none" stroke="black" points="1192.5,-123.5 1192.5,-153.5 1296.5,-153.5 1296.5,-123.5 1192.5,-123.5"/>
<text text-anchor="start" x="1200.5" y="-141.5" font-family="Helvetica,sans-Serif" font-size="10.00">modules/irc/network</text>
<text text-anchor="middle" x="1244.5" y="-130.5" font-family="Helvetica,sans-Serif" font-size="10.00">/buffer.cpp</text>
</a>
</g>
</g>
<!-- Node28&#45;&gt;Node29 -->
<g id="edge35" class="edge"><title>Node28&#45;&gt;Node29</title>
<path fill="none" stroke="midnightblue" d="M1189.87,-183.883C1202.03,-174.005 1216.28,-162.429 1227.18,-153.577"/>
<polygon fill="midnightblue" stroke="midnightblue" points="1187.41,-181.374 1181.86,-190.396 1191.83,-186.806 1187.41,-181.374"/>
</g>
<!-- Node28&#45;&gt;Node30 -->
<g id="edge36" class="edge"><title>Node28&#45;&gt;Node30</title>
<path fill="none" stroke="midnightblue" d="M1218.18,-187.228C1250.85,-176.713 1292.07,-163.451 1322.75,-153.577"/>
<polygon fill="midnightblue" stroke="midnightblue" points="1216.78,-184.001 1208.33,-190.396 1218.92,-190.665 1216.78,-184.001"/>
</g>
<!-- Node31&#45;&gt;Node28 -->
<g id="edge40" class="edge"><title>Node31&#45;&gt;Node28</title>
<path fill="none" stroke="midnightblue" d="M1173.31,-247.403C1171.36,-238.37 1169.22,-228.408 1167.53,-220.577"/>
<polygon fill="midnightblue" stroke="midnightblue" points="1169.94,-248.357 1175.46,-257.396 1176.78,-246.883 1169.94,-248.357"/>
</g>
<!-- Node31&#45;&gt;Node29 -->
<g id="edge39" class="edge"><title>Node31&#45;&gt;Node29</title>
<path fill="none" stroke="midnightblue" d="M1203.06,-250.138C1211.29,-241.803 1219.81,-231.684 1225.5,-221 1237.11,-199.199 1241.68,-170.413 1243.44,-153.532"/>
<polygon fill="midnightblue" stroke="midnightblue" points="1200.44,-247.797 1195.67,-257.255 1205.3,-252.838 1200.44,-247.797"/>
</g>
<!-- Node33&#45;&gt;Node19 -->
<g id="edge46" class="edge"><title>Node33&#45;&gt;Node19</title>
<path fill="none" stroke="midnightblue" d="M1273.29,-321.238C1295.13,-313.705 1322.05,-302.591 1343.5,-288 1393.4,-254.058 1392.81,-230.567 1437.5,-190 1454.69,-174.398 1476.12,-158.061 1489.3,-148.333"/>
<polygon fill="midnightblue" stroke="midnightblue" points="1272.04,-317.967 1263.65,-324.446 1274.25,-324.608 1272.04,-317.967"/>
</g>
<!-- Node33&#45;&gt;Node32 -->
<g id="edge45" class="edge"><title>Node33&#45;&gt;Node32</title>
<path fill="none" stroke="midnightblue" d="M1249.1,-316.997C1260.08,-305.736 1274.34,-291.104 1283.21,-282.009"/>
<polygon fill="midnightblue" stroke="midnightblue" points="1246.28,-314.871 1241.81,-324.475 1251.3,-319.757 1246.28,-314.871"/>
</g>
<!-- Node34&#45;&gt;Node27 -->
<g id="edge49" class="edge"><title>Node34&#45;&gt;Node27</title>
<path fill="none" stroke="midnightblue" d="M1554.86,-256.92C1536.68,-244.069 1510.79,-225.782 1495.71,-215.127"/>
<polygon fill="midnightblue" stroke="midnightblue" points="1552.91,-259.822 1563.09,-262.734 1556.94,-254.105 1552.91,-259.822"/>
</g>
<!-- Node35 -->
<g id="node35" class="node"><title>Node35</title>
<g id="a_node35"><a xlink:href="http_8hpp.html" target="_top" xlink:title="modules/web/http.hpp">
<polygon fill="none" stroke="black" points="1538,-196 1538,-215 1651,-215 1651,-196 1538,-196"/>
<text text-anchor="middle" x="1594.5" y="-203" font-family="Helvetica,sans-Serif" font-size="10.00">modules/web/http.hpp</text>
</a>
</g>
</g>
<!-- Node34&#45;&gt;Node35 -->
<g id="edge50" class="edge"><title>Node34&#45;&gt;Node35</title>
<path fill="none" stroke="midnightblue" d="M1580.93,-252.915C1584.56,-240.488 1589.18,-224.717 1591.98,-215.127"/>
<polygon fill="midnightblue" stroke="midnightblue" points="1577.51,-252.153 1578.06,-262.734 1584.23,-254.117 1577.51,-252.153"/>
</g>
<!-- Node35&#45;&gt;Node19 -->
<g id="edge51" class="edge"><title>Node35&#45;&gt;Node19</title>
<path fill="none" stroke="midnightblue" d="M1573.64,-189.92C1555.25,-177.069 1529.09,-158.782 1513.84,-148.127"/>
<polygon fill="midnightblue" stroke="midnightblue" points="1571.76,-192.874 1581.96,-195.734 1575.77,-187.136 1571.76,-192.874"/>
</g>
<!-- Node35&#45;&gt;Node21 -->
<g id="edge52" class="edge"><title>Node35&#45;&gt;Node21</title>
<path fill="none" stroke="midnightblue" d="M1592.66,-185.901C1589.56,-157.501 1582.35,-101.795 1569.5,-56 1565.86,-43.038 1559.74,-28.7004 1555.66,-19.7699"/>
<polygon fill="midnightblue" stroke="midnightblue" points="1589.19,-186.404 1593.71,-195.988 1596.16,-185.679 1589.19,-186.404"/>
</g>
<!-- Node35&#45;&gt;Node36 -->
<g id="edge53" class="edge"><title>Node35&#45;&gt;Node36</title>
<path fill="none" stroke="midnightblue" d="M1614.03,-189.568C1630.8,-176.738 1654.41,-158.685 1668.22,-148.127"/>
<polygon fill="midnightblue" stroke="midnightblue" points="1611.78,-186.879 1605.96,-195.734 1616.03,-192.44 1611.78,-186.879"/>
</g>
<!-- Node38&#45;&gt;Node23 -->
<g id="edge60" class="edge"><title>Node38&#45;&gt;Node23</title>
<path fill="none" stroke="midnightblue" d="M1911.5,-370.291C1911.5,-347.448 1911.5,-307.636 1911.5,-273.5 1911.5,-273.5 1911.5,-273.5 1911.5,-204.5 1911.5,-121.911 1824.43,-143.77 1744.5,-123 1602.12,-86.0048 1230.33,-96.0193 1083.5,-87 1027.9,-83.5846 964.131,-79.1535 921.176,-76.0932"/>
<polygon fill="midnightblue" stroke="midnightblue" points="1908,-370.307 1911.5,-380.307 1915,-370.307 1908,-370.307"/>
</g>
<!-- Node39 -->
<g id="node39" class="node"><title>Node39</title>
<g id="a_node39"><a xlink:href="irc__formatter_8cpp.html" target="_top" xlink:title="modules/irc/irc_formatter.cpp">
<polygon fill="none" stroke="black" points="1940,-324.5 1940,-343.5 2083,-343.5 2083,-324.5 1940,-324.5"/>
<text text-anchor="middle" x="2011.5" y="-331.5" font-family="Helvetica,sans-Serif" font-size="10.00">modules/irc/irc_formatter.cpp</text>
</a>
</g>
</g>
<!-- Node38&#45;&gt;Node39 -->
<g id="edge61" class="edge"><title>Node38&#45;&gt;Node39</title>
<path fill="none" stroke="midnightblue" d="M1936.59,-375.453C1955.05,-365.483 1979.6,-352.228 1995.47,-343.655"/>
<polygon fill="midnightblue" stroke="midnightblue" points="1934.7,-372.493 1927.57,-380.324 1938.03,-378.652 1934.7,-372.493"/>
</g>
<!-- Node40&#45;&gt;Node37 -->
<g id="edge64" class="edge"><title>Node40&#45;&gt;Node37</title>
<path fill="none" stroke="midnightblue" d="M1646.5,-369.805C1646.5,-360.91 1646.5,-350.78 1646.5,-343.751"/>
<polygon fill="midnightblue" stroke="midnightblue" points="1643,-370.083 1646.5,-380.083 1650,-370.083 1643,-370.083"/>
</g>
<!-- Node41 -->
<g id="node41" class="node"><title>Node41</title>
<g id="a_node41"><a xlink:href="formatter_8cpp.html" target="_top" xlink:title="modules/xonotic/formatter.cpp">
<polygon fill="none" stroke="black" points="1735,-324.5 1735,-343.5 1884,-343.5 1884,-324.5 1735,-324.5"/>
<text text-anchor="middle" x="1809.5" y="-331.5" font-family="Helvetica,sans-Serif" font-size="10.00">modules/xonotic/formatter.cpp</text>
</a>
</g>
</g>
<!-- Node40&#45;&gt;Node41 -->
<g id="edge63" class="edge"><title>Node40&#45;&gt;Node41</title>
<path fill="none" stroke="midnightblue" d="M1682.2,-377.172C1712.9,-367.004 1756.42,-352.585 1783.79,-343.516"/>
<polygon fill="midnightblue" stroke="midnightblue" points="1680.72,-373.976 1672.33,-380.444 1682.92,-380.621 1680.72,-373.976"/>
</g>
</g>
</svg>
