<?xml version="1.0" encoding="UTF-8" standalone="no"?>
<!DOCTYPE svg PUBLIC "-//W3C//DTD SVG 1.1//EN"
 "http://www.w3.org/Graphics/SVG/1.1/DTD/svg11.dtd">
<!-- Generated by graphviz version 2.38.0 (20140413.2041)
 -->
<!-- Title: src/string/color.hpp Pages: 1 -->
<!--zoomable 420 -->
<svg id="main" version="1.1" xmlns="http://www.w3.org/2000/svg" xmlns:xlink="http://www.w3.org/1999/xlink" xml:space="preserve" onload="init(evt)">
<style type="text/css"><![CDATA[
.edge:hover path { stroke: red; }
.edge:hover polygon { stroke: red; fill: red; }
]]></style>
<script type="text/javascript"><![CDATA[
var edges = document.getElementsByTagName('g');
if (edges && edges.length) {
  for (var i=0;i<edges.length;i++) {
    if (edges[i].id.substr(0,4)=='edge') {
      edges[i].setAttribute('class','edge');
    }
  }
}
]]></script>
        <defs>
                <circle id="rim" cx="0" cy="0" r="7"/>
                <circle id="rim2" cx="0" cy="0" r="3.5"/>
                <g id="zoomPlus">
                        <use xlink:href="#rim" fill="#404040">
                                <set attributeName="fill" to="#808080" begin="zoomplus.mouseover" end="zoomplus.mouseout"/>
                        </use>
                        <path d="M-4,0h8M0,-4v8" fill="none" stroke="white" stroke-width="1.5" pointer-events="none"/>
                </g>
                <g id="zoomMin">
                        <use xlink:href="#rim" fill="#404040">
                                <set attributeName="fill" to="#808080" begin="zoomminus.mouseover" end="zoomminus.mouseout"/>
                        </use>
                        <path d="M-4,0h8" fill="none" stroke="white" stroke-width="1.5" pointer-events="none"/>
                </g>
                <g id="dirArrow">
                        <path fill="none" stroke="white" stroke-width="1.5" d="M0,-3.0v7 M-2.5,-0.5L0,-3.0L2.5,-0.5"/>
                </g>
               <g id="resetDef">
                       <use xlink:href="#rim2" fill="#404040">
                               <set attributeName="fill" to="#808080" begin="reset.mouseover" end="reset.mouseout"/>
                       </use>
               </g>
        </defs>

<script type="text/javascript">
var viewWidth = 1165;
var viewHeight = 420;
var sectionId = 'dynsection-1';
</script>
<script xlink:href="svgpan.js"/>
<svg id="graph" class="graph">
<g id="viewport">
<title>src/string/color.hpp</title>
<!-- Node1 -->
<g id="node1" class="node"><title>Node1</title>
<polygon fill="#bfbfbf" stroke="black" points="382.5,-392.5 382.5,-411.5 482.5,-411.5 482.5,-392.5 382.5,-392.5"/>
<text text-anchor="middle" x="432.5" y="-399.5" font-family="Helvetica,sans-Serif" font-size="10.00">src/string/color.hpp</text>
</g>
<!-- Node2 -->
<g id="node2" class="node"><title>Node2</title>
<g id="a_node2"><a xlink:href="color_8cpp.html" target="_top" xlink:title="src/string/color.cpp">
<polygon fill="none" stroke="black" points="322.5,-336.5 322.5,-355.5 422.5,-355.5 422.5,-336.5 322.5,-336.5"/>
<text text-anchor="middle" x="372.5" y="-343.5" font-family="Helvetica,sans-Serif" font-size="10.00">src/string/color.cpp</text>
</a>
</g>
</g>
<!-- Node1&#45;&gt;Node2 -->
<g id="edge1" class="edge"><title>Node1&#45;&gt;Node2</title>
<path fill="none" stroke="midnightblue" d="M415.319,-385.537C404.621,-375.909 391.244,-363.869 382.315,-355.834"/>
<polygon fill="midnightblue" stroke="midnightblue" points="413.086,-388.236 422.86,-392.324 417.768,-383.033 413.086,-388.236"/>
</g>
<!-- Node3 -->
<g id="node3" class="node"><title>Node3</title>
<g id="a_node3"><a xlink:href="string_8hpp.html" target="_top" xlink:title="src/string/string.hpp">
<polygon fill="none" stroke="black" points="441,-336.5 441,-355.5 544,-355.5 544,-336.5 441,-336.5"/>
<text text-anchor="middle" x="492.5" y="-343.5" font-family="Helvetica,sans-Serif" font-size="10.00">src/string/string.hpp</text>
</a>
</g>
</g>
<!-- Node1&#45;&gt;Node3 -->
<g id="edge2" class="edge"><title>Node1&#45;&gt;Node3</title>
<path fill="none" stroke="midnightblue" d="M449.681,-385.537C460.379,-375.909 473.756,-363.869 482.685,-355.834"/>
<polygon fill="midnightblue" stroke="midnightblue" points="447.232,-383.033 442.14,-392.324 451.914,-388.236 447.232,-383.033"/>
</g>
<!-- Node4 -->
<g id="node4" class="node"><title>Node4</title>
<g id="a_node4"><a xlink:href="string_8cpp.html" target="_top" xlink:title="src/string/string.cpp">
<polygon fill="none" stroke="black" points="227,-224.5 227,-243.5 330,-243.5 330,-224.5 227,-224.5"/>
<text text-anchor="middle" x="278.5" y="-231.5" font-family="Helvetica,sans-Serif" font-size="10.00">src/string/string.cpp</text>
</a>
</g>
</g>
<!-- Node3&#45;&gt;Node4 -->
<g id="edge3" class="edge"><title>Node3&#45;&gt;Node4</title>
<path fill="none" stroke="midnightblue" d="M466.694,-331.735C422.238,-308.884 332.41,-262.711 295.214,-243.591"/>
<polygon fill="midnightblue" stroke="midnightblue" points="465.214,-334.91 475.708,-336.368 468.414,-328.684 465.214,-334.91"/>
</g>
<!-- Node5 -->
<g id="node5" class="node"><title>Node5</title>
<g id="a_node5"><a xlink:href="logger_8hpp.html" target="_top" xlink:title="src/string/logger.hpp">
<polygon fill="none" stroke="black" points="615,-280.5 615,-299.5 720,-299.5 720,-280.5 615,-280.5"/>
<text text-anchor="middle" x="667.5" y="-287.5" font-family="Helvetica,sans-Serif" font-size="10.00">src/string/logger.hpp</text>
</a>
</g>
</g>
<!-- Node3&#45;&gt;Node5 -->
<g id="edge4" class="edge"><title>Node3&#45;&gt;Node5</title>
<path fill="none" stroke="midnightblue" d="M529.975,-333.436C562.97,-323.255 610.256,-308.664 639.9,-299.516"/>
<polygon fill="midnightblue" stroke="midnightblue" points="528.753,-330.151 520.229,-336.444 530.817,-336.839 528.753,-330.151"/>
</g>
<!-- Node7 -->
<g id="node7" class="node"><title>Node7</title>
<g id="a_node7"><a xlink:href="connection_8hpp.html" target="_top" xlink:title="src/network/connection.hpp">
<polygon fill="none" stroke="black" points="424,-224.5 424,-243.5 561,-243.5 561,-224.5 424,-224.5"/>
<text text-anchor="middle" x="492.5" y="-231.5" font-family="Helvetica,sans-Serif" font-size="10.00">src/network/connection.hpp</text>
</a>
</g>
</g>
<!-- Node3&#45;&gt;Node7 -->
<g id="edge42" class="edge"><title>Node3&#45;&gt;Node7</title>
<path fill="none" stroke="midnightblue" d="M492.5,-326.348C492.5,-302.254 492.5,-261.308 492.5,-243.591"/>
<polygon fill="midnightblue" stroke="midnightblue" points="489,-326.368 492.5,-336.368 496,-326.369 489,-326.368"/>
</g>
<!-- Node5&#45;&gt;Node4 -->
<g id="edge5" class="edge"><title>Node5&#45;&gt;Node4</title>
<path fill="none" stroke="midnightblue" d="M604.665,-280.277C528.293,-269.676 400.869,-251.987 330.012,-242.151"/>
<polygon fill="midnightblue" stroke="midnightblue" points="604.247,-283.753 614.633,-281.661 605.209,-276.819 604.247,-283.753"/>
</g>
<!-- Node6 -->
<g id="node6" class="node"><title>Node6</title>
<g id="a_node6"><a xlink:href="logger_8cpp.html" target="_top" xlink:title="src/string/logger.cpp">
<polygon fill="none" stroke="black" points="656,-224.5 656,-243.5 761,-243.5 761,-224.5 656,-224.5"/>
<text text-anchor="middle" x="708.5" y="-231.5" font-family="Helvetica,sans-Serif" font-size="10.00">src/string/logger.cpp</text>
</a>
</g>
</g>
<!-- Node5&#45;&gt;Node6 -->
<g id="edge6" class="edge"><title>Node5&#45;&gt;Node6</title>
<path fill="none" stroke="midnightblue" d="M680.517,-271.855C687.617,-262.505 696.104,-251.327 701.856,-243.751"/>
<polygon fill="midnightblue" stroke="midnightblue" points="677.53,-270.002 674.27,-280.083 683.105,-274.235 677.53,-270.002"/>
</g>
<!-- Node5&#45;&gt;Node7 -->
<g id="edge7" class="edge"><title>Node5&#45;&gt;Node7</title>
<path fill="none" stroke="midnightblue" d="M630.025,-277.436C597.03,-267.255 549.744,-252.664 520.1,-243.516"/>
<polygon fill="midnightblue" stroke="midnightblue" points="629.183,-280.839 639.771,-280.444 631.247,-274.151 629.183,-280.839"/>
</g>
<!-- Node10 -->
<g id="node10" class="node"><title>Node10</title>
<g id="a_node10"><a xlink:href="handler_8hpp.html" target="_top" xlink:title="src/handler/handler.hpp">
<polygon fill="none" stroke="black" points="337.5,-112.5 337.5,-131.5 455.5,-131.5 455.5,-112.5 337.5,-112.5"/>
<text text-anchor="middle" x="396.5" y="-119.5" font-family="Helvetica,sans-Serif" font-size="10.00">src/handler/handler.hpp</text>
</a>
</g>
</g>
<!-- Node5&#45;&gt;Node10 -->
<g id="edge28" class="edge"><title>Node5&#45;&gt;Node10</title>
<path fill="none" stroke="midnightblue" d="M604.556,-285.69C538.619,-280.892 441.004,-269.591 414.5,-244 383.026,-213.611 390.55,-153.779 394.69,-131.567"/>
<polygon fill="midnightblue" stroke="midnightblue" points="604.632,-289.203 614.85,-286.405 605.117,-282.22 604.632,-289.203"/>
</g>
<!-- Node18 -->
<g id="node18" class="node"><title>Node18</title>
<g id="a_node18"><a xlink:href="irc__connection_8cpp.html" target="_top" xlink:title="src/network/irc_connection.cpp">
<polygon fill="none" stroke="black" points="1004.5,-56.5 1004.5,-75.5 1156.5,-75.5 1156.5,-56.5 1004.5,-56.5"/>
<text text-anchor="middle" x="1080.5" y="-63.5" font-family="Helvetica,sans-Serif" font-size="10.00">src/network/irc_connection.cpp</text>
</a>
</g>
</g>
<!-- Node5&#45;&gt;Node18 -->
<g id="edge38" class="edge"><title>Node5&#45;&gt;Node18</title>
<path fill="none" stroke="midnightblue" d="M730.429,-286.094C845.599,-280.273 1081.29,-265.839 1111.5,-244 1140.32,-223.167 1145.41,-202.425 1136.5,-168 1126.81,-130.537 1099.9,-92.1555 1087.24,-75.5333"/>
<polygon fill="midnightblue" stroke="midnightblue" points="730.152,-282.604 720.339,-286.598 730.501,-289.595 730.152,-282.604"/>
</g>
<!-- Node20 -->
<g id="node20" class="node"><title>Node20</title>
<g id="a_node20"><a xlink:href="main_8cpp.html" target="_top" xlink:title="src/main.cpp">
<polygon fill="none" stroke="black" points="700,-112.5 700,-131.5 773,-131.5 773,-112.5 700,-112.5"/>
<text text-anchor="middle" x="736.5" y="-119.5" font-family="Helvetica,sans-Serif" font-size="10.00">src/main.cpp</text>
</a>
</g>
</g>
<!-- Node5&#45;&gt;Node20 -->
<g id="edge41" class="edge"><title>Node5&#45;&gt;Node20</title>
<path fill="none" stroke="midnightblue" d="M654.943,-271.985C646.491,-258.278 638.406,-238.904 647.5,-224 665.723,-194.137 695.229,-214.98 717.5,-188 731.271,-171.317 735.062,-145.037 736.105,-131.574"/>
<polygon fill="midnightblue" stroke="midnightblue" points="652.155,-274.109 660.647,-280.444 657.959,-270.196 652.155,-274.109"/>
</g>
<!-- Node21 -->
<g id="node21" class="node"><title>Node21</title>
<g id="a_node21"><a xlink:href="irc__buffer_8hpp.html" target="_top" xlink:title="src/network/irc_buffer.hpp">
<polygon fill="none" stroke="black" points="578.5,-168.5 578.5,-187.5 708.5,-187.5 708.5,-168.5 578.5,-168.5"/>
<text text-anchor="middle" x="643.5" y="-175.5" font-family="Helvetica,sans-Serif" font-size="10.00">src/network/irc_buffer.hpp</text>
</a>
</g>
</g>
<!-- Node5&#45;&gt;Node21 -->
<g id="edge37" class="edge"><title>Node5&#45;&gt;Node21</title>
<path fill="none" stroke="midnightblue" d="M642.323,-275C631.312,-267.401 619.545,-256.906 613.5,-244 604.116,-223.966 622.286,-200.367 634.229,-187.846"/>
<polygon fill="midnightblue" stroke="midnightblue" points="640.557,-278.025 650.867,-280.464 644.328,-272.128 640.557,-278.025"/>
</g>
<!-- Node22 -->
<g id="node22" class="node"><title>Node22</title>
<g id="a_node22"><a xlink:href="async__service_8hpp.html" target="_top" xlink:title="src/network/async_service.hpp">
<polygon fill="none" stroke="black" points="779.5,-224.5 779.5,-243.5 931.5,-243.5 931.5,-224.5 779.5,-224.5"/>
<text text-anchor="middle" x="855.5" y="-231.5" font-family="Helvetica,sans-Serif" font-size="10.00">src/network/async_service.hpp</text>
</a>
</g>
</g>
<!-- Node5&#45;&gt;Node22 -->
<g id="edge29" class="edge"><title>Node5&#45;&gt;Node22</title>
<path fill="none" stroke="midnightblue" d="M707.301,-277.568C742.766,-267.381 793.866,-252.703 825.85,-243.516"/>
<polygon fill="midnightblue" stroke="midnightblue" points="705.934,-274.319 697.289,-280.444 707.867,-281.047 705.934,-274.319"/>
</g>
<!-- Node24 -->
<g id="node24" class="node"><title>Node24</title>
<g id="a_node24"><a xlink:href="http_8cpp.html" target="_top" xlink:title="src/network/http.cpp">
<polygon fill="none" stroke="black" points="879.5,-112.5 879.5,-131.5 985.5,-131.5 985.5,-112.5 879.5,-112.5"/>
<text text-anchor="middle" x="932.5" y="-119.5" font-family="Helvetica,sans-Serif" font-size="10.00">src/network/http.cpp</text>
</a>
</g>
</g>
<!-- Node5&#45;&gt;Node24 -->
<g id="edge39" class="edge"><title>Node5&#45;&gt;Node24</title>
<path fill="none" stroke="midnightblue" d="M730.417,-287.711C802.501,-284.748 914.097,-275.111 940.5,-244 968.426,-211.094 946.497,-153.298 936.651,-131.575"/>
<polygon fill="midnightblue" stroke="midnightblue" points="729.944,-284.226 720.083,-288.101 730.208,-291.221 729.944,-284.226"/>
</g>
<!-- Node25 -->
<g id="node25" class="node"><title>Node25</title>
<g id="a_node25"><a xlink:href="json_8hpp.html" target="_top" xlink:title="src/string/json.hpp">
<polygon fill="none" stroke="black" points="988,-224.5 988,-243.5 1085,-243.5 1085,-224.5 988,-224.5"/>
<text text-anchor="middle" x="1036.5" y="-231.5" font-family="Helvetica,sans-Serif" font-size="10.00">src/string/json.hpp</text>
</a>
</g>
</g>
<!-- Node5&#45;&gt;Node25 -->
<g id="edge34" class="edge"><title>Node5&#45;&gt;Node25</title>
<path fill="none" stroke="midnightblue" d="M730.333,-279.805C803.173,-269.145 921.663,-251.805 987.848,-242.12"/>
<polygon fill="midnightblue" stroke="midnightblue" points="729.756,-276.352 720.369,-281.263 730.77,-283.278 729.756,-276.352"/>
</g>
<!-- Node26 -->
<g id="node26" class="node"><title>Node26</title>
<g id="a_node26"><a xlink:href="settings_8cpp.html" target="_top" xlink:title="src/settings.cpp">
<polygon fill="none" stroke="black" points="1041.5,-168.5 1041.5,-187.5 1127.5,-187.5 1127.5,-168.5 1041.5,-168.5"/>
<text text-anchor="middle" x="1084.5" y="-175.5" font-family="Helvetica,sans-Serif" font-size="10.00">src/settings.cpp</text>
</a>
</g>
</g>
<!-- Node5&#45;&gt;Node26 -->
<g id="edge40" class="edge"><title>Node5&#45;&gt;Node26</title>
<path fill="none" stroke="midnightblue" d="M730.575,-286.922C843.481,-282.549 1070.62,-270.527 1094.5,-244 1108.56,-228.386 1097.24,-201.638 1089.76,-187.827"/>
<polygon fill="midnightblue" stroke="midnightblue" points="730.205,-283.434 720.345,-287.31 730.47,-290.429 730.205,-283.434"/>
</g>
<!-- Node8 -->
<g id="node8" class="node"><title>Node8</title>
<g id="a_node8"><a xlink:href="melanobot_8hpp.html" target="_top" xlink:title="src/melanobot.hpp">
<polygon fill="none" stroke="black" points="425,-168.5 425,-187.5 522,-187.5 522,-168.5 425,-168.5"/>
<text text-anchor="middle" x="473.5" y="-175.5" font-family="Helvetica,sans-Serif" font-size="10.00">src/melanobot.hpp</text>
</a>
</g>
</g>
<!-- Node7&#45;&gt;Node8 -->
<g id="edge8" class="edge"><title>Node7&#45;&gt;Node8</title>
<path fill="none" stroke="midnightblue" d="M485.954,-214.396C482.776,-205.362 479.107,-194.936 476.579,-187.751"/>
<polygon fill="midnightblue" stroke="midnightblue" points="482.742,-215.812 489.363,-224.083 489.345,-213.488 482.742,-215.812"/>
</g>
<!-- Node7&#45;&gt;Node10 -->
<g id="edge23" class="edge"><title>Node7&#45;&gt;Node10</title>
<path fill="none" stroke="midnightblue" d="M459.236,-219.973C444.284,-212.609 427.555,-202.03 416.5,-188 403.201,-171.122 398.703,-145.389 397.214,-131.923"/>
<polygon fill="midnightblue" stroke="midnightblue" points="458.18,-223.34 468.727,-224.351 461.113,-216.984 458.18,-223.34"/>
</g>
<!-- Node17 -->
<g id="node17" class="node"><title>Node17</title>
<g id="a_node17"><a xlink:href="irc__connection_8hpp.html" target="_top" xlink:title="src/network/irc_connection.hpp">
<polygon fill="none" stroke="black" points="487.5,-112.5 487.5,-131.5 639.5,-131.5 639.5,-112.5 487.5,-112.5"/>
<text text-anchor="middle" x="563.5" y="-119.5" font-family="Helvetica,sans-Serif" font-size="10.00">src/network/irc_connection.hpp</text>
</a>
</g>
</g>
<!-- Node7&#45;&gt;Node17 -->
<g id="edge24" class="edge"><title>Node7&#45;&gt;Node17</title>
<path fill="none" stroke="midnightblue" d="M508.305,-216.835C515.868,-208.608 524.727,-198.208 531.5,-188 544.017,-169.134 554.752,-144.663 560.023,-131.797"/>
<polygon fill="midnightblue" stroke="midnightblue" points="505.623,-214.577 501.3,-224.249 510.712,-219.384 505.623,-214.577"/>
</g>
<!-- Node7&#45;&gt;Node21 -->
<g id="edge25" class="edge"><title>Node7&#45;&gt;Node21</title>
<path fill="none" stroke="midnightblue" d="M525.946,-221.039C554.358,-210.879 594.437,-196.546 619.686,-187.516"/>
<polygon fill="midnightblue" stroke="midnightblue" points="524.664,-217.781 516.426,-224.444 527.021,-224.372 524.664,-217.781"/>
</g>
<!-- Node9 -->
<g id="node9" class="node"><title>Node9</title>
<g id="a_node9"><a xlink:href="melanobot_8cpp.html" target="_top" xlink:title="src/melanobot.cpp">
<polygon fill="none" stroke="black" points="0,-56.5 0,-75.5 97,-75.5 97,-56.5 0,-56.5"/>
<text text-anchor="middle" x="48.5" y="-63.5" font-family="Helvetica,sans-Serif" font-size="10.00">src/melanobot.cpp</text>
</a>
</g>
</g>
<!-- Node8&#45;&gt;Node9 -->
<g id="edge9" class="edge"><title>Node8&#45;&gt;Node9</title>
<path fill="none" stroke="midnightblue" d="M430.674,-165.916C345.746,-143.934 157.637,-95.2472 81.4744,-75.5345"/>
<polygon fill="midnightblue" stroke="midnightblue" points="429.947,-169.343 440.505,-168.46 431.701,-162.566 429.947,-169.343"/>
</g>
<!-- Node8&#45;&gt;Node10 -->
<g id="edge10" class="edge"><title>Node8&#45;&gt;Node10</title>
<path fill="none" stroke="midnightblue" d="M452.599,-162.342C438.589,-152.517 420.617,-139.913 408.841,-131.655"/>
<polygon fill="midnightblue" stroke="midnightblue" points="450.932,-165.448 461.129,-168.324 454.951,-159.717 450.932,-165.448"/>
</g>
<!-- Node8&#45;&gt;Node17 -->
<g id="edge18" class="edge"><title>Node8&#45;&gt;Node17</title>
<path fill="none" stroke="midnightblue" d="M496.538,-163.177C513.099,-153.241 534.918,-140.149 549.076,-131.655"/>
<polygon fill="midnightblue" stroke="midnightblue" points="494.734,-160.178 487.96,-168.324 498.336,-166.18 494.734,-160.178"/>
</g>
<!-- Node8&#45;&gt;Node20 -->
<g id="edge22" class="edge"><title>Node8&#45;&gt;Node20</title>
<path fill="none" stroke="midnightblue" d="M525.09,-166.407C576.513,-155.849 654.197,-139.899 699.69,-130.558"/>
<polygon fill="midnightblue" stroke="midnightblue" points="524.265,-163.004 515.173,-168.444 525.673,-169.861 524.265,-163.004"/>
</g>
<!-- Node10&#45;&gt;Node9 -->
<g id="edge11" class="edge"><title>Node10&#45;&gt;Node9</title>
<path fill="none" stroke="midnightblue" d="M331.19,-110.866C263.2,-100.316 158.28,-84.0349 97.207,-74.558"/>
<polygon fill="midnightblue" stroke="midnightblue" points="330.94,-114.369 341.358,-112.444 332.013,-107.451 330.94,-114.369"/>
</g>
<!-- Node11 -->
<g id="node11" class="node"><title>Node11</title>
<g id="a_node11"><a xlink:href="ctcp_8cpp.html" target="_top" xlink:title="src/handler/ctcp.cpp">
<polygon fill="none" stroke="black" points="252,-56.5 252,-75.5 357,-75.5 357,-56.5 252,-56.5"/>
<text text-anchor="middle" x="304.5" y="-63.5" font-family="Helvetica,sans-Serif" font-size="10.00">src/handler/ctcp.cpp</text>
</a>
</g>
</g>
<!-- Node10&#45;&gt;Node11 -->
<g id="edge12" class="edge"><title>Node10&#45;&gt;Node11</title>
<path fill="none" stroke="midnightblue" d="M372.95,-107.177C356.021,-97.2407 333.717,-84.1492 319.245,-75.6545"/>
<polygon fill="midnightblue" stroke="midnightblue" points="371.323,-110.28 381.719,-112.324 374.866,-104.243 371.323,-110.28"/>
</g>
<!-- Node12 -->
<g id="node12" class="node"><title>Node12</title>
<g id="a_node12"><a xlink:href="web-api_8hpp.html" target="_top" xlink:title="src/handler/web&#45;api.hpp">
<polygon fill="none" stroke="black" points="792.5,-56.5 792.5,-75.5 912.5,-75.5 912.5,-56.5 792.5,-56.5"/>
<text text-anchor="middle" x="852.5" y="-63.5" font-family="Helvetica,sans-Serif" font-size="10.00">src/handler/web&#45;api.hpp</text>
</a>
</g>
</g>
<!-- Node10&#45;&gt;Node12 -->
<g id="edge13" class="edge"><title>Node10&#45;&gt;Node12</title>
<path fill="none" stroke="midnightblue" d="M465.651,-113.253C543.1,-104.509 672.353,-89.7101 783.5,-76 786.378,-75.6451 789.322,-75.2776 792.296,-74.903"/>
<polygon fill="midnightblue" stroke="midnightblue" points="465.083,-109.795 455.539,-114.394 465.868,-116.751 465.083,-109.795"/>
</g>
<!-- Node14 -->
<g id="node14" class="node"><title>Node14</title>
<g id="a_node14"><a xlink:href="irc__whois_8cpp.html" target="_top" xlink:title="src/handler/irc_whois.cpp">
<polygon fill="none" stroke="black" points="498.5,-56.5 498.5,-75.5 626.5,-75.5 626.5,-56.5 498.5,-56.5"/>
<text text-anchor="middle" x="562.5" y="-63.5" font-family="Helvetica,sans-Serif" font-size="10.00">src/handler/irc_whois.cpp</text>
</a>
</g>
</g>
<!-- Node10&#45;&gt;Node14 -->
<g id="edge15" class="edge"><title>Node10&#45;&gt;Node14</title>
<path fill="none" stroke="midnightblue" d="M432.453,-109.304C463.732,-99.1294 508.321,-84.6246 536.32,-75.5164"/>
<polygon fill="midnightblue" stroke="midnightblue" points="431.23,-106.022 422.803,-112.444 433.395,-112.678 431.23,-106.022"/>
</g>
<!-- Node15 -->
<g id="node15" class="node"><title>Node15</title>
<g id="a_node15"><a xlink:href="core_8cpp.html" target="_top" xlink:title="This file defines handlers which are essential for proper usage of the bot. ">
<polygon fill="none" stroke="black" points="375,-56.5 375,-75.5 480,-75.5 480,-56.5 375,-56.5"/>
<text text-anchor="middle" x="427.5" y="-63.5" font-family="Helvetica,sans-Serif" font-size="10.00">src/handler/core.cpp</text>
</a>
</g>
</g>
<!-- Node10&#45;&gt;Node15 -->
<g id="edge16" class="edge"><title>Node10&#45;&gt;Node15</title>
<path fill="none" stroke="midnightblue" d="M406.676,-103.275C411.974,-94.0454 418.217,-83.1703 422.476,-75.7511"/>
<polygon fill="midnightblue" stroke="midnightblue" points="403.562,-101.668 401.619,-112.083 409.633,-105.153 403.562,-101.668"/>
</g>
<!-- Node16 -->
<g id="node16" class="node"><title>Node16</title>
<g id="a_node16"><a xlink:href="handler_8cpp.html" target="_top" xlink:title="src/handler/handler.cpp">
<polygon fill="none" stroke="black" points="115.5,-56.5 115.5,-75.5 233.5,-75.5 233.5,-56.5 115.5,-56.5"/>
<text text-anchor="middle" x="174.5" y="-63.5" font-family="Helvetica,sans-Serif" font-size="10.00">src/handler/handler.cpp</text>
</a>
</g>
</g>
<!-- Node10&#45;&gt;Node16 -->
<g id="edge17" class="edge"><title>Node10&#45;&gt;Node16</title>
<path fill="none" stroke="midnightblue" d="M351.375,-110.024C309.44,-99.8232 247.848,-84.8414 209.512,-75.5164"/>
<polygon fill="midnightblue" stroke="midnightblue" points="350.78,-113.481 361.323,-112.444 352.434,-106.679 350.78,-113.481"/>
</g>
<!-- Node13 -->
<g id="node13" class="node"><title>Node13</title>
<g id="a_node13"><a xlink:href="web-api_8cpp.html" target="_top" xlink:title="src/handler/web&#45;api.cpp">
<polygon fill="none" stroke="black" points="792.5,-0.5 792.5,-19.5 912.5,-19.5 912.5,-0.5 792.5,-0.5"/>
<text text-anchor="middle" x="852.5" y="-7.5" font-family="Helvetica,sans-Serif" font-size="10.00">src/handler/web&#45;api.cpp</text>
</a>
</g>
</g>
<!-- Node12&#45;&gt;Node13 -->
<g id="edge14" class="edge"><title>Node12&#45;&gt;Node13</title>
<path fill="none" stroke="midnightblue" d="M852.5,-45.8045C852.5,-36.9102 852.5,-26.7798 852.5,-19.7511"/>
<polygon fill="midnightblue" stroke="midnightblue" points="849,-46.083 852.5,-56.083 856,-46.083 849,-46.083"/>
</g>
<!-- Node17&#45;&gt;Node14 -->
<g id="edge19" class="edge"><title>Node17&#45;&gt;Node14</title>
<path fill="none" stroke="midnightblue" d="M563.145,-101.805C562.98,-92.9102 562.792,-82.7798 562.662,-75.7511"/>
<polygon fill="midnightblue" stroke="midnightblue" points="559.65,-102.15 563.335,-112.083 566.649,-102.02 559.65,-102.15"/>
</g>
<!-- Node17&#45;&gt;Node18 -->
<g id="edge20" class="edge"><title>Node17&#45;&gt;Node18</title>
<path fill="none" stroke="midnightblue" d="M649.481,-112.019C748.466,-101.681 909.545,-84.856 1004.23,-74.9658"/>
<polygon fill="midnightblue" stroke="midnightblue" points="649.09,-108.541 639.507,-113.061 649.817,-115.503 649.09,-108.541"/>
</g>
<!-- Node19 -->
<g id="node19" class="node"><title>Node19</title>
<g id="a_node19"><a xlink:href="irc__buffer_8cpp.html" target="_top" xlink:title="src/network/irc_buffer.cpp">
<polygon fill="none" stroke="black" points="644.5,-56.5 644.5,-75.5 774.5,-75.5 774.5,-56.5 644.5,-56.5"/>
<text text-anchor="middle" x="709.5" y="-63.5" font-family="Helvetica,sans-Serif" font-size="10.00">src/network/irc_buffer.cpp</text>
</a>
</g>
</g>
<!-- Node17&#45;&gt;Node19 -->
<g id="edge21" class="edge"><title>Node17&#45;&gt;Node19</title>
<path fill="none" stroke="midnightblue" d="M596.199,-108.906C623.648,-98.7536 662.168,-84.5063 686.474,-75.5164"/>
<polygon fill="midnightblue" stroke="midnightblue" points="594.799,-105.692 586.634,-112.444 597.227,-112.257 594.799,-105.692"/>
</g>
<!-- Node21&#45;&gt;Node17 -->
<g id="edge26" class="edge"><title>Node21&#45;&gt;Node17</title>
<path fill="none" stroke="midnightblue" d="M622.199,-162.622C607.585,-152.757 588.673,-139.992 576.321,-131.655"/>
<polygon fill="midnightblue" stroke="midnightblue" points="620.4,-165.63 630.647,-168.324 624.316,-159.828 620.4,-165.63"/>
</g>
<!-- Node21&#45;&gt;Node19 -->
<g id="edge27" class="edge"><title>Node21&#45;&gt;Node19</title>
<path fill="none" stroke="midnightblue" d="M653.916,-159.64C668.254,-135.744 693.523,-93.6286 704.345,-75.5914"/>
<polygon fill="midnightblue" stroke="midnightblue" points="650.823,-157.993 648.679,-168.368 656.825,-161.594 650.823,-157.993"/>
</g>
<!-- Node22&#45;&gt;Node20 -->
<g id="edge33" class="edge"><title>Node22&#45;&gt;Node20</title>
<path fill="none" stroke="midnightblue" d="M833.685,-218.934C821.371,-210.57 805.995,-199.394 793.5,-188 773.316,-169.594 753.021,-144.506 742.975,-131.54"/>
<polygon fill="midnightblue" stroke="midnightblue" points="831.763,-221.859 842.025,-224.49 835.644,-216.033 831.763,-221.859"/>
</g>
<!-- Node23 -->
<g id="node23" class="node"><title>Node23</title>
<g id="a_node23"><a xlink:href="http_8hpp.html" target="_top" xlink:title="src/network/http.hpp">
<polygon fill="none" stroke="black" points="802.5,-168.5 802.5,-187.5 908.5,-187.5 908.5,-168.5 802.5,-168.5"/>
<text text-anchor="middle" x="855.5" y="-175.5" font-family="Helvetica,sans-Serif" font-size="10.00">src/network/http.hpp</text>
</a>
</g>
</g>
<!-- Node22&#45;&gt;Node23 -->
<g id="edge30" class="edge"><title>Node22&#45;&gt;Node23</title>
<path fill="none" stroke="midnightblue" d="M855.5,-213.805C855.5,-204.91 855.5,-194.78 855.5,-187.751"/>
<polygon fill="midnightblue" stroke="midnightblue" points="852,-214.083 855.5,-224.083 859,-214.083 852,-214.083"/>
</g>
<!-- Node23&#45;&gt;Node12 -->
<g id="edge31" class="edge"><title>Node23&#45;&gt;Node12</title>
<path fill="none" stroke="midnightblue" d="M854.991,-158.348C854.334,-134.254 853.217,-93.3079 852.734,-75.5914"/>
<polygon fill="midnightblue" stroke="midnightblue" points="851.493,-158.468 855.265,-168.368 858.491,-158.277 851.493,-158.468"/>
</g>
<!-- Node23&#45;&gt;Node24 -->
<g id="edge32" class="edge"><title>Node23&#45;&gt;Node24</title>
<path fill="none" stroke="midnightblue" d="M876.401,-162.342C890.411,-152.517 908.383,-139.913 920.159,-131.655"/>
<polygon fill="midnightblue" stroke="midnightblue" points="874.049,-159.717 867.871,-168.324 878.068,-165.448 874.049,-159.717"/>
</g>
<!-- Node25&#45;&gt;Node12 -->
<g id="edge35" class="edge"><title>Node25&#45;&gt;Node12</title>
<path fill="none" stroke="midnightblue" d="M1035.11,-214.09C1032.15,-187.628 1022.96,-139.694 994.5,-112 972.63,-90.7174 940.752,-79.4938 912.738,-73.5779"/>
<polygon fill="midnightblue" stroke="midnightblue" points="1031.65,-214.658 1036.05,-224.292 1038.62,-214.012 1031.65,-214.658"/>
</g>
<!-- Node25&#45;&gt;Node26 -->
<g id="edge36" class="edge"><title>Node25&#45;&gt;Node26</title>
<path fill="none" stroke="midnightblue" d="M1051.23,-216.431C1059.64,-206.967 1069.85,-195.483 1076.72,-187.751"/>
<polygon fill="midnightblue" stroke="midnightblue" points="1048.45,-214.284 1044.43,-224.083 1053.69,-218.934 1048.45,-214.284"/>
</g>
</g>
</svg>
        <g id="navigator" transform="translate(0 0)" fill="#404254">
                <rect fill="#f2f5e9" fill-opacity="0.5" stroke="#606060" stroke-width=".5" x="0" y="0" width="60" height="60"/>
                <use id="zoomplus" xlink:href="#zoomPlus" x="17" y="9" onmousedown="handleZoom(evt,'in')"/>
                <use id="zoomminus" xlink:href="#zoomMin" x="42" y="9" onmousedown="handleZoom(evt,'out')"/>
                <use id="reset" xlink:href="#resetDef" x="30" y="36" onmousedown="handleReset()"/>
                <g id="arrowUp" xlink:href="#dirArrow" transform="translate(30 24)" onmousedown="handlePan(0,-1)">
                  <use xlink:href="#rim" fill="#404040">
                        <set attributeName="fill" to="#808080" begin="arrowUp.mouseover" end="arrowUp.mouseout"/>
                  </use>
                  <path fill="none" stroke="white" stroke-width="1.5" d="M0,-3.0v7 M-2.5,-0.5L0,-3.0L2.5,-0.5"/>
                </g>
                <g id="arrowRight" xlink:href="#dirArrow" transform="rotate(90) translate(36 -43)" onmousedown="handlePan(1,0)">
                  <use xlink:href="#rim" fill="#404040">
                        <set attributeName="fill" to="#808080" begin="arrowRight.mouseover" end="arrowRight.mouseout"/>
                  </use>
                  <path fill="none" stroke="white" stroke-width="1.5" d="M0,-3.0v7 M-2.5,-0.5L0,-3.0L2.5,-0.5"/>
                </g>
                <g id="arrowDown" xlink:href="#dirArrow" transform="rotate(180) translate(-30 -48)" onmousedown="handlePan(0,1)">
                  <use xlink:href="#rim" fill="#404040">
                        <set attributeName="fill" to="#808080" begin="arrowDown.mouseover" end="arrowDown.mouseout"/>
                  </use>
                  <path fill="none" stroke="white" stroke-width="1.5" d="M0,-3.0v7 M-2.5,-0.5L0,-3.0L2.5,-0.5"/>
                </g>
                <g id="arrowLeft" xlink:href="#dirArrow" transform="rotate(270) translate(-36 17)" onmousedown="handlePan(-1,0)">
                  <use xlink:href="#rim" fill="#404040">
                        <set attributeName="fill" to="#808080" begin="arrowLeft.mouseover" end="arrowLeft.mouseout"/>
                  </use>
                  <path fill="none" stroke="white" stroke-width="1.5" d="M0,-3.0v7 M-2.5,-0.5L0,-3.0L2.5,-0.5"/>
                </g>
        </g>
        <svg viewBox="0 0 15 15" width="100%" height="30px" preserveAspectRatio="xMaxYMin meet">
         <g id="arrow_out" transform="scale(0.3 0.3)">
          <a xlink:href="color_8hpp__dep__incl_org.svg" target="_base">
           <rect id="button" ry="5" rx="5" y="6" x="6" height="38" width="38"
                fill="#f2f5e9" fill-opacity="0.5" stroke="#606060" stroke-width="1.0"/>
           <path id="arrow"
             d="M 11.500037,31.436501 C 11.940474,20.09759 22.043105,11.32322 32.158766,21.979434 L 37.068811,17.246167 C 37.068811,17.246167 37.088388,32 37.088388,32 L 22.160133,31.978069 C 22.160133,31.978069 26.997745,27.140456 26.997745,27.140456 C 18.528582,18.264221 13.291696,25.230495 11.500037,31.436501 z"
             style="fill:#404040;"/>
          </a>
         </g>
        </svg>
</svg>
