<?xml version="1.0" encoding="UTF-8" standalone="no"?>
<!DOCTYPE svg PUBLIC "-//W3C//DTD SVG 1.1//EN"
 "http://www.w3.org/Graphics/SVG/1.1/DTD/svg11.dtd">
<!-- Generated by graphviz version 2.38.0 (20140413.2041)
 -->
<!-- Title: src/concurrent_container.hpp Pages: 1 -->
<svg width="1743pt" height="352pt"
 viewBox="0.00 0.00 1742.50 352.00" xmlns="http://www.w3.org/2000/svg" xmlns:xlink="http://www.w3.org/1999/xlink">
<g id="graph0" class="graph" transform="scale(1 1) rotate(0) translate(4 348)">
<title>src/concurrent_container.hpp</title>
<!-- Node1 -->
<g id="node1" class="node"><title>Node1</title>
<polygon fill="#bfbfbf" stroke="black" points="1286,-324.5 1286,-343.5 1429,-343.5 1429,-324.5 1286,-324.5"/>
<text text-anchor="middle" x="1357.5" y="-331.5" font-family="Helvetica,sans-Serif" font-size="10.00">src/concurrent_container.hpp</text>
</g>
<!-- Node2 -->
<g id="node2" class="node"><title>Node2</title>
<g id="a_node2"><a xlink:href="melanobot_8hpp.html" target="_top" xlink:title="src/melanobot.hpp">
<polygon fill="none" stroke="black" points="1166,-263 1166,-282 1263,-282 1263,-263 1166,-263"/>
<text text-anchor="middle" x="1214.5" y="-270" font-family="Helvetica,sans-Serif" font-size="10.00">src/melanobot.hpp</text>
</a>
</g>
</g>
<!-- Node1&#45;&gt;Node2 -->
<g id="edge1" class="edge"><title>Node1&#45;&gt;Node2</title>
<path fill="none" stroke="midnightblue" d="M1327.77,-320.631C1299.99,-309.072 1259.25,-292.12 1234.95,-282.009"/>
<polygon fill="midnightblue" stroke="midnightblue" points="1326.43,-323.865 1337.01,-324.475 1329.12,-317.402 1326.43,-323.865"/>
</g>
<!-- Node25 -->
<g id="node25" class="node"><title>Node25</title>
<g id="a_node25"><a xlink:href="async__service_8hpp.html" target="_top" xlink:title="src/network/async_service.hpp">
<polygon fill="none" stroke="black" points="1281.5,-263 1281.5,-282 1433.5,-282 1433.5,-263 1281.5,-263"/>
<text text-anchor="middle" x="1357.5" y="-270" font-family="Helvetica,sans-Serif" font-size="10.00">src/network/async_service.hpp</text>
</a>
</g>
</g>
<!-- Node1&#45;&gt;Node25 -->
<g id="edge30" class="edge"><title>Node1&#45;&gt;Node25</title>
<path fill="none" stroke="midnightblue" d="M1357.5,-314.317C1357.5,-303.496 1357.5,-290.398 1357.5,-282.009"/>
<polygon fill="midnightblue" stroke="midnightblue" points="1354,-314.475 1357.5,-324.475 1361,-314.475 1354,-314.475"/>
</g>
<!-- Node28 -->
<g id="node28" class="node"><title>Node28</title>
<g id="a_node28"><a xlink:href="buffer_8hpp.html" target="_top" xlink:title="modules/irc/network\l/buffer.hpp">
<polygon fill="none" stroke="black" points="1479.5,-257.5 1479.5,-287.5 1583.5,-287.5 1583.5,-257.5 1479.5,-257.5"/>
<text text-anchor="start" x="1487.5" y="-275.5" font-family="Helvetica,sans-Serif" font-size="10.00">modules/irc/network</text>
<text text-anchor="middle" x="1531.5" y="-264.5" font-family="Helvetica,sans-Serif" font-size="10.00">/buffer.hpp</text>
</a>
</g>
</g>
<!-- Node1&#45;&gt;Node28 -->
<g id="edge36" class="edge"><title>Node1&#45;&gt;Node28</title>
<path fill="none" stroke="midnightblue" d="M1391.92,-321.23C1420.25,-311.542 1460.49,-297.782 1490.49,-287.523"/>
<polygon fill="midnightblue" stroke="midnightblue" points="1390.76,-317.928 1382.43,-324.475 1393.02,-324.551 1390.76,-317.928"/>
</g>
<!-- Node3 -->
<g id="node3" class="node"><title>Node3</title>
<g id="a_node3"><a xlink:href="melanobot_8cpp.html" target="_top" xlink:title="src/melanobot.cpp">
<polygon fill="none" stroke="black" points="0,-129 0,-148 97,-148 97,-129 0,-129"/>
<text text-anchor="middle" x="48.5" y="-136" font-family="Helvetica,sans-Serif" font-size="10.00">src/melanobot.cpp</text>
</a>
</g>
</g>
<!-- Node2&#45;&gt;Node3 -->
<g id="edge2" class="edge"><title>Node2&#45;&gt;Node3</title>
<path fill="none" stroke="midnightblue" d="M1156.01,-268.608C990.125,-259.698 502.966,-228.629 105.5,-154 96.8694,-152.379 87.6047,-150.211 79.1061,-148.046"/>
<polygon fill="midnightblue" stroke="midnightblue" points="1155.83,-272.103 1166,-269.139 1156.2,-265.113 1155.83,-272.103"/>
</g>
<!-- Node4 -->
<g id="node4" class="node"><title>Node4</title>
<g id="a_node4"><a xlink:href="handler_8hpp.html" target="_top" xlink:title="src/handler/handler.hpp">
<polygon fill="none" stroke="black" points="660.5,-196 660.5,-215 778.5,-215 778.5,-196 660.5,-196"/>
<text text-anchor="middle" x="719.5" y="-203" font-family="Helvetica,sans-Serif" font-size="10.00">src/handler/handler.hpp</text>
</a>
</g>
</g>
<!-- Node2&#45;&gt;Node4 -->
<g id="edge3" class="edge"><title>Node2&#45;&gt;Node4</title>
<path fill="none" stroke="midnightblue" d="M1155.65,-263.773C1060.5,-251.278 873.91,-226.776 778.595,-214.26"/>
<polygon fill="midnightblue" stroke="midnightblue" points="1155.31,-267.258 1165.68,-265.09 1156.22,-260.317 1155.31,-267.258"/>
</g>
<!-- Node21 -->
<g id="node21" class="node"><title>Node21</title>
<g id="a_node21"><a xlink:href="main_8cpp.html" target="_top" xlink:title="src/main.cpp">
<polygon fill="none" stroke="black" points="1194,-196 1194,-215 1267,-215 1267,-196 1194,-196"/>
<text text-anchor="middle" x="1230.5" y="-203" font-family="Helvetica,sans-Serif" font-size="10.00">src/main.cpp</text>
</a>
</g>
</g>
<!-- Node2&#45;&gt;Node21 -->
<g id="edge25" class="edge"><title>Node2&#45;&gt;Node21</title>
<path fill="none" stroke="midnightblue" d="M1219.07,-252.915C1222.13,-240.488 1226.02,-224.717 1228.38,-215.127"/>
<polygon fill="midnightblue" stroke="midnightblue" points="1215.65,-252.187 1216.66,-262.734 1222.45,-253.86 1215.65,-252.187"/>
</g>
<!-- Node22 -->
<g id="node22" class="node"><title>Node22</title>
<g id="a_node22"><a xlink:href="modules_2irc_2network_2connection_8hpp.html" target="_top" xlink:title="modules/irc/network\l/connection.hpp">
<polygon fill="none" stroke="black" points="1479.5,-190.5 1479.5,-220.5 1583.5,-220.5 1583.5,-190.5 1479.5,-190.5"/>
<text text-anchor="start" x="1487.5" y="-208.5" font-family="Helvetica,sans-Serif" font-size="10.00">modules/irc/network</text>
<text text-anchor="middle" x="1531.5" y="-197.5" font-family="Helvetica,sans-Serif" font-size="10.00">/connection.hpp</text>
</a>
</g>
</g>
<!-- Node2&#45;&gt;Node22 -->
<g id="edge26" class="edge"><title>Node2&#45;&gt;Node22</title>
<path fill="none" stroke="midnightblue" d="M1257.09,-260.583C1262.27,-259.334 1267.5,-258.112 1272.5,-257 1343.83,-241.142 1426.82,-225.441 1479.24,-215.857"/>
<polygon fill="midnightblue" stroke="midnightblue" points="1256.13,-257.214 1247.25,-262.994 1257.8,-264.013 1256.13,-257.214"/>
</g>
<!-- Node4&#45;&gt;Node3 -->
<g id="edge4" class="edge"><title>Node4&#45;&gt;Node3</title>
<path fill="none" stroke="midnightblue" d="M650.246,-202.57C536.041,-198.546 301.347,-186.728 105.5,-154 96.5365,-152.502 86.9161,-150.293 78.179,-148.049"/>
<polygon fill="midnightblue" stroke="midnightblue" points="650.138,-206.068 660.252,-202.913 650.378,-199.072 650.138,-206.068"/>
</g>
<!-- Node5 -->
<g id="node5" class="node"><title>Node5</title>
<g id="a_node5"><a xlink:href="misc_8cpp.html" target="_top" xlink:title="This file defines handlers which perform miscellaneous tasks. ">
<polygon fill="none" stroke="black" points="365,-129 365,-148 472,-148 472,-129 365,-129"/>
<text text-anchor="middle" x="418.5" y="-136" font-family="Helvetica,sans-Serif" font-size="10.00">src/handler/misc.cpp</text>
</a>
</g>
</g>
<!-- Node4&#45;&gt;Node5 -->
<g id="edge5" class="edge"><title>Node4&#45;&gt;Node5</title>
<path fill="none" stroke="midnightblue" d="M667.628,-193.875C619.169,-183.87 544.848,-168.321 480.5,-154 472.084,-152.127 463.04,-150.049 454.533,-148.065"/>
<polygon fill="midnightblue" stroke="midnightblue" points="667.062,-197.332 677.563,-195.923 668.475,-190.476 667.062,-197.332"/>
</g>
<!-- Node6 -->
<g id="node6" class="node"><title>Node6</title>
<g id="a_node6"><a xlink:href="bridge_8hpp.html" target="_top" xlink:title="src/handler/bridge.hpp">
<polygon fill="none" stroke="black" points="115,-129 115,-148 228,-148 228,-129 115,-129"/>
<text text-anchor="middle" x="171.5" y="-136" font-family="Helvetica,sans-Serif" font-size="10.00">src/handler/bridge.hpp</text>
</a>
</g>
</g>
<!-- Node4&#45;&gt;Node6 -->
<g id="edge6" class="edge"><title>Node4&#45;&gt;Node6</title>
<path fill="none" stroke="midnightblue" d="M650.23,-199.781C556.138,-192.796 382.871,-177.896 236.5,-154 226.687,-152.398 216.131,-150.236 206.439,-148.071"/>
<polygon fill="midnightblue" stroke="midnightblue" points="650.243,-203.291 660.472,-200.533 650.756,-196.31 650.243,-203.291"/>
</g>
<!-- Node8 -->
<g id="node8" class="node"><title>Node8</title>
<g id="a_node8"><a xlink:href="admin_8cpp.html" target="_top" xlink:title="This file defines handlers which allows admin to administrate the bot. ">
<polygon fill="none" stroke="black" points="847,-129 847,-148 960,-148 960,-129 847,-129"/>
<text text-anchor="middle" x="903.5" y="-136" font-family="Helvetica,sans-Serif" font-size="10.00">src/handler/admin.cpp</text>
</a>
</g>
</g>
<!-- Node4&#45;&gt;Node8 -->
<g id="edge8" class="edge"><title>Node4&#45;&gt;Node8</title>
<path fill="none" stroke="midnightblue" d="M753.649,-192.436C790.151,-179.542 847.099,-159.424 879.258,-148.064"/>
<polygon fill="midnightblue" stroke="midnightblue" points="752.197,-189.237 743.934,-195.869 754.529,-195.838 752.197,-189.237"/>
</g>
<!-- Node9 -->
<g id="node9" class="node"><title>Node9</title>
<g id="a_node9"><a xlink:href="handler_8cpp.html" target="_top" xlink:title="This file contains the definitions for the most basic and reusable handlers. ">
<polygon fill="none" stroke="black" points="978.5,-129 978.5,-148 1096.5,-148 1096.5,-129 978.5,-129"/>
<text text-anchor="middle" x="1037.5" y="-136" font-family="Helvetica,sans-Serif" font-size="10.00">src/handler/handler.cpp</text>
</a>
</g>
</g>
<!-- Node4&#45;&gt;Node9 -->
<g id="edge9" class="edge"><title>Node4&#45;&gt;Node9</title>
<path fill="none" stroke="midnightblue" d="M772.271,-193.909C822.687,-183.765 900.807,-167.977 968.5,-154 977.731,-152.094 987.651,-150.023 997.011,-148.058"/>
<polygon fill="midnightblue" stroke="midnightblue" points="771.371,-190.52 762.257,-195.923 772.751,-197.383 771.371,-190.52"/>
</g>
<!-- Node10 -->
<g id="node10" class="node"><title>Node10</title>
<g id="a_node10"><a xlink:href="fun-handlers_8hpp.html" target="_top" xlink:title="This file contains definitions for handlers which are pretty useless. ">
<polygon fill="none" stroke="black" points="1084,-62 1084,-81 1229,-81 1229,-62 1084,-62"/>
<text text-anchor="middle" x="1156.5" y="-69" font-family="Helvetica,sans-Serif" font-size="10.00">modules/fun/fun&#45;handlers.hpp</text>
</a>
</g>
</g>
<!-- Node4&#45;&gt;Node10 -->
<g id="edge10" class="edge"><title>Node4&#45;&gt;Node10</title>
<path fill="none" stroke="midnightblue" d="M789.087,-202.428C885.751,-198.381 1054.54,-186.726 1105.5,-154 1132.89,-136.412 1148.14,-98.3308 1153.86,-81.1812"/>
<polygon fill="midnightblue" stroke="midnightblue" points="788.668,-198.942 778.816,-202.841 788.949,-205.937 788.668,-198.942"/>
</g>
<!-- Node13 -->
<g id="node13" class="node"><title>Node13</title>
<g id="a_node13"><a xlink:href="web-api_8hpp.html" target="_top" xlink:title="modules/web/web&#45;api.hpp">
<polygon fill="none" stroke="black" points="1152.5,-129 1152.5,-148 1282.5,-148 1282.5,-129 1152.5,-129"/>
<text text-anchor="middle" x="1217.5" y="-136" font-family="Helvetica,sans-Serif" font-size="10.00">modules/web/web&#45;api.hpp</text>
</a>
</g>
</g>
<!-- Node4&#45;&gt;Node13 -->
<g id="edge13" class="edge"><title>Node4&#45;&gt;Node13</title>
<path fill="none" stroke="midnightblue" d="M788.728,-197.477C871.954,-188.729 1015.76,-172.642 1138.5,-154 1149.94,-152.262 1162.27,-150.127 1173.7,-148.035"/>
<polygon fill="midnightblue" stroke="midnightblue" points="788.218,-194.011 778.637,-198.533 788.946,-200.973 788.218,-194.011"/>
</g>
<!-- Node16 -->
<g id="node16" class="node"><title>Node16</title>
<g id="a_node16"><a xlink:href="irc__actions_8hpp.html" target="_top" xlink:title="File containing Handlers which manage responses to various IRC commands. ">
<polygon fill="none" stroke="black" points="609,-123.5 609,-153.5 710,-153.5 710,-123.5 609,-123.5"/>
<text text-anchor="start" x="617" y="-141.5" font-family="Helvetica,sans-Serif" font-size="10.00">modules/irc/handler</text>
<text text-anchor="middle" x="659.5" y="-130.5" font-family="Helvetica,sans-Serif" font-size="10.00">/irc_actions.hpp</text>
</a>
</g>
</g>
<!-- Node4&#45;&gt;Node16 -->
<g id="edge17" class="edge"><title>Node4&#45;&gt;Node16</title>
<path fill="none" stroke="midnightblue" d="M704.55,-188.304C694.701,-177.635 681.933,-163.802 672.505,-153.589"/>
<polygon fill="midnightblue" stroke="midnightblue" points="702.053,-190.76 711.408,-195.734 707.197,-186.012 702.053,-190.76"/>
</g>
<!-- Node18 -->
<g id="node18" class="node"><title>Node18</title>
<g id="a_node18"><a xlink:href="ctcp_8hpp.html" target="_top" xlink:title="This files has handlers for CTCP messages. ">
<polygon fill="none" stroke="black" points="246,-123.5 246,-153.5 347,-153.5 347,-123.5 246,-123.5"/>
<text text-anchor="start" x="254" y="-141.5" font-family="Helvetica,sans-Serif" font-size="10.00">modules/irc/handler</text>
<text text-anchor="middle" x="296.5" y="-130.5" font-family="Helvetica,sans-Serif" font-size="10.00">/ctcp.hpp</text>
</a>
</g>
</g>
<!-- Node4&#45;&gt;Node18 -->
<g id="edge19" class="edge"><title>Node4&#45;&gt;Node18</title>
<path fill="none" stroke="midnightblue" d="M650.186,-197.039C576.692,-188.626 457.384,-173.533 355.5,-154 352.807,-153.484 350.052,-152.923 347.276,-152.331"/>
<polygon fill="midnightblue" stroke="midnightblue" points="649.914,-200.531 660.246,-198.182 650.704,-193.576 649.914,-200.531"/>
</g>
<!-- Node19 -->
<g id="node19" class="node"><title>Node19</title>
<g id="a_node19"><a xlink:href="irc__admin_8hpp.html" target="_top" xlink:title="This file defines handlers which allows admin to administrate the bot (IRC&#45;specific actions) ...">
<polygon fill="none" stroke="black" points="728,-123.5 728,-153.5 829,-153.5 829,-123.5 728,-123.5"/>
<text text-anchor="start" x="736" y="-141.5" font-family="Helvetica,sans-Serif" font-size="10.00">modules/irc/handler</text>
<text text-anchor="middle" x="778.5" y="-130.5" font-family="Helvetica,sans-Serif" font-size="10.00">/irc_admin.hpp</text>
</a>
</g>
</g>
<!-- Node4&#45;&gt;Node19 -->
<g id="edge21" class="edge"><title>Node4&#45;&gt;Node19</title>
<path fill="none" stroke="midnightblue" d="M734.201,-188.304C743.885,-177.635 756.441,-163.802 765.712,-153.589"/>
<polygon fill="midnightblue" stroke="midnightblue" points="731.586,-185.977 727.457,-195.734 736.77,-190.682 731.586,-185.977"/>
</g>
<!-- Node20 -->
<g id="node20" class="node"><title>Node20</title>
<g id="a_node20"><a xlink:href="irc__whois_8hpp.html" target="_top" xlink:title="This file contains handlers for WHOIS recognition on IRC. ">
<polygon fill="none" stroke="black" points="490,-123.5 490,-153.5 591,-153.5 591,-123.5 490,-123.5"/>
<text text-anchor="start" x="498" y="-141.5" font-family="Helvetica,sans-Serif" font-size="10.00">modules/irc/handler</text>
<text text-anchor="middle" x="540.5" y="-130.5" font-family="Helvetica,sans-Serif" font-size="10.00">/irc_whois.hpp</text>
</a>
</g>
</g>
<!-- Node4&#45;&gt;Node20 -->
<g id="edge23" class="edge"><title>Node4&#45;&gt;Node20</title>
<path fill="none" stroke="midnightblue" d="M686.031,-192.346C655.69,-181.329 610.978,-165.093 579.131,-153.528"/>
<polygon fill="midnightblue" stroke="midnightblue" points="685.136,-195.745 695.73,-195.869 687.525,-189.165 685.136,-195.745"/>
</g>
<!-- Node7 -->
<g id="node7" class="node"><title>Node7</title>
<g id="a_node7"><a xlink:href="bridge_8cpp.html" target="_top" xlink:title="src/handler/bridge.cpp">
<polygon fill="none" stroke="black" points="115,-62 115,-81 228,-81 228,-62 115,-62"/>
<text text-anchor="middle" x="171.5" y="-69" font-family="Helvetica,sans-Serif" font-size="10.00">src/handler/bridge.cpp</text>
</a>
</g>
</g>
<!-- Node6&#45;&gt;Node7 -->
<g id="edge7" class="edge"><title>Node6&#45;&gt;Node7</title>
<path fill="none" stroke="midnightblue" d="M171.5,-118.537C171.5,-106.17 171.5,-90.6198 171.5,-81.1273"/>
<polygon fill="midnightblue" stroke="midnightblue" points="168,-118.734 171.5,-128.734 175,-118.734 168,-118.734"/>
</g>
<!-- Node11 -->
<g id="node11" class="node"><title>Node11</title>
<g id="a_node11"><a xlink:href="fun-handlers_8cpp.html" target="_top" xlink:title="modules/fun/fun&#45;handlers.cpp">
<polygon fill="none" stroke="black" points="1032,-0.5 1032,-19.5 1177,-19.5 1177,-0.5 1032,-0.5"/>
<text text-anchor="middle" x="1104.5" y="-7.5" font-family="Helvetica,sans-Serif" font-size="10.00">modules/fun/fun&#45;handlers.cpp</text>
</a>
</g>
</g>
<!-- Node10&#45;&gt;Node11 -->
<g id="edge11" class="edge"><title>Node10&#45;&gt;Node11</title>
<path fill="none" stroke="midnightblue" d="M1142.23,-54.1685C1132.42,-42.952 1119.81,-28.5161 1111.94,-19.5091"/>
<polygon fill="midnightblue" stroke="midnightblue" points="1139.83,-56.7486 1149.05,-61.9751 1145.1,-52.1422 1139.83,-56.7486"/>
</g>
<!-- Node12 -->
<g id="node12" class="node"><title>Node12</title>
<g id="a_node12"><a xlink:href="fun_8cpp.html" target="_top" xlink:title="modules/fun/fun.cpp">
<polygon fill="none" stroke="black" points="1195,-0.5 1195,-19.5 1300,-19.5 1300,-0.5 1195,-0.5"/>
<text text-anchor="middle" x="1247.5" y="-7.5" font-family="Helvetica,sans-Serif" font-size="10.00">modules/fun/fun.cpp</text>
</a>
</g>
</g>
<!-- Node10&#45;&gt;Node12 -->
<g id="edge12" class="edge"><title>Node10&#45;&gt;Node12</title>
<path fill="none" stroke="midnightblue" d="M1178.02,-56.4295C1195.56,-44.9589 1219.77,-29.1343 1234.49,-19.5091"/>
<polygon fill="midnightblue" stroke="midnightblue" points="1175.99,-53.5732 1169.54,-61.9751 1179.82,-59.432 1175.99,-53.5732"/>
</g>
<!-- Node13&#45;&gt;Node10 -->
<g id="edge14" class="edge"><title>Node13&#45;&gt;Node10</title>
<path fill="none" stroke="midnightblue" d="M1202.14,-121.135C1190.21,-108.423 1174.14,-91.2978 1164.6,-81.1273"/>
<polygon fill="midnightblue" stroke="midnightblue" points="1199.88,-123.837 1209.27,-128.734 1204.98,-119.047 1199.88,-123.837"/>
</g>
<!-- Node14 -->
<g id="node14" class="node"><title>Node14</title>
<g id="a_node14"><a xlink:href="web-api-concrete_8hpp.html" target="_top" xlink:title="This files defines some simple Handlers using web APIs. ">
<polygon fill="none" stroke="black" points="1309,-56.5 1309,-86.5 1420,-86.5 1420,-56.5 1309,-56.5"/>
<text text-anchor="start" x="1317" y="-74.5" font-family="Helvetica,sans-Serif" font-size="10.00">modules/web/web&#45;api</text>
<text text-anchor="middle" x="1364.5" y="-63.5" font-family="Helvetica,sans-Serif" font-size="10.00">&#45;concrete.hpp</text>
</a>
</g>
</g>
<!-- Node13&#45;&gt;Node14 -->
<g id="edge15" class="edge"><title>Node13&#45;&gt;Node14</title>
<path fill="none" stroke="midnightblue" d="M1246.3,-124.767C1271.18,-113.766 1307.08,-97.8916 1332.77,-86.5281"/>
<polygon fill="midnightblue" stroke="midnightblue" points="1244.75,-121.623 1237.02,-128.869 1247.58,-128.025 1244.75,-121.623"/>
</g>
<!-- Node15 -->
<g id="node15" class="node"><title>Node15</title>
<g id="a_node15"><a xlink:href="web_8cpp.html" target="_top" xlink:title="modules/web/web.cpp">
<polygon fill="none" stroke="black" points="1358.5,-0.5 1358.5,-19.5 1472.5,-19.5 1472.5,-0.5 1358.5,-0.5"/>
<text text-anchor="middle" x="1415.5" y="-7.5" font-family="Helvetica,sans-Serif" font-size="10.00">modules/web/web.cpp</text>
</a>
</g>
</g>
<!-- Node14&#45;&gt;Node15 -->
<g id="edge16" class="edge"><title>Node14&#45;&gt;Node15</title>
<path fill="none" stroke="midnightblue" d="M1383.18,-48.7037C1391.81,-38.636 1401.57,-27.2567 1408.08,-19.6578"/>
<polygon fill="midnightblue" stroke="midnightblue" points="1380.44,-46.529 1376.59,-56.3993 1385.75,-51.0845 1380.44,-46.529"/>
</g>
<!-- Node17 -->
<g id="node17" class="node"><title>Node17</title>
<g id="a_node17"><a xlink:href="irc_8cpp.html" target="_top" xlink:title="modules/irc/irc.cpp">
<polygon fill="none" stroke="black" points="610,-62 610,-81 709,-81 709,-62 610,-62"/>
<text text-anchor="middle" x="659.5" y="-69" font-family="Helvetica,sans-Serif" font-size="10.00">modules/irc/irc.cpp</text>
</a>
</g>
</g>
<!-- Node16&#45;&gt;Node17 -->
<g id="edge18" class="edge"><title>Node16&#45;&gt;Node17</title>
<path fill="none" stroke="midnightblue" d="M659.5,-113.25C659.5,-102.017 659.5,-89.3767 659.5,-81.1945"/>
<polygon fill="midnightblue" stroke="midnightblue" points="656,-113.396 659.5,-123.396 663,-113.396 656,-113.396"/>
</g>
<!-- Node18&#45;&gt;Node17 -->
<g id="edge20" class="edge"><title>Node18&#45;&gt;Node17</title>
<path fill="none" stroke="midnightblue" d="M357.294,-122.711C451.702,-103.578 551.477,-88.1198 609.789,-79.5662"/>
<polygon fill="midnightblue" stroke="midnightblue" points="356.389,-119.323 347.293,-124.756 357.791,-126.182 356.389,-119.323"/>
</g>
<!-- Node19&#45;&gt;Node17 -->
<g id="edge22" class="edge"><title>Node19&#45;&gt;Node17</title>
<path fill="none" stroke="midnightblue" d="M743.665,-118.473C720.948,-106.064 692.402,-90.4716 675.074,-81.007"/>
<polygon fill="midnightblue" stroke="midnightblue" points="742.225,-121.674 752.679,-123.396 745.58,-115.531 742.225,-121.674"/>
</g>
<!-- Node20&#45;&gt;Node17 -->
<g id="edge24" class="edge"><title>Node20&#45;&gt;Node17</title>
<path fill="none" stroke="midnightblue" d="M575.335,-118.473C598.052,-106.064 626.598,-90.4716 643.926,-81.007"/>
<polygon fill="midnightblue" stroke="midnightblue" points="573.42,-115.531 566.321,-123.396 576.775,-121.674 573.42,-115.531"/>
</g>
<!-- Node22&#45;&gt;Node17 -->
<g id="edge27" class="edge"><title>Node22&#45;&gt;Node17</title>
<path fill="none" stroke="midnightblue" d="M1511.14,-183.443C1490.76,-163.897 1457.48,-135.93 1422.5,-123 1355.92,-98.3897 868.033,-79.653 709.272,-74.153"/>
<polygon fill="midnightblue" stroke="midnightblue" points="1508.71,-185.962 1518.3,-190.474 1513.62,-180.969 1508.71,-185.962"/>
</g>
<!-- Node23 -->
<g id="node23" class="node"><title>Node23</title>
<g id="a_node23"><a xlink:href="buffer_8cpp.html" target="_top" xlink:title="modules/irc/network\l/buffer.cpp">
<polygon fill="none" stroke="black" points="1630.5,-123.5 1630.5,-153.5 1734.5,-153.5 1734.5,-123.5 1630.5,-123.5"/>
<text text-anchor="start" x="1638.5" y="-141.5" font-family="Helvetica,sans-Serif" font-size="10.00">modules/irc/network</text>
<text text-anchor="middle" x="1682.5" y="-130.5" font-family="Helvetica,sans-Serif" font-size="10.00">/buffer.cpp</text>
</a>
</g>
</g>
<!-- Node22&#45;&gt;Node23 -->
<g id="edge28" class="edge"><title>Node22&#45;&gt;Node23</title>
<path fill="none" stroke="midnightblue" d="M1573.53,-186.407C1597.64,-176.029 1627.45,-163.195 1649.8,-153.577"/>
<polygon fill="midnightblue" stroke="midnightblue" points="1572.07,-183.227 1564.26,-190.396 1574.83,-189.657 1572.07,-183.227"/>
</g>
<!-- Node24 -->
<g id="node24" class="node"><title>Node24</title>
<g id="a_node24"><a xlink:href="connection_8cpp.html" target="_top" xlink:title="modules/irc/network\l/connection.cpp">
<polygon fill="none" stroke="black" points="1508.5,-123.5 1508.5,-153.5 1612.5,-153.5 1612.5,-123.5 1508.5,-123.5"/>
<text text-anchor="start" x="1516.5" y="-141.5" font-family="Helvetica,sans-Serif" font-size="10.00">modules/irc/network</text>
<text text-anchor="middle" x="1560.5" y="-130.5" font-family="Helvetica,sans-Serif" font-size="10.00">/connection.cpp</text>
</a>
</g>
</g>
<!-- Node22&#45;&gt;Node24 -->
<g id="edge29" class="edge"><title>Node22&#45;&gt;Node24</title>
<path fill="none" stroke="midnightblue" d="M1541.99,-180.991C1546.09,-171.804 1550.65,-161.578 1554.22,-153.577"/>
<polygon fill="midnightblue" stroke="midnightblue" points="1538.67,-179.838 1537.79,-190.396 1545.06,-182.69 1538.67,-179.838"/>
</g>
<!-- Node25&#45;&gt;Node21 -->
<g id="edge31" class="edge"><title>Node25&#45;&gt;Node21</title>
<path fill="none" stroke="midnightblue" d="M1331.66,-258.274C1306.5,-245.4 1269.01,-226.209 1247.43,-215.167"/>
<polygon fill="midnightblue" stroke="midnightblue" points="1330.14,-261.428 1340.64,-262.869 1333.33,-255.197 1330.14,-261.428"/>
</g>
<!-- Node26 -->
<g id="node26" class="node"><title>Node26</title>
<g id="a_node26"><a xlink:href="http_8hpp.html" target="_top" xlink:title="modules/web/http.hpp">
<polygon fill="none" stroke="black" points="1301,-196 1301,-215 1414,-215 1414,-196 1301,-196"/>
<text text-anchor="middle" x="1357.5" y="-203" font-family="Helvetica,sans-Serif" font-size="10.00">modules/web/http.hpp</text>
</a>
</g>
</g>
<!-- Node25&#45;&gt;Node26 -->
<g id="edge32" class="edge"><title>Node25&#45;&gt;Node26</title>
<path fill="none" stroke="midnightblue" d="M1357.5,-252.537C1357.5,-240.17 1357.5,-224.62 1357.5,-215.127"/>
<polygon fill="midnightblue" stroke="midnightblue" points="1354,-252.734 1357.5,-262.734 1361,-252.734 1354,-252.734"/>
</g>
<!-- Node26&#45;&gt;Node13 -->
<g id="edge33" class="edge"><title>Node26&#45;&gt;Node13</title>
<path fill="none" stroke="midnightblue" d="M1329.74,-191.613C1302.01,-178.739 1260.16,-159.306 1236.17,-148.167"/>
<polygon fill="midnightblue" stroke="midnightblue" points="1328.37,-194.832 1338.91,-195.869 1331.31,-188.483 1328.37,-194.832"/>
</g>
<!-- Node26&#45;&gt;Node15 -->
<g id="edge34" class="edge"><title>Node26&#45;&gt;Node15</title>
<path fill="none" stroke="midnightblue" d="M1384.25,-190.783C1398.11,-182.186 1413.9,-169.742 1422.5,-154 1447.16,-108.842 1427.36,-43.216 1418.88,-19.7481"/>
<polygon fill="midnightblue" stroke="midnightblue" points="1382.39,-187.815 1375.51,-195.873 1385.91,-193.864 1382.39,-187.815"/>
</g>
<!-- Node27 -->
<g id="node27" class="node"><title>Node27</title>
<g id="a_node27"><a xlink:href="http_8cpp.html" target="_top" xlink:title="modules/web/http.cpp">
<polygon fill="none" stroke="black" points="1301,-129 1301,-148 1414,-148 1414,-129 1301,-129"/>
<text text-anchor="middle" x="1357.5" y="-136" font-family="Helvetica,sans-Serif" font-size="10.00">modules/web/http.cpp</text>
</a>
</g>
</g>
<!-- Node26&#45;&gt;Node27 -->
<g id="edge35" class="edge"><title>Node26&#45;&gt;Node27</title>
<path fill="none" stroke="midnightblue" d="M1357.5,-185.537C1357.5,-173.17 1357.5,-157.62 1357.5,-148.127"/>
<polygon fill="midnightblue" stroke="midnightblue" points="1354,-185.734 1357.5,-195.734 1361,-185.734 1354,-185.734"/>
</g>
<!-- Node28&#45;&gt;Node22 -->
<g id="edge38" class="edge"><title>Node28&#45;&gt;Node22</title>
<path fill="none" stroke="midnightblue" d="M1531.5,-247.108C1531.5,-238.154 1531.5,-228.323 1531.5,-220.577"/>
<polygon fill="midnightblue" stroke="midnightblue" points="1528,-247.396 1531.5,-257.396 1535,-247.396 1528,-247.396"/>
</g>
<!-- Node28&#45;&gt;Node23 -->
<g id="edge37" class="edge"><title>Node28&#45;&gt;Node23</title>
<path fill="none" stroke="midnightblue" d="M1557.01,-250.807C1568.02,-241.765 1580.99,-230.969 1592.5,-221 1619.27,-197.817 1649.66,-169.963 1667.4,-153.552"/>
<polygon fill="midnightblue" stroke="midnightblue" points="1554.55,-248.295 1549.03,-257.336 1558.98,-253.714 1554.55,-248.295"/>
</g>
</g>
</svg>
