<?xml version="1.0" encoding="UTF-8" standalone="no"?>
<!DOCTYPE svg PUBLIC "-//W3C//DTD SVG 1.1//EN"
 "http://www.w3.org/Graphics/SVG/1.1/DTD/svg11.dtd">
<!-- Generated by graphviz version 2.38.0 (20140413.2041)
 -->
<!-- Title: src/concurrent_container.hpp Pages: 1 -->
<svg width="756pt" height="252pt"
 viewBox="0.00 0.00 755.50 252.00" xmlns="http://www.w3.org/2000/svg" xmlns:xlink="http://www.w3.org/1999/xlink">
<g id="graph0" class="graph" transform="scale(1 1) rotate(0) translate(4 248)">
<title>src/concurrent_container.hpp</title>
<!-- Node1 -->
<g id="node1" class="node"><title>Node1</title>
<polygon fill="#bfbfbf" stroke="black" points="417,-224.5 417,-243.5 560,-243.5 560,-224.5 417,-224.5"/>
<text text-anchor="middle" x="488.5" y="-231.5" font-family="Helvetica,sans-Serif" font-size="10.00">src/concurrent_container.hpp</text>
</g>
<!-- Node2 -->
<g id="node2" class="node"><title>Node2</title>
<g id="a_node2"><a xlink:href="melanobot_8hpp.html" target="_top" xlink:title="src/melanobot.hpp">
<polygon fill="none" stroke="black" points="297,-168.5 297,-187.5 394,-187.5 394,-168.5 297,-168.5"/>
<text text-anchor="middle" x="345.5" y="-175.5" font-family="Helvetica,sans-Serif" font-size="10.00">src/melanobot.hpp</text>
</a>
</g>
</g>
<!-- Node1&#45;&gt;Node2 -->
<g id="edge1" class="edge"><title>Node1&#45;&gt;Node2</title>
<path fill="none" stroke="midnightblue" d="M456.473,-220.906C429.588,-210.754 391.859,-196.506 368.053,-187.516"/>
<polygon fill="midnightblue" stroke="midnightblue" points="455.25,-224.185 465.841,-224.444 457.722,-217.636 455.25,-224.185"/>
</g>
<!-- Node9 -->
<g id="node9" class="node"><title>Node9</title>
<g id="a_node9"><a xlink:href="irc_8hpp.html" target="_top" xlink:title="src/network/irc.hpp">
<polygon fill="none" stroke="black" points="559.5,-112.5 559.5,-131.5 659.5,-131.5 659.5,-112.5 559.5,-112.5"/>
<text text-anchor="middle" x="609.5" y="-119.5" font-family="Helvetica,sans-Serif" font-size="10.00">src/network/irc.hpp</text>
</a>
</g>
</g>
<!-- Node1&#45;&gt;Node9 -->
<g id="edge17" class="edge"><title>Node1&#45;&gt;Node9</title>
<path fill="none" stroke="midnightblue" d="M522.713,-220.345C539.506,-212.866 559.154,-202.078 573.5,-188 590.442,-171.376 601.627,-145.07 606.579,-131.588"/>
<polygon fill="midnightblue" stroke="midnightblue" points="521.061,-217.244 513.218,-224.367 523.791,-223.69 521.061,-217.244"/>
</g>
<!-- Node12 -->
<g id="node12" class="node"><title>Node12</title>
<g id="a_node12"><a xlink:href="async__service_8hpp.html" target="_top" xlink:title="src/network/async_service.hpp">
<polygon fill="none" stroke="black" points="412.5,-168.5 412.5,-187.5 564.5,-187.5 564.5,-168.5 412.5,-168.5"/>
<text text-anchor="middle" x="488.5" y="-175.5" font-family="Helvetica,sans-Serif" font-size="10.00">src/network/async_service.hpp</text>
</a>
</g>
</g>
<!-- Node1&#45;&gt;Node12 -->
<g id="edge12" class="edge"><title>Node1&#45;&gt;Node12</title>
<path fill="none" stroke="midnightblue" d="M488.5,-213.805C488.5,-204.91 488.5,-194.78 488.5,-187.751"/>
<polygon fill="midnightblue" stroke="midnightblue" points="485,-214.083 488.5,-224.083 492,-214.083 485,-214.083"/>
</g>
<!-- Node3 -->
<g id="node3" class="node"><title>Node3</title>
<g id="a_node3"><a xlink:href="melanobot_8cpp.html" target="_top" xlink:title="src/melanobot.cpp">
<polygon fill="none" stroke="black" points="0,-56.5 0,-75.5 97,-75.5 97,-56.5 0,-56.5"/>
<text text-anchor="middle" x="48.5" y="-63.5" font-family="Helvetica,sans-Serif" font-size="10.00">src/melanobot.cpp</text>
</a>
</g>
</g>
<!-- Node2&#45;&gt;Node3 -->
<g id="edge2" class="edge"><title>Node2&#45;&gt;Node3</title>
<path fill="none" stroke="midnightblue" d="M303.899,-165.61C274.235,-157.164 233.561,-144.917 198.5,-132 150.03,-114.143 94.6636,-88.8233 66.7048,-75.6775"/>
<polygon fill="midnightblue" stroke="midnightblue" points="303.33,-169.087 313.905,-168.435 305.232,-162.35 303.33,-169.087"/>
</g>
<!-- Node4 -->
<g id="node4" class="node"><title>Node4</title>
<g id="a_node4"><a xlink:href="handler_8hpp.html" target="_top" xlink:title="src/handler/handler.hpp">
<polygon fill="none" stroke="black" points="207.5,-112.5 207.5,-131.5 325.5,-131.5 325.5,-112.5 207.5,-112.5"/>
<text text-anchor="middle" x="266.5" y="-119.5" font-family="Helvetica,sans-Serif" font-size="10.00">src/handler/handler.hpp</text>
</a>
</g>
</g>
<!-- Node2&#45;&gt;Node4 -->
<g id="edge3" class="edge"><title>Node2&#45;&gt;Node4</title>
<path fill="none" stroke="midnightblue" d="M324.466,-162.622C310.034,-152.757 291.359,-139.992 279.161,-131.655"/>
<polygon fill="midnightblue" stroke="midnightblue" points="322.577,-165.57 332.807,-168.324 326.527,-159.791 322.577,-165.57"/>
</g>
<!-- Node2&#45;&gt;Node9 -->
<g id="edge9" class="edge"><title>Node2&#45;&gt;Node9</title>
<path fill="none" stroke="midnightblue" d="M397.275,-166.41C447.169,-156.204 521.697,-140.96 567.864,-131.516"/>
<polygon fill="midnightblue" stroke="midnightblue" points="396.427,-163.01 387.332,-168.444 397.83,-169.869 396.427,-163.01"/>
</g>
<!-- Node11 -->
<g id="node11" class="node"><title>Node11</title>
<g id="a_node11"><a xlink:href="main_8cpp.html" target="_top" xlink:title="src/main.cpp">
<polygon fill="none" stroke="black" points="344,-112.5 344,-131.5 417,-131.5 417,-112.5 344,-112.5"/>
<text text-anchor="middle" x="380.5" y="-119.5" font-family="Helvetica,sans-Serif" font-size="10.00">src/main.cpp</text>
</a>
</g>
</g>
<!-- Node2&#45;&gt;Node11 -->
<g id="edge11" class="edge"><title>Node2&#45;&gt;Node11</title>
<path fill="none" stroke="midnightblue" d="M356.8,-159.566C362.822,-150.275 369.969,-139.248 374.828,-131.751"/>
<polygon fill="midnightblue" stroke="midnightblue" points="353.781,-157.788 351.28,-168.083 359.656,-161.595 353.781,-157.788"/>
</g>
<!-- Node4&#45;&gt;Node3 -->
<g id="edge4" class="edge"><title>Node4&#45;&gt;Node3</title>
<path fill="none" stroke="midnightblue" d="M222.188,-110.024C181.008,-99.8232 120.527,-84.8414 82.8811,-75.5164"/>
<polygon fill="midnightblue" stroke="midnightblue" points="221.409,-113.436 231.957,-112.444 223.092,-106.642 221.409,-113.436"/>
</g>
<!-- Node5 -->
<g id="node5" class="node"><title>Node5</title>
<g id="a_node5"><a xlink:href="web-api_8hpp.html" target="_top" xlink:title="src/handler/web&#45;api.hpp">
<polygon fill="none" stroke="black" points="385.5,-56.5 385.5,-75.5 505.5,-75.5 505.5,-56.5 385.5,-56.5"/>
<text text-anchor="middle" x="445.5" y="-63.5" font-family="Helvetica,sans-Serif" font-size="10.00">src/handler/web&#45;api.hpp</text>
</a>
</g>
</g>
<!-- Node4&#45;&gt;Node5 -->
<g id="edge5" class="edge"><title>Node4&#45;&gt;Node5</title>
<path fill="none" stroke="midnightblue" d="M304.831,-109.436C338.58,-99.2551 386.947,-84.664 417.27,-75.5164"/>
<polygon fill="midnightblue" stroke="midnightblue" points="303.426,-106.204 294.863,-112.444 305.448,-112.906 303.426,-106.204"/>
</g>
<!-- Node7 -->
<g id="node7" class="node"><title>Node7</title>
<g id="a_node7"><a xlink:href="simple_8cpp.html" target="_top" xlink:title="src/handler/simple.cpp">
<polygon fill="none" stroke="black" points="252,-56.5 252,-75.5 367,-75.5 367,-56.5 252,-56.5"/>
<text text-anchor="middle" x="309.5" y="-63.5" font-family="Helvetica,sans-Serif" font-size="10.00">src/handler/simple.cpp</text>
</a>
</g>
</g>
<!-- Node4&#45;&gt;Node7 -->
<g id="edge7" class="edge"><title>Node4&#45;&gt;Node7</title>
<path fill="none" stroke="midnightblue" d="M279.922,-104.144C287.414,-94.7357 296.437,-83.4046 302.532,-75.7511"/>
<polygon fill="midnightblue" stroke="midnightblue" points="277.092,-102.08 273.601,-112.083 282.568,-106.44 277.092,-102.08"/>
</g>
<!-- Node8 -->
<g id="node8" class="node"><title>Node8</title>
<g id="a_node8"><a xlink:href="handler_8cpp.html" target="_top" xlink:title="src/handler/handler.cpp">
<polygon fill="none" stroke="black" points="115.5,-56.5 115.5,-75.5 233.5,-75.5 233.5,-56.5 115.5,-56.5"/>
<text text-anchor="middle" x="174.5" y="-63.5" font-family="Helvetica,sans-Serif" font-size="10.00">src/handler/handler.cpp</text>
</a>
</g>
</g>
<!-- Node4&#45;&gt;Node8 -->
<g id="edge8" class="edge"><title>Node4&#45;&gt;Node8</title>
<path fill="none" stroke="midnightblue" d="M242.95,-107.177C226.021,-97.2407 203.717,-84.1492 189.245,-75.6545"/>
<polygon fill="midnightblue" stroke="midnightblue" points="241.323,-110.28 251.719,-112.324 244.866,-104.243 241.323,-110.28"/>
</g>
<!-- Node6 -->
<g id="node6" class="node"><title>Node6</title>
<g id="a_node6"><a xlink:href="web-api_8cpp.html" target="_top" xlink:title="src/handler/web&#45;api.cpp">
<polygon fill="none" stroke="black" points="385.5,-0.5 385.5,-19.5 505.5,-19.5 505.5,-0.5 385.5,-0.5"/>
<text text-anchor="middle" x="445.5" y="-7.5" font-family="Helvetica,sans-Serif" font-size="10.00">src/handler/web&#45;api.cpp</text>
</a>
</g>
</g>
<!-- Node5&#45;&gt;Node6 -->
<g id="edge6" class="edge"><title>Node5&#45;&gt;Node6</title>
<path fill="none" stroke="midnightblue" d="M445.5,-45.8045C445.5,-36.9102 445.5,-26.7798 445.5,-19.7511"/>
<polygon fill="midnightblue" stroke="midnightblue" points="442,-46.083 445.5,-56.083 449,-46.083 442,-46.083"/>
</g>
<!-- Node10 -->
<g id="node10" class="node"><title>Node10</title>
<g id="a_node10"><a xlink:href="irc_8cpp.html" target="_top" xlink:title="src/network/irc.cpp">
<polygon fill="none" stroke="black" points="647.5,-56.5 647.5,-75.5 747.5,-75.5 747.5,-56.5 647.5,-56.5"/>
<text text-anchor="middle" x="697.5" y="-63.5" font-family="Helvetica,sans-Serif" font-size="10.00">src/network/irc.cpp</text>
</a>
</g>
</g>
<!-- Node9&#45;&gt;Node10 -->
<g id="edge10" class="edge"><title>Node9&#45;&gt;Node10</title>
<path fill="none" stroke="midnightblue" d="M632.477,-106.901C648.613,-96.9986 669.681,-84.0705 683.396,-75.6545"/>
<polygon fill="midnightblue" stroke="midnightblue" points="630.331,-104.111 623.639,-112.324 633.993,-110.077 630.331,-104.111"/>
</g>
<!-- Node12&#45;&gt;Node11 -->
<g id="edge16" class="edge"><title>Node12&#45;&gt;Node11</title>
<path fill="none" stroke="midnightblue" d="M461.952,-163.726C441.954,-153.727 415.113,-140.307 397.809,-131.655"/>
<polygon fill="midnightblue" stroke="midnightblue" points="460.638,-166.982 471.148,-168.324 463.769,-160.721 460.638,-166.982"/>
</g>
<!-- Node13 -->
<g id="node13" class="node"><title>Node13</title>
<g id="a_node13"><a xlink:href="http_8hpp.html" target="_top" xlink:title="src/network/http.hpp">
<polygon fill="none" stroke="black" points="435.5,-112.5 435.5,-131.5 541.5,-131.5 541.5,-112.5 435.5,-112.5"/>
<text text-anchor="middle" x="488.5" y="-119.5" font-family="Helvetica,sans-Serif" font-size="10.00">src/network/http.hpp</text>
</a>
</g>
</g>
<!-- Node12&#45;&gt;Node13 -->
<g id="edge13" class="edge"><title>Node12&#45;&gt;Node13</title>
<path fill="none" stroke="midnightblue" d="M488.5,-157.805C488.5,-148.91 488.5,-138.78 488.5,-131.751"/>
<polygon fill="midnightblue" stroke="midnightblue" points="485,-158.083 488.5,-168.083 492,-158.083 485,-158.083"/>
</g>
<!-- Node13&#45;&gt;Node5 -->
<g id="edge14" class="edge"><title>Node13&#45;&gt;Node5</title>
<path fill="none" stroke="midnightblue" d="M475.078,-104.144C467.586,-94.7357 458.563,-83.4046 452.468,-75.7511"/>
<polygon fill="midnightblue" stroke="midnightblue" points="472.432,-106.44 481.399,-112.083 477.908,-102.08 472.432,-106.44"/>
</g>
<!-- Node14 -->
<g id="node14" class="node"><title>Node14</title>
<g id="a_node14"><a xlink:href="http_8cpp.html" target="_top" xlink:title="src/network/http.cpp">
<polygon fill="none" stroke="black" points="523.5,-56.5 523.5,-75.5 629.5,-75.5 629.5,-56.5 523.5,-56.5"/>
<text text-anchor="middle" x="576.5" y="-63.5" font-family="Helvetica,sans-Serif" font-size="10.00">src/network/http.cpp</text>
</a>
</g>
</g>
<!-- Node13&#45;&gt;Node14 -->
<g id="edge15" class="edge"><title>Node13&#45;&gt;Node14</title>
<path fill="none" stroke="midnightblue" d="M511.477,-106.901C527.613,-96.9986 548.681,-84.0705 562.396,-75.6545"/>
<polygon fill="midnightblue" stroke="midnightblue" points="509.331,-104.111 502.639,-112.324 512.993,-110.077 509.331,-104.111"/>
</g>
</g>
</svg>
