<?xml version="1.0" encoding="UTF-8" standalone="no"?>
<!DOCTYPE svg PUBLIC "-//W3C//DTD SVG 1.1//EN"
 "http://www.w3.org/Graphics/SVG/1.1/DTD/svg11.dtd">
<!-- Generated by graphviz version 2.38.0 (20140413.2041)
 -->
<!-- Title: src/concurrent_container.hpp Pages: 1 -->
<svg width="368pt" height="84pt"
 viewBox="0.00 0.00 368.00 84.00" xmlns="http://www.w3.org/2000/svg" xmlns:xlink="http://www.w3.org/1999/xlink">
<g id="graph0" class="graph" transform="scale(1 1) rotate(0) translate(4 80)">
<title>src/concurrent_container.hpp</title>
<!-- Node1 -->
<g id="node1" class="node"><title>Node1</title>
<polygon fill="#bfbfbf" stroke="black" points="135.5,-56.5 135.5,-75.5 278.5,-75.5 278.5,-56.5 135.5,-56.5"/>
<text text-anchor="middle" x="207" y="-63.5" font-family="Helvetica,sans-Serif" font-size="10.00">src/concurrent_container.hpp</text>
</g>
<!-- Node2 -->
<g id="node2" class="node"><title>Node2</title>
<polygon fill="none" stroke="#bfbfbf" points="0,-0.5 0,-19.5 46,-19.5 46,-0.5 0,-0.5"/>
<text text-anchor="middle" x="23" y="-7.5" font-family="Helvetica,sans-Serif" font-size="10.00">atomic</text>
</g>
<!-- Node1&#45;&gt;Node2 -->
<g id="edge1" class="edge"><title>Node1&#45;&gt;Node2</title>
<path fill="none" stroke="midnightblue" d="M177.845,-56.4435C144.642,-46.6993 90.5204,-30.8158 55.8521,-20.6414"/>
<polygon fill="midnightblue" stroke="midnightblue" points="56.774,-17.2644 46.193,-17.8067 54.8027,-23.9811 56.774,-17.2644"/>
</g>
<!-- Node3 -->
<g id="node3" class="node"><title>Node3</title>
<polygon fill="none" stroke="#bfbfbf" points="64.5,-0.5 64.5,-19.5 159.5,-19.5 159.5,-0.5 64.5,-0.5"/>
<text text-anchor="middle" x="112" y="-7.5" font-family="Helvetica,sans-Serif" font-size="10.00">condition_variable</text>
</g>
<!-- Node1&#45;&gt;Node3 -->
<g id="edge2" class="edge"><title>Node1&#45;&gt;Node3</title>
<path fill="none" stroke="midnightblue" d="M191.737,-56.324C176.779,-47.8215 153.745,-34.7288 136.273,-24.7975"/>
<polygon fill="midnightblue" stroke="midnightblue" points="137.649,-21.5534 127.226,-19.6545 134.19,-27.639 137.649,-21.5534"/>
</g>
<!-- Node4 -->
<g id="node4" class="node"><title>Node4</title>
<polygon fill="none" stroke="#bfbfbf" points="177.5,-0.5 177.5,-19.5 236.5,-19.5 236.5,-0.5 177.5,-0.5"/>
<text text-anchor="middle" x="207" y="-7.5" font-family="Helvetica,sans-Serif" font-size="10.00">functional</text>
</g>
<!-- Node1&#45;&gt;Node4 -->
<g id="edge3" class="edge"><title>Node1&#45;&gt;Node4</title>
<path fill="none" stroke="midnightblue" d="M207,-56.083C207,-49.0059 207,-38.8611 207,-29.9865"/>
<polygon fill="midnightblue" stroke="midnightblue" points="210.5,-29.751 207,-19.7511 203.5,-29.7511 210.5,-29.751"/>
</g>
<!-- Node5 -->
<g id="node5" class="node"><title>Node5</title>
<polygon fill="none" stroke="#bfbfbf" points="254.5,-0.5 254.5,-19.5 297.5,-19.5 297.5,-0.5 254.5,-0.5"/>
<text text-anchor="middle" x="276" y="-7.5" font-family="Helvetica,sans-Serif" font-size="10.00">queue</text>
</g>
<!-- Node1&#45;&gt;Node5 -->
<g id="edge4" class="edge"><title>Node1&#45;&gt;Node5</title>
<path fill="none" stroke="midnightblue" d="M218.086,-56.324C228.486,-48.1849 244.261,-35.8395 256.722,-26.0874"/>
<polygon fill="midnightblue" stroke="midnightblue" points="258.994,-28.7533 264.712,-19.8339 254.68,-23.2407 258.994,-28.7533"/>
</g>
<!-- Node6 -->
<g id="node6" class="node"><title>Node6</title>
<polygon fill="none" stroke="#bfbfbf" points="316,-0.5 316,-19.5 360,-19.5 360,-0.5 316,-0.5"/>
<text text-anchor="middle" x="338" y="-7.5" font-family="Helvetica,sans-Serif" font-size="10.00">vector</text>
</g>
<!-- Node1&#45;&gt;Node6 -->
<g id="edge5" class="edge"><title>Node1&#45;&gt;Node6</title>
<path fill="none" stroke="midnightblue" d="M227.757,-56.4435C249.316,-47.5566 283.263,-33.5632 307.794,-23.4514"/>
<polygon fill="midnightblue" stroke="midnightblue" points="309.428,-26.5634 317.34,-19.5164 306.761,-20.0917 309.428,-26.5634"/>
</g>
</g>
</svg>
