<?xml version="1.0" encoding="UTF-8" standalone="no"?>
<!DOCTYPE svg PUBLIC "-//W3C//DTD SVG 1.1//EN"
 "http://www.w3.org/Graphics/SVG/1.1/DTD/svg11.dtd">
<!-- Generated by graphviz version 2.38.0 (20140413.2041)
 -->
<!-- Title: src/concurrent_container.hpp Pages: 1 -->
<svg width="2169pt" height="419pt"
 viewBox="0.00 0.00 2168.54 419.00" xmlns="http://www.w3.org/2000/svg" xmlns:xlink="http://www.w3.org/1999/xlink">
<g id="graph0" class="graph" transform="scale(1 1) rotate(0) translate(4 415)">
<title>src/concurrent_container.hpp</title>
<!-- Node1 -->
<g id="node1" class="node"><title>Node1</title>
<polygon fill="#bfbfbf" stroke="black" points="1649.04,-391.5 1649.04,-410.5 1792.04,-410.5 1792.04,-391.5 1649.04,-391.5"/>
<text text-anchor="middle" x="1720.54" y="-398.5" font-family="Helvetica,sans-Serif" font-size="10.00">src/concurrent_container.hpp</text>
</g>
<!-- Node2 -->
<g id="node2" class="node"><title>Node2</title>
<g id="a_node2"><a xlink:href="melanobot_8hpp.html" target="_top" xlink:title="src/melanobot.hpp">
<polygon fill="none" stroke="black" points="1603.04,-330 1603.04,-349 1700.04,-349 1700.04,-330 1603.04,-330"/>
<text text-anchor="middle" x="1651.54" y="-337" font-family="Helvetica,sans-Serif" font-size="10.00">src/melanobot.hpp</text>
</a>
</g>
</g>
<!-- Node1&#45;&gt;Node2 -->
<g id="edge1" class="edge"><title>Node1&#45;&gt;Node2</title>
<path fill="none" stroke="midnightblue" d="M1702.74,-384.65C1689.58,-373.306 1672.16,-358.281 1661.4,-349.009"/>
<polygon fill="midnightblue" stroke="midnightblue" points="1700.79,-387.595 1710.65,-391.475 1705.36,-382.294 1700.79,-387.595"/>
</g>
<!-- Node31 -->
<g id="node31" class="node"><title>Node31</title>
<g id="a_node31"><a xlink:href="xonotic-connection_8hpp.html" target="_top" xlink:title="modules/xonotic/xonotic\l&#45;connection.hpp">
<polygon fill="none" stroke="black" points="1936.54,-257.5 1936.54,-287.5 2058.54,-287.5 2058.54,-257.5 1936.54,-257.5"/>
<text text-anchor="start" x="1944.54" y="-275.5" font-family="Helvetica,sans-Serif" font-size="10.00">modules/xonotic/xonotic</text>
<text text-anchor="middle" x="1997.54" y="-264.5" font-family="Helvetica,sans-Serif" font-size="10.00">&#45;connection.hpp</text>
</a>
</g>
</g>
<!-- Node1&#45;&gt;Node31 -->
<g id="edge60" class="edge"><title>Node1&#45;&gt;Node31</title>
<path fill="none" stroke="midnightblue" d="M1759.32,-388.513C1785.53,-380.284 1820.66,-368.334 1850.54,-355 1896.1,-334.665 1946.39,-305.132 1974.75,-287.763"/>
<polygon fill="midnightblue" stroke="midnightblue" points="1758.26,-385.177 1749.75,-391.479 1760.34,-391.863 1758.26,-385.177"/>
</g>
<!-- Node36 -->
<g id="node36" class="node"><title>Node36</title>
<g id="a_node36"><a xlink:href="async__service_8hpp.html" target="_top" xlink:title="src/network/async_service.hpp">
<polygon fill="none" stroke="black" points="266.537,-330 266.537,-349 418.537,-349 418.537,-330 266.537,-330"/>
<text text-anchor="middle" x="342.537" y="-337" font-family="Helvetica,sans-Serif" font-size="10.00">src/network/async_service.hpp</text>
</a>
</g>
</g>
<!-- Node1&#45;&gt;Node36 -->
<g id="edge53" class="edge"><title>Node1&#45;&gt;Node36</title>
<path fill="none" stroke="midnightblue" d="M1638.54,-396.459C1391.65,-385.799 657.639,-354.106 418.664,-343.787"/>
<polygon fill="midnightblue" stroke="midnightblue" points="1638.73,-399.971 1648.87,-396.906 1639.03,-392.977 1638.73,-399.971"/>
</g>
<!-- Node39 -->
<g id="node39" class="node"><title>Node39</title>
<g id="a_node39"><a xlink:href="buffer_8hpp.html" target="_top" xlink:title="modules/irc/network\l/buffer.hpp">
<polygon fill="none" stroke="black" points="1737.54,-324.5 1737.54,-354.5 1841.54,-354.5 1841.54,-324.5 1737.54,-324.5"/>
<text text-anchor="start" x="1745.54" y="-342.5" font-family="Helvetica,sans-Serif" font-size="10.00">modules/irc/network</text>
<text text-anchor="middle" x="1789.54" y="-331.5" font-family="Helvetica,sans-Serif" font-size="10.00">/buffer.hpp</text>
</a>
</g>
</g>
<!-- Node1&#45;&gt;Node39 -->
<g id="edge61" class="edge"><title>Node1&#45;&gt;Node39</title>
<path fill="none" stroke="midnightblue" d="M1738.02,-384.921C1748.86,-375.579 1762.68,-363.662 1773.28,-354.523"/>
<polygon fill="midnightblue" stroke="midnightblue" points="1735.71,-382.294 1730.42,-391.475 1740.28,-387.595 1735.71,-382.294"/>
</g>
<!-- Node3 -->
<g id="node3" class="node"><title>Node3</title>
<g id="a_node3"><a xlink:href="melanobot_8cpp.html" target="_top" xlink:title="src/melanobot.cpp">
<polygon fill="none" stroke="black" points="1603.04,-196 1603.04,-215 1700.04,-215 1700.04,-196 1603.04,-196"/>
<text text-anchor="middle" x="1651.54" y="-203" font-family="Helvetica,sans-Serif" font-size="10.00">src/melanobot.cpp</text>
</a>
</g>
</g>
<!-- Node2&#45;&gt;Node3 -->
<g id="edge2" class="edge"><title>Node2&#45;&gt;Node3</title>
<path fill="none" stroke="midnightblue" d="M1651.54,-319.775C1651.54,-290.746 1651.54,-236.038 1651.54,-215.021"/>
<polygon fill="midnightblue" stroke="midnightblue" points="1648.04,-319.839 1651.54,-329.839 1655.04,-319.839 1648.04,-319.839"/>
</g>
<!-- Node4 -->
<g id="node4" class="node"><title>Node4</title>
<g id="a_node4"><a xlink:href="handler_8hpp.html" target="_top" xlink:title="src/handler/handler.hpp">
<polygon fill="none" stroke="black" points="1028.54,-263 1028.54,-282 1146.54,-282 1146.54,-263 1028.54,-263"/>
<text text-anchor="middle" x="1087.54" y="-270" font-family="Helvetica,sans-Serif" font-size="10.00">src/handler/handler.hpp</text>
</a>
</g>
</g>
<!-- Node2&#45;&gt;Node4 -->
<g id="edge3" class="edge"><title>Node2&#45;&gt;Node4</title>
<path fill="none" stroke="midnightblue" d="M1592.89,-331.74C1484.75,-319.278 1255.12,-292.814 1146.64,-280.312"/>
<polygon fill="midnightblue" stroke="midnightblue" points="1592.63,-335.234 1602.96,-332.902 1593.43,-328.28 1592.63,-335.234"/>
</g>
<!-- Node7 -->
<g id="node7" class="node"><title>Node7</title>
<g id="a_node7"><a xlink:href="main_8cpp.html" target="_top" xlink:title="src/main.cpp">
<polygon fill="none" stroke="black" points="289.037,-129 289.037,-148 362.037,-148 362.037,-129 289.037,-129"/>
<text text-anchor="middle" x="325.537" y="-136" font-family="Helvetica,sans-Serif" font-size="10.00">src/main.cpp</text>
</a>
</g>
</g>
<!-- Node2&#45;&gt;Node7 -->
<g id="edge43" class="edge"><title>Node2&#45;&gt;Node7</title>
<path fill="none" stroke="midnightblue" d="M1592.81,-338.912C1439.3,-339.251 1013.75,-335.459 663.537,-288 527.297,-269.537 467.871,-308.152 361.537,-221 338.328,-201.978 329.621,-164.982 326.765,-148.178"/>
<polygon fill="midnightblue" stroke="midnightblue" points="1592.96,-342.411 1602.95,-338.882 1592.94,-335.411 1592.96,-342.411"/>
</g>
<!-- Node30 -->
<g id="node30" class="node"><title>Node30</title>
<g id="a_node30"><a xlink:href="stdin_8hpp.html" target="_top" xlink:title="modules/posix/stdin.hpp">
<polygon fill="none" stroke="black" points="672.537,-263 672.537,-282 794.537,-282 794.537,-263 672.537,-263"/>
<text text-anchor="middle" x="733.537" y="-270" font-family="Helvetica,sans-Serif" font-size="10.00">modules/posix/stdin.hpp</text>
</a>
</g>
</g>
<!-- Node2&#45;&gt;Node30 -->
<g id="edge44" class="edge"><title>Node2&#45;&gt;Node30</title>
<path fill="none" stroke="midnightblue" d="M1592.39,-334.312C1427.24,-322.618 962.282,-289.697 794.706,-277.831"/>
<polygon fill="midnightblue" stroke="midnightblue" points="1592.61,-337.836 1602.83,-335.051 1593.1,-330.854 1592.61,-337.836"/>
</g>
<!-- Node2&#45;&gt;Node31 -->
<g id="edge46" class="edge"><title>Node2&#45;&gt;Node31</title>
<path fill="none" stroke="midnightblue" d="M1706.66,-328.115C1714.02,-326.731 1721.46,-325.331 1728.54,-324 1799.87,-310.588 1881.85,-295.202 1936.37,-284.973"/>
<polygon fill="midnightblue" stroke="midnightblue" points="1705.91,-324.695 1696.73,-329.985 1707.21,-331.574 1705.91,-324.695"/>
</g>
<!-- Node33 -->
<g id="node33" class="node"><title>Node33</title>
<g id="a_node33"><a xlink:href="modules_2irc_2network_2connection_8hpp.html" target="_top" xlink:title="modules/irc/network\l/connection.hpp">
<polygon fill="none" stroke="black" points="1737.54,-257.5 1737.54,-287.5 1841.54,-287.5 1841.54,-257.5 1737.54,-257.5"/>
<text text-anchor="start" x="1745.54" y="-275.5" font-family="Helvetica,sans-Serif" font-size="10.00">modules/irc/network</text>
<text text-anchor="middle" x="1789.54" y="-264.5" font-family="Helvetica,sans-Serif" font-size="10.00">/connection.hpp</text>
</a>
</g>
</g>
<!-- Node2&#45;&gt;Node33 -->
<g id="edge49" class="edge"><title>Node2&#45;&gt;Node33</title>
<path fill="none" stroke="midnightblue" d="M1679.19,-325.474C1702.52,-314.485 1735.84,-298.791 1759.75,-287.528"/>
<polygon fill="midnightblue" stroke="midnightblue" points="1677.42,-322.441 1669.86,-329.869 1680.4,-328.774 1677.42,-322.441"/>
</g>
<!-- Node4&#45;&gt;Node3 -->
<g id="edge4" class="edge"><title>Node4&#45;&gt;Node3</title>
<path fill="none" stroke="midnightblue" d="M1156.8,-267.788C1254.66,-261.818 1438.76,-247.924 1593.54,-221 1602.54,-219.435 1612.2,-217.232 1621.01,-215.015"/>
<polygon fill="midnightblue" stroke="midnightblue" points="1156.51,-264.299 1146.73,-268.392 1156.93,-271.286 1156.51,-264.299"/>
</g>
<!-- Node5 -->
<g id="node5" class="node"><title>Node5</title>
<g id="a_node5"><a xlink:href="handler_8cpp.html" target="_top" xlink:title="src/handler/handler.cpp">
<polygon fill="none" stroke="black" points="662.537,-196 662.537,-215 780.537,-215 780.537,-196 662.537,-196"/>
<text text-anchor="middle" x="721.537" y="-203" font-family="Helvetica,sans-Serif" font-size="10.00">src/handler/handler.cpp</text>
</a>
</g>
</g>
<!-- Node4&#45;&gt;Node5 -->
<g id="edge5" class="edge"><title>Node4&#45;&gt;Node5</title>
<path fill="none" stroke="midnightblue" d="M1022.88,-261.35C962.418,-251.669 869.683,-236.329 789.537,-221 780.052,-219.186 769.855,-217.09 760.316,-215.065"/>
<polygon fill="midnightblue" stroke="midnightblue" points="1022.61,-264.851 1033.03,-262.972 1023.71,-257.939 1022.61,-264.851"/>
</g>
<!-- Node6 -->
<g id="node6" class="node"><title>Node6</title>
<g id="a_node6"><a xlink:href="melanomodule_8hpp.html" target="_top" xlink:title="src/melanomodule.hpp">
<polygon fill="none" stroke="black" points="371.037,-196 371.037,-215 486.037,-215 486.037,-196 371.037,-196"/>
<text text-anchor="middle" x="428.537" y="-203" font-family="Helvetica,sans-Serif" font-size="10.00">src/melanomodule.hpp</text>
</a>
</g>
</g>
<!-- Node4&#45;&gt;Node6 -->
<g id="edge6" class="edge"><title>Node4&#45;&gt;Node6</title>
<path fill="none" stroke="midnightblue" d="M1018.26,-266.222C913.276,-257.989 707.649,-240.947 533.537,-221 518.18,-219.241 501.596,-217.075 486.243,-214.958"/>
<polygon fill="midnightblue" stroke="midnightblue" points="1018.17,-269.725 1028.41,-267.015 1018.71,-262.747 1018.17,-269.725"/>
</g>
<!-- Node14 -->
<g id="node14" class="node"><title>Node14</title>
<g id="a_node14"><a xlink:href="web-api_8hpp.html" target="_top" xlink:title="modules/web/web&#45;api.hpp">
<polygon fill="none" stroke="black" points="146.537,-196 146.537,-215 276.537,-215 276.537,-196 146.537,-196"/>
<text text-anchor="middle" x="211.537" y="-203" font-family="Helvetica,sans-Serif" font-size="10.00">modules/web/web&#45;api.hpp</text>
</a>
</g>
</g>
<!-- Node4&#45;&gt;Node14 -->
<g id="edge14" class="edge"><title>Node4&#45;&gt;Node14</title>
<path fill="none" stroke="midnightblue" d="M1018.05,-267.291C888.748,-259.32 602.431,-241.018 361.537,-221 333.769,-218.693 303.144,-215.795 276.846,-213.199"/>
<polygon fill="midnightblue" stroke="midnightblue" points="1018.01,-270.795 1028.21,-267.916 1018.44,-263.809 1018.01,-270.795"/>
</g>
<!-- Node18 -->
<g id="node18" class="node"><title>Node18</title>
<g id="a_node18"><a xlink:href="simple-group_8hpp.html" target="_top" xlink:title="modules/core/handler\l/simple&#45;group.hpp">
<polygon fill="none" stroke="black" points="1194.54,-190.5 1194.54,-220.5 1304.54,-220.5 1304.54,-190.5 1194.54,-190.5"/>
<text text-anchor="start" x="1202.54" y="-208.5" font-family="Helvetica,sans-Serif" font-size="10.00">modules/core/handler</text>
<text text-anchor="middle" x="1249.54" y="-197.5" font-family="Helvetica,sans-Serif" font-size="10.00">/simple&#45;group.hpp</text>
</a>
</g>
</g>
<!-- Node4&#45;&gt;Node18 -->
<g id="edge20" class="edge"><title>Node4&#45;&gt;Node18</title>
<path fill="none" stroke="midnightblue" d="M1118.55,-259.058C1145.99,-248.047 1186,-231.992 1214.57,-220.528"/>
<polygon fill="midnightblue" stroke="midnightblue" points="1117.03,-255.896 1109.05,-262.869 1119.63,-262.393 1117.03,-255.896"/>
</g>
<!-- Node23 -->
<g id="node23" class="node"><title>Node23</title>
<g id="a_node23"><a xlink:href="misc_8hpp.html" target="_top" xlink:title="This file defines handlers which perform miscellaneous tasks. ">
<polygon fill="none" stroke="black" points="1030.54,-123.5 1030.54,-153.5 1140.54,-153.5 1140.54,-123.5 1030.54,-123.5"/>
<text text-anchor="start" x="1038.54" y="-141.5" font-family="Helvetica,sans-Serif" font-size="10.00">modules/core/handler</text>
<text text-anchor="middle" x="1085.54" y="-130.5" font-family="Helvetica,sans-Serif" font-size="10.00">/misc.hpp</text>
</a>
</g>
</g>
<!-- Node4&#45;&gt;Node23 -->
<g id="edge29" class="edge"><title>Node4&#45;&gt;Node23</title>
<path fill="none" stroke="midnightblue" d="M1112.25,-257.584C1125.04,-248.894 1139.44,-236.424 1146.54,-221 1152.3,-208.485 1152.4,-202.468 1146.54,-190 1139.28,-174.573 1124.74,-162.243 1111.68,-153.629"/>
<polygon fill="midnightblue" stroke="midnightblue" points="1110.32,-254.665 1103.76,-262.985 1114.08,-260.571 1110.32,-254.665"/>
</g>
<!-- Node24 -->
<g id="node24" class="node"><title>Node24</title>
<g id="a_node24"><a xlink:href="rcon_8hpp.html" target="_top" xlink:title="modules/xonotic/handler\l/rcon.hpp">
<polygon fill="none" stroke="black" points="1462.54,-190.5 1462.54,-220.5 1584.54,-220.5 1584.54,-190.5 1462.54,-190.5"/>
<text text-anchor="start" x="1470.54" y="-208.5" font-family="Helvetica,sans-Serif" font-size="10.00">modules/xonotic/handler</text>
<text text-anchor="middle" x="1523.54" y="-197.5" font-family="Helvetica,sans-Serif" font-size="10.00">/rcon.hpp</text>
</a>
</g>
</g>
<!-- Node4&#45;&gt;Node24 -->
<g id="edge31" class="edge"><title>Node4&#45;&gt;Node24</title>
<path fill="none" stroke="midnightblue" d="M1156.77,-263.353C1230.53,-254.346 1350.6,-238.742 1453.54,-221 1456.47,-220.494 1459.47,-219.956 1462.5,-219.395"/>
<polygon fill="midnightblue" stroke="midnightblue" points="1156.18,-259.899 1146.68,-264.58 1157.03,-266.848 1156.18,-259.899"/>
</g>
<!-- Node25 -->
<g id="node25" class="node"><title>Node25</title>
<g id="a_node25"><a xlink:href="status_8hpp.html" target="_top" xlink:title="modules/xonotic/handler\l/status.hpp">
<polygon fill="none" stroke="black" points="1322.54,-190.5 1322.54,-220.5 1444.54,-220.5 1444.54,-190.5 1322.54,-190.5"/>
<text text-anchor="start" x="1330.54" y="-208.5" font-family="Helvetica,sans-Serif" font-size="10.00">modules/xonotic/handler</text>
<text text-anchor="middle" x="1383.54" y="-197.5" font-family="Helvetica,sans-Serif" font-size="10.00">/status.hpp</text>
</a>
</g>
</g>
<!-- Node4&#45;&gt;Node25 -->
<g id="edge33" class="edge"><title>Node4&#45;&gt;Node25</title>
<path fill="none" stroke="midnightblue" d="M1136.32,-260.788C1187.23,-249.608 1267.18,-232.051 1322.31,-219.946"/>
<polygon fill="midnightblue" stroke="midnightblue" points="1135.55,-257.372 1126.54,-262.936 1137.06,-264.209 1135.55,-257.372"/>
</g>
<!-- Node26 -->
<g id="node26" class="node"><title>Node26</title>
<g id="a_node26"><a xlink:href="irc__actions_8hpp.html" target="_top" xlink:title="File containing Handlers which manage responses to various IRC commands. ">
<polygon fill="none" stroke="black" points="799.037,-190.5 799.037,-220.5 900.037,-220.5 900.037,-190.5 799.037,-190.5"/>
<text text-anchor="start" x="807.037" y="-208.5" font-family="Helvetica,sans-Serif" font-size="10.00">modules/irc/handler</text>
<text text-anchor="middle" x="849.537" y="-197.5" font-family="Helvetica,sans-Serif" font-size="10.00">/irc_actions.hpp</text>
</a>
</g>
</g>
<!-- Node4&#45;&gt;Node26 -->
<g id="edge35" class="edge"><title>Node4&#45;&gt;Node26</title>
<path fill="none" stroke="midnightblue" d="M1046.12,-260.189C1005.64,-249.132 943.912,-232.275 900.45,-220.405"/>
<polygon fill="midnightblue" stroke="midnightblue" points="1045.36,-263.61 1055.93,-262.869 1047.21,-256.857 1045.36,-263.61"/>
</g>
<!-- Node27 -->
<g id="node27" class="node"><title>Node27</title>
<g id="a_node27"><a xlink:href="ctcp_8hpp.html" target="_top" xlink:title="This files has handlers for CTCP messages. ">
<polygon fill="none" stroke="black" points="918.037,-190.5 918.037,-220.5 1019.04,-220.5 1019.04,-190.5 918.037,-190.5"/>
<text text-anchor="start" x="926.037" y="-208.5" font-family="Helvetica,sans-Serif" font-size="10.00">modules/irc/handler</text>
<text text-anchor="middle" x="968.537" y="-197.5" font-family="Helvetica,sans-Serif" font-size="10.00">/ctcp.hpp</text>
</a>
</g>
</g>
<!-- Node4&#45;&gt;Node27 -->
<g id="edge37" class="edge"><title>Node4&#45;&gt;Node27</title>
<path fill="none" stroke="midnightblue" d="M1062.64,-257.902C1042.62,-246.966 1014.59,-231.653 994.331,-220.589"/>
<polygon fill="midnightblue" stroke="midnightblue" points="1061.03,-261.012 1071.49,-262.734 1064.39,-254.868 1061.03,-261.012"/>
</g>
<!-- Node28 -->
<g id="node28" class="node"><title>Node28</title>
<g id="a_node28"><a xlink:href="irc__admin_8hpp.html" target="_top" xlink:title="This file defines handlers which allows admin to administrate the bot (IRC&#45;specific actions) ...">
<polygon fill="none" stroke="black" points="1037.04,-190.5 1037.04,-220.5 1138.04,-220.5 1138.04,-190.5 1037.04,-190.5"/>
<text text-anchor="start" x="1045.04" y="-208.5" font-family="Helvetica,sans-Serif" font-size="10.00">modules/irc/handler</text>
<text text-anchor="middle" x="1087.54" y="-197.5" font-family="Helvetica,sans-Serif" font-size="10.00">/irc_admin.hpp</text>
</a>
</g>
</g>
<!-- Node4&#45;&gt;Node28 -->
<g id="edge39" class="edge"><title>Node4&#45;&gt;Node28</title>
<path fill="none" stroke="midnightblue" d="M1087.54,-252.411C1087.54,-242.222 1087.54,-229.901 1087.54,-220.589"/>
<polygon fill="midnightblue" stroke="midnightblue" points="1084.04,-252.734 1087.54,-262.734 1091.04,-252.734 1084.04,-252.734"/>
</g>
<!-- Node29 -->
<g id="node29" class="node"><title>Node29</title>
<g id="a_node29"><a xlink:href="irc__whois_8hpp.html" target="_top" xlink:title="This file contains handlers for WHOIS recognition on IRC. ">
<polygon fill="none" stroke="black" points="543.037,-190.5 543.037,-220.5 644.037,-220.5 644.037,-190.5 543.037,-190.5"/>
<text text-anchor="start" x="551.037" y="-208.5" font-family="Helvetica,sans-Serif" font-size="10.00">modules/irc/handler</text>
<text text-anchor="middle" x="593.537" y="-197.5" font-family="Helvetica,sans-Serif" font-size="10.00">/irc_whois.hpp</text>
</a>
</g>
</g>
<!-- Node4&#45;&gt;Node29 -->
<g id="edge41" class="edge"><title>Node4&#45;&gt;Node29</title>
<path fill="none" stroke="midnightblue" d="M1018.08,-266.033C932.062,-258.663 781.27,-243.779 653.537,-221 650.477,-220.454 647.341,-219.846 644.185,-219.197"/>
<polygon fill="midnightblue" stroke="midnightblue" points="1017.98,-269.537 1028.24,-266.894 1018.57,-262.562 1017.98,-269.537"/>
</g>
<!-- Node6&#45;&gt;Node7 -->
<g id="edge7" class="edge"><title>Node6&#45;&gt;Node7</title>
<path fill="none" stroke="midnightblue" d="M405.986,-190.269C385.598,-177.403 356.245,-158.879 339.208,-148.127"/>
<polygon fill="midnightblue" stroke="midnightblue" points="404.321,-193.357 414.646,-195.734 408.057,-187.437 404.321,-193.357"/>
</g>
<!-- Node8 -->
<g id="node8" class="node"><title>Node8</title>
<g id="a_node8"><a xlink:href="posix_8cpp.html" target="_top" xlink:title="modules/posix/posix.cpp">
<polygon fill="none" stroke="black" points="495.037,-129 495.037,-148 620.037,-148 620.037,-129 495.037,-129"/>
<text text-anchor="middle" x="557.537" y="-136" font-family="Helvetica,sans-Serif" font-size="10.00">modules/posix/posix.cpp</text>
</a>
</g>
</g>
<!-- Node6&#45;&gt;Node8 -->
<g id="edge8" class="edge"><title>Node6&#45;&gt;Node8</title>
<path fill="none" stroke="midnightblue" d="M454.786,-191.274C480.336,-178.4 518.423,-159.209 540.336,-148.167"/>
<polygon fill="midnightblue" stroke="midnightblue" points="453.023,-188.243 445.667,-195.869 456.172,-194.494 453.023,-188.243"/>
</g>
<!-- Node9 -->
<g id="node9" class="node"><title>Node9</title>
<g id="a_node9"><a xlink:href="fun_8cpp.html" target="_top" xlink:title="modules/fun/fun.cpp">
<polygon fill="none" stroke="black" points="376.037,-0.5 376.037,-19.5 481.037,-19.5 481.037,-0.5 376.037,-0.5"/>
<text text-anchor="middle" x="428.537" y="-7.5" font-family="Helvetica,sans-Serif" font-size="10.00">modules/fun/fun.cpp</text>
</a>
</g>
</g>
<!-- Node6&#45;&gt;Node9 -->
<g id="edge9" class="edge"><title>Node6&#45;&gt;Node9</title>
<path fill="none" stroke="midnightblue" d="M428.537,-185.786C428.537,-145.026 428.537,-49.5085 428.537,-19.9068"/>
<polygon fill="midnightblue" stroke="midnightblue" points="425.037,-185.936 428.537,-195.936 432.037,-185.936 425.037,-185.936"/>
</g>
<!-- Node10 -->
<g id="node10" class="node"><title>Node10</title>
<g id="a_node10"><a xlink:href="web_8cpp.html" target="_top" xlink:title="modules/web/web.cpp">
<polygon fill="none" stroke="black" points="119.537,-62 119.537,-81 233.537,-81 233.537,-62 119.537,-62"/>
<text text-anchor="middle" x="176.537" y="-69" font-family="Helvetica,sans-Serif" font-size="10.00">modules/web/web.cpp</text>
</a>
</g>
</g>
<!-- Node6&#45;&gt;Node10 -->
<g id="edge10" class="edge"><title>Node6&#45;&gt;Node10</title>
<path fill="none" stroke="midnightblue" d="M420.481,-186.644C411.13,-167.955 393.943,-139.132 370.537,-123 329.989,-95.0525 274.996,-82.5715 233.914,-76.9978"/>
<polygon fill="midnightblue" stroke="midnightblue" points="417.401,-188.315 424.86,-195.839 423.72,-185.305 417.401,-188.315"/>
</g>
<!-- Node11 -->
<g id="node11" class="node"><title>Node11</title>
<g id="a_node11"><a xlink:href="core_8cpp.html" target="_top" xlink:title="modules/core/core.cpp">
<polygon fill="none" stroke="black" points="1028.54,-62 1028.54,-81 1144.54,-81 1144.54,-62 1028.54,-62"/>
<text text-anchor="middle" x="1086.54" y="-69" font-family="Helvetica,sans-Serif" font-size="10.00">modules/core/core.cpp</text>
</a>
</g>
</g>
<!-- Node6&#45;&gt;Node11 -->
<g id="edge11" class="edge"><title>Node6&#45;&gt;Node11</title>
<path fill="none" stroke="midnightblue" d="M435.442,-186.637C443.992,-167.226 460.556,-137.102 485.537,-123 589.111,-64.534 901.768,-103.623 1019.54,-87 1030.03,-85.5196 1041.32,-83.316 1051.59,-81.071"/>
<polygon fill="midnightblue" stroke="midnightblue" points="432.194,-185.331 431.606,-195.909 438.663,-188.007 432.194,-185.331"/>
</g>
<!-- Node12 -->
<g id="node12" class="node"><title>Node12</title>
<g id="a_node12"><a xlink:href="irc_8cpp.html" target="_top" xlink:title="modules/irc/irc.cpp">
<polygon fill="none" stroke="black" points="785.037,-129 785.037,-148 884.037,-148 884.037,-129 785.037,-129"/>
<text text-anchor="middle" x="834.537" y="-136" font-family="Helvetica,sans-Serif" font-size="10.00">modules/irc/irc.cpp</text>
</a>
</g>
</g>
<!-- Node6&#45;&gt;Node12 -->
<g id="edge12" class="edge"><title>Node6&#45;&gt;Node12</title>
<path fill="none" stroke="midnightblue" d="M492.088,-194.326C572.985,-181.374 711.06,-159.269 784.748,-147.471"/>
<polygon fill="midnightblue" stroke="midnightblue" points="491.353,-190.899 482.032,-195.936 492.459,-197.811 491.353,-190.899"/>
</g>
<!-- Node13 -->
<g id="node13" class="node"><title>Node13</title>
<g id="a_node13"><a xlink:href="xonotic_8cpp.html" target="_top" xlink:title="modules/xonotic/xonotic.cpp">
<polygon fill="none" stroke="black" points="1453.04,-129 1453.04,-148 1594.04,-148 1594.04,-129 1453.04,-129"/>
<text text-anchor="middle" x="1523.54" y="-136" font-family="Helvetica,sans-Serif" font-size="10.00">modules/xonotic/xonotic.cpp</text>
</a>
</g>
</g>
<!-- Node6&#45;&gt;Node13 -->
<g id="edge13" class="edge"><title>Node6&#45;&gt;Node13</title>
<path fill="none" stroke="midnightblue" d="M492.772,-194.617C506.214,-192.834 520.318,-191.171 533.537,-190 936.718,-154.272 1041.2,-198.201 1443.54,-154 1456.3,-152.597 1470.1,-150.36 1482.59,-148.058"/>
<polygon fill="midnightblue" stroke="midnightblue" points="492.084,-191.178 482.648,-195.998 493.03,-198.114 492.084,-191.178"/>
</g>
<!-- Node15 -->
<g id="node15" class="node"><title>Node15</title>
<g id="a_node15"><a xlink:href="fun-handlers_8hpp.html" target="_top" xlink:title="This file contains definitions for handlers which are pretty useless. ">
<polygon fill="none" stroke="black" points="478.037,-62 478.037,-81 623.037,-81 623.037,-62 478.037,-62"/>
<text text-anchor="middle" x="550.537" y="-69" font-family="Helvetica,sans-Serif" font-size="10.00">modules/fun/fun&#45;handlers.hpp</text>
</a>
</g>
</g>
<!-- Node14&#45;&gt;Node15 -->
<g id="edge15" class="edge"><title>Node14&#45;&gt;Node15</title>
<path fill="none" stroke="midnightblue" d="M221.043,-187.114C232.372,-168.158 253.133,-138.465 279.537,-123 340.243,-87.4442 420.588,-76.0708 478.001,-72.8315"/>
<polygon fill="midnightblue" stroke="midnightblue" points="217.934,-185.5 215.998,-195.916 224.007,-188.981 217.934,-185.5"/>
</g>
<!-- Node17 -->
<g id="node17" class="node"><title>Node17</title>
<g id="a_node17"><a xlink:href="web-api-concrete_8hpp.html" target="_top" xlink:title="This files defines some simple Handlers using web APIs. ">
<polygon fill="none" stroke="black" points="121.037,-123.5 121.037,-153.5 232.037,-153.5 232.037,-123.5 121.037,-123.5"/>
<text text-anchor="start" x="129.037" y="-141.5" font-family="Helvetica,sans-Serif" font-size="10.00">modules/web/web&#45;api</text>
<text text-anchor="middle" x="176.537" y="-130.5" font-family="Helvetica,sans-Serif" font-size="10.00">&#45;concrete.hpp</text>
</a>
</g>
</g>
<!-- Node14&#45;&gt;Node17 -->
<g id="edge18" class="edge"><title>Node14&#45;&gt;Node17</title>
<path fill="none" stroke="midnightblue" d="M201.959,-186.713C196.346,-176.287 189.353,-163.301 184.123,-153.589"/>
<polygon fill="midnightblue" stroke="midnightblue" points="198.994,-188.588 206.817,-195.734 205.157,-185.27 198.994,-188.588"/>
</g>
<!-- Node15&#45;&gt;Node9 -->
<g id="edge17" class="edge"><title>Node15&#45;&gt;Node9</title>
<path fill="none" stroke="midnightblue" d="M523.924,-57.5207C500.264,-45.9816 466.354,-29.4433 445.984,-19.5091"/>
<polygon fill="midnightblue" stroke="midnightblue" points="522.535,-60.7374 533.057,-61.9751 525.604,-54.4457 522.535,-60.7374"/>
</g>
<!-- Node16 -->
<g id="node16" class="node"><title>Node16</title>
<g id="a_node16"><a xlink:href="fun-handlers_8cpp.html" target="_top" xlink:title="modules/fun/fun&#45;handlers.cpp">
<polygon fill="none" stroke="black" points="499.037,-0.5 499.037,-19.5 644.037,-19.5 644.037,-0.5 499.037,-0.5"/>
<text text-anchor="middle" x="571.537" y="-7.5" font-family="Helvetica,sans-Serif" font-size="10.00">modules/fun/fun&#45;handlers.cpp</text>
</a>
</g>
</g>
<!-- Node15&#45;&gt;Node16 -->
<g id="edge16" class="edge"><title>Node15&#45;&gt;Node16</title>
<path fill="none" stroke="midnightblue" d="M556.891,-52.4968C560.755,-41.5497 565.511,-28.0746 568.534,-19.5091"/>
<polygon fill="midnightblue" stroke="midnightblue" points="553.574,-51.3803 553.546,-61.9751 560.174,-53.7101 553.574,-51.3803"/>
</g>
<!-- Node17&#45;&gt;Node10 -->
<g id="edge19" class="edge"><title>Node17&#45;&gt;Node10</title>
<path fill="none" stroke="midnightblue" d="M176.537,-113.25C176.537,-102.017 176.537,-89.3767 176.537,-81.1945"/>
<polygon fill="midnightblue" stroke="midnightblue" points="173.037,-113.396 176.537,-123.396 180.037,-113.396 173.037,-113.396"/>
</g>
<!-- Node18&#45;&gt;Node11 -->
<g id="edge28" class="edge"><title>Node18&#45;&gt;Node11</title>
<path fill="none" stroke="midnightblue" d="M1268.08,-181.738C1279.94,-164.256 1290.83,-140.262 1277.54,-123 1261.32,-101.938 1194.72,-87.8679 1144.7,-80.044"/>
<polygon fill="midnightblue" stroke="midnightblue" points="1264.96,-180.071 1261.91,-190.216 1270.62,-184.189 1264.96,-180.071"/>
</g>
<!-- Node19 -->
<g id="node19" class="node"><title>Node19</title>
<g id="a_node19"><a xlink:href="bridge_8hpp.html" target="_top" xlink:title="modules/core/handler\l/bridge.hpp">
<polygon fill="none" stroke="black" points="902.537,-123.5 902.537,-153.5 1012.54,-153.5 1012.54,-123.5 902.537,-123.5"/>
<text text-anchor="start" x="910.537" y="-141.5" font-family="Helvetica,sans-Serif" font-size="10.00">modules/core/handler</text>
<text text-anchor="middle" x="957.537" y="-130.5" font-family="Helvetica,sans-Serif" font-size="10.00">/bridge.hpp</text>
</a>
</g>
</g>
<!-- Node18&#45;&gt;Node19 -->
<g id="edge21" class="edge"><title>Node18&#45;&gt;Node19</title>
<path fill="none" stroke="midnightblue" d="M1184.19,-190.113C1138.59,-180.054 1076.34,-166.277 1021.54,-154 1018.65,-153.352 1015.68,-152.687 1012.69,-152.014"/>
<polygon fill="midnightblue" stroke="midnightblue" points="1183.71,-193.593 1194.23,-192.329 1185.22,-186.757 1183.71,-193.593"/>
</g>
<!-- Node21 -->
<g id="node21" class="node"><title>Node21</title>
<g id="a_node21"><a xlink:href="simple-group_8cpp.html" target="_top" xlink:title="This file contains the definitions for the most basic and reusable handlers. ">
<polygon fill="none" stroke="black" points="1324.54,-123.5 1324.54,-153.5 1434.54,-153.5 1434.54,-123.5 1324.54,-123.5"/>
<text text-anchor="start" x="1332.54" y="-141.5" font-family="Helvetica,sans-Serif" font-size="10.00">modules/core/handler</text>
<text text-anchor="middle" x="1379.54" y="-130.5" font-family="Helvetica,sans-Serif" font-size="10.00">/simple&#45;group.cpp</text>
</a>
</g>
</g>
<!-- Node18&#45;&gt;Node21 -->
<g id="edge25" class="edge"><title>Node18&#45;&gt;Node21</title>
<path fill="none" stroke="midnightblue" d="M1286.83,-185.853C1307.38,-175.576 1332.49,-163.025 1351.38,-153.577"/>
<polygon fill="midnightblue" stroke="midnightblue" points="1285.12,-182.793 1277.75,-190.396 1288.25,-189.054 1285.12,-182.793"/>
</g>
<!-- Node22 -->
<g id="node22" class="node"><title>Node22</title>
<g id="a_node22"><a xlink:href="admin_8hpp.html" target="_top" xlink:title="This file defines handlers which allows admin to administrate the bot. ">
<polygon fill="none" stroke="black" points="1158.54,-123.5 1158.54,-153.5 1268.54,-153.5 1268.54,-123.5 1158.54,-123.5"/>
<text text-anchor="start" x="1166.54" y="-141.5" font-family="Helvetica,sans-Serif" font-size="10.00">modules/core/handler</text>
<text text-anchor="middle" x="1213.54" y="-130.5" font-family="Helvetica,sans-Serif" font-size="10.00">/admin.hpp</text>
</a>
</g>
</g>
<!-- Node18&#45;&gt;Node22 -->
<g id="edge26" class="edge"><title>Node18&#45;&gt;Node22</title>
<path fill="none" stroke="midnightblue" d="M1236.84,-181.576C1231.67,-172.241 1225.86,-161.748 1221.33,-153.577"/>
<polygon fill="midnightblue" stroke="midnightblue" points="1233.82,-183.344 1241.73,-190.396 1239.94,-179.952 1233.82,-183.344"/>
</g>
<!-- Node19&#45;&gt;Node11 -->
<g id="edge24" class="edge"><title>Node19&#45;&gt;Node11</title>
<path fill="none" stroke="midnightblue" d="M994.644,-118.803C1019.37,-106.342 1050.7,-90.5558 1069.65,-81.007"/>
<polygon fill="midnightblue" stroke="midnightblue" points="992.883,-115.77 985.528,-123.396 996.033,-122.022 992.883,-115.77"/>
</g>
<!-- Node19&#45;&gt;Node15 -->
<g id="edge22" class="edge"><title>Node19&#45;&gt;Node15</title>
<path fill="none" stroke="midnightblue" d="M892.159,-123.02C790.744,-104.48 685.207,-89.7762 618.264,-81.0196"/>
<polygon fill="midnightblue" stroke="midnightblue" points="891.806,-126.514 902.275,-124.885 893.075,-119.63 891.806,-126.514"/>
</g>
<!-- Node20 -->
<g id="node20" class="node"><title>Node20</title>
<g id="a_node20"><a xlink:href="bridge_8cpp.html" target="_top" xlink:title="modules/core/handler\l/bridge.cpp">
<polygon fill="none" stroke="black" points="900.537,-56.5 900.537,-86.5 1010.54,-86.5 1010.54,-56.5 900.537,-56.5"/>
<text text-anchor="start" x="908.537" y="-74.5" font-family="Helvetica,sans-Serif" font-size="10.00">modules/core/handler</text>
<text text-anchor="middle" x="955.537" y="-63.5" font-family="Helvetica,sans-Serif" font-size="10.00">/bridge.cpp</text>
</a>
</g>
</g>
<!-- Node19&#45;&gt;Node20 -->
<g id="edge23" class="edge"><title>Node19&#45;&gt;Node20</title>
<path fill="none" stroke="midnightblue" d="M956.786,-113.108C956.511,-104.154 956.208,-94.3227 955.97,-86.5765"/>
<polygon fill="midnightblue" stroke="midnightblue" points="953.297,-113.508 957.103,-123.396 960.294,-113.293 953.297,-113.508"/>
</g>
<!-- Node22&#45;&gt;Node11 -->
<g id="edge27" class="edge"><title>Node22&#45;&gt;Node11</title>
<path fill="none" stroke="midnightblue" d="M1177.01,-118.803C1152.66,-106.342 1121.82,-90.5558 1103.16,-81.007"/>
<polygon fill="midnightblue" stroke="midnightblue" points="1175.48,-121.956 1185.98,-123.396 1178.67,-115.724 1175.48,-121.956"/>
</g>
<!-- Node23&#45;&gt;Node11 -->
<g id="edge30" class="edge"><title>Node23&#45;&gt;Node11</title>
<path fill="none" stroke="midnightblue" d="M1085.91,-113.25C1086.08,-102.017 1086.28,-89.3767 1086.4,-81.1945"/>
<polygon fill="midnightblue" stroke="midnightblue" points="1082.41,-113.343 1085.75,-123.396 1089.41,-113.451 1082.41,-113.343"/>
</g>
<!-- Node24&#45;&gt;Node13 -->
<g id="edge32" class="edge"><title>Node24&#45;&gt;Node13</title>
<path fill="none" stroke="midnightblue" d="M1523.54,-180.25C1523.54,-169.017 1523.54,-156.377 1523.54,-148.195"/>
<polygon fill="midnightblue" stroke="midnightblue" points="1520.04,-180.396 1523.54,-190.396 1527.04,-180.396 1520.04,-180.396"/>
</g>
<!-- Node25&#45;&gt;Node13 -->
<g id="edge34" class="edge"><title>Node25&#45;&gt;Node13</title>
<path fill="none" stroke="midnightblue" d="M1423.1,-186.131C1450.05,-173.62 1484.47,-157.64 1505.21,-148.007"/>
<polygon fill="midnightblue" stroke="midnightblue" points="1421.51,-183.01 1413.91,-190.396 1424.46,-189.359 1421.51,-183.01"/>
</g>
<!-- Node26&#45;&gt;Node12 -->
<g id="edge36" class="edge"><title>Node26&#45;&gt;Node12</title>
<path fill="none" stroke="midnightblue" d="M844.021,-180.596C841.409,-169.278 838.451,-156.461 836.543,-148.195"/>
<polygon fill="midnightblue" stroke="midnightblue" points="840.623,-181.439 846.282,-190.396 847.444,-179.865 840.623,-181.439"/>
</g>
<!-- Node27&#45;&gt;Node12 -->
<g id="edge38" class="edge"><title>Node27&#45;&gt;Node12</title>
<path fill="none" stroke="midnightblue" d="M930.331,-185.967C904.59,-173.481 871.846,-157.598 852.074,-148.007"/>
<polygon fill="midnightblue" stroke="midnightblue" points="928.936,-189.181 939.461,-190.396 931.991,-182.882 928.936,-189.181"/>
</g>
<!-- Node28&#45;&gt;Node12 -->
<g id="edge40" class="edge"><title>Node28&#45;&gt;Node12</title>
<path fill="none" stroke="midnightblue" d="M1027.23,-189.005C977.277,-176.172 908.16,-158.415 867.717,-148.024"/>
<polygon fill="midnightblue" stroke="midnightblue" points="1026.39,-192.404 1036.95,-191.503 1028.13,-185.624 1026.39,-192.404"/>
</g>
<!-- Node29&#45;&gt;Node12 -->
<g id="edge42" class="edge"><title>Node29&#45;&gt;Node12</title>
<path fill="none" stroke="midnightblue" d="M653.883,-188.224C701.18,-175.468 765.105,-158.226 802.863,-148.043"/>
<polygon fill="midnightblue" stroke="midnightblue" points="652.802,-184.891 644.058,-190.874 654.625,-191.649 652.802,-184.891"/>
</g>
<!-- Node30&#45;&gt;Node8 -->
<g id="edge45" class="edge"><title>Node30&#45;&gt;Node8</title>
<path fill="none" stroke="midnightblue" d="M662.422,-262.816C611.602,-254.979 549.5,-241.495 533.537,-221 516.135,-198.657 538.336,-163.985 550.524,-148.045"/>
<polygon fill="midnightblue" stroke="midnightblue" points="662.011,-266.294 672.419,-264.309 663.045,-259.37 662.011,-266.294"/>
</g>
<!-- Node31&#45;&gt;Node13 -->
<g id="edge48" class="edge"><title>Node31&#45;&gt;Node13</title>
<path fill="none" stroke="midnightblue" d="M2003.17,-247.334C2005.86,-229.125 2005.88,-204.838 1991.54,-190 1964.49,-162.016 1718.54,-147.716 1594.46,-142.23"/>
<polygon fill="midnightblue" stroke="midnightblue" points="1999.72,-246.769 2001.37,-257.235 2006.6,-248.024 1999.72,-246.769"/>
</g>
<!-- Node32 -->
<g id="node32" class="node"><title>Node32</title>
<g id="a_node32"><a xlink:href="xonotic-connection_8cpp.html" target="_top" xlink:title="modules/xonotic/xonotic\l&#45;connection.cpp">
<polygon fill="none" stroke="black" points="2038.54,-190.5 2038.54,-220.5 2160.54,-220.5 2160.54,-190.5 2038.54,-190.5"/>
<text text-anchor="start" x="2046.54" y="-208.5" font-family="Helvetica,sans-Serif" font-size="10.00">modules/xonotic/xonotic</text>
<text text-anchor="middle" x="2099.54" y="-197.5" font-family="Helvetica,sans-Serif" font-size="10.00">&#45;connection.cpp</text>
</a>
</g>
</g>
<!-- Node31&#45;&gt;Node32 -->
<g id="edge47" class="edge"><title>Node31&#45;&gt;Node32</title>
<path fill="none" stroke="midnightblue" d="M2028.11,-252.015C2043.99,-241.9 2063.02,-229.77 2077.45,-220.577"/>
<polygon fill="midnightblue" stroke="midnightblue" points="2026.22,-249.07 2019.67,-257.396 2029.98,-254.973 2026.22,-249.07"/>
</g>
<!-- Node33&#45;&gt;Node12 -->
<g id="edge50" class="edge"><title>Node33&#45;&gt;Node12</title>
<path fill="none" stroke="midnightblue" d="M1770.87,-249.356C1751.92,-227.538 1723.34,-196.545 1708.54,-190 1625.64,-153.345 983.261,-166.879 893.537,-154 883.931,-152.621 873.61,-150.361 864.328,-148.03"/>
<polygon fill="midnightblue" stroke="midnightblue" points="1768.43,-251.896 1777.61,-257.199 1773.74,-247.334 1768.43,-251.896"/>
</g>
<!-- Node34 -->
<g id="node34" class="node"><title>Node34</title>
<g id="a_node34"><a xlink:href="buffer_8cpp.html" target="_top" xlink:title="modules/irc/network\l/buffer.cpp">
<polygon fill="none" stroke="black" points="1878.54,-190.5 1878.54,-220.5 1982.54,-220.5 1982.54,-190.5 1878.54,-190.5"/>
<text text-anchor="start" x="1886.54" y="-208.5" font-family="Helvetica,sans-Serif" font-size="10.00">modules/irc/network</text>
<text text-anchor="middle" x="1930.54" y="-197.5" font-family="Helvetica,sans-Serif" font-size="10.00">/buffer.cpp</text>
</a>
</g>
</g>
<!-- Node33&#45;&gt;Node34 -->
<g id="edge51" class="edge"><title>Node33&#45;&gt;Node34</title>
<path fill="none" stroke="midnightblue" d="M1829.38,-253.131C1851.79,-242.802 1879.32,-230.11 1900,-220.577"/>
<polygon fill="midnightblue" stroke="midnightblue" points="1827.75,-250.031 1820.13,-257.396 1830.68,-256.388 1827.75,-250.031"/>
</g>
<!-- Node35 -->
<g id="node35" class="node"><title>Node35</title>
<g id="a_node35"><a xlink:href="connection_8cpp.html" target="_top" xlink:title="modules/irc/network\l/connection.cpp">
<polygon fill="none" stroke="black" points="1756.54,-190.5 1756.54,-220.5 1860.54,-220.5 1860.54,-190.5 1756.54,-190.5"/>
<text text-anchor="start" x="1764.54" y="-208.5" font-family="Helvetica,sans-Serif" font-size="10.00">modules/irc/network</text>
<text text-anchor="middle" x="1808.54" y="-197.5" font-family="Helvetica,sans-Serif" font-size="10.00">/connection.cpp</text>
</a>
</g>
</g>
<!-- Node33&#45;&gt;Node35 -->
<g id="edge52" class="edge"><title>Node33&#45;&gt;Node35</title>
<path fill="none" stroke="midnightblue" d="M1796.49,-247.697C1799.16,-238.587 1802.11,-228.493 1804.42,-220.577"/>
<polygon fill="midnightblue" stroke="midnightblue" points="1793.11,-246.816 1793.66,-257.396 1799.82,-248.78 1793.11,-246.816"/>
</g>
<!-- Node36&#45;&gt;Node6 -->
<g id="edge55" class="edge"><title>Node36&#45;&gt;Node6</title>
<path fill="none" stroke="midnightblue" d="M353.748,-321.292C372.381,-292.693 409.05,-236.41 422.985,-215.021"/>
<polygon fill="midnightblue" stroke="midnightblue" points="350.706,-319.55 348.18,-329.839 356.571,-323.371 350.706,-319.55"/>
</g>
<!-- Node36&#45;&gt;Node7 -->
<g id="edge54" class="edge"><title>Node36&#45;&gt;Node7</title>
<path fill="none" stroke="midnightblue" d="M336.265,-320.176C333.325,-310.693 330.126,-298.857 328.537,-288 320.845,-235.44 323.59,-171.312 324.955,-148.267"/>
<polygon fill="midnightblue" stroke="midnightblue" points="332.944,-321.283 339.373,-329.705 339.599,-319.112 332.944,-321.283"/>
</g>
<!-- Node37 -->
<g id="node37" class="node"><title>Node37</title>
<g id="a_node37"><a xlink:href="http_8hpp.html" target="_top" xlink:title="modules/web/http.hpp">
<polygon fill="none" stroke="black" points="85.0369,-263 85.0369,-282 198.037,-282 198.037,-263 85.0369,-263"/>
<text text-anchor="middle" x="141.537" y="-270" font-family="Helvetica,sans-Serif" font-size="10.00">modules/web/http.hpp</text>
</a>
</g>
</g>
<!-- Node36&#45;&gt;Node37 -->
<g id="edge56" class="edge"><title>Node36&#45;&gt;Node37</title>
<path fill="none" stroke="midnightblue" d="M306.25,-326.765C266.423,-313.886 203.449,-293.521 168.018,-282.064"/>
<polygon fill="midnightblue" stroke="midnightblue" points="305.254,-330.122 315.846,-329.869 307.408,-323.461 305.254,-330.122"/>
</g>
<!-- Node37&#45;&gt;Node10 -->
<g id="edge58" class="edge"><title>Node37&#45;&gt;Node10</title>
<path fill="none" stroke="midnightblue" d="M75.0033,-263.228C48.8856,-256.359 21.4113,-243.828 5.53694,-221 -2.32907,-209.688 -0.878798,-202.193 5.53694,-190 36.4836,-131.187 111.643,-96.1165 151.213,-81.114"/>
<polygon fill="midnightblue" stroke="midnightblue" points="74.3804,-266.678 84.9196,-265.593 76.0046,-259.869 74.3804,-266.678"/>
</g>
<!-- Node37&#45;&gt;Node14 -->
<g id="edge57" class="edge"><title>Node37&#45;&gt;Node14</title>
<path fill="none" stroke="midnightblue" d="M158.384,-255.856C172.146,-243.078 191.085,-225.492 202.246,-215.127"/>
<polygon fill="midnightblue" stroke="midnightblue" points="155.924,-253.364 150.977,-262.734 160.687,-258.494 155.924,-253.364"/>
</g>
<!-- Node38 -->
<g id="node38" class="node"><title>Node38</title>
<g id="a_node38"><a xlink:href="http_8cpp.html" target="_top" xlink:title="modules/web/http.cpp">
<polygon fill="none" stroke="black" points="15.0369,-196 15.0369,-215 128.037,-215 128.037,-196 15.0369,-196"/>
<text text-anchor="middle" x="71.5369" y="-203" font-family="Helvetica,sans-Serif" font-size="10.00">modules/web/http.cpp</text>
</a>
</g>
</g>
<!-- Node37&#45;&gt;Node38 -->
<g id="edge59" class="edge"><title>Node37&#45;&gt;Node38</title>
<path fill="none" stroke="midnightblue" d="M124.69,-255.856C110.928,-243.078 91.9894,-225.492 80.8279,-215.127"/>
<polygon fill="midnightblue" stroke="midnightblue" points="122.387,-258.494 132.096,-262.734 127.15,-253.364 122.387,-258.494"/>
</g>
<!-- Node39&#45;&gt;Node33 -->
<g id="edge63" class="edge"><title>Node39&#45;&gt;Node33</title>
<path fill="none" stroke="midnightblue" d="M1789.54,-314.108C1789.54,-305.154 1789.54,-295.323 1789.54,-287.577"/>
<polygon fill="midnightblue" stroke="midnightblue" points="1786.04,-314.396 1789.54,-324.396 1793.04,-314.396 1786.04,-314.396"/>
</g>
<!-- Node39&#45;&gt;Node34 -->
<g id="edge62" class="edge"><title>Node39&#45;&gt;Node34</title>
<path fill="none" stroke="midnightblue" d="M1815.57,-317.935C1826.58,-308.989 1839.4,-298.229 1850.54,-288 1875.07,-265.464 1901.85,-237.407 1917.37,-220.781"/>
<polygon fill="midnightblue" stroke="midnightblue" points="1813.16,-315.386 1807.56,-324.385 1817.55,-320.837 1813.16,-315.386"/>
</g>
</g>
</svg>
