<?xml version="1.0" encoding="UTF-8" standalone="no"?>
<!DOCTYPE svg PUBLIC "-//W3C//DTD SVG 1.1//EN"
 "http://www.w3.org/Graphics/SVG/1.1/DTD/svg11.dtd">
<!-- Generated by graphviz version 2.38.0 (20140413.2041)
 -->
<!-- Title: src/concurrent_container.hpp Pages: 1 -->
<svg width="409pt" height="140pt"
 viewBox="0.00 0.00 409.00 140.00" xmlns="http://www.w3.org/2000/svg" xmlns:xlink="http://www.w3.org/1999/xlink">
<g id="graph0" class="graph" transform="scale(1 1) rotate(0) translate(4 136)">
<title>src/concurrent_container.hpp</title>
<!-- Node1 -->
<g id="node1" class="node"><title>Node1</title>
<polygon fill="#bfbfbf" stroke="black" points="210.5,-112.5 210.5,-131.5 353.5,-131.5 353.5,-112.5 210.5,-112.5"/>
<text text-anchor="middle" x="282" y="-119.5" font-family="Helvetica,sans-Serif" font-size="10.00">src/concurrent_container.hpp</text>
</g>
<!-- Node2 -->
<g id="node2" class="node"><title>Node2</title>
<g id="a_node2"><a xlink:href="concurrency_8hpp.html" target="_top" xlink:title="concurrency.hpp">
<polygon fill="none" stroke="black" points="111.5,-56.5 111.5,-75.5 200.5,-75.5 200.5,-56.5 111.5,-56.5"/>
<text text-anchor="middle" x="156" y="-63.5" font-family="Helvetica,sans-Serif" font-size="10.00">concurrency.hpp</text>
</a>
</g>
</g>
<!-- Node1&#45;&gt;Node2 -->
<g id="edge1" class="edge"><title>Node1&#45;&gt;Node2</title>
<path fill="none" stroke="midnightblue" d="M262.035,-112.444C241.391,-103.596 208.937,-89.6875 185.368,-79.5865"/>
<polygon fill="midnightblue" stroke="midnightblue" points="186.442,-76.2387 175.872,-75.5164 183.684,-82.6727 186.442,-76.2387"/>
</g>
<!-- Node7 -->
<g id="node7" class="node"><title>Node7</title>
<polygon fill="none" stroke="#bfbfbf" points="218.5,-56.5 218.5,-75.5 277.5,-75.5 277.5,-56.5 218.5,-56.5"/>
<text text-anchor="middle" x="248" y="-63.5" font-family="Helvetica,sans-Serif" font-size="10.00">functional</text>
</g>
<!-- Node1&#45;&gt;Node7 -->
<g id="edge6" class="edge"><title>Node1&#45;&gt;Node7</title>
<path fill="none" stroke="midnightblue" d="M276.386,-112.083C271.633,-104.534 264.682,-93.4948 258.848,-84.2298"/>
<polygon fill="midnightblue" stroke="midnightblue" points="261.8,-82.3486 253.51,-75.7511 255.876,-86.0783 261.8,-82.3486"/>
</g>
<!-- Node8 -->
<g id="node8" class="node"><title>Node8</title>
<polygon fill="none" stroke="#bfbfbf" points="295.5,-56.5 295.5,-75.5 338.5,-75.5 338.5,-56.5 295.5,-56.5"/>
<text text-anchor="middle" x="317" y="-63.5" font-family="Helvetica,sans-Serif" font-size="10.00">queue</text>
</g>
<!-- Node1&#45;&gt;Node8 -->
<g id="edge7" class="edge"><title>Node1&#45;&gt;Node8</title>
<path fill="none" stroke="midnightblue" d="M287.78,-112.083C292.672,-104.534 299.827,-93.4948 305.833,-84.2298"/>
<polygon fill="midnightblue" stroke="midnightblue" points="308.826,-86.0463 311.328,-75.7511 302.952,-82.239 308.826,-86.0463"/>
</g>
<!-- Node9 -->
<g id="node9" class="node"><title>Node9</title>
<polygon fill="none" stroke="#bfbfbf" points="357,-56.5 357,-75.5 401,-75.5 401,-56.5 357,-56.5"/>
<text text-anchor="middle" x="379" y="-63.5" font-family="Helvetica,sans-Serif" font-size="10.00">vector</text>
</g>
<!-- Node1&#45;&gt;Node9 -->
<g id="edge8" class="edge"><title>Node1&#45;&gt;Node9</title>
<path fill="none" stroke="midnightblue" d="M297.585,-112.324C312.999,-103.743 336.812,-90.486 354.71,-80.5224"/>
<polygon fill="midnightblue" stroke="midnightblue" points="356.419,-83.5767 363.454,-75.6545 353.014,-77.4606 356.419,-83.5767"/>
</g>
<!-- Node3 -->
<g id="node3" class="node"><title>Node3</title>
<polygon fill="none" stroke="#bfbfbf" points="0,-0.5 0,-19.5 46,-19.5 46,-0.5 0,-0.5"/>
<text text-anchor="middle" x="23" y="-7.5" font-family="Helvetica,sans-Serif" font-size="10.00">atomic</text>
</g>
<!-- Node2&#45;&gt;Node3 -->
<g id="edge2" class="edge"><title>Node2&#45;&gt;Node3</title>
<path fill="none" stroke="midnightblue" d="M134.926,-56.4435C112.94,-47.5171 78.2657,-33.4387 53.3359,-23.3168"/>
<polygon fill="midnightblue" stroke="midnightblue" points="54.5578,-20.0355 43.9756,-19.5164 51.9244,-26.5213 54.5578,-20.0355"/>
</g>
<!-- Node4 -->
<g id="node4" class="node"><title>Node4</title>
<polygon fill="none" stroke="#bfbfbf" points="64.5,-0.5 64.5,-19.5 159.5,-19.5 159.5,-0.5 64.5,-0.5"/>
<text text-anchor="middle" x="112" y="-7.5" font-family="Helvetica,sans-Serif" font-size="10.00">condition_variable</text>
</g>
<!-- Node2&#45;&gt;Node4 -->
<g id="edge3" class="edge"><title>Node2&#45;&gt;Node4</title>
<path fill="none" stroke="midnightblue" d="M148.734,-56.083C142.455,-48.3768 133.212,-37.0333 125.569,-27.6531"/>
<polygon fill="midnightblue" stroke="midnightblue" points="128.161,-25.2926 119.131,-19.7511 122.734,-29.7143 128.161,-25.2926"/>
</g>
<!-- Node5 -->
<g id="node5" class="node"><title>Node5</title>
<polygon fill="none" stroke="#bfbfbf" points="178,-0.5 178,-19.5 222,-19.5 222,-0.5 178,-0.5"/>
<text text-anchor="middle" x="200" y="-7.5" font-family="Helvetica,sans-Serif" font-size="10.00">thread</text>
</g>
<!-- Node2&#45;&gt;Node5 -->
<g id="edge4" class="edge"><title>Node2&#45;&gt;Node5</title>
<path fill="none" stroke="midnightblue" d="M163.266,-56.083C169.545,-48.3768 178.788,-37.0333 186.431,-27.6531"/>
<polygon fill="midnightblue" stroke="midnightblue" points="189.266,-29.7143 192.869,-19.7511 183.839,-25.2926 189.266,-29.7143"/>
</g>
<!-- Node6 -->
<g id="node6" class="node"><title>Node6</title>
<polygon fill="none" stroke="#bfbfbf" points="240,-0.5 240,-19.5 284,-19.5 284,-0.5 240,-0.5"/>
<text text-anchor="middle" x="262" y="-7.5" font-family="Helvetica,sans-Serif" font-size="10.00">mutex</text>
</g>
<!-- Node2&#45;&gt;Node6 -->
<g id="edge5" class="edge"><title>Node2&#45;&gt;Node6</title>
<path fill="none" stroke="midnightblue" d="M173.031,-56.324C190.03,-47.6641 216.376,-34.2424 235.993,-24.249"/>
<polygon fill="midnightblue" stroke="midnightblue" points="237.69,-27.3125 245.012,-19.6545 234.512,-21.0752 237.69,-27.3125"/>
</g>
</g>
</svg>
