<?xml version="1.0" encoding="UTF-8" standalone="no"?>
<!DOCTYPE svg PUBLIC "-//W3C//DTD SVG 1.1//EN"
 "http://www.w3.org/Graphics/SVG/1.1/DTD/svg11.dtd">
<!-- Generated by graphviz version 2.38.0 (20140413.2041)
 -->
<!-- Title: build/src/config.hpp Pages: 1 -->
<svg width="338pt" height="151pt"
 viewBox="0.00 0.00 337.50 151.00" xmlns="http://www.w3.org/2000/svg" xmlns:xlink="http://www.w3.org/1999/xlink">
<g id="graph0" class="graph" transform="scale(1 1) rotate(0) translate(4 147)">
<title>build/src/config.hpp</title>
<!-- Node1 -->
<g id="node1" class="node"><title>Node1</title>
<polygon fill="#bfbfbf" stroke="black" points="116.5,-123.5 116.5,-142.5 217.5,-142.5 217.5,-123.5 116.5,-123.5"/>
<text text-anchor="middle" x="167" y="-130.5" font-family="Helvetica,sans-Serif" font-size="10.00">build/src/config.hpp</text>
</g>
<!-- Node2 -->
<g id="node2" class="node"><title>Node2</title>
<g id="a_node2"><a xlink:href="http_8cpp.html" target="_top" xlink:title="src/network/http.cpp">
<polygon fill="none" stroke="black" points="-7.10543e-15,-62 -7.10543e-15,-81 106,-81 106,-62 -7.10543e-15,-62"/>
<text text-anchor="middle" x="53" y="-69" font-family="Helvetica,sans-Serif" font-size="10.00">src/network/http.cpp</text>
</a>
</g>
</g>
<!-- Node1&#45;&gt;Node2 -->
<g id="edge1" class="edge"><title>Node1&#45;&gt;Node2</title>
<path fill="none" stroke="midnightblue" d="M141.54,-118.712C119.461,-107.188 88.1676,-90.855 69.3031,-81.0091"/>
<polygon fill="midnightblue" stroke="midnightblue" points="140.182,-121.951 150.667,-123.475 143.421,-115.745 140.182,-121.951"/>
</g>
<!-- Node3 -->
<g id="node3" class="node"><title>Node3</title>
<g id="a_node3"><a xlink:href="settings_8cpp.html" target="_top" xlink:title="src/settings.cpp">
<polygon fill="none" stroke="black" points="124,-62 124,-81 210,-81 210,-62 124,-62"/>
<text text-anchor="middle" x="167" y="-69" font-family="Helvetica,sans-Serif" font-size="10.00">src/settings.cpp</text>
</a>
</g>
</g>
<!-- Node1&#45;&gt;Node3 -->
<g id="edge2" class="edge"><title>Node1&#45;&gt;Node3</title>
<path fill="none" stroke="midnightblue" d="M167,-113.317C167,-102.496 167,-89.398 167,-81.0091"/>
<polygon fill="midnightblue" stroke="midnightblue" points="163.5,-113.475 167,-123.475 170.5,-113.475 163.5,-113.475"/>
</g>
<!-- Node4 -->
<g id="node4" class="node"><title>Node4</title>
<g id="a_node4"><a xlink:href="ctcp_8hpp.html" target="_top" xlink:title="This files has handlers for CTCP messages. ">
<polygon fill="none" stroke="black" points="228.5,-56.5 228.5,-86.5 329.5,-86.5 329.5,-56.5 228.5,-56.5"/>
<text text-anchor="start" x="236.5" y="-74.5" font-family="Helvetica,sans-Serif" font-size="10.00">modules/irc/handler</text>
<text text-anchor="middle" x="279" y="-63.5" font-family="Helvetica,sans-Serif" font-size="10.00">/ctcp.hpp</text>
</a>
</g>
</g>
<!-- Node1&#45;&gt;Node4 -->
<g id="edge3" class="edge"><title>Node1&#45;&gt;Node4</title>
<path fill="none" stroke="midnightblue" d="M192.332,-118.542C210.312,-108.991 234.39,-96.1992 252.604,-86.523"/>
<polygon fill="midnightblue" stroke="midnightblue" points="190.236,-115.693 183.047,-123.475 193.52,-121.874 190.236,-115.693"/>
</g>
<!-- Node5 -->
<g id="node5" class="node"><title>Node5</title>
<g id="a_node5"><a xlink:href="irc_8cpp.html" target="_top" xlink:title="modules/irc/irc.cpp">
<polygon fill="none" stroke="black" points="229.5,-0.5 229.5,-19.5 328.5,-19.5 328.5,-0.5 229.5,-0.5"/>
<text text-anchor="middle" x="279" y="-7.5" font-family="Helvetica,sans-Serif" font-size="10.00">modules/irc/irc.cpp</text>
</a>
</g>
</g>
<!-- Node4&#45;&gt;Node5 -->
<g id="edge4" class="edge"><title>Node4&#45;&gt;Node5</title>
<path fill="none" stroke="midnightblue" d="M279,-46.2892C279,-36.857 279,-26.6548 279,-19.6578"/>
<polygon fill="midnightblue" stroke="midnightblue" points="275.5,-46.3993 279,-56.3993 282.5,-46.3994 275.5,-46.3993"/>
</g>
</g>
</svg>
