<?xml version="1.0" encoding="UTF-8" standalone="no"?>
<!DOCTYPE svg PUBLIC "-//W3C//DTD SVG 1.1//EN"
 "http://www.w3.org/Graphics/SVG/1.1/DTD/svg11.dtd">
<!-- Generated by graphviz version 2.38.0 (20140413.2041)
 -->
<!-- Title: build/src/config.hpp Pages: 1 -->
<svg width="218pt" height="84pt"
 viewBox="0.00 0.00 218.00 84.00" xmlns="http://www.w3.org/2000/svg" xmlns:xlink="http://www.w3.org/1999/xlink">
<g id="graph0" class="graph" transform="scale(1 1) rotate(0) translate(4 80)">
<title>build/src/config.hpp</title>
<!-- Node1 -->
<g id="node1" class="node"><title>Node1</title>
<polygon fill="#bfbfbf" stroke="black" points="59.5,-56.5 59.5,-75.5 160.5,-75.5 160.5,-56.5 59.5,-56.5"/>
<text text-anchor="middle" x="110" y="-63.5" font-family="Helvetica,sans-Serif" font-size="10.00">build/src/config.hpp</text>
</g>
<!-- Node2 -->
<g id="node2" class="node"><title>Node2</title>
<g id="a_node2"><a xlink:href="http_8cpp.html" target="_top" xlink:title="src/network/http.cpp">
<polygon fill="none" stroke="black" points="0,-0.5 0,-19.5 106,-19.5 106,-0.5 0,-0.5"/>
<text text-anchor="middle" x="53" y="-7.5" font-family="Helvetica,sans-Serif" font-size="10.00">src/network/http.cpp</text>
</a>
</g>
</g>
<!-- Node1&#45;&gt;Node2 -->
<g id="edge1" class="edge"><title>Node1&#45;&gt;Node2</title>
<path fill="none" stroke="midnightblue" d="M93.3785,-49.2533C83.266,-39.6731 70.7234,-27.7906 62.3247,-19.8339"/>
<polygon fill="midnightblue" stroke="midnightblue" points="91.1753,-51.9873 100.842,-56.324 95.9895,-46.9056 91.1753,-51.9873"/>
</g>
<!-- Node3 -->
<g id="node3" class="node"><title>Node3</title>
<g id="a_node3"><a xlink:href="settings_8cpp.html" target="_top" xlink:title="src/settings.cpp">
<polygon fill="none" stroke="black" points="124,-0.5 124,-19.5 210,-19.5 210,-0.5 124,-0.5"/>
<text text-anchor="middle" x="167" y="-7.5" font-family="Helvetica,sans-Serif" font-size="10.00">src/settings.cpp</text>
</a>
</g>
</g>
<!-- Node1&#45;&gt;Node3 -->
<g id="edge2" class="edge"><title>Node1&#45;&gt;Node3</title>
<path fill="none" stroke="midnightblue" d="M126.621,-49.2533C136.734,-39.6731 149.277,-27.7906 157.675,-19.8339"/>
<polygon fill="midnightblue" stroke="midnightblue" points="124.01,-46.9056 119.158,-56.324 128.825,-51.9873 124.01,-46.9056"/>
</g>
</g>
</svg>
