<?xml version="1.0" encoding="UTF-8" standalone="no"?>
<!DOCTYPE svg PUBLIC "-//W3C//DTD SVG 1.1//EN"
 "http://www.w3.org/Graphics/SVG/1.1/DTD/svg11.dtd">
<!-- Generated by graphviz version 2.38.0 (20140413.2041)
 -->
<!-- Title: src/network/connection.hpp Pages: 1 -->
<svg width="1286pt" height="274pt"
 viewBox="0.00 0.00 1285.50 274.00" xmlns="http://www.w3.org/2000/svg" xmlns:xlink="http://www.w3.org/1999/xlink">
<g id="graph0" class="graph" transform="scale(1 1) rotate(0) translate(4 270)">
<title>src/network/connection.hpp</title>
<!-- Node1 -->
<g id="node1" class="node"><title>Node1</title>
<polygon fill="#bfbfbf" stroke="black" points="245.5,-246.5 245.5,-265.5 382.5,-265.5 382.5,-246.5 245.5,-246.5"/>
<text text-anchor="middle" x="314" y="-253.5" font-family="Helvetica,sans-Serif" font-size="10.00">src/network/connection.hpp</text>
</g>
<!-- Node2 -->
<g id="node2" class="node"><title>Node2</title>
<polygon fill="none" stroke="#bfbfbf" points="0,-190.5 0,-209.5 46,-209.5 46,-190.5 0,-190.5"/>
<text text-anchor="middle" x="23" y="-197.5" font-family="Helvetica,sans-Serif" font-size="10.00">atomic</text>
</g>
<!-- Node1&#45;&gt;Node2 -->
<g id="edge1" class="edge"><title>Node1&#45;&gt;Node2</title>
<path fill="none" stroke="midnightblue" d="M254.769,-246.472C204.316,-238.807 129.732,-226.535 55.9334,-210.022"/>
<polygon fill="midnightblue" stroke="midnightblue" points="56.5263,-206.568 46.0002,-207.772 54.9799,-213.395 56.5263,-206.568"/>
</g>
<!-- Node3 -->
<g id="node3" class="node"><title>Node3</title>
<polygon fill="none" stroke="#bfbfbf" points="64,-190.5 64,-209.5 110,-209.5 110,-190.5 64,-190.5"/>
<text text-anchor="middle" x="87" y="-197.5" font-family="Helvetica,sans-Serif" font-size="10.00">chrono</text>
</g>
<!-- Node1&#45;&gt;Node3 -->
<g id="edge2" class="edge"><title>Node1&#45;&gt;Node3</title>
<path fill="none" stroke="midnightblue" d="M277.56,-246.439C239.301,-237.433 177.399,-222.818 124,-210 122.734,-209.696 121.445,-209.386 120.142,-209.072"/>
<polygon fill="midnightblue" stroke="midnightblue" points="120.63,-205.589 110.087,-206.639 118.984,-212.393 120.63,-205.589"/>
</g>
<!-- Node4 -->
<g id="node4" class="node"><title>Node4</title>
<polygon fill="none" stroke="#bfbfbf" points="219,-6 219,-25 265,-25 265,-6 219,-6"/>
<text text-anchor="middle" x="242" y="-13" font-family="Helvetica,sans-Serif" font-size="10.00">cstdint</text>
</g>
<!-- Node1&#45;&gt;Node4 -->
<g id="edge3" class="edge"><title>Node1&#45;&gt;Node4</title>
<path fill="none" stroke="midnightblue" d="M300.816,-246.43C268.57,-224.562 186.227,-163.012 157,-87 146.167,-58.8266 180.807,-38.6419 209.085,-27.2755"/>
<polygon fill="midnightblue" stroke="midnightblue" points="210.623,-30.436 218.738,-23.6242 208.146,-23.8888 210.623,-30.436"/>
</g>
<!-- Node5 -->
<g id="node5" class="node"><title>Node5</title>
<polygon fill="none" stroke="#bfbfbf" points="166,-67.5 166,-86.5 218,-86.5 218,-67.5 166,-67.5"/>
<text text-anchor="middle" x="192" y="-74.5" font-family="Helvetica,sans-Serif" font-size="10.00">sstream</text>
</g>
<!-- Node1&#45;&gt;Node5 -->
<g id="edge4" class="edge"><title>Node1&#45;&gt;Node5</title>
<path fill="none" stroke="midnightblue" d="M308.116,-246.463C289.16,-218.962 229.44,-132.319 203.84,-95.1783"/>
<polygon fill="midnightblue" stroke="midnightblue" points="206.67,-93.1157 198.113,-86.8684 200.906,-97.0883 206.67,-93.1157"/>
</g>
<!-- Node6 -->
<g id="node6" class="node"><title>Node6</title>
<g id="a_node6"><a xlink:href="string_8hpp.html" target="_top" xlink:title="string/string.hpp">
<polygon fill="none" stroke="black" points="409,-129 409,-148 495,-148 495,-129 409,-129"/>
<text text-anchor="middle" x="452" y="-136" font-family="Helvetica,sans-Serif" font-size="10.00">string/string.hpp</text>
</a>
</g>
</g>
<!-- Node1&#45;&gt;Node6 -->
<g id="edge5" class="edge"><title>Node1&#45;&gt;Node6</title>
<path fill="none" stroke="midnightblue" d="M324.372,-246.319C347.649,-226.837 404.298,-179.425 433.666,-154.845"/>
<polygon fill="midnightblue" stroke="midnightblue" points="436.085,-157.384 441.507,-148.282 431.592,-152.016 436.085,-157.384"/>
</g>
<!-- Node16 -->
<g id="node16" class="node"><title>Node16</title>
<g id="a_node16"><a xlink:href="logger_8hpp.html" target="_top" xlink:title="string/logger.hpp">
<polygon fill="none" stroke="black" points="644.5,-190.5 644.5,-209.5 733.5,-209.5 733.5,-190.5 644.5,-190.5"/>
<text text-anchor="middle" x="689" y="-197.5" font-family="Helvetica,sans-Serif" font-size="10.00">string/logger.hpp</text>
</a>
</g>
</g>
<!-- Node1&#45;&gt;Node16 -->
<g id="edge19" class="edge"><title>Node1&#45;&gt;Node16</title>
<path fill="none" stroke="midnightblue" d="M373.42,-246.444C445.022,-236.133 564.358,-218.948 633.949,-208.927"/>
<polygon fill="midnightblue" stroke="midnightblue" points="634.861,-212.332 644.26,-207.443 633.863,-205.404 634.861,-212.332"/>
</g>
<!-- Node25 -->
<g id="node25" class="node"><title>Node25</title>
<g id="a_node25"><a xlink:href="auth__system_8hpp.html" target="_top" xlink:title="user/auth_system.hpp">
<polygon fill="none" stroke="black" points="1021.5,-190.5 1021.5,-209.5 1134.5,-209.5 1134.5,-190.5 1021.5,-190.5"/>
<text text-anchor="middle" x="1078" y="-197.5" font-family="Helvetica,sans-Serif" font-size="10.00">user/auth_system.hpp</text>
</a>
</g>
</g>
<!-- Node1&#45;&gt;Node25 -->
<g id="edge38" class="edge"><title>Node1&#45;&gt;Node25</title>
<path fill="none" stroke="midnightblue" d="M382.809,-250.137C528.683,-239.826 867.393,-215.886 1011.35,-205.711"/>
<polygon fill="midnightblue" stroke="midnightblue" points="1011.64,-209.199 1021.37,-205.003 1011.15,-202.217 1011.64,-209.199"/>
</g>
<!-- Node28 -->
<g id="node28" class="node"><title>Node28</title>
<g id="a_node28"><a xlink:href="user__manager_8hpp.html" target="_top" xlink:title="user/user_manager.hpp">
<polygon fill="none" stroke="black" points="1158.5,-190.5 1158.5,-209.5 1277.5,-209.5 1277.5,-190.5 1158.5,-190.5"/>
<text text-anchor="middle" x="1218" y="-197.5" font-family="Helvetica,sans-Serif" font-size="10.00">user/user_manager.hpp</text>
</a>
</g>
</g>
<!-- Node1&#45;&gt;Node28 -->
<g id="edge46" class="edge"><title>Node1&#45;&gt;Node28</title>
<path fill="none" stroke="midnightblue" d="M382.703,-252.83C524.964,-247.994 862.059,-234.76 1144,-210 1145.31,-209.885 1146.62,-209.766 1147.95,-209.642"/>
<polygon fill="midnightblue" stroke="midnightblue" points="1148.66,-213.088 1158.26,-208.613 1147.96,-206.123 1148.66,-213.088"/>
</g>
<!-- Node6&#45;&gt;Node4 -->
<g id="edge6" class="edge"><title>Node6&#45;&gt;Node4</title>
<path fill="none" stroke="midnightblue" d="M408.897,-137.128C366.913,-134.45 303.893,-123.936 265,-87 250.877,-73.5877 245.414,-51.4077 243.308,-35.5061"/>
<polygon fill="midnightblue" stroke="midnightblue" points="246.761,-34.8581 242.291,-25.2521 239.795,-35.5486 246.761,-34.8581"/>
</g>
<!-- Node6&#45;&gt;Node5 -->
<g id="edge11" class="edge"><title>Node6&#45;&gt;Node5</title>
<path fill="none" stroke="midnightblue" d="M414.748,-128.975C364.934,-117.575 277.208,-97.4996 228.025,-86.2443"/>
<polygon fill="midnightblue" stroke="midnightblue" points="228.672,-82.8017 218.143,-83.9827 227.11,-89.6253 228.672,-82.8017"/>
</g>
<!-- Node7 -->
<g id="node7" class="node"><title>Node7</title>
<polygon fill="none" stroke="#bfbfbf" points="348.5,-67.5 348.5,-86.5 407.5,-86.5 407.5,-67.5 348.5,-67.5"/>
<text text-anchor="middle" x="378" y="-74.5" font-family="Helvetica,sans-Serif" font-size="10.00">functional</text>
</g>
<!-- Node6&#45;&gt;Node7 -->
<g id="edge7" class="edge"><title>Node6&#45;&gt;Node7</title>
<path fill="none" stroke="midnightblue" d="M441.398,-128.975C429.748,-119.608 410.814,-104.384 396.665,-93.0081"/>
<polygon fill="midnightblue" stroke="midnightblue" points="398.569,-90.0477 388.583,-86.5091 394.183,-95.503 398.569,-90.0477"/>
</g>
<!-- Node8 -->
<g id="node8" class="node"><title>Node8</title>
<polygon fill="none" stroke="#bfbfbf" points="426,-67.5 426,-86.5 478,-86.5 478,-67.5 426,-67.5"/>
<text text-anchor="middle" x="452" y="-74.5" font-family="Helvetica,sans-Serif" font-size="10.00">memory</text>
</g>
<!-- Node6&#45;&gt;Node8 -->
<g id="edge8" class="edge"><title>Node6&#45;&gt;Node8</title>
<path fill="none" stroke="midnightblue" d="M452,-128.975C452,-120.58 452,-107.481 452,-96.6631"/>
<polygon fill="midnightblue" stroke="midnightblue" points="455.5,-96.5091 452,-86.5091 448.5,-96.5091 455.5,-96.5091"/>
</g>
<!-- Node9 -->
<g id="node9" class="node"><title>Node9</title>
<polygon fill="none" stroke="#bfbfbf" points="736.5,-67.5 736.5,-86.5 795.5,-86.5 795.5,-67.5 736.5,-67.5"/>
<text text-anchor="middle" x="766" y="-74.5" font-family="Helvetica,sans-Serif" font-size="10.00">stdexcept</text>
</g>
<!-- Node6&#45;&gt;Node9 -->
<g id="edge9" class="edge"><title>Node6&#45;&gt;Node9</title>
<path fill="none" stroke="midnightblue" d="M495.064,-129.677C548.388,-119.936 641.973,-102.667 722,-87 723.435,-86.7191 724.895,-86.4311 726.37,-86.1385"/>
<polygon fill="midnightblue" stroke="midnightblue" points="727.076,-89.5668 736.192,-84.168 725.698,-82.7036 727.076,-89.5668"/>
</g>
<!-- Node10 -->
<g id="node10" class="node"><title>Node10</title>
<polygon fill="none" stroke="#bfbfbf" points="523.5,-6 523.5,-25 564.5,-25 564.5,-6 523.5,-6"/>
<text text-anchor="middle" x="544" y="-13" font-family="Helvetica,sans-Serif" font-size="10.00">string</text>
</g>
<!-- Node6&#45;&gt;Node10 -->
<g id="edge10" class="edge"><title>Node6&#45;&gt;Node10</title>
<path fill="none" stroke="midnightblue" d="M458.616,-128.798C473.801,-108.827 511.366,-59.4212 531.224,-33.3036"/>
<polygon fill="midnightblue" stroke="midnightblue" points="534.177,-35.2019 537.444,-25.1232 528.605,-30.9652 534.177,-35.2019"/>
</g>
<!-- Node11 -->
<g id="node11" class="node"><title>Node11</title>
<polygon fill="none" stroke="#bfbfbf" points="998.5,-6 998.5,-25 1081.5,-25 1081.5,-6 998.5,-6"/>
<text text-anchor="middle" x="1040" y="-13" font-family="Helvetica,sans-Serif" font-size="10.00">unordered_map</text>
</g>
<!-- Node6&#45;&gt;Node11 -->
<g id="edge12" class="edge"><title>Node6&#45;&gt;Node11</title>
<path fill="none" stroke="midnightblue" d="M495.001,-129.021C535.778,-120.413 598.447,-105.705 651,-87 670.857,-79.9325 673.804,-73.0299 694,-67 795.666,-36.6459 919.788,-24.2001 988.315,-19.3581"/>
<polygon fill="midnightblue" stroke="midnightblue" points="988.679,-22.8416 998.418,-18.6712 988.204,-15.8577 988.679,-22.8416"/>
</g>
<!-- Node12 -->
<g id="node12" class="node"><title>Node12</title>
<polygon fill="none" stroke="#bfbfbf" points="1105,-6 1105,-25 1149,-25 1149,-6 1105,-6"/>
<text text-anchor="middle" x="1127" y="-13" font-family="Helvetica,sans-Serif" font-size="10.00">vector</text>
</g>
<!-- Node6&#45;&gt;Node12 -->
<g id="edge13" class="edge"><title>Node6&#45;&gt;Node12</title>
<path fill="none" stroke="midnightblue" d="M495.078,-131.279C542.646,-123.707 621.092,-109.123 686,-87 705.57,-80.33 708.083,-72.5472 728,-67 884.18,-23.5008 933.556,-69.6752 1091,-31 1093.67,-30.3445 1096.4,-29.5299 1099.11,-28.6235"/>
<polygon fill="midnightblue" stroke="midnightblue" points="1100.51,-31.8375 1108.65,-25.0589 1098.06,-25.2802 1100.51,-31.8375"/>
</g>
<!-- Node13 -->
<g id="node13" class="node"><title>Node13</title>
<g id="a_node13"><a xlink:href="color_8hpp.html" target="_top" xlink:title="color.hpp">
<polygon fill="none" stroke="black" points="274,-67.5 274,-86.5 330,-86.5 330,-67.5 274,-67.5"/>
<text text-anchor="middle" x="302" y="-74.5" font-family="Helvetica,sans-Serif" font-size="10.00">color.hpp</text>
</a>
</g>
</g>
<!-- Node6&#45;&gt;Node13 -->
<g id="edge14" class="edge"><title>Node6&#45;&gt;Node13</title>
<path fill="none" stroke="midnightblue" d="M430.509,-128.975C404.89,-118.813 361.89,-101.756 332.755,-90.1996"/>
<polygon fill="midnightblue" stroke="midnightblue" points="334.037,-86.9429 323.451,-86.5091 331.456,-93.4497 334.037,-86.9429"/>
</g>
<!-- Node13&#45;&gt;Node4 -->
<g id="edge16" class="edge"><title>Node13&#45;&gt;Node4</title>
<path fill="none" stroke="midnightblue" d="M293.403,-67.4751C284.136,-58.285 269.183,-43.4563 257.788,-32.156"/>
<polygon fill="midnightblue" stroke="midnightblue" points="260.146,-29.5653 250.581,-25.0091 255.217,-34.5358 260.146,-29.5653"/>
</g>
<!-- Node13&#45;&gt;Node10 -->
<g id="edge18" class="edge"><title>Node13&#45;&gt;Node10</title>
<path fill="none" stroke="midnightblue" d="M330.234,-69.0581C376.02,-57.8008 466.095,-35.6542 513.374,-24.03"/>
<polygon fill="midnightblue" stroke="midnightblue" points="514.454,-27.3688 523.329,-21.5824 512.782,-20.5712 514.454,-27.3688"/>
</g>
<!-- Node14 -->
<g id="node14" class="node"><title>Node14</title>
<polygon fill="none" stroke="#bfbfbf" points="347,-6 347,-25 393,-25 393,-6 347,-6"/>
<text text-anchor="middle" x="370" y="-13" font-family="Helvetica,sans-Serif" font-size="10.00">cctype</text>
</g>
<!-- Node13&#45;&gt;Node14 -->
<g id="edge15" class="edge"><title>Node13&#45;&gt;Node14</title>
<path fill="none" stroke="midnightblue" d="M311.743,-67.4751C322.347,-58.1966 339.519,-43.1706 352.479,-31.831"/>
<polygon fill="midnightblue" stroke="midnightblue" points="355.054,-34.2282 360.275,-25.0091 350.445,-28.9601 355.054,-34.2282"/>
</g>
<!-- Node15 -->
<g id="node15" class="node"><title>Node15</title>
<polygon fill="none" stroke="#bfbfbf" points="283.5,-6 283.5,-25 328.5,-25 328.5,-6 283.5,-6"/>
<text text-anchor="middle" x="306" y="-13" font-family="Helvetica,sans-Serif" font-size="10.00">cstdlib</text>
</g>
<!-- Node13&#45;&gt;Node15 -->
<g id="edge17" class="edge"><title>Node13&#45;&gt;Node15</title>
<path fill="none" stroke="midnightblue" d="M302.573,-67.4751C303.137,-59.0803 304.018,-45.9806 304.745,-35.1631"/>
<polygon fill="midnightblue" stroke="midnightblue" points="308.249,-35.2214 305.428,-25.0091 301.265,-34.7518 308.249,-35.2214"/>
</g>
<!-- Node16&#45;&gt;Node6 -->
<g id="edge32" class="edge"><title>Node16&#45;&gt;Node6</title>
<path fill="none" stroke="midnightblue" d="M655.044,-190.475C613.158,-179.959 541.867,-162.062 495.872,-150.514"/>
<polygon fill="midnightblue" stroke="midnightblue" points="496.445,-147.049 485.893,-148.009 494.74,-153.839 496.445,-147.049"/>
</g>
<!-- Node16&#45;&gt;Node9 -->
<g id="edge23" class="edge"><title>Node16&#45;&gt;Node9</title>
<path fill="none" stroke="midnightblue" d="M733.521,-192.117C774.426,-184.776 830.665,-171.757 844,-154 852.273,-142.983 850.891,-134.931 844,-123 835.323,-107.977 819.513,-97.5229 804.383,-90.4992"/>
<polygon fill="midnightblue" stroke="midnightblue" points="805.693,-87.2529 795.121,-86.5592 802.953,-93.6943 805.693,-87.2529"/>
</g>
<!-- Node16&#45;&gt;Node10 -->
<g id="edge24" class="edge"><title>Node16&#45;&gt;Node10</title>
<path fill="none" stroke="midnightblue" d="M645.439,-190.478C623.247,-184.005 597.531,-172.869 581,-154 551.22,-120.007 545.104,-64.4449 544.041,-35.4539"/>
<polygon fill="midnightblue" stroke="midnightblue" points="547.534,-35.0404 543.841,-25.1101 540.535,-35.176 547.534,-35.0404"/>
</g>
<!-- Node16&#45;&gt;Node11 -->
<g id="edge25" class="edge"><title>Node16&#45;&gt;Node11</title>
<path fill="none" stroke="midnightblue" d="M733.552,-198.728C811.658,-197.304 968.752,-189.919 1008,-154 1041.36,-123.469 1043.26,-65.5223 1041.71,-35.5381"/>
<polygon fill="midnightblue" stroke="midnightblue" points="1045.18,-34.9333 1040.98,-25.2051 1038.2,-35.4272 1045.18,-34.9333"/>
</g>
<!-- Node17 -->
<g id="node17" class="node"><title>Node17</title>
<polygon fill="none" stroke="#bfbfbf" points="599,-129 599,-148 649,-148 649,-129 599,-129"/>
<text text-anchor="middle" x="624" y="-136" font-family="Helvetica,sans-Serif" font-size="10.00">iomanip</text>
</g>
<!-- Node16&#45;&gt;Node17 -->
<g id="edge20" class="edge"><title>Node16&#45;&gt;Node17</title>
<path fill="none" stroke="midnightblue" d="M679.687,-190.475C669.551,-181.197 653.136,-166.171 640.748,-154.831"/>
<polygon fill="midnightblue" stroke="midnightblue" points="643.035,-152.18 633.296,-148.009 638.309,-157.343 643.035,-152.18"/>
</g>
<!-- Node18 -->
<g id="node18" class="node"><title>Node18</title>
<polygon fill="none" stroke="#bfbfbf" points="814,-67.5 814,-86.5 868,-86.5 868,-67.5 814,-67.5"/>
<text text-anchor="middle" x="841" y="-74.5" font-family="Helvetica,sans-Serif" font-size="10.00">iostream</text>
</g>
<!-- Node16&#45;&gt;Node18 -->
<g id="edge21" class="edge"><title>Node16&#45;&gt;Node18</title>
<path fill="none" stroke="midnightblue" d="M733.841,-193.405C779.176,-186.719 844.678,-173.876 860,-154 873.05,-137.072 862.917,-112.286 853.147,-95.67"/>
<polygon fill="midnightblue" stroke="midnightblue" points="855.927,-93.5198 847.614,-86.9518 850.017,-97.2705 855.927,-93.5198"/>
</g>
<!-- Node19 -->
<g id="node19" class="node"><title>Node19</title>
<polygon fill="none" stroke="#bfbfbf" points="667,-129 667,-148 711,-148 711,-129 667,-129"/>
<text text-anchor="middle" x="689" y="-136" font-family="Helvetica,sans-Serif" font-size="10.00">mutex</text>
</g>
<!-- Node16&#45;&gt;Node19 -->
<g id="edge22" class="edge"><title>Node16&#45;&gt;Node19</title>
<path fill="none" stroke="midnightblue" d="M689,-190.475C689,-182.08 689,-168.981 689,-158.163"/>
<polygon fill="midnightblue" stroke="midnightblue" points="692.5,-158.009 689,-148.009 685.5,-158.009 692.5,-158.009"/>
</g>
<!-- Node20 -->
<g id="node20" class="node"><title>Node20</title>
<polygon fill="none" stroke="#bfbfbf" points="729.5,-123.5 729.5,-153.5 834.5,-153.5 834.5,-123.5 729.5,-123.5"/>
<text text-anchor="start" x="737.5" y="-141.5" font-family="Helvetica,sans-Serif" font-size="10.00">boost/chrono/io/time</text>
<text text-anchor="middle" x="782" y="-130.5" font-family="Helvetica,sans-Serif" font-size="10.00">_point_io.hpp</text>
</g>
<!-- Node16&#45;&gt;Node20 -->
<g id="edge26" class="edge"><title>Node16&#45;&gt;Node20</title>
<path fill="none" stroke="midnightblue" d="M702.325,-190.475C715.038,-182.341 734.655,-169.791 751.242,-159.179"/>
<polygon fill="midnightblue" stroke="midnightblue" points="753.544,-161.861 760.082,-153.523 749.772,-155.964 753.544,-161.861"/>
</g>
<!-- Node21 -->
<g id="node21" class="node"><title>Node21</title>
<g id="a_node21"><a xlink:href="multibuf_8hpp.html" target="_top" xlink:title="multibuf.hpp">
<polygon fill="none" stroke="black" points="929,-129 929,-148 999,-148 999,-129 929,-129"/>
<text text-anchor="middle" x="964" y="-136" font-family="Helvetica,sans-Serif" font-size="10.00">multibuf.hpp</text>
</a>
</g>
</g>
<!-- Node16&#45;&gt;Node21 -->
<g id="edge27" class="edge"><title>Node16&#45;&gt;Node21</title>
<path fill="none" stroke="midnightblue" d="M733.862,-191.313C779.657,-183.175 852.663,-169.396 915,-154 918.862,-153.046 922.875,-151.981 926.867,-150.874"/>
<polygon fill="midnightblue" stroke="midnightblue" points="928,-154.191 936.65,-148.073 926.072,-147.461 928,-154.191"/>
</g>
<!-- Node23 -->
<g id="node23" class="node"><title>Node23</title>
<g id="a_node23"><a xlink:href="settings_8hpp.html" target="_top" xlink:title="settings.hpp">
<polygon fill="none" stroke="black" points="572,-67.5 572,-86.5 642,-86.5 642,-67.5 572,-67.5"/>
<text text-anchor="middle" x="607" y="-74.5" font-family="Helvetica,sans-Serif" font-size="10.00">settings.hpp</text>
</a>
</g>
</g>
<!-- Node16&#45;&gt;Node23 -->
<g id="edge33" class="edge"><title>Node16&#45;&gt;Node23</title>
<path fill="none" stroke="midnightblue" d="M644.994,-190.441C624.598,-184.034 602.214,-172.969 590,-154 578.604,-136.302 587.357,-112.021 595.966,-95.7105"/>
<polygon fill="midnightblue" stroke="midnightblue" points="599.186,-97.1303 601.126,-86.7145 593.114,-93.6472 599.186,-97.1303"/>
</g>
<!-- Node21&#45;&gt;Node10 -->
<g id="edge31" class="edge"><title>Node21&#45;&gt;Node10</title>
<path fill="none" stroke="midnightblue" d="M956.419,-128.723C942.47,-113.241 911.03,-81.3652 877,-67 751.655,-14.0872 703.344,-70.0043 573,-31 571.332,-30.5008 569.643,-29.9104 567.963,-29.2583"/>
<polygon fill="midnightblue" stroke="midnightblue" points="569.2,-25.9763 558.645,-25.0517 566.319,-32.3563 569.2,-25.9763"/>
</g>
<!-- Node21&#45;&gt;Node12 -->
<g id="edge30" class="edge"><title>Node21&#45;&gt;Node12</title>
<path fill="none" stroke="midnightblue" d="M975.462,-128.992C1002.87,-108.647 1072.47,-56.978 1106.98,-31.3629"/>
<polygon fill="midnightblue" stroke="midnightblue" points="1109.39,-33.9319 1115.33,-25.161 1105.22,-28.3113 1109.39,-33.9319"/>
</g>
<!-- Node21&#45;&gt;Node18 -->
<g id="edge28" class="edge"><title>Node21&#45;&gt;Node18</title>
<path fill="none" stroke="midnightblue" d="M946.377,-128.975C925.826,-119.034 891.636,-102.495 867.793,-90.961"/>
<polygon fill="midnightblue" stroke="midnightblue" points="869.116,-87.7131 858.59,-86.5091 866.068,-94.0145 869.116,-87.7131"/>
</g>
<!-- Node22 -->
<g id="node22" class="node"><title>Node22</title>
<polygon fill="none" stroke="#bfbfbf" points="924,-67.5 924,-86.5 974,-86.5 974,-67.5 924,-67.5"/>
<text text-anchor="middle" x="949" y="-74.5" font-family="Helvetica,sans-Serif" font-size="10.00">fstream</text>
</g>
<!-- Node21&#45;&gt;Node22 -->
<g id="edge29" class="edge"><title>Node21&#45;&gt;Node22</title>
<path fill="none" stroke="midnightblue" d="M961.851,-128.975C959.712,-120.492 956.362,-107.204 953.619,-96.3222"/>
<polygon fill="midnightblue" stroke="midnightblue" points="956.984,-95.3501 951.145,-86.5091 950.196,-97.0613 956.984,-95.3501"/>
</g>
<!-- Node23&#45;&gt;Node4 -->
<g id="edge35" class="edge"><title>Node23&#45;&gt;Node4</title>
<path fill="none" stroke="midnightblue" d="M571.734,-72.5457C497.928,-65.1027 329.437,-46.9343 274,-31 272.066,-30.444 270.098,-29.7904 268.138,-29.0736"/>
<polygon fill="midnightblue" stroke="midnightblue" points="269.169,-25.7125 258.591,-25.1222 266.492,-32.1804 269.169,-25.7125"/>
</g>
<!-- Node23&#45;&gt;Node10 -->
<g id="edge34" class="edge"><title>Node23&#45;&gt;Node10</title>
<path fill="none" stroke="midnightblue" d="M597.974,-67.4751C588.243,-58.285 572.542,-43.4563 560.577,-32.156"/>
<polygon fill="midnightblue" stroke="midnightblue" points="562.683,-29.3308 553.01,-25.0091 557.877,-34.4199 562.683,-29.3308"/>
</g>
<!-- Node23&#45;&gt;Node11 -->
<g id="edge36" class="edge"><title>Node23&#45;&gt;Node11</title>
<path fill="none" stroke="midnightblue" d="M642.027,-69.3428C646.718,-68.5168 651.472,-67.7131 656,-67 774.629,-48.3173 914.635,-31.1233 988.451,-22.4341"/>
<polygon fill="midnightblue" stroke="midnightblue" points="988.895,-25.9062 998.419,-21.2652 988.079,-18.9538 988.895,-25.9062"/>
</g>
<!-- Node24 -->
<g id="node24" class="node"><title>Node24</title>
<polygon fill="none" stroke="#bfbfbf" points="582.5,-0.5 582.5,-30.5 683.5,-30.5 683.5,-0.5 582.5,-0.5"/>
<text text-anchor="start" x="590.5" y="-18.5" font-family="Helvetica,sans-Serif" font-size="10.00">boost/property_tree</text>
<text text-anchor="middle" x="633" y="-7.5" font-family="Helvetica,sans-Serif" font-size="10.00">/ptree.hpp</text>
</g>
<!-- Node23&#45;&gt;Node24 -->
<g id="edge37" class="edge"><title>Node23&#45;&gt;Node24</title>
<path fill="none" stroke="midnightblue" d="M610.725,-67.4751C613.884,-60.2451 618.569,-49.5253 622.828,-39.7792"/>
<polygon fill="midnightblue" stroke="midnightblue" points="626.075,-41.0878 626.872,-30.523 619.661,-38.2848 626.075,-41.0878"/>
</g>
<!-- Node25&#45;&gt;Node11 -->
<g id="edge39" class="edge"><title>Node25&#45;&gt;Node11</title>
<path fill="none" stroke="midnightblue" d="M1076.7,-190.296C1073.46,-169.086 1064.56,-113.09 1054,-67 1051.52,-56.175 1048.22,-44.192 1045.45,-34.6162"/>
<polygon fill="midnightblue" stroke="midnightblue" points="1048.81,-33.6169 1042.62,-25.0178 1042.09,-35.5997 1048.81,-33.6169"/>
</g>
<!-- Node26 -->
<g id="node26" class="node"><title>Node26</title>
<g id="a_node26"><a xlink:href="user__group_8hpp.html" target="_top" xlink:title="user_group.hpp">
<polygon fill="none" stroke="black" points="1106.5,-129 1106.5,-148 1189.5,-148 1189.5,-129 1106.5,-129"/>
<text text-anchor="middle" x="1148" y="-136" font-family="Helvetica,sans-Serif" font-size="10.00">user_group.hpp</text>
</a>
</g>
</g>
<!-- Node25&#45;&gt;Node26 -->
<g id="edge40" class="edge"><title>Node25&#45;&gt;Node26</title>
<path fill="none" stroke="midnightblue" d="M1088.03,-190.475C1099.05,-181.108 1116.96,-165.884 1130.34,-154.508"/>
<polygon fill="midnightblue" stroke="midnightblue" points="1132.64,-157.152 1137.99,-148.009 1128.1,-151.819 1132.64,-157.152"/>
</g>
<!-- Node26&#45;&gt;Node12 -->
<g id="edge41" class="edge"><title>Node26&#45;&gt;Node12</title>
<path fill="none" stroke="midnightblue" d="M1154.23,-128.713C1162.95,-115.27 1176.9,-88.8589 1169,-67 1164.2,-53.729 1154.23,-41.4878 1145.2,-32.3819"/>
<polygon fill="midnightblue" stroke="midnightblue" points="1147.34,-29.5807 1137.67,-25.2398 1142.52,-34.6602 1147.34,-29.5807"/>
</g>
<!-- Node27 -->
<g id="node27" class="node"><title>Node27</title>
<g id="a_node27"><a xlink:href="user_8hpp.html" target="_top" xlink:title="user.hpp">
<polygon fill="none" stroke="black" points="1106,-67.5 1106,-86.5 1160,-86.5 1160,-67.5 1106,-67.5"/>
<text text-anchor="middle" x="1133" y="-74.5" font-family="Helvetica,sans-Serif" font-size="10.00">user.hpp</text>
</a>
</g>
</g>
<!-- Node26&#45;&gt;Node27 -->
<g id="edge42" class="edge"><title>Node26&#45;&gt;Node27</title>
<path fill="none" stroke="midnightblue" d="M1145.85,-128.975C1143.71,-120.492 1140.36,-107.204 1137.62,-96.3222"/>
<polygon fill="midnightblue" stroke="midnightblue" points="1140.98,-95.3501 1135.15,-86.5091 1134.2,-97.0613 1140.98,-95.3501"/>
</g>
<!-- Node27&#45;&gt;Node10 -->
<g id="edge43" class="edge"><title>Node27&#45;&gt;Node10</title>
<path fill="none" stroke="midnightblue" d="M1105.96,-74.4354C1001.11,-68.2858 624.674,-45.4077 573,-31 571.285,-30.5219 569.552,-29.9406 567.83,-29.289"/>
<polygon fill="midnightblue" stroke="midnightblue" points="568.87,-25.9196 558.314,-25.0155 566.003,-32.3052 568.87,-25.9196"/>
</g>
<!-- Node27&#45;&gt;Node11 -->
<g id="edge45" class="edge"><title>Node27&#45;&gt;Node11</title>
<path fill="none" stroke="midnightblue" d="M1119.68,-67.4751C1104.62,-57.8431 1079.88,-42.0175 1061.96,-30.5517"/>
<polygon fill="midnightblue" stroke="midnightblue" points="1063.61,-27.4501 1053.3,-25.0091 1059.84,-33.3466 1063.61,-27.4501"/>
</g>
<!-- Node27&#45;&gt;Node12 -->
<g id="edge44" class="edge"><title>Node27&#45;&gt;Node12</title>
<path fill="none" stroke="midnightblue" d="M1132.14,-67.4751C1131.29,-59.0803 1129.97,-45.9806 1128.88,-35.1631"/>
<polygon fill="midnightblue" stroke="midnightblue" points="1132.34,-34.6074 1127.86,-25.0091 1125.38,-35.3098 1132.34,-34.6074"/>
</g>
<!-- Node28&#45;&gt;Node27 -->
<g id="edge47" class="edge"><title>Node28&#45;&gt;Node27</title>
<path fill="none" stroke="midnightblue" d="M1217.79,-190.202C1217.01,-175.131 1213.62,-143.977 1199,-123 1189.59,-109.503 1174.73,-98.8524 1161.49,-91.3079"/>
<polygon fill="midnightblue" stroke="midnightblue" points="1163.14,-88.2199 1152.67,-86.5843 1159.84,-94.3907 1163.14,-88.2199"/>
</g>
<!-- Node29 -->
<g id="node29" class="node"><title>Node29</title>
<polygon fill="none" stroke="#bfbfbf" points="1246.5,-129 1246.5,-148 1275.5,-148 1275.5,-129 1246.5,-129"/>
<text text-anchor="middle" x="1261" y="-136" font-family="Helvetica,sans-Serif" font-size="10.00">list</text>
</g>
<!-- Node28&#45;&gt;Node29 -->
<g id="edge48" class="edge"><title>Node28&#45;&gt;Node29</title>
<path fill="none" stroke="midnightblue" d="M1224.16,-190.475C1230.61,-181.55 1240.9,-167.307 1248.97,-156.143"/>
<polygon fill="midnightblue" stroke="midnightblue" points="1251.83,-158.164 1254.85,-148.009 1246.16,-154.064 1251.83,-158.164"/>
</g>
</g>
</svg>
