<?xml version="1.0" encoding="UTF-8" standalone="no"?>
<!DOCTYPE svg PUBLIC "-//W3C//DTD SVG 1.1//EN"
 "http://www.w3.org/Graphics/SVG/1.1/DTD/svg11.dtd">
<!-- Generated by graphviz version 2.38.0 (20140413.2041)
 -->
<!-- Title: src/handler/ctcp.cpp Pages: 1 -->
<svg width="1822pt" height="498pt"
 viewBox="0.00 0.00 1821.51 498.00" xmlns="http://www.w3.org/2000/svg" xmlns:xlink="http://www.w3.org/1999/xlink">
<g id="graph0" class="graph" transform="scale(1 1) rotate(0) translate(4 494)">
<title>src/handler/ctcp.cpp</title>
<!-- Node1 -->
<g id="node1" class="node"><title>Node1</title>
<polygon fill="#bfbfbf" stroke="black" points="775.008,-470.5 775.008,-489.5 880.008,-489.5 880.008,-470.5 775.008,-470.5"/>
<text text-anchor="middle" x="827.508" y="-477.5" font-family="Helvetica,sans-Serif" font-size="10.00">src/handler/ctcp.cpp</text>
</g>
<!-- Node2 -->
<g id="node2" class="node"><title>Node2</title>
<g id="a_node2"><a xlink:href="handler_8hpp.html" target="_top" xlink:title="handler.hpp">
<polygon fill="none" stroke="black" points="711.008,-414.5 711.008,-433.5 778.008,-433.5 778.008,-414.5 711.008,-414.5"/>
<text text-anchor="middle" x="744.508" y="-421.5" font-family="Helvetica,sans-Serif" font-size="10.00">handler.hpp</text>
</a>
</g>
</g>
<!-- Node1&#45;&gt;Node2 -->
<g id="edge1" class="edge"><title>Node1&#45;&gt;Node2</title>
<path fill="none" stroke="midnightblue" d="M814.173,-470.324C801.346,-461.979 781.723,-449.212 766.568,-439.352"/>
<polygon fill="midnightblue" stroke="midnightblue" points="768.101,-436.174 757.81,-433.655 764.284,-442.042 768.101,-436.174"/>
</g>
<!-- Node42 -->
<g id="node42" class="node"><title>Node42</title>
<g id="a_node42"><a xlink:href="config_8hpp.html" target="_top" xlink:title="config.hpp">
<polygon fill="none" stroke="black" points="796.508,-414.5 796.508,-433.5 858.508,-433.5 858.508,-414.5 796.508,-414.5"/>
<text text-anchor="middle" x="827.508" y="-421.5" font-family="Helvetica,sans-Serif" font-size="10.00">config.hpp</text>
</a>
</g>
</g>
<!-- Node1&#45;&gt;Node42 -->
<g id="edge81" class="edge"><title>Node1&#45;&gt;Node42</title>
<path fill="none" stroke="midnightblue" d="M827.508,-470.083C827.508,-463.006 827.508,-452.861 827.508,-443.986"/>
<polygon fill="midnightblue" stroke="midnightblue" points="831.008,-443.751 827.508,-433.751 824.008,-443.751 831.008,-443.751"/>
</g>
<!-- Node43 -->
<g id="node43" class="node"><title>Node43</title>
<g id="a_node43"><a xlink:href="irc__functions_8hpp.html" target="_top" xlink:title="network/irc_functions.hpp">
<polygon fill="none" stroke="black" points="815.508,-129 815.508,-148 943.508,-148 943.508,-129 815.508,-129"/>
<text text-anchor="middle" x="879.508" y="-136" font-family="Helvetica,sans-Serif" font-size="10.00">network/irc_functions.hpp</text>
</a>
</g>
</g>
<!-- Node1&#45;&gt;Node43 -->
<g id="edge82" class="edge"><title>Node1&#45;&gt;Node43</title>
<path fill="none" stroke="midnightblue" d="M838.628,-470.37C848.231,-462.179 861.482,-448.927 867.508,-434 906.794,-336.684 890.835,-206.28 882.934,-158.263"/>
<polygon fill="midnightblue" stroke="midnightblue" points="886.335,-157.386 881.18,-148.13 879.437,-158.581 886.335,-157.386"/>
</g>
<!-- Node3 -->
<g id="node3" class="node"><title>Node3</title>
<polygon fill="none" stroke="#bfbfbf" points="1608.01,-67.5 1608.01,-86.5 1667.01,-86.5 1667.01,-67.5 1608.01,-67.5"/>
<text text-anchor="middle" x="1637.51" y="-74.5" font-family="Helvetica,sans-Serif" font-size="10.00">functional</text>
</g>
<!-- Node2&#45;&gt;Node3 -->
<g id="edge2" class="edge"><title>Node2&#45;&gt;Node3</title>
<path fill="none" stroke="midnightblue" d="M778.225,-415.431C781.353,-414.884 784.483,-414.394 787.508,-414 1090.26,-374.61 1170.86,-418.249 1473.51,-378 1609.61,-359.9 1775.51,-450.296 1775.51,-313 1775.51,-313 1775.51,-313 1775.51,-199 1775.51,-143.69 1712.06,-107.755 1671.21,-90.3502"/>
<polygon fill="midnightblue" stroke="midnightblue" points="1672.44,-87.0739 1661.86,-86.5211 1669.79,-93.5513 1672.44,-87.0739"/>
</g>
<!-- Node4 -->
<g id="node4" class="node"><title>Node4</title>
<polygon fill="none" stroke="#bfbfbf" points="700.008,-6 700.008,-25 741.008,-25 741.008,-6 700.008,-6"/>
<text text-anchor="middle" x="720.508" y="-13" font-family="Helvetica,sans-Serif" font-size="10.00">string</text>
</g>
<!-- Node2&#45;&gt;Node4 -->
<g id="edge3" class="edge"><title>Node2&#45;&gt;Node4</title>
<path fill="none" stroke="midnightblue" d="M710.652,-421.612C565.3,-415.211 1.5081,-385.697 1.5081,-313 1.5081,-313 1.5081,-313 1.5081,-137.5 1.5081,-105.049 -4.52431,-87.651 20.5081,-67 72.6784,-23.9611 560.901,-17.5909 689.556,-16.6581"/>
<polygon fill="midnightblue" stroke="midnightblue" points="689.893,-20.1561 699.869,-16.5897 689.846,-13.1562 689.893,-20.1561"/>
</g>
<!-- Node5 -->
<g id="node5" class="node"><title>Node5</title>
<polygon fill="none" stroke="#bfbfbf" points="455.008,-67.5 455.008,-86.5 514.008,-86.5 514.008,-67.5 455.008,-67.5"/>
<text text-anchor="middle" x="484.508" y="-74.5" font-family="Helvetica,sans-Serif" font-size="10.00">stdexcept</text>
</g>
<!-- Node2&#45;&gt;Node5 -->
<g id="edge4" class="edge"><title>Node2&#45;&gt;Node5</title>
<path fill="none" stroke="midnightblue" d="M710.714,-418.457C629.779,-406.633 431.508,-371.678 431.508,-313 431.508,-313 431.508,-313 431.508,-199 431.508,-158.888 456.247,-117.106 471.922,-94.6591"/>
<polygon fill="midnightblue" stroke="midnightblue" points="474.771,-96.6911 477.796,-86.5371 469.099,-92.5889 474.771,-96.6911"/>
</g>
<!-- Node6 -->
<g id="node6" class="node"><title>Node6</title>
<polygon fill="none" stroke="#bfbfbf" points="29.5081,-67.5 29.5081,-86.5 91.5081,-86.5 91.5081,-67.5 29.5081,-67.5"/>
<text text-anchor="middle" x="60.5081" y="-74.5" font-family="Helvetica,sans-Serif" font-size="10.00">type_traits</text>
</g>
<!-- Node2&#45;&gt;Node6 -->
<g id="edge5" class="edge"><title>Node2&#45;&gt;Node6</title>
<path fill="none" stroke="midnightblue" d="M710.791,-420.848C578.283,-411.949 100.508,-375.525 100.508,-313 100.508,-313 100.508,-313 100.508,-199 100.508,-160.647 82.1674,-118.754 70.3244,-95.7006"/>
<polygon fill="midnightblue" stroke="midnightblue" points="73.3625,-93.9592 65.5741,-86.7764 67.1833,-97.2484 73.3625,-93.9592"/>
</g>
<!-- Node7 -->
<g id="node7" class="node"><title>Node7</title>
<polygon fill="none" stroke="#bfbfbf" points="1358.01,-6 1358.01,-25 1441.01,-25 1441.01,-6 1358.01,-6"/>
<text text-anchor="middle" x="1399.51" y="-13" font-family="Helvetica,sans-Serif" font-size="10.00">unordered_map</text>
</g>
<!-- Node2&#45;&gt;Node7 -->
<g id="edge6" class="edge"><title>Node2&#45;&gt;Node7</title>
<path fill="none" stroke="midnightblue" d="M778.221,-415.399C781.35,-414.859 784.481,-414.379 787.508,-414 1161.38,-367.249 1264.83,-450.856 1634.51,-378 1717.55,-361.634 1813.51,-397.638 1813.51,-313 1813.51,-313 1813.51,-313 1813.51,-137.5 1813.51,-62.7973 1562.03,-31.0388 1451.07,-20.6617"/>
<polygon fill="midnightblue" stroke="midnightblue" points="1451.38,-17.1752 1441.1,-19.7516 1450.74,-24.1463 1451.38,-17.1752"/>
</g>
<!-- Node8 -->
<g id="node8" class="node"><title>Node8</title>
<g id="a_node8"><a xlink:href="connection_8hpp.html" target="_top" xlink:title="network/connection.hpp">
<polygon fill="none" stroke="black" points="913.508,-302.5 913.508,-321.5 1033.51,-321.5 1033.51,-302.5 913.508,-302.5"/>
<text text-anchor="middle" x="973.508" y="-309.5" font-family="Helvetica,sans-Serif" font-size="10.00">network/connection.hpp</text>
</a>
</g>
</g>
<!-- Node2&#45;&gt;Node8 -->
<g id="edge7" class="edge"><title>Node2&#45;&gt;Node8</title>
<path fill="none" stroke="midnightblue" d="M754.355,-414.273C770.222,-400.601 802.878,-374.039 834.508,-358 863.925,-343.084 899.32,-331.71 927.03,-324.129"/>
<polygon fill="midnightblue" stroke="midnightblue" points="928.105,-327.465 936.866,-321.508 926.302,-320.701 928.105,-327.465"/>
</g>
<!-- Node19 -->
<g id="node19" class="node"><title>Node19</title>
<g id="a_node19"><a xlink:href="logger_8hpp.html" target="_top" xlink:title="string/logger.hpp">
<polygon fill="none" stroke="black" points="700.008,-190.5 700.008,-209.5 789.008,-209.5 789.008,-190.5 700.008,-190.5"/>
<text text-anchor="middle" x="744.508" y="-197.5" font-family="Helvetica,sans-Serif" font-size="10.00">string/logger.hpp</text>
</a>
</g>
</g>
<!-- Node2&#45;&gt;Node19 -->
<g id="edge58" class="edge"><title>Node2&#45;&gt;Node19</title>
<path fill="none" stroke="midnightblue" d="M744.508,-414.297C744.508,-381.633 744.508,-265.866 744.508,-219.957"/>
<polygon fill="midnightblue" stroke="midnightblue" points="748.008,-219.884 744.508,-209.884 741.008,-219.884 748.008,-219.884"/>
</g>
<!-- Node26 -->
<g id="node26" class="node"><title>Node26</title>
<g id="a_node26"><a xlink:href="settings_8hpp.html" target="_top" xlink:title="settings.hpp">
<polygon fill="none" stroke="black" points="1178.51,-67.5 1178.51,-86.5 1248.51,-86.5 1248.51,-67.5 1178.51,-67.5"/>
<text text-anchor="middle" x="1213.51" y="-74.5" font-family="Helvetica,sans-Serif" font-size="10.00">settings.hpp</text>
</a>
</g>
</g>
<!-- Node2&#45;&gt;Node26 -->
<g id="edge57" class="edge"><title>Node2&#45;&gt;Node26</title>
<path fill="none" stroke="midnightblue" d="M778.168,-414.462C866.765,-391.345 1103.21,-325.284 1155.51,-266 1199.35,-216.308 1210.05,-133.963 1212.66,-96.9939"/>
<polygon fill="midnightblue" stroke="midnightblue" points="1216.18,-96.8697 1213.26,-86.6843 1209.19,-96.4656 1216.18,-96.8697"/>
</g>
<!-- Node33 -->
<g id="node33" class="node"><title>Node33</title>
<g id="a_node33"><a xlink:href="string__functions_8hpp.html" target="_top" xlink:title="string/string_functions.hpp">
<polygon fill="none" stroke="black" points="168.008,-129 168.008,-148 299.008,-148 299.008,-129 168.008,-129"/>
<text text-anchor="middle" x="233.508" y="-136" font-family="Helvetica,sans-Serif" font-size="10.00">string/string_functions.hpp</text>
</a>
</g>
</g>
<!-- Node2&#45;&gt;Node33 -->
<g id="edge59" class="edge"><title>Node2&#45;&gt;Node33</title>
<path fill="none" stroke="midnightblue" d="M710.688,-421.623C609.084,-416.576 313.508,-394.858 313.508,-313 313.508,-313 313.508,-313 313.508,-255 313.508,-212.67 276.746,-174.654 253.062,-154.555"/>
<polygon fill="midnightblue" stroke="midnightblue" points="255.269,-151.838 245.312,-148.216 250.836,-157.256 255.269,-151.838"/>
</g>
<!-- Node37 -->
<g id="node37" class="node"><title>Node37</title>
<g id="a_node37"><a xlink:href="melanobot_8hpp.html" target="_top" xlink:title="melanobot.hpp">
<polygon fill="none" stroke="black" points="1384.51,-358.5 1384.51,-377.5 1464.51,-377.5 1464.51,-358.5 1384.51,-358.5"/>
<text text-anchor="middle" x="1424.51" y="-365.5" font-family="Helvetica,sans-Serif" font-size="10.00">melanobot.hpp</text>
</a>
</g>
</g>
<!-- Node2&#45;&gt;Node37 -->
<g id="edge66" class="edge"><title>Node2&#45;&gt;Node37</title>
<path fill="none" stroke="midnightblue" d="M778.233,-415.49C781.359,-414.93 784.486,-414.421 787.508,-414 1004.56,-383.761 1266.2,-373.391 1374.17,-370.235"/>
<polygon fill="midnightblue" stroke="midnightblue" points="1374.54,-373.725 1384.44,-369.943 1374.34,-366.728 1374.54,-373.725"/>
</g>
<!-- Node9 -->
<g id="node9" class="node"><title>Node9</title>
<polygon fill="none" stroke="#bfbfbf" points="1411.51,-246.5 1411.51,-265.5 1457.51,-265.5 1457.51,-246.5 1411.51,-246.5"/>
<text text-anchor="middle" x="1434.51" y="-253.5" font-family="Helvetica,sans-Serif" font-size="10.00">atomic</text>
</g>
<!-- Node8&#45;&gt;Node9 -->
<g id="edge8" class="edge"><title>Node8&#45;&gt;Node9</title>
<path fill="none" stroke="midnightblue" d="M1033.85,-307.735C1115.17,-302.654 1264.51,-290.924 1401.35,-265.702"/>
<polygon fill="midnightblue" stroke="midnightblue" points="1401.99,-269.142 1411.18,-263.863 1400.71,-262.262 1401.99,-269.142"/>
</g>
<!-- Node10 -->
<g id="node10" class="node"><title>Node10</title>
<polygon fill="none" stroke="#bfbfbf" points="963.508,-246.5 963.508,-265.5 1009.51,-265.5 1009.51,-246.5 963.508,-246.5"/>
<text text-anchor="middle" x="986.508" y="-253.5" font-family="Helvetica,sans-Serif" font-size="10.00">chrono</text>
</g>
<!-- Node8&#45;&gt;Node10 -->
<g id="edge9" class="edge"><title>Node8&#45;&gt;Node10</title>
<path fill="none" stroke="midnightblue" d="M975.655,-302.083C977.377,-294.927 979.855,-284.635 982.008,-275.691"/>
<polygon fill="midnightblue" stroke="midnightblue" points="985.464,-276.293 984.401,-265.751 978.658,-274.654 985.464,-276.293"/>
</g>
<!-- Node11 -->
<g id="node11" class="node"><title>Node11</title>
<polygon fill="none" stroke="#bfbfbf" points="1035.51,-6 1035.51,-25 1081.51,-25 1081.51,-6 1035.51,-6"/>
<text text-anchor="middle" x="1058.51" y="-13" font-family="Helvetica,sans-Serif" font-size="10.00">cstdint</text>
</g>
<!-- Node8&#45;&gt;Node11 -->
<g id="edge10" class="edge"><title>Node8&#45;&gt;Node11</title>
<path fill="none" stroke="midnightblue" d="M967.205,-302.328C958.796,-289.616 945.909,-265.337 954.508,-246 979.315,-190.218 1031.3,-209.6 1056.51,-154 1074.28,-114.808 1068.02,-62.6395 1062.75,-35.1978"/>
<polygon fill="midnightblue" stroke="midnightblue" points="1066.11,-34.132 1060.63,-25.0608 1059.26,-35.5657 1066.11,-34.132"/>
</g>
<!-- Node12 -->
<g id="node12" class="node"><title>Node12</title>
<polygon fill="none" stroke="#bfbfbf" points="346.508,-67.5 346.508,-86.5 398.508,-86.5 398.508,-67.5 346.508,-67.5"/>
<text text-anchor="middle" x="372.508" y="-74.5" font-family="Helvetica,sans-Serif" font-size="10.00">sstream</text>
</g>
<!-- Node8&#45;&gt;Node12 -->
<g id="edge11" class="edge"><title>Node8&#45;&gt;Node12</title>
<path fill="none" stroke="midnightblue" d="M918.289,-302.45C820.163,-285.525 611.199,-241.573 456.508,-154 428.417,-138.097 401.815,-111.343 386.342,-94.191"/>
<polygon fill="midnightblue" stroke="midnightblue" points="388.919,-91.8213 379.682,-86.6317 383.667,-96.4488 388.919,-91.8213"/>
</g>
<!-- Node13 -->
<g id="node13" class="node"><title>Node13</title>
<g id="a_node13"><a xlink:href="string_8hpp.html" target="_top" xlink:title="string/string.hpp">
<polygon fill="none" stroke="black" points="961.508,-129 961.508,-148 1047.51,-148 1047.51,-129 961.508,-129"/>
<text text-anchor="middle" x="1004.51" y="-136" font-family="Helvetica,sans-Serif" font-size="10.00">string/string.hpp</text>
</a>
</g>
</g>
<!-- Node8&#45;&gt;Node13 -->
<g id="edge12" class="edge"><title>Node8&#45;&gt;Node13</title>
<path fill="none" stroke="midnightblue" d="M957.725,-302.467C945.305,-294.769 928.903,-282.179 921.508,-266 917.813,-257.916 918.619,-254.406 921.508,-246 934.364,-208.59 966.336,-174.224 986.636,-155.144"/>
<polygon fill="midnightblue" stroke="midnightblue" points="989.259,-157.488 994.282,-148.16 984.538,-152.32 989.259,-157.488"/>
</g>
<!-- Node8&#45;&gt;Node19 -->
<g id="edge26" class="edge"><title>Node8&#45;&gt;Node19</title>
<path fill="none" stroke="midnightblue" d="M955.539,-302.368C915.49,-283.131 818.72,-236.648 771.429,-213.931"/>
<polygon fill="midnightblue" stroke="midnightblue" points="772.923,-210.766 762.394,-209.591 769.892,-217.076 772.923,-210.766"/>
</g>
<!-- Node28 -->
<g id="node28" class="node"><title>Node28</title>
<g id="a_node28"><a xlink:href="auth__system_8hpp.html" target="_top" xlink:title="user/auth_system.hpp">
<polygon fill="none" stroke="black" points="1280.01,-246.5 1280.01,-265.5 1393.01,-265.5 1393.01,-246.5 1280.01,-246.5"/>
<text text-anchor="middle" x="1336.51" y="-253.5" font-family="Helvetica,sans-Serif" font-size="10.00">user/auth_system.hpp</text>
</a>
</g>
</g>
<!-- Node8&#45;&gt;Node28 -->
<g id="edge45" class="edge"><title>Node8&#45;&gt;Node28</title>
<path fill="none" stroke="midnightblue" d="M1031.03,-302.444C1095.87,-292.798 1201.15,-277.136 1269.61,-266.951"/>
<polygon fill="midnightblue" stroke="midnightblue" points="1270.48,-270.361 1279.86,-265.428 1269.45,-263.437 1270.48,-270.361"/>
</g>
<!-- Node31 -->
<g id="node31" class="node"><title>Node31</title>
<g id="a_node31"><a xlink:href="user__manager_8hpp.html" target="_top" xlink:title="user/user_manager.hpp">
<polygon fill="none" stroke="black" points="1028.01,-246.5 1028.01,-265.5 1147.01,-265.5 1147.01,-246.5 1028.01,-246.5"/>
<text text-anchor="middle" x="1087.51" y="-253.5" font-family="Helvetica,sans-Serif" font-size="10.00">user/user_manager.hpp</text>
</a>
</g>
</g>
<!-- Node8&#45;&gt;Node31 -->
<g id="edge54" class="edge"><title>Node8&#45;&gt;Node31</title>
<path fill="none" stroke="midnightblue" d="M991.572,-302.444C1010.08,-293.675 1039.09,-279.935 1060.36,-269.858"/>
<polygon fill="midnightblue" stroke="midnightblue" points="1061.99,-272.96 1069.53,-265.516 1058.99,-266.634 1061.99,-272.96"/>
</g>
<!-- Node13&#45;&gt;Node3 -->
<g id="edge14" class="edge"><title>Node13&#45;&gt;Node3</title>
<path fill="none" stroke="midnightblue" d="M1047.73,-132.343C1072.53,-129.45 1104.25,-125.859 1132.51,-123 1305.69,-105.478 1512.65,-88.1744 1597.87,-81.2075"/>
<polygon fill="midnightblue" stroke="midnightblue" points="1598.2,-84.6919 1607.89,-80.3904 1597.63,-77.7151 1598.2,-84.6919"/>
</g>
<!-- Node13&#45;&gt;Node4 -->
<g id="edge17" class="edge"><title>Node13&#45;&gt;Node4</title>
<path fill="none" stroke="midnightblue" d="M974.283,-128.989C967.148,-127.003 959.564,-124.911 952.508,-123 891.741,-106.545 872.26,-114.253 815.508,-87 785.437,-72.5592 755.282,-48.0636 737.255,-32.0849"/>
<polygon fill="midnightblue" stroke="midnightblue" points="739.196,-29.1211 729.433,-25.0063 734.499,-34.3114 739.196,-29.1211"/>
</g>
<!-- Node13&#45;&gt;Node5 -->
<g id="edge16" class="edge"><title>Node13&#45;&gt;Node5</title>
<path fill="none" stroke="midnightblue" d="M977.742,-128.998C969.702,-126.727 960.81,-124.492 952.508,-123 767.407,-89.7322 714.349,-115.668 524.273,-86.8733"/>
<polygon fill="midnightblue" stroke="midnightblue" points="524.651,-83.3901 514.233,-85.3211 523.581,-90.3079 524.651,-83.3901"/>
</g>
<!-- Node13&#45;&gt;Node7 -->
<g id="edge19" class="edge"><title>Node13&#45;&gt;Node7</title>
<path fill="none" stroke="midnightblue" d="M1021.92,-128.769C1051.56,-114.196 1114.03,-84.7685 1169.51,-67 1229.54,-47.773 1300.69,-33.3874 1347.79,-24.986"/>
<polygon fill="midnightblue" stroke="midnightblue" points="1348.51,-28.4127 1357.76,-23.2338 1347.3,-21.5184 1348.51,-28.4127"/>
</g>
<!-- Node13&#45;&gt;Node11 -->
<g id="edge13" class="edge"><title>Node13&#45;&gt;Node11</title>
<path fill="none" stroke="midnightblue" d="M1008.39,-128.798C1017.19,-109.089 1038.78,-60.7106 1050.55,-34.342"/>
<polygon fill="midnightblue" stroke="midnightblue" points="1053.78,-35.6815 1054.66,-25.1232 1047.39,-32.8287 1053.78,-35.6815"/>
</g>
<!-- Node13&#45;&gt;Node12 -->
<g id="edge18" class="edge"><title>Node13&#45;&gt;Node12</title>
<path fill="none" stroke="midnightblue" d="M977.754,-128.931C969.714,-126.658 960.819,-124.439 952.508,-123 729.918,-84.4671 670.352,-108.828 445.508,-87 433.636,-85.8475 420.709,-84.3378 409.078,-82.8851"/>
<polygon fill="midnightblue" stroke="midnightblue" points="409.19,-79.3711 398.827,-81.5788 408.305,-86.315 409.19,-79.3711"/>
</g>
<!-- Node14 -->
<g id="node14" class="node"><title>Node14</title>
<polygon fill="none" stroke="#bfbfbf" points="824.508,-67.5 824.508,-86.5 876.508,-86.5 876.508,-67.5 824.508,-67.5"/>
<text text-anchor="middle" x="850.508" y="-74.5" font-family="Helvetica,sans-Serif" font-size="10.00">memory</text>
</g>
<!-- Node13&#45;&gt;Node14 -->
<g id="edge15" class="edge"><title>Node13&#45;&gt;Node14</title>
<path fill="none" stroke="midnightblue" d="M982.444,-128.975C956.142,-118.813 911.995,-101.756 882.084,-90.1996"/>
<polygon fill="midnightblue" stroke="midnightblue" points="883.121,-86.8483 872.532,-86.5091 880.598,-93.3779 883.121,-86.8483"/>
</g>
<!-- Node15 -->
<g id="node15" class="node"><title>Node15</title>
<polygon fill="none" stroke="#bfbfbf" points="1327.51,-67.5 1327.51,-86.5 1371.51,-86.5 1371.51,-67.5 1327.51,-67.5"/>
<text text-anchor="middle" x="1349.51" y="-74.5" font-family="Helvetica,sans-Serif" font-size="10.00">vector</text>
</g>
<!-- Node13&#45;&gt;Node15 -->
<g id="edge20" class="edge"><title>Node13&#45;&gt;Node15</title>
<path fill="none" stroke="midnightblue" d="M1047.85,-130.025C1118,-117.927 1254.8,-94.3334 1317.15,-83.5805"/>
<polygon fill="midnightblue" stroke="midnightblue" points="1317.94,-86.9967 1327.2,-81.8479 1316.75,-80.0985 1317.94,-86.9967"/>
</g>
<!-- Node16 -->
<g id="node16" class="node"><title>Node16</title>
<g id="a_node16"><a xlink:href="color_8hpp.html" target="_top" xlink:title="color.hpp">
<polygon fill="none" stroke="black" points="932.508,-67.5 932.508,-86.5 988.508,-86.5 988.508,-67.5 932.508,-67.5"/>
<text text-anchor="middle" x="960.508" y="-74.5" font-family="Helvetica,sans-Serif" font-size="10.00">color.hpp</text>
</a>
</g>
</g>
<!-- Node13&#45;&gt;Node16 -->
<g id="edge21" class="edge"><title>Node13&#45;&gt;Node16</title>
<path fill="none" stroke="midnightblue" d="M998.204,-128.975C991.604,-120.05 981.071,-105.807 972.815,-94.6425"/>
<polygon fill="midnightblue" stroke="midnightblue" points="975.561,-92.4684 966.801,-86.5091 969.932,-96.6305 975.561,-92.4684"/>
</g>
<!-- Node16&#45;&gt;Node4 -->
<g id="edge25" class="edge"><title>Node16&#45;&gt;Node4</title>
<path fill="none" stroke="midnightblue" d="M932.507,-69.0581C887.099,-57.8008 797.769,-35.6542 750.881,-24.03"/>
<polygon fill="midnightblue" stroke="midnightblue" points="751.557,-20.5916 741.008,-21.5824 749.872,-27.3859 751.557,-20.5916"/>
</g>
<!-- Node16&#45;&gt;Node11 -->
<g id="edge23" class="edge"><title>Node16&#45;&gt;Node11</title>
<path fill="none" stroke="midnightblue" d="M974.549,-67.4751C990.559,-57.7548 1016.96,-41.7266 1035.88,-30.2372"/>
<polygon fill="midnightblue" stroke="midnightblue" points="1037.76,-33.1907 1044.49,-25.0091 1034.13,-27.2072 1037.76,-33.1907"/>
</g>
<!-- Node17 -->
<g id="node17" class="node"><title>Node17</title>
<polygon fill="none" stroke="#bfbfbf" points="823.508,-6 823.508,-25 869.508,-25 869.508,-6 823.508,-6"/>
<text text-anchor="middle" x="846.508" y="-13" font-family="Helvetica,sans-Serif" font-size="10.00">cctype</text>
</g>
<!-- Node16&#45;&gt;Node17 -->
<g id="edge22" class="edge"><title>Node16&#45;&gt;Node17</title>
<path fill="none" stroke="midnightblue" d="M944.175,-67.4751C925.297,-57.6222 894.002,-41.2883 871.932,-29.7697"/>
<polygon fill="midnightblue" stroke="midnightblue" points="873.296,-26.5333 862.811,-25.0091 870.057,-32.7389 873.296,-26.5333"/>
</g>
<!-- Node18 -->
<g id="node18" class="node"><title>Node18</title>
<polygon fill="none" stroke="#bfbfbf" points="938.008,-6 938.008,-25 983.008,-25 983.008,-6 938.008,-6"/>
<text text-anchor="middle" x="960.508" y="-13" font-family="Helvetica,sans-Serif" font-size="10.00">cstdlib</text>
</g>
<!-- Node16&#45;&gt;Node18 -->
<g id="edge24" class="edge"><title>Node16&#45;&gt;Node18</title>
<path fill="none" stroke="midnightblue" d="M960.508,-67.4751C960.508,-59.0803 960.508,-45.9806 960.508,-35.1631"/>
<polygon fill="midnightblue" stroke="midnightblue" points="964.008,-35.0091 960.508,-25.0091 957.008,-35.0091 964.008,-35.0091"/>
</g>
<!-- Node19&#45;&gt;Node4 -->
<g id="edge31" class="edge"><title>Node19&#45;&gt;Node4</title>
<path fill="none" stroke="midnightblue" d="M699.981,-195.145C637.114,-189.021 526.228,-175.513 492.508,-154 461.844,-134.436 456.461,-121.686 445.508,-87 442.832,-78.5237 439.819,-73.8295 445.508,-67 476.338,-29.9936 624.628,-20.0147 689.74,-17.3983"/>
<polygon fill="midnightblue" stroke="midnightblue" points="689.942,-20.8933 699.806,-17.0264 689.684,-13.8981 689.942,-20.8933"/>
</g>
<!-- Node19&#45;&gt;Node5 -->
<g id="edge30" class="edge"><title>Node19&#45;&gt;Node5</title>
<path fill="none" stroke="midnightblue" d="M699.924,-195.063C642.005,-189.137 545.034,-176.188 517.508,-154 499.869,-139.782 491.443,-114.292 487.571,-96.7812"/>
<polygon fill="midnightblue" stroke="midnightblue" points="490.945,-95.7917 485.633,-86.6252 484.069,-97.1041 490.945,-95.7917"/>
</g>
<!-- Node19&#45;&gt;Node7 -->
<g id="edge32" class="edge"><title>Node19&#45;&gt;Node7</title>
<path fill="none" stroke="midnightblue" d="M789.145,-198.043C919.958,-194.908 1296.12,-183.404 1342.51,-154 1383.34,-128.114 1394.94,-66.6209 1398.22,-35.3946"/>
<polygon fill="midnightblue" stroke="midnightblue" points="1401.74,-35.3104 1399.11,-25.0461 1394.76,-34.7074 1401.74,-35.3104"/>
</g>
<!-- Node19&#45;&gt;Node13 -->
<g id="edge39" class="edge"><title>Node19&#45;&gt;Node13</title>
<path fill="none" stroke="midnightblue" d="M787.702,-190.428C829.891,-181.874 895.841,-168.018 952.508,-154 956.653,-152.975 960.97,-151.855 965.266,-150.707"/>
<polygon fill="midnightblue" stroke="midnightblue" points="966.436,-154.016 975.162,-148.008 964.594,-147.263 966.436,-154.016"/>
</g>
<!-- Node20 -->
<g id="node20" class="node"><title>Node20</title>
<polygon fill="none" stroke="#bfbfbf" points="623.508,-129 623.508,-148 673.508,-148 673.508,-129 623.508,-129"/>
<text text-anchor="middle" x="648.508" y="-136" font-family="Helvetica,sans-Serif" font-size="10.00">iomanip</text>
</g>
<!-- Node19&#45;&gt;Node20 -->
<g id="edge27" class="edge"><title>Node19&#45;&gt;Node20</title>
<path fill="none" stroke="midnightblue" d="M730.754,-190.475C715.142,-180.799 689.445,-164.872 670.926,-153.394"/>
<polygon fill="midnightblue" stroke="midnightblue" points="672.581,-150.302 662.237,-148.009 668.893,-156.252 672.581,-150.302"/>
</g>
<!-- Node21 -->
<g id="node21" class="node"><title>Node21</title>
<polygon fill="none" stroke="#bfbfbf" points="532.508,-67.5 532.508,-86.5 586.508,-86.5 586.508,-67.5 532.508,-67.5"/>
<text text-anchor="middle" x="559.508" y="-74.5" font-family="Helvetica,sans-Serif" font-size="10.00">iostream</text>
</g>
<!-- Node19&#45;&gt;Node21 -->
<g id="edge28" class="edge"><title>Node19&#45;&gt;Node21</title>
<path fill="none" stroke="midnightblue" d="M699.75,-196.249C642.433,-191.683 547.926,-180.291 526.508,-154 511.963,-136.146 528.516,-110.9 542.959,-94.4902"/>
<polygon fill="midnightblue" stroke="midnightblue" points="545.875,-96.4967 550.145,-86.8003 540.76,-91.7177 545.875,-96.4967"/>
</g>
<!-- Node22 -->
<g id="node22" class="node"><title>Node22</title>
<polygon fill="none" stroke="#bfbfbf" points="1141.51,-129 1141.51,-148 1185.51,-148 1185.51,-129 1141.51,-129"/>
<text text-anchor="middle" x="1163.51" y="-136" font-family="Helvetica,sans-Serif" font-size="10.00">mutex</text>
</g>
<!-- Node19&#45;&gt;Node22 -->
<g id="edge29" class="edge"><title>Node19&#45;&gt;Node22</title>
<path fill="none" stroke="midnightblue" d="M789.147,-197.592C861.321,-194.466 1007.66,-184.593 1127.51,-154 1130.02,-153.358 1132.59,-152.582 1135.15,-151.725"/>
<polygon fill="midnightblue" stroke="midnightblue" points="1136.62,-154.913 1144.77,-148.143 1134.18,-148.353 1136.62,-154.913"/>
</g>
<!-- Node23 -->
<g id="node23" class="node"><title>Node23</title>
<polygon fill="none" stroke="#bfbfbf" points="692.008,-123.5 692.008,-153.5 797.008,-153.5 797.008,-123.5 692.008,-123.5"/>
<text text-anchor="start" x="700.008" y="-141.5" font-family="Helvetica,sans-Serif" font-size="10.00">boost/chrono/io/time</text>
<text text-anchor="middle" x="744.508" y="-130.5" font-family="Helvetica,sans-Serif" font-size="10.00">_point_io.hpp</text>
</g>
<!-- Node19&#45;&gt;Node23 -->
<g id="edge33" class="edge"><title>Node19&#45;&gt;Node23</title>
<path fill="none" stroke="midnightblue" d="M744.508,-190.475C744.508,-183.471 744.508,-173.192 744.508,-163.696"/>
<polygon fill="midnightblue" stroke="midnightblue" points="748.008,-163.523 744.508,-153.523 741.008,-163.523 748.008,-163.523"/>
</g>
<!-- Node24 -->
<g id="node24" class="node"><title>Node24</title>
<g id="a_node24"><a xlink:href="multibuf_8hpp.html" target="_top" xlink:title="multibuf.hpp">
<polygon fill="none" stroke="black" points="535.508,-129 535.508,-148 605.508,-148 605.508,-129 535.508,-129"/>
<text text-anchor="middle" x="570.508" y="-136" font-family="Helvetica,sans-Serif" font-size="10.00">multibuf.hpp</text>
</a>
</g>
</g>
<!-- Node19&#45;&gt;Node24 -->
<g id="edge34" class="edge"><title>Node19&#45;&gt;Node24</title>
<path fill="none" stroke="midnightblue" d="M719.578,-190.475C689.473,-180.18 638.676,-162.81 604.87,-151.25"/>
<polygon fill="midnightblue" stroke="midnightblue" points="605.986,-147.933 595.392,-148.009 603.721,-154.556 605.986,-147.933"/>
</g>
<!-- Node19&#45;&gt;Node26 -->
<g id="edge40" class="edge"><title>Node19&#45;&gt;Node26</title>
<path fill="none" stroke="midnightblue" d="M789.104,-196.872C850.513,-192.98 964.014,-182.312 1056.51,-154 1082.82,-145.945 1150.91,-111.017 1188.19,-91.4361"/>
<polygon fill="midnightblue" stroke="midnightblue" points="1190.18,-94.3436 1197.4,-86.5844 1186.92,-88.1512 1190.18,-94.3436"/>
</g>
<!-- Node24&#45;&gt;Node4 -->
<g id="edge38" class="edge"><title>Node24&#45;&gt;Node4</title>
<path fill="none" stroke="midnightblue" d="M591.529,-128.964C611.383,-120.267 641.338,-105.454 663.508,-87 682.142,-71.4899 698.987,-49.1215 709.451,-33.7628"/>
<polygon fill="midnightblue" stroke="midnightblue" points="712.498,-35.5001 715.1,-25.2298 706.662,-31.6359 712.498,-35.5001"/>
</g>
<!-- Node24&#45;&gt;Node15 -->
<g id="edge37" class="edge"><title>Node24&#45;&gt;Node15</title>
<path fill="none" stroke="midnightblue" d="M592.593,-128.967C599.51,-126.636 607.238,-124.377 614.508,-123 895.736,-69.7498 972.125,-108.938 1257.51,-87 1277.25,-85.4822 1299.34,-83.3367 1316.92,-81.5212"/>
<polygon fill="midnightblue" stroke="midnightblue" points="1317.64,-84.9647 1327.22,-80.442 1316.91,-78.0027 1317.64,-84.9647"/>
</g>
<!-- Node24&#45;&gt;Node21 -->
<g id="edge35" class="edge"><title>Node24&#45;&gt;Node21</title>
<path fill="none" stroke="midnightblue" d="M568.932,-128.975C567.38,-120.58 564.958,-107.481 562.958,-96.6631"/>
<polygon fill="midnightblue" stroke="midnightblue" points="566.341,-95.7062 561.081,-86.5091 559.458,-96.9788 566.341,-95.7062"/>
</g>
<!-- Node25 -->
<g id="node25" class="node"><title>Node25</title>
<polygon fill="none" stroke="#bfbfbf" points="604.508,-67.5 604.508,-86.5 654.508,-86.5 654.508,-67.5 604.508,-67.5"/>
<text text-anchor="middle" x="629.508" y="-74.5" font-family="Helvetica,sans-Serif" font-size="10.00">fstream</text>
</g>
<!-- Node24&#45;&gt;Node25 -->
<g id="edge36" class="edge"><title>Node24&#45;&gt;Node25</title>
<path fill="none" stroke="midnightblue" d="M578.961,-128.975C588.074,-119.785 602.778,-104.956 613.984,-93.656"/>
<polygon fill="midnightblue" stroke="midnightblue" points="616.515,-96.0744 621.071,-86.5091 611.544,-91.1455 616.515,-96.0744"/>
</g>
<!-- Node26&#45;&gt;Node4 -->
<g id="edge41" class="edge"><title>Node26&#45;&gt;Node4</title>
<path fill="none" stroke="midnightblue" d="M1178.49,-72.5352C1108.99,-65.5511 948.73,-48.9135 814.508,-31 793.301,-28.1696 769.481,-24.4899 751.126,-21.5456"/>
<polygon fill="midnightblue" stroke="midnightblue" points="751.442,-18.0513 741.011,-19.909 750.324,-24.9614 751.442,-18.0513"/>
</g>
<!-- Node26&#45;&gt;Node7 -->
<g id="edge43" class="edge"><title>Node26&#45;&gt;Node7</title>
<path fill="none" stroke="midnightblue" d="M1240.16,-67.4751C1272.48,-57.1362 1327.11,-39.6611 1363.24,-28.1017"/>
<polygon fill="midnightblue" stroke="midnightblue" points="1364.45,-31.3896 1372.91,-25.0091 1362.32,-24.7224 1364.45,-31.3896"/>
</g>
<!-- Node26&#45;&gt;Node11 -->
<g id="edge42" class="edge"><title>Node26&#45;&gt;Node11</title>
<path fill="none" stroke="midnightblue" d="M1191.3,-67.4751C1164.83,-57.3129 1120.39,-40.2564 1090.29,-28.6996"/>
<polygon fill="midnightblue" stroke="midnightblue" points="1091.26,-25.3254 1080.67,-25.0091 1088.76,-31.8604 1091.26,-25.3254"/>
</g>
<!-- Node27 -->
<g id="node27" class="node"><title>Node27</title>
<polygon fill="none" stroke="#bfbfbf" points="1163.01,-0.5 1163.01,-30.5 1264.01,-30.5 1264.01,-0.5 1163.01,-0.5"/>
<text text-anchor="start" x="1171.01" y="-18.5" font-family="Helvetica,sans-Serif" font-size="10.00">boost/property_tree</text>
<text text-anchor="middle" x="1213.51" y="-7.5" font-family="Helvetica,sans-Serif" font-size="10.00">/ptree.hpp</text>
</g>
<!-- Node26&#45;&gt;Node27 -->
<g id="edge44" class="edge"><title>Node26&#45;&gt;Node27</title>
<path fill="none" stroke="midnightblue" d="M1213.51,-67.4751C1213.51,-60.471 1213.51,-50.1919 1213.51,-40.6956"/>
<polygon fill="midnightblue" stroke="midnightblue" points="1217.01,-40.5229 1213.51,-30.523 1210.01,-40.523 1217.01,-40.5229"/>
</g>
<!-- Node28&#45;&gt;Node7 -->
<g id="edge46" class="edge"><title>Node28&#45;&gt;Node7</title>
<path fill="none" stroke="midnightblue" d="M1362.72,-246.414C1379.36,-239.445 1399.57,-227.809 1409.51,-210 1441.31,-153.038 1419.19,-71.3298 1406.59,-35.0602"/>
<polygon fill="midnightblue" stroke="midnightblue" points="1409.77,-33.5435 1403.06,-25.3406 1403.19,-35.9347 1409.77,-33.5435"/>
</g>
<!-- Node29 -->
<g id="node29" class="node"><title>Node29</title>
<g id="a_node29"><a xlink:href="user__group_8hpp.html" target="_top" xlink:title="user_group.hpp">
<polygon fill="none" stroke="black" points="1318.01,-190.5 1318.01,-209.5 1401.01,-209.5 1401.01,-190.5 1318.01,-190.5"/>
<text text-anchor="middle" x="1359.51" y="-197.5" font-family="Helvetica,sans-Serif" font-size="10.00">user_group.hpp</text>
</a>
</g>
</g>
<!-- Node28&#45;&gt;Node29 -->
<g id="edge47" class="edge"><title>Node28&#45;&gt;Node29</title>
<path fill="none" stroke="midnightblue" d="M1340.31,-246.083C1343.42,-238.77 1347.93,-228.181 1351.8,-219.103"/>
<polygon fill="midnightblue" stroke="midnightblue" points="1355.08,-220.323 1355.78,-209.751 1348.64,-217.58 1355.08,-220.323"/>
</g>
<!-- Node29&#45;&gt;Node15 -->
<g id="edge48" class="edge"><title>Node29&#45;&gt;Node15</title>
<path fill="none" stroke="midnightblue" d="M1358.79,-190.298C1357.18,-170.85 1353.27,-123.49 1351.07,-96.9036"/>
<polygon fill="midnightblue" stroke="midnightblue" points="1354.53,-96.3009 1350.22,-86.6232 1347.56,-96.8775 1354.53,-96.3009"/>
</g>
<!-- Node30 -->
<g id="node30" class="node"><title>Node30</title>
<g id="a_node30"><a xlink:href="user_8hpp.html" target="_top" xlink:title="user.hpp">
<polygon fill="none" stroke="black" points="1279.51,-129 1279.51,-148 1333.51,-148 1333.51,-129 1279.51,-129"/>
<text text-anchor="middle" x="1306.51" y="-136" font-family="Helvetica,sans-Serif" font-size="10.00">user.hpp</text>
</a>
</g>
</g>
<!-- Node29&#45;&gt;Node30 -->
<g id="edge49" class="edge"><title>Node29&#45;&gt;Node30</title>
<path fill="none" stroke="midnightblue" d="M1351.91,-190.475C1343.81,-181.373 1330.77,-166.741 1320.75,-155.483"/>
<polygon fill="midnightblue" stroke="midnightblue" points="1323.35,-153.148 1314.09,-148.009 1318.13,-157.804 1323.35,-153.148"/>
</g>
<!-- Node30&#45;&gt;Node4 -->
<g id="edge50" class="edge"><title>Node30&#45;&gt;Node4</title>
<path fill="none" stroke="midnightblue" d="M1279.31,-133.978C1192.55,-122.735 927.783,-88.3588 923.508,-87 905.32,-81.2181 903.155,-74.2691 885.508,-67 840.018,-48.2616 784.989,-32.7825 751.381,-24.0923"/>
<polygon fill="midnightblue" stroke="midnightblue" points="751.816,-20.5913 741.261,-21.5139 750.087,-27.3746 751.816,-20.5913"/>
</g>
<!-- Node30&#45;&gt;Node7 -->
<g id="edge52" class="edge"><title>Node30&#45;&gt;Node7</title>
<path fill="none" stroke="midnightblue" d="M1305.82,-128.871C1305.14,-114.704 1305.64,-86.1767 1318.51,-67 1330.04,-49.8156 1349.59,-37.38 1366.6,-29.1492"/>
<polygon fill="midnightblue" stroke="midnightblue" points="1368.06,-32.3289 1375.72,-25.0057 1365.17,-25.9559 1368.06,-32.3289"/>
</g>
<!-- Node30&#45;&gt;Node15 -->
<g id="edge51" class="edge"><title>Node30&#45;&gt;Node15</title>
<path fill="none" stroke="midnightblue" d="M1312.67,-128.975C1319.12,-120.05 1329.41,-105.807 1337.48,-94.6425"/>
<polygon fill="midnightblue" stroke="midnightblue" points="1340.34,-96.6642 1343.36,-86.5091 1334.66,-92.564 1340.34,-96.6642"/>
</g>
<!-- Node30&#45;&gt;Node26 -->
<g id="edge53" class="edge"><title>Node30&#45;&gt;Node26</title>
<path fill="none" stroke="midnightblue" d="M1293.18,-128.975C1278.13,-119.343 1253.39,-103.517 1235.47,-92.0517"/>
<polygon fill="midnightblue" stroke="midnightblue" points="1237.12,-88.9501 1226.81,-86.5091 1233.35,-94.8466 1237.12,-88.9501"/>
</g>
<!-- Node31&#45;&gt;Node30 -->
<g id="edge55" class="edge"><title>Node31&#45;&gt;Node30</title>
<path fill="none" stroke="midnightblue" d="M1103.97,-246.319C1141.95,-226.286 1235.93,-176.722 1281.26,-152.816"/>
<polygon fill="midnightblue" stroke="midnightblue" points="1282.94,-155.885 1290.16,-148.124 1279.68,-149.694 1282.94,-155.885"/>
</g>
<!-- Node32 -->
<g id="node32" class="node"><title>Node32</title>
<polygon fill="none" stroke="#bfbfbf" points="1073.01,-190.5 1073.01,-209.5 1102.01,-209.5 1102.01,-190.5 1073.01,-190.5"/>
<text text-anchor="middle" x="1087.51" y="-197.5" font-family="Helvetica,sans-Serif" font-size="10.00">list</text>
</g>
<!-- Node31&#45;&gt;Node32 -->
<g id="edge56" class="edge"><title>Node31&#45;&gt;Node32</title>
<path fill="none" stroke="midnightblue" d="M1087.51,-246.083C1087.51,-239.006 1087.51,-228.861 1087.51,-219.986"/>
<polygon fill="midnightblue" stroke="midnightblue" points="1091.01,-219.751 1087.51,-209.751 1084.01,-219.751 1091.01,-219.751"/>
</g>
<!-- Node33&#45;&gt;Node4 -->
<g id="edge64" class="edge"><title>Node33&#45;&gt;Node4</title>
<path fill="none" stroke="midnightblue" d="M204.317,-128.954C168.141,-116.974 114.078,-93.6422 138.508,-67 176.026,-26.0854 575.052,-18.217 689.803,-16.7962"/>
<polygon fill="midnightblue" stroke="midnightblue" points="690.041,-20.2938 699.999,-16.678 689.959,-13.2943 690.041,-20.2938"/>
</g>
<!-- Node33&#45;&gt;Node6 -->
<g id="edge65" class="edge"><title>Node33&#45;&gt;Node6</title>
<path fill="none" stroke="midnightblue" d="M208.721,-128.975C178.917,-118.725 128.717,-101.459 95.1063,-89.8994"/>
<polygon fill="midnightblue" stroke="midnightblue" points="95.8435,-86.4518 85.2488,-86.5091 93.5668,-93.0712 95.8435,-86.4518"/>
</g>
<!-- Node33&#45;&gt;Node12 -->
<g id="edge63" class="edge"><title>Node33&#45;&gt;Node12</title>
<path fill="none" stroke="midnightblue" d="M253.423,-128.975C276.957,-118.901 316.318,-102.053 343.301,-90.5023"/>
<polygon fill="midnightblue" stroke="midnightblue" points="344.814,-93.662 352.63,-86.5091 342.059,-87.2267 344.814,-93.662"/>
</g>
<!-- Node34 -->
<g id="node34" class="node"><title>Node34</title>
<polygon fill="none" stroke="#bfbfbf" points="272.508,-67.5 272.508,-86.5 328.508,-86.5 328.508,-67.5 272.508,-67.5"/>
<text text-anchor="middle" x="300.508" y="-74.5" font-family="Helvetica,sans-Serif" font-size="10.00">algorithm</text>
</g>
<!-- Node33&#45;&gt;Node34 -->
<g id="edge60" class="edge"><title>Node33&#45;&gt;Node34</title>
<path fill="none" stroke="midnightblue" d="M243.108,-128.975C253.556,-119.697 270.476,-104.671 283.245,-93.331"/>
<polygon fill="midnightblue" stroke="midnightblue" points="285.773,-95.7663 290.926,-86.5091 281.125,-90.5323 285.773,-95.7663"/>
</g>
<!-- Node35 -->
<g id="node35" class="node"><title>Node35</title>
<polygon fill="none" stroke="#bfbfbf" points="148.008,-67.5 148.008,-86.5 195.008,-86.5 195.008,-67.5 148.008,-67.5"/>
<text text-anchor="middle" x="171.508" y="-74.5" font-family="Helvetica,sans-Serif" font-size="10.00">iterator</text>
</g>
<!-- Node33&#45;&gt;Node35 -->
<g id="edge61" class="edge"><title>Node33&#45;&gt;Node35</title>
<path fill="none" stroke="midnightblue" d="M224.625,-128.975C215.049,-119.785 199.597,-104.956 187.822,-93.656"/>
<polygon fill="midnightblue" stroke="midnightblue" points="190.013,-90.908 180.375,-86.5091 185.166,-95.9585 190.013,-90.908"/>
</g>
<!-- Node36 -->
<g id="node36" class="node"><title>Node36</title>
<polygon fill="none" stroke="#bfbfbf" points="213.008,-67.5 213.008,-86.5 254.008,-86.5 254.008,-67.5 213.008,-67.5"/>
<text text-anchor="middle" x="233.508" y="-74.5" font-family="Helvetica,sans-Serif" font-size="10.00">regex</text>
</g>
<!-- Node33&#45;&gt;Node36 -->
<g id="edge62" class="edge"><title>Node33&#45;&gt;Node36</title>
<path fill="none" stroke="midnightblue" d="M233.508,-128.975C233.508,-120.58 233.508,-107.481 233.508,-96.6631"/>
<polygon fill="midnightblue" stroke="midnightblue" points="237.008,-96.5091 233.508,-86.5091 230.008,-96.5091 237.008,-96.5091"/>
</g>
<!-- Node37&#45;&gt;Node7 -->
<g id="edge72" class="edge"><title>Node37&#45;&gt;Node7</title>
<path fill="none" stroke="midnightblue" d="M1464.56,-363.869C1529.07,-358.226 1652.49,-344.769 1689.51,-322 1720.1,-303.184 1737.51,-292.912 1737.51,-257 1737.51,-257 1737.51,-257 1737.51,-137.5 1737.51,-95.7737 1711.82,-87.5595 1675.51,-67 1604.93,-27.0367 1509.41,-17.6952 1451.24,-16.0479"/>
<polygon fill="midnightblue" stroke="midnightblue" points="1451.26,-12.5475 1441.18,-15.8294 1451.1,-19.5458 1451.26,-12.5475"/>
</g>
<!-- Node37&#45;&gt;Node8 -->
<g id="edge80" class="edge"><title>Node37&#45;&gt;Node8</title>
<path fill="none" stroke="midnightblue" d="M1384.48,-362.208C1307.84,-353.03 1139.46,-332.87 1043.71,-321.406"/>
<polygon fill="midnightblue" stroke="midnightblue" points="1043.89,-317.902 1033.54,-320.188 1043.05,-324.852 1043.89,-317.902"/>
</g>
<!-- Node37&#45;&gt;Node9 -->
<g id="edge67" class="edge"><title>Node37&#45;&gt;Node9</title>
<path fill="none" stroke="midnightblue" d="M1425.09,-358.161C1425.94,-345.648 1427.62,-322.058 1429.51,-302 1430.32,-293.383 1431.36,-283.853 1432.28,-275.791"/>
<polygon fill="midnightblue" stroke="midnightblue" points="1435.78,-275.956 1433.46,-265.618 1428.83,-275.145 1435.78,-275.956"/>
</g>
<!-- Node37&#45;&gt;Node22 -->
<g id="edge69" class="edge"><title>Node37&#45;&gt;Node22</title>
<path fill="none" stroke="midnightblue" d="M1384.35,-367.545C1342.89,-365.994 1278.63,-357.405 1237.51,-322 1187.03,-278.534 1170.52,-195.513 1165.52,-158.327"/>
<polygon fill="midnightblue" stroke="midnightblue" points="1168.99,-157.859 1164.31,-148.353 1162.04,-158.702 1168.99,-157.859"/>
</g>
<!-- Node37&#45;&gt;Node26 -->
<g id="edge79" class="edge"><title>Node37&#45;&gt;Node26</title>
<path fill="none" stroke="midnightblue" d="M1384.38,-359.839C1333.28,-348.143 1251.51,-319.642 1251.51,-257 1251.51,-257 1251.51,-257 1251.51,-199 1251.51,-160.812 1234.07,-118.83 1222.82,-95.7224"/>
<polygon fill="midnightblue" stroke="midnightblue" points="1225.8,-93.8646 1218.17,-86.5153 1219.55,-97.0195 1225.8,-93.8646"/>
</g>
<!-- Node38 -->
<g id="node38" class="node"><title>Node38</title>
<polygon fill="none" stroke="#bfbfbf" points="1476.01,-246.5 1476.01,-265.5 1571.01,-265.5 1571.01,-246.5 1476.01,-246.5"/>
<text text-anchor="middle" x="1523.51" y="-253.5" font-family="Helvetica,sans-Serif" font-size="10.00">condition_variable</text>
</g>
<!-- Node37&#45;&gt;Node38 -->
<g id="edge68" class="edge"><title>Node37&#45;&gt;Node38</title>
<path fill="none" stroke="midnightblue" d="M1428.21,-358.282C1434.11,-345.083 1446.61,-319.694 1462.51,-302 1473.3,-289.988 1487.77,-279.152 1499.9,-271.124"/>
<polygon fill="midnightblue" stroke="midnightblue" points="1502.08,-273.888 1508.63,-265.56 1498.31,-267.986 1502.08,-273.888"/>
</g>
<!-- Node39 -->
<g id="node39" class="node"><title>Node39</title>
<polygon fill="none" stroke="#bfbfbf" points="1666.01,-246.5 1666.01,-265.5 1709.01,-265.5 1709.01,-246.5 1666.01,-246.5"/>
<text text-anchor="middle" x="1687.51" y="-253.5" font-family="Helvetica,sans-Serif" font-size="10.00">queue</text>
</g>
<!-- Node37&#45;&gt;Node39 -->
<g id="edge70" class="edge"><title>Node37&#45;&gt;Node39</title>
<path fill="none" stroke="midnightblue" d="M1464.57,-364.626C1525.91,-360.185 1639.09,-348.557 1668.51,-322 1681.44,-310.322 1685.77,-290.378 1687.12,-275.654"/>
<polygon fill="midnightblue" stroke="midnightblue" points="1690.61,-275.81 1687.66,-265.635 1683.63,-275.43 1690.61,-275.81"/>
</g>
<!-- Node40 -->
<g id="node40" class="node"><title>Node40</title>
<polygon fill="none" stroke="#bfbfbf" points="1615.51,-302.5 1615.51,-321.5 1659.51,-321.5 1659.51,-302.5 1615.51,-302.5"/>
<text text-anchor="middle" x="1637.51" y="-309.5" font-family="Helvetica,sans-Serif" font-size="10.00">thread</text>
</g>
<!-- Node37&#45;&gt;Node40 -->
<g id="edge71" class="edge"><title>Node37&#45;&gt;Node40</title>
<path fill="none" stroke="midnightblue" d="M1460.88,-358.462C1495.68,-350.191 1549.88,-337.049 1605.52,-322.192"/>
<polygon fill="midnightblue" stroke="midnightblue" points="1606.44,-325.569 1615.19,-319.596 1604.62,-318.809 1606.44,-325.569"/>
</g>
<!-- Node41 -->
<g id="node41" class="node"><title>Node41</title>
<g id="a_node41"><a xlink:href="concurrent__container_8hpp.html" target="_top" xlink:title="concurrent_container.hpp">
<polygon fill="none" stroke="black" points="1471.51,-302.5 1471.51,-321.5 1597.51,-321.5 1597.51,-302.5 1471.51,-302.5"/>
<text text-anchor="middle" x="1534.51" y="-309.5" font-family="Helvetica,sans-Serif" font-size="10.00">concurrent_container.hpp</text>
</a>
</g>
</g>
<!-- Node37&#45;&gt;Node41 -->
<g id="edge73" class="edge"><title>Node37&#45;&gt;Node41</title>
<path fill="none" stroke="midnightblue" d="M1442.18,-358.324C1459.9,-349.625 1487.41,-336.12 1507.8,-326.113"/>
<polygon fill="midnightblue" stroke="midnightblue" points="1509.44,-329.203 1516.88,-321.655 1506.36,-322.919 1509.44,-329.203"/>
</g>
<!-- Node41&#45;&gt;Node3 -->
<g id="edge76" class="edge"><title>Node41&#45;&gt;Node3</title>
<path fill="none" stroke="midnightblue" d="M1562.44,-302.365C1580.02,-295.423 1601.57,-283.838 1613.51,-266 1648.86,-213.204 1644.53,-133.089 1640.28,-96.9087"/>
<polygon fill="midnightblue" stroke="midnightblue" points="1643.72,-96.2541 1638.95,-86.7958 1636.78,-97.1669 1643.72,-96.2541"/>
</g>
<!-- Node41&#45;&gt;Node9 -->
<g id="edge74" class="edge"><title>Node41&#45;&gt;Node9</title>
<path fill="none" stroke="midnightblue" d="M1518.44,-302.324C1502.55,-293.743 1478,-280.486 1459.55,-270.522"/>
<polygon fill="midnightblue" stroke="midnightblue" points="1461,-267.326 1450.53,-265.655 1457.67,-273.486 1461,-267.326"/>
</g>
<!-- Node41&#45;&gt;Node15 -->
<g id="edge78" class="edge"><title>Node41&#45;&gt;Node15</title>
<path fill="none" stroke="midnightblue" d="M1547.86,-302.438C1564.79,-290.441 1590.51,-267.66 1579.51,-246 1537.54,-163.371 1433.74,-111.683 1381.15,-89.9201"/>
<polygon fill="midnightblue" stroke="midnightblue" points="1382.23,-86.5824 1371.64,-86.0849 1379.61,-93.0736 1382.23,-86.5824"/>
</g>
<!-- Node41&#45;&gt;Node38 -->
<g id="edge75" class="edge"><title>Node41&#45;&gt;Node38</title>
<path fill="none" stroke="midnightblue" d="M1532.69,-302.083C1531.23,-294.927 1529.14,-284.635 1527.32,-275.691"/>
<polygon fill="midnightblue" stroke="midnightblue" points="1530.72,-274.851 1525.29,-265.751 1523.86,-276.248 1530.72,-274.851"/>
</g>
<!-- Node41&#45;&gt;Node39 -->
<g id="edge77" class="edge"><title>Node41&#45;&gt;Node39</title>
<path fill="none" stroke="midnightblue" d="M1558.75,-302.444C1585.13,-293.133 1627.4,-278.216 1656.25,-268.032"/>
<polygon fill="midnightblue" stroke="midnightblue" points="1657.59,-271.272 1665.85,-264.643 1655.26,-264.671 1657.59,-271.272"/>
</g>
<!-- Node43&#45;&gt;Node4 -->
<g id="edge85" class="edge"><title>Node43&#45;&gt;Node4</title>
<path fill="none" stroke="midnightblue" d="M826.75,-128.995C798.991,-122.012 766.294,-109.446 744.508,-87 730.885,-72.9644 724.982,-50.8978 722.432,-35.1932"/>
<polygon fill="midnightblue" stroke="midnightblue" points="725.877,-34.5474 721.105,-25.0882 718.937,-35.4587 725.877,-34.5474"/>
</g>
<!-- Node43&#45;&gt;Node17 -->
<g id="edge84" class="edge"><title>Node43&#45;&gt;Node17</title>
<path fill="none" stroke="midnightblue" d="M861.049,-128.853C845.695,-120.532 824.892,-106.359 815.508,-87 806.635,-68.6952 819.257,-47.2475 830.96,-32.8576"/>
<polygon fill="midnightblue" stroke="midnightblue" points="833.636,-35.1136 837.574,-25.2777 828.362,-30.5111 833.636,-35.1136"/>
</g>
<!-- Node43&#45;&gt;Node34 -->
<g id="edge83" class="edge"><title>Node43&#45;&gt;Node34</title>
<path fill="none" stroke="midnightblue" d="M840.478,-128.967C829.235,-126.75 816.924,-124.552 805.508,-123 602.025,-95.3341 545.298,-118.996 338.649,-86.9238"/>
<polygon fill="midnightblue" stroke="midnightblue" points="339.118,-83.4545 328.695,-85.354 338.027,-90.369 339.118,-83.4545"/>
</g>
</g>
</svg>
