<?xml version="1.0" encoding="UTF-8" standalone="no"?>
<!DOCTYPE svg PUBLIC "-//W3C//DTD SVG 1.1//EN"
 "http://www.w3.org/Graphics/SVG/1.1/DTD/svg11.dtd">
<!-- Generated by graphviz version 2.38.0 (20140413.2041)
 -->
<!-- Title: src/handler/ctcp.cpp Pages: 1 -->
<svg width="1841pt" height="498pt"
 viewBox="0.00 0.00 1841.00 498.00" xmlns="http://www.w3.org/2000/svg" xmlns:xlink="http://www.w3.org/1999/xlink">
<g id="graph0" class="graph" transform="scale(1 1) rotate(0) translate(4 494)">
<title>src/handler/ctcp.cpp</title>
<!-- Node1 -->
<g id="node1" class="node"><title>Node1</title>
<polygon fill="#bfbfbf" stroke="black" points="640.5,-470.5 640.5,-489.5 745.5,-489.5 745.5,-470.5 640.5,-470.5"/>
<text text-anchor="middle" x="693" y="-477.5" font-family="Helvetica,sans-Serif" font-size="10.00">src/handler/ctcp.cpp</text>
</g>
<!-- Node2 -->
<g id="node2" class="node"><title>Node2</title>
<g id="a_node2"><a xlink:href="handler_8hpp.html" target="_top" xlink:title="handler.hpp">
<polygon fill="none" stroke="black" points="659.5,-414.5 659.5,-433.5 726.5,-433.5 726.5,-414.5 659.5,-414.5"/>
<text text-anchor="middle" x="693" y="-421.5" font-family="Helvetica,sans-Serif" font-size="10.00">handler.hpp</text>
</a>
</g>
</g>
<!-- Node1&#45;&gt;Node2 -->
<g id="edge1" class="edge"><title>Node1&#45;&gt;Node2</title>
<path fill="none" stroke="midnightblue" d="M693,-470.083C693,-463.006 693,-452.861 693,-443.986"/>
<polygon fill="midnightblue" stroke="midnightblue" points="696.5,-443.751 693,-433.751 689.5,-443.751 696.5,-443.751"/>
</g>
<!-- Node43 -->
<g id="node43" class="node"><title>Node43</title>
<g id="a_node43"><a xlink:href="config_8hpp.html" target="_top" xlink:title="config.hpp">
<polygon fill="none" stroke="black" points="745,-414.5 745,-433.5 807,-433.5 807,-414.5 745,-414.5"/>
<text text-anchor="middle" x="776" y="-421.5" font-family="Helvetica,sans-Serif" font-size="10.00">config.hpp</text>
</a>
</g>
</g>
<!-- Node1&#45;&gt;Node43 -->
<g id="edge85" class="edge"><title>Node1&#45;&gt;Node43</title>
<path fill="none" stroke="midnightblue" d="M706.335,-470.324C719.162,-461.979 738.785,-449.212 753.94,-439.352"/>
<polygon fill="midnightblue" stroke="midnightblue" points="756.224,-442.042 762.698,-433.655 752.407,-436.174 756.224,-442.042"/>
</g>
<!-- Node44 -->
<g id="node44" class="node"><title>Node44</title>
<g id="a_node44"><a xlink:href="irc__functions_8hpp.html" target="_top" xlink:title="network/irc_functions.hpp">
<polygon fill="none" stroke="black" points="0,-129 0,-148 128,-148 128,-129 0,-129"/>
<text text-anchor="middle" x="64" y="-136" font-family="Helvetica,sans-Serif" font-size="10.00">network/irc_functions.hpp</text>
</a>
</g>
</g>
<!-- Node1&#45;&gt;Node44 -->
<g id="edge86" class="edge"><title>Node1&#45;&gt;Node44</title>
<path fill="none" stroke="midnightblue" d="M640.367,-474.917C493.686,-462.838 91,-424.612 91,-369 91,-369 91,-369 91,-255 91,-219.783 78.9509,-180.075 70.951,-157.592"/>
<polygon fill="midnightblue" stroke="midnightblue" points="74.1684,-156.201 67.4196,-148.033 67.6022,-158.627 74.1684,-156.201"/>
</g>
<!-- Node3 -->
<g id="node3" class="node"><title>Node3</title>
<polygon fill="none" stroke="#bfbfbf" points="1517.5,-67.5 1517.5,-86.5 1576.5,-86.5 1576.5,-67.5 1517.5,-67.5"/>
<text text-anchor="middle" x="1547" y="-74.5" font-family="Helvetica,sans-Serif" font-size="10.00">functional</text>
</g>
<!-- Node2&#45;&gt;Node3 -->
<g id="edge2" class="edge"><title>Node2&#45;&gt;Node3</title>
<path fill="none" stroke="midnightblue" d="M726.725,-415.49C729.851,-414.93 732.978,-414.421 736,-414 960.617,-382.698 1019.21,-399.227 1245,-378 1457.52,-358.02 1510.07,-347.504 1722,-322 1754.46,-318.094 1795,-345.69 1795,-313 1795,-313 1795,-313 1795,-199 1795,-107.637 1657.37,-85.2466 1587.17,-79.7686"/>
<polygon fill="midnightblue" stroke="midnightblue" points="1587.13,-76.258 1576.91,-79.0516 1586.65,-83.2409 1587.13,-76.258"/>
</g>
<!-- Node4 -->
<g id="node4" class="node"><title>Node4</title>
<polygon fill="none" stroke="#bfbfbf" points="730.5,-6 730.5,-25 771.5,-25 771.5,-6 730.5,-6"/>
<text text-anchor="middle" x="751" y="-13" font-family="Helvetica,sans-Serif" font-size="10.00">string</text>
</g>
<!-- Node2&#45;&gt;Node4 -->
<g id="edge3" class="edge"><title>Node2&#45;&gt;Node4</title>
<path fill="none" stroke="midnightblue" d="M659.408,-423.308C541.846,-423.498 156,-416.254 156,-313 156,-313 156,-313 156,-199 156,-140.318 118.82,-109.768 159,-67 178.413,-46.3369 601.229,-23.9133 720.138,-17.9978"/>
<polygon fill="midnightblue" stroke="midnightblue" points="720.55,-21.4819 730.365,-17.4926 720.204,-14.4904 720.55,-21.4819"/>
</g>
<!-- Node5 -->
<g id="node5" class="node"><title>Node5</title>
<polygon fill="none" stroke="#bfbfbf" points="485.5,-67.5 485.5,-86.5 544.5,-86.5 544.5,-67.5 485.5,-67.5"/>
<text text-anchor="middle" x="515" y="-74.5" font-family="Helvetica,sans-Serif" font-size="10.00">stdexcept</text>
</g>
<!-- Node2&#45;&gt;Node5 -->
<g id="edge4" class="edge"><title>Node2&#45;&gt;Node5</title>
<path fill="none" stroke="midnightblue" d="M659.295,-422.319C593.864,-419.023 456,-401.569 456,-313 456,-313 456,-313 456,-199 456,-158.148 483.507,-116.671 500.957,-94.4689"/>
<polygon fill="midnightblue" stroke="midnightblue" points="503.688,-96.6577 507.287,-86.6927 498.259,-92.2387 503.688,-96.6577"/>
</g>
<!-- Node6 -->
<g id="node6" class="node"><title>Node6</title>
<polygon fill="none" stroke="#bfbfbf" points="242,-67.5 242,-86.5 304,-86.5 304,-67.5 242,-67.5"/>
<text text-anchor="middle" x="273" y="-74.5" font-family="Helvetica,sans-Serif" font-size="10.00">type_traits</text>
</g>
<!-- Node2&#45;&gt;Node6 -->
<g id="edge5" class="edge"><title>Node2&#45;&gt;Node6</title>
<path fill="none" stroke="midnightblue" d="M659.296,-421.509C558.774,-416.155 268,-393.694 268,-313 268,-313 268,-313 268,-199 268,-162.683 270.276,-120.286 271.757,-96.5491"/>
<polygon fill="midnightblue" stroke="midnightblue" points="275.254,-96.7086 272.407,-86.5036 268.269,-96.2568 275.254,-96.7086"/>
</g>
<!-- Node7 -->
<g id="node7" class="node"><title>Node7</title>
<polygon fill="none" stroke="#bfbfbf" points="1409.5,-6 1409.5,-25 1492.5,-25 1492.5,-6 1409.5,-6"/>
<text text-anchor="middle" x="1451" y="-13" font-family="Helvetica,sans-Serif" font-size="10.00">unordered_map</text>
</g>
<!-- Node2&#45;&gt;Node7 -->
<g id="edge6" class="edge"><title>Node2&#45;&gt;Node7</title>
<path fill="none" stroke="midnightblue" d="M726.72,-415.451C729.847,-414.899 732.976,-414.403 736,-414 1007.41,-377.855 1078.44,-404.027 1351,-378 1539.34,-360.015 1585.66,-348.478 1773,-322 1799.7,-318.226 1833,-339.965 1833,-313 1833,-313 1833,-313 1833,-137.5 1833,-68.9968 1606.92,-34.2819 1502.61,-21.9105"/>
<polygon fill="midnightblue" stroke="midnightblue" points="1502.94,-18.4259 1492.61,-20.7485 1502.14,-25.3791 1502.94,-18.4259"/>
</g>
<!-- Node8 -->
<g id="node8" class="node"><title>Node8</title>
<g id="a_node8"><a xlink:href="connection_8hpp.html" target="_top" xlink:title="network/connection.hpp">
<polygon fill="none" stroke="black" points="986,-302.5 986,-321.5 1106,-321.5 1106,-302.5 986,-302.5"/>
<text text-anchor="middle" x="1046" y="-309.5" font-family="Helvetica,sans-Serif" font-size="10.00">network/connection.hpp</text>
</a>
</g>
</g>
<!-- Node2&#45;&gt;Node8 -->
<g id="edge7" class="edge"><title>Node2&#45;&gt;Node8</title>
<path fill="none" stroke="midnightblue" d="M720.406,-414.46C783.091,-394.926 937.011,-346.963 1008.45,-324.702"/>
<polygon fill="midnightblue" stroke="midnightblue" points="1009.86,-327.927 1018.37,-321.61 1007.78,-321.244 1009.86,-327.927"/>
</g>
<!-- Node19 -->
<g id="node19" class="node"><title>Node19</title>
<g id="a_node19"><a xlink:href="logger_8hpp.html" target="_top" xlink:title="string/logger.hpp">
<polygon fill="none" stroke="black" points="724.5,-190.5 724.5,-209.5 813.5,-209.5 813.5,-190.5 724.5,-190.5"/>
<text text-anchor="middle" x="769" y="-197.5" font-family="Helvetica,sans-Serif" font-size="10.00">string/logger.hpp</text>
</a>
</g>
</g>
<!-- Node2&#45;&gt;Node19 -->
<g id="edge66" class="edge"><title>Node2&#45;&gt;Node19</title>
<path fill="none" stroke="midnightblue" d="M695.979,-414.297C707.209,-381.494 747.13,-264.884 762.709,-219.377"/>
<polygon fill="midnightblue" stroke="midnightblue" points="766.031,-220.478 765.959,-209.884 759.408,-218.211 766.031,-220.478"/>
</g>
<!-- Node26 -->
<g id="node26" class="node"><title>Node26</title>
<g id="a_node26"><a xlink:href="settings_8hpp.html" target="_top" xlink:title="settings.hpp">
<polygon fill="none" stroke="black" points="849,-67.5 849,-86.5 919,-86.5 919,-67.5 849,-67.5"/>
<text text-anchor="middle" x="884" y="-74.5" font-family="Helvetica,sans-Serif" font-size="10.00">settings.hpp</text>
</a>
</g>
</g>
<!-- Node2&#45;&gt;Node26 -->
<g id="edge65" class="edge"><title>Node2&#45;&gt;Node26</title>
<path fill="none" stroke="midnightblue" d="M690.447,-414.332C679.498,-375.208 640.368,-213.08 715,-123 730.68,-104.075 794.113,-91.0896 838.632,-84.1001"/>
<polygon fill="midnightblue" stroke="midnightblue" points="839.299,-87.539 848.659,-82.576 838.247,-80.6185 839.299,-87.539"/>
</g>
<!-- Node28 -->
<g id="node28" class="node"><title>Node28</title>
<g id="a_node28"><a xlink:href="string__functions_8hpp.html" target="_top" xlink:title="string/string_functions.hpp">
<polygon fill="none" stroke="black" points="296.5,-129 296.5,-148 427.5,-148 427.5,-129 296.5,-129"/>
<text text-anchor="middle" x="362" y="-136" font-family="Helvetica,sans-Serif" font-size="10.00">string/string_functions.hpp</text>
</a>
</g>
</g>
<!-- Node2&#45;&gt;Node28 -->
<g id="edge67" class="edge"><title>Node2&#45;&gt;Node28</title>
<path fill="none" stroke="midnightblue" d="M659.231,-419.904C599.534,-413.952 478.239,-399.562 442,-378 410.206,-359.083 390,-349.996 390,-313 390,-313 390,-313 390,-255 390,-219.715 377.505,-180.029 369.208,-157.569"/>
<polygon fill="midnightblue" stroke="midnightblue" points="372.395,-156.105 365.546,-148.021 365.86,-158.612 372.395,-156.105"/>
</g>
<!-- Node37 -->
<g id="node37" class="node"><title>Node37</title>
<g id="a_node37"><a xlink:href="melanobot_8hpp.html" target="_top" xlink:title="melanobot.hpp">
<polygon fill="none" stroke="black" points="1156,-358.5 1156,-377.5 1236,-377.5 1236,-358.5 1156,-358.5"/>
<text text-anchor="middle" x="1196" y="-365.5" font-family="Helvetica,sans-Serif" font-size="10.00">melanobot.hpp</text>
</a>
</g>
</g>
<!-- Node2&#45;&gt;Node37 -->
<g id="edge68" class="edge"><title>Node2&#45;&gt;Node37</title>
<path fill="none" stroke="midnightblue" d="M726.738,-415.577C729.861,-414.999 732.984,-414.462 736,-414 884.097,-391.326 1060.86,-377.789 1145.7,-372.122"/>
<polygon fill="midnightblue" stroke="midnightblue" points="1146.07,-375.605 1155.82,-371.454 1145.61,-368.62 1146.07,-375.605"/>
</g>
<!-- Node9 -->
<g id="node9" class="node"><title>Node9</title>
<polygon fill="none" stroke="#bfbfbf" points="1432,-246.5 1432,-265.5 1478,-265.5 1478,-246.5 1432,-246.5"/>
<text text-anchor="middle" x="1455" y="-253.5" font-family="Helvetica,sans-Serif" font-size="10.00">atomic</text>
</g>
<!-- Node8&#45;&gt;Node9 -->
<g id="edge8" class="edge"><title>Node8&#45;&gt;Node9</title>
<path fill="none" stroke="midnightblue" d="M1106.2,-303.1C1109.18,-302.725 1112.12,-302.356 1115,-302 1248.14,-285.511 1285.4,-291.83 1421.68,-265.761"/>
<polygon fill="midnightblue" stroke="midnightblue" points="1422.51,-269.165 1431.67,-263.828 1421.18,-262.293 1422.51,-269.165"/>
</g>
<!-- Node10 -->
<g id="node10" class="node"><title>Node10</title>
<polygon fill="none" stroke="#bfbfbf" points="946,-246.5 946,-265.5 992,-265.5 992,-246.5 946,-246.5"/>
<text text-anchor="middle" x="969" y="-253.5" font-family="Helvetica,sans-Serif" font-size="10.00">chrono</text>
</g>
<!-- Node8&#45;&gt;Node10 -->
<g id="edge9" class="edge"><title>Node8&#45;&gt;Node10</title>
<path fill="none" stroke="midnightblue" d="M1033.63,-302.324C1021.84,-294.058 1003.87,-281.453 989.864,-271.632"/>
<polygon fill="midnightblue" stroke="midnightblue" points="991.538,-268.531 981.341,-265.655 987.518,-274.262 991.538,-268.531"/>
</g>
<!-- Node11 -->
<g id="node11" class="node"><title>Node11</title>
<polygon fill="none" stroke="#bfbfbf" points="1229,-6 1229,-25 1275,-25 1275,-6 1229,-6"/>
<text text-anchor="middle" x="1252" y="-13" font-family="Helvetica,sans-Serif" font-size="10.00">cstdint</text>
</g>
<!-- Node8&#45;&gt;Node11 -->
<g id="edge10" class="edge"><title>Node8&#45;&gt;Node11</title>
<path fill="none" stroke="midnightblue" d="M1098.15,-302.45C1149.44,-293.515 1223.76,-279.011 1250,-266 1316.24,-233.153 1344.4,-222.18 1373,-154 1388.24,-117.668 1381.58,-96.9614 1356,-67 1337.61,-45.4597 1307.89,-32.322 1284.92,-24.8685"/>
<polygon fill="midnightblue" stroke="midnightblue" points="1285.81,-21.4813 1275.23,-21.9242 1283.78,-28.1792 1285.81,-21.4813"/>
</g>
<!-- Node12 -->
<g id="node12" class="node"><title>Node12</title>
<polygon fill="none" stroke="#bfbfbf" points="937,-67.5 937,-86.5 989,-86.5 989,-67.5 937,-67.5"/>
<text text-anchor="middle" x="963" y="-74.5" font-family="Helvetica,sans-Serif" font-size="10.00">sstream</text>
</g>
<!-- Node8&#45;&gt;Node12 -->
<g id="edge11" class="edge"><title>Node8&#45;&gt;Node12</title>
<path fill="none" stroke="midnightblue" d="M1044.64,-302.463C1040.54,-276.696 1028.3,-200.807 1025,-190 1015.47,-158.796 1011.2,-151.321 995,-123 989.407,-113.222 982.207,-102.94 976.053,-94.6767"/>
<polygon fill="midnightblue" stroke="midnightblue" points="978.758,-92.4519 969.912,-86.6214 973.192,-96.6959 978.758,-92.4519"/>
</g>
<!-- Node13 -->
<g id="node13" class="node"><title>Node13</title>
<g id="a_node13"><a xlink:href="string_8hpp.html" target="_top" xlink:title="string/string.hpp">
<polygon fill="none" stroke="black" points="1278,-129 1278,-148 1364,-148 1364,-129 1278,-129"/>
<text text-anchor="middle" x="1321" y="-136" font-family="Helvetica,sans-Serif" font-size="10.00">string/string.hpp</text>
</a>
</g>
</g>
<!-- Node8&#45;&gt;Node13 -->
<g id="edge12" class="edge"><title>Node8&#45;&gt;Node13</title>
<path fill="none" stroke="midnightblue" d="M1102.45,-302.466C1158.84,-291.032 1244.24,-265.356 1295,-210 1308.2,-195.609 1314.85,-173.947 1318.1,-158.436"/>
<polygon fill="midnightblue" stroke="midnightblue" points="1321.58,-158.882 1319.91,-148.419 1314.69,-157.638 1321.58,-158.882"/>
</g>
<!-- Node8&#45;&gt;Node19 -->
<g id="edge26" class="edge"><title>Node8&#45;&gt;Node19</title>
<path fill="none" stroke="midnightblue" d="M1024.26,-302.368C975.416,-282.97 856.808,-235.87 800.143,-213.367"/>
<polygon fill="midnightblue" stroke="midnightblue" points="801.221,-210.029 790.635,-209.591 798.637,-216.535 801.221,-210.029"/>
</g>
<!-- Node8&#45;&gt;Node28 -->
<g id="edge45" class="edge"><title>Node8&#45;&gt;Node28</title>
<path fill="none" stroke="midnightblue" d="M1012.08,-302.495C898.699,-274.067 532.886,-182.346 405.906,-150.508"/>
<polygon fill="midnightblue" stroke="midnightblue" points="406.675,-147.093 396.124,-148.056 404.973,-153.883 406.675,-147.093"/>
</g>
<!-- Node32 -->
<g id="node32" class="node"><title>Node32</title>
<g id="a_node32"><a xlink:href="auth__system_8hpp.html" target="_top" xlink:title="user/auth_system.hpp">
<polygon fill="none" stroke="black" points="1300.5,-246.5 1300.5,-265.5 1413.5,-265.5 1413.5,-246.5 1300.5,-246.5"/>
<text text-anchor="middle" x="1357" y="-253.5" font-family="Helvetica,sans-Serif" font-size="10.00">user/auth_system.hpp</text>
</a>
</g>
</g>
<!-- Node8&#45;&gt;Node32 -->
<g id="edge53" class="edge"><title>Node8&#45;&gt;Node32</title>
<path fill="none" stroke="midnightblue" d="M1095.28,-302.444C1150.33,-292.885 1239.4,-277.419 1298.08,-267.23"/>
<polygon fill="midnightblue" stroke="midnightblue" points="1298.7,-270.676 1307.95,-265.516 1297.5,-263.779 1298.7,-270.676"/>
</g>
<!-- Node35 -->
<g id="node35" class="node"><title>Node35</title>
<g id="a_node35"><a xlink:href="user__manager_8hpp.html" target="_top" xlink:title="user/user_manager.hpp">
<polygon fill="none" stroke="black" points="1048.5,-246.5 1048.5,-265.5 1167.5,-265.5 1167.5,-246.5 1048.5,-246.5"/>
<text text-anchor="middle" x="1108" y="-253.5" font-family="Helvetica,sans-Serif" font-size="10.00">user/user_manager.hpp</text>
</a>
</g>
</g>
<!-- Node8&#45;&gt;Node35 -->
<g id="edge62" class="edge"><title>Node8&#45;&gt;Node35</title>
<path fill="none" stroke="midnightblue" d="M1055.96,-302.324C1065.13,-294.341 1078.94,-282.313 1090.03,-272.653"/>
<polygon fill="midnightblue" stroke="midnightblue" points="1092.62,-275.041 1097.86,-265.834 1088.02,-269.762 1092.62,-275.041"/>
</g>
<!-- Node13&#45;&gt;Node3 -->
<g id="edge14" class="edge"><title>Node13&#45;&gt;Node3</title>
<path fill="none" stroke="midnightblue" d="M1353.38,-128.975C1394.03,-118.273 1463.73,-99.9241 1507.48,-88.4056"/>
<polygon fill="midnightblue" stroke="midnightblue" points="1508.42,-91.7758 1517.2,-85.845 1506.64,-85.0064 1508.42,-91.7758"/>
</g>
<!-- Node13&#45;&gt;Node4 -->
<g id="edge17" class="edge"><title>Node13&#45;&gt;Node4</title>
<path fill="none" stroke="midnightblue" d="M1288.31,-128.991C1239.1,-116.119 1150.21,-92.601 1136,-87 1118.24,-80.0011 1116.19,-72.7777 1098,-67 980.939,-29.8171 945.189,-50.9753 824,-31 810.017,-28.6952 794.616,-25.7037 781.578,-23.037"/>
<polygon fill="midnightblue" stroke="midnightblue" points="782.204,-19.5924 771.702,-20.9874 780.782,-26.4464 782.204,-19.5924"/>
</g>
<!-- Node13&#45;&gt;Node5 -->
<g id="edge16" class="edge"><title>Node13&#45;&gt;Node5</title>
<path fill="none" stroke="midnightblue" d="M1277.81,-131.992C1253.02,-128.986 1221.3,-125.398 1193,-123 912.887,-99.2628 837.368,-126.474 554.85,-86.8446"/>
<polygon fill="midnightblue" stroke="midnightblue" points="555.105,-83.3457 544.712,-85.4064 554.122,-90.2763 555.105,-83.3457"/>
</g>
<!-- Node13&#45;&gt;Node7 -->
<g id="edge19" class="edge"><title>Node13&#45;&gt;Node7</title>
<path fill="none" stroke="midnightblue" d="M1330.35,-128.798C1352.18,-108.478 1406.75,-57.6863 1434.39,-31.9566"/>
<polygon fill="midnightblue" stroke="midnightblue" points="1436.8,-34.4983 1441.74,-25.1232 1432.03,-29.3744 1436.8,-34.4983"/>
</g>
<!-- Node13&#45;&gt;Node11 -->
<g id="edge13" class="edge"><title>Node13&#45;&gt;Node11</title>
<path fill="none" stroke="midnightblue" d="M1314.37,-128.836C1306.99,-118.991 1294.92,-102.299 1286,-87 1275.98,-69.8063 1266.3,-49.2119 1259.84,-34.7349"/>
<polygon fill="midnightblue" stroke="midnightblue" points="1262.98,-33.1654 1255.76,-25.4107 1256.57,-35.9747 1262.98,-33.1654"/>
</g>
<!-- Node13&#45;&gt;Node12 -->
<g id="edge18" class="edge"><title>Node13&#45;&gt;Node12</title>
<path fill="none" stroke="midnightblue" d="M1277.82,-130.323C1206.5,-118.47 1065.41,-95.0199 999.067,-83.9944"/>
<polygon fill="midnightblue" stroke="midnightblue" points="999.523,-80.5222 989.085,-82.3353 998.375,-87.4275 999.523,-80.5222"/>
</g>
<!-- Node14 -->
<g id="node14" class="node"><title>Node14</title>
<polygon fill="none" stroke="#bfbfbf" points="1295,-67.5 1295,-86.5 1347,-86.5 1347,-67.5 1295,-67.5"/>
<text text-anchor="middle" x="1321" y="-74.5" font-family="Helvetica,sans-Serif" font-size="10.00">memory</text>
</g>
<!-- Node13&#45;&gt;Node14 -->
<g id="edge15" class="edge"><title>Node13&#45;&gt;Node14</title>
<path fill="none" stroke="midnightblue" d="M1321,-128.975C1321,-120.58 1321,-107.481 1321,-96.6631"/>
<polygon fill="midnightblue" stroke="midnightblue" points="1324.5,-96.5091 1321,-86.5091 1317.5,-96.5091 1324.5,-96.5091"/>
</g>
<!-- Node15 -->
<g id="node15" class="node"><title>Node15</title>
<polygon fill="none" stroke="#bfbfbf" points="1045,-67.5 1045,-86.5 1089,-86.5 1089,-67.5 1045,-67.5"/>
<text text-anchor="middle" x="1067" y="-74.5" font-family="Helvetica,sans-Serif" font-size="10.00">vector</text>
</g>
<!-- Node13&#45;&gt;Node15 -->
<g id="edge20" class="edge"><title>Node13&#45;&gt;Node15</title>
<path fill="none" stroke="midnightblue" d="M1288.19,-128.979C1280.28,-126.973 1271.85,-124.875 1264,-123 1192.68,-105.96 1174.35,-103.893 1103,-87 1101.73,-86.6994 1100.44,-86.3901 1099.13,-86.0753"/>
<polygon fill="midnightblue" stroke="midnightblue" points="1099.61,-82.5892 1089.06,-83.6085 1097.94,-89.388 1099.61,-82.5892"/>
</g>
<!-- Node16 -->
<g id="node16" class="node"><title>Node16</title>
<g id="a_node16"><a xlink:href="color_8hpp.html" target="_top" xlink:title="color.hpp">
<polygon fill="none" stroke="black" points="1145,-67.5 1145,-86.5 1201,-86.5 1201,-67.5 1145,-67.5"/>
<text text-anchor="middle" x="1173" y="-74.5" font-family="Helvetica,sans-Serif" font-size="10.00">color.hpp</text>
</a>
</g>
</g>
<!-- Node13&#45;&gt;Node16 -->
<g id="edge21" class="edge"><title>Node13&#45;&gt;Node16</title>
<path fill="none" stroke="midnightblue" d="M1299.8,-128.975C1274.63,-118.857 1232.46,-101.905 1203.72,-90.3507"/>
<polygon fill="midnightblue" stroke="midnightblue" points="1204.75,-86.9919 1194.17,-86.5091 1202.14,-93.4867 1204.75,-86.9919"/>
</g>
<!-- Node16&#45;&gt;Node4 -->
<g id="edge25" class="edge"><title>Node16&#45;&gt;Node4</title>
<path fill="none" stroke="midnightblue" d="M1144.6,-69.5354C1140.07,-68.6124 1135.41,-67.7301 1131,-67 995.462,-44.5826 959.702,-52.3992 824,-31 810.001,-28.7925 794.598,-25.8149 781.563,-23.1324"/>
<polygon fill="midnightblue" stroke="midnightblue" points="782.194,-19.6888 771.689,-21.0646 780.76,-26.5401 782.194,-19.6888"/>
</g>
<!-- Node16&#45;&gt;Node11 -->
<g id="edge23" class="edge"><title>Node16&#45;&gt;Node11</title>
<path fill="none" stroke="midnightblue" d="M1184.32,-67.4751C1196.87,-58.0199 1217.35,-42.5961 1232.5,-31.1871"/>
<polygon fill="midnightblue" stroke="midnightblue" points="1234.82,-33.821 1240.7,-25.0091 1230.61,-28.2295 1234.82,-33.821"/>
</g>
<!-- Node17 -->
<g id="node17" class="node"><title>Node17</title>
<polygon fill="none" stroke="#bfbfbf" points="353,-6 353,-25 399,-25 399,-6 353,-6"/>
<text text-anchor="middle" x="376" y="-13" font-family="Helvetica,sans-Serif" font-size="10.00">cctype</text>
</g>
<!-- Node16&#45;&gt;Node17 -->
<g id="edge22" class="edge"><title>Node16&#45;&gt;Node17</title>
<path fill="none" stroke="midnightblue" d="M1144.9,-72.2931C1130.83,-70.523 1113.54,-68.4746 1098,-67 832.81,-41.8299 511.706,-23.7156 409.155,-18.2322"/>
<polygon fill="midnightblue" stroke="midnightblue" points="409.273,-14.7336 399.101,-17.6977 408.901,-21.7237 409.273,-14.7336"/>
</g>
<!-- Node18 -->
<g id="node18" class="node"><title>Node18</title>
<polygon fill="none" stroke="#bfbfbf" points="1150.5,-6 1150.5,-25 1195.5,-25 1195.5,-6 1150.5,-6"/>
<text text-anchor="middle" x="1173" y="-13" font-family="Helvetica,sans-Serif" font-size="10.00">cstdlib</text>
</g>
<!-- Node16&#45;&gt;Node18 -->
<g id="edge24" class="edge"><title>Node16&#45;&gt;Node18</title>
<path fill="none" stroke="midnightblue" d="M1173,-67.4751C1173,-59.0803 1173,-45.9806 1173,-35.1631"/>
<polygon fill="midnightblue" stroke="midnightblue" points="1176.5,-35.0091 1173,-25.0091 1169.5,-35.0091 1176.5,-35.0091"/>
</g>
<!-- Node19&#45;&gt;Node4 -->
<g id="edge31" class="edge"><title>Node19&#45;&gt;Node4</title>
<path fill="none" stroke="midnightblue" d="M752.367,-190.464C739.512,-182.841 722.661,-170.356 715,-154 705.032,-132.718 729.825,-66.9897 743.171,-34.7334"/>
<polygon fill="midnightblue" stroke="midnightblue" points="746.535,-35.7646 747.192,-25.1902 740.084,-33.0468 746.535,-35.7646"/>
</g>
<!-- Node19&#45;&gt;Node5 -->
<g id="edge30" class="edge"><title>Node19&#45;&gt;Node5</title>
<path fill="none" stroke="midnightblue" d="M724.189,-195.335C666.014,-189.716 568.753,-177.115 542,-154 525.312,-139.582 518.938,-114.138 516.504,-96.6922"/>
<polygon fill="midnightblue" stroke="midnightblue" points="519.965,-96.1424 515.404,-86.5794 513.006,-96.8992 519.965,-96.1424"/>
</g>
<!-- Node19&#45;&gt;Node7 -->
<g id="edge32" class="edge"><title>Node19&#45;&gt;Node7</title>
<path fill="none" stroke="midnightblue" d="M813.9,-194.36C828.872,-192.879 845.648,-191.29 861,-190 917.829,-185.223 1324.76,-184.414 1373,-154 1416.42,-126.626 1438.03,-65.8577 1446.52,-35.1018"/>
<polygon fill="midnightblue" stroke="midnightblue" points="1449.95,-35.804 1449.07,-25.246 1443.18,-34.0499 1449.95,-35.804"/>
</g>
<!-- Node19&#45;&gt;Node13 -->
<g id="edge39" class="edge"><title>Node19&#45;&gt;Node13</title>
<path fill="none" stroke="midnightblue" d="M813.574,-194.374C890.843,-186.331 1054.66,-169.176 1193,-154 1217.48,-151.314 1244.59,-148.255 1267.53,-145.642"/>
<polygon fill="midnightblue" stroke="midnightblue" points="1268.22,-149.087 1277.76,-144.476 1267.42,-142.132 1268.22,-149.087"/>
</g>
<!-- Node20 -->
<g id="node20" class="node"><title>Node20</title>
<polygon fill="none" stroke="#bfbfbf" points="848,-129 848,-148 898,-148 898,-129 848,-129"/>
<text text-anchor="middle" x="873" y="-136" font-family="Helvetica,sans-Serif" font-size="10.00">iomanip</text>
</g>
<!-- Node19&#45;&gt;Node20 -->
<g id="edge27" class="edge"><title>Node19&#45;&gt;Node20</title>
<path fill="none" stroke="midnightblue" d="M783.901,-190.475C800.968,-180.711 829.161,-164.581 849.262,-153.081"/>
<polygon fill="midnightblue" stroke="midnightblue" points="851.185,-156.013 858.127,-148.009 847.709,-149.937 851.185,-156.013"/>
</g>
<!-- Node21 -->
<g id="node21" class="node"><title>Node21</title>
<polygon fill="none" stroke="#bfbfbf" points="563,-67.5 563,-86.5 617,-86.5 617,-67.5 563,-67.5"/>
<text text-anchor="middle" x="590" y="-74.5" font-family="Helvetica,sans-Serif" font-size="10.00">iostream</text>
</g>
<!-- Node19&#45;&gt;Node21 -->
<g id="edge28" class="edge"><title>Node19&#45;&gt;Node21</title>
<path fill="none" stroke="midnightblue" d="M724.408,-192.838C663.867,-184.02 561.907,-167.389 551,-154 535.867,-135.424 555.368,-110.024 571.816,-93.8129"/>
<polygon fill="midnightblue" stroke="midnightblue" points="574.555,-96.0438 579.479,-86.6628 569.78,-90.9255 574.555,-96.0438"/>
</g>
<!-- Node22 -->
<g id="node22" class="node"><title>Node22</title>
<polygon fill="none" stroke="#bfbfbf" points="1068,-129 1068,-148 1112,-148 1112,-129 1068,-129"/>
<text text-anchor="middle" x="1090" y="-136" font-family="Helvetica,sans-Serif" font-size="10.00">mutex</text>
</g>
<!-- Node19&#45;&gt;Node22 -->
<g id="edge29" class="edge"><title>Node19&#45;&gt;Node22</title>
<path fill="none" stroke="midnightblue" d="M813.634,-190.727C879.315,-178.552 1000.43,-156.103 1057.99,-145.433"/>
<polygon fill="midnightblue" stroke="midnightblue" points="1058.78,-148.846 1067.98,-143.582 1057.51,-141.964 1058.78,-148.846"/>
</g>
<!-- Node23 -->
<g id="node23" class="node"><title>Node23</title>
<polygon fill="none" stroke="#bfbfbf" points="724.5,-123.5 724.5,-153.5 829.5,-153.5 829.5,-123.5 724.5,-123.5"/>
<text text-anchor="start" x="732.5" y="-141.5" font-family="Helvetica,sans-Serif" font-size="10.00">boost/chrono/io/time</text>
<text text-anchor="middle" x="777" y="-130.5" font-family="Helvetica,sans-Serif" font-size="10.00">_point_io.hpp</text>
</g>
<!-- Node19&#45;&gt;Node23 -->
<g id="edge33" class="edge"><title>Node19&#45;&gt;Node23</title>
<path fill="none" stroke="midnightblue" d="M770.146,-190.475C771.088,-183.471 772.47,-173.192 773.747,-163.696"/>
<polygon fill="midnightblue" stroke="midnightblue" points="777.251,-163.9 775.115,-153.523 770.313,-162.967 777.251,-163.9"/>
</g>
<!-- Node24 -->
<g id="node24" class="node"><title>Node24</title>
<g id="a_node24"><a xlink:href="multibuf_8hpp.html" target="_top" xlink:title="multibuf.hpp">
<polygon fill="none" stroke="black" points="560,-129 560,-148 630,-148 630,-129 560,-129"/>
<text text-anchor="middle" x="595" y="-136" font-family="Helvetica,sans-Serif" font-size="10.00">multibuf.hpp</text>
</a>
</g>
</g>
<!-- Node19&#45;&gt;Node24 -->
<g id="edge34" class="edge"><title>Node19&#45;&gt;Node24</title>
<path fill="none" stroke="midnightblue" d="M744.07,-190.475C713.964,-180.18 663.168,-162.81 629.362,-151.25"/>
<polygon fill="midnightblue" stroke="midnightblue" points="630.478,-147.933 619.884,-148.009 628.213,-154.556 630.478,-147.933"/>
</g>
<!-- Node19&#45;&gt;Node26 -->
<g id="edge40" class="edge"><title>Node19&#45;&gt;Node26</title>
<path fill="none" stroke="midnightblue" d="M813.252,-190.428C849.21,-182.458 895.751,-169.5 907,-154 919.725,-136.466 908.159,-111.819 897.33,-95.3991"/>
<polygon fill="midnightblue" stroke="midnightblue" points="899.869,-92.9294 891.228,-86.7984 894.16,-96.9797 899.869,-92.9294"/>
</g>
<!-- Node24&#45;&gt;Node4 -->
<g id="edge38" class="edge"><title>Node24&#45;&gt;Node4</title>
<path fill="none" stroke="midnightblue" d="M618.223,-128.916C639.377,-120.375 670.77,-105.835 694,-87 712.832,-71.7313 729.637,-49.3137 740.037,-33.8777"/>
<polygon fill="midnightblue" stroke="midnightblue" points="743.105,-35.5809 745.646,-25.2951 737.246,-31.7516 743.105,-35.5809"/>
</g>
<!-- Node24&#45;&gt;Node15 -->
<g id="edge37" class="edge"><title>Node24&#45;&gt;Node15</title>
<path fill="none" stroke="midnightblue" d="M630.046,-133.169C700.008,-124.509 861.961,-104.396 998,-87 1010.02,-85.4632 1023.21,-83.7491 1034.81,-82.2325"/>
<polygon fill="midnightblue" stroke="midnightblue" points="1035.48,-85.6751 1044.94,-80.9061 1034.57,-78.7344 1035.48,-85.6751"/>
</g>
<!-- Node24&#45;&gt;Node21 -->
<g id="edge35" class="edge"><title>Node24&#45;&gt;Node21</title>
<path fill="none" stroke="midnightblue" d="M594.284,-128.975C593.578,-120.58 592.477,-107.481 591.568,-96.6631"/>
<polygon fill="midnightblue" stroke="midnightblue" points="595.04,-96.1808 590.715,-86.5091 588.065,-96.7671 595.04,-96.1808"/>
</g>
<!-- Node25 -->
<g id="node25" class="node"><title>Node25</title>
<polygon fill="none" stroke="#bfbfbf" points="635,-67.5 635,-86.5 685,-86.5 685,-67.5 635,-67.5"/>
<text text-anchor="middle" x="660" y="-74.5" font-family="Helvetica,sans-Serif" font-size="10.00">fstream</text>
</g>
<!-- Node24&#45;&gt;Node25 -->
<g id="edge36" class="edge"><title>Node24&#45;&gt;Node25</title>
<path fill="none" stroke="midnightblue" d="M604.313,-128.975C614.449,-119.697 630.864,-104.671 643.252,-93.331"/>
<polygon fill="midnightblue" stroke="midnightblue" points="645.691,-95.8429 650.704,-86.5091 640.965,-90.6795 645.691,-95.8429"/>
</g>
<!-- Node26&#45;&gt;Node4 -->
<g id="edge41" class="edge"><title>Node26&#45;&gt;Node4</title>
<path fill="none" stroke="midnightblue" d="M864.944,-67.4751C842.525,-57.4455 805.095,-40.7002 779.287,-29.1546"/>
<polygon fill="midnightblue" stroke="midnightblue" points="780.578,-25.8979 770.02,-25.0091 777.719,-32.2877 780.578,-25.8979"/>
</g>
<!-- Node26&#45;&gt;Node7 -->
<g id="edge43" class="edge"><title>Node26&#45;&gt;Node7</title>
<path fill="none" stroke="midnightblue" d="M919.005,-68.493C922.04,-67.9475 925.07,-67.4399 928,-67 973.8,-60.1243 1276.06,-32.3777 1399.07,-21.2002"/>
<polygon fill="midnightblue" stroke="midnightblue" points="1399.71,-24.6561 1409.35,-20.266 1399.08,-17.6848 1399.71,-24.6561"/>
</g>
<!-- Node26&#45;&gt;Node11 -->
<g id="edge42" class="edge"><title>Node26&#45;&gt;Node11</title>
<path fill="none" stroke="midnightblue" d="M919.022,-68.5994C922.054,-68.0308 925.078,-67.4888 928,-67 1050.01,-46.5917 1083.05,-56.9733 1204,-31 1208.85,-29.9582 1213.92,-28.6614 1218.87,-27.275"/>
<polygon fill="midnightblue" stroke="midnightblue" points="1220.16,-30.5439 1228.76,-24.3559 1218.18,-23.8303 1220.16,-30.5439"/>
</g>
<!-- Node27 -->
<g id="node27" class="node"><title>Node27</title>
<polygon fill="none" stroke="#bfbfbf" points="833.5,-0.5 833.5,-30.5 934.5,-30.5 934.5,-0.5 833.5,-0.5"/>
<text text-anchor="start" x="841.5" y="-18.5" font-family="Helvetica,sans-Serif" font-size="10.00">boost/property_tree</text>
<text text-anchor="middle" x="884" y="-7.5" font-family="Helvetica,sans-Serif" font-size="10.00">/ptree.hpp</text>
</g>
<!-- Node26&#45;&gt;Node27 -->
<g id="edge44" class="edge"><title>Node26&#45;&gt;Node27</title>
<path fill="none" stroke="midnightblue" d="M884,-67.4751C884,-60.471 884,-50.1919 884,-40.6956"/>
<polygon fill="midnightblue" stroke="midnightblue" points="887.5,-40.5229 884,-30.523 880.5,-40.523 887.5,-40.5229"/>
</g>
<!-- Node28&#45;&gt;Node4 -->
<g id="edge50" class="edge"><title>Node28&#45;&gt;Node4</title>
<path fill="none" stroke="midnightblue" d="M374.727,-128.788C399.766,-111.792 454.828,-75.1566 476,-67 560.576,-34.4163 668.072,-22.4987 720.061,-18.4347"/>
<polygon fill="midnightblue" stroke="midnightblue" points="720.569,-21.9069 730.285,-17.682 720.055,-14.9258 720.569,-21.9069"/>
</g>
<!-- Node28&#45;&gt;Node6 -->
<g id="edge51" class="edge"><title>Node28&#45;&gt;Node6</title>
<path fill="none" stroke="midnightblue" d="M349.248,-128.975C334.973,-119.431 311.603,-103.807 294.492,-92.3683"/>
<polygon fill="midnightblue" stroke="midnightblue" points="295.986,-89.1572 285.728,-86.5091 292.096,-94.9766 295.986,-89.1572"/>
</g>
<!-- Node28&#45;&gt;Node12 -->
<g id="edge49" class="edge"><title>Node28&#45;&gt;Node12</title>
<path fill="none" stroke="midnightblue" d="M427.534,-132.257C559.267,-121.635 849.532,-97.7828 926.594,-86.8268"/>
<polygon fill="midnightblue" stroke="midnightblue" points="927.386,-90.2457 936.726,-85.245 926.306,-83.3295 927.386,-90.2457"/>
</g>
<!-- Node28&#45;&gt;Node26 -->
<g id="edge52" class="edge"><title>Node28&#45;&gt;Node26</title>
<path fill="none" stroke="midnightblue" d="M427.583,-130.025C535.158,-117.763 746.365,-93.6883 838.835,-83.1482"/>
<polygon fill="midnightblue" stroke="midnightblue" points="839.445,-86.6014 848.984,-81.9913 838.652,-79.6464 839.445,-86.6014"/>
</g>
<!-- Node29 -->
<g id="node29" class="node"><title>Node29</title>
<polygon fill="none" stroke="#bfbfbf" points="168,-67.5 168,-86.5 224,-86.5 224,-67.5 168,-67.5"/>
<text text-anchor="middle" x="196" y="-74.5" font-family="Helvetica,sans-Serif" font-size="10.00">algorithm</text>
</g>
<!-- Node28&#45;&gt;Node29 -->
<g id="edge46" class="edge"><title>Node28&#45;&gt;Node29</title>
<path fill="none" stroke="midnightblue" d="M338.216,-128.975C309.618,-118.725 261.449,-101.459 229.198,-89.8994"/>
<polygon fill="midnightblue" stroke="midnightblue" points="230.334,-86.5885 219.74,-86.5091 227.972,-93.178 230.334,-86.5885"/>
</g>
<!-- Node30 -->
<g id="node30" class="node"><title>Node30</title>
<polygon fill="none" stroke="#bfbfbf" points="322.5,-67.5 322.5,-86.5 369.5,-86.5 369.5,-67.5 322.5,-67.5"/>
<text text-anchor="middle" x="346" y="-74.5" font-family="Helvetica,sans-Serif" font-size="10.00">iterator</text>
</g>
<!-- Node28&#45;&gt;Node30 -->
<g id="edge47" class="edge"><title>Node28&#45;&gt;Node30</title>
<path fill="none" stroke="midnightblue" d="M359.708,-128.975C357.426,-120.492 353.853,-107.204 350.927,-96.3222"/>
<polygon fill="midnightblue" stroke="midnightblue" points="354.265,-95.2571 348.288,-86.5091 347.505,-97.0749 354.265,-95.2571"/>
</g>
<!-- Node31 -->
<g id="node31" class="node"><title>Node31</title>
<polygon fill="none" stroke="#bfbfbf" points="387.5,-67.5 387.5,-86.5 428.5,-86.5 428.5,-67.5 387.5,-67.5"/>
<text text-anchor="middle" x="408" y="-74.5" font-family="Helvetica,sans-Serif" font-size="10.00">regex</text>
</g>
<!-- Node28&#45;&gt;Node31 -->
<g id="edge48" class="edge"><title>Node28&#45;&gt;Node31</title>
<path fill="none" stroke="midnightblue" d="M368.591,-128.975C375.491,-120.05 386.502,-105.807 395.134,-94.6425"/>
<polygon fill="midnightblue" stroke="midnightblue" points="398.074,-96.5612 401.422,-86.5091 392.536,-92.2798 398.074,-96.5612"/>
</g>
<!-- Node32&#45;&gt;Node7 -->
<g id="edge54" class="edge"><title>Node32&#45;&gt;Node7</title>
<path fill="none" stroke="midnightblue" d="M1369.06,-246.441C1389.71,-230.892 1430.88,-195.725 1444,-154 1456.86,-113.1 1455.14,-62.0095 1452.95,-35.089"/>
<polygon fill="midnightblue" stroke="midnightblue" points="1456.44,-34.7655 1452.03,-25.1317 1449.47,-35.4123 1456.44,-34.7655"/>
</g>
<!-- Node33 -->
<g id="node33" class="node"><title>Node33</title>
<g id="a_node33"><a xlink:href="user__group_8hpp.html" target="_top" xlink:title="user_group.hpp">
<polygon fill="none" stroke="black" points="1203.5,-190.5 1203.5,-209.5 1286.5,-209.5 1286.5,-190.5 1203.5,-190.5"/>
<text text-anchor="middle" x="1245" y="-197.5" font-family="Helvetica,sans-Serif" font-size="10.00">user_group.hpp</text>
</a>
</g>
</g>
<!-- Node32&#45;&gt;Node33 -->
<g id="edge55" class="edge"><title>Node32&#45;&gt;Node33</title>
<path fill="none" stroke="midnightblue" d="M1339.01,-246.324C1320.96,-237.625 1292.95,-224.12 1272.2,-214.113"/>
<polygon fill="midnightblue" stroke="midnightblue" points="1273.48,-210.845 1262.95,-209.655 1270.44,-217.15 1273.48,-210.845"/>
</g>
<!-- Node33&#45;&gt;Node15 -->
<g id="edge56" class="edge"><title>Node33&#45;&gt;Node15</title>
<path fill="none" stroke="midnightblue" d="M1241.32,-190.396C1234.23,-174.775 1217.18,-141.647 1193,-123 1178.02,-111.449 1131.1,-96.3807 1098.94,-86.9466"/>
<polygon fill="midnightblue" stroke="midnightblue" points="1099.66,-83.5105 1089.08,-84.0931 1097.72,-90.2347 1099.66,-83.5105"/>
</g>
<!-- Node34 -->
<g id="node34" class="node"><title>Node34</title>
<g id="a_node34"><a xlink:href="user_8hpp.html" target="_top" xlink:title="user.hpp">
<polygon fill="none" stroke="black" points="1130,-129 1130,-148 1184,-148 1184,-129 1130,-129"/>
<text text-anchor="middle" x="1157" y="-136" font-family="Helvetica,sans-Serif" font-size="10.00">user.hpp</text>
</a>
</g>
</g>
<!-- Node33&#45;&gt;Node34 -->
<g id="edge57" class="edge"><title>Node33&#45;&gt;Node34</title>
<path fill="none" stroke="midnightblue" d="M1232.39,-190.475C1218.28,-180.931 1195.17,-165.307 1178.25,-153.868"/>
<polygon fill="midnightblue" stroke="midnightblue" points="1179.83,-150.711 1169.58,-148.009 1175.91,-156.51 1179.83,-150.711"/>
</g>
<!-- Node34&#45;&gt;Node4 -->
<g id="edge58" class="edge"><title>Node34&#45;&gt;Node4</title>
<path fill="none" stroke="midnightblue" d="M1135.75,-128.897C1106.25,-116.909 1054.43,-95.6763 1036,-87 1018.73,-78.8721 1015.97,-73.42 998,-67 992.875,-65.1695 846.573,-35.6912 781.593,-22.6381"/>
<polygon fill="midnightblue" stroke="midnightblue" points="782.028,-19.1558 771.535,-20.6184 780.65,-26.0188 782.028,-19.1558"/>
</g>
<!-- Node34&#45;&gt;Node7 -->
<g id="edge60" class="edge"><title>Node34&#45;&gt;Node7</title>
<path fill="none" stroke="midnightblue" d="M1170.48,-128.933C1193.46,-114.603 1242.01,-85.5233 1286,-67 1325.41,-50.4044 1372.16,-36.6159 1405.83,-27.6633"/>
<polygon fill="midnightblue" stroke="midnightblue" points="1407.04,-30.9627 1415.83,-25.0424 1405.27,-24.1912 1407.04,-30.9627"/>
</g>
<!-- Node34&#45;&gt;Node15 -->
<g id="edge59" class="edge"><title>Node34&#45;&gt;Node15</title>
<path fill="none" stroke="midnightblue" d="M1144.11,-128.975C1129.54,-119.343 1105.6,-103.517 1088.25,-92.0517"/>
<polygon fill="midnightblue" stroke="midnightblue" points="1090.14,-89.1044 1079.87,-86.5091 1086.28,-94.9437 1090.14,-89.1044"/>
</g>
<!-- Node34&#45;&gt;Node26 -->
<g id="edge61" class="edge"><title>Node34&#45;&gt;Node26</title>
<path fill="none" stroke="midnightblue" d="M1137.82,-128.955C1132.45,-126.79 1126.56,-124.622 1121,-123 1040.26,-99.4621 1015.42,-103.409 929.034,-87.144"/>
<polygon fill="midnightblue" stroke="midnightblue" points="929.534,-83.6762 919.053,-85.2271 928.214,-90.5505 929.534,-83.6762"/>
</g>
<!-- Node35&#45;&gt;Node34 -->
<g id="edge63" class="edge"><title>Node35&#45;&gt;Node34</title>
<path fill="none" stroke="midnightblue" d="M1111.68,-246.319C1119.63,-227.59 1138.53,-183.046 1149.24,-157.792"/>
<polygon fill="midnightblue" stroke="midnightblue" points="1152.59,-158.855 1153.27,-148.282 1146.15,-156.121 1152.59,-158.855"/>
</g>
<!-- Node36 -->
<g id="node36" class="node"><title>Node36</title>
<polygon fill="none" stroke="#bfbfbf" points="1079.5,-190.5 1079.5,-209.5 1108.5,-209.5 1108.5,-190.5 1079.5,-190.5"/>
<text text-anchor="middle" x="1094" y="-197.5" font-family="Helvetica,sans-Serif" font-size="10.00">list</text>
</g>
<!-- Node35&#45;&gt;Node36 -->
<g id="edge64" class="edge"><title>Node35&#45;&gt;Node36</title>
<path fill="none" stroke="midnightblue" d="M1105.69,-246.083C1103.83,-238.927 1101.16,-228.635 1098.85,-219.691"/>
<polygon fill="midnightblue" stroke="midnightblue" points="1102.17,-218.553 1096.27,-209.751 1095.39,-220.309 1102.17,-218.553"/>
</g>
<!-- Node37&#45;&gt;Node7 -->
<g id="edge74" class="edge"><title>Node37&#45;&gt;Node7</title>
<path fill="none" stroke="midnightblue" d="M1236.35,-367.665C1364.98,-368.713 1757,-363.198 1757,-257 1757,-257 1757,-257 1757,-137.5 1757,-83.4412 1589.76,-43.1806 1502.55,-25.8619"/>
<polygon fill="midnightblue" stroke="midnightblue" points="1503.07,-22.3973 1492.59,-23.9133 1501.73,-29.2672 1503.07,-22.3973"/>
</g>
<!-- Node37&#45;&gt;Node8 -->
<g id="edge82" class="edge"><title>Node37&#45;&gt;Node8</title>
<path fill="none" stroke="midnightblue" d="M1172.23,-358.444C1147.11,-349.399 1107.29,-335.064 1079.1,-324.916"/>
<polygon fill="midnightblue" stroke="midnightblue" points="1080.25,-321.611 1069.66,-321.516 1077.88,-328.197 1080.25,-321.611"/>
</g>
<!-- Node37&#45;&gt;Node9 -->
<g id="edge69" class="edge"><title>Node37&#45;&gt;Node9</title>
<path fill="none" stroke="midnightblue" d="M1216.32,-358.368C1261.9,-339.01 1372.44,-292.065 1425.55,-269.507"/>
<polygon fill="midnightblue" stroke="midnightblue" points="1426.94,-272.722 1434.77,-265.591 1424.2,-266.279 1426.94,-272.722"/>
</g>
<!-- Node37&#45;&gt;Node22 -->
<g id="edge71" class="edge"><title>Node37&#45;&gt;Node22</title>
<path fill="none" stroke="midnightblue" d="M1196.05,-358.358C1195.88,-337.893 1193.6,-285.244 1176,-246 1159.5,-209.217 1127.11,-174.42 1107.13,-155.127"/>
<polygon fill="midnightblue" stroke="midnightblue" points="1109.33,-152.389 1099.65,-148.071 1104.52,-157.48 1109.33,-152.389"/>
</g>
<!-- Node37&#45;&gt;Node26 -->
<g id="edge81" class="edge"><title>Node37&#45;&gt;Node26</title>
<path fill="none" stroke="midnightblue" d="M1155.71,-363.093C1095.14,-356.646 984.071,-342.429 950,-322 895.471,-289.304 881.947,-270.031 861,-210 858.071,-201.607 856.538,-197.688 861,-190 877.187,-162.107 907.813,-181.893 924,-154 930.915,-142.083 928.896,-135.878 924,-123 919.665,-111.598 910.969,-101.239 902.79,-93.343"/>
<polygon fill="midnightblue" stroke="midnightblue" points="905.041,-90.6595 895.266,-86.5728 900.358,-95.8633 905.041,-90.6595"/>
</g>
<!-- Node38 -->
<g id="node38" class="node"><title>Node38</title>
<polygon fill="none" stroke="#bfbfbf" points="1633.5,-246.5 1633.5,-265.5 1728.5,-265.5 1728.5,-246.5 1633.5,-246.5"/>
<text text-anchor="middle" x="1681" y="-253.5" font-family="Helvetica,sans-Serif" font-size="10.00">condition_variable</text>
</g>
<!-- Node37&#45;&gt;Node38 -->
<g id="edge70" class="edge"><title>Node37&#45;&gt;Node38</title>
<path fill="none" stroke="midnightblue" d="M1236.18,-365.244C1324.37,-360.949 1532.16,-348.287 1597,-322 1624.36,-310.909 1650.35,-288.269 1665.98,-272.863"/>
<polygon fill="midnightblue" stroke="midnightblue" points="1668.65,-275.147 1673.17,-265.565 1663.66,-270.236 1668.65,-275.147"/>
</g>
<!-- Node39 -->
<g id="node39" class="node"><title>Node39</title>
<polygon fill="none" stroke="#bfbfbf" points="1572.5,-246.5 1572.5,-265.5 1615.5,-265.5 1615.5,-246.5 1572.5,-246.5"/>
<text text-anchor="middle" x="1594" y="-253.5" font-family="Helvetica,sans-Serif" font-size="10.00">queue</text>
</g>
<!-- Node37&#45;&gt;Node39 -->
<g id="edge72" class="edge"><title>Node37&#45;&gt;Node39</title>
<path fill="none" stroke="midnightblue" d="M1236.01,-367.698C1323.03,-368.379 1525.71,-365.158 1576,-322 1589.17,-310.697 1593.12,-290.693 1594.12,-275.853"/>
<polygon fill="midnightblue" stroke="midnightblue" points="1597.62,-275.836 1594.41,-265.74 1590.62,-275.637 1597.62,-275.836"/>
</g>
<!-- Node40 -->
<g id="node40" class="node"><title>Node40</title>
<polygon fill="none" stroke="#bfbfbf" points="1124,-302.5 1124,-321.5 1168,-321.5 1168,-302.5 1124,-302.5"/>
<text text-anchor="middle" x="1146" y="-309.5" font-family="Helvetica,sans-Serif" font-size="10.00">thread</text>
</g>
<!-- Node37&#45;&gt;Node40 -->
<g id="edge73" class="edge"><title>Node37&#45;&gt;Node40</title>
<path fill="none" stroke="midnightblue" d="M1187.74,-358.083C1180.54,-350.298 1169.89,-338.801 1161.15,-329.367"/>
<polygon fill="midnightblue" stroke="midnightblue" points="1163.47,-326.711 1154.1,-321.751 1158.33,-331.467 1163.47,-326.711"/>
</g>
<!-- Node41 -->
<g id="node41" class="node"><title>Node41</title>
<g id="a_node41"><a xlink:href="concurrent__container_8hpp.html" target="_top" xlink:title="concurrent_container.hpp">
<polygon fill="none" stroke="black" points="1441,-302.5 1441,-321.5 1567,-321.5 1567,-302.5 1441,-302.5"/>
<text text-anchor="middle" x="1504" y="-309.5" font-family="Helvetica,sans-Serif" font-size="10.00">concurrent_container.hpp</text>
</a>
</g>
</g>
<!-- Node37&#45;&gt;Node41 -->
<g id="edge75" class="edge"><title>Node37&#45;&gt;Node41</title>
<path fill="none" stroke="midnightblue" d="M1236.27,-359.94C1289.63,-350.584 1384.17,-334.009 1445.44,-323.267"/>
<polygon fill="midnightblue" stroke="midnightblue" points="1446.1,-326.704 1455.35,-321.53 1444.89,-319.809 1446.1,-326.704"/>
</g>
<!-- Node42 -->
<g id="node42" class="node"><title>Node42</title>
<g id="a_node42"><a xlink:href="handler__container_8hpp.html" target="_top" xlink:title="handler/handler_container.hpp">
<polygon fill="none" stroke="black" points="870,-190.5 870,-209.5 1016,-209.5 1016,-190.5 870,-190.5"/>
<text text-anchor="middle" x="943" y="-197.5" font-family="Helvetica,sans-Serif" font-size="10.00">handler/handler_container.hpp</text>
</a>
</g>
</g>
<!-- Node37&#45;&gt;Node42 -->
<g id="edge83" class="edge"><title>Node37&#45;&gt;Node42</title>
<path fill="none" stroke="midnightblue" d="M1155.95,-367.319C1109.36,-365.87 1031.83,-357.657 977,-322 951.359,-305.325 946.334,-295.127 937,-266 932.137,-250.824 934.427,-232.707 937.479,-219.46"/>
<polygon fill="midnightblue" stroke="midnightblue" points="940.9,-220.212 940.082,-209.649 934.134,-218.417 940.9,-220.212"/>
</g>
<!-- Node41&#45;&gt;Node3 -->
<g id="edge78" class="edge"><title>Node41&#45;&gt;Node3</title>
<path fill="none" stroke="midnightblue" d="M1507.72,-302.195C1511.36,-293.238 1516.82,-278.88 1520,-266 1534.99,-205.292 1542.59,-131.36 1545.52,-97.1105"/>
<polygon fill="midnightblue" stroke="midnightblue" points="1549.04,-96.9892 1546.37,-86.7376 1542.06,-96.4198 1549.04,-96.9892"/>
</g>
<!-- Node41&#45;&gt;Node9 -->
<g id="edge76" class="edge"><title>Node41&#45;&gt;Node9</title>
<path fill="none" stroke="midnightblue" d="M1495.91,-302.083C1488.84,-294.298 1478.41,-282.801 1469.85,-273.367"/>
<polygon fill="midnightblue" stroke="midnightblue" points="1472.25,-270.805 1462.94,-265.751 1467.07,-275.509 1472.25,-270.805"/>
</g>
<!-- Node41&#45;&gt;Node15 -->
<g id="edge80" class="edge"><title>Node41&#45;&gt;Node15</title>
<path fill="none" stroke="midnightblue" d="M1504.06,-302.318C1503.68,-288.706 1501.05,-262.225 1487,-246 1418.16,-166.497 1361.97,-203.158 1269,-154 1246.55,-142.129 1244.14,-133.467 1221,-123 1170.47,-100.141 1152.09,-103.772 1098.7,-88.3299"/>
<polygon fill="midnightblue" stroke="midnightblue" points="1099.66,-84.9624 1089.08,-85.4495 1097.65,-91.6687 1099.66,-84.9624"/>
</g>
<!-- Node41&#45;&gt;Node38 -->
<g id="edge77" class="edge"><title>Node41&#45;&gt;Node38</title>
<path fill="none" stroke="midnightblue" d="M1532.05,-302.444C1562.08,-293.28 1609.91,-278.688 1643.24,-268.519"/>
<polygon fill="midnightblue" stroke="midnightblue" points="1644.54,-271.782 1653.09,-265.516 1642.5,-265.087 1644.54,-271.782"/>
</g>
<!-- Node41&#45;&gt;Node39 -->
<g id="edge79" class="edge"><title>Node41&#45;&gt;Node39</title>
<path fill="none" stroke="midnightblue" d="M1518.46,-302.324C1532.5,-293.9 1554.05,-280.971 1570.54,-271.074"/>
<polygon fill="midnightblue" stroke="midnightblue" points="1572.8,-273.801 1579.58,-265.655 1569.2,-267.798 1572.8,-273.801"/>
</g>
<!-- Node42&#45;&gt;Node26 -->
<g id="edge84" class="edge"><title>Node42&#45;&gt;Node26</title>
<path fill="none" stroke="midnightblue" d="M952.65,-190.188C967.4,-175.622 992.402,-145.861 978,-123 967.078,-105.662 947.421,-94.857 928.896,-88.1983"/>
<polygon fill="midnightblue" stroke="midnightblue" points="929.957,-84.8629 919.365,-85.0816 927.782,-91.5163 929.957,-84.8629"/>
</g>
<!-- Node44&#45;&gt;Node4 -->
<g id="edge89" class="edge"><title>Node44&#45;&gt;Node4</title>
<path fill="none" stroke="midnightblue" d="M68.7186,-128.628C77.5753,-112.996 98.3201,-80.8883 126,-67 179.428,-40.1927 601.257,-22.2111 719.996,-17.6443"/>
<polygon fill="midnightblue" stroke="midnightblue" points="720.35,-21.1335 730.21,-17.256 720.084,-14.1385 720.35,-21.1335"/>
</g>
<!-- Node44&#45;&gt;Node17 -->
<g id="edge88" class="edge"><title>Node44&#45;&gt;Node17</title>
<path fill="none" stroke="midnightblue" d="M64.2724,-128.566C65.248,-113.42 69.5367,-82.8098 88,-67 125.881,-34.5629 275.275,-22.169 342.686,-18.1596"/>
<polygon fill="midnightblue" stroke="midnightblue" points="342.986,-21.6482 352.772,-17.5863 342.589,-14.6595 342.986,-21.6482"/>
</g>
<!-- Node44&#45;&gt;Node29 -->
<g id="edge87" class="edge"><title>Node44&#45;&gt;Node29</title>
<path fill="none" stroke="midnightblue" d="M82.9124,-128.975C105.163,-118.945 142.312,-102.2 167.926,-90.6546"/>
<polygon fill="midnightblue" stroke="midnightblue" points="169.444,-93.8094 177.123,-86.5091 166.568,-87.4277 169.444,-93.8094"/>
</g>
</g>
</svg>
