<?xml version="1.0" encoding="UTF-8" standalone="no"?>
<!DOCTYPE svg PUBLIC "-//W3C//DTD SVG 1.1//EN"
 "http://www.w3.org/Graphics/SVG/1.1/DTD/svg11.dtd">
<!-- Generated by graphviz version 2.38.0 (20140413.2041)
 -->
<!-- Title: src/network Pages: 1 -->
<svg width="206pt" height="151pt"
 viewBox="0.00 0.00 206.00 151.00" xmlns="http://www.w3.org/2000/svg" xmlns:xlink="http://www.w3.org/1999/xlink">
<g id="graph0" class="graph" transform="scale(1 1) rotate(0) translate(4 147)">
<title>src/network</title>
<g id="clust1" class="cluster"><title>clusterdir_68267d1309a1af8e8297ef4c3efbcdba</title>
<g id="a_clust1"><a xlink:href="dir_68267d1309a1af8e8297ef4c3efbcdba.html" target="_top" xlink:title="src">
<polygon fill="#ddddee" stroke="black" points="64,-64 64,-135 134,-135 134,-64 64,-64"/>
<text text-anchor="middle" x="99" y="-123" font-family="Helvetica,sans-Serif" font-size="10.00">src</text>
</a>
</g>
</g>
<!-- dir_fc4c7f03e1a69a98c370fae55a743828 -->
<g id="node1" class="node"><title>dir_fc4c7f03e1a69a98c370fae55a743828</title>
<g id="a_node1"><a xlink:href="dir_fc4c7f03e1a69a98c370fae55a743828.html" target="_top" xlink:title="network">
<polygon fill="#eeeeff" stroke="black" points="126,-108 72,-108 72,-72 126,-72 126,-108"/>
<text text-anchor="middle" x="99" y="-87.5" font-family="Helvetica,sans-Serif" font-size="10.00">network</text>
</a>
</g>
</g>
<!-- dir_8b0164eb0fb74115683f9812cb2f78f0 -->
<g id="node2" class="node"><title>dir_8b0164eb0fb74115683f9812cb2f78f0</title>
<g id="a_node2"><a xlink:href="dir_8b0164eb0fb74115683f9812cb2f78f0.html" target="_top" xlink:title="user">
<polygon fill="none" stroke="black" points="54,-36 0,-36 0,-0 54,-0 54,-36"/>
<text text-anchor="middle" x="27" y="-15.5" font-family="Helvetica,sans-Serif" font-size="10.00">user</text>
</a>
</g>
</g>
<!-- dir_fc4c7f03e1a69a98c370fae55a743828&#45;&gt;dir_8b0164eb0fb74115683f9812cb2f78f0 -->
<g id="edge1" class="edge"><title>dir_fc4c7f03e1a69a98c370fae55a743828&#45;&gt;dir_8b0164eb0fb74115683f9812cb2f78f0</title>
<path fill="none" stroke="black" d="M81.2022,-71.6966C72.396,-63.135 61.6179,-52.6562 51.9989,-43.3045"/>
<polygon fill="black" stroke="black" points="54.2028,-40.5657 44.593,-36.1043 49.3232,-45.5846 54.2028,-40.5657"/>
<g id="a_edge1&#45;headlabel"><a xlink:href="dir_000004_000006.html" target="_top" xlink:title="2">
<text text-anchor="middle" x="58.7593" y="-38.5356" font-family="Helvetica,sans-Serif" font-size="10.00">2</text>
</a>
</g>
</g>
<!-- dir_4fef79e7177ba769987a8da36c892c5f -->
<g id="node3" class="node"><title>dir_4fef79e7177ba769987a8da36c892c5f</title>
<g id="a_node3"><a xlink:href="dir_4fef79e7177ba769987a8da36c892c5f.html" target="_top" xlink:title="build">
<polygon fill="none" stroke="red" points="126,-36 72,-36 72,-0 126,-0 126,-36"/>
<text text-anchor="middle" x="99" y="-15.5" font-family="Helvetica,sans-Serif" font-size="10.00">build</text>
</a>
</g>
</g>
<!-- dir_fc4c7f03e1a69a98c370fae55a743828&#45;&gt;dir_4fef79e7177ba769987a8da36c892c5f -->
<g id="edge2" class="edge"><title>dir_fc4c7f03e1a69a98c370fae55a743828&#45;&gt;dir_4fef79e7177ba769987a8da36c892c5f</title>
<path fill="none" stroke="black" d="M99,-71.6966C99,-63.9827 99,-54.7125 99,-46.1124"/>
<polygon fill="black" stroke="black" points="102.5,-46.1043 99,-36.1043 95.5001,-46.1044 102.5,-46.1043"/>
<g id="a_edge2&#45;headlabel"><a xlink:href="dir_000004_000000.html" target="_top" xlink:title="1">
<text text-anchor="middle" x="105.339" y="-47.199" font-family="Helvetica,sans-Serif" font-size="10.00">1</text>
</a>
</g>
</g>
<!-- dir_6cc8961f7f77054fb84f95c9f23f5ca0 -->
<g id="node4" class="node"><title>dir_6cc8961f7f77054fb84f95c9f23f5ca0</title>
<g id="a_node4"><a xlink:href="dir_6cc8961f7f77054fb84f95c9f23f5ca0.html" target="_top" xlink:title="string">
<polygon fill="none" stroke="black" points="198,-36 144,-36 144,-0 198,-0 198,-36"/>
<text text-anchor="middle" x="171" y="-15.5" font-family="Helvetica,sans-Serif" font-size="10.00">string</text>
</a>
</g>
</g>
<!-- dir_fc4c7f03e1a69a98c370fae55a743828&#45;&gt;dir_6cc8961f7f77054fb84f95c9f23f5ca0 -->
<g id="edge3" class="edge"><title>dir_fc4c7f03e1a69a98c370fae55a743828&#45;&gt;dir_6cc8961f7f77054fb84f95c9f23f5ca0</title>
<path fill="none" stroke="black" d="M116.798,-71.6966C125.604,-63.135 136.382,-52.6562 146.001,-43.3045"/>
<polygon fill="black" stroke="black" points="148.677,-45.5846 153.407,-36.1043 143.797,-40.5657 148.677,-45.5846"/>
<g id="a_edge3&#45;headlabel"><a xlink:href="dir_000004_000005.html" target="_top" xlink:title="8">
<text text-anchor="middle" x="148.079" y="-47.6261" font-family="Helvetica,sans-Serif" font-size="10.00">8</text>
</a>
</g>
</g>
</g>
</svg>
