<?xml version="1.0" encoding="UTF-8" standalone="no"?>
<!DOCTYPE svg PUBLIC "-//W3C//DTD SVG 1.1//EN"
 "http://www.w3.org/Graphics/SVG/1.1/DTD/svg11.dtd">
<!-- Generated by graphviz version 2.38.0 (20140413.2041)
 -->
<!-- Title: modules Pages: 1 -->
<svg width="382pt" height="276pt"
 viewBox="0.00 0.00 382.00 276.00" xmlns="http://www.w3.org/2000/svg" xmlns:xlink="http://www.w3.org/1999/xlink">
<g id="graph0" class="graph" transform="scale(1 1) rotate(0) translate(4 272)">
<title>modules</title>
<g id="clust1" class="cluster"><title>clusterdir_e05d7e2b1ecd646af5bb94391405f3b5</title>
<g id="a_clust1"><a xlink:href="dir_e05d7e2b1ecd646af5bb94391405f3b5.html" target="_top">
<polygon fill="#eeeeff" stroke="black" points="8,-136 8,-260 366,-260 366,-136 8,-136"/>
</a>
</g>
</g>
<!-- dir_e05d7e2b1ecd646af5bb94391405f3b5 -->
<g id="node1" class="node"><title>dir_e05d7e2b1ecd646af5bb94391405f3b5</title>
<text text-anchor="middle" x="331" y="-231.5" font-family="Helvetica,sans-Serif" font-size="10.00">modules</text>
</g>
<!-- dir_5087f98289ded75615a9ee10240e917e -->
<g id="node2" class="node"><title>dir_5087f98289ded75615a9ee10240e917e</title>
<g id="a_node2"><a xlink:href="dir_5087f98289ded75615a9ee10240e917e.html" target="_top" xlink:title="fun">
<polygon fill="white" stroke="black" points="70,-252 16,-252 16,-216 70,-216 70,-252"/>
<text text-anchor="middle" x="43" y="-231.5" font-family="Helvetica,sans-Serif" font-size="10.00">fun</text>
</a>
</g>
</g>
<!-- dir_7368b5dce415165684673970f77b1595 -->
<g id="node5" class="node"><title>dir_7368b5dce415165684673970f77b1595</title>
<g id="a_node5"><a xlink:href="dir_7368b5dce415165684673970f77b1595.html" target="_top" xlink:title="web">
<polygon fill="white" stroke="black" points="231,-180 177,-180 177,-144 231,-144 231,-180"/>
<text text-anchor="middle" x="204" y="-159.5" font-family="Helvetica,sans-Serif" font-size="10.00">web</text>
</a>
</g>
</g>
<!-- dir_5087f98289ded75615a9ee10240e917e&#45;&gt;dir_7368b5dce415165684673970f77b1595 -->
<g id="edge8" class="edge"><title>dir_5087f98289ded75615a9ee10240e917e&#45;&gt;dir_7368b5dce415165684673970f77b1595</title>
<path fill="none" stroke="black" d="M70.0729,-220.073C73.0771,-218.681 76.0983,-217.3 79,-216 108.437,-202.816 142.118,-188.583 167.096,-178.19"/>
<polygon fill="black" stroke="black" points="168.658,-181.331 176.553,-174.266 165.975,-174.866 168.658,-181.331"/>
<g id="a_edge8&#45;headlabel"><a xlink:href="dir_000003_000008.html" target="_top" xlink:title="1">
<text text-anchor="middle" x="166.426" y="-182.832" font-family="Helvetica,sans-Serif" font-size="10.00">1</text>
</a>
</g>
</g>
<!-- dir_68267d1309a1af8e8297ef4c3efbcdba -->
<g id="node7" class="node"><title>dir_68267d1309a1af8e8297ef4c3efbcdba</title>
<g id="a_node7"><a xlink:href="dir_68267d1309a1af8e8297ef4c3efbcdba.html" target="_top" xlink:title="src">
<polygon fill="none" stroke="red" points="176,-108 122,-108 122,-72 176,-72 176,-108"/>
<text text-anchor="middle" x="149" y="-87.5" font-family="Helvetica,sans-Serif" font-size="10.00">src</text>
</a>
</g>
</g>
<!-- dir_5087f98289ded75615a9ee10240e917e&#45;&gt;dir_68267d1309a1af8e8297ef4c3efbcdba -->
<g id="edge7" class="edge"><title>dir_5087f98289ded75615a9ee10240e917e&#45;&gt;dir_68267d1309a1af8e8297ef4c3efbcdba</title>
<path fill="none" stroke="black" d="M55.7861,-215.871C74.2497,-191.137 108.509,-145.242 129.956,-116.512"/>
<polygon fill="black" stroke="black" points="132.991,-118.296 136.169,-108.189 127.382,-114.109 132.991,-118.296"/>
<g id="a_edge7&#45;headlabel"><a xlink:href="dir_000003_000010.html" target="_top" xlink:title="2">
<text text-anchor="middle" x="133.116" y="-120.375" font-family="Helvetica,sans-Serif" font-size="10.00">2</text>
</a>
</g>
</g>
<!-- dir_5f76f6d623a73983c49c448b949abeec -->
<g id="node3" class="node"><title>dir_5f76f6d623a73983c49c448b949abeec</title>
<g id="a_node3"><a xlink:href="dir_5f76f6d623a73983c49c448b949abeec.html" target="_top" xlink:title="irc">
<polygon fill="white" stroke="red" points="286,-252 232,-252 232,-216 286,-216 286,-252"/>
<text text-anchor="middle" x="259" y="-231.5" font-family="Helvetica,sans-Serif" font-size="10.00">irc</text>
</a>
</g>
</g>
<!-- dir_5f76f6d623a73983c49c448b949abeec&#45;&gt;dir_68267d1309a1af8e8297ef4c3efbcdba -->
<g id="edge3" class="edge"><title>dir_5f76f6d623a73983c49c448b949abeec&#45;&gt;dir_68267d1309a1af8e8297ef4c3efbcdba</title>
<path fill="none" stroke="black" d="M231.564,-220.119C207.918,-208.484 176.312,-191.475 168,-180 155.001,-162.054 150.542,-137.058 149.168,-118.123"/>
<polygon fill="black" stroke="black" points="152.66,-117.862 148.68,-108.043 145.668,-118.201 152.66,-117.862"/>
<g id="a_edge3&#45;headlabel"><a xlink:href="dir_000004_000010.html" target="_top" xlink:title="13">
<text text-anchor="middle" x="155.669" y="-118.816" font-family="Helvetica,sans-Serif" font-size="10.00">13</text>
</a>
</g>
</g>
<!-- dir_4fef79e7177ba769987a8da36c892c5f -->
<g id="node8" class="node"><title>dir_4fef79e7177ba769987a8da36c892c5f</title>
<g id="a_node8"><a xlink:href="dir_4fef79e7177ba769987a8da36c892c5f.html" target="_top" xlink:title="build">
<polygon fill="none" stroke="red" points="231,-36 177,-36 177,-0 231,-0 231,-36"/>
<text text-anchor="middle" x="204" y="-15.5" font-family="Helvetica,sans-Serif" font-size="10.00">build</text>
</a>
</g>
</g>
<!-- dir_5f76f6d623a73983c49c448b949abeec&#45;&gt;dir_4fef79e7177ba769987a8da36c892c5f -->
<g id="edge4" class="edge"><title>dir_5f76f6d623a73983c49c448b949abeec&#45;&gt;dir_4fef79e7177ba769987a8da36c892c5f</title>
<path fill="none" stroke="black" d="M256.178,-215.708C252.866,-196.212 246.936,-163.629 240,-136 232.157,-104.757 220.981,-69.4962 213.169,-45.9272"/>
<polygon fill="black" stroke="black" points="216.434,-44.6563 209.943,-36.2829 209.796,-46.8767 216.434,-44.6563"/>
<g id="a_edge4&#45;headlabel"><a xlink:href="dir_000004_000000.html" target="_top" xlink:title="1">
<text text-anchor="middle" x="220.267" y="-44.6647" font-family="Helvetica,sans-Serif" font-size="10.00">1</text>
</a>
</g>
</g>
<!-- dir_3ad7988d68c450b0699ef45c29314cc0 -->
<g id="node4" class="node"><title>dir_3ad7988d68c450b0699ef45c29314cc0</title>
<g id="a_node4"><a xlink:href="dir_3ad7988d68c450b0699ef45c29314cc0.html" target="_top" xlink:title="posix">
<polygon fill="white" stroke="black" points="142,-252 88,-252 88,-216 142,-216 142,-252"/>
<text text-anchor="middle" x="115" y="-231.5" font-family="Helvetica,sans-Serif" font-size="10.00">posix</text>
</a>
</g>
</g>
<!-- dir_7368b5dce415165684673970f77b1595&#45;&gt;dir_68267d1309a1af8e8297ef4c3efbcdba -->
<g id="edge5" class="edge"><title>dir_7368b5dce415165684673970f77b1595&#45;&gt;dir_68267d1309a1af8e8297ef4c3efbcdba</title>
<path fill="none" stroke="black" d="M190.404,-143.697C183.877,-135.389 175.932,-125.277 168.753,-116.141"/>
<polygon fill="black" stroke="black" points="171.369,-113.805 162.439,-108.104 165.865,-118.13 171.369,-113.805"/>
<g id="a_edge5&#45;headlabel"><a xlink:href="dir_000008_000010.html" target="_top" xlink:title="4">
<text text-anchor="middle" x="175.823" y="-112.377" font-family="Helvetica,sans-Serif" font-size="10.00">4</text>
</a>
</g>
</g>
<!-- dir_7368b5dce415165684673970f77b1595&#45;&gt;dir_4fef79e7177ba769987a8da36c892c5f -->
<g id="edge6" class="edge"><title>dir_7368b5dce415165684673970f77b1595&#45;&gt;dir_4fef79e7177ba769987a8da36c892c5f</title>
<path fill="none" stroke="black" d="M204,-143.871C204,-119.67 204,-75.2108 204,-46.3932"/>
<polygon fill="black" stroke="black" points="207.5,-46.1892 204,-36.1893 200.5,-46.1893 207.5,-46.1892"/>
<g id="a_edge6&#45;headlabel"><a xlink:href="dir_000008_000000.html" target="_top" xlink:title="1">
<text text-anchor="middle" x="210.339" y="-47.2839" font-family="Helvetica,sans-Serif" font-size="10.00">1</text>
</a>
</g>
</g>
<!-- dir_c23c7c018125c683a4e4b8b66537893f -->
<g id="node6" class="node"><title>dir_c23c7c018125c683a4e4b8b66537893f</title>
<g id="a_node6"><a xlink:href="dir_c23c7c018125c683a4e4b8b66537893f.html" target="_top" xlink:title="xonotic">
<polygon fill="white" stroke="black" points="214,-252 160,-252 160,-216 214,-216 214,-252"/>
<text text-anchor="middle" x="187" y="-231.5" font-family="Helvetica,sans-Serif" font-size="10.00">xonotic</text>
</a>
</g>
</g>
<!-- dir_c23c7c018125c683a4e4b8b66537893f&#45;&gt;dir_68267d1309a1af8e8297ef4c3efbcdba -->
<g id="edge2" class="edge"><title>dir_c23c7c018125c683a4e4b8b66537893f&#45;&gt;dir_68267d1309a1af8e8297ef4c3efbcdba</title>
<path fill="none" stroke="black" d="M163.248,-215.91C152.447,-206.651 140.803,-194.2 135,-180 126.813,-159.965 131.567,-135.585 137.664,-117.412"/>
<polygon fill="black" stroke="black" points="140.951,-118.615 141.116,-108.021 134.38,-116.2 140.951,-118.615"/>
<g id="a_edge2&#45;headlabel"><a xlink:href="dir_000009_000010.html" target="_top" xlink:title="2">
<text text-anchor="middle" x="142.375" y="-120.468" font-family="Helvetica,sans-Serif" font-size="10.00">2</text>
</a>
</g>
</g>
<!-- dir_68267d1309a1af8e8297ef4c3efbcdba&#45;&gt;dir_4fef79e7177ba769987a8da36c892c5f -->
<g id="edge1" class="edge"><title>dir_68267d1309a1af8e8297ef4c3efbcdba&#45;&gt;dir_4fef79e7177ba769987a8da36c892c5f</title>
<path fill="none" stroke="black" d="M162.596,-71.6966C169.123,-63.3893 177.068,-53.2771 184.247,-44.1407"/>
<polygon fill="black" stroke="black" points="187.135,-46.1299 190.561,-36.1043 181.631,-41.8051 187.135,-46.1299"/>
<g id="a_edge1&#45;headlabel"><a xlink:href="dir_000010_000000.html" target="_top" xlink:title="2">
<text text-anchor="middle" x="187.147" y="-48.2106" font-family="Helvetica,sans-Serif" font-size="10.00">2</text>
</a>
</g>
</g>
</g>
</svg>
