<?xml version="1.0" encoding="UTF-8" standalone="no"?>
<!DOCTYPE svg PUBLIC "-//W3C//DTD SVG 1.1//EN"
 "http://www.w3.org/Graphics/SVG/1.1/DTD/svg11.dtd">
<!-- Generated by graphviz version 2.38.0 (20140413.2041)
 -->
<!-- Title: src Pages: 1 -->
<svg width="169pt" height="292pt"
 viewBox="0.00 0.00 169.00 292.00" xmlns="http://www.w3.org/2000/svg" xmlns:xlink="http://www.w3.org/1999/xlink">
<g id="graph0" class="graph" transform="scale(1 1) rotate(0) translate(4 288)">
<title>src</title>
<g id="clust1" class="cluster"><title>clusterdir_68267d1309a1af8e8297ef4c3efbcdba</title>
<g id="a_clust1"><a xlink:href="dir_68267d1309a1af8e8297ef4c3efbcdba.html" target="_top">
<polygon fill="#eeeeff" stroke="black" points="8,-8 8,-276 98,-276 98,-8 8,-8"/>
</a>
</g>
</g>
<!-- dir_68267d1309a1af8e8297ef4c3efbcdba -->
<g id="node1" class="node"><title>dir_68267d1309a1af8e8297ef4c3efbcdba</title>
<text text-anchor="middle" x="62" y="-247.5" font-family="Helvetica,sans-Serif" font-size="10.00">src</text>
</g>
<!-- dir_1d1769d006da3fe19c8ee5fe16b8d503 -->
<g id="node2" class="node"><title>dir_1d1769d006da3fe19c8ee5fe16b8d503</title>
<g id="a_node2"><a xlink:href="dir_1d1769d006da3fe19c8ee5fe16b8d503.html" target="_top" xlink:title="handler">
<polygon fill="white" stroke="black" points="89,-196 35,-196 35,-160 89,-160 89,-196"/>
<text text-anchor="middle" x="62" y="-175.5" font-family="Helvetica,sans-Serif" font-size="10.00">handler</text>
</a>
</g>
</g>
<!-- dir_68267d1309a1af8e8297ef4c3efbcdba&#45;&gt;dir_1d1769d006da3fe19c8ee5fe16b8d503 -->
<g id="edge2" class="edge"><title>dir_68267d1309a1af8e8297ef4c3efbcdba&#45;&gt;dir_1d1769d006da3fe19c8ee5fe16b8d503</title>
<path fill="none" stroke="black" d="M62,-231.697C62,-223.983 62,-214.712 62,-206.112"/>
<polygon fill="black" stroke="black" points="65.5001,-206.104 62,-196.104 58.5001,-206.104 65.5001,-206.104"/>
<g id="a_edge2&#45;headlabel"><a xlink:href="dir_000002_000003.html" target="_top" xlink:title="1">
<text text-anchor="middle" x="68.3393" y="-207.199" font-family="Helvetica,sans-Serif" font-size="10.00">1</text>
</a>
</g>
</g>
<!-- dir_4fef79e7177ba769987a8da36c892c5f -->
<g id="node5" class="node"><title>dir_4fef79e7177ba769987a8da36c892c5f</title>
<g id="a_node5"><a xlink:href="dir_4fef79e7177ba769987a8da36c892c5f.html" target="_top" xlink:title="build">
<polygon fill="none" stroke="red" points="161,-196 107,-196 107,-160 161,-160 161,-196"/>
<text text-anchor="middle" x="134" y="-175.5" font-family="Helvetica,sans-Serif" font-size="10.00">build</text>
</a>
</g>
</g>
<!-- dir_68267d1309a1af8e8297ef4c3efbcdba&#45;&gt;dir_4fef79e7177ba769987a8da36c892c5f -->
<g id="edge1" class="edge"><title>dir_68267d1309a1af8e8297ef4c3efbcdba&#45;&gt;dir_4fef79e7177ba769987a8da36c892c5f</title>
<path fill="none" stroke="black" d="M79.7978,-231.697C88.604,-223.135 99.3821,-212.656 109.001,-203.304"/>
<polygon fill="black" stroke="black" points="111.677,-205.585 116.407,-196.104 106.797,-200.566 111.677,-205.585"/>
<g id="a_edge1&#45;headlabel"><a xlink:href="dir_000002_000000.html" target="_top" xlink:title="1">
<text text-anchor="middle" x="111.079" y="-207.626" font-family="Helvetica,sans-Serif" font-size="10.00">1</text>
</a>
</g>
</g>
<!-- dir_fc4c7f03e1a69a98c370fae55a743828 -->
<g id="node3" class="node"><title>dir_fc4c7f03e1a69a98c370fae55a743828</title>
<g id="a_node3"><a xlink:href="dir_fc4c7f03e1a69a98c370fae55a743828.html" target="_top" xlink:title="network">
<polygon fill="white" stroke="black" points="70,-124 16,-124 16,-88 70,-88 70,-124"/>
<text text-anchor="middle" x="43" y="-103.5" font-family="Helvetica,sans-Serif" font-size="10.00">network</text>
</a>
</g>
</g>
<!-- dir_1d1769d006da3fe19c8ee5fe16b8d503&#45;&gt;dir_fc4c7f03e1a69a98c370fae55a743828 -->
<g id="edge4" class="edge"><title>dir_1d1769d006da3fe19c8ee5fe16b8d503&#45;&gt;dir_fc4c7f03e1a69a98c370fae55a743828</title>
<path fill="none" stroke="black" d="M57.3034,-159.697C55.1866,-151.898 52.638,-142.509 50.2822,-133.829"/>
<polygon fill="black" stroke="black" points="53.64,-132.838 47.6426,-124.104 46.8844,-134.672 53.64,-132.838"/>
<g id="a_edge4&#45;headlabel"><a xlink:href="dir_000003_000004.html" target="_top" xlink:title="2">
<text text-anchor="middle" x="57.3216" y="-133.064" font-family="Helvetica,sans-Serif" font-size="10.00">2</text>
</a>
</g>
</g>
<!-- dir_6cc8961f7f77054fb84f95c9f23f5ca0 -->
<g id="node4" class="node"><title>dir_6cc8961f7f77054fb84f95c9f23f5ca0</title>
<g id="a_node4"><a xlink:href="dir_6cc8961f7f77054fb84f95c9f23f5ca0.html" target="_top" xlink:title="string">
<polygon fill="white" stroke="black" points="80,-52 26,-52 26,-16 80,-16 80,-52"/>
<text text-anchor="middle" x="53" y="-31.5" font-family="Helvetica,sans-Serif" font-size="10.00">string</text>
</a>
</g>
</g>
<!-- dir_1d1769d006da3fe19c8ee5fe16b8d503&#45;&gt;dir_6cc8961f7f77054fb84f95c9f23f5ca0 -->
<g id="edge3" class="edge"><title>dir_1d1769d006da3fe19c8ee5fe16b8d503&#45;&gt;dir_6cc8961f7f77054fb84f95c9f23f5ca0</title>
<path fill="none" stroke="black" d="M69.5231,-159.854C76.423,-141.87 84.761,-112.824 79,-88 76.9017,-78.9586 73.0342,-69.6814 68.9119,-61.4668"/>
<polygon fill="black" stroke="black" points="71.8554,-59.5496 64.0462,-52.3894 65.6858,-62.8566 71.8554,-59.5496"/>
<g id="a_edge3&#45;headlabel"><a xlink:href="dir_000003_000005.html" target="_top" xlink:title="3">
<text text-anchor="middle" x="76.056" y="-58.8764" font-family="Helvetica,sans-Serif" font-size="10.00">3</text>
</a>
</g>
</g>
<!-- dir_fc4c7f03e1a69a98c370fae55a743828&#45;&gt;dir_6cc8961f7f77054fb84f95c9f23f5ca0 -->
<g id="edge5" class="edge"><title>dir_fc4c7f03e1a69a98c370fae55a743828&#45;&gt;dir_6cc8961f7f77054fb84f95c9f23f5ca0</title>
<path fill="none" stroke="black" d="M45.4719,-87.6966C46.5739,-79.9827 47.8982,-70.7125 49.1268,-62.1124"/>
<polygon fill="black" stroke="black" points="52.607,-62.4988 50.5565,-52.1043 45.6774,-61.5088 52.607,-62.4988"/>
<g id="a_edge5&#45;headlabel"><a xlink:href="dir_000004_000005.html" target="_top" xlink:title="7">
<text text-anchor="middle" x="54.9095" y="-63.9588" font-family="Helvetica,sans-Serif" font-size="10.00">7</text>
</a>
</g>
</g>
</g>
</svg>
