<?xml version="1.0" encoding="UTF-8" standalone="no"?>
<!DOCTYPE svg PUBLIC "-//W3C//DTD SVG 1.1//EN"
 "http://www.w3.org/Graphics/SVG/1.1/DTD/svg11.dtd">
<!-- Generated by graphviz version 2.38.0 (20140413.2041)
 -->
<!-- Title: src Pages: 1 -->
<svg width="241pt" height="364pt"
 viewBox="0.00 0.00 241.00 364.00" xmlns="http://www.w3.org/2000/svg" xmlns:xlink="http://www.w3.org/1999/xlink">
<g id="graph0" class="graph" transform="scale(1 1) rotate(0) translate(4 360)">
<title>src</title>
<g id="clust1" class="cluster"><title>clusterdir_68267d1309a1af8e8297ef4c3efbcdba</title>
<g id="a_clust1"><a xlink:href="dir_68267d1309a1af8e8297ef4c3efbcdba.html" target="_top">
<polygon fill="#eeeeff" stroke="black" points="8,-8 8,-348 170,-348 170,-8 8,-8"/>
</a>
</g>
</g>
<!-- dir_68267d1309a1af8e8297ef4c3efbcdba -->
<g id="node1" class="node"><title>dir_68267d1309a1af8e8297ef4c3efbcdba</title>
<text text-anchor="middle" x="134" y="-319.5" font-family="Helvetica,sans-Serif" font-size="10.00">src</text>
</g>
<!-- dir_1d1769d006da3fe19c8ee5fe16b8d503 -->
<g id="node2" class="node"><title>dir_1d1769d006da3fe19c8ee5fe16b8d503</title>
<g id="a_node2"><a xlink:href="dir_1d1769d006da3fe19c8ee5fe16b8d503.html" target="_top" xlink:title="handler">
<polygon fill="white" stroke="black" points="161,-268 107,-268 107,-232 161,-232 161,-268"/>
<text text-anchor="middle" x="134" y="-247.5" font-family="Helvetica,sans-Serif" font-size="10.00">handler</text>
</a>
</g>
</g>
<!-- dir_68267d1309a1af8e8297ef4c3efbcdba&#45;&gt;dir_1d1769d006da3fe19c8ee5fe16b8d503 -->
<g id="edge2" class="edge"><title>dir_68267d1309a1af8e8297ef4c3efbcdba&#45;&gt;dir_1d1769d006da3fe19c8ee5fe16b8d503</title>
<path fill="none" stroke="black" d="M134,-303.697C134,-295.983 134,-286.712 134,-278.112"/>
<polygon fill="black" stroke="black" points="137.5,-278.104 134,-268.104 130.5,-278.104 137.5,-278.104"/>
<g id="a_edge2&#45;headlabel"><a xlink:href="dir_000013_000014.html" target="_top" xlink:title="3">
<text text-anchor="middle" x="140.339" y="-279.199" font-family="Helvetica,sans-Serif" font-size="10.00">3</text>
</a>
</g>
</g>
<!-- dir_4fef79e7177ba769987a8da36c892c5f -->
<g id="node7" class="node"><title>dir_4fef79e7177ba769987a8da36c892c5f</title>
<g id="a_node7"><a xlink:href="dir_4fef79e7177ba769987a8da36c892c5f.html" target="_top" xlink:title="build">
<polygon fill="none" stroke="red" points="233,-268 179,-268 179,-232 233,-232 233,-268"/>
<text text-anchor="middle" x="206" y="-247.5" font-family="Helvetica,sans-Serif" font-size="10.00">build</text>
</a>
</g>
</g>
<!-- dir_68267d1309a1af8e8297ef4c3efbcdba&#45;&gt;dir_4fef79e7177ba769987a8da36c892c5f -->
<g id="edge1" class="edge"><title>dir_68267d1309a1af8e8297ef4c3efbcdba&#45;&gt;dir_4fef79e7177ba769987a8da36c892c5f</title>
<path fill="none" stroke="black" d="M151.798,-303.697C160.604,-295.135 171.382,-284.656 181.001,-275.304"/>
<polygon fill="black" stroke="black" points="183.677,-277.585 188.407,-268.104 178.797,-272.566 183.677,-277.585"/>
<g id="a_edge1&#45;headlabel"><a xlink:href="dir_000013_000000.html" target="_top" xlink:title="2">
<text text-anchor="middle" x="183.079" y="-279.626" font-family="Helvetica,sans-Serif" font-size="10.00">2</text>
</a>
</g>
</g>
<!-- dir_fc4c7f03e1a69a98c370fae55a743828 -->
<g id="node3" class="node"><title>dir_fc4c7f03e1a69a98c370fae55a743828</title>
<g id="a_node3"><a xlink:href="dir_fc4c7f03e1a69a98c370fae55a743828.html" target="_top" xlink:title="network">
<polygon fill="white" stroke="black" points="102,-196 48,-196 48,-160 102,-160 102,-196"/>
<text text-anchor="middle" x="75" y="-175.5" font-family="Helvetica,sans-Serif" font-size="10.00">network</text>
</a>
</g>
</g>
<!-- dir_1d1769d006da3fe19c8ee5fe16b8d503&#45;&gt;dir_fc4c7f03e1a69a98c370fae55a743828 -->
<g id="edge6" class="edge"><title>dir_1d1769d006da3fe19c8ee5fe16b8d503&#45;&gt;dir_fc4c7f03e1a69a98c370fae55a743828</title>
<path fill="none" stroke="black" d="M119.416,-231.697C112.342,-223.305 103.717,-213.07 95.9546,-203.861"/>
<polygon fill="black" stroke="black" points="98.5375,-201.495 89.4165,-196.104 93.1851,-206.006 98.5375,-201.495"/>
<g id="a_edge6&#45;headlabel"><a xlink:href="dir_000014_000015.html" target="_top" xlink:title="1">
<text text-anchor="middle" x="103.025" y="-199.914" font-family="Helvetica,sans-Serif" font-size="10.00">1</text>
</a>
</g>
</g>
<!-- dir_6cc8961f7f77054fb84f95c9f23f5ca0 -->
<g id="node4" class="node"><title>dir_6cc8961f7f77054fb84f95c9f23f5ca0</title>
<g id="a_node4"><a xlink:href="dir_6cc8961f7f77054fb84f95c9f23f5ca0.html" target="_top" xlink:title="string">
<polygon fill="white" stroke="black" points="162,-124 108,-124 108,-88 162,-88 162,-124"/>
<text text-anchor="middle" x="135" y="-103.5" font-family="Helvetica,sans-Serif" font-size="10.00">string</text>
</a>
</g>
</g>
<!-- dir_1d1769d006da3fe19c8ee5fe16b8d503&#45;&gt;dir_6cc8961f7f77054fb84f95c9f23f5ca0 -->
<g id="edge5" class="edge"><title>dir_1d1769d006da3fe19c8ee5fe16b8d503&#45;&gt;dir_6cc8961f7f77054fb84f95c9f23f5ca0</title>
<path fill="none" stroke="black" d="M134.121,-231.871C134.291,-207.67 134.604,-163.211 134.807,-134.393"/>
<polygon fill="black" stroke="black" points="138.308,-134.214 134.879,-124.189 131.309,-134.164 138.308,-134.214"/>
<g id="a_edge5&#45;headlabel"><a xlink:href="dir_000014_000016.html" target="_top" xlink:title="2">
<text text-anchor="middle" x="141.122" y="-135.328" font-family="Helvetica,sans-Serif" font-size="10.00">2</text>
</a>
</g>
</g>
<!-- dir_fc4c7f03e1a69a98c370fae55a743828&#45;&gt;dir_6cc8961f7f77054fb84f95c9f23f5ca0 -->
<g id="edge9" class="edge"><title>dir_fc4c7f03e1a69a98c370fae55a743828&#45;&gt;dir_6cc8961f7f77054fb84f95c9f23f5ca0</title>
<path fill="none" stroke="black" d="M89.8315,-159.697C97.0247,-151.305 105.797,-141.07 113.69,-131.861"/>
<polygon fill="black" stroke="black" points="116.489,-133.975 120.339,-124.104 111.174,-129.419 116.489,-133.975"/>
<g id="a_edge9&#45;headlabel"><a xlink:href="dir_000015_000016.html" target="_top" xlink:title="5">
<text text-anchor="middle" x="116.305" y="-136.052" font-family="Helvetica,sans-Serif" font-size="10.00">5</text>
</a>
</g>
</g>
<!-- dir_798ee6f4f5cd9c6410c07a649b7662ec -->
<g id="node5" class="node"><title>dir_798ee6f4f5cd9c6410c07a649b7662ec</title>
<g id="a_node5"><a xlink:href="dir_798ee6f4f5cd9c6410c07a649b7662ec.html" target="_top" xlink:title="time">
<polygon fill="white" stroke="black" points="162,-52 108,-52 108,-16 162,-16 162,-52"/>
<text text-anchor="middle" x="135" y="-31.5" font-family="Helvetica,sans-Serif" font-size="10.00">time</text>
</a>
</g>
</g>
<!-- dir_fc4c7f03e1a69a98c370fae55a743828&#45;&gt;dir_798ee6f4f5cd9c6410c07a649b7662ec -->
<g id="edge7" class="edge"><title>dir_fc4c7f03e1a69a98c370fae55a743828&#45;&gt;dir_798ee6f4f5cd9c6410c07a649b7662ec</title>
<path fill="none" stroke="black" d="M54.6065,-159.912C35.4637,-141.726 11.8657,-112.285 27,-88 42.437,-63.2289 73.2031,-49.7086 97.9625,-42.5375"/>
<polygon fill="black" stroke="black" points="99.0337,-45.8743 107.799,-39.9221 97.2349,-39.1094 99.0337,-45.8743"/>
<g id="a_edge7&#45;headlabel"><a xlink:href="dir_000015_000017.html" target="_top" xlink:title="1">
<text text-anchor="middle" x="96.2894" y="-47.0419" font-family="Helvetica,sans-Serif" font-size="10.00">1</text>
</a>
</g>
</g>
<!-- dir_8b0164eb0fb74115683f9812cb2f78f0 -->
<g id="node6" class="node"><title>dir_8b0164eb0fb74115683f9812cb2f78f0</title>
<g id="a_node6"><a xlink:href="dir_8b0164eb0fb74115683f9812cb2f78f0.html" target="_top" xlink:title="user">
<polygon fill="white" stroke="black" points="90,-124 36,-124 36,-88 90,-88 90,-124"/>
<text text-anchor="middle" x="63" y="-103.5" font-family="Helvetica,sans-Serif" font-size="10.00">user</text>
</a>
</g>
</g>
<!-- dir_fc4c7f03e1a69a98c370fae55a743828&#45;&gt;dir_8b0164eb0fb74115683f9812cb2f78f0 -->
<g id="edge8" class="edge"><title>dir_fc4c7f03e1a69a98c370fae55a743828&#45;&gt;dir_8b0164eb0fb74115683f9812cb2f78f0</title>
<path fill="none" stroke="black" d="M72.0337,-159.697C70.7113,-151.983 69.1221,-142.712 67.6478,-134.112"/>
<polygon fill="black" stroke="black" points="71.0716,-133.369 65.9322,-124.104 64.1722,-134.552 71.0716,-133.369"/>
<g id="a_edge8&#45;headlabel"><a xlink:href="dir_000015_000018.html" target="_top" xlink:title="3">
<text text-anchor="middle" x="74.4773" y="-133.932" font-family="Helvetica,sans-Serif" font-size="10.00">3</text>
</a>
</g>
</g>
<!-- dir_6cc8961f7f77054fb84f95c9f23f5ca0&#45;&gt;dir_798ee6f4f5cd9c6410c07a649b7662ec -->
<g id="edge4" class="edge"><title>dir_6cc8961f7f77054fb84f95c9f23f5ca0&#45;&gt;dir_798ee6f4f5cd9c6410c07a649b7662ec</title>
<path fill="none" stroke="black" d="M129.084,-87.6966C128.289,-79.9827 128.062,-70.7125 128.405,-62.1124"/>
<polygon fill="black" stroke="black" points="131.898,-62.3243 129.105,-52.1043 124.915,-61.8356 131.898,-62.3243"/>
<g id="a_edge4&#45;headlabel"><a xlink:href="dir_000016_000017.html" target="_top" xlink:title="1">
<text text-anchor="middle" x="134.48" y="-63.6083" font-family="Helvetica,sans-Serif" font-size="10.00">1</text>
</a>
</g>
</g>
<!-- dir_798ee6f4f5cd9c6410c07a649b7662ec&#45;&gt;dir_6cc8961f7f77054fb84f95c9f23f5ca0 -->
<g id="edge3" class="edge"><title>dir_798ee6f4f5cd9c6410c07a649b7662ec&#45;&gt;dir_6cc8961f7f77054fb84f95c9f23f5ca0</title>
<path fill="none" stroke="black" d="M140.895,-52.1043C141.701,-59.7913 141.937,-69.0537 141.604,-77.6651"/>
<polygon fill="black" stroke="black" points="138.109,-77.4805 140.916,-87.6966 145.092,-77.9597 138.109,-77.4805"/>
<g id="a_edge3&#45;headlabel"><a xlink:href="dir_000017_000016.html" target="_top" xlink:title="5">
<text text-anchor="middle" x="135.522" y="-71.2" font-family="Helvetica,sans-Serif" font-size="10.00">5</text>
</a>
</g>
</g>
</g>
</svg>
