<?xml version="1.0" encoding="UTF-8" standalone="no"?>
<!DOCTYPE svg PUBLIC "-//W3C//DTD SVG 1.1//EN"
 "http://www.w3.org/Graphics/SVG/1.1/DTD/svg11.dtd">
<!-- Generated by graphviz version 2.38.0 (20140413.2041)
 -->
<!-- Title: modules/fun Pages: 1 -->
<svg width="150pt" height="223pt"
 viewBox="0.00 0.00 150.00 223.00" xmlns="http://www.w3.org/2000/svg" xmlns:xlink="http://www.w3.org/1999/xlink">
<g id="graph0" class="graph" transform="scale(1 1) rotate(0) translate(4 219)">
<title>modules/fun</title>
<g id="clust1" class="cluster"><title>clusterdir_e05d7e2b1ecd646af5bb94391405f3b5</title>
<g id="a_clust1"><a xlink:href="dir_e05d7e2b1ecd646af5bb94391405f3b5.html" target="_top" xlink:title="modules">
<polygon fill="#ddddee" stroke="black" points="8,-136 8,-207 78,-207 78,-136 8,-136"/>
<text text-anchor="middle" x="43" y="-195" font-family="Helvetica,sans-Serif" font-size="10.00">modules</text>
</a>
</g>
</g>
<!-- dir_5087f98289ded75615a9ee10240e917e -->
<g id="node1" class="node"><title>dir_5087f98289ded75615a9ee10240e917e</title>
<g id="a_node1"><a xlink:href="dir_5087f98289ded75615a9ee10240e917e.html" target="_top" xlink:title="fun">
<polygon fill="#eeeeff" stroke="black" points="70,-180 16,-180 16,-144 70,-144 70,-180"/>
<text text-anchor="middle" x="43" y="-159.5" font-family="Helvetica,sans-Serif" font-size="10.00">fun</text>
</a>
</g>
</g>
<!-- dir_68267d1309a1af8e8297ef4c3efbcdba -->
<g id="node2" class="node"><title>dir_68267d1309a1af8e8297ef4c3efbcdba</title>
<g id="a_node2"><a xlink:href="dir_68267d1309a1af8e8297ef4c3efbcdba.html" target="_top" xlink:title="src">
<polygon fill="none" stroke="red" points="70,-36 16,-36 16,-0 70,-0 70,-36"/>
<text text-anchor="middle" x="43" y="-15.5" font-family="Helvetica,sans-Serif" font-size="10.00">src</text>
</a>
</g>
</g>
<!-- dir_5087f98289ded75615a9ee10240e917e&#45;&gt;dir_68267d1309a1af8e8297ef4c3efbcdba -->
<g id="edge3" class="edge"><title>dir_5087f98289ded75615a9ee10240e917e&#45;&gt;dir_68267d1309a1af8e8297ef4c3efbcdba</title>
<path fill="none" stroke="black" d="M27.3901,-143.774C19.6271,-134.03 11.0541,-121.184 7,-108 2.29721,-92.7067 2.29721,-87.2933 7,-72 10.0089,-62.2153 15.507,-52.6161 21.3157,-44.3336"/>
<polygon fill="black" stroke="black" points="24.1948,-46.3279 27.3901,-36.2264 18.5928,-42.1306 24.1948,-46.3279"/>
<g id="a_edge3&#45;headlabel"><a xlink:href="dir_000005_000013.html" target="_top" xlink:title="3">
<text text-anchor="middle" x="24.3117" y="-48.4071" font-family="Helvetica,sans-Serif" font-size="10.00">3</text>
</a>
</g>
</g>
<!-- dir_6d4da112a1331882b0b6514a341190a0 -->
<g id="node3" class="node"><title>dir_6d4da112a1331882b0b6514a341190a0</title>
<g id="a_node3"><a xlink:href="dir_6d4da112a1331882b0b6514a341190a0.html" target="_top" xlink:title="core">
<polygon fill="none" stroke="red" points="70,-108 16,-108 16,-72 70,-72 70,-108"/>
<text text-anchor="middle" x="43" y="-87.5" font-family="Helvetica,sans-Serif" font-size="10.00">core</text>
</a>
</g>
</g>
<!-- dir_5087f98289ded75615a9ee10240e917e&#45;&gt;dir_6d4da112a1331882b0b6514a341190a0 -->
<g id="edge4" class="edge"><title>dir_5087f98289ded75615a9ee10240e917e&#45;&gt;dir_6d4da112a1331882b0b6514a341190a0</title>
<path fill="none" stroke="black" d="M43,-143.697C43,-135.983 43,-126.712 43,-118.112"/>
<polygon fill="black" stroke="black" points="46.5001,-118.104 43,-108.104 39.5001,-118.104 46.5001,-118.104"/>
<g id="a_edge4&#45;headlabel"><a xlink:href="dir_000005_000003.html" target="_top" xlink:title="1">
<text text-anchor="middle" x="49.3393" y="-119.199" font-family="Helvetica,sans-Serif" font-size="10.00">1</text>
</a>
</g>
</g>
<!-- dir_7368b5dce415165684673970f77b1595 -->
<g id="node4" class="node"><title>dir_7368b5dce415165684673970f77b1595</title>
<g id="a_node4"><a xlink:href="dir_7368b5dce415165684673970f77b1595.html" target="_top" xlink:title="web">
<polygon fill="none" stroke="black" points="142,-108 88,-108 88,-72 142,-72 142,-108"/>
<text text-anchor="middle" x="115" y="-87.5" font-family="Helvetica,sans-Serif" font-size="10.00">web</text>
</a>
</g>
</g>
<!-- dir_5087f98289ded75615a9ee10240e917e&#45;&gt;dir_7368b5dce415165684673970f77b1595 -->
<g id="edge5" class="edge"><title>dir_5087f98289ded75615a9ee10240e917e&#45;&gt;dir_7368b5dce415165684673970f77b1595</title>
<path fill="none" stroke="black" d="M60.7978,-143.697C69.604,-135.135 80.3821,-124.656 90.0011,-115.304"/>
<polygon fill="black" stroke="black" points="92.6768,-117.585 97.407,-108.104 87.7972,-112.566 92.6768,-117.585"/>
<g id="a_edge5&#45;headlabel"><a xlink:href="dir_000005_000010.html" target="_top" xlink:title="1">
<text text-anchor="middle" x="92.0787" y="-119.626" font-family="Helvetica,sans-Serif" font-size="10.00">1</text>
</a>
</g>
</g>
<!-- dir_6d4da112a1331882b0b6514a341190a0&#45;&gt;dir_68267d1309a1af8e8297ef4c3efbcdba -->
<g id="edge1" class="edge"><title>dir_6d4da112a1331882b0b6514a341190a0&#45;&gt;dir_68267d1309a1af8e8297ef4c3efbcdba</title>
<path fill="none" stroke="black" d="M43,-71.6966C43,-63.9827 43,-54.7125 43,-46.1124"/>
<polygon fill="black" stroke="black" points="46.5001,-46.1043 43,-36.1043 39.5001,-46.1044 46.5001,-46.1043"/>
<g id="a_edge1&#45;headlabel"><a xlink:href="dir_000003_000013.html" target="_top" xlink:title="4">
<text text-anchor="middle" x="49.3393" y="-47.199" font-family="Helvetica,sans-Serif" font-size="10.00">4</text>
</a>
</g>
</g>
<!-- dir_7368b5dce415165684673970f77b1595&#45;&gt;dir_68267d1309a1af8e8297ef4c3efbcdba -->
<g id="edge2" class="edge"><title>dir_7368b5dce415165684673970f77b1595&#45;&gt;dir_68267d1309a1af8e8297ef4c3efbcdba</title>
<path fill="none" stroke="black" d="M97.2022,-71.6966C88.396,-63.135 77.6179,-52.6562 67.9989,-43.3045"/>
<polygon fill="black" stroke="black" points="70.2028,-40.5657 60.593,-36.1043 65.3232,-45.5846 70.2028,-40.5657"/>
<g id="a_edge2&#45;headlabel"><a xlink:href="dir_000010_000013.html" target="_top" xlink:title="5">
<text text-anchor="middle" x="74.7593" y="-38.5356" font-family="Helvetica,sans-Serif" font-size="10.00">5</text>
</a>
</g>
</g>
</g>
</svg>
