<?xml version="1.0" encoding="UTF-8" standalone="no"?>
<!DOCTYPE svg PUBLIC "-//W3C//DTD SVG 1.1//EN"
 "http://www.w3.org/Graphics/SVG/1.1/DTD/svg11.dtd">
<!-- Generated by graphviz version 2.38.0 (20140413.2041)
 -->
<!-- Title: src/handler Pages: 1 -->
<svg width="143pt" height="223pt"
 viewBox="0.00 0.00 143.00 223.00" xmlns="http://www.w3.org/2000/svg" xmlns:xlink="http://www.w3.org/1999/xlink">
<g id="graph0" class="graph" transform="scale(1 1) rotate(0) translate(4 219)">
<title>src/handler</title>
<g id="clust1" class="cluster"><title>clusterdir_68267d1309a1af8e8297ef4c3efbcdba</title>
<g id="a_clust1"><a xlink:href="dir_68267d1309a1af8e8297ef4c3efbcdba.html" target="_top" xlink:title="src">
<polygon fill="#ddddee" stroke="black" points="28,-136 28,-207 98,-207 98,-136 28,-136"/>
<text text-anchor="middle" x="63" y="-195" font-family="Helvetica,sans-Serif" font-size="10.00">src</text>
</a>
</g>
</g>
<!-- dir_1d1769d006da3fe19c8ee5fe16b8d503 -->
<g id="node1" class="node"><title>dir_1d1769d006da3fe19c8ee5fe16b8d503</title>
<g id="a_node1"><a xlink:href="dir_1d1769d006da3fe19c8ee5fe16b8d503.html" target="_top" xlink:title="handler">
<polygon fill="#eeeeff" stroke="black" points="90,-180 36,-180 36,-144 90,-144 90,-180"/>
<text text-anchor="middle" x="63" y="-159.5" font-family="Helvetica,sans-Serif" font-size="10.00">handler</text>
</a>
</g>
</g>
<!-- dir_4fef79e7177ba769987a8da36c892c5f -->
<g id="node2" class="node"><title>dir_4fef79e7177ba769987a8da36c892c5f</title>
<g id="a_node2"><a xlink:href="dir_4fef79e7177ba769987a8da36c892c5f.html" target="_top" xlink:title="build">
<polygon fill="none" stroke="red" points="54,-36 0,-36 0,-0 54,-0 54,-36"/>
<text text-anchor="middle" x="27" y="-15.5" font-family="Helvetica,sans-Serif" font-size="10.00">build</text>
</a>
</g>
</g>
<!-- dir_1d1769d006da3fe19c8ee5fe16b8d503&#45;&gt;dir_4fef79e7177ba769987a8da36c892c5f -->
<g id="edge1" class="edge"><title>dir_1d1769d006da3fe19c8ee5fe16b8d503&#45;&gt;dir_4fef79e7177ba769987a8da36c892c5f</title>
<path fill="none" stroke="black" d="M47.3901,-143.774C39.6271,-134.03 31.0541,-121.184 27,-108 20.8407,-87.9703 21.2074,-64.1845 22.9142,-46.2437"/>
<polygon fill="black" stroke="black" points="26.4071,-46.5055 24.0691,-36.1718 19.4526,-45.708 26.4071,-46.5055"/>
<g id="a_edge1&#45;headlabel"><a xlink:href="dir_000003_000000.html" target="_top" xlink:title="1">
<text text-anchor="middle" x="28.8185" y="-47.9001" font-family="Helvetica,sans-Serif" font-size="10.00">1</text>
</a>
</g>
</g>
<!-- dir_6cc8961f7f77054fb84f95c9f23f5ca0 -->
<g id="node3" class="node"><title>dir_6cc8961f7f77054fb84f95c9f23f5ca0</title>
<g id="a_node3"><a xlink:href="dir_6cc8961f7f77054fb84f95c9f23f5ca0.html" target="_top" xlink:title="string">
<polygon fill="none" stroke="black" points="135,-36 81,-36 81,-0 135,-0 135,-36"/>
<text text-anchor="middle" x="108" y="-15.5" font-family="Helvetica,sans-Serif" font-size="10.00">string</text>
</a>
</g>
</g>
<!-- dir_1d1769d006da3fe19c8ee5fe16b8d503&#45;&gt;dir_6cc8961f7f77054fb84f95c9f23f5ca0 -->
<g id="edge2" class="edge"><title>dir_1d1769d006da3fe19c8ee5fe16b8d503&#45;&gt;dir_6cc8961f7f77054fb84f95c9f23f5ca0</title>
<path fill="none" stroke="black" d="M78.0844,-143.597C85.6935,-133.803 94.287,-120.963 99,-108 106.197,-88.2055 108.294,-64.4057 108.675,-46.3998"/>
<polygon fill="black" stroke="black" points="112.176,-46.3006 108.724,-36.2838 105.176,-46.2667 112.176,-46.3006"/>
<g id="a_edge2&#45;headlabel"><a xlink:href="dir_000003_000005.html" target="_top" xlink:title="3">
<text text-anchor="middle" x="114.998" y="-47.4089" font-family="Helvetica,sans-Serif" font-size="10.00">3</text>
</a>
</g>
</g>
<!-- dir_fc4c7f03e1a69a98c370fae55a743828 -->
<g id="node4" class="node"><title>dir_fc4c7f03e1a69a98c370fae55a743828</title>
<g id="a_node4"><a xlink:href="dir_fc4c7f03e1a69a98c370fae55a743828.html" target="_top" xlink:title="network">
<polygon fill="none" stroke="black" points="90,-108 36,-108 36,-72 90,-72 90,-108"/>
<text text-anchor="middle" x="63" y="-87.5" font-family="Helvetica,sans-Serif" font-size="10.00">network</text>
</a>
</g>
</g>
<!-- dir_1d1769d006da3fe19c8ee5fe16b8d503&#45;&gt;dir_fc4c7f03e1a69a98c370fae55a743828 -->
<g id="edge3" class="edge"><title>dir_1d1769d006da3fe19c8ee5fe16b8d503&#45;&gt;dir_fc4c7f03e1a69a98c370fae55a743828</title>
<path fill="none" stroke="black" d="M63,-143.697C63,-135.983 63,-126.712 63,-118.112"/>
<polygon fill="black" stroke="black" points="66.5001,-118.104 63,-108.104 59.5001,-118.104 66.5001,-118.104"/>
<g id="a_edge3&#45;headlabel"><a xlink:href="dir_000003_000004.html" target="_top" xlink:title="4">
<text text-anchor="middle" x="69.3393" y="-119.199" font-family="Helvetica,sans-Serif" font-size="10.00">4</text>
</a>
</g>
</g>
<!-- dir_fc4c7f03e1a69a98c370fae55a743828&#45;&gt;dir_4fef79e7177ba769987a8da36c892c5f -->
<g id="edge4" class="edge"><title>dir_fc4c7f03e1a69a98c370fae55a743828&#45;&gt;dir_4fef79e7177ba769987a8da36c892c5f</title>
<path fill="none" stroke="black" d="M54.1011,-71.6966C50.0032,-63.7284 45.0512,-54.0995 40.5073,-45.2641"/>
<polygon fill="black" stroke="black" points="43.4826,-43.3965 35.7965,-36.1043 37.2575,-46.598 43.4826,-43.3965"/>
<g id="a_edge4&#45;headlabel"><a xlink:href="dir_000004_000000.html" target="_top" xlink:title="1">
<text text-anchor="middle" x="47.6514" y="-42.7946" font-family="Helvetica,sans-Serif" font-size="10.00">1</text>
</a>
</g>
</g>
<!-- dir_fc4c7f03e1a69a98c370fae55a743828&#45;&gt;dir_6cc8961f7f77054fb84f95c9f23f5ca0 -->
<g id="edge5" class="edge"><title>dir_fc4c7f03e1a69a98c370fae55a743828&#45;&gt;dir_6cc8961f7f77054fb84f95c9f23f5ca0</title>
<path fill="none" stroke="black" d="M74.1236,-71.6966C79.355,-63.5589 85.6999,-53.689 91.4778,-44.7013"/>
<polygon fill="black" stroke="black" points="94.5409,-46.4088 97.0044,-36.1043 88.6526,-42.6235 94.5409,-46.4088"/>
<g id="a_edge5&#45;headlabel"><a xlink:href="dir_000004_000005.html" target="_top" xlink:title="7">
<text text-anchor="middle" x="94.9854" y="-48.4678" font-family="Helvetica,sans-Serif" font-size="10.00">7</text>
</a>
</g>
</g>
</g>
</svg>
