<?xml version="1.0" encoding="UTF-8" standalone="no"?>
<!DOCTYPE svg PUBLIC "-//W3C//DTD SVG 1.1//EN"
 "http://www.w3.org/Graphics/SVG/1.1/DTD/svg11.dtd">
<!-- Generated by graphviz version 2.38.0 (20140413.2041)
 -->
<!-- Title: modules/xonotic/formatter.hpp Pages: 1 -->
<svg width="762pt" height="252pt"
 viewBox="0.00 0.00 762.25 252.00" xmlns="http://www.w3.org/2000/svg" xmlns:xlink="http://www.w3.org/1999/xlink">
<g id="graph0" class="graph" transform="scale(1 1) rotate(0) translate(4 248)">
<title>modules/xonotic/formatter.hpp</title>
<!-- Node1 -->
<g id="node1" class="node"><title>Node1</title>
<polygon fill="#bfbfbf" stroke="black" points="103.751,-224.5 103.751,-243.5 252.751,-243.5 252.751,-224.5 103.751,-224.5"/>
<text text-anchor="middle" x="178.251" y="-231.5" font-family="Helvetica,sans-Serif" font-size="10.00">modules/xonotic/formatter.hpp</text>
</g>
<!-- Node2 -->
<g id="node2" class="node"><title>Node2</title>
<polygon fill="none" stroke="#bfbfbf" points="113.751,-56.5 113.751,-75.5 154.751,-75.5 154.751,-56.5 113.751,-56.5"/>
<text text-anchor="middle" x="134.251" y="-63.5" font-family="Helvetica,sans-Serif" font-size="10.00">regex</text>
</g>
<!-- Node1&#45;&gt;Node2 -->
<g id="edge1" class="edge"><title>Node1&#45;&gt;Node2</title>
<path fill="none" stroke="midnightblue" d="M144.388,-224.439C102.867,-211.92 34.3157,-184.215 4.25055,-132 -18.9369,-91.7299 58.5073,-75.7611 103.802,-69.9698"/>
<polygon fill="midnightblue" stroke="midnightblue" points="104.219,-73.445 113.739,-68.795 103.397,-66.4934 104.219,-73.445"/>
</g>
<!-- Node3 -->
<g id="node3" class="node"><title>Node3</title>
<g id="a_node3"><a xlink:href="string_8hpp.html" target="_top" xlink:title="string/string.hpp">
<polygon fill="none" stroke="black" points="329.251,-168.5 329.251,-187.5 415.251,-187.5 415.251,-168.5 329.251,-168.5"/>
<text text-anchor="middle" x="372.251" y="-175.5" font-family="Helvetica,sans-Serif" font-size="10.00">string/string.hpp</text>
</a>
</g>
</g>
<!-- Node1&#45;&gt;Node3 -->
<g id="edge2" class="edge"><title>Node1&#45;&gt;Node3</title>
<path fill="none" stroke="midnightblue" d="M208.99,-224.444C242.195,-215.201 295.241,-200.436 331.808,-190.257"/>
<polygon fill="midnightblue" stroke="midnightblue" points="332.959,-193.57 341.654,-187.516 331.082,-186.826 332.959,-193.57"/>
</g>
<!-- Node4 -->
<g id="node4" class="node"><title>Node4</title>
<polygon fill="none" stroke="#bfbfbf" points="708.251,-56.5 708.251,-75.5 754.251,-75.5 754.251,-56.5 708.251,-56.5"/>
<text text-anchor="middle" x="731.251" y="-63.5" font-family="Helvetica,sans-Serif" font-size="10.00">cstdint</text>
</g>
<!-- Node3&#45;&gt;Node4 -->
<g id="edge3" class="edge"><title>Node3&#45;&gt;Node4</title>
<path fill="none" stroke="midnightblue" d="M415.326,-174.841C489.794,-170.447 638.894,-158.541 683.251,-132 701.443,-121.115 714.884,-100.429 722.843,-85.3079"/>
<polygon fill="midnightblue" stroke="midnightblue" points="726.19,-86.4343 727.469,-75.9169 719.91,-83.3411 726.19,-86.4343"/>
</g>
<!-- Node5 -->
<g id="node5" class="node"><title>Node5</title>
<polygon fill="none" stroke="#bfbfbf" points="13.7505,-112.5 13.7505,-131.5 72.7505,-131.5 72.7505,-112.5 13.7505,-112.5"/>
<text text-anchor="middle" x="43.2505" y="-119.5" font-family="Helvetica,sans-Serif" font-size="10.00">functional</text>
</g>
<!-- Node3&#45;&gt;Node5 -->
<g id="edge4" class="edge"><title>Node3&#45;&gt;Node5</title>
<path fill="none" stroke="midnightblue" d="M328.844,-171.27C273.934,-163.8 176.268,-149.776 82.9072,-132.004"/>
<polygon fill="midnightblue" stroke="midnightblue" points="83.4944,-128.553 73.0136,-130.104 82.1736,-135.427 83.4944,-128.553"/>
</g>
<!-- Node6 -->
<g id="node6" class="node"><title>Node6</title>
<polygon fill="none" stroke="#bfbfbf" points="91.2505,-112.5 91.2505,-131.5 143.251,-131.5 143.251,-112.5 91.2505,-112.5"/>
<text text-anchor="middle" x="117.251" y="-119.5" font-family="Helvetica,sans-Serif" font-size="10.00">memory</text>
</g>
<!-- Node3&#45;&gt;Node6 -->
<g id="edge5" class="edge"><title>Node3&#45;&gt;Node6</title>
<path fill="none" stroke="midnightblue" d="M329.114,-168.837C286.742,-160.672 220.031,-147.424 153.414,-132.185"/>
<polygon fill="midnightblue" stroke="midnightblue" points="154.12,-128.756 143.589,-129.923 152.549,-135.578 154.12,-128.756"/>
</g>
<!-- Node7 -->
<g id="node7" class="node"><title>Node7</title>
<polygon fill="none" stroke="#bfbfbf" points="161.751,-112.5 161.751,-131.5 220.751,-131.5 220.751,-112.5 161.751,-112.5"/>
<text text-anchor="middle" x="191.251" y="-119.5" font-family="Helvetica,sans-Serif" font-size="10.00">stdexcept</text>
</g>
<!-- Node3&#45;&gt;Node7 -->
<g id="edge6" class="edge"><title>Node3&#45;&gt;Node7</title>
<path fill="none" stroke="midnightblue" d="M343.571,-168.444C312.724,-159.241 263.522,-144.562 229.421,-134.388"/>
<polygon fill="midnightblue" stroke="midnightblue" points="230.38,-131.021 219.796,-131.516 228.378,-137.729 230.38,-131.021"/>
</g>
<!-- Node8 -->
<g id="node8" class="node"><title>Node8</title>
<polygon fill="none" stroke="#bfbfbf" points="467.751,-56.5 467.751,-75.5 508.751,-75.5 508.751,-56.5 467.751,-56.5"/>
<text text-anchor="middle" x="488.251" y="-63.5" font-family="Helvetica,sans-Serif" font-size="10.00">string</text>
</g>
<!-- Node3&#45;&gt;Node8 -->
<g id="edge7" class="edge"><title>Node3&#45;&gt;Node8</title>
<path fill="none" stroke="midnightblue" d="M415.41,-173.425C467.968,-168.071 552.123,-155.935 571.251,-132 590.221,-108.261 549.672,-87.9732 518.828,-76.6455"/>
<polygon fill="midnightblue" stroke="midnightblue" points="519.838,-73.2906 509.243,-73.2895 517.524,-79.8974 519.838,-73.2906"/>
</g>
<!-- Node9 -->
<g id="node9" class="node"><title>Node9</title>
<polygon fill="none" stroke="#bfbfbf" points="346.251,-112.5 346.251,-131.5 398.251,-131.5 398.251,-112.5 346.251,-112.5"/>
<text text-anchor="middle" x="372.251" y="-119.5" font-family="Helvetica,sans-Serif" font-size="10.00">sstream</text>
</g>
<!-- Node3&#45;&gt;Node9 -->
<g id="edge8" class="edge"><title>Node3&#45;&gt;Node9</title>
<path fill="none" stroke="midnightblue" d="M372.251,-168.083C372.251,-161.006 372.251,-150.861 372.251,-141.986"/>
<polygon fill="midnightblue" stroke="midnightblue" points="375.751,-141.751 372.251,-131.751 368.751,-141.751 375.751,-141.751"/>
</g>
<!-- Node10 -->
<g id="node10" class="node"><title>Node10</title>
<polygon fill="none" stroke="#bfbfbf" points="416.751,-112.5 416.751,-131.5 499.751,-131.5 499.751,-112.5 416.751,-112.5"/>
<text text-anchor="middle" x="458.251" y="-119.5" font-family="Helvetica,sans-Serif" font-size="10.00">unordered_map</text>
</g>
<!-- Node3&#45;&gt;Node10 -->
<g id="edge9" class="edge"><title>Node3&#45;&gt;Node10</title>
<path fill="none" stroke="midnightblue" d="M386.068,-168.324C399.484,-159.9 420.075,-146.971 435.836,-137.074"/>
<polygon fill="midnightblue" stroke="midnightblue" points="437.86,-139.936 444.467,-131.655 434.137,-134.008 437.86,-139.936"/>
</g>
<!-- Node11 -->
<g id="node11" class="node"><title>Node11</title>
<polygon fill="none" stroke="#bfbfbf" points="518.251,-112.5 518.251,-131.5 562.251,-131.5 562.251,-112.5 518.251,-112.5"/>
<text text-anchor="middle" x="540.251" y="-119.5" font-family="Helvetica,sans-Serif" font-size="10.00">vector</text>
</g>
<!-- Node3&#45;&gt;Node11 -->
<g id="edge10" class="edge"><title>Node3&#45;&gt;Node11</title>
<path fill="none" stroke="midnightblue" d="M398.871,-168.444C428.592,-158.89 476.672,-143.436 508.374,-133.246"/>
<polygon fill="midnightblue" stroke="midnightblue" points="509.598,-136.529 518.047,-130.137 507.456,-129.865 509.598,-136.529"/>
</g>
<!-- Node12 -->
<g id="node12" class="node"><title>Node12</title>
<g id="a_node12"><a xlink:href="color_8hpp.html" target="_top" xlink:title="color.hpp">
<polygon fill="none" stroke="black" points="618.251,-112.5 618.251,-131.5 674.251,-131.5 674.251,-112.5 618.251,-112.5"/>
<text text-anchor="middle" x="646.251" y="-119.5" font-family="Helvetica,sans-Serif" font-size="10.00">color.hpp</text>
</a>
</g>
</g>
<!-- Node3&#45;&gt;Node12 -->
<g id="edge11" class="edge"><title>Node3&#45;&gt;Node12</title>
<path fill="none" stroke="midnightblue" d="M415.487,-168.875C462.12,-160.05 538.524,-145.415 604.251,-132 605.484,-131.748 606.736,-131.491 608.001,-131.229"/>
<polygon fill="midnightblue" stroke="midnightblue" points="608.731,-134.652 617.8,-129.175 607.294,-127.801 608.731,-134.652"/>
</g>
<!-- Node16 -->
<g id="node16" class="node"><title>Node16</title>
<g id="a_node16"><a xlink:href="quickstream_8hpp.html" target="_top" xlink:title="quickstream.hpp">
<polygon fill="none" stroke="black" points="238.751,-112.5 238.751,-131.5 327.751,-131.5 327.751,-112.5 238.751,-112.5"/>
<text text-anchor="middle" x="283.251" y="-119.5" font-family="Helvetica,sans-Serif" font-size="10.00">quickstream.hpp</text>
</a>
</g>
</g>
<!-- Node3&#45;&gt;Node16 -->
<g id="edge17" class="edge"><title>Node3&#45;&gt;Node16</title>
<path fill="none" stroke="midnightblue" d="M357.951,-168.324C344.068,-159.9 322.758,-146.971 306.447,-137.074"/>
<polygon fill="midnightblue" stroke="midnightblue" points="307.879,-133.85 297.514,-131.655 304.248,-139.834 307.879,-133.85"/>
</g>
<!-- Node12&#45;&gt;Node4 -->
<g id="edge12" class="edge"><title>Node12&#45;&gt;Node4</title>
<path fill="none" stroke="midnightblue" d="M659.907,-112.324C673.167,-103.9 693.519,-90.9709 709.097,-81.0741"/>
<polygon fill="midnightblue" stroke="midnightblue" points="711.064,-83.9711 717.628,-75.6545 707.31,-78.0626 711.064,-83.9711"/>
</g>
<!-- Node12&#45;&gt;Node8 -->
<g id="edge13" class="edge"><title>Node12&#45;&gt;Node8</title>
<path fill="none" stroke="midnightblue" d="M621.215,-112.444C593.384,-102.932 548.436,-87.5697 518.618,-77.3787"/>
<polygon fill="midnightblue" stroke="midnightblue" points="519.727,-74.059 509.132,-74.1368 517.463,-80.6829 519.727,-74.059"/>
</g>
<!-- Node13 -->
<g id="node13" class="node"><title>Node13</title>
<g id="a_node13"><a xlink:href="math_8hpp.html" target="_top" xlink:title="math.hpp">
<polygon fill="none" stroke="black" points="526.751,-56.5 526.751,-75.5 583.751,-75.5 583.751,-56.5 526.751,-56.5"/>
<text text-anchor="middle" x="555.251" y="-63.5" font-family="Helvetica,sans-Serif" font-size="10.00">math.hpp</text>
</a>
</g>
</g>
<!-- Node12&#45;&gt;Node13 -->
<g id="edge14" class="edge"><title>Node12&#45;&gt;Node13</title>
<path fill="none" stroke="midnightblue" d="M631.63,-112.324C617.302,-103.822 595.238,-90.7288 578.502,-80.7975"/>
<polygon fill="midnightblue" stroke="midnightblue" points="580.221,-77.7478 569.835,-75.6545 576.649,-83.7677 580.221,-77.7478"/>
</g>
<!-- Node15 -->
<g id="node15" class="node"><title>Node15</title>
<g id="a_node15"><a xlink:href="c_09_09-compat_8hpp.html" target="_top" xlink:title="This file defined some compatibility for features of C++14 and beyond. ">
<polygon fill="none" stroke="black" points="602.251,-56.5 602.251,-75.5 690.251,-75.5 690.251,-56.5 602.251,-56.5"/>
<text text-anchor="middle" x="646.251" y="-63.5" font-family="Helvetica,sans-Serif" font-size="10.00">c++&#45;compat.hpp</text>
</a>
</g>
</g>
<!-- Node12&#45;&gt;Node15 -->
<g id="edge16" class="edge"><title>Node12&#45;&gt;Node15</title>
<path fill="none" stroke="midnightblue" d="M646.251,-112.083C646.251,-105.006 646.251,-94.8611 646.251,-85.9865"/>
<polygon fill="midnightblue" stroke="midnightblue" points="649.751,-85.751 646.251,-75.7511 642.751,-85.7511 649.751,-85.751"/>
</g>
<!-- Node14 -->
<g id="node14" class="node"><title>Node14</title>
<polygon fill="none" stroke="#bfbfbf" points="527.251,-0.5 527.251,-19.5 583.251,-19.5 583.251,-0.5 527.251,-0.5"/>
<text text-anchor="middle" x="555.251" y="-7.5" font-family="Helvetica,sans-Serif" font-size="10.00">algorithm</text>
</g>
<!-- Node13&#45;&gt;Node14 -->
<g id="edge15" class="edge"><title>Node13&#45;&gt;Node14</title>
<path fill="none" stroke="midnightblue" d="M555.251,-56.083C555.251,-49.0059 555.251,-38.8611 555.251,-29.9865"/>
<polygon fill="midnightblue" stroke="midnightblue" points="558.751,-29.751 555.251,-19.7511 551.751,-29.7511 558.751,-29.751"/>
</g>
<!-- Node16&#45;&gt;Node2 -->
<g id="edge19" class="edge"><title>Node16&#45;&gt;Node2</title>
<path fill="none" stroke="midnightblue" d="M259.641,-112.444C233.916,-103.12 192.683,-88.1768 164.578,-77.9911"/>
<polygon fill="midnightblue" stroke="midnightblue" points="165.465,-74.5898 154.871,-74.473 163.08,-81.1709 165.465,-74.5898"/>
</g>
<!-- Node16&#45;&gt;Node8 -->
<g id="edge18" class="edge"><title>Node16&#45;&gt;Node8</title>
<path fill="none" stroke="midnightblue" d="M315.733,-112.444C354.639,-102.195 419.323,-85.1565 457.462,-75.1103"/>
<polygon fill="midnightblue" stroke="midnightblue" points="458.693,-78.4055 467.471,-72.4736 456.909,-71.6364 458.693,-78.4055"/>
</g>
</g>
</svg>
