<?xml version="1.0" encoding="UTF-8" standalone="no"?>
<!DOCTYPE svg PUBLIC "-//W3C//DTD SVG 1.1//EN"
 "http://www.w3.org/Graphics/SVG/1.1/DTD/svg11.dtd">
<!-- Generated by graphviz version 2.38.0 (20140413.2041)
 -->
<!-- Title: modules/xonotic/formatter.cpp Pages: 1 -->
<svg width="996pt" height="375pt"
 viewBox="0.00 0.00 996.00 375.00" xmlns="http://www.w3.org/2000/svg" xmlns:xlink="http://www.w3.org/1999/xlink">
<g id="graph0" class="graph" transform="scale(1 1) rotate(0) translate(4 371)">
<title>modules/xonotic/formatter.cpp</title>
<!-- Node1 -->
<g id="node1" class="node"><title>Node1</title>
<polygon fill="#bfbfbf" stroke="black" points="250.5,-347.5 250.5,-366.5 399.5,-366.5 399.5,-347.5 250.5,-347.5"/>
<text text-anchor="middle" x="325" y="-354.5" font-family="Helvetica,sans-Serif" font-size="10.00">modules/xonotic/formatter.cpp</text>
</g>
<!-- Node2 -->
<g id="node2" class="node"><title>Node2</title>
<g id="a_node2"><a xlink:href="formatter_8hpp.html" target="_top" xlink:title="formatter.hpp">
<polygon fill="none" stroke="black" points="0,-235.5 0,-254.5 74,-254.5 74,-235.5 0,-235.5"/>
<text text-anchor="middle" x="37" y="-242.5" font-family="Helvetica,sans-Serif" font-size="10.00">formatter.hpp</text>
</a>
</g>
</g>
<!-- Node1&#45;&gt;Node2 -->
<g id="edge1" class="edge"><title>Node1&#45;&gt;Node2</title>
<path fill="none" stroke="midnightblue" d="M302.401,-347.368C251.508,-327.93 127.784,-280.674 69.0147,-258.228"/>
<polygon fill="midnightblue" stroke="midnightblue" points="70.0845,-254.89 59.4939,-254.591 67.5869,-261.429 70.0845,-254.89"/>
</g>
<!-- Node18 -->
<g id="node18" class="node"><title>Node18</title>
<g id="a_node18"><a xlink:href="string__functions_8hpp.html" target="_top" xlink:title="string/string_functions.hpp">
<polygon fill="none" stroke="black" points="375.5,-291.5 375.5,-310.5 506.5,-310.5 506.5,-291.5 375.5,-291.5"/>
<text text-anchor="middle" x="441" y="-298.5" font-family="Helvetica,sans-Serif" font-size="10.00">string/string_functions.hpp</text>
</a>
</g>
</g>
<!-- Node1&#45;&gt;Node18 -->
<g id="edge21" class="edge"><title>Node1&#45;&gt;Node18</title>
<path fill="none" stroke="midnightblue" d="M343.381,-347.444C362.216,-338.675 391.731,-324.935 413.379,-314.858"/>
<polygon fill="midnightblue" stroke="midnightblue" points="415.117,-317.91 422.705,-310.516 412.162,-311.564 415.117,-317.91"/>
</g>
<!-- Node3 -->
<g id="node3" class="node"><title>Node3</title>
<polygon fill="none" stroke="#bfbfbf" points="59.5,-56.5 59.5,-75.5 100.5,-75.5 100.5,-56.5 59.5,-56.5"/>
<text text-anchor="middle" x="80" y="-63.5" font-family="Helvetica,sans-Serif" font-size="10.00">regex</text>
</g>
<!-- Node2&#45;&gt;Node3 -->
<g id="edge2" class="edge"><title>Node2&#45;&gt;Node3</title>
<path fill="none" stroke="midnightblue" d="M38.6461,-235.29C42.7149,-214.066 53.804,-158.042 66,-112 68.3598,-103.091 71.3534,-93.31 73.9662,-85.149"/>
<polygon fill="midnightblue" stroke="midnightblue" points="77.3192,-86.156 77.0962,-75.5635 70.665,-83.9831 77.3192,-86.156"/>
</g>
<!-- Node4 -->
<g id="node4" class="node"><title>Node4</title>
<g id="a_node4"><a xlink:href="string_8hpp.html" target="_top" xlink:title="string/string.hpp">
<polygon fill="none" stroke="black" points="426,-174 426,-193 512,-193 512,-174 426,-174"/>
<text text-anchor="middle" x="469" y="-181" font-family="Helvetica,sans-Serif" font-size="10.00">string/string.hpp</text>
</a>
</g>
</g>
<!-- Node2&#45;&gt;Node4 -->
<g id="edge3" class="edge"><title>Node2&#45;&gt;Node4</title>
<path fill="none" stroke="midnightblue" d="M74.206,-238.876C150.886,-228.314 326.748,-204.093 415.575,-191.858"/>
<polygon fill="midnightblue" stroke="midnightblue" points="416.276,-195.295 425.705,-190.463 415.321,-188.36 416.276,-195.295"/>
</g>
<!-- Node5 -->
<g id="node5" class="node"><title>Node5</title>
<polygon fill="none" stroke="#bfbfbf" points="763,-56.5 763,-75.5 809,-75.5 809,-56.5 763,-56.5"/>
<text text-anchor="middle" x="786" y="-63.5" font-family="Helvetica,sans-Serif" font-size="10.00">cstdint</text>
</g>
<!-- Node4&#45;&gt;Node5 -->
<g id="edge4" class="edge"><title>Node4&#45;&gt;Node5</title>
<path fill="none" stroke="midnightblue" d="M512.139,-179.509C581.911,-173.914 715.501,-159.832 753,-132 768.21,-120.711 776.915,-100.404 781.522,-85.4824"/>
<polygon fill="midnightblue" stroke="midnightblue" points="784.915,-86.345 784.187,-75.7752 778.165,-84.4918 784.915,-86.345"/>
</g>
<!-- Node6 -->
<g id="node6" class="node"><title>Node6</title>
<polygon fill="none" stroke="#bfbfbf" points="534.5,-112.5 534.5,-131.5 593.5,-131.5 593.5,-112.5 534.5,-112.5"/>
<text text-anchor="middle" x="564" y="-119.5" font-family="Helvetica,sans-Serif" font-size="10.00">functional</text>
</g>
<!-- Node4&#45;&gt;Node6 -->
<g id="edge5" class="edge"><title>Node4&#45;&gt;Node6</title>
<path fill="none" stroke="midnightblue" d="M482.611,-173.975C498.061,-164.299 523.49,-148.372 541.816,-136.894"/>
<polygon fill="midnightblue" stroke="midnightblue" points="543.797,-139.783 550.414,-131.509 540.081,-133.851 543.797,-139.783"/>
</g>
<!-- Node7 -->
<g id="node7" class="node"><title>Node7</title>
<polygon fill="none" stroke="#bfbfbf" points="286,-112.5 286,-131.5 338,-131.5 338,-112.5 286,-112.5"/>
<text text-anchor="middle" x="312" y="-119.5" font-family="Helvetica,sans-Serif" font-size="10.00">memory</text>
</g>
<!-- Node4&#45;&gt;Node7 -->
<g id="edge6" class="edge"><title>Node4&#45;&gt;Node7</title>
<path fill="none" stroke="midnightblue" d="M446.506,-173.975C419.691,-163.813 374.685,-146.756 344.191,-135.2"/>
<polygon fill="midnightblue" stroke="midnightblue" points="345.044,-131.78 334.453,-131.509 342.563,-138.326 345.044,-131.78"/>
</g>
<!-- Node8 -->
<g id="node8" class="node"><title>Node8</title>
<polygon fill="none" stroke="#bfbfbf" points="356.5,-112.5 356.5,-131.5 415.5,-131.5 415.5,-112.5 356.5,-112.5"/>
<text text-anchor="middle" x="386" y="-119.5" font-family="Helvetica,sans-Serif" font-size="10.00">stdexcept</text>
</g>
<!-- Node4&#45;&gt;Node8 -->
<g id="edge7" class="edge"><title>Node4&#45;&gt;Node8</title>
<path fill="none" stroke="midnightblue" d="M457.108,-173.975C443.795,-164.431 422,-148.807 406.043,-137.368"/>
<polygon fill="midnightblue" stroke="midnightblue" points="408.036,-134.491 397.87,-131.509 403.958,-140.18 408.036,-134.491"/>
</g>
<!-- Node9 -->
<g id="node9" class="node"><title>Node9</title>
<polygon fill="none" stroke="#bfbfbf" points="601.5,-56.5 601.5,-75.5 642.5,-75.5 642.5,-56.5 601.5,-56.5"/>
<text text-anchor="middle" x="622" y="-63.5" font-family="Helvetica,sans-Serif" font-size="10.00">string</text>
</g>
<!-- Node4&#45;&gt;Node9 -->
<g id="edge8" class="edge"><title>Node4&#45;&gt;Node9</title>
<path fill="none" stroke="midnightblue" d="M464.808,-173.657C458.631,-159.182 449.218,-130.223 463,-112 478.474,-91.5387 549.928,-77.7038 591.594,-71.2231"/>
<polygon fill="midnightblue" stroke="midnightblue" points="592.124,-74.6827 601.493,-69.7343 591.083,-67.7606 592.124,-74.6827"/>
</g>
<!-- Node10 -->
<g id="node10" class="node"><title>Node10</title>
<polygon fill="none" stroke="#bfbfbf" points="108,-112.5 108,-131.5 160,-131.5 160,-112.5 108,-112.5"/>
<text text-anchor="middle" x="134" y="-119.5" font-family="Helvetica,sans-Serif" font-size="10.00">sstream</text>
</g>
<!-- Node4&#45;&gt;Node10 -->
<g id="edge9" class="edge"><title>Node4&#45;&gt;Node10</title>
<path fill="none" stroke="midnightblue" d="M425.81,-176.408C369.264,-168.172 266.886,-152.374 170.251,-132.124"/>
<polygon fill="midnightblue" stroke="midnightblue" points="170.825,-128.669 160.317,-130.023 169.376,-135.517 170.825,-128.669"/>
</g>
<!-- Node11 -->
<g id="node11" class="node"><title>Node11</title>
<polygon fill="none" stroke="#bfbfbf" points="800.5,-112.5 800.5,-131.5 883.5,-131.5 883.5,-112.5 800.5,-112.5"/>
<text text-anchor="middle" x="842" y="-119.5" font-family="Helvetica,sans-Serif" font-size="10.00">unordered_map</text>
</g>
<!-- Node4&#45;&gt;Node11 -->
<g id="edge10" class="edge"><title>Node4&#45;&gt;Node11</title>
<path fill="none" stroke="midnightblue" d="M512.073,-175.657C573.054,-165.966 688.049,-147.673 786,-132 787.458,-131.767 788.938,-131.53 790.432,-131.29"/>
<polygon fill="midnightblue" stroke="midnightblue" points="791.091,-134.73 800.411,-129.69 789.983,-127.818 791.091,-134.73"/>
</g>
<!-- Node12 -->
<g id="node12" class="node"><title>Node12</title>
<polygon fill="none" stroke="#bfbfbf" points="472,-112.5 472,-131.5 516,-131.5 516,-112.5 472,-112.5"/>
<text text-anchor="middle" x="494" y="-119.5" font-family="Helvetica,sans-Serif" font-size="10.00">vector</text>
</g>
<!-- Node4&#45;&gt;Node12 -->
<g id="edge11" class="edge"><title>Node4&#45;&gt;Node12</title>
<path fill="none" stroke="midnightblue" d="M472.582,-173.975C476.183,-165.404 481.846,-151.927 486.444,-140.983"/>
<polygon fill="midnightblue" stroke="midnightblue" points="489.778,-142.084 490.425,-131.509 483.324,-139.373 489.778,-142.084"/>
</g>
<!-- Node13 -->
<g id="node13" class="node"><title>Node13</title>
<g id="a_node13"><a xlink:href="color_8hpp.html" target="_top" xlink:title="color.hpp">
<polygon fill="none" stroke="black" points="688,-112.5 688,-131.5 744,-131.5 744,-112.5 688,-112.5"/>
<text text-anchor="middle" x="716" y="-119.5" font-family="Helvetica,sans-Serif" font-size="10.00">color.hpp</text>
</a>
</g>
</g>
<!-- Node4&#45;&gt;Node13 -->
<g id="edge12" class="edge"><title>Node4&#45;&gt;Node13</title>
<path fill="none" stroke="midnightblue" d="M504.389,-173.975C550.495,-162.869 630.788,-143.527 678.098,-132.13"/>
<polygon fill="midnightblue" stroke="midnightblue" points="679.051,-135.501 687.953,-129.756 677.412,-128.696 679.051,-135.501"/>
</g>
<!-- Node17 -->
<g id="node17" class="node"><title>Node17</title>
<g id="a_node17"><a xlink:href="quickstream_8hpp.html" target="_top" xlink:title="quickstream.hpp">
<polygon fill="none" stroke="black" points="178.5,-112.5 178.5,-131.5 267.5,-131.5 267.5,-112.5 178.5,-112.5"/>
<text text-anchor="middle" x="223" y="-119.5" font-family="Helvetica,sans-Serif" font-size="10.00">quickstream.hpp</text>
</a>
</g>
</g>
<!-- Node4&#45;&gt;Node17 -->
<g id="edge18" class="edge"><title>Node4&#45;&gt;Node17</title>
<path fill="none" stroke="midnightblue" d="M433.754,-173.975C390.095,-163.415 315.657,-145.411 267.937,-133.869"/>
<polygon fill="midnightblue" stroke="midnightblue" points="268.723,-130.458 258.18,-131.509 267.077,-137.262 268.723,-130.458"/>
</g>
<!-- Node13&#45;&gt;Node5 -->
<g id="edge13" class="edge"><title>Node13&#45;&gt;Node5</title>
<path fill="none" stroke="midnightblue" d="M727.247,-112.324C737.797,-104.185 753.801,-91.8395 766.442,-82.0874"/>
<polygon fill="midnightblue" stroke="midnightblue" points="768.769,-84.7132 774.549,-75.8339 764.493,-79.1707 768.769,-84.7132"/>
</g>
<!-- Node13&#45;&gt;Node9 -->
<g id="edge14" class="edge"><title>Node13&#45;&gt;Node9</title>
<path fill="none" stroke="midnightblue" d="M700.897,-112.324C686.097,-103.822 663.306,-90.7288 646.018,-80.7975"/>
<polygon fill="midnightblue" stroke="midnightblue" points="647.48,-77.6009 637.065,-75.6545 643.993,-83.6707 647.48,-77.6009"/>
</g>
<!-- Node14 -->
<g id="node14" class="node"><title>Node14</title>
<g id="a_node14"><a xlink:href="math_8hpp.html" target="_top" xlink:title="math.hpp">
<polygon fill="none" stroke="black" points="687.5,-56.5 687.5,-75.5 744.5,-75.5 744.5,-56.5 687.5,-56.5"/>
<text text-anchor="middle" x="716" y="-63.5" font-family="Helvetica,sans-Serif" font-size="10.00">math.hpp</text>
</a>
</g>
</g>
<!-- Node13&#45;&gt;Node14 -->
<g id="edge15" class="edge"><title>Node13&#45;&gt;Node14</title>
<path fill="none" stroke="midnightblue" d="M716,-112.083C716,-105.006 716,-94.8611 716,-85.9865"/>
<polygon fill="midnightblue" stroke="midnightblue" points="719.5,-85.751 716,-75.7511 712.5,-85.7511 719.5,-85.751"/>
</g>
<!-- Node16 -->
<g id="node16" class="node"><title>Node16</title>
<g id="a_node16"><a xlink:href="c_09_09-compat_8hpp.html" target="_top" xlink:title="This file defined some compatibility for features of C++14 and beyond. ">
<polygon fill="none" stroke="black" points="849,-56.5 849,-75.5 937,-75.5 937,-56.5 849,-56.5"/>
<text text-anchor="middle" x="893" y="-63.5" font-family="Helvetica,sans-Serif" font-size="10.00">c++&#45;compat.hpp</text>
</a>
</g>
</g>
<!-- Node13&#45;&gt;Node16 -->
<g id="edge17" class="edge"><title>Node13&#45;&gt;Node16</title>
<path fill="none" stroke="midnightblue" d="M744.046,-112.444C774.082,-103.28 821.913,-88.6876 855.243,-78.5192"/>
<polygon fill="midnightblue" stroke="midnightblue" points="856.542,-81.7822 865.085,-75.5164 854.499,-75.0869 856.542,-81.7822"/>
</g>
<!-- Node15 -->
<g id="node15" class="node"><title>Node15</title>
<polygon fill="none" stroke="#bfbfbf" points="824,-0.5 824,-19.5 880,-19.5 880,-0.5 824,-0.5"/>
<text text-anchor="middle" x="852" y="-7.5" font-family="Helvetica,sans-Serif" font-size="10.00">algorithm</text>
</g>
<!-- Node14&#45;&gt;Node15 -->
<g id="edge16" class="edge"><title>Node14&#45;&gt;Node15</title>
<path fill="none" stroke="midnightblue" d="M737.55,-56.4435C760.031,-47.5171 795.488,-33.4387 820.98,-23.3168"/>
<polygon fill="midnightblue" stroke="midnightblue" points="822.549,-26.4598 830.551,-19.5164 819.965,-19.9539 822.549,-26.4598"/>
</g>
<!-- Node17&#45;&gt;Node3 -->
<g id="edge20" class="edge"><title>Node17&#45;&gt;Node3</title>
<path fill="none" stroke="midnightblue" d="M200.341,-112.444C176.039,-103.267 137.318,-88.6446 110.386,-78.4744"/>
<polygon fill="midnightblue" stroke="midnightblue" points="111.287,-75.0736 100.696,-74.8151 108.814,-81.6222 111.287,-75.0736"/>
</g>
<!-- Node17&#45;&gt;Node9 -->
<g id="edge19" class="edge"><title>Node17&#45;&gt;Node9</title>
<path fill="none" stroke="midnightblue" d="M267.77,-113.413C270.892,-112.922 273.992,-112.447 277,-112 392.828,-94.7992 531.072,-77.8442 591.36,-70.6266"/>
<polygon fill="midnightblue" stroke="midnightblue" points="591.84,-74.0943 601.355,-69.4339 591.01,-67.1436 591.84,-74.0943"/>
</g>
<!-- Node18&#45;&gt;Node3 -->
<g id="edge24" class="edge"><title>Node18&#45;&gt;Node3</title>
<path fill="none" stroke="midnightblue" d="M397.648,-291.471C324.15,-274.642 175.626,-229.956 99,-132 88.5972,-118.701 83.8866,-99.8682 81.7556,-85.8948"/>
<polygon fill="midnightblue" stroke="midnightblue" points="85.2251,-85.4317 80.5401,-75.929 78.2766,-86.2792 85.2251,-85.4317"/>
</g>
<!-- Node18&#45;&gt;Node9 -->
<g id="edge26" class="edge"><title>Node18&#45;&gt;Node9</title>
<path fill="none" stroke="midnightblue" d="M460.933,-291.389C477.495,-283.563 501.01,-270.836 518,-255 566.425,-209.864 573.275,-191.642 602,-132 609.204,-117.041 614.529,-98.9029 617.865,-85.5921"/>
<polygon fill="midnightblue" stroke="midnightblue" points="621.303,-86.2591 620.197,-75.7222 614.491,-84.6494 621.303,-86.2591"/>
</g>
<!-- Node18&#45;&gt;Node10 -->
<g id="edge25" class="edge"><title>Node18&#45;&gt;Node10</title>
<path fill="none" stroke="midnightblue" d="M426.193,-291.463C376.964,-263.08 218.478,-171.706 157.873,-136.764"/>
<polygon fill="midnightblue" stroke="midnightblue" points="159.43,-133.621 149.018,-131.659 155.933,-139.686 159.43,-133.621"/>
</g>
<!-- Node18&#45;&gt;Node15 -->
<g id="edge22" class="edge"><title>Node18&#45;&gt;Node15</title>
<path fill="none" stroke="midnightblue" d="M506.709,-299.792C652.048,-297.558 988,-281.863 988,-184.5 988,-184.5 988,-184.5 988,-121 988,-70.0813 929.656,-38.6742 889.397,-23.0633"/>
<polygon fill="midnightblue" stroke="midnightblue" points="890.443,-19.7184 879.85,-19.522 888.008,-26.2814 890.443,-19.7184"/>
</g>
<!-- Node19 -->
<g id="node19" class="node"><title>Node19</title>
<polygon fill="none" stroke="#bfbfbf" points="381.5,-235.5 381.5,-254.5 428.5,-254.5 428.5,-235.5 381.5,-235.5"/>
<text text-anchor="middle" x="405" y="-242.5" font-family="Helvetica,sans-Serif" font-size="10.00">iterator</text>
</g>
<!-- Node18&#45;&gt;Node19 -->
<g id="edge23" class="edge"><title>Node18&#45;&gt;Node19</title>
<path fill="none" stroke="midnightblue" d="M435.055,-291.083C430.023,-283.534 422.663,-272.495 416.487,-263.23"/>
<polygon fill="midnightblue" stroke="midnightblue" points="419.293,-261.13 410.834,-254.751 413.469,-265.013 419.293,-261.13"/>
</g>
<!-- Node20 -->
<g id="node20" class="node"><title>Node20</title>
<polygon fill="none" stroke="#bfbfbf" points="447,-235.5 447,-254.5 509,-254.5 509,-235.5 447,-235.5"/>
<text text-anchor="middle" x="478" y="-242.5" font-family="Helvetica,sans-Serif" font-size="10.00">type_traits</text>
</g>
<!-- Node18&#45;&gt;Node20 -->
<g id="edge27" class="edge"><title>Node18&#45;&gt;Node20</title>
<path fill="none" stroke="midnightblue" d="M447.11,-291.083C452.282,-283.534 459.846,-272.495 466.194,-263.23"/>
<polygon fill="midnightblue" stroke="midnightblue" points="469.239,-264.979 472.004,-254.751 463.464,-261.022 469.239,-264.979"/>
</g>
<!-- Node21 -->
<g id="node21" class="node"><title>Node21</title>
<g id="a_node21"><a xlink:href="settings_8hpp.html" target="_top" xlink:title="settings.hpp">
<polygon fill="none" stroke="black" points="719,-235.5 719,-254.5 789,-254.5 789,-235.5 719,-235.5"/>
<text text-anchor="middle" x="754" y="-242.5" font-family="Helvetica,sans-Serif" font-size="10.00">settings.hpp</text>
</a>
</g>
</g>
<!-- Node18&#45;&gt;Node21 -->
<g id="edge28" class="edge"><title>Node18&#45;&gt;Node21</title>
<path fill="none" stroke="midnightblue" d="M490.596,-291.444C550.6,-281.091 650.769,-263.81 708.751,-253.807"/>
<polygon fill="midnightblue" stroke="midnightblue" points="709.462,-257.236 718.721,-252.086 708.272,-250.338 709.462,-257.236"/>
</g>
<!-- Node21&#45;&gt;Node4 -->
<g id="edge34" class="edge"><title>Node21&#45;&gt;Node4</title>
<path fill="none" stroke="midnightblue" d="M718.768,-236.644C668.892,-226.232 577.404,-207.132 520.079,-195.164"/>
<polygon fill="midnightblue" stroke="midnightblue" points="520.643,-191.706 510.139,-193.089 519.212,-198.559 520.643,-191.706"/>
</g>
<!-- Node21&#45;&gt;Node5 -->
<g id="edge30" class="edge"><title>Node21&#45;&gt;Node5</title>
<path fill="none" stroke="midnightblue" d="M758.525,-235.344C766.965,-219.933 786.491,-187.527 811,-168 841.811,-143.451 870.533,-165.033 892,-132 912.214,-100.895 857.527,-82.2607 819.387,-73.3705"/>
<polygon fill="midnightblue" stroke="midnightblue" points="819.663,-69.8476 809.145,-71.1192 818.16,-76.6844 819.663,-69.8476"/>
</g>
<!-- Node21&#45;&gt;Node9 -->
<g id="edge29" class="edge"><title>Node21&#45;&gt;Node9</title>
<path fill="none" stroke="midnightblue" d="M747.633,-235.463C727.124,-207.962 662.509,-121.319 634.811,-84.1783"/>
<polygon fill="midnightblue" stroke="midnightblue" points="637.398,-81.7923 628.614,-75.8684 631.786,-85.9771 637.398,-81.7923"/>
</g>
<!-- Node21&#45;&gt;Node11 -->
<g id="edge31" class="edge"><title>Node21&#45;&gt;Node11</title>
<path fill="none" stroke="midnightblue" d="M754.928,-235.205C756.893,-220.138 762.634,-188.99 778,-168 787.555,-154.948 802.071,-144.3 814.864,-136.646"/>
<polygon fill="midnightblue" stroke="midnightblue" points="816.794,-139.575 823.779,-131.609 813.351,-133.48 816.794,-139.575"/>
</g>
<!-- Node21&#45;&gt;Node16 -->
<g id="edge33" class="edge"><title>Node21&#45;&gt;Node16</title>
<path fill="none" stroke="midnightblue" d="M789.047,-240.087C835.299,-234.118 912.882,-221.046 930,-199 957.015,-164.209 925.63,-110.73 906.166,-83.769"/>
<polygon fill="midnightblue" stroke="midnightblue" points="908.922,-81.6104 900.124,-75.7076 903.321,-85.8086 908.922,-81.6104"/>
</g>
<!-- Node22 -->
<g id="node22" class="node"><title>Node22</title>
<polygon fill="none" stroke="#bfbfbf" points="820.5,-168.5 820.5,-198.5 921.5,-198.5 921.5,-168.5 820.5,-168.5"/>
<text text-anchor="start" x="828.5" y="-186.5" font-family="Helvetica,sans-Serif" font-size="10.00">boost/property_tree</text>
<text text-anchor="middle" x="871" y="-175.5" font-family="Helvetica,sans-Serif" font-size="10.00">/ptree.hpp</text>
</g>
<!-- Node21&#45;&gt;Node22 -->
<g id="edge32" class="edge"><title>Node21&#45;&gt;Node22</title>
<path fill="none" stroke="midnightblue" d="M770.763,-235.475C787.276,-227.078 813.045,-213.973 834.32,-203.153"/>
<polygon fill="midnightblue" stroke="midnightblue" points="836.098,-206.176 843.425,-198.523 832.925,-199.936 836.098,-206.176"/>
</g>
</g>
</svg>
