<?xml version="1.0" encoding="UTF-8" standalone="no"?>
<!DOCTYPE svg PUBLIC "-//W3C//DTD SVG 1.1//EN"
 "http://www.w3.org/Graphics/SVG/1.1/DTD/svg11.dtd">
<!-- Generated by graphviz version 2.38.0 (20140413.2041)
 -->
<!-- Title: modules/irc/network/functions.hpp Pages: 1 -->
<svg width="188pt" height="95pt"
 viewBox="0.00 0.00 187.50 95.00" xmlns="http://www.w3.org/2000/svg" xmlns:xlink="http://www.w3.org/1999/xlink">
<g id="graph0" class="graph" transform="scale(1 1) rotate(0) translate(4 91)">
<title>modules/irc/network/functions.hpp</title>
<!-- Node1 -->
<g id="node1" class="node"><title>Node1</title>
<polygon fill="#bfbfbf" stroke="black" points="45,-56.5 45,-86.5 149,-86.5 149,-56.5 45,-56.5"/>
<text text-anchor="start" x="53" y="-74.5" font-family="Helvetica,sans-Serif" font-size="10.00">modules/irc/network</text>
<text text-anchor="middle" x="97" y="-63.5" font-family="Helvetica,sans-Serif" font-size="10.00">/functions.hpp</text>
</g>
<!-- Node2 -->
<g id="node2" class="node"><title>Node2</title>
<polygon fill="none" stroke="#bfbfbf" points="0,-0.5 0,-19.5 56,-19.5 56,-0.5 0,-0.5"/>
<text text-anchor="middle" x="28" y="-7.5" font-family="Helvetica,sans-Serif" font-size="10.00">algorithm</text>
</g>
<!-- Node1&#45;&gt;Node2 -->
<g id="edge1" class="edge"><title>Node1&#45;&gt;Node2</title>
<path fill="none" stroke="midnightblue" d="M80.648,-56.3993C70.1046,-47.3076 56.4001,-35.4899 45.6164,-26.1909"/>
<polygon fill="midnightblue" stroke="midnightblue" points="47.899,-23.5377 38.0401,-19.6578 43.3276,-28.8389 47.899,-23.5377"/>
</g>
<!-- Node3 -->
<g id="node3" class="node"><title>Node3</title>
<polygon fill="none" stroke="#bfbfbf" points="74,-0.5 74,-19.5 120,-19.5 120,-0.5 74,-0.5"/>
<text text-anchor="middle" x="97" y="-7.5" font-family="Helvetica,sans-Serif" font-size="10.00">cctype</text>
</g>
<!-- Node1&#45;&gt;Node3 -->
<g id="edge2" class="edge"><title>Node1&#45;&gt;Node3</title>
<path fill="none" stroke="midnightblue" d="M97,-56.3993C97,-48.4664 97,-38.458 97,-29.8583"/>
<polygon fill="midnightblue" stroke="midnightblue" points="100.5,-29.6577 97,-19.6578 93.5001,-29.6578 100.5,-29.6577"/>
</g>
<!-- Node4 -->
<g id="node4" class="node"><title>Node4</title>
<polygon fill="none" stroke="#bfbfbf" points="138.5,-0.5 138.5,-19.5 179.5,-19.5 179.5,-0.5 138.5,-0.5"/>
<text text-anchor="middle" x="159" y="-7.5" font-family="Helvetica,sans-Serif" font-size="10.00">string</text>
</g>
<!-- Node1&#45;&gt;Node4 -->
<g id="edge3" class="edge"><title>Node1&#45;&gt;Node4</title>
<path fill="none" stroke="midnightblue" d="M111.693,-56.3993C120.981,-47.4859 132.999,-35.9523 142.598,-26.7408"/>
<polygon fill="midnightblue" stroke="midnightblue" points="145.187,-29.1072 149.978,-19.6578 140.34,-24.0566 145.187,-29.1072"/>
</g>
</g>
</svg>
