<?xml version="1.0" encoding="UTF-8" standalone="no"?>
<!DOCTYPE svg PUBLIC "-//W3C//DTD SVG 1.1//EN"
 "http://www.w3.org/Graphics/SVG/1.1/DTD/svg11.dtd">
<!-- Generated by graphviz version 2.38.0 (20140413.2041)
 -->
<!-- Title: modules/irc/network/functions.hpp Pages: 1 -->
<svg width="232pt" height="162pt"
 viewBox="0.00 0.00 231.50 162.00" xmlns="http://www.w3.org/2000/svg" xmlns:xlink="http://www.w3.org/1999/xlink">
<g id="graph0" class="graph" transform="scale(1 1) rotate(0) translate(4 158)">
<title>modules/irc/network/functions.hpp</title>
<!-- Node1 -->
<g id="node1" class="node"><title>Node1</title>
<polygon fill="#bfbfbf" stroke="black" points="60,-123.5 60,-153.5 164,-153.5 164,-123.5 60,-123.5"/>
<text text-anchor="start" x="68" y="-141.5" font-family="Helvetica,sans-Serif" font-size="10.00">modules/irc/network</text>
<text text-anchor="middle" x="112" y="-130.5" font-family="Helvetica,sans-Serif" font-size="10.00">/functions.hpp</text>
</g>
<!-- Node2 -->
<g id="node2" class="node"><title>Node2</title>
<g id="a_node2"><a xlink:href="connection_8cpp.html" target="_top" xlink:title="modules/irc/network\l/connection.cpp">
<polygon fill="none" stroke="black" points="0,-56.5 0,-86.5 104,-86.5 104,-56.5 0,-56.5"/>
<text text-anchor="start" x="8" y="-74.5" font-family="Helvetica,sans-Serif" font-size="10.00">modules/irc/network</text>
<text text-anchor="middle" x="52" y="-63.5" font-family="Helvetica,sans-Serif" font-size="10.00">/connection.cpp</text>
</a>
</g>
</g>
<!-- Node1&#45;&gt;Node2 -->
<g id="edge1" class="edge"><title>Node1&#45;&gt;Node2</title>
<path fill="none" stroke="midnightblue" d="M92.1762,-116.024C83.2368,-106.34 72.9298,-95.1739 64.9937,-86.5765"/>
<polygon fill="midnightblue" stroke="midnightblue" points="89.6262,-118.422 98.9809,-123.396 94.7699,-113.674 89.6262,-118.422"/>
</g>
<!-- Node3 -->
<g id="node3" class="node"><title>Node3</title>
<g id="a_node3"><a xlink:href="ctcp_8hpp.html" target="_top" xlink:title="This files has handlers for CTCP messages. ">
<polygon fill="none" stroke="black" points="122.5,-56.5 122.5,-86.5 223.5,-86.5 223.5,-56.5 122.5,-56.5"/>
<text text-anchor="start" x="130.5" y="-74.5" font-family="Helvetica,sans-Serif" font-size="10.00">modules/irc/handler</text>
<text text-anchor="middle" x="173" y="-63.5" font-family="Helvetica,sans-Serif" font-size="10.00">/ctcp.hpp</text>
</a>
</g>
</g>
<!-- Node1&#45;&gt;Node3 -->
<g id="edge2" class="edge"><title>Node1&#45;&gt;Node3</title>
<path fill="none" stroke="midnightblue" d="M132.154,-116.024C141.243,-106.34 151.721,-95.1739 159.79,-86.5765"/>
<polygon fill="midnightblue" stroke="midnightblue" points="129.527,-113.709 125.236,-123.396 134.631,-118.499 129.527,-113.709"/>
</g>
<!-- Node4 -->
<g id="node4" class="node"><title>Node4</title>
<g id="a_node4"><a xlink:href="irc_8cpp.html" target="_top" xlink:title="modules/irc/irc.cpp">
<polygon fill="none" stroke="black" points="123.5,-0.5 123.5,-19.5 222.5,-19.5 222.5,-0.5 123.5,-0.5"/>
<text text-anchor="middle" x="173" y="-7.5" font-family="Helvetica,sans-Serif" font-size="10.00">modules/irc/irc.cpp</text>
</a>
</g>
</g>
<!-- Node3&#45;&gt;Node4 -->
<g id="edge3" class="edge"><title>Node3&#45;&gt;Node4</title>
<path fill="none" stroke="midnightblue" d="M173,-46.2892C173,-36.857 173,-26.6548 173,-19.6578"/>
<polygon fill="midnightblue" stroke="midnightblue" points="169.5,-46.3993 173,-56.3993 176.5,-46.3994 169.5,-46.3993"/>
</g>
</g>
</svg>
