<?xml version="1.0" encoding="UTF-8" standalone="no"?>
<!DOCTYPE svg PUBLIC "-//W3C//DTD SVG 1.1//EN"
 "http://www.w3.org/Graphics/SVG/1.1/DTD/svg11.dtd">
<!-- Generated by graphviz version 2.38.0 (20140413.2041)
 -->
<!-- Title: src/handler/handler_container.hpp Pages: 1 -->
<svg width="1574pt" height="352pt"
 viewBox="0.00 0.00 1573.50 352.00" xmlns="http://www.w3.org/2000/svg" xmlns:xlink="http://www.w3.org/1999/xlink">
<g id="graph0" class="graph" transform="scale(1 1) rotate(0) translate(4 348)">
<title>src/handler/handler_container.hpp</title>
<!-- Node1 -->
<g id="node1" class="node"><title>Node1</title>
<polygon fill="#bfbfbf" stroke="black" points="656,-313.5 656,-343.5 755,-343.5 755,-313.5 656,-313.5"/>
<text text-anchor="start" x="664" y="-331.5" font-family="Helvetica,sans-Serif" font-size="10.00">src/handler/handler</text>
<text text-anchor="middle" x="705.5" y="-320.5" font-family="Helvetica,sans-Serif" font-size="10.00">_container.hpp</text>
</g>
<!-- Node2 -->
<g id="node2" class="node"><title>Node2</title>
<g id="a_node2"><a xlink:href="melanobot_8hpp.html" target="_top" xlink:title="src/melanobot.hpp">
<polygon fill="none" stroke="black" points="657,-257.5 657,-276.5 754,-276.5 754,-257.5 657,-257.5"/>
<text text-anchor="middle" x="705.5" y="-264.5" font-family="Helvetica,sans-Serif" font-size="10.00">src/melanobot.hpp</text>
</a>
</g>
</g>
<!-- Node1&#45;&gt;Node2 -->
<g id="edge1" class="edge"><title>Node1&#45;&gt;Node2</title>
<path fill="none" stroke="midnightblue" d="M705.5,-303.289C705.5,-293.857 705.5,-283.655 705.5,-276.658"/>
<polygon fill="midnightblue" stroke="midnightblue" points="702,-303.399 705.5,-313.399 709,-303.399 702,-303.399"/>
</g>
<!-- Node3 -->
<g id="node3" class="node"><title>Node3</title>
<g id="a_node3"><a xlink:href="melanobot_8cpp.html" target="_top" xlink:title="src/melanobot.cpp">
<polygon fill="none" stroke="black" points="0,-129 0,-148 97,-148 97,-129 0,-129"/>
<text text-anchor="middle" x="48.5" y="-136" font-family="Helvetica,sans-Serif" font-size="10.00">src/melanobot.cpp</text>
</a>
</g>
</g>
<!-- Node2&#45;&gt;Node3 -->
<g id="edge2" class="edge"><title>Node2&#45;&gt;Node3</title>
<path fill="none" stroke="midnightblue" d="M646.653,-256.314C538.878,-238.285 302.744,-197.45 105.5,-154 97.4227,-152.221 88.7504,-150.116 80.6683,-148.069"/>
<polygon fill="midnightblue" stroke="midnightblue" points="646.237,-259.792 656.677,-257.986 647.389,-252.888 646.237,-259.792"/>
</g>
<!-- Node4 -->
<g id="node4" class="node"><title>Node4</title>
<g id="a_node4"><a xlink:href="handler_8hpp.html" target="_top" xlink:title="src/handler/handler.hpp">
<polygon fill="none" stroke="black" points="589.5,-196 589.5,-215 707.5,-215 707.5,-196 589.5,-196"/>
<text text-anchor="middle" x="648.5" y="-203" font-family="Helvetica,sans-Serif" font-size="10.00">src/handler/handler.hpp</text>
</a>
</g>
</g>
<!-- Node2&#45;&gt;Node4 -->
<g id="edge3" class="edge"><title>Node2&#45;&gt;Node4</title>
<path fill="none" stroke="midnightblue" d="M690.17,-249.997C679.381,-238.736 665.365,-224.104 656.652,-215.009"/>
<polygon fill="midnightblue" stroke="midnightblue" points="687.888,-252.675 697.333,-257.475 692.943,-247.833 687.888,-252.675"/>
</g>
<!-- Node21 -->
<g id="node21" class="node"><title>Node21</title>
<g id="a_node21"><a xlink:href="main_8cpp.html" target="_top" xlink:title="src/main.cpp">
<polygon fill="none" stroke="black" points="726,-196 726,-215 799,-215 799,-196 726,-196"/>
<text text-anchor="middle" x="762.5" y="-203" font-family="Helvetica,sans-Serif" font-size="10.00">src/main.cpp</text>
</a>
</g>
</g>
<!-- Node2&#45;&gt;Node21 -->
<g id="edge25" class="edge"><title>Node2&#45;&gt;Node21</title>
<path fill="none" stroke="midnightblue" d="M720.83,-249.997C731.619,-238.736 745.635,-224.104 754.348,-215.009"/>
<polygon fill="midnightblue" stroke="midnightblue" points="718.057,-247.833 713.667,-257.475 723.112,-252.675 718.057,-247.833"/>
</g>
<!-- Node22 -->
<g id="node22" class="node"><title>Node22</title>
<g id="a_node22"><a xlink:href="modules_2irc_2network_2connection_8hpp.html" target="_top" xlink:title="modules/irc/network\l/connection.hpp">
<polygon fill="none" stroke="black" points="1299.5,-190.5 1299.5,-220.5 1403.5,-220.5 1403.5,-190.5 1299.5,-190.5"/>
<text text-anchor="start" x="1307.5" y="-208.5" font-family="Helvetica,sans-Serif" font-size="10.00">modules/irc/network</text>
<text text-anchor="middle" x="1351.5" y="-197.5" font-family="Helvetica,sans-Serif" font-size="10.00">/connection.hpp</text>
</a>
</g>
</g>
<!-- Node2&#45;&gt;Node22 -->
<g id="edge26" class="edge"><title>Node2&#45;&gt;Node22</title>
<path fill="none" stroke="midnightblue" d="M764.2,-260.593C889.238,-249.077 1180.15,-222.283 1299.24,-211.313"/>
<polygon fill="midnightblue" stroke="midnightblue" points="763.692,-257.125 754.055,-261.528 764.334,-264.096 763.692,-257.125"/>
</g>
<!-- Node4&#45;&gt;Node3 -->
<g id="edge4" class="edge"><title>Node4&#45;&gt;Node3</title>
<path fill="none" stroke="midnightblue" d="M579.427,-201.539C475.83,-196.319 274.345,-183.143 105.5,-154 96.6452,-152.472 87.1428,-150.281 78.4842,-148.063"/>
<polygon fill="midnightblue" stroke="midnightblue" points="579.285,-205.036 589.446,-202.035 579.631,-198.045 579.285,-205.036"/>
</g>
<!-- Node5 -->
<g id="node5" class="node"><title>Node5</title>
<g id="a_node5"><a xlink:href="misc_8cpp.html" target="_top" xlink:title="This file defines handlers which perform miscellaneous tasks. ">
<polygon fill="none" stroke="black" points="115,-129 115,-148 222,-148 222,-129 115,-129"/>
<text text-anchor="middle" x="168.5" y="-136" font-family="Helvetica,sans-Serif" font-size="10.00">src/handler/misc.cpp</text>
</a>
</g>
</g>
<!-- Node4&#45;&gt;Node5 -->
<g id="edge5" class="edge"><title>Node4&#45;&gt;Node5</title>
<path fill="none" stroke="midnightblue" d="M579.271,-198.478C496.084,-190.703 352.459,-175.562 230.5,-154 221.138,-152.345 211.07,-150.165 201.825,-148.001"/>
<polygon fill="midnightblue" stroke="midnightblue" points="579.079,-201.975 589.359,-199.413 579.725,-195.005 579.079,-201.975"/>
</g>
<!-- Node6 -->
<g id="node6" class="node"><title>Node6</title>
<g id="a_node6"><a xlink:href="bridge_8hpp.html" target="_top" xlink:title="src/handler/bridge.hpp">
<polygon fill="none" stroke="black" points="240,-129 240,-148 353,-148 353,-129 240,-129"/>
<text text-anchor="middle" x="296.5" y="-136" font-family="Helvetica,sans-Serif" font-size="10.00">src/handler/bridge.hpp</text>
</a>
</g>
</g>
<!-- Node4&#45;&gt;Node6 -->
<g id="edge6" class="edge"><title>Node4&#45;&gt;Node6</title>
<path fill="none" stroke="midnightblue" d="M585.848,-194.316C527.603,-184.649 438.494,-169.353 361.5,-154 352.429,-152.191 342.68,-150.097 333.562,-148.072"/>
<polygon fill="midnightblue" stroke="midnightblue" points="585.559,-197.816 595.996,-195.995 586.701,-190.91 585.559,-197.816"/>
</g>
<!-- Node8 -->
<g id="node8" class="node"><title>Node8</title>
<g id="a_node8"><a xlink:href="admin_8cpp.html" target="_top" xlink:title="This file defines handlers which allows admin to administrate the bot. ">
<polygon fill="none" stroke="black" points="371,-129 371,-148 484,-148 484,-129 371,-129"/>
<text text-anchor="middle" x="427.5" y="-136" font-family="Helvetica,sans-Serif" font-size="10.00">src/handler/admin.cpp</text>
</a>
</g>
</g>
<!-- Node4&#45;&gt;Node8 -->
<g id="edge8" class="edge"><title>Node4&#45;&gt;Node8</title>
<path fill="none" stroke="midnightblue" d="M609.434,-193.01C565.694,-180.145 495.82,-159.594 456.616,-148.064"/>
<polygon fill="midnightblue" stroke="midnightblue" points="608.572,-196.405 619.153,-195.869 610.547,-189.689 608.572,-196.405"/>
</g>
<!-- Node9 -->
<g id="node9" class="node"><title>Node9</title>
<g id="a_node9"><a xlink:href="handler_8cpp.html" target="_top" xlink:title="This file contains the definitions for the most basic and reusable handlers. ">
<polygon fill="none" stroke="black" points="502.5,-129 502.5,-148 620.5,-148 620.5,-129 502.5,-129"/>
<text text-anchor="middle" x="561.5" y="-136" font-family="Helvetica,sans-Serif" font-size="10.00">src/handler/handler.cpp</text>
</a>
</g>
</g>
<!-- Node4&#45;&gt;Node9 -->
<g id="edge9" class="edge"><title>Node4&#45;&gt;Node9</title>
<path fill="none" stroke="midnightblue" d="M628.514,-189.568C611.341,-176.738 587.179,-158.685 573.047,-148.127"/>
<polygon fill="midnightblue" stroke="midnightblue" points="626.661,-192.552 636.767,-195.734 630.851,-186.945 626.661,-192.552"/>
</g>
<!-- Node10 -->
<g id="node10" class="node"><title>Node10</title>
<g id="a_node10"><a xlink:href="fun-handlers_8hpp.html" target="_top" xlink:title="This file contains definitions for handlers which are pretty useless. ">
<polygon fill="none" stroke="black" points="576,-62 576,-81 721,-81 721,-62 576,-62"/>
<text text-anchor="middle" x="648.5" y="-69" font-family="Helvetica,sans-Serif" font-size="10.00">modules/fun/fun&#45;handlers.hpp</text>
</a>
</g>
</g>
<!-- Node4&#45;&gt;Node10 -->
<g id="edge10" class="edge"><title>Node4&#45;&gt;Node10</title>
<path fill="none" stroke="midnightblue" d="M648.5,-185.775C648.5,-156.746 648.5,-102.038 648.5,-81.0212"/>
<polygon fill="midnightblue" stroke="midnightblue" points="645,-185.839 648.5,-195.839 652,-185.839 645,-185.839"/>
</g>
<!-- Node13 -->
<g id="node13" class="node"><title>Node13</title>
<g id="a_node13"><a xlink:href="web-api_8hpp.html" target="_top" xlink:title="modules/web/web&#45;api.hpp">
<polygon fill="none" stroke="black" points="676.5,-129 676.5,-148 806.5,-148 806.5,-129 676.5,-129"/>
<text text-anchor="middle" x="741.5" y="-136" font-family="Helvetica,sans-Serif" font-size="10.00">modules/web/web&#45;api.hpp</text>
</a>
</g>
</g>
<!-- Node4&#45;&gt;Node13 -->
<g id="edge13" class="edge"><title>Node4&#45;&gt;Node13</title>
<path fill="none" stroke="midnightblue" d="M669.361,-189.92C687.747,-177.069 713.912,-158.782 729.156,-148.127"/>
<polygon fill="midnightblue" stroke="midnightblue" points="667.234,-187.136 661.042,-195.734 671.244,-192.874 667.234,-187.136"/>
</g>
<!-- Node16 -->
<g id="node16" class="node"><title>Node16</title>
<g id="a_node16"><a xlink:href="irc__actions_8hpp.html" target="_top" xlink:title="File containing Handlers which manage responses to various IRC commands. ">
<polygon fill="none" stroke="black" points="825,-123.5 825,-153.5 926,-153.5 926,-123.5 825,-123.5"/>
<text text-anchor="start" x="833" y="-141.5" font-family="Helvetica,sans-Serif" font-size="10.00">modules/irc/handler</text>
<text text-anchor="middle" x="875.5" y="-130.5" font-family="Helvetica,sans-Serif" font-size="10.00">/irc_actions.hpp</text>
</a>
</g>
</g>
<!-- Node4&#45;&gt;Node16 -->
<g id="edge17" class="edge"><title>Node4&#45;&gt;Node16</title>
<path fill="none" stroke="midnightblue" d="M688.461,-193.058C726.947,-182.037 785.244,-165.344 826.51,-153.528"/>
<polygon fill="midnightblue" stroke="midnightblue" points="687.294,-189.751 678.644,-195.869 689.221,-196.48 687.294,-189.751"/>
</g>
<!-- Node18 -->
<g id="node18" class="node"><title>Node18</title>
<g id="a_node18"><a xlink:href="ctcp_8hpp.html" target="_top" xlink:title="This files has handlers for CTCP messages. ">
<polygon fill="none" stroke="black" points="944,-123.5 944,-153.5 1045,-153.5 1045,-123.5 944,-123.5"/>
<text text-anchor="start" x="952" y="-141.5" font-family="Helvetica,sans-Serif" font-size="10.00">modules/irc/handler</text>
<text text-anchor="middle" x="994.5" y="-130.5" font-family="Helvetica,sans-Serif" font-size="10.00">/ctcp.hpp</text>
</a>
</g>
</g>
<!-- Node4&#45;&gt;Node18 -->
<g id="edge19" class="edge"><title>Node4&#45;&gt;Node18</title>
<path fill="none" stroke="midnightblue" d="M697.047,-193.861C703.577,-192.514 710.195,-191.192 716.5,-190 812.991,-171.755 838.264,-173.547 934.5,-154 937.546,-153.381 940.671,-152.717 943.819,-152.025"/>
<polygon fill="midnightblue" stroke="midnightblue" points="695.987,-190.507 686.917,-195.983 697.422,-197.359 695.987,-190.507"/>
</g>
<!-- Node19 -->
<g id="node19" class="node"><title>Node19</title>
<g id="a_node19"><a xlink:href="irc__admin_8hpp.html" target="_top" xlink:title="This file defines handlers which allows admin to administrate the bot (IRC&#45;specific actions) ...">
<polygon fill="none" stroke="black" points="1063,-123.5 1063,-153.5 1164,-153.5 1164,-123.5 1063,-123.5"/>
<text text-anchor="start" x="1071" y="-141.5" font-family="Helvetica,sans-Serif" font-size="10.00">modules/irc/handler</text>
<text text-anchor="middle" x="1113.5" y="-130.5" font-family="Helvetica,sans-Serif" font-size="10.00">/irc_admin.hpp</text>
</a>
</g>
</g>
<!-- Node4&#45;&gt;Node19 -->
<g id="edge21" class="edge"><title>Node4&#45;&gt;Node19</title>
<path fill="none" stroke="midnightblue" d="M695.283,-193.86C702.37,-192.441 709.612,-191.099 716.5,-190 865.248,-166.261 905.087,-179.747 1053.5,-154 1056.56,-153.469 1059.7,-152.872 1062.86,-152.231"/>
<polygon fill="midnightblue" stroke="midnightblue" points="694.155,-190.519 685.072,-195.974 695.574,-197.374 694.155,-190.519"/>
</g>
<!-- Node20 -->
<g id="node20" class="node"><title>Node20</title>
<g id="a_node20"><a xlink:href="irc__whois_8hpp.html" target="_top" xlink:title="This file contains handlers for WHOIS recognition on IRC. ">
<polygon fill="none" stroke="black" points="1182,-123.5 1182,-153.5 1283,-153.5 1283,-123.5 1182,-123.5"/>
<text text-anchor="start" x="1190" y="-141.5" font-family="Helvetica,sans-Serif" font-size="10.00">modules/irc/handler</text>
<text text-anchor="middle" x="1232.5" y="-130.5" font-family="Helvetica,sans-Serif" font-size="10.00">/irc_whois.hpp</text>
</a>
</g>
</g>
<!-- Node4&#45;&gt;Node20 -->
<g id="edge23" class="edge"><title>Node4&#45;&gt;Node20</title>
<path fill="none" stroke="midnightblue" d="M694.257,-193.886C701.664,-192.415 709.273,-191.051 716.5,-190 917.68,-160.738 971.733,-185.978 1172.5,-154 1175.57,-153.511 1178.71,-152.947 1181.87,-152.331"/>
<polygon fill="midnightblue" stroke="midnightblue" points="693.421,-190.485 684.337,-195.938 694.839,-197.34 693.421,-190.485"/>
</g>
<!-- Node7 -->
<g id="node7" class="node"><title>Node7</title>
<g id="a_node7"><a xlink:href="bridge_8cpp.html" target="_top" xlink:title="src/handler/bridge.cpp">
<polygon fill="none" stroke="black" points="240,-62 240,-81 353,-81 353,-62 240,-62"/>
<text text-anchor="middle" x="296.5" y="-69" font-family="Helvetica,sans-Serif" font-size="10.00">src/handler/bridge.cpp</text>
</a>
</g>
</g>
<!-- Node6&#45;&gt;Node7 -->
<g id="edge7" class="edge"><title>Node6&#45;&gt;Node7</title>
<path fill="none" stroke="midnightblue" d="M296.5,-118.537C296.5,-106.17 296.5,-90.6198 296.5,-81.1273"/>
<polygon fill="midnightblue" stroke="midnightblue" points="293,-118.734 296.5,-128.734 300,-118.734 293,-118.734"/>
</g>
<!-- Node11 -->
<g id="node11" class="node"><title>Node11</title>
<g id="a_node11"><a xlink:href="fun-handlers_8cpp.html" target="_top" xlink:title="modules/fun/fun&#45;handlers.cpp">
<polygon fill="none" stroke="black" points="442,-0.5 442,-19.5 587,-19.5 587,-0.5 442,-0.5"/>
<text text-anchor="middle" x="514.5" y="-7.5" font-family="Helvetica,sans-Serif" font-size="10.00">modules/fun/fun&#45;handlers.cpp</text>
</a>
</g>
</g>
<!-- Node10&#45;&gt;Node11 -->
<g id="edge11" class="edge"><title>Node10&#45;&gt;Node11</title>
<path fill="none" stroke="midnightblue" d="M619.96,-57.8272C593.945,-46.2761 556.235,-29.5316 533.663,-19.5091"/>
<polygon fill="midnightblue" stroke="midnightblue" points="618.741,-61.1157 629.301,-61.9751 621.582,-54.718 618.741,-61.1157"/>
</g>
<!-- Node12 -->
<g id="node12" class="node"><title>Node12</title>
<g id="a_node12"><a xlink:href="fun_8cpp.html" target="_top" xlink:title="modules/fun/fun.cpp">
<polygon fill="none" stroke="black" points="605,-0.5 605,-19.5 710,-19.5 710,-0.5 605,-0.5"/>
<text text-anchor="middle" x="657.5" y="-7.5" font-family="Helvetica,sans-Serif" font-size="10.00">modules/fun/fun.cpp</text>
</a>
</g>
</g>
<!-- Node10&#45;&gt;Node12 -->
<g id="edge12" class="edge"><title>Node10&#45;&gt;Node12</title>
<path fill="none" stroke="midnightblue" d="M651.326,-51.8165C652.963,-40.9962 654.944,-27.898 656.213,-19.5091"/>
<polygon fill="midnightblue" stroke="midnightblue" points="647.825,-51.5641 649.789,-61.9751 654.746,-52.6111 647.825,-51.5641"/>
</g>
<!-- Node13&#45;&gt;Node10 -->
<g id="edge14" class="edge"><title>Node13&#45;&gt;Node10</title>
<path fill="none" stroke="midnightblue" d="M720.639,-122.92C702.253,-110.069 676.088,-91.7821 660.844,-81.1273"/>
<polygon fill="midnightblue" stroke="midnightblue" points="718.756,-125.874 728.958,-128.734 722.766,-120.136 718.756,-125.874"/>
</g>
<!-- Node14 -->
<g id="node14" class="node"><title>Node14</title>
<g id="a_node14"><a xlink:href="web-api-concrete_8hpp.html" target="_top" xlink:title="This files defines some simple Handlers using web APIs. ">
<polygon fill="none" stroke="black" points="739,-56.5 739,-86.5 850,-86.5 850,-56.5 739,-56.5"/>
<text text-anchor="start" x="747" y="-74.5" font-family="Helvetica,sans-Serif" font-size="10.00">modules/web/web&#45;api</text>
<text text-anchor="middle" x="794.5" y="-63.5" font-family="Helvetica,sans-Serif" font-size="10.00">&#45;concrete.hpp</text>
</a>
</g>
</g>
<!-- Node13&#45;&gt;Node14 -->
<g id="edge15" class="edge"><title>Node13&#45;&gt;Node14</title>
<path fill="none" stroke="midnightblue" d="M755.221,-120.673C763.847,-110.094 774.848,-96.6019 783.012,-86.589"/>
<polygon fill="midnightblue" stroke="midnightblue" points="752.255,-118.772 748.648,-128.734 757.68,-123.195 752.255,-118.772"/>
</g>
<!-- Node15 -->
<g id="node15" class="node"><title>Node15</title>
<g id="a_node15"><a xlink:href="web_8cpp.html" target="_top" xlink:title="modules/web/web.cpp">
<polygon fill="none" stroke="black" points="737.5,-0.5 737.5,-19.5 851.5,-19.5 851.5,-0.5 737.5,-0.5"/>
<text text-anchor="middle" x="794.5" y="-7.5" font-family="Helvetica,sans-Serif" font-size="10.00">modules/web/web.cpp</text>
</a>
</g>
</g>
<!-- Node14&#45;&gt;Node15 -->
<g id="edge16" class="edge"><title>Node14&#45;&gt;Node15</title>
<path fill="none" stroke="midnightblue" d="M794.5,-46.2892C794.5,-36.857 794.5,-26.6548 794.5,-19.6578"/>
<polygon fill="midnightblue" stroke="midnightblue" points="791,-46.3993 794.5,-56.3993 798,-46.3994 791,-46.3993"/>
</g>
<!-- Node17 -->
<g id="node17" class="node"><title>Node17</title>
<g id="a_node17"><a xlink:href="irc_8cpp.html" target="_top" xlink:title="modules/irc/irc.cpp">
<polygon fill="none" stroke="black" points="1064,-62 1064,-81 1163,-81 1163,-62 1064,-62"/>
<text text-anchor="middle" x="1113.5" y="-69" font-family="Helvetica,sans-Serif" font-size="10.00">modules/irc/irc.cpp</text>
</a>
</g>
</g>
<!-- Node16&#45;&gt;Node17 -->
<g id="edge18" class="edge"><title>Node16&#45;&gt;Node17</title>
<path fill="none" stroke="midnightblue" d="M935.947,-120.991C982.523,-108.271 1045.04,-91.1976 1082.11,-81.072"/>
<polygon fill="midnightblue" stroke="midnightblue" points="934.99,-117.625 926.265,-123.636 936.834,-124.377 934.99,-117.625"/>
</g>
<!-- Node18&#45;&gt;Node17 -->
<g id="edge20" class="edge"><title>Node18&#45;&gt;Node17</title>
<path fill="none" stroke="midnightblue" d="M1029.33,-118.473C1052.05,-106.064 1080.6,-90.4716 1097.93,-81.007"/>
<polygon fill="midnightblue" stroke="midnightblue" points="1027.42,-115.531 1020.32,-123.396 1030.78,-121.674 1027.42,-115.531"/>
</g>
<!-- Node19&#45;&gt;Node17 -->
<g id="edge22" class="edge"><title>Node19&#45;&gt;Node17</title>
<path fill="none" stroke="midnightblue" d="M1113.5,-113.25C1113.5,-102.017 1113.5,-89.3767 1113.5,-81.1945"/>
<polygon fill="midnightblue" stroke="midnightblue" points="1110,-113.396 1113.5,-123.396 1117,-113.396 1110,-113.396"/>
</g>
<!-- Node20&#45;&gt;Node17 -->
<g id="edge24" class="edge"><title>Node20&#45;&gt;Node17</title>
<path fill="none" stroke="midnightblue" d="M1197.67,-118.473C1174.95,-106.064 1146.4,-90.4716 1129.07,-81.007"/>
<polygon fill="midnightblue" stroke="midnightblue" points="1196.22,-121.674 1206.68,-123.396 1199.58,-115.531 1196.22,-121.674"/>
</g>
<!-- Node22&#45;&gt;Node17 -->
<g id="edge27" class="edge"><title>Node22&#45;&gt;Node17</title>
<path fill="none" stroke="midnightblue" d="M1340.1,-181.516C1329.81,-163.088 1313.02,-137.921 1291.5,-123 1253.22,-96.4581 1201.2,-83.782 1163.29,-77.7794"/>
<polygon fill="midnightblue" stroke="midnightblue" points="1337.07,-183.278 1344.87,-190.448 1343.24,-179.979 1337.07,-183.278"/>
</g>
<!-- Node23 -->
<g id="node23" class="node"><title>Node23</title>
<g id="a_node23"><a xlink:href="buffer_8cpp.html" target="_top" xlink:title="modules/irc/network\l/buffer.cpp">
<polygon fill="none" stroke="black" points="1339.5,-123.5 1339.5,-153.5 1443.5,-153.5 1443.5,-123.5 1339.5,-123.5"/>
<text text-anchor="start" x="1347.5" y="-141.5" font-family="Helvetica,sans-Serif" font-size="10.00">modules/irc/network</text>
<text text-anchor="middle" x="1391.5" y="-130.5" font-family="Helvetica,sans-Serif" font-size="10.00">/buffer.cpp</text>
</a>
</g>
</g>
<!-- Node22&#45;&gt;Node23 -->
<g id="edge28" class="edge"><title>Node22&#45;&gt;Node23</title>
<path fill="none" stroke="midnightblue" d="M1365.43,-181.867C1371.22,-172.459 1377.76,-161.833 1382.84,-153.577"/>
<polygon fill="midnightblue" stroke="midnightblue" points="1362.44,-180.045 1360.18,-190.396 1368.4,-183.714 1362.44,-180.045"/>
</g>
<!-- Node24 -->
<g id="node24" class="node"><title>Node24</title>
<g id="a_node24"><a xlink:href="connection_8cpp.html" target="_top" xlink:title="modules/irc/network\l/connection.cpp">
<polygon fill="none" stroke="black" points="1461.5,-123.5 1461.5,-153.5 1565.5,-153.5 1565.5,-123.5 1461.5,-123.5"/>
<text text-anchor="start" x="1469.5" y="-141.5" font-family="Helvetica,sans-Serif" font-size="10.00">modules/irc/network</text>
<text text-anchor="middle" x="1513.5" y="-130.5" font-family="Helvetica,sans-Serif" font-size="10.00">/connection.cpp</text>
</a>
</g>
</g>
<!-- Node22&#45;&gt;Node24 -->
<g id="edge29" class="edge"><title>Node22&#45;&gt;Node24</title>
<path fill="none" stroke="midnightblue" d="M1396.25,-186.544C1422.17,-176.143 1454.34,-163.238 1478.42,-153.577"/>
<polygon fill="midnightblue" stroke="midnightblue" points="1394.63,-183.424 1386.65,-190.396 1397.24,-189.92 1394.63,-183.424"/>
</g>
</g>
</svg>
