<?xml version="1.0" encoding="UTF-8" standalone="no"?>
<!DOCTYPE svg PUBLIC "-//W3C//DTD SVG 1.1//EN"
 "http://www.w3.org/Graphics/SVG/1.1/DTD/svg11.dtd">
<!-- Generated by graphviz version 2.38.0 (20140413.2041)
 -->
<!-- Title: src/handler/handler.cpp Pages: 1 -->
<svg width="1299pt" height="442pt"
 viewBox="0.00 0.00 1299.00 442.00" xmlns="http://www.w3.org/2000/svg" xmlns:xlink="http://www.w3.org/1999/xlink">
<g id="graph0" class="graph" transform="scale(1 1) rotate(0) translate(4 438)">
<title>src/handler/handler.cpp</title>
<!-- Node1 -->
<g id="node1" class="node"><title>Node1</title>
<polygon fill="#bfbfbf" stroke="black" points="660,-414.5 660,-433.5 778,-433.5 778,-414.5 660,-414.5"/>
<text text-anchor="middle" x="719" y="-421.5" font-family="Helvetica,sans-Serif" font-size="10.00">src/handler/handler.cpp</text>
</g>
<!-- Node2 -->
<g id="node2" class="node"><title>Node2</title>
<g id="a_node2"><a xlink:href="handler_8hpp.html" target="_top" xlink:title="handler.hpp">
<polygon fill="none" stroke="black" points="685.5,-358.5 685.5,-377.5 752.5,-377.5 752.5,-358.5 685.5,-358.5"/>
<text text-anchor="middle" x="719" y="-365.5" font-family="Helvetica,sans-Serif" font-size="10.00">handler.hpp</text>
</a>
</g>
</g>
<!-- Node1&#45;&gt;Node2 -->
<g id="edge1" class="edge"><title>Node1&#45;&gt;Node2</title>
<path fill="none" stroke="midnightblue" d="M719,-414.083C719,-407.006 719,-396.861 719,-387.986"/>
<polygon fill="midnightblue" stroke="midnightblue" points="722.5,-387.751 719,-377.751 715.5,-387.751 722.5,-387.751"/>
</g>
<!-- Node3 -->
<g id="node3" class="node"><title>Node3</title>
<polygon fill="none" stroke="#bfbfbf" points="259.5,-62 259.5,-81 318.5,-81 318.5,-62 259.5,-62"/>
<text text-anchor="middle" x="289" y="-69" font-family="Helvetica,sans-Serif" font-size="10.00">functional</text>
</g>
<!-- Node2&#45;&gt;Node3 -->
<g id="edge2" class="edge"><title>Node2&#45;&gt;Node3</title>
<path fill="none" stroke="midnightblue" d="M685.229,-365.158C547.817,-357.224 38,-323.318 38,-257 38,-257 38,-257 38,-199 38,-92.4371 149.263,-121.751 250,-87 252.247,-86.2248 254.561,-85.4093 256.887,-84.5767"/>
<polygon fill="midnightblue" stroke="midnightblue" points="258.184,-87.8295 266.381,-81.117 255.787,-81.2526 258.184,-87.8295"/>
</g>
<!-- Node4 -->
<g id="node4" class="node"><title>Node4</title>
<polygon fill="none" stroke="#bfbfbf" points="474.5,-0.5 474.5,-19.5 515.5,-19.5 515.5,-0.5 474.5,-0.5"/>
<text text-anchor="middle" x="495" y="-7.5" font-family="Helvetica,sans-Serif" font-size="10.00">string</text>
</g>
<!-- Node2&#45;&gt;Node4 -->
<g id="edge3" class="edge"><title>Node2&#45;&gt;Node4</title>
<path fill="none" stroke="midnightblue" d="M685.363,-366.078C577.06,-362.849 238.349,-350.659 133,-322 69.5144,-304.729 0,-322.793 0,-257 0,-257 0,-257 0,-137.5 0,-72.661 60.2321,-78.6134 121,-56 183.93,-32.5821 386.534,-17.7794 464.253,-12.838"/>
<polygon fill="midnightblue" stroke="midnightblue" points="464.601,-16.3231 474.364,-12.2063 464.165,-9.33675 464.601,-16.3231"/>
</g>
<!-- Node5 -->
<g id="node5" class="node"><title>Node5</title>
<polygon fill="none" stroke="#bfbfbf" points="916.5,-62 916.5,-81 975.5,-81 975.5,-62 916.5,-62"/>
<text text-anchor="middle" x="946" y="-69" font-family="Helvetica,sans-Serif" font-size="10.00">stdexcept</text>
</g>
<!-- Node2&#45;&gt;Node5 -->
<g id="edge4" class="edge"><title>Node2&#45;&gt;Node5</title>
<path fill="none" stroke="midnightblue" d="M752.601,-367.033C825.543,-366.335 1003.31,-360.45 1146,-322 1214.19,-303.625 1291,-327.623 1291,-257 1291,-257 1291,-257 1291,-199 1291,-134.578 1076.27,-93.0697 985.621,-78.4177"/>
<polygon fill="midnightblue" stroke="midnightblue" points="986.138,-74.956 975.713,-76.8435 985.04,-81.8693 986.138,-74.956"/>
</g>
<!-- Node6 -->
<g id="node6" class="node"><title>Node6</title>
<polygon fill="none" stroke="#bfbfbf" points="926,-246.5 926,-265.5 988,-265.5 988,-246.5 926,-246.5"/>
<text text-anchor="middle" x="957" y="-253.5" font-family="Helvetica,sans-Serif" font-size="10.00">type_traits</text>
</g>
<!-- Node2&#45;&gt;Node6 -->
<g id="edge5" class="edge"><title>Node2&#45;&gt;Node6</title>
<path fill="none" stroke="midnightblue" d="M737.675,-358.368C779.385,-339.091 880.291,-292.454 929.328,-269.789"/>
<polygon fill="midnightblue" stroke="midnightblue" points="930.802,-272.964 938.411,-265.591 927.866,-266.61 930.802,-272.964"/>
</g>
<!-- Node7 -->
<g id="node7" class="node"><title>Node7</title>
<polygon fill="none" stroke="#bfbfbf" points="663.5,-62 663.5,-81 746.5,-81 746.5,-62 663.5,-62"/>
<text text-anchor="middle" x="705" y="-69" font-family="Helvetica,sans-Serif" font-size="10.00">unordered_map</text>
</g>
<!-- Node2&#45;&gt;Node7 -->
<g id="edge6" class="edge"><title>Node2&#45;&gt;Node7</title>
<path fill="none" stroke="midnightblue" d="M723.524,-358.27C743.162,-319.846 818.922,-165.796 794,-123 783.418,-104.828 763.594,-92.6644 745.338,-84.8377"/>
<polygon fill="midnightblue" stroke="midnightblue" points="746.577,-81.5639 735.991,-81.1312 743.996,-88.071 746.577,-81.5639"/>
</g>
<!-- Node8 -->
<g id="node8" class="node"><title>Node8</title>
<g id="a_node8"><a xlink:href="connection_8hpp.html" target="_top" xlink:title="network/connection.hpp">
<polygon fill="none" stroke="black" points="788,-246.5 788,-265.5 908,-265.5 908,-246.5 788,-246.5"/>
<text text-anchor="middle" x="848" y="-253.5" font-family="Helvetica,sans-Serif" font-size="10.00">network/connection.hpp</text>
</a>
</g>
</g>
<!-- Node2&#45;&gt;Node8 -->
<g id="edge7" class="edge"><title>Node2&#45;&gt;Node8</title>
<path fill="none" stroke="midnightblue" d="M729.634,-358.482C740.78,-349.512 758.755,-334.925 774,-322 793.625,-305.361 815.745,-285.826 830.647,-272.548"/>
<polygon fill="midnightblue" stroke="midnightblue" points="833.387,-274.794 838.514,-265.522 828.724,-269.573 833.387,-274.794"/>
</g>
<!-- Node19 -->
<g id="node19" class="node"><title>Node19</title>
<g id="a_node19"><a xlink:href="logger_8hpp.html" target="_top" xlink:title="../string/logger.hpp">
<polygon fill="none" stroke="black" points="588,-190.5 588,-209.5 686,-209.5 686,-190.5 588,-190.5"/>
<text text-anchor="middle" x="637" y="-197.5" font-family="Helvetica,sans-Serif" font-size="10.00">../string/logger.hpp</text>
</a>
</g>
</g>
<!-- Node2&#45;&gt;Node19 -->
<g id="edge46" class="edge"><title>Node2&#45;&gt;Node19</title>
<path fill="none" stroke="midnightblue" d="M714.591,-358.075C701.572,-331.719 663.12,-253.878 645.724,-218.661"/>
<polygon fill="midnightblue" stroke="midnightblue" points="648.799,-216.984 641.232,-209.568 642.523,-220.084 648.799,-216.984"/>
</g>
<!-- Node26 -->
<g id="node26" class="node"><title>Node26</title>
<g id="a_node26"><a xlink:href="settings_8hpp.html" target="_top" xlink:title="settings.hpp">
<polygon fill="none" stroke="black" points="146,-129 146,-148 216,-148 216,-129 146,-129"/>
<text text-anchor="middle" x="181" y="-136" font-family="Helvetica,sans-Serif" font-size="10.00">settings.hpp</text>
</a>
</g>
</g>
<!-- Node2&#45;&gt;Node26 -->
<g id="edge45" class="edge"><title>Node2&#45;&gt;Node26</title>
<path fill="none" stroke="midnightblue" d="M685.425,-365.194C576.742,-358.724 236.783,-333.39 154,-266 126.201,-243.37 112.73,-222.883 127,-190 133.456,-175.124 146.691,-162.632 158.442,-153.794"/>
<polygon fill="midnightblue" stroke="midnightblue" points="160.467,-156.648 166.618,-148.022 156.43,-150.93 160.467,-156.648"/>
</g>
<!-- Node28 -->
<g id="node28" class="node"><title>Node28</title>
<g id="a_node28"><a xlink:href="string__functions_8hpp.html" target="_top" xlink:title="string/string_functions.hpp">
<polygon fill="none" stroke="black" points="1006.5,-302.5 1006.5,-321.5 1137.5,-321.5 1137.5,-302.5 1006.5,-302.5"/>
<text text-anchor="middle" x="1072" y="-309.5" font-family="Helvetica,sans-Serif" font-size="10.00">string/string_functions.hpp</text>
</a>
</g>
</g>
<!-- Node2&#45;&gt;Node28 -->
<g id="edge47" class="edge"><title>Node2&#45;&gt;Node28</title>
<path fill="none" stroke="midnightblue" d="M752.528,-361.871C810.55,-352.995 930.681,-334.618 1005.97,-323.101"/>
<polygon fill="midnightblue" stroke="midnightblue" points="1006.93,-326.495 1016.28,-321.523 1005.87,-319.576 1006.93,-326.495"/>
</g>
<!-- Node32 -->
<g id="node32" class="node"><title>Node32</title>
<g id="a_node32"><a xlink:href="melanobot_8hpp.html" target="_top" xlink:title="melanobot.hpp">
<polygon fill="none" stroke="black" points="387,-302.5 387,-321.5 467,-321.5 467,-302.5 387,-302.5"/>
<text text-anchor="middle" x="427" y="-309.5" font-family="Helvetica,sans-Serif" font-size="10.00">melanobot.hpp</text>
</a>
</g>
</g>
<!-- Node2&#45;&gt;Node32 -->
<g id="edge54" class="edge"><title>Node2&#45;&gt;Node32</title>
<path fill="none" stroke="midnightblue" d="M685.219,-360.753C634.13,-351.305 536.877,-333.32 477.399,-322.32"/>
<polygon fill="midnightblue" stroke="midnightblue" points="477.942,-318.861 467.472,-320.485 476.669,-325.745 477.942,-318.861"/>
</g>
<!-- Node9 -->
<g id="node9" class="node"><title>Node9</title>
<polygon fill="none" stroke="#bfbfbf" points="436,-190.5 436,-209.5 482,-209.5 482,-190.5 436,-190.5"/>
<text text-anchor="middle" x="459" y="-197.5" font-family="Helvetica,sans-Serif" font-size="10.00">atomic</text>
</g>
<!-- Node8&#45;&gt;Node9 -->
<g id="edge8" class="edge"><title>Node8&#45;&gt;Node9</title>
<path fill="none" stroke="midnightblue" d="M787.646,-246.622C704.562,-235.088 557.805,-214.716 492.25,-205.616"/>
<polygon fill="midnightblue" stroke="midnightblue" points="492.468,-202.112 482.082,-204.204 491.505,-209.046 492.468,-202.112"/>
</g>
<!-- Node10 -->
<g id="node10" class="node"><title>Node10</title>
<polygon fill="none" stroke="#bfbfbf" points="816,-190.5 816,-209.5 862,-209.5 862,-190.5 816,-190.5"/>
<text text-anchor="middle" x="839" y="-197.5" font-family="Helvetica,sans-Serif" font-size="10.00">chrono</text>
</g>
<!-- Node8&#45;&gt;Node10 -->
<g id="edge9" class="edge"><title>Node8&#45;&gt;Node10</title>
<path fill="none" stroke="midnightblue" d="M846.514,-246.083C845.321,-238.927 843.606,-228.635 842.115,-219.691"/>
<polygon fill="midnightblue" stroke="midnightblue" points="845.555,-219.04 840.459,-209.751 838.65,-220.19 845.555,-219.04"/>
</g>
<!-- Node11 -->
<g id="node11" class="node"><title>Node11</title>
<polygon fill="none" stroke="#bfbfbf" points="938,-0.5 938,-19.5 984,-19.5 984,-0.5 938,-0.5"/>
<text text-anchor="middle" x="961" y="-7.5" font-family="Helvetica,sans-Serif" font-size="10.00">cstdint</text>
</g>
<!-- Node8&#45;&gt;Node11 -->
<g id="edge10" class="edge"><title>Node8&#45;&gt;Node11</title>
<path fill="none" stroke="midnightblue" d="M862.83,-246.484C887.995,-231.25 938.957,-196.88 966,-154 989.623,-116.543 994.365,-99.0541 984,-56 981.693,-46.4183 976.983,-36.5813 972.422,-28.5579"/>
<polygon fill="midnightblue" stroke="midnightblue" points="975.289,-26.537 967.105,-19.8095 969.308,-30.1727 975.289,-26.537"/>
</g>
<!-- Node12 -->
<g id="node12" class="node"><title>Node12</title>
<polygon fill="none" stroke="#bfbfbf" points="1144,-62 1144,-81 1196,-81 1196,-62 1144,-62"/>
<text text-anchor="middle" x="1170" y="-69" font-family="Helvetica,sans-Serif" font-size="10.00">sstream</text>
</g>
<!-- Node8&#45;&gt;Node12 -->
<g id="edge11" class="edge"><title>Node8&#45;&gt;Node12</title>
<path fill="none" stroke="midnightblue" d="M907.238,-246.476C941.15,-239.885 983.65,-228.635 1018,-210 1077.24,-177.861 1132.03,-118.011 1156.52,-89.0482"/>
<polygon fill="midnightblue" stroke="midnightblue" points="1159.42,-91.0417 1163.12,-81.1162 1154.03,-86.5642 1159.42,-91.0417"/>
</g>
<!-- Node13 -->
<g id="node13" class="node"><title>Node13</title>
<g id="a_node13"><a xlink:href="string_8hpp.html" target="_top" xlink:title="../string/string.hpp">
<polygon fill="none" stroke="black" points="842.5,-129 842.5,-148 937.5,-148 937.5,-129 842.5,-129"/>
<text text-anchor="middle" x="890" y="-136" font-family="Helvetica,sans-Serif" font-size="10.00">../string/string.hpp</text>
</a>
</g>
</g>
<!-- Node8&#45;&gt;Node13 -->
<g id="edge12" class="edge"><title>Node8&#45;&gt;Node13</title>
<path fill="none" stroke="midnightblue" d="M853.147,-246.288C858.229,-237.402 865.951,-223.099 871,-210 877.547,-193.014 882.728,-172.899 886.015,-158.512"/>
<polygon fill="midnightblue" stroke="midnightblue" points="889.515,-158.888 888.235,-148.37 882.677,-157.391 889.515,-158.888"/>
</g>
<!-- Node8&#45;&gt;Node19 -->
<g id="edge26" class="edge"><title>Node8&#45;&gt;Node19</title>
<path fill="none" stroke="midnightblue" d="M814.566,-246.444C778.144,-237.122 719.77,-222.183 679.971,-211.997"/>
<polygon fill="midnightblue" stroke="midnightblue" points="680.833,-208.605 670.277,-209.516 679.097,-215.387 680.833,-208.605"/>
</g>
<!-- Node13&#45;&gt;Node3 -->
<g id="edge14" class="edge"><title>Node13&#45;&gt;Node3</title>
<path fill="none" stroke="midnightblue" d="M842.218,-129.749C826.847,-127.399 809.726,-124.931 794,-123 625.62,-102.324 582.711,-104.775 414,-87 385.389,-83.9856 353.136,-80.2356 328.56,-77.3044"/>
<polygon fill="midnightblue" stroke="midnightblue" points="328.876,-73.8172 318.53,-76.1028 328.043,-80.7675 328.876,-73.8172"/>
</g>
<!-- Node13&#45;&gt;Node4 -->
<g id="edge17" class="edge"><title>Node13&#45;&gt;Node4</title>
<path fill="none" stroke="midnightblue" d="M873.253,-128.898C854.759,-119.241 824.256,-102.841 799,-87 778.735,-74.2891 777.102,-65.1517 755,-56 676.728,-23.5901 575.862,-14.5222 525.891,-11.9853"/>
<polygon fill="midnightblue" stroke="midnightblue" points="525.891,-8.4818 515.743,-11.5257 525.574,-15.4746 525.891,-8.4818"/>
</g>
<!-- Node13&#45;&gt;Node5 -->
<g id="edge16" class="edge"><title>Node13&#45;&gt;Node5</title>
<path fill="none" stroke="midnightblue" d="M897.552,-128.734C906.285,-118.598 920.852,-101.69 931.737,-89.0556"/>
<polygon fill="midnightblue" stroke="midnightblue" points="934.692,-90.9879 938.567,-81.1273 929.388,-86.4189 934.692,-90.9879"/>
</g>
<!-- Node13&#45;&gt;Node7 -->
<g id="edge19" class="edge"><title>Node13&#45;&gt;Node7</title>
<path fill="none" stroke="midnightblue" d="M865.433,-128.869C833.001,-117.473 775.735,-97.3528 739.116,-84.4869"/>
<polygon fill="midnightblue" stroke="midnightblue" points="739.968,-81.0765 729.374,-81.0637 737.648,-87.6807 739.968,-81.0765"/>
</g>
<!-- Node13&#45;&gt;Node11 -->
<g id="edge13" class="edge"><title>Node13&#45;&gt;Node11</title>
<path fill="none" stroke="midnightblue" d="M889.982,-128.983C890.319,-113.386 892.786,-79.6666 907,-56 914.437,-43.6176 926.54,-33.0658 937.405,-25.2987"/>
<polygon fill="midnightblue" stroke="midnightblue" points="939.401,-28.1742 945.74,-19.685 935.49,-22.3682 939.401,-28.1742"/>
</g>
<!-- Node13&#45;&gt;Node12 -->
<g id="edge18" class="edge"><title>Node13&#45;&gt;Node12</title>
<path fill="none" stroke="midnightblue" d="M937.637,-130.43C987.5,-122.394 1067.75,-107.658 1135,-87 1137.15,-86.341 1139.34,-85.6 1141.53,-84.8106"/>
<polygon fill="midnightblue" stroke="midnightblue" points="1142.93,-88.0246 1150.98,-81.1441 1140.4,-81.4986 1142.93,-88.0246"/>
</g>
<!-- Node14 -->
<g id="node14" class="node"><title>Node14</title>
<polygon fill="none" stroke="#bfbfbf" points="808,-62 808,-81 860,-81 860,-62 808,-62"/>
<text text-anchor="middle" x="834" y="-69" font-family="Helvetica,sans-Serif" font-size="10.00">memory</text>
</g>
<!-- Node13&#45;&gt;Node14 -->
<g id="edge15" class="edge"><title>Node13&#45;&gt;Node14</title>
<path fill="none" stroke="midnightblue" d="M882.448,-128.734C873.715,-118.598 859.148,-101.69 848.263,-89.0556"/>
<polygon fill="midnightblue" stroke="midnightblue" points="850.612,-86.4189 841.433,-81.1273 845.308,-90.9879 850.612,-86.4189"/>
</g>
<!-- Node15 -->
<g id="node15" class="node"><title>Node15</title>
<polygon fill="none" stroke="#bfbfbf" points="423,-62 423,-81 467,-81 467,-62 423,-62"/>
<text text-anchor="middle" x="445" y="-69" font-family="Helvetica,sans-Serif" font-size="10.00">vector</text>
</g>
<!-- Node13&#45;&gt;Node15 -->
<g id="edge20" class="edge"><title>Node13&#45;&gt;Node15</title>
<path fill="none" stroke="midnightblue" d="M842.176,-130.064C826.803,-127.731 809.692,-125.194 794,-123 669.739,-105.63 637.713,-107.918 514,-87 501.987,-84.9688 488.885,-82.3252 477.357,-79.8524"/>
<polygon fill="midnightblue" stroke="midnightblue" points="477.805,-76.3679 467.289,-77.652 476.311,-83.2065 477.805,-76.3679"/>
</g>
<!-- Node16 -->
<g id="node16" class="node"><title>Node16</title>
<g id="a_node16"><a xlink:href="color_8hpp.html" target="_top" xlink:title="color.hpp">
<polygon fill="none" stroke="black" points="1070,-62 1070,-81 1126,-81 1126,-62 1070,-62"/>
<text text-anchor="middle" x="1098" y="-69" font-family="Helvetica,sans-Serif" font-size="10.00">color.hpp</text>
</a>
</g>
</g>
<!-- Node13&#45;&gt;Node16 -->
<g id="edge21" class="edge"><title>Node13&#45;&gt;Node16</title>
<path fill="none" stroke="midnightblue" d="M917.621,-128.869C954.475,-117.351 1019.85,-96.9219 1060.95,-84.077"/>
<polygon fill="midnightblue" stroke="midnightblue" points="1062.1,-87.3872 1070.6,-81.0637 1060.01,-80.7058 1062.1,-87.3872"/>
</g>
<!-- Node16&#45;&gt;Node4 -->
<g id="edge25" class="edge"><title>Node16&#45;&gt;Node4</title>
<path fill="none" stroke="midnightblue" d="M1076.5,-61.9096C1070,-59.6359 1062.8,-57.4217 1056,-56 856.977,-14.3627 610.819,-10.6829 525.669,-10.7636"/>
<polygon fill="midnightblue" stroke="midnightblue" points="525.633,-7.2636 515.643,-10.7919 525.653,-14.2636 525.633,-7.2636"/>
</g>
<!-- Node16&#45;&gt;Node11 -->
<g id="edge23" class="edge"><title>Node16&#45;&gt;Node11</title>
<path fill="none" stroke="midnightblue" d="M1078.37,-61.9751C1055.18,-51.9013 1016.38,-35.0525 989.787,-23.5023"/>
<polygon fill="midnightblue" stroke="midnightblue" points="991.159,-20.2824 980.592,-19.5091 988.37,-26.703 991.159,-20.2824"/>
</g>
<!-- Node17 -->
<g id="node17" class="node"><title>Node17</title>
<polygon fill="none" stroke="#bfbfbf" points="1043,-0.5 1043,-19.5 1089,-19.5 1089,-0.5 1043,-0.5"/>
<text text-anchor="middle" x="1066" y="-7.5" font-family="Helvetica,sans-Serif" font-size="10.00">cctype</text>
</g>
<!-- Node16&#45;&gt;Node17 -->
<g id="edge22" class="edge"><title>Node16&#45;&gt;Node17</title>
<path fill="none" stroke="midnightblue" d="M1093.42,-61.9751C1088.76,-53.3152 1081.41,-39.6486 1075.49,-28.6453"/>
<polygon fill="midnightblue" stroke="midnightblue" points="1078.4,-26.6584 1070.58,-19.5091 1072.23,-29.974 1078.4,-26.6584"/>
</g>
<!-- Node18 -->
<g id="node18" class="node"><title>Node18</title>
<polygon fill="none" stroke="#bfbfbf" points="1107.5,-0.5 1107.5,-19.5 1152.5,-19.5 1152.5,-0.5 1107.5,-0.5"/>
<text text-anchor="middle" x="1130" y="-7.5" font-family="Helvetica,sans-Serif" font-size="10.00">cstdlib</text>
</g>
<!-- Node16&#45;&gt;Node18 -->
<g id="edge24" class="edge"><title>Node16&#45;&gt;Node18</title>
<path fill="none" stroke="midnightblue" d="M1102.58,-61.9751C1107.24,-53.3152 1114.59,-39.6486 1120.51,-28.6453"/>
<polygon fill="midnightblue" stroke="midnightblue" points="1123.77,-29.974 1125.42,-19.5091 1117.6,-26.6584 1123.77,-29.974"/>
</g>
<!-- Node19&#45;&gt;Node4 -->
<g id="edge31" class="edge"><title>Node19&#45;&gt;Node4</title>
<path fill="none" stroke="midnightblue" d="M587.792,-196.764C525.715,-192.793 424.232,-182.08 401,-154 386.527,-136.507 402.094,-72.4089 414,-56 426.32,-39.0202 447.107,-27.6625 464.538,-20.6051"/>
<polygon fill="midnightblue" stroke="midnightblue" points="466.188,-23.7242 474.323,-16.9367 463.731,-17.1696 466.188,-23.7242"/>
</g>
<!-- Node19&#45;&gt;Node5 -->
<g id="edge30" class="edge"><title>Node19&#45;&gt;Node5</title>
<path fill="none" stroke="midnightblue" d="M686.303,-195.321C769.23,-188.628 929.265,-173.348 946,-154 960.787,-136.904 957.119,-109.408 952.271,-91.1491"/>
<polygon fill="midnightblue" stroke="midnightblue" points="955.565,-89.9495 949.332,-81.3818 948.862,-91.9661 955.565,-89.9495"/>
</g>
<!-- Node19&#45;&gt;Node7 -->
<g id="edge32" class="edge"><title>Node19&#45;&gt;Node7</title>
<path fill="none" stroke="midnightblue" d="M640.31,-190.334C645.917,-175.976 657.955,-146.509 671,-123 677.451,-111.374 685.772,-98.98 692.568,-89.3798"/>
<polygon fill="midnightblue" stroke="midnightblue" points="695.494,-91.3059 698.504,-81.1478 689.816,-87.2113 695.494,-91.3059"/>
</g>
<!-- Node19&#45;&gt;Node13 -->
<g id="edge39" class="edge"><title>Node19&#45;&gt;Node13</title>
<path fill="none" stroke="midnightblue" d="M673.249,-190.475C718.15,-179.915 794.706,-161.911 843.784,-150.369"/>
<polygon fill="midnightblue" stroke="midnightblue" points="844.885,-153.706 853.819,-148.009 843.283,-146.891 844.885,-153.706"/>
</g>
<!-- Node20 -->
<g id="node20" class="node"><title>Node20</title>
<polygon fill="none" stroke="#bfbfbf" points="574,-129 574,-148 624,-148 624,-129 574,-129"/>
<text text-anchor="middle" x="599" y="-136" font-family="Helvetica,sans-Serif" font-size="10.00">iomanip</text>
</g>
<!-- Node19&#45;&gt;Node20 -->
<g id="edge27" class="edge"><title>Node19&#45;&gt;Node20</title>
<path fill="none" stroke="midnightblue" d="M631.556,-190.475C625.912,-181.638 616.939,-167.589 609.841,-156.475"/>
<polygon fill="midnightblue" stroke="midnightblue" points="612.767,-154.553 604.434,-148.009 606.867,-158.321 612.767,-154.553"/>
</g>
<!-- Node21 -->
<g id="node21" class="node"><title>Node21</title>
<polygon fill="none" stroke="#bfbfbf" points="591,-62 591,-81 645,-81 645,-62 591,-62"/>
<text text-anchor="middle" x="618" y="-69" font-family="Helvetica,sans-Serif" font-size="10.00">iostream</text>
</g>
<!-- Node19&#45;&gt;Node21 -->
<g id="edge28" class="edge"><title>Node19&#45;&gt;Node21</title>
<path fill="none" stroke="midnightblue" d="M611.496,-190.472C595.013,-183.478 574.861,-171.792 565,-154 558.321,-141.949 559.574,-135.664 565,-123 571.222,-108.477 583.899,-96.1508 595.294,-87.3121"/>
<polygon fill="midnightblue" stroke="midnightblue" points="597.599,-89.9643 603.631,-81.2544 593.484,-84.3015 597.599,-89.9643"/>
</g>
<!-- Node22 -->
<g id="node22" class="node"><title>Node22</title>
<polygon fill="none" stroke="#bfbfbf" points="310,-129 310,-148 354,-148 354,-129 310,-129"/>
<text text-anchor="middle" x="332" y="-136" font-family="Helvetica,sans-Serif" font-size="10.00">mutex</text>
</g>
<!-- Node19&#45;&gt;Node22 -->
<g id="edge29" class="edge"><title>Node19&#45;&gt;Node22</title>
<path fill="none" stroke="midnightblue" d="M587.703,-194.007C533.215,-187.741 443.207,-175.165 368,-154 365.56,-153.313 363.059,-152.515 360.568,-151.653"/>
<polygon fill="midnightblue" stroke="midnightblue" points="361.754,-148.36 351.162,-148.114 359.289,-154.911 361.754,-148.36"/>
</g>
<!-- Node23 -->
<g id="node23" class="node"><title>Node23</title>
<polygon fill="none" stroke="#bfbfbf" points="680.5,-123.5 680.5,-153.5 785.5,-153.5 785.5,-123.5 680.5,-123.5"/>
<text text-anchor="start" x="688.5" y="-141.5" font-family="Helvetica,sans-Serif" font-size="10.00">boost/chrono/io/time</text>
<text text-anchor="middle" x="733" y="-130.5" font-family="Helvetica,sans-Serif" font-size="10.00">_point_io.hpp</text>
</g>
<!-- Node19&#45;&gt;Node23 -->
<g id="edge33" class="edge"><title>Node19&#45;&gt;Node23</title>
<path fill="none" stroke="midnightblue" d="M650.754,-190.475C663.999,-182.266 684.503,-169.558 701.724,-158.885"/>
<polygon fill="midnightblue" stroke="midnightblue" points="703.719,-161.766 710.375,-153.523 700.031,-155.816 703.719,-161.766"/>
</g>
<!-- Node24 -->
<g id="node24" class="node"><title>Node24</title>
<g id="a_node24"><a xlink:href="multibuf_8hpp.html" target="_top" xlink:title="multibuf.hpp">
<polygon fill="none" stroke="black" points="410,-129 410,-148 480,-148 480,-129 410,-129"/>
<text text-anchor="middle" x="445" y="-136" font-family="Helvetica,sans-Serif" font-size="10.00">multibuf.hpp</text>
</a>
</g>
</g>
<!-- Node19&#45;&gt;Node24 -->
<g id="edge34" class="edge"><title>Node19&#45;&gt;Node24</title>
<path fill="none" stroke="midnightblue" d="M609.491,-190.475C576.129,-180.136 519.738,-162.661 482.437,-151.102"/>
<polygon fill="midnightblue" stroke="midnightblue" points="483.046,-147.626 472.458,-148.009 480.974,-154.312 483.046,-147.626"/>
</g>
<!-- Node19&#45;&gt;Node26 -->
<g id="edge40" class="edge"><title>Node19&#45;&gt;Node26</title>
<path fill="none" stroke="midnightblue" d="M587.767,-192.576C498.693,-180.953 312.068,-156.602 226.109,-145.386"/>
<polygon fill="midnightblue" stroke="midnightblue" points="226.507,-141.908 216.138,-144.085 225.601,-148.849 226.507,-141.908"/>
</g>
<!-- Node24&#45;&gt;Node4 -->
<g id="edge38" class="edge"><title>Node24&#45;&gt;Node4</title>
<path fill="none" stroke="midnightblue" d="M451.601,-128.648C458.58,-118.905 469.465,-102.554 476,-87 483.885,-68.2331 489.045,-45.432 491.97,-29.729"/>
<polygon fill="midnightblue" stroke="midnightblue" points="495.448,-30.1602 493.713,-19.7083 488.551,-28.9608 495.448,-30.1602"/>
</g>
<!-- Node24&#45;&gt;Node15 -->
<g id="edge37" class="edge"><title>Node24&#45;&gt;Node15</title>
<path fill="none" stroke="midnightblue" d="M445,-128.734C445,-119.183 445,-103.618 445,-91.2829"/>
<polygon fill="midnightblue" stroke="midnightblue" points="448.5,-91.1273 445,-81.1273 441.5,-91.1273 448.5,-91.1273"/>
</g>
<!-- Node24&#45;&gt;Node21 -->
<g id="edge35" class="edge"><title>Node24&#45;&gt;Node21</title>
<path fill="none" stroke="midnightblue" d="M468.84,-128.955C496.236,-119.08 542.502,-102.23 582,-87 583.839,-86.2909 585.728,-85.5546 587.631,-84.8065"/>
<polygon fill="midnightblue" stroke="midnightblue" points="589.103,-87.9875 597.102,-81.0395 586.516,-81.4831 589.103,-87.9875"/>
</g>
<!-- Node25 -->
<g id="node25" class="node"><title>Node25</title>
<polygon fill="none" stroke="#bfbfbf" points="523,-62 523,-81 573,-81 573,-62 523,-62"/>
<text text-anchor="middle" x="548" y="-69" font-family="Helvetica,sans-Serif" font-size="10.00">fstream</text>
</g>
<!-- Node24&#45;&gt;Node25 -->
<g id="edge36" class="edge"><title>Node24&#45;&gt;Node25</title>
<path fill="none" stroke="midnightblue" d="M458.891,-128.734C476.034,-117.916 505.4,-99.3832 525.711,-86.5659"/>
<polygon fill="midnightblue" stroke="midnightblue" points="527.74,-89.4241 534.329,-81.1273 524.004,-83.5043 527.74,-89.4241"/>
</g>
<!-- Node26&#45;&gt;Node4 -->
<g id="edge41" class="edge"><title>Node26&#45;&gt;Node4</title>
<path fill="none" stroke="midnightblue" d="M168.905,-129C148.169,-113.43 110.001,-79.7549 131,-56 152.969,-31.1483 380.32,-16.9399 464.165,-12.5129"/>
<polygon fill="midnightblue" stroke="midnightblue" points="464.528,-15.9989 474.334,-11.9871 464.167,-9.00824 464.528,-15.9989"/>
</g>
<!-- Node26&#45;&gt;Node7 -->
<g id="edge43" class="edge"><title>Node26&#45;&gt;Node7</title>
<path fill="none" stroke="midnightblue" d="M216.16,-133.077C240.069,-130.112 272.427,-126.183 301,-123 457.733,-105.54 499.115,-116.678 654,-87 658.724,-86.0949 663.644,-84.9552 668.483,-83.7144"/>
<polygon fill="midnightblue" stroke="midnightblue" points="669.483,-87.0696 678.215,-81.0683 667.647,-80.3148 669.483,-87.0696"/>
</g>
<!-- Node26&#45;&gt;Node11 -->
<g id="edge42" class="edge"><title>Node26&#45;&gt;Node11</title>
<path fill="none" stroke="midnightblue" d="M205.824,-128.992C234.894,-119.011 284.486,-101.927 327,-87 365.73,-73.4019 373.873,-64.6447 414,-56 605.163,-14.8174 841.36,-10.744 927.539,-10.7482"/>
<polygon fill="midnightblue" stroke="midnightblue" points="927.751,-14.2486 937.758,-10.7686 927.765,-7.24859 927.751,-14.2486"/>
</g>
<!-- Node27 -->
<g id="node27" class="node"><title>Node27</title>
<polygon fill="none" stroke="#bfbfbf" points="140.5,-56.5 140.5,-86.5 241.5,-86.5 241.5,-56.5 140.5,-56.5"/>
<text text-anchor="start" x="148.5" y="-74.5" font-family="Helvetica,sans-Serif" font-size="10.00">boost/property_tree</text>
<text text-anchor="middle" x="191" y="-63.5" font-family="Helvetica,sans-Serif" font-size="10.00">/ptree.hpp</text>
</g>
<!-- Node26&#45;&gt;Node27 -->
<g id="edge44" class="edge"><title>Node26&#45;&gt;Node27</title>
<path fill="none" stroke="midnightblue" d="M182.349,-128.734C183.609,-120.541 185.55,-107.923 187.275,-96.7136"/>
<polygon fill="midnightblue" stroke="midnightblue" points="190.771,-97.005 188.832,-86.589 183.853,-95.9405 190.771,-97.005"/>
</g>
<!-- Node28&#45;&gt;Node4 -->
<g id="edge52" class="edge"><title>Node28&#45;&gt;Node4</title>
<path fill="none" stroke="midnightblue" d="M1062.7,-302.227C1054.25,-293.738 1042.05,-280.116 1035,-266 992.086,-180.074 1056.7,-118.763 984,-56 949.326,-26.0665 628.222,-14.6767 526.057,-11.792"/>
<polygon fill="midnightblue" stroke="midnightblue" points="525.878,-8.2859 515.786,-11.5101 525.686,-15.2833 525.878,-8.2859"/>
</g>
<!-- Node28&#45;&gt;Node6 -->
<g id="edge53" class="edge"><title>Node28&#45;&gt;Node6</title>
<path fill="none" stroke="midnightblue" d="M1053.78,-302.444C1035.1,-293.675 1005.84,-279.935 984.383,-269.858"/>
<polygon fill="midnightblue" stroke="midnightblue" points="985.676,-266.599 975.137,-265.516 982.701,-272.935 985.676,-266.599"/>
</g>
<!-- Node28&#45;&gt;Node12 -->
<g id="edge51" class="edge"><title>Node28&#45;&gt;Node12</title>
<path fill="none" stroke="midnightblue" d="M1128.96,-302.487C1169.97,-295.057 1220.24,-282.82 1233,-266 1275.33,-210.218 1214.35,-124.822 1184.66,-89.1056"/>
<polygon fill="midnightblue" stroke="midnightblue" points="1187.02,-86.4796 1177.86,-81.1438 1181.69,-91.023 1187.02,-86.4796"/>
</g>
<!-- Node29 -->
<g id="node29" class="node"><title>Node29</title>
<polygon fill="none" stroke="#bfbfbf" points="1044,-246.5 1044,-265.5 1100,-265.5 1100,-246.5 1044,-246.5"/>
<text text-anchor="middle" x="1072" y="-253.5" font-family="Helvetica,sans-Serif" font-size="10.00">algorithm</text>
</g>
<!-- Node28&#45;&gt;Node29 -->
<g id="edge48" class="edge"><title>Node28&#45;&gt;Node29</title>
<path fill="none" stroke="midnightblue" d="M1072,-302.083C1072,-295.006 1072,-284.861 1072,-275.986"/>
<polygon fill="midnightblue" stroke="midnightblue" points="1075.5,-275.751 1072,-265.751 1068.5,-275.751 1075.5,-275.751"/>
</g>
<!-- Node30 -->
<g id="node30" class="node"><title>Node30</title>
<polygon fill="none" stroke="#bfbfbf" points="1118.5,-246.5 1118.5,-265.5 1165.5,-265.5 1165.5,-246.5 1118.5,-246.5"/>
<text text-anchor="middle" x="1142" y="-253.5" font-family="Helvetica,sans-Serif" font-size="10.00">iterator</text>
</g>
<!-- Node28&#45;&gt;Node30 -->
<g id="edge49" class="edge"><title>Node28&#45;&gt;Node30</title>
<path fill="none" stroke="midnightblue" d="M1083.25,-302.324C1093.8,-294.185 1109.8,-281.839 1122.44,-272.087"/>
<polygon fill="midnightblue" stroke="midnightblue" points="1124.77,-274.713 1130.55,-265.834 1120.49,-269.171 1124.77,-274.713"/>
</g>
<!-- Node31 -->
<g id="node31" class="node"><title>Node31</title>
<polygon fill="none" stroke="#bfbfbf" points="1183.5,-246.5 1183.5,-265.5 1224.5,-265.5 1224.5,-246.5 1183.5,-246.5"/>
<text text-anchor="middle" x="1204" y="-253.5" font-family="Helvetica,sans-Serif" font-size="10.00">regex</text>
</g>
<!-- Node28&#45;&gt;Node31 -->
<g id="edge50" class="edge"><title>Node28&#45;&gt;Node31</title>
<path fill="none" stroke="midnightblue" d="M1092.92,-302.444C1114.74,-293.517 1149.15,-279.439 1173.89,-269.317"/>
<polygon fill="midnightblue" stroke="midnightblue" points="1175.25,-272.542 1183.18,-265.516 1172.6,-266.063 1175.25,-272.542"/>
</g>
<!-- Node32&#45;&gt;Node7 -->
<g id="edge60" class="edge"><title>Node32&#45;&gt;Node7</title>
<path fill="none" stroke="midnightblue" d="M465.172,-302.433C486.23,-295.828 511.23,-284.578 527,-266 569.557,-215.866 520.553,-171.466 565,-123 572.194,-115.155 628.128,-96.4876 667.078,-84.1793"/>
<polygon fill="midnightblue" stroke="midnightblue" points="668.573,-87.3784 677.066,-81.0442 666.477,-80.6996 668.573,-87.3784"/>
</g>
<!-- Node32&#45;&gt;Node8 -->
<g id="edge68" class="edge"><title>Node32&#45;&gt;Node8</title>
<path fill="none" stroke="midnightblue" d="M467.367,-305.822C539.005,-296.634 689.165,-277.373 777.969,-265.983"/>
<polygon fill="midnightblue" stroke="midnightblue" points="778.482,-269.446 787.955,-264.702 777.591,-262.502 778.482,-269.446"/>
</g>
<!-- Node32&#45;&gt;Node9 -->
<g id="edge55" class="edge"><title>Node32&#45;&gt;Node9</title>
<path fill="none" stroke="midnightblue" d="M429.511,-302.368C434.698,-284.537 446.696,-243.295 453.685,-219.272"/>
<polygon fill="midnightblue" stroke="midnightblue" points="457.068,-220.171 456.501,-209.591 450.347,-218.216 457.068,-220.171"/>
</g>
<!-- Node32&#45;&gt;Node22 -->
<g id="edge57" class="edge"><title>Node32&#45;&gt;Node22</title>
<path fill="none" stroke="midnightblue" d="M425.701,-302.439C422.245,-281.705 411.375,-227.724 387,-190 378.03,-176.118 364.352,-163.537 352.881,-154.405"/>
<polygon fill="midnightblue" stroke="midnightblue" points="354.727,-151.411 344.654,-148.129 350.482,-156.977 354.727,-151.411"/>
</g>
<!-- Node32&#45;&gt;Node26 -->
<g id="edge67" class="edge"><title>Node32&#45;&gt;Node26</title>
<path fill="none" stroke="midnightblue" d="M386.739,-310.244C337.86,-307.818 254.141,-298.722 191,-266 159.186,-249.513 147.002,-242.983 133,-210 124.18,-189.224 142.881,-168.195 159.457,-154.579"/>
<polygon fill="midnightblue" stroke="midnightblue" points="161.985,-157.05 167.774,-148.176 157.715,-151.503 161.985,-157.05"/>
</g>
<!-- Node33 -->
<g id="node33" class="node"><title>Node33</title>
<polygon fill="none" stroke="#bfbfbf" points="142.5,-190.5 142.5,-209.5 237.5,-209.5 237.5,-190.5 142.5,-190.5"/>
<text text-anchor="middle" x="190" y="-197.5" font-family="Helvetica,sans-Serif" font-size="10.00">condition_variable</text>
</g>
<!-- Node32&#45;&gt;Node33 -->
<g id="edge56" class="edge"><title>Node32&#45;&gt;Node33</title>
<path fill="none" stroke="midnightblue" d="M386.609,-307.793C330.342,-302.506 232.401,-290.064 207,-266 194.572,-254.226 190.807,-234.589 189.856,-219.973"/>
<polygon fill="midnightblue" stroke="midnightblue" points="193.344,-219.481 189.585,-209.575 186.347,-219.663 193.344,-219.481"/>
</g>
<!-- Node34 -->
<g id="node34" class="node"><title>Node34</title>
<polygon fill="none" stroke="#bfbfbf" points="335.5,-190.5 335.5,-209.5 378.5,-209.5 378.5,-190.5 335.5,-190.5"/>
<text text-anchor="middle" x="357" y="-197.5" font-family="Helvetica,sans-Serif" font-size="10.00">queue</text>
</g>
<!-- Node32&#45;&gt;Node34 -->
<g id="edge58" class="edge"><title>Node32&#45;&gt;Node34</title>
<path fill="none" stroke="midnightblue" d="M420.116,-302.249C413.214,-293.334 402.431,-279.007 394,-266 383.869,-250.371 373.475,-231.85 366.293,-218.584"/>
<polygon fill="midnightblue" stroke="midnightblue" points="369.29,-216.765 361.485,-209.599 363.118,-220.067 369.29,-216.765"/>
</g>
<!-- Node35 -->
<g id="node35" class="node"><title>Node35</title>
<polygon fill="none" stroke="#bfbfbf" points="474,-246.5 474,-265.5 518,-265.5 518,-246.5 474,-246.5"/>
<text text-anchor="middle" x="496" y="-253.5" font-family="Helvetica,sans-Serif" font-size="10.00">thread</text>
</g>
<!-- Node32&#45;&gt;Node35 -->
<g id="edge59" class="edge"><title>Node32&#45;&gt;Node35</title>
<path fill="none" stroke="midnightblue" d="M438.086,-302.324C448.486,-294.185 464.261,-281.839 476.722,-272.087"/>
<polygon fill="midnightblue" stroke="midnightblue" points="478.994,-274.753 484.712,-265.834 474.68,-269.241 478.994,-274.753"/>
</g>
<!-- Node36 -->
<g id="node36" class="node"><title>Node36</title>
<g id="a_node36"><a xlink:href="concurrent__container_8hpp.html" target="_top" xlink:title="concurrent_container.hpp">
<polygon fill="none" stroke="black" points="216,-246.5 216,-265.5 342,-265.5 342,-246.5 216,-246.5"/>
<text text-anchor="middle" x="279" y="-253.5" font-family="Helvetica,sans-Serif" font-size="10.00">concurrent_container.hpp</text>
</a>
</g>
</g>
<!-- Node32&#45;&gt;Node36 -->
<g id="edge61" class="edge"><title>Node32&#45;&gt;Node36</title>
<path fill="none" stroke="midnightblue" d="M403.549,-302.444C378.867,-293.438 339.815,-279.189 312.023,-269.049"/>
<polygon fill="midnightblue" stroke="midnightblue" points="312.935,-265.656 302.341,-265.516 310.536,-272.232 312.935,-265.656"/>
</g>
<!-- Node36&#45;&gt;Node3 -->
<g id="edge64" class="edge"><title>Node36&#45;&gt;Node3</title>
<path fill="none" stroke="midnightblue" d="M276.606,-246.256C271.133,-224.957 258.861,-168.779 268,-123 270.266,-111.649 275.136,-99.6568 279.616,-90.2084"/>
<polygon fill="midnightblue" stroke="midnightblue" points="282.827,-91.6127 284.183,-81.1049 276.57,-88.474 282.827,-91.6127"/>
</g>
<!-- Node36&#45;&gt;Node9 -->
<g id="edge62" class="edge"><title>Node36&#45;&gt;Node9</title>
<path fill="none" stroke="midnightblue" d="M307.522,-246.444C339.683,-236.795 391.909,-221.127 425.857,-210.943"/>
<polygon fill="midnightblue" stroke="midnightblue" points="427.191,-214.197 435.763,-207.971 425.179,-207.492 427.191,-214.197"/>
</g>
<!-- Node36&#45;&gt;Node15 -->
<g id="edge66" class="edge"><title>Node36&#45;&gt;Node15</title>
<path fill="none" stroke="midnightblue" d="M279.936,-246.275C283.001,-218.362 292.999,-132.512 301,-123 308.468,-114.122 373.128,-93.7519 413.222,-81.7717"/>
<polygon fill="midnightblue" stroke="midnightblue" points="414.245,-85.119 422.837,-78.9188 412.254,-78.4082 414.245,-85.119"/>
</g>
<!-- Node36&#45;&gt;Node33 -->
<g id="edge63" class="edge"><title>Node36&#45;&gt;Node33</title>
<path fill="none" stroke="midnightblue" d="M264.701,-246.324C250.817,-237.9 229.508,-224.971 213.196,-215.074"/>
<polygon fill="midnightblue" stroke="midnightblue" points="214.629,-211.85 204.264,-209.655 210.998,-217.834 214.629,-211.85"/>
</g>
<!-- Node36&#45;&gt;Node34 -->
<g id="edge65" class="edge"><title>Node36&#45;&gt;Node34</title>
<path fill="none" stroke="midnightblue" d="M291.532,-246.324C303.586,-237.979 322.027,-225.212 336.269,-215.352"/>
<polygon fill="midnightblue" stroke="midnightblue" points="338.269,-218.224 344.499,-209.655 334.285,-212.469 338.269,-218.224"/>
</g>
</g>
</svg>
