<?xml version="1.0" encoding="UTF-8" standalone="no"?>
<!DOCTYPE svg PUBLIC "-//W3C//DTD SVG 1.1//EN"
 "http://www.w3.org/Graphics/SVG/1.1/DTD/svg11.dtd">
<!-- Generated by graphviz version 2.38.0 (20140413.2041)
 -->
<!-- Title: src/handler/handler.cpp Pages: 1 -->
<svg width="1737pt" height="442pt"
 viewBox="0.00 0.00 1736.50 442.00" xmlns="http://www.w3.org/2000/svg" xmlns:xlink="http://www.w3.org/1999/xlink">
<g id="graph0" class="graph" transform="scale(1 1) rotate(0) translate(4 438)">
<title>src/handler/handler.cpp</title>
<!-- Node1 -->
<g id="node1" class="node"><title>Node1</title>
<polygon fill="#bfbfbf" stroke="black" points="550,-414.5 550,-433.5 668,-433.5 668,-414.5 550,-414.5"/>
<text text-anchor="middle" x="609" y="-421.5" font-family="Helvetica,sans-Serif" font-size="10.00">src/handler/handler.cpp</text>
</g>
<!-- Node2 -->
<g id="node2" class="node"><title>Node2</title>
<g id="a_node2"><a xlink:href="handler_8hpp.html" target="_top" xlink:title="handler.hpp">
<polygon fill="none" stroke="black" points="575.5,-358.5 575.5,-377.5 642.5,-377.5 642.5,-358.5 575.5,-358.5"/>
<text text-anchor="middle" x="609" y="-365.5" font-family="Helvetica,sans-Serif" font-size="10.00">handler.hpp</text>
</a>
</g>
</g>
<!-- Node1&#45;&gt;Node2 -->
<g id="edge1" class="edge"><title>Node1&#45;&gt;Node2</title>
<path fill="none" stroke="midnightblue" d="M609,-414.083C609,-407.006 609,-396.861 609,-387.986"/>
<polygon fill="midnightblue" stroke="midnightblue" points="612.5,-387.751 609,-377.751 605.5,-387.751 612.5,-387.751"/>
</g>
<!-- Node3 -->
<g id="node3" class="node"><title>Node3</title>
<polygon fill="none" stroke="#bfbfbf" points="966.5,-62 966.5,-81 1025.5,-81 1025.5,-62 966.5,-62"/>
<text text-anchor="middle" x="996" y="-69" font-family="Helvetica,sans-Serif" font-size="10.00">functional</text>
</g>
<!-- Node2&#45;&gt;Node3 -->
<g id="edge2" class="edge"><title>Node2&#45;&gt;Node3</title>
<path fill="none" stroke="midnightblue" d="M606.778,-358.4C600.116,-330.468 583.239,-241.144 625,-190 660.217,-146.87 695.815,-180.101 745,-154 764.253,-143.783 763.352,-132.435 783,-123 851.836,-89.9439 877.232,-106.735 951,-87 954.353,-86.1031 957.825,-85.1069 961.287,-84.0687"/>
<polygon fill="midnightblue" stroke="midnightblue" points="962.394,-87.3898 970.904,-81.0792 960.316,-80.7053 962.394,-87.3898"/>
</g>
<!-- Node4 -->
<g id="node4" class="node"><title>Node4</title>
<polygon fill="none" stroke="#bfbfbf" points="394.5,-0.5 394.5,-19.5 435.5,-19.5 435.5,-0.5 394.5,-0.5"/>
<text text-anchor="middle" x="415" y="-7.5" font-family="Helvetica,sans-Serif" font-size="10.00">string</text>
</g>
<!-- Node2&#45;&gt;Node4 -->
<g id="edge3" class="edge"><title>Node2&#45;&gt;Node4</title>
<path fill="none" stroke="midnightblue" d="M575.39,-364.525C447.72,-354.681 0,-315.958 0,-257 0,-257 0,-257 0,-137.5 0,-96.9525 7.81702,-79.3021 41,-56 96.078,-17.3226 304.341,-11.7496 383.872,-11.051"/>
<polygon fill="midnightblue" stroke="midnightblue" points="384.234,-14.5487 394.21,-10.9818 384.187,-7.54886 384.234,-14.5487"/>
</g>
<!-- Node5 -->
<g id="node5" class="node"><title>Node5</title>
<polygon fill="none" stroke="#bfbfbf" points="516.5,-62 516.5,-81 575.5,-81 575.5,-62 516.5,-62"/>
<text text-anchor="middle" x="546" y="-69" font-family="Helvetica,sans-Serif" font-size="10.00">stdexcept</text>
</g>
<!-- Node2&#45;&gt;Node5 -->
<g id="edge4" class="edge"><title>Node2&#45;&gt;Node5</title>
<path fill="none" stroke="midnightblue" d="M584.212,-358.42C524.579,-336.123 375.078,-269.878 335,-154 308.994,-78.8097 424.168,-107.656 501,-87 504.351,-86.099 507.823,-85.1 511.285,-84.0601"/>
<polygon fill="midnightblue" stroke="midnightblue" points="512.393,-87.3809 520.901,-81.0681 510.313,-80.6969 512.393,-87.3809"/>
</g>
<!-- Node6 -->
<g id="node6" class="node"><title>Node6</title>
<polygon fill="none" stroke="#bfbfbf" points="1392,-246.5 1392,-265.5 1454,-265.5 1454,-246.5 1392,-246.5"/>
<text text-anchor="middle" x="1423" y="-253.5" font-family="Helvetica,sans-Serif" font-size="10.00">type_traits</text>
</g>
<!-- Node2&#45;&gt;Node6 -->
<g id="edge5" class="edge"><title>Node2&#45;&gt;Node6</title>
<path fill="none" stroke="midnightblue" d="M642.666,-366.753C782.512,-365.497 1313.29,-358.354 1378,-322 1396.28,-311.731 1408.77,-290.575 1415.86,-275.18"/>
<polygon fill="midnightblue" stroke="midnightblue" points="1419.23,-276.219 1419.92,-265.647 1412.79,-273.477 1419.23,-276.219"/>
</g>
<!-- Node7 -->
<g id="node7" class="node"><title>Node7</title>
<polygon fill="none" stroke="#bfbfbf" points="1140.5,-0.5 1140.5,-19.5 1223.5,-19.5 1223.5,-0.5 1140.5,-0.5"/>
<text text-anchor="middle" x="1182" y="-7.5" font-family="Helvetica,sans-Serif" font-size="10.00">unordered_map</text>
</g>
<!-- Node2&#45;&gt;Node7 -->
<g id="edge6" class="edge"><title>Node2&#45;&gt;Node7</title>
<path fill="none" stroke="midnightblue" d="M642.77,-366.873C785.581,-365.457 1335.71,-350.831 1404,-210 1437.74,-140.414 1390.02,-94.5845 1323,-56 1295.33,-40.0718 1261.31,-29.005 1233.62,-21.8327"/>
<polygon fill="midnightblue" stroke="midnightblue" points="1234.27,-18.3894 1223.72,-19.3646 1232.58,-25.1812 1234.27,-18.3894"/>
</g>
<!-- Node8 -->
<g id="node8" class="node"><title>Node8</title>
<g id="a_node8"><a xlink:href="connection_8hpp.html" target="_top" xlink:title="network/connection.hpp">
<polygon fill="none" stroke="black" points="636,-246.5 636,-265.5 756,-265.5 756,-246.5 636,-246.5"/>
<text text-anchor="middle" x="696" y="-253.5" font-family="Helvetica,sans-Serif" font-size="10.00">network/connection.hpp</text>
</a>
</g>
</g>
<!-- Node2&#45;&gt;Node8 -->
<g id="edge7" class="edge"><title>Node2&#45;&gt;Node8</title>
<path fill="none" stroke="midnightblue" d="M615.827,-358.368C630.248,-340.135 664.027,-297.426 682.811,-273.675"/>
<polygon fill="midnightblue" stroke="midnightblue" points="685.747,-275.606 689.205,-265.591 680.256,-271.264 685.747,-275.606"/>
</g>
<!-- Node19 -->
<g id="node19" class="node"><title>Node19</title>
<g id="a_node19"><a xlink:href="logger_8hpp.html" target="_top" xlink:title="string/logger.hpp">
<polygon fill="none" stroke="black" points="388.5,-190.5 388.5,-209.5 477.5,-209.5 477.5,-190.5 388.5,-190.5"/>
<text text-anchor="middle" x="433" y="-197.5" font-family="Helvetica,sans-Serif" font-size="10.00">string/logger.hpp</text>
</a>
</g>
</g>
<!-- Node2&#45;&gt;Node19 -->
<g id="edge57" class="edge"><title>Node2&#45;&gt;Node19</title>
<path fill="none" stroke="midnightblue" d="M597.772,-358.35C586.461,-349.512 568.636,-335.246 554,-322 514.198,-285.979 470.3,-240.525 447.918,-216.9"/>
<polygon fill="midnightblue" stroke="midnightblue" points="450.349,-214.377 440.941,-209.505 445.258,-219.181 450.349,-214.377"/>
</g>
<!-- Node26 -->
<g id="node26" class="node"><title>Node26</title>
<g id="a_node26"><a xlink:href="settings_8hpp.html" target="_top" xlink:title="settings.hpp">
<polygon fill="none" stroke="black" points="218,-129 218,-148 288,-148 288,-129 218,-129"/>
<text text-anchor="middle" x="253" y="-136" font-family="Helvetica,sans-Serif" font-size="10.00">settings.hpp</text>
</a>
</g>
</g>
<!-- Node2&#45;&gt;Node26 -->
<g id="edge56" class="edge"><title>Node2&#45;&gt;Node26</title>
<path fill="none" stroke="midnightblue" d="M575.3,-366.128C506.679,-363.685 353.93,-354.631 315,-322 264.799,-279.923 255.12,-195.489 253.344,-158.076"/>
<polygon fill="midnightblue" stroke="midnightblue" points="256.842,-157.952 253.011,-148.074 249.846,-158.185 256.842,-157.952"/>
</g>
<!-- Node33 -->
<g id="node33" class="node"><title>Node33</title>
<g id="a_node33"><a xlink:href="string__functions_8hpp.html" target="_top" xlink:title="string/string_functions.hpp">
<polygon fill="none" stroke="black" points="1454.5,-302.5 1454.5,-321.5 1585.5,-321.5 1585.5,-302.5 1454.5,-302.5"/>
<text text-anchor="middle" x="1520" y="-309.5" font-family="Helvetica,sans-Serif" font-size="10.00">string/string_functions.hpp</text>
</a>
</g>
</g>
<!-- Node2&#45;&gt;Node33 -->
<g id="edge58" class="edge"><title>Node2&#45;&gt;Node33</title>
<path fill="none" stroke="midnightblue" d="M642.537,-365.655C754.085,-361.075 1122.79,-345.077 1427,-322 1432.7,-321.568 1438.59,-321.084 1444.52,-320.571"/>
<polygon fill="midnightblue" stroke="midnightblue" points="1444.84,-324.056 1454.49,-319.684 1444.22,-317.084 1444.84,-324.056"/>
</g>
<!-- Node37 -->
<g id="node37" class="node"><title>Node37</title>
<g id="a_node37"><a xlink:href="melanobot_8hpp.html" target="_top" xlink:title="melanobot.hpp">
<polygon fill="none" stroke="black" points="991,-302.5 991,-321.5 1071,-321.5 1071,-302.5 991,-302.5"/>
<text text-anchor="middle" x="1031" y="-309.5" font-family="Helvetica,sans-Serif" font-size="10.00">melanobot.hpp</text>
</a>
</g>
</g>
<!-- Node2&#45;&gt;Node37 -->
<g id="edge65" class="edge"><title>Node2&#45;&gt;Node37</title>
<path fill="none" stroke="midnightblue" d="M642.821,-362.672C716.871,-353.197 893.668,-330.573 980.764,-319.428"/>
<polygon fill="midnightblue" stroke="midnightblue" points="981.453,-322.869 990.928,-318.128 980.564,-315.925 981.453,-322.869"/>
</g>
<!-- Node9 -->
<g id="node9" class="node"><title>Node9</title>
<polygon fill="none" stroke="#bfbfbf" points="1081,-190.5 1081,-209.5 1127,-209.5 1127,-190.5 1081,-190.5"/>
<text text-anchor="middle" x="1104" y="-197.5" font-family="Helvetica,sans-Serif" font-size="10.00">atomic</text>
</g>
<!-- Node8&#45;&gt;Node9 -->
<g id="edge8" class="edge"><title>Node8&#45;&gt;Node9</title>
<path fill="none" stroke="midnightblue" d="M756.175,-250.518C828.567,-244.517 953.865,-232.187 1070.82,-209.737"/>
<polygon fill="midnightblue" stroke="midnightblue" points="1071.52,-213.167 1080.66,-207.82 1070.18,-206.296 1071.52,-213.167"/>
</g>
<!-- Node10 -->
<g id="node10" class="node"><title>Node10</title>
<polygon fill="none" stroke="#bfbfbf" points="634,-190.5 634,-209.5 680,-209.5 680,-190.5 634,-190.5"/>
<text text-anchor="middle" x="657" y="-197.5" font-family="Helvetica,sans-Serif" font-size="10.00">chrono</text>
</g>
<!-- Node8&#45;&gt;Node10 -->
<g id="edge9" class="edge"><title>Node8&#45;&gt;Node10</title>
<path fill="none" stroke="midnightblue" d="M689.56,-246.083C684.051,-238.455 675.969,-227.264 669.235,-217.941"/>
<polygon fill="midnightblue" stroke="midnightblue" points="672.013,-215.809 663.32,-209.751 666.338,-219.907 672.013,-215.809"/>
</g>
<!-- Node11 -->
<g id="node11" class="node"><title>Node11</title>
<polygon fill="none" stroke="#bfbfbf" points="615,-0.5 615,-19.5 661,-19.5 661,-0.5 615,-0.5"/>
<text text-anchor="middle" x="638" y="-7.5" font-family="Helvetica,sans-Serif" font-size="10.00">cstdint</text>
</g>
<!-- Node8&#45;&gt;Node11 -->
<g id="edge10" class="edge"><title>Node8&#45;&gt;Node11</title>
<path fill="none" stroke="midnightblue" d="M670.839,-246.378C654.581,-239.343 634.707,-227.645 625,-210 592.344,-150.64 617.207,-65.7543 630.737,-29.0497"/>
<polygon fill="midnightblue" stroke="midnightblue" points="634.025,-30.2494 634.346,-19.6594 627.491,-27.7381 634.025,-30.2494"/>
</g>
<!-- Node12 -->
<g id="node12" class="node"><title>Node12</title>
<polygon fill="none" stroke="#bfbfbf" points="1044,-62 1044,-81 1096,-81 1096,-62 1044,-62"/>
<text text-anchor="middle" x="1070" y="-69" font-family="Helvetica,sans-Serif" font-size="10.00">sstream</text>
</g>
<!-- Node8&#45;&gt;Node12 -->
<g id="edge11" class="edge"><title>Node8&#45;&gt;Node12</title>
<path fill="none" stroke="midnightblue" d="M709.429,-246.468C735.878,-229.54 796.371,-190.206 845,-154 862.482,-140.984 863.462,-132.66 883,-123 944.846,-92.4225 968.264,-107.946 1034,-87 1036.28,-86.2751 1038.61,-85.473 1040.94,-84.629"/>
<polygon fill="midnightblue" stroke="midnightblue" points="1042.3,-87.8581 1050.39,-81.014 1039.8,-81.3208 1042.3,-87.8581"/>
</g>
<!-- Node13 -->
<g id="node13" class="node"><title>Node13</title>
<g id="a_node13"><a xlink:href="string_8hpp.html" target="_top" xlink:title="string/string.hpp">
<polygon fill="none" stroke="black" points="650,-129 650,-148 736,-148 736,-129 650,-129"/>
<text text-anchor="middle" x="693" y="-136" font-family="Helvetica,sans-Serif" font-size="10.00">string/string.hpp</text>
</a>
</g>
</g>
<!-- Node8&#45;&gt;Node13 -->
<g id="edge12" class="edge"><title>Node8&#45;&gt;Node13</title>
<path fill="none" stroke="midnightblue" d="M695.775,-246.319C695.292,-227.757 694.152,-183.839 693.493,-158.473"/>
<polygon fill="midnightblue" stroke="midnightblue" points="696.987,-158.188 693.228,-148.282 689.989,-158.37 696.987,-158.188"/>
</g>
<!-- Node8&#45;&gt;Node19 -->
<g id="edge26" class="edge"><title>Node8&#45;&gt;Node19</title>
<path fill="none" stroke="midnightblue" d="M654.327,-246.444C608.255,-236.984 534.004,-221.738 484.369,-211.547"/>
<polygon fill="midnightblue" stroke="midnightblue" points="484.978,-208.099 474.478,-209.516 483.57,-214.956 484.978,-208.099"/>
</g>
<!-- Node28 -->
<g id="node28" class="node"><title>Node28</title>
<g id="a_node28"><a xlink:href="auth__system_8hpp.html" target="_top" xlink:title="user/auth_system.hpp">
<polygon fill="none" stroke="black" points="949.5,-190.5 949.5,-209.5 1062.5,-209.5 1062.5,-190.5 949.5,-190.5"/>
<text text-anchor="middle" x="1006" y="-197.5" font-family="Helvetica,sans-Serif" font-size="10.00">user/auth_system.hpp</text>
</a>
</g>
</g>
<!-- Node8&#45;&gt;Node28 -->
<g id="edge45" class="edge"><title>Node8&#45;&gt;Node28</title>
<path fill="none" stroke="midnightblue" d="M745.12,-246.444C799.879,-236.905 888.41,-221.483 946.911,-211.293"/>
<polygon fill="midnightblue" stroke="midnightblue" points="947.858,-214.681 957.109,-209.516 946.657,-207.785 947.858,-214.681"/>
</g>
<!-- Node31 -->
<g id="node31" class="node"><title>Node31</title>
<g id="a_node31"><a xlink:href="user__manager_8hpp.html" target="_top" xlink:title="user/user_manager.hpp">
<polygon fill="none" stroke="black" points="812.5,-190.5 812.5,-209.5 931.5,-209.5 931.5,-190.5 812.5,-190.5"/>
<text text-anchor="middle" x="872" y="-197.5" font-family="Helvetica,sans-Serif" font-size="10.00">user/user_manager.hpp</text>
</a>
</g>
</g>
<!-- Node8&#45;&gt;Node31 -->
<g id="edge53" class="edge"><title>Node8&#45;&gt;Node31</title>
<path fill="none" stroke="midnightblue" d="M723.888,-246.444C753.754,-237.28 801.315,-222.688 834.456,-212.519"/>
<polygon fill="midnightblue" stroke="midnightblue" points="835.709,-215.796 844.243,-209.516 833.656,-209.104 835.709,-215.796"/>
</g>
<!-- Node13&#45;&gt;Node3 -->
<g id="edge14" class="edge"><title>Node13&#45;&gt;Node3</title>
<path fill="none" stroke="midnightblue" d="M724.859,-128.96C733.026,-126.891 741.816,-124.768 750,-123 839.137,-103.746 863.583,-109.327 952,-87 955.378,-86.1471 958.872,-85.1677 962.346,-84.1291"/>
<polygon fill="midnightblue" stroke="midnightblue" points="963.485,-87.4401 971.974,-81.1009 961.385,-80.7626 963.485,-87.4401"/>
</g>
<!-- Node13&#45;&gt;Node4 -->
<g id="edge17" class="edge"><title>Node13&#45;&gt;Node4</title>
<path fill="none" stroke="midnightblue" d="M684.176,-128.991C666.579,-112.484 625.253,-75.9853 584,-56 538.436,-33.9262 480.526,-21.5162 445.686,-15.546"/>
<polygon fill="midnightblue" stroke="midnightblue" points="446.089,-12.0653 435.654,-13.8964 444.953,-18.9725 446.089,-12.0653"/>
</g>
<!-- Node13&#45;&gt;Node5 -->
<g id="edge16" class="edge"><title>Node13&#45;&gt;Node5</title>
<path fill="none" stroke="midnightblue" d="M673.48,-128.869C648.219,-117.699 604.001,-98.1468 574.858,-85.2602"/>
<polygon fill="midnightblue" stroke="midnightblue" points="576.162,-82.0103 565.601,-81.1672 573.332,-88.4123 576.162,-82.0103"/>
</g>
<!-- Node13&#45;&gt;Node7 -->
<g id="edge19" class="edge"><title>Node13&#45;&gt;Node7</title>
<path fill="none" stroke="midnightblue" d="M725.804,-128.936C733.713,-126.932 742.147,-124.845 750,-123 823.915,-105.638 848.17,-119.053 917,-87 937.389,-77.5051 936.54,-65.3424 957,-56 964.901,-52.3924 1066.48,-32.8116 1130.42,-20.6981"/>
<polygon fill="midnightblue" stroke="midnightblue" points="1131.16,-24.1196 1140.34,-18.8216 1129.86,-17.2416 1131.16,-24.1196"/>
</g>
<!-- Node13&#45;&gt;Node11 -->
<g id="edge13" class="edge"><title>Node13&#45;&gt;Node11</title>
<path fill="none" stroke="midnightblue" d="M689.22,-128.805C680.31,-108.313 657.846,-56.6451 645.844,-29.0416"/>
<polygon fill="midnightblue" stroke="midnightblue" points="649.004,-27.5308 641.807,-19.7557 642.584,-30.322 649.004,-27.5308"/>
</g>
<!-- Node13&#45;&gt;Node12 -->
<g id="edge18" class="edge"><title>Node13&#45;&gt;Node12</title>
<path fill="none" stroke="midnightblue" d="M736.008,-130.416C750.884,-128.007 767.667,-125.335 783,-123 894.413,-106.037 925.169,-116.264 1034,-87 1036.51,-86.3264 1039.07,-85.5275 1041.62,-84.6561"/>
<polygon fill="midnightblue" stroke="midnightblue" points="1043.1,-87.8391 1051.24,-81.0486 1040.64,-81.2855 1043.1,-87.8391"/>
</g>
<!-- Node14 -->
<g id="node14" class="node"><title>Node14</title>
<polygon fill="none" stroke="#bfbfbf" points="820,-62 820,-81 872,-81 872,-62 820,-62"/>
<text text-anchor="middle" x="846" y="-69" font-family="Helvetica,sans-Serif" font-size="10.00">memory</text>
</g>
<!-- Node13&#45;&gt;Node14 -->
<g id="edge15" class="edge"><title>Node13&#45;&gt;Node14</title>
<path fill="none" stroke="midnightblue" d="M713.317,-128.869C739.723,-117.65 786.032,-97.9766 816.359,-85.0925"/>
<polygon fill="midnightblue" stroke="midnightblue" points="817.763,-88.2987 825.599,-81.1672 815.026,-81.856 817.763,-88.2987"/>
</g>
<!-- Node15 -->
<g id="node15" class="node"><title>Node15</title>
<polygon fill="none" stroke="#bfbfbf" points="1078,-0.5 1078,-19.5 1122,-19.5 1122,-0.5 1078,-0.5"/>
<text text-anchor="middle" x="1100" y="-7.5" font-family="Helvetica,sans-Serif" font-size="10.00">vector</text>
</g>
<!-- Node13&#45;&gt;Node15 -->
<g id="edge20" class="edge"><title>Node13&#45;&gt;Node15</title>
<path fill="none" stroke="midnightblue" d="M725.89,-128.994C777.875,-115.503 873.903,-90.3719 881,-87 902.28,-76.8898 902.659,-65.9812 924,-56 971.583,-33.7453 1031.75,-21.4005 1067.99,-15.491"/>
<polygon fill="midnightblue" stroke="midnightblue" points="1068.64,-18.9308 1077.98,-13.9258 1067.56,-12.0151 1068.64,-18.9308"/>
</g>
<!-- Node16 -->
<g id="node16" class="node"><title>Node16</title>
<g id="a_node16"><a xlink:href="color_8hpp.html" target="_top" xlink:title="color.hpp">
<polygon fill="none" stroke="black" points="708,-62 708,-81 764,-81 764,-62 708,-62"/>
<text text-anchor="middle" x="736" y="-69" font-family="Helvetica,sans-Serif" font-size="10.00">color.hpp</text>
</a>
</g>
</g>
<!-- Node13&#45;&gt;Node16 -->
<g id="edge21" class="edge"><title>Node13&#45;&gt;Node16</title>
<path fill="none" stroke="midnightblue" d="M698.799,-128.734C705.376,-118.793 716.261,-102.338 724.563,-89.7892"/>
<polygon fill="midnightblue" stroke="midnightblue" points="727.694,-91.3986 730.293,-81.1273 721.856,-87.5364 727.694,-91.3986"/>
</g>
<!-- Node16&#45;&gt;Node4 -->
<g id="edge25" class="edge"><title>Node16&#45;&gt;Node4</title>
<path fill="none" stroke="midnightblue" d="M707.795,-65.2719C647.777,-54.1471 507.835,-28.2077 445.684,-16.6875"/>
<polygon fill="midnightblue" stroke="midnightblue" points="446.179,-13.2198 435.709,-14.8386 444.904,-20.1026 446.179,-13.2198"/>
</g>
<!-- Node16&#45;&gt;Node11 -->
<g id="edge23" class="edge"><title>Node16&#45;&gt;Node11</title>
<path fill="none" stroke="midnightblue" d="M721.959,-61.9751C705.949,-52.2548 679.55,-36.2266 660.626,-24.7372"/>
<polygon fill="midnightblue" stroke="midnightblue" points="662.379,-21.7072 652.015,-19.5091 658.746,-27.6907 662.379,-21.7072"/>
</g>
<!-- Node17 -->
<g id="node17" class="node"><title>Node17</title>
<polygon fill="none" stroke="#bfbfbf" points="681,-0.5 681,-19.5 727,-19.5 727,-0.5 681,-0.5"/>
<text text-anchor="middle" x="704" y="-7.5" font-family="Helvetica,sans-Serif" font-size="10.00">cctype</text>
</g>
<!-- Node16&#45;&gt;Node17 -->
<g id="edge22" class="edge"><title>Node16&#45;&gt;Node17</title>
<path fill="none" stroke="midnightblue" d="M731.415,-61.9751C726.758,-53.3152 719.408,-39.6486 713.49,-28.6453"/>
<polygon fill="midnightblue" stroke="midnightblue" points="716.395,-26.6584 708.576,-19.5091 710.23,-29.974 716.395,-26.6584"/>
</g>
<!-- Node18 -->
<g id="node18" class="node"><title>Node18</title>
<polygon fill="none" stroke="#bfbfbf" points="745.5,-0.5 745.5,-19.5 790.5,-19.5 790.5,-0.5 745.5,-0.5"/>
<text text-anchor="middle" x="768" y="-7.5" font-family="Helvetica,sans-Serif" font-size="10.00">cstdlib</text>
</g>
<!-- Node16&#45;&gt;Node18 -->
<g id="edge24" class="edge"><title>Node16&#45;&gt;Node18</title>
<path fill="none" stroke="midnightblue" d="M740.585,-61.9751C745.242,-53.3152 752.592,-39.6486 758.51,-28.6453"/>
<polygon fill="midnightblue" stroke="midnightblue" points="761.77,-29.974 763.424,-19.5091 755.605,-26.6584 761.77,-29.974"/>
</g>
<!-- Node19&#45;&gt;Node4 -->
<g id="edge31" class="edge"><title>Node19&#45;&gt;Node4</title>
<path fill="none" stroke="midnightblue" d="M388.257,-197.688C308.322,-194.588 144.951,-184.599 98,-154 58.4451,-128.221 25.766,-91.4058 57,-56 78.5622,-31.5578 301.689,-17.1151 384.386,-12.5682"/>
<polygon fill="midnightblue" stroke="midnightblue" points="384.626,-16.0605 394.423,-12.0273 384.249,-9.0706 384.626,-16.0605"/>
</g>
<!-- Node19&#45;&gt;Node5 -->
<g id="edge30" class="edge"><title>Node19&#45;&gt;Node5</title>
<path fill="none" stroke="midnightblue" d="M467.293,-190.355C487.212,-183.62 511.218,-172.265 526,-154 540.504,-136.078 544.719,-109.17 545.823,-91.2345"/>
<polygon fill="midnightblue" stroke="midnightblue" points="549.324,-91.2734 546.175,-81.1574 542.328,-91.0292 549.324,-91.2734"/>
</g>
<!-- Node19&#45;&gt;Node7 -->
<g id="edge32" class="edge"><title>Node19&#45;&gt;Node7</title>
<path fill="none" stroke="midnightblue" d="M454.653,-190.404C492.236,-175.638 572.129,-144.931 641,-123 698.943,-104.549 718.93,-114.825 773,-87 792.38,-77.0266 790.909,-64.4508 811,-56 939.961,-1.75546 987.22,-38.7002 1130.27,-19.9623"/>
<polygon fill="midnightblue" stroke="midnightblue" points="1130.86,-23.4146 1140.29,-18.5807 1129.9,-16.4802 1130.86,-23.4146"/>
</g>
<!-- Node19&#45;&gt;Node13 -->
<g id="edge39" class="edge"><title>Node19&#45;&gt;Node13</title>
<path fill="none" stroke="midnightblue" d="M470.252,-190.475C516.492,-179.893 595.399,-161.836 645.822,-150.297"/>
<polygon fill="midnightblue" stroke="midnightblue" points="646.85,-153.652 655.817,-148.009 645.289,-146.828 646.85,-153.652"/>
</g>
<!-- Node20 -->
<g id="node20" class="node"><title>Node20</title>
<polygon fill="none" stroke="#bfbfbf" points="344,-129 344,-148 394,-148 394,-129 344,-129"/>
<text text-anchor="middle" x="369" y="-136" font-family="Helvetica,sans-Serif" font-size="10.00">iomanip</text>
</g>
<!-- Node19&#45;&gt;Node20 -->
<g id="edge27" class="edge"><title>Node19&#45;&gt;Node20</title>
<path fill="none" stroke="midnightblue" d="M423.83,-190.475C413.85,-181.197 397.688,-166.171 385.491,-154.831"/>
<polygon fill="midnightblue" stroke="midnightblue" points="387.86,-152.255 378.153,-148.009 383.093,-157.381 387.86,-152.255"/>
</g>
<!-- Node21 -->
<g id="node21" class="node"><title>Node21</title>
<polygon fill="none" stroke="#bfbfbf" points="66,-62 66,-81 120,-81 120,-62 66,-62"/>
<text text-anchor="middle" x="93" y="-69" font-family="Helvetica,sans-Serif" font-size="10.00">iostream</text>
</g>
<!-- Node19&#45;&gt;Node21 -->
<g id="edge28" class="edge"><title>Node19&#45;&gt;Node21</title>
<path fill="none" stroke="midnightblue" d="M388.259,-198.144C311.91,-195.792 160.835,-186.982 121,-154 102.303,-138.52 96.0586,-109.925 93.9926,-91.0576"/>
<polygon fill="midnightblue" stroke="midnightblue" points="97.4748,-90.6949 93.1841,-81.0078 90.4973,-91.2563 97.4748,-90.6949"/>
</g>
<!-- Node22 -->
<g id="node22" class="node"><title>Node22</title>
<polygon fill="none" stroke="#bfbfbf" points="792,-129 792,-148 836,-148 836,-129 792,-129"/>
<text text-anchor="middle" x="814" y="-136" font-family="Helvetica,sans-Serif" font-size="10.00">mutex</text>
</g>
<!-- Node19&#45;&gt;Node22 -->
<g id="edge29" class="edge"><title>Node19&#45;&gt;Node22</title>
<path fill="none" stroke="midnightblue" d="M477.577,-193.481C538.253,-185.762 650.154,-170.788 745,-154 756.997,-151.877 770.095,-149.212 781.625,-146.749"/>
<polygon fill="midnightblue" stroke="midnightblue" points="782.666,-150.105 791.696,-144.564 781.182,-143.264 782.666,-150.105"/>
</g>
<!-- Node23 -->
<g id="node23" class="node"><title>Node23</title>
<polygon fill="none" stroke="#bfbfbf" points="412.5,-123.5 412.5,-153.5 517.5,-153.5 517.5,-123.5 412.5,-123.5"/>
<text text-anchor="start" x="420.5" y="-141.5" font-family="Helvetica,sans-Serif" font-size="10.00">boost/chrono/io/time</text>
<text text-anchor="middle" x="465" y="-130.5" font-family="Helvetica,sans-Serif" font-size="10.00">_point_io.hpp</text>
</g>
<!-- Node19&#45;&gt;Node23 -->
<g id="edge33" class="edge"><title>Node19&#45;&gt;Node23</title>
<path fill="none" stroke="midnightblue" d="M437.585,-190.475C441.514,-183.17 447.359,-172.302 452.644,-162.475"/>
<polygon fill="midnightblue" stroke="midnightblue" points="455.804,-163.988 457.458,-153.523 449.639,-160.672 455.804,-163.988"/>
</g>
<!-- Node24 -->
<g id="node24" class="node"><title>Node24</title>
<g id="a_node24"><a xlink:href="multibuf_8hpp.html" target="_top" xlink:title="multibuf.hpp">
<polygon fill="none" stroke="black" points="130,-129 130,-148 200,-148 200,-129 130,-129"/>
<text text-anchor="middle" x="165" y="-136" font-family="Helvetica,sans-Serif" font-size="10.00">multibuf.hpp</text>
</a>
</g>
</g>
<!-- Node19&#45;&gt;Node24 -->
<g id="edge34" class="edge"><title>Node19&#45;&gt;Node24</title>
<path fill="none" stroke="midnightblue" d="M388.437,-191.674C342.971,-183.821 270.552,-170.262 209,-154 205.632,-153.11 202.144,-152.106 198.673,-151.053"/>
<polygon fill="midnightblue" stroke="midnightblue" points="199.641,-147.688 189.051,-148.004 197.527,-154.361 199.641,-147.688"/>
</g>
<!-- Node19&#45;&gt;Node26 -->
<g id="edge40" class="edge"><title>Node19&#45;&gt;Node26</title>
<path fill="none" stroke="midnightblue" d="M407.21,-190.475C376.067,-180.18 323.519,-162.81 288.547,-151.25"/>
<polygon fill="midnightblue" stroke="midnightblue" points="289.335,-147.825 278.742,-148.009 287.138,-154.471 289.335,-147.825"/>
</g>
<!-- Node24&#45;&gt;Node4 -->
<g id="edge38" class="edge"><title>Node24&#45;&gt;Node4</title>
<path fill="none" stroke="midnightblue" d="M175.111,-128.749C194.359,-112.465 238.093,-77.2424 280,-56 313.999,-38.7662 356.053,-25.96 384.103,-18.5045"/>
<polygon fill="midnightblue" stroke="midnightblue" points="385.318,-21.8054 394.122,-15.911 383.564,-15.0288 385.318,-21.8054"/>
</g>
<!-- Node24&#45;&gt;Node15 -->
<g id="edge37" class="edge"><title>Node24&#45;&gt;Node15</title>
<path fill="none" stroke="midnightblue" d="M185.759,-128.978C207.41,-119.757 242.027,-104.068 270,-87 289.501,-75.1014 289.558,-63.8802 311,-56 347.045,-42.7533 923.663,-18.2522 1067.63,-12.3191"/>
<polygon fill="midnightblue" stroke="midnightblue" points="1068.13,-15.8013 1077.98,-11.8937 1067.85,-8.80722 1068.13,-15.8013"/>
</g>
<!-- Node24&#45;&gt;Node21 -->
<g id="edge35" class="edge"><title>Node24&#45;&gt;Node21</title>
<path fill="none" stroke="midnightblue" d="M155.29,-128.734C143.738,-118.305 124.247,-100.709 110.14,-87.9732"/>
<polygon fill="midnightblue" stroke="midnightblue" points="112.324,-85.2304 102.556,-81.1273 107.634,-90.4263 112.324,-85.2304"/>
</g>
<!-- Node25 -->
<g id="node25" class="node"><title>Node25</title>
<polygon fill="none" stroke="#bfbfbf" points="138,-62 138,-81 188,-81 188,-62 138,-62"/>
<text text-anchor="middle" x="163" y="-69" font-family="Helvetica,sans-Serif" font-size="10.00">fstream</text>
</g>
<!-- Node24&#45;&gt;Node25 -->
<g id="edge36" class="edge"><title>Node24&#45;&gt;Node25</title>
<path fill="none" stroke="midnightblue" d="M164.73,-128.734C164.436,-119.183 163.957,-103.618 163.578,-91.2829"/>
<polygon fill="midnightblue" stroke="midnightblue" points="167.071,-91.0149 163.265,-81.1273 160.075,-91.2302 167.071,-91.0149"/>
</g>
<!-- Node26&#45;&gt;Node4 -->
<g id="edge41" class="edge"><title>Node26&#45;&gt;Node4</title>
<path fill="none" stroke="midnightblue" d="M257.202,-128.698C265.415,-112.331 285.08,-76.9748 311,-56 332.883,-38.2925 362.793,-26.3214 384.922,-19.206"/>
<polygon fill="midnightblue" stroke="midnightblue" points="385.949,-22.552 394.484,-16.2754 383.898,-15.8592 385.949,-22.552"/>
</g>
<!-- Node26&#45;&gt;Node7 -->
<g id="edge43" class="edge"><title>Node26&#45;&gt;Node7</title>
<path fill="none" stroke="midnightblue" d="M280.632,-128.947C287.58,-126.9 295.041,-124.791 302,-123 374.269,-104.401 398.223,-118.227 466,-87 486.748,-77.4407 485.56,-63.8872 507,-56 634.428,-9.12217 977.174,-34.8749 1130.08,-19.8671"/>
<polygon fill="midnightblue" stroke="midnightblue" points="1130.74,-23.3158 1140.31,-18.7667 1129.99,-16.3559 1130.74,-23.3158"/>
</g>
<!-- Node26&#45;&gt;Node11 -->
<g id="edge42" class="edge"><title>Node26&#45;&gt;Node11</title>
<path fill="none" stroke="midnightblue" d="M281.741,-128.924C288.389,-126.96 295.437,-124.894 302,-123 358.779,-106.615 376.633,-112.383 430,-87 451.603,-76.725 452.365,-66.2062 474,-56 517.075,-35.68 570.982,-23.1007 604.967,-16.5751"/>
<polygon fill="midnightblue" stroke="midnightblue" points="605.647,-20.0087 614.841,-14.7423 604.37,-13.1262 605.647,-20.0087"/>
</g>
<!-- Node27 -->
<g id="node27" class="node"><title>Node27</title>
<polygon fill="none" stroke="#bfbfbf" points="320.5,-56.5 320.5,-86.5 421.5,-86.5 421.5,-56.5 320.5,-56.5"/>
<text text-anchor="start" x="328.5" y="-74.5" font-family="Helvetica,sans-Serif" font-size="10.00">boost/property_tree</text>
<text text-anchor="middle" x="371" y="-63.5" font-family="Helvetica,sans-Serif" font-size="10.00">/ptree.hpp</text>
</g>
<!-- Node26&#45;&gt;Node27 -->
<g id="edge44" class="edge"><title>Node26&#45;&gt;Node27</title>
<path fill="none" stroke="midnightblue" d="M268.914,-128.734C286.165,-119.231 314.22,-103.777 336.559,-91.4719"/>
<polygon fill="midnightblue" stroke="midnightblue" points="338.353,-94.4796 345.423,-86.589 334.975,-88.3483 338.353,-94.4796"/>
</g>
<!-- Node28&#45;&gt;Node7 -->
<g id="edge46" class="edge"><title>Node28&#45;&gt;Node7</title>
<path fill="none" stroke="midnightblue" d="M1061.1,-190.479C1130.1,-179.544 1240.08,-161.136 1246,-154 1279.03,-114.207 1227.7,-54.6462 1199.09,-26.6286"/>
<polygon fill="midnightblue" stroke="midnightblue" points="1201.37,-23.9663 1191.72,-19.6052 1196.55,-29.0358 1201.37,-23.9663"/>
</g>
<!-- Node29 -->
<g id="node29" class="node"><title>Node29</title>
<g id="a_node29"><a xlink:href="user__group_8hpp.html" target="_top" xlink:title="user_group.hpp">
<polygon fill="none" stroke="black" points="1154.5,-129 1154.5,-148 1237.5,-148 1237.5,-129 1154.5,-129"/>
<text text-anchor="middle" x="1196" y="-136" font-family="Helvetica,sans-Serif" font-size="10.00">user_group.hpp</text>
</a>
</g>
</g>
<!-- Node28&#45;&gt;Node29 -->
<g id="edge47" class="edge"><title>Node28&#45;&gt;Node29</title>
<path fill="none" stroke="midnightblue" d="M1033.22,-190.475C1066.24,-180.136 1122.04,-162.661 1158.95,-151.102"/>
<polygon fill="midnightblue" stroke="midnightblue" points="1160.33,-154.338 1168.83,-148.009 1158.24,-147.658 1160.33,-154.338"/>
</g>
<!-- Node29&#45;&gt;Node15 -->
<g id="edge48" class="edge"><title>Node29&#45;&gt;Node15</title>
<path fill="none" stroke="midnightblue" d="M1196.14,-128.975C1195.97,-113.069 1193.56,-78.4497 1177,-56 1165.74,-40.7275 1147.61,-29.7642 1131.77,-22.4846"/>
<polygon fill="midnightblue" stroke="midnightblue" points="1132.86,-19.1427 1122.29,-18.4225 1130.1,-25.5773 1132.86,-19.1427"/>
</g>
<!-- Node30 -->
<g id="node30" class="node"><title>Node30</title>
<g id="a_node30"><a xlink:href="user_8hpp.html" target="_top" xlink:title="user.hpp">
<polygon fill="none" stroke="black" points="1114,-62 1114,-81 1168,-81 1168,-62 1114,-62"/>
<text text-anchor="middle" x="1141" y="-69" font-family="Helvetica,sans-Serif" font-size="10.00">user.hpp</text>
</a>
</g>
</g>
<!-- Node29&#45;&gt;Node30 -->
<g id="edge49" class="edge"><title>Node29&#45;&gt;Node30</title>
<path fill="none" stroke="midnightblue" d="M1188.58,-128.734C1180.01,-118.598 1165.7,-101.69 1155.01,-89.0556"/>
<polygon fill="midnightblue" stroke="midnightblue" points="1157.43,-86.5004 1148.3,-81.1273 1152.09,-91.022 1157.43,-86.5004"/>
</g>
<!-- Node30&#45;&gt;Node4 -->
<g id="edge50" class="edge"><title>Node30&#45;&gt;Node4</title>
<path fill="none" stroke="midnightblue" d="M1123.05,-61.9675C1117.39,-59.637 1111.04,-57.377 1105,-56 1040.17,-41.23 570.793,-18.3225 445.613,-12.4235"/>
<polygon fill="midnightblue" stroke="midnightblue" points="445.716,-8.92463 435.563,-11.9517 445.388,-15.9169 445.716,-8.92463"/>
</g>
<!-- Node30&#45;&gt;Node7 -->
<g id="edge52" class="edge"><title>Node30&#45;&gt;Node7</title>
<path fill="none" stroke="midnightblue" d="M1146.87,-61.9751C1152.96,-53.1384 1162.64,-39.0886 1170.3,-27.975"/>
<polygon fill="midnightblue" stroke="midnightblue" points="1173.34,-29.7294 1176.14,-19.5091 1167.58,-25.7575 1173.34,-29.7294"/>
</g>
<!-- Node30&#45;&gt;Node15 -->
<g id="edge51" class="edge"><title>Node30&#45;&gt;Node15</title>
<path fill="none" stroke="midnightblue" d="M1135.13,-61.9751C1129.04,-53.1384 1119.36,-39.0886 1111.7,-27.975"/>
<polygon fill="midnightblue" stroke="midnightblue" points="1114.42,-25.7575 1105.86,-19.5091 1108.66,-29.7294 1114.42,-25.7575"/>
</g>
<!-- Node31&#45;&gt;Node30 -->
<g id="edge54" class="edge"><title>Node31&#45;&gt;Node30</title>
<path fill="none" stroke="midnightblue" d="M890.489,-190.305C936.96,-168.452 1058.83,-111.141 1113.62,-85.3741"/>
<polygon fill="midnightblue" stroke="midnightblue" points="1115.18,-88.5113 1122.74,-81.0884 1112.2,-82.1768 1115.18,-88.5113"/>
</g>
<!-- Node32 -->
<g id="node32" class="node"><title>Node32</title>
<polygon fill="none" stroke="#bfbfbf" points="892.5,-129 892.5,-148 921.5,-148 921.5,-129 892.5,-129"/>
<text text-anchor="middle" x="907" y="-136" font-family="Helvetica,sans-Serif" font-size="10.00">list</text>
</g>
<!-- Node31&#45;&gt;Node32 -->
<g id="edge55" class="edge"><title>Node31&#45;&gt;Node32</title>
<path fill="none" stroke="midnightblue" d="M877.015,-190.475C882.161,-181.727 890.312,-167.869 896.818,-156.809"/>
<polygon fill="midnightblue" stroke="midnightblue" points="899.941,-158.403 901.995,-148.009 893.908,-154.854 899.941,-158.403"/>
</g>
<!-- Node33&#45;&gt;Node4 -->
<g id="edge63" class="edge"><title>Node33&#45;&gt;Node4</title>
<path fill="none" stroke="midnightblue" d="M1517.45,-302.287C1513.29,-289.095 1504.07,-263.715 1490,-246 1425.42,-164.661 1207.66,-64.9227 1177,-56 1141.38,-45.6337 585.007,-18.9699 446.192,-12.4532"/>
<polygon fill="midnightblue" stroke="midnightblue" points="446.004,-8.94062 435.851,-11.9688 445.677,-15.933 446.004,-8.94062"/>
</g>
<!-- Node33&#45;&gt;Node6 -->
<g id="edge64" class="edge"><title>Node33&#45;&gt;Node6</title>
<path fill="none" stroke="midnightblue" d="M1504.42,-302.324C1489,-293.743 1465.19,-280.486 1447.29,-270.522"/>
<polygon fill="midnightblue" stroke="midnightblue" points="1448.99,-267.461 1438.55,-265.655 1445.58,-273.577 1448.99,-267.461"/>
</g>
<!-- Node33&#45;&gt;Node12 -->
<g id="edge62" class="edge"><title>Node33&#45;&gt;Node12</title>
<path fill="none" stroke="midnightblue" d="M1514,-302.438C1497.09,-279.141 1446.34,-214.699 1386,-190 1285.77,-148.972 1240.68,-204.739 1145,-154 1116.66,-138.972 1093.41,-108.923 1080.65,-89.8103"/>
<polygon fill="midnightblue" stroke="midnightblue" points="1083.45,-87.7046 1075.1,-81.1847 1077.57,-91.4894 1083.45,-87.7046"/>
</g>
<!-- Node34 -->
<g id="node34" class="node"><title>Node34</title>
<polygon fill="none" stroke="#bfbfbf" points="1548,-246.5 1548,-265.5 1604,-265.5 1604,-246.5 1548,-246.5"/>
<text text-anchor="middle" x="1576" y="-253.5" font-family="Helvetica,sans-Serif" font-size="10.00">algorithm</text>
</g>
<!-- Node33&#45;&gt;Node34 -->
<g id="edge59" class="edge"><title>Node33&#45;&gt;Node34</title>
<path fill="none" stroke="midnightblue" d="M1529,-302.324C1537.19,-294.42 1549.51,-282.548 1559.47,-272.938"/>
<polygon fill="midnightblue" stroke="midnightblue" points="1562.07,-275.295 1566.84,-265.834 1557.21,-270.256 1562.07,-275.295"/>
</g>
<!-- Node35 -->
<g id="node35" class="node"><title>Node35</title>
<polygon fill="none" stroke="#bfbfbf" points="1622.5,-246.5 1622.5,-265.5 1669.5,-265.5 1669.5,-246.5 1622.5,-246.5"/>
<text text-anchor="middle" x="1646" y="-253.5" font-family="Helvetica,sans-Serif" font-size="10.00">iterator</text>
</g>
<!-- Node33&#45;&gt;Node35 -->
<g id="edge60" class="edge"><title>Node33&#45;&gt;Node35</title>
<path fill="none" stroke="midnightblue" d="M1539.97,-302.444C1560.61,-293.596 1593.06,-279.687 1616.63,-269.586"/>
<polygon fill="midnightblue" stroke="midnightblue" points="1618.32,-272.673 1626.13,-265.516 1615.56,-266.239 1618.32,-272.673"/>
</g>
<!-- Node36 -->
<g id="node36" class="node"><title>Node36</title>
<polygon fill="none" stroke="#bfbfbf" points="1687.5,-246.5 1687.5,-265.5 1728.5,-265.5 1728.5,-246.5 1687.5,-246.5"/>
<text text-anchor="middle" x="1708" y="-253.5" font-family="Helvetica,sans-Serif" font-size="10.00">regex</text>
</g>
<!-- Node33&#45;&gt;Node36 -->
<g id="edge61" class="edge"><title>Node33&#45;&gt;Node36</title>
<path fill="none" stroke="midnightblue" d="M1550.33,-302.499C1580.23,-294.085 1627.49,-280.711 1677.63,-266.079"/>
<polygon fill="midnightblue" stroke="midnightblue" points="1678.74,-269.401 1687.35,-263.235 1676.77,-262.682 1678.74,-269.401"/>
</g>
<!-- Node37&#45;&gt;Node7 -->
<g id="edge71" class="edge"><title>Node37&#45;&gt;Node7</title>
<path fill="none" stroke="midnightblue" d="M1071.28,-308.263C1122.83,-303.795 1214.29,-292.594 1288,-266 1335.19,-248.976 1360.82,-253.388 1386,-210 1435.47,-124.755 1284.43,-51.6807 1214.97,-23.4517"/>
<polygon fill="midnightblue" stroke="midnightblue" points="1215.94,-20.0679 1205.35,-19.616 1213.35,-26.5703 1215.94,-20.0679"/>
</g>
<!-- Node37&#45;&gt;Node8 -->
<g id="edge79" class="edge"><title>Node37&#45;&gt;Node8</title>
<path fill="none" stroke="midnightblue" d="M990.924,-304.54C933.437,-295.273 827.014,-278.119 758.956,-267.148"/>
<polygon fill="midnightblue" stroke="midnightblue" points="759.22,-263.646 748.79,-265.509 758.106,-270.556 759.22,-263.646"/>
</g>
<!-- Node37&#45;&gt;Node9 -->
<g id="edge66" class="edge"><title>Node37&#45;&gt;Node9</title>
<path fill="none" stroke="midnightblue" d="M1027.19,-302.316C1022.04,-289.162 1014.64,-263.832 1025,-246 1034.95,-228.888 1054.1,-217.744 1071.06,-210.826"/>
<polygon fill="midnightblue" stroke="midnightblue" points="1072.56,-214.002 1080.7,-207.228 1070.11,-207.444 1072.56,-214.002"/>
</g>
<!-- Node37&#45;&gt;Node22 -->
<g id="edge68" class="edge"><title>Node37&#45;&gt;Node22</title>
<path fill="none" stroke="midnightblue" d="M990.75,-306.358C937.264,-297.788 844.677,-274.046 803,-210 792.789,-194.309 798.467,-172.575 804.833,-157.401"/>
<polygon fill="midnightblue" stroke="midnightblue" points="808.116,-158.642 809.164,-148.099 801.77,-155.688 808.116,-158.642"/>
</g>
<!-- Node37&#45;&gt;Node26 -->
<g id="edge78" class="edge"><title>Node37&#45;&gt;Node26</title>
<path fill="none" stroke="midnightblue" d="M990.935,-310.605C886.55,-308.362 599.057,-294.367 379,-210 339.983,-195.041 298.351,-169.669 274.055,-153.789"/>
<polygon fill="midnightblue" stroke="midnightblue" points="275.903,-150.815 265.634,-148.209 272.037,-156.651 275.903,-150.815"/>
</g>
<!-- Node38 -->
<g id="node38" class="node"><title>Node38</title>
<polygon fill="none" stroke="#bfbfbf" points="1221.5,-190.5 1221.5,-209.5 1316.5,-209.5 1316.5,-190.5 1221.5,-190.5"/>
<text text-anchor="middle" x="1269" y="-197.5" font-family="Helvetica,sans-Serif" font-size="10.00">condition_variable</text>
</g>
<!-- Node37&#45;&gt;Node38 -->
<g id="edge67" class="edge"><title>Node37&#45;&gt;Node38</title>
<path fill="none" stroke="midnightblue" d="M1071.28,-311.11C1114.64,-309.289 1183.75,-300.565 1231,-266 1246.79,-254.449 1257.11,-234.187 1262.95,-219.347"/>
<polygon fill="midnightblue" stroke="midnightblue" points="1266.33,-220.297 1266.43,-209.702 1259.75,-217.921 1266.33,-220.297"/>
</g>
<!-- Node39 -->
<g id="node39" class="node"><title>Node39</title>
<polygon fill="none" stroke="#bfbfbf" points="1334.5,-190.5 1334.5,-209.5 1377.5,-209.5 1377.5,-190.5 1334.5,-190.5"/>
<text text-anchor="middle" x="1356" y="-197.5" font-family="Helvetica,sans-Serif" font-size="10.00">queue</text>
</g>
<!-- Node37&#45;&gt;Node39 -->
<g id="edge69" class="edge"><title>Node37&#45;&gt;Node39</title>
<path fill="none" stroke="midnightblue" d="M1071.35,-307.362C1117.02,-302.229 1193.01,-290.59 1254,-266 1285.41,-253.335 1317.73,-230.826 1337.35,-215.905"/>
<polygon fill="midnightblue" stroke="midnightblue" points="1339.66,-218.541 1345.42,-209.646 1335.37,-213.01 1339.66,-218.541"/>
</g>
<!-- Node40 -->
<g id="node40" class="node"><title>Node40</title>
<polygon fill="none" stroke="#bfbfbf" points="1034,-246.5 1034,-265.5 1078,-265.5 1078,-246.5 1034,-246.5"/>
<text text-anchor="middle" x="1056" y="-253.5" font-family="Helvetica,sans-Serif" font-size="10.00">thread</text>
</g>
<!-- Node37&#45;&gt;Node40 -->
<g id="edge70" class="edge"><title>Node37&#45;&gt;Node40</title>
<path fill="none" stroke="midnightblue" d="M1035.13,-302.083C1038.51,-294.77 1043.42,-284.181 1047.62,-275.103"/>
<polygon fill="midnightblue" stroke="midnightblue" points="1050.92,-276.296 1051.95,-265.751 1044.57,-273.355 1050.92,-276.296"/>
</g>
<!-- Node41 -->
<g id="node41" class="node"><title>Node41</title>
<g id="a_node41"><a xlink:href="concurrent__container_8hpp.html" target="_top" xlink:title="concurrent_container.hpp">
<polygon fill="none" stroke="black" points="1096,-246.5 1096,-265.5 1222,-265.5 1222,-246.5 1096,-246.5"/>
<text text-anchor="middle" x="1159" y="-253.5" font-family="Helvetica,sans-Serif" font-size="10.00">concurrent_container.hpp</text>
</a>
</g>
</g>
<!-- Node37&#45;&gt;Node41 -->
<g id="edge72" class="edge"><title>Node37&#45;&gt;Node41</title>
<path fill="none" stroke="midnightblue" d="M1051.28,-302.444C1072.35,-293.557 1105.52,-279.563 1129.49,-269.451"/>
<polygon fill="midnightblue" stroke="midnightblue" points="1130.96,-272.628 1138.81,-265.516 1128.24,-266.179 1130.96,-272.628"/>
</g>
<!-- Node41&#45;&gt;Node3 -->
<g id="edge75" class="edge"><title>Node41&#45;&gt;Node3</title>
<path fill="none" stroke="midnightblue" d="M1157.46,-246.334C1154.8,-233.203 1148.41,-207.903 1136,-190 1104.37,-144.393 1050.61,-106.257 1019.72,-86.6723"/>
<polygon fill="midnightblue" stroke="midnightblue" points="1021.26,-83.5082 1010.92,-81.2023 1017.57,-89.4536 1021.26,-83.5082"/>
</g>
<!-- Node41&#45;&gt;Node9 -->
<g id="edge73" class="edge"><title>Node41&#45;&gt;Node9</title>
<path fill="none" stroke="midnightblue" d="M1149.92,-246.083C1141.83,-238.141 1129.8,-226.335 1120.09,-216.797"/>
<polygon fill="midnightblue" stroke="midnightblue" points="1122.5,-214.26 1112.91,-209.751 1117.6,-219.254 1122.5,-214.26"/>
</g>
<!-- Node41&#45;&gt;Node15 -->
<g id="edge77" class="edge"><title>Node41&#45;&gt;Node15</title>
<path fill="none" stroke="midnightblue" d="M1165.67,-246.423C1175.53,-233.83 1194.71,-209.696 1212,-190 1226.52,-173.461 1237.87,-174.451 1246,-154 1251.09,-141.197 1250.21,-136.118 1246,-123 1234.8,-88.1244 1226.26,-79.3113 1198,-56 1178.39,-39.8227 1152.01,-28.1467 1131.56,-20.7481"/>
<polygon fill="midnightblue" stroke="midnightblue" points="1132.65,-17.421 1122.06,-17.4587 1130.36,-24.0362 1132.65,-17.421"/>
</g>
<!-- Node41&#45;&gt;Node38 -->
<g id="edge74" class="edge"><title>Node41&#45;&gt;Node38</title>
<path fill="none" stroke="midnightblue" d="M1176.67,-246.324C1194.39,-237.625 1221.9,-224.12 1242.29,-214.113"/>
<polygon fill="midnightblue" stroke="midnightblue" points="1243.94,-217.203 1251.37,-209.655 1240.85,-210.919 1243.94,-217.203"/>
</g>
<!-- Node41&#45;&gt;Node39 -->
<g id="edge76" class="edge"><title>Node41&#45;&gt;Node39</title>
<path fill="none" stroke="midnightblue" d="M1191.18,-246.459C1222.7,-238.053 1272.32,-224.712 1324.55,-210.088"/>
<polygon fill="midnightblue" stroke="midnightblue" points="1325.65,-213.415 1334.33,-207.344 1323.76,-206.676 1325.65,-213.415"/>
</g>
</g>
</svg>
