<?xml version="1.0" encoding="UTF-8" standalone="no"?>
<!DOCTYPE svg PUBLIC "-//W3C//DTD SVG 1.1//EN"
 "http://www.w3.org/Graphics/SVG/1.1/DTD/svg11.dtd">
<!-- Generated by graphviz version 2.38.0 (20140413.2041)
 -->
<!-- Title: src/handler/handler.hpp Pages: 1 -->
<svg width="1243pt" height="151pt"
 viewBox="0.00 0.00 1243.00 151.00" xmlns="http://www.w3.org/2000/svg" xmlns:xlink="http://www.w3.org/1999/xlink">
<g id="graph0" class="graph" transform="scale(1 1) rotate(0) translate(4 147)">
<title>src/handler/handler.hpp</title>
<!-- Node1 -->
<g id="node1" class="node"><title>Node1</title>
<polygon fill="#bfbfbf" stroke="black" points="573.5,-123.5 573.5,-142.5 691.5,-142.5 691.5,-123.5 573.5,-123.5"/>
<text text-anchor="middle" x="632.5" y="-130.5" font-family="Helvetica,sans-Serif" font-size="10.00">src/handler/handler.hpp</text>
</g>
<!-- Node2 -->
<g id="node2" class="node"><title>Node2</title>
<g id="a_node2"><a xlink:href="melanobot_8cpp.html" target="_top" xlink:title="src/melanobot.cpp">
<polygon fill="none" stroke="black" points="0,-62 0,-81 97,-81 97,-62 0,-62"/>
<text text-anchor="middle" x="48.5" y="-69" font-family="Helvetica,sans-Serif" font-size="10.00">src/melanobot.cpp</text>
</a>
</g>
</g>
<!-- Node1&#45;&gt;Node2 -->
<g id="edge1" class="edge"><title>Node1&#45;&gt;Node2</title>
<path fill="none" stroke="midnightblue" d="M563.126,-129.698C461.911,-125.523 268.105,-114.434 105.5,-87 96.5389,-85.4881 86.9192,-83.2749 78.182,-81.0308"/>
<polygon fill="midnightblue" stroke="midnightblue" points="563.089,-133.199 573.222,-130.104 563.37,-126.205 563.089,-133.199"/>
</g>
<!-- Node3 -->
<g id="node3" class="node"><title>Node3</title>
<g id="a_node3"><a xlink:href="web-api_8hpp.html" target="_top" xlink:title="src/handler/web&#45;api.hpp">
<polygon fill="none" stroke="black" points="114.5,-62 114.5,-81 234.5,-81 234.5,-62 114.5,-62"/>
<text text-anchor="middle" x="174.5" y="-69" font-family="Helvetica,sans-Serif" font-size="10.00">src/handler/web&#45;api.hpp</text>
</a>
</g>
</g>
<!-- Node1&#45;&gt;Node3 -->
<g id="edge2" class="edge"><title>Node1&#45;&gt;Node3</title>
<path fill="none" stroke="midnightblue" d="M563.098,-125.914C485.081,-118.622 354.763,-105.087 243.5,-87 233.23,-85.3305 222.173,-83.1711 211.984,-81.0312"/>
<polygon fill="midnightblue" stroke="midnightblue" points="563.003,-129.42 573.284,-126.858 563.649,-122.45 563.003,-129.42"/>
</g>
<!-- Node6 -->
<g id="node6" class="node"><title>Node6</title>
<g id="a_node6"><a xlink:href="misc_8cpp.html" target="_top" xlink:title="This file defines handlers which perform miscellaneous tasks. ">
<polygon fill="none" stroke="black" points="253,-62 253,-81 360,-81 360,-62 253,-62"/>
<text text-anchor="middle" x="306.5" y="-69" font-family="Helvetica,sans-Serif" font-size="10.00">src/handler/misc.cpp</text>
</a>
</g>
</g>
<!-- Node1&#45;&gt;Node6 -->
<g id="edge5" class="edge"><title>Node1&#45;&gt;Node6</title>
<path fill="none" stroke="midnightblue" d="M566.65,-121.917C513.116,-113.446 435.719,-100.576 368.5,-87 359.615,-85.2055 350.061,-83.0729 341.177,-81.0029"/>
<polygon fill="midnightblue" stroke="midnightblue" points="566.271,-125.401 576.694,-123.499 567.36,-118.486 566.271,-125.401"/>
</g>
<!-- Node7 -->
<g id="node7" class="node"><title>Node7</title>
<g id="a_node7"><a xlink:href="bridge_8hpp.html" target="_top" xlink:title="src/handler/bridge.hpp">
<polygon fill="none" stroke="black" points="378,-62 378,-81 491,-81 491,-62 378,-62"/>
<text text-anchor="middle" x="434.5" y="-69" font-family="Helvetica,sans-Serif" font-size="10.00">src/handler/bridge.hpp</text>
</a>
</g>
</g>
<!-- Node1&#45;&gt;Node7 -->
<g id="edge6" class="edge"><title>Node1&#45;&gt;Node7</title>
<path fill="none" stroke="midnightblue" d="M594.326,-120.529C555.845,-108.965 497.344,-91.3849 462.816,-81.0091"/>
<polygon fill="midnightblue" stroke="midnightblue" points="593.547,-123.949 604.131,-123.475 595.562,-117.245 593.547,-123.949"/>
</g>
<!-- Node9 -->
<g id="node9" class="node"><title>Node9</title>
<g id="a_node9"><a xlink:href="admin_8cpp.html" target="_top" xlink:title="This file defines handlers which allows admin to administrate the bot. ">
<polygon fill="none" stroke="black" points="509,-62 509,-81 622,-81 622,-62 509,-62"/>
<text text-anchor="middle" x="565.5" y="-69" font-family="Helvetica,sans-Serif" font-size="10.00">src/handler/admin.cpp</text>
</a>
</g>
</g>
<!-- Node1&#45;&gt;Node9 -->
<g id="edge8" class="edge"><title>Node1&#45;&gt;Node9</title>
<path fill="none" stroke="midnightblue" d="M615.215,-116.65C602.441,-105.306 585.522,-90.2811 575.082,-81.0091"/>
<polygon fill="midnightblue" stroke="midnightblue" points="613.099,-119.452 622.901,-123.475 617.747,-114.218 613.099,-119.452"/>
</g>
<!-- Node10 -->
<g id="node10" class="node"><title>Node10</title>
<g id="a_node10"><a xlink:href="handler_8cpp.html" target="_top" xlink:title="This file contains the definitions for the most basic and reusable handlers. ">
<polygon fill="none" stroke="black" points="640.5,-62 640.5,-81 758.5,-81 758.5,-62 640.5,-62"/>
<text text-anchor="middle" x="699.5" y="-69" font-family="Helvetica,sans-Serif" font-size="10.00">src/handler/handler.cpp</text>
</a>
</g>
</g>
<!-- Node1&#45;&gt;Node10 -->
<g id="edge9" class="edge"><title>Node1&#45;&gt;Node10</title>
<path fill="none" stroke="midnightblue" d="M649.785,-116.65C662.559,-105.306 679.478,-90.2811 689.918,-81.0091"/>
<polygon fill="midnightblue" stroke="midnightblue" points="647.253,-114.218 642.099,-123.475 651.901,-119.452 647.253,-114.218"/>
</g>
<!-- Node11 -->
<g id="node11" class="node"><title>Node11</title>
<g id="a_node11"><a xlink:href="irc__actions_8hpp.html" target="_top" xlink:title="modules/irc/handler\l/irc_actions.hpp">
<polygon fill="none" stroke="black" points="777,-56.5 777,-86.5 878,-86.5 878,-56.5 777,-56.5"/>
<text text-anchor="start" x="785" y="-74.5" font-family="Helvetica,sans-Serif" font-size="10.00">modules/irc/handler</text>
<text text-anchor="middle" x="827.5" y="-63.5" font-family="Helvetica,sans-Serif" font-size="10.00">/irc_actions.hpp</text>
</a>
</g>
</g>
<!-- Node1&#45;&gt;Node11 -->
<g id="edge10" class="edge"><title>Node1&#45;&gt;Node11</title>
<path fill="none" stroke="midnightblue" d="M670.244,-120.483C702.037,-110.782 747.628,-96.8711 781.542,-86.523"/>
<polygon fill="midnightblue" stroke="midnightblue" points="668.982,-117.209 660.439,-123.475 671.025,-123.904 668.982,-117.209"/>
</g>
<!-- Node13 -->
<g id="node13" class="node"><title>Node13</title>
<g id="a_node13"><a xlink:href="ctcp_8hpp.html" target="_top" xlink:title="This files has handlers for CTCP messages. ">
<polygon fill="none" stroke="black" points="896,-56.5 896,-86.5 997,-86.5 997,-56.5 896,-56.5"/>
<text text-anchor="start" x="904" y="-74.5" font-family="Helvetica,sans-Serif" font-size="10.00">modules/irc/handler</text>
<text text-anchor="middle" x="946.5" y="-63.5" font-family="Helvetica,sans-Serif" font-size="10.00">/ctcp.hpp</text>
</a>
</g>
</g>
<!-- Node1&#45;&gt;Node13 -->
<g id="edge12" class="edge"><title>Node1&#45;&gt;Node13</title>
<path fill="none" stroke="midnightblue" d="M696.188,-121.837C747.688,-113.35 821.98,-100.498 886.5,-87 889.542,-86.3636 892.665,-85.6853 895.811,-84.9828"/>
<polygon fill="midnightblue" stroke="midnightblue" points="695.503,-118.403 686.202,-123.475 696.636,-125.31 695.503,-118.403"/>
</g>
<!-- Node14 -->
<g id="node14" class="node"><title>Node14</title>
<g id="a_node14"><a xlink:href="irc__admin_8hpp.html" target="_top" xlink:title="This file defines handlers which allows admin to administrate the bot (IRC&#45;specific actions) ...">
<polygon fill="none" stroke="black" points="1015,-56.5 1015,-86.5 1116,-86.5 1116,-56.5 1015,-56.5"/>
<text text-anchor="start" x="1023" y="-74.5" font-family="Helvetica,sans-Serif" font-size="10.00">modules/irc/handler</text>
<text text-anchor="middle" x="1065.5" y="-63.5" font-family="Helvetica,sans-Serif" font-size="10.00">/irc_admin.hpp</text>
</a>
</g>
</g>
<!-- Node1&#45;&gt;Node14 -->
<g id="edge14" class="edge"><title>Node1&#45;&gt;Node14</title>
<path fill="none" stroke="midnightblue" d="M702.089,-126.171C777.48,-119.264 901.117,-106.216 1006.5,-87 1009.2,-86.508 1011.96,-85.9664 1014.74,-85.3904"/>
<polygon fill="midnightblue" stroke="midnightblue" points="701.422,-122.717 691.779,-127.105 702.054,-129.688 701.422,-122.717"/>
</g>
<!-- Node15 -->
<g id="node15" class="node"><title>Node15</title>
<g id="a_node15"><a xlink:href="irc__whois_8hpp.html" target="_top" xlink:title="This file contains handlers for WHOIS recognition on IRC. ">
<polygon fill="none" stroke="black" points="1134,-56.5 1134,-86.5 1235,-86.5 1235,-56.5 1134,-56.5"/>
<text text-anchor="start" x="1142" y="-74.5" font-family="Helvetica,sans-Serif" font-size="10.00">modules/irc/handler</text>
<text text-anchor="middle" x="1184.5" y="-63.5" font-family="Helvetica,sans-Serif" font-size="10.00">/irc_whois.hpp</text>
</a>
</g>
</g>
<!-- Node1&#45;&gt;Node15 -->
<g id="edge16" class="edge"><title>Node1&#45;&gt;Node15</title>
<path fill="none" stroke="midnightblue" d="M701.819,-128.954C797.614,-124.001 975.63,-112.11 1125.5,-87 1128.2,-86.5468 1130.97,-86.0361 1133.75,-85.4843"/>
<polygon fill="midnightblue" stroke="midnightblue" points="701.49,-125.466 691.68,-129.468 701.844,-132.457 701.49,-125.466"/>
</g>
<!-- Node4 -->
<g id="node4" class="node"><title>Node4</title>
<g id="a_node4"><a xlink:href="web-api_8cpp.html" target="_top" xlink:title="This files defines some simple Handlers using web APIs. ">
<polygon fill="none" stroke="black" points="50.5,-0.5 50.5,-19.5 170.5,-19.5 170.5,-0.5 50.5,-0.5"/>
<text text-anchor="middle" x="110.5" y="-7.5" font-family="Helvetica,sans-Serif" font-size="10.00">src/handler/web&#45;api.cpp</text>
</a>
</g>
</g>
<!-- Node3&#45;&gt;Node4 -->
<g id="edge3" class="edge"><title>Node3&#45;&gt;Node4</title>
<path fill="none" stroke="midnightblue" d="M157.989,-55.1496C145.787,-43.8058 129.626,-28.7811 119.653,-19.5091"/>
<polygon fill="midnightblue" stroke="midnightblue" points="155.623,-57.7295 165.33,-61.9751 160.39,-52.6028 155.623,-57.7295"/>
</g>
<!-- Node5 -->
<g id="node5" class="node"><title>Node5</title>
<g id="a_node5"><a xlink:href="fun_8cpp.html" target="_top" xlink:title="This file contains definitions for handlers which are pretty useless. ">
<polygon fill="none" stroke="black" points="188.5,-0.5 188.5,-19.5 288.5,-19.5 288.5,-0.5 188.5,-0.5"/>
<text text-anchor="middle" x="238.5" y="-7.5" font-family="Helvetica,sans-Serif" font-size="10.00">src/handler/fun.cpp</text>
</a>
</g>
</g>
<!-- Node3&#45;&gt;Node5 -->
<g id="edge4" class="edge"><title>Node3&#45;&gt;Node5</title>
<path fill="none" stroke="midnightblue" d="M191.011,-55.1496C203.213,-43.8058 219.374,-28.7811 229.347,-19.5091"/>
<polygon fill="midnightblue" stroke="midnightblue" points="188.61,-52.6028 183.67,-61.9751 193.377,-57.7295 188.61,-52.6028"/>
</g>
<!-- Node8 -->
<g id="node8" class="node"><title>Node8</title>
<g id="a_node8"><a xlink:href="bridge_8cpp.html" target="_top" xlink:title="src/handler/bridge.cpp">
<polygon fill="none" stroke="black" points="378,-0.5 378,-19.5 491,-19.5 491,-0.5 378,-0.5"/>
<text text-anchor="middle" x="434.5" y="-7.5" font-family="Helvetica,sans-Serif" font-size="10.00">src/handler/bridge.cpp</text>
</a>
</g>
</g>
<!-- Node7&#45;&gt;Node8 -->
<g id="edge7" class="edge"><title>Node7&#45;&gt;Node8</title>
<path fill="none" stroke="midnightblue" d="M434.5,-51.8165C434.5,-40.9962 434.5,-27.898 434.5,-19.5091"/>
<polygon fill="midnightblue" stroke="midnightblue" points="431,-51.9751 434.5,-61.9751 438,-51.9751 431,-51.9751"/>
</g>
<!-- Node12 -->
<g id="node12" class="node"><title>Node12</title>
<g id="a_node12"><a xlink:href="irc_8cpp.html" target="_top" xlink:title="modules/irc/irc.cpp">
<polygon fill="none" stroke="black" points="956,-0.5 956,-19.5 1055,-19.5 1055,-0.5 956,-0.5"/>
<text text-anchor="middle" x="1005.5" y="-7.5" font-family="Helvetica,sans-Serif" font-size="10.00">modules/irc/irc.cpp</text>
</a>
</g>
</g>
<!-- Node11&#45;&gt;Node12 -->
<g id="edge11" class="edge"><title>Node11&#45;&gt;Node12</title>
<path fill="none" stroke="midnightblue" d="M879.201,-53.2179C912.243,-42.173 953.659,-28.3289 979.859,-19.5709"/>
<polygon fill="midnightblue" stroke="midnightblue" points="878.058,-49.9095 869.684,-56.3993 880.277,-56.5485 878.058,-49.9095"/>
</g>
<!-- Node13&#45;&gt;Node12 -->
<g id="edge13" class="edge"><title>Node13&#45;&gt;Node12</title>
<path fill="none" stroke="midnightblue" d="M967.817,-49.0023C977.872,-38.8617 989.305,-27.3319 996.915,-19.6578"/>
<polygon fill="midnightblue" stroke="midnightblue" points="965.038,-46.834 960.482,-56.3993 970.009,-51.7629 965.038,-46.834"/>
</g>
<!-- Node14&#45;&gt;Node12 -->
<g id="edge15" class="edge"><title>Node14&#45;&gt;Node12</title>
<path fill="none" stroke="midnightblue" d="M1044.12,-49.3002C1033.82,-39.0881 1022.05,-27.4072 1014.23,-19.6578"/>
<polygon fill="midnightblue" stroke="midnightblue" points="1041.72,-51.8431 1051.28,-56.3993 1046.64,-46.8727 1041.72,-51.8431"/>
</g>
<!-- Node15&#45;&gt;Node12 -->
<g id="edge17" class="edge"><title>Node15&#45;&gt;Node12</title>
<path fill="none" stroke="midnightblue" d="M1132.51,-53.2179C1099.28,-42.173 1057.63,-28.3289 1031.28,-19.5709"/>
<polygon fill="midnightblue" stroke="midnightblue" points="1131.49,-56.5663 1142.08,-56.3993 1133.69,-49.9236 1131.49,-56.5663"/>
</g>
</g>
</svg>
