<?xml version="1.0" encoding="UTF-8" standalone="no"?>
<!DOCTYPE svg PUBLIC "-//W3C//DTD SVG 1.1//EN"
 "http://www.w3.org/Graphics/SVG/1.1/DTD/svg11.dtd">
<!-- Generated by graphviz version 2.38.0 (20140413.2041)
 -->
<!-- Title: src/handler/handler.hpp Pages: 1 -->
<svg width="1059pt" height="140pt"
 viewBox="0.00 0.00 1058.50 140.00" xmlns="http://www.w3.org/2000/svg" xmlns:xlink="http://www.w3.org/1999/xlink">
<g id="graph0" class="graph" transform="scale(1 1) rotate(0) translate(4 136)">
<title>src/handler/handler.hpp</title>
<!-- Node1 -->
<g id="node1" class="node"><title>Node1</title>
<polygon fill="#bfbfbf" stroke="black" points="440.5,-112.5 440.5,-131.5 558.5,-131.5 558.5,-112.5 440.5,-112.5"/>
<text text-anchor="middle" x="499.5" y="-119.5" font-family="Helvetica,sans-Serif" font-size="10.00">src/handler/handler.hpp</text>
</g>
<!-- Node2 -->
<g id="node2" class="node"><title>Node2</title>
<g id="a_node2"><a xlink:href="melanobot_8cpp.html" target="_top" xlink:title="src/melanobot.cpp">
<polygon fill="none" stroke="black" points="-7.10543e-15,-56.5 -7.10543e-15,-75.5 97,-75.5 97,-56.5 -7.10543e-15,-56.5"/>
<text text-anchor="middle" x="48.5" y="-63.5" font-family="Helvetica,sans-Serif" font-size="10.00">src/melanobot.cpp</text>
</a>
</g>
</g>
<!-- Node1&#45;&gt;Node2 -->
<g id="edge1" class="edge"><title>Node1&#45;&gt;Node2</title>
<path fill="none" stroke="midnightblue" d="M430.228,-113.914C351.634,-105.677 219.672,-91.2537 106.5,-76 103.47,-75.5917 100.354,-75.1554 97.2137,-74.7035"/>
<polygon fill="midnightblue" stroke="midnightblue" points="430.175,-117.427 440.485,-114.985 430.902,-110.465 430.175,-117.427"/>
</g>
<!-- Node3 -->
<g id="node3" class="node"><title>Node3</title>
<g id="a_node3"><a xlink:href="ctcp_8cpp.html" target="_top" xlink:title="This files has handlers for CTCP messages. ">
<polygon fill="none" stroke="black" points="115,-56.5 115,-75.5 220,-75.5 220,-56.5 115,-56.5"/>
<text text-anchor="middle" x="167.5" y="-63.5" font-family="Helvetica,sans-Serif" font-size="10.00">src/handler/ctcp.cpp</text>
</a>
</g>
</g>
<!-- Node1&#45;&gt;Node3 -->
<g id="edge2" class="edge"><title>Node1&#45;&gt;Node3</title>
<path fill="none" stroke="midnightblue" d="M436.732,-110.791C373.998,-100.587 278.646,-85.078 219.86,-75.5164"/>
<polygon fill="midnightblue" stroke="midnightblue" points="436.461,-114.293 446.894,-112.444 437.585,-107.383 436.461,-114.293"/>
</g>
<!-- Node4 -->
<g id="node4" class="node"><title>Node4</title>
<g id="a_node4"><a xlink:href="web-api_8hpp.html" target="_top" xlink:title="src/handler/web&#45;api.hpp">
<polygon fill="none" stroke="black" points="238.5,-56.5 238.5,-75.5 358.5,-75.5 358.5,-56.5 238.5,-56.5"/>
<text text-anchor="middle" x="298.5" y="-63.5" font-family="Helvetica,sans-Serif" font-size="10.00">src/handler/web&#45;api.hpp</text>
</a>
</g>
</g>
<!-- Node1&#45;&gt;Node4 -->
<g id="edge3" class="edge"><title>Node1&#45;&gt;Node4</title>
<path fill="none" stroke="midnightblue" d="M457.919,-109.829C419.969,-99.6333 364.69,-84.7823 330.2,-75.5164"/>
<polygon fill="midnightblue" stroke="midnightblue" points="457.085,-113.229 467.651,-112.444 458.902,-106.469 457.085,-113.229"/>
</g>
<!-- Node7 -->
<g id="node7" class="node"><title>Node7</title>
<g id="a_node7"><a xlink:href="misc_8cpp.html" target="_top" xlink:title="This file defines handlers which perform miscellaneous tasks. ">
<polygon fill="none" stroke="black" points="377,-56.5 377,-75.5 484,-75.5 484,-56.5 377,-56.5"/>
<text text-anchor="middle" x="430.5" y="-63.5" font-family="Helvetica,sans-Serif" font-size="10.00">src/handler/misc.cpp</text>
</a>
</g>
</g>
<!-- Node1&#45;&gt;Node7 -->
<g id="edge6" class="edge"><title>Node1&#45;&gt;Node7</title>
<path fill="none" stroke="midnightblue" d="M480.462,-106.101C468.044,-96.3824 452.257,-84.0269 441.788,-75.8339"/>
<polygon fill="midnightblue" stroke="midnightblue" points="478.382,-108.917 488.414,-112.324 482.696,-103.405 478.382,-108.917"/>
</g>
<!-- Node8 -->
<g id="node8" class="node"><title>Node8</title>
<g id="a_node8"><a xlink:href="irc__actions_8cpp.html" target="_top" xlink:title="src/handler/irc_actions.cpp">
<polygon fill="none" stroke="black" points="502.5,-56.5 502.5,-75.5 636.5,-75.5 636.5,-56.5 502.5,-56.5"/>
<text text-anchor="middle" x="569.5" y="-63.5" font-family="Helvetica,sans-Serif" font-size="10.00">src/handler/irc_actions.cpp</text>
</a>
</g>
</g>
<!-- Node1&#45;&gt;Node8 -->
<g id="edge7" class="edge"><title>Node1&#45;&gt;Node8</title>
<path fill="none" stroke="midnightblue" d="M518.814,-106.101C531.412,-96.3824 547.428,-84.0269 558.049,-75.8339"/>
<polygon fill="midnightblue" stroke="midnightblue" points="516.527,-103.445 510.747,-112.324 520.802,-108.987 516.527,-103.445"/>
</g>
<!-- Node9 -->
<g id="node9" class="node"><title>Node9</title>
<g id="a_node9"><a xlink:href="irc__whois_8cpp.html" target="_top" xlink:title="This file contains handlers for WHOIS recognition on IRC. ">
<polygon fill="none" stroke="black" points="654.5,-56.5 654.5,-75.5 782.5,-75.5 782.5,-56.5 654.5,-56.5"/>
<text text-anchor="middle" x="718.5" y="-63.5" font-family="Helvetica,sans-Serif" font-size="10.00">src/handler/irc_whois.cpp</text>
</a>
</g>
</g>
<!-- Node1&#45;&gt;Node9 -->
<g id="edge8" class="edge"><title>Node1&#45;&gt;Node9</title>
<path fill="none" stroke="midnightblue" d="M544.015,-110.024C585.384,-99.8232 646.143,-84.8414 683.961,-75.5164"/>
<polygon fill="midnightblue" stroke="midnightblue" points="543.072,-106.651 534.201,-112.444 544.748,-113.448 543.072,-106.651"/>
</g>
<!-- Node10 -->
<g id="node10" class="node"><title>Node10</title>
<g id="a_node10"><a xlink:href="admin_8cpp.html" target="_top" xlink:title="This file defines handlers which allows admin to administrate the bot (Mostly IRC&#45;specific action) ...">
<polygon fill="none" stroke="black" points="801,-56.5 801,-75.5 914,-75.5 914,-56.5 801,-56.5"/>
<text text-anchor="middle" x="857.5" y="-63.5" font-family="Helvetica,sans-Serif" font-size="10.00">src/handler/admin.cpp</text>
</a>
</g>
</g>
<!-- Node1&#45;&gt;Node10 -->
<g id="edge9" class="edge"><title>Node1&#45;&gt;Node10</title>
<path fill="none" stroke="midnightblue" d="M566.349,-110.917C633.982,-100.715 737.388,-85.1174 801.039,-75.5164"/>
<polygon fill="midnightblue" stroke="midnightblue" points="565.592,-107.491 556.226,-112.444 566.636,-114.413 565.592,-107.491"/>
</g>
<!-- Node11 -->
<g id="node11" class="node"><title>Node11</title>
<g id="a_node11"><a xlink:href="handler_8cpp.html" target="_top" xlink:title="This file contains the definitions for the most basic and reusable handlers. ">
<polygon fill="none" stroke="black" points="932.5,-56.5 932.5,-75.5 1050.5,-75.5 1050.5,-56.5 932.5,-56.5"/>
<text text-anchor="middle" x="991.5" y="-63.5" font-family="Helvetica,sans-Serif" font-size="10.00">src/handler/handler.cpp</text>
</a>
</g>
</g>
<!-- Node1&#45;&gt;Node11 -->
<g id="edge10" class="edge"><title>Node1&#45;&gt;Node11</title>
<path fill="none" stroke="midnightblue" d="M568.724,-114.208C652.719,-105.838 798.607,-90.89 923.5,-76 926.338,-75.6617 929.241,-75.3076 932.173,-74.9439"/>
<polygon fill="midnightblue" stroke="midnightblue" points="568.148,-110.748 558.543,-115.22 568.841,-117.713 568.148,-110.748"/>
</g>
<!-- Node5 -->
<g id="node5" class="node"><title>Node5</title>
<g id="a_node5"><a xlink:href="web-api_8cpp.html" target="_top" xlink:title="This files defines some simple Handlers using web APIs. ">
<polygon fill="none" stroke="black" points="174.5,-0.5 174.5,-19.5 294.5,-19.5 294.5,-0.5 174.5,-0.5"/>
<text text-anchor="middle" x="234.5" y="-7.5" font-family="Helvetica,sans-Serif" font-size="10.00">src/handler/web&#45;api.cpp</text>
</a>
</g>
</g>
<!-- Node4&#45;&gt;Node5 -->
<g id="edge4" class="edge"><title>Node4&#45;&gt;Node5</title>
<path fill="none" stroke="midnightblue" d="M280.509,-49.8197C269.042,-40.1452 254.587,-27.9481 244.97,-19.8339"/>
<polygon fill="midnightblue" stroke="midnightblue" points="278.317,-52.5502 288.217,-56.324 282.831,-47.2002 278.317,-52.5502"/>
</g>
<!-- Node6 -->
<g id="node6" class="node"><title>Node6</title>
<g id="a_node6"><a xlink:href="fun_8cpp.html" target="_top" xlink:title="This file contains definitions for handlers which are pretty useless. ">
<polygon fill="none" stroke="black" points="312.5,-0.5 312.5,-19.5 412.5,-19.5 412.5,-0.5 312.5,-0.5"/>
<text text-anchor="middle" x="362.5" y="-7.5" font-family="Helvetica,sans-Serif" font-size="10.00">src/handler/fun.cpp</text>
</a>
</g>
</g>
<!-- Node4&#45;&gt;Node6 -->
<g id="edge5" class="edge"><title>Node4&#45;&gt;Node6</title>
<path fill="none" stroke="midnightblue" d="M316.491,-49.8197C327.958,-40.1452 342.413,-27.9481 352.03,-19.8339"/>
<polygon fill="midnightblue" stroke="midnightblue" points="314.169,-47.2002 308.783,-56.324 318.683,-52.5502 314.169,-47.2002"/>
</g>
</g>
</svg>
