<?xml version="1.0" encoding="UTF-8" standalone="no"?>
<!DOCTYPE svg PUBLIC "-//W3C//DTD SVG 1.1//EN"
 "http://www.w3.org/Graphics/SVG/1.1/DTD/svg11.dtd">
<!-- Generated by graphviz version 2.38.0 (20140413.2041)
 -->
<!-- Title: src/handler/handler.hpp Pages: 1 -->
<svg width="1585pt" height="285pt"
 viewBox="0.00 0.00 1584.50 285.00" xmlns="http://www.w3.org/2000/svg" xmlns:xlink="http://www.w3.org/1999/xlink">
<g id="graph0" class="graph" transform="scale(1 1) rotate(0) translate(4 281)">
<title>src/handler/handler.hpp</title>
<!-- Node1 -->
<g id="node1" class="node"><title>Node1</title>
<polygon fill="#bfbfbf" stroke="black" points="929.5,-257.5 929.5,-276.5 1047.5,-276.5 1047.5,-257.5 929.5,-257.5"/>
<text text-anchor="middle" x="988.5" y="-264.5" font-family="Helvetica,sans-Serif" font-size="10.00">src/handler/handler.hpp</text>
</g>
<!-- Node2 -->
<g id="node2" class="node"><title>Node2</title>
<g id="a_node2"><a xlink:href="melanobot_8cpp.html" target="_top" xlink:title="src/melanobot.cpp">
<polygon fill="none" stroke="black" points="217,-196 217,-215 314,-215 314,-196 217,-196"/>
<text text-anchor="middle" x="265.5" y="-203" font-family="Helvetica,sans-Serif" font-size="10.00">src/melanobot.cpp</text>
</a>
</g>
</g>
<!-- Node1&#45;&gt;Node2 -->
<g id="edge1" class="edge"><title>Node1&#45;&gt;Node2</title>
<path fill="none" stroke="midnightblue" d="M919.014,-265.446C797.366,-263.557 538.226,-255.434 322.5,-221 313.425,-219.551 303.686,-217.329 294.871,-215.056"/>
<polygon fill="midnightblue" stroke="midnightblue" points="919.246,-268.95 929.296,-265.596 919.348,-261.95 919.246,-268.95"/>
</g>
<!-- Node3 -->
<g id="node3" class="node"><title>Node3</title>
<g id="a_node3"><a xlink:href="melanomodule_8hpp.html" target="_top" xlink:title="src/melanomodule.hpp">
<polygon fill="none" stroke="black" points="332,-196 332,-215 447,-215 447,-196 332,-196"/>
<text text-anchor="middle" x="389.5" y="-203" font-family="Helvetica,sans-Serif" font-size="10.00">src/melanomodule.hpp</text>
</a>
</g>
</g>
<!-- Node1&#45;&gt;Node3 -->
<g id="edge2" class="edge"><title>Node1&#45;&gt;Node3</title>
<path fill="none" stroke="midnightblue" d="M919.321,-259.128C800.097,-247.285 558.066,-223.244 447.251,-212.237"/>
<polygon fill="midnightblue" stroke="midnightblue" points="919.129,-262.626 929.426,-260.132 919.821,-255.661 919.129,-262.626"/>
</g>
<!-- Node11 -->
<g id="node11" class="node"><title>Node11</title>
<g id="a_node11"><a xlink:href="web-api_8hpp.html" target="_top" xlink:title="modules/web/web&#45;api.hpp">
<polygon fill="none" stroke="black" points="544.5,-196 544.5,-215 674.5,-215 674.5,-196 544.5,-196"/>
<text text-anchor="middle" x="609.5" y="-203" font-family="Helvetica,sans-Serif" font-size="10.00">modules/web/web&#45;api.hpp</text>
</a>
</g>
</g>
<!-- Node1&#45;&gt;Node11 -->
<g id="edge10" class="edge"><title>Node1&#45;&gt;Node11</title>
<path fill="none" stroke="midnightblue" d="M924.169,-255.901C850.9,-244.398 732.464,-225.804 663.701,-215.009"/>
<polygon fill="midnightblue" stroke="midnightblue" points="923.777,-259.382 934.199,-257.475 924.862,-252.466 923.777,-259.382"/>
</g>
<!-- Node15 -->
<g id="node15" class="node"><title>Node15</title>
<g id="a_node15"><a xlink:href="simple-group_8hpp.html" target="_top" xlink:title="modules/core/handler\l/simple&#45;group.hpp">
<polygon fill="none" stroke="black" points="811.5,-190.5 811.5,-220.5 921.5,-220.5 921.5,-190.5 811.5,-190.5"/>
<text text-anchor="start" x="819.5" y="-208.5" font-family="Helvetica,sans-Serif" font-size="10.00">modules/core/handler</text>
<text text-anchor="middle" x="866.5" y="-197.5" font-family="Helvetica,sans-Serif" font-size="10.00">/simple&#45;group.hpp</text>
</a>
</g>
</g>
<!-- Node1&#45;&gt;Node15 -->
<g id="edge16" class="edge"><title>Node1&#45;&gt;Node15</title>
<path fill="none" stroke="midnightblue" d="M961.987,-253.07C942.295,-243.465 915.461,-230.378 895.253,-220.523"/>
<polygon fill="midnightblue" stroke="midnightblue" points="960.498,-256.237 971.02,-257.475 963.567,-249.946 960.498,-256.237"/>
</g>
<!-- Node20 -->
<g id="node20" class="node"><title>Node20</title>
<g id="a_node20"><a xlink:href="misc_8hpp.html" target="_top" xlink:title="This file defines handlers which perform miscellaneous tasks. ">
<polygon fill="none" stroke="black" points="1097.5,-123.5 1097.5,-153.5 1207.5,-153.5 1207.5,-123.5 1097.5,-123.5"/>
<text text-anchor="start" x="1105.5" y="-141.5" font-family="Helvetica,sans-Serif" font-size="10.00">modules/core/handler</text>
<text text-anchor="middle" x="1152.5" y="-130.5" font-family="Helvetica,sans-Serif" font-size="10.00">/misc.hpp</text>
</a>
</g>
</g>
<!-- Node1&#45;&gt;Node20 -->
<g id="edge25" class="edge"><title>Node1&#45;&gt;Node20</title>
<path fill="none" stroke="midnightblue" d="M976.043,-248.385C965.997,-231.808 955.499,-207.05 968.5,-190 976.509,-179.496 1045.96,-162.478 1097.19,-151.14"/>
<polygon fill="midnightblue" stroke="midnightblue" points="973.324,-250.622 981.724,-257.079 979.184,-246.793 973.324,-250.622"/>
</g>
<!-- Node21 -->
<g id="node21" class="node"><title>Node21</title>
<g id="a_node21"><a xlink:href="irc__actions_8hpp.html" target="_top" xlink:title="File containing Handlers which manage responses to various IRC commands. ">
<polygon fill="none" stroke="black" points="1216,-190.5 1216,-220.5 1317,-220.5 1317,-190.5 1216,-190.5"/>
<text text-anchor="start" x="1224" y="-208.5" font-family="Helvetica,sans-Serif" font-size="10.00">modules/irc/handler</text>
<text text-anchor="middle" x="1266.5" y="-197.5" font-family="Helvetica,sans-Serif" font-size="10.00">/irc_actions.hpp</text>
</a>
</g>
</g>
<!-- Node1&#45;&gt;Node21 -->
<g id="edge27" class="edge"><title>Node1&#45;&gt;Node21</title>
<path fill="none" stroke="midnightblue" d="M1041.97,-255.483C1086.17,-246.665 1150.52,-233.538 1206.5,-221 1209.53,-220.321 1212.65,-219.609 1215.79,-218.882"/>
<polygon fill="midnightblue" stroke="midnightblue" points="1041.15,-252.078 1032.02,-257.463 1042.51,-258.944 1041.15,-252.078"/>
</g>
<!-- Node22 -->
<g id="node22" class="node"><title>Node22</title>
<g id="a_node22"><a xlink:href="ctcp_8hpp.html" target="_top" xlink:title="This files has handlers for CTCP messages. ">
<polygon fill="none" stroke="black" points="1335,-190.5 1335,-220.5 1436,-220.5 1436,-190.5 1335,-190.5"/>
<text text-anchor="start" x="1343" y="-208.5" font-family="Helvetica,sans-Serif" font-size="10.00">modules/irc/handler</text>
<text text-anchor="middle" x="1385.5" y="-197.5" font-family="Helvetica,sans-Serif" font-size="10.00">/ctcp.hpp</text>
</a>
</g>
</g>
<!-- Node1&#45;&gt;Node22 -->
<g id="edge29" class="edge"><title>Node1&#45;&gt;Node22</title>
<path fill="none" stroke="midnightblue" d="M1057.76,-258.891C1126.12,-251.372 1233.48,-238.215 1325.5,-221 1328.55,-220.429 1331.69,-219.8 1334.84,-219.136"/>
<polygon fill="midnightblue" stroke="midnightblue" points="1057.11,-255.441 1047.54,-260.005 1057.86,-262.4 1057.11,-255.441"/>
</g>
<!-- Node23 -->
<g id="node23" class="node"><title>Node23</title>
<g id="a_node23"><a xlink:href="irc__admin_8hpp.html" target="_top" xlink:title="This file defines handlers which allows admin to administrate the bot (IRC&#45;specific actions) ...">
<polygon fill="none" stroke="black" points="978,-190.5 978,-220.5 1079,-220.5 1079,-190.5 978,-190.5"/>
<text text-anchor="start" x="986" y="-208.5" font-family="Helvetica,sans-Serif" font-size="10.00">modules/irc/handler</text>
<text text-anchor="middle" x="1028.5" y="-197.5" font-family="Helvetica,sans-Serif" font-size="10.00">/irc_admin.hpp</text>
</a>
</g>
</g>
<!-- Node1&#45;&gt;Node23 -->
<g id="edge31" class="edge"><title>Node1&#45;&gt;Node23</title>
<path fill="none" stroke="midnightblue" d="M999.953,-248.963C1006.01,-239.956 1013.35,-229.034 1019.07,-220.523"/>
<polygon fill="midnightblue" stroke="midnightblue" points="996.906,-247.223 994.231,-257.475 1002.71,-251.129 996.906,-247.223"/>
</g>
<!-- Node24 -->
<g id="node24" class="node"><title>Node24</title>
<g id="a_node24"><a xlink:href="irc__whois_8hpp.html" target="_top" xlink:title="This file contains handlers for WHOIS recognition on IRC. ">
<polygon fill="none" stroke="black" points="1097,-190.5 1097,-220.5 1198,-220.5 1198,-190.5 1097,-190.5"/>
<text text-anchor="start" x="1105" y="-208.5" font-family="Helvetica,sans-Serif" font-size="10.00">modules/irc/handler</text>
<text text-anchor="middle" x="1147.5" y="-197.5" font-family="Helvetica,sans-Serif" font-size="10.00">/irc_whois.hpp</text>
</a>
</g>
</g>
<!-- Node1&#45;&gt;Node24 -->
<g id="edge33" class="edge"><title>Node1&#45;&gt;Node24</title>
<path fill="none" stroke="midnightblue" d="M1020.97,-253.847C1046.8,-244.182 1082.97,-230.647 1110.03,-220.523"/>
<polygon fill="midnightblue" stroke="midnightblue" points="1019.42,-250.692 1011.28,-257.475 1021.87,-257.248 1019.42,-250.692"/>
</g>
<!-- Node25 -->
<g id="node25" class="node"><title>Node25</title>
<g id="a_node25"><a xlink:href="chat_8hpp.html" target="_top" xlink:title="modules/xonotic/handler\l/chat.hpp">
<polygon fill="none" stroke="black" points="1454.5,-190.5 1454.5,-220.5 1576.5,-220.5 1576.5,-190.5 1454.5,-190.5"/>
<text text-anchor="start" x="1462.5" y="-208.5" font-family="Helvetica,sans-Serif" font-size="10.00">modules/xonotic/handler</text>
<text text-anchor="middle" x="1515.5" y="-197.5" font-family="Helvetica,sans-Serif" font-size="10.00">/chat.hpp</text>
</a>
</g>
</g>
<!-- Node1&#45;&gt;Node25 -->
<g id="edge35" class="edge"><title>Node1&#45;&gt;Node25</title>
<path fill="none" stroke="midnightblue" d="M1057.6,-261.49C1147.34,-255.108 1308.71,-241.842 1445.5,-221 1448.44,-220.551 1451.45,-220.059 1454.49,-219.536"/>
<polygon fill="midnightblue" stroke="midnightblue" points="1057.27,-258.004 1047.54,-262.197 1057.77,-264.987 1057.27,-258.004"/>
</g>
<!-- Node4 -->
<g id="node4" class="node"><title>Node4</title>
<g id="a_node4"><a xlink:href="main_8cpp.html" target="_top" xlink:title="src/main.cpp">
<polygon fill="none" stroke="black" points="159,-129 159,-148 232,-148 232,-129 159,-129"/>
<text text-anchor="middle" x="195.5" y="-136" font-family="Helvetica,sans-Serif" font-size="10.00">src/main.cpp</text>
</a>
</g>
</g>
<!-- Node3&#45;&gt;Node4 -->
<g id="edge3" class="edge"><title>Node3&#45;&gt;Node4</title>
<path fill="none" stroke="midnightblue" d="M353.987,-192.601C315.523,-179.714 255.111,-159.473 221.059,-148.064"/>
<polygon fill="midnightblue" stroke="midnightblue" points="353.144,-196.01 363.738,-195.869 355.368,-189.373 353.144,-196.01"/>
</g>
<!-- Node5 -->
<g id="node5" class="node"><title>Node5</title>
<g id="a_node5"><a xlink:href="posix_8cpp.html" target="_top" xlink:title="modules/posix/posix.cpp">
<polygon fill="none" stroke="black" points="327,-129 327,-148 452,-148 452,-129 327,-129"/>
<text text-anchor="middle" x="389.5" y="-136" font-family="Helvetica,sans-Serif" font-size="10.00">modules/posix/posix.cpp</text>
</a>
</g>
</g>
<!-- Node3&#45;&gt;Node5 -->
<g id="edge4" class="edge"><title>Node3&#45;&gt;Node5</title>
<path fill="none" stroke="midnightblue" d="M389.5,-185.537C389.5,-173.17 389.5,-157.62 389.5,-148.127"/>
<polygon fill="midnightblue" stroke="midnightblue" points="386,-185.734 389.5,-195.734 393,-185.734 386,-185.734"/>
</g>
<!-- Node6 -->
<g id="node6" class="node"><title>Node6</title>
<g id="a_node6"><a xlink:href="fun_8cpp.html" target="_top" xlink:title="modules/fun/fun.cpp">
<polygon fill="none" stroke="black" points="297,-0.5 297,-19.5 402,-19.5 402,-0.5 297,-0.5"/>
<text text-anchor="middle" x="349.5" y="-7.5" font-family="Helvetica,sans-Serif" font-size="10.00">modules/fun/fun.cpp</text>
</a>
</g>
</g>
<!-- Node3&#45;&gt;Node6 -->
<g id="edge5" class="edge"><title>Node3&#45;&gt;Node6</title>
<path fill="none" stroke="midnightblue" d="M355.087,-191.665C338.354,-183.539 319.697,-171.258 309.5,-154 287.325,-116.47 289.045,-96.3667 305.5,-56 311.769,-40.6205 326.106,-27.6399 336.719,-19.6314"/>
<polygon fill="midnightblue" stroke="midnightblue" points="354.084,-195.053 364.639,-195.976 356.964,-188.672 354.084,-195.053"/>
</g>
<!-- Node7 -->
<g id="node7" class="node"><title>Node7</title>
<g id="a_node7"><a xlink:href="web_8cpp.html" target="_top" xlink:title="modules/web/web.cpp">
<polygon fill="none" stroke="black" points="314.5,-62 314.5,-81 428.5,-81 428.5,-62 314.5,-62"/>
<text text-anchor="middle" x="371.5" y="-69" font-family="Helvetica,sans-Serif" font-size="10.00">modules/web/web.cpp</text>
</a>
</g>
</g>
<!-- Node3&#45;&gt;Node7 -->
<g id="edge6" class="edge"><title>Node3&#45;&gt;Node7</title>
<path fill="none" stroke="midnightblue" d="M358.554,-191.341C343.232,-183.048 326.192,-170.714 317.5,-154 311.143,-141.776 312.015,-135.639 317.5,-123 325.522,-104.514 344.015,-89.7081 357.118,-81.0217"/>
<polygon fill="midnightblue" stroke="midnightblue" points="357.275,-194.616 367.781,-195.986 360.422,-188.364 357.275,-194.616"/>
</g>
<!-- Node8 -->
<g id="node8" class="node"><title>Node8</title>
<g id="a_node8"><a xlink:href="core_8cpp.html" target="_top" xlink:title="modules/core/core.cpp">
<polygon fill="none" stroke="black" points="800.5,-62 800.5,-81 916.5,-81 916.5,-62 800.5,-62"/>
<text text-anchor="middle" x="858.5" y="-69" font-family="Helvetica,sans-Serif" font-size="10.00">modules/core/core.cpp</text>
</a>
</g>
</g>
<!-- Node3&#45;&gt;Node8 -->
<g id="edge7" class="edge"><title>Node3&#45;&gt;Node8</title>
<path fill="none" stroke="midnightblue" d="M457.341,-197.175C555.847,-186.234 729.695,-165.667 756.5,-154 776.485,-145.302 777.5,-136.64 794.5,-123 813.046,-108.12 834.813,-91.0212 847.586,-81.0244"/>
<polygon fill="midnightblue" stroke="midnightblue" points="456.731,-193.721 447.176,-198.299 457.5,-200.679 456.731,-193.721"/>
</g>
<!-- Node9 -->
<g id="node9" class="node"><title>Node9</title>
<g id="a_node9"><a xlink:href="irc_8cpp.html" target="_top" xlink:title="modules/irc/irc.cpp">
<polygon fill="none" stroke="black" points="1226,-129 1226,-148 1325,-148 1325,-129 1226,-129"/>
<text text-anchor="middle" x="1275.5" y="-136" font-family="Helvetica,sans-Serif" font-size="10.00">modules/irc/irc.cpp</text>
</a>
</g>
</g>
<!-- Node3&#45;&gt;Node9 -->
<g id="edge8" class="edge"><title>Node3&#45;&gt;Node9</title>
<path fill="none" stroke="midnightblue" d="M456.989,-197.141C481.669,-194.623 509.829,-191.952 535.5,-190 837.717,-167.017 916.675,-198.364 1216.5,-154 1226,-152.595 1236.19,-150.357 1245.4,-148.055"/>
<polygon fill="midnightblue" stroke="midnightblue" points="456.589,-193.664 447.001,-198.171 457.307,-200.627 456.589,-193.664"/>
</g>
<!-- Node10 -->
<g id="node10" class="node"><title>Node10</title>
<g id="a_node10"><a xlink:href="xonotic_8cpp.html" target="_top" xlink:title="modules/xonotic/xonotic.cpp">
<polygon fill="none" stroke="black" points="0,-129 0,-148 141,-148 141,-129 0,-129"/>
<text text-anchor="middle" x="70.5" y="-136" font-family="Helvetica,sans-Serif" font-size="10.00">modules/xonotic/xonotic.cpp</text>
</a>
</g>
</g>
<!-- Node3&#45;&gt;Node10 -->
<g id="edge9" class="edge"><title>Node3&#45;&gt;Node10</title>
<path fill="none" stroke="midnightblue" d="M340.474,-193.799C334.424,-192.505 328.322,-191.213 322.5,-190 249.552,-174.798 164.539,-157.939 114.246,-148.055"/>
<polygon fill="midnightblue" stroke="midnightblue" points="340.038,-197.285 350.55,-195.965 341.509,-190.442 340.038,-197.285"/>
</g>
<!-- Node12 -->
<g id="node12" class="node"><title>Node12</title>
<g id="a_node12"><a xlink:href="fun-handlers_8hpp.html" target="_top" xlink:title="This file contains definitions for handlers which are pretty useless. ">
<polygon fill="none" stroke="black" points="491,-62 491,-81 636,-81 636,-62 491,-62"/>
<text text-anchor="middle" x="563.5" y="-69" font-family="Helvetica,sans-Serif" font-size="10.00">modules/fun/fun&#45;handlers.hpp</text>
</a>
</g>
</g>
<!-- Node11&#45;&gt;Node12 -->
<g id="edge11" class="edge"><title>Node11&#45;&gt;Node12</title>
<path fill="none" stroke="midnightblue" d="M606.17,-185.593C602.912,-168.829 597.299,-143.843 589.5,-123 583.763,-107.669 574.534,-90.9864 568.754,-81.1515"/>
<polygon fill="midnightblue" stroke="midnightblue" points="602.786,-186.538 608.048,-195.734 609.669,-185.264 602.786,-186.538"/>
</g>
<!-- Node14 -->
<g id="node14" class="node"><title>Node14</title>
<g id="a_node14"><a xlink:href="web-api-concrete_8hpp.html" target="_top" xlink:title="This files defines some simple Handlers using web APIs. ">
<polygon fill="none" stroke="black" points="470,-123.5 470,-153.5 581,-153.5 581,-123.5 470,-123.5"/>
<text text-anchor="start" x="478" y="-141.5" font-family="Helvetica,sans-Serif" font-size="10.00">modules/web/web&#45;api</text>
<text text-anchor="middle" x="525.5" y="-130.5" font-family="Helvetica,sans-Serif" font-size="10.00">&#45;concrete.hpp</text>
</a>
</g>
</g>
<!-- Node11&#45;&gt;Node14 -->
<g id="edge14" class="edge"><title>Node11&#45;&gt;Node14</title>
<path fill="none" stroke="midnightblue" d="M590.173,-189.544C576.191,-178.725 557.423,-164.203 543.707,-153.589"/>
<polygon fill="midnightblue" stroke="midnightblue" points="588.121,-192.382 598.171,-195.734 592.405,-186.846 588.121,-192.382"/>
</g>
<!-- Node12&#45;&gt;Node6 -->
<g id="edge13" class="edge"><title>Node12&#45;&gt;Node6</title>
<path fill="none" stroke="midnightblue" d="M523.035,-59.2493C481.459,-47.6894 417.66,-29.9511 380.104,-19.5091"/>
<polygon fill="midnightblue" stroke="midnightblue" points="522.267,-62.6684 532.839,-61.9751 524.142,-55.9242 522.267,-62.6684"/>
</g>
<!-- Node13 -->
<g id="node13" class="node"><title>Node13</title>
<g id="a_node13"><a xlink:href="fun-handlers_8cpp.html" target="_top" xlink:title="modules/fun/fun&#45;handlers.cpp">
<polygon fill="none" stroke="black" points="491,-0.5 491,-19.5 636,-19.5 636,-0.5 491,-0.5"/>
<text text-anchor="middle" x="563.5" y="-7.5" font-family="Helvetica,sans-Serif" font-size="10.00">modules/fun/fun&#45;handlers.cpp</text>
</a>
</g>
</g>
<!-- Node12&#45;&gt;Node13 -->
<g id="edge12" class="edge"><title>Node12&#45;&gt;Node13</title>
<path fill="none" stroke="midnightblue" d="M563.5,-51.8165C563.5,-40.9962 563.5,-27.898 563.5,-19.5091"/>
<polygon fill="midnightblue" stroke="midnightblue" points="560,-51.9751 563.5,-61.9751 567,-51.9751 560,-51.9751"/>
</g>
<!-- Node14&#45;&gt;Node7 -->
<g id="edge15" class="edge"><title>Node14&#45;&gt;Node7</title>
<path fill="none" stroke="midnightblue" d="M482.755,-119.458C453.002,-106.9 414.677,-90.724 391.655,-81.007"/>
<polygon fill="midnightblue" stroke="midnightblue" points="481.51,-122.732 492.084,-123.396 484.232,-116.283 481.51,-122.732"/>
</g>
<!-- Node15&#45;&gt;Node8 -->
<g id="edge24" class="edge"><title>Node15&#45;&gt;Node8</title>
<path fill="none" stroke="midnightblue" d="M931.609,-190.671C981.477,-179.42 1042.99,-163.847 1050.5,-154 1058.85,-143.044 1058.91,-133.911 1050.5,-123 1034.19,-101.845 967.245,-87.7948 916.959,-80.0008"/>
<polygon fill="midnightblue" stroke="midnightblue" points="930.807,-187.264 921.81,-192.86 932.333,-194.095 930.807,-187.264"/>
</g>
<!-- Node16 -->
<g id="node16" class="node"><title>Node16</title>
<g id="a_node16"><a xlink:href="bridge_8hpp.html" target="_top" xlink:title="modules/core/handler\l/bridge.hpp">
<polygon fill="none" stroke="black" points="637.5,-123.5 637.5,-153.5 747.5,-153.5 747.5,-123.5 637.5,-123.5"/>
<text text-anchor="start" x="645.5" y="-141.5" font-family="Helvetica,sans-Serif" font-size="10.00">modules/core/handler</text>
<text text-anchor="middle" x="692.5" y="-130.5" font-family="Helvetica,sans-Serif" font-size="10.00">/bridge.hpp</text>
</a>
</g>
</g>
<!-- Node15&#45;&gt;Node16 -->
<g id="edge17" class="edge"><title>Node15&#45;&gt;Node16</title>
<path fill="none" stroke="midnightblue" d="M819.168,-186.819C791.2,-176.371 756.273,-163.323 730.182,-153.577"/>
<polygon fill="midnightblue" stroke="midnightblue" points="818.152,-190.175 828.745,-190.396 820.602,-183.618 818.152,-190.175"/>
</g>
<!-- Node18 -->
<g id="node18" class="node"><title>Node18</title>
<g id="a_node18"><a xlink:href="simple-group_8cpp.html" target="_top" xlink:title="This file contains the definitions for the most basic and reusable handlers. ">
<polygon fill="none" stroke="black" points="931.5,-123.5 931.5,-153.5 1041.5,-153.5 1041.5,-123.5 931.5,-123.5"/>
<text text-anchor="start" x="939.5" y="-141.5" font-family="Helvetica,sans-Serif" font-size="10.00">modules/core/handler</text>
<text text-anchor="middle" x="986.5" y="-130.5" font-family="Helvetica,sans-Serif" font-size="10.00">/simple&#45;group.cpp</text>
</a>
</g>
</g>
<!-- Node15&#45;&gt;Node18 -->
<g id="edge21" class="edge"><title>Node15&#45;&gt;Node18</title>
<path fill="none" stroke="midnightblue" d="M901.438,-185.575C920.315,-175.35 943.226,-162.94 960.513,-153.577"/>
<polygon fill="midnightblue" stroke="midnightblue" points="899.664,-182.556 892.538,-190.396 902.998,-188.711 899.664,-182.556"/>
</g>
<!-- Node19 -->
<g id="node19" class="node"><title>Node19</title>
<g id="a_node19"><a xlink:href="admin_8hpp.html" target="_top" xlink:title="This file defines handlers which allows admin to administrate the bot. ">
<polygon fill="none" stroke="black" points="803.5,-123.5 803.5,-153.5 913.5,-153.5 913.5,-123.5 803.5,-123.5"/>
<text text-anchor="start" x="811.5" y="-141.5" font-family="Helvetica,sans-Serif" font-size="10.00">modules/core/handler</text>
<text text-anchor="middle" x="858.5" y="-130.5" font-family="Helvetica,sans-Serif" font-size="10.00">/admin.hpp</text>
</a>
</g>
</g>
<!-- Node15&#45;&gt;Node19 -->
<g id="edge22" class="edge"><title>Node15&#45;&gt;Node19</title>
<path fill="none" stroke="midnightblue" d="M863.534,-180.403C862.422,-171.37 861.196,-161.408 860.232,-153.577"/>
<polygon fill="midnightblue" stroke="midnightblue" points="860.069,-180.898 864.764,-190.396 867.016,-180.043 860.069,-180.898"/>
</g>
<!-- Node16&#45;&gt;Node8 -->
<g id="edge20" class="edge"><title>Node16&#45;&gt;Node8</title>
<path fill="none" stroke="midnightblue" d="M738.159,-119.621C770.29,-107.04 811.851,-90.7661 836.774,-81.007"/>
<polygon fill="midnightblue" stroke="midnightblue" points="736.555,-116.491 728.52,-123.396 739.107,-123.009 736.555,-116.491"/>
</g>
<!-- Node16&#45;&gt;Node12 -->
<g id="edge18" class="edge"><title>Node16&#45;&gt;Node12</title>
<path fill="none" stroke="midnightblue" d="M655.393,-118.803C630.663,-106.342 599.334,-90.5558 580.383,-81.007"/>
<polygon fill="midnightblue" stroke="midnightblue" points="654.004,-122.022 664.509,-123.396 657.153,-115.77 654.004,-122.022"/>
</g>
<!-- Node17 -->
<g id="node17" class="node"><title>Node17</title>
<g id="a_node17"><a xlink:href="bridge_8cpp.html" target="_top" xlink:title="modules/core/handler\l/bridge.cpp">
<polygon fill="none" stroke="black" points="654.5,-56.5 654.5,-86.5 764.5,-86.5 764.5,-56.5 654.5,-56.5"/>
<text text-anchor="start" x="662.5" y="-74.5" font-family="Helvetica,sans-Serif" font-size="10.00">modules/core/handler</text>
<text text-anchor="middle" x="709.5" y="-63.5" font-family="Helvetica,sans-Serif" font-size="10.00">/bridge.cpp</text>
</a>
</g>
</g>
<!-- Node16&#45;&gt;Node17 -->
<g id="edge19" class="edge"><title>Node16&#45;&gt;Node17</title>
<path fill="none" stroke="midnightblue" d="M698.725,-113.697C701.108,-104.587 703.748,-94.4929 705.818,-86.5765"/>
<polygon fill="midnightblue" stroke="midnightblue" points="695.333,-112.836 696.189,-123.396 702.105,-114.607 695.333,-112.836"/>
</g>
<!-- Node19&#45;&gt;Node8 -->
<g id="edge23" class="edge"><title>Node19&#45;&gt;Node8</title>
<path fill="none" stroke="midnightblue" d="M858.5,-113.25C858.5,-102.017 858.5,-89.3767 858.5,-81.1945"/>
<polygon fill="midnightblue" stroke="midnightblue" points="855,-113.396 858.5,-123.396 862,-113.396 855,-113.396"/>
</g>
<!-- Node20&#45;&gt;Node8 -->
<g id="edge26" class="edge"><title>Node20&#45;&gt;Node8</title>
<path fill="none" stroke="midnightblue" d="M1087.35,-123.095C1029.03,-110.203 945.502,-91.7351 897.145,-81.0441"/>
<polygon fill="midnightblue" stroke="midnightblue" points="1086.68,-126.533 1097.2,-125.274 1088.19,-119.698 1086.68,-126.533"/>
</g>
<!-- Node21&#45;&gt;Node9 -->
<g id="edge28" class="edge"><title>Node21&#45;&gt;Node9</title>
<path fill="none" stroke="midnightblue" d="M1269.86,-180.25C1271.41,-169.017 1273.16,-156.377 1274.3,-148.195"/>
<polygon fill="midnightblue" stroke="midnightblue" points="1266.36,-180.01 1268.45,-190.396 1273.29,-180.971 1266.36,-180.01"/>
</g>
<!-- Node22&#45;&gt;Node9 -->
<g id="edge30" class="edge"><title>Node22&#45;&gt;Node9</title>
<path fill="none" stroke="midnightblue" d="M1353.02,-185.307C1332.07,-172.926 1305.84,-157.43 1289.9,-148.007"/>
<polygon fill="midnightblue" stroke="midnightblue" points="1351.24,-188.322 1361.63,-190.396 1354.8,-182.295 1351.24,-188.322"/>
</g>
<!-- Node23&#45;&gt;Node9 -->
<g id="edge32" class="edge"><title>Node23&#45;&gt;Node9</title>
<path fill="none" stroke="midnightblue" d="M1088.86,-188.615C1137.49,-175.819 1203.98,-158.321 1243.07,-148.034"/>
<polygon fill="midnightblue" stroke="midnightblue" points="1087.86,-185.26 1079.08,-191.189 1089.64,-192.029 1087.86,-185.26"/>
</g>
<!-- Node24&#45;&gt;Node9 -->
<g id="edge34" class="edge"><title>Node24&#45;&gt;Node9</title>
<path fill="none" stroke="midnightblue" d="M1184.32,-185.803C1208.86,-173.342 1239.94,-157.556 1258.75,-148.007"/>
<polygon fill="midnightblue" stroke="midnightblue" points="1182.61,-182.747 1175.27,-190.396 1185.78,-188.989 1182.61,-182.747"/>
</g>
</g>
</svg>
