<?xml version="1.0" encoding="UTF-8" standalone="no"?>
<!DOCTYPE svg PUBLIC "-//W3C//DTD SVG 1.1//EN"
 "http://www.w3.org/Graphics/SVG/1.1/DTD/svg11.dtd">
<!-- Generated by graphviz version 2.38.0 (20140413.2041)
 -->
<!-- Title: src/handler/handler.hpp Pages: 1 -->
<svg width="503pt" height="140pt"
 viewBox="0.00 0.00 502.50 140.00" xmlns="http://www.w3.org/2000/svg" xmlns:xlink="http://www.w3.org/1999/xlink">
<g id="graph0" class="graph" transform="scale(1 1) rotate(0) translate(4 136)">
<title>src/handler/handler.hpp</title>
<!-- Node1 -->
<g id="node1" class="node"><title>Node1</title>
<polygon fill="#bfbfbf" stroke="black" points="180.5,-112.5 180.5,-131.5 298.5,-131.5 298.5,-112.5 180.5,-112.5"/>
<text text-anchor="middle" x="239.5" y="-119.5" font-family="Helvetica,sans-Serif" font-size="10.00">src/handler/handler.hpp</text>
</g>
<!-- Node2 -->
<g id="node2" class="node"><title>Node2</title>
<g id="a_node2"><a xlink:href="melanobot_8cpp.html" target="_top" xlink:title="src/melanobot.cpp">
<polygon fill="none" stroke="black" points="-7.10543e-15,-56.5 -7.10543e-15,-75.5 97,-75.5 97,-56.5 -7.10543e-15,-56.5"/>
<text text-anchor="middle" x="48.5" y="-63.5" font-family="Helvetica,sans-Serif" font-size="10.00">src/melanobot.cpp</text>
</a>
</g>
</g>
<!-- Node1&#45;&gt;Node2 -->
<g id="edge1" class="edge"><title>Node1&#45;&gt;Node2</title>
<path fill="none" stroke="midnightblue" d="M199.527,-109.699C163.479,-99.507 111.257,-84.7429 78.6229,-75.5164"/>
<polygon fill="midnightblue" stroke="midnightblue" points="198.66,-113.091 209.235,-112.444 200.565,-106.355 198.66,-113.091"/>
</g>
<!-- Node3 -->
<g id="node3" class="node"><title>Node3</title>
<g id="a_node3"><a xlink:href="web-api_8hpp.html" target="_top" xlink:title="src/handler/web&#45;api.hpp">
<polygon fill="none" stroke="black" points="114.5,-56.5 114.5,-75.5 234.5,-75.5 234.5,-56.5 114.5,-56.5"/>
<text text-anchor="middle" x="174.5" y="-63.5" font-family="Helvetica,sans-Serif" font-size="10.00">src/handler/web&#45;api.hpp</text>
</a>
</g>
</g>
<!-- Node1&#45;&gt;Node3 -->
<g id="edge2" class="edge"><title>Node1&#45;&gt;Node3</title>
<path fill="none" stroke="midnightblue" d="M221.227,-105.82C209.582,-96.1452 194.901,-83.9481 185.133,-75.8339"/>
<polygon fill="midnightblue" stroke="midnightblue" points="219.128,-108.626 229.057,-112.324 223.601,-103.242 219.128,-108.626"/>
</g>
<!-- Node5 -->
<g id="node5" class="node"><title>Node5</title>
<g id="a_node5"><a xlink:href="core_8cpp.html" target="_top" xlink:title="This file defines handlers which are essential for proper usage of the bot. ">
<polygon fill="none" stroke="black" points="253,-56.5 253,-75.5 358,-75.5 358,-56.5 253,-56.5"/>
<text text-anchor="middle" x="305.5" y="-63.5" font-family="Helvetica,sans-Serif" font-size="10.00">src/handler/core.cpp</text>
</a>
</g>
</g>
<!-- Node1&#45;&gt;Node5 -->
<g id="edge4" class="edge"><title>Node1&#45;&gt;Node5</title>
<path fill="none" stroke="midnightblue" d="M258.054,-105.82C269.878,-96.1452 284.786,-83.9481 294.703,-75.8339"/>
<polygon fill="midnightblue" stroke="midnightblue" points="255.627,-103.283 250.104,-112.324 260.06,-108.7 255.627,-103.283"/>
</g>
<!-- Node6 -->
<g id="node6" class="node"><title>Node6</title>
<g id="a_node6"><a xlink:href="handler_8cpp.html" target="_top" xlink:title="src/handler/handler.cpp">
<polygon fill="none" stroke="black" points="376.5,-56.5 376.5,-75.5 494.5,-75.5 494.5,-56.5 376.5,-56.5"/>
<text text-anchor="middle" x="435.5" y="-63.5" font-family="Helvetica,sans-Serif" font-size="10.00">src/handler/handler.cpp</text>
</a>
</g>
</g>
<!-- Node1&#45;&gt;Node6 -->
<g id="edge5" class="edge"><title>Node1&#45;&gt;Node6</title>
<path fill="none" stroke="midnightblue" d="M280.52,-109.699C317.511,-99.507 371.1,-84.7429 404.589,-75.5164"/>
<polygon fill="midnightblue" stroke="midnightblue" points="279.268,-106.413 270.557,-112.444 281.127,-113.162 279.268,-106.413"/>
</g>
<!-- Node4 -->
<g id="node4" class="node"><title>Node4</title>
<g id="a_node4"><a xlink:href="web-api_8cpp.html" target="_top" xlink:title="src/handler/web&#45;api.cpp">
<polygon fill="none" stroke="black" points="114.5,-0.5 114.5,-19.5 234.5,-19.5 234.5,-0.5 114.5,-0.5"/>
<text text-anchor="middle" x="174.5" y="-7.5" font-family="Helvetica,sans-Serif" font-size="10.00">src/handler/web&#45;api.cpp</text>
</a>
</g>
</g>
<!-- Node3&#45;&gt;Node4 -->
<g id="edge3" class="edge"><title>Node3&#45;&gt;Node4</title>
<path fill="none" stroke="midnightblue" d="M174.5,-45.8045C174.5,-36.9102 174.5,-26.7798 174.5,-19.7511"/>
<polygon fill="midnightblue" stroke="midnightblue" points="171,-46.083 174.5,-56.083 178,-46.083 171,-46.083"/>
</g>
</g>
</svg>
