<?xml version="1.0" encoding="UTF-8" standalone="no"?>
<!DOCTYPE svg PUBLIC "-//W3C//DTD SVG 1.1//EN"
 "http://www.w3.org/Graphics/SVG/1.1/DTD/svg11.dtd">
<!-- Generated by graphviz version 2.38.0 (20140413.2041)
 -->
<!-- Title: src/handler/handler.hpp Pages: 1 -->
<svg width="1545pt" height="442pt"
 viewBox="0.00 0.00 1545.00 442.00" xmlns="http://www.w3.org/2000/svg" xmlns:xlink="http://www.w3.org/1999/xlink">
<g id="graph0" class="graph" transform="scale(1 1) rotate(0) translate(4 438)">
<title>src/handler/handler.hpp</title>
<!-- Node1 -->
<g id="node1" class="node"><title>Node1</title>
<polygon fill="#bfbfbf" stroke="black" points="447,-414.5 447,-433.5 565,-433.5 565,-414.5 447,-414.5"/>
<text text-anchor="middle" x="506" y="-421.5" font-family="Helvetica,sans-Serif" font-size="10.00">src/handler/handler.hpp</text>
</g>
<!-- Node2 -->
<g id="node2" class="node"><title>Node2</title>
<polygon fill="none" stroke="#bfbfbf" points="1057.5,-67.5 1057.5,-86.5 1116.5,-86.5 1116.5,-67.5 1057.5,-67.5"/>
<text text-anchor="middle" x="1087" y="-74.5" font-family="Helvetica,sans-Serif" font-size="10.00">functional</text>
</g>
<!-- Node1&#45;&gt;Node2 -->
<g id="edge1" class="edge"><title>Node1&#45;&gt;Node2</title>
<path fill="none" stroke="midnightblue" d="M556.956,-414.455C646.868,-397.593 837.011,-353.812 973,-266 1030.07,-229.151 1048.09,-215.47 1077,-154 1085.48,-135.975 1087.46,-113.049 1087.64,-97.1131"/>
<polygon fill="midnightblue" stroke="midnightblue" points="1091.14,-96.8747 1087.53,-86.9152 1084.14,-96.9544 1091.14,-96.8747"/>
</g>
<!-- Node3 -->
<g id="node3" class="node"><title>Node3</title>
<polygon fill="none" stroke="#bfbfbf" points="483.5,-6 483.5,-25 524.5,-25 524.5,-6 483.5,-6"/>
<text text-anchor="middle" x="504" y="-13" font-family="Helvetica,sans-Serif" font-size="10.00">string</text>
</g>
<!-- Node1&#45;&gt;Node3 -->
<g id="edge2" class="edge"><title>Node1&#45;&gt;Node3</title>
<path fill="none" stroke="midnightblue" d="M446.965,-422.481C313.488,-419.714 0,-403.573 0,-313 0,-313 0,-313 0,-137.5 0,-99.3418 16.2121,-86.5194 49,-67 121.023,-24.123 383.243,-17.6188 473.349,-16.6577"/>
<polygon fill="midnightblue" stroke="midnightblue" points="473.492,-20.1566 483.46,-16.5659 473.429,-13.1569 473.492,-20.1566"/>
</g>
<!-- Node4 -->
<g id="node4" class="node"><title>Node4</title>
<polygon fill="none" stroke="#bfbfbf" points="84.5,-67.5 84.5,-86.5 143.5,-86.5 143.5,-67.5 84.5,-67.5"/>
<text text-anchor="middle" x="114" y="-74.5" font-family="Helvetica,sans-Serif" font-size="10.00">stdexcept</text>
</g>
<!-- Node1&#45;&gt;Node4 -->
<g id="edge3" class="edge"><title>Node1&#45;&gt;Node4</title>
<path fill="none" stroke="midnightblue" d="M446.662,-420.177C328.702,-412.94 76,-388.612 76,-313 76,-313 76,-313 76,-199 76,-160.812 93.4417,-118.83 104.692,-95.7224"/>
<polygon fill="midnightblue" stroke="midnightblue" points="107.958,-97.0195 109.34,-86.5153 101.709,-93.8646 107.958,-97.0195"/>
</g>
<!-- Node5 -->
<g id="node5" class="node"><title>Node5</title>
<polygon fill="none" stroke="#bfbfbf" points="217,-302.5 217,-321.5 279,-321.5 279,-302.5 217,-302.5"/>
<text text-anchor="middle" x="248" y="-309.5" font-family="Helvetica,sans-Serif" font-size="10.00">type_traits</text>
</g>
<!-- Node1&#45;&gt;Node5 -->
<g id="edge4" class="edge"><title>Node1&#45;&gt;Node5</title>
<path fill="none" stroke="midnightblue" d="M461.923,-414.489C429.037,-407.224 383.509,-395.198 346,-378 316.361,-364.41 285.562,-342.479 266.585,-327.903"/>
<polygon fill="midnightblue" stroke="midnightblue" points="268.545,-324.993 258.51,-321.593 264.235,-330.508 268.545,-324.993"/>
</g>
<!-- Node6 -->
<g id="node6" class="node"><title>Node6</title>
<polygon fill="none" stroke="#bfbfbf" points="987.5,-6 987.5,-25 1070.5,-25 1070.5,-6 987.5,-6"/>
<text text-anchor="middle" x="1029" y="-13" font-family="Helvetica,sans-Serif" font-size="10.00">unordered_map</text>
</g>
<!-- Node1&#45;&gt;Node6 -->
<g id="edge5" class="edge"><title>Node1&#45;&gt;Node6</title>
<path fill="none" stroke="midnightblue" d="M565.227,-423.208C739.335,-423.319 1247.28,-419.938 1407,-378 1469.48,-361.595 1537,-377.598 1537,-313 1537,-313 1537,-313 1537,-137.5 1537,-23.7654 1401.61,-93.4556 1291,-67 1251.87,-57.6414 1145.21,-37.732 1080.68,-25.899"/>
<polygon fill="midnightblue" stroke="midnightblue" points="1081.17,-22.4304 1070.71,-24.0721 1079.91,-29.316 1081.17,-22.4304"/>
</g>
<!-- Node7 -->
<g id="node7" class="node"><title>Node7</title>
<g id="a_node7"><a xlink:href="connection_8hpp.html" target="_top" xlink:title="network/connection.hpp">
<polygon fill="none" stroke="black" points="607,-302.5 607,-321.5 727,-321.5 727,-302.5 607,-302.5"/>
<text text-anchor="middle" x="667" y="-309.5" font-family="Helvetica,sans-Serif" font-size="10.00">network/connection.hpp</text>
</a>
</g>
</g>
<!-- Node1&#45;&gt;Node7 -->
<g id="edge6" class="edge"><title>Node1&#45;&gt;Node7</title>
<path fill="none" stroke="midnightblue" d="M518.633,-414.368C546.261,-395.492 612.282,-350.385 646.163,-327.237"/>
<polygon fill="midnightblue" stroke="midnightblue" points="648.143,-330.123 654.425,-321.591 644.194,-324.343 648.143,-330.123"/>
</g>
<!-- Node18 -->
<g id="node18" class="node"><title>Node18</title>
<g id="a_node18"><a xlink:href="logger_8hpp.html" target="_top" xlink:title="string/logger.hpp">
<polygon fill="none" stroke="black" points="378.5,-190.5 378.5,-209.5 467.5,-209.5 467.5,-190.5 378.5,-190.5"/>
<text text-anchor="middle" x="423" y="-197.5" font-family="Helvetica,sans-Serif" font-size="10.00">string/logger.hpp</text>
</a>
</g>
</g>
<!-- Node1&#45;&gt;Node18 -->
<g id="edge57" class="edge"><title>Node1&#45;&gt;Node18</title>
<path fill="none" stroke="midnightblue" d="M449.567,-414.465C409.489,-407.364 354.872,-395.551 309,-378 261.062,-359.659 234.048,-366.226 208,-322 168.631,-255.156 292.586,-222.329 368.47,-208.844"/>
<polygon fill="midnightblue" stroke="midnightblue" points="369.117,-212.284 378.381,-207.144 367.933,-205.385 369.117,-212.284"/>
</g>
<!-- Node25 -->
<g id="node25" class="node"><title>Node25</title>
<g id="a_node25"><a xlink:href="settings_8hpp.html" target="_top" xlink:title="settings.hpp">
<polygon fill="none" stroke="black" points="1135,-67.5 1135,-86.5 1205,-86.5 1205,-67.5 1135,-67.5"/>
<text text-anchor="middle" x="1170" y="-74.5" font-family="Helvetica,sans-Serif" font-size="10.00">settings.hpp</text>
</a>
</g>
</g>
<!-- Node1&#45;&gt;Node25 -->
<g id="edge56" class="edge"><title>Node1&#45;&gt;Node25</title>
<path fill="none" stroke="midnightblue" d="M565.143,-422.697C778.917,-420.831 1499,-407.53 1499,-313 1499,-313 1499,-313 1499,-255 1499,-127.726 1305.69,-91.5711 1215.43,-81.6265"/>
<polygon fill="midnightblue" stroke="midnightblue" points="1215.52,-78.117 1205.21,-80.5644 1214.79,-85.0795 1215.52,-78.117"/>
</g>
<!-- Node32 -->
<g id="node32" class="node"><title>Node32</title>
<g id="a_node32"><a xlink:href="string__functions_8hpp.html" target="_top" xlink:title="string/string_functions.hpp">
<polygon fill="none" stroke="black" points="355.5,-358.5 355.5,-377.5 486.5,-377.5 486.5,-358.5 355.5,-358.5"/>
<text text-anchor="middle" x="421" y="-365.5" font-family="Helvetica,sans-Serif" font-size="10.00">string/string_functions.hpp</text>
</a>
</g>
</g>
<!-- Node1&#45;&gt;Node32 -->
<g id="edge58" class="edge"><title>Node1&#45;&gt;Node32</title>
<path fill="none" stroke="midnightblue" d="M492.343,-414.324C479.084,-405.9 458.732,-392.971 443.154,-383.074"/>
<polygon fill="midnightblue" stroke="midnightblue" points="444.94,-380.063 434.623,-377.655 441.187,-385.971 444.94,-380.063"/>
</g>
<!-- Node36 -->
<g id="node36" class="node"><title>Node36</title>
<g id="a_node36"><a xlink:href="melanobot_8hpp.html" target="_top" xlink:title="melanobot.hpp">
<polygon fill="none" stroke="black" points="1083,-358.5 1083,-377.5 1163,-377.5 1163,-358.5 1083,-358.5"/>
<text text-anchor="middle" x="1123" y="-365.5" font-family="Helvetica,sans-Serif" font-size="10.00">melanobot.hpp</text>
</a>
</g>
</g>
<!-- Node1&#45;&gt;Node36 -->
<g id="edge65" class="edge"><title>Node1&#45;&gt;Node36</title>
<path fill="none" stroke="midnightblue" d="M565.161,-417.822C686.105,-407.237 959.762,-383.287 1072.75,-373.398"/>
<polygon fill="midnightblue" stroke="midnightblue" points="1073.2,-376.872 1082.85,-372.514 1072.59,-369.899 1073.2,-376.872"/>
</g>
<!-- Node8 -->
<g id="node8" class="node"><title>Node8</title>
<polygon fill="none" stroke="#bfbfbf" points="1135,-246.5 1135,-265.5 1181,-265.5 1181,-246.5 1135,-246.5"/>
<text text-anchor="middle" x="1158" y="-253.5" font-family="Helvetica,sans-Serif" font-size="10.00">atomic</text>
</g>
<!-- Node7&#45;&gt;Node8 -->
<g id="edge7" class="edge"><title>Node7&#45;&gt;Node8</title>
<path fill="none" stroke="midnightblue" d="M727.206,-304.379C831.607,-292.897 1042.89,-269.659 1124.65,-260.668"/>
<polygon fill="midnightblue" stroke="midnightblue" points="1125.3,-264.118 1134.85,-259.546 1124.53,-257.16 1125.3,-264.118"/>
</g>
<!-- Node9 -->
<g id="node9" class="node"><title>Node9</title>
<polygon fill="none" stroke="#bfbfbf" points="536,-246.5 536,-265.5 582,-265.5 582,-246.5 536,-246.5"/>
<text text-anchor="middle" x="559" y="-253.5" font-family="Helvetica,sans-Serif" font-size="10.00">chrono</text>
</g>
<!-- Node7&#45;&gt;Node9 -->
<g id="edge8" class="edge"><title>Node7&#45;&gt;Node9</title>
<path fill="none" stroke="midnightblue" d="M649.648,-302.324C632.328,-293.664 605.485,-280.242 585.498,-270.249"/>
<polygon fill="midnightblue" stroke="midnightblue" points="586.819,-266.996 576.309,-265.655 583.688,-273.257 586.819,-266.996"/>
</g>
<!-- Node10 -->
<g id="node10" class="node"><title>Node10</title>
<polygon fill="none" stroke="#bfbfbf" points="758,-6 758,-25 804,-25 804,-6 758,-6"/>
<text text-anchor="middle" x="781" y="-13" font-family="Helvetica,sans-Serif" font-size="10.00">cstdint</text>
</g>
<!-- Node7&#45;&gt;Node10 -->
<g id="edge9" class="edge"><title>Node7&#45;&gt;Node10</title>
<path fill="none" stroke="midnightblue" d="M671.987,-302.479C695.518,-262.261 794.366,-93.1102 796,-87 800.734,-69.2954 795.142,-48.7746 789.49,-34.4542"/>
<polygon fill="midnightblue" stroke="midnightblue" points="792.692,-33.0408 785.51,-25.2515 786.267,-35.8193 792.692,-33.0408"/>
</g>
<!-- Node11 -->
<g id="node11" class="node"><title>Node11</title>
<polygon fill="none" stroke="#bfbfbf" points="515,-67.5 515,-86.5 567,-86.5 567,-67.5 515,-67.5"/>
<text text-anchor="middle" x="541" y="-74.5" font-family="Helvetica,sans-Serif" font-size="10.00">sstream</text>
</g>
<!-- Node7&#45;&gt;Node11 -->
<g id="edge10" class="edge"><title>Node7&#45;&gt;Node11</title>
<path fill="none" stroke="midnightblue" d="M662.366,-302.431C644.001,-268.47 576.093,-142.894 550.682,-95.9032"/>
<polygon fill="midnightblue" stroke="midnightblue" points="553.646,-94.0271 545.811,-86.8958 547.489,-97.3569 553.646,-94.0271"/>
</g>
<!-- Node12 -->
<g id="node12" class="node"><title>Node12</title>
<g id="a_node12"><a xlink:href="string_8hpp.html" target="_top" xlink:title="string/string.hpp">
<polygon fill="none" stroke="black" points="638,-129 638,-148 724,-148 724,-129 638,-129"/>
<text text-anchor="middle" x="681" y="-136" font-family="Helvetica,sans-Serif" font-size="10.00">string/string.hpp</text>
</a>
</g>
</g>
<!-- Node7&#45;&gt;Node12 -->
<g id="edge11" class="edge"><title>Node7&#45;&gt;Node12</title>
<path fill="none" stroke="midnightblue" d="M667.658,-302.167C668.595,-289.662 670.379,-266.081 672,-246 674.481,-215.257 677.535,-179.538 679.371,-158.266"/>
<polygon fill="midnightblue" stroke="midnightblue" points="682.879,-158.322 680.255,-148.057 675.905,-157.718 682.879,-158.322"/>
</g>
<!-- Node7&#45;&gt;Node18 -->
<g id="edge25" class="edge"><title>Node7&#45;&gt;Node18</title>
<path fill="none" stroke="midnightblue" d="M632.444,-302.463C603.547,-294.724 561.616,-282.077 527,-266 496.048,-251.625 463.086,-229.77 442.764,-215.437"/>
<polygon fill="midnightblue" stroke="midnightblue" points="444.791,-212.584 434.62,-209.617 440.721,-218.279 444.791,-212.584"/>
</g>
<!-- Node27 -->
<g id="node27" class="node"><title>Node27</title>
<g id="a_node27"><a xlink:href="auth__system_8hpp.html" target="_top" xlink:title="user/auth_system.hpp">
<polygon fill="none" stroke="black" points="851.5,-246.5 851.5,-265.5 964.5,-265.5 964.5,-246.5 851.5,-246.5"/>
<text text-anchor="middle" x="908" y="-253.5" font-family="Helvetica,sans-Serif" font-size="10.00">user/auth_system.hpp</text>
</a>
</g>
</g>
<!-- Node7&#45;&gt;Node27 -->
<g id="edge44" class="edge"><title>Node7&#45;&gt;Node27</title>
<path fill="none" stroke="midnightblue" d="M705.187,-302.444C747.141,-293.043 814.594,-277.929 860.071,-267.739"/>
<polygon fill="midnightblue" stroke="midnightblue" points="860.999,-271.118 869.991,-265.516 859.468,-264.288 860.999,-271.118"/>
</g>
<!-- Node30 -->
<g id="node30" class="node"><title>Node30</title>
<g id="a_node30"><a xlink:href="user__manager_8hpp.html" target="_top" xlink:title="user/user_manager.hpp">
<polygon fill="none" stroke="black" points="714.5,-246.5 714.5,-265.5 833.5,-265.5 833.5,-246.5 714.5,-246.5"/>
<text text-anchor="middle" x="774" y="-253.5" font-family="Helvetica,sans-Serif" font-size="10.00">user/user_manager.hpp</text>
</a>
</g>
</g>
<!-- Node7&#45;&gt;Node30 -->
<g id="edge53" class="edge"><title>Node7&#45;&gt;Node30</title>
<path fill="none" stroke="midnightblue" d="M684.191,-302.324C701.351,-293.664 727.946,-280.242 747.747,-270.249"/>
<polygon fill="midnightblue" stroke="midnightblue" points="749.501,-273.285 756.851,-265.655 746.347,-267.035 749.501,-273.285"/>
</g>
<!-- Node12&#45;&gt;Node2 -->
<g id="edge13" class="edge"><title>Node12&#45;&gt;Node2</title>
<path fill="none" stroke="midnightblue" d="M724.065,-131.189C803.199,-119.591 970.64,-95.0528 1047.24,-83.8269"/>
<polygon fill="midnightblue" stroke="midnightblue" points="1048.04,-87.2471 1057.43,-82.334 1047.03,-80.3211 1048.04,-87.2471"/>
</g>
<!-- Node12&#45;&gt;Node3 -->
<g id="edge16" class="edge"><title>Node12&#45;&gt;Node3</title>
<path fill="none" stroke="midnightblue" d="M668.554,-128.992C638.666,-108.56 562.568,-56.5377 525.265,-31.0374"/>
<polygon fill="midnightblue" stroke="midnightblue" points="526.9,-27.9152 516.669,-25.161 522.95,-33.694 526.9,-27.9152"/>
</g>
<!-- Node12&#45;&gt;Node4 -->
<g id="edge15" class="edge"><title>Node12&#45;&gt;Node4</title>
<path fill="none" stroke="midnightblue" d="M637.917,-132.979C531.355,-121.797 256.626,-92.967 153.711,-82.1673"/>
<polygon fill="midnightblue" stroke="midnightblue" points="154.041,-78.6827 143.73,-81.1198 153.31,-85.6444 154.041,-78.6827"/>
</g>
<!-- Node12&#45;&gt;Node6 -->
<g id="edge18" class="edge"><title>Node12&#45;&gt;Node6</title>
<path fill="none" stroke="midnightblue" d="M703.238,-128.943C738.748,-115.358 810.522,-88.2226 872,-67 912.54,-53.0051 959.39,-38.0983 991.285,-28.1381"/>
<polygon fill="midnightblue" stroke="midnightblue" points="992.582,-31.4003 1001.09,-25.0854 990.5,-24.7168 992.582,-31.4003"/>
</g>
<!-- Node12&#45;&gt;Node10 -->
<g id="edge12" class="edge"><title>Node12&#45;&gt;Node10</title>
<path fill="none" stroke="midnightblue" d="M685.601,-128.764C693.093,-114.934 708.828,-87.468 726,-67 736.889,-54.0216 750.994,-41.1334 762.193,-31.6255"/>
<polygon fill="midnightblue" stroke="midnightblue" points="764.632,-34.1494 770.09,-25.0682 760.161,-28.764 764.632,-34.1494"/>
</g>
<!-- Node12&#45;&gt;Node11 -->
<g id="edge17" class="edge"><title>Node12&#45;&gt;Node11</title>
<path fill="none" stroke="midnightblue" d="M660.941,-128.975C637.238,-118.901 597.594,-102.053 570.417,-90.5023"/>
<polygon fill="midnightblue" stroke="midnightblue" points="571.594,-87.1994 561.021,-86.5091 568.856,-93.6417 571.594,-87.1994"/>
</g>
<!-- Node13 -->
<g id="node13" class="node"><title>Node13</title>
<polygon fill="none" stroke="#bfbfbf" points="735,-67.5 735,-86.5 787,-86.5 787,-67.5 735,-67.5"/>
<text text-anchor="middle" x="761" y="-74.5" font-family="Helvetica,sans-Serif" font-size="10.00">memory</text>
</g>
<!-- Node12&#45;&gt;Node13 -->
<g id="edge14" class="edge"><title>Node12&#45;&gt;Node13</title>
<path fill="none" stroke="midnightblue" d="M692.462,-128.975C705.175,-119.52 725.913,-104.096 741.253,-92.6871"/>
<polygon fill="midnightblue" stroke="midnightblue" points="743.624,-95.2854 749.559,-86.5091 739.446,-89.6686 743.624,-95.2854"/>
</g>
<!-- Node14 -->
<g id="node14" class="node"><title>Node14</title>
<polygon fill="none" stroke="#bfbfbf" points="881,-67.5 881,-86.5 925,-86.5 925,-67.5 881,-67.5"/>
<text text-anchor="middle" x="903" y="-74.5" font-family="Helvetica,sans-Serif" font-size="10.00">vector</text>
</g>
<!-- Node12&#45;&gt;Node14 -->
<g id="edge19" class="edge"><title>Node12&#45;&gt;Node14</title>
<path fill="none" stroke="midnightblue" d="M712.807,-128.975C755.007,-117.665 829.07,-97.8145 871.244,-86.5112"/>
<polygon fill="midnightblue" stroke="midnightblue" points="872.237,-89.8687 880.99,-83.8991 870.425,-83.1073 872.237,-89.8687"/>
</g>
<!-- Node15 -->
<g id="node15" class="node"><title>Node15</title>
<g id="a_node15"><a xlink:href="color_8hpp.html" target="_top" xlink:title="color.hpp">
<polygon fill="none" stroke="black" points="623,-67.5 623,-86.5 679,-86.5 679,-67.5 623,-67.5"/>
<text text-anchor="middle" x="651" y="-74.5" font-family="Helvetica,sans-Serif" font-size="10.00">color.hpp</text>
</a>
</g>
</g>
<!-- Node12&#45;&gt;Node15 -->
<g id="edge20" class="edge"><title>Node12&#45;&gt;Node15</title>
<path fill="none" stroke="midnightblue" d="M676.702,-128.975C672.335,-120.315 665.445,-106.649 659.897,-95.6453"/>
<polygon fill="midnightblue" stroke="midnightblue" points="662.918,-93.8625 655.29,-86.5091 656.667,-97.0141 662.918,-93.8625"/>
</g>
<!-- Node15&#45;&gt;Node3 -->
<g id="edge24" class="edge"><title>Node15&#45;&gt;Node3</title>
<path fill="none" stroke="midnightblue" d="M629.938,-67.4751C604.799,-57.2996 562.582,-40.2117 534.028,-28.6542"/>
<polygon fill="midnightblue" stroke="midnightblue" points="535.131,-25.3249 524.549,-24.8173 532.505,-31.8136 535.131,-25.3249"/>
</g>
<!-- Node15&#45;&gt;Node10 -->
<g id="edge22" class="edge"><title>Node15&#45;&gt;Node10</title>
<path fill="none" stroke="midnightblue" d="M669.626,-67.4751C691.443,-57.4897 727.804,-40.8476 753.017,-29.3075"/>
<polygon fill="midnightblue" stroke="midnightblue" points="754.772,-32.3534 762.409,-25.0091 751.859,-25.9884 754.772,-32.3534"/>
</g>
<!-- Node16 -->
<g id="node16" class="node"><title>Node16</title>
<polygon fill="none" stroke="#bfbfbf" points="660,-6 660,-25 706,-25 706,-6 660,-6"/>
<text text-anchor="middle" x="683" y="-13" font-family="Helvetica,sans-Serif" font-size="10.00">cctype</text>
</g>
<!-- Node15&#45;&gt;Node16 -->
<g id="edge21" class="edge"><title>Node15&#45;&gt;Node16</title>
<path fill="none" stroke="midnightblue" d="M655.585,-67.4751C660.242,-58.8152 667.592,-45.1486 673.51,-34.1453"/>
<polygon fill="midnightblue" stroke="midnightblue" points="676.77,-35.474 678.424,-25.0091 670.605,-32.1584 676.77,-35.474"/>
</g>
<!-- Node17 -->
<g id="node17" class="node"><title>Node17</title>
<polygon fill="none" stroke="#bfbfbf" points="596.5,-6 596.5,-25 641.5,-25 641.5,-6 596.5,-6"/>
<text text-anchor="middle" x="619" y="-13" font-family="Helvetica,sans-Serif" font-size="10.00">cstdlib</text>
</g>
<!-- Node15&#45;&gt;Node17 -->
<g id="edge23" class="edge"><title>Node15&#45;&gt;Node17</title>
<path fill="none" stroke="midnightblue" d="M646.415,-67.4751C641.758,-58.8152 634.408,-45.1486 628.49,-34.1453"/>
<polygon fill="midnightblue" stroke="midnightblue" points="631.395,-32.1584 623.576,-25.0091 625.23,-35.474 631.395,-32.1584"/>
</g>
<!-- Node18&#45;&gt;Node3 -->
<g id="edge30" class="edge"><title>Node18&#45;&gt;Node3</title>
<path fill="none" stroke="midnightblue" d="M429.428,-190.477C435.741,-181.739 445.238,-167.548 451,-154 466.61,-117.298 457.501,-103.749 473,-67 477.977,-55.1987 485.445,-42.932 491.804,-33.4438"/>
<polygon fill="midnightblue" stroke="midnightblue" points="494.836,-35.2134 497.66,-25.0018 489.085,-31.2236 494.836,-35.2134"/>
</g>
<!-- Node18&#45;&gt;Node4 -->
<g id="edge29" class="edge"><title>Node18&#45;&gt;Node4</title>
<path fill="none" stroke="midnightblue" d="M378.368,-195.676C313.387,-190.114 196.694,-177.185 162,-154 141.37,-140.213 127.85,-114.235 120.566,-96.5272"/>
<polygon fill="midnightblue" stroke="midnightblue" points="123.67,-94.844 116.829,-86.7535 117.131,-97.344 123.67,-94.844"/>
</g>
<!-- Node18&#45;&gt;Node6 -->
<g id="edge31" class="edge"><title>Node18&#45;&gt;Node6</title>
<path fill="none" stroke="midnightblue" d="M434.359,-190.424C444.776,-182.075 460.053,-168.547 470,-154 493.619,-119.457 472.369,-91.9016 506,-67 524.781,-53.0933 848.7,-29.0863 977.142,-20.0646"/>
<polygon fill="midnightblue" stroke="midnightblue" points="977.406,-23.5548 987.137,-19.3651 976.917,-16.5719 977.406,-23.5548"/>
</g>
<!-- Node18&#45;&gt;Node12 -->
<g id="edge38" class="edge"><title>Node18&#45;&gt;Node12</title>
<path fill="none" stroke="midnightblue" d="M459.965,-190.475C505.85,-179.893 584.15,-161.836 634.185,-150.297"/>
<polygon fill="midnightblue" stroke="midnightblue" points="635.146,-153.667 644.103,-148.009 633.573,-146.846 635.146,-153.667"/>
</g>
<!-- Node19 -->
<g id="node19" class="node"><title>Node19</title>
<polygon fill="none" stroke="#bfbfbf" points="180,-129 180,-148 230,-148 230,-129 180,-129"/>
<text text-anchor="middle" x="205" y="-136" font-family="Helvetica,sans-Serif" font-size="10.00">iomanip</text>
</g>
<!-- Node18&#45;&gt;Node19 -->
<g id="edge26" class="edge"><title>Node18&#45;&gt;Node19</title>
<path fill="none" stroke="midnightblue" d="M379.681,-190.496C342.032,-182.612 286.27,-169.743 239,-154 237.082,-153.361 235.122,-152.66 233.158,-151.922"/>
<polygon fill="midnightblue" stroke="midnightblue" points="234.078,-148.52 223.494,-148.034 231.466,-155.014 234.078,-148.52"/>
</g>
<!-- Node20 -->
<g id="node20" class="node"><title>Node20</title>
<polygon fill="none" stroke="#bfbfbf" points="214,-67.5 214,-86.5 268,-86.5 268,-67.5 214,-67.5"/>
<text text-anchor="middle" x="241" y="-74.5" font-family="Helvetica,sans-Serif" font-size="10.00">iostream</text>
</g>
<!-- Node18&#45;&gt;Node20 -->
<g id="edge27" class="edge"><title>Node18&#45;&gt;Node20</title>
<path fill="none" stroke="midnightblue" d="M378.243,-197.654C313.059,-194.645 196.926,-184.966 171,-154 162.155,-143.436 164.398,-135.093 171,-123 178.819,-108.679 193.362,-98.2355 207.176,-91.0358"/>
<polygon fill="midnightblue" stroke="midnightblue" points="209.019,-94.0338 216.531,-86.5617 205.999,-87.7188 209.019,-94.0338"/>
</g>
<!-- Node21 -->
<g id="node21" class="node"><title>Node21</title>
<polygon fill="none" stroke="#bfbfbf" points="1024,-129 1024,-148 1068,-148 1068,-129 1024,-129"/>
<text text-anchor="middle" x="1046" y="-136" font-family="Helvetica,sans-Serif" font-size="10.00">mutex</text>
</g>
<!-- Node18&#45;&gt;Node21 -->
<g id="edge28" class="edge"><title>Node18&#45;&gt;Node21</title>
<path fill="none" stroke="midnightblue" d="M467.533,-197.349C585.999,-192.678 906.868,-178.116 1010,-154 1012.68,-153.374 1015.41,-152.58 1018.12,-151.687"/>
<polygon fill="midnightblue" stroke="midnightblue" points="1019.51,-154.904 1027.67,-148.142 1017.08,-148.342 1019.51,-154.904"/>
</g>
<!-- Node22 -->
<g id="node22" class="node"><title>Node22</title>
<polygon fill="none" stroke="#bfbfbf" points="248.5,-123.5 248.5,-153.5 353.5,-153.5 353.5,-123.5 248.5,-123.5"/>
<text text-anchor="start" x="256.5" y="-141.5" font-family="Helvetica,sans-Serif" font-size="10.00">boost/chrono/io/time</text>
<text text-anchor="middle" x="301" y="-130.5" font-family="Helvetica,sans-Serif" font-size="10.00">_point_io.hpp</text>
</g>
<!-- Node18&#45;&gt;Node22 -->
<g id="edge32" class="edge"><title>Node18&#45;&gt;Node22</title>
<path fill="none" stroke="midnightblue" d="M405.52,-190.475C388.225,-182.04 361.19,-168.855 338.949,-158.008"/>
<polygon fill="midnightblue" stroke="midnightblue" points="340.275,-154.761 329.753,-153.523 337.207,-161.052 340.275,-154.761"/>
</g>
<!-- Node23 -->
<g id="node23" class="node"><title>Node23</title>
<g id="a_node23"><a xlink:href="multibuf_8hpp.html" target="_top" xlink:title="multibuf.hpp">
<polygon fill="none" stroke="black" points="372,-129 372,-148 442,-148 442,-129 372,-129"/>
<text text-anchor="middle" x="407" y="-136" font-family="Helvetica,sans-Serif" font-size="10.00">multibuf.hpp</text>
</a>
</g>
</g>
<!-- Node18&#45;&gt;Node23 -->
<g id="edge33" class="edge"><title>Node18&#45;&gt;Node23</title>
<path fill="none" stroke="midnightblue" d="M420.708,-190.475C418.426,-181.992 414.853,-168.704 411.927,-157.822"/>
<polygon fill="midnightblue" stroke="midnightblue" points="415.265,-156.757 409.288,-148.009 408.505,-158.575 415.265,-156.757"/>
</g>
<!-- Node18&#45;&gt;Node25 -->
<g id="edge39" class="edge"><title>Node18&#45;&gt;Node25</title>
<path fill="none" stroke="midnightblue" d="M467.551,-199.569C557.843,-199.753 768.338,-195.247 939,-154 974.459,-145.43 980.547,-134.991 1015,-123 1052.37,-109.993 1095.68,-97.6432 1127,-89.183"/>
<polygon fill="midnightblue" stroke="midnightblue" points="1127.97,-92.5461 1136.73,-86.577 1126.16,-85.7846 1127.97,-92.5461"/>
</g>
<!-- Node23&#45;&gt;Node3 -->
<g id="edge37" class="edge"><title>Node23&#45;&gt;Node3</title>
<path fill="none" stroke="midnightblue" d="M408.773,-128.915C412.021,-114.811 420.01,-86.3733 435,-67 446.7,-51.8793 464.091,-39.1914 478.486,-30.3154"/>
<polygon fill="midnightblue" stroke="midnightblue" points="480.586,-33.1399 487.423,-25.0458 477.031,-27.1101 480.586,-33.1399"/>
</g>
<!-- Node23&#45;&gt;Node14 -->
<g id="edge36" class="edge"><title>Node23&#45;&gt;Node14</title>
<path fill="none" stroke="midnightblue" d="M442.273,-133.269C534.574,-122.196 782.193,-92.492 870.863,-81.8552"/>
<polygon fill="midnightblue" stroke="midnightblue" points="871.355,-85.3213 880.867,-80.655 870.522,-78.3711 871.355,-85.3213"/>
</g>
<!-- Node23&#45;&gt;Node20 -->
<g id="edge34" class="edge"><title>Node23&#45;&gt;Node20</title>
<path fill="none" stroke="midnightblue" d="M383.216,-128.975C354.618,-118.725 306.449,-101.459 274.198,-89.8994"/>
<polygon fill="midnightblue" stroke="midnightblue" points="275.334,-86.5885 264.74,-86.5091 272.972,-93.178 275.334,-86.5885"/>
</g>
<!-- Node24 -->
<g id="node24" class="node"><title>Node24</title>
<polygon fill="none" stroke="#bfbfbf" points="333,-67.5 333,-86.5 383,-86.5 383,-67.5 333,-67.5"/>
<text text-anchor="middle" x="358" y="-74.5" font-family="Helvetica,sans-Serif" font-size="10.00">fstream</text>
</g>
<!-- Node23&#45;&gt;Node24 -->
<g id="edge35" class="edge"><title>Node23&#45;&gt;Node24</title>
<path fill="none" stroke="midnightblue" d="M399.979,-128.975C392.557,-119.962 380.667,-105.525 371.433,-94.3118"/>
<polygon fill="midnightblue" stroke="midnightblue" points="374.066,-92.0034 365.007,-86.5091 368.663,-96.4534 374.066,-92.0034"/>
</g>
<!-- Node25&#45;&gt;Node3 -->
<g id="edge40" class="edge"><title>Node25&#45;&gt;Node3</title>
<path fill="none" stroke="midnightblue" d="M1134.7,-68.4871C1131.43,-67.9281 1128.16,-67.4198 1125,-67 887.442,-35.4335 824.926,-59.661 587,-31 569.654,-28.9105 550.427,-25.6145 534.85,-22.6926"/>
<polygon fill="midnightblue" stroke="midnightblue" points="535.197,-19.1954 524.717,-20.7489 533.878,-26.0701 535.197,-19.1954"/>
</g>
<!-- Node25&#45;&gt;Node6 -->
<g id="edge42" class="edge"><title>Node25&#45;&gt;Node6</title>
<path fill="none" stroke="midnightblue" d="M1149.8,-67.4751C1125.93,-57.4013 1086,-40.5525 1058.63,-29.0023"/>
<polygon fill="midnightblue" stroke="midnightblue" points="1059.74,-25.6724 1049.16,-25.0091 1057.02,-32.1217 1059.74,-25.6724"/>
</g>
<!-- Node25&#45;&gt;Node10 -->
<g id="edge41" class="edge"><title>Node25&#45;&gt;Node10</title>
<path fill="none" stroke="midnightblue" d="M1134.66,-68.7526C1131.4,-68.1379 1128.14,-67.5441 1125,-67 1011.38,-47.3122 875.78,-28.8869 814.27,-20.8027"/>
<polygon fill="midnightblue" stroke="midnightblue" points="814.382,-17.2876 804.012,-19.4604 813.473,-24.2285 814.382,-17.2876"/>
</g>
<!-- Node26 -->
<g id="node26" class="node"><title>Node26</title>
<polygon fill="none" stroke="#bfbfbf" points="1119.5,-0.5 1119.5,-30.5 1220.5,-30.5 1220.5,-0.5 1119.5,-0.5"/>
<text text-anchor="start" x="1127.5" y="-18.5" font-family="Helvetica,sans-Serif" font-size="10.00">boost/property_tree</text>
<text text-anchor="middle" x="1170" y="-7.5" font-family="Helvetica,sans-Serif" font-size="10.00">/ptree.hpp</text>
</g>
<!-- Node25&#45;&gt;Node26 -->
<g id="edge43" class="edge"><title>Node25&#45;&gt;Node26</title>
<path fill="none" stroke="midnightblue" d="M1170,-67.4751C1170,-60.471 1170,-50.1919 1170,-40.6956"/>
<polygon fill="midnightblue" stroke="midnightblue" points="1173.5,-40.5229 1170,-30.523 1166.5,-40.523 1173.5,-40.5229"/>
</g>
<!-- Node27&#45;&gt;Node6 -->
<g id="edge45" class="edge"><title>Node27&#45;&gt;Node6</title>
<path fill="none" stroke="midnightblue" d="M914.377,-246.281C920.743,-237.391 930.616,-223.083 938,-210 973.22,-147.593 1007.06,-69.2831 1021.58,-34.5349"/>
<polygon fill="midnightblue" stroke="midnightblue" points="1024.85,-35.7933 1025.45,-25.2153 1018.39,-33.1113 1024.85,-35.7933"/>
</g>
<!-- Node28 -->
<g id="node28" class="node"><title>Node28</title>
<g id="a_node28"><a xlink:href="user__group_8hpp.html" target="_top" xlink:title="user_group.hpp">
<polygon fill="none" stroke="black" points="846.5,-190.5 846.5,-209.5 929.5,-209.5 929.5,-190.5 846.5,-190.5"/>
<text text-anchor="middle" x="888" y="-197.5" font-family="Helvetica,sans-Serif" font-size="10.00">user_group.hpp</text>
</a>
</g>
</g>
<!-- Node27&#45;&gt;Node28 -->
<g id="edge46" class="edge"><title>Node27&#45;&gt;Node28</title>
<path fill="none" stroke="midnightblue" d="M904.697,-246.083C902.018,-238.849 898.151,-228.409 894.814,-219.397"/>
<polygon fill="midnightblue" stroke="midnightblue" points="897.996,-217.913 891.241,-209.751 891.432,-220.344 897.996,-217.913"/>
</g>
<!-- Node28&#45;&gt;Node14 -->
<g id="edge47" class="edge"><title>Node28&#45;&gt;Node14</title>
<path fill="none" stroke="midnightblue" d="M882.258,-190.45C873.477,-176.259 858.572,-147.026 867,-123 870.785,-112.209 878.367,-102.084 885.6,-94.1808"/>
<polygon fill="midnightblue" stroke="midnightblue" points="888.326,-96.4005 892.838,-86.8145 883.333,-91.4943 888.326,-96.4005"/>
</g>
<!-- Node29 -->
<g id="node29" class="node"><title>Node29</title>
<g id="a_node29"><a xlink:href="user_8hpp.html" target="_top" xlink:title="user.hpp">
<polygon fill="none" stroke="black" points="876,-129 876,-148 930,-148 930,-129 876,-129"/>
<text text-anchor="middle" x="903" y="-136" font-family="Helvetica,sans-Serif" font-size="10.00">user.hpp</text>
</a>
</g>
</g>
<!-- Node28&#45;&gt;Node29 -->
<g id="edge48" class="edge"><title>Node28&#45;&gt;Node29</title>
<path fill="none" stroke="midnightblue" d="M890.149,-190.475C892.288,-181.992 895.638,-168.704 898.381,-157.822"/>
<polygon fill="midnightblue" stroke="midnightblue" points="901.804,-158.561 900.855,-148.009 895.016,-156.85 901.804,-158.561"/>
</g>
<!-- Node29&#45;&gt;Node3 -->
<g id="edge49" class="edge"><title>Node29&#45;&gt;Node3</title>
<path fill="none" stroke="midnightblue" d="M912.421,-128.712C926.743,-114.317 950.653,-85.4703 934,-67 882.087,-9.42256 663.786,-41.6772 587,-31 569.695,-28.5938 550.471,-25.2766 534.885,-22.4222"/>
<polygon fill="midnightblue" stroke="midnightblue" points="535.216,-18.9237 524.744,-20.5369 533.936,-25.8058 535.216,-18.9237"/>
</g>
<!-- Node29&#45;&gt;Node6 -->
<g id="edge51" class="edge"><title>Node29&#45;&gt;Node6</title>
<path fill="none" stroke="midnightblue" d="M915.329,-128.809C928.627,-119.204 950.155,-102.97 967,-87 985.024,-69.9124 1003.56,-48.1896 1015.61,-33.4033"/>
<polygon fill="midnightblue" stroke="midnightblue" points="1018.67,-35.1818 1022.21,-25.1965 1013.21,-30.7937 1018.67,-35.1818"/>
</g>
<!-- Node29&#45;&gt;Node14 -->
<g id="edge50" class="edge"><title>Node29&#45;&gt;Node14</title>
<path fill="none" stroke="midnightblue" d="M903,-128.975C903,-120.58 903,-107.481 903,-96.6631"/>
<polygon fill="midnightblue" stroke="midnightblue" points="906.5,-96.5091 903,-86.5091 899.5,-96.5091 906.5,-96.5091"/>
</g>
<!-- Node29&#45;&gt;Node25 -->
<g id="edge52" class="edge"><title>Node29&#45;&gt;Node25</title>
<path fill="none" stroke="midnightblue" d="M930.071,-131.467C975.875,-121.26 1069.11,-100.482 1124.91,-88.0474"/>
<polygon fill="midnightblue" stroke="midnightblue" points="1125.88,-91.4185 1134.88,-85.8271 1124.35,-84.5861 1125.88,-91.4185"/>
</g>
<!-- Node30&#45;&gt;Node29 -->
<g id="edge54" class="edge"><title>Node30&#45;&gt;Node29</title>
<path fill="none" stroke="midnightblue" d="M781.773,-246.187C793.305,-233.299 815.866,-208.802 837,-190 851.363,-177.221 868.656,-164.064 881.936,-154.384"/>
<polygon fill="midnightblue" stroke="midnightblue" points="884.335,-156.969 890.404,-148.285 880.244,-151.289 884.335,-156.969"/>
</g>
<!-- Node31 -->
<g id="node31" class="node"><title>Node31</title>
<polygon fill="none" stroke="#bfbfbf" points="759.5,-190.5 759.5,-209.5 788.5,-209.5 788.5,-190.5 759.5,-190.5"/>
<text text-anchor="middle" x="774" y="-197.5" font-family="Helvetica,sans-Serif" font-size="10.00">list</text>
</g>
<!-- Node30&#45;&gt;Node31 -->
<g id="edge55" class="edge"><title>Node30&#45;&gt;Node31</title>
<path fill="none" stroke="midnightblue" d="M774,-246.083C774,-239.006 774,-228.861 774,-219.986"/>
<polygon fill="midnightblue" stroke="midnightblue" points="777.5,-219.751 774,-209.751 770.5,-219.751 777.5,-219.751"/>
</g>
<!-- Node32&#45;&gt;Node3 -->
<g id="edge63" class="edge"><title>Node32&#45;&gt;Node3</title>
<path fill="none" stroke="midnightblue" d="M402.321,-358.435C383.082,-349.547 352.283,-335.134 326,-322 308.928,-313.469 305.314,-310.029 288,-302 179.285,-251.585 38,-320.836 38,-201 38,-201 38,-201 38,-137.5 38,-102.114 45.841,-87.0487 75,-67 139.809,-22.4396 386.413,-16.9979 473.4,-16.486"/>
<polygon fill="midnightblue" stroke="midnightblue" points="473.441,-19.986 483.427,-16.4452 473.413,-12.9861 473.441,-19.986"/>
</g>
<!-- Node32&#45;&gt;Node5 -->
<g id="edge64" class="edge"><title>Node32&#45;&gt;Node5</title>
<path fill="none" stroke="midnightblue" d="M393.588,-358.444C364.231,-349.28 317.481,-334.688 284.904,-324.519"/>
<polygon fill="midnightblue" stroke="midnightblue" points="285.873,-321.155 275.284,-321.516 283.787,-327.837 285.873,-321.155"/>
</g>
<!-- Node32&#45;&gt;Node11 -->
<g id="edge62" class="edge"><title>Node32&#45;&gt;Node11</title>
<path fill="none" stroke="midnightblue" d="M427.364,-358.37C433.673,-349.548 443.335,-335.294 450,-322 490.462,-241.292 523.17,-138.029 535.602,-96.5073"/>
<polygon fill="midnightblue" stroke="midnightblue" points="539.02,-97.2906 538.5,-86.7086 532.307,-95.3052 539.02,-97.2906"/>
</g>
<!-- Node33 -->
<g id="node33" class="node"><title>Node33</title>
<polygon fill="none" stroke="#bfbfbf" points="498,-302.5 498,-321.5 554,-321.5 554,-302.5 498,-302.5"/>
<text text-anchor="middle" x="526" y="-309.5" font-family="Helvetica,sans-Serif" font-size="10.00">algorithm</text>
</g>
<!-- Node32&#45;&gt;Node33 -->
<g id="edge59" class="edge"><title>Node32&#45;&gt;Node33</title>
<path fill="none" stroke="midnightblue" d="M437.87,-358.324C454.709,-349.664 480.807,-336.242 500.238,-326.249"/>
<polygon fill="midnightblue" stroke="midnightblue" points="501.88,-329.341 509.172,-321.655 498.678,-323.116 501.88,-329.341"/>
</g>
<!-- Node34 -->
<g id="node34" class="node"><title>Node34</title>
<polygon fill="none" stroke="#bfbfbf" points="335.5,-302.5 335.5,-321.5 382.5,-321.5 382.5,-302.5 335.5,-302.5"/>
<text text-anchor="middle" x="359" y="-309.5" font-family="Helvetica,sans-Serif" font-size="10.00">iterator</text>
</g>
<!-- Node32&#45;&gt;Node34 -->
<g id="edge60" class="edge"><title>Node32&#45;&gt;Node34</title>
<path fill="none" stroke="midnightblue" d="M411.039,-358.324C401.873,-350.341 388.063,-338.313 376.972,-328.653"/>
<polygon fill="midnightblue" stroke="midnightblue" points="378.982,-325.762 369.143,-321.834 374.385,-331.041 378.982,-325.762"/>
</g>
<!-- Node35 -->
<g id="node35" class="node"><title>Node35</title>
<polygon fill="none" stroke="#bfbfbf" points="400.5,-302.5 400.5,-321.5 441.5,-321.5 441.5,-302.5 400.5,-302.5"/>
<text text-anchor="middle" x="421" y="-309.5" font-family="Helvetica,sans-Serif" font-size="10.00">regex</text>
</g>
<!-- Node32&#45;&gt;Node35 -->
<g id="edge61" class="edge"><title>Node32&#45;&gt;Node35</title>
<path fill="none" stroke="midnightblue" d="M421,-358.083C421,-351.006 421,-340.861 421,-331.986"/>
<polygon fill="midnightblue" stroke="midnightblue" points="424.5,-331.751 421,-321.751 417.5,-331.751 424.5,-331.751"/>
</g>
<!-- Node36&#45;&gt;Node6 -->
<g id="edge71" class="edge"><title>Node36&#45;&gt;Node6</title>
<path fill="none" stroke="midnightblue" d="M1163.18,-364.193C1231.53,-358.84 1367.01,-345.558 1408,-322 1440.32,-303.425 1461,-294.275 1461,-257 1461,-257 1461,-257 1461,-137.5 1461,-117.721 1188.94,-53.1316 1076.62,-27.3099"/>
<polygon fill="midnightblue" stroke="midnightblue" points="1077.11,-23.8316 1066.58,-25.0074 1075.55,-30.6544 1077.11,-23.8316"/>
</g>
<!-- Node36&#45;&gt;Node7 -->
<g id="edge79" class="edge"><title>Node36&#45;&gt;Node7</title>
<path fill="none" stroke="midnightblue" d="M1082.93,-362.255C1005.37,-353.071 833.863,-332.76 737.052,-321.296"/>
<polygon fill="midnightblue" stroke="midnightblue" points="737.404,-317.813 727.061,-320.113 736.58,-324.764 737.404,-317.813"/>
</g>
<!-- Node36&#45;&gt;Node8 -->
<g id="edge66" class="edge"><title>Node36&#45;&gt;Node8</title>
<path fill="none" stroke="midnightblue" d="M1125.75,-358.368C1131.42,-340.537 1144.54,-299.295 1152.19,-275.272"/>
<polygon fill="midnightblue" stroke="midnightblue" points="1155.57,-276.182 1155.27,-265.591 1148.9,-274.059 1155.57,-276.182"/>
</g>
<!-- Node36&#45;&gt;Node21 -->
<g id="edge68" class="edge"><title>Node36&#45;&gt;Node21</title>
<path fill="none" stroke="midnightblue" d="M1120.08,-358.36C1108.78,-324.998 1067.88,-204.142 1052.19,-157.78"/>
<polygon fill="midnightblue" stroke="midnightblue" points="1055.45,-156.499 1048.93,-148.149 1048.82,-158.743 1055.45,-156.499"/>
</g>
<!-- Node36&#45;&gt;Node25 -->
<g id="edge78" class="edge"><title>Node36&#45;&gt;Node25</title>
<path fill="none" stroke="midnightblue" d="M1120.07,-358.247C1113.44,-336.608 1099.76,-279.901 1126,-246 1161.65,-199.942 1216.93,-256.497 1252,-210 1282.42,-169.666 1224.46,-117.708 1191.14,-92.7145"/>
<polygon fill="midnightblue" stroke="midnightblue" points="1193.02,-89.7537 1182.88,-86.6877 1188.89,-95.4088 1193.02,-89.7537"/>
</g>
<!-- Node37 -->
<g id="node37" class="node"><title>Node37</title>
<polygon fill="none" stroke="#bfbfbf" points="1199.5,-246.5 1199.5,-265.5 1294.5,-265.5 1294.5,-246.5 1199.5,-246.5"/>
<text text-anchor="middle" x="1247" y="-253.5" font-family="Helvetica,sans-Serif" font-size="10.00">condition_variable</text>
</g>
<!-- Node36&#45;&gt;Node37 -->
<g id="edge67" class="edge"><title>Node36&#45;&gt;Node37</title>
<path fill="none" stroke="midnightblue" d="M1132.73,-358.368C1153.65,-339.814 1203.13,-295.913 1229.6,-272.438"/>
<polygon fill="midnightblue" stroke="midnightblue" points="1232.16,-274.846 1237.32,-265.591 1227.51,-269.609 1232.16,-274.846"/>
</g>
<!-- Node38 -->
<g id="node38" class="node"><title>Node38</title>
<polygon fill="none" stroke="#bfbfbf" points="1389.5,-246.5 1389.5,-265.5 1432.5,-265.5 1432.5,-246.5 1389.5,-246.5"/>
<text text-anchor="middle" x="1411" y="-253.5" font-family="Helvetica,sans-Serif" font-size="10.00">queue</text>
</g>
<!-- Node36&#45;&gt;Node38 -->
<g id="edge69" class="edge"><title>Node36&#45;&gt;Node38</title>
<path fill="none" stroke="midnightblue" d="M1163.24,-364.905C1228.28,-360.75 1352.59,-349.381 1386,-322 1399.86,-310.641 1406.05,-290.646 1408.81,-275.823"/>
<polygon fill="midnightblue" stroke="midnightblue" points="1412.3,-276.132 1410.32,-265.725 1405.38,-275.098 1412.3,-276.132"/>
</g>
<!-- Node39 -->
<g id="node39" class="node"><title>Node39</title>
<polygon fill="none" stroke="#bfbfbf" points="1013,-302.5 1013,-321.5 1057,-321.5 1057,-302.5 1013,-302.5"/>
<text text-anchor="middle" x="1035" y="-309.5" font-family="Helvetica,sans-Serif" font-size="10.00">thread</text>
</g>
<!-- Node36&#45;&gt;Node39 -->
<g id="edge70" class="edge"><title>Node36&#45;&gt;Node39</title>
<path fill="none" stroke="midnightblue" d="M1108.86,-358.324C1095.13,-349.9 1074.06,-336.971 1057.94,-327.074"/>
<polygon fill="midnightblue" stroke="midnightblue" points="1059.46,-323.902 1049.1,-321.655 1055.8,-329.868 1059.46,-323.902"/>
</g>
<!-- Node40 -->
<g id="node40" class="node"><title>Node40</title>
<g id="a_node40"><a xlink:href="concurrent__container_8hpp.html" target="_top" xlink:title="concurrent_container.hpp">
<polygon fill="none" stroke="black" points="1251,-302.5 1251,-321.5 1377,-321.5 1377,-302.5 1251,-302.5"/>
<text text-anchor="middle" x="1314" y="-309.5" font-family="Helvetica,sans-Serif" font-size="10.00">concurrent_container.hpp</text>
</a>
</g>
</g>
<!-- Node36&#45;&gt;Node40 -->
<g id="edge72" class="edge"><title>Node36&#45;&gt;Node40</title>
<path fill="none" stroke="midnightblue" d="M1153.26,-358.444C1185.96,-349.201 1238.18,-334.436 1274.18,-324.257"/>
<polygon fill="midnightblue" stroke="midnightblue" points="1275.21,-327.605 1283.88,-321.516 1273.3,-320.869 1275.21,-327.605"/>
</g>
<!-- Node41 -->
<g id="node41" class="node"><title>Node41</title>
<g id="a_node41"><a xlink:href="handler__container_8hpp.html" target="_top" xlink:title="handler/handler_container.hpp">
<polygon fill="none" stroke="black" points="1097,-190.5 1097,-209.5 1243,-209.5 1243,-190.5 1097,-190.5"/>
<text text-anchor="middle" x="1170" y="-197.5" font-family="Helvetica,sans-Serif" font-size="10.00">handler/handler_container.hpp</text>
</a>
</g>
</g>
<!-- Node36&#45;&gt;Node41 -->
<g id="edge80" class="edge"><title>Node36&#45;&gt;Node41</title>
<path fill="none" stroke="midnightblue" d="M1082.96,-361.372C1041.43,-353.589 984.994,-336.414 1004,-302 1030.29,-254.395 1089.3,-226.694 1129.39,-212.707"/>
<polygon fill="midnightblue" stroke="midnightblue" points="1130.52,-216.019 1138.89,-209.524 1128.3,-209.382 1130.52,-216.019"/>
</g>
<!-- Node40&#45;&gt;Node2 -->
<g id="edge75" class="edge"><title>Node40&#45;&gt;Node2</title>
<path fill="none" stroke="midnightblue" d="M1320.1,-302.191C1325.75,-293.46 1333.76,-279.478 1337,-266 1341.84,-245.89 1333.23,-195.793 1330,-190 1306.94,-148.579 1289.12,-144.751 1247,-123 1226.08,-112.199 1166.83,-96.8848 1126.6,-87.1989"/>
<polygon fill="midnightblue" stroke="midnightblue" points="1127.36,-83.7817 1116.82,-84.8639 1125.74,-90.5904 1127.36,-83.7817"/>
</g>
<!-- Node40&#45;&gt;Node8 -->
<g id="edge73" class="edge"><title>Node40&#45;&gt;Node8</title>
<path fill="none" stroke="midnightblue" d="M1289.28,-302.444C1262.69,-293.239 1220.27,-278.556 1190.88,-268.383"/>
<polygon fill="midnightblue" stroke="midnightblue" points="1191.67,-264.952 1181.08,-264.988 1189.38,-271.567 1191.67,-264.952"/>
</g>
<!-- Node40&#45;&gt;Node14 -->
<g id="edge77" class="edge"><title>Node40&#45;&gt;Node14</title>
<path fill="none" stroke="midnightblue" d="M1314.05,-302.112C1313.79,-289.132 1312.02,-264.522 1303,-246 1288.26,-215.734 1279.81,-208.976 1252,-190 1149.44,-120.003 1000.45,-91.6414 935.409,-82.1123"/>
<polygon fill="midnightblue" stroke="midnightblue" points="935.74,-78.6244 925.348,-80.692 934.761,-85.5556 935.74,-78.6244"/>
</g>
<!-- Node40&#45;&gt;Node37 -->
<g id="edge74" class="edge"><title>Node40&#45;&gt;Node37</title>
<path fill="none" stroke="midnightblue" d="M1303.24,-302.324C1293.23,-294.263 1278.11,-282.077 1266.07,-272.369"/>
<polygon fill="midnightblue" stroke="midnightblue" points="1267.94,-269.384 1257.96,-265.834 1263.55,-274.834 1267.94,-269.384"/>
</g>
<!-- Node40&#45;&gt;Node38 -->
<g id="edge76" class="edge"><title>Node40&#45;&gt;Node38</title>
<path fill="none" stroke="midnightblue" d="M1329.58,-302.324C1345,-293.743 1368.81,-280.486 1386.71,-270.522"/>
<polygon fill="midnightblue" stroke="midnightblue" points="1388.42,-273.577 1395.45,-265.655 1385.01,-267.461 1388.42,-273.577"/>
</g>
<!-- Node41&#45;&gt;Node25 -->
<g id="edge81" class="edge"><title>Node41&#45;&gt;Node25</title>
<path fill="none" stroke="midnightblue" d="M1170,-190.298C1170,-170.85 1170,-123.49 1170,-96.9036"/>
<polygon fill="midnightblue" stroke="midnightblue" points="1173.5,-96.6231 1170,-86.6232 1166.5,-96.6232 1173.5,-96.6231"/>
</g>
</g>
</svg>
