<?xml version="1.0" encoding="UTF-8" standalone="no"?>
<!DOCTYPE svg PUBLIC "-//W3C//DTD SVG 1.1//EN"
 "http://www.w3.org/Graphics/SVG/1.1/DTD/svg11.dtd">
<!-- Generated by graphviz version 2.38.0 (20140413.2041)
 -->
<!-- Title: src/handler/handler.cpp Pages: 1 -->
<svg width="1629pt" height="498pt"
 viewBox="0.00 0.00 1629.00 498.00" xmlns="http://www.w3.org/2000/svg" xmlns:xlink="http://www.w3.org/1999/xlink">
<g id="graph0" class="graph" transform="scale(1 1) rotate(0) translate(4 494)">
<title>src/handler/handler.cpp</title>
<!-- Node1 -->
<g id="node1" class="node"><title>Node1</title>
<polygon fill="#bfbfbf" stroke="black" points="402,-470.5 402,-489.5 520,-489.5 520,-470.5 402,-470.5"/>
<text text-anchor="middle" x="461" y="-477.5" font-family="Helvetica,sans-Serif" font-size="10.00">src/handler/handler.cpp</text>
</g>
<!-- Node2 -->
<g id="node2" class="node"><title>Node2</title>
<g id="a_node2"><a xlink:href="handler_8hpp.html" target="_top" xlink:title="handler.hpp">
<polygon fill="none" stroke="black" points="427.5,-414.5 427.5,-433.5 494.5,-433.5 494.5,-414.5 427.5,-414.5"/>
<text text-anchor="middle" x="461" y="-421.5" font-family="Helvetica,sans-Serif" font-size="10.00">handler.hpp</text>
</a>
</g>
</g>
<!-- Node1&#45;&gt;Node2 -->
<g id="edge1" class="edge"><title>Node1&#45;&gt;Node2</title>
<path fill="none" stroke="midnightblue" d="M461,-470.083C461,-463.006 461,-452.861 461,-443.986"/>
<polygon fill="midnightblue" stroke="midnightblue" points="464.5,-443.751 461,-433.751 457.5,-443.751 464.5,-443.751"/>
</g>
<!-- Node3 -->
<g id="node3" class="node"><title>Node3</title>
<polygon fill="none" stroke="#bfbfbf" points="1360.5,-67.5 1360.5,-86.5 1419.5,-86.5 1419.5,-67.5 1360.5,-67.5"/>
<text text-anchor="middle" x="1390" y="-74.5" font-family="Helvetica,sans-Serif" font-size="10.00">functional</text>
</g>
<!-- Node2&#45;&gt;Node3 -->
<g id="edge2" class="edge"><title>Node2&#45;&gt;Node3</title>
<path fill="none" stroke="midnightblue" d="M494.579,-423.318C681.266,-424.654 1583,-425.298 1583,-313 1583,-313 1583,-313 1583,-199 1583,-127.332 1486.29,-96.4957 1429.78,-84.5962"/>
<polygon fill="midnightblue" stroke="midnightblue" points="1430.23,-81.1154 1419.73,-82.5891 1428.85,-87.9798 1430.23,-81.1154"/>
</g>
<!-- Node4 -->
<g id="node4" class="node"><title>Node4</title>
<polygon fill="none" stroke="#bfbfbf" points="440.5,-6 440.5,-25 481.5,-25 481.5,-6 440.5,-6"/>
<text text-anchor="middle" x="461" y="-13" font-family="Helvetica,sans-Serif" font-size="10.00">string</text>
</g>
<!-- Node2&#45;&gt;Node4 -->
<g id="edge3" class="edge"><title>Node2&#45;&gt;Node4</title>
<path fill="none" stroke="midnightblue" d="M427.48,-421.507C346.193,-417.497 140.665,-404.927 78,-378 36.5398,-360.184 0,-358.126 0,-313 0,-313 0,-313 0,-137.5 0,-48.2921 327.037,-23.519 430.208,-17.9233"/>
<polygon fill="midnightblue" stroke="midnightblue" points="430.491,-21.4134 440.296,-17.3993 430.128,-14.4228 430.491,-21.4134"/>
</g>
<!-- Node5 -->
<g id="node5" class="node"><title>Node5</title>
<polygon fill="none" stroke="#bfbfbf" points="309.5,-67.5 309.5,-86.5 368.5,-86.5 368.5,-67.5 309.5,-67.5"/>
<text text-anchor="middle" x="339" y="-74.5" font-family="Helvetica,sans-Serif" font-size="10.00">stdexcept</text>
</g>
<!-- Node2&#45;&gt;Node5 -->
<g id="edge4" class="edge"><title>Node2&#45;&gt;Node5</title>
<path fill="none" stroke="midnightblue" d="M427.454,-421.477C327.406,-416.032 38,-393.338 38,-313 38,-313 38,-313 38,-255 38,-224.902 34.6349,-210.141 57,-190 123.463,-130.145 174.761,-193.519 255,-154 284.11,-139.663 310.591,-112.235 325.739,-94.5474"/>
<polygon fill="midnightblue" stroke="midnightblue" points="328.523,-96.6733 332.226,-86.7468 323.141,-92.1972 328.523,-96.6733"/>
</g>
<!-- Node6 -->
<g id="node6" class="node"><title>Node6</title>
<polygon fill="none" stroke="#bfbfbf" points="66,-190.5 66,-209.5 128,-209.5 128,-190.5 66,-190.5"/>
<text text-anchor="middle" x="97" y="-197.5" font-family="Helvetica,sans-Serif" font-size="10.00">type_traits</text>
</g>
<!-- Node2&#45;&gt;Node6 -->
<g id="edge5" class="edge"><title>Node2&#45;&gt;Node6</title>
<path fill="none" stroke="midnightblue" d="M446.731,-414.297C391.118,-380.379 188.594,-256.862 119.94,-214.991"/>
<polygon fill="midnightblue" stroke="midnightblue" points="121.53,-211.861 111.171,-209.643 117.886,-217.838 121.53,-211.861"/>
</g>
<!-- Node7 -->
<g id="node7" class="node"><title>Node7</title>
<polygon fill="none" stroke="#bfbfbf" points="1165.5,-6 1165.5,-25 1248.5,-25 1248.5,-6 1165.5,-6"/>
<text text-anchor="middle" x="1207" y="-13" font-family="Helvetica,sans-Serif" font-size="10.00">unordered_map</text>
</g>
<!-- Node2&#45;&gt;Node7 -->
<g id="edge6" class="edge"><title>Node2&#45;&gt;Node7</title>
<path fill="none" stroke="midnightblue" d="M494.661,-422.357C661.084,-419.066 1391.89,-403.275 1490,-378 1552.94,-361.785 1621,-377.995 1621,-313 1621,-313 1621,-313 1621,-137.5 1621,-62.7973 1369.52,-31.0388 1258.56,-20.6617"/>
<polygon fill="midnightblue" stroke="midnightblue" points="1258.87,-17.1752 1248.59,-19.7516 1258.23,-24.1463 1258.87,-17.1752"/>
</g>
<!-- Node8 -->
<g id="node8" class="node"><title>Node8</title>
<g id="a_node8"><a xlink:href="connection_8hpp.html" target="_top" xlink:title="network/connection.hpp">
<polygon fill="none" stroke="black" points="822,-302.5 822,-321.5 942,-321.5 942,-302.5 822,-302.5"/>
<text text-anchor="middle" x="882" y="-309.5" font-family="Helvetica,sans-Serif" font-size="10.00">network/connection.hpp</text>
</a>
</g>
</g>
<!-- Node2&#45;&gt;Node8 -->
<g id="edge7" class="edge"><title>Node2&#45;&gt;Node8</title>
<path fill="none" stroke="midnightblue" d="M493.685,-414.46C569.151,-394.742 755.491,-346.055 839.6,-324.078"/>
<polygon fill="midnightblue" stroke="midnightblue" points="840.546,-327.449 849.336,-321.535 838.776,-320.676 840.546,-327.449"/>
</g>
<!-- Node19 -->
<g id="node19" class="node"><title>Node19</title>
<g id="a_node19"><a xlink:href="logger_8hpp.html" target="_top" xlink:title="string/logger.hpp">
<polygon fill="none" stroke="black" points="463.5,-190.5 463.5,-209.5 552.5,-209.5 552.5,-190.5 463.5,-190.5"/>
<text text-anchor="middle" x="508" y="-197.5" font-family="Helvetica,sans-Serif" font-size="10.00">string/logger.hpp</text>
</a>
</g>
</g>
<!-- Node2&#45;&gt;Node19 -->
<g id="edge66" class="edge"><title>Node2&#45;&gt;Node19</title>
<path fill="none" stroke="midnightblue" d="M462.842,-414.297C469.758,-381.633 494.267,-265.866 503.987,-219.957"/>
<polygon fill="midnightblue" stroke="midnightblue" points="507.472,-220.392 506.119,-209.884 500.624,-218.942 507.472,-220.392"/>
</g>
<!-- Node26 -->
<g id="node26" class="node"><title>Node26</title>
<g id="a_node26"><a xlink:href="settings_8hpp.html" target="_top" xlink:title="settings.hpp">
<polygon fill="none" stroke="black" points="605,-67.5 605,-86.5 675,-86.5 675,-67.5 605,-67.5"/>
<text text-anchor="middle" x="640" y="-74.5" font-family="Helvetica,sans-Serif" font-size="10.00">settings.hpp</text>
</a>
</g>
</g>
<!-- Node2&#45;&gt;Node26 -->
<g id="edge65" class="edge"><title>Node2&#45;&gt;Node26</title>
<path fill="none" stroke="midnightblue" d="M456.954,-414.379C448.765,-396.114 431,-351.996 431,-313 431,-313 431,-313 431,-255 431,-193.299 429.29,-165.521 474,-123 506.435,-92.1532 557.805,-82.0021 594.812,-78.8864"/>
<polygon fill="midnightblue" stroke="midnightblue" points="595.111,-82.3741 604.841,-78.1828 594.621,-75.3913 595.111,-82.3741"/>
</g>
<!-- Node28 -->
<g id="node28" class="node"><title>Node28</title>
<g id="a_node28"><a xlink:href="string__functions_8hpp.html" target="_top" xlink:title="string/string_functions.hpp">
<polygon fill="none" stroke="black" points="271.5,-246.5 271.5,-265.5 402.5,-265.5 402.5,-246.5 271.5,-246.5"/>
<text text-anchor="middle" x="337" y="-253.5" font-family="Helvetica,sans-Serif" font-size="10.00">string/string_functions.hpp</text>
</a>
</g>
</g>
<!-- Node2&#45;&gt;Node28 -->
<g id="edge67" class="edge"><title>Node2&#45;&gt;Node28</title>
<path fill="none" stroke="midnightblue" d="M451.36,-414.171C442.063,-405.426 427.844,-391.433 417,-378 388.916,-343.211 361.308,-298.479 347.024,-274.328"/>
<polygon fill="midnightblue" stroke="midnightblue" points="349.985,-272.458 341.912,-265.597 343.944,-275.995 349.985,-272.458"/>
</g>
<!-- Node37 -->
<g id="node37" class="node"><title>Node37</title>
<g id="a_node37"><a xlink:href="melanobot_8hpp.html" target="_top" xlink:title="melanobot.hpp">
<polygon fill="none" stroke="black" points="1185,-358.5 1185,-377.5 1265,-377.5 1265,-358.5 1185,-358.5"/>
<text text-anchor="middle" x="1225" y="-365.5" font-family="Helvetica,sans-Serif" font-size="10.00">melanobot.hpp</text>
</a>
</g>
</g>
<!-- Node2&#45;&gt;Node37 -->
<g id="edge68" class="edge"><title>Node2&#45;&gt;Node37</title>
<path fill="none" stroke="midnightblue" d="M494.814,-420.61C616.1,-412.037 1029.73,-382.802 1174.48,-372.571"/>
<polygon fill="midnightblue" stroke="midnightblue" points="1175.11,-376.035 1184.84,-371.839 1174.61,-369.053 1175.11,-376.035"/>
</g>
<!-- Node9 -->
<g id="node9" class="node"><title>Node9</title>
<polygon fill="none" stroke="#bfbfbf" points="1220,-246.5 1220,-265.5 1266,-265.5 1266,-246.5 1220,-246.5"/>
<text text-anchor="middle" x="1243" y="-253.5" font-family="Helvetica,sans-Serif" font-size="10.00">atomic</text>
</g>
<!-- Node8&#45;&gt;Node9 -->
<g id="edge8" class="edge"><title>Node8&#45;&gt;Node9</title>
<path fill="none" stroke="midnightblue" d="M942.248,-305.108C1006.21,-298.321 1110.38,-285.748 1209.75,-265.789"/>
<polygon fill="midnightblue" stroke="midnightblue" points="1210.55,-269.196 1219.65,-263.77 1209.16,-262.337 1210.55,-269.196"/>
</g>
<!-- Node10 -->
<g id="node10" class="node"><title>Node10</title>
<polygon fill="none" stroke="#bfbfbf" points="734,-246.5 734,-265.5 780,-265.5 780,-246.5 734,-246.5"/>
<text text-anchor="middle" x="757" y="-253.5" font-family="Helvetica,sans-Serif" font-size="10.00">chrono</text>
</g>
<!-- Node8&#45;&gt;Node10 -->
<g id="edge9" class="edge"><title>Node8&#45;&gt;Node10</title>
<path fill="none" stroke="midnightblue" d="M862.193,-302.444C841.713,-293.596 809.517,-279.687 786.135,-269.586"/>
<polygon fill="midnightblue" stroke="midnightblue" points="787.282,-266.269 776.714,-265.516 784.506,-272.695 787.282,-266.269"/>
</g>
<!-- Node11 -->
<g id="node11" class="node"><title>Node11</title>
<polygon fill="none" stroke="#bfbfbf" points="808,-6 808,-25 854,-25 854,-6 808,-6"/>
<text text-anchor="middle" x="831" y="-13" font-family="Helvetica,sans-Serif" font-size="10.00">cstdint</text>
</g>
<!-- Node8&#45;&gt;Node11 -->
<g id="edge10" class="edge"><title>Node8&#45;&gt;Node11</title>
<path fill="none" stroke="midnightblue" d="M880.474,-302.186C873.45,-261.626 844.157,-92.4736 834.273,-35.4007"/>
<polygon fill="midnightblue" stroke="midnightblue" points="837.675,-34.5355 832.52,-25.2794 830.778,-35.73 837.675,-34.5355"/>
</g>
<!-- Node12 -->
<g id="node12" class="node"><title>Node12</title>
<polygon fill="none" stroke="#bfbfbf" points="693,-67.5 693,-86.5 745,-86.5 745,-67.5 693,-67.5"/>
<text text-anchor="middle" x="719" y="-74.5" font-family="Helvetica,sans-Serif" font-size="10.00">sstream</text>
</g>
<!-- Node8&#45;&gt;Node12 -->
<g id="edge11" class="edge"><title>Node8&#45;&gt;Node12</title>
<path fill="none" stroke="midnightblue" d="M870.378,-302.199C859.622,-293.691 843.591,-280.056 832,-266 785.232,-209.288 744.746,-131.212 727.658,-96.234"/>
<polygon fill="midnightblue" stroke="midnightblue" points="730.622,-94.3211 723.125,-86.8338 724.316,-97.3615 730.622,-94.3211"/>
</g>
<!-- Node13 -->
<g id="node13" class="node"><title>Node13</title>
<g id="a_node13"><a xlink:href="string_8hpp.html" target="_top" xlink:title="string/string.hpp">
<polygon fill="none" stroke="black" points="874,-129 874,-148 960,-148 960,-129 874,-129"/>
<text text-anchor="middle" x="917" y="-136" font-family="Helvetica,sans-Serif" font-size="10.00">string/string.hpp</text>
</a>
</g>
</g>
<!-- Node8&#45;&gt;Node13 -->
<g id="edge12" class="edge"><title>Node8&#45;&gt;Node13</title>
<path fill="none" stroke="midnightblue" d="M883.784,-302.26C889.237,-275.536 905.772,-194.517 913.253,-157.862"/>
<polygon fill="midnightblue" stroke="midnightblue" points="916.691,-158.517 915.261,-148.019 909.832,-157.118 916.691,-158.517"/>
</g>
<!-- Node8&#45;&gt;Node19 -->
<g id="edge26" class="edge"><title>Node8&#45;&gt;Node19</title>
<path fill="none" stroke="midnightblue" d="M851.871,-302.479C820.242,-293.507 769.08,-278.919 725,-266 662.11,-247.569 589.147,-225.591 545.873,-212.493"/>
<polygon fill="midnightblue" stroke="midnightblue" points="546.644,-209.07 536.059,-209.521 544.615,-215.769 546.644,-209.07"/>
</g>
<!-- Node8&#45;&gt;Node28 -->
<g id="edge45" class="edge"><title>Node8&#45;&gt;Node28</title>
<path fill="none" stroke="midnightblue" d="M821.805,-303.021C818.829,-302.666 815.881,-302.324 813,-302 671.732,-286.114 506.448,-271.344 412.503,-263.306"/>
<polygon fill="midnightblue" stroke="midnightblue" points="412.783,-259.817 402.522,-262.454 412.188,-266.792 412.783,-259.817"/>
</g>
<!-- Node32 -->
<g id="node32" class="node"><title>Node32</title>
<g id="a_node32"><a xlink:href="auth__system_8hpp.html" target="_top" xlink:title="user/auth_system.hpp">
<polygon fill="none" stroke="black" points="1088.5,-246.5 1088.5,-265.5 1201.5,-265.5 1201.5,-246.5 1088.5,-246.5"/>
<text text-anchor="middle" x="1145" y="-253.5" font-family="Helvetica,sans-Serif" font-size="10.00">user/auth_system.hpp</text>
</a>
</g>
</g>
<!-- Node8&#45;&gt;Node32 -->
<g id="edge53" class="edge"><title>Node8&#45;&gt;Node32</title>
<path fill="none" stroke="midnightblue" d="M923.673,-302.444C969.745,-292.984 1044,-277.738 1093.63,-267.547"/>
<polygon fill="midnightblue" stroke="midnightblue" points="1094.43,-270.956 1103.52,-265.516 1093.02,-264.099 1094.43,-270.956"/>
</g>
<!-- Node35 -->
<g id="node35" class="node"><title>Node35</title>
<g id="a_node35"><a xlink:href="user__manager_8hpp.html" target="_top" xlink:title="user/user_manager.hpp">
<polygon fill="none" stroke="black" points="912.5,-246.5 912.5,-265.5 1031.5,-265.5 1031.5,-246.5 912.5,-246.5"/>
<text text-anchor="middle" x="972" y="-253.5" font-family="Helvetica,sans-Serif" font-size="10.00">user/user_manager.hpp</text>
</a>
</g>
</g>
<!-- Node8&#45;&gt;Node35 -->
<g id="edge62" class="edge"><title>Node8&#45;&gt;Node35</title>
<path fill="none" stroke="midnightblue" d="M896.46,-302.324C910.5,-293.9 932.048,-280.971 948.543,-271.074"/>
<polygon fill="midnightblue" stroke="midnightblue" points="950.802,-273.801 957.576,-265.655 947.2,-267.798 950.802,-273.801"/>
</g>
<!-- Node13&#45;&gt;Node3 -->
<g id="edge14" class="edge"><title>Node13&#45;&gt;Node3</title>
<path fill="none" stroke="midnightblue" d="M960.074,-131.875C980.893,-129.169 1006.24,-125.891 1029,-123 1145.57,-108.189 1283.37,-91.1386 1349.98,-82.9262"/>
<polygon fill="midnightblue" stroke="midnightblue" points="1350.55,-86.3828 1360.04,-81.6857 1349.69,-79.4353 1350.55,-86.3828"/>
</g>
<!-- Node13&#45;&gt;Node4 -->
<g id="edge17" class="edge"><title>Node13&#45;&gt;Node4</title>
<path fill="none" stroke="midnightblue" d="M900.826,-128.958C872.078,-114.133 809.849,-83.6324 754,-67 705.029,-52.4159 556.566,-30.1863 491.784,-20.859"/>
<polygon fill="midnightblue" stroke="midnightblue" points="492.17,-17.3786 481.774,-19.4247 491.177,-24.3078 492.17,-17.3786"/>
</g>
<!-- Node13&#45;&gt;Node5 -->
<g id="edge16" class="edge"><title>Node13&#45;&gt;Node5</title>
<path fill="none" stroke="midnightblue" d="M873.556,-133.028C765.047,-121.858 483.389,-92.8636 378.835,-82.1006"/>
<polygon fill="midnightblue" stroke="midnightblue" points="379.009,-78.6002 368.703,-81.0577 378.292,-85.5634 379.009,-78.6002"/>
</g>
<!-- Node13&#45;&gt;Node7 -->
<g id="edge19" class="edge"><title>Node13&#45;&gt;Node7</title>
<path fill="none" stroke="midnightblue" d="M941.235,-128.897C968.053,-119.238 1012.45,-102.837 1050,-87 1069.42,-78.8093 1073.81,-75.7132 1093,-67 1121.8,-53.9239 1154.87,-39.3219 1177.94,-29.1964"/>
<polygon fill="midnightblue" stroke="midnightblue" points="1179.43,-32.368 1187.18,-25.1484 1176.62,-25.9566 1179.43,-32.368"/>
</g>
<!-- Node13&#45;&gt;Node11 -->
<g id="edge13" class="edge"><title>Node13&#45;&gt;Node11</title>
<path fill="none" stroke="midnightblue" d="M910.815,-128.798C896.621,-108.827 861.506,-59.4212 842.943,-33.3036"/>
<polygon fill="midnightblue" stroke="midnightblue" points="845.775,-31.2465 837.129,-25.1232 840.069,-35.3018 845.775,-31.2465"/>
</g>
<!-- Node13&#45;&gt;Node12 -->
<g id="edge18" class="edge"><title>Node13&#45;&gt;Node12</title>
<path fill="none" stroke="midnightblue" d="M888.631,-128.975C853.392,-118.386 793.24,-100.31 754.845,-88.7716"/>
<polygon fill="midnightblue" stroke="midnightblue" points="755.69,-85.3711 745.106,-85.845 753.676,-92.075 755.69,-85.3711"/>
</g>
<!-- Node14 -->
<g id="node14" class="node"><title>Node14</title>
<polygon fill="none" stroke="#bfbfbf" points="989,-67.5 989,-86.5 1041,-86.5 1041,-67.5 989,-67.5"/>
<text text-anchor="middle" x="1015" y="-74.5" font-family="Helvetica,sans-Serif" font-size="10.00">memory</text>
</g>
<!-- Node13&#45;&gt;Node14 -->
<g id="edge15" class="edge"><title>Node13&#45;&gt;Node14</title>
<path fill="none" stroke="midnightblue" d="M931.041,-128.975C947.051,-119.255 973.45,-103.227 992.374,-91.7372"/>
<polygon fill="midnightblue" stroke="midnightblue" points="994.254,-94.6907 1000.99,-86.5091 990.621,-88.7072 994.254,-94.6907"/>
</g>
<!-- Node15 -->
<g id="node15" class="node"><title>Node15</title>
<polygon fill="none" stroke="#bfbfbf" points="1135,-67.5 1135,-86.5 1179,-86.5 1179,-67.5 1135,-67.5"/>
<text text-anchor="middle" x="1157" y="-74.5" font-family="Helvetica,sans-Serif" font-size="10.00">vector</text>
</g>
<!-- Node13&#45;&gt;Node15 -->
<g id="edge20" class="edge"><title>Node13&#45;&gt;Node15</title>
<path fill="none" stroke="midnightblue" d="M951.386,-128.975C997.801,-117.468 1079.87,-97.1208 1125.02,-85.9287"/>
<polygon fill="midnightblue" stroke="midnightblue" points="1126,-89.292 1134.86,-83.4885 1124.31,-82.4977 1126,-89.292"/>
</g>
<!-- Node16 -->
<g id="node16" class="node"><title>Node16</title>
<g id="a_node16"><a xlink:href="color_8hpp.html" target="_top" xlink:title="color.hpp">
<polygon fill="none" stroke="black" points="915,-67.5 915,-86.5 971,-86.5 971,-67.5 915,-67.5"/>
<text text-anchor="middle" x="943" y="-74.5" font-family="Helvetica,sans-Serif" font-size="10.00">color.hpp</text>
</a>
</g>
</g>
<!-- Node13&#45;&gt;Node16 -->
<g id="edge21" class="edge"><title>Node13&#45;&gt;Node16</title>
<path fill="none" stroke="midnightblue" d="M920.725,-128.975C924.471,-120.404 930.36,-106.927 935.142,-95.983"/>
<polygon fill="midnightblue" stroke="midnightblue" points="938.485,-97.0739 939.282,-86.5091 932.07,-94.271 938.485,-97.0739"/>
</g>
<!-- Node16&#45;&gt;Node4 -->
<g id="edge25" class="edge"><title>Node16&#45;&gt;Node4</title>
<path fill="none" stroke="midnightblue" d="M914.606,-69.5158C910.069,-68.5953 905.416,-67.719 901,-67 759.304,-43.9314 722.588,-47.6823 580,-31 549.929,-27.4818 515.607,-23.2798 491.576,-20.3073"/>
<polygon fill="midnightblue" stroke="midnightblue" points="491.985,-16.8313 481.631,-19.0746 491.124,-23.7781 491.985,-16.8313"/>
</g>
<!-- Node16&#45;&gt;Node11 -->
<g id="edge23" class="edge"><title>Node16&#45;&gt;Node11</title>
<path fill="none" stroke="midnightblue" d="M926.953,-67.4751C908.407,-57.6222 877.66,-41.2883 855.978,-29.7697"/>
<polygon fill="midnightblue" stroke="midnightblue" points="857.49,-26.6098 847.017,-25.0091 854.206,-32.7916 857.49,-26.6098"/>
</g>
<!-- Node17 -->
<g id="node17" class="node"><title>Node17</title>
<polygon fill="none" stroke="#bfbfbf" points="938,-6 938,-25 984,-25 984,-6 938,-6"/>
<text text-anchor="middle" x="961" y="-13" font-family="Helvetica,sans-Serif" font-size="10.00">cctype</text>
</g>
<!-- Node16&#45;&gt;Node17 -->
<g id="edge22" class="edge"><title>Node16&#45;&gt;Node17</title>
<path fill="none" stroke="midnightblue" d="M945.579,-67.4751C948.145,-58.9919 952.165,-45.7043 955.457,-34.8222"/>
<polygon fill="midnightblue" stroke="midnightblue" points="958.88,-35.5942 958.426,-25.0091 952.18,-33.5672 958.88,-35.5942"/>
</g>
<!-- Node18 -->
<g id="node18" class="node"><title>Node18</title>
<polygon fill="none" stroke="#bfbfbf" points="874.5,-6 874.5,-25 919.5,-25 919.5,-6 874.5,-6"/>
<text text-anchor="middle" x="897" y="-13" font-family="Helvetica,sans-Serif" font-size="10.00">cstdlib</text>
</g>
<!-- Node16&#45;&gt;Node18 -->
<g id="edge24" class="edge"><title>Node16&#45;&gt;Node18</title>
<path fill="none" stroke="midnightblue" d="M936.409,-67.4751C929.509,-58.5501 918.498,-44.3071 909.866,-33.1425"/>
<polygon fill="midnightblue" stroke="midnightblue" points="912.464,-30.7798 903.578,-25.0091 906.926,-35.0612 912.464,-30.7798"/>
</g>
<!-- Node19&#45;&gt;Node4 -->
<g id="edge31" class="edge"><title>Node19&#45;&gt;Node4</title>
<path fill="none" stroke="midnightblue" d="M499.022,-190.283C490.948,-181.833 479.533,-168.238 474,-154 458.42,-113.91 458.291,-62.4944 459.609,-35.3067"/>
<polygon fill="midnightblue" stroke="midnightblue" points="463.108,-35.4361 460.222,-25.2419 456.121,-35.0107 463.108,-35.4361"/>
</g>
<!-- Node19&#45;&gt;Node5 -->
<g id="edge30" class="edge"><title>Node19&#45;&gt;Node5</title>
<path fill="none" stroke="midnightblue" d="M463.317,-193.504C417.706,-186.868 351.467,-174.034 336,-154 323.423,-137.709 327.272,-113.084 332.209,-96.3115"/>
<polygon fill="midnightblue" stroke="midnightblue" points="335.607,-97.1835 335.447,-86.5899 328.966,-94.9709 335.607,-97.1835"/>
</g>
<!-- Node19&#45;&gt;Node7 -->
<g id="edge32" class="edge"><title>Node19&#45;&gt;Node7</title>
<path fill="none" stroke="midnightblue" d="M552.778,-197.025C652.917,-192.223 892.194,-178.492 969,-154 992.154,-146.617 1129.17,-63.9141 1184.17,-30.44"/>
<polygon fill="midnightblue" stroke="midnightblue" points="1186.14,-33.3409 1192.85,-25.1488 1182.49,-27.363 1186.14,-33.3409"/>
</g>
<!-- Node19&#45;&gt;Node13 -->
<g id="edge39" class="edge"><title>Node19&#45;&gt;Node13</title>
<path fill="none" stroke="midnightblue" d="M552.549,-192.519C628.394,-181.486 782.279,-159.099 863.703,-147.254"/>
<polygon fill="midnightblue" stroke="midnightblue" points="864.349,-150.696 873.741,-145.793 863.341,-143.769 864.349,-150.696"/>
</g>
<!-- Node20 -->
<g id="node20" class="node"><title>Node20</title>
<polygon fill="none" stroke="#bfbfbf" points="492,-129 492,-148 542,-148 542,-129 492,-129"/>
<text text-anchor="middle" x="517" y="-136" font-family="Helvetica,sans-Serif" font-size="10.00">iomanip</text>
</g>
<!-- Node19&#45;&gt;Node20 -->
<g id="edge27" class="edge"><title>Node19&#45;&gt;Node20</title>
<path fill="none" stroke="midnightblue" d="M509.289,-190.475C510.559,-182.08 512.541,-168.981 514.177,-158.163"/>
<polygon fill="midnightblue" stroke="midnightblue" points="517.678,-158.42 515.713,-148.009 510.757,-157.373 517.678,-158.42"/>
</g>
<!-- Node21 -->
<g id="node21" class="node"><title>Node21</title>
<polygon fill="none" stroke="#bfbfbf" points="131,-67.5 131,-86.5 185,-86.5 185,-67.5 131,-67.5"/>
<text text-anchor="middle" x="158" y="-74.5" font-family="Helvetica,sans-Serif" font-size="10.00">iostream</text>
</g>
<!-- Node19&#45;&gt;Node21 -->
<g id="edge28" class="edge"><title>Node19&#45;&gt;Node21</title>
<path fill="none" stroke="midnightblue" d="M463.301,-196.129C375.558,-190.063 187.499,-174.774 167,-154 152.378,-139.182 152.283,-114.034 154.41,-96.7511"/>
<polygon fill="midnightblue" stroke="midnightblue" points="157.892,-97.1413 155.999,-86.7171 150.978,-96.0468 157.892,-97.1413"/>
</g>
<!-- Node22 -->
<g id="node22" class="node"><title>Node22</title>
<polygon fill="none" stroke="#bfbfbf" points="1038,-129 1038,-148 1082,-148 1082,-129 1038,-129"/>
<text text-anchor="middle" x="1060" y="-136" font-family="Helvetica,sans-Serif" font-size="10.00">mutex</text>
</g>
<!-- Node19&#45;&gt;Node22 -->
<g id="edge29" class="edge"><title>Node19&#45;&gt;Node22</title>
<path fill="none" stroke="midnightblue" d="M552.535,-199.505C642.8,-199.575 853.248,-194.872 1024,-154 1026.67,-153.36 1029.41,-152.557 1032.12,-151.657"/>
<polygon fill="midnightblue" stroke="midnightblue" points="1033.51,-154.873 1041.66,-148.103 1031.07,-148.313 1033.51,-154.873"/>
</g>
<!-- Node23 -->
<g id="node23" class="node"><title>Node23</title>
<polygon fill="none" stroke="#bfbfbf" points="560.5,-123.5 560.5,-153.5 665.5,-153.5 665.5,-123.5 560.5,-123.5"/>
<text text-anchor="start" x="568.5" y="-141.5" font-family="Helvetica,sans-Serif" font-size="10.00">boost/chrono/io/time</text>
<text text-anchor="middle" x="613" y="-130.5" font-family="Helvetica,sans-Serif" font-size="10.00">_point_io.hpp</text>
</g>
<!-- Node19&#45;&gt;Node23 -->
<g id="edge33" class="edge"><title>Node19&#45;&gt;Node23</title>
<path fill="none" stroke="midnightblue" d="M523.044,-190.475C537.663,-182.191 560.369,-169.325 579.31,-158.591"/>
<polygon fill="midnightblue" stroke="midnightblue" points="581.279,-161.498 588.254,-153.523 577.828,-155.408 581.279,-161.498"/>
</g>
<!-- Node24 -->
<g id="node24" class="node"><title>Node24</title>
<g id="a_node24"><a xlink:href="multibuf_8hpp.html" target="_top" xlink:title="multibuf.hpp">
<polygon fill="none" stroke="black" points="176,-129 176,-148 246,-148 246,-129 176,-129"/>
<text text-anchor="middle" x="211" y="-136" font-family="Helvetica,sans-Serif" font-size="10.00">multibuf.hpp</text>
</a>
</g>
</g>
<!-- Node19&#45;&gt;Node24 -->
<g id="edge34" class="edge"><title>Node19&#45;&gt;Node24</title>
<path fill="none" stroke="midnightblue" d="M465.447,-190.475C409.88,-179.343 313.015,-159.937 256.18,-148.551"/>
<polygon fill="midnightblue" stroke="midnightblue" points="256.546,-145.055 246.053,-146.522 255.17,-151.919 256.546,-145.055"/>
</g>
<!-- Node19&#45;&gt;Node26 -->
<g id="edge40" class="edge"><title>Node19&#45;&gt;Node26</title>
<path fill="none" stroke="midnightblue" d="M500.319,-190.176C488.133,-175.066 467.284,-143.854 483,-123 496.519,-105.062 553.44,-92.091 594.862,-84.8098"/>
<polygon fill="midnightblue" stroke="midnightblue" points="595.488,-88.2537 604.759,-83.1252 594.314,-81.353 595.488,-88.2537"/>
</g>
<!-- Node24&#45;&gt;Node4 -->
<g id="edge38" class="edge"><title>Node24&#45;&gt;Node4</title>
<path fill="none" stroke="midnightblue" d="M210.937,-128.681C211.335,-113.708 214.419,-83.3513 232,-67 260.567,-40.4315 374.703,-25.3405 430.28,-19.4323"/>
<polygon fill="midnightblue" stroke="midnightblue" points="430.668,-22.9109 440.257,-18.4038 429.951,-15.9478 430.668,-22.9109"/>
</g>
<!-- Node24&#45;&gt;Node15 -->
<g id="edge37" class="edge"><title>Node24&#45;&gt;Node15</title>
<path fill="none" stroke="midnightblue" d="M246.188,-135.683C361.514,-129.662 738.533,-109.47 1050,-87 1075.13,-85.187 1103.55,-82.7795 1124.78,-80.9108"/>
<polygon fill="midnightblue" stroke="midnightblue" points="1125.23,-84.3853 1134.88,-80.0152 1124.61,-77.4127 1125.23,-84.3853"/>
</g>
<!-- Node24&#45;&gt;Node21 -->
<g id="edge35" class="edge"><title>Node24&#45;&gt;Node21</title>
<path fill="none" stroke="midnightblue" d="M203.406,-128.975C195.299,-119.873 182.265,-105.241 172.237,-93.983"/>
<polygon fill="midnightblue" stroke="midnightblue" points="174.844,-91.6483 165.58,-86.5091 169.617,-96.3043 174.844,-91.6483"/>
</g>
<!-- Node25 -->
<g id="node25" class="node"><title>Node25</title>
<polygon fill="none" stroke="#bfbfbf" points="241,-67.5 241,-86.5 291,-86.5 291,-67.5 241,-67.5"/>
<text text-anchor="middle" x="266" y="-74.5" font-family="Helvetica,sans-Serif" font-size="10.00">fstream</text>
</g>
<!-- Node24&#45;&gt;Node25 -->
<g id="edge36" class="edge"><title>Node24&#45;&gt;Node25</title>
<path fill="none" stroke="midnightblue" d="M218.88,-128.975C227.294,-119.873 240.819,-105.241 251.226,-93.983"/>
<polygon fill="midnightblue" stroke="midnightblue" points="253.917,-96.2282 258.134,-86.5091 248.776,-91.4766 253.917,-96.2282"/>
</g>
<!-- Node26&#45;&gt;Node4 -->
<g id="edge41" class="edge"><title>Node26&#45;&gt;Node4</title>
<path fill="none" stroke="midnightblue" d="M614.354,-67.4751C581.799,-56.6539 525.727,-38.0153 491.157,-26.5241"/>
<polygon fill="midnightblue" stroke="midnightblue" points="492.184,-23.1775 481.591,-23.3445 489.976,-29.8202 492.184,-23.1775"/>
</g>
<!-- Node26&#45;&gt;Node7 -->
<g id="edge43" class="edge"><title>Node26&#45;&gt;Node7</title>
<path fill="none" stroke="midnightblue" d="M675.005,-68.493C678.04,-67.9475 681.07,-67.4399 684,-67 855.727,-41.2196 1061.25,-25.8561 1155.36,-19.6727"/>
<polygon fill="midnightblue" stroke="midnightblue" points="1155.71,-23.1572 1165.46,-19.0159 1155.25,-16.1719 1155.71,-23.1572"/>
</g>
<!-- Node26&#45;&gt;Node11 -->
<g id="edge42" class="edge"><title>Node26&#45;&gt;Node11</title>
<path fill="none" stroke="midnightblue" d="M667.366,-67.4751C701.874,-56.725 761.15,-38.2597 798.092,-26.7514"/>
<polygon fill="midnightblue" stroke="midnightblue" points="799.374,-30.018 807.881,-23.7021 797.292,-23.3347 799.374,-30.018"/>
</g>
<!-- Node27 -->
<g id="node27" class="node"><title>Node27</title>
<polygon fill="none" stroke="#bfbfbf" points="589.5,-0.5 589.5,-30.5 690.5,-30.5 690.5,-0.5 589.5,-0.5"/>
<text text-anchor="start" x="597.5" y="-18.5" font-family="Helvetica,sans-Serif" font-size="10.00">boost/property_tree</text>
<text text-anchor="middle" x="640" y="-7.5" font-family="Helvetica,sans-Serif" font-size="10.00">/ptree.hpp</text>
</g>
<!-- Node26&#45;&gt;Node27 -->
<g id="edge44" class="edge"><title>Node26&#45;&gt;Node27</title>
<path fill="none" stroke="midnightblue" d="M640,-67.4751C640,-60.471 640,-50.1919 640,-40.6956"/>
<polygon fill="midnightblue" stroke="midnightblue" points="643.5,-40.5229 640,-30.523 636.5,-40.523 643.5,-40.5229"/>
</g>
<!-- Node28&#45;&gt;Node4 -->
<g id="edge50" class="edge"><title>Node28&#45;&gt;Node4</title>
<path fill="none" stroke="midnightblue" d="M271.164,-249.961C238.949,-244.451 201.503,-233.125 175,-210 123.928,-165.437 77.7436,-118.338 122,-67 161.716,-20.9296 354.206,-16.236 430.124,-16.214"/>
<polygon fill="midnightblue" stroke="midnightblue" points="430.438,-19.7147 440.447,-16.2403 430.456,-12.7148 430.438,-19.7147"/>
</g>
<!-- Node28&#45;&gt;Node6 -->
<g id="edge51" class="edge"><title>Node28&#45;&gt;Node6</title>
<path fill="none" stroke="midnightblue" d="M298.971,-246.444C255.103,-236.573 183.238,-220.403 138.107,-210.249"/>
<polygon fill="midnightblue" stroke="midnightblue" points="138.874,-206.834 128.35,-208.054 137.338,-213.664 138.874,-206.834"/>
</g>
<!-- Node28&#45;&gt;Node12 -->
<g id="edge49" class="edge"><title>Node28&#45;&gt;Node12</title>
<path fill="none" stroke="midnightblue" d="M402.76,-252.117C477.522,-245.423 598.903,-223.701 674,-154 691.684,-137.587 704.629,-112.64 711.98,-95.849"/>
<polygon fill="midnightblue" stroke="midnightblue" points="715.22,-97.1752 715.827,-86.5978 708.756,-94.4876 715.22,-97.1752"/>
</g>
<!-- Node28&#45;&gt;Node26 -->
<g id="edge52" class="edge"><title>Node28&#45;&gt;Node26</title>
<path fill="none" stroke="midnightblue" d="M345.443,-246.255C353.511,-237.572 365.648,-223.624 374,-210 396.053,-174.028 379.11,-149.43 412,-123 439.592,-100.827 536.472,-87.9089 594.696,-81.9753"/>
<polygon fill="midnightblue" stroke="midnightblue" points="595.135,-85.4491 604.742,-80.9816 594.446,-78.483 595.135,-85.4491"/>
</g>
<!-- Node29 -->
<g id="node29" class="node"><title>Node29</title>
<polygon fill="none" stroke="#bfbfbf" points="309,-190.5 309,-209.5 365,-209.5 365,-190.5 309,-190.5"/>
<text text-anchor="middle" x="337" y="-197.5" font-family="Helvetica,sans-Serif" font-size="10.00">algorithm</text>
</g>
<!-- Node28&#45;&gt;Node29 -->
<g id="edge46" class="edge"><title>Node28&#45;&gt;Node29</title>
<path fill="none" stroke="midnightblue" d="M337,-246.083C337,-239.006 337,-228.861 337,-219.986"/>
<polygon fill="midnightblue" stroke="midnightblue" points="340.5,-219.751 337,-209.751 333.5,-219.751 340.5,-219.751"/>
</g>
<!-- Node30 -->
<g id="node30" class="node"><title>Node30</title>
<polygon fill="none" stroke="#bfbfbf" points="184.5,-190.5 184.5,-209.5 231.5,-209.5 231.5,-190.5 184.5,-190.5"/>
<text text-anchor="middle" x="208" y="-197.5" font-family="Helvetica,sans-Serif" font-size="10.00">iterator</text>
</g>
<!-- Node28&#45;&gt;Node30 -->
<g id="edge47" class="edge"><title>Node28&#45;&gt;Node30</title>
<path fill="none" stroke="midnightblue" d="M316.56,-246.444C295.33,-237.557 261.901,-223.563 237.745,-213.451"/>
<polygon fill="midnightblue" stroke="midnightblue" points="238.921,-210.149 228.345,-209.516 236.218,-216.606 238.921,-210.149"/>
</g>
<!-- Node31 -->
<g id="node31" class="node"><title>Node31</title>
<polygon fill="none" stroke="#bfbfbf" points="249.5,-190.5 249.5,-209.5 290.5,-209.5 290.5,-190.5 249.5,-190.5"/>
<text text-anchor="middle" x="270" y="-197.5" font-family="Helvetica,sans-Serif" font-size="10.00">regex</text>
</g>
<!-- Node28&#45;&gt;Node31 -->
<g id="edge48" class="edge"><title>Node28&#45;&gt;Node31</title>
<path fill="none" stroke="midnightblue" d="M326.235,-246.324C316.234,-238.263 301.113,-226.077 289.07,-216.369"/>
<polygon fill="midnightblue" stroke="midnightblue" points="290.943,-213.384 280.961,-209.834 286.55,-218.834 290.943,-213.384"/>
</g>
<!-- Node32&#45;&gt;Node7 -->
<g id="edge54" class="edge"><title>Node32&#45;&gt;Node7</title>
<path fill="none" stroke="midnightblue" d="M1171.21,-246.414C1187.85,-239.445 1208.06,-227.809 1218,-210 1249.81,-153.022 1227.11,-71.3221 1214.23,-35.0574"/>
<polygon fill="midnightblue" stroke="midnightblue" points="1217.39,-33.4949 1210.63,-25.3392 1210.83,-35.9321 1217.39,-33.4949"/>
</g>
<!-- Node33 -->
<g id="node33" class="node"><title>Node33</title>
<g id="a_node33"><a xlink:href="user__group_8hpp.html" target="_top" xlink:title="user_group.hpp">
<polygon fill="none" stroke="black" points="1126.5,-190.5 1126.5,-209.5 1209.5,-209.5 1209.5,-190.5 1126.5,-190.5"/>
<text text-anchor="middle" x="1168" y="-197.5" font-family="Helvetica,sans-Serif" font-size="10.00">user_group.hpp</text>
</a>
</g>
</g>
<!-- Node32&#45;&gt;Node33 -->
<g id="edge55" class="edge"><title>Node32&#45;&gt;Node33</title>
<path fill="none" stroke="midnightblue" d="M1148.8,-246.083C1151.91,-238.77 1156.42,-228.181 1160.29,-219.103"/>
<polygon fill="midnightblue" stroke="midnightblue" points="1163.57,-220.323 1164.27,-209.751 1157.13,-217.58 1163.57,-220.323"/>
</g>
<!-- Node33&#45;&gt;Node15 -->
<g id="edge56" class="edge"><title>Node33&#45;&gt;Node15</title>
<path fill="none" stroke="midnightblue" d="M1167.61,-190.092C1166.94,-175.88 1165.41,-147.211 1163,-123 1162.14,-114.364 1160.91,-104.832 1159.79,-96.7726"/>
<polygon fill="midnightblue" stroke="midnightblue" points="1163.21,-96.0047 1158.32,-86.6068 1156.29,-97.0041 1163.21,-96.0047"/>
</g>
<!-- Node34 -->
<g id="node34" class="node"><title>Node34</title>
<g id="a_node34"><a xlink:href="user_8hpp.html" target="_top" xlink:title="user.hpp">
<polygon fill="none" stroke="black" points="1100,-129 1100,-148 1154,-148 1154,-129 1100,-129"/>
<text text-anchor="middle" x="1127" y="-136" font-family="Helvetica,sans-Serif" font-size="10.00">user.hpp</text>
</a>
</g>
</g>
<!-- Node33&#45;&gt;Node34 -->
<g id="edge57" class="edge"><title>Node33&#45;&gt;Node34</title>
<path fill="none" stroke="midnightblue" d="M1162.13,-190.475C1156.04,-181.638 1146.36,-167.589 1138.7,-156.475"/>
<polygon fill="midnightblue" stroke="midnightblue" points="1141.42,-154.258 1132.86,-148.009 1135.66,-158.229 1141.42,-154.258"/>
</g>
<!-- Node34&#45;&gt;Node4 -->
<g id="edge58" class="edge"><title>Node34&#45;&gt;Node4</title>
<path fill="none" stroke="midnightblue" d="M1107.81,-128.967C1102.45,-126.802 1096.56,-124.631 1091,-123 1074.99,-118.306 812.445,-69.7994 796,-67 684.373,-47.9983 551.183,-29.0164 491.991,-20.7706"/>
<polygon fill="midnightblue" stroke="midnightblue" points="492.208,-17.2673 481.821,-19.3583 491.245,-24.2007 492.208,-17.2673"/>
</g>
<!-- Node34&#45;&gt;Node7 -->
<g id="edge60" class="edge"><title>Node34&#45;&gt;Node7</title>
<path fill="none" stroke="midnightblue" d="M1141.81,-128.998C1155.77,-120.227 1176.25,-105.273 1188,-87 1198.05,-71.3647 1202.82,-50.5124 1205.06,-35.5484"/>
<polygon fill="midnightblue" stroke="midnightblue" points="1208.56,-35.7946 1206.33,-25.437 1201.61,-34.9242 1208.56,-35.7946"/>
</g>
<!-- Node34&#45;&gt;Node15 -->
<g id="edge59" class="edge"><title>Node34&#45;&gt;Node15</title>
<path fill="none" stroke="midnightblue" d="M1131.3,-128.975C1135.66,-120.315 1142.56,-106.649 1148.1,-95.6453"/>
<polygon fill="midnightblue" stroke="midnightblue" points="1151.33,-97.0141 1152.71,-86.5091 1145.08,-93.8625 1151.33,-97.0141"/>
</g>
<!-- Node34&#45;&gt;Node26 -->
<g id="edge61" class="edge"><title>Node34&#45;&gt;Node26</title>
<path fill="none" stroke="midnightblue" d="M1108.66,-128.902C1103.1,-126.628 1096.9,-124.415 1091,-123 917.61,-81.3835 865.564,-112.084 685.095,-86.976"/>
<polygon fill="midnightblue" stroke="midnightblue" points="685.396,-83.4836 675.001,-85.5327 684.405,-90.4131 685.396,-83.4836"/>
</g>
<!-- Node35&#45;&gt;Node34 -->
<g id="edge63" class="edge"><title>Node35&#45;&gt;Node34</title>
<path fill="none" stroke="midnightblue" d="M983.65,-246.319C1009.91,-226.753 1073.97,-179.017 1106.83,-154.53"/>
<polygon fill="midnightblue" stroke="midnightblue" points="1109.29,-157.064 1115.21,-148.282 1105.1,-151.451 1109.29,-157.064"/>
</g>
<!-- Node36 -->
<g id="node36" class="node"><title>Node36</title>
<polygon fill="none" stroke="#bfbfbf" points="957.5,-190.5 957.5,-209.5 986.5,-209.5 986.5,-190.5 957.5,-190.5"/>
<text text-anchor="middle" x="972" y="-197.5" font-family="Helvetica,sans-Serif" font-size="10.00">list</text>
</g>
<!-- Node35&#45;&gt;Node36 -->
<g id="edge64" class="edge"><title>Node35&#45;&gt;Node36</title>
<path fill="none" stroke="midnightblue" d="M972,-246.083C972,-239.006 972,-228.861 972,-219.986"/>
<polygon fill="midnightblue" stroke="midnightblue" points="975.5,-219.751 972,-209.751 968.5,-219.751 975.5,-219.751"/>
</g>
<!-- Node37&#45;&gt;Node7 -->
<g id="edge74" class="edge"><title>Node37&#45;&gt;Node7</title>
<path fill="none" stroke="midnightblue" d="M1232.35,-358.426C1256.53,-329.892 1332,-237.859 1332,-201 1332,-201 1332,-201 1332,-137.5 1332,-84.8211 1273.98,-47.7577 1237,-29.4842"/>
<polygon fill="midnightblue" stroke="midnightblue" points="1238.18,-26.1699 1227.64,-25.0377 1235.17,-32.492 1238.18,-26.1699"/>
</g>
<!-- Node37&#45;&gt;Node8 -->
<g id="edge82" class="edge"><title>Node37&#45;&gt;Node8</title>
<path fill="none" stroke="midnightblue" d="M1184.98,-360.7C1126.28,-351.459 1016.23,-334.132 946.154,-323.1"/>
<polygon fill="midnightblue" stroke="midnightblue" points="946.539,-319.618 936.117,-321.52 945.45,-326.532 946.539,-319.618"/>
</g>
<!-- Node37&#45;&gt;Node9 -->
<g id="edge69" class="edge"><title>Node37&#45;&gt;Node9</title>
<path fill="none" stroke="midnightblue" d="M1226.41,-358.368C1229.32,-340.617 1236.02,-299.666 1239.96,-275.597"/>
<polygon fill="midnightblue" stroke="midnightblue" points="1243.43,-276.025 1241.59,-265.591 1236.53,-274.895 1243.43,-276.025"/>
</g>
<!-- Node37&#45;&gt;Node22 -->
<g id="edge71" class="edge"><title>Node37&#45;&gt;Node22</title>
<path fill="none" stroke="midnightblue" d="M1202.89,-358.494C1169.95,-344.571 1108.67,-313.605 1079,-266 1058.13,-232.508 1057.08,-184.559 1058.39,-158.362"/>
<polygon fill="midnightblue" stroke="midnightblue" points="1061.89,-158.492 1059.07,-148.279 1054.9,-158.02 1061.89,-158.492"/>
</g>
<!-- Node37&#45;&gt;Node26 -->
<g id="edge81" class="edge"><title>Node37&#45;&gt;Node26</title>
<path fill="none" stroke="midnightblue" d="M1184.78,-366.937C1059.93,-366.325 685.268,-361.211 649,-322 588.473,-256.56 702.338,-207.515 674,-123 670.396,-112.251 663.097,-102.02 656.183,-94.0378"/>
<polygon fill="midnightblue" stroke="midnightblue" points="658.655,-91.5561 649.288,-86.6053 653.523,-96.3168 658.655,-91.5561"/>
</g>
<!-- Node38 -->
<g id="node38" class="node"><title>Node38</title>
<polygon fill="none" stroke="#bfbfbf" points="1398.5,-246.5 1398.5,-265.5 1493.5,-265.5 1493.5,-246.5 1398.5,-246.5"/>
<text text-anchor="middle" x="1446" y="-253.5" font-family="Helvetica,sans-Serif" font-size="10.00">condition_variable</text>
</g>
<!-- Node37&#45;&gt;Node38 -->
<g id="edge70" class="edge"><title>Node37&#45;&gt;Node38</title>
<path fill="none" stroke="midnightblue" d="M1265.29,-362.769C1317.05,-356.547 1402.96,-343.304 1426,-322 1438.72,-310.236 1443.43,-290.596 1445.13,-275.978"/>
<polygon fill="midnightblue" stroke="midnightblue" points="1448.66,-275.821 1445.95,-265.578 1441.68,-275.273 1448.66,-275.821"/>
</g>
<!-- Node39 -->
<g id="node39" class="node"><title>Node39</title>
<polygon fill="none" stroke="#bfbfbf" points="1511.5,-246.5 1511.5,-265.5 1554.5,-265.5 1554.5,-246.5 1511.5,-246.5"/>
<text text-anchor="middle" x="1533" y="-253.5" font-family="Helvetica,sans-Serif" font-size="10.00">queue</text>
</g>
<!-- Node37&#45;&gt;Node39 -->
<g id="edge72" class="edge"><title>Node37&#45;&gt;Node39</title>
<path fill="none" stroke="midnightblue" d="M1265.16,-366.835C1338.73,-365.629 1490.83,-358.645 1526,-322 1537.65,-309.862 1538.15,-289.991 1536.52,-275.409"/>
<polygon fill="midnightblue" stroke="midnightblue" points="1539.97,-274.858 1534.99,-265.506 1533.05,-275.921 1539.97,-274.858"/>
</g>
<!-- Node40 -->
<g id="node40" class="node"><title>Node40</title>
<polygon fill="none" stroke="#bfbfbf" points="1473,-302.5 1473,-321.5 1517,-321.5 1517,-302.5 1473,-302.5"/>
<text text-anchor="middle" x="1495" y="-309.5" font-family="Helvetica,sans-Serif" font-size="10.00">thread</text>
</g>
<!-- Node37&#45;&gt;Node40 -->
<g id="edge73" class="edge"><title>Node37&#45;&gt;Node40</title>
<path fill="none" stroke="midnightblue" d="M1265.3,-359.945C1312.04,-351.602 1391.34,-336.952 1459,-322 1460.27,-321.719 1461.57,-321.425 1462.88,-321.124"/>
<polygon fill="midnightblue" stroke="midnightblue" points="1464.05,-324.443 1472.96,-318.714 1462.42,-317.635 1464.05,-324.443"/>
</g>
<!-- Node41 -->
<g id="node41" class="node"><title>Node41</title>
<g id="a_node41"><a xlink:href="concurrent__container_8hpp.html" target="_top" xlink:title="concurrent_container.hpp">
<polygon fill="none" stroke="black" points="1291,-302.5 1291,-321.5 1417,-321.5 1417,-302.5 1291,-302.5"/>
<text text-anchor="middle" x="1354" y="-309.5" font-family="Helvetica,sans-Serif" font-size="10.00">concurrent_container.hpp</text>
</a>
</g>
</g>
<!-- Node37&#45;&gt;Node41 -->
<g id="edge75" class="edge"><title>Node37&#45;&gt;Node41</title>
<path fill="none" stroke="midnightblue" d="M1245.44,-358.444C1266.67,-349.557 1300.1,-335.563 1324.25,-325.451"/>
<polygon fill="midnightblue" stroke="midnightblue" points="1325.78,-328.606 1333.66,-321.516 1323.08,-322.149 1325.78,-328.606"/>
</g>
<!-- Node42 -->
<g id="node42" class="node"><title>Node42</title>
<g id="a_node42"><a xlink:href="handler__container_8hpp.html" target="_top" xlink:title="handler/handler_container.hpp">
<polygon fill="none" stroke="black" points="658,-302.5 658,-321.5 804,-321.5 804,-302.5 658,-302.5"/>
<text text-anchor="middle" x="731" y="-309.5" font-family="Helvetica,sans-Serif" font-size="10.00">handler/handler_container.hpp</text>
</a>
</g>
</g>
<!-- Node37&#45;&gt;Node42 -->
<g id="edge83" class="edge"><title>Node37&#45;&gt;Node42</title>
<path fill="none" stroke="midnightblue" d="M1184.94,-362.631C1113.02,-354.787 956.974,-337.761 814.547,-322.169"/>
<polygon fill="midnightblue" stroke="midnightblue" points="814.639,-318.658 804.317,-321.049 813.877,-325.617 814.639,-318.658"/>
</g>
<!-- Node41&#45;&gt;Node3 -->
<g id="edge78" class="edge"><title>Node41&#45;&gt;Node3</title>
<path fill="none" stroke="midnightblue" d="M1355.32,-302.431C1360.54,-268.683 1379.73,-144.47 1387.1,-96.7991"/>
<polygon fill="midnightblue" stroke="midnightblue" points="1390.56,-97.313 1388.63,-86.8958 1383.64,-96.244 1390.56,-97.313"/>
</g>
<!-- Node41&#45;&gt;Node9 -->
<g id="edge76" class="edge"><title>Node41&#45;&gt;Node9</title>
<path fill="none" stroke="midnightblue" d="M1336.17,-302.324C1318.28,-293.625 1290.52,-280.12 1269.95,-270.113"/>
<polygon fill="midnightblue" stroke="midnightblue" points="1271.31,-266.882 1260.79,-265.655 1268.25,-273.177 1271.31,-266.882"/>
</g>
<!-- Node41&#45;&gt;Node15 -->
<g id="edge80" class="edge"><title>Node41&#45;&gt;Node15</title>
<path fill="none" stroke="midnightblue" d="M1346.76,-302.431C1317.8,-268.185 1210.08,-140.782 1171.15,-94.7377"/>
<polygon fill="midnightblue" stroke="midnightblue" points="1173.65,-92.2723 1164.52,-86.8958 1168.31,-96.7919 1173.65,-92.2723"/>
</g>
<!-- Node41&#45;&gt;Node38 -->
<g id="edge77" class="edge"><title>Node41&#45;&gt;Node38</title>
<path fill="none" stroke="midnightblue" d="M1368.78,-302.324C1383.27,-293.822 1405.57,-280.729 1422.49,-270.797"/>
<polygon fill="midnightblue" stroke="midnightblue" points="1424.4,-273.735 1431.26,-265.655 1420.86,-267.698 1424.4,-273.735"/>
</g>
<!-- Node41&#45;&gt;Node39 -->
<g id="edge79" class="edge"><title>Node41&#45;&gt;Node39</title>
<path fill="none" stroke="midnightblue" d="M1382.36,-302.444C1414.79,-292.66 1467.74,-276.688 1501.44,-266.519"/>
<polygon fill="midnightblue" stroke="midnightblue" points="1502.68,-269.802 1511.24,-263.563 1500.66,-263.1 1502.68,-269.802"/>
</g>
<!-- Node42&#45;&gt;Node26 -->
<g id="edge84" class="edge"><title>Node42&#45;&gt;Node26</title>
<path fill="none" stroke="midnightblue" d="M729.813,-302.378C728.576,-293.323 726.597,-278.668 725,-266 716.993,-202.5 741.577,-177.488 708,-123 699.431,-109.095 684.774,-98.5833 671.257,-91.2306"/>
<polygon fill="midnightblue" stroke="midnightblue" points="672.674,-88.0253 662.17,-86.6421 669.519,-94.2739 672.674,-88.0253"/>
</g>
</g>
</svg>
