<?xml version="1.0" encoding="UTF-8" standalone="no"?>
<!DOCTYPE svg PUBLIC "-//W3C//DTD SVG 1.1//EN"
 "http://www.w3.org/Graphics/SVG/1.1/DTD/svg11.dtd">
<!-- Generated by graphviz version 2.38.0 (20140413.2041)
 -->
<!-- Title: src/handler/handler_container.hpp Pages: 1 -->
<!--zoomable 419 -->
<svg id="main" version="1.1" xmlns="http://www.w3.org/2000/svg" xmlns:xlink="http://www.w3.org/1999/xlink" xml:space="preserve" onload="init(evt)">
<style type="text/css"><![CDATA[
.edge:hover path { stroke: red; }
.edge:hover polygon { stroke: red; fill: red; }
]]></style>
<script type="text/javascript"><![CDATA[
var edges = document.getElementsByTagName('g');
if (edges && edges.length) {
  for (var i=0;i<edges.length;i++) {
    if (edges[i].id.substr(0,4)=='edge') {
      edges[i].setAttribute('class','edge');
    }
  }
}
]]></script>
        <defs>
                <circle id="rim" cx="0" cy="0" r="7"/>
                <circle id="rim2" cx="0" cy="0" r="3.5"/>
                <g id="zoomPlus">
                        <use xlink:href="#rim" fill="#404040">
                                <set attributeName="fill" to="#808080" begin="zoomplus.mouseover" end="zoomplus.mouseout"/>
                        </use>
                        <path d="M-4,0h8M0,-4v8" fill="none" stroke="white" stroke-width="1.5" pointer-events="none"/>
                </g>
                <g id="zoomMin">
                        <use xlink:href="#rim" fill="#404040">
                                <set attributeName="fill" to="#808080" begin="zoomminus.mouseover" end="zoomminus.mouseout"/>
                        </use>
                        <path d="M-4,0h8" fill="none" stroke="white" stroke-width="1.5" pointer-events="none"/>
                </g>
                <g id="dirArrow">
                        <path fill="none" stroke="white" stroke-width="1.5" d="M0,-3.0v7 M-2.5,-0.5L0,-3.0L2.5,-0.5"/>
                </g>
               <g id="resetDef">
                       <use xlink:href="#rim2" fill="#404040">
                               <set attributeName="fill" to="#808080" begin="reset.mouseover" end="reset.mouseout"/>
                       </use>
               </g>
        </defs>

<script type="text/javascript">
var viewWidth = 1770;
var viewHeight = 419;
var sectionId = 'dynsection-1';
</script>
<script xlink:href="svgpan.js"/>
<svg id="graph" class="graph">
<g id="viewport">
<title>src/handler/handler_container.hpp</title>
<!-- Node1 -->
<g id="node1" class="node"><title>Node1</title>
<polygon fill="#bfbfbf" stroke="black" points="1184,-380.5 1184,-410.5 1283,-410.5 1283,-380.5 1184,-380.5"/>
<text text-anchor="start" x="1192" y="-398.5" font-family="Helvetica,sans-Serif" font-size="10.00">src/handler/handler</text>
<text text-anchor="middle" x="1233.5" y="-387.5" font-family="Helvetica,sans-Serif" font-size="10.00">_container.hpp</text>
</g>
<!-- Node2 -->
<g id="node2" class="node"><title>Node2</title>
<g id="a_node2"><a xlink:href="melanobot_8hpp.html" target="_top" xlink:title="src/melanobot.hpp">
<polygon fill="none" stroke="black" points="1185,-324.5 1185,-343.5 1282,-343.5 1282,-324.5 1185,-324.5"/>
<text text-anchor="middle" x="1233.5" y="-331.5" font-family="Helvetica,sans-Serif" font-size="10.00">src/melanobot.hpp</text>
</a>
</g>
</g>
<!-- Node1&#45;&gt;Node2 -->
<g id="edge1" class="edge"><title>Node1&#45;&gt;Node2</title>
<path fill="none" stroke="midnightblue" d="M1233.5,-370.289C1233.5,-360.857 1233.5,-350.655 1233.5,-343.658"/>
<polygon fill="midnightblue" stroke="midnightblue" points="1230,-370.399 1233.5,-380.399 1237,-370.399 1230,-370.399"/>
</g>
<!-- Node3 -->
<g id="node3" class="node"><title>Node3</title>
<g id="a_node3"><a xlink:href="melanobot_8cpp.html" target="_top" xlink:title="src/melanobot.cpp">
<polygon fill="none" stroke="black" points="0,-196 0,-215 97,-215 97,-196 0,-196"/>
<text text-anchor="middle" x="48.5" y="-203" font-family="Helvetica,sans-Serif" font-size="10.00">src/melanobot.cpp</text>
</a>
</g>
</g>
<!-- Node2&#45;&gt;Node3 -->
<g id="edge2" class="edge"><title>Node2&#45;&gt;Node3</title>
<path fill="none" stroke="midnightblue" d="M1174.38,-330.749C1056.05,-325.878 781.774,-312.753 552.5,-288 353.212,-266.484 303.068,-260.242 106.5,-221 97.9501,-219.293 88.7664,-217.145 80.2854,-215.03"/>
<polygon fill="midnightblue" stroke="midnightblue" points="1174.53,-334.258 1184.66,-331.168 1174.81,-327.264 1174.53,-334.258"/>
</g>
<!-- Node4 -->
<g id="node4" class="node"><title>Node4</title>
<g id="a_node4"><a xlink:href="handler_8hpp.html" target="_top" xlink:title="src/handler/handler.hpp">
<polygon fill="none" stroke="black" points="561.5,-263 561.5,-282 679.5,-282 679.5,-263 561.5,-263"/>
<text text-anchor="middle" x="620.5" y="-270" font-family="Helvetica,sans-Serif" font-size="10.00">src/handler/handler.hpp</text>
</a>
</g>
</g>
<!-- Node2&#45;&gt;Node4 -->
<g id="edge3" class="edge"><title>Node2&#45;&gt;Node4</title>
<path fill="none" stroke="midnightblue" d="M1174.7,-327.292C1057.73,-315.939 797.09,-290.64 679.757,-279.252"/>
<polygon fill="midnightblue" stroke="midnightblue" points="1174.6,-330.799 1184.89,-328.281 1175.27,-323.832 1174.6,-330.799"/>
</g>
<!-- Node6 -->
<g id="node6" class="node"><title>Node6</title>
<g id="a_node6"><a xlink:href="main_8cpp.html" target="_top" xlink:title="src/main.cpp">
<polygon fill="none" stroke="black" points="1066,-129 1066,-148 1139,-148 1139,-129 1066,-129"/>
<text text-anchor="middle" x="1102.5" y="-136" font-family="Helvetica,sans-Serif" font-size="10.00">src/main.cpp</text>
</a>
</g>
</g>
<!-- Node2&#45;&gt;Node6 -->
<g id="edge39" class="edge"><title>Node2&#45;&gt;Node6</title>
<path fill="none" stroke="midnightblue" d="M1223.11,-315.535C1218.4,-307.31 1212.9,-297.286 1208.5,-288 1188.41,-245.646 1197.94,-227.267 1169.5,-190 1155.63,-171.82 1133.57,-156.945 1118.59,-148.159"/>
<polygon fill="midnightblue" stroke="midnightblue" points="1220.11,-317.34 1228.18,-324.212 1226.16,-313.811 1220.11,-317.34"/>
</g>
<!-- Node28 -->
<g id="node28" class="node"><title>Node28</title>
<g id="a_node28"><a xlink:href="stdin_8hpp.html" target="_top" xlink:title="modules/posix/stdin.hpp">
<polygon fill="none" stroke="black" points="1217.5,-263 1217.5,-282 1339.5,-282 1339.5,-263 1217.5,-263"/>
<text text-anchor="middle" x="1278.5" y="-270" font-family="Helvetica,sans-Serif" font-size="10.00">modules/posix/stdin.hpp</text>
</a>
</g>
</g>
<!-- Node2&#45;&gt;Node28 -->
<g id="edge40" class="edge"><title>Node2&#45;&gt;Node28</title>
<path fill="none" stroke="midnightblue" d="M1246.1,-316.338C1254.55,-305.169 1265.32,-290.928 1272.06,-282.009"/>
<polygon fill="midnightblue" stroke="midnightblue" points="1243.19,-314.388 1239.95,-324.475 1248.77,-318.611 1243.19,-314.388"/>
</g>
<!-- Node29 -->
<g id="node29" class="node"><title>Node29</title>
<g id="a_node29"><a xlink:href="xonotic-connection_8hpp.html" target="_top" xlink:title="modules/xonotic/xonotic\l&#45;connection.hpp">
<polygon fill="none" stroke="black" points="1357.5,-257.5 1357.5,-287.5 1479.5,-287.5 1479.5,-257.5 1357.5,-257.5"/>
<text text-anchor="start" x="1365.5" y="-275.5" font-family="Helvetica,sans-Serif" font-size="10.00">modules/xonotic/xonotic</text>
<text text-anchor="middle" x="1418.5" y="-264.5" font-family="Helvetica,sans-Serif" font-size="10.00">&#45;connection.hpp</text>
</a>
</g>
</g>
<!-- Node2&#45;&gt;Node29 -->
<g id="edge42" class="edge"><title>Node2&#45;&gt;Node29</title>
<path fill="none" stroke="midnightblue" d="M1269.7,-321.357C1299.85,-311.662 1342.86,-297.826 1374.9,-287.523"/>
<polygon fill="midnightblue" stroke="midnightblue" points="1268.45,-318.081 1260.01,-324.475 1270.6,-324.745 1268.45,-318.081"/>
</g>
<!-- Node31 -->
<g id="node31" class="node"><title>Node31</title>
<g id="a_node31"><a xlink:href="modules_2irc_2network_2connection_8hpp.html" target="_top" xlink:title="modules/irc/network\l/connection.hpp">
<polygon fill="none" stroke="black" points="1516.5,-257.5 1516.5,-287.5 1620.5,-287.5 1620.5,-257.5 1516.5,-257.5"/>
<text text-anchor="start" x="1524.5" y="-275.5" font-family="Helvetica,sans-Serif" font-size="10.00">modules/irc/network</text>
<text text-anchor="middle" x="1568.5" y="-264.5" font-family="Helvetica,sans-Serif" font-size="10.00">/connection.hpp</text>
</a>
</g>
</g>
<!-- Node2&#45;&gt;Node31 -->
<g id="edge45" class="edge"><title>Node2&#45;&gt;Node31</title>
<path fill="none" stroke="midnightblue" d="M1292.38,-322.688C1344.08,-313.617 1421.29,-300.021 1488.5,-288 1497.53,-286.385 1507.13,-284.655 1516.44,-282.973"/>
<polygon fill="midnightblue" stroke="midnightblue" points="1291.64,-319.265 1282.4,-324.44 1292.85,-326.16 1291.64,-319.265"/>
</g>
<!-- Node4&#45;&gt;Node3 -->
<g id="edge4" class="edge"><title>Node4&#45;&gt;Node3</title>
<path fill="none" stroke="midnightblue" d="M550.953,-267.919C451.747,-262.076 264.149,-248.298 106.5,-221 97.5001,-219.442 87.8341,-217.241 79.0234,-215.024"/>
<polygon fill="midnightblue" stroke="midnightblue" points="550.963,-271.426 561.148,-268.51 551.368,-264.437 550.963,-271.426"/>
</g>
<!-- Node5 -->
<g id="node5" class="node"><title>Node5</title>
<g id="a_node5"><a xlink:href="melanomodule_8hpp.html" target="_top" xlink:title="src/melanomodule.hpp">
<polygon fill="none" stroke="black" points="1046,-196 1046,-215 1161,-215 1161,-196 1046,-196"/>
<text text-anchor="middle" x="1103.5" y="-203" font-family="Helvetica,sans-Serif" font-size="10.00">src/melanomodule.hpp</text>
</a>
</g>
</g>
<!-- Node4&#45;&gt;Node5 -->
<g id="edge5" class="edge"><title>Node4&#45;&gt;Node5</title>
<path fill="none" stroke="midnightblue" d="M689.689,-265.075C772.472,-256.932 915.12,-241.457 1036.5,-221 1046.48,-219.319 1057.21,-217.155 1067.11,-215.016"/>
<polygon fill="midnightblue" stroke="midnightblue" points="689.261,-261.6 679.648,-266.055 689.941,-268.567 689.261,-261.6"/>
</g>
<!-- Node13 -->
<g id="node13" class="node"><title>Node13</title>
<g id="a_node13"><a xlink:href="web-api_8hpp.html" target="_top" xlink:title="modules/web/web&#45;api.hpp">
<polygon fill="none" stroke="black" points="255.5,-196 255.5,-215 385.5,-215 385.5,-196 255.5,-196"/>
<text text-anchor="middle" x="320.5" y="-203" font-family="Helvetica,sans-Serif" font-size="10.00">modules/web/web&#45;api.hpp</text>
</a>
</g>
</g>
<!-- Node4&#45;&gt;Node13 -->
<g id="edge13" class="edge"><title>Node4&#45;&gt;Node13</title>
<path fill="none" stroke="midnightblue" d="M571.129,-260.803C512.093,-248.012 414.459,-226.858 360.116,-215.083"/>
<polygon fill="midnightblue" stroke="midnightblue" points="570.457,-264.239 580.972,-262.936 571.94,-257.397 570.457,-264.239"/>
</g>
<!-- Node17 -->
<g id="node17" class="node"><title>Node17</title>
<g id="a_node17"><a xlink:href="simple-group_8hpp.html" target="_top" xlink:title="modules/core/handler\l/simple&#45;group.hpp">
<polygon fill="none" stroke="black" points="403.5,-190.5 403.5,-220.5 513.5,-220.5 513.5,-190.5 403.5,-190.5"/>
<text text-anchor="start" x="411.5" y="-208.5" font-family="Helvetica,sans-Serif" font-size="10.00">modules/core/handler</text>
<text text-anchor="middle" x="458.5" y="-197.5" font-family="Helvetica,sans-Serif" font-size="10.00">/simple&#45;group.hpp</text>
</a>
</g>
</g>
<!-- Node4&#45;&gt;Node17 -->
<g id="edge19" class="edge"><title>Node4&#45;&gt;Node17</title>
<path fill="none" stroke="midnightblue" d="M589.49,-259.058C562.048,-248.047 522.034,-231.992 493.462,-220.528"/>
<polygon fill="midnightblue" stroke="midnightblue" points="588.403,-262.393 598.988,-262.869 591.01,-255.896 588.403,-262.393"/>
</g>
<!-- Node22 -->
<g id="node22" class="node"><title>Node22</title>
<g id="a_node22"><a xlink:href="misc_8hpp.html" target="_top" xlink:title="This file defines handlers which perform miscellaneous tasks. ">
<polygon fill="none" stroke="black" points="697.5,-123.5 697.5,-153.5 807.5,-153.5 807.5,-123.5 697.5,-123.5"/>
<text text-anchor="start" x="705.5" y="-141.5" font-family="Helvetica,sans-Serif" font-size="10.00">modules/core/handler</text>
<text text-anchor="middle" x="752.5" y="-130.5" font-family="Helvetica,sans-Serif" font-size="10.00">/misc.hpp</text>
</a>
</g>
</g>
<!-- Node4&#45;&gt;Node22 -->
<g id="edge28" class="edge"><title>Node4&#45;&gt;Node22</title>
<path fill="none" stroke="midnightblue" d="M597.164,-257.136C573.466,-240.742 542.616,-213.196 560.5,-190 564.808,-184.413 642.161,-165.311 697.351,-152.27"/>
<polygon fill="midnightblue" stroke="midnightblue" points="595.509,-260.238 605.78,-262.841 599.374,-254.402 595.509,-260.238"/>
</g>
<!-- Node23 -->
<g id="node23" class="node"><title>Node23</title>
<g id="a_node23"><a xlink:href="irc__actions_8hpp.html" target="_top" xlink:title="File containing Handlers which manage responses to various IRC commands. ">
<polygon fill="none" stroke="black" points="570,-190.5 570,-220.5 671,-220.5 671,-190.5 570,-190.5"/>
<text text-anchor="start" x="578" y="-208.5" font-family="Helvetica,sans-Serif" font-size="10.00">modules/irc/handler</text>
<text text-anchor="middle" x="620.5" y="-197.5" font-family="Helvetica,sans-Serif" font-size="10.00">/irc_actions.hpp</text>
</a>
</g>
</g>
<!-- Node4&#45;&gt;Node23 -->
<g id="edge30" class="edge"><title>Node4&#45;&gt;Node23</title>
<path fill="none" stroke="midnightblue" d="M620.5,-252.411C620.5,-242.222 620.5,-229.901 620.5,-220.589"/>
<polygon fill="midnightblue" stroke="midnightblue" points="617,-252.734 620.5,-262.734 624,-252.734 617,-252.734"/>
</g>
<!-- Node24 -->
<g id="node24" class="node"><title>Node24</title>
<g id="a_node24"><a xlink:href="ctcp_8hpp.html" target="_top" xlink:title="This files has handlers for CTCP messages. ">
<polygon fill="none" stroke="black" points="689,-190.5 689,-220.5 790,-220.5 790,-190.5 689,-190.5"/>
<text text-anchor="start" x="697" y="-208.5" font-family="Helvetica,sans-Serif" font-size="10.00">modules/irc/handler</text>
<text text-anchor="middle" x="739.5" y="-197.5" font-family="Helvetica,sans-Serif" font-size="10.00">/ctcp.hpp</text>
</a>
</g>
</g>
<!-- Node4&#45;&gt;Node24 -->
<g id="edge32" class="edge"><title>Node4&#45;&gt;Node24</title>
<path fill="none" stroke="midnightblue" d="M645.396,-257.902C665.417,-246.966 693.45,-231.653 713.706,-220.589"/>
<polygon fill="midnightblue" stroke="midnightblue" points="643.647,-254.868 636.549,-262.734 647.003,-261.012 643.647,-254.868"/>
</g>
<!-- Node25 -->
<g id="node25" class="node"><title>Node25</title>
<g id="a_node25"><a xlink:href="irc__admin_8hpp.html" target="_top" xlink:title="This file defines handlers which allows admin to administrate the bot (IRC&#45;specific actions) ...">
<polygon fill="none" stroke="black" points="808,-190.5 808,-220.5 909,-220.5 909,-190.5 808,-190.5"/>
<text text-anchor="start" x="816" y="-208.5" font-family="Helvetica,sans-Serif" font-size="10.00">modules/irc/handler</text>
<text text-anchor="middle" x="858.5" y="-197.5" font-family="Helvetica,sans-Serif" font-size="10.00">/irc_admin.hpp</text>
</a>
</g>
</g>
<!-- Node4&#45;&gt;Node25 -->
<g id="edge34" class="edge"><title>Node4&#45;&gt;Node25</title>
<path fill="none" stroke="midnightblue" d="M661.916,-260.189C702.402,-249.132 764.125,-232.275 807.587,-220.405"/>
<polygon fill="midnightblue" stroke="midnightblue" points="660.829,-256.857 652.105,-262.869 662.673,-263.61 660.829,-256.857"/>
</g>
<!-- Node26 -->
<g id="node26" class="node"><title>Node26</title>
<g id="a_node26"><a xlink:href="irc__whois_8hpp.html" target="_top" xlink:title="This file contains handlers for WHOIS recognition on IRC. ">
<polygon fill="none" stroke="black" points="927,-190.5 927,-220.5 1028,-220.5 1028,-190.5 927,-190.5"/>
<text text-anchor="start" x="935" y="-208.5" font-family="Helvetica,sans-Serif" font-size="10.00">modules/irc/handler</text>
<text text-anchor="middle" x="977.5" y="-197.5" font-family="Helvetica,sans-Serif" font-size="10.00">/irc_whois.hpp</text>
</a>
</g>
</g>
<!-- Node4&#45;&gt;Node26 -->
<g id="edge36" class="edge"><title>Node4&#45;&gt;Node26</title>
<path fill="none" stroke="midnightblue" d="M687.815,-261.406C748.173,-252.033 839.045,-237.13 917.5,-221 920.544,-220.374 923.669,-219.704 926.816,-219.008"/>
<polygon fill="midnightblue" stroke="midnightblue" points="687.002,-257.989 677.654,-262.976 688.071,-264.907 687.002,-257.989"/>
</g>
<!-- Node27 -->
<g id="node27" class="node"><title>Node27</title>
<g id="a_node27"><a xlink:href="chat_8hpp.html" target="_top" xlink:title="modules/xonotic/handler\l/chat.hpp">
<polygon fill="none" stroke="black" points="115.5,-190.5 115.5,-220.5 237.5,-220.5 237.5,-190.5 115.5,-190.5"/>
<text text-anchor="start" x="123.5" y="-208.5" font-family="Helvetica,sans-Serif" font-size="10.00">modules/xonotic/handler</text>
<text text-anchor="middle" x="176.5" y="-197.5" font-family="Helvetica,sans-Serif" font-size="10.00">/chat.hpp</text>
</a>
</g>
</g>
<!-- Node4&#45;&gt;Node27 -->
<g id="edge38" class="edge"><title>Node4&#45;&gt;Node27</title>
<path fill="none" stroke="midnightblue" d="M551.067,-263.6C475.81,-254.694 352.286,-239.075 246.5,-221 243.564,-220.498 240.563,-219.963 237.536,-219.406"/>
<polygon fill="midnightblue" stroke="midnightblue" points="551.018,-267.119 561.359,-264.812 551.837,-260.167 551.018,-267.119"/>
</g>
<!-- Node5&#45;&gt;Node6 -->
<g id="edge6" class="edge"><title>Node5&#45;&gt;Node6</title>
<path fill="none" stroke="midnightblue" d="M1103.21,-185.537C1103.02,-173.17 1102.78,-157.62 1102.63,-148.127"/>
<polygon fill="midnightblue" stroke="midnightblue" points="1099.71,-185.789 1103.37,-195.734 1106.71,-185.681 1099.71,-185.789"/>
</g>
<!-- Node7 -->
<g id="node7" class="node"><title>Node7</title>
<g id="a_node7"><a xlink:href="posix_8cpp.html" target="_top" xlink:title="modules/posix/posix.cpp">
<polygon fill="none" stroke="black" points="1157,-129 1157,-148 1282,-148 1282,-129 1157,-129"/>
<text text-anchor="middle" x="1219.5" y="-136" font-family="Helvetica,sans-Serif" font-size="10.00">modules/posix/posix.cpp</text>
</a>
</g>
</g>
<!-- Node5&#45;&gt;Node7 -->
<g id="edge7" class="edge"><title>Node5&#45;&gt;Node7</title>
<path fill="none" stroke="midnightblue" d="M1127.97,-190.787C1150.96,-177.905 1184.66,-159.024 1204.1,-148.127"/>
<polygon fill="midnightblue" stroke="midnightblue" points="1126.16,-187.792 1119.14,-195.734 1129.58,-193.899 1126.16,-187.792"/>
</g>
<!-- Node8 -->
<g id="node8" class="node"><title>Node8</title>
<g id="a_node8"><a xlink:href="fun_8cpp.html" target="_top" xlink:title="modules/fun/fun.cpp">
<polygon fill="none" stroke="black" points="615,-0.5 615,-19.5 720,-19.5 720,-0.5 615,-0.5"/>
<text text-anchor="middle" x="667.5" y="-7.5" font-family="Helvetica,sans-Serif" font-size="10.00">modules/fun/fun.cpp</text>
</a>
</g>
</g>
<!-- Node5&#45;&gt;Node8 -->
<g id="edge8" class="edge"><title>Node5&#45;&gt;Node8</title>
<path fill="none" stroke="midnightblue" d="M1088.08,-188.183C1054.63,-153.157 975.652,-72.5968 941.5,-56 870.176,-21.3385 777.378,-12.6417 720.154,-10.8528"/>
<polygon fill="midnightblue" stroke="midnightblue" points="1085.78,-190.837 1095.2,-195.673 1090.85,-186.014 1085.78,-190.837"/>
</g>
<!-- Node9 -->
<g id="node9" class="node"><title>Node9</title>
<g id="a_node9"><a xlink:href="web_8cpp.html" target="_top" xlink:title="modules/web/web.cpp">
<polygon fill="none" stroke="black" points="818.5,-62 818.5,-81 932.5,-81 932.5,-62 818.5,-62"/>
<text text-anchor="middle" x="875.5" y="-69" font-family="Helvetica,sans-Serif" font-size="10.00">modules/web/web.cpp</text>
</a>
</g>
</g>
<!-- Node5&#45;&gt;Node9 -->
<g id="edge9" class="edge"><title>Node5&#45;&gt;Node9</title>
<path fill="none" stroke="midnightblue" d="M1080.58,-190.759C1063.68,-180.621 1040.14,-166.478 1019.5,-154 996.8,-140.277 991.495,-136.222 968.5,-123 941.901,-107.706 910.429,-90.8757 891.761,-81.0216"/>
<polygon fill="midnightblue" stroke="midnightblue" points="1078.84,-193.801 1089.22,-195.943 1082.44,-187.798 1078.84,-193.801"/>
</g>
<!-- Node10 -->
<g id="node10" class="node"><title>Node10</title>
<g id="a_node10"><a xlink:href="core_8cpp.html" target="_top" xlink:title="modules/core/core.cpp">
<polygon fill="none" stroke="black" points="611.5,-62 611.5,-81 727.5,-81 727.5,-62 611.5,-62"/>
<text text-anchor="middle" x="669.5" y="-69" font-family="Helvetica,sans-Serif" font-size="10.00">modules/core/core.cpp</text>
</a>
</g>
</g>
<!-- Node5&#45;&gt;Node10 -->
<g id="edge10" class="edge"><title>Node5&#45;&gt;Node10</title>
<path fill="none" stroke="midnightblue" d="M1061.16,-193.058C1033.61,-184.574 997.531,-171.458 968.5,-154 950.692,-143.291 952.148,-132.168 933.5,-123 898.062,-105.577 794.089,-89.1186 727.692,-79.9647"/>
<polygon fill="midnightblue" stroke="midnightblue" points="1060.32,-196.458 1070.9,-195.973 1062.33,-189.752 1060.32,-196.458"/>
</g>
<!-- Node11 -->
<g id="node11" class="node"><title>Node11</title>
<g id="a_node11"><a xlink:href="irc_8cpp.html" target="_top" xlink:title="modules/irc/irc.cpp">
<polygon fill="none" stroke="black" points="826,-129 826,-148 925,-148 925,-129 826,-129"/>
<text text-anchor="middle" x="875.5" y="-136" font-family="Helvetica,sans-Serif" font-size="10.00">modules/irc/irc.cpp</text>
</a>
</g>
</g>
<!-- Node5&#45;&gt;Node11 -->
<g id="edge11" class="edge"><title>Node5&#45;&gt;Node11</title>
<path fill="none" stroke="midnightblue" d="M1063.48,-193.091C1018.38,-180.232 946.069,-159.618 905.539,-148.064"/>
<polygon fill="midnightblue" stroke="midnightblue" points="1062.65,-196.493 1073.22,-195.869 1064.57,-189.761 1062.65,-196.493"/>
</g>
<!-- Node12 -->
<g id="node12" class="node"><title>Node12</title>
<g id="a_node12"><a xlink:href="xonotic_8cpp.html" target="_top" xlink:title="modules/xonotic/xonotic.cpp">
<polygon fill="none" stroke="black" points="1300,-129 1300,-148 1441,-148 1441,-129 1300,-129"/>
<text text-anchor="middle" x="1370.5" y="-136" font-family="Helvetica,sans-Serif" font-size="10.00">modules/xonotic/xonotic.cpp</text>
</a>
</g>
</g>
<!-- Node5&#45;&gt;Node12 -->
<g id="edge12" class="edge"><title>Node5&#45;&gt;Node12</title>
<path fill="none" stroke="midnightblue" d="M1148.42,-193.564C1201.06,-180.75 1287.18,-159.785 1335.24,-148.083"/>
<polygon fill="midnightblue" stroke="midnightblue" points="1147.57,-190.169 1138.68,-195.936 1149.22,-196.971 1147.57,-190.169"/>
</g>
<!-- Node14 -->
<g id="node14" class="node"><title>Node14</title>
<g id="a_node14"><a xlink:href="fun-handlers_8hpp.html" target="_top" xlink:title="This file contains definitions for handlers which are pretty useless. ">
<polygon fill="none" stroke="black" points="87,-62 87,-81 232,-81 232,-62 87,-62"/>
<text text-anchor="middle" x="159.5" y="-69" font-family="Helvetica,sans-Serif" font-size="10.00">modules/fun/fun&#45;handlers.hpp</text>
</a>
</g>
</g>
<!-- Node13&#45;&gt;Node14 -->
<g id="edge14" class="edge"><title>Node13&#45;&gt;Node14</title>
<path fill="none" stroke="midnightblue" d="M269.539,-193.819C217.989,-182.501 144.738,-164.804 136.5,-154 119.384,-131.553 140.879,-96.933 152.697,-81.0256"/>
<polygon fill="midnightblue" stroke="midnightblue" points="269.018,-197.287 279.534,-195.993 270.506,-190.447 269.018,-197.287"/>
</g>
<!-- Node16 -->
<g id="node16" class="node"><title>Node16</title>
<g id="a_node16"><a xlink:href="web-api-concrete_8hpp.html" target="_top" xlink:title="This files defines some simple Handlers using web APIs. ">
<polygon fill="none" stroke="black" points="274,-123.5 274,-153.5 385,-153.5 385,-123.5 274,-123.5"/>
<text text-anchor="start" x="282" y="-141.5" font-family="Helvetica,sans-Serif" font-size="10.00">modules/web/web&#45;api</text>
<text text-anchor="middle" x="329.5" y="-130.5" font-family="Helvetica,sans-Serif" font-size="10.00">&#45;concrete.hpp</text>
</a>
</g>
</g>
<!-- Node13&#45;&gt;Node16 -->
<g id="edge17" class="edge"><title>Node13&#45;&gt;Node16</title>
<path fill="none" stroke="midnightblue" d="M323.098,-185.739C324.517,-175.487 326.246,-163.001 327.549,-153.589"/>
<polygon fill="midnightblue" stroke="midnightblue" points="319.618,-185.348 321.714,-195.734 326.552,-186.308 319.618,-185.348"/>
</g>
<!-- Node14&#45;&gt;Node8 -->
<g id="edge16" class="edge"><title>Node14&#45;&gt;Node8</title>
<path fill="none" stroke="midnightblue" d="M214.538,-60.2239C223.532,-58.7013 232.763,-57.2324 241.5,-56 375.526,-37.0948 534.298,-22.326 614.889,-15.3674"/>
<polygon fill="midnightblue" stroke="midnightblue" points="213.78,-56.8028 204.523,-61.956 214.974,-63.7004 213.78,-56.8028"/>
</g>
<!-- Node15 -->
<g id="node15" class="node"><title>Node15</title>
<g id="a_node15"><a xlink:href="fun-handlers_8cpp.html" target="_top" xlink:title="modules/fun/fun&#45;handlers.cpp">
<polygon fill="none" stroke="black" points="87,-0.5 87,-19.5 232,-19.5 232,-0.5 87,-0.5"/>
<text text-anchor="middle" x="159.5" y="-7.5" font-family="Helvetica,sans-Serif" font-size="10.00">modules/fun/fun&#45;handlers.cpp</text>
</a>
</g>
</g>
<!-- Node14&#45;&gt;Node15 -->
<g id="edge15" class="edge"><title>Node14&#45;&gt;Node15</title>
<path fill="none" stroke="midnightblue" d="M159.5,-51.8165C159.5,-40.9962 159.5,-27.898 159.5,-19.5091"/>
<polygon fill="midnightblue" stroke="midnightblue" points="156,-51.9751 159.5,-61.9751 163,-51.9751 156,-51.9751"/>
</g>
<!-- Node16&#45;&gt;Node9 -->
<g id="edge18" class="edge"><title>Node16&#45;&gt;Node9</title>
<path fill="none" stroke="midnightblue" d="M395.068,-123.38C449.759,-116.924 702.911,-90.4962 818.212,-78.4718"/>
<polygon fill="midnightblue" stroke="midnightblue" points="394.562,-119.916 385.088,-124.659 395.451,-126.859 394.562,-119.916"/>
</g>
<!-- Node17&#45;&gt;Node10 -->
<g id="edge27" class="edge"><title>Node17&#45;&gt;Node10</title>
<path fill="none" stroke="midnightblue" d="M524.099,-194.635C572.506,-186.038 632.892,-172.111 650.5,-154 670.046,-133.895 670.92,-97.7822 670.166,-81.2253"/>
<polygon fill="midnightblue" stroke="midnightblue" points="523.228,-191.233 513.971,-196.388 524.422,-198.131 523.228,-191.233"/>
</g>
<!-- Node18 -->
<g id="node18" class="node"><title>Node18</title>
<g id="a_node18"><a xlink:href="bridge_8hpp.html" target="_top" xlink:title="modules/core/handler\l/bridge.hpp">
<polygon fill="none" stroke="black" points="145.5,-123.5 145.5,-153.5 255.5,-153.5 255.5,-123.5 145.5,-123.5"/>
<text text-anchor="start" x="153.5" y="-141.5" font-family="Helvetica,sans-Serif" font-size="10.00">modules/core/handler</text>
<text text-anchor="middle" x="200.5" y="-130.5" font-family="Helvetica,sans-Serif" font-size="10.00">/bridge.hpp</text>
</a>
</g>
</g>
<!-- Node17&#45;&gt;Node18 -->
<g id="edge20" class="edge"><title>Node17&#45;&gt;Node18</title>
<path fill="none" stroke="midnightblue" d="M393.515,-188.128C351.077,-177.436 296.257,-163.625 255.891,-153.455"/>
<polygon fill="midnightblue" stroke="midnightblue" points="392.917,-191.586 403.469,-190.636 394.627,-184.799 392.917,-191.586"/>
</g>
<!-- Node20 -->
<g id="node20" class="node"><title>Node20</title>
<g id="a_node20"><a xlink:href="simple-group_8cpp.html" target="_top" xlink:title="This file contains the definitions for the most basic and reusable handlers. ">
<polygon fill="none" stroke="black" points="531.5,-123.5 531.5,-153.5 641.5,-153.5 641.5,-123.5 531.5,-123.5"/>
<text text-anchor="start" x="539.5" y="-141.5" font-family="Helvetica,sans-Serif" font-size="10.00">modules/core/handler</text>
<text text-anchor="middle" x="586.5" y="-130.5" font-family="Helvetica,sans-Serif" font-size="10.00">/simple&#45;group.cpp</text>
</a>
</g>
</g>
<!-- Node17&#45;&gt;Node20 -->
<g id="edge24" class="edge"><title>Node17&#45;&gt;Node20</title>
<path fill="none" stroke="midnightblue" d="M495.22,-185.853C515.458,-175.576 540.174,-163.025 558.78,-153.577"/>
<polygon fill="midnightblue" stroke="midnightblue" points="493.606,-182.747 486.274,-190.396 496.775,-188.989 493.606,-182.747"/>
</g>
<!-- Node21 -->
<g id="node21" class="node"><title>Node21</title>
<g id="a_node21"><a xlink:href="admin_8hpp.html" target="_top" xlink:title="This file defines handlers which allows admin to administrate the bot. ">
<polygon fill="none" stroke="black" points="403.5,-123.5 403.5,-153.5 513.5,-153.5 513.5,-123.5 403.5,-123.5"/>
<text text-anchor="start" x="411.5" y="-141.5" font-family="Helvetica,sans-Serif" font-size="10.00">modules/core/handler</text>
<text text-anchor="middle" x="458.5" y="-130.5" font-family="Helvetica,sans-Serif" font-size="10.00">/admin.hpp</text>
</a>
</g>
</g>
<!-- Node17&#45;&gt;Node21 -->
<g id="edge25" class="edge"><title>Node17&#45;&gt;Node21</title>
<path fill="none" stroke="midnightblue" d="M458.5,-180.108C458.5,-171.154 458.5,-161.323 458.5,-153.577"/>
<polygon fill="midnightblue" stroke="midnightblue" points="455,-180.396 458.5,-190.396 462,-180.396 455,-180.396"/>
</g>
<!-- Node18&#45;&gt;Node10 -->
<g id="edge23" class="edge"><title>Node18&#45;&gt;Node10</title>
<path fill="none" stroke="midnightblue" d="M265.635,-122.907C394.49,-100.715 534.29,-85.5285 611.218,-77.9413"/>
<polygon fill="midnightblue" stroke="midnightblue" points="264.84,-119.493 255.588,-124.656 266.04,-126.389 264.84,-119.493"/>
</g>
<!-- Node18&#45;&gt;Node14 -->
<g id="edge21" class="edge"><title>Node18&#45;&gt;Node14</title>
<path fill="none" stroke="midnightblue" d="M186.075,-114.632C178.781,-103.067 170.358,-89.7142 164.984,-81.1945"/>
<polygon fill="midnightblue" stroke="midnightblue" points="183.308,-116.805 191.604,-123.396 189.229,-113.071 183.308,-116.805"/>
</g>
<!-- Node19 -->
<g id="node19" class="node"><title>Node19</title>
<g id="a_node19"><a xlink:href="bridge_8cpp.html" target="_top" xlink:title="modules/core/handler\l/bridge.cpp">
<polygon fill="none" stroke="black" points="250.5,-56.5 250.5,-86.5 360.5,-86.5 360.5,-56.5 250.5,-56.5"/>
<text text-anchor="start" x="258.5" y="-74.5" font-family="Helvetica,sans-Serif" font-size="10.00">modules/core/handler</text>
<text text-anchor="middle" x="305.5" y="-63.5" font-family="Helvetica,sans-Serif" font-size="10.00">/bridge.cpp</text>
</a>
</g>
</g>
<!-- Node18&#45;&gt;Node19 -->
<g id="edge22" class="edge"><title>Node18&#45;&gt;Node19</title>
<path fill="none" stroke="midnightblue" d="M231.976,-118.015C248.315,-107.9 267.91,-95.7698 282.761,-86.5765"/>
<polygon fill="midnightblue" stroke="midnightblue" points="229.944,-115.156 223.283,-123.396 233.628,-121.108 229.944,-115.156"/>
</g>
<!-- Node21&#45;&gt;Node10 -->
<g id="edge26" class="edge"><title>Node21&#45;&gt;Node10</title>
<path fill="none" stroke="midnightblue" d="M513.652,-120.51C554.829,-107.825 609.375,-91.0219 641.815,-81.0287"/>
<polygon fill="midnightblue" stroke="midnightblue" points="512.55,-117.187 504.024,-123.476 514.611,-123.877 512.55,-117.187"/>
</g>
<!-- Node22&#45;&gt;Node10 -->
<g id="edge29" class="edge"><title>Node22&#45;&gt;Node10</title>
<path fill="none" stroke="midnightblue" d="M726.333,-117.008C710.925,-104.941 692.235,-90.3046 680.602,-81.1945"/>
<polygon fill="midnightblue" stroke="midnightblue" points="724.459,-119.986 734.49,-123.396 728.775,-114.475 724.459,-119.986"/>
</g>
<!-- Node23&#45;&gt;Node11 -->
<g id="edge31" class="edge"><title>Node23&#45;&gt;Node11</title>
<path fill="none" stroke="midnightblue" d="M680.977,-189.084C731.311,-176.254 801.116,-158.461 841.974,-148.046"/>
<polygon fill="midnightblue" stroke="midnightblue" points="680.01,-185.719 671.185,-191.58 681.739,-192.502 680.01,-185.719"/>
</g>
<!-- Node24&#45;&gt;Node11 -->
<g id="edge33" class="edge"><title>Node24&#45;&gt;Node11</title>
<path fill="none" stroke="midnightblue" d="M778.276,-185.967C804.401,-173.481 837.634,-157.598 857.701,-148.007"/>
<polygon fill="midnightblue" stroke="midnightblue" points="776.523,-182.926 769.01,-190.396 779.542,-189.242 776.523,-182.926"/>
</g>
<!-- Node25&#45;&gt;Node11 -->
<g id="edge35" class="edge"><title>Node25&#45;&gt;Node11</title>
<path fill="none" stroke="midnightblue" d="M864.752,-180.596C867.712,-169.278 871.064,-156.461 873.226,-148.195"/>
<polygon fill="midnightblue" stroke="midnightblue" points="861.333,-179.836 862.189,-190.396 868.105,-181.607 861.333,-179.836"/>
</g>
<!-- Node26&#45;&gt;Node11 -->
<g id="edge37" class="edge"><title>Node26&#45;&gt;Node11</title>
<path fill="none" stroke="midnightblue" d="M946.86,-184.975C927.519,-172.649 903.504,-157.345 888.849,-148.007"/>
<polygon fill="midnightblue" stroke="midnightblue" points="945.053,-187.973 955.368,-190.396 948.815,-182.07 945.053,-187.973"/>
</g>
<!-- Node28&#45;&gt;Node7 -->
<g id="edge41" class="edge"><title>Node28&#45;&gt;Node7</title>
<path fill="none" stroke="midnightblue" d="M1270.47,-253.54C1257.59,-224.717 1232.79,-169.224 1223.31,-148.021"/>
<polygon fill="midnightblue" stroke="midnightblue" points="1267.35,-255.138 1274.63,-262.839 1273.74,-252.281 1267.35,-255.138"/>
</g>
<!-- Node29&#45;&gt;Node12 -->
<g id="edge44" class="edge"><title>Node29&#45;&gt;Node12</title>
<path fill="none" stroke="midnightblue" d="M1378.53,-252.125C1366.67,-244.231 1355.09,-233.882 1348.5,-221 1335.82,-196.21 1354.08,-163.324 1364.34,-148.015"/>
<polygon fill="midnightblue" stroke="midnightblue" points="1376.81,-255.172 1387.16,-257.44 1380.48,-249.213 1376.81,-255.172"/>
</g>
<!-- Node30 -->
<g id="node30" class="node"><title>Node30</title>
<g id="a_node30"><a xlink:href="xonotic-connection_8cpp.html" target="_top" xlink:title="modules/xonotic/xonotic\l&#45;connection.cpp">
<polygon fill="none" stroke="black" points="1357.5,-190.5 1357.5,-220.5 1479.5,-220.5 1479.5,-190.5 1357.5,-190.5"/>
<text text-anchor="start" x="1365.5" y="-208.5" font-family="Helvetica,sans-Serif" font-size="10.00">modules/xonotic/xonotic</text>
<text text-anchor="middle" x="1418.5" y="-197.5" font-family="Helvetica,sans-Serif" font-size="10.00">&#45;connection.cpp</text>
</a>
</g>
</g>
<!-- Node29&#45;&gt;Node30 -->
<g id="edge43" class="edge"><title>Node29&#45;&gt;Node30</title>
<path fill="none" stroke="midnightblue" d="M1418.5,-247.108C1418.5,-238.154 1418.5,-228.323 1418.5,-220.577"/>
<polygon fill="midnightblue" stroke="midnightblue" points="1415,-247.396 1418.5,-257.396 1422,-247.396 1415,-247.396"/>
</g>
<!-- Node31&#45;&gt;Node11 -->
<g id="edge46" class="edge"><title>Node31&#45;&gt;Node11</title>
<path fill="none" stroke="midnightblue" d="M1550.04,-249.47C1531.31,-227.746 1503.06,-196.829 1488.5,-190 1485.31,-188.505 1070.45,-155.129 925.11,-143.473"/>
<polygon fill="midnightblue" stroke="midnightblue" points="1547.55,-251.944 1556.7,-257.277 1552.87,-247.399 1547.55,-251.944"/>
</g>
<!-- Node32 -->
<g id="node32" class="node"><title>Node32</title>
<g id="a_node32"><a xlink:href="buffer_8cpp.html" target="_top" xlink:title="modules/irc/network\l/buffer.cpp">
<polygon fill="none" stroke="black" points="1535.5,-190.5 1535.5,-220.5 1639.5,-220.5 1639.5,-190.5 1535.5,-190.5"/>
<text text-anchor="start" x="1543.5" y="-208.5" font-family="Helvetica,sans-Serif" font-size="10.00">modules/irc/network</text>
<text text-anchor="middle" x="1587.5" y="-197.5" font-family="Helvetica,sans-Serif" font-size="10.00">/buffer.cpp</text>
</a>
</g>
</g>
<!-- Node31&#45;&gt;Node32 -->
<g id="edge47" class="edge"><title>Node31&#45;&gt;Node32</title>
<path fill="none" stroke="midnightblue" d="M1575.46,-247.697C1578.12,-238.587 1581.07,-228.493 1583.39,-220.577"/>
<polygon fill="midnightblue" stroke="midnightblue" points="1572.07,-246.816 1572.62,-257.396 1578.79,-248.78 1572.07,-246.816"/>
</g>
<!-- Node33 -->
<g id="node33" class="node"><title>Node33</title>
<g id="a_node33"><a xlink:href="connection_8cpp.html" target="_top" xlink:title="modules/irc/network\l/connection.cpp">
<polygon fill="none" stroke="black" points="1657.5,-190.5 1657.5,-220.5 1761.5,-220.5 1761.5,-190.5 1657.5,-190.5"/>
<text text-anchor="start" x="1665.5" y="-208.5" font-family="Helvetica,sans-Serif" font-size="10.00">modules/irc/network</text>
<text text-anchor="middle" x="1709.5" y="-197.5" font-family="Helvetica,sans-Serif" font-size="10.00">/connection.cpp</text>
</a>
</g>
</g>
<!-- Node31&#45;&gt;Node33 -->
<g id="edge48" class="edge"><title>Node31&#45;&gt;Node33</title>
<path fill="none" stroke="midnightblue" d="M1608.35,-253.131C1630.75,-242.802 1658.28,-230.11 1678.96,-220.577"/>
<polygon fill="midnightblue" stroke="midnightblue" points="1606.71,-250.031 1599.09,-257.396 1609.64,-256.388 1606.71,-250.031"/>
</g>
</g>
</svg>
        <g id="navigator" transform="translate(0 0)" fill="#404254">
                <rect fill="#f2f5e9" fill-opacity="0.5" stroke="#606060" stroke-width=".5" x="0" y="0" width="60" height="60"/>
                <use id="zoomplus" xlink:href="#zoomPlus" x="17" y="9" onmousedown="handleZoom(evt,'in')"/>
                <use id="zoomminus" xlink:href="#zoomMin" x="42" y="9" onmousedown="handleZoom(evt,'out')"/>
                <use id="reset" xlink:href="#resetDef" x="30" y="36" onmousedown="handleReset()"/>
                <g id="arrowUp" xlink:href="#dirArrow" transform="translate(30 24)" onmousedown="handlePan(0,-1)">
                  <use xlink:href="#rim" fill="#404040">
                        <set attributeName="fill" to="#808080" begin="arrowUp.mouseover" end="arrowUp.mouseout"/>
                  </use>
                  <path fill="none" stroke="white" stroke-width="1.5" d="M0,-3.0v7 M-2.5,-0.5L0,-3.0L2.5,-0.5"/>
                </g>
                <g id="arrowRight" xlink:href="#dirArrow" transform="rotate(90) translate(36 -43)" onmousedown="handlePan(1,0)">
                  <use xlink:href="#rim" fill="#404040">
                        <set attributeName="fill" to="#808080" begin="arrowRight.mouseover" end="arrowRight.mouseout"/>
                  </use>
                  <path fill="none" stroke="white" stroke-width="1.5" d="M0,-3.0v7 M-2.5,-0.5L0,-3.0L2.5,-0.5"/>
                </g>
                <g id="arrowDown" xlink:href="#dirArrow" transform="rotate(180) translate(-30 -48)" onmousedown="handlePan(0,1)">
                  <use xlink:href="#rim" fill="#404040">
                        <set attributeName="fill" to="#808080" begin="arrowDown.mouseover" end="arrowDown.mouseout"/>
                  </use>
                  <path fill="none" stroke="white" stroke-width="1.5" d="M0,-3.0v7 M-2.5,-0.5L0,-3.0L2.5,-0.5"/>
                </g>
                <g id="arrowLeft" xlink:href="#dirArrow" transform="rotate(270) translate(-36 17)" onmousedown="handlePan(-1,0)">
                  <use xlink:href="#rim" fill="#404040">
                        <set attributeName="fill" to="#808080" begin="arrowLeft.mouseover" end="arrowLeft.mouseout"/>
                  </use>
                  <path fill="none" stroke="white" stroke-width="1.5" d="M0,-3.0v7 M-2.5,-0.5L0,-3.0L2.5,-0.5"/>
                </g>
        </g>
        <svg viewBox="0 0 15 15" width="100%" height="30px" preserveAspectRatio="xMaxYMin meet">
         <g id="arrow_out" transform="scale(0.3 0.3)">
          <a xlink:href="handler__container_8hpp__dep__incl_org.svg" target="_base">
           <rect id="button" ry="5" rx="5" y="6" x="6" height="38" width="38"
                fill="#f2f5e9" fill-opacity="0.5" stroke="#606060" stroke-width="1.0"/>
           <path id="arrow"
             d="M 11.500037,31.436501 C 11.940474,20.09759 22.043105,11.32322 32.158766,21.979434 L 37.068811,17.246167 C 37.068811,17.246167 37.088388,32 37.088388,32 L 22.160133,31.978069 C 22.160133,31.978069 26.997745,27.140456 26.997745,27.140456 C 18.528582,18.264221 13.291696,25.230495 11.500037,31.436501 z"
             style="fill:#404040;"/>
          </a>
         </g>
        </svg>
</svg>
