<?xml version="1.0" encoding="UTF-8" standalone="no"?>
<!DOCTYPE svg PUBLIC "-//W3C//DTD SVG 1.1//EN"
 "http://www.w3.org/Graphics/SVG/1.1/DTD/svg11.dtd">
<!-- Generated by graphviz version 2.38.0 (20140413.2041)
 -->
<!-- Title: src/handler/handler_container.hpp Pages: 1 -->
<!--zoomable 419 -->
<svg id="main" version="1.1" xmlns="http://www.w3.org/2000/svg" xmlns:xlink="http://www.w3.org/1999/xlink" xml:space="preserve" onload="init(evt)">
<style type="text/css"><![CDATA[
.edge:hover path { stroke: red; }
.edge:hover polygon { stroke: red; fill: red; }
]]></style>
<script type="text/javascript"><![CDATA[
var edges = document.getElementsByTagName('g');
if (edges && edges.length) {
  for (var i=0;i<edges.length;i++) {
    if (edges[i].id.substr(0,4)=='edge') {
      edges[i].setAttribute('class','edge');
    }
  }
}
]]></script>
        <defs>
                <circle id="rim" cx="0" cy="0" r="7"/>
                <circle id="rim2" cx="0" cy="0" r="3.5"/>
                <g id="zoomPlus">
                        <use xlink:href="#rim" fill="#404040">
                                <set attributeName="fill" to="#808080" begin="zoomplus.mouseover" end="zoomplus.mouseout"/>
                        </use>
                        <path d="M-4,0h8M0,-4v8" fill="none" stroke="white" stroke-width="1.5" pointer-events="none"/>
                </g>
                <g id="zoomMin">
                        <use xlink:href="#rim" fill="#404040">
                                <set attributeName="fill" to="#808080" begin="zoomminus.mouseover" end="zoomminus.mouseout"/>
                        </use>
                        <path d="M-4,0h8" fill="none" stroke="white" stroke-width="1.5" pointer-events="none"/>
                </g>
                <g id="dirArrow">
                        <path fill="none" stroke="white" stroke-width="1.5" d="M0,-3.0v7 M-2.5,-0.5L0,-3.0L2.5,-0.5"/>
                </g>
               <g id="resetDef">
                       <use xlink:href="#rim2" fill="#404040">
                               <set attributeName="fill" to="#808080" begin="reset.mouseover" end="reset.mouseout"/>
                       </use>
               </g>
        </defs>

<script type="text/javascript">
var viewWidth = 1726;
var viewHeight = 419;
var sectionId = 'dynsection-1';
</script>
<script xlink:href="svgpan.js"/>
<svg id="graph" class="graph">
<g id="viewport">
<title>src/handler/handler_container.hpp</title>
<!-- Node1 -->
<g id="node1" class="node"><title>Node1</title>
<polygon fill="#bfbfbf" stroke="black" points="393,-380.5 393,-410.5 492,-410.5 492,-380.5 393,-380.5"/>
<text text-anchor="start" x="401" y="-398.5" font-family="Helvetica,sans-Serif" font-size="10.00">src/handler/handler</text>
<text text-anchor="middle" x="442.5" y="-387.5" font-family="Helvetica,sans-Serif" font-size="10.00">_container.hpp</text>
</g>
<!-- Node2 -->
<g id="node2" class="node"><title>Node2</title>
<g id="a_node2"><a xlink:href="melanobot_8hpp.html" target="_top" xlink:title="src/melanobot.hpp">
<polygon fill="none" stroke="black" points="394,-324.5 394,-343.5 491,-343.5 491,-324.5 394,-324.5"/>
<text text-anchor="middle" x="442.5" y="-331.5" font-family="Helvetica,sans-Serif" font-size="10.00">src/melanobot.hpp</text>
</a>
</g>
</g>
<!-- Node1&#45;&gt;Node2 -->
<g id="edge1" class="edge"><title>Node1&#45;&gt;Node2</title>
<path fill="none" stroke="midnightblue" d="M442.5,-370.289C442.5,-360.857 442.5,-350.655 442.5,-343.658"/>
<polygon fill="midnightblue" stroke="midnightblue" points="439,-370.399 442.5,-380.399 446,-370.399 439,-370.399"/>
</g>
<!-- Node3 -->
<g id="node3" class="node"><title>Node3</title>
<g id="a_node3"><a xlink:href="melanobot_8cpp.html" target="_top" xlink:title="src/melanobot.cpp">
<polygon fill="none" stroke="black" points="95,-196 95,-215 192,-215 192,-196 95,-196"/>
<text text-anchor="middle" x="143.5" y="-203" font-family="Helvetica,sans-Serif" font-size="10.00">src/melanobot.cpp</text>
</a>
</g>
</g>
<!-- Node2&#45;&gt;Node3 -->
<g id="edge2" class="edge"><title>Node2&#45;&gt;Node3</title>
<path fill="none" stroke="midnightblue" d="M412.528,-320.32C351.749,-294.605 215.393,-236.916 163.8,-215.088"/>
<polygon fill="midnightblue" stroke="midnightblue" points="411.375,-323.632 421.949,-324.305 414.103,-317.185 411.375,-323.632"/>
</g>
<!-- Node4 -->
<g id="node4" class="node"><title>Node4</title>
<g id="a_node4"><a xlink:href="handler_8hpp.html" target="_top" xlink:title="src/handler/handler.hpp">
<polygon fill="none" stroke="black" points="483.5,-263 483.5,-282 601.5,-282 601.5,-263 483.5,-263"/>
<text text-anchor="middle" x="542.5" y="-270" font-family="Helvetica,sans-Serif" font-size="10.00">src/handler/handler.hpp</text>
</a>
</g>
</g>
<!-- Node2&#45;&gt;Node4 -->
<g id="edge3" class="edge"><title>Node2&#45;&gt;Node4</title>
<path fill="none" stroke="midnightblue" d="M465.619,-319.244C484.937,-307.75 511.874,-291.723 528.199,-282.009"/>
<polygon fill="midnightblue" stroke="midnightblue" points="463.632,-316.354 456.828,-324.475 467.211,-322.37 463.632,-316.354"/>
</g>
<!-- Node6 -->
<g id="node6" class="node"><title>Node6</title>
<g id="a_node6"><a xlink:href="main_8cpp.html" target="_top" xlink:title="src/main.cpp">
<polygon fill="none" stroke="black" points="0,-129 0,-148 73,-148 73,-129 0,-129"/>
<text text-anchor="middle" x="36.5" y="-136" font-family="Helvetica,sans-Serif" font-size="10.00">src/main.cpp</text>
</a>
</g>
</g>
<!-- Node2&#45;&gt;Node6 -->
<g id="edge40" class="edge"><title>Node2&#45;&gt;Node6</title>
<path fill="none" stroke="midnightblue" d="M383.697,-332.001C298.384,-329.442 145.745,-320.338 102.5,-288 54.826,-252.35 40.9034,-174.585 37.4818,-148.348"/>
<polygon fill="midnightblue" stroke="midnightblue" points="383.661,-335.502 393.755,-332.282 383.857,-328.504 383.661,-335.502"/>
</g>
<!-- Node28 -->
<g id="node28" class="node"><title>Node28</title>
<g id="a_node28"><a xlink:href="stdin_8hpp.html" target="_top" xlink:title="modules/posix/stdin.hpp">
<polygon fill="none" stroke="black" points="111.5,-263 111.5,-282 233.5,-282 233.5,-263 111.5,-263"/>
<text text-anchor="middle" x="172.5" y="-270" font-family="Helvetica,sans-Serif" font-size="10.00">modules/posix/stdin.hpp</text>
</a>
</g>
</g>
<!-- Node2&#45;&gt;Node28 -->
<g id="edge41" class="edge"><title>Node2&#45;&gt;Node28</title>
<path fill="none" stroke="midnightblue" d="M393.757,-322.258C341.38,-310.716 259.198,-292.606 211.113,-282.009"/>
<polygon fill="midnightblue" stroke="midnightblue" points="393.297,-325.741 403.816,-324.475 394.803,-318.905 393.297,-325.741"/>
</g>
<!-- Node29 -->
<g id="node29" class="node"><title>Node29</title>
<g id="a_node29"><a xlink:href="xonotic-connection_8hpp.html" target="_top" xlink:title="modules/xonotic/xonotic\l&#45;connection.hpp">
<polygon fill="none" stroke="black" points="619.5,-257.5 619.5,-287.5 741.5,-287.5 741.5,-257.5 619.5,-257.5"/>
<text text-anchor="start" x="627.5" y="-275.5" font-family="Helvetica,sans-Serif" font-size="10.00">modules/xonotic/xonotic</text>
<text text-anchor="middle" x="680.5" y="-264.5" font-family="Helvetica,sans-Serif" font-size="10.00">&#45;connection.hpp</text>
</a>
</g>
</g>
<!-- Node2&#45;&gt;Node29 -->
<g id="edge43" class="edge"><title>Node2&#45;&gt;Node29</title>
<path fill="none" stroke="midnightblue" d="M486.567,-321.983C525.439,-312.265 582.299,-298.05 624.408,-287.523"/>
<polygon fill="midnightblue" stroke="midnightblue" points="485.452,-318.654 476.6,-324.475 487.15,-325.445 485.452,-318.654"/>
</g>
<!-- Node31 -->
<g id="node31" class="node"><title>Node31</title>
<g id="a_node31"><a xlink:href="modules_2irc_2network_2connection_8hpp.html" target="_top" xlink:title="modules/irc/network\l/connection.hpp">
<polygon fill="none" stroke="black" points="1387.5,-257.5 1387.5,-287.5 1491.5,-287.5 1491.5,-257.5 1387.5,-257.5"/>
<text text-anchor="start" x="1395.5" y="-275.5" font-family="Helvetica,sans-Serif" font-size="10.00">modules/irc/network</text>
<text text-anchor="middle" x="1439.5" y="-264.5" font-family="Helvetica,sans-Serif" font-size="10.00">/connection.hpp</text>
</a>
</g>
</g>
<!-- Node2&#45;&gt;Node31 -->
<g id="edge46" class="edge"><title>Node2&#45;&gt;Node31</title>
<path fill="none" stroke="midnightblue" d="M501.281,-329.492C680.354,-318.805 1217.24,-286.764 1387.26,-276.618"/>
<polygon fill="midnightblue" stroke="midnightblue" points="501.036,-326 491.262,-330.09 501.453,-332.988 501.036,-326"/>
</g>
<!-- Node4&#45;&gt;Node3 -->
<g id="edge4" class="edge"><title>Node4&#45;&gt;Node3</title>
<path fill="none" stroke="midnightblue" d="M473.554,-263.428C404.228,-254.818 294.45,-239.835 200.5,-221 192.09,-219.314 183.062,-217.173 174.727,-215.058"/>
<polygon fill="midnightblue" stroke="midnightblue" points="473.129,-266.902 483.482,-264.652 473.986,-259.955 473.129,-266.902"/>
</g>
<!-- Node5 -->
<g id="node5" class="node"><title>Node5</title>
<g id="a_node5"><a xlink:href="melanomodule_8hpp.html" target="_top" xlink:title="src/melanomodule.hpp">
<polygon fill="none" stroke="black" points="210,-196 210,-215 325,-215 325,-196 210,-196"/>
<text text-anchor="middle" x="267.5" y="-203" font-family="Helvetica,sans-Serif" font-size="10.00">src/melanomodule.hpp</text>
</a>
</g>
</g>
<!-- Node4&#45;&gt;Node5 -->
<g id="edge5" class="edge"><title>Node4&#45;&gt;Node5</title>
<path fill="none" stroke="midnightblue" d="M496.233,-260.564C442.019,-247.75 353.32,-226.785 303.814,-215.083"/>
<polygon fill="midnightblue" stroke="midnightblue" points="495.729,-264.041 506.266,-262.936 497.339,-257.229 495.729,-264.041"/>
</g>
<!-- Node13 -->
<g id="node13" class="node"><title>Node13</title>
<g id="a_node13"><a xlink:href="web-api_8hpp.html" target="_top" xlink:title="modules/web/web&#45;api.hpp">
<polygon fill="none" stroke="black" points="1037.5,-196 1037.5,-215 1167.5,-215 1167.5,-196 1037.5,-196"/>
<text text-anchor="middle" x="1102.5" y="-203" font-family="Helvetica,sans-Serif" font-size="10.00">modules/web/web&#45;api.hpp</text>
</a>
</g>
</g>
<!-- Node4&#45;&gt;Node13 -->
<g id="edge13" class="edge"><title>Node4&#45;&gt;Node13</title>
<path fill="none" stroke="midnightblue" d="M588.264,-260.932C595.67,-259.456 603.277,-258.078 610.5,-257 794.486,-229.55 843.26,-246.691 1027.5,-221 1038.93,-219.407 1051.25,-217.222 1062.54,-215.031"/>
<polygon fill="midnightblue" stroke="midnightblue" points="587.427,-257.531 578.345,-262.987 588.847,-264.386 587.427,-257.531"/>
</g>
<!-- Node17 -->
<g id="node17" class="node"><title>Node17</title>
<g id="a_node17"><a xlink:href="simple-group_8hpp.html" target="_top" xlink:title="modules/core/handler\l/simple&#45;group.hpp">
<polygon fill="none" stroke="black" points="1363.5,-190.5 1363.5,-220.5 1473.5,-220.5 1473.5,-190.5 1363.5,-190.5"/>
<text text-anchor="start" x="1371.5" y="-208.5" font-family="Helvetica,sans-Serif" font-size="10.00">modules/core/handler</text>
<text text-anchor="middle" x="1418.5" y="-197.5" font-family="Helvetica,sans-Serif" font-size="10.00">/simple&#45;group.hpp</text>
</a>
</g>
</g>
<!-- Node4&#45;&gt;Node17 -->
<g id="edge19" class="edge"><title>Node4&#45;&gt;Node17</title>
<path fill="none" stroke="midnightblue" d="M587.215,-260.91C594.944,-259.382 602.927,-257.994 610.5,-257 922.013,-216.109 1003.76,-251.14 1316.5,-221 1331.72,-219.533 1348.15,-217.428 1363.29,-215.276"/>
<polygon fill="midnightblue" stroke="midnightblue" points="586.339,-257.517 577.258,-262.976 587.761,-264.371 586.339,-257.517"/>
</g>
<!-- Node22 -->
<g id="node22" class="node"><title>Node22</title>
<g id="a_node22"><a xlink:href="misc_8hpp.html" target="_top" xlink:title="This file defines handlers which perform miscellaneous tasks. ">
<polygon fill="none" stroke="black" points="583.5,-123.5 583.5,-153.5 693.5,-153.5 693.5,-123.5 583.5,-123.5"/>
<text text-anchor="start" x="591.5" y="-141.5" font-family="Helvetica,sans-Serif" font-size="10.00">modules/core/handler</text>
<text text-anchor="middle" x="638.5" y="-130.5" font-family="Helvetica,sans-Serif" font-size="10.00">/misc.hpp</text>
</a>
</g>
</g>
<!-- Node4&#45;&gt;Node22 -->
<g id="edge28" class="edge"><title>Node4&#45;&gt;Node22</title>
<path fill="none" stroke="midnightblue" d="M527.75,-254.722C514.423,-237.425 498.83,-210.205 512.5,-190 528.413,-166.479 557.262,-153.912 583.343,-147.198"/>
<polygon fill="midnightblue" stroke="midnightblue" points="525.301,-257.256 534.345,-262.773 530.716,-252.819 525.301,-257.256"/>
</g>
<!-- Node23 -->
<g id="node23" class="node"><title>Node23</title>
<g id="a_node23"><a xlink:href="rcon_8hpp.html" target="_top" xlink:title="modules/xonotic/handler\l/rcon.hpp">
<polygon fill="none" stroke="black" points="343.5,-190.5 343.5,-220.5 465.5,-220.5 465.5,-190.5 343.5,-190.5"/>
<text text-anchor="start" x="351.5" y="-208.5" font-family="Helvetica,sans-Serif" font-size="10.00">modules/xonotic/handler</text>
<text text-anchor="middle" x="404.5" y="-197.5" font-family="Helvetica,sans-Serif" font-size="10.00">/rcon.hpp</text>
</a>
</g>
</g>
<!-- Node4&#45;&gt;Node23 -->
<g id="edge30" class="edge"><title>Node4&#45;&gt;Node23</title>
<path fill="none" stroke="midnightblue" d="M514.844,-258.474C491.514,-247.485 458.195,-231.791 434.283,-220.528"/>
<polygon fill="midnightblue" stroke="midnightblue" points="513.637,-261.774 524.175,-262.869 516.619,-255.441 513.637,-261.774"/>
</g>
<!-- Node24 -->
<g id="node24" class="node"><title>Node24</title>
<g id="a_node24"><a xlink:href="irc__actions_8hpp.html" target="_top" xlink:title="File containing Handlers which manage responses to various IRC commands. ">
<polygon fill="none" stroke="black" points="918,-190.5 918,-220.5 1019,-220.5 1019,-190.5 918,-190.5"/>
<text text-anchor="start" x="926" y="-208.5" font-family="Helvetica,sans-Serif" font-size="10.00">modules/irc/handler</text>
<text text-anchor="middle" x="968.5" y="-197.5" font-family="Helvetica,sans-Serif" font-size="10.00">/irc_actions.hpp</text>
</a>
</g>
</g>
<!-- Node4&#45;&gt;Node24 -->
<g id="edge32" class="edge"><title>Node4&#45;&gt;Node24</title>
<path fill="none" stroke="midnightblue" d="M589.544,-260.895C596.55,-259.483 603.7,-258.133 610.5,-257 742.092,-235.067 777.216,-244.709 908.5,-221 911.558,-220.448 914.694,-219.834 917.849,-219.181"/>
<polygon fill="midnightblue" stroke="midnightblue" points="588.521,-257.533 579.441,-262.992 589.944,-264.387 588.521,-257.533"/>
</g>
<!-- Node25 -->
<g id="node25" class="node"><title>Node25</title>
<g id="a_node25"><a xlink:href="ctcp_8hpp.html" target="_top" xlink:title="This files has handlers for CTCP messages. ">
<polygon fill="none" stroke="black" points="522,-190.5 522,-220.5 623,-220.5 623,-190.5 522,-190.5"/>
<text text-anchor="start" x="530" y="-208.5" font-family="Helvetica,sans-Serif" font-size="10.00">modules/irc/handler</text>
<text text-anchor="middle" x="572.5" y="-197.5" font-family="Helvetica,sans-Serif" font-size="10.00">/ctcp.hpp</text>
</a>
</g>
</g>
<!-- Node4&#45;&gt;Node25 -->
<g id="edge34" class="edge"><title>Node4&#45;&gt;Node25</title>
<path fill="none" stroke="midnightblue" d="M550.859,-253.39C555.645,-243.02 561.561,-230.201 565.997,-220.589"/>
<polygon fill="midnightblue" stroke="midnightblue" points="547.559,-252.187 546.546,-262.734 553.914,-255.121 547.559,-252.187"/>
</g>
<!-- Node26 -->
<g id="node26" class="node"><title>Node26</title>
<g id="a_node26"><a xlink:href="irc__admin_8hpp.html" target="_top" xlink:title="This file defines handlers which allows admin to administrate the bot (IRC&#45;specific actions) ...">
<polygon fill="none" stroke="black" points="680,-190.5 680,-220.5 781,-220.5 781,-190.5 680,-190.5"/>
<text text-anchor="start" x="688" y="-208.5" font-family="Helvetica,sans-Serif" font-size="10.00">modules/irc/handler</text>
<text text-anchor="middle" x="730.5" y="-197.5" font-family="Helvetica,sans-Serif" font-size="10.00">/irc_admin.hpp</text>
</a>
</g>
</g>
<!-- Node4&#45;&gt;Node26 -->
<g id="edge36" class="edge"><title>Node4&#45;&gt;Node26</title>
<path fill="none" stroke="midnightblue" d="M577.237,-259.49C609.109,-248.47 656.333,-232.143 689.927,-220.528"/>
<polygon fill="midnightblue" stroke="midnightblue" points="575.772,-256.293 567.465,-262.869 578.06,-262.909 575.772,-256.293"/>
</g>
<!-- Node27 -->
<g id="node27" class="node"><title>Node27</title>
<g id="a_node27"><a xlink:href="irc__whois_8hpp.html" target="_top" xlink:title="This file contains handlers for WHOIS recognition on IRC. ">
<polygon fill="none" stroke="black" points="799,-190.5 799,-220.5 900,-220.5 900,-190.5 799,-190.5"/>
<text text-anchor="start" x="807" y="-208.5" font-family="Helvetica,sans-Serif" font-size="10.00">modules/irc/handler</text>
<text text-anchor="middle" x="849.5" y="-197.5" font-family="Helvetica,sans-Serif" font-size="10.00">/irc_whois.hpp</text>
</a>
</g>
</g>
<!-- Node4&#45;&gt;Node27 -->
<g id="edge38" class="edge"><title>Node4&#45;&gt;Node27</title>
<path fill="none" stroke="midnightblue" d="M592.262,-260.819C598.402,-259.522 604.594,-258.224 610.5,-257 689.961,-240.538 710.268,-238.534 789.5,-221 792.534,-220.328 795.651,-219.623 798.793,-218.9"/>
<polygon fill="midnightblue" stroke="midnightblue" points="591.093,-257.489 582.037,-262.988 592.545,-264.337 591.093,-257.489"/>
</g>
<!-- Node5&#45;&gt;Node6 -->
<g id="edge6" class="edge"><title>Node5&#45;&gt;Node6</title>
<path fill="none" stroke="midnightblue" d="M226.955,-193.091C181.255,-180.232 107.998,-159.618 66.934,-148.064"/>
<polygon fill="midnightblue" stroke="midnightblue" points="226.251,-196.529 236.825,-195.869 228.147,-189.791 226.251,-196.529"/>
</g>
<!-- Node7 -->
<g id="node7" class="node"><title>Node7</title>
<g id="a_node7"><a xlink:href="posix_8cpp.html" target="_top" xlink:title="modules/posix/posix.cpp">
<polygon fill="none" stroke="black" points="106,-129 106,-148 231,-148 231,-129 106,-129"/>
<text text-anchor="middle" x="168.5" y="-136" font-family="Helvetica,sans-Serif" font-size="10.00">modules/posix/posix.cpp</text>
</a>
</g>
</g>
<!-- Node5&#45;&gt;Node7 -->
<g id="edge7" class="edge"><title>Node5&#45;&gt;Node7</title>
<path fill="none" stroke="midnightblue" d="M245.559,-190.095C225.975,-177.236 197.942,-158.831 181.64,-148.127"/>
<polygon fill="midnightblue" stroke="midnightblue" points="243.868,-193.171 254.148,-195.734 247.71,-187.32 243.868,-193.171"/>
</g>
<!-- Node8 -->
<g id="node8" class="node"><title>Node8</title>
<g id="a_node8"><a xlink:href="fun_8cpp.html" target="_top" xlink:title="modules/fun/fun.cpp">
<polygon fill="none" stroke="black" points="571,-0.5 571,-19.5 676,-19.5 676,-0.5 571,-0.5"/>
<text text-anchor="middle" x="623.5" y="-7.5" font-family="Helvetica,sans-Serif" font-size="10.00">modules/fun/fun.cpp</text>
</a>
</g>
</g>
<!-- Node5&#45;&gt;Node8 -->
<g id="edge8" class="edge"><title>Node5&#45;&gt;Node8</title>
<path fill="none" stroke="midnightblue" d="M268.744,-185.522C270.933,-167.209 276.956,-139.851 293.5,-123 368.841,-46.2611 498.652,-22.0919 570.97,-14.4863"/>
<polygon fill="midnightblue" stroke="midnightblue" points="265.25,-185.302 267.817,-195.581 272.22,-185.944 265.25,-185.302"/>
</g>
<!-- Node9 -->
<g id="node9" class="node"><title>Node9</title>
<g id="a_node9"><a xlink:href="web_8cpp.html" target="_top" xlink:title="modules/web/web.cpp">
<polygon fill="none" stroke="black" points="539.5,-62 539.5,-81 653.5,-81 653.5,-62 539.5,-62"/>
<text text-anchor="middle" x="596.5" y="-69" font-family="Helvetica,sans-Serif" font-size="10.00">modules/web/web.cpp</text>
</a>
</g>
</g>
<!-- Node5&#45;&gt;Node9 -->
<g id="edge9" class="edge"><title>Node5&#45;&gt;Node9</title>
<path fill="none" stroke="midnightblue" d="M275.921,-186.875C285.939,-167.927 304.505,-138.452 329.5,-123 363.859,-101.759 471.729,-86.3382 539.385,-78.4556"/>
<polygon fill="midnightblue" stroke="midnightblue" points="272.734,-185.423 271.36,-195.928 278.985,-188.572 272.734,-185.423"/>
</g>
<!-- Node10 -->
<g id="node10" class="node"><title>Node10</title>
<g id="a_node10"><a xlink:href="core_8cpp.html" target="_top" xlink:title="modules/core/core.cpp">
<polygon fill="none" stroke="black" points="915.5,-62 915.5,-81 1031.5,-81 1031.5,-62 915.5,-62"/>
<text text-anchor="middle" x="973.5" y="-69" font-family="Helvetica,sans-Serif" font-size="10.00">modules/core/core.cpp</text>
</a>
</g>
</g>
<!-- Node5&#45;&gt;Node10 -->
<g id="edge10" class="edge"><title>Node5&#45;&gt;Node10</title>
<path fill="none" stroke="midnightblue" d="M285.668,-189.412C297.619,-179.436 313.569,-166.029 327.5,-154 343.228,-140.42 343.39,-131.162 362.5,-123 412.543,-101.626 772.53,-82.1748 915.343,-75.2139"/>
<polygon fill="midnightblue" stroke="midnightblue" points="283.202,-186.91 277.758,-196 287.682,-192.289 283.202,-186.91"/>
</g>
<!-- Node11 -->
<g id="node11" class="node"><title>Node11</title>
<g id="a_node11"><a xlink:href="irc_8cpp.html" target="_top" xlink:title="modules/irc/irc.cpp">
<polygon fill="none" stroke="black" points="722,-129 722,-148 821,-148 821,-129 722,-129"/>
<text text-anchor="middle" x="771.5" y="-136" font-family="Helvetica,sans-Serif" font-size="10.00">modules/irc/irc.cpp</text>
</a>
</g>
</g>
<!-- Node5&#45;&gt;Node11 -->
<g id="edge11" class="edge"><title>Node5&#45;&gt;Node11</title>
<path fill="none" stroke="midnightblue" d="M313.338,-193.845C320.4,-192.417 327.627,-191.076 334.5,-190 496.858,-164.577 540.067,-178.936 702.5,-154 713.026,-152.384 724.367,-150.192 734.753,-148.002"/>
<polygon fill="midnightblue" stroke="midnightblue" points="312.238,-190.5 303.171,-195.98 313.677,-197.35 312.238,-190.5"/>
</g>
<!-- Node12 -->
<g id="node12" class="node"><title>Node12</title>
<g id="a_node12"><a xlink:href="xonotic_8cpp.html" target="_top" xlink:title="modules/xonotic/xonotic.cpp">
<polygon fill="none" stroke="black" points="372,-129 372,-148 513,-148 513,-129 372,-129"/>
<text text-anchor="middle" x="442.5" y="-136" font-family="Helvetica,sans-Serif" font-size="10.00">modules/xonotic/xonotic.cpp</text>
</a>
</g>
</g>
<!-- Node5&#45;&gt;Node12 -->
<g id="edge12" class="edge"><title>Node5&#45;&gt;Node12</title>
<path fill="none" stroke="midnightblue" d="M300.425,-192.271C335.158,-179.37 388.988,-159.376 419.444,-148.064"/>
<polygon fill="midnightblue" stroke="midnightblue" points="298.894,-189.106 290.739,-195.869 301.332,-195.668 298.894,-189.106"/>
</g>
<!-- Node14 -->
<g id="node14" class="node"><title>Node14</title>
<g id="a_node14"><a xlink:href="fun-handlers_8hpp.html" target="_top" xlink:title="This file contains definitions for handlers which are pretty useless. ">
<polygon fill="none" stroke="black" points="1050,-62 1050,-81 1195,-81 1195,-62 1050,-62"/>
<text text-anchor="middle" x="1122.5" y="-69" font-family="Helvetica,sans-Serif" font-size="10.00">modules/fun/fun&#45;handlers.hpp</text>
</a>
</g>
</g>
<!-- Node13&#45;&gt;Node14 -->
<g id="edge14" class="edge"><title>Node13&#45;&gt;Node14</title>
<path fill="none" stroke="midnightblue" d="M1095.4,-186.14C1089.97,-169.42 1084.35,-144.182 1090.5,-123 1095.24,-106.652 1107.04,-90.5248 1114.91,-81.0445"/>
<polygon fill="midnightblue" stroke="midnightblue" points="1092.18,-187.518 1098.82,-195.77 1098.77,-185.175 1092.18,-187.518"/>
</g>
<!-- Node16 -->
<g id="node16" class="node"><title>Node16</title>
<g id="a_node16"><a xlink:href="web-api-concrete_8hpp.html" target="_top" xlink:title="This files defines some simple Handlers using web APIs. ">
<polygon fill="none" stroke="black" points="880,-123.5 880,-153.5 991,-153.5 991,-123.5 880,-123.5"/>
<text text-anchor="start" x="888" y="-141.5" font-family="Helvetica,sans-Serif" font-size="10.00">modules/web/web&#45;api</text>
<text text-anchor="middle" x="935.5" y="-130.5" font-family="Helvetica,sans-Serif" font-size="10.00">&#45;concrete.hpp</text>
</a>
</g>
</g>
<!-- Node13&#45;&gt;Node16 -->
<g id="edge17" class="edge"><title>Node13&#45;&gt;Node16</title>
<path fill="none" stroke="midnightblue" d="M1070.9,-192.202C1042.61,-181.188 1001.12,-165.042 971.541,-153.528"/>
<polygon fill="midnightblue" stroke="midnightblue" points="1069.74,-195.503 1080.32,-195.869 1072.27,-188.98 1069.74,-195.503"/>
</g>
<!-- Node14&#45;&gt;Node8 -->
<g id="edge16" class="edge"><title>Node14&#45;&gt;Node8</title>
<path fill="none" stroke="midnightblue" d="M1067.46,-60.241C1058.47,-58.7163 1049.24,-57.2422 1040.5,-56 910.016,-37.4443 755.589,-22.6323 676.304,-15.5461"/>
<polygon fill="midnightblue" stroke="midnightblue" points="1067.02,-63.7175 1077.47,-61.9744 1068.22,-56.82 1067.02,-63.7175"/>
</g>
<!-- Node15 -->
<g id="node15" class="node"><title>Node15</title>
<g id="a_node15"><a xlink:href="fun-handlers_8cpp.html" target="_top" xlink:title="modules/fun/fun&#45;handlers.cpp">
<polygon fill="none" stroke="black" points="1050,-0.5 1050,-19.5 1195,-19.5 1195,-0.5 1050,-0.5"/>
<text text-anchor="middle" x="1122.5" y="-7.5" font-family="Helvetica,sans-Serif" font-size="10.00">modules/fun/fun&#45;handlers.cpp</text>
</a>
</g>
</g>
<!-- Node14&#45;&gt;Node15 -->
<g id="edge15" class="edge"><title>Node14&#45;&gt;Node15</title>
<path fill="none" stroke="midnightblue" d="M1122.5,-51.8165C1122.5,-40.9962 1122.5,-27.898 1122.5,-19.5091"/>
<polygon fill="midnightblue" stroke="midnightblue" points="1119,-51.9751 1122.5,-61.9751 1126,-51.9751 1119,-51.9751"/>
</g>
<!-- Node16&#45;&gt;Node9 -->
<g id="edge18" class="edge"><title>Node16&#45;&gt;Node9</title>
<path fill="none" stroke="midnightblue" d="M869.816,-124.906C802.433,-111.986 699.451,-92.2399 641.031,-81.0384"/>
<polygon fill="midnightblue" stroke="midnightblue" points="869.42,-128.394 879.901,-126.839 870.739,-121.519 869.42,-128.394"/>
</g>
<!-- Node17&#45;&gt;Node10 -->
<g id="edge27" class="edge"><title>Node17&#45;&gt;Node10</title>
<path fill="none" stroke="midnightblue" d="M1353.47,-190.312C1322.93,-182.149 1286.7,-170.237 1256.5,-154 1237.3,-143.68 1238.2,-132.322 1218.5,-123 1145.54,-88.4807 1119.5,-103.537 1040.5,-87 1031.41,-85.0981 1021.64,-83.0091 1012.45,-81.0235"/>
<polygon fill="midnightblue" stroke="midnightblue" points="1352.6,-193.704 1363.16,-192.831 1354.36,-186.929 1352.6,-193.704"/>
</g>
<!-- Node18 -->
<g id="node18" class="node"><title>Node18</title>
<g id="a_node18"><a xlink:href="bridge_8hpp.html" target="_top" xlink:title="modules/core/handler\l/bridge.hpp">
<polygon fill="none" stroke="black" points="1265.5,-123.5 1265.5,-153.5 1375.5,-153.5 1375.5,-123.5 1265.5,-123.5"/>
<text text-anchor="start" x="1273.5" y="-141.5" font-family="Helvetica,sans-Serif" font-size="10.00">modules/core/handler</text>
<text text-anchor="middle" x="1320.5" y="-130.5" font-family="Helvetica,sans-Serif" font-size="10.00">/bridge.hpp</text>
</a>
</g>
</g>
<!-- Node17&#45;&gt;Node18 -->
<g id="edge20" class="edge"><title>Node17&#45;&gt;Node18</title>
<path fill="none" stroke="midnightblue" d="M1388.7,-184.734C1373.53,-174.676 1355.46,-162.685 1341.72,-153.577"/>
<polygon fill="midnightblue" stroke="midnightblue" points="1386.97,-187.785 1397.24,-190.396 1390.84,-181.952 1386.97,-187.785"/>
</g>
<!-- Node20 -->
<g id="node20" class="node"><title>Node20</title>
<g id="a_node20"><a xlink:href="simple-group_8cpp.html" target="_top" xlink:title="This file contains the definitions for the most basic and reusable handlers. ">
<polygon fill="none" stroke="black" points="1393.5,-123.5 1393.5,-153.5 1503.5,-153.5 1503.5,-123.5 1393.5,-123.5"/>
<text text-anchor="start" x="1401.5" y="-141.5" font-family="Helvetica,sans-Serif" font-size="10.00">modules/core/handler</text>
<text text-anchor="middle" x="1448.5" y="-130.5" font-family="Helvetica,sans-Serif" font-size="10.00">/simple&#45;group.cpp</text>
</a>
</g>
</g>
<!-- Node17&#45;&gt;Node20 -->
<g id="edge24" class="edge"><title>Node17&#45;&gt;Node20</title>
<path fill="none" stroke="midnightblue" d="M1429.22,-181.283C1433.49,-172.022 1438.27,-161.663 1442,-153.577"/>
<polygon fill="midnightblue" stroke="midnightblue" points="1426.02,-179.85 1425.01,-190.396 1432.38,-182.783 1426.02,-179.85"/>
</g>
<!-- Node21 -->
<g id="node21" class="node"><title>Node21</title>
<g id="a_node21"><a xlink:href="admin_8hpp.html" target="_top" xlink:title="This file defines handlers which allows admin to administrate the bot. ">
<polygon fill="none" stroke="black" points="1099.5,-123.5 1099.5,-153.5 1209.5,-153.5 1209.5,-123.5 1099.5,-123.5"/>
<text text-anchor="start" x="1107.5" y="-141.5" font-family="Helvetica,sans-Serif" font-size="10.00">modules/core/handler</text>
<text text-anchor="middle" x="1154.5" y="-130.5" font-family="Helvetica,sans-Serif" font-size="10.00">/admin.hpp</text>
</a>
</g>
</g>
<!-- Node17&#45;&gt;Node21 -->
<g id="edge25" class="edge"><title>Node17&#45;&gt;Node21</title>
<path fill="none" stroke="midnightblue" d="M1353.72,-188.55C1309.62,-177.692 1251.87,-163.473 1209.9,-153.141"/>
<polygon fill="midnightblue" stroke="midnightblue" points="1352.93,-191.961 1363.48,-190.953 1354.61,-185.164 1352.93,-191.961"/>
</g>
<!-- Node18&#45;&gt;Node10 -->
<g id="edge23" class="edge"><title>Node18&#45;&gt;Node10</title>
<path fill="none" stroke="midnightblue" d="M1255.29,-123.727C1254.01,-123.481 1252.75,-123.238 1251.5,-123 1158.04,-105.215 1133.9,-105.066 1040.5,-87 1031.15,-85.192 1021.1,-83.0979 1011.71,-81.0732"/>
<polygon fill="midnightblue" stroke="midnightblue" points="1254.69,-127.176 1265.18,-125.68 1256.04,-120.309 1254.69,-127.176"/>
</g>
<!-- Node18&#45;&gt;Node14 -->
<g id="edge21" class="edge"><title>Node18&#45;&gt;Node14</title>
<path fill="none" stroke="midnightblue" d="M1268.01,-120.269C1229.43,-107.603 1178.65,-90.9344 1148.41,-81.007"/>
<polygon fill="midnightblue" stroke="midnightblue" points="1266.94,-123.602 1277.54,-123.396 1269.13,-116.951 1266.94,-123.602"/>
</g>
<!-- Node19 -->
<g id="node19" class="node"><title>Node19</title>
<g id="a_node19"><a xlink:href="bridge_8cpp.html" target="_top" xlink:title="modules/core/handler\l/bridge.cpp">
<polygon fill="none" stroke="black" points="1265.5,-56.5 1265.5,-86.5 1375.5,-86.5 1375.5,-56.5 1265.5,-56.5"/>
<text text-anchor="start" x="1273.5" y="-74.5" font-family="Helvetica,sans-Serif" font-size="10.00">modules/core/handler</text>
<text text-anchor="middle" x="1320.5" y="-63.5" font-family="Helvetica,sans-Serif" font-size="10.00">/bridge.cpp</text>
</a>
</g>
</g>
<!-- Node18&#45;&gt;Node19 -->
<g id="edge22" class="edge"><title>Node18&#45;&gt;Node19</title>
<path fill="none" stroke="midnightblue" d="M1320.5,-113.108C1320.5,-104.154 1320.5,-94.3227 1320.5,-86.5765"/>
<polygon fill="midnightblue" stroke="midnightblue" points="1317,-113.396 1320.5,-123.396 1324,-113.396 1317,-113.396"/>
</g>
<!-- Node21&#45;&gt;Node10 -->
<g id="edge26" class="edge"><title>Node21&#45;&gt;Node10</title>
<path fill="none" stroke="midnightblue" d="M1105.62,-119.946C1070.46,-107.321 1024.6,-90.8502 997.189,-81.007"/>
<polygon fill="midnightblue" stroke="midnightblue" points="1104.63,-123.31 1115.23,-123.396 1107,-116.722 1104.63,-123.31"/>
</g>
<!-- Node22&#45;&gt;Node10 -->
<g id="edge29" class="edge"><title>Node22&#45;&gt;Node10</title>
<path fill="none" stroke="midnightblue" d="M703.856,-124.685C706.777,-124.115 709.669,-123.551 712.5,-123 788.607,-108.181 877.227,-91.0632 929.16,-81.046"/>
<polygon fill="midnightblue" stroke="midnightblue" points="703,-121.286 693.856,-126.638 704.342,-128.156 703,-121.286"/>
</g>
<!-- Node23&#45;&gt;Node12 -->
<g id="edge31" class="edge"><title>Node23&#45;&gt;Node12</title>
<path fill="none" stroke="midnightblue" d="M417.869,-181.632C424.63,-170.067 432.436,-156.714 437.417,-148.195"/>
<polygon fill="midnightblue" stroke="midnightblue" points="414.771,-179.997 412.745,-190.396 420.814,-183.529 414.771,-179.997"/>
</g>
<!-- Node24&#45;&gt;Node11 -->
<g id="edge33" class="edge"><title>Node24&#45;&gt;Node11</title>
<path fill="none" stroke="midnightblue" d="M915.787,-187.108C877.462,-174.462 827.243,-157.892 797.283,-148.007"/>
<polygon fill="midnightblue" stroke="midnightblue" points="915.161,-190.586 925.754,-190.396 917.354,-183.939 915.161,-190.586"/>
</g>
<!-- Node25&#45;&gt;Node11 -->
<g id="edge35" class="edge"><title>Node25&#45;&gt;Node11</title>
<path fill="none" stroke="midnightblue" d="M625.254,-187.269C664.03,-174.603 715.062,-157.934 745.455,-148.007"/>
<polygon fill="midnightblue" stroke="midnightblue" points="624.099,-183.964 615.68,-190.396 626.273,-190.618 624.099,-183.964"/>
</g>
<!-- Node26&#45;&gt;Node11 -->
<g id="edge37" class="edge"><title>Node26&#45;&gt;Node11</title>
<path fill="none" stroke="midnightblue" d="M744.925,-181.632C752.219,-170.067 760.642,-156.714 766.016,-148.195"/>
<polygon fill="midnightblue" stroke="midnightblue" points="741.771,-180.071 739.396,-190.396 747.692,-183.805 741.771,-180.071"/>
</g>
<!-- Node27&#45;&gt;Node11 -->
<g id="edge39" class="edge"><title>Node27&#45;&gt;Node11</title>
<path fill="none" stroke="midnightblue" d="M824.507,-183.672C810.105,-171.671 792.764,-157.22 781.933,-148.195"/>
<polygon fill="midnightblue" stroke="midnightblue" points="822.652,-186.683 832.575,-190.396 827.134,-181.305 822.652,-186.683"/>
</g>
<!-- Node28&#45;&gt;Node7 -->
<g id="edge42" class="edge"><title>Node28&#45;&gt;Node7</title>
<path fill="none" stroke="midnightblue" d="M132.934,-258.891C115.112,-251.009 95.7941,-238.878 85.5,-221 78.625,-209.06 78.7488,-202.01 85.5,-190 97.3191,-168.974 121.832,-155.681 141.17,-148.042"/>
<polygon fill="midnightblue" stroke="midnightblue" points="132.033,-262.304 142.614,-262.842 134.678,-255.823 132.033,-262.304"/>
</g>
<!-- Node29&#45;&gt;Node12 -->
<g id="edge45" class="edge"><title>Node29&#45;&gt;Node12</title>
<path fill="none" stroke="midnightblue" d="M672.064,-247.941C664.286,-229.523 650.976,-204.661 631.5,-190 597.446,-164.365 551.359,-151.727 513.22,-145.505"/>
<polygon fill="midnightblue" stroke="midnightblue" points="668.878,-249.401 675.82,-257.404 675.384,-246.819 668.878,-249.401"/>
</g>
<!-- Node30 -->
<g id="node30" class="node"><title>Node30</title>
<g id="a_node30"><a xlink:href="xonotic-connection_8cpp.html" target="_top" xlink:title="modules/xonotic/xonotic\l&#45;connection.cpp">
<polygon fill="none" stroke="black" points="1185.5,-190.5 1185.5,-220.5 1307.5,-220.5 1307.5,-190.5 1185.5,-190.5"/>
<text text-anchor="start" x="1193.5" y="-208.5" font-family="Helvetica,sans-Serif" font-size="10.00">modules/xonotic/xonotic</text>
<text text-anchor="middle" x="1246.5" y="-197.5" font-family="Helvetica,sans-Serif" font-size="10.00">&#45;connection.cpp</text>
</a>
</g>
</g>
<!-- Node29&#45;&gt;Node30 -->
<g id="edge44" class="edge"><title>Node29&#45;&gt;Node30</title>
<path fill="none" stroke="midnightblue" d="M752.086,-266.534C848.766,-259.298 1026.28,-244.143 1176.5,-221 1179.44,-220.546 1182.45,-220.051 1185.48,-219.524"/>
<polygon fill="midnightblue" stroke="midnightblue" points="751.558,-263.063 741.845,-267.293 752.076,-270.044 751.558,-263.063"/>
</g>
<!-- Node31&#45;&gt;Node11 -->
<g id="edge47" class="edge"><title>Node31&#45;&gt;Node11</title>
<path fill="none" stroke="midnightblue" d="M1404.73,-252.4C1389.04,-243.392 1370.49,-232.182 1354.5,-221 1336.64,-208.51 1336.72,-198.133 1316.5,-190 1224.25,-152.895 969.299,-165.211 870.5,-154 854.362,-152.169 836.806,-149.741 821.02,-147.397"/>
<polygon fill="midnightblue" stroke="midnightblue" points="1403.17,-255.537 1413.59,-257.432 1406.62,-249.45 1403.17,-255.537"/>
</g>
<!-- Node32 -->
<g id="node32" class="node"><title>Node32</title>
<g id="a_node32"><a xlink:href="buffer_8cpp.html" target="_top" xlink:title="modules/irc/network\l/buffer.cpp">
<polygon fill="none" stroke="black" points="1491.5,-190.5 1491.5,-220.5 1595.5,-220.5 1595.5,-190.5 1491.5,-190.5"/>
<text text-anchor="start" x="1499.5" y="-208.5" font-family="Helvetica,sans-Serif" font-size="10.00">modules/irc/network</text>
<text text-anchor="middle" x="1543.5" y="-197.5" font-family="Helvetica,sans-Serif" font-size="10.00">/buffer.cpp</text>
</a>
</g>
</g>
<!-- Node31&#45;&gt;Node32 -->
<g id="edge48" class="edge"><title>Node31&#45;&gt;Node32</title>
<path fill="none" stroke="midnightblue" d="M1470.68,-252.015C1486.86,-241.9 1506.27,-229.77 1520.98,-220.577"/>
<polygon fill="midnightblue" stroke="midnightblue" points="1468.69,-249.128 1462.07,-257.396 1472.4,-255.064 1468.69,-249.128"/>
</g>
<!-- Node33 -->
<g id="node33" class="node"><title>Node33</title>
<g id="a_node33"><a xlink:href="connection_8cpp.html" target="_top" xlink:title="modules/irc/network\l/connection.cpp">
<polygon fill="none" stroke="black" points="1613.5,-190.5 1613.5,-220.5 1717.5,-220.5 1717.5,-190.5 1613.5,-190.5"/>
<text text-anchor="start" x="1621.5" y="-208.5" font-family="Helvetica,sans-Serif" font-size="10.00">modules/irc/network</text>
<text text-anchor="middle" x="1665.5" y="-197.5" font-family="Helvetica,sans-Serif" font-size="10.00">/connection.cpp</text>
</a>
</g>
</g>
<!-- Node31&#45;&gt;Node33 -->
<g id="edge49" class="edge"><title>Node31&#45;&gt;Node33</title>
<path fill="none" stroke="midnightblue" d="M1498.33,-254.58C1535.04,-244.022 1581.73,-230.592 1616.44,-220.611"/>
<polygon fill="midnightblue" stroke="midnightblue" points="1496.9,-251.348 1488.26,-257.476 1498.84,-258.076 1496.9,-251.348"/>
</g>
</g>
</svg>
        <g id="navigator" transform="translate(0 0)" fill="#404254">
                <rect fill="#f2f5e9" fill-opacity="0.5" stroke="#606060" stroke-width=".5" x="0" y="0" width="60" height="60"/>
                <use id="zoomplus" xlink:href="#zoomPlus" x="17" y="9" onmousedown="handleZoom(evt,'in')"/>
                <use id="zoomminus" xlink:href="#zoomMin" x="42" y="9" onmousedown="handleZoom(evt,'out')"/>
                <use id="reset" xlink:href="#resetDef" x="30" y="36" onmousedown="handleReset()"/>
                <g id="arrowUp" xlink:href="#dirArrow" transform="translate(30 24)" onmousedown="handlePan(0,-1)">
                  <use xlink:href="#rim" fill="#404040">
                        <set attributeName="fill" to="#808080" begin="arrowUp.mouseover" end="arrowUp.mouseout"/>
                  </use>
                  <path fill="none" stroke="white" stroke-width="1.5" d="M0,-3.0v7 M-2.5,-0.5L0,-3.0L2.5,-0.5"/>
                </g>
                <g id="arrowRight" xlink:href="#dirArrow" transform="rotate(90) translate(36 -43)" onmousedown="handlePan(1,0)">
                  <use xlink:href="#rim" fill="#404040">
                        <set attributeName="fill" to="#808080" begin="arrowRight.mouseover" end="arrowRight.mouseout"/>
                  </use>
                  <path fill="none" stroke="white" stroke-width="1.5" d="M0,-3.0v7 M-2.5,-0.5L0,-3.0L2.5,-0.5"/>
                </g>
                <g id="arrowDown" xlink:href="#dirArrow" transform="rotate(180) translate(-30 -48)" onmousedown="handlePan(0,1)">
                  <use xlink:href="#rim" fill="#404040">
                        <set attributeName="fill" to="#808080" begin="arrowDown.mouseover" end="arrowDown.mouseout"/>
                  </use>
                  <path fill="none" stroke="white" stroke-width="1.5" d="M0,-3.0v7 M-2.5,-0.5L0,-3.0L2.5,-0.5"/>
                </g>
                <g id="arrowLeft" xlink:href="#dirArrow" transform="rotate(270) translate(-36 17)" onmousedown="handlePan(-1,0)">
                  <use xlink:href="#rim" fill="#404040">
                        <set attributeName="fill" to="#808080" begin="arrowLeft.mouseover" end="arrowLeft.mouseout"/>
                  </use>
                  <path fill="none" stroke="white" stroke-width="1.5" d="M0,-3.0v7 M-2.5,-0.5L0,-3.0L2.5,-0.5"/>
                </g>
        </g>
        <svg viewBox="0 0 15 15" width="100%" height="30px" preserveAspectRatio="xMaxYMin meet">
         <g id="arrow_out" transform="scale(0.3 0.3)">
          <a xlink:href="handler__container_8hpp__dep__incl_org.svg" target="_base">
           <rect id="button" ry="5" rx="5" y="6" x="6" height="38" width="38"
                fill="#f2f5e9" fill-opacity="0.5" stroke="#606060" stroke-width="1.0"/>
           <path id="arrow"
             d="M 11.500037,31.436501 C 11.940474,20.09759 22.043105,11.32322 32.158766,21.979434 L 37.068811,17.246167 C 37.068811,17.246167 37.088388,32 37.088388,32 L 22.160133,31.978069 C 22.160133,31.978069 26.997745,27.140456 26.997745,27.140456 C 18.528582,18.264221 13.291696,25.230495 11.500037,31.436501 z"
             style="fill:#404040;"/>
          </a>
         </g>
        </svg>
</svg>
