<?xml version="1.0" encoding="UTF-8" standalone="no"?>
<!DOCTYPE svg PUBLIC "-//W3C//DTD SVG 1.1//EN"
 "http://www.w3.org/Graphics/SVG/1.1/DTD/svg11.dtd">
<!-- Generated by graphviz version 2.38.0 (20140413.2041)
 -->
<!-- Title: src/network/http.hpp Pages: 1 -->
<svg width="1429pt" height="330pt"
 viewBox="0.00 0.00 1429.00 330.00" xmlns="http://www.w3.org/2000/svg" xmlns:xlink="http://www.w3.org/1999/xlink">
<g id="graph0" class="graph" transform="scale(1 1) rotate(0) translate(4 326)">
<title>src/network/http.hpp</title>
<!-- Node1 -->
<g id="node1" class="node"><title>Node1</title>
<polygon fill="#bfbfbf" stroke="black" points="996,-302.5 996,-321.5 1102,-321.5 1102,-302.5 996,-302.5"/>
<text text-anchor="middle" x="1049" y="-309.5" font-family="Helvetica,sans-Serif" font-size="10.00">src/network/http.hpp</text>
</g>
<!-- Node2 -->
<g id="node2" class="node"><title>Node2</title>
<g id="a_node2"><a xlink:href="async__service_8hpp.html" target="_top" xlink:title="async_service.hpp">
<polygon fill="none" stroke="black" points="958,-246.5 958,-265.5 1056,-265.5 1056,-246.5 958,-246.5"/>
<text text-anchor="middle" x="1007" y="-253.5" font-family="Helvetica,sans-Serif" font-size="10.00">async_service.hpp</text>
</a>
</g>
</g>
<!-- Node1&#45;&gt;Node2 -->
<g id="edge1" class="edge"><title>Node1&#45;&gt;Node2</title>
<path fill="none" stroke="midnightblue" d="M1042.06,-302.083C1036.07,-294.377 1027.25,-283.033 1019.95,-273.653"/>
<polygon fill="midnightblue" stroke="midnightblue" points="1022.71,-271.496 1013.81,-265.751 1017.18,-275.793 1022.71,-271.496"/>
</g>
<!-- Node30 -->
<g id="node30" class="node"><title>Node30</title>
<polygon fill="none" stroke="#bfbfbf" points="1074.5,-246.5 1074.5,-265.5 1109.5,-265.5 1109.5,-246.5 1074.5,-246.5"/>
<text text-anchor="middle" x="1092" y="-253.5" font-family="Helvetica,sans-Serif" font-size="10.00">map</text>
</g>
<!-- Node1&#45;&gt;Node30 -->
<g id="edge44" class="edge"><title>Node1&#45;&gt;Node30</title>
<path fill="none" stroke="midnightblue" d="M1056.1,-302.083C1062.24,-294.377 1071.27,-283.033 1078.74,-273.653"/>
<polygon fill="midnightblue" stroke="midnightblue" points="1081.54,-275.754 1085.03,-265.751 1076.06,-271.394 1081.54,-275.754"/>
</g>
<!-- Node3 -->
<g id="node3" class="node"><title>Node3</title>
<polygon fill="none" stroke="#bfbfbf" points="238.5,-62 238.5,-81 297.5,-81 297.5,-62 238.5,-62"/>
<text text-anchor="middle" x="268" y="-69" font-family="Helvetica,sans-Serif" font-size="10.00">functional</text>
</g>
<!-- Node2&#45;&gt;Node3 -->
<g id="edge2" class="edge"><title>Node2&#45;&gt;Node3</title>
<path fill="none" stroke="midnightblue" d="M957.852,-251.575C856.047,-243.382 615.702,-218.325 425,-154 374.059,-136.817 319.374,-105.025 289.885,-86.6381"/>
<polygon fill="midnightblue" stroke="midnightblue" points="291.556,-83.5544 281.232,-81.1749 287.819,-89.4733 291.556,-83.5544"/>
</g>
<!-- Node4 -->
<g id="node4" class="node"><title>Node4</title>
<polygon fill="none" stroke="#bfbfbf" points="1033.5,-0.5 1033.5,-19.5 1074.5,-19.5 1074.5,-0.5 1033.5,-0.5"/>
<text text-anchor="middle" x="1054" y="-7.5" font-family="Helvetica,sans-Serif" font-size="10.00">string</text>
</g>
<!-- Node2&#45;&gt;Node4 -->
<g id="edge3" class="edge"><title>Node2&#45;&gt;Node4</title>
<path fill="none" stroke="midnightblue" d="M1041.66,-246.462C1109.8,-229.117 1258.01,-188.481 1297,-154 1321.86,-132.009 1322.47,-119.329 1330,-87 1333.13,-73.5814 1338.92,-66.497 1330,-56 1298.8,-19.2975 1150.11,-12.4565 1084.84,-11.2355"/>
<polygon fill="midnightblue" stroke="midnightblue" points="1084.8,-7.73463 1074.75,-11.0797 1084.69,-14.7338 1084.8,-7.73463"/>
</g>
<!-- Node5 -->
<g id="node5" class="node"><title>Node5</title>
<polygon fill="none" stroke="#bfbfbf" points="1377,-190.5 1377,-209.5 1421,-209.5 1421,-190.5 1377,-190.5"/>
<text text-anchor="middle" x="1399" y="-197.5" font-family="Helvetica,sans-Serif" font-size="10.00">thread</text>
</g>
<!-- Node2&#45;&gt;Node5 -->
<g id="edge4" class="edge"><title>Node2&#45;&gt;Node5</title>
<path fill="none" stroke="midnightblue" d="M1056.24,-247.373C1059.54,-246.897 1062.82,-246.435 1066,-246 1197.74,-227.972 1232.25,-234.171 1363,-210 1364.25,-209.769 1365.52,-209.521 1366.79,-209.259"/>
<polygon fill="midnightblue" stroke="midnightblue" points="1367.64,-212.657 1376.63,-207.051 1366.1,-205.827 1367.64,-212.657"/>
</g>
<!-- Node6 -->
<g id="node6" class="node"><title>Node6</title>
<g id="a_node6"><a xlink:href="logger_8hpp.html" target="_top" xlink:title="string/logger.hpp">
<polygon fill="none" stroke="black" points="962.5,-190.5 962.5,-209.5 1051.5,-209.5 1051.5,-190.5 962.5,-190.5"/>
<text text-anchor="middle" x="1007" y="-197.5" font-family="Helvetica,sans-Serif" font-size="10.00">string/logger.hpp</text>
</a>
</g>
</g>
<!-- Node2&#45;&gt;Node6 -->
<g id="edge5" class="edge"><title>Node2&#45;&gt;Node6</title>
<path fill="none" stroke="midnightblue" d="M1007,-246.083C1007,-239.006 1007,-228.861 1007,-219.986"/>
<polygon fill="midnightblue" stroke="midnightblue" points="1010.5,-219.751 1007,-209.751 1003.5,-219.751 1010.5,-219.751"/>
</g>
<!-- Node26 -->
<g id="node26" class="node"><title>Node26</title>
<g id="a_node26"><a xlink:href="concurrent__container_8hpp.html" target="_top" xlink:title="concurrent_container.hpp">
<polygon fill="none" stroke="black" points="171,-129 171,-148 297,-148 297,-129 171,-129"/>
<text text-anchor="middle" x="234" y="-136" font-family="Helvetica,sans-Serif" font-size="10.00">concurrent_container.hpp</text>
</a>
</g>
</g>
<!-- Node2&#45;&gt;Node26 -->
<g id="edge38" class="edge"><title>Node2&#45;&gt;Node26</title>
<path fill="none" stroke="midnightblue" d="M957.914,-254.784C824.713,-253.706 458.839,-247.329 345,-210 308.746,-198.112 272.521,-171.699 251.737,-154.793"/>
<polygon fill="midnightblue" stroke="midnightblue" points="253.745,-151.91 243.821,-148.199 249.265,-157.289 253.745,-151.91"/>
</g>
<!-- Node6&#45;&gt;Node4 -->
<g id="edge10" class="edge"><title>Node6&#45;&gt;Node4</title>
<path fill="none" stroke="midnightblue" d="M1011.37,-190.189C1019.16,-175.098 1036.67,-143.914 1058,-123 1079.13,-102.285 1099.82,-112.97 1114,-87 1120.6,-74.9071 1120.16,-68.3232 1114,-56 1107.27,-42.5432 1094.39,-32.0665 1082.29,-24.6212"/>
<polygon fill="midnightblue" stroke="midnightblue" points="1083.72,-21.4101 1073.3,-19.5195 1080.27,-27.4985 1083.72,-21.4101"/>
</g>
<!-- Node7 -->
<g id="node7" class="node"><title>Node7</title>
<polygon fill="none" stroke="#bfbfbf" points="1067,-129 1067,-148 1117,-148 1117,-129 1067,-129"/>
<text text-anchor="middle" x="1092" y="-136" font-family="Helvetica,sans-Serif" font-size="10.00">iomanip</text>
</g>
<!-- Node6&#45;&gt;Node7 -->
<g id="edge6" class="edge"><title>Node6&#45;&gt;Node7</title>
<path fill="none" stroke="midnightblue" d="M1019.18,-190.475C1032.81,-180.931 1055.13,-165.307 1071.47,-153.868"/>
<polygon fill="midnightblue" stroke="midnightblue" points="1073.66,-156.611 1079.84,-148.009 1069.64,-150.876 1073.66,-156.611"/>
</g>
<!-- Node8 -->
<g id="node8" class="node"><title>Node8</title>
<polygon fill="none" stroke="#bfbfbf" points="1267,-62 1267,-81 1321,-81 1321,-62 1267,-62"/>
<text text-anchor="middle" x="1294" y="-69" font-family="Helvetica,sans-Serif" font-size="10.00">iostream</text>
</g>
<!-- Node6&#45;&gt;Node8 -->
<g id="edge7" class="edge"><title>Node6&#45;&gt;Node8</title>
<path fill="none" stroke="midnightblue" d="M1051.65,-197.429C1119.61,-194.093 1244.46,-183.957 1276,-154 1292.88,-137.969 1295.66,-109.961 1295.39,-91.3228"/>
<polygon fill="midnightblue" stroke="midnightblue" points="1298.88,-90.9503 1294.93,-81.1193 1291.89,-91.2677 1298.88,-90.9503"/>
</g>
<!-- Node9 -->
<g id="node9" class="node"><title>Node9</title>
<polygon fill="none" stroke="#bfbfbf" points="1223,-129 1223,-148 1267,-148 1267,-129 1223,-129"/>
<text text-anchor="middle" x="1245" y="-136" font-family="Helvetica,sans-Serif" font-size="10.00">mutex</text>
</g>
<!-- Node6&#45;&gt;Node9 -->
<g id="edge8" class="edge"><title>Node6&#45;&gt;Node9</title>
<path fill="none" stroke="midnightblue" d="M1051.79,-192.239C1094.25,-185.137 1159.47,-172.421 1214,-154 1215.66,-153.438 1217.36,-152.812 1219.05,-152.145"/>
<polygon fill="midnightblue" stroke="midnightblue" points="1220.77,-155.216 1228.55,-148.027 1217.98,-148.794 1220.77,-155.216"/>
</g>
<!-- Node10 -->
<g id="node10" class="node"><title>Node10</title>
<polygon fill="none" stroke="#bfbfbf" points="315.5,-62 315.5,-81 374.5,-81 374.5,-62 315.5,-62"/>
<text text-anchor="middle" x="345" y="-69" font-family="Helvetica,sans-Serif" font-size="10.00">stdexcept</text>
</g>
<!-- Node6&#45;&gt;Node10 -->
<g id="edge9" class="edge"><title>Node6&#45;&gt;Node10</title>
<path fill="none" stroke="midnightblue" d="M962.172,-197.306C854.776,-192.882 585.284,-179.518 499,-154 447.698,-138.827 393.779,-105.72 365.345,-86.7009"/>
<polygon fill="midnightblue" stroke="midnightblue" points="367.282,-83.786 357.044,-81.0613 363.348,-89.5761 367.282,-83.786"/>
</g>
<!-- Node11 -->
<g id="node11" class="node"><title>Node11</title>
<polygon fill="none" stroke="#bfbfbf" points="825.5,-62 825.5,-81 908.5,-81 908.5,-62 825.5,-62"/>
<text text-anchor="middle" x="867" y="-69" font-family="Helvetica,sans-Serif" font-size="10.00">unordered_map</text>
</g>
<!-- Node6&#45;&gt;Node11 -->
<g id="edge11" class="edge"><title>Node6&#45;&gt;Node11</title>
<path fill="none" stroke="midnightblue" d="M988.239,-190.362C972.032,-182.349 948.525,-169.366 931,-154 909.2,-134.886 889.484,-107.539 877.868,-89.9"/>
<polygon fill="midnightblue" stroke="midnightblue" points="880.636,-87.7338 872.286,-81.213 874.747,-91.518 880.636,-87.7338"/>
</g>
<!-- Node12 -->
<g id="node12" class="node"><title>Node12</title>
<polygon fill="none" stroke="#bfbfbf" points="508.5,-123.5 508.5,-153.5 613.5,-153.5 613.5,-123.5 508.5,-123.5"/>
<text text-anchor="start" x="516.5" y="-141.5" font-family="Helvetica,sans-Serif" font-size="10.00">boost/chrono/io/time</text>
<text text-anchor="middle" x="561" y="-130.5" font-family="Helvetica,sans-Serif" font-size="10.00">_point_io.hpp</text>
</g>
<!-- Node6&#45;&gt;Node12 -->
<g id="edge12" class="edge"><title>Node6&#45;&gt;Node12</title>
<path fill="none" stroke="midnightblue" d="M962.291,-195.485C892.1,-189.593 751.633,-176.298 623.787,-154.201"/>
<polygon fill="midnightblue" stroke="midnightblue" points="624.276,-150.733 613.822,-152.456 623.069,-157.628 624.276,-150.733"/>
</g>
<!-- Node13 -->
<g id="node13" class="node"><title>Node13</title>
<g id="a_node13"><a xlink:href="multibuf_8hpp.html" target="_top" xlink:title="multibuf.hpp">
<polygon fill="none" stroke="black" points="1135,-129 1135,-148 1205,-148 1205,-129 1135,-129"/>
<text text-anchor="middle" x="1170" y="-136" font-family="Helvetica,sans-Serif" font-size="10.00">multibuf.hpp</text>
</a>
</g>
</g>
<!-- Node6&#45;&gt;Node13 -->
<g id="edge13" class="edge"><title>Node6&#45;&gt;Node13</title>
<path fill="none" stroke="midnightblue" d="M1030.35,-190.475C1058.31,-180.269 1105.33,-163.108 1136.99,-151.549"/>
<polygon fill="midnightblue" stroke="midnightblue" points="1138.5,-154.726 1146.69,-148.009 1136.1,-148.15 1138.5,-154.726"/>
</g>
<!-- Node16 -->
<g id="node16" class="node"><title>Node16</title>
<g id="a_node16"><a xlink:href="string_8hpp.html" target="_top" xlink:title="string.hpp">
<polygon fill="none" stroke="black" points="631.5,-129 631.5,-148 690.5,-148 690.5,-129 631.5,-129"/>
<text text-anchor="middle" x="661" y="-136" font-family="Helvetica,sans-Serif" font-size="10.00">string.hpp</text>
</a>
</g>
</g>
<!-- Node6&#45;&gt;Node16 -->
<g id="edge18" class="edge"><title>Node6&#45;&gt;Node16</title>
<path fill="none" stroke="midnightblue" d="M962.475,-191.343C894.388,-179.635 765.477,-157.466 700.519,-146.296"/>
<polygon fill="midnightblue" stroke="midnightblue" points="701.111,-142.846 690.662,-144.601 699.924,-149.745 701.111,-142.846"/>
</g>
<!-- Node24 -->
<g id="node24" class="node"><title>Node24</title>
<g id="a_node24"><a xlink:href="settings_8hpp.html" target="_top" xlink:title="settings.hpp">
<polygon fill="none" stroke="black" points="940,-129 940,-148 1010,-148 1010,-129 940,-129"/>
<text text-anchor="middle" x="975" y="-136" font-family="Helvetica,sans-Serif" font-size="10.00">settings.hpp</text>
</a>
</g>
</g>
<!-- Node6&#45;&gt;Node24 -->
<g id="edge33" class="edge"><title>Node6&#45;&gt;Node24</title>
<path fill="none" stroke="midnightblue" d="M1002.42,-190.475C997.758,-181.815 990.408,-168.149 984.49,-157.145"/>
<polygon fill="midnightblue" stroke="midnightblue" points="987.395,-155.158 979.576,-148.009 981.23,-158.474 987.395,-155.158"/>
</g>
<!-- Node13&#45;&gt;Node4 -->
<g id="edge17" class="edge"><title>Node13&#45;&gt;Node4</title>
<path fill="none" stroke="midnightblue" d="M1169.81,-128.822C1169,-112.66 1165.13,-77.6334 1147,-56 1131.03,-36.9494 1105.1,-25.3371 1084.67,-18.6927"/>
<polygon fill="midnightblue" stroke="midnightblue" points="1085.44,-15.271 1074.86,-15.7385 1083.42,-21.9737 1085.44,-15.271"/>
</g>
<!-- Node13&#45;&gt;Node8 -->
<g id="edge14" class="edge"><title>Node13&#45;&gt;Node8</title>
<path fill="none" stroke="midnightblue" d="M1186.47,-128.869C1207.4,-117.893 1243.78,-98.8243 1268.36,-85.9385"/>
<polygon fill="midnightblue" stroke="midnightblue" points="1270.23,-88.9099 1277.47,-81.1672 1266.98,-82.7101 1270.23,-88.9099"/>
</g>
<!-- Node14 -->
<g id="node14" class="node"><title>Node14</title>
<polygon fill="none" stroke="#bfbfbf" points="1199,-62 1199,-81 1249,-81 1249,-62 1199,-62"/>
<text text-anchor="middle" x="1224" y="-69" font-family="Helvetica,sans-Serif" font-size="10.00">fstream</text>
</g>
<!-- Node13&#45;&gt;Node14 -->
<g id="edge15" class="edge"><title>Node13&#45;&gt;Node14</title>
<path fill="none" stroke="midnightblue" d="M1177.28,-128.734C1185.7,-118.598 1199.75,-101.69 1210.25,-89.0556"/>
<polygon fill="midnightblue" stroke="midnightblue" points="1213.13,-91.0558 1216.83,-81.1273 1207.75,-86.5826 1213.13,-91.0558"/>
</g>
<!-- Node15 -->
<g id="node15" class="node"><title>Node15</title>
<polygon fill="none" stroke="#bfbfbf" points="393,-62 393,-81 437,-81 437,-62 393,-62"/>
<text text-anchor="middle" x="415" y="-69" font-family="Helvetica,sans-Serif" font-size="10.00">vector</text>
</g>
<!-- Node13&#45;&gt;Node15 -->
<g id="edge16" class="edge"><title>Node13&#45;&gt;Node15</title>
<path fill="none" stroke="midnightblue" d="M1147.92,-128.953C1141,-126.622 1133.27,-124.366 1126,-123 828.553,-67.1466 739.593,-160.468 446,-87 444.011,-86.5024 441.996,-85.8756 439.997,-85.1634"/>
<polygon fill="midnightblue" stroke="midnightblue" points="440.912,-81.7513 430.338,-81.0942 438.195,-88.2022 440.912,-81.7513"/>
</g>
<!-- Node16&#45;&gt;Node3 -->
<g id="edge20" class="edge"><title>Node16&#45;&gt;Node3</title>
<path fill="none" stroke="midnightblue" d="M640.645,-128.872C634.723,-126.654 628.183,-124.478 622,-123 484.522,-90.1287 443.336,-120.46 306,-87 303.17,-86.3105 300.265,-85.4668 297.384,-84.5363"/>
<polygon fill="midnightblue" stroke="midnightblue" points="298.411,-81.187 287.816,-81.1374 296.068,-87.7831 298.411,-81.187"/>
</g>
<!-- Node16&#45;&gt;Node4 -->
<g id="edge23" class="edge"><title>Node16&#45;&gt;Node4</title>
<path fill="none" stroke="midnightblue" d="M686.176,-128.943C710.559,-120.131 748.124,-105.148 778,-87 796.628,-75.6842 796.239,-65.1965 816,-56 885.325,-23.7366 976.243,-14.6029 1023.1,-12.0186"/>
<polygon fill="midnightblue" stroke="midnightblue" points="1023.4,-15.5082 1033.22,-11.5261 1023.06,-8.51652 1023.4,-15.5082"/>
</g>
<!-- Node16&#45;&gt;Node10 -->
<g id="edge22" class="edge"><title>Node16&#45;&gt;Node10</title>
<path fill="none" stroke="midnightblue" d="M640.204,-128.867C634.389,-126.702 628.015,-124.555 622,-123 518.426,-96.2175 487.574,-113.783 384,-87 381.181,-86.271 378.282,-85.412 375.399,-84.4821"/>
<polygon fill="midnightblue" stroke="midnightblue" points="376.391,-81.1213 365.796,-81.1328 374.086,-87.7308 376.391,-81.1213"/>
</g>
<!-- Node16&#45;&gt;Node11 -->
<g id="edge26" class="edge"><title>Node16&#45;&gt;Node11</title>
<path fill="none" stroke="midnightblue" d="M688.355,-128.869C724.855,-117.351 789.601,-96.9219 830.31,-84.077"/>
<polygon fill="midnightblue" stroke="midnightblue" points="831.376,-87.4106 839.86,-81.0637 829.27,-80.7351 831.376,-87.4106"/>
</g>
<!-- Node16&#45;&gt;Node15 -->
<g id="edge27" class="edge"><title>Node16&#45;&gt;Node15</title>
<path fill="none" stroke="midnightblue" d="M639.741,-128.921C634.038,-126.806 627.833,-124.67 622,-123 545.242,-101.023 521.798,-112.088 446,-87 444.332,-86.4481 442.637,-85.8303 440.941,-85.1691"/>
<polygon fill="midnightblue" stroke="midnightblue" points="442.006,-81.8165 431.438,-81.0662 439.231,-88.2432 442.006,-81.8165"/>
</g>
<!-- Node17 -->
<g id="node17" class="node"><title>Node17</title>
<polygon fill="none" stroke="#bfbfbf" points="674,-0.5 674,-19.5 720,-19.5 720,-0.5 674,-0.5"/>
<text text-anchor="middle" x="697" y="-7.5" font-family="Helvetica,sans-Serif" font-size="10.00">cstdint</text>
</g>
<!-- Node16&#45;&gt;Node17 -->
<g id="edge19" class="edge"><title>Node16&#45;&gt;Node17</title>
<path fill="none" stroke="midnightblue" d="M663.474,-128.805C669.28,-108.404 683.881,-57.0998 691.761,-29.4078"/>
<polygon fill="midnightblue" stroke="midnightblue" points="695.137,-30.3318 694.508,-19.7557 688.405,-28.4158 695.137,-30.3318"/>
</g>
<!-- Node18 -->
<g id="node18" class="node"><title>Node18</title>
<polygon fill="none" stroke="#bfbfbf" points="535,-62 535,-81 587,-81 587,-62 535,-62"/>
<text text-anchor="middle" x="561" y="-69" font-family="Helvetica,sans-Serif" font-size="10.00">memory</text>
</g>
<!-- Node16&#45;&gt;Node18 -->
<g id="edge21" class="edge"><title>Node16&#45;&gt;Node18</title>
<path fill="none" stroke="midnightblue" d="M647.514,-128.734C630.945,-117.964 602.615,-99.55 582.907,-86.7395"/>
<polygon fill="midnightblue" stroke="midnightblue" points="584.565,-83.6427 574.273,-81.1273 580.75,-89.5118 584.565,-83.6427"/>
</g>
<!-- Node19 -->
<g id="node19" class="node"><title>Node19</title>
<polygon fill="none" stroke="#bfbfbf" points="717,-62 717,-81 769,-81 769,-62 717,-62"/>
<text text-anchor="middle" x="743" y="-69" font-family="Helvetica,sans-Serif" font-size="10.00">sstream</text>
</g>
<!-- Node16&#45;&gt;Node19 -->
<g id="edge24" class="edge"><title>Node16&#45;&gt;Node19</title>
<path fill="none" stroke="midnightblue" d="M672.059,-128.734C685.338,-118.208 707.829,-100.379 723.929,-87.6174"/>
<polygon fill="midnightblue" stroke="midnightblue" points="726.454,-90.0821 732.116,-81.1273 722.106,-84.5965 726.454,-90.0821"/>
</g>
<!-- Node20 -->
<g id="node20" class="node"><title>Node20</title>
<polygon fill="none" stroke="#bfbfbf" points="455,-62 455,-81 517,-81 517,-62 455,-62"/>
<text text-anchor="middle" x="486" y="-69" font-family="Helvetica,sans-Serif" font-size="10.00">type_traits</text>
</g>
<!-- Node16&#45;&gt;Node20 -->
<g id="edge25" class="edge"><title>Node16&#45;&gt;Node20</title>
<path fill="none" stroke="midnightblue" d="M637.904,-128.911C632.674,-126.967 627.146,-124.912 622,-123 586.675,-109.875 546.184,-94.8408 518.633,-84.6132"/>
<polygon fill="midnightblue" stroke="midnightblue" points="519.695,-81.274 509.102,-81.0751 517.259,-87.8365 519.695,-81.274"/>
</g>
<!-- Node21 -->
<g id="node21" class="node"><title>Node21</title>
<g id="a_node21"><a xlink:href="color_8hpp.html" target="_top" xlink:title="color.hpp">
<polygon fill="none" stroke="black" points="605,-62 605,-81 661,-81 661,-62 605,-62"/>
<text text-anchor="middle" x="633" y="-69" font-family="Helvetica,sans-Serif" font-size="10.00">color.hpp</text>
</a>
</g>
</g>
<!-- Node16&#45;&gt;Node21 -->
<g id="edge28" class="edge"><title>Node16&#45;&gt;Node21</title>
<path fill="none" stroke="midnightblue" d="M657.224,-128.734C653.025,-118.988 646.13,-102.981 640.768,-90.5318"/>
<polygon fill="midnightblue" stroke="midnightblue" points="643.887,-88.9267 636.716,-81.1273 637.458,-91.6961 643.887,-88.9267"/>
</g>
<!-- Node21&#45;&gt;Node4 -->
<g id="edge32" class="edge"><title>Node21&#45;&gt;Node4</title>
<path fill="none" stroke="midnightblue" d="M661.063,-64.6489C675.119,-61.8268 692.42,-58.5167 708,-56 823.929,-37.2731 962.694,-21.1033 1023.23,-14.3568"/>
<polygon fill="midnightblue" stroke="midnightblue" points="1023.71,-17.8249 1033.27,-13.245 1022.94,-10.8675 1023.71,-17.8249"/>
</g>
<!-- Node21&#45;&gt;Node17 -->
<g id="edge30" class="edge"><title>Node21&#45;&gt;Node17</title>
<path fill="none" stroke="midnightblue" d="M642.17,-61.9751C652.15,-52.6966 668.312,-37.6706 680.509,-26.331"/>
<polygon fill="midnightblue" stroke="midnightblue" points="682.907,-28.8814 687.847,-19.5091 678.14,-23.7547 682.907,-28.8814"/>
</g>
<!-- Node22 -->
<g id="node22" class="node"><title>Node22</title>
<polygon fill="none" stroke="#bfbfbf" points="610,-0.5 610,-19.5 656,-19.5 656,-0.5 610,-0.5"/>
<text text-anchor="middle" x="633" y="-7.5" font-family="Helvetica,sans-Serif" font-size="10.00">cctype</text>
</g>
<!-- Node21&#45;&gt;Node22 -->
<g id="edge29" class="edge"><title>Node21&#45;&gt;Node22</title>
<path fill="none" stroke="midnightblue" d="M633,-61.9751C633,-53.5803 633,-40.4806 633,-29.6631"/>
<polygon fill="midnightblue" stroke="midnightblue" points="636.5,-29.5091 633,-19.5091 629.5,-29.5091 636.5,-29.5091"/>
</g>
<!-- Node23 -->
<g id="node23" class="node"><title>Node23</title>
<polygon fill="none" stroke="#bfbfbf" points="546.5,-0.5 546.5,-19.5 591.5,-19.5 591.5,-0.5 546.5,-0.5"/>
<text text-anchor="middle" x="569" y="-7.5" font-family="Helvetica,sans-Serif" font-size="10.00">cstdlib</text>
</g>
<!-- Node21&#45;&gt;Node23 -->
<g id="edge31" class="edge"><title>Node21&#45;&gt;Node23</title>
<path fill="none" stroke="midnightblue" d="M623.83,-61.9751C613.85,-52.6966 597.688,-37.6706 585.491,-26.331"/>
<polygon fill="midnightblue" stroke="midnightblue" points="587.86,-23.7547 578.153,-19.5091 583.093,-28.8814 587.86,-23.7547"/>
</g>
<!-- Node24&#45;&gt;Node4 -->
<g id="edge34" class="edge"><title>Node24&#45;&gt;Node4</title>
<path fill="none" stroke="midnightblue" d="M975.264,-128.908C976.124,-113.188 979.752,-79.2774 995,-56 1003.38,-43.205 1016.68,-32.5986 1028.53,-24.903"/>
<polygon fill="midnightblue" stroke="midnightblue" points="1030.5,-27.8007 1037.21,-19.5975 1026.85,-21.8289 1030.5,-27.8007"/>
</g>
<!-- Node24&#45;&gt;Node11 -->
<g id="edge36" class="edge"><title>Node24&#45;&gt;Node11</title>
<path fill="none" stroke="midnightblue" d="M960.435,-128.734C942.379,-117.867 911.39,-99.2161 890.084,-86.3931"/>
<polygon fill="midnightblue" stroke="midnightblue" points="891.707,-83.2852 881.335,-81.1273 888.098,-89.2827 891.707,-83.2852"/>
</g>
<!-- Node24&#45;&gt;Node17 -->
<g id="edge35" class="edge"><title>Node24&#45;&gt;Node17</title>
<path fill="none" stroke="midnightblue" d="M971.524,-128.97C964.178,-112.092 945.382,-74.4744 917,-56 859.226,-18.3934 776.303,-11.2688 730.536,-10.4591"/>
<polygon fill="midnightblue" stroke="midnightblue" points="730.306,-6.95713 720.277,-10.3736 730.248,-13.9569 730.306,-6.95713"/>
</g>
<!-- Node25 -->
<g id="node25" class="node"><title>Node25</title>
<polygon fill="none" stroke="#bfbfbf" points="1003.5,-56.5 1003.5,-86.5 1104.5,-86.5 1104.5,-56.5 1003.5,-56.5"/>
<text text-anchor="start" x="1011.5" y="-74.5" font-family="Helvetica,sans-Serif" font-size="10.00">boost/property_tree</text>
<text text-anchor="middle" x="1054" y="-63.5" font-family="Helvetica,sans-Serif" font-size="10.00">/ptree.hpp</text>
</g>
<!-- Node24&#45;&gt;Node25 -->
<g id="edge37" class="edge"><title>Node24&#45;&gt;Node25</title>
<path fill="none" stroke="midnightblue" d="M985.654,-128.734C996.741,-119.611 1014.5,-105.004 1029.13,-92.9631"/>
<polygon fill="midnightblue" stroke="midnightblue" points="1031.38,-95.6454 1036.88,-86.589 1026.93,-90.2399 1031.38,-95.6454"/>
</g>
<!-- Node26&#45;&gt;Node3 -->
<g id="edge41" class="edge"><title>Node26&#45;&gt;Node3</title>
<path fill="none" stroke="midnightblue" d="M238.585,-128.734C243.734,-118.89 252.224,-102.66 258.763,-90.1594"/>
<polygon fill="midnightblue" stroke="midnightblue" points="261.954,-91.6106 263.487,-81.1273 255.751,-88.366 261.954,-91.6106"/>
</g>
<!-- Node26&#45;&gt;Node15 -->
<g id="edge43" class="edge"><title>Node26&#45;&gt;Node15</title>
<path fill="none" stroke="midnightblue" d="M261.757,-128.996C291.905,-119.551 341.337,-103.453 383,-87 384.418,-86.4399 385.865,-85.851 387.32,-85.2441"/>
<polygon fill="midnightblue" stroke="midnightblue" points="389.083,-88.294 396.857,-81.0956 386.291,-81.875 389.083,-88.294"/>
</g>
<!-- Node27 -->
<g id="node27" class="node"><title>Node27</title>
<polygon fill="none" stroke="#bfbfbf" points="0,-62 0,-81 46,-81 46,-62 0,-62"/>
<text text-anchor="middle" x="23" y="-69" font-family="Helvetica,sans-Serif" font-size="10.00">atomic</text>
</g>
<!-- Node26&#45;&gt;Node27 -->
<g id="edge39" class="edge"><title>Node26&#45;&gt;Node27</title>
<path fill="none" stroke="midnightblue" d="M197.836,-128.999C161.317,-120.021 103.527,-104.726 55,-87 53.3851,-86.4101 51.7379,-85.7744 50.0851,-85.11"/>
<polygon fill="midnightblue" stroke="midnightblue" points="51.3134,-81.8287 40.7429,-81.1117 48.5592,-88.2641 51.3134,-81.8287"/>
</g>
<!-- Node28 -->
<g id="node28" class="node"><title>Node28</title>
<polygon fill="none" stroke="#bfbfbf" points="64.5,-62 64.5,-81 159.5,-81 159.5,-62 64.5,-62"/>
<text text-anchor="middle" x="112" y="-69" font-family="Helvetica,sans-Serif" font-size="10.00">condition_variable</text>
</g>
<!-- Node26&#45;&gt;Node28 -->
<g id="edge40" class="edge"><title>Node26&#45;&gt;Node28</title>
<path fill="none" stroke="midnightblue" d="M217.799,-128.869C197.2,-117.893 161.409,-98.8243 137.223,-85.9385"/>
<polygon fill="midnightblue" stroke="midnightblue" points="138.739,-82.7804 128.268,-81.1672 135.447,-88.9583 138.739,-82.7804"/>
</g>
<!-- Node29 -->
<g id="node29" class="node"><title>Node29</title>
<polygon fill="none" stroke="#bfbfbf" points="177.5,-62 177.5,-81 220.5,-81 220.5,-62 177.5,-62"/>
<text text-anchor="middle" x="199" y="-69" font-family="Helvetica,sans-Serif" font-size="10.00">queue</text>
</g>
<!-- Node26&#45;&gt;Node29 -->
<g id="edge42" class="edge"><title>Node26&#45;&gt;Node29</title>
<path fill="none" stroke="midnightblue" d="M229.28,-128.734C223.979,-118.89 215.24,-102.66 208.509,-90.1594"/>
<polygon fill="midnightblue" stroke="midnightblue" points="211.468,-88.2727 203.645,-81.1273 205.305,-91.5914 211.468,-88.2727"/>
</g>
</g>
</svg>
