<?xml version="1.0" encoding="UTF-8" standalone="no"?>
<!DOCTYPE svg PUBLIC "-//W3C//DTD SVG 1.1//EN"
 "http://www.w3.org/Graphics/SVG/1.1/DTD/svg11.dtd">
<!-- Generated by graphviz version 2.38.0 (20140413.2041)
 -->
<!-- Title: src/network/http.hpp Pages: 1 -->
<!--zoomable 330 -->
<svg id="main" version="1.1" xmlns="http://www.w3.org/2000/svg" xmlns:xlink="http://www.w3.org/1999/xlink" xml:space="preserve" onload="init(evt)">
<style type="text/css"><![CDATA[
.edge:hover path { stroke: red; }
.edge:hover polygon { stroke: red; fill: red; }
]]></style>
<script type="text/javascript"><![CDATA[
var edges = document.getElementsByTagName('g');
if (edges && edges.length) {
  for (var i=0;i<edges.length;i++) {
    if (edges[i].id.substr(0,4)=='edge') {
      edges[i].setAttribute('class','edge');
    }
  }
}
]]></script>
        <defs>
                <circle id="rim" cx="0" cy="0" r="7"/>
                <circle id="rim2" cx="0" cy="0" r="3.5"/>
                <g id="zoomPlus">
                        <use xlink:href="#rim" fill="#404040">
                                <set attributeName="fill" to="#808080" begin="zoomplus.mouseover" end="zoomplus.mouseout"/>
                        </use>
                        <path d="M-4,0h8M0,-4v8" fill="none" stroke="white" stroke-width="1.5" pointer-events="none"/>
                </g>
                <g id="zoomMin">
                        <use xlink:href="#rim" fill="#404040">
                                <set attributeName="fill" to="#808080" begin="zoomminus.mouseover" end="zoomminus.mouseout"/>
                        </use>
                        <path d="M-4,0h8" fill="none" stroke="white" stroke-width="1.5" pointer-events="none"/>
                </g>
                <g id="dirArrow">
                        <path fill="none" stroke="white" stroke-width="1.5" d="M0,-3.0v7 M-2.5,-0.5L0,-3.0L2.5,-0.5"/>
                </g>
               <g id="resetDef">
                       <use xlink:href="#rim2" fill="#404040">
                               <set attributeName="fill" to="#808080" begin="reset.mouseover" end="reset.mouseout"/>
                       </use>
               </g>
        </defs>

<script type="text/javascript">
var viewWidth = 1266;
var viewHeight = 330;
var sectionId = 'dynsection-0';
</script>
<script xlink:href="svgpan.js"/>
<svg id="graph" class="graph">
<g id="viewport">
<title>src/network/http.hpp</title>
<!-- Node1 -->
<g id="node1" class="node"><title>Node1</title>
<polygon fill="#bfbfbf" stroke="black" points="679.158,-302.5 679.158,-321.5 785.158,-321.5 785.158,-302.5 679.158,-302.5"/>
<text text-anchor="middle" x="732.158" y="-309.5" font-family="Helvetica,sans-Serif" font-size="10.00">src/network/http.hpp</text>
</g>
<!-- Node2 -->
<g id="node2" class="node"><title>Node2</title>
<g id="a_node2"><a xlink:href="async__service_8hpp.html" target="_top" xlink:title="async_service.hpp">
<polygon fill="none" stroke="black" points="641.158,-246.5 641.158,-265.5 739.158,-265.5 739.158,-246.5 641.158,-246.5"/>
<text text-anchor="middle" x="690.158" y="-253.5" font-family="Helvetica,sans-Serif" font-size="10.00">async_service.hpp</text>
</a>
</g>
</g>
<!-- Node1&#45;&gt;Node2 -->
<g id="edge1" class="edge"><title>Node1&#45;&gt;Node2</title>
<path fill="none" stroke="midnightblue" d="M725.222,-302.083C719.228,-294.377 710.406,-283.033 703.11,-273.653"/>
<polygon fill="midnightblue" stroke="midnightblue" points="705.866,-271.496 696.964,-265.751 700.341,-275.793 705.866,-271.496"/>
</g>
<!-- Node29 -->
<g id="node29" class="node"><title>Node29</title>
<polygon fill="none" stroke="#bfbfbf" points="757.658,-246.5 757.658,-265.5 792.658,-265.5 792.658,-246.5 757.658,-246.5"/>
<text text-anchor="middle" x="775.158" y="-253.5" font-family="Helvetica,sans-Serif" font-size="10.00">map</text>
</g>
<!-- Node1&#45;&gt;Node29 -->
<g id="edge43" class="edge"><title>Node1&#45;&gt;Node29</title>
<path fill="none" stroke="midnightblue" d="M739.258,-302.083C745.395,-294.377 754.427,-283.033 761.897,-273.653"/>
<polygon fill="midnightblue" stroke="midnightblue" points="764.698,-275.754 768.189,-265.751 759.222,-271.394 764.698,-275.754"/>
</g>
<!-- Node3 -->
<g id="node3" class="node"><title>Node3</title>
<polygon fill="none" stroke="#bfbfbf" points="959.658,-62 959.658,-81 1018.66,-81 1018.66,-62 959.658,-62"/>
<text text-anchor="middle" x="989.158" y="-69" font-family="Helvetica,sans-Serif" font-size="10.00">functional</text>
</g>
<!-- Node2&#45;&gt;Node3 -->
<g id="edge2" class="edge"><title>Node2&#45;&gt;Node3</title>
<path fill="none" stroke="midnightblue" d="M704.178,-246.442C751.851,-217.344 907.977,-122.05 966.624,-86.2539"/>
<polygon fill="midnightblue" stroke="midnightblue" points="968.455,-89.2365 975.168,-81.0391 964.808,-83.2615 968.455,-89.2365"/>
</g>
<!-- Node4 -->
<g id="node4" class="node"><title>Node4</title>
<polygon fill="none" stroke="#bfbfbf" points="357.658,-0.5 357.658,-19.5 398.658,-19.5 398.658,-0.5 357.658,-0.5"/>
<text text-anchor="middle" x="378.158" y="-7.5" font-family="Helvetica,sans-Serif" font-size="10.00">string</text>
</g>
<!-- Node2&#45;&gt;Node4 -->
<g id="edge3" class="edge"><title>Node2&#45;&gt;Node4</title>
<path fill="none" stroke="midnightblue" d="M640.959,-251.657C495.073,-240.514 70.9721,-198.806 6.15753,-87 -0.752428,-75.0803 -2.98114,-66.3108 6.15753,-56 28.7096,-30.5554 262.512,-16.6585 347.496,-12.4176"/>
<polygon fill="midnightblue" stroke="midnightblue" points="347.738,-15.9101 357.556,-11.9263 347.397,-8.91843 347.738,-15.9101"/>
</g>
<!-- Node5 -->
<g id="node5" class="node"><title>Node5</title>
<polygon fill="none" stroke="#bfbfbf" points="668.158,-190.5 668.158,-209.5 712.158,-209.5 712.158,-190.5 668.158,-190.5"/>
<text text-anchor="middle" x="690.158" y="-197.5" font-family="Helvetica,sans-Serif" font-size="10.00">thread</text>
</g>
<!-- Node2&#45;&gt;Node5 -->
<g id="edge4" class="edge"><title>Node2&#45;&gt;Node5</title>
<path fill="none" stroke="midnightblue" d="M690.158,-246.083C690.158,-239.006 690.158,-228.861 690.158,-219.986"/>
<polygon fill="midnightblue" stroke="midnightblue" points="693.658,-219.751 690.158,-209.751 686.658,-219.751 693.658,-219.751"/>
</g>
<!-- Node6 -->
<g id="node6" class="node"><title>Node6</title>
<g id="a_node6"><a xlink:href="logger_8hpp.html" target="_top" xlink:title="string/logger.hpp">
<polygon fill="none" stroke="black" points="392.658,-190.5 392.658,-209.5 481.658,-209.5 481.658,-190.5 392.658,-190.5"/>
<text text-anchor="middle" x="437.158" y="-197.5" font-family="Helvetica,sans-Serif" font-size="10.00">string/logger.hpp</text>
</a>
</g>
</g>
<!-- Node2&#45;&gt;Node6 -->
<g id="edge5" class="edge"><title>Node2&#45;&gt;Node6</title>
<path fill="none" stroke="midnightblue" d="M650.069,-246.444C605.841,-237.004 534.619,-221.802 486.873,-211.611"/>
<polygon fill="midnightblue" stroke="midnightblue" points="487.569,-208.181 477.059,-209.516 486.108,-215.027 487.569,-208.181"/>
</g>
<!-- Node25 -->
<g id="node25" class="node"><title>Node25</title>
<g id="a_node25"><a xlink:href="concurrent__container_8hpp.html" target="_top" xlink:title="concurrent_container.hpp">
<polygon fill="none" stroke="black" points="961.158,-129 961.158,-148 1087.16,-148 1087.16,-129 961.158,-129"/>
<text text-anchor="middle" x="1024.16" y="-136" font-family="Helvetica,sans-Serif" font-size="10.00">concurrent_container.hpp</text>
</a>
</g>
</g>
<!-- Node2&#45;&gt;Node25 -->
<g id="edge37" class="edge"><title>Node2&#45;&gt;Node25</title>
<path fill="none" stroke="midnightblue" d="M739.252,-246.696C802.79,-235.774 907.383,-217.133 924.158,-210 956.197,-196.377 988.2,-171.3 1007.08,-155.02"/>
<polygon fill="midnightblue" stroke="midnightblue" points="1009.6,-157.468 1014.79,-148.231 1004.97,-152.216 1009.6,-157.468"/>
</g>
<!-- Node6&#45;&gt;Node4 -->
<g id="edge10" class="edge"><title>Node6&#45;&gt;Node4</title>
<path fill="none" stroke="midnightblue" d="M422.949,-190.364C410.315,-182.168 391.918,-168.913 379.158,-154 357.042,-128.153 350.649,-119.94 342.158,-87 338.718,-73.6583 337.597,-69.0011 342.158,-56 345.943,-45.2094 353.524,-35.084 360.757,-27.1808"/>
<polygon fill="midnightblue" stroke="midnightblue" points="363.483,-29.4005 367.995,-19.8145 358.49,-24.4943 363.483,-29.4005"/>
</g>
<!-- Node7 -->
<g id="node7" class="node"><title>Node7</title>
<polygon fill="none" stroke="#bfbfbf" points="258.158,-129 258.158,-148 308.158,-148 308.158,-129 258.158,-129"/>
<text text-anchor="middle" x="283.158" y="-136" font-family="Helvetica,sans-Serif" font-size="10.00">iomanip</text>
</g>
<!-- Node6&#45;&gt;Node7 -->
<g id="edge6" class="edge"><title>Node6&#45;&gt;Node7</title>
<path fill="none" stroke="midnightblue" d="M415.093,-190.475C388.791,-180.313 344.645,-163.256 314.733,-151.7"/>
<polygon fill="midnightblue" stroke="midnightblue" points="315.77,-148.348 305.181,-148.009 313.248,-154.878 315.77,-148.348"/>
</g>
<!-- Node8 -->
<g id="node8" class="node"><title>Node8</title>
<polygon fill="none" stroke="#bfbfbf" points="351.158,-62 351.158,-81 405.158,-81 405.158,-62 351.158,-62"/>
<text text-anchor="middle" x="378.158" y="-69" font-family="Helvetica,sans-Serif" font-size="10.00">iostream</text>
</g>
<!-- Node6&#45;&gt;Node8 -->
<g id="edge7" class="edge"><title>Node6&#45;&gt;Node8</title>
<path fill="none" stroke="midnightblue" d="M425.455,-190.377C415.249,-182.19 400.899,-168.94 393.158,-154 382.939,-134.28 379.59,-108.707 378.541,-91.5105"/>
<polygon fill="midnightblue" stroke="midnightblue" points="382.023,-90.971 378.127,-81.1185 375.028,-91.2502 382.023,-90.971"/>
</g>
<!-- Node9 -->
<g id="node9" class="node"><title>Node9</title>
<polygon fill="none" stroke="#bfbfbf" points="490.158,-129 490.158,-148 534.158,-148 534.158,-129 490.158,-129"/>
<text text-anchor="middle" x="512.158" y="-136" font-family="Helvetica,sans-Serif" font-size="10.00">mutex</text>
</g>
<!-- Node6&#45;&gt;Node9 -->
<g id="edge8" class="edge"><title>Node6&#45;&gt;Node9</title>
<path fill="none" stroke="midnightblue" d="M447.903,-190.475C459.71,-181.108 478.901,-165.884 493.24,-154.508"/>
<polygon fill="midnightblue" stroke="midnightblue" points="495.773,-156.966 501.432,-148.009 491.422,-151.482 495.773,-156.966"/>
</g>
<!-- Node10 -->
<g id="node10" class="node"><title>Node10</title>
<polygon fill="none" stroke="#bfbfbf" points="529.658,-62 529.658,-81 588.658,-81 588.658,-62 529.658,-62"/>
<text text-anchor="middle" x="559.158" y="-69" font-family="Helvetica,sans-Serif" font-size="10.00">stdexcept</text>
</g>
<!-- Node6&#45;&gt;Node10 -->
<g id="edge9" class="edge"><title>Node6&#45;&gt;Node10</title>
<path fill="none" stroke="midnightblue" d="M481.25,-190.488C502.996,-184.049 527.791,-172.941 543.158,-154 557.534,-136.28 560.25,-109.324 560.229,-91.3226"/>
<polygon fill="midnightblue" stroke="midnightblue" points="563.724,-91.0947 559.928,-81.2032 556.727,-91.3028 563.724,-91.0947"/>
</g>
<!-- Node11 -->
<g id="node11" class="node"><title>Node11</title>
<polygon fill="none" stroke="#bfbfbf" points="211.658,-62 211.658,-81 294.658,-81 294.658,-62 211.658,-62"/>
<text text-anchor="middle" x="253.158" y="-69" font-family="Helvetica,sans-Serif" font-size="10.00">unordered_map</text>
</g>
<!-- Node6&#45;&gt;Node11 -->
<g id="edge11" class="edge"><title>Node6&#45;&gt;Node11</title>
<path fill="none" stroke="midnightblue" d="M392.42,-194.603C342.576,-188.67 266.67,-176.199 249.158,-154 235.141,-136.232 240.175,-108.903 245.942,-90.8643"/>
<polygon fill="midnightblue" stroke="midnightblue" points="249.315,-91.8251 249.374,-81.2304 242.721,-89.4763 249.315,-91.8251"/>
</g>
<!-- Node12 -->
<g id="node12" class="node"><title>Node12</title>
<polygon fill="none" stroke="#bfbfbf" points="718.658,-123.5 718.658,-153.5 823.658,-153.5 823.658,-123.5 718.658,-123.5"/>
<text text-anchor="start" x="726.658" y="-141.5" font-family="Helvetica,sans-Serif" font-size="10.00">boost/chrono/io/time</text>
<text text-anchor="middle" x="771.158" y="-130.5" font-family="Helvetica,sans-Serif" font-size="10.00">_point_io.hpp</text>
</g>
<!-- Node6&#45;&gt;Node12 -->
<g id="edge12" class="edge"><title>Node6&#45;&gt;Node12</title>
<path fill="none" stroke="midnightblue" d="M482.083,-192.494C534.142,-184.749 622.713,-170.941 708.535,-154.044"/>
<polygon fill="midnightblue" stroke="midnightblue" points="709.317,-157.457 718.444,-152.077 707.953,-150.591 709.317,-157.457"/>
</g>
<!-- Node13 -->
<g id="node13" class="node"><title>Node13</title>
<g id="a_node13"><a xlink:href="multibuf_8hpp.html" target="_top" xlink:title="multibuf.hpp">
<polygon fill="none" stroke="black" points="402.158,-129 402.158,-148 472.158,-148 472.158,-129 402.158,-129"/>
<text text-anchor="middle" x="437.158" y="-136" font-family="Helvetica,sans-Serif" font-size="10.00">multibuf.hpp</text>
</a>
</g>
</g>
<!-- Node6&#45;&gt;Node13 -->
<g id="edge13" class="edge"><title>Node6&#45;&gt;Node13</title>
<path fill="none" stroke="midnightblue" d="M437.158,-190.475C437.158,-182.08 437.158,-168.981 437.158,-158.163"/>
<polygon fill="midnightblue" stroke="midnightblue" points="440.658,-158.009 437.158,-148.009 433.658,-158.009 440.658,-158.009"/>
</g>
<!-- Node16 -->
<g id="node16" class="node"><title>Node16</title>
<g id="a_node16"><a xlink:href="string_8hpp.html" target="_top" xlink:title="string.hpp">
<polygon fill="none" stroke="black" points="641.658,-129 641.658,-148 700.658,-148 700.658,-129 641.658,-129"/>
<text text-anchor="middle" x="671.158" y="-136" font-family="Helvetica,sans-Serif" font-size="10.00">string.hpp</text>
</a>
</g>
</g>
<!-- Node6&#45;&gt;Node16 -->
<g id="edge18" class="edge"><title>Node6&#45;&gt;Node16</title>
<path fill="none" stroke="midnightblue" d="M470.684,-190.475C513.215,-179.661 586.451,-161.039 631.65,-149.546"/>
<polygon fill="midnightblue" stroke="midnightblue" points="632.57,-152.923 641.399,-147.067 630.845,-146.139 632.57,-152.923"/>
</g>
<!-- Node23 -->
<g id="node23" class="node"><title>Node23</title>
<g id="a_node23"><a xlink:href="settings_8hpp.html" target="_top" xlink:title="settings.hpp">
<polygon fill="none" stroke="black" points="132.158,-129 132.158,-148 202.158,-148 202.158,-129 132.158,-129"/>
<text text-anchor="middle" x="167.158" y="-136" font-family="Helvetica,sans-Serif" font-size="10.00">settings.hpp</text>
</a>
</g>
</g>
<!-- Node6&#45;&gt;Node23 -->
<g id="edge32" class="edge"><title>Node6&#45;&gt;Node23</title>
<path fill="none" stroke="midnightblue" d="M392.456,-191.077C347.633,-182.856 276.756,-169.105 216.158,-154 212.297,-153.038 208.286,-151.968 204.295,-150.857"/>
<polygon fill="midnightblue" stroke="midnightblue" points="205.091,-147.444 194.513,-148.051 203.16,-154.173 205.091,-147.444"/>
</g>
<!-- Node13&#45;&gt;Node4 -->
<g id="edge17" class="edge"><title>Node13&#45;&gt;Node4</title>
<path fill="none" stroke="midnightblue" d="M435.906,-128.996C433.413,-113.703 426.93,-80.8425 414.158,-56 408.793,-45.566 400.789,-35.2488 393.69,-27.1307"/>
<polygon fill="midnightblue" stroke="midnightblue" points="396.097,-24.5759 386.768,-19.5541 390.929,-29.2975 396.097,-24.5759"/>
</g>
<!-- Node13&#45;&gt;Node8 -->
<g id="edge14" class="edge"><title>Node13&#45;&gt;Node8</title>
<path fill="none" stroke="midnightblue" d="M429.201,-128.734C419.912,-118.5 404.357,-101.364 392.855,-88.6924"/>
<polygon fill="midnightblue" stroke="midnightblue" points="395.301,-86.1795 385.988,-81.1273 390.118,-90.8843 395.301,-86.1795"/>
</g>
<!-- Node14 -->
<g id="node14" class="node"><title>Node14</title>
<polygon fill="none" stroke="#bfbfbf" points="461.158,-62 461.158,-81 511.158,-81 511.158,-62 461.158,-62"/>
<text text-anchor="middle" x="486.158" y="-69" font-family="Helvetica,sans-Serif" font-size="10.00">fstream</text>
</g>
<!-- Node13&#45;&gt;Node14 -->
<g id="edge15" class="edge"><title>Node13&#45;&gt;Node14</title>
<path fill="none" stroke="midnightblue" d="M443.766,-128.734C451.333,-118.695 463.908,-102.014 473.402,-89.4213"/>
<polygon fill="midnightblue" stroke="midnightblue" points="476.429,-91.2194 479.654,-81.1273 470.839,-87.0057 476.429,-91.2194"/>
</g>
<!-- Node15 -->
<g id="node15" class="node"><title>Node15</title>
<polygon fill="none" stroke="#bfbfbf" points="785.158,-62 785.158,-81 829.158,-81 829.158,-62 785.158,-62"/>
<text text-anchor="middle" x="807.158" y="-69" font-family="Helvetica,sans-Serif" font-size="10.00">vector</text>
</g>
<!-- Node13&#45;&gt;Node15 -->
<g id="edge16" class="edge"><title>Node13&#45;&gt;Node15</title>
<path fill="none" stroke="midnightblue" d="M460.21,-128.957C466.892,-126.74 474.25,-124.544 481.158,-123 610.061,-94.1902 649.198,-123.435 776.158,-87 778.085,-86.4468 780.043,-85.7875 781.99,-85.0596"/>
<polygon fill="midnightblue" stroke="midnightblue" points="783.62,-88.1695 791.442,-81.023 780.87,-81.732 783.62,-88.1695"/>
</g>
<!-- Node16&#45;&gt;Node3 -->
<g id="edge20" class="edge"><title>Node16&#45;&gt;Node3</title>
<path fill="none" stroke="midnightblue" d="M691.406,-128.859C697.071,-126.694 703.286,-124.549 709.158,-123 811.749,-95.9334 841.968,-111.69 945.158,-87 948.626,-86.17 952.213,-85.1926 955.774,-84.1435"/>
<polygon fill="midnightblue" stroke="midnightblue" points="957.121,-87.3895 965.618,-81.0609 955.029,-80.7094 957.121,-87.3895"/>
</g>
<!-- Node16&#45;&gt;Node4 -->
<g id="edge23" class="edge"><title>Node16&#45;&gt;Node4</title>
<path fill="none" stroke="midnightblue" d="M666.07,-128.967C655.523,-112.083 629.534,-74.4569 597.158,-56 536.722,-21.5475 453.57,-13.279 409.129,-11.4183"/>
<polygon fill="midnightblue" stroke="midnightblue" points="409.072,-7.9145 398.96,-11.0776 408.838,-14.9106 409.072,-7.9145"/>
</g>
<!-- Node16&#45;&gt;Node10 -->
<g id="edge22" class="edge"><title>Node16&#45;&gt;Node10</title>
<path fill="none" stroke="midnightblue" d="M656.053,-128.734C637.244,-117.818 604.903,-99.0487 582.8,-86.2209"/>
<polygon fill="midnightblue" stroke="midnightblue" points="584.429,-83.1197 574.023,-81.1273 580.915,-89.174 584.429,-83.1197"/>
</g>
<!-- Node16&#45;&gt;Node11 -->
<g id="edge25" class="edge"><title>Node16&#45;&gt;Node11</title>
<path fill="none" stroke="midnightblue" d="M641.652,-133.064C584.051,-124.383 452.602,-104.473 342.158,-87 330.077,-85.0888 317.081,-82.9937 304.854,-81.005"/>
<polygon fill="midnightblue" stroke="midnightblue" points="305.233,-77.5207 294.8,-79.3658 304.107,-84.4295 305.233,-77.5207"/>
</g>
<!-- Node16&#45;&gt;Node15 -->
<g id="edge26" class="edge"><title>Node16&#45;&gt;Node15</title>
<path fill="none" stroke="midnightblue" d="M689.217,-128.869C712.384,-117.796 752.786,-98.4862 779.753,-85.5978"/>
<polygon fill="midnightblue" stroke="midnightblue" points="781.51,-88.6373 789.023,-81.1672 778.491,-82.3216 781.51,-88.6373"/>
</g>
<!-- Node17 -->
<g id="node17" class="node"><title>Node17</title>
<polygon fill="none" stroke="#bfbfbf" points="852.158,-0.5 852.158,-19.5 898.158,-19.5 898.158,-0.5 852.158,-0.5"/>
<text text-anchor="middle" x="875.158" y="-7.5" font-family="Helvetica,sans-Serif" font-size="10.00">cstdint</text>
</g>
<!-- Node16&#45;&gt;Node17 -->
<g id="edge19" class="edge"><title>Node16&#45;&gt;Node17</title>
<path fill="none" stroke="midnightblue" d="M691.431,-128.953C697.096,-126.788 703.305,-124.62 709.158,-123 797.467,-98.5576 853.293,-157.222 912.158,-87 927.47,-68.7335 908.458,-43.0527 892.513,-26.7187"/>
<polygon fill="midnightblue" stroke="midnightblue" points="894.711,-23.9744 885.095,-19.5245 889.837,-28.9992 894.711,-23.9744"/>
</g>
<!-- Node18 -->
<g id="node18" class="node"><title>Node18</title>
<polygon fill="none" stroke="#bfbfbf" points="645.158,-62 645.158,-81 697.158,-81 697.158,-62 645.158,-62"/>
<text text-anchor="middle" x="671.158" y="-69" font-family="Helvetica,sans-Serif" font-size="10.00">memory</text>
</g>
<!-- Node16&#45;&gt;Node18 -->
<g id="edge21" class="edge"><title>Node16&#45;&gt;Node18</title>
<path fill="none" stroke="midnightblue" d="M671.158,-128.734C671.158,-119.183 671.158,-103.618 671.158,-91.2829"/>
<polygon fill="midnightblue" stroke="midnightblue" points="674.658,-91.1273 671.158,-81.1273 667.658,-91.1273 674.658,-91.1273"/>
</g>
<!-- Node19 -->
<g id="node19" class="node"><title>Node19</title>
<polygon fill="none" stroke="#bfbfbf" points="715.158,-62 715.158,-81 767.158,-81 767.158,-62 715.158,-62"/>
<text text-anchor="middle" x="741.158" y="-69" font-family="Helvetica,sans-Serif" font-size="10.00">sstream</text>
</g>
<!-- Node16&#45;&gt;Node19 -->
<g id="edge24" class="edge"><title>Node16&#45;&gt;Node19</title>
<path fill="none" stroke="midnightblue" d="M680.598,-128.734C691.829,-118.305 710.779,-100.709 724.494,-87.9732"/>
<polygon fill="midnightblue" stroke="midnightblue" points="726.92,-90.4966 731.867,-81.1273 722.157,-85.3671 726.92,-90.4966"/>
</g>
<!-- Node20 -->
<g id="node20" class="node"><title>Node20</title>
<g id="a_node20"><a xlink:href="color_8hpp.html" target="_top" xlink:title="color.hpp">
<polygon fill="none" stroke="black" points="847.158,-62 847.158,-81 903.158,-81 903.158,-62 847.158,-62"/>
<text text-anchor="middle" x="875.158" y="-69" font-family="Helvetica,sans-Serif" font-size="10.00">color.hpp</text>
</a>
</g>
</g>
<!-- Node16&#45;&gt;Node20 -->
<g id="edge27" class="edge"><title>Node16&#45;&gt;Node20</title>
<path fill="none" stroke="midnightblue" d="M692.736,-128.87C698.07,-126.847 703.792,-124.768 709.158,-123 765.691,-104.37 781.708,-105.884 838.158,-87 840.421,-86.2428 842.748,-85.4255 845.081,-84.5781"/>
<polygon fill="midnightblue" stroke="midnightblue" points="846.431,-87.8096 854.55,-81.0025 843.958,-81.2609 846.431,-87.8096"/>
</g>
<!-- Node20&#45;&gt;Node4 -->
<g id="edge31" class="edge"><title>Node20&#45;&gt;Node4</title>
<path fill="none" stroke="midnightblue" d="M856.278,-61.9439C850.561,-59.6711 844.195,-57.4489 838.158,-56 679.75,-17.9886 483.294,-11.9652 408.759,-11.1002"/>
<polygon fill="midnightblue" stroke="midnightblue" points="408.697,-7.59955 398.665,-11.0068 408.632,-14.5993 408.697,-7.59955"/>
</g>
<!-- Node20&#45;&gt;Node17 -->
<g id="edge29" class="edge"><title>Node20&#45;&gt;Node17</title>
<path fill="none" stroke="midnightblue" d="M875.158,-61.9751C875.158,-53.5803 875.158,-40.4806 875.158,-29.6631"/>
<polygon fill="midnightblue" stroke="midnightblue" points="878.658,-29.5091 875.158,-19.5091 871.658,-29.5091 878.658,-29.5091"/>
</g>
<!-- Node21 -->
<g id="node21" class="node"><title>Node21</title>
<polygon fill="none" stroke="#bfbfbf" points="916.158,-0.5 916.158,-19.5 962.158,-19.5 962.158,-0.5 916.158,-0.5"/>
<text text-anchor="middle" x="939.158" y="-7.5" font-family="Helvetica,sans-Serif" font-size="10.00">cctype</text>
</g>
<!-- Node20&#45;&gt;Node21 -->
<g id="edge28" class="edge"><title>Node20&#45;&gt;Node21</title>
<path fill="none" stroke="midnightblue" d="M884.327,-61.9751C894.307,-52.6966 910.47,-37.6706 922.667,-26.331"/>
<polygon fill="midnightblue" stroke="midnightblue" points="925.064,-28.8814 930.005,-19.5091 920.298,-23.7547 925.064,-28.8814"/>
</g>
<!-- Node22 -->
<g id="node22" class="node"><title>Node22</title>
<polygon fill="none" stroke="#bfbfbf" points="788.658,-0.5 788.658,-19.5 833.658,-19.5 833.658,-0.5 788.658,-0.5"/>
<text text-anchor="middle" x="811.158" y="-7.5" font-family="Helvetica,sans-Serif" font-size="10.00">cstdlib</text>
</g>
<!-- Node20&#45;&gt;Node22 -->
<g id="edge30" class="edge"><title>Node20&#45;&gt;Node22</title>
<path fill="none" stroke="midnightblue" d="M865.988,-61.9751C856.008,-52.6966 839.845,-37.6706 827.648,-26.331"/>
<polygon fill="midnightblue" stroke="midnightblue" points="830.017,-23.7547 820.31,-19.5091 825.251,-28.8814 830.017,-23.7547"/>
</g>
<!-- Node23&#45;&gt;Node4 -->
<g id="edge33" class="edge"><title>Node23&#45;&gt;Node4</title>
<path fill="none" stroke="midnightblue" d="M164.22,-128.69C159.367,-112.309 151.826,-76.9303 169.158,-56 191.526,-28.9879 294.763,-17.3341 347.284,-13.0837"/>
<polygon fill="midnightblue" stroke="midnightblue" points="347.672,-16.5643 357.374,-12.308 347.135,-9.58487 347.672,-16.5643"/>
</g>
<!-- Node23&#45;&gt;Node11 -->
<g id="edge35" class="edge"><title>Node23&#45;&gt;Node11</title>
<path fill="none" stroke="midnightblue" d="M178.756,-128.734C192.811,-118.111 216.709,-100.049 233.623,-87.2642"/>
<polygon fill="midnightblue" stroke="midnightblue" points="235.876,-89.9492 241.743,-81.1273 231.655,-84.3648 235.876,-89.9492"/>
</g>
<!-- Node23&#45;&gt;Node17 -->
<g id="edge34" class="edge"><title>Node23&#45;&gt;Node17</title>
<path fill="none" stroke="midnightblue" d="M167.982,-128.756C170.126,-111.493 177.557,-73.2186 202.158,-56 258.457,-16.5946 736.463,-30.3594 841.857,-19.3159"/>
<polygon fill="midnightblue" stroke="midnightblue" points="842.394,-22.7754 851.855,-18.0061 841.485,-15.8347 842.394,-22.7754"/>
</g>
<!-- Node24 -->
<g id="node24" class="node"><title>Node24</title>
<polygon fill="none" stroke="#bfbfbf" points="15.6575,-56.5 15.6575,-86.5 116.658,-86.5 116.658,-56.5 15.6575,-56.5"/>
<text text-anchor="start" x="23.6575" y="-74.5" font-family="Helvetica,sans-Serif" font-size="10.00">boost/property_tree</text>
<text text-anchor="middle" x="66.1575" y="-63.5" font-family="Helvetica,sans-Serif" font-size="10.00">/ptree.hpp</text>
</g>
<!-- Node23&#45;&gt;Node24 -->
<g id="edge36" class="edge"><title>Node23&#45;&gt;Node24</title>
<path fill="none" stroke="midnightblue" d="M153.536,-128.734C139.033,-119.4 115.608,-104.325 96.6613,-92.1311"/>
<polygon fill="midnightblue" stroke="midnightblue" points="98.3529,-89.0577 88.0497,-86.589 94.5646,-94.944 98.3529,-89.0577"/>
</g>
<!-- Node25&#45;&gt;Node3 -->
<g id="edge40" class="edge"><title>Node25&#45;&gt;Node3</title>
<path fill="none" stroke="midnightblue" d="M1019.44,-128.734C1014.14,-118.89 1005.4,-102.66 998.666,-90.1594"/>
<polygon fill="midnightblue" stroke="midnightblue" points="1001.63,-88.2727 993.803,-81.1273 995.462,-91.5914 1001.63,-88.2727"/>
</g>
<!-- Node25&#45;&gt;Node15 -->
<g id="edge42" class="edge"><title>Node25&#45;&gt;Node15</title>
<path fill="none" stroke="midnightblue" d="M985.077,-128.963C947.013,-120.166 887.796,-105.193 838.158,-87 836.547,-86.4096 834.905,-85.7679 833.259,-85.094"/>
<polygon fill="midnightblue" stroke="midnightblue" points="834.552,-81.8388 823.989,-81.0151 831.732,-88.246 834.552,-81.8388"/>
</g>
<!-- Node26 -->
<g id="node26" class="node"><title>Node26</title>
<polygon fill="none" stroke="#bfbfbf" points="1037.16,-62 1037.16,-81 1083.16,-81 1083.16,-62 1037.16,-62"/>
<text text-anchor="middle" x="1060.16" y="-69" font-family="Helvetica,sans-Serif" font-size="10.00">atomic</text>
</g>
<!-- Node25&#45;&gt;Node26 -->
<g id="edge38" class="edge"><title>Node25&#45;&gt;Node26</title>
<path fill="none" stroke="midnightblue" d="M1029.01,-128.734C1034.46,-118.89 1043.45,-102.66 1050.38,-90.1594"/>
<polygon fill="midnightblue" stroke="midnightblue" points="1053.6,-91.571 1055.38,-81.1273 1047.47,-88.1795 1053.6,-91.571"/>
</g>
<!-- Node27 -->
<g id="node27" class="node"><title>Node27</title>
<polygon fill="none" stroke="#bfbfbf" points="1101.66,-62 1101.66,-81 1196.66,-81 1196.66,-62 1101.66,-62"/>
<text text-anchor="middle" x="1149.16" y="-69" font-family="Helvetica,sans-Serif" font-size="10.00">condition_variable</text>
</g>
<!-- Node25&#45;&gt;Node27 -->
<g id="edge39" class="edge"><title>Node25&#45;&gt;Node27</title>
<path fill="none" stroke="midnightblue" d="M1040.76,-128.869C1061.86,-117.893 1098.53,-98.8243 1123.31,-85.9385"/>
<polygon fill="midnightblue" stroke="midnightblue" points="1125.23,-88.886 1132.49,-81.1672 1122,-82.6755 1125.23,-88.886"/>
</g>
<!-- Node28 -->
<g id="node28" class="node"><title>Node28</title>
<polygon fill="none" stroke="#bfbfbf" points="1214.66,-62 1214.66,-81 1257.66,-81 1257.66,-62 1214.66,-62"/>
<text text-anchor="middle" x="1236.16" y="-69" font-family="Helvetica,sans-Serif" font-size="10.00">queue</text>
</g>
<!-- Node25&#45;&gt;Node28 -->
<g id="edge41" class="edge"><title>Node25&#45;&gt;Node28</title>
<path fill="none" stroke="midnightblue" d="M1061.82,-128.921C1098.84,-120.042 1156.67,-104.964 1205.16,-87 1206.59,-86.4711 1208.04,-85.9027 1209.5,-85.3082"/>
<polygon fill="midnightblue" stroke="midnightblue" points="1211.24,-88.365 1218.99,-81.1442 1208.43,-81.954 1211.24,-88.365"/>
</g>
</g>
</svg>
        <g id="navigator" transform="translate(0 0)" fill="#404254">
                <rect fill="#f2f5e9" fill-opacity="0.5" stroke="#606060" stroke-width=".5" x="0" y="0" width="60" height="60"/>
                <use id="zoomplus" xlink:href="#zoomPlus" x="17" y="9" onmousedown="handleZoom(evt,'in')"/>
                <use id="zoomminus" xlink:href="#zoomMin" x="42" y="9" onmousedown="handleZoom(evt,'out')"/>
                <use id="reset" xlink:href="#resetDef" x="30" y="36" onmousedown="handleReset()"/>
                <g id="arrowUp" xlink:href="#dirArrow" transform="translate(30 24)" onmousedown="handlePan(0,-1)">
                  <use xlink:href="#rim" fill="#404040">
                        <set attributeName="fill" to="#808080" begin="arrowUp.mouseover" end="arrowUp.mouseout"/>
                  </use>
                  <path fill="none" stroke="white" stroke-width="1.5" d="M0,-3.0v7 M-2.5,-0.5L0,-3.0L2.5,-0.5"/>
                </g>
                <g id="arrowRight" xlink:href="#dirArrow" transform="rotate(90) translate(36 -43)" onmousedown="handlePan(1,0)">
                  <use xlink:href="#rim" fill="#404040">
                        <set attributeName="fill" to="#808080" begin="arrowRight.mouseover" end="arrowRight.mouseout"/>
                  </use>
                  <path fill="none" stroke="white" stroke-width="1.5" d="M0,-3.0v7 M-2.5,-0.5L0,-3.0L2.5,-0.5"/>
                </g>
                <g id="arrowDown" xlink:href="#dirArrow" transform="rotate(180) translate(-30 -48)" onmousedown="handlePan(0,1)">
                  <use xlink:href="#rim" fill="#404040">
                        <set attributeName="fill" to="#808080" begin="arrowDown.mouseover" end="arrowDown.mouseout"/>
                  </use>
                  <path fill="none" stroke="white" stroke-width="1.5" d="M0,-3.0v7 M-2.5,-0.5L0,-3.0L2.5,-0.5"/>
                </g>
                <g id="arrowLeft" xlink:href="#dirArrow" transform="rotate(270) translate(-36 17)" onmousedown="handlePan(-1,0)">
                  <use xlink:href="#rim" fill="#404040">
                        <set attributeName="fill" to="#808080" begin="arrowLeft.mouseover" end="arrowLeft.mouseout"/>
                  </use>
                  <path fill="none" stroke="white" stroke-width="1.5" d="M0,-3.0v7 M-2.5,-0.5L0,-3.0L2.5,-0.5"/>
                </g>
        </g>
        <svg viewBox="0 0 15 15" width="100%" height="30px" preserveAspectRatio="xMaxYMin meet">
         <g id="arrow_out" transform="scale(0.3 0.3)">
          <a xlink:href="http_8hpp__incl_org.svg" target="_base">
           <rect id="button" ry="5" rx="5" y="6" x="6" height="38" width="38"
                fill="#f2f5e9" fill-opacity="0.5" stroke="#606060" stroke-width="1.0"/>
           <path id="arrow"
             d="M 11.500037,31.436501 C 11.940474,20.09759 22.043105,11.32322 32.158766,21.979434 L 37.068811,17.246167 C 37.068811,17.246167 37.088388,32 37.088388,32 L 22.160133,31.978069 C 22.160133,31.978069 26.997745,27.140456 26.997745,27.140456 C 18.528582,18.264221 13.291696,25.230495 11.500037,31.436501 z"
             style="fill:#404040;"/>
          </a>
         </g>
        </svg>
</svg>
