<?xml version="1.0" encoding="UTF-8" standalone="no"?>
<!DOCTYPE svg PUBLIC "-//W3C//DTD SVG 1.1//EN"
 "http://www.w3.org/Graphics/SVG/1.1/DTD/svg11.dtd">
<!-- Generated by graphviz version 2.38.0 (20140413.2041)
 -->
<!-- Title: src/network/http.cpp Pages: 1 -->
<svg width="1491pt" height="386pt"
 viewBox="0.00 0.00 1491.15 386.00" xmlns="http://www.w3.org/2000/svg" xmlns:xlink="http://www.w3.org/1999/xlink">
<g id="graph0" class="graph" transform="scale(1 1) rotate(0) translate(4 382)">
<title>src/network/http.cpp</title>
<!-- Node1 -->
<g id="node1" class="node"><title>Node1</title>
<polygon fill="#bfbfbf" stroke="black" points="953.147,-358.5 953.147,-377.5 1059.15,-377.5 1059.15,-358.5 953.147,-358.5"/>
<text text-anchor="middle" x="1006.15" y="-365.5" font-family="Helvetica,sans-Serif" font-size="10.00">src/network/http.cpp</text>
</g>
<!-- Node2 -->
<g id="node2" class="node"><title>Node2</title>
<g id="a_node2"><a xlink:href="http_8hpp.html" target="_top" xlink:title="http.hpp">
<polygon fill="none" stroke="black" points="850.147,-302.5 850.147,-321.5 902.147,-321.5 902.147,-302.5 850.147,-302.5"/>
<text text-anchor="middle" x="876.147" y="-309.5" font-family="Helvetica,sans-Serif" font-size="10.00">http.hpp</text>
</a>
</g>
</g>
<!-- Node1&#45;&gt;Node2 -->
<g id="edge1" class="edge"><title>Node1&#45;&gt;Node2</title>
<path fill="none" stroke="midnightblue" d="M985.548,-358.444C964.153,-349.557 930.465,-335.563 906.122,-325.451"/>
<polygon fill="midnightblue" stroke="midnightblue" points="907.227,-322.12 896.649,-321.516 904.541,-328.585 907.227,-322.12"/>
</g>
<!-- Node7 -->
<g id="node7" class="node"><title>Node7</title>
<g id="a_node7"><a xlink:href="logger_8hpp.html" target="_top" xlink:title="string/logger.hpp">
<polygon fill="none" stroke="black" points="607.647,-190.5 607.647,-209.5 696.647,-209.5 696.647,-190.5 607.647,-190.5"/>
<text text-anchor="middle" x="652.147" y="-197.5" font-family="Helvetica,sans-Serif" font-size="10.00">string/logger.hpp</text>
</a>
</g>
</g>
<!-- Node1&#45;&gt;Node7 -->
<g id="edge52" class="edge"><title>Node1&#45;&gt;Node7</title>
<path fill="none" stroke="midnightblue" d="M964.614,-358.436C930.726,-350.797 881.954,-338.304 841.147,-322 792.396,-302.523 781.248,-294.479 737.147,-266 712.96,-250.381 686.904,-229.85 670.108,-216.079"/>
<polygon fill="midnightblue" stroke="midnightblue" points="672.163,-213.236 662.228,-209.556 667.699,-218.629 672.163,-213.236"/>
</g>
<!-- Node8 -->
<g id="node8" class="node"><title>Node8</title>
<polygon fill="none" stroke="#bfbfbf" points="890.147,-129 890.147,-148 940.147,-148 940.147,-129 890.147,-129"/>
<text text-anchor="middle" x="915.147" y="-136" font-family="Helvetica,sans-Serif" font-size="10.00">iomanip</text>
</g>
<!-- Node1&#45;&gt;Node8 -->
<g id="edge46" class="edge"><title>Node1&#45;&gt;Node8</title>
<path fill="none" stroke="midnightblue" d="M1002.69,-358.36C989.317,-324.927 940.799,-203.632 922.341,-157.487"/>
<polygon fill="midnightblue" stroke="midnightblue" points="925.57,-156.134 918.606,-148.149 919.07,-158.734 925.57,-156.134"/>
</g>
<!-- Node20 -->
<g id="node20" class="node"><title>Node20</title>
<polygon fill="none" stroke="#bfbfbf" points="193.147,-62 193.147,-81 245.147,-81 245.147,-62 193.147,-62"/>
<text text-anchor="middle" x="219.147" y="-69" font-family="Helvetica,sans-Serif" font-size="10.00">sstream</text>
</g>
<!-- Node1&#45;&gt;Node20 -->
<g id="edge47" class="edge"><title>Node1&#45;&gt;Node20</title>
<path fill="none" stroke="midnightblue" d="M953.131,-365.382C773.373,-359.201 198.147,-333.449 198.147,-257 198.147,-257 198.147,-257 198.147,-199 198.147,-160.003 207.979,-115.145 214.188,-90.7058"/>
<polygon fill="midnightblue" stroke="midnightblue" points="217.58,-91.5697 216.738,-81.0084 210.81,-89.7898 217.58,-91.5697"/>
</g>
<!-- Node22 -->
<g id="node22" class="node"><title>Node22</title>
<polygon fill="none" stroke="#bfbfbf" points="1068.15,-0.5 1068.15,-19.5 1114.15,-19.5 1114.15,-0.5 1068.15,-0.5"/>
<text text-anchor="middle" x="1091.15" y="-7.5" font-family="Helvetica,sans-Serif" font-size="10.00">cctype</text>
</g>
<!-- Node1&#45;&gt;Node22 -->
<g id="edge45" class="edge"><title>Node1&#45;&gt;Node22</title>
<path fill="none" stroke="midnightblue" d="M1007.13,-358.384C1008.95,-345.319 1013.74,-320.103 1025.15,-302 1101.5,-180.844 1206.73,-217.754 1265.15,-87 1270.77,-74.4205 1273.58,-66.894 1265.15,-56 1248.04,-33.9127 1169.75,-20.7084 1124.22,-14.7662"/>
<polygon fill="midnightblue" stroke="midnightblue" points="1124.58,-11.2841 1114.22,-13.509 1123.71,-18.2294 1124.58,-11.2841"/>
</g>
<!-- Node31 -->
<g id="node31" class="node"><title>Node31</title>
<polygon fill="none" stroke="#bfbfbf" points="1034.65,-302.5 1034.65,-321.5 1135.65,-321.5 1135.65,-302.5 1034.65,-302.5"/>
<text text-anchor="middle" x="1085.15" y="-309.5" font-family="Helvetica,sans-Serif" font-size="10.00">curlpp/cURLpp.hpp</text>
</g>
<!-- Node1&#45;&gt;Node31 -->
<g id="edge48" class="edge"><title>Node1&#45;&gt;Node31</title>
<path fill="none" stroke="midnightblue" d="M1018.84,-358.324C1031.05,-349.979 1049.72,-337.212 1064.15,-327.352"/>
<polygon fill="midnightblue" stroke="midnightblue" points="1066.2,-330.187 1072.49,-321.655 1062.25,-324.408 1066.2,-330.187"/>
</g>
<!-- Node32 -->
<g id="node32" class="node"><title>Node32</title>
<polygon fill="none" stroke="#bfbfbf" points="1153.65,-302.5 1153.65,-321.5 1240.65,-321.5 1240.65,-302.5 1153.65,-302.5"/>
<text text-anchor="middle" x="1197.15" y="-309.5" font-family="Helvetica,sans-Serif" font-size="10.00">curlpp/Easy.hpp</text>
</g>
<!-- Node1&#45;&gt;Node32 -->
<g id="edge49" class="edge"><title>Node1&#45;&gt;Node32</title>
<path fill="none" stroke="midnightblue" d="M1036.41,-358.444C1069.1,-349.201 1121.33,-334.436 1157.33,-324.257"/>
<polygon fill="midnightblue" stroke="midnightblue" points="1158.35,-327.605 1167.02,-321.516 1156.45,-320.869 1158.35,-327.605"/>
</g>
<!-- Node33 -->
<g id="node33" class="node"><title>Node33</title>
<polygon fill="none" stroke="#bfbfbf" points="1259.15,-302.5 1259.15,-321.5 1357.15,-321.5 1357.15,-302.5 1259.15,-302.5"/>
<text text-anchor="middle" x="1308.15" y="-309.5" font-family="Helvetica,sans-Serif" font-size="10.00">curlpp/Options.hpp</text>
</g>
<!-- Node1&#45;&gt;Node33 -->
<g id="edge50" class="edge"><title>Node1&#45;&gt;Node33</title>
<path fill="none" stroke="midnightblue" d="M1054,-358.444C1107.35,-348.905 1193.59,-333.483 1250.58,-323.293"/>
<polygon fill="midnightblue" stroke="midnightblue" points="1251.29,-326.722 1260.52,-321.516 1250.06,-319.831 1251.29,-326.722"/>
</g>
<!-- Node34 -->
<g id="node34" class="node"><title>Node34</title>
<polygon fill="none" stroke="#bfbfbf" points="1375.15,-302.5 1375.15,-321.5 1483.15,-321.5 1483.15,-302.5 1375.15,-302.5"/>
<text text-anchor="middle" x="1429.15" y="-309.5" font-family="Helvetica,sans-Serif" font-size="10.00">curlpp/Exception.hpp</text>
</g>
<!-- Node1&#45;&gt;Node34 -->
<g id="edge51" class="edge"><title>Node1&#45;&gt;Node34</title>
<path fill="none" stroke="midnightblue" d="M1059.25,-360.657C1127.53,-352.437 1250.02,-337.467 1364.84,-322.156"/>
<polygon fill="midnightblue" stroke="midnightblue" points="1365.41,-325.611 1374.86,-320.817 1364.48,-318.673 1365.41,-325.611"/>
</g>
<!-- Node3 -->
<g id="node3" class="node"><title>Node3</title>
<g id="a_node3"><a xlink:href="async__service_8hpp.html" target="_top" xlink:title="async_service.hpp">
<polygon fill="none" stroke="black" points="746.147,-246.5 746.147,-265.5 844.147,-265.5 844.147,-246.5 746.147,-246.5"/>
<text text-anchor="middle" x="795.147" y="-253.5" font-family="Helvetica,sans-Serif" font-size="10.00">async_service.hpp</text>
</a>
</g>
</g>
<!-- Node2&#45;&gt;Node3 -->
<g id="edge2" class="edge"><title>Node2&#45;&gt;Node3</title>
<path fill="none" stroke="midnightblue" d="M863.132,-302.324C850.615,-293.979 831.465,-281.212 816.675,-271.352"/>
<polygon fill="midnightblue" stroke="midnightblue" points="818.39,-268.289 808.128,-265.655 814.507,-274.114 818.39,-268.289"/>
</g>
<!-- Node30 -->
<g id="node30" class="node"><title>Node30</title>
<polygon fill="none" stroke="#bfbfbf" points="862.647,-246.5 862.647,-265.5 897.647,-265.5 897.647,-246.5 862.647,-246.5"/>
<text text-anchor="middle" x="880.147" y="-253.5" font-family="Helvetica,sans-Serif" font-size="10.00">map</text>
</g>
<!-- Node2&#45;&gt;Node30 -->
<g id="edge44" class="edge"><title>Node2&#45;&gt;Node30</title>
<path fill="none" stroke="midnightblue" d="M876.807,-302.083C877.331,-295.006 878.083,-284.861 878.74,-275.986"/>
<polygon fill="midnightblue" stroke="midnightblue" points="882.25,-275.982 879.498,-265.751 875.269,-275.465 882.25,-275.982"/>
</g>
<!-- Node4 -->
<g id="node4" class="node"><title>Node4</title>
<polygon fill="none" stroke="#bfbfbf" points="957.647,-62 957.647,-81 1016.65,-81 1016.65,-62 957.647,-62"/>
<text text-anchor="middle" x="987.147" y="-69" font-family="Helvetica,sans-Serif" font-size="10.00">functional</text>
</g>
<!-- Node3&#45;&gt;Node4 -->
<g id="edge3" class="edge"><title>Node3&#45;&gt;Node4</title>
<path fill="none" stroke="midnightblue" d="M814.922,-246.444C846.912,-231.734 910.337,-198.851 949.147,-154 965.304,-135.327 976.002,-108.616 981.819,-90.928"/>
<polygon fill="midnightblue" stroke="midnightblue" points="985.206,-91.821 984.815,-81.2333 978.518,-89.7541 985.206,-91.821"/>
</g>
<!-- Node5 -->
<g id="node5" class="node"><title>Node5</title>
<polygon fill="none" stroke="#bfbfbf" points="271.647,-0.5 271.647,-19.5 312.647,-19.5 312.647,-0.5 271.647,-0.5"/>
<text text-anchor="middle" x="292.147" y="-7.5" font-family="Helvetica,sans-Serif" font-size="10.00">string</text>
</g>
<!-- Node3&#45;&gt;Node5 -->
<g id="edge4" class="edge"><title>Node3&#45;&gt;Node5</title>
<path fill="none" stroke="midnightblue" d="M746.078,-253.329C585.874,-246.644 83.9685,-215.573 6.14651,-87 -0.987741,-75.2132 -2.80676,-66.4722 6.14651,-56 38.7115,-17.9105 194.06,-11.856 261.162,-11.0407"/>
<polygon fill="midnightblue" stroke="midnightblue" points="261.544,-14.5376 271.512,-10.9486 261.481,-7.53784 261.544,-14.5376"/>
</g>
<!-- Node6 -->
<g id="node6" class="node"><title>Node6</title>
<polygon fill="none" stroke="#bfbfbf" points="773.147,-190.5 773.147,-209.5 817.147,-209.5 817.147,-190.5 773.147,-190.5"/>
<text text-anchor="middle" x="795.147" y="-197.5" font-family="Helvetica,sans-Serif" font-size="10.00">thread</text>
</g>
<!-- Node3&#45;&gt;Node6 -->
<g id="edge5" class="edge"><title>Node3&#45;&gt;Node6</title>
<path fill="none" stroke="midnightblue" d="M795.147,-246.083C795.147,-239.006 795.147,-228.861 795.147,-219.986"/>
<polygon fill="midnightblue" stroke="midnightblue" points="798.647,-219.751 795.147,-209.751 791.647,-219.751 798.647,-219.751"/>
</g>
<!-- Node3&#45;&gt;Node7 -->
<g id="edge6" class="edge"><title>Node3&#45;&gt;Node7</title>
<path fill="none" stroke="midnightblue" d="M772.488,-246.444C748.745,-237.478 711.237,-223.314 684.408,-213.183"/>
<polygon fill="midnightblue" stroke="midnightblue" points="685.291,-209.775 674.699,-209.516 682.818,-216.324 685.291,-209.775"/>
</g>
<!-- Node26 -->
<g id="node26" class="node"><title>Node26</title>
<g id="a_node26"><a xlink:href="concurrent__container_8hpp.html" target="_top" xlink:title="concurrent_container.hpp">
<polygon fill="none" stroke="black" points="996.147,-129 996.147,-148 1122.15,-148 1122.15,-129 996.147,-129"/>
<text text-anchor="middle" x="1059.15" y="-136" font-family="Helvetica,sans-Serif" font-size="10.00">concurrent_container.hpp</text>
</a>
</g>
</g>
<!-- Node3&#45;&gt;Node26 -->
<g id="edge38" class="edge"><title>Node3&#45;&gt;Node26</title>
<path fill="none" stroke="midnightblue" d="M842.174,-246.474C889.301,-237.437 958.192,-222.739 982.147,-210 1007.77,-196.376 1031.46,-172.22 1045.61,-156.034"/>
<polygon fill="midnightblue" stroke="midnightblue" points="1048.29,-158.28 1052.1,-148.394 1042.96,-153.748 1048.29,-158.28"/>
</g>
<!-- Node7&#45;&gt;Node5 -->
<g id="edge11" class="edge"><title>Node7&#45;&gt;Node5</title>
<path fill="none" stroke="midnightblue" d="M607.48,-195.909C538.393,-188.729 405.717,-165.008 330.147,-87 314.149,-70.4862 303.545,-45.9096 297.698,-29.2091"/>
<polygon fill="midnightblue" stroke="midnightblue" points="300.969,-27.9516 294.533,-19.5357 294.316,-30.1283 300.969,-27.9516"/>
</g>
<!-- Node7&#45;&gt;Node8 -->
<g id="edge7" class="edge"><title>Node7&#45;&gt;Node8</title>
<path fill="none" stroke="midnightblue" d="M696.842,-192.157C742.412,-184.683 814.911,-171.417 876.147,-154 878.791,-153.248 881.511,-152.399 884.227,-151.498"/>
<polygon fill="midnightblue" stroke="midnightblue" points="885.623,-154.717 893.892,-148.093 883.297,-148.115 885.623,-154.717"/>
</g>
<!-- Node9 -->
<g id="node9" class="node"><title>Node9</title>
<polygon fill="none" stroke="#bfbfbf" points="15.1465,-62 15.1465,-81 69.1465,-81 69.1465,-62 15.1465,-62"/>
<text text-anchor="middle" x="42.1465" y="-69" font-family="Helvetica,sans-Serif" font-size="10.00">iostream</text>
</g>
<!-- Node7&#45;&gt;Node9 -->
<g id="edge8" class="edge"><title>Node7&#45;&gt;Node9</title>
<path fill="none" stroke="midnightblue" d="M607.412,-199.222C527.554,-198.557 355.83,-192.302 217.147,-154 159.81,-138.165 97.8622,-105.114 65.2552,-86.329"/>
<polygon fill="midnightblue" stroke="midnightblue" points="66.8904,-83.2309 56.4894,-81.2134 63.3621,-89.2767 66.8904,-83.2309"/>
</g>
<!-- Node10 -->
<g id="node10" class="node"><title>Node10</title>
<polygon fill="none" stroke="#bfbfbf" points="551.147,-129 551.147,-148 595.147,-148 595.147,-129 551.147,-129"/>
<text text-anchor="middle" x="573.147" y="-136" font-family="Helvetica,sans-Serif" font-size="10.00">mutex</text>
</g>
<!-- Node7&#45;&gt;Node10 -->
<g id="edge9" class="edge"><title>Node7&#45;&gt;Node10</title>
<path fill="none" stroke="midnightblue" d="M640.828,-190.475C628.274,-181.02 607.795,-165.596 592.647,-154.187"/>
<polygon fill="midnightblue" stroke="midnightblue" points="594.538,-151.23 584.444,-148.009 590.326,-156.821 594.538,-151.23"/>
</g>
<!-- Node11 -->
<g id="node11" class="node"><title>Node11</title>
<polygon fill="none" stroke="#bfbfbf" points="880.647,-62 880.647,-81 939.647,-81 939.647,-62 880.647,-62"/>
<text text-anchor="middle" x="910.147" y="-69" font-family="Helvetica,sans-Serif" font-size="10.00">stdexcept</text>
</g>
<!-- Node7&#45;&gt;Node11 -->
<g id="edge10" class="edge"><title>Node7&#45;&gt;Node11</title>
<path fill="none" stroke="midnightblue" d="M696.668,-196.422C737.236,-192.309 797.463,-181.643 842.147,-154 868.036,-137.984 888.829,-108.699 900.322,-89.9402"/>
<polygon fill="midnightblue" stroke="midnightblue" points="903.402,-91.6086 905.463,-81.2161 897.371,-88.0551 903.402,-91.6086"/>
</g>
<!-- Node12 -->
<g id="node12" class="node"><title>Node12</title>
<polygon fill="none" stroke="#bfbfbf" points="458.647,-62 458.647,-81 541.647,-81 541.647,-62 458.647,-62"/>
<text text-anchor="middle" x="500.147" y="-69" font-family="Helvetica,sans-Serif" font-size="10.00">unordered_map</text>
</g>
<!-- Node7&#45;&gt;Node12 -->
<g id="edge12" class="edge"><title>Node7&#45;&gt;Node12</title>
<path fill="none" stroke="midnightblue" d="M648.627,-190.392C641.982,-175.057 626.246,-142.768 604.147,-123 584.816,-105.71 558.505,-93.0081 537.184,-84.668"/>
<polygon fill="midnightblue" stroke="midnightblue" points="538.374,-81.3765 527.782,-81.1422 535.916,-87.9307 538.374,-81.3765"/>
</g>
<!-- Node13 -->
<g id="node13" class="node"><title>Node13</title>
<polygon fill="none" stroke="#bfbfbf" points="728.647,-123.5 728.647,-153.5 833.647,-153.5 833.647,-123.5 728.647,-123.5"/>
<text text-anchor="start" x="736.647" y="-141.5" font-family="Helvetica,sans-Serif" font-size="10.00">boost/chrono/io/time</text>
<text text-anchor="middle" x="781.147" y="-130.5" font-family="Helvetica,sans-Serif" font-size="10.00">_point_io.hpp</text>
</g>
<!-- Node7&#45;&gt;Node13 -->
<g id="edge13" class="edge"><title>Node7&#45;&gt;Node13</title>
<path fill="none" stroke="midnightblue" d="M670.629,-190.475C689.08,-181.965 718.014,-168.619 741.649,-157.718"/>
<polygon fill="midnightblue" stroke="midnightblue" points="743.129,-160.89 750.744,-153.523 740.197,-154.533 743.129,-160.89"/>
</g>
<!-- Node14 -->
<g id="node14" class="node"><title>Node14</title>
<g id="a_node14"><a xlink:href="multibuf_8hpp.html" target="_top" xlink:title="multibuf.hpp">
<polygon fill="none" stroke="black" points="226.147,-129 226.147,-148 296.147,-148 296.147,-129 226.147,-129"/>
<text text-anchor="middle" x="261.147" y="-136" font-family="Helvetica,sans-Serif" font-size="10.00">multibuf.hpp</text>
</a>
</g>
</g>
<!-- Node7&#45;&gt;Node14 -->
<g id="edge14" class="edge"><title>Node7&#45;&gt;Node14</title>
<path fill="none" stroke="midnightblue" d="M607.497,-195.378C541.834,-189.544 415.591,-176.394 310.147,-154 305.9,-153.098 301.486,-152.011 297.124,-150.843"/>
<polygon fill="midnightblue" stroke="midnightblue" points="297.72,-147.374 287.145,-148.018 295.813,-154.109 297.72,-147.374"/>
</g>
<!-- Node17 -->
<g id="node17" class="node"><title>Node17</title>
<g id="a_node17"><a xlink:href="string_8hpp.html" target="_top" xlink:title="string.hpp">
<polygon fill="none" stroke="black" points="651.647,-129 651.647,-148 710.647,-148 710.647,-129 651.647,-129"/>
<text text-anchor="middle" x="681.147" y="-136" font-family="Helvetica,sans-Serif" font-size="10.00">string.hpp</text>
</a>
</g>
</g>
<!-- Node7&#45;&gt;Node17 -->
<g id="edge19" class="edge"><title>Node7&#45;&gt;Node17</title>
<path fill="none" stroke="midnightblue" d="M656.302,-190.475C660.522,-181.815 667.183,-168.149 672.546,-157.145"/>
<polygon fill="midnightblue" stroke="midnightblue" points="675.764,-158.532 676.999,-148.009 669.472,-155.465 675.764,-158.532"/>
</g>
<!-- Node24 -->
<g id="node24" class="node"><title>Node24</title>
<g id="a_node24"><a xlink:href="settings_8hpp.html" target="_top" xlink:title="settings.hpp">
<polygon fill="none" stroke="black" points="463.147,-129 463.147,-148 533.147,-148 533.147,-129 463.147,-129"/>
<text text-anchor="middle" x="498.147" y="-136" font-family="Helvetica,sans-Serif" font-size="10.00">settings.hpp</text>
</a>
</g>
</g>
<!-- Node7&#45;&gt;Node24 -->
<g id="edge33" class="edge"><title>Node7&#45;&gt;Node24</title>
<path fill="none" stroke="midnightblue" d="M630.082,-190.475C603.78,-180.313 559.634,-163.256 529.722,-151.7"/>
<polygon fill="midnightblue" stroke="midnightblue" points="530.759,-148.348 520.17,-148.009 528.237,-154.878 530.759,-148.348"/>
</g>
<!-- Node14&#45;&gt;Node5 -->
<g id="edge18" class="edge"><title>Node14&#45;&gt;Node5</title>
<path fill="none" stroke="midnightblue" d="M263.277,-128.805C268.255,-108.494 280.738,-57.5532 287.545,-29.7768"/>
<polygon fill="midnightblue" stroke="midnightblue" points="291.02,-30.3014 290.001,-19.7557 284.221,-28.6352 291.02,-30.3014"/>
</g>
<!-- Node14&#45;&gt;Node9 -->
<g id="edge15" class="edge"><title>Node14&#45;&gt;Node9</title>
<path fill="none" stroke="midnightblue" d="M226.047,-129.077C188.943,-119.88 128.882,-104.156 78.1465,-87 76.0202,-86.281 73.8377,-85.5036 71.6496,-84.6952"/>
<polygon fill="midnightblue" stroke="midnightblue" points="72.7675,-81.375 62.178,-81.0371 70.2455,-87.9049 72.7675,-81.375"/>
</g>
<!-- Node15 -->
<g id="node15" class="node"><title>Node15</title>
<polygon fill="none" stroke="#bfbfbf" points="87.1465,-62 87.1465,-81 137.147,-81 137.147,-62 87.1465,-62"/>
<text text-anchor="middle" x="112.147" y="-69" font-family="Helvetica,sans-Serif" font-size="10.00">fstream</text>
</g>
<!-- Node14&#45;&gt;Node15 -->
<g id="edge16" class="edge"><title>Node14&#45;&gt;Node15</title>
<path fill="none" stroke="midnightblue" d="M241.36,-128.869C215.757,-117.699 170.937,-98.1468 141.397,-85.2602"/>
<polygon fill="midnightblue" stroke="midnightblue" points="142.58,-81.9577 132.014,-81.1672 139.781,-88.3738 142.58,-81.9577"/>
</g>
<!-- Node16 -->
<g id="node16" class="node"><title>Node16</title>
<polygon fill="none" stroke="#bfbfbf" points="744.147,-62 744.147,-81 788.147,-81 788.147,-62 744.147,-62"/>
<text text-anchor="middle" x="766.147" y="-69" font-family="Helvetica,sans-Serif" font-size="10.00">vector</text>
</g>
<!-- Node14&#45;&gt;Node16 -->
<g id="edge17" class="edge"><title>Node14&#45;&gt;Node16</title>
<path fill="none" stroke="midnightblue" d="M296.337,-134.529C370.66,-128.012 548.978,-111.097 697.147,-87 709.172,-85.0443 722.277,-82.4175 733.804,-79.937"/>
<polygon fill="midnightblue" stroke="midnightblue" points="734.855,-83.2896 743.87,-77.7237 733.351,-76.4529 734.855,-83.2896"/>
</g>
<!-- Node17&#45;&gt;Node4 -->
<g id="edge21" class="edge"><title>Node17&#45;&gt;Node4</title>
<path fill="none" stroke="midnightblue" d="M701.399,-128.877C707.064,-126.712 713.278,-124.562 719.147,-123 818.705,-96.4909 848.475,-113.082 948.147,-87 950.964,-86.2628 953.861,-85.3982 956.743,-84.4646"/>
<polygon fill="midnightblue" stroke="midnightblue" points="958.058,-87.7125 966.344,-81.1097 955.749,-81.1042 958.058,-87.7125"/>
</g>
<!-- Node17&#45;&gt;Node5 -->
<g id="edge24" class="edge"><title>Node17&#45;&gt;Node5</title>
<path fill="none" stroke="midnightblue" d="M670.689,-128.995C649.41,-112.163 598.944,-74.6249 550.147,-56 471.788,-26.0924 372.397,-15.9209 322.969,-12.5717"/>
<polygon fill="midnightblue" stroke="midnightblue" points="323.124,-9.07459 312.924,-11.9395 322.684,-16.0608 323.124,-9.07459"/>
</g>
<!-- Node17&#45;&gt;Node11 -->
<g id="edge23" class="edge"><title>Node17&#45;&gt;Node11</title>
<path fill="none" stroke="midnightblue" d="M702.278,-128.87C707.725,-126.803 713.612,-124.703 719.147,-123 785.5,-102.58 804.706,-107.135 871.147,-87 873.715,-86.2215 876.36,-85.3636 879.004,-84.4657"/>
<polygon fill="midnightblue" stroke="midnightblue" points="880.194,-87.7572 888.444,-81.109 877.849,-81.1617 880.194,-87.7572"/>
</g>
<!-- Node17&#45;&gt;Node12 -->
<g id="edge26" class="edge"><title>Node17&#45;&gt;Node12</title>
<path fill="none" stroke="midnightblue" d="M657.111,-128.869C625.38,-117.473 569.352,-97.3528 533.525,-84.4869"/>
<polygon fill="midnightblue" stroke="midnightblue" points="534.588,-81.1495 523.993,-81.0637 532.222,-87.7376 534.588,-81.1495"/>
</g>
<!-- Node17&#45;&gt;Node16 -->
<g id="edge27" class="edge"><title>Node17&#45;&gt;Node16</title>
<path fill="none" stroke="midnightblue" d="M692.61,-128.734C706.502,-118.111 730.122,-100.049 746.839,-87.2642"/>
<polygon fill="midnightblue" stroke="midnightblue" points="749.047,-89.9821 754.865,-81.1273 744.795,-84.4216 749.047,-89.9821"/>
</g>
<!-- Node18 -->
<g id="node18" class="node"><title>Node18</title>
<polygon fill="none" stroke="#bfbfbf" points="693.147,-0.5 693.147,-19.5 739.147,-19.5 739.147,-0.5 693.147,-0.5"/>
<text text-anchor="middle" x="716.147" y="-7.5" font-family="Helvetica,sans-Serif" font-size="10.00">cstdint</text>
</g>
<!-- Node17&#45;&gt;Node18 -->
<g id="edge20" class="edge"><title>Node17&#45;&gt;Node18</title>
<path fill="none" stroke="midnightblue" d="M684.027,-128.971C687.362,-118.969 692.937,-101.866 697.147,-87 702.632,-67.6243 708.128,-45.2384 711.787,-29.8057"/>
<polygon fill="midnightblue" stroke="midnightblue" points="715.225,-30.4746 714.101,-19.9396 708.41,-28.8765 715.225,-30.4746"/>
</g>
<!-- Node19 -->
<g id="node19" class="node"><title>Node19</title>
<polygon fill="none" stroke="#bfbfbf" points="636.147,-62 636.147,-81 688.147,-81 688.147,-62 636.147,-62"/>
<text text-anchor="middle" x="662.147" y="-69" font-family="Helvetica,sans-Serif" font-size="10.00">memory</text>
</g>
<!-- Node17&#45;&gt;Node19 -->
<g id="edge22" class="edge"><title>Node17&#45;&gt;Node19</title>
<path fill="none" stroke="midnightblue" d="M678.584,-128.734C675.764,-119.085 671.15,-103.3 667.527,-90.9063"/>
<polygon fill="midnightblue" stroke="midnightblue" points="670.834,-89.7436 664.668,-81.1273 664.115,-91.7077 670.834,-89.7436"/>
</g>
<!-- Node17&#45;&gt;Node20 -->
<g id="edge25" class="edge"><title>Node17&#45;&gt;Node20</title>
<path fill="none" stroke="midnightblue" d="M651.596,-131.536C637.297,-128.753 619.863,-125.509 604.147,-123 599.835,-122.312 350.219,-89.6458 255.27,-77.2249"/>
<polygon fill="midnightblue" stroke="midnightblue" points="255.634,-73.7429 245.265,-75.9161 254.726,-80.6837 255.634,-73.7429"/>
</g>
<!-- Node21 -->
<g id="node21" class="node"><title>Node21</title>
<g id="a_node21"><a xlink:href="color_8hpp.html" target="_top" xlink:title="color.hpp">
<polygon fill="none" stroke="black" points="806.147,-62 806.147,-81 862.147,-81 862.147,-62 806.147,-62"/>
<text text-anchor="middle" x="834.147" y="-69" font-family="Helvetica,sans-Serif" font-size="10.00">color.hpp</text>
</a>
</g>
</g>
<!-- Node17&#45;&gt;Node21 -->
<g id="edge28" class="edge"><title>Node17&#45;&gt;Node21</title>
<path fill="none" stroke="midnightblue" d="M701.464,-128.869C727.869,-117.65 774.178,-97.9766 804.506,-85.0925"/>
<polygon fill="midnightblue" stroke="midnightblue" points="805.91,-88.2987 813.745,-81.1672 803.173,-81.856 805.91,-88.2987"/>
</g>
<!-- Node21&#45;&gt;Node5 -->
<g id="edge32" class="edge"><title>Node21&#45;&gt;Node5</title>
<path fill="none" stroke="midnightblue" d="M815.274,-61.911C809.558,-59.6373 803.191,-57.4228 797.147,-56 621.211,-14.5858 402.605,-10.657 322.977,-10.7239"/>
<polygon fill="midnightblue" stroke="midnightblue" points="322.671,-7.22471 312.682,-10.7563 322.693,-14.2247 322.671,-7.22471"/>
</g>
<!-- Node21&#45;&gt;Node18 -->
<g id="edge30" class="edge"><title>Node21&#45;&gt;Node18</title>
<path fill="none" stroke="midnightblue" d="M817.24,-61.9751C797.612,-52.078 765.016,-35.6416 742.156,-24.1151"/>
<polygon fill="midnightblue" stroke="midnightblue" points="743.527,-20.8863 733.022,-19.5091 740.375,-27.1367 743.527,-20.8863"/>
</g>
<!-- Node21&#45;&gt;Node22 -->
<g id="edge29" class="edge"><title>Node21&#45;&gt;Node22</title>
<path fill="none" stroke="midnightblue" d="M854.284,-61.8854C859.695,-59.7703 865.589,-57.644 871.147,-56 936.247,-36.7411 1014.58,-22.8608 1058.02,-15.9533"/>
<polygon fill="midnightblue" stroke="midnightblue" points="1058.69,-19.3915 1068.02,-14.3878 1057.6,-12.4757 1058.69,-19.3915"/>
</g>
<!-- Node23 -->
<g id="node23" class="node"><title>Node23</title>
<polygon fill="none" stroke="#bfbfbf" points="811.647,-0.5 811.647,-19.5 856.647,-19.5 856.647,-0.5 811.647,-0.5"/>
<text text-anchor="middle" x="834.147" y="-7.5" font-family="Helvetica,sans-Serif" font-size="10.00">cstdlib</text>
</g>
<!-- Node21&#45;&gt;Node23 -->
<g id="edge31" class="edge"><title>Node21&#45;&gt;Node23</title>
<path fill="none" stroke="midnightblue" d="M834.147,-61.9751C834.147,-53.5803 834.147,-40.4806 834.147,-29.6631"/>
<polygon fill="midnightblue" stroke="midnightblue" points="837.647,-29.5091 834.147,-19.5091 830.647,-29.5091 837.647,-29.5091"/>
</g>
<!-- Node24&#45;&gt;Node5 -->
<g id="edge34" class="edge"><title>Node24&#45;&gt;Node5</title>
<path fill="none" stroke="midnightblue" d="M463.094,-134.406C384.994,-127.159 202.118,-108.093 184.147,-87 175.211,-76.5126 176.504,-67.4638 184.147,-56 201.279,-30.3019 236.159,-19.2556 261.661,-14.5219"/>
<polygon fill="midnightblue" stroke="midnightblue" points="262.29,-17.9657 271.597,-12.9031 261.164,-11.0568 262.29,-17.9657"/>
</g>
<!-- Node24&#45;&gt;Node12 -->
<g id="edge36" class="edge"><title>Node24&#45;&gt;Node12</title>
<path fill="none" stroke="midnightblue" d="M498.416,-128.734C498.71,-119.183 499.189,-103.618 499.569,-91.2829"/>
<polygon fill="midnightblue" stroke="midnightblue" points="503.072,-91.2302 499.881,-81.1273 496.075,-91.0149 503.072,-91.2302"/>
</g>
<!-- Node24&#45;&gt;Node18 -->
<g id="edge35" class="edge"><title>Node24&#45;&gt;Node18</title>
<path fill="none" stroke="midnightblue" d="M510.717,-128.992C533.511,-113.694 583.362,-80.8257 627.147,-56 647.353,-44.5433 670.822,-32.7361 688.586,-24.0921"/>
<polygon fill="midnightblue" stroke="midnightblue" points="690.328,-27.1379 697.811,-19.6377 687.284,-20.8343 690.328,-27.1379"/>
</g>
<!-- Node25 -->
<g id="node25" class="node"><title>Node25</title>
<polygon fill="none" stroke="#bfbfbf" points="339.647,-56.5 339.647,-86.5 440.647,-86.5 440.647,-56.5 339.647,-56.5"/>
<text text-anchor="start" x="347.647" y="-74.5" font-family="Helvetica,sans-Serif" font-size="10.00">boost/property_tree</text>
<text text-anchor="middle" x="390.147" y="-63.5" font-family="Helvetica,sans-Serif" font-size="10.00">/ptree.hpp</text>
</g>
<!-- Node24&#45;&gt;Node25 -->
<g id="edge37" class="edge"><title>Node24&#45;&gt;Node25</title>
<path fill="none" stroke="midnightblue" d="M483.581,-128.734C467.933,-119.316 442.57,-104.051 422.216,-91.8008"/>
<polygon fill="midnightblue" stroke="midnightblue" points="423.929,-88.7469 413.556,-86.589 420.319,-94.7445 423.929,-88.7469"/>
</g>
<!-- Node26&#45;&gt;Node4 -->
<g id="edge41" class="edge"><title>Node26&#45;&gt;Node4</title>
<path fill="none" stroke="midnightblue" d="M1049.44,-128.734C1037.88,-118.305 1018.39,-100.709 1004.29,-87.9732"/>
<polygon fill="midnightblue" stroke="midnightblue" points="1006.47,-85.2304 996.703,-81.1273 1001.78,-90.4263 1006.47,-85.2304"/>
</g>
<!-- Node26&#45;&gt;Node16 -->
<g id="edge43" class="edge"><title>Node26&#45;&gt;Node16</title>
<path fill="none" stroke="midnightblue" d="M996.116,-129.809C942.351,-122.199 863.455,-108.531 797.147,-87 795.476,-86.4575 793.778,-85.847 792.081,-85.1914"/>
<polygon fill="midnightblue" stroke="midnightblue" points="793.141,-81.8377 782.572,-81.1026 790.376,-88.2684 793.141,-81.8377"/>
</g>
<!-- Node27 -->
<g id="node27" class="node"><title>Node27</title>
<polygon fill="none" stroke="#bfbfbf" points="1035.15,-62 1035.15,-81 1081.15,-81 1081.15,-62 1035.15,-62"/>
<text text-anchor="middle" x="1058.15" y="-69" font-family="Helvetica,sans-Serif" font-size="10.00">atomic</text>
</g>
<!-- Node26&#45;&gt;Node27 -->
<g id="edge39" class="edge"><title>Node26&#45;&gt;Node27</title>
<path fill="none" stroke="midnightblue" d="M1059.01,-128.734C1058.86,-119.183 1058.63,-103.618 1058.44,-91.2829"/>
<polygon fill="midnightblue" stroke="midnightblue" points="1061.93,-91.0722 1058.28,-81.1273 1054.93,-91.18 1061.93,-91.0722"/>
</g>
<!-- Node28 -->
<g id="node28" class="node"><title>Node28</title>
<polygon fill="none" stroke="#bfbfbf" points="1099.65,-62 1099.65,-81 1194.65,-81 1194.65,-62 1099.65,-62"/>
<text text-anchor="middle" x="1147.15" y="-69" font-family="Helvetica,sans-Serif" font-size="10.00">condition_variable</text>
</g>
<!-- Node26&#45;&gt;Node28 -->
<g id="edge40" class="edge"><title>Node26&#45;&gt;Node28</title>
<path fill="none" stroke="midnightblue" d="M1071.01,-128.734C1085.4,-118.111 1109.85,-100.049 1127.16,-87.2642"/>
<polygon fill="midnightblue" stroke="midnightblue" points="1129.5,-89.884 1135.47,-81.1273 1125.34,-84.2534 1129.5,-89.884"/>
</g>
<!-- Node29 -->
<g id="node29" class="node"><title>Node29</title>
<polygon fill="none" stroke="#bfbfbf" points="1212.65,-62 1212.65,-81 1255.65,-81 1255.65,-62 1212.65,-62"/>
<text text-anchor="middle" x="1234.15" y="-69" font-family="Helvetica,sans-Serif" font-size="10.00">queue</text>
</g>
<!-- Node26&#45;&gt;Node29 -->
<g id="edge42" class="edge"><title>Node26&#45;&gt;Node29</title>
<path fill="none" stroke="midnightblue" d="M1086.76,-128.931C1116.2,-119.554 1164,-103.627 1204.15,-87 1205.35,-86.5019 1206.57,-85.9794 1207.8,-85.4406"/>
<polygon fill="midnightblue" stroke="midnightblue" points="1209.55,-88.4893 1217.17,-81.1259 1206.62,-82.1316 1209.55,-88.4893"/>
</g>
</g>
</svg>
