<?xml version="1.0" encoding="UTF-8" standalone="no"?>
<!DOCTYPE svg PUBLIC "-//W3C//DTD SVG 1.1//EN"
 "http://www.w3.org/Graphics/SVG/1.1/DTD/svg11.dtd">
<!-- Generated by graphviz version 2.38.0 (20140413.2041)
 -->
<!-- Title: Graphical Class Hierarchy Pages: 1 -->
<svg width="393pt" height="180pt"
 viewBox="0.00 0.00 393.00 180.00" xmlns="http://www.w3.org/2000/svg" xmlns:xlink="http://www.w3.org/1999/xlink">
<g id="graph0" class="graph" transform="scale(1 1) rotate(0) translate(4 176)">
<title>Graphical Class Hierarchy</title>
<!-- Node1 -->
<g id="node1" class="node"><title>Node1</title>
<g id="a_node1"><a xlink:href="classstring_1_1Formatter.html" target="_top" xlink:title="Abstract formatting visitor (and factory) ">
<polygon fill="none" stroke="black" points="0,-57.5 0,-76.5 89,-76.5 89,-57.5 0,-57.5"/>
<text text-anchor="middle" x="44.5" y="-64.5" font-family="Helvetica,sans-Serif" font-size="10.00">string::Formatter</text>
</a>
</g>
</g>
<!-- Node2 -->
<g id="node2" class="node"><title>Node2</title>
<g id="a_node2"><a xlink:href="classstring_1_1FormatterUtf8.html" target="_top" xlink:title="Plain UTF&#45;8. ">
<polygon fill="none" stroke="black" points="125,-76.5 125,-95.5 232,-95.5 232,-76.5 125,-76.5"/>
<text text-anchor="middle" x="178.5" y="-83.5" font-family="Helvetica,sans-Serif" font-size="10.00">string::FormatterUtf8</text>
</a>
</g>
</g>
<!-- Node1&#45;&gt;Node2 -->
<g id="edge1" class="edge"><title>Node1&#45;&gt;Node2</title>
<path fill="none" stroke="midnightblue" d="M99.2016,-74.7298C107.638,-75.9441 116.353,-77.1985 124.767,-78.4096"/>
<polygon fill="midnightblue" stroke="midnightblue" points="99.4842,-71.2345 89.0876,-73.274 98.4869,-78.1631 99.4842,-71.2345"/>
</g>
<!-- Node8 -->
<g id="node8" class="node"><title>Node8</title>
<g id="a_node8"><a xlink:href="classxonotic_1_1Formatter.html" target="_top" xlink:title="Darkplaces UTF&#45;8. ">
<polygon fill="none" stroke="black" points="130.5,-38.5 130.5,-57.5 226.5,-57.5 226.5,-38.5 130.5,-38.5"/>
<text text-anchor="middle" x="178.5" y="-45.5" font-family="Helvetica,sans-Serif" font-size="10.00">xonotic::Formatter</text>
</a>
</g>
</g>
<!-- Node1&#45;&gt;Node8 -->
<g id="edge7" class="edge"><title>Node1&#45;&gt;Node8</title>
<path fill="none" stroke="midnightblue" d="M99.2162,-59.2681C109.522,-57.7847 120.242,-56.2417 130.323,-54.7907"/>
<polygon fill="midnightblue" stroke="midnightblue" points="98.4869,-55.8369 89.0876,-60.726 99.4842,-62.7655 98.4869,-55.8369"/>
</g>
<!-- Node3 -->
<g id="node3" class="node"><title>Node3</title>
<g id="a_node3"><a xlink:href="classfun_1_1FormatterRainbow.html" target="_top" xlink:title="Rainbow UTF&#45;8. ">
<polygon fill="none" stroke="black" points="268.5,-152.5 268.5,-171.5 384.5,-171.5 384.5,-152.5 268.5,-152.5"/>
<text text-anchor="middle" x="326.5" y="-159.5" font-family="Helvetica,sans-Serif" font-size="10.00">fun::FormatterRainbow</text>
</a>
</g>
</g>
<!-- Node2&#45;&gt;Node3 -->
<g id="edge2" class="edge"><title>Node2&#45;&gt;Node3</title>
<path fill="none" stroke="midnightblue" d="M200.372,-101.606C217.768,-114.071 243.566,-131.327 268,-143 275.494,-146.58 283.839,-149.76 291.796,-152.446"/>
<polygon fill="midnightblue" stroke="midnightblue" points="202.236,-98.6343 192.092,-95.5789 198.117,-104.294 202.236,-98.6343"/>
</g>
<!-- Node4 -->
<g id="node4" class="node"><title>Node4</title>
<g id="a_node4"><a xlink:href="classirc_1_1FormatterIrc.html" target="_top" xlink:title="UTF&#45;8 with IRC colors. ">
<polygon fill="none" stroke="black" points="283.5,-114.5 283.5,-133.5 369.5,-133.5 369.5,-114.5 283.5,-114.5"/>
<text text-anchor="middle" x="326.5" y="-121.5" font-family="Helvetica,sans-Serif" font-size="10.00">irc::FormatterIrc</text>
</a>
</g>
</g>
<!-- Node2&#45;&gt;Node4 -->
<g id="edge3" class="edge"><title>Node2&#45;&gt;Node4</title>
<path fill="none" stroke="midnightblue" d="M226.036,-98.1121C246.37,-103.404 269.871,-109.521 288.923,-114.48"/>
<polygon fill="midnightblue" stroke="midnightblue" points="226.901,-94.7207 216.342,-95.589 225.138,-101.495 226.901,-94.7207"/>
</g>
<!-- Node5 -->
<g id="node5" class="node"><title>Node5</title>
<g id="a_node5"><a xlink:href="classstring_1_1FormatterAnsi.html" target="_top" xlink:title="ANSI&#45;formatted UTF&#45;8 or ASCII. ">
<polygon fill="none" stroke="black" points="272.5,-76.5 272.5,-95.5 380.5,-95.5 380.5,-76.5 272.5,-76.5"/>
<text text-anchor="middle" x="326.5" y="-83.5" font-family="Helvetica,sans-Serif" font-size="10.00">string::FormatterAnsi</text>
</a>
</g>
</g>
<!-- Node2&#45;&gt;Node5 -->
<g id="edge4" class="edge"><title>Node2&#45;&gt;Node5</title>
<path fill="none" stroke="midnightblue" d="M242.473,-86C252.441,-86 262.664,-86 272.378,-86"/>
<polygon fill="midnightblue" stroke="midnightblue" points="242.209,-82.5001 232.209,-86 242.209,-89.5001 242.209,-82.5001"/>
</g>
<!-- Node6 -->
<g id="node6" class="node"><title>Node6</title>
<g id="a_node6"><a xlink:href="classstring_1_1FormatterAscii.html" target="_top" xlink:title="Plain ASCII. ">
<polygon fill="none" stroke="black" points="271.5,-38.5 271.5,-57.5 381.5,-57.5 381.5,-38.5 271.5,-38.5"/>
<text text-anchor="middle" x="326.5" y="-45.5" font-family="Helvetica,sans-Serif" font-size="10.00">string::FormatterAscii</text>
</a>
</g>
</g>
<!-- Node2&#45;&gt;Node6 -->
<g id="edge5" class="edge"><title>Node2&#45;&gt;Node6</title>
<path fill="none" stroke="midnightblue" d="M226.036,-73.8879C246.37,-68.5956 269.871,-62.4787 288.923,-57.5201"/>
<polygon fill="midnightblue" stroke="midnightblue" points="225.138,-70.5049 216.342,-76.411 226.901,-77.2793 225.138,-70.5049"/>
</g>
<!-- Node7 -->
<g id="node7" class="node"><title>Node7</title>
<g id="a_node7"><a xlink:href="classstring_1_1FormatterConfig.html" target="_top" xlink:title="Custom string formatting (Utf&#45;8) ">
<polygon fill="none" stroke="black" points="268,-0.5 268,-19.5 385,-19.5 385,-0.5 268,-0.5"/>
<text text-anchor="middle" x="326.5" y="-7.5" font-family="Helvetica,sans-Serif" font-size="10.00">string::FormatterConfig</text>
</a>
</g>
</g>
<!-- Node2&#45;&gt;Node7 -->
<g id="edge6" class="edge"><title>Node2&#45;&gt;Node7</title>
<path fill="none" stroke="midnightblue" d="M222.545,-72.3383C225.838,-70.7209 229.031,-68.9442 232,-67 251.462,-54.2538 248.361,-41.4715 268,-29 273.946,-25.2239 280.719,-22.1229 287.477,-19.6023"/>
<polygon fill="midnightblue" stroke="midnightblue" points="220.856,-69.2575 213.105,-76.4811 223.669,-75.6674 220.856,-69.2575"/>
</g>
</g>
</svg>
