<?xml version="1.0" encoding="UTF-8" standalone="no"?>
<!DOCTYPE svg PUBLIC "-//W3C//DTD SVG 1.1//EN"
 "http://www.w3.org/Graphics/SVG/1.1/DTD/svg11.dtd">
<!-- Generated by graphviz version 2.38.0 (20140413.2041)
 -->
<!-- Title: Graphical Class Hierarchy Pages: 1 -->
<svg width="893pt" height="750pt"
 viewBox="0.00 0.00 893.00 750.00" xmlns="http://www.w3.org/2000/svg" xmlns:xlink="http://www.w3.org/1999/xlink">
<g id="graph0" class="graph" transform="scale(1 1) rotate(0) translate(4 746)">
<title>Graphical Class Hierarchy</title>
<!-- Node1 -->
<g id="node1" class="node"><title>Node1</title>
<g id="a_node1"><a xlink:href="classhandler_1_1HandlerContainer.html" target="_top" xlink:title="Base class for classes which may contain handlers. ">
<polygon fill="none" stroke="black" points="0,-418.5 0,-437.5 130,-437.5 130,-418.5 0,-418.5"/>
<text text-anchor="middle" x="65" y="-425.5" font-family="Helvetica,sans-Serif" font-size="10.00">handler::HandlerContainer</text>
</a>
</g>
</g>
<!-- Node2 -->
<g id="node2" class="node"><title>Node2</title>
<g id="a_node2"><a xlink:href="classhandler_1_1Handler.html" target="_top" xlink:title="Message handler abstract base class. ">
<polygon fill="none" stroke="black" points="166,-437.5 166,-456.5 254,-456.5 254,-437.5 166,-437.5"/>
<text text-anchor="middle" x="210" y="-444.5" font-family="Helvetica,sans-Serif" font-size="10.00">handler::Handler</text>
</a>
</g>
</g>
<!-- Node1&#45;&gt;Node2 -->
<g id="edge1" class="edge"><title>Node1&#45;&gt;Node2</title>
<path fill="none" stroke="midnightblue" d="M140.555,-437.906C149.218,-439.057 157.821,-440.2 165.854,-441.267"/>
<polygon fill="midnightblue" stroke="midnightblue" points="140.762,-434.403 130.388,-436.555 139.84,-441.342 140.762,-434.403"/>
</g>
<!-- Node34 -->
<g id="node34" class="node"><title>Node34</title>
<g id="a_node34"><a xlink:href="classMelanobot.html" target="_top" xlink:title="Main bot class. ">
<polygon fill="none" stroke="black" points="179,-399.5 179,-418.5 241,-418.5 241,-399.5 179,-399.5"/>
<text text-anchor="middle" x="210" y="-406.5" font-family="Helvetica,sans-Serif" font-size="10.00">Melanobot</text>
</a>
</g>
</g>
<!-- Node1&#45;&gt;Node34 -->
<g id="edge33" class="edge"><title>Node1&#45;&gt;Node34</title>
<path fill="none" stroke="midnightblue" d="M140.325,-418.125C153.977,-416.311 167.491,-414.515 178.873,-413.003"/>
<polygon fill="midnightblue" stroke="midnightblue" points="139.84,-414.658 130.388,-419.445 140.762,-421.597 139.84,-414.658"/>
</g>
<!-- Node3 -->
<g id="node3" class="node"><title>Node3</title>
<g id="a_node3"><a xlink:href="classhandler_1_1AcceptInvite.html" target="_top" xlink:title="Makes the bot join channels (IRC) ">
<polygon fill="none" stroke="black" points="291.5,-627.5 291.5,-646.5 400.5,-646.5 400.5,-627.5 291.5,-627.5"/>
<text text-anchor="middle" x="346" y="-634.5" font-family="Helvetica,sans-Serif" font-size="10.00">handler::AcceptInvite</text>
</a>
</g>
</g>
<!-- Node2&#45;&gt;Node3 -->
<g id="edge2" class="edge"><title>Node2&#45;&gt;Node3</title>
<path fill="none" stroke="midnightblue" d="M214.808,-466.706C222.635,-502.006 243.824,-576.232 290,-618 294.27,-621.863 299.366,-624.947 304.707,-627.409"/>
<polygon fill="midnightblue" stroke="midnightblue" points="218.19,-465.777 212.721,-456.703 211.337,-467.207 218.19,-465.777"/>
</g>
<!-- Node4 -->
<g id="node4" class="node"><title>Node4</title>
<g id="a_node4"><a xlink:href="classhandler_1_1CtcpBase.html" target="_top" xlink:title="Base class for handling CTCP requests. ">
<polygon fill="none" stroke="black" points="297,-589.5 297,-608.5 395,-608.5 395,-589.5 297,-589.5"/>
<text text-anchor="middle" x="346" y="-596.5" font-family="Helvetica,sans-Serif" font-size="10.00">handler::CtcpBase</text>
</a>
</g>
</g>
<!-- Node2&#45;&gt;Node4 -->
<g id="edge3" class="edge"><title>Node2&#45;&gt;Node4</title>
<path fill="none" stroke="midnightblue" d="M226.164,-464.201C254.483,-496.324 314.534,-564.442 336.621,-589.495"/>
<polygon fill="midnightblue" stroke="midnightblue" points="228.621,-461.695 219.382,-456.508 223.37,-466.324 228.621,-461.695"/>
</g>
<!-- Node11 -->
<g id="node11" class="node"><title>Node11</title>
<g id="a_node11"><a xlink:href="classhandler_1_1QGetWhois.html" target="_top" xlink:title="Parses responses from Q WHOIS and USER (IRC) ">
<polygon fill="none" stroke="black" points="293.5,-456.5 293.5,-475.5 398.5,-475.5 398.5,-456.5 293.5,-456.5"/>
<text text-anchor="middle" x="346" y="-463.5" font-family="Helvetica,sans-Serif" font-size="10.00">handler::QGetWhois</text>
</a>
</g>
</g>
<!-- Node2&#45;&gt;Node11 -->
<g id="edge10" class="edge"><title>Node2&#45;&gt;Node11</title>
<path fill="none" stroke="midnightblue" d="M264.24,-454.549C273.726,-455.894 283.596,-457.293 293.045,-458.633"/>
<polygon fill="midnightblue" stroke="midnightblue" points="264.528,-451.055 254.136,-453.116 263.546,-457.986 264.528,-451.055"/>
</g>
<!-- Node12 -->
<g id="node12" class="node"><title>Node12</title>
<g id="a_node12"><a xlink:href="classhandler_1_1QSendWhois.html" target="_top" xlink:title="Asks Q for WHOIS or USERS information when a user joins a channel (IRC) ">
<polygon fill="none" stroke="black" points="290,-418.5 290,-437.5 402,-437.5 402,-418.5 290,-418.5"/>
<text text-anchor="middle" x="346" y="-425.5" font-family="Helvetica,sans-Serif" font-size="10.00">handler::QSendWhois</text>
</a>
</g>
</g>
<!-- Node2&#45;&gt;Node12 -->
<g id="edge11" class="edge"><title>Node2&#45;&gt;Node12</title>
<path fill="none" stroke="midnightblue" d="M264.18,-439.46C272.568,-438.27 281.258,-437.038 289.693,-435.842"/>
<polygon fill="midnightblue" stroke="midnightblue" points="263.546,-436.014 254.136,-440.884 264.528,-442.945 263.546,-436.014"/>
</g>
<!-- Node13 -->
<g id="node13" class="node"><title>Node13</title>
<g id="a_node13"><a xlink:href="classhandler_1_1SimpleAction.html" target="_top" xlink:title="A simple action sends a message to the same connection it came from. ">
<polygon fill="none" stroke="black" points="290,-304.5 290,-323.5 402,-323.5 402,-304.5 290,-304.5"/>
<text text-anchor="middle" x="346" y="-311.5" font-family="Helvetica,sans-Serif" font-size="10.00">handler::SimpleAction</text>
</a>
</g>
</g>
<!-- Node2&#45;&gt;Node13 -->
<g id="edge12" class="edge"><title>Node2&#45;&gt;Node13</title>
<path fill="none" stroke="midnightblue" d="M247.069,-432.677C249.495,-431.229 251.832,-429.671 254,-428 294.117,-397.083 327.093,-344.894 339.601,-323.54"/>
<polygon fill="midnightblue" stroke="midnightblue" points="245.258,-429.675 238.045,-437.435 248.523,-435.867 245.258,-429.675"/>
</g>
<!-- Node33 -->
<g id="node33" class="node"><title>Node33</title>
<g id="a_node33"><a xlink:href="classhandler_1_1Whois330.html" target="_top" xlink:title="Sets the global id based on a 330 reply from whois (IRC) ">
<polygon fill="none" stroke="black" points="297,-266.5 297,-285.5 395,-285.5 395,-266.5 297,-266.5"/>
<text text-anchor="middle" x="346" y="-273.5" font-family="Helvetica,sans-Serif" font-size="10.00">handler::Whois330</text>
</a>
</g>
</g>
<!-- Node2&#45;&gt;Node33 -->
<g id="edge32" class="edge"><title>Node2&#45;&gt;Node33</title>
<path fill="none" stroke="midnightblue" d="M250.298,-431.7C251.624,-430.551 252.867,-429.32 254,-428 293.896,-381.541 248.201,-339.755 290,-295 293.655,-291.087 298.153,-287.98 302.99,-285.513"/>
<polygon fill="midnightblue" stroke="midnightblue" points="248.237,-428.87 241.976,-437.417 252.2,-434.64 248.237,-428.87"/>
</g>
<!-- Node5 -->
<g id="node5" class="node"><title>Node5</title>
<g id="a_node5"><a xlink:href="classhandler_1_1CtcpClientInfo.html" target="_top" xlink:title="Shows help about other CTCP handlers. ">
<polygon fill="none" stroke="black" points="441.5,-722.5 441.5,-741.5 558.5,-741.5 558.5,-722.5 441.5,-722.5"/>
<text text-anchor="middle" x="500" y="-729.5" font-family="Helvetica,sans-Serif" font-size="10.00">handler::CtcpClientInfo</text>
</a>
</g>
</g>
<!-- Node4&#45;&gt;Node5 -->
<g id="edge4" class="edge"><title>Node4&#45;&gt;Node5</title>
<path fill="none" stroke="midnightblue" d="M396.769,-613.662C398.625,-614.985 400.38,-616.428 402,-618 434.397,-649.451 405.125,-682.049 438,-713 442.119,-716.878 447.017,-719.965 452.222,-722.422"/>
<polygon fill="midnightblue" stroke="midnightblue" points="398.5,-610.62 388.102,-608.588 394.964,-616.661 398.5,-610.62"/>
</g>
<!-- Node6 -->
<g id="node6" class="node"><title>Node6</title>
<g id="a_node6"><a xlink:href="classhandler_1_1CtcpPing.html" target="_top" xlink:title="CTCP PING reply, Used to measure round&#45;trip message delays. ">
<polygon fill="none" stroke="black" points="452.5,-684.5 452.5,-703.5 547.5,-703.5 547.5,-684.5 452.5,-684.5"/>
<text text-anchor="middle" x="500" y="-691.5" font-family="Helvetica,sans-Serif" font-size="10.00">handler::CtcpPing</text>
</a>
</g>
</g>
<!-- Node4&#45;&gt;Node6 -->
<g id="edge5" class="edge"><title>Node4&#45;&gt;Node6</title>
<path fill="none" stroke="midnightblue" d="M394.735,-613.095C397.291,-614.576 399.736,-616.206 402,-618 425.485,-636.608 414.233,-656.755 438,-675 443.015,-678.85 448.821,-681.927 454.817,-684.386"/>
<polygon fill="midnightblue" stroke="midnightblue" points="396.226,-609.928 385.712,-608.616 393.113,-616.198 396.226,-609.928"/>
</g>
<!-- Node7 -->
<g id="node7" class="node"><title>Node7</title>
<g id="a_node7"><a xlink:href="classhandler_1_1CtcpSource.html" target="_top" xlink:title="CTCP SOURCE reply, shows a URL with the sources. ">
<polygon fill="none" stroke="black" points="447,-646.5 447,-665.5 553,-665.5 553,-646.5 447,-646.5"/>
<text text-anchor="middle" x="500" y="-653.5" font-family="Helvetica,sans-Serif" font-size="10.00">handler::CtcpSource</text>
</a>
</g>
</g>
<!-- Node4&#45;&gt;Node7 -->
<g id="edge6" class="edge"><title>Node4&#45;&gt;Node7</title>
<path fill="none" stroke="midnightblue" d="M386.992,-612.008C392.089,-613.901 397.199,-615.918 402,-618 418.599,-625.197 421.293,-630.058 438,-637 446.399,-640.49 455.677,-643.693 464.407,-646.436"/>
<polygon fill="midnightblue" stroke="midnightblue" points="387.885,-608.61 377.291,-608.535 385.526,-615.2 387.885,-608.61"/>
</g>
<!-- Node8 -->
<g id="node8" class="node"><title>Node8</title>
<g id="a_node8"><a xlink:href="classhandler_1_1CtcpTime.html" target="_top" xlink:title="CTCP TIME reply, Shows the local time. ">
<polygon fill="none" stroke="black" points="451.5,-608.5 451.5,-627.5 548.5,-627.5 548.5,-608.5 451.5,-608.5"/>
<text text-anchor="middle" x="500" y="-615.5" font-family="Helvetica,sans-Serif" font-size="10.00">handler::CtcpTime</text>
</a>
</g>
</g>
<!-- Node4&#45;&gt;Node8 -->
<g id="edge7" class="edge"><title>Node4&#45;&gt;Node8</title>
<path fill="none" stroke="midnightblue" d="M405.444,-606.306C420.672,-608.209 436.894,-610.237 451.479,-612.06"/>
<polygon fill="midnightblue" stroke="midnightblue" points="405.451,-602.779 395.094,-605.012 404.582,-609.725 405.451,-602.779"/>
</g>
<!-- Node9 -->
<g id="node9" class="node"><title>Node9</title>
<g id="a_node9"><a xlink:href="classhandler_1_1CtcpUserInfo.html" target="_top" xlink:title="CTCP USERINFO reply, shows a user&#45;defined string. ">
<polygon fill="none" stroke="black" points="443.5,-570.5 443.5,-589.5 556.5,-589.5 556.5,-570.5 443.5,-570.5"/>
<text text-anchor="middle" x="500" y="-577.5" font-family="Helvetica,sans-Serif" font-size="10.00">handler::CtcpUserInfo</text>
</a>
</g>
</g>
<!-- Node4&#45;&gt;Node9 -->
<g id="edge8" class="edge"><title>Node4&#45;&gt;Node9</title>
<path fill="none" stroke="midnightblue" d="M405.36,-591.705C417.805,-590.149 430.919,-588.51 443.264,-586.967"/>
<polygon fill="midnightblue" stroke="midnightblue" points="404.582,-588.275 395.094,-592.988 405.451,-595.221 404.582,-588.275"/>
</g>
<!-- Node10 -->
<g id="node10" class="node"><title>Node10</title>
<g id="a_node10"><a xlink:href="classhandler_1_1CtcpVersion.html" target="_top" xlink:title="CTCP VERSION reply, shows a pre&#45;formatted version string. ">
<polygon fill="none" stroke="black" points="446,-532.5 446,-551.5 554,-551.5 554,-532.5 446,-532.5"/>
<text text-anchor="middle" x="500" y="-539.5" font-family="Helvetica,sans-Serif" font-size="10.00">handler::CtcpVersion</text>
</a>
</g>
</g>
<!-- Node4&#45;&gt;Node10 -->
<g id="edge9" class="edge"><title>Node4&#45;&gt;Node10</title>
<path fill="none" stroke="midnightblue" d="M377.649,-585.359C395.166,-577.776 417.636,-568.405 438,-561 447.069,-557.702 457.019,-554.452 466.204,-551.597"/>
<polygon fill="midnightblue" stroke="midnightblue" points="376.237,-582.156 368.471,-589.364 379.037,-588.572 376.237,-582.156"/>
</g>
<!-- Node14 -->
<g id="node14" class="node"><title>Node14</title>
<g id="a_node14"><a xlink:href="classhandler_1_1AdminJoin.html" target="_top" xlink:title="Makes the bot join channels (IRC) ">
<polygon fill="none" stroke="black" points="450,-494.5 450,-513.5 550,-513.5 550,-494.5 450,-494.5"/>
<text text-anchor="middle" x="500" y="-501.5" font-family="Helvetica,sans-Serif" font-size="10.00">handler::AdminJoin</text>
</a>
</g>
</g>
<!-- Node13&#45;&gt;Node14 -->
<g id="edge13" class="edge"><title>Node13&#45;&gt;Node14</title>
<path fill="none" stroke="midnightblue" d="M358.219,-332.335C369.67,-351.285 387.739,-381.845 402,-409 419.378,-442.09 409.782,-460.491 438,-485 442.438,-488.855 447.654,-491.928 453.134,-494.378"/>
<polygon fill="midnightblue" stroke="midnightblue" points="361.073,-330.291 352.889,-323.563 355.09,-333.926 361.073,-330.291"/>
</g>
<!-- Node15 -->
<g id="node15" class="node"><title>Node15</title>
<g id="a_node15"><a xlink:href="classhandler_1_1AdminNick.html" target="_top" xlink:title="Changes the bot nick (IRC) ">
<polygon fill="none" stroke="black" points="449,-456.5 449,-475.5 551,-475.5 551,-456.5 449,-456.5"/>
<text text-anchor="middle" x="500" y="-463.5" font-family="Helvetica,sans-Serif" font-size="10.00">handler::AdminNick</text>
</a>
</g>
</g>
<!-- Node13&#45;&gt;Node15 -->
<g id="edge14" class="edge"><title>Node13&#45;&gt;Node15</title>
<path fill="none" stroke="midnightblue" d="M357.67,-332.651C376.72,-365.378 416.588,-431.179 438,-447 443.263,-450.889 449.341,-453.995 455.577,-456.471"/>
<polygon fill="midnightblue" stroke="midnightblue" points="360.503,-330.557 352.47,-323.649 354.441,-334.058 360.503,-330.557"/>
</g>
<!-- Node16 -->
<g id="node16" class="node"><title>Node16</title>
<g id="a_node16"><a xlink:href="classhandler_1_1AdminPart.html" target="_top" xlink:title="Makes the bot part channels (IRC) ">
<polygon fill="none" stroke="black" points="450,-418.5 450,-437.5 550,-437.5 550,-418.5 450,-418.5"/>
<text text-anchor="middle" x="500" y="-425.5" font-family="Helvetica,sans-Serif" font-size="10.00">handler::AdminPart</text>
</a>
</g>
</g>
<!-- Node13&#45;&gt;Node16 -->
<g id="edge15" class="edge"><title>Node13&#45;&gt;Node16</title>
<path fill="none" stroke="midnightblue" d="M359.558,-331.805C375.477,-353.115 404.868,-388.485 438,-409 444.13,-412.796 451.079,-415.889 458.037,-418.391"/>
<polygon fill="midnightblue" stroke="midnightblue" points="362.308,-329.636 353.588,-323.618 356.651,-333.76 362.308,-329.636"/>
</g>
<!-- Node17 -->
<g id="node17" class="node"><title>Node17</title>
<g id="a_node17"><a xlink:href="classhandler_1_1AdminQuit.html" target="_top" xlink:title="Quits the bot. ">
<polygon fill="none" stroke="black" points="450,-380.5 450,-399.5 550,-399.5 550,-380.5 450,-380.5"/>
<text text-anchor="middle" x="500" y="-387.5" font-family="Helvetica,sans-Serif" font-size="10.00">handler::AdminQuit</text>
</a>
</g>
</g>
<!-- Node13&#45;&gt;Node17 -->
<g id="edge16" class="edge"><title>Node13&#45;&gt;Node17</title>
<path fill="none" stroke="midnightblue" d="M368.475,-329.68C386.371,-342.188 412.901,-359.466 438,-371 445.861,-374.613 454.595,-377.788 462.94,-380.457"/>
<polygon fill="midnightblue" stroke="midnightblue" points="370.136,-326.567 359.957,-323.629 366.082,-332.273 370.136,-326.567"/>
</g>
<!-- Node18 -->
<g id="node18" class="node"><title>Node18</title>
<g id="a_node18"><a xlink:href="classhandler_1_1AdminRaw.html" target="_top" xlink:title="Makes the bot execute a raw command (IRC) ">
<polygon fill="none" stroke="black" points="449,-342.5 449,-361.5 551,-361.5 551,-342.5 449,-342.5"/>
<text text-anchor="middle" x="500" y="-349.5" font-family="Helvetica,sans-Serif" font-size="10.00">handler::AdminRaw</text>
</a>
</g>
</g>
<!-- Node13&#45;&gt;Node18 -->
<g id="edge17" class="edge"><title>Node13&#45;&gt;Node18</title>
<path fill="none" stroke="midnightblue" d="M395.16,-326.04C416.395,-331.349 440.995,-337.499 460.92,-342.48"/>
<polygon fill="midnightblue" stroke="midnightblue" points="395.906,-322.619 385.356,-323.589 394.209,-329.41 395.906,-322.619"/>
</g>
<!-- Node19 -->
<g id="node19" class="node"><title>Node19</title>
<g id="a_node19"><a xlink:href="classhandler_1_1Help.html" target="_top" xlink:title="Handler showing help on the available handlers. ">
<polygon fill="none" stroke="black" points="463,-304.5 463,-323.5 537,-323.5 537,-304.5 463,-304.5"/>
<text text-anchor="middle" x="500" y="-311.5" font-family="Helvetica,sans-Serif" font-size="10.00">handler::Help</text>
</a>
</g>
</g>
<!-- Node13&#45;&gt;Node19 -->
<g id="edge18" class="edge"><title>Node13&#45;&gt;Node19</title>
<path fill="none" stroke="midnightblue" d="M412.391,-314C429.716,-314 447.791,-314 462.919,-314"/>
<polygon fill="midnightblue" stroke="midnightblue" points="412.306,-310.5 402.305,-314 412.305,-317.5 412.306,-310.5"/>
</g>
<!-- Node20 -->
<g id="node20" class="node"><title>Node20</title>
<g id="a_node20"><a xlink:href="classhandler_1_1License.html" target="_top" xlink:title="Handler showing licensing information. ">
<polygon fill="none" stroke="black" points="456,-266.5 456,-285.5 544,-285.5 544,-266.5 456,-266.5"/>
<text text-anchor="middle" x="500" y="-273.5" font-family="Helvetica,sans-Serif" font-size="10.00">handler::License</text>
</a>
</g>
</g>
<!-- Node13&#45;&gt;Node20 -->
<g id="edge19" class="edge"><title>Node13&#45;&gt;Node20</title>
<path fill="none" stroke="midnightblue" d="M395.16,-301.96C416.395,-296.651 440.995,-290.501 460.92,-285.52"/>
<polygon fill="midnightblue" stroke="midnightblue" points="394.209,-298.59 385.356,-304.411 395.906,-305.381 394.209,-298.59"/>
</g>
<!-- Node21 -->
<g id="node21" class="node"><title>Node21</title>
<g id="a_node21"><a xlink:href="classhandler_1_1Morse.html" target="_top" xlink:title="Handler translating between morse and latin. ">
<polygon fill="none" stroke="black" points="459.5,-228.5 459.5,-247.5 540.5,-247.5 540.5,-228.5 459.5,-228.5"/>
<text text-anchor="middle" x="500" y="-235.5" font-family="Helvetica,sans-Serif" font-size="10.00">handler::Morse</text>
</a>
</g>
</g>
<!-- Node13&#45;&gt;Node21 -->
<g id="edge20" class="edge"><title>Node13&#45;&gt;Node21</title>
<path fill="none" stroke="midnightblue" d="M392.085,-300.475C395.538,-298.827 398.887,-297.006 402,-295 421.555,-282.396 418.254,-269.302 438,-257 444.496,-252.953 451.922,-249.707 459.304,-247.125"/>
<polygon fill="midnightblue" stroke="midnightblue" points="390.613,-297.298 382.788,-304.442 393.36,-303.737 390.613,-297.298"/>
</g>
<!-- Node22 -->
<g id="node22" class="node"><title>Node22</title>
<g id="a_node22"><a xlink:href="classhandler_1_1RenderPony.html" target="_top" xlink:title="handler::RenderPony">
<polygon fill="none" stroke="black" points="446,-190.5 446,-209.5 554,-209.5 554,-190.5 446,-190.5"/>
<text text-anchor="middle" x="500" y="-197.5" font-family="Helvetica,sans-Serif" font-size="10.00">handler::RenderPony</text>
</a>
</g>
</g>
<!-- Node13&#45;&gt;Node22 -->
<g id="edge21" class="edge"><title>Node13&#45;&gt;Node22</title>
<path fill="none" stroke="midnightblue" d="M396.407,-299.312C398.38,-297.995 400.258,-296.561 402,-295 429.838,-270.061 409.782,-243.509 438,-219 442.438,-215.145 447.654,-212.072 453.134,-209.622"/>
<polygon fill="midnightblue" stroke="midnightblue" points="394.316,-296.469 387.259,-304.372 397.704,-302.595 394.316,-296.469"/>
</g>
<!-- Node23 -->
<g id="node23" class="node"><title>Node23</title>
<g id="a_node23"><a xlink:href="classhandler_1_1ReverseText.html" target="_top" xlink:title="Turns ASCII characters upside&#45;down. ">
<polygon fill="none" stroke="black" points="445,-152.5 445,-171.5 555,-171.5 555,-152.5 445,-152.5"/>
<text text-anchor="middle" x="500" y="-159.5" font-family="Helvetica,sans-Serif" font-size="10.00">handler::ReverseText</text>
</a>
</g>
</g>
<!-- Node13&#45;&gt;Node23 -->
<g id="edge22" class="edge"><title>Node13&#45;&gt;Node23</title>
<path fill="none" stroke="midnightblue" d="M397.391,-299.067C399.027,-297.819 400.573,-296.466 402,-295 439.065,-256.93 400.356,-218.497 438,-181 441.929,-177.086 446.651,-173.976 451.705,-171.506"/>
<polygon fill="midnightblue" stroke="midnightblue" points="395.27,-296.263 388.583,-304.48 398.935,-302.226 395.27,-296.263"/>
</g>
<!-- Node24 -->
<g id="node24" class="node"><title>Node24</title>
<g id="a_node24"><a xlink:href="classhandler_1_1SimpleGroup.html" target="_top" xlink:title="A simple group of actions which share some settings. ">
<polygon fill="none" stroke="black" points="445,-114.5 445,-133.5 555,-133.5 555,-114.5 445,-114.5"/>
<text text-anchor="middle" x="500" y="-121.5" font-family="Helvetica,sans-Serif" font-size="10.00">handler::SimpleGroup</text>
</a>
</g>
</g>
<!-- Node13&#45;&gt;Node24 -->
<g id="edge23" class="edge"><title>Node13&#45;&gt;Node24</title>
<path fill="none" stroke="midnightblue" d="M398.089,-298.741C399.478,-297.584 400.789,-296.339 402,-295 448.574,-243.516 390.642,-193.764 438,-143 441.632,-139.107 446.046,-136.006 450.822,-133.536"/>
<polygon fill="midnightblue" stroke="midnightblue" points="395.832,-296.036 389.4,-304.455 399.679,-301.884 395.832,-296.036"/>
</g>
<!-- Node25 -->
<g id="node25" class="node"><title>Node25</title>
<g id="a_node25"><a xlink:href="classhandler_1_1SimpleWebApi.html" target="_top" xlink:title="Simple base class for handlers calling web resources. ">
<polygon fill="none" stroke="black" points="440.5,-76.5 440.5,-95.5 559.5,-95.5 559.5,-76.5 440.5,-76.5"/>
<text text-anchor="middle" x="500" y="-83.5" font-family="Helvetica,sans-Serif" font-size="10.00">handler::SimpleWebApi</text>
</a>
</g>
</g>
<!-- Node13&#45;&gt;Node25 -->
<g id="edge24" class="edge"><title>Node13&#45;&gt;Node25</title>
<path fill="none" stroke="midnightblue" d="M398.247,-298.743C399.585,-297.586 400.842,-296.34 402,-295 458.2,-229.974 380.81,-169.157 438,-105 441.469,-101.108 445.72,-98.0053 450.35,-95.5324"/>
<polygon fill="midnightblue" stroke="midnightblue" points="396.141,-295.943 389.84,-304.461 400.077,-301.731 396.141,-295.943"/>
</g>
<!-- Node32 -->
<g id="node32" class="node"><title>Node32</title>
<g id="a_node32"><a xlink:href="classhandler_1_1WhoisCheckMe.html" target="_top" xlink:title="Sends a WHOIS about the message sender. ">
<polygon fill="none" stroke="black" points="438,-38.5 438,-57.5 562,-57.5 562,-38.5 438,-38.5"/>
<text text-anchor="middle" x="500" y="-45.5" font-family="Helvetica,sans-Serif" font-size="10.00">handler::WhoisCheckMe</text>
</a>
</g>
</g>
<!-- Node13&#45;&gt;Node32 -->
<g id="edge31" class="edge"><title>Node13&#45;&gt;Node32</title>
<path fill="none" stroke="midnightblue" d="M398.729,-298.404C399.891,-297.343 400.986,-296.21 402,-295 467.884,-216.364 370.918,-144.617 438,-67 441.336,-63.1396 445.443,-60.0531 449.936,-57.587"/>
<polygon fill="midnightblue" stroke="midnightblue" points="396.372,-295.784 390.224,-304.413 400.411,-301.501 396.372,-295.784"/>
</g>
<!-- Node26 -->
<g id="node26" class="node"><title>Node26</title>
<g id="a_node26"><a xlink:href="classhandler_1_1SimpleJson.html" target="_top" xlink:title="Simple base class for handlers using AJAX web APIs. ">
<polygon fill="none" stroke="black" points="598,-76.5 598,-95.5 703,-95.5 703,-76.5 598,-76.5"/>
<text text-anchor="middle" x="650.5" y="-83.5" font-family="Helvetica,sans-Serif" font-size="10.00">handler::SimpleJson</text>
</a>
</g>
</g>
<!-- Node25&#45;&gt;Node26 -->
<g id="edge25" class="edge"><title>Node25&#45;&gt;Node26</title>
<path fill="none" stroke="midnightblue" d="M569.874,-86C579.326,-86 588.896,-86 597.966,-86"/>
<polygon fill="midnightblue" stroke="midnightblue" points="569.691,-82.5001 559.691,-86 569.691,-89.5001 569.691,-82.5001"/>
</g>
<!-- Node27 -->
<g id="node27" class="node"><title>Node27</title>
<g id="a_node27"><a xlink:href="classhandler_1_1ChuckNorris.html" target="_top" xlink:title="Searches for a Chuck Norris joke. ">
<polygon fill="none" stroke="black" points="757.5,-152.5 757.5,-171.5 866.5,-171.5 866.5,-152.5 757.5,-152.5"/>
<text text-anchor="middle" x="812" y="-159.5" font-family="Helvetica,sans-Serif" font-size="10.00">handler::ChuckNorris</text>
</a>
</g>
</g>
<!-- Node26&#45;&gt;Node27 -->
<g id="edge26" class="edge"><title>Node26&#45;&gt;Node27</title>
<path fill="none" stroke="midnightblue" d="M671.631,-101.8C688.71,-114.525 714.305,-132.04 739,-143 747.39,-146.723 756.664,-149.843 765.687,-152.407"/>
<polygon fill="midnightblue" stroke="midnightblue" points="673.607,-98.9052 663.527,-95.6428 669.372,-104.479 673.607,-98.9052"/>
</g>
<!-- Node28 -->
<g id="node28" class="node"><title>Node28</title>
<g id="a_node28"><a xlink:href="classhandler_1_1SearchImageGoogle.html" target="_top" xlink:title="Handler searching images with Google. ">
<polygon fill="none" stroke="black" points="740.5,-114.5 740.5,-133.5 883.5,-133.5 883.5,-114.5 740.5,-114.5"/>
<text text-anchor="middle" x="812" y="-121.5" font-family="Helvetica,sans-Serif" font-size="10.00">handler::SearchImageGoogle</text>
</a>
</g>
</g>
<!-- Node26&#45;&gt;Node28 -->
<g id="edge27" class="edge"><title>Node26&#45;&gt;Node28</title>
<path fill="none" stroke="midnightblue" d="M701.734,-97.968C724.086,-103.293 750.038,-109.476 771.041,-114.48"/>
<polygon fill="midnightblue" stroke="midnightblue" points="702.288,-94.502 691.749,-95.589 700.665,-101.311 702.288,-94.502"/>
</g>
<!-- Node29 -->
<g id="node29" class="node"><title>Node29</title>
<g id="a_node29"><a xlink:href="classhandler_1_1SearchVideoYoutube.html" target="_top" xlink:title="Handler searching a video on Youtube. ">
<polygon fill="none" stroke="black" points="739,-76.5 739,-95.5 885,-95.5 885,-76.5 739,-76.5"/>
<text text-anchor="middle" x="812" y="-83.5" font-family="Helvetica,sans-Serif" font-size="10.00">handler::SearchVideoYoutube</text>
</a>
</g>
</g>
<!-- Node26&#45;&gt;Node29 -->
<g id="edge28" class="edge"><title>Node26&#45;&gt;Node29</title>
<path fill="none" stroke="midnightblue" d="M713.336,-86C721.711,-86 730.364,-86 738.9,-86"/>
<polygon fill="midnightblue" stroke="midnightblue" points="713.285,-82.5001 703.285,-86 713.285,-89.5001 713.285,-82.5001"/>
</g>
<!-- Node30 -->
<g id="node30" class="node"><title>Node30</title>
<g id="a_node30"><a xlink:href="classhandler_1_1SearchWebSearx.html" target="_top" xlink:title="Handler searching a web page using Searx. ">
<polygon fill="none" stroke="black" points="746.5,-38.5 746.5,-57.5 877.5,-57.5 877.5,-38.5 746.5,-38.5"/>
<text text-anchor="middle" x="812" y="-45.5" font-family="Helvetica,sans-Serif" font-size="10.00">handler::SearchWebSearx</text>
</a>
</g>
</g>
<!-- Node26&#45;&gt;Node30 -->
<g id="edge29" class="edge"><title>Node26&#45;&gt;Node30</title>
<path fill="none" stroke="midnightblue" d="M701.734,-74.032C724.086,-68.7069 750.038,-62.5238 771.041,-57.5201"/>
<polygon fill="midnightblue" stroke="midnightblue" points="700.665,-70.6886 691.749,-76.411 702.288,-77.498 700.665,-70.6886"/>
</g>
<!-- Node31 -->
<g id="node31" class="node"><title>Node31</title>
<g id="a_node31"><a xlink:href="classhandler_1_1UrbanDictionary.html" target="_top" xlink:title="Handler searching a definition on Urban Dictionary. ">
<polygon fill="none" stroke="black" points="749.5,-0.5 749.5,-19.5 874.5,-19.5 874.5,-0.5 749.5,-0.5"/>
<text text-anchor="middle" x="812" y="-7.5" font-family="Helvetica,sans-Serif" font-size="10.00">handler::UrbanDictionary</text>
</a>
</g>
</g>
<!-- Node26&#45;&gt;Node31 -->
<g id="edge30" class="edge"><title>Node26&#45;&gt;Node31</title>
<path fill="none" stroke="midnightblue" d="M671.631,-70.1998C688.71,-57.4752 714.305,-39.9598 739,-29 747.39,-25.2766 756.664,-22.157 765.687,-19.5928"/>
<polygon fill="midnightblue" stroke="midnightblue" points="669.372,-67.5209 663.527,-76.3572 673.607,-73.0948 669.372,-67.5209"/>
</g>
</g>
</svg>
