<?xml version="1.0" encoding="UTF-8" standalone="no"?>
<!DOCTYPE svg PUBLIC "-//W3C//DTD SVG 1.1//EN"
 "http://www.w3.org/Graphics/SVG/1.1/DTD/svg11.dtd">
<!-- Generated by graphviz version 2.38.0 (20140413.2041)
 -->
<!-- Title: Graphical Class Hierarchy Pages: 1 -->
<svg width="417pt" height="104pt"
 viewBox="0.00 0.00 417.00 104.00" xmlns="http://www.w3.org/2000/svg" xmlns:xlink="http://www.w3.org/1999/xlink">
<g id="graph0" class="graph" transform="scale(1 1) rotate(0) translate(4 100)">
<title>Graphical Class Hierarchy</title>
<!-- Node1 -->
<g id="node1" class="node"><title>Node1</title>
<g id="a_node1"><a xlink:href="classstring_1_1Formatter.html" target="_top" xlink:title="Abstract formatting visitor (and factory) ">
<polygon fill="none" stroke="black" points="0,-57.5 0,-76.5 89,-76.5 89,-57.5 0,-57.5"/>
<text text-anchor="middle" x="44.5" y="-64.5" font-family="Helvetica,sans-Serif" font-size="10.00">string::Formatter</text>
</a>
</g>
</g>
<!-- Node2 -->
<g id="node2" class="node"><title>Node2</title>
<g id="a_node2"><a xlink:href="classstring_1_1FormatterDarkplaces.html" target="_top" xlink:title="Darkplaces UTF&#45;8. ">
<polygon fill="none" stroke="black" points="125,-76.5 125,-95.5 263,-95.5 263,-76.5 125,-76.5"/>
<text text-anchor="middle" x="194" y="-83.5" font-family="Helvetica,sans-Serif" font-size="10.00">string::FormatterDarkplaces</text>
</a>
</g>
</g>
<!-- Node1&#45;&gt;Node2 -->
<g id="edge1" class="edge"><title>Node1&#45;&gt;Node2</title>
<path fill="none" stroke="midnightblue" d="M99.3224,-73.9331C107.669,-75.0082 116.384,-76.1308 124.994,-77.2399"/>
<polygon fill="midnightblue" stroke="midnightblue" points="99.7207,-70.4555 89.3555,-72.6492 98.8264,-77.3982 99.7207,-70.4555"/>
</g>
<!-- Node3 -->
<g id="node3" class="node"><title>Node3</title>
<g id="a_node3"><a xlink:href="classstring_1_1FormatterUtf8.html" target="_top" xlink:title="Plain UTF&#45;8. ">
<polygon fill="none" stroke="black" points="140.5,-38.5 140.5,-57.5 247.5,-57.5 247.5,-38.5 140.5,-38.5"/>
<text text-anchor="middle" x="194" y="-45.5" font-family="Helvetica,sans-Serif" font-size="10.00">string::FormatterUtf8</text>
</a>
</g>
</g>
<!-- Node1&#45;&gt;Node3 -->
<g id="edge2" class="edge"><title>Node1&#45;&gt;Node3</title>
<path fill="none" stroke="midnightblue" d="M99.3849,-60.0589C112.784,-58.333 127.128,-56.4853 140.461,-54.7678"/>
<polygon fill="midnightblue" stroke="midnightblue" points="98.8264,-56.6018 89.3555,-61.3508 99.7207,-63.5445 98.8264,-56.6018"/>
</g>
<!-- Node4 -->
<g id="node4" class="node"><title>Node4</title>
<g id="a_node4"><a xlink:href="classstring_1_1FormatterAnsi.html" target="_top" xlink:title="ANSI&#45;formatted UTF&#45;8 or ASCII. ">
<polygon fill="none" stroke="black" points="300,-76.5 300,-95.5 408,-95.5 408,-76.5 300,-76.5"/>
<text text-anchor="middle" x="354" y="-83.5" font-family="Helvetica,sans-Serif" font-size="10.00">string::FormatterAnsi</text>
</a>
</g>
</g>
<!-- Node3&#45;&gt;Node4 -->
<g id="edge3" class="edge"><title>Node3&#45;&gt;Node4</title>
<path fill="none" stroke="midnightblue" d="M244.762,-59.968C266.903,-65.2931 292.612,-71.4762 313.417,-76.4799"/>
<polygon fill="midnightblue" stroke="midnightblue" points="245.411,-56.5245 234.87,-57.589 243.774,-63.3304 245.411,-56.5245"/>
</g>
<!-- Node5 -->
<g id="node5" class="node"><title>Node5</title>
<g id="a_node5"><a xlink:href="classstring_1_1FormatterAscii.html" target="_top" xlink:title="Plain ASCII. ">
<polygon fill="none" stroke="black" points="299,-38.5 299,-57.5 409,-57.5 409,-38.5 299,-38.5"/>
<text text-anchor="middle" x="354" y="-45.5" font-family="Helvetica,sans-Serif" font-size="10.00">string::FormatterAscii</text>
</a>
</g>
</g>
<!-- Node3&#45;&gt;Node5 -->
<g id="edge4" class="edge"><title>Node3&#45;&gt;Node5</title>
<path fill="none" stroke="midnightblue" d="M257.864,-48C271.478,-48 285.76,-48 298.998,-48"/>
<polygon fill="midnightblue" stroke="midnightblue" points="257.612,-44.5001 247.612,-48 257.612,-51.5001 257.612,-44.5001"/>
</g>
<!-- Node6 -->
<g id="node6" class="node"><title>Node6</title>
<g id="a_node6"><a xlink:href="classstring_1_1FormatterIrc.html" target="_top" xlink:title="UTF&#45;8 with IRC colors. ">
<polygon fill="none" stroke="black" points="304,-0.5 304,-19.5 404,-19.5 404,-0.5 304,-0.5"/>
<text text-anchor="middle" x="354" y="-7.5" font-family="Helvetica,sans-Serif" font-size="10.00">string::FormatterIrc</text>
</a>
</g>
</g>
<!-- Node3&#45;&gt;Node6 -->
<g id="edge5" class="edge"><title>Node3&#45;&gt;Node6</title>
<path fill="none" stroke="midnightblue" d="M244.762,-36.032C266.903,-30.7069 292.612,-24.5238 313.417,-19.5201"/>
<polygon fill="midnightblue" stroke="midnightblue" points="243.774,-32.6696 234.87,-38.411 245.411,-39.4755 243.774,-32.6696"/>
</g>
</g>
</svg>
