<?xml version="1.0" encoding="UTF-8" standalone="no"?>
<!DOCTYPE svg PUBLIC "-//W3C//DTD SVG 1.1//EN"
 "http://www.w3.org/Graphics/SVG/1.1/DTD/svg11.dtd">
<!-- Generated by graphviz version 2.38.0 (20140413.2041)
 -->
<!-- Title: Graphical Class Hierarchy Pages: 1 -->
<svg width="919pt" height="1049pt"
 viewBox="0.00 0.00 919.00 1049.00" xmlns="http://www.w3.org/2000/svg" xmlns:xlink="http://www.w3.org/1999/xlink">
<g id="graph0" class="graph" transform="scale(1 1) rotate(0) translate(4 1045)">
<title>Graphical Class Hierarchy</title>
<!-- Node1 -->
<g id="node1" class="node"><title>Node1</title>
<g id="a_node1"><a xlink:href="classhandler_1_1HandlerContainer.html" target="_top" xlink:title="Base class for classes which may contain handlers. ">
<polygon fill="none" stroke="black" points="0,-755.5 0,-774.5 130,-774.5 130,-755.5 0,-755.5"/>
<text text-anchor="middle" x="65" y="-762.5" font-family="Helvetica,sans-Serif" font-size="10.00">handler::HandlerContainer</text>
</a>
</g>
</g>
<!-- Node2 -->
<g id="node2" class="node"><title>Node2</title>
<g id="a_node2"><a xlink:href="classhandler_1_1Handler.html" target="_top" xlink:title="Message handler abstract base class. ">
<polygon fill="none" stroke="black" points="166,-774.5 166,-793.5 254,-793.5 254,-774.5 166,-774.5"/>
<text text-anchor="middle" x="210" y="-781.5" font-family="Helvetica,sans-Serif" font-size="10.00">handler::Handler</text>
</a>
</g>
</g>
<!-- Node1&#45;&gt;Node2 -->
<g id="edge1" class="edge"><title>Node1&#45;&gt;Node2</title>
<path fill="none" stroke="midnightblue" d="M140.555,-774.906C149.218,-776.057 157.821,-777.2 165.854,-778.267"/>
<polygon fill="midnightblue" stroke="midnightblue" points="140.762,-771.403 130.388,-773.555 139.84,-778.342 140.762,-771.403"/>
</g>
<!-- Node52 -->
<g id="node52" class="node"><title>Node52</title>
<g id="a_node52"><a xlink:href="classMelanobot.html" target="_top" xlink:title="Main bot class. ">
<polygon fill="none" stroke="black" points="179,-736.5 179,-755.5 241,-755.5 241,-736.5 179,-736.5"/>
<text text-anchor="middle" x="210" y="-743.5" font-family="Helvetica,sans-Serif" font-size="10.00">Melanobot</text>
</a>
</g>
</g>
<!-- Node1&#45;&gt;Node52 -->
<g id="edge51" class="edge"><title>Node1&#45;&gt;Node52</title>
<path fill="none" stroke="midnightblue" d="M140.325,-755.125C153.977,-753.311 167.491,-751.515 178.873,-750.003"/>
<polygon fill="midnightblue" stroke="midnightblue" points="139.84,-751.658 130.388,-756.445 140.762,-758.597 139.84,-751.658"/>
</g>
<!-- Node3 -->
<g id="node3" class="node"><title>Node3</title>
<g id="a_node3"><a xlink:href="classhandler_1_1AcceptInvite.html" target="_top" xlink:title="Makes the bot join channels (IRC) ">
<polygon fill="none" stroke="black" points="301,-1021.5 301,-1040.5 410,-1040.5 410,-1021.5 301,-1021.5"/>
<text text-anchor="middle" x="355.5" y="-1028.5" font-family="Helvetica,sans-Serif" font-size="10.00">handler::AcceptInvite</text>
</a>
</g>
</g>
<!-- Node2&#45;&gt;Node3 -->
<g id="edge2" class="edge"><title>Node2&#45;&gt;Node3</title>
<path fill="none" stroke="midnightblue" d="M212.003,-803.904C215.313,-847.939 229.492,-954.275 290,-1012 294.054,-1015.87 298.856,-1018.95 303.982,-1021.41"/>
<polygon fill="midnightblue" stroke="midnightblue" points="215.494,-803.649 211.362,-793.893 208.508,-804.097 215.494,-803.649"/>
</g>
<!-- Node4 -->
<g id="node4" class="node"><title>Node4</title>
<g id="a_node4"><a xlink:href="classhandler_1_1AnswerQuestions.html" target="_top" xlink:title="Answers direct questions. ">
<polygon fill="none" stroke="black" points="290,-983.5 290,-1002.5 421,-1002.5 421,-983.5 290,-983.5"/>
<text text-anchor="middle" x="355.5" y="-990.5" font-family="Helvetica,sans-Serif" font-size="10.00">handler::AnswerQuestions</text>
</a>
</g>
</g>
<!-- Node2&#45;&gt;Node4 -->
<g id="edge3" class="edge"><title>Node2&#45;&gt;Node4</title>
<path fill="none" stroke="midnightblue" d="M213.588,-803.925C219.665,-842.515 238.447,-927.715 290,-974 294.343,-977.899 299.45,-981 304.857,-983.466"/>
<polygon fill="midnightblue" stroke="midnightblue" points="216.982,-802.937 212.088,-793.54 210.054,-803.938 216.982,-802.937"/>
</g>
<!-- Node5 -->
<g id="node5" class="node"><title>Node5</title>
<g id="a_node5"><a xlink:href="classhandler_1_1BridgeChat.html" target="_top" xlink:title="Simply echoes chat messages (to be used in a Bridge group) ">
<polygon fill="none" stroke="black" points="304,-945.5 304,-964.5 407,-964.5 407,-945.5 304,-945.5"/>
<text text-anchor="middle" x="355.5" y="-952.5" font-family="Helvetica,sans-Serif" font-size="10.00">handler::BridgeChat</text>
</a>
</g>
</g>
<!-- Node2&#45;&gt;Node5 -->
<g id="edge4" class="edge"><title>Node2&#45;&gt;Node5</title>
<path fill="none" stroke="midnightblue" d="M215.903,-803.958C224.93,-836.485 247.287,-900.821 290,-936 294.686,-939.859 300.129,-942.935 305.829,-945.385"/>
<polygon fill="midnightblue" stroke="midnightblue" points="219.181,-802.661 213.254,-793.88 212.411,-804.441 219.181,-802.661"/>
</g>
<!-- Node6 -->
<g id="node6" class="node"><title>Node6</title>
<g id="a_node6"><a xlink:href="classhandler_1_1Chanhax.html" target="_top" xlink:title="Makes the bot reconnect. ">
<polygon fill="none" stroke="black" points="309,-907.5 309,-926.5 402,-926.5 402,-907.5 309,-907.5"/>
<text text-anchor="middle" x="355.5" y="-914.5" font-family="Helvetica,sans-Serif" font-size="10.00">handler::Chanhax</text>
</a>
</g>
</g>
<!-- Node2&#45;&gt;Node6 -->
<g id="edge5" class="edge"><title>Node2&#45;&gt;Node6</title>
<path fill="none" stroke="midnightblue" d="M219.125,-802.884C231.006,-828.271 255.518,-873.089 290,-898 295.678,-902.102 302.237,-905.324 308.953,-907.855"/>
<polygon fill="midnightblue" stroke="midnightblue" points="222.24,-801.278 214.94,-793.6 215.859,-804.155 222.24,-801.278"/>
</g>
<!-- Node7 -->
<g id="node7" class="node"><title>Node7</title>
<g id="a_node7"><a xlink:href="classhandler_1_1CtcpBase.html" target="_top" xlink:title="Base class for handling CTCP requests. ">
<polygon fill="none" stroke="black" points="306.5,-869.5 306.5,-888.5 404.5,-888.5 404.5,-869.5 306.5,-869.5"/>
<text text-anchor="middle" x="355.5" y="-876.5" font-family="Helvetica,sans-Serif" font-size="10.00">handler::CtcpBase</text>
</a>
</g>
</g>
<!-- Node2&#45;&gt;Node7 -->
<g id="edge6" class="edge"><title>Node2&#45;&gt;Node7</title>
<path fill="none" stroke="midnightblue" d="M225.095,-801.84C239.623,-819.086 263.794,-844.777 290,-860 296.561,-863.811 303.949,-866.912 311.32,-869.418"/>
<polygon fill="midnightblue" stroke="midnightblue" points="227.462,-799.207 218.417,-793.691 222.048,-803.644 227.462,-799.207"/>
</g>
<!-- Node14 -->
<g id="node14" class="node"><title>Node14</title>
<g id="a_node14"><a xlink:href="classhandler_1_1FilterGroup.html" target="_top" xlink:title="Discards messages coming from certain users. ">
<polygon fill="none" stroke="black" points="304.5,-831.5 304.5,-850.5 406.5,-850.5 406.5,-831.5 304.5,-831.5"/>
<text text-anchor="middle" x="355.5" y="-838.5" font-family="Helvetica,sans-Serif" font-size="10.00">handler::FilterGroup</text>
</a>
</g>
</g>
<!-- Node2&#45;&gt;Node14 -->
<g id="edge13" class="edge"><title>Node2&#45;&gt;Node14</title>
<path fill="none" stroke="midnightblue" d="M238.054,-798.357C253.09,-805.993 272.29,-815.184 290,-822 299.042,-825.48 309.002,-828.701 318.332,-831.465"/>
<polygon fill="midnightblue" stroke="midnightblue" points="239.324,-795.074 228.831,-793.605 236.117,-801.297 239.324,-795.074"/>
</g>
<!-- Node15 -->
<g id="node15" class="node"><title>Node15</title>
<g id="a_node15"><a xlink:href="classhandler_1_1IrcJoinMessage.html" target="_top" xlink:title="Prints a message when a user joins a channel. ">
<polygon fill="none" stroke="black" points="294,-793.5 294,-812.5 417,-812.5 417,-793.5 294,-793.5"/>
<text text-anchor="middle" x="355.5" y="-800.5" font-family="Helvetica,sans-Serif" font-size="10.00">handler::IrcJoinMessage</text>
</a>
</g>
</g>
<!-- Node2&#45;&gt;Node15 -->
<g id="edge14" class="edge"><title>Node2&#45;&gt;Node15</title>
<path fill="none" stroke="midnightblue" d="M264.007,-791.018C273.761,-792.31 284.012,-793.667 293.968,-794.985"/>
<polygon fill="midnightblue" stroke="midnightblue" points="264.428,-787.544 254.055,-789.701 263.509,-794.483 264.428,-787.544"/>
</g>
<!-- Node16 -->
<g id="node16" class="node"><title>Node16</title>
<g id="a_node16"><a xlink:href="classhandler_1_1IrcKickMessage.html" target="_top" xlink:title="Prints a message when a user is kicked from a channel. ">
<polygon fill="none" stroke="black" points="293,-755.5 293,-774.5 418,-774.5 418,-755.5 293,-755.5"/>
<text text-anchor="middle" x="355.5" y="-762.5" font-family="Helvetica,sans-Serif" font-size="10.00">handler::IrcKickMessage</text>
</a>
</g>
</g>
<!-- Node2&#45;&gt;Node16 -->
<g id="edge15" class="edge"><title>Node2&#45;&gt;Node16</title>
<path fill="none" stroke="midnightblue" d="M264.039,-776.977C273.438,-775.733 283.297,-774.428 292.908,-773.155"/>
<polygon fill="midnightblue" stroke="midnightblue" points="263.509,-773.517 254.055,-778.299 264.428,-780.456 263.509,-773.517"/>
</g>
<!-- Node17 -->
<g id="node17" class="node"><title>Node17</title>
<g id="a_node17"><a xlink:href="classhandler_1_1IrcKickRejoin.html" target="_top" xlink:title="Joins again once kicked. ">
<polygon fill="none" stroke="black" points="299,-717.5 299,-736.5 412,-736.5 412,-717.5 299,-717.5"/>
<text text-anchor="middle" x="355.5" y="-724.5" font-family="Helvetica,sans-Serif" font-size="10.00">handler::IrcKickRejoin</text>
</a>
</g>
</g>
<!-- Node2&#45;&gt;Node17 -->
<g id="edge16" class="edge"><title>Node2&#45;&gt;Node17</title>
<path fill="none" stroke="midnightblue" d="M242.766,-770.263C246.57,-768.53 250.384,-766.75 254,-765 270.284,-757.117 273.24,-752.812 290,-746 298.76,-742.44 308.434,-739.23 317.566,-736.506"/>
<polygon fill="midnightblue" stroke="midnightblue" points="241.151,-767.151 233.453,-774.431 244.01,-773.54 241.151,-767.151"/>
</g>
<!-- Node18 -->
<g id="node18" class="node"><title>Node18</title>
<g id="a_node18"><a xlink:href="classhandler_1_1QGetWhois.html" target="_top" xlink:title="Parses responses from Q WHOIS and USER (IRC) ">
<polygon fill="none" stroke="black" points="303,-679.5 303,-698.5 408,-698.5 408,-679.5 303,-679.5"/>
<text text-anchor="middle" x="355.5" y="-686.5" font-family="Helvetica,sans-Serif" font-size="10.00">handler::QGetWhois</text>
</a>
</g>
</g>
<!-- Node2&#45;&gt;Node18 -->
<g id="edge17" class="edge"><title>Node2&#45;&gt;Node18</title>
<path fill="none" stroke="midnightblue" d="M248.36,-769.245C250.345,-767.93 252.243,-766.516 254,-765 276.688,-745.429 266.092,-726.061 290,-708 295.123,-704.13 301.022,-701.046 307.127,-698.588"/>
<polygon fill="midnightblue" stroke="midnightblue" points="246.241,-766.423 239.262,-774.395 249.689,-772.515 246.241,-766.423"/>
</g>
<!-- Node19 -->
<g id="node19" class="node"><title>Node19</title>
<g id="a_node19"><a xlink:href="classhandler_1_1QSendWhois.html" target="_top" xlink:title="Asks Q for WHOIS or USERS information when a user joins a channel (IRC) ">
<polygon fill="none" stroke="black" points="299.5,-641.5 299.5,-660.5 411.5,-660.5 411.5,-641.5 299.5,-641.5"/>
<text text-anchor="middle" x="355.5" y="-648.5" font-family="Helvetica,sans-Serif" font-size="10.00">handler::QSendWhois</text>
</a>
</g>
</g>
<!-- Node2&#45;&gt;Node19 -->
<g id="edge18" class="edge"><title>Node2&#45;&gt;Node19</title>
<path fill="none" stroke="midnightblue" d="M250.006,-768.664C251.425,-767.523 252.765,-766.303 254,-765 285.056,-732.225 256.886,-700.695 290,-670 294.195,-666.111 299.147,-663.015 304.413,-660.551"/>
<polygon fill="midnightblue" stroke="midnightblue" points="247.701,-765.987 241.218,-774.367 251.512,-771.859 247.701,-765.987"/>
</g>
<!-- Node20 -->
<g id="node20" class="node"><title>Node20</title>
<g id="a_node20"><a xlink:href="classhandler_1_1Reply.html" target="_top" xlink:title="Fixed reply. ">
<polygon fill="none" stroke="black" points="315.5,-603.5 315.5,-622.5 395.5,-622.5 395.5,-603.5 315.5,-603.5"/>
<text text-anchor="middle" x="355.5" y="-610.5" font-family="Helvetica,sans-Serif" font-size="10.00">handler::Reply</text>
</a>
</g>
</g>
<!-- Node2&#45;&gt;Node20 -->
<g id="edge19" class="edge"><title>Node2&#45;&gt;Node20</title>
<path fill="none" stroke="midnightblue" d="M250.298,-768.7C251.624,-767.551 252.867,-766.32 254,-765 293.896,-718.541 247.18,-675.778 290,-632 296.775,-625.073 305.937,-620.641 315.226,-617.814"/>
<polygon fill="midnightblue" stroke="midnightblue" points="248.237,-765.87 241.976,-774.417 252.2,-771.64 248.237,-765.87"/>
</g>
<!-- Node21 -->
<g id="node21" class="node"><title>Node21</title>
<g id="a_node21"><a xlink:href="classhandler_1_1SimpleAction.html" target="_top" xlink:title="A simple action sends a message to the same connection it came from. ">
<polygon fill="none" stroke="black" points="299.5,-451.5 299.5,-470.5 411.5,-470.5 411.5,-451.5 299.5,-451.5"/>
<text text-anchor="middle" x="355.5" y="-458.5" font-family="Helvetica,sans-Serif" font-size="10.00">handler::SimpleAction</text>
</a>
</g>
</g>
<!-- Node2&#45;&gt;Node21 -->
<g id="edge20" class="edge"><title>Node2&#45;&gt;Node21</title>
<path fill="none" stroke="midnightblue" d="M250.859,-768.354C251.983,-767.305 253.036,-766.189 254,-765 302.903,-704.664 264.868,-667.487 290,-594 306.525,-545.68 336.334,-492.115 348.789,-470.658"/>
<polygon fill="midnightblue" stroke="midnightblue" points="248.648,-765.634 242.599,-774.332 252.752,-771.305 248.648,-765.634"/>
</g>
<!-- Node51 -->
<g id="node51" class="node"><title>Node51</title>
<g id="a_node51"><a xlink:href="classhandler_1_1Whois330.html" target="_top" xlink:title="Sets the global id based on a 330 reply from whois (IRC) ">
<polygon fill="none" stroke="black" points="306.5,-413.5 306.5,-432.5 404.5,-432.5 404.5,-413.5 306.5,-413.5"/>
<text text-anchor="middle" x="355.5" y="-420.5" font-family="Helvetica,sans-Serif" font-size="10.00">handler::Whois330</text>
</a>
</g>
</g>
<!-- Node2&#45;&gt;Node51 -->
<g id="edge50" class="edge"><title>Node2&#45;&gt;Node51</title>
<path fill="none" stroke="midnightblue" d="M251.428,-768.045C252.351,-767.087 253.213,-766.074 254,-765 339.433,-648.529 197.205,-552.695 290,-442 294.35,-436.811 300.039,-432.998 306.238,-430.204"/>
<polygon fill="midnightblue" stroke="midnightblue" points="249.092,-765.427 243.354,-774.334 253.394,-770.95 249.092,-765.427"/>
</g>
<!-- Node8 -->
<g id="node8" class="node"><title>Node8</title>
<g id="a_node8"><a xlink:href="classhandler_1_1CtcpClientInfo.html" target="_top" xlink:title="Shows help about other CTCP handlers. ">
<polygon fill="none" stroke="black" points="463,-1002.5 463,-1021.5 580,-1021.5 580,-1002.5 463,-1002.5"/>
<text text-anchor="middle" x="521.5" y="-1009.5" font-family="Helvetica,sans-Serif" font-size="10.00">handler::CtcpClientInfo</text>
</a>
</g>
</g>
<!-- Node7&#45;&gt;Node8 -->
<g id="edge7" class="edge"><title>Node7&#45;&gt;Node8</title>
<path fill="none" stroke="midnightblue" d="M413.558,-892.334C416.215,-894.006 418.719,-895.886 421,-898 454.114,-928.695 423.952,-962.234 457,-993 461.127,-996.842 466.001,-999.909 471.184,-1002.36"/>
<polygon fill="midnightblue" stroke="midnightblue" points="415.123,-889.203 404.639,-887.674 411.881,-895.407 415.123,-889.203"/>
</g>
<!-- Node9 -->
<g id="node9" class="node"><title>Node9</title>
<g id="a_node9"><a xlink:href="classhandler_1_1CtcpPing.html" target="_top" xlink:title="CTCP PING reply, Used to measure round&#45;trip message delays. ">
<polygon fill="none" stroke="black" points="474,-964.5 474,-983.5 569,-983.5 569,-964.5 474,-964.5"/>
<text text-anchor="middle" x="521.5" y="-971.5" font-family="Helvetica,sans-Serif" font-size="10.00">handler::CtcpPing</text>
</a>
</g>
</g>
<!-- Node7&#45;&gt;Node9 -->
<g id="edge8" class="edge"><title>Node7&#45;&gt;Node9</title>
<path fill="none" stroke="midnightblue" d="M413.074,-892.911C415.855,-894.435 418.519,-896.125 421,-898 444.908,-916.061 433.131,-936.888 457,-955 462.133,-958.895 468.06,-961.996 474.186,-964.462"/>
<polygon fill="midnightblue" stroke="midnightblue" points="414.412,-889.673 403.873,-888.588 411.436,-896.009 414.412,-889.673"/>
</g>
<!-- Node10 -->
<g id="node10" class="node"><title>Node10</title>
<g id="a_node10"><a xlink:href="classhandler_1_1CtcpSource.html" target="_top" xlink:title="CTCP SOURCE reply, shows a URL with the sources. ">
<polygon fill="none" stroke="black" points="468.5,-926.5 468.5,-945.5 574.5,-945.5 574.5,-926.5 468.5,-926.5"/>
<text text-anchor="middle" x="521.5" y="-933.5" font-family="Helvetica,sans-Serif" font-size="10.00">handler::CtcpSource</text>
</a>
</g>
</g>
<!-- Node7&#45;&gt;Node10 -->
<g id="edge9" class="edge"><title>Node7&#45;&gt;Node10</title>
<path fill="none" stroke="midnightblue" d="M402.985,-891.482C409.109,-893.478 415.251,-895.664 421,-898 437.76,-904.812 440.254,-910.152 457,-917 465.627,-920.528 475.152,-923.726 484.143,-926.449"/>
<polygon fill="midnightblue" stroke="midnightblue" points="404.023,-888.139 393.434,-888.506 401.94,-894.822 404.023,-888.139"/>
</g>
<!-- Node11 -->
<g id="node11" class="node"><title>Node11</title>
<g id="a_node11"><a xlink:href="classhandler_1_1CtcpTime.html" target="_top" xlink:title="CTCP TIME reply, Shows the local time. ">
<polygon fill="none" stroke="black" points="473,-888.5 473,-907.5 570,-907.5 570,-888.5 473,-888.5"/>
<text text-anchor="middle" x="521.5" y="-895.5" font-family="Helvetica,sans-Serif" font-size="10.00">handler::CtcpTime</text>
</a>
</g>
</g>
<!-- Node7&#45;&gt;Node11 -->
<g id="edge10" class="edge"><title>Node7&#45;&gt;Node11</title>
<path fill="none" stroke="midnightblue" d="M414.853,-885.76C433.847,-887.961 454.691,-890.376 472.81,-892.475"/>
<polygon fill="midnightblue" stroke="midnightblue" points="415.155,-882.272 404.818,-884.598 414.349,-889.226 415.155,-882.272"/>
</g>
<!-- Node12 -->
<g id="node12" class="node"><title>Node12</title>
<g id="a_node12"><a xlink:href="classhandler_1_1CtcpUserInfo.html" target="_top" xlink:title="CTCP USERINFO reply, shows a user&#45;defined string. ">
<polygon fill="none" stroke="black" points="465,-850.5 465,-869.5 578,-869.5 578,-850.5 465,-850.5"/>
<text text-anchor="middle" x="521.5" y="-857.5" font-family="Helvetica,sans-Serif" font-size="10.00">handler::CtcpUserInfo</text>
</a>
</g>
</g>
<!-- Node7&#45;&gt;Node12 -->
<g id="edge11" class="edge"><title>Node7&#45;&gt;Node12</title>
<path fill="none" stroke="midnightblue" d="M415.202,-872.199C431.334,-870.33 448.779,-868.309 464.741,-866.46"/>
<polygon fill="midnightblue" stroke="midnightblue" points="414.349,-868.774 404.818,-873.402 415.155,-875.728 414.349,-868.774"/>
</g>
<!-- Node13 -->
<g id="node13" class="node"><title>Node13</title>
<g id="a_node13"><a xlink:href="classhandler_1_1CtcpVersion.html" target="_top" xlink:title="CTCP VERSION reply, shows a pre&#45;formatted version string. ">
<polygon fill="none" stroke="black" points="467.5,-812.5 467.5,-831.5 575.5,-831.5 575.5,-812.5 467.5,-812.5"/>
<text text-anchor="middle" x="521.5" y="-819.5" font-family="Helvetica,sans-Serif" font-size="10.00">handler::CtcpVersion</text>
</a>
</g>
</g>
<!-- Node7&#45;&gt;Node13 -->
<g id="edge12" class="edge"><title>Node7&#45;&gt;Node13</title>
<path fill="none" stroke="midnightblue" d="M402.985,-866.518C409.109,-864.522 415.251,-862.336 421,-860 437.76,-853.188 440.254,-847.848 457,-841 465.627,-837.472 475.152,-834.274 484.143,-831.551"/>
<polygon fill="midnightblue" stroke="midnightblue" points="401.94,-863.178 393.434,-869.494 404.023,-869.861 401.94,-863.178"/>
</g>
<!-- Node22 -->
<g id="node22" class="node"><title>Node22</title>
<g id="a_node22"><a xlink:href="classhandler_1_1AdminJoin.html" target="_top" xlink:title="Makes the bot join channels (IRC) ">
<polygon fill="none" stroke="black" points="471.5,-774.5 471.5,-793.5 571.5,-793.5 571.5,-774.5 471.5,-774.5"/>
<text text-anchor="middle" x="521.5" y="-781.5" font-family="Helvetica,sans-Serif" font-size="10.00">handler::AdminJoin</text>
</a>
</g>
</g>
<!-- Node21&#45;&gt;Node22 -->
<g id="edge21" class="edge"><title>Node21&#45;&gt;Node22</title>
<path fill="none" stroke="midnightblue" d="M367.256,-479.464C381.47,-504.597 406.411,-551.342 421,-594 446.132,-667.487 404.414,-707.844 457,-765 460.974,-769.319 465.884,-772.671 471.201,-775.27"/>
<polygon fill="midnightblue" stroke="midnightblue" points="370.219,-477.596 362.211,-470.658 364.145,-481.075 370.219,-477.596"/>
</g>
<!-- Node23 -->
<g id="node23" class="node"><title>Node23</title>
<g id="a_node23"><a xlink:href="classhandler_1_1AdminNick.html" target="_top" xlink:title="Changes the bot nick (IRC) ">
<polygon fill="none" stroke="black" points="470.5,-736.5 470.5,-755.5 572.5,-755.5 572.5,-736.5 470.5,-736.5"/>
<text text-anchor="middle" x="521.5" y="-743.5" font-family="Helvetica,sans-Serif" font-size="10.00">handler::AdminNick</text>
</a>
</g>
</g>
<!-- Node21&#45;&gt;Node23 -->
<g id="edge22" class="edge"><title>Node21&#45;&gt;Node23</title>
<path fill="none" stroke="midnightblue" d="M366.899,-479.592C380.713,-504.868 405.205,-551.774 421,-594 442.455,-651.357 414.273,-683.13 457,-727 460.854,-730.957 465.495,-734.098 470.492,-736.59"/>
<polygon fill="midnightblue" stroke="midnightblue" points="369.905,-477.794 362.008,-470.731 363.777,-481.177 369.905,-477.794"/>
</g>
<!-- Node24 -->
<g id="node24" class="node"><title>Node24</title>
<g id="a_node24"><a xlink:href="classhandler_1_1AdminPart.html" target="_top" xlink:title="Makes the bot part channels (IRC) ">
<polygon fill="none" stroke="black" points="471.5,-698.5 471.5,-717.5 571.5,-717.5 571.5,-698.5 471.5,-698.5"/>
<text text-anchor="middle" x="521.5" y="-705.5" font-family="Helvetica,sans-Serif" font-size="10.00">handler::AdminPart</text>
</a>
</g>
</g>
<!-- Node21&#45;&gt;Node24 -->
<g id="edge23" class="edge"><title>Node21&#45;&gt;Node24</title>
<path fill="none" stroke="midnightblue" d="M366.098,-479.451C379.19,-504.91 403.068,-552.389 421,-594 438.869,-635.466 423.952,-658.234 457,-689 461.127,-692.842 466.001,-695.909 471.184,-698.358"/>
<polygon fill="midnightblue" stroke="midnightblue" points="369.194,-477.819 361.493,-470.542 362.975,-481.033 369.194,-477.819"/>
</g>
<!-- Node25 -->
<g id="node25" class="node"><title>Node25</title>
<g id="a_node25"><a xlink:href="classhandler_1_1AdminQuit.html" target="_top" xlink:title="Quits the bot. ">
<polygon fill="none" stroke="black" points="471.5,-660.5 471.5,-679.5 571.5,-679.5 571.5,-660.5 471.5,-660.5"/>
<text text-anchor="middle" x="521.5" y="-667.5" font-family="Helvetica,sans-Serif" font-size="10.00">handler::AdminQuit</text>
</a>
</g>
</g>
<!-- Node21&#45;&gt;Node25 -->
<g id="edge24" class="edge"><title>Node21&#45;&gt;Node25</title>
<path fill="none" stroke="midnightblue" d="M365.413,-479.794C387.17,-525.368 442.287,-638.919 457,-651 461.713,-654.87 467.197,-657.953 472.93,-660.407"/>
<polygon fill="midnightblue" stroke="midnightblue" points="368.54,-478.218 361.081,-470.693 362.219,-481.227 368.54,-478.218"/>
</g>
<!-- Node26 -->
<g id="node26" class="node"><title>Node26</title>
<g id="a_node26"><a xlink:href="classhandler_1_1AdminRaw.html" target="_top" xlink:title="Makes the bot execute a raw command (IRC) ">
<polygon fill="none" stroke="black" points="470.5,-622.5 470.5,-641.5 572.5,-641.5 572.5,-622.5 470.5,-622.5"/>
<text text-anchor="middle" x="521.5" y="-629.5" font-family="Helvetica,sans-Serif" font-size="10.00">handler::AdminRaw</text>
</a>
</g>
</g>
<!-- Node21&#45;&gt;Node26 -->
<g id="edge25" class="edge"><title>Node21&#45;&gt;Node26</title>
<path fill="none" stroke="midnightblue" d="M363.947,-480.088C377.508,-512.348 409.306,-577.588 457,-613 462.266,-616.91 468.335,-620.021 474.589,-622.494"/>
<polygon fill="midnightblue" stroke="midnightblue" points="367.059,-478.449 360.051,-470.503 360.574,-481.085 367.059,-478.449"/>
</g>
<!-- Node27 -->
<g id="node27" class="node"><title>Node27</title>
<g id="a_node27"><a xlink:href="classhandler_1_1AdminReconnect.html" target="_top" xlink:title="Makes the bot reconnect. ">
<polygon fill="none" stroke="black" points="457,-584.5 457,-603.5 586,-603.5 586,-584.5 457,-584.5"/>
<text text-anchor="middle" x="521.5" y="-591.5" font-family="Helvetica,sans-Serif" font-size="10.00">handler::AdminReconnect</text>
</a>
</g>
</g>
<!-- Node21&#45;&gt;Node27 -->
<g id="edge26" class="edge"><title>Node21&#45;&gt;Node27</title>
<path fill="none" stroke="midnightblue" d="M367.725,-479.15C384.224,-504.337 417.397,-549.644 457,-575 463.008,-578.847 469.831,-581.945 476.721,-584.431"/>
<polygon fill="midnightblue" stroke="midnightblue" points="370.573,-477.107 362.239,-470.565 364.674,-480.876 370.573,-477.107"/>
</g>
<!-- Node28 -->
<g id="node28" class="node"><title>Node28</title>
<g id="a_node28"><a xlink:href="classhandler_1_1Cointoss.html" target="_top" xlink:title="Shows one of the given items, at random. ">
<polygon fill="none" stroke="black" points="475,-546.5 475,-565.5 568,-565.5 568,-546.5 475,-546.5"/>
<text text-anchor="middle" x="521.5" y="-553.5" font-family="Helvetica,sans-Serif" font-size="10.00">handler::Cointoss</text>
</a>
</g>
</g>
<!-- Node21&#45;&gt;Node28 -->
<g id="edge27" class="edge"><title>Node21&#45;&gt;Node28</title>
<path fill="none" stroke="midnightblue" d="M374.098,-477.453C393.19,-494.511 425.216,-520.891 457,-537 464.39,-540.746 472.646,-543.887 480.697,-546.468"/>
<polygon fill="midnightblue" stroke="midnightblue" points="376.268,-474.696 366.515,-470.557 371.558,-479.874 376.268,-474.696"/>
</g>
<!-- Node29 -->
<g id="node29" class="node"><title>Node29</title>
<g id="a_node29"><a xlink:href="classhandler_1_1Echo.html" target="_top" xlink:title="Just repeat what it has been told. ">
<polygon fill="none" stroke="black" points="483,-508.5 483,-527.5 560,-527.5 560,-508.5 483,-508.5"/>
<text text-anchor="middle" x="521.5" y="-515.5" font-family="Helvetica,sans-Serif" font-size="10.00">handler::Echo</text>
</a>
</g>
</g>
<!-- Node21&#45;&gt;Node29 -->
<g id="edge28" class="edge"><title>Node21&#45;&gt;Node29</title>
<path fill="none" stroke="midnightblue" d="M389.64,-474.206C409.131,-481.803 434.325,-491.332 457,-499 466.702,-502.281 477.333,-505.577 487.074,-508.481"/>
<polygon fill="midnightblue" stroke="midnightblue" points="390.877,-470.932 380.29,-470.539 388.322,-477.449 390.877,-470.932"/>
</g>
<!-- Node30 -->
<g id="node30" class="node"><title>Node30</title>
<g id="a_node30"><a xlink:href="classhandler_1_1Help.html" target="_top" xlink:title="Handler showing help on the available handlers. ">
<polygon fill="none" stroke="black" points="484.5,-470.5 484.5,-489.5 558.5,-489.5 558.5,-470.5 484.5,-470.5"/>
<text text-anchor="middle" x="521.5" y="-477.5" font-family="Helvetica,sans-Serif" font-size="10.00">handler::Help</text>
</a>
</g>
</g>
<!-- Node21&#45;&gt;Node30 -->
<g id="edge29" class="edge"><title>Node21&#45;&gt;Node30</title>
<path fill="none" stroke="midnightblue" d="M421.583,-468.54C442.972,-471.018 465.966,-473.682 484.397,-475.817"/>
<polygon fill="midnightblue" stroke="midnightblue" points="421.902,-465.054 411.566,-467.38 421.097,-472.007 421.902,-465.054"/>
</g>
<!-- Node31 -->
<g id="node31" class="node"><title>Node31</title>
<g id="a_node31"><a xlink:href="classhandler_1_1License.html" target="_top" xlink:title="Handler showing licensing information. ">
<polygon fill="none" stroke="black" points="477.5,-432.5 477.5,-451.5 565.5,-451.5 565.5,-432.5 477.5,-432.5"/>
<text text-anchor="middle" x="521.5" y="-439.5" font-family="Helvetica,sans-Serif" font-size="10.00">handler::License</text>
</a>
</g>
</g>
<!-- Node21&#45;&gt;Node31 -->
<g id="edge30" class="edge"><title>Node21&#45;&gt;Node31</title>
<path fill="none" stroke="midnightblue" d="M421.515,-453.468C440.235,-451.299 460.189,-448.987 477.242,-447.012"/>
<polygon fill="midnightblue" stroke="midnightblue" points="421.097,-449.993 411.566,-454.62 421.902,-456.946 421.097,-449.993"/>
</g>
<!-- Node32 -->
<g id="node32" class="node"><title>Node32</title>
<g id="a_node32"><a xlink:href="classhandler_1_1ListClear.html" target="_top" xlink:title="Used by AbstractList to remove all elements. ">
<polygon fill="none" stroke="black" points="475,-394.5 475,-413.5 568,-413.5 568,-394.5 475,-394.5"/>
<text text-anchor="middle" x="521.5" y="-401.5" font-family="Helvetica,sans-Serif" font-size="10.00">handler::ListClear</text>
</a>
</g>
</g>
<!-- Node21&#45;&gt;Node32 -->
<g id="edge31" class="edge"><title>Node21&#45;&gt;Node32</title>
<path fill="none" stroke="midnightblue" d="M402.985,-448.518C409.109,-446.522 415.251,-444.336 421,-442 437.76,-435.188 440.254,-429.848 457,-423 465.627,-419.472 475.152,-416.274 484.143,-413.551"/>
<polygon fill="midnightblue" stroke="midnightblue" points="401.94,-445.178 393.434,-451.494 404.023,-451.861 401.94,-445.178"/>
</g>
<!-- Node33 -->
<g id="node33" class="node"><title>Node33</title>
<g id="a_node33"><a xlink:href="classhandler_1_1ListInsert.html" target="_top" xlink:title="Used by AbstractList to add elements. ">
<polygon fill="none" stroke="black" points="474,-356.5 474,-375.5 569,-375.5 569,-356.5 474,-356.5"/>
<text text-anchor="middle" x="521.5" y="-363.5" font-family="Helvetica,sans-Serif" font-size="10.00">handler::ListInsert</text>
</a>
</g>
</g>
<!-- Node21&#45;&gt;Node33 -->
<g id="edge32" class="edge"><title>Node21&#45;&gt;Node33</title>
<path fill="none" stroke="midnightblue" d="M413.074,-447.089C415.855,-445.565 418.519,-443.875 421,-442 444.908,-423.939 433.131,-403.112 457,-385 462.133,-381.105 468.06,-378.004 474.186,-375.538"/>
<polygon fill="midnightblue" stroke="midnightblue" points="411.436,-443.991 403.873,-451.412 414.412,-450.327 411.436,-443.991"/>
</g>
<!-- Node34 -->
<g id="node34" class="node"><title>Node34</title>
<g id="a_node34"><a xlink:href="classhandler_1_1ListRemove.html" target="_top" xlink:title="Used by AbstractList to remove elements. ">
<polygon fill="none" stroke="black" points="468,-318.5 468,-337.5 575,-337.5 575,-318.5 468,-318.5"/>
<text text-anchor="middle" x="521.5" y="-325.5" font-family="Helvetica,sans-Serif" font-size="10.00">handler::ListRemove</text>
</a>
</g>
</g>
<!-- Node21&#45;&gt;Node34 -->
<g id="edge33" class="edge"><title>Node21&#45;&gt;Node34</title>
<path fill="none" stroke="midnightblue" d="M415.542,-446.358C417.467,-445.029 419.296,-443.58 421,-442 454.114,-411.305 423.952,-377.766 457,-347 461.127,-343.158 466.001,-340.091 471.184,-337.642"/>
<polygon fill="midnightblue" stroke="midnightblue" points="413.55,-443.464 406.587,-451.449 417.01,-449.549 413.55,-443.464"/>
</g>
<!-- Node35 -->
<g id="node35" class="node"><title>Node35</title>
<g id="a_node35"><a xlink:href="classhandler_1_1Morse.html" target="_top" xlink:title="Handler translating between morse and latin. ">
<polygon fill="none" stroke="black" points="481,-280.5 481,-299.5 562,-299.5 562,-280.5 481,-280.5"/>
<text text-anchor="middle" x="521.5" y="-287.5" font-family="Helvetica,sans-Serif" font-size="10.00">handler::Morse</text>
</a>
</g>
</g>
<!-- Node21&#45;&gt;Node35 -->
<g id="edge34" class="edge"><title>Node21&#45;&gt;Node35</title>
<path fill="none" stroke="midnightblue" d="M416.487,-446.003C418.081,-444.771 419.592,-443.44 421,-442 463.82,-398.222 414.273,-352.87 457,-309 463.423,-302.405 472.033,-298.077 480.835,-295.242"/>
<polygon fill="midnightblue" stroke="midnightblue" points="414.537,-443.095 407.921,-451.37 418.253,-449.027 414.537,-443.095"/>
</g>
<!-- Node36 -->
<g id="node36" class="node"><title>Node36</title>
<g id="a_node36"><a xlink:href="classhandler_1_1RenderPony.html" target="_top" xlink:title="Draws a pretty My Little Pony ASCII art. ">
<polygon fill="none" stroke="black" points="467.5,-242.5 467.5,-261.5 575.5,-261.5 575.5,-242.5 467.5,-242.5"/>
<text text-anchor="middle" x="521.5" y="-249.5" font-family="Helvetica,sans-Serif" font-size="10.00">handler::RenderPony</text>
</a>
</g>
</g>
<!-- Node21&#45;&gt;Node36 -->
<g id="edge35" class="edge"><title>Node21&#45;&gt;Node36</title>
<path fill="none" stroke="midnightblue" d="M417.076,-445.712C418.462,-444.562 419.775,-443.326 421,-442 473.707,-384.957 404.414,-328.156 457,-271 460.584,-267.105 464.93,-263.996 469.649,-261.516"/>
<polygon fill="midnightblue" stroke="midnightblue" points="414.863,-442.98 408.456,-451.418 418.727,-448.817 414.863,-442.98"/>
</g>
<!-- Node37 -->
<g id="node37" class="node"><title>Node37</title>
<g id="a_node37"><a xlink:href="classhandler_1_1ReverseText.html" target="_top" xlink:title="Turns ASCII characters upside&#45;down. ">
<polygon fill="none" stroke="black" points="466.5,-204.5 466.5,-223.5 576.5,-223.5 576.5,-204.5 466.5,-204.5"/>
<text text-anchor="middle" x="521.5" y="-211.5" font-family="Helvetica,sans-Serif" font-size="10.00">handler::ReverseText</text>
</a>
</g>
</g>
<!-- Node21&#45;&gt;Node37 -->
<g id="edge36" class="edge"><title>Node21&#45;&gt;Node37</title>
<path fill="none" stroke="midnightblue" d="M417.233,-445.694C418.565,-444.548 419.826,-443.319 421,-442 483.678,-371.602 394.473,-303.531 457,-233 460.435,-229.125 464.625,-226.026 469.197,-223.548"/>
<polygon fill="midnightblue" stroke="midnightblue" points="415.191,-442.85 408.912,-451.383 419.142,-448.628 415.191,-442.85"/>
</g>
<!-- Node38 -->
<g id="node38" class="node"><title>Node38</title>
<g id="a_node38"><a xlink:href="classhandler_1_1ServerHost.html" target="_top" xlink:title="Shows the server the bot is connected to. ">
<polygon fill="none" stroke="black" points="469.5,-166.5 469.5,-185.5 573.5,-185.5 573.5,-166.5 469.5,-166.5"/>
<text text-anchor="middle" x="521.5" y="-173.5" font-family="Helvetica,sans-Serif" font-size="10.00">handler::ServerHost</text>
</a>
</g>
</g>
<!-- Node21&#45;&gt;Node38 -->
<g id="edge37" class="edge"><title>Node21&#45;&gt;Node38</title>
<path fill="none" stroke="midnightblue" d="M417.278,-445.734C418.598,-444.576 419.843,-443.334 421,-442 493.693,-358.197 384.486,-278.957 457,-195 460.46,-190.994 464.727,-187.814 469.399,-185.293"/>
<polygon fill="midnightblue" stroke="midnightblue" points="415.231,-442.894 409.014,-451.474 419.224,-448.643 415.231,-442.894"/>
</g>
<!-- Node39 -->
<g id="node39" class="node"><title>Node39</title>
<g id="a_node39"><a xlink:href="classhandler_1_1SimpleGroup.html" target="_top" xlink:title="A simple group of actions which share settings. ">
<polygon fill="none" stroke="black" points="466.5,-128.5 466.5,-147.5 576.5,-147.5 576.5,-128.5 466.5,-128.5"/>
<text text-anchor="middle" x="521.5" y="-135.5" font-family="Helvetica,sans-Serif" font-size="10.00">handler::SimpleGroup</text>
</a>
</g>
</g>
<!-- Node21&#45;&gt;Node39 -->
<g id="edge38" class="edge"><title>Node21&#45;&gt;Node39</title>
<path fill="none" stroke="midnightblue" d="M417.748,-445.369C418.896,-444.316 419.983,-443.195 421,-442 503.735,-344.762 374.472,-254.415 457,-157 460.273,-153.137 464.296,-150.04 468.716,-147.561"/>
<polygon fill="midnightblue" stroke="midnightblue" points="415.476,-442.691 409.396,-451.368 419.56,-448.377 415.476,-442.691"/>
</g>
<!-- Node43 -->
<g id="node43" class="node"><title>Node43</title>
<g id="a_node43"><a xlink:href="classhandler_1_1SimpleWebApi.html" target="_top" xlink:title="Simple base class for handlers calling web resources. ">
<polygon fill="none" stroke="black" points="462,-90.5 462,-109.5 581,-109.5 581,-90.5 462,-90.5"/>
<text text-anchor="middle" x="521.5" y="-97.5" font-family="Helvetica,sans-Serif" font-size="10.00">handler::SimpleWebApi</text>
</a>
</g>
</g>
<!-- Node21&#45;&gt;Node43 -->
<g id="edge42" class="edge"><title>Node21&#45;&gt;Node43</title>
<path fill="none" stroke="midnightblue" d="M417.771,-445.389C418.913,-444.33 419.992,-443.202 421,-442 513.795,-331.305 364.441,-229.892 457,-119 460.244,-115.113 464.249,-112.001 468.658,-109.512"/>
<polygon fill="midnightblue" stroke="midnightblue" points="415.498,-442.715 409.455,-451.417 419.606,-448.382 415.498,-442.715"/>
</g>
<!-- Node50 -->
<g id="node50" class="node"><title>Node50</title>
<g id="a_node50"><a xlink:href="classhandler_1_1WhoisCheckMe.html" target="_top" xlink:title="Sends a WHOIS about the message sender. ">
<polygon fill="none" stroke="black" points="459.5,-52.5 459.5,-71.5 583.5,-71.5 583.5,-52.5 459.5,-52.5"/>
<text text-anchor="middle" x="521.5" y="-59.5" font-family="Helvetica,sans-Serif" font-size="10.00">handler::WhoisCheckMe</text>
</a>
</g>
</g>
<!-- Node21&#45;&gt;Node50 -->
<g id="edge49" class="edge"><title>Node21&#45;&gt;Node50</title>
<path fill="none" stroke="midnightblue" d="M417.79,-445.405C418.926,-444.341 419.999,-443.208 421,-442 523.867,-317.835 354.398,-205.384 457,-81 460.149,-77.1829 464.031,-74.1121 468.312,-71.6445"/>
<polygon fill="midnightblue" stroke="midnightblue" points="415.514,-442.733 409.501,-451.456 419.642,-448.387 415.514,-442.733"/>
</g>
<!-- Node40 -->
<g id="node40" class="node"><title>Node40</title>
<g id="a_node40"><a xlink:href="classhandler_1_1AbstractList.html" target="_top" xlink:title="Handles a list of elements (base class) ">
<polygon fill="none" stroke="black" points="622,-185.5 622,-204.5 729,-204.5 729,-185.5 622,-185.5"/>
<text text-anchor="middle" x="675.5" y="-192.5" font-family="Helvetica,sans-Serif" font-size="10.00">handler::AbstractList</text>
</a>
</g>
</g>
<!-- Node39&#45;&gt;Node40 -->
<g id="edge39" class="edge"><title>Node39&#45;&gt;Node40</title>
<path fill="none" stroke="midnightblue" d="M566.973,-150.598C573.396,-152.622 579.895,-154.784 586,-157 609.734,-165.614 636.26,-177.287 654.027,-185.413"/>
<polygon fill="midnightblue" stroke="midnightblue" points="567.596,-147.128 557.01,-147.541 565.543,-153.82 567.596,-147.128"/>
</g>
<!-- Node42 -->
<g id="node42" class="node"><title>Node42</title>
<g id="a_node42"><a xlink:href="classhandler_1_1Bridge.html" target="_top" xlink:title="Acts as bridge across connections. ">
<polygon fill="none" stroke="black" points="634.5,-128.5 634.5,-147.5 716.5,-147.5 716.5,-128.5 634.5,-128.5"/>
<text text-anchor="middle" x="675.5" y="-135.5" font-family="Helvetica,sans-Serif" font-size="10.00">handler::Bridge</text>
</a>
</g>
</g>
<!-- Node39&#45;&gt;Node42 -->
<g id="edge41" class="edge"><title>Node39&#45;&gt;Node42</title>
<path fill="none" stroke="midnightblue" d="M586.892,-138C602.879,-138 619.568,-138 634.038,-138"/>
<polygon fill="midnightblue" stroke="midnightblue" points="586.518,-134.5 576.517,-138 586.517,-141.5 586.518,-134.5"/>
</g>
<!-- Node41 -->
<g id="node41" class="node"><title>Node41</title>
<g id="a_node41"><a xlink:href="classhandler_1_1AdminGroup.html" target="_top" xlink:title="Manages a user group. ">
<polygon fill="none" stroke="black" points="784,-190.5 784,-209.5 892,-209.5 892,-190.5 784,-190.5"/>
<text text-anchor="middle" x="838" y="-197.5" font-family="Helvetica,sans-Serif" font-size="10.00">handler::AdminGroup</text>
</a>
</g>
</g>
<!-- Node40&#45;&gt;Node41 -->
<g id="edge40" class="edge"><title>Node40&#45;&gt;Node41</title>
<path fill="none" stroke="midnightblue" d="M739.114,-196.951C753.876,-197.41 769.476,-197.896 783.779,-198.342"/>
<polygon fill="midnightblue" stroke="midnightblue" points="739.158,-193.45 729.054,-196.637 738.94,-200.447 739.158,-193.45"/>
</g>
<!-- Node44 -->
<g id="node44" class="node"><title>Node44</title>
<g id="a_node44"><a xlink:href="classhandler_1_1SimpleJson.html" target="_top" xlink:title="Simple base class for handlers using AJAX web APIs. ">
<polygon fill="none" stroke="black" points="623,-81.5 623,-100.5 728,-100.5 728,-81.5 623,-81.5"/>
<text text-anchor="middle" x="675.5" y="-88.5" font-family="Helvetica,sans-Serif" font-size="10.00">handler::SimpleJson</text>
</a>
</g>
</g>
<!-- Node43&#45;&gt;Node44 -->
<g id="edge43" class="edge"><title>Node43&#45;&gt;Node44</title>
<path fill="none" stroke="midnightblue" d="M591.333,-95.9244C601.92,-95.2975 612.695,-94.6595 622.824,-94.0597"/>
<polygon fill="midnightblue" stroke="midnightblue" points="591.043,-92.4353 581.267,-96.5204 591.457,-99.4231 591.043,-92.4353"/>
</g>
<!-- Node45 -->
<g id="node45" class="node"><title>Node45</title>
<g id="a_node45"><a xlink:href="classhandler_1_1ChuckNorris.html" target="_top" xlink:title="Searches for a Chuck Norris joke. ">
<polygon fill="none" stroke="black" points="783.5,-152.5 783.5,-171.5 892.5,-171.5 892.5,-152.5 783.5,-152.5"/>
<text text-anchor="middle" x="838" y="-159.5" font-family="Helvetica,sans-Serif" font-size="10.00">handler::ChuckNorris</text>
</a>
</g>
</g>
<!-- Node44&#45;&gt;Node45 -->
<g id="edge44" class="edge"><title>Node44&#45;&gt;Node45</title>
<path fill="none" stroke="midnightblue" d="M704.66,-105.366C712.618,-109.602 721.226,-114.351 729,-119 745.503,-128.87 747.465,-135.106 765,-143 773.37,-146.768 782.635,-149.907 791.656,-152.477"/>
<polygon fill="midnightblue" stroke="midnightblue" points="706.185,-102.214 695.704,-100.667 702.933,-108.413 706.185,-102.214"/>
</g>
<!-- Node46 -->
<g id="node46" class="node"><title>Node46</title>
<g id="a_node46"><a xlink:href="classhandler_1_1SearchImageGoogle.html" target="_top" xlink:title="Handler searching images with Google. ">
<polygon fill="none" stroke="black" points="766.5,-114.5 766.5,-133.5 909.5,-133.5 909.5,-114.5 766.5,-114.5"/>
<text text-anchor="middle" x="838" y="-121.5" font-family="Helvetica,sans-Serif" font-size="10.00">handler::SearchImageGoogle</text>
</a>
</g>
</g>
<!-- Node44&#45;&gt;Node46 -->
<g id="edge45" class="edge"><title>Node44&#45;&gt;Node46</title>
<path fill="none" stroke="midnightblue" d="M732.898,-102.596C751.799,-106.482 772.642,-110.768 790.681,-114.476"/>
<polygon fill="midnightblue" stroke="midnightblue" points="733.423,-99.1307 722.923,-100.545 732.013,-105.987 733.423,-99.1307"/>
</g>
<!-- Node47 -->
<g id="node47" class="node"><title>Node47</title>
<g id="a_node47"><a xlink:href="classhandler_1_1SearchVideoYoutube.html" target="_top" xlink:title="Handler searching a video on Youtube. ">
<polygon fill="none" stroke="black" points="765,-76.5 765,-95.5 911,-95.5 911,-76.5 765,-76.5"/>
<text text-anchor="middle" x="838" y="-83.5" font-family="Helvetica,sans-Serif" font-size="10.00">handler::SearchVideoYoutube</text>
</a>
</g>
</g>
<!-- Node44&#45;&gt;Node47 -->
<g id="edge46" class="edge"><title>Node44&#45;&gt;Node47</title>
<path fill="none" stroke="midnightblue" d="M738.259,-89.076C747.001,-88.8037 756.052,-88.5218 764.966,-88.2441"/>
<polygon fill="midnightblue" stroke="midnightblue" points="738.053,-85.5807 728.167,-89.3904 738.271,-92.5773 738.053,-85.5807"/>
</g>
<!-- Node48 -->
<g id="node48" class="node"><title>Node48</title>
<g id="a_node48"><a xlink:href="classhandler_1_1SearchWebSearx.html" target="_top" xlink:title="Handler searching a web page using Searx. ">
<polygon fill="none" stroke="black" points="772.5,-38.5 772.5,-57.5 903.5,-57.5 903.5,-38.5 772.5,-38.5"/>
<text text-anchor="middle" x="838" y="-45.5" font-family="Helvetica,sans-Serif" font-size="10.00">handler::SearchWebSearx</text>
</a>
</g>
</g>
<!-- Node44&#45;&gt;Node48 -->
<g id="edge47" class="edge"><title>Node44&#45;&gt;Node48</title>
<path fill="none" stroke="midnightblue" d="M721.261,-78.7977C735.262,-74.9982 750.769,-70.8074 765,-67 776.614,-63.8927 789.292,-60.5356 800.728,-57.5202"/>
<polygon fill="midnightblue" stroke="midnightblue" points="720.105,-75.4848 711.373,-81.4842 721.941,-82.24 720.105,-75.4848"/>
</g>
<!-- Node49 -->
<g id="node49" class="node"><title>Node49</title>
<g id="a_node49"><a xlink:href="classhandler_1_1UrbanDictionary.html" target="_top" xlink:title="Handler searching a definition on Urban Dictionary. ">
<polygon fill="none" stroke="black" points="775.5,-0.5 775.5,-19.5 900.5,-19.5 900.5,-0.5 775.5,-0.5"/>
<text text-anchor="middle" x="838" y="-7.5" font-family="Helvetica,sans-Serif" font-size="10.00">handler::UrbanDictionary</text>
</a>
</g>
</g>
<!-- Node44&#45;&gt;Node49 -->
<g id="edge48" class="edge"><title>Node44&#45;&gt;Node49</title>
<path fill="none" stroke="midnightblue" d="M695.499,-74.6786C712.636,-60.7224 739.062,-41.039 765,-29 773.091,-25.2445 782.051,-22.1332 790.824,-19.5916"/>
<polygon fill="midnightblue" stroke="midnightblue" points="692.887,-72.2988 687.436,-81.384 697.363,-77.6809 692.887,-72.2988"/>
</g>
</g>
</svg>
