<?xml version="1.0" encoding="UTF-8" standalone="no"?>
<!DOCTYPE svg PUBLIC "-//W3C//DTD SVG 1.1//EN"
 "http://www.w3.org/Graphics/SVG/1.1/DTD/svg11.dtd">
<!-- Generated by graphviz version 2.38.0 (20140413.2041)
 -->
<!-- Title: Graphical Class Hierarchy Pages: 1 -->
<svg width="727pt" height="541pt"
 viewBox="0.00 0.00 727.00 541.00" xmlns="http://www.w3.org/2000/svg" xmlns:xlink="http://www.w3.org/1999/xlink">
<g id="graph0" class="graph" transform="scale(1 1) rotate(0) translate(4 537)">
<title>Graphical Class Hierarchy</title>
<!-- Node1 -->
<g id="node1" class="node"><title>Node1</title>
<g id="a_node1"><a xlink:href="classhandler_1_1Handler.html" target="_top" xlink:title="Message handler abstract base class. ">
<polygon fill="none" stroke="black" points="0,-304.5 0,-323.5 88,-323.5 88,-304.5 0,-304.5"/>
<text text-anchor="middle" x="44" y="-311.5" font-family="Helvetica,sans-Serif" font-size="10.00">handler::Handler</text>
</a>
</g>
</g>
<!-- Node2 -->
<g id="node2" class="node"><title>Node2</title>
<g id="a_node2"><a xlink:href="classhandler_1_1AcceptInvite.html" target="_top" xlink:title="Makes the bot join channels (IRC) ">
<polygon fill="none" stroke="black" points="125.5,-437.5 125.5,-456.5 234.5,-456.5 234.5,-437.5 125.5,-437.5"/>
<text text-anchor="middle" x="180" y="-444.5" font-family="Helvetica,sans-Serif" font-size="10.00">handler::AcceptInvite</text>
</a>
</g>
</g>
<!-- Node1&#45;&gt;Node2 -->
<g id="edge1" class="edge"><title>Node1&#45;&gt;Node2</title>
<path fill="none" stroke="midnightblue" d="M53.4742,-333.033C65.6146,-358.225 90.271,-402.428 124,-428 129.072,-431.845 134.978,-434.948 141.001,-437.442"/>
<polygon fill="midnightblue" stroke="midnightblue" points="56.5706,-331.391 49.1779,-323.802 50.2242,-334.345 56.5706,-331.391"/>
</g>
<!-- Node3 -->
<g id="node3" class="node"><title>Node3</title>
<g id="a_node3"><a xlink:href="classhandler_1_1CtcpBase.html" target="_top" xlink:title="Base class for handling CTCP requests. ">
<polygon fill="none" stroke="black" points="131,-399.5 131,-418.5 229,-418.5 229,-399.5 131,-399.5"/>
<text text-anchor="middle" x="180" y="-406.5" font-family="Helvetica,sans-Serif" font-size="10.00">handler::CtcpBase</text>
</a>
</g>
</g>
<!-- Node1&#45;&gt;Node3 -->
<g id="edge2" class="edge"><title>Node1&#45;&gt;Node3</title>
<path fill="none" stroke="midnightblue" d="M67.1832,-329.727C95.1443,-349.55 142.338,-383.008 165.439,-399.386"/>
<polygon fill="midnightblue" stroke="midnightblue" points="69.0178,-326.737 58.8356,-323.809 64.9693,-332.448 69.0178,-326.737"/>
</g>
<!-- Node9 -->
<g id="node9" class="node"><title>Node9</title>
<g id="a_node9"><a xlink:href="classhandler_1_1QGetWhois.html" target="_top" xlink:title="Parses responses from Q WHOIS and USER (IRC) ">
<polygon fill="none" stroke="black" points="127.5,-323.5 127.5,-342.5 232.5,-342.5 232.5,-323.5 127.5,-323.5"/>
<text text-anchor="middle" x="180" y="-330.5" font-family="Helvetica,sans-Serif" font-size="10.00">handler::QGetWhois</text>
</a>
</g>
</g>
<!-- Node1&#45;&gt;Node9 -->
<g id="edge8" class="edge"><title>Node1&#45;&gt;Node9</title>
<path fill="none" stroke="midnightblue" d="M98.24,-321.549C107.726,-322.894 117.596,-324.293 127.045,-325.633"/>
<polygon fill="midnightblue" stroke="midnightblue" points="98.5284,-318.055 88.136,-320.116 97.5456,-324.986 98.5284,-318.055"/>
</g>
<!-- Node10 -->
<g id="node10" class="node"><title>Node10</title>
<g id="a_node10"><a xlink:href="classhandler_1_1QSendWhois.html" target="_top" xlink:title="Asks Q for WHOIS or USERS information when a user joins a channel (IRC) ">
<polygon fill="none" stroke="black" points="124,-285.5 124,-304.5 236,-304.5 236,-285.5 124,-285.5"/>
<text text-anchor="middle" x="180" y="-292.5" font-family="Helvetica,sans-Serif" font-size="10.00">handler::QSendWhois</text>
</a>
</g>
</g>
<!-- Node1&#45;&gt;Node10 -->
<g id="edge9" class="edge"><title>Node1&#45;&gt;Node10</title>
<path fill="none" stroke="midnightblue" d="M98.1802,-306.46C106.568,-305.27 115.258,-304.038 123.693,-302.842"/>
<polygon fill="midnightblue" stroke="midnightblue" points="97.5456,-303.014 88.136,-307.884 98.5284,-309.945 97.5456,-303.014"/>
</g>
<!-- Node11 -->
<g id="node11" class="node"><title>Node11</title>
<g id="a_node11"><a xlink:href="classhandler_1_1SimpleAction.html" target="_top" xlink:title="A simple action sends a message to the same connection it came from. ">
<polygon fill="none" stroke="black" points="124,-209.5 124,-228.5 236,-228.5 236,-209.5 124,-209.5"/>
<text text-anchor="middle" x="180" y="-216.5" font-family="Helvetica,sans-Serif" font-size="10.00">handler::SimpleAction</text>
</a>
</g>
</g>
<!-- Node1&#45;&gt;Node11 -->
<g id="edge10" class="edge"><title>Node1&#45;&gt;Node11</title>
<path fill="none" stroke="midnightblue" d="M67.1832,-298.273C95.1443,-278.45 142.338,-244.992 165.439,-228.614"/>
<polygon fill="midnightblue" stroke="midnightblue" points="64.9693,-295.552 58.8356,-304.191 69.0178,-301.263 64.9693,-295.552"/>
</g>
<!-- Node26 -->
<g id="node26" class="node"><title>Node26</title>
<g id="a_node26"><a xlink:href="classhandler_1_1Whois330.html" target="_top" xlink:title="Sets the global id based on a 330 reply from whois (IRC) ">
<polygon fill="none" stroke="black" points="131,-171.5 131,-190.5 229,-190.5 229,-171.5 131,-171.5"/>
<text text-anchor="middle" x="180" y="-178.5" font-family="Helvetica,sans-Serif" font-size="10.00">handler::Whois330</text>
</a>
</g>
</g>
<!-- Node1&#45;&gt;Node26 -->
<g id="edge25" class="edge"><title>Node1&#45;&gt;Node26</title>
<path fill="none" stroke="midnightblue" d="M53.4742,-294.967C65.6146,-269.775 90.271,-225.572 124,-200 129.072,-196.155 134.978,-193.052 141.001,-190.558"/>
<polygon fill="midnightblue" stroke="midnightblue" points="50.2242,-293.655 49.1779,-304.198 56.5706,-296.609 50.2242,-293.655"/>
</g>
<!-- Node4 -->
<g id="node4" class="node"><title>Node4</title>
<g id="a_node4"><a xlink:href="classhandler_1_1CtcpPing.html" target="_top" xlink:title="CTCP PING reply, Used to measure round&#45;trip message delays. ">
<polygon fill="none" stroke="black" points="286.5,-513.5 286.5,-532.5 381.5,-532.5 381.5,-513.5 286.5,-513.5"/>
<text text-anchor="middle" x="334" y="-520.5" font-family="Helvetica,sans-Serif" font-size="10.00">handler::CtcpPing</text>
</a>
</g>
</g>
<!-- Node3&#45;&gt;Node4 -->
<g id="edge3" class="edge"><title>Node3&#45;&gt;Node4</title>
<path fill="none" stroke="midnightblue" d="M230.407,-423.688C232.38,-425.005 234.258,-426.439 236,-428 263.838,-452.939 243.782,-479.491 272,-504 276.438,-507.855 281.654,-510.928 287.134,-513.378"/>
<polygon fill="midnightblue" stroke="midnightblue" points="231.704,-420.405 221.259,-418.628 228.316,-426.531 231.704,-420.405"/>
</g>
<!-- Node5 -->
<g id="node5" class="node"><title>Node5</title>
<g id="a_node5"><a xlink:href="classhandler_1_1CtcpSource.html" target="_top" xlink:title="CTCP SOURCE reply, shows a URL with the sources. ">
<polygon fill="none" stroke="black" points="281,-475.5 281,-494.5 387,-494.5 387,-475.5 281,-475.5"/>
<text text-anchor="middle" x="334" y="-482.5" font-family="Helvetica,sans-Serif" font-size="10.00">handler::CtcpSource</text>
</a>
</g>
</g>
<!-- Node3&#45;&gt;Node5 -->
<g id="edge4" class="edge"><title>Node3&#45;&gt;Node5</title>
<path fill="none" stroke="midnightblue" d="M226.085,-422.525C229.538,-424.173 232.887,-425.994 236,-428 255.555,-440.604 252.254,-453.698 272,-466 278.119,-469.813 285.064,-472.914 292.02,-475.42"/>
<polygon fill="midnightblue" stroke="midnightblue" points="227.36,-419.263 216.788,-418.558 224.613,-425.702 227.36,-419.263"/>
</g>
<!-- Node6 -->
<g id="node6" class="node"><title>Node6</title>
<g id="a_node6"><a xlink:href="classhandler_1_1CtcpTime.html" target="_top" xlink:title="CTCP TIME reply, Shows the local time. ">
<polygon fill="none" stroke="black" points="285.5,-437.5 285.5,-456.5 382.5,-456.5 382.5,-437.5 285.5,-437.5"/>
<text text-anchor="middle" x="334" y="-444.5" font-family="Helvetica,sans-Serif" font-size="10.00">handler::CtcpTime</text>
</a>
</g>
</g>
<!-- Node3&#45;&gt;Node6 -->
<g id="edge5" class="edge"><title>Node3&#45;&gt;Node6</title>
<path fill="none" stroke="midnightblue" d="M229.16,-421.04C250.395,-426.349 274.995,-432.499 294.92,-437.48"/>
<polygon fill="midnightblue" stroke="midnightblue" points="229.906,-417.619 219.356,-418.589 228.209,-424.41 229.906,-417.619"/>
</g>
<!-- Node7 -->
<g id="node7" class="node"><title>Node7</title>
<g id="a_node7"><a xlink:href="classhandler_1_1CtcpUserInfo.html" target="_top" xlink:title="CTCP USERINFO reply, shows a user&#45;defined string. ">
<polygon fill="none" stroke="black" points="277.5,-399.5 277.5,-418.5 390.5,-418.5 390.5,-399.5 277.5,-399.5"/>
<text text-anchor="middle" x="334" y="-406.5" font-family="Helvetica,sans-Serif" font-size="10.00">handler::CtcpUserInfo</text>
</a>
</g>
</g>
<!-- Node3&#45;&gt;Node7 -->
<g id="edge6" class="edge"><title>Node3&#45;&gt;Node7</title>
<path fill="none" stroke="midnightblue" d="M239.36,-409C251.805,-409 264.919,-409 277.264,-409"/>
<polygon fill="midnightblue" stroke="midnightblue" points="239.094,-405.5 229.094,-409 239.094,-412.5 239.094,-405.5"/>
</g>
<!-- Node8 -->
<g id="node8" class="node"><title>Node8</title>
<g id="a_node8"><a xlink:href="classhandler_1_1CtcpVersion.html" target="_top" xlink:title="CTCP VERSION reply, shows a pre&#45;formatted version string. ">
<polygon fill="none" stroke="black" points="280,-361.5 280,-380.5 388,-380.5 388,-361.5 280,-361.5"/>
<text text-anchor="middle" x="334" y="-368.5" font-family="Helvetica,sans-Serif" font-size="10.00">handler::CtcpVersion</text>
</a>
</g>
</g>
<!-- Node3&#45;&gt;Node8 -->
<g id="edge7" class="edge"><title>Node3&#45;&gt;Node8</title>
<path fill="none" stroke="midnightblue" d="M229.16,-396.96C250.395,-391.651 274.995,-385.501 294.92,-380.52"/>
<polygon fill="midnightblue" stroke="midnightblue" points="228.209,-393.59 219.356,-399.411 229.906,-400.381 228.209,-393.59"/>
</g>
<!-- Node12 -->
<g id="node12" class="node"><title>Node12</title>
<g id="a_node12"><a xlink:href="classhandler_1_1AdminJoin.html" target="_top" xlink:title="Makes the bot join channels (IRC) ">
<polygon fill="none" stroke="black" points="284,-323.5 284,-342.5 384,-342.5 384,-323.5 284,-323.5"/>
<text text-anchor="middle" x="334" y="-330.5" font-family="Helvetica,sans-Serif" font-size="10.00">handler::AdminJoin</text>
</a>
</g>
</g>
<!-- Node11&#45;&gt;Node12 -->
<g id="edge11" class="edge"><title>Node11&#45;&gt;Node12</title>
<path fill="none" stroke="midnightblue" d="M197.603,-236.124C208.537,-247.422 223.153,-262.563 236,-276 252.077,-292.815 252.254,-301.698 272,-314 278.119,-317.813 285.064,-320.914 292.02,-323.42"/>
<polygon fill="midnightblue" stroke="midnightblue" points="199.841,-233.404 190.369,-228.656 194.812,-238.274 199.841,-233.404"/>
</g>
<!-- Node13 -->
<g id="node13" class="node"><title>Node13</title>
<g id="a_node13"><a xlink:href="classhandler_1_1AdminNick.html" target="_top" xlink:title="Changes the bot nick (IRC) ">
<polygon fill="none" stroke="black" points="283,-285.5 283,-304.5 385,-304.5 385,-285.5 283,-285.5"/>
<text text-anchor="middle" x="334" y="-292.5" font-family="Helvetica,sans-Serif" font-size="10.00">handler::AdminNick</text>
</a>
</g>
</g>
<!-- Node11&#45;&gt;Node13 -->
<g id="edge12" class="edge"><title>Node11&#45;&gt;Node13</title>
<path fill="none" stroke="midnightblue" d="M202.475,-234.68C220.371,-247.188 246.901,-264.466 272,-276 279.861,-279.613 288.595,-282.788 296.94,-285.457"/>
<polygon fill="midnightblue" stroke="midnightblue" points="204.136,-231.567 193.957,-228.629 200.082,-237.273 204.136,-231.567"/>
</g>
<!-- Node14 -->
<g id="node14" class="node"><title>Node14</title>
<g id="a_node14"><a xlink:href="classhandler_1_1AdminPart.html" target="_top" xlink:title="Makes the bot part channels (IRC) ">
<polygon fill="none" stroke="black" points="284,-247.5 284,-266.5 384,-266.5 384,-247.5 284,-247.5"/>
<text text-anchor="middle" x="334" y="-254.5" font-family="Helvetica,sans-Serif" font-size="10.00">handler::AdminPart</text>
</a>
</g>
</g>
<!-- Node11&#45;&gt;Node14 -->
<g id="edge13" class="edge"><title>Node11&#45;&gt;Node14</title>
<path fill="none" stroke="midnightblue" d="M229.16,-231.04C250.395,-236.349 274.995,-242.499 294.92,-247.48"/>
<polygon fill="midnightblue" stroke="midnightblue" points="229.906,-227.619 219.356,-228.589 228.209,-234.41 229.906,-227.619"/>
</g>
<!-- Node15 -->
<g id="node15" class="node"><title>Node15</title>
<g id="a_node15"><a xlink:href="classhandler_1_1AdminQuit.html" target="_top" xlink:title="Quits the bot. ">
<polygon fill="none" stroke="black" points="284,-209.5 284,-228.5 384,-228.5 384,-209.5 284,-209.5"/>
<text text-anchor="middle" x="334" y="-216.5" font-family="Helvetica,sans-Serif" font-size="10.00">handler::AdminQuit</text>
</a>
</g>
</g>
<!-- Node11&#45;&gt;Node15 -->
<g id="edge14" class="edge"><title>Node11&#45;&gt;Node15</title>
<path fill="none" stroke="midnightblue" d="M246.591,-219C258.977,-219 271.739,-219 283.527,-219"/>
<polygon fill="midnightblue" stroke="midnightblue" points="246.306,-215.5 236.305,-219 246.305,-222.5 246.306,-215.5"/>
</g>
<!-- Node16 -->
<g id="node16" class="node"><title>Node16</title>
<g id="a_node16"><a xlink:href="classhandler_1_1AdminRaw.html" target="_top" xlink:title="Makes the bot execute a raw command (IRC) ">
<polygon fill="none" stroke="black" points="283,-171.5 283,-190.5 385,-190.5 385,-171.5 283,-171.5"/>
<text text-anchor="middle" x="334" y="-178.5" font-family="Helvetica,sans-Serif" font-size="10.00">handler::AdminRaw</text>
</a>
</g>
</g>
<!-- Node11&#45;&gt;Node16 -->
<g id="edge15" class="edge"><title>Node11&#45;&gt;Node16</title>
<path fill="none" stroke="midnightblue" d="M229.16,-206.96C250.395,-201.651 274.995,-195.501 294.92,-190.52"/>
<polygon fill="midnightblue" stroke="midnightblue" points="228.209,-203.59 219.356,-209.411 229.906,-210.381 228.209,-203.59"/>
</g>
<!-- Node17 -->
<g id="node17" class="node"><title>Node17</title>
<g id="a_node17"><a xlink:href="classhandler_1_1License.html" target="_top" xlink:title="Handler showing licensing information. ">
<polygon fill="none" stroke="black" points="290,-133.5 290,-152.5 378,-152.5 378,-133.5 290,-133.5"/>
<text text-anchor="middle" x="334" y="-140.5" font-family="Helvetica,sans-Serif" font-size="10.00">handler::License</text>
</a>
</g>
</g>
<!-- Node11&#45;&gt;Node17 -->
<g id="edge16" class="edge"><title>Node11&#45;&gt;Node17</title>
<path fill="none" stroke="midnightblue" d="M226.085,-205.475C229.538,-203.827 232.887,-202.006 236,-200 255.555,-187.396 252.254,-174.302 272,-162 278.119,-158.187 285.064,-155.086 292.02,-152.58"/>
<polygon fill="midnightblue" stroke="midnightblue" points="224.613,-202.298 216.788,-209.442 227.36,-208.737 224.613,-202.298"/>
</g>
<!-- Node18 -->
<g id="node18" class="node"><title>Node18</title>
<g id="a_node18"><a xlink:href="classhandler_1_1SimpleGroup.html" target="_top" xlink:title="A simple group of actions which share some settings. ">
<polygon fill="none" stroke="black" points="279,-95.5 279,-114.5 389,-114.5 389,-95.5 279,-95.5"/>
<text text-anchor="middle" x="334" y="-102.5" font-family="Helvetica,sans-Serif" font-size="10.00">handler::SimpleGroup</text>
</a>
</g>
</g>
<!-- Node11&#45;&gt;Node18 -->
<g id="edge17" class="edge"><title>Node11&#45;&gt;Node18</title>
<path fill="none" stroke="midnightblue" d="M230.407,-204.312C232.38,-202.995 234.258,-201.561 236,-200 263.838,-175.061 243.782,-148.509 272,-124 276.438,-120.145 281.654,-117.072 287.134,-114.622"/>
<polygon fill="midnightblue" stroke="midnightblue" points="228.316,-201.469 221.259,-209.372 231.704,-207.595 228.316,-201.469"/>
</g>
<!-- Node19 -->
<g id="node19" class="node"><title>Node19</title>
<g id="a_node19"><a xlink:href="classhandler_1_1SimpleWebApi.html" target="_top" xlink:title="Simple base class for handlers calling web resources. ">
<polygon fill="none" stroke="black" points="274.5,-57.5 274.5,-76.5 393.5,-76.5 393.5,-57.5 274.5,-57.5"/>
<text text-anchor="middle" x="334" y="-64.5" font-family="Helvetica,sans-Serif" font-size="10.00">handler::SimpleWebApi</text>
</a>
</g>
</g>
<!-- Node11&#45;&gt;Node19 -->
<g id="edge18" class="edge"><title>Node11&#45;&gt;Node19</title>
<path fill="none" stroke="midnightblue" d="M231.391,-204.067C233.027,-202.819 234.573,-201.466 236,-200 273.065,-161.93 234.356,-123.497 272,-86 275.929,-82.0861 280.651,-78.9762 285.705,-76.5057"/>
<polygon fill="midnightblue" stroke="midnightblue" points="229.27,-201.263 222.583,-209.48 232.935,-207.226 229.27,-201.263"/>
</g>
<!-- Node25 -->
<g id="node25" class="node"><title>Node25</title>
<g id="a_node25"><a xlink:href="classhandler_1_1WhoisCheckMe.html" target="_top" xlink:title="Sends a WHOIS about the message sender. ">
<polygon fill="none" stroke="black" points="272,-19.5 272,-38.5 396,-38.5 396,-19.5 272,-19.5"/>
<text text-anchor="middle" x="334" y="-26.5" font-family="Helvetica,sans-Serif" font-size="10.00">handler::WhoisCheckMe</text>
</a>
</g>
</g>
<!-- Node11&#45;&gt;Node25 -->
<g id="edge24" class="edge"><title>Node11&#45;&gt;Node25</title>
<path fill="none" stroke="midnightblue" d="M232.089,-203.741C233.478,-202.584 234.789,-201.339 236,-200 282.574,-148.516 224.642,-98.7639 272,-48 275.632,-44.1069 280.046,-41.0057 284.822,-38.5364"/>
<polygon fill="midnightblue" stroke="midnightblue" points="229.832,-201.036 223.4,-209.455 233.679,-206.884 229.832,-201.036"/>
</g>
<!-- Node20 -->
<g id="node20" class="node"><title>Node20</title>
<g id="a_node20"><a xlink:href="classhandler_1_1SimpleJson.html" target="_top" xlink:title="Simple base class for handlers using AJAX web APIs. ">
<polygon fill="none" stroke="black" points="432,-57.5 432,-76.5 537,-76.5 537,-57.5 432,-57.5"/>
<text text-anchor="middle" x="484.5" y="-64.5" font-family="Helvetica,sans-Serif" font-size="10.00">handler::SimpleJson</text>
</a>
</g>
</g>
<!-- Node19&#45;&gt;Node20 -->
<g id="edge19" class="edge"><title>Node19&#45;&gt;Node20</title>
<path fill="none" stroke="midnightblue" d="M403.874,-67C413.326,-67 422.896,-67 431.966,-67"/>
<polygon fill="midnightblue" stroke="midnightblue" points="403.691,-63.5001 393.691,-67 403.691,-70.5001 403.691,-63.5001"/>
</g>
<!-- Node21 -->
<g id="node21" class="node"><title>Node21</title>
<g id="a_node21"><a xlink:href="classhandler_1_1SearchImageGoogle.html" target="_top" xlink:title="Handler searching images with Google. ">
<polygon fill="none" stroke="black" points="574.5,-114.5 574.5,-133.5 717.5,-133.5 717.5,-114.5 574.5,-114.5"/>
<text text-anchor="middle" x="646" y="-121.5" font-family="Helvetica,sans-Serif" font-size="10.00">handler::SearchImageGoogle</text>
</a>
</g>
</g>
<!-- Node20&#45;&gt;Node21 -->
<g id="edge20" class="edge"><title>Node20&#45;&gt;Node21</title>
<path fill="none" stroke="midnightblue" d="M514.6,-80.9608C531.417,-88.6923 553.118,-98.1042 573,-105 583.016,-108.474 594.002,-111.672 604.31,-114.414"/>
<polygon fill="midnightblue" stroke="midnightblue" points="515.856,-77.685 505.314,-76.6346 512.9,-84.0302 515.856,-77.685"/>
</g>
<!-- Node22 -->
<g id="node22" class="node"><title>Node22</title>
<g id="a_node22"><a xlink:href="classhandler_1_1SearchVideoYoutube.html" target="_top" xlink:title="Handler searching a video on Youtube. ">
<polygon fill="none" stroke="black" points="573,-76.5 573,-95.5 719,-95.5 719,-76.5 573,-76.5"/>
<text text-anchor="middle" x="646" y="-83.5" font-family="Helvetica,sans-Serif" font-size="10.00">handler::SearchVideoYoutube</text>
</a>
</g>
</g>
<!-- Node20&#45;&gt;Node22 -->
<g id="edge21" class="edge"><title>Node20&#45;&gt;Node22</title>
<path fill="none" stroke="midnightblue" d="M547.336,-74.3661C555.711,-75.3637 564.364,-76.3945 572.9,-77.4112"/>
<polygon fill="midnightblue" stroke="midnightblue" points="547.629,-70.8763 537.285,-73.1688 546.801,-77.8271 547.629,-70.8763"/>
</g>
<!-- Node23 -->
<g id="node23" class="node"><title>Node23</title>
<g id="a_node23"><a xlink:href="classhandler_1_1SearchWebSearx.html" target="_top" xlink:title="Handler searching a web page using Searx. ">
<polygon fill="none" stroke="black" points="580.5,-38.5 580.5,-57.5 711.5,-57.5 711.5,-38.5 580.5,-38.5"/>
<text text-anchor="middle" x="646" y="-45.5" font-family="Helvetica,sans-Serif" font-size="10.00">handler::SearchWebSearx</text>
</a>
</g>
</g>
<!-- Node20&#45;&gt;Node23 -->
<g id="edge22" class="edge"><title>Node20&#45;&gt;Node23</title>
<path fill="none" stroke="midnightblue" d="M547.46,-59.6192C558.248,-58.3341 569.493,-56.9946 580.351,-55.7012"/>
<polygon fill="midnightblue" stroke="midnightblue" points="546.801,-56.1729 537.285,-60.8312 547.629,-63.1237 546.801,-56.1729"/>
</g>
<!-- Node24 -->
<g id="node24" class="node"><title>Node24</title>
<g id="a_node24"><a xlink:href="classhandler_1_1UrbanDictionary.html" target="_top" xlink:title="Handler searching a definition on Urban Dictionary. ">
<polygon fill="none" stroke="black" points="583.5,-0.5 583.5,-19.5 708.5,-19.5 708.5,-0.5 583.5,-0.5"/>
<text text-anchor="middle" x="646" y="-7.5" font-family="Helvetica,sans-Serif" font-size="10.00">handler::UrbanDictionary</text>
</a>
</g>
</g>
<!-- Node20&#45;&gt;Node24 -->
<g id="edge23" class="edge"><title>Node20&#45;&gt;Node24</title>
<path fill="none" stroke="midnightblue" d="M514.6,-53.0392C531.417,-45.3077 553.118,-35.8958 573,-29 583.016,-25.5262 594.002,-22.3284 604.31,-19.5862"/>
<polygon fill="midnightblue" stroke="midnightblue" points="512.9,-49.9698 505.314,-57.3654 515.856,-56.315 512.9,-49.9698"/>
</g>
</g>
</svg>
