<?xml version="1.0" encoding="UTF-8" standalone="no"?>
<!DOCTYPE svg PUBLIC "-//W3C//DTD SVG 1.1//EN"
 "http://www.w3.org/Graphics/SVG/1.1/DTD/svg11.dtd">
<!-- Generated by graphviz version 2.38.0 (20140413.2041)
 -->
<!-- Title: Graphical Class Hierarchy Pages: 1 -->
<svg width="722pt" height="313pt"
 viewBox="0.00 0.00 722.00 313.00" xmlns="http://www.w3.org/2000/svg" xmlns:xlink="http://www.w3.org/1999/xlink">
<g id="graph0" class="graph" transform="scale(1 1) rotate(0) translate(4 309)">
<title>Graphical Class Hierarchy</title>
<!-- Node1 -->
<g id="node1" class="node"><title>Node1</title>
<g id="a_node1"><a xlink:href="classhandler_1_1Handler.html" target="_top" xlink:title="Message handler abstract base class. ">
<polygon fill="none" stroke="black" points="0,-190.5 0,-209.5 88,-209.5 88,-190.5 0,-190.5"/>
<text text-anchor="middle" x="44" y="-197.5" font-family="Helvetica,sans-Serif" font-size="10.00">handler::Handler</text>
</a>
</g>
</g>
<!-- Node2 -->
<g id="node2" class="node"><title>Node2</title>
<g id="a_node2"><a xlink:href="classhandler_1_1AcceptInvite.html" target="_top" xlink:title="Makes the bot join channels (IRC) ">
<polygon fill="none" stroke="black" points="125.5,-209.5 125.5,-228.5 234.5,-228.5 234.5,-209.5 125.5,-209.5"/>
<text text-anchor="middle" x="180" y="-216.5" font-family="Helvetica,sans-Serif" font-size="10.00">handler::AcceptInvite</text>
</a>
</g>
</g>
<!-- Node1&#45;&gt;Node2 -->
<g id="edge1" class="edge"><title>Node1&#45;&gt;Node2</title>
<path fill="none" stroke="midnightblue" d="M98.3073,-207.558C107.134,-208.81 116.293,-210.109 125.134,-211.362"/>
<polygon fill="midnightblue" stroke="midnightblue" points="98.5284,-204.055 88.136,-206.116 97.5456,-210.986 98.5284,-204.055"/>
</g>
<!-- Node3 -->
<g id="node3" class="node"><title>Node3</title>
<g id="a_node3"><a xlink:href="classhandler_1_1SimpleAction.html" target="_top" xlink:title="A simple action sends a message to the same connection it came from. ">
<polygon fill="none" stroke="black" points="124,-171.5 124,-190.5 236,-190.5 236,-171.5 124,-171.5"/>
<text text-anchor="middle" x="180" y="-178.5" font-family="Helvetica,sans-Serif" font-size="10.00">handler::SimpleAction</text>
</a>
</g>
</g>
<!-- Node1&#45;&gt;Node3 -->
<g id="edge2" class="edge"><title>Node1&#45;&gt;Node3</title>
<path fill="none" stroke="midnightblue" d="M98.1802,-192.46C106.568,-191.27 115.258,-190.038 123.693,-188.842"/>
<polygon fill="midnightblue" stroke="midnightblue" points="97.5456,-189.014 88.136,-193.884 98.5284,-195.945 97.5456,-189.014"/>
</g>
<!-- Node4 -->
<g id="node4" class="node"><title>Node4</title>
<g id="a_node4"><a xlink:href="classhandler_1_1AdminJoin.html" target="_top" xlink:title="Makes the bot join channels (IRC) ">
<polygon fill="none" stroke="black" points="281.5,-285.5 281.5,-304.5 381.5,-304.5 381.5,-285.5 281.5,-285.5"/>
<text text-anchor="middle" x="331.5" y="-292.5" font-family="Helvetica,sans-Serif" font-size="10.00">handler::AdminJoin</text>
</a>
</g>
</g>
<!-- Node3&#45;&gt;Node4 -->
<g id="edge3" class="edge"><title>Node3&#45;&gt;Node4</title>
<path fill="none" stroke="midnightblue" d="M230.407,-195.688C232.38,-197.005 234.258,-198.439 236,-200 263.838,-224.939 243.931,-251.321 272,-276 276.411,-279.878 281.626,-282.967 287.098,-285.426"/>
<polygon fill="midnightblue" stroke="midnightblue" points="231.704,-192.405 221.259,-190.628 228.316,-198.531 231.704,-192.405"/>
</g>
<!-- Node5 -->
<g id="node5" class="node"><title>Node5</title>
<g id="a_node5"><a xlink:href="classhandler_1_1AdminNick.html" target="_top" xlink:title="Changes the bot nick (IRC) ">
<polygon fill="none" stroke="black" points="280.5,-247.5 280.5,-266.5 382.5,-266.5 382.5,-247.5 280.5,-247.5"/>
<text text-anchor="middle" x="331.5" y="-254.5" font-family="Helvetica,sans-Serif" font-size="10.00">handler::AdminNick</text>
</a>
</g>
</g>
<!-- Node3&#45;&gt;Node5 -->
<g id="edge4" class="edge"><title>Node3&#45;&gt;Node5</title>
<path fill="none" stroke="midnightblue" d="M226.085,-194.525C229.538,-196.173 232.887,-197.994 236,-200 255.555,-212.604 252.329,-225.579 272,-238 278.049,-241.82 284.939,-244.942 291.816,-247.469"/>
<polygon fill="midnightblue" stroke="midnightblue" points="227.36,-191.263 216.788,-190.558 224.613,-197.702 227.36,-191.263"/>
</g>
<!-- Node6 -->
<g id="node6" class="node"><title>Node6</title>
<g id="a_node6"><a xlink:href="classhandler_1_1AdminPart.html" target="_top" xlink:title="Makes the bot part channels (IRC) ">
<polygon fill="none" stroke="black" points="281.5,-209.5 281.5,-228.5 381.5,-228.5 381.5,-209.5 281.5,-209.5"/>
<text text-anchor="middle" x="331.5" y="-216.5" font-family="Helvetica,sans-Serif" font-size="10.00">handler::AdminPart</text>
</a>
</g>
</g>
<!-- Node3&#45;&gt;Node6 -->
<g id="edge5" class="edge"><title>Node3&#45;&gt;Node6</title>
<path fill="none" stroke="midnightblue" d="M228.652,-193.112C249.473,-198.404 273.538,-204.521 293.046,-209.48"/>
<polygon fill="midnightblue" stroke="midnightblue" points="229.279,-189.66 218.725,-190.589 227.555,-196.445 229.279,-189.66"/>
</g>
<!-- Node7 -->
<g id="node7" class="node"><title>Node7</title>
<g id="a_node7"><a xlink:href="classhandler_1_1AdminQuit.html" target="_top" xlink:title="Quits the bot. ">
<polygon fill="none" stroke="black" points="281.5,-171.5 281.5,-190.5 381.5,-190.5 381.5,-171.5 281.5,-171.5"/>
<text text-anchor="middle" x="331.5" y="-178.5" font-family="Helvetica,sans-Serif" font-size="10.00">handler::AdminQuit</text>
</a>
</g>
</g>
<!-- Node3&#45;&gt;Node7 -->
<g id="edge6" class="edge"><title>Node3&#45;&gt;Node7</title>
<path fill="none" stroke="midnightblue" d="M246.446,-181C258.181,-181 270.226,-181 281.401,-181"/>
<polygon fill="midnightblue" stroke="midnightblue" points="246.244,-177.5 236.244,-181 246.243,-184.5 246.244,-177.5"/>
</g>
<!-- Node8 -->
<g id="node8" class="node"><title>Node8</title>
<g id="a_node8"><a xlink:href="classhandler_1_1License.html" target="_top" xlink:title="Handler showing licensing information. ">
<polygon fill="none" stroke="black" points="287.5,-133.5 287.5,-152.5 375.5,-152.5 375.5,-133.5 287.5,-133.5"/>
<text text-anchor="middle" x="331.5" y="-140.5" font-family="Helvetica,sans-Serif" font-size="10.00">handler::License</text>
</a>
</g>
</g>
<!-- Node3&#45;&gt;Node8 -->
<g id="edge7" class="edge"><title>Node3&#45;&gt;Node8</title>
<path fill="none" stroke="midnightblue" d="M228.652,-168.888C249.473,-163.596 273.538,-157.479 293.046,-152.52"/>
<polygon fill="midnightblue" stroke="midnightblue" points="227.555,-165.555 218.725,-171.411 229.279,-172.34 227.555,-165.555"/>
</g>
<!-- Node9 -->
<g id="node9" class="node"><title>Node9</title>
<g id="a_node9"><a xlink:href="classhandler_1_1SimpleGroup.html" target="_top" xlink:title="A simple group of actions which share some settings. ">
<polygon fill="none" stroke="black" points="276.5,-95.5 276.5,-114.5 386.5,-114.5 386.5,-95.5 276.5,-95.5"/>
<text text-anchor="middle" x="331.5" y="-102.5" font-family="Helvetica,sans-Serif" font-size="10.00">handler::SimpleGroup</text>
</a>
</g>
</g>
<!-- Node3&#45;&gt;Node9 -->
<g id="edge8" class="edge"><title>Node3&#45;&gt;Node9</title>
<path fill="none" stroke="midnightblue" d="M202.512,-165.401C220.43,-152.939 246.971,-135.686 272,-124 279.644,-120.431 288.141,-117.256 296.237,-114.57"/>
<polygon fill="midnightblue" stroke="midnightblue" points="200.131,-162.798 193.982,-171.426 204.169,-168.515 200.131,-162.798"/>
</g>
<!-- Node10 -->
<g id="node10" class="node"><title>Node10</title>
<g id="a_node10"><a xlink:href="classhandler_1_1SimpleWebApi.html" target="_top" xlink:title="Simple base class for handlers calling web resources. ">
<polygon fill="none" stroke="black" points="272,-57.5 272,-76.5 391,-76.5 391,-57.5 272,-57.5"/>
<text text-anchor="middle" x="331.5" y="-64.5" font-family="Helvetica,sans-Serif" font-size="10.00">handler::SimpleWebApi</text>
</a>
</g>
</g>
<!-- Node3&#45;&gt;Node10 -->
<g id="edge9" class="edge"><title>Node3&#45;&gt;Node10</title>
<path fill="none" stroke="midnightblue" d="M193.599,-163.262C209.56,-142.019 238.993,-106.715 272,-86 278.06,-82.1967 284.955,-79.0828 291.833,-76.5579"/>
<polygon fill="midnightblue" stroke="midnightblue" points="190.706,-161.288 187.613,-171.421 196.35,-165.429 190.706,-161.288"/>
</g>
<!-- Node11 -->
<g id="node11" class="node"><title>Node11</title>
<g id="a_node11"><a xlink:href="classhandler_1_1SimpleJson.html" target="_top" xlink:title="Simple base class for handlers using AJAX web APIs. ">
<polygon fill="none" stroke="black" points="427,-57.5 427,-76.5 532,-76.5 532,-57.5 427,-57.5"/>
<text text-anchor="middle" x="479.5" y="-64.5" font-family="Helvetica,sans-Serif" font-size="10.00">handler::SimpleJson</text>
</a>
</g>
</g>
<!-- Node10&#45;&gt;Node11 -->
<g id="edge10" class="edge"><title>Node10&#45;&gt;Node11</title>
<path fill="none" stroke="midnightblue" d="M401.044,-67C409.62,-67 418.279,-67 426.544,-67"/>
<polygon fill="midnightblue" stroke="midnightblue" points="401.043,-63.5001 391.043,-67 401.043,-70.5001 401.043,-63.5001"/>
</g>
<!-- Node12 -->
<g id="node12" class="node"><title>Node12</title>
<g id="a_node12"><a xlink:href="classhandler_1_1SearchImageGoogle.html" target="_top" xlink:title="Handler searching images with Google. ">
<polygon fill="none" stroke="black" points="569.5,-114.5 569.5,-133.5 712.5,-133.5 712.5,-114.5 569.5,-114.5"/>
<text text-anchor="middle" x="641" y="-121.5" font-family="Helvetica,sans-Serif" font-size="10.00">handler::SearchImageGoogle</text>
</a>
</g>
</g>
<!-- Node11&#45;&gt;Node12 -->
<g id="edge11" class="edge"><title>Node11&#45;&gt;Node12</title>
<path fill="none" stroke="midnightblue" d="M509.6,-80.9608C526.417,-88.6923 548.118,-98.1042 568,-105 578.016,-108.474 589.002,-111.672 599.31,-114.414"/>
<polygon fill="midnightblue" stroke="midnightblue" points="510.856,-77.685 500.314,-76.6346 507.9,-84.0302 510.856,-77.685"/>
</g>
<!-- Node13 -->
<g id="node13" class="node"><title>Node13</title>
<g id="a_node13"><a xlink:href="classhandler_1_1SearchVideoYoutube.html" target="_top" xlink:title="Handler searching a video on Youtube. ">
<polygon fill="none" stroke="black" points="568,-76.5 568,-95.5 714,-95.5 714,-76.5 568,-76.5"/>
<text text-anchor="middle" x="641" y="-83.5" font-family="Helvetica,sans-Serif" font-size="10.00">handler::SearchVideoYoutube</text>
</a>
</g>
</g>
<!-- Node11&#45;&gt;Node13 -->
<g id="edge12" class="edge"><title>Node11&#45;&gt;Node13</title>
<path fill="none" stroke="midnightblue" d="M542.336,-74.3661C550.711,-75.3637 559.364,-76.3945 567.9,-77.4112"/>
<polygon fill="midnightblue" stroke="midnightblue" points="542.629,-70.8763 532.285,-73.1688 541.801,-77.8271 542.629,-70.8763"/>
</g>
<!-- Node14 -->
<g id="node14" class="node"><title>Node14</title>
<g id="a_node14"><a xlink:href="classhandler_1_1SearchWebSearx.html" target="_top" xlink:title="Handler searching a web page using Searx. ">
<polygon fill="none" stroke="black" points="575.5,-38.5 575.5,-57.5 706.5,-57.5 706.5,-38.5 575.5,-38.5"/>
<text text-anchor="middle" x="641" y="-45.5" font-family="Helvetica,sans-Serif" font-size="10.00">handler::SearchWebSearx</text>
</a>
</g>
</g>
<!-- Node11&#45;&gt;Node14 -->
<g id="edge13" class="edge"><title>Node11&#45;&gt;Node14</title>
<path fill="none" stroke="midnightblue" d="M542.46,-59.6192C553.248,-58.3341 564.493,-56.9946 575.351,-55.7012"/>
<polygon fill="midnightblue" stroke="midnightblue" points="541.801,-56.1729 532.285,-60.8312 542.629,-63.1237 541.801,-56.1729"/>
</g>
<!-- Node15 -->
<g id="node15" class="node"><title>Node15</title>
<g id="a_node15"><a xlink:href="classhandler_1_1UrbanDictionary.html" target="_top" xlink:title="Handler searching a definition on Urban Dictionary. ">
<polygon fill="none" stroke="black" points="578.5,-0.5 578.5,-19.5 703.5,-19.5 703.5,-0.5 578.5,-0.5"/>
<text text-anchor="middle" x="641" y="-7.5" font-family="Helvetica,sans-Serif" font-size="10.00">handler::UrbanDictionary</text>
</a>
</g>
</g>
<!-- Node11&#45;&gt;Node15 -->
<g id="edge14" class="edge"><title>Node11&#45;&gt;Node15</title>
<path fill="none" stroke="midnightblue" d="M509.6,-53.0392C526.417,-45.3077 548.118,-35.8958 568,-29 578.016,-25.5262 589.002,-22.3284 599.31,-19.5862"/>
<polygon fill="midnightblue" stroke="midnightblue" points="507.9,-49.9698 500.314,-57.3654 510.856,-56.315 507.9,-49.9698"/>
</g>
</g>
</svg>
