<?xml version="1.0" encoding="UTF-8" standalone="no"?>
<!DOCTYPE svg PUBLIC "-//W3C//DTD SVG 1.1//EN"
 "http://www.w3.org/Graphics/SVG/1.1/DTD/svg11.dtd">
<!-- Generated by graphviz version 2.38.0 (20140413.2041)
 -->
<!-- Title: src/network/irc_buffer.hpp Pages: 1 -->
<svg width="1290pt" height="386pt"
 viewBox="0.00 0.00 1289.94 386.00" xmlns="http://www.w3.org/2000/svg" xmlns:xlink="http://www.w3.org/1999/xlink">
<g id="graph0" class="graph" transform="scale(1 1) rotate(0) translate(4 382)">
<title>src/network/irc_buffer.hpp</title>
<!-- Node1 -->
<g id="node1" class="node"><title>Node1</title>
<polygon fill="#bfbfbf" stroke="black" points="791.441,-358.5 791.441,-377.5 921.441,-377.5 921.441,-358.5 791.441,-358.5"/>
<text text-anchor="middle" x="856.441" y="-365.5" font-family="Helvetica,sans-Serif" font-size="10.00">src/network/irc_buffer.hpp</text>
</g>
<!-- Node2 -->
<g id="node2" class="node"><title>Node2</title>
<polygon fill="none" stroke="#bfbfbf" points="280.441,-129 280.441,-148 324.441,-148 324.441,-129 280.441,-129"/>
<text text-anchor="middle" x="302.441" y="-136" font-family="Helvetica,sans-Serif" font-size="10.00">mutex</text>
</g>
<!-- Node1&#45;&gt;Node2 -->
<g id="edge1" class="edge"><title>Node1&#45;&gt;Node2</title>
<path fill="none" stroke="midnightblue" d="M790.982,-361.387C670.844,-349.885 421.411,-320.059 355.441,-266 321.933,-238.542 309.283,-186.221 304.768,-158.244"/>
<polygon fill="midnightblue" stroke="midnightblue" points="308.212,-157.6 303.332,-148.196 301.282,-158.59 308.212,-157.6"/>
</g>
<!-- Node3 -->
<g id="node3" class="node"><title>Node3</title>
<polygon fill="none" stroke="#bfbfbf" points="995.441,-302.5 995.441,-321.5 1039.44,-321.5 1039.44,-302.5 995.441,-302.5"/>
<text text-anchor="middle" x="1017.44" y="-309.5" font-family="Helvetica,sans-Serif" font-size="10.00">thread</text>
</g>
<!-- Node1&#45;&gt;Node3 -->
<g id="edge2" class="edge"><title>Node1&#45;&gt;Node3</title>
<path fill="none" stroke="midnightblue" d="M881.952,-358.444C909.993,-349.038 955.085,-333.914 985.467,-323.724"/>
<polygon fill="midnightblue" stroke="midnightblue" points="986.792,-326.971 995.16,-320.473 984.566,-320.335 986.792,-326.971"/>
</g>
<!-- Node4 -->
<g id="node4" class="node"><title>Node4</title>
<polygon fill="none" stroke="#bfbfbf" points="1057.44,-302.5 1057.44,-321.5 1137.44,-321.5 1137.44,-302.5 1057.44,-302.5"/>
<text text-anchor="middle" x="1097.44" y="-309.5" font-family="Helvetica,sans-Serif" font-size="10.00">boost/asio.hpp</text>
</g>
<!-- Node1&#45;&gt;Node4 -->
<g id="edge3" class="edge"><title>Node1&#45;&gt;Node4</title>
<path fill="none" stroke="midnightblue" d="M894.628,-358.444C936.582,-349.043 1004.03,-333.929 1049.51,-323.739"/>
<polygon fill="midnightblue" stroke="midnightblue" points="1050.44,-327.118 1059.43,-321.516 1048.91,-320.288 1050.44,-327.118"/>
</g>
<!-- Node5 -->
<g id="node5" class="node"><title>Node5</title>
<g id="a_node5"><a xlink:href="connection_8hpp.html" target="_top" xlink:title="connection.hpp">
<polygon fill="none" stroke="black" points="642.941,-302.5 642.941,-321.5 725.941,-321.5 725.941,-302.5 642.941,-302.5"/>
<text text-anchor="middle" x="684.441" y="-309.5" font-family="Helvetica,sans-Serif" font-size="10.00">connection.hpp</text>
</a>
</g>
</g>
<!-- Node1&#45;&gt;Node5 -->
<g id="edge4" class="edge"><title>Node1&#45;&gt;Node5</title>
<path fill="none" stroke="midnightblue" d="M829.187,-358.444C800,-349.28 753.52,-334.688 721.131,-324.519"/>
<polygon fill="midnightblue" stroke="midnightblue" points="722.156,-321.173 711.567,-321.516 720.06,-327.851 722.156,-321.173"/>
</g>
<!-- Node20 -->
<g id="node20" class="node"><title>Node20</title>
<g id="a_node20"><a xlink:href="logger_8hpp.html" target="_top" xlink:title="string/logger.hpp">
<polygon fill="none" stroke="black" points="628.941,-190.5 628.941,-209.5 717.941,-209.5 717.941,-190.5 628.941,-190.5"/>
<text text-anchor="middle" x="673.441" y="-197.5" font-family="Helvetica,sans-Serif" font-size="10.00">string/logger.hpp</text>
</a>
</g>
</g>
<!-- Node1&#45;&gt;Node20 -->
<g id="edge68" class="edge"><title>Node1&#45;&gt;Node20</title>
<path fill="none" stroke="midnightblue" d="M849.584,-358.422C832.733,-337.649 787.383,-283.589 742.441,-246 728.447,-234.296 711.267,-223.082 697.55,-214.777"/>
<polygon fill="midnightblue" stroke="midnightblue" points="699.076,-211.612 688.689,-209.521 695.505,-217.633 699.076,-211.612"/>
</g>
<!-- Node38 -->
<g id="node38" class="node"><title>Node38</title>
<g id="a_node38"><a xlink:href="concurrent__container_8hpp.html" target="_top" xlink:title="concurrent_container.hpp">
<polygon fill="none" stroke="black" points="851.441,-302.5 851.441,-321.5 977.441,-321.5 977.441,-302.5 851.441,-302.5"/>
<text text-anchor="middle" x="914.441" y="-309.5" font-family="Helvetica,sans-Serif" font-size="10.00">concurrent_container.hpp</text>
</a>
</g>
</g>
<!-- Node1&#45;&gt;Node38 -->
<g id="edge62" class="edge"><title>Node1&#45;&gt;Node38</title>
<path fill="none" stroke="midnightblue" d="M865.759,-358.324C874.333,-350.341 887.253,-338.313 897.628,-328.653"/>
<polygon fill="midnightblue" stroke="midnightblue" points="900.018,-331.21 904.952,-321.834 895.248,-326.086 900.018,-331.21"/>
</g>
<!-- Node6 -->
<g id="node6" class="node"><title>Node6</title>
<polygon fill="none" stroke="#bfbfbf" points="865.441,-246.5 865.441,-265.5 911.441,-265.5 911.441,-246.5 865.441,-246.5"/>
<text text-anchor="middle" x="888.441" y="-253.5" font-family="Helvetica,sans-Serif" font-size="10.00">atomic</text>
</g>
<!-- Node5&#45;&gt;Node6 -->
<g id="edge5" class="edge"><title>Node5&#45;&gt;Node6</title>
<path fill="none" stroke="midnightblue" d="M716.765,-302.444C754.556,-292.44 816.791,-275.966 855.039,-265.842"/>
<polygon fill="midnightblue" stroke="midnightblue" points="856.38,-269.107 865.151,-263.165 854.588,-262.34 856.38,-269.107"/>
</g>
<!-- Node7 -->
<g id="node7" class="node"><title>Node7</title>
<polygon fill="none" stroke="#bfbfbf" points="687.441,-246.5 687.441,-265.5 733.441,-265.5 733.441,-246.5 687.441,-246.5"/>
<text text-anchor="middle" x="710.441" y="-253.5" font-family="Helvetica,sans-Serif" font-size="10.00">chrono</text>
</g>
<!-- Node5&#45;&gt;Node7 -->
<g id="edge6" class="edge"><title>Node5&#45;&gt;Node7</title>
<path fill="none" stroke="midnightblue" d="M688.734,-302.083C692.293,-294.691 697.463,-283.953 701.865,-274.811"/>
<polygon fill="midnightblue" stroke="midnightblue" points="705.043,-276.279 706.227,-265.751 698.735,-273.243 705.043,-276.279"/>
</g>
<!-- Node8 -->
<g id="node8" class="node"><title>Node8</title>
<polygon fill="none" stroke="#bfbfbf" points="1055.44,-6 1055.44,-25 1101.44,-25 1101.44,-6 1055.44,-6"/>
<text text-anchor="middle" x="1078.44" y="-13" font-family="Helvetica,sans-Serif" font-size="10.00">cstdint</text>
</g>
<!-- Node5&#45;&gt;Node8 -->
<g id="edge7" class="edge"><title>Node5&#45;&gt;Node8</title>
<path fill="none" stroke="midnightblue" d="M709.274,-302.38C734.401,-293.567 774.304,-279.318 808.441,-266 810.32,-265.267 1074.67,-154.959 1076.44,-154 1123.18,-128.743 1150.53,-133.93 1175.44,-87 1179.61,-79.1483 1180.05,-74.5993 1175.44,-67 1171.45,-60.4299 1133.71,-41.9701 1106.5,-29.2882"/>
<polygon fill="midnightblue" stroke="midnightblue" points="1107.94,-26.0953 1097.39,-25.0724 1105,-32.4482 1107.94,-26.0953"/>
</g>
<!-- Node9 -->
<g id="node9" class="node"><title>Node9</title>
<polygon fill="none" stroke="#bfbfbf" points="336.441,-67.5 336.441,-86.5 388.441,-86.5 388.441,-67.5 336.441,-67.5"/>
<text text-anchor="middle" x="362.441" y="-74.5" font-family="Helvetica,sans-Serif" font-size="10.00">sstream</text>
</g>
<!-- Node5&#45;&gt;Node9 -->
<g id="edge8" class="edge"><title>Node5&#45;&gt;Node9</title>
<path fill="none" stroke="midnightblue" d="M642.782,-311.284C566.057,-310.839 406.989,-305.095 371.441,-266 328.409,-218.675 345.923,-133.803 356.551,-96.4745"/>
<polygon fill="midnightblue" stroke="midnightblue" points="360.019,-97.095 359.553,-86.5105 353.317,-95.0754 360.019,-97.095"/>
</g>
<!-- Node10 -->
<g id="node10" class="node"><title>Node10</title>
<g id="a_node10"><a xlink:href="string_8hpp.html" target="_top" xlink:title="string/string.hpp">
<polygon fill="none" stroke="black" points="981.441,-129 981.441,-148 1067.44,-148 1067.44,-129 981.441,-129"/>
<text text-anchor="middle" x="1024.44" y="-136" font-family="Helvetica,sans-Serif" font-size="10.00">string/string.hpp</text>
</a>
</g>
</g>
<!-- Node5&#45;&gt;Node10 -->
<g id="edge9" class="edge"><title>Node5&#45;&gt;Node10</title>
<path fill="none" stroke="midnightblue" d="M701.301,-302.495C756.473,-274.666 931.893,-186.182 998.472,-152.599"/>
<polygon fill="midnightblue" stroke="midnightblue" points="1000.13,-155.685 1007.48,-148.056 996.974,-149.435 1000.13,-155.685"/>
</g>
<!-- Node5&#45;&gt;Node20 -->
<g id="edge23" class="edge"><title>Node5&#45;&gt;Node20</title>
<path fill="none" stroke="midnightblue" d="M683.147,-302.39C681.823,-293.346 679.775,-278.698 678.441,-266 676.813,-250.503 675.49,-232.876 674.615,-219.891"/>
<polygon fill="midnightblue" stroke="midnightblue" points="678.103,-219.599 673.964,-209.846 671.118,-220.051 678.103,-219.599"/>
</g>
<!-- Node28 -->
<g id="node28" class="node"><title>Node28</title>
<g id="a_node28"><a xlink:href="string__functions_8hpp.html" target="_top" xlink:title="string/string_functions.hpp">
<polygon fill="none" stroke="black" points="130.941,-129 130.941,-148 261.941,-148 261.941,-129 130.941,-129"/>
<text text-anchor="middle" x="196.441" y="-136" font-family="Helvetica,sans-Serif" font-size="10.00">string/string_functions.hpp</text>
</a>
</g>
</g>
<!-- Node5&#45;&gt;Node28 -->
<g id="edge42" class="edge"><title>Node5&#45;&gt;Node28</title>
<path fill="none" stroke="midnightblue" d="M642.792,-308.656C563.029,-303.669 391.886,-290.416 338.441,-266 282.076,-240.25 232.032,-184.262 209.338,-156.215"/>
<polygon fill="midnightblue" stroke="midnightblue" points="211.912,-153.827 202.957,-148.164 206.426,-158.175 211.912,-153.827"/>
</g>
<!-- Node33 -->
<g id="node33" class="node"><title>Node33</title>
<g id="a_node33"><a xlink:href="auth__system_8hpp.html" target="_top" xlink:title="user/auth_system.hpp">
<polygon fill="none" stroke="black" points="380.941,-246.5 380.941,-265.5 493.941,-265.5 493.941,-246.5 380.941,-246.5"/>
<text text-anchor="middle" x="437.441" y="-253.5" font-family="Helvetica,sans-Serif" font-size="10.00">user/auth_system.hpp</text>
</a>
</g>
</g>
<!-- Node5&#45;&gt;Node33 -->
<g id="edge50" class="edge"><title>Node5&#45;&gt;Node33</title>
<path fill="none" stroke="midnightblue" d="M645.303,-302.444C602.214,-293.023 532.882,-277.866 486.27,-267.675"/>
<polygon fill="midnightblue" stroke="midnightblue" points="486.912,-264.233 476.395,-265.516 485.417,-271.072 486.912,-264.233"/>
</g>
<!-- Node36 -->
<g id="node36" class="node"><title>Node36</title>
<g id="a_node36"><a xlink:href="user__manager_8hpp.html" target="_top" xlink:title="user/user_manager.hpp">
<polygon fill="none" stroke="black" points="511.941,-246.5 511.941,-265.5 630.941,-265.5 630.941,-246.5 511.941,-246.5"/>
<text text-anchor="middle" x="571.441" y="-253.5" font-family="Helvetica,sans-Serif" font-size="10.00">user/user_manager.hpp</text>
</a>
</g>
</g>
<!-- Node5&#45;&gt;Node36 -->
<g id="edge59" class="edge"><title>Node5&#45;&gt;Node36</title>
<path fill="none" stroke="midnightblue" d="M666.536,-302.444C648.187,-293.675 619.435,-279.935 598.347,-269.858"/>
<polygon fill="midnightblue" stroke="midnightblue" points="599.794,-266.67 589.262,-265.516 596.776,-272.986 599.794,-266.67"/>
</g>
<!-- Node10&#45;&gt;Node8 -->
<g id="edge10" class="edge"><title>Node10&#45;&gt;Node8</title>
<path fill="none" stroke="midnightblue" d="M1033.3,-128.661C1042.29,-119.182 1055.9,-103.285 1063.44,-87 1071.07,-70.5134 1074.87,-50.0511 1076.73,-35.4255"/>
<polygon fill="midnightblue" stroke="midnightblue" points="1080.25,-35.4529 1077.84,-25.1349 1073.29,-34.7013 1080.25,-35.4529"/>
</g>
<!-- Node10&#45;&gt;Node9 -->
<g id="edge15" class="edge"><title>Node10&#45;&gt;Node9</title>
<path fill="none" stroke="midnightblue" d="M981.229,-132.225C956.437,-129.294 924.714,-125.705 896.441,-123 691.862,-103.431 639.92,-107.579 435.441,-87 423.573,-85.8057 410.647,-84.2847 399.015,-82.8345"/>
<polygon fill="midnightblue" stroke="midnightblue" points="399.125,-79.3205 388.764,-81.534 398.244,-86.2648 399.125,-79.3205"/>
</g>
<!-- Node11 -->
<g id="node11" class="node"><title>Node11</title>
<polygon fill="none" stroke="#bfbfbf" points="1222.94,-67.5 1222.94,-86.5 1281.94,-86.5 1281.94,-67.5 1222.94,-67.5"/>
<text text-anchor="middle" x="1252.44" y="-74.5" font-family="Helvetica,sans-Serif" font-size="10.00">functional</text>
</g>
<!-- Node10&#45;&gt;Node11 -->
<g id="edge11" class="edge"><title>Node10&#45;&gt;Node11</title>
<path fill="none" stroke="midnightblue" d="M1057.11,-128.975C1098.23,-118.243 1168.82,-99.8218 1212.94,-88.3095"/>
<polygon fill="midnightblue" stroke="midnightblue" points="1213.94,-91.6636 1222.74,-85.7519 1212.18,-84.8905 1213.94,-91.6636"/>
</g>
<!-- Node12 -->
<g id="node12" class="node"><title>Node12</title>
<polygon fill="none" stroke="#bfbfbf" points="1002.44,-67.5 1002.44,-86.5 1054.44,-86.5 1054.44,-67.5 1002.44,-67.5"/>
<text text-anchor="middle" x="1028.44" y="-74.5" font-family="Helvetica,sans-Serif" font-size="10.00">memory</text>
</g>
<!-- Node10&#45;&gt;Node12 -->
<g id="edge12" class="edge"><title>Node10&#45;&gt;Node12</title>
<path fill="none" stroke="midnightblue" d="M1025.01,-128.975C1025.58,-120.58 1026.46,-107.481 1027.19,-96.6631"/>
<polygon fill="midnightblue" stroke="midnightblue" points="1030.69,-96.7214 1027.87,-86.5091 1023.71,-96.2518 1030.69,-96.7214"/>
</g>
<!-- Node13 -->
<g id="node13" class="node"><title>Node13</title>
<polygon fill="none" stroke="#bfbfbf" points="848.941,-67.5 848.941,-86.5 907.941,-86.5 907.941,-67.5 848.941,-67.5"/>
<text text-anchor="middle" x="878.441" y="-74.5" font-family="Helvetica,sans-Serif" font-size="10.00">stdexcept</text>
</g>
<!-- Node10&#45;&gt;Node13 -->
<g id="edge13" class="edge"><title>Node10&#45;&gt;Node13</title>
<path fill="none" stroke="midnightblue" d="M1003.52,-128.975C978.695,-118.857 937.097,-101.905 908.747,-90.3507"/>
<polygon fill="midnightblue" stroke="midnightblue" points="909.902,-87.0419 899.32,-86.5091 907.26,-93.5243 909.902,-87.0419"/>
</g>
<!-- Node14 -->
<g id="node14" class="node"><title>Node14</title>
<polygon fill="none" stroke="#bfbfbf" points="559.941,-6 559.941,-25 600.941,-25 600.941,-6 559.941,-6"/>
<text text-anchor="middle" x="580.441" y="-13" font-family="Helvetica,sans-Serif" font-size="10.00">string</text>
</g>
<!-- Node10&#45;&gt;Node14 -->
<g id="edge14" class="edge"><title>Node10&#45;&gt;Node14</title>
<path fill="none" stroke="midnightblue" d="M1018.28,-128.773C1006.87,-113.371 980.822,-81.6163 950.441,-67 890.458,-38.1423 688.647,-23.0878 611.126,-18.2598"/>
<polygon fill="midnightblue" stroke="midnightblue" points="611.234,-14.76 601.04,-17.646 610.808,-21.7471 611.234,-14.76"/>
</g>
<!-- Node15 -->
<g id="node15" class="node"><title>Node15</title>
<polygon fill="none" stroke="#bfbfbf" points="333.941,-6 333.941,-25 416.941,-25 416.941,-6 333.941,-6"/>
<text text-anchor="middle" x="375.441" y="-13" font-family="Helvetica,sans-Serif" font-size="10.00">unordered_map</text>
</g>
<!-- Node10&#45;&gt;Node15 -->
<g id="edge16" class="edge"><title>Node10&#45;&gt;Node15</title>
<path fill="none" stroke="midnightblue" d="M1011.94,-128.83C985.805,-110.781 926.941,-70.5471 916.441,-67 709.14,3.02429 640.802,-69.6828 425.441,-31 420.687,-30.1461 415.739,-29.017 410.886,-27.7646"/>
<polygon fill="midnightblue" stroke="midnightblue" points="411.719,-24.3636 401.147,-25.0697 409.851,-31.1101 411.719,-24.3636"/>
</g>
<!-- Node16 -->
<g id="node16" class="node"><title>Node16</title>
<polygon fill="none" stroke="#bfbfbf" points="608.441,-67.5 608.441,-86.5 652.441,-86.5 652.441,-67.5 608.441,-67.5"/>
<text text-anchor="middle" x="630.441" y="-74.5" font-family="Helvetica,sans-Serif" font-size="10.00">vector</text>
</g>
<!-- Node10&#45;&gt;Node16 -->
<g id="edge17" class="edge"><title>Node10&#45;&gt;Node16</title>
<path fill="none" stroke="midnightblue" d="M981.149,-130.962C901.479,-118.931 733.343,-93.5398 662.737,-82.8772"/>
<polygon fill="midnightblue" stroke="midnightblue" points="663.07,-79.388 652.66,-81.3554 662.025,-86.3095 663.07,-79.388"/>
</g>
<!-- Node17 -->
<g id="node17" class="node"><title>Node17</title>
<g id="a_node17"><a xlink:href="color_8hpp.html" target="_top" xlink:title="color.hpp">
<polygon fill="none" stroke="black" points="1110.44,-67.5 1110.44,-86.5 1166.44,-86.5 1166.44,-67.5 1110.44,-67.5"/>
<text text-anchor="middle" x="1138.44" y="-74.5" font-family="Helvetica,sans-Serif" font-size="10.00">color.hpp</text>
</a>
</g>
</g>
<!-- Node10&#45;&gt;Node17 -->
<g id="edge18" class="edge"><title>Node10&#45;&gt;Node17</title>
<path fill="none" stroke="midnightblue" d="M1040.77,-128.975C1059.65,-119.122 1090.95,-102.788 1113.02,-91.2697"/>
<polygon fill="midnightblue" stroke="midnightblue" points="1114.89,-94.2389 1122.14,-86.5091 1111.65,-88.0333 1114.89,-94.2389"/>
</g>
<!-- Node17&#45;&gt;Node8 -->
<g id="edge20" class="edge"><title>Node17&#45;&gt;Node8</title>
<path fill="none" stroke="midnightblue" d="M1129.84,-67.4751C1120.58,-58.285 1105.62,-43.4563 1094.23,-32.156"/>
<polygon fill="midnightblue" stroke="midnightblue" points="1096.59,-29.5653 1087.02,-25.0091 1091.66,-34.5358 1096.59,-29.5653"/>
</g>
<!-- Node17&#45;&gt;Node14 -->
<g id="edge22" class="edge"><title>Node17&#45;&gt;Node14</title>
<path fill="none" stroke="midnightblue" d="M1110.32,-72.5221C1096.25,-70.8083 1078.95,-68.7412 1063.44,-67 892.945,-47.8583 688.316,-27.2392 611.546,-19.5862"/>
<polygon fill="midnightblue" stroke="midnightblue" points="611.464,-16.0608 601.166,-18.5528 610.77,-23.0264 611.464,-16.0608"/>
</g>
<!-- Node18 -->
<g id="node18" class="node"><title>Node18</title>
<polygon fill="none" stroke="#bfbfbf" points="1183.44,-6 1183.44,-25 1229.44,-25 1229.44,-6 1183.44,-6"/>
<text text-anchor="middle" x="1206.44" y="-13" font-family="Helvetica,sans-Serif" font-size="10.00">cctype</text>
</g>
<!-- Node17&#45;&gt;Node18 -->
<g id="edge19" class="edge"><title>Node17&#45;&gt;Node18</title>
<path fill="none" stroke="midnightblue" d="M1148.18,-67.4751C1158.79,-58.1966 1175.96,-43.1706 1188.92,-31.831"/>
<polygon fill="midnightblue" stroke="midnightblue" points="1191.5,-34.2282 1196.72,-25.0091 1186.89,-28.9601 1191.5,-34.2282"/>
</g>
<!-- Node19 -->
<g id="node19" class="node"><title>Node19</title>
<polygon fill="none" stroke="#bfbfbf" points="1119.94,-6 1119.94,-25 1164.94,-25 1164.94,-6 1119.94,-6"/>
<text text-anchor="middle" x="1142.44" y="-13" font-family="Helvetica,sans-Serif" font-size="10.00">cstdlib</text>
</g>
<!-- Node17&#45;&gt;Node19 -->
<g id="edge21" class="edge"><title>Node17&#45;&gt;Node19</title>
<path fill="none" stroke="midnightblue" d="M1139.01,-67.4751C1139.58,-59.0803 1140.46,-45.9806 1141.19,-35.1631"/>
<polygon fill="midnightblue" stroke="midnightblue" points="1144.69,-35.2214 1141.87,-25.0091 1137.71,-34.7518 1144.69,-35.2214"/>
</g>
<!-- Node20&#45;&gt;Node2 -->
<g id="edge26" class="edge"><title>Node20&#45;&gt;Node2</title>
<path fill="none" stroke="midnightblue" d="M628.665,-191.843C573.211,-182.976 475.856,-167.399 392.441,-154 373.289,-150.924 351.846,-147.469 334.696,-144.704"/>
<polygon fill="midnightblue" stroke="midnightblue" points="335.061,-141.218 324.631,-143.081 333.947,-148.129 335.061,-141.218"/>
</g>
<!-- Node20&#45;&gt;Node10 -->
<g id="edge36" class="edge"><title>Node20&#45;&gt;Node10</title>
<path fill="none" stroke="midnightblue" d="M718.008,-193.551C775.813,-186.169 879.647,-171.842 967.441,-154 972.563,-152.959 977.915,-151.755 983.202,-150.494"/>
<polygon fill="midnightblue" stroke="midnightblue" points="984.335,-153.819 993.207,-148.028 982.66,-147.023 984.335,-153.819"/>
</g>
<!-- Node20&#45;&gt;Node13 -->
<g id="edge27" class="edge"><title>Node20&#45;&gt;Node13</title>
<path fill="none" stroke="midnightblue" d="M718.019,-193.764C784.194,-185.538 901.999,-168.98 914.441,-154 929.592,-135.758 911.026,-110.071 895.428,-93.7286"/>
<polygon fill="midnightblue" stroke="midnightblue" points="897.735,-91.0872 888.17,-86.5304 892.806,-96.0574 897.735,-91.0872"/>
</g>
<!-- Node20&#45;&gt;Node14 -->
<g id="edge28" class="edge"><title>Node20&#45;&gt;Node14</title>
<path fill="none" stroke="midnightblue" d="M632.39,-190.383C612.48,-183.916 590.347,-172.814 578.441,-154 555.111,-117.134 566.107,-62.8357 574.312,-34.7783"/>
<polygon fill="midnightblue" stroke="midnightblue" points="577.696,-35.6833 577.344,-25.0943 571.016,-33.5913 577.696,-35.6833"/>
</g>
<!-- Node20&#45;&gt;Node15 -->
<g id="edge29" class="edge"><title>Node20&#45;&gt;Node15</title>
<path fill="none" stroke="midnightblue" d="M628.928,-195.644C499.807,-185.873 133.493,-157.89 121.441,-154 66.6025,-136.301 38.7655,-137.182 10.4407,-87 6.07138,-79.2591 4.60187,-73.7023 10.4407,-67 50.447,-21.0774 232.87,-15.5307 323.719,-15.7028"/>
<polygon fill="midnightblue" stroke="midnightblue" points="323.786,-19.2031 333.801,-15.7462 323.817,-12.2031 323.786,-19.2031"/>
</g>
<!-- Node21 -->
<g id="node21" class="node"><title>Node21</title>
<polygon fill="none" stroke="#bfbfbf" points="587.441,-129 587.441,-148 637.441,-148 637.441,-129 587.441,-129"/>
<text text-anchor="middle" x="612.441" y="-136" font-family="Helvetica,sans-Serif" font-size="10.00">iomanip</text>
</g>
<!-- Node20&#45;&gt;Node21 -->
<g id="edge24" class="edge"><title>Node20&#45;&gt;Node21</title>
<path fill="none" stroke="midnightblue" d="M664.701,-190.475C655.279,-181.285 640.077,-166.456 628.491,-155.156"/>
<polygon fill="midnightblue" stroke="midnightblue" points="630.767,-152.486 621.164,-148.009 625.879,-157.497 630.767,-152.486"/>
</g>
<!-- Node22 -->
<g id="node22" class="node"><title>Node22</title>
<polygon fill="none" stroke="#bfbfbf" points="776.441,-67.5 776.441,-86.5 830.441,-86.5 830.441,-67.5 776.441,-67.5"/>
<text text-anchor="middle" x="803.441" y="-74.5" font-family="Helvetica,sans-Serif" font-size="10.00">iostream</text>
</g>
<!-- Node20&#45;&gt;Node22 -->
<g id="edge25" class="edge"><title>Node20&#45;&gt;Node22</title>
<path fill="none" stroke="midnightblue" d="M718.015,-193.057C779.803,-184.368 885.2,-167.735 896.441,-154 905.166,-143.338 903.76,-134.673 896.441,-123 889.615,-112.115 861.304,-99.32 837.692,-90.1618"/>
<polygon fill="midnightblue" stroke="midnightblue" points="838.861,-86.8617 828.269,-86.598 836.384,-93.4091 838.861,-86.8617"/>
</g>
<!-- Node23 -->
<g id="node23" class="node"><title>Node23</title>
<polygon fill="none" stroke="#bfbfbf" points="655.941,-123.5 655.941,-153.5 760.941,-153.5 760.941,-123.5 655.941,-123.5"/>
<text text-anchor="start" x="663.941" y="-141.5" font-family="Helvetica,sans-Serif" font-size="10.00">boost/chrono/io/time</text>
<text text-anchor="middle" x="708.441" y="-130.5" font-family="Helvetica,sans-Serif" font-size="10.00">_point_io.hpp</text>
</g>
<!-- Node20&#45;&gt;Node23 -->
<g id="edge30" class="edge"><title>Node20&#45;&gt;Node23</title>
<path fill="none" stroke="midnightblue" d="M678.455,-190.475C682.797,-183.094 689.278,-172.077 695.105,-162.171"/>
<polygon fill="midnightblue" stroke="midnightblue" points="698.138,-163.917 700.192,-153.523 692.105,-160.368 698.138,-163.917"/>
</g>
<!-- Node24 -->
<g id="node24" class="node"><title>Node24</title>
<g id="a_node24"><a xlink:href="multibuf_8hpp.html" target="_top" xlink:title="multibuf.hpp">
<polygon fill="none" stroke="black" points="817.441,-129 817.441,-148 887.441,-148 887.441,-129 817.441,-129"/>
<text text-anchor="middle" x="852.441" y="-136" font-family="Helvetica,sans-Serif" font-size="10.00">multibuf.hpp</text>
</a>
</g>
</g>
<!-- Node20&#45;&gt;Node24 -->
<g id="edge31" class="edge"><title>Node20&#45;&gt;Node24</title>
<path fill="none" stroke="midnightblue" d="M699.087,-190.475C730.058,-180.18 782.314,-162.81 817.091,-151.25"/>
<polygon fill="midnightblue" stroke="midnightblue" points="818.456,-154.485 826.842,-148.009 816.248,-147.842 818.456,-154.485"/>
</g>
<!-- Node26 -->
<g id="node26" class="node"><title>Node26</title>
<g id="a_node26"><a xlink:href="settings_8hpp.html" target="_top" xlink:title="settings.hpp">
<polygon fill="none" stroke="black" points="444.441,-67.5 444.441,-86.5 514.441,-86.5 514.441,-67.5 444.441,-67.5"/>
<text text-anchor="middle" x="479.441" y="-74.5" font-family="Helvetica,sans-Serif" font-size="10.00">settings.hpp</text>
</a>
</g>
</g>
<!-- Node20&#45;&gt;Node26 -->
<g id="edge37" class="edge"><title>Node20&#45;&gt;Node26</title>
<path fill="none" stroke="midnightblue" d="M632.899,-190.476C606.406,-183.581 571.937,-172.006 545.441,-154 522.148,-138.171 502.026,-112.153 490.314,-95.0472"/>
<polygon fill="midnightblue" stroke="midnightblue" points="493.146,-92.9855 484.705,-86.5823 487.311,-96.8518 493.146,-92.9855"/>
</g>
<!-- Node24&#45;&gt;Node14 -->
<g id="edge35" class="edge"><title>Node24&#45;&gt;Node14</title>
<path fill="none" stroke="midnightblue" d="M824.16,-128.969C786.489,-117.466 721.975,-97.2482 699.441,-87 680.308,-78.2989 631.698,-48.5323 602.871,-30.5782"/>
<polygon fill="midnightblue" stroke="midnightblue" points="604.604,-27.5345 594.269,-25.2057 600.896,-33.4717 604.604,-27.5345"/>
</g>
<!-- Node24&#45;&gt;Node16 -->
<g id="edge34" class="edge"><title>Node24&#45;&gt;Node16</title>
<path fill="none" stroke="midnightblue" d="M824.244,-128.982C817.445,-126.976 810.193,-124.877 803.441,-123 754.53,-109.406 697.49,-94.8113 662.68,-86.0452"/>
<polygon fill="midnightblue" stroke="midnightblue" points="663.176,-82.561 652.624,-83.5193 661.47,-89.3501 663.176,-82.561"/>
</g>
<!-- Node24&#45;&gt;Node22 -->
<g id="edge32" class="edge"><title>Node24&#45;&gt;Node22</title>
<path fill="none" stroke="midnightblue" d="M845.42,-128.975C837.997,-119.962 826.108,-105.525 816.874,-94.3118"/>
<polygon fill="midnightblue" stroke="midnightblue" points="819.507,-92.0034 810.448,-86.5091 814.104,-96.4534 819.507,-92.0034"/>
</g>
<!-- Node25 -->
<g id="node25" class="node"><title>Node25</title>
<polygon fill="none" stroke="#bfbfbf" points="708.441,-67.5 708.441,-86.5 758.441,-86.5 758.441,-67.5 708.441,-67.5"/>
<text text-anchor="middle" x="733.441" y="-74.5" font-family="Helvetica,sans-Serif" font-size="10.00">fstream</text>
</g>
<!-- Node24&#45;&gt;Node25 -->
<g id="edge33" class="edge"><title>Node24&#45;&gt;Node25</title>
<path fill="none" stroke="midnightblue" d="M835.391,-128.975C815.597,-119.078 782.724,-102.642 759.671,-91.1151"/>
<polygon fill="midnightblue" stroke="midnightblue" points="760.968,-87.8508 750.459,-86.5091 757.838,-94.1118 760.968,-87.8508"/>
</g>
<!-- Node26&#45;&gt;Node8 -->
<g id="edge39" class="edge"><title>Node26&#45;&gt;Node8</title>
<path fill="none" stroke="midnightblue" d="M514.675,-72.5001C621.488,-61.8901 940.735,-30.1786 1045.06,-19.8163"/>
<polygon fill="midnightblue" stroke="midnightblue" points="1045.7,-23.2696 1055.3,-18.7982 1045.01,-16.3039 1045.7,-23.2696"/>
</g>
<!-- Node26&#45;&gt;Node14 -->
<g id="edge38" class="edge"><title>Node26&#45;&gt;Node14</title>
<path fill="none" stroke="midnightblue" d="M493.912,-67.4751C510.412,-57.7548 537.619,-41.7266 557.122,-30.2372"/>
<polygon fill="midnightblue" stroke="midnightblue" points="559.157,-33.1005 565.997,-25.0091 555.604,-27.0693 559.157,-33.1005"/>
</g>
<!-- Node26&#45;&gt;Node15 -->
<g id="edge40" class="edge"><title>Node26&#45;&gt;Node15</title>
<path fill="none" stroke="midnightblue" d="M464.54,-67.4751C447.473,-57.7106 419.279,-41.5807 399.179,-30.0808"/>
<polygon fill="midnightblue" stroke="midnightblue" points="400.732,-26.9371 390.314,-25.0091 397.256,-33.013 400.732,-26.9371"/>
</g>
<!-- Node27 -->
<g id="node27" class="node"><title>Node27</title>
<polygon fill="none" stroke="#bfbfbf" points="434.941,-0.5 434.941,-30.5 535.941,-30.5 535.941,-0.5 434.941,-0.5"/>
<text text-anchor="start" x="442.941" y="-18.5" font-family="Helvetica,sans-Serif" font-size="10.00">boost/property_tree</text>
<text text-anchor="middle" x="485.441" y="-7.5" font-family="Helvetica,sans-Serif" font-size="10.00">/ptree.hpp</text>
</g>
<!-- Node26&#45;&gt;Node27 -->
<g id="edge41" class="edge"><title>Node26&#45;&gt;Node27</title>
<path fill="none" stroke="midnightblue" d="M480.3,-67.4751C481.007,-60.471 482.043,-50.1919 483.001,-40.6956"/>
<polygon fill="midnightblue" stroke="midnightblue" points="486.506,-40.8237 484.027,-30.523 479.541,-40.1213 486.506,-40.8237"/>
</g>
<!-- Node28&#45;&gt;Node9 -->
<g id="edge46" class="edge"><title>Node28&#45;&gt;Node9</title>
<path fill="none" stroke="midnightblue" d="M220.224,-128.975C248.823,-118.725 296.991,-101.459 329.242,-89.8994"/>
<polygon fill="midnightblue" stroke="midnightblue" points="330.468,-93.178 338.701,-86.5091 328.107,-86.5885 330.468,-93.178"/>
</g>
<!-- Node28&#45;&gt;Node14 -->
<g id="edge47" class="edge"><title>Node28&#45;&gt;Node14</title>
<path fill="none" stroke="midnightblue" d="M212.322,-128.866C246.539,-110.274 324.393,-68.0407 327.441,-67 419.958,-35.4079 450.316,-57.4201 544.441,-31 546.881,-30.3149 549.382,-29.5179 551.873,-28.6568"/>
<polygon fill="midnightblue" stroke="midnightblue" points="553.152,-31.9152 561.28,-25.1186 550.688,-25.3633 553.152,-31.9152"/>
</g>
<!-- Node28&#45;&gt;Node26 -->
<g id="edge49" class="edge"><title>Node28&#45;&gt;Node26</title>
<path fill="none" stroke="midnightblue" d="M236.988,-128.975C289.252,-117.987 379.856,-98.9375 434.272,-87.4966"/>
<polygon fill="midnightblue" stroke="midnightblue" points="435.256,-90.8663 444.322,-85.3836 433.816,-84.016 435.256,-90.8663"/>
</g>
<!-- Node29 -->
<g id="node29" class="node"><title>Node29</title>
<polygon fill="none" stroke="#bfbfbf" points="19.4407,-67.5 19.4407,-86.5 75.4407,-86.5 75.4407,-67.5 19.4407,-67.5"/>
<text text-anchor="middle" x="47.4407" y="-74.5" font-family="Helvetica,sans-Serif" font-size="10.00">algorithm</text>
</g>
<!-- Node28&#45;&gt;Node29 -->
<g id="edge43" class="edge"><title>Node28&#45;&gt;Node29</title>
<path fill="none" stroke="midnightblue" d="M175.093,-128.975C149.755,-118.857 107.303,-101.905 78.3692,-90.3507"/>
<polygon fill="midnightblue" stroke="midnightblue" points="79.3341,-86.9673 68.7492,-86.5091 76.7381,-93.4681 79.3341,-86.9673"/>
</g>
<!-- Node30 -->
<g id="node30" class="node"><title>Node30</title>
<polygon fill="none" stroke="#bfbfbf" points="93.9407,-67.5 93.9407,-86.5 140.941,-86.5 140.941,-67.5 93.9407,-67.5"/>
<text text-anchor="middle" x="117.441" y="-74.5" font-family="Helvetica,sans-Serif" font-size="10.00">iterator</text>
</g>
<!-- Node28&#45;&gt;Node30 -->
<g id="edge44" class="edge"><title>Node28&#45;&gt;Node30</title>
<path fill="none" stroke="midnightblue" d="M185.122,-128.975C172.568,-119.52 152.089,-104.096 136.941,-92.6871"/>
<polygon fill="midnightblue" stroke="midnightblue" points="138.832,-89.7295 128.738,-86.5091 134.621,-95.321 138.832,-89.7295"/>
</g>
<!-- Node31 -->
<g id="node31" class="node"><title>Node31</title>
<polygon fill="none" stroke="#bfbfbf" points="158.941,-67.5 158.941,-86.5 199.941,-86.5 199.941,-67.5 158.941,-67.5"/>
<text text-anchor="middle" x="179.441" y="-74.5" font-family="Helvetica,sans-Serif" font-size="10.00">regex</text>
</g>
<!-- Node28&#45;&gt;Node31 -->
<g id="edge45" class="edge"><title>Node28&#45;&gt;Node31</title>
<path fill="none" stroke="midnightblue" d="M194.005,-128.975C191.581,-120.492 187.785,-107.204 184.676,-96.3222"/>
<polygon fill="midnightblue" stroke="midnightblue" points="187.984,-95.1628 181.872,-86.5091 181.254,-97.0859 187.984,-95.1628"/>
</g>
<!-- Node32 -->
<g id="node32" class="node"><title>Node32</title>
<polygon fill="none" stroke="#bfbfbf" points="218.441,-67.5 218.441,-86.5 280.441,-86.5 280.441,-67.5 218.441,-67.5"/>
<text text-anchor="middle" x="249.441" y="-74.5" font-family="Helvetica,sans-Serif" font-size="10.00">type_traits</text>
</g>
<!-- Node28&#45;&gt;Node32 -->
<g id="edge48" class="edge"><title>Node28&#45;&gt;Node32</title>
<path fill="none" stroke="midnightblue" d="M204.034,-128.975C212.142,-119.873 225.176,-105.241 235.204,-93.983"/>
<polygon fill="midnightblue" stroke="midnightblue" points="237.823,-96.3043 241.861,-86.5091 232.596,-91.6483 237.823,-96.3043"/>
</g>
<!-- Node33&#45;&gt;Node15 -->
<g id="edge51" class="edge"><title>Node33&#45;&gt;Node15</title>
<path fill="none" stroke="midnightblue" d="M380.637,-254.913C296.736,-251.913 138.711,-234.937 37.4407,-154 11.3555,-133.152 11.2094,-119.476 3.44069,-87 1.3727,-78.355 -2.40669,-73.6948 3.44069,-67 44.363,-20.1471 231.1,-15.0887 323.436,-15.5462"/>
<polygon fill="midnightblue" stroke="midnightblue" points="323.652,-19.0478 333.678,-15.6217 323.704,-12.048 323.652,-19.0478"/>
</g>
<!-- Node34 -->
<g id="node34" class="node"><title>Node34</title>
<g id="a_node34"><a xlink:href="user__group_8hpp.html" target="_top" xlink:title="user_group.hpp">
<polygon fill="none" stroke="black" points="395.941,-190.5 395.941,-209.5 478.941,-209.5 478.941,-190.5 395.941,-190.5"/>
<text text-anchor="middle" x="437.441" y="-197.5" font-family="Helvetica,sans-Serif" font-size="10.00">user_group.hpp</text>
</a>
</g>
</g>
<!-- Node33&#45;&gt;Node34 -->
<g id="edge52" class="edge"><title>Node33&#45;&gt;Node34</title>
<path fill="none" stroke="midnightblue" d="M437.441,-246.083C437.441,-239.006 437.441,-228.861 437.441,-219.986"/>
<polygon fill="midnightblue" stroke="midnightblue" points="440.941,-219.751 437.441,-209.751 433.941,-219.751 440.941,-219.751"/>
</g>
<!-- Node34&#45;&gt;Node16 -->
<g id="edge53" class="edge"><title>Node34&#45;&gt;Node16</title>
<path fill="none" stroke="midnightblue" d="M451.012,-190.492C483.808,-169.93 567.636,-117.375 608.023,-92.0544"/>
<polygon fill="midnightblue" stroke="midnightblue" points="610.013,-94.9383 616.626,-86.661 606.294,-89.0075 610.013,-94.9383"/>
</g>
<!-- Node35 -->
<g id="node35" class="node"><title>Node35</title>
<g id="a_node35"><a xlink:href="user_8hpp.html" target="_top" xlink:title="user.hpp">
<polygon fill="none" stroke="black" points="401.441,-129 401.441,-148 455.441,-148 455.441,-129 401.441,-129"/>
<text text-anchor="middle" x="428.441" y="-136" font-family="Helvetica,sans-Serif" font-size="10.00">user.hpp</text>
</a>
</g>
</g>
<!-- Node34&#45;&gt;Node35 -->
<g id="edge54" class="edge"><title>Node34&#45;&gt;Node35</title>
<path fill="none" stroke="midnightblue" d="M436.151,-190.475C434.881,-182.08 432.9,-168.981 431.264,-158.163"/>
<polygon fill="midnightblue" stroke="midnightblue" points="434.684,-157.373 429.728,-148.009 427.763,-158.42 434.684,-157.373"/>
</g>
<!-- Node35&#45;&gt;Node14 -->
<g id="edge55" class="edge"><title>Node35&#45;&gt;Node14</title>
<path fill="none" stroke="midnightblue" d="M450.314,-128.891C470.603,-120.238 500.963,-105.542 523.441,-87 542.143,-71.5727 558.975,-49.1875 569.416,-33.8023"/>
<polygon fill="midnightblue" stroke="midnightblue" points="572.471,-35.5279 575.052,-25.2522 566.626,-31.6757 572.471,-35.5279"/>
</g>
<!-- Node35&#45;&gt;Node15 -->
<g id="edge57" class="edge"><title>Node35&#45;&gt;Node15</title>
<path fill="none" stroke="midnightblue" d="M424.629,-128.798C415.996,-109.089 394.806,-60.7106 383.256,-34.342"/>
<polygon fill="midnightblue" stroke="midnightblue" points="386.436,-32.8787 379.218,-25.1232 380.024,-35.6873 386.436,-32.8787"/>
</g>
<!-- Node35&#45;&gt;Node16 -->
<g id="edge56" class="edge"><title>Node35&#45;&gt;Node16</title>
<path fill="none" stroke="midnightblue" d="M455.683,-129.476C492.833,-118.533 559.256,-98.9677 598.641,-87.3668"/>
<polygon fill="midnightblue" stroke="midnightblue" points="599.67,-90.7123 608.274,-84.5293 597.693,-83.9975 599.67,-90.7123"/>
</g>
<!-- Node35&#45;&gt;Node26 -->
<g id="edge58" class="edge"><title>Node35&#45;&gt;Node26</title>
<path fill="none" stroke="midnightblue" d="M435.748,-128.975C443.474,-119.962 455.848,-105.525 465.459,-94.3118"/>
<polygon fill="midnightblue" stroke="midnightblue" points="468.297,-96.3795 472.147,-86.5091 462.982,-91.8239 468.297,-96.3795"/>
</g>
<!-- Node36&#45;&gt;Node35 -->
<g id="edge60" class="edge"><title>Node36&#45;&gt;Node35</title>
<path fill="none" stroke="midnightblue" d="M571.06,-246.275C570.011,-232.604 566.087,-206.045 551.441,-190 545.049,-182.998 496.207,-164.186 462.03,-151.605"/>
<polygon fill="midnightblue" stroke="midnightblue" points="462.987,-148.228 452.393,-148.079 460.582,-154.802 462.987,-148.228"/>
</g>
<!-- Node37 -->
<g id="node37" class="node"><title>Node37</title>
<polygon fill="none" stroke="#bfbfbf" points="513.941,-190.5 513.941,-209.5 542.941,-209.5 542.941,-190.5 513.941,-190.5"/>
<text text-anchor="middle" x="528.441" y="-197.5" font-family="Helvetica,sans-Serif" font-size="10.00">list</text>
</g>
<!-- Node36&#45;&gt;Node37 -->
<g id="edge61" class="edge"><title>Node36&#45;&gt;Node37</title>
<path fill="none" stroke="midnightblue" d="M564.34,-246.083C558.204,-238.377 549.171,-227.033 541.701,-217.653"/>
<polygon fill="midnightblue" stroke="midnightblue" points="544.376,-215.394 535.409,-209.751 538.9,-219.754 544.376,-215.394"/>
</g>
<!-- Node38&#45;&gt;Node6 -->
<g id="edge63" class="edge"><title>Node38&#45;&gt;Node6</title>
<path fill="none" stroke="midnightblue" d="M910.147,-302.083C906.588,-294.691 901.418,-283.953 897.016,-274.811"/>
<polygon fill="midnightblue" stroke="midnightblue" points="900.146,-273.243 892.654,-265.751 893.839,-276.279 900.146,-273.243"/>
</g>
<!-- Node38&#45;&gt;Node11 -->
<g id="edge65" class="edge"><title>Node38&#45;&gt;Node11</title>
<path fill="none" stroke="midnightblue" d="M966.345,-302.466C1026.41,-292.252 1118.85,-275.357 1132.44,-266 1195.13,-222.821 1232.31,-135.089 1246.18,-96.6973"/>
<polygon fill="midnightblue" stroke="midnightblue" points="1249.62,-97.4554 1249.61,-86.8605 1243.01,-95.1503 1249.62,-97.4554"/>
</g>
<!-- Node38&#45;&gt;Node16 -->
<g id="edge67" class="edge"><title>Node38&#45;&gt;Node16</title>
<path fill="none" stroke="midnightblue" d="M918.028,-302.087C922.673,-289.074 929.196,-264.424 920.441,-246 919.28,-243.557 771.817,-124.293 769.441,-123 759.854,-117.783 700.324,-99.2395 662.343,-87.6475"/>
<polygon fill="midnightblue" stroke="midnightblue" points="663.314,-84.2845 652.728,-84.7209 661.275,-90.9812 663.314,-84.2845"/>
</g>
<!-- Node39 -->
<g id="node39" class="node"><title>Node39</title>
<polygon fill="none" stroke="#bfbfbf" points="967.941,-246.5 967.941,-265.5 1062.94,-265.5 1062.94,-246.5 967.941,-246.5"/>
<text text-anchor="middle" x="1015.44" y="-253.5" font-family="Helvetica,sans-Serif" font-size="10.00">condition_variable</text>
</g>
<!-- Node38&#45;&gt;Node39 -->
<g id="edge64" class="edge"><title>Node38&#45;&gt;Node39</title>
<path fill="none" stroke="midnightblue" d="M930.668,-302.324C946.792,-293.703 971.741,-280.364 990.405,-270.386"/>
<polygon fill="midnightblue" stroke="midnightblue" points="992.085,-273.456 999.254,-265.655 988.785,-267.283 992.085,-273.456"/>
</g>
<!-- Node40 -->
<g id="node40" class="node"><title>Node40</title>
<polygon fill="none" stroke="#bfbfbf" points="1080.94,-246.5 1080.94,-265.5 1123.94,-265.5 1123.94,-246.5 1080.94,-246.5"/>
<text text-anchor="middle" x="1102.44" y="-253.5" font-family="Helvetica,sans-Serif" font-size="10.00">queue</text>
</g>
<!-- Node38&#45;&gt;Node40 -->
<g id="edge66" class="edge"><title>Node38&#45;&gt;Node40</title>
<path fill="none" stroke="midnightblue" d="M944.255,-302.487C973.93,-294.007 1021.03,-280.529 1071.06,-266.104"/>
<polygon fill="midnightblue" stroke="midnightblue" points="1072.13,-269.438 1080.76,-263.304 1070.18,-262.713 1072.13,-269.438"/>
</g>
</g>
</svg>
