<?xml version="1.0" encoding="UTF-8" standalone="no"?>
<!DOCTYPE svg PUBLIC "-//W3C//DTD SVG 1.1//EN"
 "http://www.w3.org/Graphics/SVG/1.1/DTD/svg11.dtd">
<!-- Generated by graphviz version 2.38.0 (20140413.2041)
 -->
<!-- Title: src/network/irc_buffer.hpp Pages: 1 -->
<svg width="256pt" height="140pt"
 viewBox="0.00 0.00 256.00 140.00" xmlns="http://www.w3.org/2000/svg" xmlns:xlink="http://www.w3.org/1999/xlink">
<g id="graph0" class="graph" transform="scale(1 1) rotate(0) translate(4 136)">
<title>src/network/irc_buffer.hpp</title>
<!-- Node1 -->
<g id="node1" class="node"><title>Node1</title>
<polygon fill="#bfbfbf" stroke="black" points="39,-112.5 39,-131.5 169,-131.5 169,-112.5 39,-112.5"/>
<text text-anchor="middle" x="104" y="-119.5" font-family="Helvetica,sans-Serif" font-size="10.00">src/network/irc_buffer.hpp</text>
</g>
<!-- Node2 -->
<g id="node2" class="node"><title>Node2</title>
<g id="a_node2"><a xlink:href="irc__buffer_8cpp.html" target="_top" xlink:title="src/network/irc_buffer.cpp">
<polygon fill="none" stroke="black" points="0,-0.5 0,-19.5 130,-19.5 130,-0.5 0,-0.5"/>
<text text-anchor="middle" x="65" y="-7.5" font-family="Helvetica,sans-Serif" font-size="10.00">src/network/irc_buffer.cpp</text>
</a>
</g>
</g>
<!-- Node1&#45;&gt;Node2 -->
<g id="edge1" class="edge"><title>Node1&#45;&gt;Node2</title>
<path fill="none" stroke="midnightblue" d="M95.3124,-102.946C91.573,-94.8145 87.3098,-85.0306 84,-76 76.7175,-56.13 70.2827,-32.0672 67.1039,-19.5311"/>
<polygon fill="midnightblue" stroke="midnightblue" points="92.233,-104.622 99.6577,-112.18 98.5668,-101.642 92.233,-104.622"/>
</g>
<!-- Node3 -->
<g id="node3" class="node"><title>Node3</title>
<g id="a_node3"><a xlink:href="irc_8hpp.html" target="_top" xlink:title="src/network/irc.hpp">
<polygon fill="none" stroke="black" points="93,-56.5 93,-75.5 193,-75.5 193,-56.5 93,-56.5"/>
<text text-anchor="middle" x="143" y="-63.5" font-family="Helvetica,sans-Serif" font-size="10.00">src/network/irc.hpp</text>
</a>
</g>
</g>
<!-- Node1&#45;&gt;Node3 -->
<g id="edge2" class="edge"><title>Node1&#45;&gt;Node3</title>
<path fill="none" stroke="midnightblue" d="M116.382,-103.855C123.135,-94.5048 131.209,-83.3265 136.68,-75.7511"/>
<polygon fill="midnightblue" stroke="midnightblue" points="113.458,-101.927 110.44,-112.083 119.132,-106.025 113.458,-101.927"/>
</g>
<!-- Node3&#45;&gt;Node2 -->
<g id="edge3" class="edge"><title>Node3&#45;&gt;Node2</title>
<path fill="none" stroke="midnightblue" d="M122.232,-50.6221C107.983,-40.7574 89.5438,-27.9919 77.5009,-19.6545"/>
<polygon fill="midnightblue" stroke="midnightblue" points="120.254,-53.5095 130.468,-56.324 124.238,-47.7541 120.254,-53.5095"/>
</g>
<!-- Node4 -->
<g id="node4" class="node"><title>Node4</title>
<g id="a_node4"><a xlink:href="irc_8cpp.html" target="_top" xlink:title="src/network/irc.cpp">
<polygon fill="none" stroke="black" points="148,-0.5 148,-19.5 248,-19.5 248,-0.5 148,-0.5"/>
<text text-anchor="middle" x="198" y="-7.5" font-family="Helvetica,sans-Serif" font-size="10.00">src/network/irc.cpp</text>
</a>
</g>
</g>
<!-- Node3&#45;&gt;Node4 -->
<g id="edge4" class="edge"><title>Node3&#45;&gt;Node4</title>
<path fill="none" stroke="midnightblue" d="M159.294,-49.0024C169.041,-39.4329 181.053,-27.6389 189.087,-19.7511"/>
<polygon fill="midnightblue" stroke="midnightblue" points="156.766,-46.5796 152.082,-56.083 161.67,-51.5746 156.766,-46.5796"/>
</g>
</g>
</svg>
