<?xml version="1.0" encoding="UTF-8" standalone="no"?>
<!DOCTYPE svg PUBLIC "-//W3C//DTD SVG 1.1//EN"
 "http://www.w3.org/Graphics/SVG/1.1/DTD/svg11.dtd">
<!-- Generated by graphviz version 2.38.0 (20140413.2041)
 -->
<!-- Title: src/network/irc_connection.hpp Pages: 1 -->
<svg width="1401pt" height="442pt"
 viewBox="0.00 0.00 1401.00 442.00" xmlns="http://www.w3.org/2000/svg" xmlns:xlink="http://www.w3.org/1999/xlink">
<g id="graph0" class="graph" transform="scale(1 1) rotate(0) translate(4 438)">
<title>src/network/irc_connection.hpp</title>
<!-- Node1 -->
<g id="node1" class="node"><title>Node1</title>
<polygon fill="#bfbfbf" stroke="black" points="146,-414.5 146,-433.5 298,-433.5 298,-414.5 146,-414.5"/>
<text text-anchor="middle" x="222" y="-421.5" font-family="Helvetica,sans-Serif" font-size="10.00">src/network/irc_connection.hpp</text>
</g>
<!-- Node2 -->
<g id="node2" class="node"><title>Node2</title>
<polygon fill="none" stroke="#bfbfbf" points="136.5,-190.5 136.5,-209.5 165.5,-209.5 165.5,-190.5 136.5,-190.5"/>
<text text-anchor="middle" x="151" y="-197.5" font-family="Helvetica,sans-Serif" font-size="10.00">list</text>
</g>
<!-- Node1&#45;&gt;Node2 -->
<g id="edge1" class="edge"><title>Node1&#45;&gt;Node2</title>
<path fill="none" stroke="midnightblue" d="M152.701,-414.421C130.607,-408.039 108.431,-397.008 95,-378 61.1453,-330.087 69.6438,-298.904 95,-246 101.787,-231.839 115.444,-220.723 127.571,-213.081"/>
<polygon fill="midnightblue" stroke="midnightblue" points="129.537,-215.987 136.408,-207.922 126.007,-209.941 129.537,-215.987"/>
</g>
<!-- Node3 -->
<g id="node3" class="node"><title>Node3</title>
<polygon fill="none" stroke="#bfbfbf" points="104.5,-246.5 104.5,-265.5 147.5,-265.5 147.5,-246.5 104.5,-246.5"/>
<text text-anchor="middle" x="126" y="-253.5" font-family="Helvetica,sans-Serif" font-size="10.00">queue</text>
</g>
<!-- Node1&#45;&gt;Node3 -->
<g id="edge2" class="edge"><title>Node1&#45;&gt;Node3</title>
<path fill="none" stroke="midnightblue" d="M216.839,-414.075C201.597,-387.719 156.58,-309.878 136.213,-274.661"/>
<polygon fill="midnightblue" stroke="midnightblue" points="138.991,-272.473 130.955,-265.568 132.932,-275.977 138.991,-272.473"/>
</g>
<!-- Node4 -->
<g id="node4" class="node"><title>Node4</title>
<polygon fill="none" stroke="#bfbfbf" points="104.5,-358.5 104.5,-377.5 145.5,-377.5 145.5,-358.5 104.5,-358.5"/>
<text text-anchor="middle" x="125" y="-365.5" font-family="Helvetica,sans-Serif" font-size="10.00">regex</text>
</g>
<!-- Node1&#45;&gt;Node4 -->
<g id="edge3" class="edge"><title>Node1&#45;&gt;Node4</title>
<path fill="none" stroke="midnightblue" d="M206.415,-414.324C191.001,-405.743 167.188,-392.486 149.29,-382.522"/>
<polygon fill="midnightblue" stroke="midnightblue" points="150.986,-379.461 140.546,-377.655 147.581,-385.577 150.986,-379.461"/>
</g>
<!-- Node5 -->
<g id="node5" class="node"><title>Node5</title>
<polygon fill="none" stroke="#bfbfbf" points="1072.5,-67.5 1072.5,-86.5 1131.5,-86.5 1131.5,-67.5 1072.5,-67.5"/>
<text text-anchor="middle" x="1102" y="-74.5" font-family="Helvetica,sans-Serif" font-size="10.00">stdexcept</text>
</g>
<!-- Node1&#45;&gt;Node5 -->
<g id="edge4" class="edge"><title>Node1&#45;&gt;Node5</title>
<path fill="none" stroke="midnightblue" d="M298.012,-422.161C464.954,-419.73 859.01,-410.614 988,-378 1045.06,-363.573 1076.38,-371.642 1108,-322 1153.95,-249.842 1123.69,-139.742 1108.85,-96.4231"/>
<polygon fill="midnightblue" stroke="midnightblue" points="1112.12,-95.1591 1105.46,-86.9124 1105.52,-97.5071 1112.12,-95.1591"/>
</g>
<!-- Node6 -->
<g id="node6" class="node"><title>Node6</title>
<polygon fill="none" stroke="#bfbfbf" points="328.5,-6 328.5,-25 411.5,-25 411.5,-6 328.5,-6"/>
<text text-anchor="middle" x="370" y="-13" font-family="Helvetica,sans-Serif" font-size="10.00">unordered_map</text>
</g>
<!-- Node1&#45;&gt;Node6 -->
<g id="edge5" class="edge"><title>Node1&#45;&gt;Node6</title>
<path fill="none" stroke="midnightblue" d="M145.911,-416.327C81.6463,-406.017 0,-379.779 0,-313 0,-313 0,-313 0,-137.5 0,-86.6888 43.6353,-87.7868 90,-67 164.835,-33.449 260.376,-22.1758 318.288,-18.3961"/>
<polygon fill="midnightblue" stroke="midnightblue" points="318.528,-21.888 328.299,-17.7931 318.107,-14.9007 318.528,-21.888"/>
</g>
<!-- Node7 -->
<g id="node7" class="node"><title>Node7</title>
<g id="a_node7"><a xlink:href="connection_8hpp.html" target="_top" xlink:title="connection.hpp">
<polygon fill="none" stroke="black" points="695.5,-302.5 695.5,-321.5 778.5,-321.5 778.5,-302.5 695.5,-302.5"/>
<text text-anchor="middle" x="737" y="-309.5" font-family="Helvetica,sans-Serif" font-size="10.00">connection.hpp</text>
</a>
</g>
</g>
<!-- Node1&#45;&gt;Node7 -->
<g id="edge6" class="edge"><title>Node1&#45;&gt;Node7</title>
<path fill="none" stroke="midnightblue" d="M261.983,-414.46C354.861,-394.622 585.029,-345.46 687.001,-323.679"/>
<polygon fill="midnightblue" stroke="midnightblue" points="687.995,-327.046 697.043,-321.535 686.532,-320.201 687.995,-327.046"/>
</g>
<!-- Node33 -->
<g id="node33" class="node"><title>Node33</title>
<g id="a_node33"><a xlink:href="irc__buffer_8hpp.html" target="_top" xlink:title="irc_buffer.hpp">
<polygon fill="none" stroke="black" points="903,-358.5 903,-377.5 979,-377.5 979,-358.5 903,-358.5"/>
<text text-anchor="middle" x="941" y="-365.5" font-family="Helvetica,sans-Serif" font-size="10.00">irc_buffer.hpp</text>
</a>
</g>
</g>
<!-- Node1&#45;&gt;Node33 -->
<g id="edge56" class="edge"><title>Node1&#45;&gt;Node33</title>
<path fill="none" stroke="midnightblue" d="M298.265,-417.272C446.637,-406.129 770.302,-381.82 892.759,-372.623"/>
<polygon fill="midnightblue" stroke="midnightblue" points="893.235,-376.097 902.944,-371.858 892.71,-369.117 893.235,-376.097"/>
</g>
<!-- Node38 -->
<g id="node38" class="node"><title>Node38</title>
<g id="a_node38"><a xlink:href="melanobot_8hpp.html" target="_top" xlink:title="melanobot.hpp">
<polygon fill="none" stroke="black" points="231,-358.5 231,-377.5 311,-377.5 311,-358.5 231,-358.5"/>
<text text-anchor="middle" x="271" y="-365.5" font-family="Helvetica,sans-Serif" font-size="10.00">melanobot.hpp</text>
</a>
</g>
</g>
<!-- Node1&#45;&gt;Node38 -->
<g id="edge68" class="edge"><title>Node1&#45;&gt;Node38</title>
<path fill="none" stroke="midnightblue" d="M230.091,-414.083C237.155,-406.298 247.588,-394.801 256.149,-385.367"/>
<polygon fill="midnightblue" stroke="midnightblue" points="258.931,-387.509 263.059,-377.751 253.747,-382.805 258.931,-387.509"/>
</g>
<!-- Node8 -->
<g id="node8" class="node"><title>Node8</title>
<polygon fill="none" stroke="#bfbfbf" points="318,-246.5 318,-265.5 364,-265.5 364,-246.5 318,-246.5"/>
<text text-anchor="middle" x="341" y="-253.5" font-family="Helvetica,sans-Serif" font-size="10.00">atomic</text>
</g>
<!-- Node7&#45;&gt;Node8 -->
<g id="edge7" class="edge"><title>Node7&#45;&gt;Node8</title>
<path fill="none" stroke="midnightblue" d="M695.459,-307.921C629.316,-302.572 495.915,-289.96 374.182,-265.972"/>
<polygon fill="midnightblue" stroke="midnightblue" points="374.812,-262.529 364.32,-263.998 373.438,-269.393 374.812,-262.529"/>
</g>
<!-- Node9 -->
<g id="node9" class="node"><title>Node9</title>
<polygon fill="none" stroke="#bfbfbf" points="765,-246.5 765,-265.5 811,-265.5 811,-246.5 765,-246.5"/>
<text text-anchor="middle" x="788" y="-253.5" font-family="Helvetica,sans-Serif" font-size="10.00">chrono</text>
</g>
<!-- Node7&#45;&gt;Node9 -->
<g id="edge8" class="edge"><title>Node7&#45;&gt;Node9</title>
<path fill="none" stroke="midnightblue" d="M745.422,-302.083C752.848,-294.22 763.852,-282.569 772.812,-273.081"/>
<polygon fill="midnightblue" stroke="midnightblue" points="775.413,-275.424 779.735,-265.751 770.324,-270.618 775.413,-275.424"/>
</g>
<!-- Node10 -->
<g id="node10" class="node"><title>Node10</title>
<polygon fill="none" stroke="#bfbfbf" points="696,-6 696,-25 742,-25 742,-6 696,-6"/>
<text text-anchor="middle" x="719" y="-13" font-family="Helvetica,sans-Serif" font-size="10.00">cstdint</text>
</g>
<!-- Node7&#45;&gt;Node10 -->
<g id="edge9" class="edge"><title>Node7&#45;&gt;Node10</title>
<path fill="none" stroke="midnightblue" d="M766.257,-302.411C795.105,-292.211 833.117,-273.1 820,-246 770.377,-143.473 668.623,-189.527 619,-87 603.46,-54.8929 651.334,-34.573 686.116,-24.3914"/>
<polygon fill="midnightblue" stroke="midnightblue" points="687.253,-27.7084 695.96,-21.671 685.389,-20.9613 687.253,-27.7084"/>
</g>
<!-- Node11 -->
<g id="node11" class="node"><title>Node11</title>
<polygon fill="none" stroke="#bfbfbf" points="706,-67.5 706,-86.5 758,-86.5 758,-67.5 706,-67.5"/>
<text text-anchor="middle" x="732" y="-74.5" font-family="Helvetica,sans-Serif" font-size="10.00">sstream</text>
</g>
<!-- Node7&#45;&gt;Node11 -->
<g id="edge10" class="edge"><title>Node7&#45;&gt;Node11</title>
<path fill="none" stroke="midnightblue" d="M736.816,-302.431C736.093,-268.754 733.438,-144.994 732.41,-97.1018"/>
<polygon fill="midnightblue" stroke="midnightblue" points="735.905,-96.8183 732.191,-86.8958 728.906,-96.9686 735.905,-96.8183"/>
</g>
<!-- Node12 -->
<g id="node12" class="node"><title>Node12</title>
<g id="a_node12"><a xlink:href="string_8hpp.html" target="_top" xlink:title="string/string.hpp">
<polygon fill="none" stroke="black" points="794,-129 794,-148 880,-148 880,-129 794,-129"/>
<text text-anchor="middle" x="837" y="-136" font-family="Helvetica,sans-Serif" font-size="10.00">string/string.hpp</text>
</a>
</g>
</g>
<!-- Node7&#45;&gt;Node12 -->
<g id="edge11" class="edge"><title>Node7&#45;&gt;Node12</title>
<path fill="none" stroke="midnightblue" d="M778.629,-306.585C804.702,-301.425 836.403,-290.24 853,-266 875.633,-232.943 858.27,-183.405 846.149,-157.208"/>
<polygon fill="midnightblue" stroke="midnightblue" points="849.236,-155.555 841.705,-148.103 842.945,-158.625 849.236,-155.555"/>
</g>
<!-- Node20 -->
<g id="node20" class="node"><title>Node20</title>
<g id="a_node20"><a xlink:href="logger_8hpp.html" target="_top" xlink:title="string/logger.hpp">
<polygon fill="none" stroke="black" points="976.5,-190.5 976.5,-209.5 1065.5,-209.5 1065.5,-190.5 976.5,-190.5"/>
<text text-anchor="middle" x="1021" y="-197.5" font-family="Helvetica,sans-Serif" font-size="10.00">string/logger.hpp</text>
</a>
</g>
</g>
<!-- Node7&#45;&gt;Node20 -->
<g id="edge25" class="edge"><title>Node7&#45;&gt;Node20</title>
<path fill="none" stroke="midnightblue" d="M772.773,-302.49C804.378,-294.516 851.458,-281.518 891,-266 929.324,-250.96 971.603,-228.689 997.228,-214.512"/>
<polygon fill="midnightblue" stroke="midnightblue" points="999.166,-217.439 1006.19,-209.508 995.754,-211.327 999.166,-217.439"/>
</g>
<!-- Node29 -->
<g id="node29" class="node"><title>Node29</title>
<g id="a_node29"><a xlink:href="auth__system_8hpp.html" target="_top" xlink:title="user/auth_system.hpp">
<polygon fill="none" stroke="black" points="519.5,-246.5 519.5,-265.5 632.5,-265.5 632.5,-246.5 519.5,-246.5"/>
<text text-anchor="middle" x="576" y="-253.5" font-family="Helvetica,sans-Serif" font-size="10.00">user/auth_system.hpp</text>
</a>
</g>
</g>
<!-- Node7&#45;&gt;Node29 -->
<g id="edge44" class="edge"><title>Node7&#45;&gt;Node29</title>
<path fill="none" stroke="midnightblue" d="M711.489,-302.444C684.404,-293.359 641.41,-278.939 611.131,-268.783"/>
<polygon fill="midnightblue" stroke="midnightblue" points="611.986,-265.378 601.392,-265.516 609.76,-272.015 611.986,-265.378"/>
</g>
<!-- Node32 -->
<g id="node32" class="node"><title>Node32</title>
<g id="a_node32"><a xlink:href="user__manager_8hpp.html" target="_top" xlink:title="user/user_manager.hpp">
<polygon fill="none" stroke="black" points="382.5,-246.5 382.5,-265.5 501.5,-265.5 501.5,-246.5 382.5,-246.5"/>
<text text-anchor="middle" x="442" y="-253.5" font-family="Helvetica,sans-Serif" font-size="10.00">user/user_manager.hpp</text>
</a>
</g>
</g>
<!-- Node7&#45;&gt;Node32 -->
<g id="edge53" class="edge"><title>Node7&#45;&gt;Node32</title>
<path fill="none" stroke="midnightblue" d="M695.359,-303.378C643.969,-293.971 556.343,-277.931 498.807,-267.399"/>
<polygon fill="midnightblue" stroke="midnightblue" points="499.25,-263.922 488.783,-265.564 497.989,-270.807 499.25,-263.922"/>
</g>
<!-- Node12&#45;&gt;Node5 -->
<g id="edge15" class="edge"><title>Node12&#45;&gt;Node5</title>
<path fill="none" stroke="midnightblue" d="M866.339,-128.967C873.713,-126.919 881.626,-124.805 889,-123 905.632,-118.929 1005.45,-98.0713 1062.35,-86.2336"/>
<polygon fill="midnightblue" stroke="midnightblue" points="1063.37,-89.5971 1072.45,-84.1343 1061.94,-82.7438 1063.37,-89.5971"/>
</g>
<!-- Node12&#45;&gt;Node6 -->
<g id="edge18" class="edge"><title>Node12&#45;&gt;Node6</title>
<path fill="none" stroke="midnightblue" d="M831.336,-128.678C820.803,-113.126 796.563,-81.1412 767,-67 627.128,-0.0942815 572.177,-60.7114 420,-31 415.487,-30.1189 410.793,-29.0153 406.168,-27.8125"/>
<polygon fill="midnightblue" stroke="midnightblue" points="406.823,-24.3622 396.252,-25.0687 404.956,-31.1087 406.823,-24.3622"/>
</g>
<!-- Node12&#45;&gt;Node10 -->
<g id="edge12" class="edge"><title>Node12&#45;&gt;Node10</title>
<path fill="none" stroke="midnightblue" d="M847.898,-128.817C863.834,-115.058 890.049,-87.6897 875,-67 847.033,-28.5514 789.16,-18.7764 752.306,-16.6264"/>
<polygon fill="midnightblue" stroke="midnightblue" points="752.195,-13.1187 742.055,-16.1924 751.898,-20.1124 752.195,-13.1187"/>
</g>
<!-- Node12&#45;&gt;Node11 -->
<g id="edge17" class="edge"><title>Node12&#45;&gt;Node11</title>
<path fill="none" stroke="midnightblue" d="M821.956,-128.975C804.725,-119.211 776.26,-103.081 755.966,-91.5808"/>
<polygon fill="midnightblue" stroke="midnightblue" points="757.442,-88.3942 747.016,-86.5091 753.991,-94.4843 757.442,-88.3942"/>
</g>
<!-- Node13 -->
<g id="node13" class="node"><title>Node13</title>
<polygon fill="none" stroke="#bfbfbf" points="628.5,-67.5 628.5,-86.5 687.5,-86.5 687.5,-67.5 628.5,-67.5"/>
<text text-anchor="middle" x="658" y="-74.5" font-family="Helvetica,sans-Serif" font-size="10.00">functional</text>
</g>
<!-- Node12&#45;&gt;Node13 -->
<g id="edge13" class="edge"><title>Node12&#45;&gt;Node13</title>
<path fill="none" stroke="midnightblue" d="M811.354,-128.975C780.383,-118.68 728.127,-101.31 693.349,-89.7502"/>
<polygon fill="midnightblue" stroke="midnightblue" points="694.192,-86.3422 683.599,-86.5091 691.984,-92.9848 694.192,-86.3422"/>
</g>
<!-- Node14 -->
<g id="node14" class="node"><title>Node14</title>
<polygon fill="none" stroke="#bfbfbf" points="814,-67.5 814,-86.5 866,-86.5 866,-67.5 814,-67.5"/>
<text text-anchor="middle" x="840" y="-74.5" font-family="Helvetica,sans-Serif" font-size="10.00">memory</text>
</g>
<!-- Node12&#45;&gt;Node14 -->
<g id="edge14" class="edge"><title>Node12&#45;&gt;Node14</title>
<path fill="none" stroke="midnightblue" d="M837.43,-128.975C837.853,-120.58 838.514,-107.481 839.059,-96.6631"/>
<polygon fill="midnightblue" stroke="midnightblue" points="842.563,-96.6727 839.571,-86.5091 835.572,-96.3201 842.563,-96.6727"/>
</g>
<!-- Node15 -->
<g id="node15" class="node"><title>Node15</title>
<polygon fill="none" stroke="#bfbfbf" points="1015.5,-6 1015.5,-25 1056.5,-25 1056.5,-6 1015.5,-6"/>
<text text-anchor="middle" x="1036" y="-13" font-family="Helvetica,sans-Serif" font-size="10.00">string</text>
</g>
<!-- Node12&#45;&gt;Node15 -->
<g id="edge16" class="edge"><title>Node12&#45;&gt;Node15</title>
<path fill="none" stroke="midnightblue" d="M867.516,-128.97C874.569,-127.004 882.045,-124.925 889,-123 947.192,-106.891 978.276,-130.646 1020,-87 1033.12,-73.2753 1036.32,-51.1521 1036.74,-35.3493"/>
<polygon fill="midnightblue" stroke="midnightblue" points="1040.24,-35.1419 1036.66,-25.1699 1033.24,-35.1973 1040.24,-35.1419"/>
</g>
<!-- Node16 -->
<g id="node16" class="node"><title>Node16</title>
<polygon fill="none" stroke="#bfbfbf" points="528,-67.5 528,-86.5 572,-86.5 572,-67.5 528,-67.5"/>
<text text-anchor="middle" x="550" y="-74.5" font-family="Helvetica,sans-Serif" font-size="10.00">vector</text>
</g>
<!-- Node12&#45;&gt;Node16 -->
<g id="edge19" class="edge"><title>Node12&#45;&gt;Node16</title>
<path fill="none" stroke="midnightblue" d="M795.88,-128.975C738.312,-117.04 634.877,-95.5965 582.414,-84.7199"/>
<polygon fill="midnightblue" stroke="midnightblue" points="582.83,-81.232 572.328,-82.629 581.409,-88.0862 582.83,-81.232"/>
</g>
<!-- Node17 -->
<g id="node17" class="node"><title>Node17</title>
<g id="a_node17"><a xlink:href="color_8hpp.html" target="_top" xlink:title="color.hpp">
<polygon fill="none" stroke="black" points="922,-67.5 922,-86.5 978,-86.5 978,-67.5 922,-67.5"/>
<text text-anchor="middle" x="950" y="-74.5" font-family="Helvetica,sans-Serif" font-size="10.00">color.hpp</text>
</a>
</g>
</g>
<!-- Node12&#45;&gt;Node17 -->
<g id="edge20" class="edge"><title>Node12&#45;&gt;Node17</title>
<path fill="none" stroke="midnightblue" d="M853.19,-128.975C871.902,-119.122 902.923,-102.788 924.799,-91.2697"/>
<polygon fill="midnightblue" stroke="midnightblue" points="926.622,-94.2651 933.84,-86.5091 923.361,-88.0713 926.622,-94.2651"/>
</g>
<!-- Node17&#45;&gt;Node10 -->
<g id="edge22" class="edge"><title>Node17&#45;&gt;Node10</title>
<path fill="none" stroke="midnightblue" d="M921.675,-68.7041C878.867,-57.6779 797.863,-36.8132 752.296,-25.0761"/>
<polygon fill="midnightblue" stroke="midnightblue" points="752.884,-21.6135 742.327,-22.5085 751.138,-28.3923 752.884,-21.6135"/>
</g>
<!-- Node17&#45;&gt;Node15 -->
<g id="edge24" class="edge"><title>Node17&#45;&gt;Node15</title>
<path fill="none" stroke="midnightblue" d="M962.322,-67.4751C976.116,-57.9315 998.699,-42.3073 1015.23,-30.8683"/>
<polygon fill="midnightblue" stroke="midnightblue" points="1017.47,-33.577 1023.7,-25.0091 1013.49,-27.8205 1017.47,-33.577"/>
</g>
<!-- Node18 -->
<g id="node18" class="node"><title>Node18</title>
<polygon fill="none" stroke="#bfbfbf" points="935,-6 935,-25 981,-25 981,-6 935,-6"/>
<text text-anchor="middle" x="958" y="-13" font-family="Helvetica,sans-Serif" font-size="10.00">cctype</text>
</g>
<!-- Node17&#45;&gt;Node18 -->
<g id="edge21" class="edge"><title>Node17&#45;&gt;Node18</title>
<path fill="none" stroke="midnightblue" d="M951.146,-67.4751C952.275,-59.0803 954.036,-45.9806 955.491,-35.1631"/>
<polygon fill="midnightblue" stroke="midnightblue" points="958.992,-35.3863 956.856,-25.0091 952.055,-34.4535 958.992,-35.3863"/>
</g>
<!-- Node19 -->
<g id="node19" class="node"><title>Node19</title>
<polygon fill="none" stroke="#bfbfbf" points="871.5,-6 871.5,-25 916.5,-25 916.5,-6 871.5,-6"/>
<text text-anchor="middle" x="894" y="-13" font-family="Helvetica,sans-Serif" font-size="10.00">cstdlib</text>
</g>
<!-- Node17&#45;&gt;Node19 -->
<g id="edge23" class="edge"><title>Node17&#45;&gt;Node19</title>
<path fill="none" stroke="midnightblue" d="M941.977,-67.4751C933.41,-58.3733 919.639,-43.741 909.043,-32.483"/>
<polygon fill="midnightblue" stroke="midnightblue" points="911.411,-29.8923 902.009,-25.0091 906.314,-34.6899 911.411,-29.8923"/>
</g>
<!-- Node20&#45;&gt;Node5 -->
<g id="edge29" class="edge"><title>Node20&#45;&gt;Node5</title>
<path fill="none" stroke="midnightblue" d="M1037.96,-190.388C1051.54,-182.644 1070.07,-170.029 1081,-154 1092.78,-136.724 1097.98,-113.006 1100.26,-96.6852"/>
<polygon fill="midnightblue" stroke="midnightblue" points="1103.73,-97.0745 1101.41,-86.7375 1096.78,-96.2671 1103.73,-97.0745"/>
</g>
<!-- Node20&#45;&gt;Node6 -->
<g id="edge31" class="edge"><title>Node20&#45;&gt;Node6</title>
<path fill="none" stroke="midnightblue" d="M976.307,-194.633C855.176,-182.159 523.491,-143.591 431,-87 409.303,-73.7246 391.257,-50.1797 380.555,-33.977"/>
<polygon fill="midnightblue" stroke="midnightblue" points="383.441,-31.9916 375.131,-25.4187 377.528,-35.7388 383.441,-31.9916"/>
</g>
<!-- Node20&#45;&gt;Node12 -->
<g id="edge38" class="edge"><title>Node20&#45;&gt;Node12</title>
<path fill="none" stroke="midnightblue" d="M994.637,-190.475C962.665,-180.136 908.624,-162.661 872.878,-151.102"/>
<polygon fill="midnightblue" stroke="midnightblue" points="873.906,-147.756 863.314,-148.009 871.752,-154.416 873.906,-147.756"/>
</g>
<!-- Node20&#45;&gt;Node15 -->
<g id="edge30" class="edge"><title>Node20&#45;&gt;Node15</title>
<path fill="none" stroke="midnightblue" d="M1065.72,-195.486C1165.54,-186 1392.2,-154.418 1319,-67 1287.13,-28.9408 1133.91,-19.5372 1067.18,-17.2359"/>
<polygon fill="midnightblue" stroke="midnightblue" points="1066.97,-13.728 1056.87,-16.9139 1066.76,-20.7246 1066.97,-13.728"/>
</g>
<!-- Node21 -->
<g id="node21" class="node"><title>Node21</title>
<polygon fill="none" stroke="#bfbfbf" points="1022,-129 1022,-148 1072,-148 1072,-129 1022,-129"/>
<text text-anchor="middle" x="1047" y="-136" font-family="Helvetica,sans-Serif" font-size="10.00">iomanip</text>
</g>
<!-- Node20&#45;&gt;Node21 -->
<g id="edge26" class="edge"><title>Node20&#45;&gt;Node21</title>
<path fill="none" stroke="midnightblue" d="M1024.73,-190.475C1028.47,-181.904 1034.36,-168.427 1039.14,-157.483"/>
<polygon fill="midnightblue" stroke="midnightblue" points="1042.48,-158.574 1043.28,-148.009 1036.07,-155.771 1042.48,-158.574"/>
</g>
<!-- Node22 -->
<g id="node22" class="node"><title>Node22</title>
<polygon fill="none" stroke="#bfbfbf" points="1256,-67.5 1256,-86.5 1310,-86.5 1310,-67.5 1256,-67.5"/>
<text text-anchor="middle" x="1283" y="-74.5" font-family="Helvetica,sans-Serif" font-size="10.00">iostream</text>
</g>
<!-- Node20&#45;&gt;Node22 -->
<g id="edge27" class="edge"><title>Node20&#45;&gt;Node22</title>
<path fill="none" stroke="midnightblue" d="M1065.8,-194.667C1122.88,-188.368 1217.43,-175.079 1245,-154 1263.46,-139.889 1273.59,-114.374 1278.65,-96.8287"/>
<polygon fill="midnightblue" stroke="midnightblue" points="1282.17,-97.2074 1281.28,-86.6497 1275.39,-95.4553 1282.17,-97.2074"/>
</g>
<!-- Node23 -->
<g id="node23" class="node"><title>Node23</title>
<polygon fill="none" stroke="#bfbfbf" points="1349,-129 1349,-148 1393,-148 1393,-129 1349,-129"/>
<text text-anchor="middle" x="1371" y="-136" font-family="Helvetica,sans-Serif" font-size="10.00">mutex</text>
</g>
<!-- Node20&#45;&gt;Node23 -->
<g id="edge28" class="edge"><title>Node20&#45;&gt;Node23</title>
<path fill="none" stroke="midnightblue" d="M1065.62,-195.998C1127.12,-191.097 1241,-179.27 1335,-154 1337.51,-153.327 1340.07,-152.528 1342.62,-151.656"/>
<polygon fill="midnightblue" stroke="midnightblue" points="1344.1,-154.839 1352.24,-148.049 1341.64,-148.286 1344.1,-154.839"/>
</g>
<!-- Node24 -->
<g id="node24" class="node"><title>Node24</title>
<polygon fill="none" stroke="#bfbfbf" points="898.5,-123.5 898.5,-153.5 1003.5,-153.5 1003.5,-123.5 898.5,-123.5"/>
<text text-anchor="start" x="906.5" y="-141.5" font-family="Helvetica,sans-Serif" font-size="10.00">boost/chrono/io/time</text>
<text text-anchor="middle" x="951" y="-130.5" font-family="Helvetica,sans-Serif" font-size="10.00">_point_io.hpp</text>
</g>
<!-- Node20&#45;&gt;Node24 -->
<g id="edge32" class="edge"><title>Node20&#45;&gt;Node24</title>
<path fill="none" stroke="midnightblue" d="M1010.97,-190.475C1001.67,-182.567 987.453,-170.485 975.197,-160.067"/>
<polygon fill="midnightblue" stroke="midnightblue" points="977.384,-157.333 967.498,-153.523 972.85,-162.666 977.384,-157.333"/>
</g>
<!-- Node25 -->
<g id="node25" class="node"><title>Node25</title>
<g id="a_node25"><a xlink:href="multibuf_8hpp.html" target="_top" xlink:title="multibuf.hpp">
<polygon fill="none" stroke="black" points="1166,-129 1166,-148 1236,-148 1236,-129 1166,-129"/>
<text text-anchor="middle" x="1201" y="-136" font-family="Helvetica,sans-Serif" font-size="10.00">multibuf.hpp</text>
</a>
</g>
</g>
<!-- Node20&#45;&gt;Node25 -->
<g id="edge33" class="edge"><title>Node20&#45;&gt;Node25</title>
<path fill="none" stroke="midnightblue" d="M1046.79,-190.475C1077.93,-180.18 1130.48,-162.81 1165.45,-151.25"/>
<polygon fill="midnightblue" stroke="midnightblue" points="1166.86,-154.471 1175.26,-148.009 1164.66,-147.825 1166.86,-154.471"/>
</g>
<!-- Node27 -->
<g id="node27" class="node"><title>Node27</title>
<g id="a_node27"><a xlink:href="settings_8hpp.html" target="_top" xlink:title="settings.hpp">
<polygon fill="none" stroke="black" points="440,-67.5 440,-86.5 510,-86.5 510,-67.5 440,-67.5"/>
<text text-anchor="middle" x="475" y="-74.5" font-family="Helvetica,sans-Serif" font-size="10.00">settings.hpp</text>
</a>
</g>
</g>
<!-- Node20&#45;&gt;Node27 -->
<g id="edge39" class="edge"><title>Node20&#45;&gt;Node27</title>
<path fill="none" stroke="midnightblue" d="M976.084,-192.859C928.192,-185.751 850.397,-172.591 785,-154 747.923,-143.46 741.057,-133.61 704,-123 626.46,-100.799 602.882,-103.174 519.921,-87.1407"/>
<polygon fill="midnightblue" stroke="midnightblue" points="520.546,-83.6965 510.058,-85.2025 519.196,-90.5652 520.546,-83.6965"/>
</g>
<!-- Node25&#45;&gt;Node15 -->
<g id="edge37" class="edge"><title>Node25&#45;&gt;Node15</title>
<path fill="none" stroke="midnightblue" d="M1195.17,-128.681C1185.26,-114.242 1163.88,-85.3332 1140,-67 1117.36,-49.6162 1087.78,-35.9616 1065.95,-27.2578"/>
<polygon fill="midnightblue" stroke="midnightblue" points="1067.11,-23.9543 1056.52,-23.6116 1064.59,-30.4831 1067.11,-23.9543"/>
</g>
<!-- Node25&#45;&gt;Node16 -->
<g id="edge36" class="edge"><title>Node25&#45;&gt;Node16</title>
<path fill="none" stroke="midnightblue" d="M1165.86,-132.856C1141.96,-129.795 1109.61,-125.842 1081,-123 876.053,-102.642 823.849,-108.326 619,-87 606.949,-85.7454 593.749,-84.0924 582.151,-82.5457"/>
<polygon fill="midnightblue" stroke="midnightblue" points="582.409,-79.0487 572.029,-81.1697 581.466,-85.9849 582.409,-79.0487"/>
</g>
<!-- Node25&#45;&gt;Node22 -->
<g id="edge34" class="edge"><title>Node25&#45;&gt;Node22</title>
<path fill="none" stroke="midnightblue" d="M1212.75,-128.975C1225.78,-119.52 1247.04,-104.096 1262.76,-92.6871"/>
<polygon fill="midnightblue" stroke="midnightblue" points="1265.23,-95.2149 1271.27,-86.5091 1261.12,-89.5492 1265.23,-95.2149"/>
</g>
<!-- Node26 -->
<g id="node26" class="node"><title>Node26</title>
<polygon fill="none" stroke="#bfbfbf" points="1188,-67.5 1188,-86.5 1238,-86.5 1238,-67.5 1188,-67.5"/>
<text text-anchor="middle" x="1213" y="-74.5" font-family="Helvetica,sans-Serif" font-size="10.00">fstream</text>
</g>
<!-- Node25&#45;&gt;Node26 -->
<g id="edge35" class="edge"><title>Node25&#45;&gt;Node26</title>
<path fill="none" stroke="midnightblue" d="M1202.72,-128.975C1204.43,-120.492 1207.11,-107.204 1209.3,-96.3222"/>
<polygon fill="midnightblue" stroke="midnightblue" points="1212.74,-97.0037 1211.28,-86.5091 1205.88,-95.6197 1212.74,-97.0037"/>
</g>
<!-- Node27&#45;&gt;Node6 -->
<g id="edge42" class="edge"><title>Node27&#45;&gt;Node6</title>
<path fill="none" stroke="midnightblue" d="M459.956,-67.4751C442.725,-57.7106 414.26,-41.5807 393.966,-30.0808"/>
<polygon fill="midnightblue" stroke="midnightblue" points="395.442,-26.8942 385.016,-25.0091 391.991,-32.9843 395.442,-26.8942"/>
</g>
<!-- Node27&#45;&gt;Node10 -->
<g id="edge41" class="edge"><title>Node27&#45;&gt;Node10</title>
<path fill="none" stroke="midnightblue" d="M509.959,-67.4751C557.002,-56.0035 640.074,-35.7464 686.059,-24.5326"/>
<polygon fill="midnightblue" stroke="midnightblue" points="686.939,-27.9208 695.825,-22.1513 685.281,-21.1201 686.939,-27.9208"/>
</g>
<!-- Node27&#45;&gt;Node15 -->
<g id="edge40" class="edge"><title>Node27&#45;&gt;Node15</title>
<path fill="none" stroke="midnightblue" d="M510.475,-68.3457C513.352,-67.8465 516.22,-67.389 519,-67 726.918,-37.9068 783.867,-70.8192 990,-31 995.11,-30.0129 1000.45,-28.6503 1005.61,-27.1528"/>
<polygon fill="midnightblue" stroke="midnightblue" points="1006.68,-30.4835 1015.19,-24.17 1004.6,-23.7997 1006.68,-30.4835"/>
</g>
<!-- Node28 -->
<g id="node28" class="node"><title>Node28</title>
<polygon fill="none" stroke="#bfbfbf" points="429.5,-0.5 429.5,-30.5 530.5,-30.5 530.5,-0.5 429.5,-0.5"/>
<text text-anchor="start" x="437.5" y="-18.5" font-family="Helvetica,sans-Serif" font-size="10.00">boost/property_tree</text>
<text text-anchor="middle" x="480" y="-7.5" font-family="Helvetica,sans-Serif" font-size="10.00">/ptree.hpp</text>
</g>
<!-- Node27&#45;&gt;Node28 -->
<g id="edge43" class="edge"><title>Node27&#45;&gt;Node28</title>
<path fill="none" stroke="midnightblue" d="M475.716,-67.4751C476.305,-60.471 477.169,-50.1919 477.967,-40.6956"/>
<polygon fill="midnightblue" stroke="midnightblue" points="481.472,-40.781 478.822,-30.523 474.496,-40.1947 481.472,-40.781"/>
</g>
<!-- Node29&#45;&gt;Node6 -->
<g id="edge45" class="edge"><title>Node29&#45;&gt;Node6</title>
<path fill="none" stroke="midnightblue" d="M553.362,-246.499C534.465,-238.74 507.419,-226.049 487,-210 430.491,-165.583 412.459,-152.103 382,-87 374.361,-70.6727 371.527,-50.189 370.505,-35.5151"/>
<polygon fill="midnightblue" stroke="midnightblue" points="373.985,-35.0063 370.016,-25.1828 366.993,-35.337 373.985,-35.0063"/>
</g>
<!-- Node30 -->
<g id="node30" class="node"><title>Node30</title>
<g id="a_node30"><a xlink:href="user__group_8hpp.html" target="_top" xlink:title="user_group.hpp">
<polygon fill="none" stroke="black" points="496.5,-190.5 496.5,-209.5 579.5,-209.5 579.5,-190.5 496.5,-190.5"/>
<text text-anchor="middle" x="538" y="-197.5" font-family="Helvetica,sans-Serif" font-size="10.00">user_group.hpp</text>
</a>
</g>
</g>
<!-- Node29&#45;&gt;Node30 -->
<g id="edge46" class="edge"><title>Node29&#45;&gt;Node30</title>
<path fill="none" stroke="midnightblue" d="M569.725,-246.083C564.358,-238.455 556.482,-227.264 549.921,-217.941"/>
<polygon fill="midnightblue" stroke="midnightblue" points="552.775,-215.915 544.158,-209.751 547.051,-219.943 552.775,-215.915"/>
</g>
<!-- Node30&#45;&gt;Node16 -->
<g id="edge47" class="edge"><title>Node30&#45;&gt;Node16</title>
<path fill="none" stroke="midnightblue" d="M538.863,-190.298C540.792,-170.85 545.489,-123.49 548.125,-96.9036"/>
<polygon fill="midnightblue" stroke="midnightblue" points="551.641,-96.9198 549.145,-86.6232 544.675,-96.2289 551.641,-96.9198"/>
</g>
<!-- Node31 -->
<g id="node31" class="node"><title>Node31</title>
<g id="a_node31"><a xlink:href="user_8hpp.html" target="_top" xlink:title="user.hpp">
<polygon fill="none" stroke="black" points="453,-129 453,-148 507,-148 507,-129 453,-129"/>
<text text-anchor="middle" x="480" y="-136" font-family="Helvetica,sans-Serif" font-size="10.00">user.hpp</text>
</a>
</g>
</g>
<!-- Node30&#45;&gt;Node31 -->
<g id="edge48" class="edge"><title>Node30&#45;&gt;Node31</title>
<path fill="none" stroke="midnightblue" d="M529.69,-190.475C520.818,-181.373 506.554,-166.741 495.58,-155.483"/>
<polygon fill="midnightblue" stroke="midnightblue" points="497.781,-152.727 488.295,-148.009 492.769,-157.613 497.781,-152.727"/>
</g>
<!-- Node31&#45;&gt;Node6 -->
<g id="edge51" class="edge"><title>Node31&#45;&gt;Node6</title>
<path fill="none" stroke="midnightblue" d="M458.487,-128.905C440.185,-120.617 414.341,-106.463 398,-87 385.325,-71.9042 377.9,-50.3616 373.919,-35.0706"/>
<polygon fill="midnightblue" stroke="midnightblue" points="377.299,-34.1558 371.603,-25.2229 370.485,-35.7586 377.299,-34.1558"/>
</g>
<!-- Node31&#45;&gt;Node15 -->
<g id="edge49" class="edge"><title>Node31&#45;&gt;Node15</title>
<path fill="none" stroke="midnightblue" d="M507.108,-136.125C606.229,-130.917 945.39,-111.455 987,-87 1007.22,-75.1166 1021.09,-51.2085 1028.79,-34.5463"/>
<polygon fill="midnightblue" stroke="midnightblue" points="1032.04,-35.8491 1032.78,-25.2803 1025.61,-33.0798 1032.04,-35.8491"/>
</g>
<!-- Node31&#45;&gt;Node16 -->
<g id="edge50" class="edge"><title>Node31&#45;&gt;Node16</title>
<path fill="none" stroke="midnightblue" d="M490.029,-128.975C501.049,-119.608 518.96,-104.384 532.343,-93.0081"/>
<polygon fill="midnightblue" stroke="midnightblue" points="534.637,-95.6524 539.989,-86.5091 530.103,-90.3188 534.637,-95.6524"/>
</g>
<!-- Node31&#45;&gt;Node27 -->
<g id="edge52" class="edge"><title>Node31&#45;&gt;Node27</title>
<path fill="none" stroke="midnightblue" d="M479.284,-128.975C478.578,-120.58 477.477,-107.481 476.568,-96.6631"/>
<polygon fill="midnightblue" stroke="midnightblue" points="480.04,-96.1808 475.715,-86.5091 473.065,-96.7671 480.04,-96.1808"/>
</g>
<!-- Node32&#45;&gt;Node2 -->
<g id="edge55" class="edge"><title>Node32&#45;&gt;Node2</title>
<path fill="none" stroke="midnightblue" d="M395.89,-246.444C333.462,-234.859 224.273,-214.597 175.613,-205.567"/>
<polygon fill="midnightblue" stroke="midnightblue" points="176.128,-202.103 165.658,-203.72 174.851,-208.986 176.128,-202.103"/>
</g>
<!-- Node32&#45;&gt;Node31 -->
<g id="edge54" class="edge"><title>Node32&#45;&gt;Node31</title>
<path fill="none" stroke="midnightblue" d="M444.856,-246.319C451.018,-227.59 465.673,-183.046 473.982,-157.792"/>
<polygon fill="midnightblue" stroke="midnightblue" points="477.31,-158.875 477.111,-148.282 470.661,-156.687 477.31,-158.875"/>
</g>
<!-- Node33&#45;&gt;Node7 -->
<g id="edge60" class="edge"><title>Node33&#45;&gt;Node7</title>
<path fill="none" stroke="midnightblue" d="M908.676,-358.444C873.611,-349.162 817.502,-334.309 779.035,-324.127"/>
<polygon fill="midnightblue" stroke="midnightblue" points="779.736,-320.692 769.173,-321.516 777.945,-327.459 779.736,-320.692"/>
</g>
<!-- Node33&#45;&gt;Node20 -->
<g id="edge67" class="edge"><title>Node33&#45;&gt;Node20</title>
<path fill="none" stroke="midnightblue" d="M947.772,-358.4C954.493,-349.601 964.803,-335.364 972,-322 990.731,-287.219 1006.67,-243.706 1014.94,-219.476"/>
<polygon fill="midnightblue" stroke="midnightblue" points="1018.32,-220.395 1018.18,-209.802 1011.68,-218.172 1018.32,-220.395"/>
</g>
<!-- Node33&#45;&gt;Node23 -->
<g id="edge57" class="edge"><title>Node33&#45;&gt;Node23</title>
<path fill="none" stroke="midnightblue" d="M979.098,-360.606C1013.81,-353.89 1065.93,-341.547 1108,-322 1209.17,-274.998 1313.37,-189.507 1353.66,-154.778"/>
<polygon fill="midnightblue" stroke="midnightblue" points="1356.01,-157.372 1361.26,-148.17 1351.42,-152.089 1356.01,-157.372"/>
</g>
<!-- Node34 -->
<g id="node34" class="node"><title>Node34</title>
<polygon fill="none" stroke="#bfbfbf" points="919,-302.5 919,-321.5 963,-321.5 963,-302.5 919,-302.5"/>
<text text-anchor="middle" x="941" y="-309.5" font-family="Helvetica,sans-Serif" font-size="10.00">thread</text>
</g>
<!-- Node33&#45;&gt;Node34 -->
<g id="edge58" class="edge"><title>Node33&#45;&gt;Node34</title>
<path fill="none" stroke="midnightblue" d="M941,-358.083C941,-351.006 941,-340.861 941,-331.986"/>
<polygon fill="midnightblue" stroke="midnightblue" points="944.5,-331.751 941,-321.751 937.5,-331.751 944.5,-331.751"/>
</g>
<!-- Node35 -->
<g id="node35" class="node"><title>Node35</title>
<polygon fill="none" stroke="#bfbfbf" points="1019,-302.5 1019,-321.5 1099,-321.5 1099,-302.5 1019,-302.5"/>
<text text-anchor="middle" x="1059" y="-309.5" font-family="Helvetica,sans-Serif" font-size="10.00">boost/asio.hpp</text>
</g>
<!-- Node33&#45;&gt;Node35 -->
<g id="edge59" class="edge"><title>Node33&#45;&gt;Node35</title>
<path fill="none" stroke="midnightblue" d="M959.697,-358.444C978.944,-349.636 1009.15,-335.812 1031.2,-325.722"/>
<polygon fill="midnightblue" stroke="midnightblue" points="1032.75,-328.86 1040.39,-321.516 1029.84,-322.495 1032.75,-328.86"/>
</g>
<!-- Node36 -->
<g id="node36" class="node"><title>Node36</title>
<g id="a_node36"><a xlink:href="concurrent__container_8hpp.html" target="_top" xlink:title="concurrent_container.hpp">
<polygon fill="none" stroke="black" points="318,-302.5 318,-321.5 444,-321.5 444,-302.5 318,-302.5"/>
<text text-anchor="middle" x="381" y="-309.5" font-family="Helvetica,sans-Serif" font-size="10.00">concurrent_container.hpp</text>
</a>
</g>
</g>
<!-- Node33&#45;&gt;Node36 -->
<g id="edge61" class="edge"><title>Node33&#45;&gt;Node36</title>
<path fill="none" stroke="midnightblue" d="M902.949,-363.331C810.976,-354.462 575.305,-331.737 454.625,-320.1"/>
<polygon fill="midnightblue" stroke="midnightblue" points="454.662,-316.587 444.373,-319.111 453.991,-323.555 454.662,-316.587"/>
</g>
<!-- Node36&#45;&gt;Node3 -->
<g id="edge65" class="edge"><title>Node36&#45;&gt;Node3</title>
<path fill="none" stroke="midnightblue" d="M340.594,-302.444C289.913,-291.711 204.062,-273.531 157.8,-263.734"/>
<polygon fill="midnightblue" stroke="midnightblue" points="158.254,-260.253 147.745,-261.605 156.803,-267.101 158.254,-260.253"/>
</g>
<!-- Node36&#45;&gt;Node8 -->
<g id="edge62" class="edge"><title>Node36&#45;&gt;Node8</title>
<path fill="none" stroke="midnightblue" d="M374.395,-302.083C368.745,-294.455 360.455,-283.264 353.549,-273.941"/>
<polygon fill="midnightblue" stroke="midnightblue" points="356.247,-271.703 347.482,-265.751 350.622,-275.87 356.247,-271.703"/>
</g>
<!-- Node36&#45;&gt;Node13 -->
<g id="edge64" class="edge"><title>Node36&#45;&gt;Node13</title>
<path fill="none" stroke="midnightblue" d="M444.117,-309.81C516.943,-306.948 630.148,-297.415 657,-266 698.499,-217.449 677.14,-133.275 664.771,-96.3057"/>
<polygon fill="midnightblue" stroke="midnightblue" points="668.055,-95.0934 661.44,-86.8172 661.45,-97.4121 668.055,-95.0934"/>
</g>
<!-- Node36&#45;&gt;Node16 -->
<g id="edge66" class="edge"><title>Node36&#45;&gt;Node16</title>
<path fill="none" stroke="midnightblue" d="M444.184,-309.092C512.919,-305.528 616.329,-295.307 641,-266 646.724,-259.2 643.184,-254.616 641,-246 632.958,-214.27 583.229,-131.611 560.87,-95.41"/>
<polygon fill="midnightblue" stroke="midnightblue" points="563.828,-93.5386 555.581,-86.8875 557.88,-97.2298 563.828,-93.5386"/>
</g>
<!-- Node37 -->
<g id="node37" class="node"><title>Node37</title>
<polygon fill="none" stroke="#bfbfbf" points="204.5,-246.5 204.5,-265.5 299.5,-265.5 299.5,-246.5 204.5,-246.5"/>
<text text-anchor="middle" x="252" y="-253.5" font-family="Helvetica,sans-Serif" font-size="10.00">condition_variable</text>
</g>
<!-- Node36&#45;&gt;Node37 -->
<g id="edge63" class="edge"><title>Node36&#45;&gt;Node37</title>
<path fill="none" stroke="midnightblue" d="M360.56,-302.444C339.33,-293.557 305.901,-279.563 281.745,-269.451"/>
<polygon fill="midnightblue" stroke="midnightblue" points="282.921,-266.149 272.345,-265.516 280.218,-272.606 282.921,-266.149"/>
</g>
<!-- Node38&#45;&gt;Node3 -->
<g id="edge72" class="edge"><title>Node38&#45;&gt;Node3</title>
<path fill="none" stroke="midnightblue" d="M253.761,-358.42C237.663,-350.068 213.289,-336.538 194,-322 174.158,-307.045 153.883,-286.908 140.698,-273.03"/>
<polygon fill="midnightblue" stroke="midnightblue" points="143.199,-270.58 133.811,-265.669 138.087,-275.363 143.199,-270.58"/>
</g>
<!-- Node38&#45;&gt;Node6 -->
<g id="edge74" class="edge"><title>Node38&#45;&gt;Node6</title>
<path fill="none" stroke="midnightblue" d="M230.946,-365.677C164.328,-361.106 38,-341.321 38,-257 38,-257 38,-257 38,-137.5 38,-78.5908 224.848,-39.9703 318.199,-24.3513"/>
<polygon fill="midnightblue" stroke="midnightblue" points="318.989,-27.7685 328.288,-22.6919 317.853,-20.8613 318.989,-27.7685"/>
</g>
<!-- Node38&#45;&gt;Node7 -->
<g id="edge77" class="edge"><title>Node38&#45;&gt;Node7</title>
<path fill="none" stroke="midnightblue" d="M311.134,-362.349C395.613,-352.56 591.692,-329.838 685.37,-318.983"/>
<polygon fill="midnightblue" stroke="midnightblue" points="685.932,-322.441 695.462,-317.813 685.126,-315.488 685.932,-322.441"/>
</g>
<!-- Node38&#45;&gt;Node8 -->
<g id="edge69" class="edge"><title>Node38&#45;&gt;Node8</title>
<path fill="none" stroke="midnightblue" d="M275.683,-358.441C282.632,-345.87 296.232,-321.763 309,-302 315.112,-292.539 322.355,-282.283 328.403,-273.954"/>
<polygon fill="midnightblue" stroke="midnightblue" points="331.29,-275.935 334.386,-265.803 325.648,-271.793 331.29,-275.935"/>
</g>
<!-- Node38&#45;&gt;Node23 -->
<g id="edge71" class="edge"><title>Node38&#45;&gt;Node23</title>
<path fill="none" stroke="midnightblue" d="M311.228,-366.435C398.638,-364.567 612.103,-356.532 787,-322 1004.03,-279.149 1254.43,-185.243 1340.28,-151.705"/>
<polygon fill="midnightblue" stroke="midnightblue" points="1341.66,-154.923 1349.69,-148.012 1339.11,-148.407 1341.66,-154.923"/>
</g>
<!-- Node38&#45;&gt;Node27 -->
<g id="edge76" class="edge"><title>Node38&#45;&gt;Node27</title>
<path fill="none" stroke="midnightblue" d="M258.172,-358.361C230.692,-338.741 170.555,-289.174 195,-246 245.772,-156.328 365.613,-109.298 430.839,-89.5642"/>
<polygon fill="midnightblue" stroke="midnightblue" points="432.213,-92.8084 440.819,-86.6292 430.238,-86.0928 432.213,-92.8084"/>
</g>
<!-- Node38&#45;&gt;Node34 -->
<g id="edge73" class="edge"><title>Node38&#45;&gt;Node34</title>
<path fill="none" stroke="midnightblue" d="M311.332,-366.566C412.092,-364.957 682.695,-357.401 905,-322 906.253,-321.801 907.525,-321.579 908.808,-321.339"/>
<polygon fill="midnightblue" stroke="midnightblue" points="909.612,-324.746 918.656,-319.226 908.144,-317.901 909.612,-324.746"/>
</g>
<!-- Node38&#45;&gt;Node36 -->
<g id="edge75" class="edge"><title>Node38&#45;&gt;Node36</title>
<path fill="none" stroke="midnightblue" d="M288.673,-358.324C306.394,-349.625 333.903,-336.12 354.288,-326.113"/>
<polygon fill="midnightblue" stroke="midnightblue" points="355.936,-329.203 363.37,-321.655 352.851,-322.919 355.936,-329.203"/>
</g>
<!-- Node38&#45;&gt;Node37 -->
<g id="edge70" class="edge"><title>Node38&#45;&gt;Node37</title>
<path fill="none" stroke="midnightblue" d="M269.509,-358.368C266.443,-340.617 259.37,-299.666 255.212,-275.597"/>
<polygon fill="midnightblue" stroke="midnightblue" points="258.635,-274.85 253.484,-265.591 251.737,-276.041 258.635,-274.85"/>
</g>
</g>
</svg>
