<?xml version="1.0" encoding="UTF-8" standalone="no"?>
<!DOCTYPE svg PUBLIC "-//W3C//DTD SVG 1.1//EN"
 "http://www.w3.org/Graphics/SVG/1.1/DTD/svg11.dtd">
<!-- Generated by graphviz version 2.38.0 (20140413.2041)
 -->
<!-- Title: modules/irc/irc_formatter.hpp Pages: 1 -->
<svg width="711pt" height="196pt"
 viewBox="0.00 0.00 711.00 196.00" xmlns="http://www.w3.org/2000/svg" xmlns:xlink="http://www.w3.org/1999/xlink">
<g id="graph0" class="graph" transform="scale(1 1) rotate(0) translate(4 192)">
<title>modules/irc/irc_formatter.hpp</title>
<!-- Node1 -->
<g id="node1" class="node"><title>Node1</title>
<polygon fill="#bfbfbf" stroke="black" points="250.5,-168.5 250.5,-187.5 393.5,-187.5 393.5,-168.5 250.5,-168.5"/>
<text text-anchor="middle" x="322" y="-175.5" font-family="Helvetica,sans-Serif" font-size="10.00">modules/irc/irc_formatter.hpp</text>
</g>
<!-- Node2 -->
<g id="node2" class="node"><title>Node2</title>
<g id="a_node2"><a xlink:href="string_8hpp.html" target="_top" xlink:title="string/string.hpp">
<polygon fill="none" stroke="black" points="279,-112.5 279,-131.5 365,-131.5 365,-112.5 279,-112.5"/>
<text text-anchor="middle" x="322" y="-119.5" font-family="Helvetica,sans-Serif" font-size="10.00">string/string.hpp</text>
</a>
</g>
</g>
<!-- Node1&#45;&gt;Node2 -->
<g id="edge1" class="edge"><title>Node1&#45;&gt;Node2</title>
<path fill="none" stroke="midnightblue" d="M322,-168.083C322,-161.006 322,-150.861 322,-141.986"/>
<polygon fill="midnightblue" stroke="midnightblue" points="325.5,-141.751 322,-131.751 318.5,-141.751 325.5,-141.751"/>
</g>
<!-- Node3 -->
<g id="node3" class="node"><title>Node3</title>
<polygon fill="none" stroke="#bfbfbf" points="0,-0.5 0,-19.5 46,-19.5 46,-0.5 0,-0.5"/>
<text text-anchor="middle" x="23" y="-7.5" font-family="Helvetica,sans-Serif" font-size="10.00">cstdint</text>
</g>
<!-- Node2&#45;&gt;Node3 -->
<g id="edge2" class="edge"><title>Node2&#45;&gt;Node3</title>
<path fill="none" stroke="midnightblue" d="M278.69,-120.885C228.59,-119.005 145.053,-110.364 83,-76 62.306,-64.54 44.793,-43.3391 34.1249,-28.2679"/>
<polygon fill="midnightblue" stroke="midnightblue" points="36.9065,-26.1335 28.3998,-19.818 31.1114,-30.06 36.9065,-26.1335"/>
</g>
<!-- Node4 -->
<g id="node4" class="node"><title>Node4</title>
<polygon fill="none" stroke="#bfbfbf" points="181.5,-56.5 181.5,-75.5 240.5,-75.5 240.5,-56.5 181.5,-56.5"/>
<text text-anchor="middle" x="211" y="-63.5" font-family="Helvetica,sans-Serif" font-size="10.00">functional</text>
</g>
<!-- Node2&#45;&gt;Node4 -->
<g id="edge3" class="edge"><title>Node2&#45;&gt;Node4</title>
<path fill="none" stroke="midnightblue" d="M304.166,-112.324C286.284,-103.625 258.525,-90.1202 237.954,-80.113"/>
<polygon fill="midnightblue" stroke="midnightblue" points="239.313,-76.8819 228.79,-75.6545 236.251,-83.1765 239.313,-76.8819"/>
</g>
<!-- Node5 -->
<g id="node5" class="node"><title>Node5</title>
<polygon fill="none" stroke="#bfbfbf" points="259,-56.5 259,-75.5 311,-75.5 311,-56.5 259,-56.5"/>
<text text-anchor="middle" x="285" y="-63.5" font-family="Helvetica,sans-Serif" font-size="10.00">memory</text>
</g>
<!-- Node2&#45;&gt;Node5 -->
<g id="edge4" class="edge"><title>Node2&#45;&gt;Node5</title>
<path fill="none" stroke="midnightblue" d="M315.89,-112.083C310.718,-104.534 303.154,-93.4948 296.806,-84.2298"/>
<polygon fill="midnightblue" stroke="midnightblue" points="299.536,-82.0221 290.996,-75.7511 293.761,-85.9787 299.536,-82.0221"/>
</g>
<!-- Node6 -->
<g id="node6" class="node"><title>Node6</title>
<polygon fill="none" stroke="#bfbfbf" points="329.5,-56.5 329.5,-75.5 388.5,-75.5 388.5,-56.5 329.5,-56.5"/>
<text text-anchor="middle" x="359" y="-63.5" font-family="Helvetica,sans-Serif" font-size="10.00">stdexcept</text>
</g>
<!-- Node2&#45;&gt;Node6 -->
<g id="edge5" class="edge"><title>Node2&#45;&gt;Node6</title>
<path fill="none" stroke="midnightblue" d="M328.11,-112.083C333.282,-104.534 340.846,-93.4948 347.194,-84.2298"/>
<polygon fill="midnightblue" stroke="midnightblue" points="350.239,-85.9787 353.004,-75.7511 344.464,-82.0221 350.239,-85.9787"/>
</g>
<!-- Node7 -->
<g id="node7" class="node"><title>Node7</title>
<polygon fill="none" stroke="#bfbfbf" points="64.5,-0.5 64.5,-19.5 105.5,-19.5 105.5,-0.5 64.5,-0.5"/>
<text text-anchor="middle" x="85" y="-7.5" font-family="Helvetica,sans-Serif" font-size="10.00">string</text>
</g>
<!-- Node2&#45;&gt;Node7 -->
<g id="edge6" class="edge"><title>Node2&#45;&gt;Node7</title>
<path fill="none" stroke="midnightblue" d="M278.749,-117.926C220.947,-112.906 122.882,-100.903 98,-76 86.062,-64.0518 83.5394,-44.4395 83.5602,-29.8779"/>
<polygon fill="midnightblue" stroke="midnightblue" points="87.0721,-29.6624 83.9908,-19.5255 80.0781,-29.3714 87.0721,-29.6624"/>
</g>
<!-- Node8 -->
<g id="node8" class="node"><title>Node8</title>
<polygon fill="none" stroke="#bfbfbf" points="407,-56.5 407,-75.5 459,-75.5 459,-56.5 407,-56.5"/>
<text text-anchor="middle" x="433" y="-63.5" font-family="Helvetica,sans-Serif" font-size="10.00">sstream</text>
</g>
<!-- Node2&#45;&gt;Node8 -->
<g id="edge7" class="edge"><title>Node2&#45;&gt;Node8</title>
<path fill="none" stroke="midnightblue" d="M339.834,-112.324C357.716,-103.625 385.475,-90.1202 406.046,-80.113"/>
<polygon fill="midnightblue" stroke="midnightblue" points="407.749,-83.1765 415.21,-75.6545 404.687,-76.8819 407.749,-83.1765"/>
</g>
<!-- Node9 -->
<g id="node9" class="node"><title>Node9</title>
<polygon fill="none" stroke="#bfbfbf" points="477,-56.5 477,-75.5 539,-75.5 539,-56.5 477,-56.5"/>
<text text-anchor="middle" x="508" y="-63.5" font-family="Helvetica,sans-Serif" font-size="10.00">type_traits</text>
</g>
<!-- Node2&#45;&gt;Node9 -->
<g id="edge8" class="edge"><title>Node2&#45;&gt;Node9</title>
<path fill="none" stroke="midnightblue" d="M351.472,-112.444C383.171,-103.241 433.732,-88.5617 468.775,-78.3879"/>
<polygon fill="midnightblue" stroke="midnightblue" points="470.038,-81.6658 478.666,-75.5164 468.086,-74.9434 470.038,-81.6658"/>
</g>
<!-- Node10 -->
<g id="node10" class="node"><title>Node10</title>
<polygon fill="none" stroke="#bfbfbf" points="557.5,-56.5 557.5,-75.5 640.5,-75.5 640.5,-56.5 557.5,-56.5"/>
<text text-anchor="middle" x="599" y="-63.5" font-family="Helvetica,sans-Serif" font-size="10.00">unordered_map</text>
</g>
<!-- Node2&#45;&gt;Node10 -->
<g id="edge9" class="edge"><title>Node2&#45;&gt;Node10</title>
<path fill="none" stroke="midnightblue" d="M365.281,-112.562C414.496,-102.968 494.8,-87.3134 547.274,-77.0838"/>
<polygon fill="midnightblue" stroke="midnightblue" points="548.235,-80.4624 557.38,-75.1136 546.895,-73.5917 548.235,-80.4624"/>
</g>
<!-- Node11 -->
<g id="node11" class="node"><title>Node11</title>
<polygon fill="none" stroke="#bfbfbf" points="659,-56.5 659,-75.5 703,-75.5 703,-56.5 659,-56.5"/>
<text text-anchor="middle" x="681" y="-63.5" font-family="Helvetica,sans-Serif" font-size="10.00">vector</text>
</g>
<!-- Node2&#45;&gt;Node11 -->
<g id="edge10" class="edge"><title>Node2&#45;&gt;Node11</title>
<path fill="none" stroke="midnightblue" d="M365.066,-117.119C426.183,-111.168 541.677,-98.2924 648.747,-75.9981"/>
<polygon fill="midnightblue" stroke="midnightblue" points="649.689,-79.3764 658.748,-73.8826 648.24,-72.528 649.689,-79.3764"/>
</g>
<!-- Node12 -->
<g id="node12" class="node"><title>Node12</title>
<g id="a_node12"><a xlink:href="color_8hpp.html" target="_top" xlink:title="color.hpp">
<polygon fill="none" stroke="black" points="107,-56.5 107,-75.5 163,-75.5 163,-56.5 107,-56.5"/>
<text text-anchor="middle" x="135" y="-63.5" font-family="Helvetica,sans-Serif" font-size="10.00">color.hpp</text>
</a>
</g>
</g>
<!-- Node2&#45;&gt;Node12 -->
<g id="edge11" class="edge"><title>Node2&#45;&gt;Node12</title>
<path fill="none" stroke="midnightblue" d="M292.369,-112.444C260.125,-103.132 208.469,-88.2155 173.199,-78.0308"/>
<polygon fill="midnightblue" stroke="midnightblue" points="173.846,-74.5748 163.268,-75.1629 171.904,-81.3 173.846,-74.5748"/>
</g>
<!-- Node12&#45;&gt;Node3 -->
<g id="edge13" class="edge"><title>Node12&#45;&gt;Node3</title>
<path fill="none" stroke="midnightblue" d="M117.005,-56.324C98.9623,-47.6247 70.9531,-34.1202 50.1973,-24.113"/>
<polygon fill="midnightblue" stroke="midnightblue" points="51.4778,-20.8449 40.9501,-19.6545 48.4377,-27.1502 51.4778,-20.8449"/>
</g>
<!-- Node12&#45;&gt;Node7 -->
<g id="edge15" class="edge"><title>Node12&#45;&gt;Node7</title>
<path fill="none" stroke="midnightblue" d="M126.744,-56.083C119.535,-48.2982 108.89,-36.8015 100.154,-27.3665"/>
<polygon fill="midnightblue" stroke="midnightblue" points="102.465,-24.7108 93.1028,-19.7511 97.3288,-29.4666 102.465,-24.7108"/>
</g>
<!-- Node13 -->
<g id="node13" class="node"><title>Node13</title>
<polygon fill="none" stroke="#bfbfbf" points="124,-0.5 124,-19.5 170,-19.5 170,-0.5 124,-0.5"/>
<text text-anchor="middle" x="147" y="-7.5" font-family="Helvetica,sans-Serif" font-size="10.00">cctype</text>
</g>
<!-- Node12&#45;&gt;Node13 -->
<g id="edge12" class="edge"><title>Node12&#45;&gt;Node13</title>
<path fill="none" stroke="midnightblue" d="M136.982,-56.083C138.572,-48.9272 140.859,-38.6353 142.846,-29.6911"/>
<polygon fill="midnightblue" stroke="midnightblue" points="146.303,-30.2722 145.055,-19.7511 139.469,-28.7537 146.303,-30.2722"/>
</g>
<!-- Node14 -->
<g id="node14" class="node"><title>Node14</title>
<polygon fill="none" stroke="#bfbfbf" points="188.5,-0.5 188.5,-19.5 233.5,-19.5 233.5,-0.5 188.5,-0.5"/>
<text text-anchor="middle" x="211" y="-7.5" font-family="Helvetica,sans-Serif" font-size="10.00">cstdlib</text>
</g>
<!-- Node12&#45;&gt;Node14 -->
<g id="edge14" class="edge"><title>Node12&#45;&gt;Node14</title>
<path fill="none" stroke="midnightblue" d="M147.211,-56.324C158.776,-48.1066 176.375,-35.6017 190.161,-25.8069"/>
<polygon fill="midnightblue" stroke="midnightblue" points="192.443,-28.4791 198.567,-19.8339 188.388,-22.7729 192.443,-28.4791"/>
</g>
</g>
</svg>
