<?xml version="1.0" encoding="UTF-8" standalone="no"?>
<!DOCTYPE svg PUBLIC "-//W3C//DTD SVG 1.1//EN"
 "http://www.w3.org/Graphics/SVG/1.1/DTD/svg11.dtd">
<!-- Generated by graphviz version 2.38.0 (20140413.2041)
 -->
<!-- Title: src/network/irc.hpp Pages: 1 -->
<!--zoomable 442 -->
<svg id="main" version="1.1" xmlns="http://www.w3.org/2000/svg" xmlns:xlink="http://www.w3.org/1999/xlink" xml:space="preserve" onload="init(evt)">
<style type="text/css"><![CDATA[
.edge:hover path { stroke: red; }
.edge:hover polygon { stroke: red; fill: red; }
]]></style>
<script type="text/javascript"><![CDATA[
var edges = document.getElementsByTagName('g');
if (edges && edges.length) {
  for (var i=0;i<edges.length;i++) {
    if (edges[i].id.substr(0,4)=='edge') {
      edges[i].setAttribute('class','edge');
    }
  }
}
]]></script>
        <defs>
                <circle id="rim" cx="0" cy="0" r="7"/>
                <circle id="rim2" cx="0" cy="0" r="3.5"/>
                <g id="zoomPlus">
                        <use xlink:href="#rim" fill="#404040">
                                <set attributeName="fill" to="#808080" begin="zoomplus.mouseover" end="zoomplus.mouseout"/>
                        </use>
                        <path d="M-4,0h8M0,-4v8" fill="none" stroke="white" stroke-width="1.5" pointer-events="none"/>
                </g>
                <g id="zoomMin">
                        <use xlink:href="#rim" fill="#404040">
                                <set attributeName="fill" to="#808080" begin="zoomminus.mouseover" end="zoomminus.mouseout"/>
                        </use>
                        <path d="M-4,0h8" fill="none" stroke="white" stroke-width="1.5" pointer-events="none"/>
                </g>
                <g id="dirArrow">
                        <path fill="none" stroke="white" stroke-width="1.5" d="M0,-3.0v7 M-2.5,-0.5L0,-3.0L2.5,-0.5"/>
                </g>
               <g id="resetDef">
                       <use xlink:href="#rim2" fill="#404040">
                               <set attributeName="fill" to="#808080" begin="reset.mouseover" end="reset.mouseout"/>
                       </use>
               </g>
        </defs>

<script type="text/javascript">
var viewWidth = 1624;
var viewHeight = 442;
var sectionId = 'dynsection-0';
</script>
<script xlink:href="svgpan.js"/>
<svg id="graph" class="graph">
<g id="viewport">
<title>src/network/irc.hpp</title>
<!-- Node1 -->
<g id="node1" class="node"><title>Node1</title>
<polygon fill="#bfbfbf" stroke="black" points="864,-414.5 864,-433.5 964,-433.5 964,-414.5 864,-414.5"/>
<text text-anchor="middle" x="914" y="-421.5" font-family="Helvetica,sans-Serif" font-size="10.00">src/network/irc.hpp</text>
</g>
<!-- Node2 -->
<g id="node2" class="node"><title>Node2</title>
<polygon fill="none" stroke="#bfbfbf" points="0,-358.5 0,-377.5 56,-377.5 56,-358.5 0,-358.5"/>
<text text-anchor="middle" x="28" y="-365.5" font-family="Helvetica,sans-Serif" font-size="10.00">algorithm</text>
</g>
<!-- Node1&#45;&gt;Node2 -->
<g id="edge1" class="edge"><title>Node1&#45;&gt;Node2</title>
<path fill="none" stroke="midnightblue" d="M863.802,-423.078C732.672,-422.689 369.276,-417.79 70,-378 68.7526,-377.834 67.4871,-377.651 66.2114,-377.454"/>
<polygon fill="midnightblue" stroke="midnightblue" points="66.8172,-374.007 56.3604,-375.712 65.5981,-380.9 66.8172,-374.007"/>
</g>
<!-- Node3 -->
<g id="node3" class="node"><title>Node3</title>
<polygon fill="none" stroke="#bfbfbf" points="743.5,-190.5 743.5,-209.5 772.5,-209.5 772.5,-190.5 743.5,-190.5"/>
<text text-anchor="middle" x="758" y="-197.5" font-family="Helvetica,sans-Serif" font-size="10.00">list</text>
</g>
<!-- Node1&#45;&gt;Node3 -->
<g id="edge2" class="edge"><title>Node1&#45;&gt;Node3</title>
<path fill="none" stroke="midnightblue" d="M886.303,-414.494C846.792,-401.018 774.353,-371.129 732,-322 709.118,-295.458 697.238,-278.228 711,-246 716.147,-233.947 726.281,-223.576 735.826,-215.839"/>
<polygon fill="midnightblue" stroke="midnightblue" points="738.04,-218.553 743.922,-209.741 733.828,-212.962 738.04,-218.553"/>
</g>
<!-- Node4 -->
<g id="node4" class="node"><title>Node4</title>
<polygon fill="none" stroke="#bfbfbf" points="1460.5,-246.5 1460.5,-265.5 1503.5,-265.5 1503.5,-246.5 1460.5,-246.5"/>
<text text-anchor="middle" x="1482" y="-253.5" font-family="Helvetica,sans-Serif" font-size="10.00">queue</text>
</g>
<!-- Node1&#45;&gt;Node4 -->
<g id="edge3" class="edge"><title>Node1&#45;&gt;Node4</title>
<path fill="none" stroke="midnightblue" d="M964.195,-421.027C1087.08,-415.119 1398.11,-393.298 1468,-322 1479.73,-310.032 1482.66,-290.732 1483,-276.266"/>
<polygon fill="midnightblue" stroke="midnightblue" points="1486.49,-275.875 1482.83,-265.933 1479.49,-275.989 1486.49,-275.875"/>
</g>
<!-- Node5 -->
<g id="node5" class="node"><title>Node5</title>
<polygon fill="none" stroke="#bfbfbf" points="1574.5,-358.5 1574.5,-377.5 1615.5,-377.5 1615.5,-358.5 1574.5,-358.5"/>
<text text-anchor="middle" x="1595" y="-365.5" font-family="Helvetica,sans-Serif" font-size="10.00">regex</text>
</g>
<!-- Node1&#45;&gt;Node5 -->
<g id="edge4" class="edge"><title>Node1&#45;&gt;Node5</title>
<path fill="none" stroke="midnightblue" d="M964.202,-422.605C1073.32,-421.069 1339.99,-413.645 1560,-378 1561.47,-377.762 1562.97,-377.49 1564.48,-377.194"/>
<polygon fill="midnightblue" stroke="midnightblue" points="1565.42,-380.57 1574.4,-374.96 1563.88,-373.741 1565.42,-380.57"/>
</g>
<!-- Node6 -->
<g id="node6" class="node"><title>Node6</title>
<polygon fill="none" stroke="#bfbfbf" points="328.5,-67.5 328.5,-86.5 387.5,-86.5 387.5,-67.5 328.5,-67.5"/>
<text text-anchor="middle" x="358" y="-74.5" font-family="Helvetica,sans-Serif" font-size="10.00">stdexcept</text>
</g>
<!-- Node1&#45;&gt;Node6 -->
<g id="edge5" class="edge"><title>Node1&#45;&gt;Node6</title>
<path fill="none" stroke="midnightblue" d="M863.801,-419.147C718.862,-407.357 310,-369.124 310,-313 310,-313 310,-313 310,-199 310,-164.183 315.162,-154.949 329,-123 333.24,-113.209 339.509,-103.151 345.135,-95.0329"/>
<polygon fill="midnightblue" stroke="midnightblue" points="348.055,-96.9672 351.07,-86.8104 342.379,-92.8701 348.055,-96.9672"/>
</g>
<!-- Node7 -->
<g id="node7" class="node"><title>Node7</title>
<polygon fill="none" stroke="#bfbfbf" points="465.5,-6 465.5,-25 506.5,-25 506.5,-6 465.5,-6"/>
<text text-anchor="middle" x="486" y="-13" font-family="Helvetica,sans-Serif" font-size="10.00">string</text>
</g>
<!-- Node1&#45;&gt;Node7 -->
<g id="edge6" class="edge"><title>Node1&#45;&gt;Node7</title>
<path fill="none" stroke="midnightblue" d="M863.949,-421.666C684.502,-416.231 84,-392.129 84,-313 84,-313 84,-313 84,-137.5 84,-101.028 95.6217,-87.1837 126,-67 179.845,-31.2244 378.056,-20.3675 455.092,-17.4575"/>
<polygon fill="midnightblue" stroke="midnightblue" points="455.262,-20.9538 465.13,-17.0979 455.011,-13.9583 455.262,-20.9538"/>
</g>
<!-- Node8 -->
<g id="node8" class="node"><title>Node8</title>
<polygon fill="none" stroke="#bfbfbf" points="1044.5,-6 1044.5,-25 1127.5,-25 1127.5,-6 1044.5,-6"/>
<text text-anchor="middle" x="1086" y="-13" font-family="Helvetica,sans-Serif" font-size="10.00">unordered_map</text>
</g>
<!-- Node1&#45;&gt;Node8 -->
<g id="edge7" class="edge"><title>Node1&#45;&gt;Node8</title>
<path fill="none" stroke="midnightblue" d="M964.172,-422.868C1050.98,-421.611 1234.26,-414.408 1384,-378 1459.38,-359.671 1546,-390.579 1546,-313 1546,-313 1546,-313 1546,-137.5 1546,-53.8507 1257.9,-26.8178 1137.7,-19.1794"/>
<polygon fill="midnightblue" stroke="midnightblue" points="1137.83,-15.6806 1127.63,-18.56 1137.4,-22.6674 1137.83,-15.6806"/>
</g>
<!-- Node9 -->
<g id="node9" class="node"><title>Node9</title>
<g id="a_node9"><a xlink:href="connection_8hpp.html" target="_top" xlink:title="connection.hpp">
<polygon fill="none" stroke="black" points="839.5,-302.5 839.5,-321.5 922.5,-321.5 922.5,-302.5 839.5,-302.5"/>
<text text-anchor="middle" x="881" y="-309.5" font-family="Helvetica,sans-Serif" font-size="10.00">connection.hpp</text>
</a>
</g>
</g>
<!-- Node1&#45;&gt;Node9 -->
<g id="edge8" class="edge"><title>Node1&#45;&gt;Node9</title>
<path fill="none" stroke="midnightblue" d="M911.272,-414.387C908.418,-405.339 903.828,-390.69 900,-378 895.278,-362.347 890.079,-344.52 886.316,-331.499"/>
<polygon fill="midnightblue" stroke="midnightblue" points="889.666,-330.485 883.533,-321.846 882.94,-332.424 889.666,-330.485"/>
</g>
<!-- Node34 -->
<g id="node34" class="node"><title>Node34</title>
<g id="a_node34"><a xlink:href="irc__buffer_8hpp.html" target="_top" xlink:title="irc_buffer.hpp">
<polygon fill="none" stroke="black" points="909,-358.5 909,-377.5 985,-377.5 985,-358.5 909,-358.5"/>
<text text-anchor="middle" x="947" y="-365.5" font-family="Helvetica,sans-Serif" font-size="10.00">irc_buffer.hpp</text>
</a>
</g>
</g>
<!-- Node1&#45;&gt;Node34 -->
<g id="edge58" class="edge"><title>Node1&#45;&gt;Node34</title>
<path fill="none" stroke="midnightblue" d="M919.449,-414.083C924.014,-406.613 930.668,-395.724 936.293,-386.52"/>
<polygon fill="midnightblue" stroke="midnightblue" points="939.424,-388.109 941.652,-377.751 933.451,-384.459 939.424,-388.109"/>
</g>
<!-- Node39 -->
<g id="node39" class="node"><title>Node39</title>
<g id="a_node39"><a xlink:href="melanobot_8hpp.html" target="_top" xlink:title="melanobot.hpp">
<polygon fill="none" stroke="black" points="1142,-358.5 1142,-377.5 1222,-377.5 1222,-358.5 1142,-358.5"/>
<text text-anchor="middle" x="1182" y="-365.5" font-family="Helvetica,sans-Serif" font-size="10.00">melanobot.hpp</text>
</a>
</g>
</g>
<!-- Node1&#45;&gt;Node39 -->
<g id="edge70" class="edge"><title>Node1&#45;&gt;Node39</title>
<path fill="none" stroke="midnightblue" d="M956.465,-414.444C1004.1,-404.845 1081.31,-389.289 1131.87,-379.101"/>
<polygon fill="midnightblue" stroke="midnightblue" points="1132.81,-382.482 1141.92,-377.075 1131.43,-375.62 1132.81,-382.482"/>
</g>
<!-- Node10 -->
<g id="node10" class="node"><title>Node10</title>
<polygon fill="none" stroke="#bfbfbf" points="1130,-246.5 1130,-265.5 1176,-265.5 1176,-246.5 1130,-246.5"/>
<text text-anchor="middle" x="1153" y="-253.5" font-family="Helvetica,sans-Serif" font-size="10.00">atomic</text>
</g>
<!-- Node9&#45;&gt;Node10 -->
<g id="edge9" class="edge"><title>Node9&#45;&gt;Node10</title>
<path fill="none" stroke="midnightblue" d="M922.607,-302.74C976.792,-291.982 1070.42,-273.394 1120,-263.552"/>
<polygon fill="midnightblue" stroke="midnightblue" points="1120.75,-266.971 1129.88,-261.591 1119.39,-260.105 1120.75,-266.971"/>
</g>
<!-- Node11 -->
<g id="node11" class="node"><title>Node11</title>
<polygon fill="none" stroke="#bfbfbf" points="858,-246.5 858,-265.5 904,-265.5 904,-246.5 858,-246.5"/>
<text text-anchor="middle" x="881" y="-253.5" font-family="Helvetica,sans-Serif" font-size="10.00">chrono</text>
</g>
<!-- Node9&#45;&gt;Node11 -->
<g id="edge10" class="edge"><title>Node9&#45;&gt;Node11</title>
<path fill="none" stroke="midnightblue" d="M881,-302.083C881,-295.006 881,-284.861 881,-275.986"/>
<polygon fill="midnightblue" stroke="midnightblue" points="884.5,-275.751 881,-265.751 877.5,-275.751 884.5,-275.751"/>
</g>
<!-- Node12 -->
<g id="node12" class="node"><title>Node12</title>
<polygon fill="none" stroke="#bfbfbf" points="707,-6 707,-25 753,-25 753,-6 707,-6"/>
<text text-anchor="middle" x="730" y="-13" font-family="Helvetica,sans-Serif" font-size="10.00">cstdint</text>
</g>
<!-- Node9&#45;&gt;Node12 -->
<g id="edge11" class="edge"><title>Node9&#45;&gt;Node12</title>
<path fill="none" stroke="midnightblue" d="M839.435,-302.745C791.71,-292.849 718.938,-276.312 711,-266 697.023,-247.842 718.992,-90.1333 727.149,-35.2405"/>
<polygon fill="midnightblue" stroke="midnightblue" points="730.636,-35.5839 728.662,-25.1747 723.714,-34.5434 730.636,-35.5839"/>
</g>
<!-- Node13 -->
<g id="node13" class="node"><title>Node13</title>
<polygon fill="none" stroke="#bfbfbf" points="406,-67.5 406,-86.5 458,-86.5 458,-67.5 406,-67.5"/>
<text text-anchor="middle" x="432" y="-74.5" font-family="Helvetica,sans-Serif" font-size="10.00">sstream</text>
</g>
<!-- Node9&#45;&gt;Node13 -->
<g id="edge12" class="edge"><title>Node9&#45;&gt;Node13</title>
<path fill="none" stroke="midnightblue" d="M839.473,-303.267C777.631,-291.647 667.726,-270.555 660,-266 588.032,-223.574 605.358,-172.419 538,-123 516.753,-107.411 489.283,-95.9454 467.632,-88.4896"/>
<polygon fill="midnightblue" stroke="midnightblue" points="468.731,-85.1664 458.137,-85.3457 466.53,-91.8116 468.731,-85.1664"/>
</g>
<!-- Node14 -->
<g id="node14" class="node"><title>Node14</title>
<g id="a_node14"><a xlink:href="string_8hpp.html" target="_top" xlink:title="string/string.hpp">
<polygon fill="none" stroke="black" points="609,-129 609,-148 695,-148 695,-129 609,-129"/>
<text text-anchor="middle" x="652" y="-136" font-family="Helvetica,sans-Serif" font-size="10.00">string/string.hpp</text>
</a>
</g>
</g>
<!-- Node9&#45;&gt;Node14 -->
<g id="edge13" class="edge"><title>Node9&#45;&gt;Node14</title>
<path fill="none" stroke="midnightblue" d="M839.456,-302.987C781.744,-291.684 683.699,-271.787 678,-266 649.645,-237.204 648.33,-186.245 650.034,-158.609"/>
<polygon fill="midnightblue" stroke="midnightblue" points="653.548,-158.579 650.879,-148.325 646.572,-158.005 653.548,-158.579"/>
</g>
<!-- Node21 -->
<g id="node21" class="node"><title>Node21</title>
<g id="a_node21"><a xlink:href="logger_8hpp.html" target="_top" xlink:title="string/logger.hpp">
<polygon fill="none" stroke="black" points="458.5,-190.5 458.5,-209.5 547.5,-209.5 547.5,-190.5 458.5,-190.5"/>
<text text-anchor="middle" x="503" y="-197.5" font-family="Helvetica,sans-Serif" font-size="10.00">string/logger.hpp</text>
</a>
</g>
</g>
<!-- Node9&#45;&gt;Node21 -->
<g id="edge27" class="edge"><title>Node9&#45;&gt;Node21</title>
<path fill="none" stroke="midnightblue" d="M839.274,-303.496C836.138,-302.975 833.02,-302.471 830,-302 712.123,-283.63 670.047,-320.648 564,-266 542.583,-254.963 524.654,-233.31 513.893,-218.036"/>
<polygon fill="midnightblue" stroke="midnightblue" points="516.637,-215.845 508.151,-209.501 510.829,-219.752 516.637,-215.845"/>
</g>
<!-- Node30 -->
<g id="node30" class="node"><title>Node30</title>
<g id="a_node30"><a xlink:href="auth__system_8hpp.html" target="_top" xlink:title="user/auth_system.hpp">
<polygon fill="none" stroke="black" points="960.5,-246.5 960.5,-265.5 1073.5,-265.5 1073.5,-246.5 960.5,-246.5"/>
<text text-anchor="middle" x="1017" y="-253.5" font-family="Helvetica,sans-Serif" font-size="10.00">user/auth_system.hpp</text>
</a>
</g>
</g>
<!-- Node9&#45;&gt;Node30 -->
<g id="edge46" class="edge"><title>Node9&#45;&gt;Node30</title>
<path fill="none" stroke="midnightblue" d="M902.55,-302.444C925.031,-293.517 960.488,-279.439 985.98,-269.317"/>
<polygon fill="midnightblue" stroke="midnightblue" points="987.549,-272.46 995.551,-265.516 984.965,-265.954 987.549,-272.46"/>
</g>
<!-- Node33 -->
<g id="node33" class="node"><title>Node33</title>
<g id="a_node33"><a xlink:href="user__manager_8hpp.html" target="_top" xlink:title="user/user_manager.hpp">
<polygon fill="none" stroke="black" points="720.5,-246.5 720.5,-265.5 839.5,-265.5 839.5,-246.5 720.5,-246.5"/>
<text text-anchor="middle" x="780" y="-253.5" font-family="Helvetica,sans-Serif" font-size="10.00">user/user_manager.hpp</text>
</a>
</g>
</g>
<!-- Node9&#45;&gt;Node33 -->
<g id="edge55" class="edge"><title>Node9&#45;&gt;Node33</title>
<path fill="none" stroke="midnightblue" d="M864.773,-302.324C848.649,-293.703 823.7,-280.364 805.036,-270.386"/>
<polygon fill="midnightblue" stroke="midnightblue" points="806.656,-267.283 796.187,-265.655 803.356,-273.456 806.656,-267.283"/>
</g>
<!-- Node14&#45;&gt;Node6 -->
<g id="edge17" class="edge"><title>Node14&#45;&gt;Node6</title>
<path fill="none" stroke="midnightblue" d="M608.601,-129.334C559.772,-120.051 477.85,-104.191 397.569,-87.0693"/>
<polygon fill="midnightblue" stroke="midnightblue" points="398.3,-83.6466 387.789,-84.9754 396.835,-90.4915 398.3,-83.6466"/>
</g>
<!-- Node14&#45;&gt;Node7 -->
<g id="edge18" class="edge"><title>Node14&#45;&gt;Node7</title>
<path fill="none" stroke="midnightblue" d="M617.677,-128.985C580.764,-119.205 525.298,-102.507 510,-87 496.263,-73.0757 490.381,-50.9888 487.867,-35.2491"/>
<polygon fill="midnightblue" stroke="midnightblue" points="491.311,-34.5909 486.567,-25.1174 484.368,-35.4815 491.311,-34.5909"/>
</g>
<!-- Node14&#45;&gt;Node8 -->
<g id="edge20" class="edge"><title>Node14&#45;&gt;Node8</title>
<path fill="none" stroke="midnightblue" d="M666.687,-128.917C692.813,-114.027 749.469,-83.4306 801,-67 880.262,-41.7275 976.203,-28.0221 1034.1,-21.4925"/>
<polygon fill="midnightblue" stroke="midnightblue" points="1034.55,-24.9645 1044.1,-20.393 1033.78,-18.0064 1034.55,-24.9645"/>
</g>
<!-- Node14&#45;&gt;Node12 -->
<g id="edge14" class="edge"><title>Node14&#45;&gt;Node12</title>
<path fill="none" stroke="midnightblue" d="M658.355,-128.667C665.493,-118.67 677.342,-101.842 687,-87 698.563,-69.2306 711.115,-48.4664 719.655,-34.0962"/>
<polygon fill="midnightblue" stroke="midnightblue" points="722.789,-35.6738 724.866,-25.2845 716.763,-32.1109 722.789,-35.6738"/>
</g>
<!-- Node14&#45;&gt;Node13 -->
<g id="edge19" class="edge"><title>Node14&#45;&gt;Node13</title>
<path fill="none" stroke="midnightblue" d="M620.479,-128.975C580.197,-118.08 510.615,-99.2618 468.202,-87.791"/>
<polygon fill="midnightblue" stroke="midnightblue" points="468.863,-84.3442 458.296,-85.112 467.036,-91.1014 468.863,-84.3442"/>
</g>
<!-- Node15 -->
<g id="node15" class="node"><title>Node15</title>
<polygon fill="none" stroke="#bfbfbf" points="960.5,-67.5 960.5,-86.5 1019.5,-86.5 1019.5,-67.5 960.5,-67.5"/>
<text text-anchor="middle" x="990" y="-74.5" font-family="Helvetica,sans-Serif" font-size="10.00">functional</text>
</g>
<!-- Node14&#45;&gt;Node15 -->
<g id="edge15" class="edge"><title>Node14&#45;&gt;Node15</title>
<path fill="none" stroke="midnightblue" d="M695.225,-131.026C751.562,-122.406 853.351,-106.21 950.263,-87.0469"/>
<polygon fill="midnightblue" stroke="midnightblue" points="951.105,-90.4481 960.229,-85.0622 949.738,-83.5829 951.105,-90.4481"/>
</g>
<!-- Node16 -->
<g id="node16" class="node"><title>Node16</title>
<polygon fill="none" stroke="#bfbfbf" points="626,-67.5 626,-86.5 678,-86.5 678,-67.5 626,-67.5"/>
<text text-anchor="middle" x="652" y="-74.5" font-family="Helvetica,sans-Serif" font-size="10.00">memory</text>
</g>
<!-- Node14&#45;&gt;Node16 -->
<g id="edge16" class="edge"><title>Node14&#45;&gt;Node16</title>
<path fill="none" stroke="midnightblue" d="M652,-128.975C652,-120.58 652,-107.481 652,-96.6631"/>
<polygon fill="midnightblue" stroke="midnightblue" points="655.5,-96.5091 652,-86.5091 648.5,-96.5091 655.5,-96.5091"/>
</g>
<!-- Node17 -->
<g id="node17" class="node"><title>Node17</title>
<polygon fill="none" stroke="#bfbfbf" points="898,-67.5 898,-86.5 942,-86.5 942,-67.5 898,-67.5"/>
<text text-anchor="middle" x="920" y="-74.5" font-family="Helvetica,sans-Serif" font-size="10.00">vector</text>
</g>
<!-- Node14&#45;&gt;Node17 -->
<g id="edge21" class="edge"><title>Node14&#45;&gt;Node17</title>
<path fill="none" stroke="midnightblue" d="M695.031,-129.308C740.637,-120.408 814.948,-105.291 887.888,-87.1456"/>
<polygon fill="midnightblue" stroke="midnightblue" points="888.854,-90.5119 897.702,-84.6836 887.151,-83.7223 888.854,-90.5119"/>
</g>
<!-- Node18 -->
<g id="node18" class="node"><title>Node18</title>
<g id="a_node18"><a xlink:href="color_8hpp.html" target="_top" xlink:title="color.hpp">
<polygon fill="none" stroke="black" points="552,-67.5 552,-86.5 608,-86.5 608,-67.5 552,-67.5"/>
<text text-anchor="middle" x="580" y="-74.5" font-family="Helvetica,sans-Serif" font-size="10.00">color.hpp</text>
</a>
</g>
</g>
<!-- Node14&#45;&gt;Node18 -->
<g id="edge22" class="edge"><title>Node14&#45;&gt;Node18</title>
<path fill="none" stroke="midnightblue" d="M641.684,-128.975C630.349,-119.608 611.927,-104.384 598.161,-93.0081"/>
<polygon fill="midnightblue" stroke="midnightblue" points="600.235,-90.1813 590.297,-86.5091 595.776,-95.5773 600.235,-90.1813"/>
</g>
<!-- Node18&#45;&gt;Node7 -->
<g id="edge26" class="edge"><title>Node18&#45;&gt;Node7</title>
<path fill="none" stroke="midnightblue" d="M566.532,-67.4751C551.315,-57.8431 526.313,-42.0175 508.199,-30.5517"/>
<polygon fill="midnightblue" stroke="midnightblue" points="509.764,-27.4002 499.443,-25.0091 506.021,-33.3149 509.764,-27.4002"/>
</g>
<!-- Node18&#45;&gt;Node12 -->
<g id="edge24" class="edge"><title>Node18&#45;&gt;Node12</title>
<path fill="none" stroke="midnightblue" d="M601.491,-67.4751C627.11,-57.3129 670.11,-40.2564 699.245,-28.6996"/>
<polygon fill="midnightblue" stroke="midnightblue" points="700.544,-31.9497 708.549,-25.0091 697.963,-25.4429 700.544,-31.9497"/>
</g>
<!-- Node19 -->
<g id="node19" class="node"><title>Node19</title>
<polygon fill="none" stroke="#bfbfbf" points="541,-6 541,-25 587,-25 587,-6 541,-6"/>
<text text-anchor="middle" x="564" y="-13" font-family="Helvetica,sans-Serif" font-size="10.00">cctype</text>
</g>
<!-- Node18&#45;&gt;Node19 -->
<g id="edge23" class="edge"><title>Node18&#45;&gt;Node19</title>
<path fill="none" stroke="midnightblue" d="M577.708,-67.4751C575.426,-58.9919 571.853,-45.7043 568.927,-34.8222"/>
<polygon fill="midnightblue" stroke="midnightblue" points="572.265,-33.7571 566.288,-25.0091 565.505,-35.5749 572.265,-33.7571"/>
</g>
<!-- Node20 -->
<g id="node20" class="node"><title>Node20</title>
<polygon fill="none" stroke="#bfbfbf" points="605.5,-6 605.5,-25 650.5,-25 650.5,-6 605.5,-6"/>
<text text-anchor="middle" x="628" y="-13" font-family="Helvetica,sans-Serif" font-size="10.00">cstdlib</text>
</g>
<!-- Node18&#45;&gt;Node20 -->
<g id="edge25" class="edge"><title>Node18&#45;&gt;Node20</title>
<path fill="none" stroke="midnightblue" d="M586.877,-67.4751C594.149,-58.4617 605.795,-44.0246 614.841,-32.8118"/>
<polygon fill="midnightblue" stroke="midnightblue" points="617.581,-34.9898 621.136,-25.0091 612.133,-30.5946 617.581,-34.9898"/>
</g>
<!-- Node21&#45;&gt;Node6 -->
<g id="edge31" class="edge"><title>Node21&#45;&gt;Node6</title>
<path fill="none" stroke="midnightblue" d="M509.217,-190.045C519.003,-174.738 535.381,-143.236 520,-123 516.195,-117.993 444.083,-99.3309 397.365,-87.6697"/>
<polygon fill="midnightblue" stroke="midnightblue" points="398.077,-84.2404 387.528,-85.2241 396.388,-91.0336 398.077,-84.2404"/>
</g>
<!-- Node21&#45;&gt;Node7 -->
<g id="edge32" class="edge"><title>Node21&#45;&gt;Node7</title>
<path fill="none" stroke="midnightblue" d="M458.338,-197.858C343.022,-193.41 50.4529,-171.766 141,-67 181.546,-20.0871 378.137,-15.9181 455.056,-16.1244"/>
<polygon fill="midnightblue" stroke="midnightblue" points="455.068,-19.6244 465.087,-16.1786 455.106,-12.6245 455.068,-19.6244"/>
</g>
<!-- Node21&#45;&gt;Node8 -->
<g id="edge33" class="edge"><title>Node21&#45;&gt;Node8</title>
<path fill="none" stroke="midnightblue" d="M547.89,-197.09C663.29,-191.88 963.988,-176.308 1003,-154 1048.49,-127.989 1071.92,-66.0727 1081.16,-34.9814"/>
<polygon fill="midnightblue" stroke="midnightblue" points="1084.62,-35.6181 1083.94,-25.045 1077.88,-33.7328 1084.62,-35.6181"/>
</g>
<!-- Node21&#45;&gt;Node14 -->
<g id="edge40" class="edge"><title>Node21&#45;&gt;Node14</title>
<path fill="none" stroke="midnightblue" d="M524.348,-190.475C549.686,-180.357 592.138,-163.405 621.071,-151.851"/>
<polygon fill="midnightblue" stroke="midnightblue" points="622.703,-154.968 630.692,-148.009 620.107,-148.467 622.703,-154.968"/>
</g>
<!-- Node22 -->
<g id="node22" class="node"><title>Node22</title>
<polygon fill="none" stroke="#bfbfbf" points="338,-129 338,-148 388,-148 388,-129 338,-129"/>
<text text-anchor="middle" x="363" y="-136" font-family="Helvetica,sans-Serif" font-size="10.00">iomanip</text>
</g>
<!-- Node21&#45;&gt;Node22 -->
<g id="edge28" class="edge"><title>Node21&#45;&gt;Node22</title>
<path fill="none" stroke="midnightblue" d="M482.675,-190.383C461.334,-181.333 426.802,-166.681 397,-154 395.598,-153.403 394.163,-152.792 392.714,-152.175"/>
<polygon fill="midnightblue" stroke="midnightblue" points="393.705,-148.793 383.134,-148.093 390.961,-155.233 393.705,-148.793"/>
</g>
<!-- Node23 -->
<g id="node23" class="node"><title>Node23</title>
<polygon fill="none" stroke="#bfbfbf" points="150,-67.5 150,-86.5 204,-86.5 204,-67.5 150,-67.5"/>
<text text-anchor="middle" x="177" y="-74.5" font-family="Helvetica,sans-Serif" font-size="10.00">iostream</text>
</g>
<!-- Node21&#45;&gt;Node23 -->
<g id="edge29" class="edge"><title>Node21&#45;&gt;Node23</title>
<path fill="none" stroke="midnightblue" d="M458.497,-197.861C384.609,-195.087 240.972,-185.662 203,-154 186.131,-139.934 180.178,-114.409 178.093,-96.8488"/>
<polygon fill="midnightblue" stroke="midnightblue" points="181.561,-96.3189 177.207,-86.66 174.587,-96.9258 181.561,-96.3189"/>
</g>
<!-- Node24 -->
<g id="node24" class="node"><title>Node24</title>
<polygon fill="none" stroke="#bfbfbf" points="1128,-129 1128,-148 1172,-148 1172,-129 1128,-129"/>
<text text-anchor="middle" x="1150" y="-136" font-family="Helvetica,sans-Serif" font-size="10.00">mutex</text>
</g>
<!-- Node21&#45;&gt;Node24 -->
<g id="edge30" class="edge"><title>Node21&#45;&gt;Node24</title>
<path fill="none" stroke="midnightblue" d="M547.805,-195.913C639.794,-189.426 856.572,-173.365 1038,-154 1064.93,-151.126 1095.4,-147.132 1117.76,-144.063"/>
<polygon fill="midnightblue" stroke="midnightblue" points="1118.3,-147.522 1127.72,-142.683 1117.34,-140.589 1118.3,-147.522"/>
</g>
<!-- Node25 -->
<g id="node25" class="node"><title>Node25</title>
<polygon fill="none" stroke="#bfbfbf" points="406.5,-123.5 406.5,-153.5 511.5,-153.5 511.5,-123.5 406.5,-123.5"/>
<text text-anchor="start" x="414.5" y="-141.5" font-family="Helvetica,sans-Serif" font-size="10.00">boost/chrono/io/time</text>
<text text-anchor="middle" x="459" y="-130.5" font-family="Helvetica,sans-Serif" font-size="10.00">_point_io.hpp</text>
</g>
<!-- Node21&#45;&gt;Node25 -->
<g id="edge34" class="edge"><title>Node21&#45;&gt;Node25</title>
<path fill="none" stroke="midnightblue" d="M496.696,-190.475C491.127,-182.944 482.757,-171.626 475.318,-161.566"/>
<polygon fill="midnightblue" stroke="midnightblue" points="478.13,-159.482 469.37,-153.523 472.502,-163.644 478.13,-159.482"/>
</g>
<!-- Node26 -->
<g id="node26" class="node"><title>Node26</title>
<g id="a_node26"><a xlink:href="multibuf_8hpp.html" target="_top" xlink:title="multibuf.hpp">
<polygon fill="none" stroke="black" points="212,-129 212,-148 282,-148 282,-129 212,-129"/>
<text text-anchor="middle" x="247" y="-136" font-family="Helvetica,sans-Serif" font-size="10.00">multibuf.hpp</text>
</a>
</g>
</g>
<!-- Node21&#45;&gt;Node26 -->
<g id="edge35" class="edge"><title>Node21&#45;&gt;Node26</title>
<path fill="none" stroke="midnightblue" d="M466.321,-190.475C420.404,-179.803 341.773,-161.527 292.189,-150.003"/>
<polygon fill="midnightblue" stroke="midnightblue" points="292.908,-146.577 282.375,-147.722 291.323,-153.395 292.908,-146.577"/>
</g>
<!-- Node28 -->
<g id="node28" class="node"><title>Node28</title>
<g id="a_node28"><a xlink:href="settings_8hpp.html" target="_top" xlink:title="settings.hpp">
<polygon fill="none" stroke="black" points="810,-67.5 810,-86.5 880,-86.5 880,-67.5 810,-67.5"/>
<text text-anchor="middle" x="845" y="-74.5" font-family="Helvetica,sans-Serif" font-size="10.00">settings.hpp</text>
</a>
</g>
</g>
<!-- Node21&#45;&gt;Node28 -->
<g id="edge41" class="edge"><title>Node21&#45;&gt;Node28</title>
<path fill="none" stroke="midnightblue" d="M547.525,-192.631C588.937,-185.873 651.906,-173.448 704,-154 748.512,-137.382 796.414,-109.094 823.355,-92.1143"/>
<polygon fill="midnightblue" stroke="midnightblue" points="825.422,-94.9471 831.97,-86.6178 821.657,-89.0459 825.422,-94.9471"/>
</g>
<!-- Node26&#45;&gt;Node7 -->
<g id="edge39" class="edge"><title>Node26&#45;&gt;Node7</title>
<path fill="none" stroke="midnightblue" d="M244.525,-128.926C240.881,-114.323 236.014,-84.5098 251,-67 277.193,-36.397 397.528,-23.2313 455.118,-18.6072"/>
<polygon fill="midnightblue" stroke="midnightblue" points="455.725,-22.071 465.429,-17.8172 455.19,-15.0915 455.725,-22.071"/>
</g>
<!-- Node26&#45;&gt;Node17 -->
<g id="edge38" class="edge"><title>Node26&#45;&gt;Node17</title>
<path fill="none" stroke="midnightblue" d="M282.391,-130.358C296.797,-127.682 313.642,-124.846 329,-123 573.356,-93.6327 641.546,-129.066 887.819,-86.8145"/>
<polygon fill="midnightblue" stroke="midnightblue" points="888.535,-90.2427 897.786,-85.0791 887.334,-83.3464 888.535,-90.2427"/>
</g>
<!-- Node26&#45;&gt;Node23 -->
<g id="edge36" class="edge"><title>Node26&#45;&gt;Node23</title>
<path fill="none" stroke="midnightblue" d="M236.971,-128.975C225.951,-119.608 208.04,-104.384 194.657,-93.0081"/>
<polygon fill="midnightblue" stroke="midnightblue" points="196.897,-90.3188 187.011,-86.5091 192.363,-95.6524 196.897,-90.3188"/>
</g>
<!-- Node27 -->
<g id="node27" class="node"><title>Node27</title>
<polygon fill="none" stroke="#bfbfbf" points="260,-67.5 260,-86.5 310,-86.5 310,-67.5 260,-67.5"/>
<text text-anchor="middle" x="285" y="-74.5" font-family="Helvetica,sans-Serif" font-size="10.00">fstream</text>
</g>
<!-- Node26&#45;&gt;Node27 -->
<g id="edge37" class="edge"><title>Node26&#45;&gt;Node27</title>
<path fill="none" stroke="midnightblue" d="M252.444,-128.975C258.088,-120.138 267.061,-106.089 274.159,-94.975"/>
<polygon fill="midnightblue" stroke="midnightblue" points="277.133,-96.8208 279.566,-86.5091 271.233,-93.0531 277.133,-96.8208"/>
</g>
<!-- Node28&#45;&gt;Node7 -->
<g id="edge42" class="edge"><title>Node28&#45;&gt;Node7</title>
<path fill="none" stroke="midnightblue" d="M809.923,-72.8357C751.677,-67.1637 631.559,-53.6898 532,-31 526.925,-29.8435 521.603,-28.3938 516.453,-26.8615"/>
<polygon fill="midnightblue" stroke="midnightblue" points="517.46,-23.5092 506.871,-23.8683 515.372,-30.1908 517.46,-23.5092"/>
</g>
<!-- Node28&#45;&gt;Node8 -->
<g id="edge44" class="edge"><title>Node28&#45;&gt;Node8</title>
<path fill="none" stroke="midnightblue" d="M879.529,-67.4751C922.212,-56.9374 994.921,-38.9863 1041.68,-27.4415"/>
<polygon fill="midnightblue" stroke="midnightblue" points="1042.67,-30.804 1051.53,-25.0091 1040.99,-24.0081 1042.67,-30.804"/>
</g>
<!-- Node28&#45;&gt;Node12 -->
<g id="edge43" class="edge"><title>Node28&#45;&gt;Node12</title>
<path fill="none" stroke="midnightblue" d="M828.523,-67.4751C809.395,-57.578 777.627,-41.1416 755.348,-29.6151"/>
<polygon fill="midnightblue" stroke="midnightblue" points="756.936,-26.4958 746.446,-25.0091 753.719,-32.713 756.936,-26.4958"/>
</g>
<!-- Node29 -->
<g id="node29" class="node"><title>Node29</title>
<polygon fill="none" stroke="#bfbfbf" points="794.5,-0.5 794.5,-30.5 895.5,-30.5 895.5,-0.5 794.5,-0.5"/>
<text text-anchor="start" x="802.5" y="-18.5" font-family="Helvetica,sans-Serif" font-size="10.00">boost/property_tree</text>
<text text-anchor="middle" x="845" y="-7.5" font-family="Helvetica,sans-Serif" font-size="10.00">/ptree.hpp</text>
</g>
<!-- Node28&#45;&gt;Node29 -->
<g id="edge45" class="edge"><title>Node28&#45;&gt;Node29</title>
<path fill="none" stroke="midnightblue" d="M845,-67.4751C845,-60.471 845,-50.1919 845,-40.6956"/>
<polygon fill="midnightblue" stroke="midnightblue" points="848.5,-40.5229 845,-30.523 841.5,-40.523 848.5,-40.5229"/>
</g>
<!-- Node30&#45;&gt;Node8 -->
<g id="edge47" class="edge"><title>Node30&#45;&gt;Node8</title>
<path fill="none" stroke="midnightblue" d="M1032.73,-246.371C1045.17,-238.617 1061.78,-225.997 1070,-210 1099.75,-152.105 1093.72,-71.4545 1088.96,-35.3182"/>
<polygon fill="midnightblue" stroke="midnightblue" points="1092.4,-34.6336 1087.51,-25.2351 1085.47,-35.6321 1092.4,-34.6336"/>
</g>
<!-- Node31 -->
<g id="node31" class="node"><title>Node31</title>
<g id="a_node31"><a xlink:href="user__group_8hpp.html" target="_top" xlink:title="user_group.hpp">
<polygon fill="none" stroke="black" points="978.5,-190.5 978.5,-209.5 1061.5,-209.5 1061.5,-190.5 978.5,-190.5"/>
<text text-anchor="middle" x="1020" y="-197.5" font-family="Helvetica,sans-Serif" font-size="10.00">user_group.hpp</text>
</a>
</g>
</g>
<!-- Node30&#45;&gt;Node31 -->
<g id="edge48" class="edge"><title>Node30&#45;&gt;Node31</title>
<path fill="none" stroke="midnightblue" d="M1017.5,-246.083C1017.89,-239.006 1018.45,-228.861 1018.95,-219.986"/>
<polygon fill="midnightblue" stroke="midnightblue" points="1022.45,-219.93 1019.51,-209.751 1015.46,-219.542 1022.45,-219.93"/>
</g>
<!-- Node31&#45;&gt;Node17 -->
<g id="edge49" class="edge"><title>Node31&#45;&gt;Node17</title>
<path fill="none" stroke="midnightblue" d="M1020.28,-190.055C1020.31,-174.762 1018.32,-143.281 1003,-123 990.244,-106.117 969.247,-94.8179 951.564,-87.7646"/>
<polygon fill="midnightblue" stroke="midnightblue" points="952.748,-84.4706 942.155,-84.2744 950.313,-91.0337 952.748,-84.4706"/>
</g>
<!-- Node32 -->
<g id="node32" class="node"><title>Node32</title>
<g id="a_node32"><a xlink:href="user_8hpp.html" target="_top" xlink:title="user.hpp">
<polygon fill="none" stroke="black" points="940,-129 940,-148 994,-148 994,-129 940,-129"/>
<text text-anchor="middle" x="967" y="-136" font-family="Helvetica,sans-Serif" font-size="10.00">user.hpp</text>
</a>
</g>
</g>
<!-- Node31&#45;&gt;Node32 -->
<g id="edge50" class="edge"><title>Node31&#45;&gt;Node32</title>
<path fill="none" stroke="midnightblue" d="M1012.41,-190.475C1004.3,-181.373 991.265,-166.741 981.237,-155.483"/>
<polygon fill="midnightblue" stroke="midnightblue" points="983.844,-153.148 974.58,-148.009 978.617,-157.804 983.844,-153.148"/>
</g>
<!-- Node32&#45;&gt;Node7 -->
<g id="edge51" class="edge"><title>Node32&#45;&gt;Node7</title>
<path fill="none" stroke="midnightblue" d="M939.825,-136.905C857.419,-134.694 611.781,-124.998 543,-87 521.323,-75.0245 504.76,-51.1376 495.213,-34.5053"/>
<polygon fill="midnightblue" stroke="midnightblue" points="498.04,-32.3765 490.193,-25.2581 491.888,-35.7164 498.04,-32.3765"/>
</g>
<!-- Node32&#45;&gt;Node8 -->
<g id="edge53" class="edge"><title>Node32&#45;&gt;Node8</title>
<path fill="none" stroke="midnightblue" d="M978.804,-128.808C991.524,-119.202 1012.08,-102.968 1028,-87 1045.05,-69.8968 1062.35,-48.177 1073.56,-33.3956"/>
<polygon fill="midnightblue" stroke="midnightblue" points="1076.51,-35.2957 1079.7,-25.1921 1070.91,-31.1021 1076.51,-35.2957"/>
</g>
<!-- Node32&#45;&gt;Node17 -->
<g id="edge52" class="edge"><title>Node32&#45;&gt;Node17</title>
<path fill="none" stroke="midnightblue" d="M960.266,-128.975C953.216,-120.05 941.965,-105.807 933.146,-94.6425"/>
<polygon fill="midnightblue" stroke="midnightblue" points="935.667,-92.1867 926.721,-86.5091 930.174,-96.5258 935.667,-92.1867"/>
</g>
<!-- Node32&#45;&gt;Node28 -->
<g id="edge54" class="edge"><title>Node32&#45;&gt;Node28</title>
<path fill="none" stroke="midnightblue" d="M949.52,-128.975C929.137,-119.034 895.225,-102.495 871.575,-90.961"/>
<polygon fill="midnightblue" stroke="midnightblue" points="872.969,-87.7468 862.447,-86.5091 869.901,-94.0385 872.969,-87.7468"/>
</g>
<!-- Node33&#45;&gt;Node3 -->
<g id="edge57" class="edge"><title>Node33&#45;&gt;Node3</title>
<path fill="none" stroke="midnightblue" d="M776.367,-246.083C773.388,-238.77 769.074,-228.181 765.375,-219.103"/>
<polygon fill="midnightblue" stroke="midnightblue" points="768.58,-217.691 761.565,-209.751 762.097,-220.333 768.58,-217.691"/>
</g>
<!-- Node33&#45;&gt;Node32 -->
<g id="edge56" class="edge"><title>Node33&#45;&gt;Node32</title>
<path fill="none" stroke="midnightblue" d="M794.055,-246.319C826.217,-226.454 905.396,-177.55 944.46,-153.422"/>
<polygon fill="midnightblue" stroke="midnightblue" points="946.368,-156.357 953.037,-148.124 942.689,-150.402 946.368,-156.357"/>
</g>
<!-- Node34&#45;&gt;Node9 -->
<g id="edge62" class="edge"><title>Node34&#45;&gt;Node9</title>
<path fill="none" stroke="midnightblue" d="M936.396,-358.324C926.544,-350.263 911.649,-338.077 899.785,-328.369"/>
<polygon fill="midnightblue" stroke="midnightblue" points="901.753,-325.457 891.797,-321.834 897.32,-330.875 901.753,-325.457"/>
</g>
<!-- Node34&#45;&gt;Node21 -->
<g id="edge69" class="edge"><title>Node34&#45;&gt;Node21</title>
<path fill="none" stroke="midnightblue" d="M908.716,-361.962C817.835,-349.333 592.406,-313.877 535,-266 520.683,-254.059 512.217,-234.156 507.627,-219.514"/>
<polygon fill="midnightblue" stroke="midnightblue" points="510.907,-218.246 504.839,-209.561 504.166,-220.134 510.907,-218.246"/>
</g>
<!-- Node34&#45;&gt;Node24 -->
<g id="edge59" class="edge"><title>Node34&#45;&gt;Node24</title>
<path fill="none" stroke="midnightblue" d="M951.136,-358.214C958.018,-344.461 973.056,-317.789 993,-302 1026.45,-275.515 1050.23,-294.485 1082,-266 1115.61,-235.862 1135.69,-185.079 1144.57,-157.928"/>
<polygon fill="midnightblue" stroke="midnightblue" points="1147.98,-158.756 1147.61,-148.168 1141.29,-156.676 1147.98,-158.756"/>
</g>
<!-- Node35 -->
<g id="node35" class="node"><title>Node35</title>
<polygon fill="none" stroke="#bfbfbf" points="1002,-302.5 1002,-321.5 1046,-321.5 1046,-302.5 1002,-302.5"/>
<text text-anchor="middle" x="1024" y="-309.5" font-family="Helvetica,sans-Serif" font-size="10.00">thread</text>
</g>
<!-- Node34&#45;&gt;Node35 -->
<g id="edge60" class="edge"><title>Node34&#45;&gt;Node35</title>
<path fill="none" stroke="midnightblue" d="M959.371,-358.324C971.158,-350.058 989.132,-337.453 1003.14,-327.632"/>
<polygon fill="midnightblue" stroke="midnightblue" points="1005.48,-330.262 1011.66,-321.655 1001.46,-324.531 1005.48,-330.262"/>
</g>
<!-- Node36 -->
<g id="node36" class="node"><title>Node36</title>
<polygon fill="none" stroke="#bfbfbf" points="741,-302.5 741,-321.5 821,-321.5 821,-302.5 741,-302.5"/>
<text text-anchor="middle" x="781" y="-309.5" font-family="Helvetica,sans-Serif" font-size="10.00">boost/asio.hpp</text>
</g>
<!-- Node34&#45;&gt;Node36 -->
<g id="edge61" class="edge"><title>Node34&#45;&gt;Node36</title>
<path fill="none" stroke="midnightblue" d="M920.697,-358.444C892.649,-349.32 848.056,-334.813 816.816,-324.651"/>
<polygon fill="midnightblue" stroke="midnightblue" points="817.772,-321.282 807.18,-321.516 815.607,-327.938 817.772,-321.282"/>
</g>
<!-- Node37 -->
<g id="node37" class="node"><title>Node37</title>
<g id="a_node37"><a xlink:href="concurrent__container_8hpp.html" target="_top" xlink:title="concurrent_container.hpp">
<polygon fill="none" stroke="black" points="1164,-302.5 1164,-321.5 1290,-321.5 1290,-302.5 1164,-302.5"/>
<text text-anchor="middle" x="1227" y="-309.5" font-family="Helvetica,sans-Serif" font-size="10.00">concurrent_container.hpp</text>
</a>
</g>
</g>
<!-- Node34&#45;&gt;Node37 -->
<g id="edge63" class="edge"><title>Node34&#45;&gt;Node37</title>
<path fill="none" stroke="midnightblue" d="M985.053,-359.661C1033.48,-350.322 1117.44,-334.13 1172.61,-323.49"/>
<polygon fill="midnightblue" stroke="midnightblue" points="1173.4,-326.901 1182.56,-321.57 1172.08,-320.028 1173.4,-326.901"/>
</g>
<!-- Node37&#45;&gt;Node4 -->
<g id="edge67" class="edge"><title>Node37&#45;&gt;Node4</title>
<path fill="none" stroke="midnightblue" d="M1267.41,-302.444C1318.09,-291.711 1403.94,-273.531 1450.2,-263.734"/>
<polygon fill="midnightblue" stroke="midnightblue" points="1451.2,-267.101 1460.25,-261.605 1449.75,-260.253 1451.2,-267.101"/>
</g>
<!-- Node37&#45;&gt;Node10 -->
<g id="edge64" class="edge"><title>Node37&#45;&gt;Node10</title>
<path fill="none" stroke="midnightblue" d="M1215.11,-302.324C1203.85,-294.107 1186.71,-281.602 1173.29,-271.807"/>
<polygon fill="midnightblue" stroke="midnightblue" points="1175.25,-268.901 1165.11,-265.834 1171.12,-274.556 1175.25,-268.901"/>
</g>
<!-- Node37&#45;&gt;Node15 -->
<g id="edge66" class="edge"><title>Node37&#45;&gt;Node15</title>
<path fill="none" stroke="midnightblue" d="M1229.91,-302.171C1239.05,-272.641 1263.89,-176.192 1218,-123 1193.94,-95.1189 1088.27,-84.1192 1029.6,-80.1023"/>
<polygon fill="midnightblue" stroke="midnightblue" points="1029.78,-76.6063 1019.57,-79.4521 1029.33,-83.5917 1029.78,-76.6063"/>
</g>
<!-- Node37&#45;&gt;Node17 -->
<g id="edge68" class="edge"><title>Node37&#45;&gt;Node17</title>
<path fill="none" stroke="midnightblue" d="M1227.9,-302.261C1230.45,-272.184 1234.45,-172.103 1181,-123 1144.91,-89.8463 1016.13,-97.2811 952.293,-86.7646"/>
<polygon fill="midnightblue" stroke="midnightblue" points="952.745,-83.2874 942.263,-84.8312 951.42,-90.1609 952.745,-83.2874"/>
</g>
<!-- Node38 -->
<g id="node38" class="node"><title>Node38</title>
<polygon fill="none" stroke="#bfbfbf" points="1270.5,-246.5 1270.5,-265.5 1365.5,-265.5 1365.5,-246.5 1270.5,-246.5"/>
<text text-anchor="middle" x="1318" y="-253.5" font-family="Helvetica,sans-Serif" font-size="10.00">condition_variable</text>
</g>
<!-- Node37&#45;&gt;Node38 -->
<g id="edge65" class="edge"><title>Node37&#45;&gt;Node38</title>
<path fill="none" stroke="midnightblue" d="M1241.62,-302.324C1255.95,-293.822 1278.01,-280.729 1294.75,-270.797"/>
<polygon fill="midnightblue" stroke="midnightblue" points="1296.6,-273.768 1303.42,-265.655 1293.03,-267.748 1296.6,-273.768"/>
</g>
<!-- Node39&#45;&gt;Node4 -->
<g id="edge74" class="edge"><title>Node39&#45;&gt;Node4</title>
<path fill="none" stroke="midnightblue" d="M1222.25,-364.377C1287.02,-359.469 1410.68,-347.049 1446,-322 1461.75,-310.83 1471.39,-290.503 1476.68,-275.544"/>
<polygon fill="midnightblue" stroke="midnightblue" points="1480.08,-276.399 1479.79,-265.808 1473.41,-274.27 1480.08,-276.399"/>
</g>
<!-- Node39&#45;&gt;Node8 -->
<g id="edge76" class="edge"><title>Node39&#45;&gt;Node8</title>
<path fill="none" stroke="midnightblue" d="M1222.17,-366.843C1292.84,-364.224 1432,-347.569 1432,-257 1432,-257 1432,-257 1432,-137.5 1432,-75.947 1234.42,-38.3261 1137.87,-23.6167"/>
<polygon fill="midnightblue" stroke="midnightblue" points="1138.14,-20.1184 1127.74,-22.1001 1137.11,-27.0413 1138.14,-20.1184"/>
</g>
<!-- Node39&#45;&gt;Node9 -->
<g id="edge79" class="edge"><title>Node39&#45;&gt;Node9</title>
<path fill="none" stroke="midnightblue" d="M1141.72,-359.773C1087.81,-350.102 992.129,-332.937 932.881,-322.308"/>
<polygon fill="midnightblue" stroke="midnightblue" points="933.44,-318.852 922.979,-320.531 932.204,-325.742 933.44,-318.852"/>
</g>
<!-- Node39&#45;&gt;Node10 -->
<g id="edge71" class="edge"><title>Node39&#45;&gt;Node10</title>
<path fill="none" stroke="midnightblue" d="M1174.94,-358.338C1168.39,-349.716 1159.06,-335.812 1155,-322 1150.57,-306.919 1150.37,-289.017 1151.1,-275.823"/>
<polygon fill="midnightblue" stroke="midnightblue" points="1154.61,-275.874 1151.91,-265.629 1147.63,-275.322 1154.61,-275.874"/>
</g>
<!-- Node39&#45;&gt;Node24 -->
<g id="edge73" class="edge"><title>Node39&#45;&gt;Node24</title>
<path fill="none" stroke="midnightblue" d="M1222.15,-359.623C1289.74,-345.294 1415.14,-309.405 1375,-246 1332.16,-178.329 1233.44,-152.823 1182.19,-143.897"/>
<polygon fill="midnightblue" stroke="midnightblue" points="1182.44,-140.392 1172.01,-142.235 1181.31,-147.301 1182.44,-140.392"/>
</g>
<!-- Node39&#45;&gt;Node28 -->
<g id="edge78" class="edge"><title>Node39&#45;&gt;Node28</title>
<path fill="none" stroke="midnightblue" d="M1167.08,-358.496C1143.68,-345.357 1096.69,-319.782 1055,-302 1010.01,-282.811 988.558,-297.335 951,-266 894.681,-219.012 862.514,-133.961 850.492,-96.5305"/>
<polygon fill="midnightblue" stroke="midnightblue" points="853.7,-95.0582 847.403,-86.5377 847.012,-97.1253 853.7,-95.0582"/>
</g>
<!-- Node39&#45;&gt;Node35 -->
<g id="edge75" class="edge"><title>Node39&#45;&gt;Node35</title>
<path fill="none" stroke="midnightblue" d="M1156.96,-358.444C1129.52,-349.065 1085.44,-334 1055.63,-323.811"/>
<polygon fill="midnightblue" stroke="midnightblue" points="1056.71,-320.48 1046.11,-320.558 1054.44,-327.104 1056.71,-320.48"/>
</g>
<!-- Node39&#45;&gt;Node37 -->
<g id="edge77" class="edge"><title>Node39&#45;&gt;Node37</title>
<path fill="none" stroke="midnightblue" d="M1189.43,-358.083C1195.85,-350.377 1205.31,-339.033 1213.12,-329.653"/>
<polygon fill="midnightblue" stroke="midnightblue" points="1215.99,-331.674 1219.71,-321.751 1210.62,-327.193 1215.99,-331.674"/>
</g>
<!-- Node39&#45;&gt;Node38 -->
<g id="edge72" class="edge"><title>Node39&#45;&gt;Node38</title>
<path fill="none" stroke="midnightblue" d="M1222.09,-360.897C1247.42,-355.033 1279.03,-343.697 1299,-322 1310.56,-309.441 1315.12,-290.22 1316.9,-275.934"/>
<polygon fill="midnightblue" stroke="midnightblue" points="1320.41,-276.028 1317.81,-265.756 1313.43,-275.403 1320.41,-276.028"/>
</g>
</g>
</svg>
        <g id="navigator" transform="translate(0 0)" fill="#404254">
                <rect fill="#f2f5e9" fill-opacity="0.5" stroke="#606060" stroke-width=".5" x="0" y="0" width="60" height="60"/>
                <use id="zoomplus" xlink:href="#zoomPlus" x="17" y="9" onmousedown="handleZoom(evt,'in')"/>
                <use id="zoomminus" xlink:href="#zoomMin" x="42" y="9" onmousedown="handleZoom(evt,'out')"/>
                <use id="reset" xlink:href="#resetDef" x="30" y="36" onmousedown="handleReset()"/>
                <g id="arrowUp" xlink:href="#dirArrow" transform="translate(30 24)" onmousedown="handlePan(0,-1)">
                  <use xlink:href="#rim" fill="#404040">
                        <set attributeName="fill" to="#808080" begin="arrowUp.mouseover" end="arrowUp.mouseout"/>
                  </use>
                  <path fill="none" stroke="white" stroke-width="1.5" d="M0,-3.0v7 M-2.5,-0.5L0,-3.0L2.5,-0.5"/>
                </g>
                <g id="arrowRight" xlink:href="#dirArrow" transform="rotate(90) translate(36 -43)" onmousedown="handlePan(1,0)">
                  <use xlink:href="#rim" fill="#404040">
                        <set attributeName="fill" to="#808080" begin="arrowRight.mouseover" end="arrowRight.mouseout"/>
                  </use>
                  <path fill="none" stroke="white" stroke-width="1.5" d="M0,-3.0v7 M-2.5,-0.5L0,-3.0L2.5,-0.5"/>
                </g>
                <g id="arrowDown" xlink:href="#dirArrow" transform="rotate(180) translate(-30 -48)" onmousedown="handlePan(0,1)">
                  <use xlink:href="#rim" fill="#404040">
                        <set attributeName="fill" to="#808080" begin="arrowDown.mouseover" end="arrowDown.mouseout"/>
                  </use>
                  <path fill="none" stroke="white" stroke-width="1.5" d="M0,-3.0v7 M-2.5,-0.5L0,-3.0L2.5,-0.5"/>
                </g>
                <g id="arrowLeft" xlink:href="#dirArrow" transform="rotate(270) translate(-36 17)" onmousedown="handlePan(-1,0)">
                  <use xlink:href="#rim" fill="#404040">
                        <set attributeName="fill" to="#808080" begin="arrowLeft.mouseover" end="arrowLeft.mouseout"/>
                  </use>
                  <path fill="none" stroke="white" stroke-width="1.5" d="M0,-3.0v7 M-2.5,-0.5L0,-3.0L2.5,-0.5"/>
                </g>
        </g>
        <svg viewBox="0 0 15 15" width="100%" height="30px" preserveAspectRatio="xMaxYMin meet">
         <g id="arrow_out" transform="scale(0.3 0.3)">
          <a xlink:href="irc_8hpp__incl_org.svg" target="_base">
           <rect id="button" ry="5" rx="5" y="6" x="6" height="38" width="38"
                fill="#f2f5e9" fill-opacity="0.5" stroke="#606060" stroke-width="1.0"/>
           <path id="arrow"
             d="M 11.500037,31.436501 C 11.940474,20.09759 22.043105,11.32322 32.158766,21.979434 L 37.068811,17.246167 C 37.068811,17.246167 37.088388,32 37.088388,32 L 22.160133,31.978069 C 22.160133,31.978069 26.997745,27.140456 26.997745,27.140456 C 18.528582,18.264221 13.291696,25.230495 11.500037,31.436501 z"
             style="fill:#404040;"/>
          </a>
         </g>
        </svg>
</svg>
