<?xml version="1.0" encoding="UTF-8" standalone="no"?>
<!DOCTYPE svg PUBLIC "-//W3C//DTD SVG 1.1//EN"
 "http://www.w3.org/Graphics/SVG/1.1/DTD/svg11.dtd">
<!-- Generated by graphviz version 2.38.0 (20140413.2041)
 -->
<!-- Title: modules/irc/irc_formatter.cpp Pages: 1 -->
<!--zoomable 319 -->
<svg id="main" version="1.1" xmlns="http://www.w3.org/2000/svg" xmlns:xlink="http://www.w3.org/1999/xlink" xml:space="preserve" onload="init(evt)">
<style type="text/css"><![CDATA[
.edge:hover path { stroke: red; }
.edge:hover polygon { stroke: red; fill: red; }
]]></style>
<script type="text/javascript"><![CDATA[
var edges = document.getElementsByTagName('g');
if (edges && edges.length) {
  for (var i=0;i<edges.length;i++) {
    if (edges[i].id.substr(0,4)=='edge') {
      edges[i].setAttribute('class','edge');
    }
  }
}
]]></script>
        <defs>
                <circle id="rim" cx="0" cy="0" r="7"/>
                <circle id="rim2" cx="0" cy="0" r="3.5"/>
                <g id="zoomPlus">
                        <use xlink:href="#rim" fill="#404040">
                                <set attributeName="fill" to="#808080" begin="zoomplus.mouseover" end="zoomplus.mouseout"/>
                        </use>
                        <path d="M-4,0h8M0,-4v8" fill="none" stroke="white" stroke-width="1.5" pointer-events="none"/>
                </g>
                <g id="zoomMin">
                        <use xlink:href="#rim" fill="#404040">
                                <set attributeName="fill" to="#808080" begin="zoomminus.mouseover" end="zoomminus.mouseout"/>
                        </use>
                        <path d="M-4,0h8" fill="none" stroke="white" stroke-width="1.5" pointer-events="none"/>
                </g>
                <g id="dirArrow">
                        <path fill="none" stroke="white" stroke-width="1.5" d="M0,-3.0v7 M-2.5,-0.5L0,-3.0L2.5,-0.5"/>
                </g>
               <g id="resetDef">
                       <use xlink:href="#rim2" fill="#404040">
                               <set attributeName="fill" to="#808080" begin="reset.mouseover" end="reset.mouseout"/>
                       </use>
               </g>
        </defs>

<script type="text/javascript">
var viewWidth = 881;
var viewHeight = 319;
var sectionId = 'dynsection-0';
</script>
<script xlink:href="svgpan.js"/>
<svg id="graph" class="graph">
<g id="viewport">
<title>modules/irc/irc_formatter.cpp</title>
<!-- Node1 -->
<g id="node1" class="node"><title>Node1</title>
<polygon fill="#bfbfbf" stroke="black" points="496,-291.5 496,-310.5 639,-310.5 639,-291.5 496,-291.5"/>
<text text-anchor="middle" x="567.5" y="-298.5" font-family="Helvetica,sans-Serif" font-size="10.00">modules/irc/irc_formatter.cpp</text>
</g>
<!-- Node2 -->
<g id="node2" class="node"><title>Node2</title>
<g id="a_node2"><a xlink:href="irc__formatter_8hpp.html" target="_top" xlink:title="irc_formatter.hpp">
<polygon fill="none" stroke="black" points="347.5,-235.5 347.5,-254.5 437.5,-254.5 437.5,-235.5 347.5,-235.5"/>
<text text-anchor="middle" x="392.5" y="-242.5" font-family="Helvetica,sans-Serif" font-size="10.00">irc_formatter.hpp</text>
</a>
</g>
</g>
<!-- Node1&#45;&gt;Node2 -->
<g id="edge1" class="edge"><title>Node1&#45;&gt;Node2</title>
<path fill="none" stroke="midnightblue" d="M539.771,-291.444C510.074,-282.28 462.784,-267.688 429.831,-257.519"/>
<polygon fill="midnightblue" stroke="midnightblue" points="430.687,-254.121 420.1,-254.516 428.623,-260.809 430.687,-254.121"/>
</g>
<!-- Node15 -->
<g id="node15" class="node"><title>Node15</title>
<polygon fill="none" stroke="#bfbfbf" points="547,-123.5 547,-142.5 588,-142.5 588,-123.5 547,-123.5"/>
<text text-anchor="middle" x="567.5" y="-130.5" font-family="Helvetica,sans-Serif" font-size="10.00">regex</text>
</g>
<!-- Node1&#45;&gt;Node15 -->
<g id="edge16" class="edge"><title>Node1&#45;&gt;Node15</title>
<path fill="none" stroke="midnightblue" d="M567.5,-291.075C567.5,-264.945 567.5,-188.211 567.5,-152.577"/>
<polygon fill="midnightblue" stroke="midnightblue" points="571,-152.568 567.5,-142.568 564,-152.568 571,-152.568"/>
</g>
<!-- Node16 -->
<g id="node16" class="node"><title>Node16</title>
<g id="a_node16"><a xlink:href="string__functions_8hpp.html" target="_top" xlink:title="string/string_functions.hpp">
<polygon fill="none" stroke="black" points="605,-179.5 605,-198.5 736,-198.5 736,-179.5 605,-179.5"/>
<text text-anchor="middle" x="670.5" y="-186.5" font-family="Helvetica,sans-Serif" font-size="10.00">string/string_functions.hpp</text>
</a>
</g>
</g>
<!-- Node1&#45;&gt;Node16 -->
<g id="edge17" class="edge"><title>Node1&#45;&gt;Node16</title>
<path fill="none" stroke="midnightblue" d="M575.582,-291.368C592.806,-272.974 633.353,-229.671 655.47,-206.052"/>
<polygon fill="midnightblue" stroke="midnightblue" points="658.175,-208.283 662.455,-198.591 653.065,-203.499 658.175,-208.283"/>
</g>
<!-- Node3 -->
<g id="node3" class="node"><title>Node3</title>
<g id="a_node3"><a xlink:href="string_8hpp.html" target="_top" xlink:title="string/string.hpp">
<polygon fill="none" stroke="black" points="276.5,-179.5 276.5,-198.5 362.5,-198.5 362.5,-179.5 276.5,-179.5"/>
<text text-anchor="middle" x="319.5" y="-186.5" font-family="Helvetica,sans-Serif" font-size="10.00">string/string.hpp</text>
</a>
</g>
</g>
<!-- Node2&#45;&gt;Node3 -->
<g id="edge2" class="edge"><title>Node2&#45;&gt;Node3</title>
<path fill="none" stroke="midnightblue" d="M380.771,-235.324C369.663,-227.107 352.758,-214.602 339.517,-204.807"/>
<polygon fill="midnightblue" stroke="midnightblue" points="341.563,-201.967 331.442,-198.834 337.4,-207.595 341.563,-201.967"/>
</g>
<!-- Node4 -->
<g id="node4" class="node"><title>Node4</title>
<polygon fill="none" stroke="#bfbfbf" points="75.5,-62 75.5,-81 121.5,-81 121.5,-62 75.5,-62"/>
<text text-anchor="middle" x="98.5" y="-69" font-family="Helvetica,sans-Serif" font-size="10.00">cstdint</text>
</g>
<!-- Node3&#45;&gt;Node4 -->
<g id="edge3" class="edge"><title>Node3&#45;&gt;Node4</title>
<path fill="none" stroke="midnightblue" d="M276.38,-185.041C219.989,-180.201 125.742,-168.457 103.5,-143 91.2865,-129.021 91.7619,-106.944 94.1945,-91.2218"/>
<polygon fill="midnightblue" stroke="midnightblue" points="97.6889,-91.5868 96.1582,-81.1031 90.8171,-90.2531 97.6889,-91.5868"/>
</g>
<!-- Node5 -->
<g id="node5" class="node"><title>Node5</title>
<polygon fill="none" stroke="#bfbfbf" points="113,-123.5 113,-142.5 172,-142.5 172,-123.5 113,-123.5"/>
<text text-anchor="middle" x="142.5" y="-130.5" font-family="Helvetica,sans-Serif" font-size="10.00">functional</text>
</g>
<!-- Node3&#45;&gt;Node5 -->
<g id="edge4" class="edge"><title>Node3&#45;&gt;Node5</title>
<path fill="none" stroke="midnightblue" d="M291.454,-179.444C261.418,-170.28 213.587,-155.688 180.257,-145.519"/>
<polygon fill="midnightblue" stroke="midnightblue" points="181.001,-142.087 170.415,-142.516 178.958,-148.782 181.001,-142.087"/>
</g>
<!-- Node6 -->
<g id="node6" class="node"><title>Node6</title>
<polygon fill="none" stroke="#bfbfbf" points="190.5,-123.5 190.5,-142.5 242.5,-142.5 242.5,-123.5 190.5,-123.5"/>
<text text-anchor="middle" x="216.5" y="-130.5" font-family="Helvetica,sans-Serif" font-size="10.00">memory</text>
</g>
<!-- Node3&#45;&gt;Node6 -->
<g id="edge5" class="edge"><title>Node3&#45;&gt;Node6</title>
<path fill="none" stroke="midnightblue" d="M302.951,-179.324C286.508,-170.703 261.065,-157.364 242.032,-147.386"/>
<polygon fill="midnightblue" stroke="midnightblue" points="243.489,-144.198 233.008,-142.655 240.239,-150.398 243.489,-144.198"/>
</g>
<!-- Node7 -->
<g id="node7" class="node"><title>Node7</title>
<polygon fill="none" stroke="#bfbfbf" points="261,-123.5 261,-142.5 320,-142.5 320,-123.5 261,-123.5"/>
<text text-anchor="middle" x="290.5" y="-130.5" font-family="Helvetica,sans-Serif" font-size="10.00">stdexcept</text>
</g>
<!-- Node3&#45;&gt;Node7 -->
<g id="edge6" class="edge"><title>Node3&#45;&gt;Node7</title>
<path fill="none" stroke="midnightblue" d="M314.711,-179.083C310.742,-171.691 304.975,-160.953 300.065,-151.811"/>
<polygon fill="midnightblue" stroke="midnightblue" points="303.014,-149.905 295.2,-142.751 296.847,-153.217 303.014,-149.905"/>
</g>
<!-- Node8 -->
<g id="node8" class="node"><title>Node8</title>
<polygon fill="none" stroke="#bfbfbf" points="368,-62 368,-81 409,-81 409,-62 368,-62"/>
<text text-anchor="middle" x="388.5" y="-69" font-family="Helvetica,sans-Serif" font-size="10.00">string</text>
</g>
<!-- Node3&#45;&gt;Node8 -->
<g id="edge7" class="edge"><title>Node3&#45;&gt;Node8</title>
<path fill="none" stroke="midnightblue" d="M324.686,-179.319C335.975,-160.422 362.962,-115.248 377.973,-90.1206"/>
<polygon fill="midnightblue" stroke="midnightblue" points="381.13,-91.6618 383.254,-81.282 375.12,-88.0718 381.13,-91.6618"/>
</g>
<!-- Node9 -->
<g id="node9" class="node"><title>Node9</title>
<polygon fill="none" stroke="#bfbfbf" points="476.5,-123.5 476.5,-142.5 528.5,-142.5 528.5,-123.5 476.5,-123.5"/>
<text text-anchor="middle" x="502.5" y="-130.5" font-family="Helvetica,sans-Serif" font-size="10.00">sstream</text>
</g>
<!-- Node3&#45;&gt;Node9 -->
<g id="edge8" class="edge"><title>Node3&#45;&gt;Node9</title>
<path fill="none" stroke="midnightblue" d="M348.497,-179.444C380.51,-169.997 432.076,-154.781 466.613,-144.59"/>
<polygon fill="midnightblue" stroke="midnightblue" points="467.707,-147.916 476.307,-141.729 465.725,-141.202 467.707,-147.916"/>
</g>
<!-- Node10 -->
<g id="node10" class="node"><title>Node10</title>
<polygon fill="none" stroke="#bfbfbf" points="467,-62 467,-81 550,-81 550,-62 467,-62"/>
<text text-anchor="middle" x="508.5" y="-69" font-family="Helvetica,sans-Serif" font-size="10.00">unordered_map</text>
</g>
<!-- Node3&#45;&gt;Node10 -->
<g id="edge9" class="edge"><title>Node3&#45;&gt;Node10</title>
<path fill="none" stroke="midnightblue" d="M347.886,-179.37C370.883,-171.693 403.602,-159.181 429.5,-143 454.193,-127.572 478.572,-104.247 493.573,-88.7032"/>
<polygon fill="midnightblue" stroke="midnightblue" points="496.183,-91.0363 500.514,-81.367 491.099,-86.2251 496.183,-91.0363"/>
</g>
<!-- Node11 -->
<g id="node11" class="node"><title>Node11</title>
<polygon fill="none" stroke="#bfbfbf" points="376.5,-123.5 376.5,-142.5 420.5,-142.5 420.5,-123.5 376.5,-123.5"/>
<text text-anchor="middle" x="398.5" y="-130.5" font-family="Helvetica,sans-Serif" font-size="10.00">vector</text>
</g>
<!-- Node3&#45;&gt;Node11 -->
<g id="edge10" class="edge"><title>Node3&#45;&gt;Node11</title>
<path fill="none" stroke="midnightblue" d="M332.193,-179.324C344.401,-170.979 363.078,-158.212 377.503,-148.352"/>
<polygon fill="midnightblue" stroke="midnightblue" points="379.558,-151.187 385.839,-142.655 375.608,-145.408 379.558,-151.187"/>
</g>
<!-- Node12 -->
<g id="node12" class="node"><title>Node12</title>
<g id="a_node12"><a xlink:href="color_8hpp.html" target="_top" xlink:title="color.hpp">
<polygon fill="none" stroke="black" points="0.5,-123.5 0.5,-142.5 56.5,-142.5 56.5,-123.5 0.5,-123.5"/>
<text text-anchor="middle" x="28.5" y="-130.5" font-family="Helvetica,sans-Serif" font-size="10.00">color.hpp</text>
</a>
</g>
</g>
<!-- Node3&#45;&gt;Node12 -->
<g id="edge11" class="edge"><title>Node3&#45;&gt;Node12</title>
<path fill="none" stroke="midnightblue" d="M276.236,-180.618C226.506,-172.031 142.473,-157.211 70.5,-143 69.2654,-142.756 68.0111,-142.505 66.7451,-142.25"/>
<polygon fill="midnightblue" stroke="midnightblue" points="67.4422,-138.82 56.9408,-140.224 66.0259,-145.675 67.4422,-138.82"/>
</g>
<!-- Node12&#45;&gt;Node4 -->
<g id="edge12" class="edge"><title>Node12&#45;&gt;Node4</title>
<path fill="none" stroke="midnightblue" d="M38.5293,-123.475C49.5491,-114.108 67.4601,-98.8839 80.8435,-87.5081"/>
<polygon fill="midnightblue" stroke="midnightblue" points="83.1367,-90.1524 88.4893,-81.0091 78.6031,-84.8188 83.1367,-90.1524"/>
</g>
<!-- Node12&#45;&gt;Node8 -->
<g id="edge13" class="edge"><title>Node12&#45;&gt;Node8</title>
<path fill="none" stroke="midnightblue" d="M56.7486,-127.331C123.145,-116.357 288.712,-88.9927 357.634,-77.6015"/>
<polygon fill="midnightblue" stroke="midnightblue" points="358.54,-80.9993 367.835,-75.9154 357.399,-74.093 358.54,-80.9993"/>
</g>
<!-- Node13 -->
<g id="node13" class="node"><title>Node13</title>
<g id="a_node13"><a xlink:href="math_8hpp.html" target="_top" xlink:title="math.hpp">
<polygon fill="none" stroke="black" points="0,-62 0,-81 57,-81 57,-62 0,-62"/>
<text text-anchor="middle" x="28.5" y="-69" font-family="Helvetica,sans-Serif" font-size="10.00">math.hpp</text>
</a>
</g>
</g>
<!-- Node12&#45;&gt;Node13 -->
<g id="edge14" class="edge"><title>Node12&#45;&gt;Node13</title>
<path fill="none" stroke="midnightblue" d="M28.5,-123.475C28.5,-115.08 28.5,-101.981 28.5,-91.1631"/>
<polygon fill="midnightblue" stroke="midnightblue" points="32.0001,-91.0091 28.5,-81.0091 25.0001,-91.0091 32.0001,-91.0091"/>
</g>
<!-- Node14 -->
<g id="node14" class="node"><title>Node14</title>
<polygon fill="none" stroke="#bfbfbf" points="430.5,-0.5 430.5,-19.5 486.5,-19.5 486.5,-0.5 430.5,-0.5"/>
<text text-anchor="middle" x="458.5" y="-7.5" font-family="Helvetica,sans-Serif" font-size="10.00">algorithm</text>
</g>
<!-- Node13&#45;&gt;Node14 -->
<g id="edge15" class="edge"><title>Node13&#45;&gt;Node14</title>
<path fill="none" stroke="midnightblue" d="M48.3171,-61.8659C54.0867,-59.6473 60.4634,-57.4735 66.5,-56 193.415,-25.021 348.783,-15.2248 419.778,-12.243"/>
<polygon fill="midnightblue" stroke="midnightblue" points="420.176,-15.73 430.03,-11.8357 419.899,-8.73554 420.176,-15.73"/>
</g>
<!-- Node16&#45;&gt;Node8 -->
<g id="edge22" class="edge"><title>Node16&#45;&gt;Node8</title>
<path fill="none" stroke="midnightblue" d="M663.257,-179.369C650.996,-165.337 624.719,-137.672 596.5,-123 580.775,-114.824 472.968,-90.7874 419.059,-79.0709"/>
<polygon fill="midnightblue" stroke="midnightblue" points="419.554,-75.5969 409.039,-76.9002 418.071,-82.4382 419.554,-75.5969"/>
</g>
<!-- Node16&#45;&gt;Node9 -->
<g id="edge21" class="edge"><title>Node16&#45;&gt;Node9</title>
<path fill="none" stroke="midnightblue" d="M643.88,-179.444C615.411,-170.293 570.098,-155.728 538.469,-145.561"/>
<polygon fill="midnightblue" stroke="midnightblue" points="539.31,-142.156 528.719,-142.428 537.168,-148.82 539.31,-142.156"/>
</g>
<!-- Node16&#45;&gt;Node14 -->
<g id="edge18" class="edge"><title>Node16&#45;&gt;Node14</title>
<path fill="none" stroke="midnightblue" d="M736.07,-181.918C787.445,-175.636 852.916,-163.753 869.5,-143 875.049,-136.056 874.139,-130.583 869.5,-123 835.374,-67.2153 800.656,-76.3264 738.5,-56 654.925,-28.6692 551.686,-17.571 496.894,-13.3583"/>
<polygon fill="midnightblue" stroke="midnightblue" points="496.831,-9.84439 486.602,-12.6048 496.32,-16.8257 496.831,-9.84439"/>
</g>
<!-- Node16&#45;&gt;Node15 -->
<g id="edge20" class="edge"><title>Node16&#45;&gt;Node15</title>
<path fill="none" stroke="midnightblue" d="M653.951,-179.324C637.508,-170.703 612.065,-157.364 593.032,-147.386"/>
<polygon fill="midnightblue" stroke="midnightblue" points="594.489,-144.198 584.008,-142.655 591.239,-150.398 594.489,-144.198"/>
</g>
<!-- Node17 -->
<g id="node17" class="node"><title>Node17</title>
<polygon fill="none" stroke="#bfbfbf" points="733,-123.5 733,-142.5 780,-142.5 780,-123.5 733,-123.5"/>
<text text-anchor="middle" x="756.5" y="-130.5" font-family="Helvetica,sans-Serif" font-size="10.00">iterator</text>
</g>
<!-- Node16&#45;&gt;Node17 -->
<g id="edge19" class="edge"><title>Node16&#45;&gt;Node17</title>
<path fill="none" stroke="midnightblue" d="M684.317,-179.324C697.733,-170.9 718.324,-157.971 734.086,-148.074"/>
<polygon fill="midnightblue" stroke="midnightblue" points="736.109,-150.936 742.717,-142.655 732.387,-145.008 736.109,-150.936"/>
</g>
<!-- Node18 -->
<g id="node18" class="node"><title>Node18</title>
<polygon fill="none" stroke="#bfbfbf" points="798.5,-123.5 798.5,-142.5 860.5,-142.5 860.5,-123.5 798.5,-123.5"/>
<text text-anchor="middle" x="829.5" y="-130.5" font-family="Helvetica,sans-Serif" font-size="10.00">type_traits</text>
</g>
<!-- Node16&#45;&gt;Node18 -->
<g id="edge23" class="edge"><title>Node16&#45;&gt;Node18</title>
<path fill="none" stroke="midnightblue" d="M695.694,-179.444C722.443,-170.359 764.903,-155.939 794.805,-145.783"/>
<polygon fill="midnightblue" stroke="midnightblue" points="796.081,-149.046 804.424,-142.516 793.829,-142.418 796.081,-149.046"/>
</g>
<!-- Node19 -->
<g id="node19" class="node"><title>Node19</title>
<g id="a_node19"><a xlink:href="settings_8hpp.html" target="_top" xlink:title="settings.hpp">
<polygon fill="none" stroke="black" points="644.5,-123.5 644.5,-142.5 714.5,-142.5 714.5,-123.5 644.5,-123.5"/>
<text text-anchor="middle" x="679.5" y="-130.5" font-family="Helvetica,sans-Serif" font-size="10.00">settings.hpp</text>
</a>
</g>
</g>
<!-- Node16&#45;&gt;Node19 -->
<g id="edge24" class="edge"><title>Node16&#45;&gt;Node19</title>
<path fill="none" stroke="midnightblue" d="M671.986,-179.083C673.179,-171.927 674.894,-161.635 676.385,-152.691"/>
<polygon fill="midnightblue" stroke="midnightblue" points="679.85,-153.19 678.041,-142.751 672.945,-152.04 679.85,-153.19"/>
</g>
<!-- Node19&#45;&gt;Node4 -->
<g id="edge26" class="edge"><title>Node19&#45;&gt;Node4</title>
<path fill="none" stroke="midnightblue" d="M644.37,-128.136C629.592,-126.525 612.212,-124.649 596.5,-123 421.354,-104.624 211.434,-83.6957 131.549,-75.7712"/>
<polygon fill="midnightblue" stroke="midnightblue" points="131.886,-72.2876 121.59,-74.7838 131.196,-79.2534 131.886,-72.2876"/>
</g>
<!-- Node19&#45;&gt;Node8 -->
<g id="edge25" class="edge"><title>Node19&#45;&gt;Node8</title>
<path fill="none" stroke="midnightblue" d="M644.495,-124.985C600.736,-116.197 523.551,-100.634 457.5,-87 444.89,-84.397 430.993,-81.4851 418.996,-78.9576"/>
<polygon fill="midnightblue" stroke="midnightblue" points="419.53,-75.4931 409.023,-76.8528 418.084,-82.3423 419.53,-75.4931"/>
</g>
<!-- Node19&#45;&gt;Node10 -->
<g id="edge27" class="edge"><title>Node19&#45;&gt;Node10</title>
<path fill="none" stroke="midnightblue" d="M655,-123.475C625.54,-113.225 575.921,-95.9593 542.698,-84.3994"/>
<polygon fill="midnightblue" stroke="midnightblue" points="543.55,-80.9898 532.955,-81.0091 541.249,-87.601 543.55,-80.9898"/>
</g>
<!-- Node20 -->
<g id="node20" class="node"><title>Node20</title>
<polygon fill="none" stroke="#bfbfbf" points="629,-56.5 629,-86.5 730,-86.5 730,-56.5 629,-56.5"/>
<text text-anchor="start" x="637" y="-74.5" font-family="Helvetica,sans-Serif" font-size="10.00">boost/property_tree</text>
<text text-anchor="middle" x="679.5" y="-63.5" font-family="Helvetica,sans-Serif" font-size="10.00">/ptree.hpp</text>
</g>
<!-- Node19&#45;&gt;Node20 -->
<g id="edge28" class="edge"><title>Node19&#45;&gt;Node20</title>
<path fill="none" stroke="midnightblue" d="M679.5,-123.475C679.5,-116.471 679.5,-106.192 679.5,-96.6956"/>
<polygon fill="midnightblue" stroke="midnightblue" points="683,-96.5229 679.5,-86.523 676,-96.523 683,-96.5229"/>
</g>
</g>
</svg>
        <g id="navigator" transform="translate(0 0)" fill="#404254">
                <rect fill="#f2f5e9" fill-opacity="0.5" stroke="#606060" stroke-width=".5" x="0" y="0" width="60" height="60"/>
                <use id="zoomplus" xlink:href="#zoomPlus" x="17" y="9" onmousedown="handleZoom(evt,'in')"/>
                <use id="zoomminus" xlink:href="#zoomMin" x="42" y="9" onmousedown="handleZoom(evt,'out')"/>
                <use id="reset" xlink:href="#resetDef" x="30" y="36" onmousedown="handleReset()"/>
                <g id="arrowUp" xlink:href="#dirArrow" transform="translate(30 24)" onmousedown="handlePan(0,-1)">
                  <use xlink:href="#rim" fill="#404040">
                        <set attributeName="fill" to="#808080" begin="arrowUp.mouseover" end="arrowUp.mouseout"/>
                  </use>
                  <path fill="none" stroke="white" stroke-width="1.5" d="M0,-3.0v7 M-2.5,-0.5L0,-3.0L2.5,-0.5"/>
                </g>
                <g id="arrowRight" xlink:href="#dirArrow" transform="rotate(90) translate(36 -43)" onmousedown="handlePan(1,0)">
                  <use xlink:href="#rim" fill="#404040">
                        <set attributeName="fill" to="#808080" begin="arrowRight.mouseover" end="arrowRight.mouseout"/>
                  </use>
                  <path fill="none" stroke="white" stroke-width="1.5" d="M0,-3.0v7 M-2.5,-0.5L0,-3.0L2.5,-0.5"/>
                </g>
                <g id="arrowDown" xlink:href="#dirArrow" transform="rotate(180) translate(-30 -48)" onmousedown="handlePan(0,1)">
                  <use xlink:href="#rim" fill="#404040">
                        <set attributeName="fill" to="#808080" begin="arrowDown.mouseover" end="arrowDown.mouseout"/>
                  </use>
                  <path fill="none" stroke="white" stroke-width="1.5" d="M0,-3.0v7 M-2.5,-0.5L0,-3.0L2.5,-0.5"/>
                </g>
                <g id="arrowLeft" xlink:href="#dirArrow" transform="rotate(270) translate(-36 17)" onmousedown="handlePan(-1,0)">
                  <use xlink:href="#rim" fill="#404040">
                        <set attributeName="fill" to="#808080" begin="arrowLeft.mouseover" end="arrowLeft.mouseout"/>
                  </use>
                  <path fill="none" stroke="white" stroke-width="1.5" d="M0,-3.0v7 M-2.5,-0.5L0,-3.0L2.5,-0.5"/>
                </g>
        </g>
        <svg viewBox="0 0 15 15" width="100%" height="30px" preserveAspectRatio="xMaxYMin meet">
         <g id="arrow_out" transform="scale(0.3 0.3)">
          <a xlink:href="irc__formatter_8cpp__incl_org.svg" target="_base">
           <rect id="button" ry="5" rx="5" y="6" x="6" height="38" width="38"
                fill="#f2f5e9" fill-opacity="0.5" stroke="#606060" stroke-width="1.0"/>
           <path id="arrow"
             d="M 11.500037,31.436501 C 11.940474,20.09759 22.043105,11.32322 32.158766,21.979434 L 37.068811,17.246167 C 37.068811,17.246167 37.088388,32 37.088388,32 L 22.160133,31.978069 C 22.160133,31.978069 26.997745,27.140456 26.997745,27.140456 C 18.528582,18.264221 13.291696,25.230495 11.500037,31.436501 z"
             style="fill:#404040;"/>
          </a>
         </g>
        </svg>
</svg>
