<?xml version="1.0" encoding="UTF-8" standalone="no"?>
<!DOCTYPE svg PUBLIC "-//W3C//DTD SVG 1.1//EN"
 "http://www.w3.org/Graphics/SVG/1.1/DTD/svg11.dtd">
<!-- Generated by graphviz version 2.38.0 (20140413.2041)
 -->
<!-- Title: src/network/irc_buffer.cpp Pages: 1 -->
<svg width="1252pt" height="498pt"
 viewBox="0.00 0.00 1252.00 498.00" xmlns="http://www.w3.org/2000/svg" xmlns:xlink="http://www.w3.org/1999/xlink">
<g id="graph0" class="graph" transform="scale(1 1) rotate(0) translate(4 494)">
<title>src/network/irc_buffer.cpp</title>
<!-- Node1 -->
<g id="node1" class="node"><title>Node1</title>
<polygon fill="#bfbfbf" stroke="black" points="491,-470.5 491,-489.5 621,-489.5 621,-470.5 491,-470.5"/>
<text text-anchor="middle" x="556" y="-477.5" font-family="Helvetica,sans-Serif" font-size="10.00">src/network/irc_buffer.cpp</text>
</g>
<!-- Node2 -->
<g id="node2" class="node"><title>Node2</title>
<g id="a_node2"><a xlink:href="irc__buffer_8hpp.html" target="_top" xlink:title="irc_buffer.hpp">
<polygon fill="none" stroke="black" points="333,-358.5 333,-377.5 409,-377.5 409,-358.5 333,-358.5"/>
<text text-anchor="middle" x="371" y="-365.5" font-family="Helvetica,sans-Serif" font-size="10.00">irc_buffer.hpp</text>
</a>
</g>
</g>
<!-- Node1&#45;&gt;Node2 -->
<g id="edge1" class="edge"><title>Node1&#45;&gt;Node2</title>
<path fill="none" stroke="midnightblue" d="M541.483,-470.368C509.602,-451.412 433.228,-406.001 394.449,-382.942"/>
<polygon fill="midnightblue" stroke="midnightblue" points="395.833,-379.694 385.449,-377.591 392.256,-385.711 395.833,-379.694"/>
</g>
<!-- Node37 -->
<g id="node37" class="node"><title>Node37</title>
<g id="a_node37"><a xlink:href="irc__connection_8hpp.html" target="_top" xlink:title="irc_connection.hpp">
<polygon fill="none" stroke="black" points="594,-414.5 594,-433.5 692,-433.5 692,-414.5 594,-414.5"/>
<text text-anchor="middle" x="643" y="-421.5" font-family="Helvetica,sans-Serif" font-size="10.00">irc_connection.hpp</text>
</a>
</g>
</g>
<!-- Node1&#45;&gt;Node37 -->
<g id="edge62" class="edge"><title>Node1&#45;&gt;Node37</title>
<path fill="none" stroke="midnightblue" d="M569.978,-470.324C583.55,-461.9 604.38,-448.971 620.325,-439.074"/>
<polygon fill="midnightblue" stroke="midnightblue" points="622.406,-441.902 629.057,-433.655 618.714,-435.954 622.406,-441.902"/>
</g>
<!-- Node3 -->
<g id="node3" class="node"><title>Node3</title>
<polygon fill="none" stroke="#bfbfbf" points="0,-129 0,-148 44,-148 44,-129 0,-129"/>
<text text-anchor="middle" x="22" y="-136" font-family="Helvetica,sans-Serif" font-size="10.00">mutex</text>
</g>
<!-- Node2&#45;&gt;Node3 -->
<g id="edge2" class="edge"><title>Node2&#45;&gt;Node3</title>
<path fill="none" stroke="midnightblue" d="M332.791,-365.203C266.476,-361.366 133.728,-350.293 98,-322 45.3303,-280.291 28.772,-195.662 23.8953,-158.137"/>
<polygon fill="midnightblue" stroke="midnightblue" points="27.3604,-157.633 22.7299,-148.103 20.4071,-158.441 27.3604,-157.633"/>
</g>
<!-- Node4 -->
<g id="node4" class="node"><title>Node4</title>
<polygon fill="none" stroke="#bfbfbf" points="243,-302.5 243,-321.5 287,-321.5 287,-302.5 243,-302.5"/>
<text text-anchor="middle" x="265" y="-309.5" font-family="Helvetica,sans-Serif" font-size="10.00">thread</text>
</g>
<!-- Node2&#45;&gt;Node4 -->
<g id="edge3" class="edge"><title>Node2&#45;&gt;Node4</title>
<path fill="none" stroke="midnightblue" d="M353.969,-358.324C336.97,-349.664 310.624,-336.242 291.007,-326.249"/>
<polygon fill="midnightblue" stroke="midnightblue" points="292.488,-323.075 281.988,-321.655 289.31,-329.312 292.488,-323.075"/>
</g>
<!-- Node5 -->
<g id="node5" class="node"><title>Node5</title>
<polygon fill="none" stroke="#bfbfbf" points="107,-302.5 107,-321.5 187,-321.5 187,-302.5 107,-302.5"/>
<text text-anchor="middle" x="147" y="-309.5" font-family="Helvetica,sans-Serif" font-size="10.00">boost/asio.hpp</text>
</g>
<!-- Node2&#45;&gt;Node5 -->
<g id="edge4" class="edge"><title>Node2&#45;&gt;Node5</title>
<path fill="none" stroke="midnightblue" d="M335.507,-358.444C296.676,-349.083 234.344,-334.056 192.082,-323.868"/>
<polygon fill="midnightblue" stroke="midnightblue" points="192.869,-320.458 182.327,-321.516 191.229,-327.263 192.869,-320.458"/>
</g>
<!-- Node6 -->
<g id="node6" class="node"><title>Node6</title>
<g id="a_node6"><a xlink:href="connection_8hpp.html" target="_top" xlink:title="connection.hpp">
<polygon fill="none" stroke="black" points="601.5,-302.5 601.5,-321.5 684.5,-321.5 684.5,-302.5 601.5,-302.5"/>
<text text-anchor="middle" x="643" y="-309.5" font-family="Helvetica,sans-Serif" font-size="10.00">connection.hpp</text>
</a>
</g>
</g>
<!-- Node2&#45;&gt;Node6 -->
<g id="edge5" class="edge"><title>Node2&#45;&gt;Node6</title>
<path fill="none" stroke="midnightblue" d="M409.107,-359.435C456.632,-350 538.084,-333.829 591.23,-323.278"/>
<polygon fill="midnightblue" stroke="midnightblue" points="592.01,-326.691 601.137,-321.311 590.647,-319.825 592.01,-326.691"/>
</g>
<!-- Node21 -->
<g id="node21" class="node"><title>Node21</title>
<g id="a_node21"><a xlink:href="logger_8hpp.html" target="_top" xlink:title="string/logger.hpp">
<polygon fill="none" stroke="black" points="254.5,-190.5 254.5,-209.5 343.5,-209.5 343.5,-190.5 254.5,-190.5"/>
<text text-anchor="middle" x="299" y="-197.5" font-family="Helvetica,sans-Serif" font-size="10.00">string/logger.hpp</text>
</a>
</g>
</g>
<!-- Node2&#45;&gt;Node21 -->
<g id="edge61" class="edge"><title>Node2&#45;&gt;Node21</title>
<path fill="none" stroke="midnightblue" d="M332.907,-366.045C300.721,-362.973 256.391,-352.923 234,-322 214.19,-294.641 218.324,-275.92 234,-246 241.279,-232.108 255.009,-221.652 267.983,-214.333"/>
<polygon fill="midnightblue" stroke="midnightblue" points="269.928,-217.266 277.192,-209.553 266.704,-211.053 269.928,-217.266"/>
</g>
<!-- Node34 -->
<g id="node34" class="node"><title>Node34</title>
<g id="a_node34"><a xlink:href="concurrent__container_8hpp.html" target="_top" xlink:title="concurrent_container.hpp">
<polygon fill="none" stroke="black" points="419,-302.5 419,-321.5 545,-321.5 545,-302.5 419,-302.5"/>
<text text-anchor="middle" x="482" y="-309.5" font-family="Helvetica,sans-Serif" font-size="10.00">concurrent_container.hpp</text>
</a>
</g>
</g>
<!-- Node2&#45;&gt;Node34 -->
<g id="edge55" class="edge"><title>Node2&#45;&gt;Node34</title>
<path fill="none" stroke="midnightblue" d="M388.834,-358.324C406.716,-349.625 434.475,-336.12 455.046,-326.113"/>
<polygon fill="midnightblue" stroke="midnightblue" points="456.749,-329.177 464.21,-321.655 453.687,-322.882 456.749,-329.177"/>
</g>
<!-- Node7 -->
<g id="node7" class="node"><title>Node7</title>
<polygon fill="none" stroke="#bfbfbf" points="494,-246.5 494,-265.5 540,-265.5 540,-246.5 494,-246.5"/>
<text text-anchor="middle" x="517" y="-253.5" font-family="Helvetica,sans-Serif" font-size="10.00">atomic</text>
</g>
<!-- Node6&#45;&gt;Node7 -->
<g id="edge6" class="edge"><title>Node6&#45;&gt;Node7</title>
<path fill="none" stroke="midnightblue" d="M623.035,-302.444C602.391,-293.596 569.937,-279.687 546.368,-269.586"/>
<polygon fill="midnightblue" stroke="midnightblue" points="547.442,-266.239 536.872,-265.516 544.684,-272.673 547.442,-266.239"/>
</g>
<!-- Node8 -->
<g id="node8" class="node"><title>Node8</title>
<polygon fill="none" stroke="#bfbfbf" points="672,-246.5 672,-265.5 718,-265.5 718,-246.5 672,-246.5"/>
<text text-anchor="middle" x="695" y="-253.5" font-family="Helvetica,sans-Serif" font-size="10.00">chrono</text>
</g>
<!-- Node6&#45;&gt;Node8 -->
<g id="edge7" class="edge"><title>Node6&#45;&gt;Node8</title>
<path fill="none" stroke="midnightblue" d="M651.587,-302.083C659.159,-294.22 670.378,-282.569 679.514,-273.081"/>
<polygon fill="midnightblue" stroke="midnightblue" points="682.158,-275.382 686.573,-265.751 677.115,-270.527 682.158,-275.382"/>
</g>
<!-- Node9 -->
<g id="node9" class="node"><title>Node9</title>
<polygon fill="none" stroke="#bfbfbf" points="581,-6 581,-25 627,-25 627,-6 581,-6"/>
<text text-anchor="middle" x="604" y="-13" font-family="Helvetica,sans-Serif" font-size="10.00">cstdint</text>
</g>
<!-- Node6&#45;&gt;Node9 -->
<g id="edge8" class="edge"><title>Node6&#45;&gt;Node9</title>
<path fill="none" stroke="midnightblue" d="M644.192,-302.368C647.409,-281.476 657.789,-227.17 683,-190 725.351,-127.559 846.218,-126.635 800,-67 780.206,-41.459 687.689,-26.5517 637.159,-20.1817"/>
<polygon fill="midnightblue" stroke="midnightblue" points="637.405,-16.6859 627.055,-18.9513 636.558,-23.6345 637.405,-16.6859"/>
</g>
<!-- Node10 -->
<g id="node10" class="node"><title>Node10</title>
<polygon fill="none" stroke="#bfbfbf" points="662,-67.5 662,-86.5 714,-86.5 714,-67.5 662,-67.5"/>
<text text-anchor="middle" x="688" y="-74.5" font-family="Helvetica,sans-Serif" font-size="10.00">sstream</text>
</g>
<!-- Node6&#45;&gt;Node10 -->
<g id="edge9" class="edge"><title>Node6&#45;&gt;Node10</title>
<path fill="none" stroke="midnightblue" d="M684.755,-308.35C741.015,-303.809 836.6,-292.343 858,-266 913.703,-197.432 777.49,-120.789 716.111,-90.9051"/>
<polygon fill="midnightblue" stroke="midnightblue" points="717.475,-87.6777 706.944,-86.5189 714.454,-93.9922 717.475,-87.6777"/>
</g>
<!-- Node11 -->
<g id="node11" class="node"><title>Node11</title>
<g id="a_node11"><a xlink:href="string_8hpp.html" target="_top" xlink:title="string/string.hpp">
<polygon fill="none" stroke="black" points="532,-129 532,-148 618,-148 618,-129 532,-129"/>
<text text-anchor="middle" x="575" y="-136" font-family="Helvetica,sans-Serif" font-size="10.00">string/string.hpp</text>
</a>
</g>
</g>
<!-- Node6&#45;&gt;Node11 -->
<g id="edge10" class="edge"><title>Node6&#45;&gt;Node11</title>
<path fill="none" stroke="midnightblue" d="M639.534,-302.26C628.893,-275.421 596.537,-193.818 582.094,-157.39"/>
<polygon fill="midnightblue" stroke="midnightblue" points="585.317,-156.025 578.378,-148.019 578.81,-158.605 585.317,-156.025"/>
</g>
<!-- Node6&#45;&gt;Node21 -->
<g id="edge24" class="edge"><title>Node6&#45;&gt;Node21</title>
<path fill="none" stroke="midnightblue" d="M633.669,-302.465C617.644,-288.316 583.295,-260.159 549,-246 485.181,-219.652 405.916,-208.7 353.968,-204.168"/>
<polygon fill="midnightblue" stroke="midnightblue" points="354.209,-200.676 343.956,-203.344 353.635,-207.652 354.209,-200.676"/>
</g>
<!-- Node29 -->
<g id="node29" class="node"><title>Node29</title>
<g id="a_node29"><a xlink:href="auth__system_8hpp.html" target="_top" xlink:title="user/auth_system.hpp">
<polygon fill="none" stroke="black" points="736.5,-246.5 736.5,-265.5 849.5,-265.5 849.5,-246.5 736.5,-246.5"/>
<text text-anchor="middle" x="793" y="-253.5" font-family="Helvetica,sans-Serif" font-size="10.00">user/auth_system.hpp</text>
</a>
</g>
</g>
<!-- Node6&#45;&gt;Node29 -->
<g id="edge43" class="edge"><title>Node6&#45;&gt;Node29</title>
<path fill="none" stroke="midnightblue" d="M666.768,-302.444C691.893,-293.399 731.711,-279.064 759.9,-268.916"/>
<polygon fill="midnightblue" stroke="midnightblue" points="761.12,-272.197 769.343,-265.516 758.749,-265.611 761.12,-272.197"/>
</g>
<!-- Node32 -->
<g id="node32" class="node"><title>Node32</title>
<g id="a_node32"><a xlink:href="user__manager_8hpp.html" target="_top" xlink:title="user/user_manager.hpp">
<polygon fill="none" stroke="black" points="906.5,-246.5 906.5,-265.5 1025.5,-265.5 1025.5,-246.5 906.5,-246.5"/>
<text text-anchor="middle" x="966" y="-253.5" font-family="Helvetica,sans-Serif" font-size="10.00">user/user_manager.hpp</text>
</a>
</g>
</g>
<!-- Node6&#45;&gt;Node32 -->
<g id="edge52" class="edge"><title>Node6&#45;&gt;Node32</title>
<path fill="none" stroke="midnightblue" d="M684.565,-304.051C740.525,-294.696 840.496,-277.982 904.989,-267.2"/>
<polygon fill="midnightblue" stroke="midnightblue" points="905.737,-270.624 915.023,-265.522 904.583,-263.719 905.737,-270.624"/>
</g>
<!-- Node11&#45;&gt;Node9 -->
<g id="edge11" class="edge"><title>Node11&#45;&gt;Node9</title>
<path fill="none" stroke="midnightblue" d="M577.086,-128.798C581.767,-109.263 593.199,-61.5646 599.555,-35.0471"/>
<polygon fill="midnightblue" stroke="midnightblue" points="603.006,-35.6635 601.933,-25.1232 596.199,-34.032 603.006,-35.6635"/>
</g>
<!-- Node11&#45;&gt;Node10 -->
<g id="edge16" class="edge"><title>Node11&#45;&gt;Node10</title>
<path fill="none" stroke="midnightblue" d="M591.19,-128.975C609.902,-119.122 640.923,-102.788 662.799,-91.2697"/>
<polygon fill="midnightblue" stroke="midnightblue" points="664.622,-94.2651 671.84,-86.5091 661.361,-88.0713 664.622,-94.2651"/>
</g>
<!-- Node12 -->
<g id="node12" class="node"><title>Node12</title>
<polygon fill="none" stroke="#bfbfbf" points="226.5,-67.5 226.5,-86.5 285.5,-86.5 285.5,-67.5 226.5,-67.5"/>
<text text-anchor="middle" x="256" y="-74.5" font-family="Helvetica,sans-Serif" font-size="10.00">functional</text>
</g>
<!-- Node11&#45;&gt;Node12 -->
<g id="edge12" class="edge"><title>Node11&#45;&gt;Node12</title>
<path fill="none" stroke="midnightblue" d="M531.705,-130.36C478.571,-121.449 385.498,-105.363 295.844,-87.0917"/>
<polygon fill="midnightblue" stroke="midnightblue" points="296.277,-83.6078 285.778,-85.0279 294.871,-90.4652 296.277,-83.6078"/>
</g>
<!-- Node13 -->
<g id="node13" class="node"><title>Node13</title>
<polygon fill="none" stroke="#bfbfbf" points="516,-67.5 516,-86.5 568,-86.5 568,-67.5 516,-67.5"/>
<text text-anchor="middle" x="542" y="-74.5" font-family="Helvetica,sans-Serif" font-size="10.00">memory</text>
</g>
<!-- Node11&#45;&gt;Node13 -->
<g id="edge13" class="edge"><title>Node11&#45;&gt;Node13</title>
<path fill="none" stroke="midnightblue" d="M570.272,-128.975C565.42,-120.227 557.734,-106.369 551.6,-95.3093"/>
<polygon fill="midnightblue" stroke="midnightblue" points="554.63,-93.5566 546.719,-86.5091 548.509,-96.9517 554.63,-93.5566"/>
</g>
<!-- Node14 -->
<g id="node14" class="node"><title>Node14</title>
<polygon fill="none" stroke="#bfbfbf" points="732.5,-67.5 732.5,-86.5 791.5,-86.5 791.5,-67.5 732.5,-67.5"/>
<text text-anchor="middle" x="762" y="-74.5" font-family="Helvetica,sans-Serif" font-size="10.00">stdexcept</text>
</g>
<!-- Node11&#45;&gt;Node14 -->
<g id="edge14" class="edge"><title>Node11&#45;&gt;Node14</title>
<path fill="none" stroke="midnightblue" d="M601.793,-128.975C634.286,-118.636 689.208,-101.161 725.538,-89.6017"/>
<polygon fill="midnightblue" stroke="midnightblue" points="726.789,-92.8764 735.257,-86.5091 724.667,-86.2059 726.789,-92.8764"/>
</g>
<!-- Node15 -->
<g id="node15" class="node"><title>Node15</title>
<polygon fill="none" stroke="#bfbfbf" points="367.5,-6 367.5,-25 408.5,-25 408.5,-6 367.5,-6"/>
<text text-anchor="middle" x="388" y="-13" font-family="Helvetica,sans-Serif" font-size="10.00">string</text>
</g>
<!-- Node11&#45;&gt;Node15 -->
<g id="edge15" class="edge"><title>Node11&#45;&gt;Node15</title>
<path fill="none" stroke="midnightblue" d="M542.006,-128.945C492.652,-116.01 404.833,-92.4086 400,-87 387.485,-72.9941 385.571,-50.922 386.099,-35.2081"/>
<polygon fill="midnightblue" stroke="midnightblue" points="389.6,-35.3137 386.798,-25.096 382.617,-34.8306 389.6,-35.3137"/>
</g>
<!-- Node16 -->
<g id="node16" class="node"><title>Node16</title>
<polygon fill="none" stroke="#bfbfbf" points="946.5,-6 946.5,-25 1029.5,-25 1029.5,-6 946.5,-6"/>
<text text-anchor="middle" x="988" y="-13" font-family="Helvetica,sans-Serif" font-size="10.00">unordered_map</text>
</g>
<!-- Node11&#45;&gt;Node16 -->
<g id="edge17" class="edge"><title>Node11&#45;&gt;Node16</title>
<path fill="none" stroke="midnightblue" d="M581.596,-128.744C593.783,-113.297 621.483,-81.4738 653,-67 768.623,-13.9014 812.343,-56.4699 937,-31 941.536,-30.0732 946.259,-28.9508 950.919,-27.7455"/>
<polygon fill="midnightblue" stroke="midnightblue" points="952.198,-31.0247 960.925,-25.0183 950.357,-24.2711 952.198,-31.0247"/>
</g>
<!-- Node17 -->
<g id="node17" class="node"><title>Node17</title>
<polygon fill="none" stroke="#bfbfbf" points="304,-67.5 304,-86.5 348,-86.5 348,-67.5 304,-67.5"/>
<text text-anchor="middle" x="326" y="-74.5" font-family="Helvetica,sans-Serif" font-size="10.00">vector</text>
</g>
<!-- Node11&#45;&gt;Node17 -->
<g id="edge18" class="edge"><title>Node11&#45;&gt;Node17</title>
<path fill="none" stroke="midnightblue" d="M541.876,-128.941C534.055,-126.957 525.74,-124.877 518,-123 448.849,-106.228 431.185,-103.63 362,-87 360.732,-86.6951 359.439,-86.3821 358.133,-86.0643"/>
<polygon fill="midnightblue" stroke="midnightblue" points="358.616,-82.5788 348.069,-83.5846 356.941,-89.3755 358.616,-82.5788"/>
</g>
<!-- Node18 -->
<g id="node18" class="node"><title>Node18</title>
<g id="a_node18"><a xlink:href="color_8hpp.html" target="_top" xlink:title="color.hpp">
<polygon fill="none" stroke="black" points="442,-67.5 442,-86.5 498,-86.5 498,-67.5 442,-67.5"/>
<text text-anchor="middle" x="470" y="-74.5" font-family="Helvetica,sans-Serif" font-size="10.00">color.hpp</text>
</a>
</g>
</g>
<!-- Node11&#45;&gt;Node18 -->
<g id="edge19" class="edge"><title>Node11&#45;&gt;Node18</title>
<path fill="none" stroke="midnightblue" d="M559.956,-128.975C542.725,-119.211 514.26,-103.081 493.966,-91.5808"/>
<polygon fill="midnightblue" stroke="midnightblue" points="495.442,-88.3942 485.016,-86.5091 491.991,-94.4843 495.442,-88.3942"/>
</g>
<!-- Node18&#45;&gt;Node9 -->
<g id="edge21" class="edge"><title>Node18&#45;&gt;Node9</title>
<path fill="none" stroke="midnightblue" d="M489.199,-67.4751C511.787,-57.4455 549.499,-40.7002 575.501,-29.1546"/>
<polygon fill="midnightblue" stroke="midnightblue" points="577.118,-32.2662 584.837,-25.0091 574.277,-25.8685 577.118,-32.2662"/>
</g>
<!-- Node18&#45;&gt;Node15 -->
<g id="edge23" class="edge"><title>Node18&#45;&gt;Node15</title>
<path fill="none" stroke="midnightblue" d="M458.251,-67.4751C445.221,-58.0199 423.964,-42.5961 408.241,-31.1871"/>
<polygon fill="midnightblue" stroke="midnightblue" points="409.876,-28.0492 399.727,-25.0091 405.765,-33.7149 409.876,-28.0492"/>
</g>
<!-- Node19 -->
<g id="node19" class="node"><title>Node19</title>
<polygon fill="none" stroke="#bfbfbf" points="502,-6 502,-25 548,-25 548,-6 502,-6"/>
<text text-anchor="middle" x="525" y="-13" font-family="Helvetica,sans-Serif" font-size="10.00">cctype</text>
</g>
<!-- Node18&#45;&gt;Node19 -->
<g id="edge20" class="edge"><title>Node18&#45;&gt;Node19</title>
<path fill="none" stroke="midnightblue" d="M477.88,-67.4751C486.294,-58.3733 499.819,-43.741 510.226,-32.483"/>
<polygon fill="midnightblue" stroke="midnightblue" points="512.917,-34.7282 517.134,-25.0091 507.776,-29.9766 512.917,-34.7282"/>
</g>
<!-- Node20 -->
<g id="node20" class="node"><title>Node20</title>
<polygon fill="none" stroke="#bfbfbf" points="438.5,-6 438.5,-25 483.5,-25 483.5,-6 438.5,-6"/>
<text text-anchor="middle" x="461" y="-13" font-family="Helvetica,sans-Serif" font-size="10.00">cstdlib</text>
</g>
<!-- Node18&#45;&gt;Node20 -->
<g id="edge22" class="edge"><title>Node18&#45;&gt;Node20</title>
<path fill="none" stroke="midnightblue" d="M468.711,-67.4751C467.441,-59.0803 465.459,-45.9806 463.823,-35.1631"/>
<polygon fill="midnightblue" stroke="midnightblue" points="467.243,-34.3731 462.287,-25.0091 460.322,-35.4201 467.243,-34.3731"/>
</g>
<!-- Node21&#45;&gt;Node3 -->
<g id="edge27" class="edge"><title>Node21&#45;&gt;Node3</title>
<path fill="none" stroke="midnightblue" d="M254.406,-193.375C205.56,-186.593 125.217,-173.602 58,-154 55.5662,-153.29 53.0702,-152.476 50.5828,-151.603"/>
<polygon fill="midnightblue" stroke="midnightblue" points="51.7735,-148.312 41.1821,-148.044 49.2951,-154.858 51.7735,-148.312"/>
</g>
<!-- Node21&#45;&gt;Node11 -->
<g id="edge37" class="edge"><title>Node21&#45;&gt;Node11</title>
<path fill="none" stroke="midnightblue" d="M338.544,-190.475C387.835,-179.849 472.093,-161.685 525.587,-150.152"/>
<polygon fill="midnightblue" stroke="midnightblue" points="526.491,-153.538 535.529,-148.009 525.016,-146.695 526.491,-153.538"/>
</g>
<!-- Node21&#45;&gt;Node14 -->
<g id="edge28" class="edge"><title>Node21&#45;&gt;Node14</title>
<path fill="none" stroke="midnightblue" d="M343.705,-198.14C407.978,-195.737 529.486,-186.808 627,-154 670.819,-139.258 716.657,-110.049 742.048,-92.4468"/>
<polygon fill="midnightblue" stroke="midnightblue" points="744.278,-95.1571 750.435,-86.5354 740.245,-89.4354 744.278,-95.1571"/>
</g>
<!-- Node21&#45;&gt;Node15 -->
<g id="edge29" class="edge"><title>Node21&#45;&gt;Node15</title>
<path fill="none" stroke="midnightblue" d="M267.191,-190.385C249.054,-183.661 227.836,-172.306 217,-154 197.305,-120.725 193.852,-97.9723 217,-67 233.813,-44.5041 312.702,-28.5273 357.221,-21.13"/>
<polygon fill="midnightblue" stroke="midnightblue" points="357.901,-24.5657 367.216,-19.5174 356.786,-17.655 357.901,-24.5657"/>
</g>
<!-- Node21&#45;&gt;Node16 -->
<g id="edge30" class="edge"><title>Node21&#45;&gt;Node16</title>
<path fill="none" stroke="midnightblue" d="M343.718,-198.1C476.665,-195.093 863.229,-183.852 911,-154 954.395,-126.883 975.482,-65.9962 983.694,-35.1578"/>
<polygon fill="midnightblue" stroke="midnightblue" points="987.135,-35.8233 986.155,-25.2739 980.342,-34.1322 987.135,-35.8233"/>
</g>
<!-- Node22 -->
<g id="node22" class="node"><title>Node22</title>
<polygon fill="none" stroke="#bfbfbf" points="226,-129 226,-148 276,-148 276,-129 226,-129"/>
<text text-anchor="middle" x="251" y="-136" font-family="Helvetica,sans-Serif" font-size="10.00">iomanip</text>
</g>
<!-- Node21&#45;&gt;Node22 -->
<g id="edge25" class="edge"><title>Node21&#45;&gt;Node22</title>
<path fill="none" stroke="midnightblue" d="M292.123,-190.475C284.851,-181.462 273.205,-167.025 264.159,-155.812"/>
<polygon fill="midnightblue" stroke="midnightblue" points="266.867,-153.595 257.864,-148.009 261.419,-157.99 266.867,-153.595"/>
</g>
<!-- Node23 -->
<g id="node23" class="node"><title>Node23</title>
<polygon fill="none" stroke="#bfbfbf" points="10,-67.5 10,-86.5 64,-86.5 64,-67.5 10,-67.5"/>
<text text-anchor="middle" x="37" y="-74.5" font-family="Helvetica,sans-Serif" font-size="10.00">iostream</text>
</g>
<!-- Node21&#45;&gt;Node23 -->
<g id="edge26" class="edge"><title>Node21&#45;&gt;Node23</title>
<path fill="none" stroke="midnightblue" d="M254.156,-193.164C201.317,-185.628 117.37,-171.392 91,-154 69.3136,-139.697 53.5941,-113.455 44.8839,-95.867"/>
<polygon fill="midnightblue" stroke="midnightblue" points="47.9855,-94.2372 40.5733,-86.6668 41.6467,-97.2072 47.9855,-94.2372"/>
</g>
<!-- Node24 -->
<g id="node24" class="node"><title>Node24</title>
<polygon fill="none" stroke="#bfbfbf" points="294.5,-123.5 294.5,-153.5 399.5,-153.5 399.5,-123.5 294.5,-123.5"/>
<text text-anchor="start" x="302.5" y="-141.5" font-family="Helvetica,sans-Serif" font-size="10.00">boost/chrono/io/time</text>
<text text-anchor="middle" x="347" y="-130.5" font-family="Helvetica,sans-Serif" font-size="10.00">_point_io.hpp</text>
</g>
<!-- Node21&#45;&gt;Node24 -->
<g id="edge31" class="edge"><title>Node21&#45;&gt;Node24</title>
<path fill="none" stroke="midnightblue" d="M305.877,-190.475C311.953,-182.944 321.083,-171.626 329.199,-161.566"/>
<polygon fill="midnightblue" stroke="midnightblue" points="332.133,-163.504 335.687,-153.523 326.684,-159.108 332.133,-163.504"/>
</g>
<!-- Node25 -->
<g id="node25" class="node"><title>Node25</title>
<g id="a_node25"><a xlink:href="multibuf_8hpp.html" target="_top" xlink:title="multibuf.hpp">
<polygon fill="none" stroke="black" points="100,-129 100,-148 170,-148 170,-129 100,-129"/>
<text text-anchor="middle" x="135" y="-136" font-family="Helvetica,sans-Serif" font-size="10.00">multibuf.hpp</text>
</a>
</g>
</g>
<!-- Node21&#45;&gt;Node25 -->
<g id="edge32" class="edge"><title>Node21&#45;&gt;Node25</title>
<path fill="none" stroke="midnightblue" d="M275.503,-190.475C247.371,-180.269 200.071,-163.108 168.211,-151.549"/>
<polygon fill="midnightblue" stroke="midnightblue" points="169.048,-148.13 158.454,-148.009 166.66,-154.71 169.048,-148.13"/>
</g>
<!-- Node27 -->
<g id="node27" class="node"><title>Node27</title>
<g id="a_node27"><a xlink:href="settings_8hpp.html" target="_top" xlink:title="settings.hpp">
<polygon fill="none" stroke="black" points="848,-67.5 848,-86.5 918,-86.5 918,-67.5 848,-67.5"/>
<text text-anchor="middle" x="883" y="-74.5" font-family="Helvetica,sans-Serif" font-size="10.00">settings.hpp</text>
</a>
</g>
</g>
<!-- Node21&#45;&gt;Node27 -->
<g id="edge38" class="edge"><title>Node21&#45;&gt;Node27</title>
<path fill="none" stroke="midnightblue" d="M343.743,-196.949C414.646,-192.96 556.799,-181.949 674,-154 740.647,-138.106 815.326,-107.727 854.875,-90.5829"/>
<polygon fill="midnightblue" stroke="midnightblue" points="856.388,-93.7412 864.146,-86.5262 853.582,-87.3282 856.388,-93.7412"/>
</g>
<!-- Node25&#45;&gt;Node15 -->
<g id="edge36" class="edge"><title>Node25&#45;&gt;Node15</title>
<path fill="none" stroke="midnightblue" d="M127.143,-128.711C115.245,-114.316 95.5953,-85.467 111,-67 142.07,-29.7531 291.43,-19.9066 357.01,-17.3618"/>
<polygon fill="midnightblue" stroke="midnightblue" points="357.28,-20.8546 367.149,-17.0013 357.031,-13.859 357.28,-20.8546"/>
</g>
<!-- Node25&#45;&gt;Node17 -->
<g id="edge35" class="edge"><title>Node25&#45;&gt;Node17</title>
<path fill="none" stroke="midnightblue" d="M162.366,-128.975C197.157,-118.137 257.123,-99.4565 293.996,-87.9698"/>
<polygon fill="midnightblue" stroke="midnightblue" points="295.237,-91.2491 303.744,-84.9332 293.155,-84.5658 295.237,-91.2491"/>
</g>
<!-- Node25&#45;&gt;Node23 -->
<g id="edge33" class="edge"><title>Node25&#45;&gt;Node23</title>
<path fill="none" stroke="midnightblue" d="M120.959,-128.975C104.949,-119.255 78.5496,-103.227 59.626,-91.7372"/>
<polygon fill="midnightblue" stroke="midnightblue" points="61.3793,-88.7072 51.015,-86.5091 57.7464,-94.6907 61.3793,-88.7072"/>
</g>
<!-- Node26 -->
<g id="node26" class="node"><title>Node26</title>
<polygon fill="none" stroke="#bfbfbf" points="120,-67.5 120,-86.5 170,-86.5 170,-67.5 120,-67.5"/>
<text text-anchor="middle" x="145" y="-74.5" font-family="Helvetica,sans-Serif" font-size="10.00">fstream</text>
</g>
<!-- Node25&#45;&gt;Node26 -->
<g id="edge34" class="edge"><title>Node25&#45;&gt;Node26</title>
<path fill="none" stroke="midnightblue" d="M136.433,-128.975C137.844,-120.58 140.045,-107.481 141.863,-96.6631"/>
<polygon fill="midnightblue" stroke="midnightblue" points="145.364,-96.9509 143.57,-86.5091 138.461,-95.7906 145.364,-96.9509"/>
</g>
<!-- Node27&#45;&gt;Node9 -->
<g id="edge40" class="edge"><title>Node27&#45;&gt;Node9</title>
<path fill="none" stroke="midnightblue" d="M847.947,-68.5245C793.75,-56.9664 690.339,-34.9127 637.254,-23.5918"/>
<polygon fill="midnightblue" stroke="midnightblue" points="637.848,-20.1398 627.338,-21.4771 636.388,-26.9859 637.848,-20.1398"/>
</g>
<!-- Node27&#45;&gt;Node15 -->
<g id="edge39" class="edge"><title>Node27&#45;&gt;Node15</title>
<path fill="none" stroke="midnightblue" d="M847.874,-72.1025C833.096,-70.4858 815.716,-68.6145 800,-67 635.204,-50.0703 590.731,-66.8828 429,-31 425.503,-30.2242 421.895,-29.2381 418.336,-28.1461"/>
<polygon fill="midnightblue" stroke="midnightblue" points="419.165,-24.7329 408.571,-24.8756 416.942,-31.3704 419.165,-24.7329"/>
</g>
<!-- Node27&#45;&gt;Node16 -->
<g id="edge41" class="edge"><title>Node27&#45;&gt;Node16</title>
<path fill="none" stroke="midnightblue" d="M898.044,-67.4751C915.275,-57.7106 943.74,-41.5807 964.034,-30.0808"/>
<polygon fill="midnightblue" stroke="midnightblue" points="966.009,-32.9843 972.984,-25.0091 962.558,-26.8942 966.009,-32.9843"/>
</g>
<!-- Node28 -->
<g id="node28" class="node"><title>Node28</title>
<polygon fill="none" stroke="#bfbfbf" points="827.5,-0.5 827.5,-30.5 928.5,-30.5 928.5,-0.5 827.5,-0.5"/>
<text text-anchor="start" x="835.5" y="-18.5" font-family="Helvetica,sans-Serif" font-size="10.00">boost/property_tree</text>
<text text-anchor="middle" x="878" y="-7.5" font-family="Helvetica,sans-Serif" font-size="10.00">/ptree.hpp</text>
</g>
<!-- Node27&#45;&gt;Node28 -->
<g id="edge42" class="edge"><title>Node27&#45;&gt;Node28</title>
<path fill="none" stroke="midnightblue" d="M882.284,-67.4751C881.695,-60.471 880.831,-50.1919 880.033,-40.6956"/>
<polygon fill="midnightblue" stroke="midnightblue" points="883.504,-40.1947 879.178,-30.523 876.528,-40.781 883.504,-40.1947"/>
</g>
<!-- Node29&#45;&gt;Node16 -->
<g id="edge44" class="edge"><title>Node29&#45;&gt;Node16</title>
<path fill="none" stroke="midnightblue" d="M807.183,-246.462C840.036,-226.517 920.207,-176.832 942,-154 966.104,-128.746 972.351,-120.247 983,-87 988.375,-70.2185 989.293,-50.0792 989.063,-35.6304"/>
<polygon fill="midnightblue" stroke="midnightblue" points="992.554,-35.303 988.696,-25.4355 985.558,-35.5551 992.554,-35.303"/>
</g>
<!-- Node30 -->
<g id="node30" class="node"><title>Node30</title>
<g id="a_node30"><a xlink:href="user__group_8hpp.html" target="_top" xlink:title="user_group.hpp">
<polygon fill="none" stroke="black" points="692.5,-190.5 692.5,-209.5 775.5,-209.5 775.5,-190.5 692.5,-190.5"/>
<text text-anchor="middle" x="734" y="-197.5" font-family="Helvetica,sans-Serif" font-size="10.00">user_group.hpp</text>
</a>
</g>
</g>
<!-- Node29&#45;&gt;Node30 -->
<g id="edge45" class="edge"><title>Node29&#45;&gt;Node30</title>
<path fill="none" stroke="midnightblue" d="M783.521,-246.324C774.799,-238.341 761.657,-226.313 751.102,-216.653"/>
<polygon fill="midnightblue" stroke="midnightblue" points="753.392,-214.004 743.652,-209.834 748.666,-219.167 753.392,-214.004"/>
</g>
<!-- Node30&#45;&gt;Node17 -->
<g id="edge46" class="edge"><title>Node30&#45;&gt;Node17</title>
<path fill="none" stroke="midnightblue" d="M692.387,-195.25C648.661,-190.154 578.641,-178.673 523,-154 501.463,-144.45 501.168,-133.342 480,-123 440.089,-103.501 390.142,-90.8326 358.15,-84.0518"/>
<polygon fill="midnightblue" stroke="midnightblue" points="358.529,-80.5567 348.03,-81.9766 357.123,-87.414 358.529,-80.5567"/>
</g>
<!-- Node31 -->
<g id="node31" class="node"><title>Node31</title>
<g id="a_node31"><a xlink:href="user_8hpp.html" target="_top" xlink:title="user.hpp">
<polygon fill="none" stroke="black" points="848,-129 848,-148 902,-148 902,-129 848,-129"/>
<text text-anchor="middle" x="875" y="-136" font-family="Helvetica,sans-Serif" font-size="10.00">user.hpp</text>
</a>
</g>
</g>
<!-- Node30&#45;&gt;Node31 -->
<g id="edge47" class="edge"><title>Node30&#45;&gt;Node31</title>
<path fill="none" stroke="midnightblue" d="M754.202,-190.475C778.074,-180.401 818.002,-163.553 845.373,-152.002"/>
<polygon fill="midnightblue" stroke="midnightblue" points="846.983,-155.122 854.836,-148.009 844.262,-148.672 846.983,-155.122"/>
</g>
<!-- Node31&#45;&gt;Node15 -->
<g id="edge48" class="edge"><title>Node31&#45;&gt;Node15</title>
<path fill="none" stroke="midnightblue" d="M847.963,-135.763C757.378,-129.759 468.294,-109.04 433,-87 413.804,-75.0125 401.302,-51.4895 394.458,-34.9205"/>
<polygon fill="midnightblue" stroke="midnightblue" points="397.596,-33.3259 390.765,-25.2277 391.055,-35.8186 397.596,-33.3259"/>
</g>
<!-- Node31&#45;&gt;Node16 -->
<g id="edge50" class="edge"><title>Node31&#45;&gt;Node16</title>
<path fill="none" stroke="midnightblue" d="M884.445,-128.796C895.052,-118.914 912.659,-102.19 927,-87 943.746,-69.2621 961.918,-47.9737 974.032,-33.4637"/>
<polygon fill="midnightblue" stroke="midnightblue" points="977.033,-35.3282 980.725,-25.3975 971.646,-30.8583 977.033,-35.3282"/>
</g>
<!-- Node31&#45;&gt;Node17 -->
<g id="edge49" class="edge"><title>Node31&#45;&gt;Node17</title>
<path fill="none" stroke="midnightblue" d="M847.939,-134.768C775.363,-127.408 570.355,-106.414 400,-87 386.338,-85.443 371.269,-83.6281 358.315,-82.0376"/>
<polygon fill="midnightblue" stroke="midnightblue" points="358.362,-78.5169 348.008,-80.765 357.504,-85.4641 358.362,-78.5169"/>
</g>
<!-- Node31&#45;&gt;Node27 -->
<g id="edge51" class="edge"><title>Node31&#45;&gt;Node27</title>
<path fill="none" stroke="midnightblue" d="M876.146,-128.975C877.275,-120.58 879.036,-107.481 880.491,-96.6631"/>
<polygon fill="midnightblue" stroke="midnightblue" points="883.992,-96.8863 881.856,-86.5091 877.055,-95.9535 883.992,-96.8863"/>
</g>
<!-- Node32&#45;&gt;Node31 -->
<g id="edge53" class="edge"><title>Node32&#45;&gt;Node31</title>
<path fill="none" stroke="midnightblue" d="M946.717,-246.366C931.759,-238.761 911.527,-226.351 899,-210 887.345,-194.788 881.141,-173.558 877.983,-158.378"/>
<polygon fill="midnightblue" stroke="midnightblue" points="881.355,-157.361 876.121,-148.149 874.468,-158.614 881.355,-157.361"/>
</g>
<!-- Node33 -->
<g id="node33" class="node"><title>Node33</title>
<polygon fill="none" stroke="#bfbfbf" points="908.5,-190.5 908.5,-209.5 937.5,-209.5 937.5,-190.5 908.5,-190.5"/>
<text text-anchor="middle" x="923" y="-197.5" font-family="Helvetica,sans-Serif" font-size="10.00">list</text>
</g>
<!-- Node32&#45;&gt;Node33 -->
<g id="edge54" class="edge"><title>Node32&#45;&gt;Node33</title>
<path fill="none" stroke="midnightblue" d="M958.899,-246.083C952.763,-238.377 943.73,-227.033 936.261,-217.653"/>
<polygon fill="midnightblue" stroke="midnightblue" points="938.936,-215.394 929.968,-209.751 933.46,-219.754 938.936,-215.394"/>
</g>
<!-- Node34&#45;&gt;Node7 -->
<g id="edge56" class="edge"><title>Node34&#45;&gt;Node7</title>
<path fill="none" stroke="midnightblue" d="M487.78,-302.083C492.672,-294.534 499.827,-283.495 505.833,-274.23"/>
<polygon fill="midnightblue" stroke="midnightblue" points="508.826,-276.046 511.328,-265.751 502.952,-272.239 508.826,-276.046"/>
</g>
<!-- Node34&#45;&gt;Node12 -->
<g id="edge58" class="edge"><title>Node34&#45;&gt;Node12</title>
<path fill="none" stroke="midnightblue" d="M481.236,-302.414C478.137,-272.836 463.857,-174.189 408,-123 399.547,-115.254 337.693,-98.5246 295.541,-87.7896"/>
<polygon fill="midnightblue" stroke="midnightblue" points="296.374,-84.39 285.821,-85.331 294.658,-91.1763 296.374,-84.39"/>
</g>
<!-- Node34&#45;&gt;Node17 -->
<g id="edge60" class="edge"><title>Node34&#45;&gt;Node17</title>
<path fill="none" stroke="midnightblue" d="M482.829,-302.282C485.109,-273.103 488.503,-177.633 442,-123 420.987,-98.3136 384.744,-87.106 358.351,-82.0578"/>
<polygon fill="midnightblue" stroke="midnightblue" points="358.867,-78.5952 348.419,-80.3559 357.684,-85.4947 358.867,-78.5952"/>
</g>
<!-- Node35 -->
<g id="node35" class="node"><title>Node35</title>
<polygon fill="none" stroke="#bfbfbf" points="304.5,-246.5 304.5,-265.5 399.5,-265.5 399.5,-246.5 304.5,-246.5"/>
<text text-anchor="middle" x="352" y="-253.5" font-family="Helvetica,sans-Serif" font-size="10.00">condition_variable</text>
</g>
<!-- Node34&#45;&gt;Node35 -->
<g id="edge57" class="edge"><title>Node34&#45;&gt;Node35</title>
<path fill="none" stroke="midnightblue" d="M461.401,-302.444C440.007,-293.557 406.319,-279.563 381.976,-269.451"/>
<polygon fill="midnightblue" stroke="midnightblue" points="383.08,-266.12 372.503,-265.516 380.395,-272.585 383.08,-266.12"/>
</g>
<!-- Node36 -->
<g id="node36" class="node"><title>Node36</title>
<polygon fill="none" stroke="#bfbfbf" points="243.5,-246.5 243.5,-265.5 286.5,-265.5 286.5,-246.5 243.5,-246.5"/>
<text text-anchor="middle" x="265" y="-253.5" font-family="Helvetica,sans-Serif" font-size="10.00">queue</text>
</g>
<!-- Node34&#45;&gt;Node36 -->
<g id="edge59" class="edge"><title>Node34&#45;&gt;Node36</title>
<path fill="none" stroke="midnightblue" d="M443.879,-302.477C408.052,-294.322 352.724,-281.36 296.375,-266.272"/>
<polygon fill="midnightblue" stroke="midnightblue" points="297.156,-262.857 286.589,-263.632 295.333,-269.616 297.156,-262.857"/>
</g>
<!-- Node37&#45;&gt;Node2 -->
<g id="edge69" class="edge"><title>Node37&#45;&gt;Node2</title>
<path fill="none" stroke="midnightblue" d="M599.901,-414.444C550.608,-404.657 470.126,-388.679 418.906,-378.511"/>
<polygon fill="midnightblue" stroke="midnightblue" points="419.56,-375.072 409.07,-376.558 418.197,-381.938 419.56,-375.072"/>
</g>
<!-- Node37&#45;&gt;Node6 -->
<g id="edge68" class="edge"><title>Node37&#45;&gt;Node6</title>
<path fill="none" stroke="midnightblue" d="M643,-414.368C643,-396.617 643,-355.666 643,-331.597"/>
<polygon fill="midnightblue" stroke="midnightblue" points="646.5,-331.591 643,-321.591 639.5,-331.591 646.5,-331.591"/>
</g>
<!-- Node37&#45;&gt;Node14 -->
<g id="edge66" class="edge"><title>Node37&#45;&gt;Node14</title>
<path fill="none" stroke="midnightblue" d="M692.01,-415.544C821.909,-395.555 1166.23,-341.001 1182,-322 1297.25,-183.149 926.381,-105.942 801.54,-84.3396"/>
<polygon fill="midnightblue" stroke="midnightblue" points="802.056,-80.8772 791.611,-82.6494 800.881,-87.778 802.056,-80.8772"/>
</g>
<!-- Node37&#45;&gt;Node16 -->
<g id="edge67" class="edge"><title>Node37&#45;&gt;Node16</title>
<path fill="none" stroke="midnightblue" d="M692.345,-421.368C800.684,-417.324 1056.2,-405.141 1138,-378 1190.45,-360.597 1244,-368.263 1244,-313 1244,-313 1244,-313 1244,-137.5 1244,-48.0591 1114.69,-24.6331 1039.88,-18.5645"/>
<polygon fill="midnightblue" stroke="midnightblue" points="1039.93,-15.0591 1029.7,-17.8184 1039.42,-22.0404 1039.93,-15.0591"/>
</g>
<!-- Node37&#45;&gt;Node33 -->
<g id="edge63" class="edge"><title>Node37&#45;&gt;Node33</title>
<path fill="none" stroke="midnightblue" d="M692.031,-421.925C806.208,-418.915 1082.28,-408.524 1110,-378 1150,-333.964 1198.36,-378.875 1034,-246 1030.43,-243.11 978.811,-222.735 947.241,-210.414"/>
<polygon fill="midnightblue" stroke="midnightblue" points="948.37,-207.098 937.781,-206.729 945.829,-213.62 948.37,-207.098"/>
</g>
<!-- Node37&#45;&gt;Node36 -->
<g id="edge64" class="edge"><title>Node37&#45;&gt;Node36</title>
<path fill="none" stroke="midnightblue" d="M593.965,-421.821C471.699,-417.717 158.782,-399.681 98,-322 60.9099,-274.598 175.248,-261.719 233.328,-258.255"/>
<polygon fill="midnightblue" stroke="midnightblue" points="233.67,-261.742 243.469,-257.712 233.296,-254.752 233.67,-261.742"/>
</g>
<!-- Node38 -->
<g id="node38" class="node"><title>Node38</title>
<polygon fill="none" stroke="#bfbfbf" points="1060.5,-358.5 1060.5,-377.5 1101.5,-377.5 1101.5,-358.5 1060.5,-358.5"/>
<text text-anchor="middle" x="1081" y="-365.5" font-family="Helvetica,sans-Serif" font-size="10.00">regex</text>
</g>
<!-- Node37&#45;&gt;Node38 -->
<g id="edge65" class="edge"><title>Node37&#45;&gt;Node38</title>
<path fill="none" stroke="midnightblue" d="M692.02,-419.758C768.212,-414.218 919.456,-401.216 1046,-378 1047.47,-377.731 1048.96,-377.435 1050.47,-377.118"/>
<polygon fill="midnightblue" stroke="midnightblue" points="1051.43,-380.488 1060.38,-374.815 1049.85,-373.669 1051.43,-380.488"/>
</g>
<!-- Node39 -->
<g id="node39" class="node"><title>Node39</title>
<g id="a_node39"><a xlink:href="melanobot_8hpp.html" target="_top" xlink:title="melanobot.hpp">
<polygon fill="none" stroke="black" points="533,-358.5 533,-377.5 613,-377.5 613,-358.5 533,-358.5"/>
<text text-anchor="middle" x="573" y="-365.5" font-family="Helvetica,sans-Serif" font-size="10.00">melanobot.hpp</text>
</a>
</g>
</g>
<!-- Node37&#45;&gt;Node39 -->
<g id="edge70" class="edge"><title>Node37&#45;&gt;Node39</title>
<path fill="none" stroke="midnightblue" d="M631.753,-414.324C621.203,-406.185 605.199,-393.839 592.558,-384.087"/>
<polygon fill="midnightblue" stroke="midnightblue" points="594.507,-381.171 584.451,-377.834 590.231,-386.713 594.507,-381.171"/>
</g>
<!-- Node39&#45;&gt;Node3 -->
<g id="edge73" class="edge"><title>Node39&#45;&gt;Node3</title>
<path fill="none" stroke="midnightblue" d="M532.709,-362.969C485.3,-357.385 404.718,-345.245 339,-322 314.069,-313.182 257.028,-279.001 234,-266 164.155,-226.566 83.1357,-177.186 44.6037,-153.474"/>
<polygon fill="midnightblue" stroke="midnightblue" points="46.1049,-150.288 35.7555,-148.021 42.4319,-156.247 46.1049,-150.288"/>
</g>
<!-- Node39&#45;&gt;Node4 -->
<g id="edge75" class="edge"><title>Node39&#45;&gt;Node4</title>
<path fill="none" stroke="midnightblue" d="M532.716,-361.378C479.453,-353.707 382.783,-338.959 301,-322 299.723,-321.735 298.422,-321.456 297.11,-321.166"/>
<polygon fill="midnightblue" stroke="midnightblue" points="297.554,-317.676 287.02,-318.805 295.959,-324.491 297.554,-317.676"/>
</g>
<!-- Node39&#45;&gt;Node6 -->
<g id="edge79" class="edge"><title>Node39&#45;&gt;Node6</title>
<path fill="none" stroke="midnightblue" d="M584.247,-358.324C594.797,-350.185 610.801,-337.839 623.442,-328.087"/>
<polygon fill="midnightblue" stroke="midnightblue" points="625.769,-330.713 631.549,-321.834 621.493,-325.171 625.769,-330.713"/>
</g>
<!-- Node39&#45;&gt;Node7 -->
<g id="edge71" class="edge"><title>Node39&#45;&gt;Node7</title>
<path fill="none" stroke="midnightblue" d="M571.585,-358.162C569.265,-345.244 563.89,-320.709 554,-302 548.399,-291.404 540.055,-280.975 532.708,-272.83"/>
<polygon fill="midnightblue" stroke="midnightblue" points="535.234,-270.407 525.832,-265.523 530.137,-275.204 535.234,-270.407"/>
</g>
<!-- Node39&#45;&gt;Node16 -->
<g id="edge76" class="edge"><title>Node39&#45;&gt;Node16</title>
<path fill="none" stroke="midnightblue" d="M613.237,-366.363C689.943,-364.365 861.934,-356.108 1002,-322 1078.98,-303.254 1168,-336.232 1168,-257 1168,-257 1168,-257 1168,-137.5 1168,-75.0639 1092.49,-42.7459 1039.28,-27.7241"/>
<polygon fill="midnightblue" stroke="midnightblue" points="1039.86,-24.2564 1029.3,-25.0318 1038.04,-31.0149 1039.86,-24.2564"/>
</g>
<!-- Node39&#45;&gt;Node27 -->
<g id="edge78" class="edge"><title>Node39&#45;&gt;Node27</title>
<path fill="none" stroke="midnightblue" d="M613.115,-367.831C684.633,-368.12 838.007,-363.312 959,-322 1038.41,-294.885 1077.88,-287.101 1111,-210 1145.18,-130.428 1004.07,-96.3529 928.274,-84.0029"/>
<polygon fill="midnightblue" stroke="midnightblue" points="928.458,-80.4891 918.037,-82.402 927.376,-87.4051 928.458,-80.4891"/>
</g>
<!-- Node39&#45;&gt;Node34 -->
<g id="edge77" class="edge"><title>Node39&#45;&gt;Node34</title>
<path fill="none" stroke="midnightblue" d="M558.379,-358.324C544.051,-349.822 521.987,-336.729 505.251,-326.797"/>
<polygon fill="midnightblue" stroke="midnightblue" points="506.97,-323.748 496.584,-321.655 503.398,-329.768 506.97,-323.748"/>
</g>
<!-- Node39&#45;&gt;Node35 -->
<g id="edge72" class="edge"><title>Node39&#45;&gt;Node35</title>
<path fill="none" stroke="midnightblue" d="M532.921,-362.411C498.263,-356.994 447.906,-345.544 410,-322 390.397,-309.824 373.558,-289.073 363.152,-274.293"/>
<polygon fill="midnightblue" stroke="midnightblue" points="365.774,-271.922 357.278,-265.593 359.973,-275.839 365.774,-271.922"/>
</g>
<!-- Node39&#45;&gt;Node36 -->
<g id="edge74" class="edge"><title>Node39&#45;&gt;Node36</title>
<path fill="none" stroke="midnightblue" d="M532.757,-360.737C493.636,-353.895 432.973,-341.269 383,-322 347.517,-308.318 309.505,-285.794 286.491,-271.18"/>
<polygon fill="midnightblue" stroke="midnightblue" points="288.181,-268.105 277.879,-265.634 284.391,-273.991 288.181,-268.105"/>
</g>
<!-- Node40 -->
<g id="node40" class="node"><title>Node40</title>
<g id="a_node40"><a xlink:href="handler__container_8hpp.html" target="_top" xlink:title="handler/handler_container.hpp">
<polygon fill="none" stroke="black" points="956,-190.5 956,-209.5 1102,-209.5 1102,-190.5 956,-190.5"/>
<text text-anchor="middle" x="1029" y="-197.5" font-family="Helvetica,sans-Serif" font-size="10.00">handler/handler_container.hpp</text>
</a>
</g>
</g>
<!-- Node39&#45;&gt;Node40 -->
<g id="edge80" class="edge"><title>Node39&#45;&gt;Node40</title>
<path fill="none" stroke="midnightblue" d="M613.205,-364.444C715.473,-357.022 981.16,-331.67 1034,-266 1044.4,-253.071 1041.25,-233.629 1036.66,-219.376"/>
<polygon fill="midnightblue" stroke="midnightblue" points="1039.82,-217.843 1033.06,-209.682 1033.26,-220.275 1039.82,-217.843"/>
</g>
<!-- Node40&#45;&gt;Node27 -->
<g id="edge81" class="edge"><title>Node40&#45;&gt;Node27</title>
<path fill="none" stroke="midnightblue" d="M1018.5,-190.298C993.877,-169.891 932.169,-118.75 901.252,-93.1267"/>
<polygon fill="midnightblue" stroke="midnightblue" points="903.338,-90.3095 893.405,-86.6232 898.871,-95.6991 903.338,-90.3095"/>
</g>
</g>
</svg>
