<?xml version="1.0" encoding="UTF-8" standalone="no"?>
<!DOCTYPE svg PUBLIC "-//W3C//DTD SVG 1.1//EN"
 "http://www.w3.org/Graphics/SVG/1.1/DTD/svg11.dtd">
<!-- Generated by graphviz version 2.38.0 (20140413.2041)
 -->
<!-- Title: modules/irc/irc_formatter.hpp Pages: 1 -->
<svg width="268pt" height="84pt"
 viewBox="0.00 0.00 268.00 84.00" xmlns="http://www.w3.org/2000/svg" xmlns:xlink="http://www.w3.org/1999/xlink">
<g id="graph0" class="graph" transform="scale(1 1) rotate(0) translate(4 80)">
<title>modules/irc/irc_formatter.hpp</title>
<!-- Node1 -->
<g id="node1" class="node"><title>Node1</title>
<polygon fill="#bfbfbf" stroke="black" points="47,-56.5 47,-75.5 190,-75.5 190,-56.5 47,-56.5"/>
<text text-anchor="middle" x="118.5" y="-63.5" font-family="Helvetica,sans-Serif" font-size="10.00">modules/irc/irc_formatter.hpp</text>
</g>
<!-- Node2 -->
<g id="node2" class="node"><title>Node2</title>
<g id="a_node2"><a xlink:href="irc_8cpp.html" target="_top" xlink:title="modules/irc/irc.cpp">
<polygon fill="none" stroke="black" points="0,-0.5 0,-19.5 99,-19.5 99,-0.5 0,-0.5"/>
<text text-anchor="middle" x="49.5" y="-7.5" font-family="Helvetica,sans-Serif" font-size="10.00">modules/irc/irc.cpp</text>
</a>
</g>
</g>
<!-- Node1&#45;&gt;Node2 -->
<g id="edge1" class="edge"><title>Node1&#45;&gt;Node2</title>
<path fill="none" stroke="midnightblue" d="M99.4621,-50.1008C87.0442,-40.3824 71.2566,-28.0269 60.7878,-19.8339"/>
<polygon fill="midnightblue" stroke="midnightblue" points="97.3818,-52.9171 107.414,-56.324 101.696,-47.4046 97.3818,-52.9171"/>
</g>
<!-- Node3 -->
<g id="node3" class="node"><title>Node3</title>
<g id="a_node3"><a xlink:href="irc__formatter_8cpp.html" target="_top" xlink:title="modules/irc/irc_formatter.cpp">
<polygon fill="none" stroke="black" points="117,-0.5 117,-19.5 260,-19.5 260,-0.5 117,-0.5"/>
<text text-anchor="middle" x="188.5" y="-7.5" font-family="Helvetica,sans-Serif" font-size="10.00">modules/irc/irc_formatter.cpp</text>
</a>
</g>
</g>
<!-- Node1&#45;&gt;Node3 -->
<g id="edge2" class="edge"><title>Node1&#45;&gt;Node3</title>
<path fill="none" stroke="midnightblue" d="M137.814,-50.1008C150.412,-40.3824 166.428,-28.0269 177.049,-19.8339"/>
<polygon fill="midnightblue" stroke="midnightblue" points="135.527,-47.4446 129.747,-56.324 139.802,-52.9871 135.527,-47.4446"/>
</g>
</g>
</svg>
