<?xml version="1.0" encoding="UTF-8" standalone="no"?>
<!DOCTYPE svg PUBLIC "-//W3C//DTD SVG 1.1//EN"
 "http://www.w3.org/Graphics/SVG/1.1/DTD/svg11.dtd">
<!-- Generated by graphviz version 2.38.0 (20140413.2041)
 -->
<!-- Title: modules/irc/irc_formatter.cpp Pages: 1 -->
<svg width="1000pt" height="263pt"
 viewBox="0.00 0.00 1000.00 263.00" xmlns="http://www.w3.org/2000/svg" xmlns:xlink="http://www.w3.org/1999/xlink">
<g id="graph0" class="graph" transform="scale(1 1) rotate(0) translate(4 259)">
<title>modules/irc/irc_formatter.cpp</title>
<!-- Node1 -->
<g id="node1" class="node"><title>Node1</title>
<polygon fill="#bfbfbf" stroke="black" points="689,-235.5 689,-254.5 832,-254.5 832,-235.5 689,-235.5"/>
<text text-anchor="middle" x="760.5" y="-242.5" font-family="Helvetica,sans-Serif" font-size="10.00">modules/irc/irc_formatter.cpp</text>
</g>
<!-- Node2 -->
<g id="node2" class="node"><title>Node2</title>
<g id="a_node2"><a xlink:href="irc__formatter_8hpp.html" target="_top" xlink:title="irc_formatter.hpp">
<polygon fill="none" stroke="black" points="474.5,-179.5 474.5,-198.5 564.5,-198.5 564.5,-179.5 474.5,-179.5"/>
<text text-anchor="middle" x="519.5" y="-186.5" font-family="Helvetica,sans-Serif" font-size="10.00">irc_formatter.hpp</text>
</a>
</g>
</g>
<!-- Node1&#45;&gt;Node2 -->
<g id="edge1" class="edge"><title>Node1&#45;&gt;Node2</title>
<path fill="none" stroke="midnightblue" d="M722.313,-235.444C680.359,-226.043 612.906,-210.929 567.429,-200.739"/>
<polygon fill="midnightblue" stroke="midnightblue" points="568.032,-197.288 557.509,-198.516 566.501,-204.118 568.032,-197.288"/>
</g>
<!-- Node16 -->
<g id="node16" class="node"><title>Node16</title>
<polygon fill="none" stroke="#bfbfbf" points="951,-67.5 951,-86.5 992,-86.5 992,-67.5 951,-67.5"/>
<text text-anchor="middle" x="971.5" y="-74.5" font-family="Helvetica,sans-Serif" font-size="10.00">regex</text>
</g>
<!-- Node1&#45;&gt;Node16 -->
<g id="edge17" class="edge"><title>Node1&#45;&gt;Node16</title>
<path fill="none" stroke="midnightblue" d="M771.547,-235.309C805.659,-208.472 909.606,-126.694 952.589,-92.8776"/>
<polygon fill="midnightblue" stroke="midnightblue" points="954.867,-95.5391 960.562,-86.6051 950.539,-90.0375 954.867,-95.5391"/>
</g>
<!-- Node17 -->
<g id="node17" class="node"><title>Node17</title>
<g id="a_node17"><a xlink:href="string__functions_8hpp.html" target="_top" xlink:title="string/string_functions.hpp">
<polygon fill="none" stroke="black" points="695,-123.5 695,-142.5 826,-142.5 826,-123.5 695,-123.5"/>
<text text-anchor="middle" x="760.5" y="-130.5" font-family="Helvetica,sans-Serif" font-size="10.00">string/string_functions.hpp</text>
</a>
</g>
</g>
<!-- Node1&#45;&gt;Node17 -->
<g id="edge18" class="edge"><title>Node1&#45;&gt;Node17</title>
<path fill="none" stroke="midnightblue" d="M760.5,-235.368C760.5,-217.617 760.5,-176.666 760.5,-152.597"/>
<polygon fill="midnightblue" stroke="midnightblue" points="764,-152.591 760.5,-142.591 757,-152.591 764,-152.591"/>
</g>
<!-- Node3 -->
<g id="node3" class="node"><title>Node3</title>
<g id="a_node3"><a xlink:href="string_8hpp.html" target="_top" xlink:title="string/string.hpp">
<polygon fill="none" stroke="black" points="307.5,-123.5 307.5,-142.5 393.5,-142.5 393.5,-123.5 307.5,-123.5"/>
<text text-anchor="middle" x="350.5" y="-130.5" font-family="Helvetica,sans-Serif" font-size="10.00">string/string.hpp</text>
</a>
</g>
</g>
<!-- Node2&#45;&gt;Node3 -->
<g id="edge2" class="edge"><title>Node2&#45;&gt;Node3</title>
<path fill="none" stroke="midnightblue" d="M492.721,-179.444C464.167,-170.32 418.767,-155.813 386.963,-145.651"/>
<polygon fill="midnightblue" stroke="midnightblue" points="387.744,-142.226 377.153,-142.516 385.614,-148.894 387.744,-142.226"/>
</g>
<!-- Node4 -->
<g id="node4" class="node"><title>Node4</title>
<polygon fill="none" stroke="#bfbfbf" points="127.5,-6 127.5,-25 173.5,-25 173.5,-6 127.5,-6"/>
<text text-anchor="middle" x="150.5" y="-13" font-family="Helvetica,sans-Serif" font-size="10.00">cstdint</text>
</g>
<!-- Node3&#45;&gt;Node4 -->
<g id="edge3" class="edge"><title>Node3&#45;&gt;Node4</title>
<path fill="none" stroke="midnightblue" d="M307.4,-128.837C272.67,-124.333 224.235,-113.422 190.5,-87 173.577,-73.7454 162.608,-51.2084 156.513,-35.1853"/>
<polygon fill="midnightblue" stroke="midnightblue" points="159.669,-33.6071 153.059,-25.3271 153.063,-35.922 159.669,-33.6071"/>
</g>
<!-- Node5 -->
<g id="node5" class="node"><title>Node5</title>
<polygon fill="none" stroke="#bfbfbf" points="209,-67.5 209,-86.5 268,-86.5 268,-67.5 209,-67.5"/>
<text text-anchor="middle" x="238.5" y="-74.5" font-family="Helvetica,sans-Serif" font-size="10.00">functional</text>
</g>
<!-- Node3&#45;&gt;Node5 -->
<g id="edge4" class="edge"><title>Node3&#45;&gt;Node5</title>
<path fill="none" stroke="midnightblue" d="M332.505,-123.324C314.462,-114.625 286.453,-101.12 265.697,-91.113"/>
<polygon fill="midnightblue" stroke="midnightblue" points="266.978,-87.8449 256.45,-86.6545 263.938,-94.1502 266.978,-87.8449"/>
</g>
<!-- Node6 -->
<g id="node6" class="node"><title>Node6</title>
<polygon fill="none" stroke="#bfbfbf" points="324.5,-67.5 324.5,-86.5 376.5,-86.5 376.5,-67.5 324.5,-67.5"/>
<text text-anchor="middle" x="350.5" y="-74.5" font-family="Helvetica,sans-Serif" font-size="10.00">memory</text>
</g>
<!-- Node3&#45;&gt;Node6 -->
<g id="edge5" class="edge"><title>Node3&#45;&gt;Node6</title>
<path fill="none" stroke="midnightblue" d="M350.5,-123.083C350.5,-116.006 350.5,-105.861 350.5,-96.9865"/>
<polygon fill="midnightblue" stroke="midnightblue" points="354,-96.751 350.5,-86.7511 347,-96.7511 354,-96.751"/>
</g>
<!-- Node7 -->
<g id="node7" class="node"><title>Node7</title>
<polygon fill="none" stroke="#bfbfbf" points="395,-67.5 395,-86.5 454,-86.5 454,-67.5 395,-67.5"/>
<text text-anchor="middle" x="424.5" y="-74.5" font-family="Helvetica,sans-Serif" font-size="10.00">stdexcept</text>
</g>
<!-- Node3&#45;&gt;Node7 -->
<g id="edge6" class="edge"><title>Node3&#45;&gt;Node7</title>
<path fill="none" stroke="midnightblue" d="M362.389,-123.324C373.65,-115.107 390.787,-102.602 404.209,-92.8069"/>
<polygon fill="midnightblue" stroke="midnightblue" points="406.38,-95.5559 412.394,-86.8339 402.253,-89.9014 406.38,-95.5559"/>
</g>
<!-- Node8 -->
<g id="node8" class="node"><title>Node8</title>
<polygon fill="none" stroke="#bfbfbf" points="298,-6 298,-25 339,-25 339,-6 298,-6"/>
<text text-anchor="middle" x="318.5" y="-13" font-family="Helvetica,sans-Serif" font-size="10.00">string</text>
</g>
<!-- Node3&#45;&gt;Node8 -->
<g id="edge7" class="edge"><title>Node3&#45;&gt;Node8</title>
<path fill="none" stroke="midnightblue" d="M307.238,-132.189C271.968,-129.758 224.105,-120.007 199.5,-87 173.381,-51.9616 244.541,-31.1111 287.867,-21.9842"/>
<polygon fill="midnightblue" stroke="midnightblue" points="288.829,-25.3611 297.946,-19.9643 287.453,-18.4976 288.829,-25.3611"/>
</g>
<!-- Node9 -->
<g id="node9" class="node"><title>Node9</title>
<polygon fill="none" stroke="#bfbfbf" points="534.5,-67.5 534.5,-86.5 586.5,-86.5 586.5,-67.5 534.5,-67.5"/>
<text text-anchor="middle" x="560.5" y="-74.5" font-family="Helvetica,sans-Serif" font-size="10.00">sstream</text>
</g>
<!-- Node3&#45;&gt;Node9 -->
<g id="edge8" class="edge"><title>Node3&#45;&gt;Node9</title>
<path fill="none" stroke="midnightblue" d="M383.775,-123.444C422.183,-113.567 485.115,-97.3846 524.6,-87.2314"/>
<polygon fill="midnightblue" stroke="midnightblue" points="525.534,-90.6053 534.347,-84.7251 523.79,-83.8258 525.534,-90.6053"/>
</g>
<!-- Node10 -->
<g id="node10" class="node"><title>Node10</title>
<polygon fill="none" stroke="#bfbfbf" points="604.5,-67.5 604.5,-86.5 666.5,-86.5 666.5,-67.5 604.5,-67.5"/>
<text text-anchor="middle" x="635.5" y="-74.5" font-family="Helvetica,sans-Serif" font-size="10.00">type_traits</text>
</g>
<!-- Node3&#45;&gt;Node10 -->
<g id="edge9" class="edge"><title>Node3&#45;&gt;Node10</title>
<path fill="none" stroke="midnightblue" d="M393.529,-124.629C440.429,-116.477 517.931,-102.662 593.867,-87.2743"/>
<polygon fill="midnightblue" stroke="midnightblue" points="594.983,-90.6189 604.082,-85.1926 593.585,-83.7598 594.983,-90.6189"/>
</g>
<!-- Node11 -->
<g id="node11" class="node"><title>Node11</title>
<polygon fill="none" stroke="#bfbfbf" points="567,-6 567,-25 650,-25 650,-6 567,-6"/>
<text text-anchor="middle" x="608.5" y="-13" font-family="Helvetica,sans-Serif" font-size="10.00">unordered_map</text>
</g>
<!-- Node3&#45;&gt;Node11 -->
<g id="edge10" class="edge"><title>Node3&#45;&gt;Node11</title>
<path fill="none" stroke="midnightblue" d="M339.65,-123.318C324.502,-110.167 300.472,-84.8401 315.5,-67 345.753,-31.0867 481.002,-20.7133 556.721,-17.717"/>
<polygon fill="midnightblue" stroke="midnightblue" points="557.128,-21.2045 566.993,-17.3413 556.872,-14.2092 557.128,-21.2045"/>
</g>
<!-- Node12 -->
<g id="node12" class="node"><title>Node12</title>
<polygon fill="none" stroke="#bfbfbf" points="472.5,-67.5 472.5,-86.5 516.5,-86.5 516.5,-67.5 472.5,-67.5"/>
<text text-anchor="middle" x="494.5" y="-74.5" font-family="Helvetica,sans-Serif" font-size="10.00">vector</text>
</g>
<!-- Node3&#45;&gt;Node12 -->
<g id="edge11" class="edge"><title>Node3&#45;&gt;Node12</title>
<path fill="none" stroke="midnightblue" d="M373.317,-123.444C397.473,-114.385 435.776,-100.021 462.845,-89.8705"/>
<polygon fill="midnightblue" stroke="midnightblue" points="464.128,-93.1274 472.263,-86.339 461.67,-86.5731 464.128,-93.1274"/>
</g>
<!-- Node13 -->
<g id="node13" class="node"><title>Node13</title>
<g id="a_node13"><a xlink:href="color_8hpp.html" target="_top" xlink:title="color.hpp">
<polygon fill="none" stroke="black" points="58.5,-67.5 58.5,-86.5 114.5,-86.5 114.5,-67.5 58.5,-67.5"/>
<text text-anchor="middle" x="86.5" y="-74.5" font-family="Helvetica,sans-Serif" font-size="10.00">color.hpp</text>
</a>
</g>
</g>
<!-- Node3&#45;&gt;Node13 -->
<g id="edge12" class="edge"><title>Node3&#45;&gt;Node13</title>
<path fill="none" stroke="midnightblue" d="M307.498,-123.43C262.754,-114.479 190.674,-99.9625 128.5,-87 127.227,-86.7346 125.933,-86.4636 124.626,-86.189"/>
<polygon fill="midnightblue" stroke="midnightblue" points="125.013,-82.6935 114.505,-84.0463 123.563,-89.5417 125.013,-82.6935"/>
</g>
<!-- Node13&#45;&gt;Node4 -->
<g id="edge14" class="edge"><title>Node13&#45;&gt;Node4</title>
<path fill="none" stroke="midnightblue" d="M95.6696,-67.4751C105.65,-58.1966 121.812,-43.1706 134.009,-31.831"/>
<polygon fill="midnightblue" stroke="midnightblue" points="136.407,-34.3814 141.347,-25.0091 131.64,-29.2547 136.407,-34.3814"/>
</g>
<!-- Node13&#45;&gt;Node8 -->
<g id="edge16" class="edge"><title>Node13&#45;&gt;Node8</title>
<path fill="none" stroke="midnightblue" d="M114.948,-68.7041C158.839,-57.4476 242.711,-35.9373 287.881,-24.3528"/>
<polygon fill="midnightblue" stroke="midnightblue" points="288.878,-27.7105 297.695,-21.8359 287.139,-20.9299 288.878,-27.7105"/>
</g>
<!-- Node14 -->
<g id="node14" class="node"><title>Node14</title>
<polygon fill="none" stroke="#bfbfbf" points="63.5,-6 63.5,-25 109.5,-25 109.5,-6 63.5,-6"/>
<text text-anchor="middle" x="86.5" y="-13" font-family="Helvetica,sans-Serif" font-size="10.00">cctype</text>
</g>
<!-- Node13&#45;&gt;Node14 -->
<g id="edge13" class="edge"><title>Node13&#45;&gt;Node14</title>
<path fill="none" stroke="midnightblue" d="M86.5,-67.4751C86.5,-59.0803 86.5,-45.9806 86.5,-35.1631"/>
<polygon fill="midnightblue" stroke="midnightblue" points="90.0001,-35.0091 86.5,-25.0091 83.0001,-35.0091 90.0001,-35.0091"/>
</g>
<!-- Node15 -->
<g id="node15" class="node"><title>Node15</title>
<polygon fill="none" stroke="#bfbfbf" points="0,-6 0,-25 45,-25 45,-6 0,-6"/>
<text text-anchor="middle" x="22.5" y="-13" font-family="Helvetica,sans-Serif" font-size="10.00">cstdlib</text>
</g>
<!-- Node13&#45;&gt;Node15 -->
<g id="edge15" class="edge"><title>Node13&#45;&gt;Node15</title>
<path fill="none" stroke="midnightblue" d="M77.3304,-67.4751C67.3501,-58.1966 51.1877,-43.1706 38.9905,-31.831"/>
<polygon fill="midnightblue" stroke="midnightblue" points="41.3596,-29.2547 31.6526,-25.0091 36.5934,-34.3814 41.3596,-29.2547"/>
</g>
<!-- Node17&#45;&gt;Node8 -->
<g id="edge23" class="edge"><title>Node17&#45;&gt;Node8</title>
<path fill="none" stroke="midnightblue" d="M760.613,-123.235C760.277,-109.01 757.357,-81.0751 740.5,-67 710.501,-41.9519 441.129,-23.7754 349.133,-18.2522"/>
<polygon fill="midnightblue" stroke="midnightblue" points="349.255,-14.7534 339.066,-17.656 348.842,-21.7411 349.255,-14.7534"/>
</g>
<!-- Node17&#45;&gt;Node9 -->
<g id="edge22" class="edge"><title>Node17&#45;&gt;Node9</title>
<path fill="none" stroke="midnightblue" d="M728.809,-123.444C692.867,-113.739 634.371,-97.9452 596.671,-87.7661"/>
<polygon fill="midnightblue" stroke="midnightblue" points="597.192,-84.2814 586.625,-85.0537 595.367,-91.0394 597.192,-84.2814"/>
</g>
<!-- Node17&#45;&gt;Node10 -->
<g id="edge24" class="edge"><title>Node17&#45;&gt;Node10</title>
<path fill="none" stroke="midnightblue" d="M740.693,-123.444C720.213,-114.596 688.017,-100.687 664.635,-90.5865"/>
<polygon fill="midnightblue" stroke="midnightblue" points="665.782,-87.2692 655.214,-86.5164 663.006,-93.6953 665.782,-87.2692"/>
</g>
<!-- Node17&#45;&gt;Node16 -->
<g id="edge21" class="edge"><title>Node17&#45;&gt;Node16</title>
<path fill="none" stroke="midnightblue" d="M797.035,-123.459C831.683,-115.238 885.411,-102.182 941.184,-86.9853"/>
<polygon fill="midnightblue" stroke="midnightblue" points="942.162,-90.3464 950.881,-84.327 940.311,-83.5955 942.162,-90.3464"/>
</g>
<!-- Node18 -->
<g id="node18" class="node"><title>Node18</title>
<polygon fill="none" stroke="#bfbfbf" points="876.5,-67.5 876.5,-86.5 932.5,-86.5 932.5,-67.5 876.5,-67.5"/>
<text text-anchor="middle" x="904.5" y="-74.5" font-family="Helvetica,sans-Serif" font-size="10.00">algorithm</text>
</g>
<!-- Node17&#45;&gt;Node18 -->
<g id="edge19" class="edge"><title>Node17&#45;&gt;Node18</title>
<path fill="none" stroke="midnightblue" d="M783.317,-123.444C807.332,-114.438 845.329,-100.189 872.369,-90.049"/>
<polygon fill="midnightblue" stroke="midnightblue" points="873.655,-93.3049 881.79,-86.5164 871.197,-86.7506 873.655,-93.3049"/>
</g>
<!-- Node19 -->
<g id="node19" class="node"><title>Node19</title>
<polygon fill="none" stroke="#bfbfbf" points="685,-67.5 685,-86.5 732,-86.5 732,-67.5 685,-67.5"/>
<text text-anchor="middle" x="708.5" y="-74.5" font-family="Helvetica,sans-Serif" font-size="10.00">iterator</text>
</g>
<!-- Node17&#45;&gt;Node19 -->
<g id="edge20" class="edge"><title>Node17&#45;&gt;Node19</title>
<path fill="none" stroke="midnightblue" d="M751.913,-123.083C744.341,-115.22 733.122,-103.569 723.986,-94.0813"/>
<polygon fill="midnightblue" stroke="midnightblue" points="726.385,-91.5266 716.927,-86.7511 721.342,-96.3821 726.385,-91.5266"/>
</g>
<!-- Node20 -->
<g id="node20" class="node"><title>Node20</title>
<g id="a_node20"><a xlink:href="settings_8hpp.html" target="_top" xlink:title="settings.hpp">
<polygon fill="none" stroke="black" points="788.5,-67.5 788.5,-86.5 858.5,-86.5 858.5,-67.5 788.5,-67.5"/>
<text text-anchor="middle" x="823.5" y="-74.5" font-family="Helvetica,sans-Serif" font-size="10.00">settings.hpp</text>
</a>
</g>
</g>
<!-- Node17&#45;&gt;Node20 -->
<g id="edge25" class="edge"><title>Node17&#45;&gt;Node20</title>
<path fill="none" stroke="midnightblue" d="M770.622,-123.324C780.026,-115.263 794.244,-103.077 805.569,-93.3695"/>
<polygon fill="midnightblue" stroke="midnightblue" points="807.879,-95.9993 813.194,-86.8339 803.323,-90.6844 807.879,-95.9993"/>
</g>
<!-- Node20&#45;&gt;Node4 -->
<g id="edge27" class="edge"><title>Node20&#45;&gt;Node4</title>
<path fill="none" stroke="midnightblue" d="M788.387,-71.9683C773.611,-70.33 756.229,-68.4789 740.5,-67 539.86,-48.1357 489.171,-49.5309 288.5,-31 252.765,-27.7001 211.89,-23.3307 183.957,-20.2539"/>
<polygon fill="midnightblue" stroke="midnightblue" points="184.247,-16.7648 173.923,-19.1429 183.477,-23.7223 184.247,-16.7648"/>
</g>
<!-- Node20&#45;&gt;Node8 -->
<g id="edge26" class="edge"><title>Node20&#45;&gt;Node8</title>
<path fill="none" stroke="midnightblue" d="M788.487,-69.2554C783.793,-68.4432 779.035,-67.6668 774.5,-67 615.219,-43.5828 423.194,-25.6626 349.425,-19.1571"/>
<polygon fill="midnightblue" stroke="midnightblue" points="349.286,-15.6317 339.019,-18.2463 348.676,-22.605 349.286,-15.6317"/>
</g>
<!-- Node20&#45;&gt;Node11 -->
<g id="edge28" class="edge"><title>Node20&#45;&gt;Node11</title>
<path fill="none" stroke="midnightblue" d="M792.696,-67.4751C754.938,-57.0257 690.839,-39.2868 649.091,-27.7332"/>
<polygon fill="midnightblue" stroke="midnightblue" points="649.818,-24.3031 639.247,-25.0091 647.951,-31.0496 649.818,-24.3031"/>
</g>
<!-- Node21 -->
<g id="node21" class="node"><title>Node21</title>
<polygon fill="none" stroke="#bfbfbf" points="773,-0.5 773,-30.5 874,-30.5 874,-0.5 773,-0.5"/>
<text text-anchor="start" x="781" y="-18.5" font-family="Helvetica,sans-Serif" font-size="10.00">boost/property_tree</text>
<text text-anchor="middle" x="823.5" y="-7.5" font-family="Helvetica,sans-Serif" font-size="10.00">/ptree.hpp</text>
</g>
<!-- Node20&#45;&gt;Node21 -->
<g id="edge29" class="edge"><title>Node20&#45;&gt;Node21</title>
<path fill="none" stroke="midnightblue" d="M823.5,-67.4751C823.5,-60.471 823.5,-50.1919 823.5,-40.6956"/>
<polygon fill="midnightblue" stroke="midnightblue" points="827,-40.5229 823.5,-30.523 820,-40.523 827,-40.5229"/>
</g>
</g>
</svg>
