<?xml version="1.0" encoding="UTF-8" standalone="no"?>
<!DOCTYPE svg PUBLIC "-//W3C//DTD SVG 1.1//EN"
 "http://www.w3.org/Graphics/SVG/1.1/DTD/svg11.dtd">
<!-- Generated by graphviz version 2.38.0 (20140413.2041)
 -->
<!-- Title: src/network/irc.cpp Pages: 1 -->
<svg width="1343pt" height="442pt"
 viewBox="0.00 0.00 1343.23 442.00" xmlns="http://www.w3.org/2000/svg" xmlns:xlink="http://www.w3.org/1999/xlink">
<g id="graph0" class="graph" transform="scale(1 1) rotate(0) translate(4 438)">
<title>src/network/irc.cpp</title>
<!-- Node1 -->
<g id="node1" class="node"><title>Node1</title>
<polygon fill="#bfbfbf" stroke="black" points="726.733,-414.5 726.733,-433.5 826.733,-433.5 826.733,-414.5 726.733,-414.5"/>
<text text-anchor="middle" x="776.733" y="-421.5" font-family="Helvetica,sans-Serif" font-size="10.00">src/network/irc.cpp</text>
</g>
<!-- Node2 -->
<g id="node2" class="node"><title>Node2</title>
<g id="a_node2"><a xlink:href="irc_8hpp.html" target="_top" xlink:title="irc.hpp">
<polygon fill="none" stroke="black" points="753.733,-358.5 753.733,-377.5 799.733,-377.5 799.733,-358.5 753.733,-358.5"/>
<text text-anchor="middle" x="776.733" y="-365.5" font-family="Helvetica,sans-Serif" font-size="10.00">irc.hpp</text>
</a>
</g>
</g>
<!-- Node1&#45;&gt;Node2 -->
<g id="edge1" class="edge"><title>Node1&#45;&gt;Node2</title>
<path fill="none" stroke="midnightblue" d="M776.733,-414.083C776.733,-407.006 776.733,-396.861 776.733,-387.986"/>
<polygon fill="midnightblue" stroke="midnightblue" points="780.233,-387.751 776.733,-377.751 773.233,-387.751 780.233,-387.751"/>
</g>
<!-- Node26 -->
<g id="node26" class="node"><title>Node26</title>
<g id="a_node26"><a xlink:href="logger_8hpp.html" target="_top" xlink:title="../string/logger.hpp">
<polygon fill="none" stroke="black" points="557.733,-190.5 557.733,-209.5 655.733,-209.5 655.733,-190.5 557.733,-190.5"/>
<text text-anchor="middle" x="606.733" y="-197.5" font-family="Helvetica,sans-Serif" font-size="10.00">../string/logger.hpp</text>
</a>
</g>
</g>
<!-- Node1&#45;&gt;Node26 -->
<g id="edge67" class="edge"><title>Node1&#45;&gt;Node26</title>
<path fill="none" stroke="midnightblue" d="M748.585,-414.459C710.781,-401.343 644.877,-372.327 614.733,-322 595.689,-290.206 599.054,-244.922 603.013,-219.735"/>
<polygon fill="midnightblue" stroke="midnightblue" points="606.493,-220.155 604.796,-209.697 599.601,-218.931 606.493,-220.155"/>
</g>
<!-- Node36 -->
<g id="node36" class="node"><title>Node36</title>
<g id="a_node36"><a xlink:href="string__functions_8hpp.html" target="_top" xlink:title="string/string_functions.hpp">
<polygon fill="none" stroke="black" points="1065.23,-358.5 1065.23,-377.5 1196.23,-377.5 1196.23,-358.5 1065.23,-358.5"/>
<text text-anchor="middle" x="1130.73" y="-365.5" font-family="Helvetica,sans-Serif" font-size="10.00">string/string_functions.hpp</text>
</a>
</g>
</g>
<!-- Node1&#45;&gt;Node36 -->
<g id="edge68" class="edge"><title>Node1&#45;&gt;Node36</title>
<path fill="none" stroke="midnightblue" d="M827.077,-415.32C889.353,-405.821 995.559,-389.62 1064.42,-379.115"/>
<polygon fill="midnightblue" stroke="midnightblue" points="1065.36,-382.512 1074.72,-377.544 1064.31,-375.592 1065.36,-382.512"/>
</g>
<!-- Node3 -->
<g id="node3" class="node"><title>Node3</title>
<polygon fill="none" stroke="#bfbfbf" points="1035.73,-302.5 1035.73,-321.5 1091.73,-321.5 1091.73,-302.5 1035.73,-302.5"/>
<text text-anchor="middle" x="1063.73" y="-309.5" font-family="Helvetica,sans-Serif" font-size="10.00">algorithm</text>
</g>
<!-- Node2&#45;&gt;Node3 -->
<g id="edge2" class="edge"><title>Node2&#45;&gt;Node3</title>
<path fill="none" stroke="midnightblue" d="M799.745,-363.006C843.202,-355.413 940.296,-338.201 1021.73,-322 1022.97,-321.754 1024.22,-321.502 1025.49,-321.245"/>
<polygon fill="midnightblue" stroke="midnightblue" points="1026.21,-324.67 1035.29,-319.213 1024.79,-317.816 1026.21,-324.67"/>
</g>
<!-- Node4 -->
<g id="node4" class="node"><title>Node4</title>
<polygon fill="none" stroke="#bfbfbf" points="624.233,-302.5 624.233,-321.5 653.233,-321.5 653.233,-302.5 624.233,-302.5"/>
<text text-anchor="middle" x="638.733" y="-309.5" font-family="Helvetica,sans-Serif" font-size="10.00">list</text>
</g>
<!-- Node2&#45;&gt;Node4 -->
<g id="edge3" class="edge"><title>Node2&#45;&gt;Node4</title>
<path fill="none" stroke="midnightblue" d="M754.867,-358.444C729.773,-348.624 688.749,-332.572 662.776,-322.408"/>
<polygon fill="midnightblue" stroke="midnightblue" points="663.889,-319.085 653.301,-318.7 661.338,-325.604 663.889,-319.085"/>
</g>
<!-- Node5 -->
<g id="node5" class="node"><title>Node5</title>
<polygon fill="none" stroke="#bfbfbf" points="814.733,-129 814.733,-148 858.733,-148 858.733,-129 814.733,-129"/>
<text text-anchor="middle" x="836.733" y="-136" font-family="Helvetica,sans-Serif" font-size="10.00">mutex</text>
</g>
<!-- Node2&#45;&gt;Node5 -->
<g id="edge4" class="edge"><title>Node2&#45;&gt;Node5</title>
<path fill="none" stroke="midnightblue" d="M779.012,-358.36C787.792,-325.068 819.55,-204.651 831.834,-158.074"/>
<polygon fill="midnightblue" stroke="midnightblue" points="835.286,-158.711 834.452,-148.149 828.518,-156.926 835.286,-158.711"/>
</g>
<!-- Node6 -->
<g id="node6" class="node"><title>Node6</title>
<polygon fill="none" stroke="#bfbfbf" points="458.233,-190.5 458.233,-209.5 501.233,-209.5 501.233,-190.5 458.233,-190.5"/>
<text text-anchor="middle" x="479.733" y="-197.5" font-family="Helvetica,sans-Serif" font-size="10.00">queue</text>
</g>
<!-- Node2&#45;&gt;Node6 -->
<g id="edge5" class="edge"><title>Node2&#45;&gt;Node6</title>
<path fill="none" stroke="midnightblue" d="M761.501,-358.34C739.503,-345.846 697.55,-322.06 661.733,-302 605.536,-270.526 539.365,-233.918 504.352,-214.582"/>
<polygon fill="midnightblue" stroke="midnightblue" points="505.783,-211.375 495.337,-209.606 502.4,-217.503 505.783,-211.375"/>
</g>
<!-- Node7 -->
<g id="node7" class="node"><title>Node7</title>
<polygon fill="none" stroke="#bfbfbf" points="1110.23,-302.5 1110.23,-321.5 1151.23,-321.5 1151.23,-302.5 1110.23,-302.5"/>
<text text-anchor="middle" x="1130.73" y="-309.5" font-family="Helvetica,sans-Serif" font-size="10.00">regex</text>
</g>
<!-- Node2&#45;&gt;Node7 -->
<g id="edge6" class="edge"><title>Node2&#45;&gt;Node7</title>
<path fill="none" stroke="midnightblue" d="M800.129,-364.993C852.286,-360.257 982.123,-347.014 1100.25,-321.775"/>
<polygon fill="midnightblue" stroke="midnightblue" points="1101.16,-325.16 1110.19,-319.617 1099.67,-318.319 1101.16,-325.16"/>
</g>
<!-- Node8 -->
<g id="node8" class="node"><title>Node8</title>
<polygon fill="none" stroke="#bfbfbf" points="457.233,-62 457.233,-81 516.233,-81 516.233,-62 457.233,-62"/>
<text text-anchor="middle" x="486.733" y="-69" font-family="Helvetica,sans-Serif" font-size="10.00">stdexcept</text>
</g>
<!-- Node2&#45;&gt;Node8 -->
<g id="edge7" class="edge"><title>Node2&#45;&gt;Node8</title>
<path fill="none" stroke="midnightblue" d="M766.402,-358.412C750.821,-345.598 720.206,-320.952 692.733,-302 653.487,-274.926 553.573,-208.742 509.733,-190 452.24,-165.421 411.872,-203.548 373.733,-154 365.329,-143.082 366.237,-134.56 373.733,-123 378.501,-115.647 423.074,-97.1604 454.788,-84.7142"/>
<polygon fill="midnightblue" stroke="midnightblue" points="456.112,-87.955 464.16,-81.0646 453.571,-81.4322 456.112,-87.955"/>
</g>
<!-- Node9 -->
<g id="node9" class="node"><title>Node9</title>
<polygon fill="none" stroke="#bfbfbf" points="728.233,-0.5 728.233,-19.5 769.233,-19.5 769.233,-0.5 728.233,-0.5"/>
<text text-anchor="middle" x="748.733" y="-7.5" font-family="Helvetica,sans-Serif" font-size="10.00">string</text>
</g>
<!-- Node2&#45;&gt;Node9 -->
<g id="edge8" class="edge"><title>Node2&#45;&gt;Node9</title>
<path fill="none" stroke="midnightblue" d="M799.741,-367.648C838.616,-367.54 917.922,-361.989 967.733,-322 1065.86,-243.221 1147.2,-151.046 1064.73,-56 1028.03,-13.7004 852.295,-10.1435 779.953,-10.5199"/>
<polygon fill="midnightblue" stroke="midnightblue" points="779.633,-7.02231 769.662,-10.6043 779.69,-14.0221 779.633,-7.02231"/>
</g>
<!-- Node10 -->
<g id="node10" class="node"><title>Node10</title>
<polygon fill="none" stroke="#bfbfbf" points="777.233,-62 777.233,-81 860.233,-81 860.233,-62 777.233,-62"/>
<text text-anchor="middle" x="818.733" y="-69" font-family="Helvetica,sans-Serif" font-size="10.00">unordered_map</text>
</g>
<!-- Node2&#45;&gt;Node10 -->
<g id="edge9" class="edge"><title>Node2&#45;&gt;Node10</title>
<path fill="none" stroke="midnightblue" d="M799.962,-366.995C831.497,-365.579 886.882,-357.783 912.733,-322 926.93,-302.348 993.991,-306.759 884.733,-123 875.418,-107.334 859.225,-94.8317 845.21,-86.186"/>
<polygon fill="midnightblue" stroke="midnightblue" points="846.813,-83.0693 836.409,-81.0669 843.293,-89.1202 846.813,-83.0693"/>
</g>
<!-- Node11 -->
<g id="node11" class="node"><title>Node11</title>
<polygon fill="none" stroke="#bfbfbf" points="823.733,-302.5 823.733,-321.5 903.733,-321.5 903.733,-302.5 823.733,-302.5"/>
<text text-anchor="middle" x="863.733" y="-309.5" font-family="Helvetica,sans-Serif" font-size="10.00">boost/asio.hpp</text>
</g>
<!-- Node2&#45;&gt;Node11 -->
<g id="edge10" class="edge"><title>Node2&#45;&gt;Node11</title>
<path fill="none" stroke="midnightblue" d="M790.711,-358.324C804.283,-349.9 825.113,-336.971 841.058,-327.074"/>
<polygon fill="midnightblue" stroke="midnightblue" points="843.139,-329.902 849.79,-321.655 839.448,-323.954 843.139,-329.902"/>
</g>
<!-- Node12 -->
<g id="node12" class="node"><title>Node12</title>
<g id="a_node12"><a xlink:href="concurrent__container_8hpp.html" target="_top" xlink:title="concurrent_container.hpp">
<polygon fill="none" stroke="black" points="275.733,-246.5 275.733,-265.5 401.733,-265.5 401.733,-246.5 275.733,-246.5"/>
<text text-anchor="middle" x="338.733" y="-253.5" font-family="Helvetica,sans-Serif" font-size="10.00">concurrent_container.hpp</text>
</a>
</g>
</g>
<!-- Node2&#45;&gt;Node12 -->
<g id="edge11" class="edge"><title>Node2&#45;&gt;Node12</title>
<path fill="none" stroke="midnightblue" d="M753.348,-367.376C697.213,-367.543 551.161,-363.597 438.733,-322 407.241,-310.348 375.52,-287.376 356.497,-272.101"/>
<polygon fill="midnightblue" stroke="midnightblue" points="358.645,-269.336 348.697,-265.692 354.202,-274.745 358.645,-269.336"/>
</g>
<!-- Node17 -->
<g id="node17" class="node"><title>Node17</title>
<g id="a_node17"><a xlink:href="connection_8hpp.html" target="_top" xlink:title="connection.hpp">
<polygon fill="none" stroke="black" points="135.233,-246.5 135.233,-265.5 218.233,-265.5 218.233,-246.5 135.233,-246.5"/>
<text text-anchor="middle" x="176.733" y="-253.5" font-family="Helvetica,sans-Serif" font-size="10.00">connection.hpp</text>
</a>
</g>
</g>
<!-- Node2&#45;&gt;Node17 -->
<g id="edge17" class="edge"><title>Node2&#45;&gt;Node17</title>
<path fill="none" stroke="midnightblue" d="M753.445,-365.6C693.787,-361.721 530.803,-349.268 397.733,-322 330.269,-308.176 253.573,-283.54 210.588,-268.892"/>
<polygon fill="midnightblue" stroke="midnightblue" points="211.517,-265.511 200.922,-265.573 209.243,-272.131 211.517,-265.511"/>
</g>
<!-- Node2&#45;&gt;Node26 -->
<g id="edge66" class="edge"><title>Node2&#45;&gt;Node26</title>
<path fill="none" stroke="midnightblue" d="M776.143,-358.353C774.189,-336.462 766.065,-278.302 733.733,-246 715.561,-227.845 689.611,-216.985 665.899,-210.503"/>
<polygon fill="midnightblue" stroke="midnightblue" points="666.455,-207.033 655.903,-207.984 664.745,-213.821 666.455,-207.033"/>
</g>
<!-- Node32 -->
<g id="node32" class="node"><title>Node32</title>
<g id="a_node32"><a xlink:href="settings_8hpp.html" target="_top" xlink:title="settings.hpp">
<polygon fill="none" stroke="black" points="952.733,-129 952.733,-148 1022.73,-148 1022.73,-129 952.733,-129"/>
<text text-anchor="middle" x="987.733" y="-136" font-family="Helvetica,sans-Serif" font-size="10.00">settings.hpp</text>
</a>
</g>
</g>
<!-- Node2&#45;&gt;Node32 -->
<g id="edge65" class="edge"><title>Node2&#45;&gt;Node32</title>
<path fill="none" stroke="midnightblue" d="M799.808,-367.856C836.205,-367.874 906.802,-362.28 945.733,-322 989.568,-276.647 991.085,-195.223 989.249,-158.446"/>
<polygon fill="midnightblue" stroke="midnightblue" points="992.723,-157.929 988.585,-148.176 985.738,-158.382 992.723,-157.929"/>
</g>
<!-- Node34 -->
<g id="node34" class="node"><title>Node34</title>
<g id="a_node34"><a xlink:href="melanobot_8hpp.html" target="_top" xlink:title="../melanobot.hpp">
<polygon fill="none" stroke="black" points="448.233,-302.5 448.233,-321.5 537.233,-321.5 537.233,-302.5 448.233,-302.5"/>
<text text-anchor="middle" x="492.733" y="-309.5" font-family="Helvetica,sans-Serif" font-size="10.00">../melanobot.hpp</text>
</a>
</g>
</g>
<!-- Node2&#45;&gt;Node34 -->
<g id="edge55" class="edge"><title>Node2&#45;&gt;Node34</title>
<path fill="none" stroke="midnightblue" d="M753.492,-362.581C708.818,-354.087 609.872,-335.273 547.526,-323.418"/>
<polygon fill="midnightblue" stroke="midnightblue" points="547.947,-319.936 537.469,-321.506 546.64,-326.813 547.947,-319.936"/>
</g>
<!-- Node12&#45;&gt;Node6 -->
<g id="edge15" class="edge"><title>Node12&#45;&gt;Node6</title>
<path fill="none" stroke="midnightblue" d="M361.075,-246.444C384.624,-237.425 421.904,-223.147 448.389,-213.004"/>
<polygon fill="midnightblue" stroke="midnightblue" points="449.872,-216.184 457.959,-209.339 447.369,-209.647 449.872,-216.184"/>
</g>
<!-- Node13 -->
<g id="node13" class="node"><title>Node13</title>
<polygon fill="none" stroke="#bfbfbf" points="204.733,-190.5 204.733,-209.5 250.733,-209.5 250.733,-190.5 204.733,-190.5"/>
<text text-anchor="middle" x="227.733" y="-197.5" font-family="Helvetica,sans-Serif" font-size="10.00">atomic</text>
</g>
<!-- Node12&#45;&gt;Node13 -->
<g id="edge12" class="edge"><title>Node12&#45;&gt;Node13</title>
<path fill="none" stroke="midnightblue" d="M320.899,-246.324C303.017,-237.625 275.258,-224.12 254.688,-214.113"/>
<polygon fill="midnightblue" stroke="midnightblue" points="256.046,-210.882 245.523,-209.655 252.984,-217.177 256.046,-210.882"/>
</g>
<!-- Node14 -->
<g id="node14" class="node"><title>Node14</title>
<polygon fill="none" stroke="#bfbfbf" points="345.233,-190.5 345.233,-209.5 440.233,-209.5 440.233,-190.5 345.233,-190.5"/>
<text text-anchor="middle" x="392.733" y="-197.5" font-family="Helvetica,sans-Serif" font-size="10.00">condition_variable</text>
</g>
<!-- Node12&#45;&gt;Node14 -->
<g id="edge13" class="edge"><title>Node12&#45;&gt;Node14</title>
<path fill="none" stroke="midnightblue" d="M347.65,-246.083C355.514,-238.22 367.164,-226.569 376.652,-217.081"/>
<polygon fill="midnightblue" stroke="midnightblue" points="379.386,-219.297 383.982,-209.751 374.436,-214.347 379.386,-219.297"/>
</g>
<!-- Node15 -->
<g id="node15" class="node"><title>Node15</title>
<polygon fill="none" stroke="#bfbfbf" points="317.233,-62 317.233,-81 376.233,-81 376.233,-62 317.233,-62"/>
<text text-anchor="middle" x="346.733" y="-69" font-family="Helvetica,sans-Serif" font-size="10.00">functional</text>
</g>
<!-- Node12&#45;&gt;Node15 -->
<g id="edge14" class="edge"><title>Node12&#45;&gt;Node15</title>
<path fill="none" stroke="midnightblue" d="M328.571,-246.185C319.825,-237.87 307.833,-224.539 302.733,-210 289.934,-173.513 289.171,-159.21 302.733,-123 307.831,-109.388 318.441,-97.0288 327.965,-87.9443"/>
<polygon fill="midnightblue" stroke="midnightblue" points="330.457,-90.4106 335.564,-81.128 325.783,-85.1996 330.457,-90.4106"/>
</g>
<!-- Node16 -->
<g id="node16" class="node"><title>Node16</title>
<polygon fill="none" stroke="#bfbfbf" points="394.733,-62 394.733,-81 438.733,-81 438.733,-62 394.733,-62"/>
<text text-anchor="middle" x="416.733" y="-69" font-family="Helvetica,sans-Serif" font-size="10.00">vector</text>
</g>
<!-- Node12&#45;&gt;Node16 -->
<g id="edge16" class="edge"><title>Node12&#45;&gt;Node16</title>
<path fill="none" stroke="midnightblue" d="M336.114,-246.199C329.997,-223.803 317.005,-163.553 340.733,-123 346.742,-112.731 371.865,-97.1261 391.603,-85.9829"/>
<polygon fill="midnightblue" stroke="midnightblue" points="393.429,-88.9726 400.478,-81.0632 390.035,-82.8503 393.429,-88.9726"/>
</g>
<!-- Node17&#45;&gt;Node13 -->
<g id="edge18" class="edge"><title>Node17&#45;&gt;Node13</title>
<path fill="none" stroke="midnightblue" d="M185.155,-246.083C192.581,-238.22 203.585,-226.569 212.545,-217.081"/>
<polygon fill="midnightblue" stroke="midnightblue" points="215.147,-219.424 219.468,-209.751 210.057,-214.618 215.147,-219.424"/>
</g>
<!-- Node18 -->
<g id="node18" class="node"><title>Node18</title>
<polygon fill="none" stroke="#bfbfbf" points="102.733,-190.5 102.733,-209.5 148.733,-209.5 148.733,-190.5 102.733,-190.5"/>
<text text-anchor="middle" x="125.733" y="-197.5" font-family="Helvetica,sans-Serif" font-size="10.00">chrono</text>
</g>
<!-- Node17&#45;&gt;Node18 -->
<g id="edge19" class="edge"><title>Node17&#45;&gt;Node18</title>
<path fill="none" stroke="midnightblue" d="M168.312,-246.083C160.885,-238.22 149.881,-226.569 140.921,-217.081"/>
<polygon fill="midnightblue" stroke="midnightblue" points="143.409,-214.618 133.998,-209.751 138.32,-219.424 143.409,-214.618"/>
</g>
<!-- Node19 -->
<g id="node19" class="node"><title>Node19</title>
<polygon fill="none" stroke="#bfbfbf" points="196.733,-0.5 196.733,-19.5 242.733,-19.5 242.733,-0.5 196.733,-0.5"/>
<text text-anchor="middle" x="219.733" y="-7.5" font-family="Helvetica,sans-Serif" font-size="10.00">cstdint</text>
</g>
<!-- Node17&#45;&gt;Node19 -->
<g id="edge20" class="edge"><title>Node17&#45;&gt;Node19</title>
<path fill="none" stroke="midnightblue" d="M143.998,-246.411C122.925,-239.488 96.1345,-227.907 77.7331,-210 25.0901,-158.771 -28.2151,-113.311 17.7331,-56 23.038,-49.3834 130.421,-28.0442 186.407,-17.3017"/>
<polygon fill="midnightblue" stroke="midnightblue" points="187.384,-20.6783 196.55,-15.3635 186.071,-13.8027 187.384,-20.6783"/>
</g>
<!-- Node20 -->
<g id="node20" class="node"><title>Node20</title>
<polygon fill="none" stroke="#bfbfbf" points="26.7331,-62 26.7331,-81 78.7331,-81 78.7331,-62 26.7331,-62"/>
<text text-anchor="middle" x="52.7331" y="-69" font-family="Helvetica,sans-Serif" font-size="10.00">sstream</text>
</g>
<!-- Node17&#45;&gt;Node20 -->
<g id="edge21" class="edge"><title>Node17&#45;&gt;Node20</title>
<path fill="none" stroke="midnightblue" d="M149.568,-246.478C131.329,-239.436 108.093,-227.689 93.7331,-210 65.1698,-174.814 56.4976,-120.194 53.8704,-91.5333"/>
<polygon fill="midnightblue" stroke="midnightblue" points="57.3393,-90.9904 53.0925,-81.284 50.3594,-91.5203 57.3393,-90.9904"/>
</g>
<!-- Node21 -->
<g id="node21" class="node"><title>Node21</title>
<g id="a_node21"><a xlink:href="string_8hpp.html" target="_top" xlink:title="../string/string.hpp">
<polygon fill="none" stroke="black" points="155.233,-129 155.233,-148 250.233,-148 250.233,-129 155.233,-129"/>
<text text-anchor="middle" x="202.733" y="-136" font-family="Helvetica,sans-Serif" font-size="10.00">../string/string.hpp</text>
</a>
</g>
</g>
<!-- Node17&#45;&gt;Node21 -->
<g id="edge22" class="edge"><title>Node17&#45;&gt;Node21</title>
<path fill="none" stroke="midnightblue" d="M178.687,-246.319C182.885,-227.673 192.841,-183.443 198.539,-158.132"/>
<polygon fill="midnightblue" stroke="midnightblue" points="201.975,-158.807 200.756,-148.282 195.145,-157.269 201.975,-158.807"/>
</g>
<!-- Node17&#45;&gt;Node26 -->
<g id="edge36" class="edge"><title>Node17&#45;&gt;Node26</title>
<path fill="none" stroke="midnightblue" d="M218.354,-249.773C295.092,-240.136 459.083,-219.542 547.432,-208.447"/>
<polygon fill="midnightblue" stroke="midnightblue" points="548.074,-211.894 557.56,-207.175 547.202,-204.949 548.074,-211.894"/>
</g>
<!-- Node21&#45;&gt;Node8 -->
<g id="edge26" class="edge"><title>Node21&#45;&gt;Node8</title>
<path fill="none" stroke="midnightblue" d="M250.682,-129.849C300.457,-121.389 380.32,-106.357 447.733,-87 450.376,-86.2412 453.095,-85.3875 455.809,-84.4838"/>
<polygon fill="midnightblue" stroke="midnightblue" points="457.208,-87.7019 465.473,-81.0731 454.878,-81.1009 457.208,-87.7019"/>
</g>
<!-- Node21&#45;&gt;Node9 -->
<g id="edge27" class="edge"><title>Node21&#45;&gt;Node9</title>
<path fill="none" stroke="midnightblue" d="M210.414,-128.938C226.502,-111.655 265.745,-72.813 307.733,-56 382.662,-25.9968 630.859,-14.9499 718.091,-11.9377"/>
<polygon fill="midnightblue" stroke="midnightblue" points="718.264,-15.434 728.142,-11.6019 718.03,-8.43788 718.264,-15.434"/>
</g>
<!-- Node21&#45;&gt;Node10 -->
<g id="edge29" class="edge"><title>Node21&#45;&gt;Node10</title>
<path fill="none" stroke="midnightblue" d="M250.3,-132.76C337.737,-124.007 529.887,-104.596 691.733,-87 716.413,-84.3168 743.775,-81.2098 766.762,-78.5618"/>
<polygon fill="midnightblue" stroke="midnightblue" points="767.457,-82.0047 776.99,-77.3806 766.654,-75.051 767.457,-82.0047"/>
</g>
<!-- Node21&#45;&gt;Node15 -->
<g id="edge24" class="edge"><title>Node21&#45;&gt;Node15</title>
<path fill="none" stroke="midnightblue" d="M221.855,-128.869C246.492,-117.748 289.539,-98.3167 318.091,-85.4286"/>
<polygon fill="midnightblue" stroke="midnightblue" points="319.857,-88.4715 327.532,-81.1672 316.978,-82.0914 319.857,-88.4715"/>
</g>
<!-- Node21&#45;&gt;Node16 -->
<g id="edge30" class="edge"><title>Node21&#45;&gt;Node16</title>
<path fill="none" stroke="midnightblue" d="M239.861,-128.987C277.017,-120.052 335.568,-104.839 384.733,-87 386.349,-86.4136 387.997,-85.7806 389.651,-85.1182"/>
<polygon fill="midnightblue" stroke="midnightblue" points="391.175,-88.2734 398.995,-81.1258 388.424,-81.8363 391.175,-88.2734"/>
</g>
<!-- Node21&#45;&gt;Node19 -->
<g id="edge23" class="edge"><title>Node21&#45;&gt;Node19</title>
<path fill="none" stroke="midnightblue" d="M209.622,-128.829C216.76,-119.24 227.46,-103.021 231.733,-87 236.935,-67.4947 231.814,-44.5332 226.744,-28.9936"/>
<polygon fill="midnightblue" stroke="midnightblue" points="230.032,-27.7933 223.37,-19.5548 223.44,-30.1494 230.032,-27.7933"/>
</g>
<!-- Node21&#45;&gt;Node20 -->
<g id="edge28" class="edge"><title>Node21&#45;&gt;Node20</title>
<path fill="none" stroke="midnightblue" d="M182.814,-128.869C157.039,-117.699 111.918,-98.1468 82.1797,-85.2602"/>
<polygon fill="midnightblue" stroke="midnightblue" points="83.3016,-81.9319 72.7344,-81.1672 80.5183,-88.3548 83.3016,-81.9319"/>
</g>
<!-- Node22 -->
<g id="node22" class="node"><title>Node22</title>
<polygon fill="none" stroke="#bfbfbf" points="170.733,-62 170.733,-81 222.733,-81 222.733,-62 170.733,-62"/>
<text text-anchor="middle" x="196.733" y="-69" font-family="Helvetica,sans-Serif" font-size="10.00">memory</text>
</g>
<!-- Node21&#45;&gt;Node22 -->
<g id="edge25" class="edge"><title>Node21&#45;&gt;Node22</title>
<path fill="none" stroke="midnightblue" d="M201.924,-128.734C201.042,-119.183 199.606,-103.618 198.467,-91.2829"/>
<polygon fill="midnightblue" stroke="midnightblue" points="201.934,-90.7632 197.53,-81.1273 194.964,-91.4067 201.934,-90.7632"/>
</g>
<!-- Node23 -->
<g id="node23" class="node"><title>Node23</title>
<g id="a_node23"><a xlink:href="color_8hpp.html" target="_top" xlink:title="color.hpp">
<polygon fill="none" stroke="black" points="96.7331,-62 96.7331,-81 152.733,-81 152.733,-62 96.7331,-62"/>
<text text-anchor="middle" x="124.733" y="-69" font-family="Helvetica,sans-Serif" font-size="10.00">color.hpp</text>
</a>
</g>
</g>
<!-- Node21&#45;&gt;Node23 -->
<g id="edge31" class="edge"><title>Node21&#45;&gt;Node23</title>
<path fill="none" stroke="midnightblue" d="M192.214,-128.734C179.583,-118.208 158.188,-100.379 142.874,-87.6174"/>
<polygon fill="midnightblue" stroke="midnightblue" points="145.009,-84.8404 135.086,-81.1273 140.527,-90.218 145.009,-84.8404"/>
</g>
<!-- Node23&#45;&gt;Node9 -->
<g id="edge35" class="edge"><title>Node23&#45;&gt;Node9</title>
<path fill="none" stroke="midnightblue" d="M143.594,-61.8639C149.31,-59.5888 155.68,-57.3854 161.733,-56 269.267,-31.3877 612.81,-16.287 717.897,-12.1567"/>
<polygon fill="midnightblue" stroke="midnightblue" points="718.28,-15.6446 728.136,-11.7595 718.008,-8.64986 718.28,-15.6446"/>
</g>
<!-- Node23&#45;&gt;Node19 -->
<g id="edge33" class="edge"><title>Node23&#45;&gt;Node19</title>
<path fill="none" stroke="midnightblue" d="M138.344,-61.9751C153.794,-52.2989 179.223,-36.3721 197.549,-24.8941"/>
<polygon fill="midnightblue" stroke="midnightblue" points="199.53,-27.7834 206.147,-19.5091 195.814,-21.8509 199.53,-27.7834"/>
</g>
<!-- Node24 -->
<g id="node24" class="node"><title>Node24</title>
<polygon fill="none" stroke="#bfbfbf" points="53.7331,-0.5 53.7331,-19.5 99.7331,-19.5 99.7331,-0.5 53.7331,-0.5"/>
<text text-anchor="middle" x="76.7331" y="-7.5" font-family="Helvetica,sans-Serif" font-size="10.00">cctype</text>
</g>
<!-- Node23&#45;&gt;Node24 -->
<g id="edge32" class="edge"><title>Node23&#45;&gt;Node24</title>
<path fill="none" stroke="midnightblue" d="M117.856,-61.9751C110.585,-52.9617 98.9378,-38.5246 89.8923,-27.3118"/>
<polygon fill="midnightblue" stroke="midnightblue" points="92.6006,-25.0946 83.5976,-19.5091 87.1524,-29.4898 92.6006,-25.0946"/>
</g>
<!-- Node25 -->
<g id="node25" class="node"><title>Node25</title>
<polygon fill="none" stroke="#bfbfbf" points="118.233,-0.5 118.233,-19.5 163.233,-19.5 163.233,-0.5 118.233,-0.5"/>
<text text-anchor="middle" x="140.733" y="-7.5" font-family="Helvetica,sans-Serif" font-size="10.00">cstdlib</text>
</g>
<!-- Node23&#45;&gt;Node25 -->
<g id="edge34" class="edge"><title>Node23&#45;&gt;Node25</title>
<path fill="none" stroke="midnightblue" d="M127.026,-61.9751C129.307,-53.4919 132.88,-40.2043 135.806,-29.3222"/>
<polygon fill="midnightblue" stroke="midnightblue" points="139.228,-30.0749 138.445,-19.5091 132.468,-28.2571 139.228,-30.0749"/>
</g>
<!-- Node26&#45;&gt;Node5 -->
<g id="edge39" class="edge"><title>Node26&#45;&gt;Node5</title>
<path fill="none" stroke="midnightblue" d="M652.741,-190.422C692.393,-182.534 750.941,-169.698 800.733,-154 803.01,-153.282 805.347,-152.485 807.683,-151.645"/>
<polygon fill="midnightblue" stroke="midnightblue" points="809.035,-154.875 817.128,-148.036 806.537,-148.336 809.035,-154.875"/>
</g>
<!-- Node26&#45;&gt;Node8 -->
<g id="edge40" class="edge"><title>Node26&#45;&gt;Node8</title>
<path fill="none" stroke="midnightblue" d="M603.509,-190.149C597.653,-174.998 584.063,-143.727 564.733,-123 550.293,-107.516 530.158,-94.636 513.963,-85.759"/>
<polygon fill="midnightblue" stroke="midnightblue" points="515.433,-82.5775 504.956,-81.0056 512.166,-88.7683 515.433,-82.5775"/>
</g>
<!-- Node26&#45;&gt;Node9 -->
<g id="edge41" class="edge"><title>Node26&#45;&gt;Node9</title>
<path fill="none" stroke="midnightblue" d="M655.805,-193.262C681.729,-187.599 711.805,-176.348 729.733,-154 758.648,-117.955 755.753,-59.5856 751.881,-29.7952"/>
<polygon fill="midnightblue" stroke="midnightblue" points="755.292,-28.9381 750.359,-19.5616 748.368,-29.9677 755.292,-28.9381"/>
</g>
<!-- Node26&#45;&gt;Node10 -->
<g id="edge42" class="edge"><title>Node26&#45;&gt;Node10</title>
<path fill="none" stroke="midnightblue" d="M647.634,-190.492C687.372,-181.649 744.329,-167.273 762.733,-154 785.525,-137.563 802.066,-108.825 811.031,-90.2374"/>
<polygon fill="midnightblue" stroke="midnightblue" points="814.235,-91.6462 815.223,-81.0976 807.873,-88.7274 814.235,-91.6462"/>
</g>
<!-- Node26&#45;&gt;Node21 -->
<g id="edge49" class="edge"><title>Node26&#45;&gt;Node21</title>
<path fill="none" stroke="midnightblue" d="M557.599,-191.764C482.733,-180.738 340.404,-159.776 260.629,-148.027"/>
<polygon fill="midnightblue" stroke="midnightblue" points="260.678,-144.496 250.274,-146.502 259.658,-151.422 260.678,-144.496"/>
</g>
<!-- Node27 -->
<g id="node27" class="node"><title>Node27</title>
<polygon fill="none" stroke="#bfbfbf" points="382.733,-129 382.733,-148 432.733,-148 432.733,-129 382.733,-129"/>
<text text-anchor="middle" x="407.733" y="-136" font-family="Helvetica,sans-Serif" font-size="10.00">iomanip</text>
</g>
<!-- Node26&#45;&gt;Node27 -->
<g id="edge37" class="edge"><title>Node26&#45;&gt;Node27</title>
<path fill="none" stroke="midnightblue" d="M569.921,-190.494C536.19,-182.339 485.062,-169.068 441.733,-154 439.869,-153.352 437.963,-152.65 436.051,-151.917"/>
<polygon fill="midnightblue" stroke="midnightblue" points="437.197,-148.605 426.615,-148.094 434.569,-155.093 437.197,-148.605"/>
</g>
<!-- Node28 -->
<g id="node28" class="node"><title>Node28</title>
<polygon fill="none" stroke="#bfbfbf" points="560.733,-62 560.733,-81 614.733,-81 614.733,-62 560.733,-62"/>
<text text-anchor="middle" x="587.733" y="-69" font-family="Helvetica,sans-Serif" font-size="10.00">iostream</text>
</g>
<!-- Node26&#45;&gt;Node28 -->
<g id="edge38" class="edge"><title>Node26&#45;&gt;Node28</title>
<path fill="none" stroke="midnightblue" d="M606.112,-190.066C605.049,-175.819 602.615,-147.101 598.733,-123 597.01,-112.303 594.466,-100.462 592.257,-90.9357"/>
<polygon fill="midnightblue" stroke="midnightblue" points="595.617,-89.9365 589.889,-81.0235 588.809,-91.5631 595.617,-89.9365"/>
</g>
<!-- Node29 -->
<g id="node29" class="node"><title>Node29</title>
<polygon fill="none" stroke="#bfbfbf" points="451.233,-123.5 451.233,-153.5 556.233,-153.5 556.233,-123.5 451.233,-123.5"/>
<text text-anchor="start" x="459.233" y="-141.5" font-family="Helvetica,sans-Serif" font-size="10.00">boost/chrono/io/time</text>
<text text-anchor="middle" x="503.733" y="-130.5" font-family="Helvetica,sans-Serif" font-size="10.00">_point_io.hpp</text>
</g>
<!-- Node26&#45;&gt;Node29 -->
<g id="edge43" class="edge"><title>Node26&#45;&gt;Node29</title>
<path fill="none" stroke="midnightblue" d="M591.976,-190.475C577.635,-182.191 555.362,-169.325 536.782,-158.591"/>
<polygon fill="midnightblue" stroke="midnightblue" points="538.418,-155.494 528.008,-153.523 534.917,-161.556 538.418,-155.494"/>
</g>
<!-- Node30 -->
<g id="node30" class="node"><title>Node30</title>
<g id="a_node30"><a xlink:href="multibuf_8hpp.html" target="_top" xlink:title="multibuf.hpp">
<polygon fill="none" stroke="black" points="650.733,-129 650.733,-148 720.733,-148 720.733,-129 650.733,-129"/>
<text text-anchor="middle" x="685.733" y="-136" font-family="Helvetica,sans-Serif" font-size="10.00">multibuf.hpp</text>
</a>
</g>
</g>
<!-- Node26&#45;&gt;Node30 -->
<g id="edge44" class="edge"><title>Node26&#45;&gt;Node30</title>
<path fill="none" stroke="midnightblue" d="M618.052,-190.475C630.606,-181.02 651.085,-165.596 666.233,-154.187"/>
<polygon fill="midnightblue" stroke="midnightblue" points="668.553,-156.821 674.435,-148.009 664.342,-151.23 668.553,-156.821"/>
</g>
<!-- Node26&#45;&gt;Node32 -->
<g id="edge50" class="edge"><title>Node26&#45;&gt;Node32</title>
<path fill="none" stroke="midnightblue" d="M655.762,-191.343C730.087,-179.736 870.234,-157.85 942.342,-146.589"/>
<polygon fill="midnightblue" stroke="midnightblue" points="943.131,-150.008 952.471,-145.007 942.051,-143.092 943.131,-150.008"/>
</g>
<!-- Node30&#45;&gt;Node9 -->
<g id="edge48" class="edge"><title>Node30&#45;&gt;Node9</title>
<path fill="none" stroke="midnightblue" d="M690.063,-128.805C700.269,-108.313 726.001,-56.6451 739.748,-29.0416"/>
<polygon fill="midnightblue" stroke="midnightblue" points="743.048,-30.2674 744.373,-19.7557 736.782,-27.1467 743.048,-30.2674"/>
</g>
<!-- Node30&#45;&gt;Node16 -->
<g id="edge47" class="edge"><title>Node30&#45;&gt;Node16</title>
<path fill="none" stroke="midnightblue" d="M650.381,-132.585C603.304,-125.459 517.823,-110.484 447.733,-87 446.068,-86.442 444.373,-85.8195 442.679,-85.1548"/>
<polygon fill="midnightblue" stroke="midnightblue" points="443.746,-81.8028 433.179,-81.0427 440.966,-88.2269 443.746,-81.8028"/>
</g>
<!-- Node30&#45;&gt;Node28 -->
<g id="edge45" class="edge"><title>Node30&#45;&gt;Node28</title>
<path fill="none" stroke="midnightblue" d="M672.516,-128.734C656.279,-117.964 628.516,-99.55 609.202,-86.7395"/>
<polygon fill="midnightblue" stroke="midnightblue" points="611.009,-83.738 600.74,-81.1273 607.139,-89.5715 611.009,-83.738"/>
</g>
<!-- Node31 -->
<g id="node31" class="node"><title>Node31</title>
<polygon fill="none" stroke="#bfbfbf" points="632.733,-62 632.733,-81 682.733,-81 682.733,-62 632.733,-62"/>
<text text-anchor="middle" x="657.733" y="-69" font-family="Helvetica,sans-Serif" font-size="10.00">fstream</text>
</g>
<!-- Node30&#45;&gt;Node31 -->
<g id="edge46" class="edge"><title>Node30&#45;&gt;Node31</title>
<path fill="none" stroke="midnightblue" d="M681.957,-128.734C677.759,-118.988 670.863,-102.981 665.501,-90.5318"/>
<polygon fill="midnightblue" stroke="midnightblue" points="668.62,-88.9267 661.45,-81.1273 662.191,-91.6961 668.62,-88.9267"/>
</g>
<!-- Node32&#45;&gt;Node9 -->
<g id="edge51" class="edge"><title>Node32&#45;&gt;Node9</title>
<path fill="none" stroke="midnightblue" d="M981.233,-128.968C968.177,-112.422 937.067,-75.8563 902.733,-56 863.523,-33.3232 811.987,-21.2982 779.606,-15.5427"/>
<polygon fill="midnightblue" stroke="midnightblue" points="779.847,-12.0341 769.404,-13.8249 778.684,-18.9369 779.847,-12.0341"/>
</g>
<!-- Node32&#45;&gt;Node10 -->
<g id="edge53" class="edge"><title>Node32&#45;&gt;Node10</title>
<path fill="none" stroke="midnightblue" d="M965.291,-128.869C935.917,-117.571 884.243,-97.6961 850.761,-84.8183"/>
<polygon fill="midnightblue" stroke="midnightblue" points="851.589,-81.3868 840.999,-81.0637 849.076,-87.9202 851.589,-81.3868"/>
</g>
<!-- Node32&#45;&gt;Node19 -->
<g id="edge52" class="edge"><title>Node32&#45;&gt;Node19</title>
<path fill="none" stroke="midnightblue" d="M971.131,-128.943C953.526,-119.575 925.214,-103.657 902.733,-87 886.303,-74.8259 887.534,-64.0433 868.733,-56 811.914,-31.692 377.856,-16.0556 253.143,-12.0312"/>
<polygon fill="midnightblue" stroke="midnightblue" points="253.151,-8.52976 243.044,-11.709 252.927,-15.5262 253.151,-8.52976"/>
</g>
<!-- Node33 -->
<g id="node33" class="node"><title>Node33</title>
<polygon fill="none" stroke="#bfbfbf" points="955.233,-56.5 955.233,-86.5 1056.23,-86.5 1056.23,-56.5 955.233,-56.5"/>
<text text-anchor="start" x="963.233" y="-74.5" font-family="Helvetica,sans-Serif" font-size="10.00">boost/property_tree</text>
<text text-anchor="middle" x="1005.73" y="-63.5" font-family="Helvetica,sans-Serif" font-size="10.00">/ptree.hpp</text>
</g>
<!-- Node32&#45;&gt;Node33 -->
<g id="edge54" class="edge"><title>Node32&#45;&gt;Node33</title>
<path fill="none" stroke="midnightblue" d="M990.161,-128.734C992.453,-120.456 995.996,-107.662 999.124,-96.3674"/>
<polygon fill="midnightblue" stroke="midnightblue" points="1002.54,-97.1604 1001.83,-86.589 995.79,-95.2922 1002.54,-97.1604"/>
</g>
<!-- Node34&#45;&gt;Node5 -->
<g id="edge58" class="edge"><title>Node34&#45;&gt;Node5</title>
<path fill="none" stroke="midnightblue" d="M508.41,-302.498C545.737,-282.336 642.946,-230.295 725.733,-190 753.26,-176.602 785.105,-162.227 807.607,-152.254"/>
<polygon fill="midnightblue" stroke="midnightblue" points="809.205,-155.375 816.939,-148.133 806.377,-148.971 809.205,-155.375"/>
</g>
<!-- Node34&#45;&gt;Node6 -->
<g id="edge59" class="edge"><title>Node34&#45;&gt;Node6</title>
<path fill="none" stroke="midnightblue" d="M491.518,-302.381C490.258,-293.33 488.261,-278.677 486.733,-266 484.864,-250.486 482.981,-232.86 481.639,-219.88"/>
<polygon fill="midnightblue" stroke="midnightblue" points="485.112,-219.432 480.614,-209.839 478.148,-220.143 485.112,-219.432"/>
</g>
<!-- Node34&#45;&gt;Node10 -->
<g id="edge61" class="edge"><title>Node34&#45;&gt;Node10</title>
<path fill="none" stroke="midnightblue" d="M515.507,-302.459C538.97,-293.59 576.555,-279.193 608.733,-266 615.986,-263.026 863.429,-160.551 867.733,-154 882.647,-131.303 858.162,-104.123 838.753,-87.5935"/>
<polygon fill="midnightblue" stroke="midnightblue" points="840.848,-84.7856 830.876,-81.2055 836.439,-90.2226 840.848,-84.7856"/>
</g>
<!-- Node34&#45;&gt;Node12 -->
<g id="edge62" class="edge"><title>Node34&#45;&gt;Node12</title>
<path fill="none" stroke="midnightblue" d="M468.331,-302.444C442.537,-293.399 401.657,-279.064 372.715,-268.916"/>
<polygon fill="midnightblue" stroke="midnightblue" points="373.616,-265.523 363.021,-265.516 371.299,-272.128 373.616,-265.523"/>
</g>
<!-- Node34&#45;&gt;Node13 -->
<g id="edge56" class="edge"><title>Node34&#45;&gt;Node13</title>
<path fill="none" stroke="midnightblue" d="M447.771,-306.388C390.456,-299.781 295.356,-286.153 266.733,-266 250.628,-254.66 240.023,-234.362 233.993,-219.456"/>
<polygon fill="midnightblue" stroke="midnightblue" points="237.156,-217.92 230.397,-209.761 230.593,-220.354 237.156,-217.92"/>
</g>
<!-- Node34&#45;&gt;Node14 -->
<g id="edge57" class="edge"><title>Node34&#45;&gt;Node14</title>
<path fill="none" stroke="midnightblue" d="M484.886,-302.368C468.164,-283.974 428.798,-240.671 407.326,-217.052"/>
<polygon fill="midnightblue" stroke="midnightblue" points="409.86,-214.636 400.544,-209.591 404.68,-219.345 409.86,-214.636"/>
</g>
<!-- Node34&#45;&gt;Node17 -->
<g id="edge64" class="edge"><title>Node34&#45;&gt;Node17</title>
<path fill="none" stroke="midnightblue" d="M448.128,-303.378C390.392,-293.511 289.96,-276.349 228.797,-265.897"/>
<polygon fill="midnightblue" stroke="midnightblue" points="229.039,-262.388 218.592,-264.153 227.86,-269.288 229.039,-262.388"/>
</g>
<!-- Node34&#45;&gt;Node32 -->
<g id="edge63" class="edge"><title>Node34&#45;&gt;Node32</title>
<path fill="none" stroke="midnightblue" d="M528.119,-302.438C561.738,-294.048 613.568,-280.448 657.733,-266 770.234,-229.198 900.58,-176.025 957.988,-152.054"/>
<polygon fill="midnightblue" stroke="midnightblue" points="959.648,-155.153 967.52,-148.062 956.944,-148.697 959.648,-155.153"/>
</g>
<!-- Node35 -->
<g id="node35" class="node"><title>Node35</title>
<polygon fill="none" stroke="#bfbfbf" points="495.733,-246.5 495.733,-265.5 539.733,-265.5 539.733,-246.5 495.733,-246.5"/>
<text text-anchor="middle" x="517.733" y="-253.5" font-family="Helvetica,sans-Serif" font-size="10.00">thread</text>
</g>
<!-- Node34&#45;&gt;Node35 -->
<g id="edge60" class="edge"><title>Node34&#45;&gt;Node35</title>
<path fill="none" stroke="midnightblue" d="M496.861,-302.083C500.247,-294.77 505.149,-284.181 509.352,-275.103"/>
<polygon fill="midnightblue" stroke="midnightblue" points="512.657,-276.296 513.682,-265.751 506.304,-273.355 512.657,-276.296"/>
</g>
<!-- Node36&#45;&gt;Node3 -->
<g id="edge69" class="edge"><title>Node36&#45;&gt;Node3</title>
<path fill="none" stroke="midnightblue" d="M1119.97,-358.324C1109.97,-350.263 1094.85,-338.077 1082.8,-328.369"/>
<polygon fill="midnightblue" stroke="midnightblue" points="1084.68,-325.384 1074.69,-321.834 1080.28,-330.834 1084.68,-325.384"/>
</g>
<!-- Node36&#45;&gt;Node7 -->
<g id="edge71" class="edge"><title>Node36&#45;&gt;Node7</title>
<path fill="none" stroke="midnightblue" d="M1130.73,-358.083C1130.73,-351.006 1130.73,-340.861 1130.73,-331.986"/>
<polygon fill="midnightblue" stroke="midnightblue" points="1134.23,-331.751 1130.73,-321.751 1127.23,-331.751 1134.23,-331.751"/>
</g>
<!-- Node36&#45;&gt;Node9 -->
<g id="edge73" class="edge"><title>Node36&#45;&gt;Node9</title>
<path fill="none" stroke="midnightblue" d="M1175.2,-358.449C1197.69,-351.978 1223.74,-340.854 1240.73,-322 1260.88,-299.641 1259.73,-287.098 1259.73,-257 1259.73,-257 1259.73,-257 1259.73,-137.5 1259.73,-37.9961 890.03,-16.2432 779.549,-11.9641"/>
<polygon fill="midnightblue" stroke="midnightblue" points="779.519,-8.4608 769.398,-11.5926 779.263,-15.4561 779.519,-8.4608"/>
</g>
<!-- Node36&#45;&gt;Node20 -->
<g id="edge72" class="edge"><title>Node36&#45;&gt;Node20</title>
<path fill="none" stroke="midnightblue" d="M1065.15,-365.184C942,-361.232 667.898,-349.863 438.733,-322 298.446,-304.944 248.401,-336.171 125.733,-266 74.5749,-236.736 66.8532,-211.677 54.7331,-154 50.2872,-132.843 50.4348,-107.917 51.2771,-91.2533"/>
<polygon fill="midnightblue" stroke="midnightblue" points="54.7756,-91.388 51.9233,-81.1843 47.7899,-90.9396 54.7756,-91.388"/>
</g>
<!-- Node37 -->
<g id="node37" class="node"><title>Node37</title>
<polygon fill="none" stroke="#bfbfbf" points="1288.23,-302.5 1288.23,-321.5 1335.23,-321.5 1335.23,-302.5 1288.23,-302.5"/>
<text text-anchor="middle" x="1311.73" y="-309.5" font-family="Helvetica,sans-Serif" font-size="10.00">iterator</text>
</g>
<!-- Node36&#45;&gt;Node37 -->
<g id="edge70" class="edge"><title>Node36&#45;&gt;Node37</title>
<path fill="none" stroke="midnightblue" d="M1159.41,-358.444C1191.66,-348.822 1243.98,-333.215 1278.12,-323.028"/>
<polygon fill="midnightblue" stroke="midnightblue" points="1279.51,-326.267 1288.09,-320.054 1277.51,-319.559 1279.51,-326.267"/>
</g>
<!-- Node38 -->
<g id="node38" class="node"><title>Node38</title>
<polygon fill="none" stroke="#bfbfbf" points="1169.73,-302.5 1169.73,-321.5 1231.73,-321.5 1231.73,-302.5 1169.73,-302.5"/>
<text text-anchor="middle" x="1200.73" y="-309.5" font-family="Helvetica,sans-Serif" font-size="10.00">type_traits</text>
</g>
<!-- Node36&#45;&gt;Node38 -->
<g id="edge74" class="edge"><title>Node36&#45;&gt;Node38</title>
<path fill="none" stroke="midnightblue" d="M1141.98,-358.324C1152.53,-350.185 1168.53,-337.839 1181.18,-328.087"/>
<polygon fill="midnightblue" stroke="midnightblue" points="1183.5,-330.713 1189.28,-321.834 1179.23,-325.171 1183.5,-330.713"/>
</g>
</g>
</svg>
