<?xml version="1.0" encoding="UTF-8" standalone="no"?>
<!DOCTYPE svg PUBLIC "-//W3C//DTD SVG 1.1//EN"
 "http://www.w3.org/Graphics/SVG/1.1/DTD/svg11.dtd">
<!-- Generated by graphviz version 2.38.0 (20140413.2041)
 -->
<!-- Title: src/network/irc.hpp Pages: 1 -->
<svg width="1372pt" height="386pt"
 viewBox="0.00 0.00 1372.00 386.00" xmlns="http://www.w3.org/2000/svg" xmlns:xlink="http://www.w3.org/1999/xlink">
<g id="graph0" class="graph" transform="scale(1 1) rotate(0) translate(4 382)">
<title>src/network/irc.hpp</title>
<!-- Node1 -->
<g id="node1" class="node"><title>Node1</title>
<polygon fill="#bfbfbf" stroke="black" points="515,-358.5 515,-377.5 615,-377.5 615,-358.5 515,-358.5"/>
<text text-anchor="middle" x="565" y="-365.5" font-family="Helvetica,sans-Serif" font-size="10.00">src/network/irc.hpp</text>
</g>
<!-- Node2 -->
<g id="node2" class="node"><title>Node2</title>
<polygon fill="none" stroke="#bfbfbf" points="0,-302.5 0,-321.5 56,-321.5 56,-302.5 0,-302.5"/>
<text text-anchor="middle" x="28" y="-309.5" font-family="Helvetica,sans-Serif" font-size="10.00">algorithm</text>
</g>
<!-- Node1&#45;&gt;Node2 -->
<g id="edge1" class="edge"><title>Node1&#45;&gt;Node2</title>
<path fill="none" stroke="midnightblue" d="M514.894,-365.078C426.102,-361.112 235.254,-350.069 66.282,-322.18"/>
<polygon fill="midnightblue" stroke="midnightblue" points="66.6519,-318.693 56.2111,-320.493 65.4955,-325.597 66.6519,-318.693"/>
</g>
<!-- Node3 -->
<g id="node3" class="node"><title>Node3</title>
<polygon fill="none" stroke="#bfbfbf" points="73.5,-302.5 73.5,-321.5 102.5,-321.5 102.5,-302.5 73.5,-302.5"/>
<text text-anchor="middle" x="88" y="-309.5" font-family="Helvetica,sans-Serif" font-size="10.00">list</text>
</g>
<!-- Node1&#45;&gt;Node3 -->
<g id="edge2" class="edge"><title>Node1&#45;&gt;Node3</title>
<path fill="none" stroke="midnightblue" d="M514.789,-365.242C431.416,-361.592 259.482,-350.959 117,-322 115.515,-321.698 113.997,-321.351 112.474,-320.971"/>
<polygon fill="midnightblue" stroke="midnightblue" points="113.181,-317.534 102.604,-318.159 111.262,-324.266 113.181,-317.534"/>
</g>
<!-- Node4 -->
<g id="node4" class="node"><title>Node4</title>
<polygon fill="none" stroke="#bfbfbf" points="793,-129 793,-148 837,-148 837,-129 793,-129"/>
<text text-anchor="middle" x="815" y="-136" font-family="Helvetica,sans-Serif" font-size="10.00">mutex</text>
</g>
<!-- Node1&#45;&gt;Node4 -->
<g id="edge3" class="edge"><title>Node1&#45;&gt;Node4</title>
<path fill="none" stroke="midnightblue" d="M572.619,-358.342C596.297,-331.673 671.256,-249.02 742,-190 758.071,-176.592 777.636,-163.197 792.464,-153.575"/>
<polygon fill="midnightblue" stroke="midnightblue" points="794.475,-156.444 801.012,-148.106 790.702,-150.548 794.475,-156.444"/>
</g>
<!-- Node5 -->
<g id="node5" class="node"><title>Node5</title>
<polygon fill="none" stroke="#bfbfbf" points="1196.5,-190.5 1196.5,-209.5 1239.5,-209.5 1239.5,-190.5 1196.5,-190.5"/>
<text text-anchor="middle" x="1218" y="-197.5" font-family="Helvetica,sans-Serif" font-size="10.00">queue</text>
</g>
<!-- Node1&#45;&gt;Node5 -->
<g id="edge4" class="edge"><title>Node1&#45;&gt;Node5</title>
<path fill="none" stroke="midnightblue" d="M615.153,-363.967C743.08,-355.402 1077.8,-327.545 1168,-266 1185.77,-253.873 1199.99,-233.412 1208.65,-218.683"/>
<polygon fill="midnightblue" stroke="midnightblue" points="1211.92,-220.012 1213.74,-209.574 1205.8,-216.599 1211.92,-220.012"/>
</g>
<!-- Node6 -->
<g id="node6" class="node"><title>Node6</title>
<polygon fill="none" stroke="#bfbfbf" points="1224.5,-302.5 1224.5,-321.5 1265.5,-321.5 1265.5,-302.5 1224.5,-302.5"/>
<text text-anchor="middle" x="1245" y="-309.5" font-family="Helvetica,sans-Serif" font-size="10.00">regex</text>
</g>
<!-- Node1&#45;&gt;Node6 -->
<g id="edge5" class="edge"><title>Node1&#45;&gt;Node6</title>
<path fill="none" stroke="midnightblue" d="M615.125,-366.598C724.073,-365.05 990.328,-357.602 1210,-322 1211.47,-321.762 1212.97,-321.49 1214.48,-321.193"/>
<polygon fill="midnightblue" stroke="midnightblue" points="1215.42,-324.57 1224.4,-318.96 1213.88,-317.741 1215.42,-324.57"/>
</g>
<!-- Node7 -->
<g id="node7" class="node"><title>Node7</title>
<polygon fill="none" stroke="#bfbfbf" points="393.5,-62 393.5,-81 452.5,-81 452.5,-62 393.5,-62"/>
<text text-anchor="middle" x="423" y="-69" font-family="Helvetica,sans-Serif" font-size="10.00">stdexcept</text>
</g>
<!-- Node1&#45;&gt;Node7 -->
<g id="edge6" class="edge"><title>Node1&#45;&gt;Node7</title>
<path fill="none" stroke="midnightblue" d="M514.845,-362.164C416.318,-351.271 207,-320.639 207,-257 207,-257 207,-257 207,-199 207,-164.183 201.454,-147.693 226,-123 247.832,-101.038 332.24,-85.4625 383.218,-77.833"/>
<polygon fill="midnightblue" stroke="midnightblue" points="383.856,-81.2769 393.246,-76.3698 382.846,-74.3503 383.856,-81.2769"/>
</g>
<!-- Node8 -->
<g id="node8" class="node"><title>Node8</title>
<polygon fill="none" stroke="#bfbfbf" points="469.5,-0.5 469.5,-19.5 510.5,-19.5 510.5,-0.5 469.5,-0.5"/>
<text text-anchor="middle" x="490" y="-7.5" font-family="Helvetica,sans-Serif" font-size="10.00">string</text>
</g>
<!-- Node1&#45;&gt;Node8 -->
<g id="edge7" class="edge"><title>Node1&#45;&gt;Node8</title>
<path fill="none" stroke="midnightblue" d="M514.791,-364.838C400.548,-358.551 131,-335.41 131,-257 131,-257 131,-257 131,-137.5 131,-95.2351 144.806,-79.4026 180,-56 225.458,-25.7728 390.267,-15.2801 459.276,-12.1593"/>
<polygon fill="midnightblue" stroke="midnightblue" points="459.656,-15.6463 469.497,-11.7198 459.355,-8.65277 459.656,-15.6463"/>
</g>
<!-- Node9 -->
<g id="node9" class="node"><title>Node9</title>
<polygon fill="none" stroke="#bfbfbf" points="470.5,-62 470.5,-81 553.5,-81 553.5,-62 470.5,-62"/>
<text text-anchor="middle" x="512" y="-69" font-family="Helvetica,sans-Serif" font-size="10.00">unordered_map</text>
</g>
<!-- Node1&#45;&gt;Node9 -->
<g id="edge8" class="edge"><title>Node1&#45;&gt;Node9</title>
<path fill="none" stroke="midnightblue" d="M553.835,-358.382C520.853,-332.122 424.046,-249.071 390,-154 385.355,-141.029 382.344,-134.455 390,-123 399.511,-108.769 439.442,-93.9564 471.065,-84.0834"/>
<polygon fill="midnightblue" stroke="midnightblue" points="472.446,-87.3215 480.992,-81.0584 470.406,-80.6256 472.446,-87.3215"/>
</g>
<!-- Node10 -->
<g id="node10" class="node"><title>Node10</title>
<polygon fill="none" stroke="#bfbfbf" points="1284,-302.5 1284,-321.5 1364,-321.5 1364,-302.5 1284,-302.5"/>
<text text-anchor="middle" x="1324" y="-309.5" font-family="Helvetica,sans-Serif" font-size="10.00">boost/asio.hpp</text>
</g>
<!-- Node1&#45;&gt;Node10 -->
<g id="edge9" class="edge"><title>Node1&#45;&gt;Node10</title>
<path fill="none" stroke="midnightblue" d="M615.115,-365.861C729.898,-362.814 1020.8,-352.603 1273.83,-321.993"/>
<polygon fill="midnightblue" stroke="midnightblue" points="1274.45,-325.444 1283.95,-320.755 1273.6,-318.495 1274.45,-325.444"/>
</g>
<!-- Node11 -->
<g id="node11" class="node"><title>Node11</title>
<g id="a_node11"><a xlink:href="concurrent__container_8hpp.html" target="_top" xlink:title="concurrent_container.hpp">
<polygon fill="none" stroke="black" points="1004,-246.5 1004,-265.5 1130,-265.5 1130,-246.5 1004,-246.5"/>
<text text-anchor="middle" x="1067" y="-253.5" font-family="Helvetica,sans-Serif" font-size="10.00">concurrent_container.hpp</text>
</a>
</g>
</g>
<!-- Node1&#45;&gt;Node11 -->
<g id="edge10" class="edge"><title>Node1&#45;&gt;Node11</title>
<path fill="none" stroke="midnightblue" d="M615.297,-366.409C688.019,-364.338 826.078,-355.814 938,-322 977.807,-309.973 1020.17,-286.256 1045.07,-271.039"/>
<polygon fill="midnightblue" stroke="midnightblue" points="1047.07,-273.915 1053.72,-265.665 1043.38,-267.97 1047.07,-273.915"/>
</g>
<!-- Node16 -->
<g id="node16" class="node"><title>Node16</title>
<g id="a_node16"><a xlink:href="connection_8hpp.html" target="_top" xlink:title="connection.hpp">
<polygon fill="none" stroke="black" points="764.5,-246.5 764.5,-265.5 847.5,-265.5 847.5,-246.5 764.5,-246.5"/>
<text text-anchor="middle" x="806" y="-253.5" font-family="Helvetica,sans-Serif" font-size="10.00">connection.hpp</text>
</a>
</g>
</g>
<!-- Node1&#45;&gt;Node16 -->
<g id="edge16" class="edge"><title>Node1&#45;&gt;Node16</title>
<path fill="none" stroke="midnightblue" d="M583.911,-358.368C626.146,-339.091 728.324,-292.454 777.98,-269.789"/>
<polygon fill="midnightblue" stroke="midnightblue" points="779.533,-272.928 787.177,-265.591 776.626,-266.56 779.533,-272.928"/>
</g>
<!-- Node25 -->
<g id="node25" class="node"><title>Node25</title>
<g id="a_node25"><a xlink:href="logger_8hpp.html" target="_top" xlink:title="../string/logger.hpp">
<polygon fill="none" stroke="black" points="516,-190.5 516,-209.5 614,-209.5 614,-190.5 516,-190.5"/>
<text text-anchor="middle" x="565" y="-197.5" font-family="Helvetica,sans-Serif" font-size="10.00">../string/logger.hpp</text>
</a>
</g>
</g>
<!-- Node1&#45;&gt;Node25 -->
<g id="edge65" class="edge"><title>Node1&#45;&gt;Node25</title>
<path fill="none" stroke="midnightblue" d="M565,-358.075C565,-331.945 565,-255.211 565,-219.577"/>
<polygon fill="midnightblue" stroke="midnightblue" points="568.5,-219.568 565,-209.568 561.5,-219.568 568.5,-219.568"/>
</g>
<!-- Node31 -->
<g id="node31" class="node"><title>Node31</title>
<g id="a_node31"><a xlink:href="settings_8hpp.html" target="_top" xlink:title="settings.hpp">
<polygon fill="none" stroke="black" points="235,-129 235,-148 305,-148 305,-129 235,-129"/>
<text text-anchor="middle" x="270" y="-136" font-family="Helvetica,sans-Serif" font-size="10.00">settings.hpp</text>
</a>
</g>
</g>
<!-- Node1&#45;&gt;Node31 -->
<g id="edge64" class="edge"><title>Node1&#45;&gt;Node31</title>
<path fill="none" stroke="midnightblue" d="M514.777,-359.793C483.959,-353.549 444.825,-342.205 415,-322 349.159,-277.396 298.955,-193.724 279.182,-157.252"/>
<polygon fill="midnightblue" stroke="midnightblue" points="282.204,-155.481 274.424,-148.289 276.021,-158.763 282.204,-155.481"/>
</g>
<!-- Node33 -->
<g id="node33" class="node"><title>Node33</title>
<g id="a_node33"><a xlink:href="melanobot_8hpp.html" target="_top" xlink:title="../melanobot.hpp">
<polygon fill="none" stroke="black" points="839.5,-302.5 839.5,-321.5 928.5,-321.5 928.5,-302.5 839.5,-302.5"/>
<text text-anchor="middle" x="884" y="-309.5" font-family="Helvetica,sans-Serif" font-size="10.00">../melanobot.hpp</text>
</a>
</g>
</g>
<!-- Node1&#45;&gt;Node33 -->
<g id="edge54" class="edge"><title>Node1&#45;&gt;Node33</title>
<path fill="none" stroke="midnightblue" d="M615.195,-358.503C673.496,-348.634 769.338,-332.41 829.44,-322.236"/>
<polygon fill="midnightblue" stroke="midnightblue" points="830.222,-325.653 839.498,-320.533 829.054,-318.751 830.222,-325.653"/>
</g>
<!-- Node11&#45;&gt;Node5 -->
<g id="edge14" class="edge"><title>Node11&#45;&gt;Node5</title>
<path fill="none" stroke="midnightblue" d="M1090.93,-246.444C1116.81,-237.186 1158.2,-222.387 1186.66,-212.207"/>
<polygon fill="midnightblue" stroke="midnightblue" points="1187.91,-215.478 1196.15,-208.815 1185.55,-208.887 1187.91,-215.478"/>
</g>
<!-- Node12 -->
<g id="node12" class="node"><title>Node12</title>
<polygon fill="none" stroke="#bfbfbf" points="942,-190.5 942,-209.5 988,-209.5 988,-190.5 942,-190.5"/>
<text text-anchor="middle" x="965" y="-197.5" font-family="Helvetica,sans-Serif" font-size="10.00">atomic</text>
</g>
<!-- Node11&#45;&gt;Node12 -->
<g id="edge11" class="edge"><title>Node11&#45;&gt;Node12</title>
<path fill="none" stroke="midnightblue" d="M1050.61,-246.324C1034.33,-237.703 1009.13,-224.364 990.284,-214.386"/>
<polygon fill="midnightblue" stroke="midnightblue" points="991.823,-211.24 981.347,-209.655 988.548,-217.427 991.823,-211.24"/>
</g>
<!-- Node13 -->
<g id="node13" class="node"><title>Node13</title>
<polygon fill="none" stroke="#bfbfbf" points="1006.5,-190.5 1006.5,-209.5 1101.5,-209.5 1101.5,-190.5 1006.5,-190.5"/>
<text text-anchor="middle" x="1054" y="-197.5" font-family="Helvetica,sans-Serif" font-size="10.00">condition_variable</text>
</g>
<!-- Node11&#45;&gt;Node13 -->
<g id="edge12" class="edge"><title>Node11&#45;&gt;Node13</title>
<path fill="none" stroke="midnightblue" d="M1064.85,-246.083C1063.13,-238.927 1060.65,-228.635 1058.5,-219.691"/>
<polygon fill="midnightblue" stroke="midnightblue" points="1061.85,-218.654 1056.11,-209.751 1055.04,-220.293 1061.85,-218.654"/>
</g>
<!-- Node14 -->
<g id="node14" class="node"><title>Node14</title>
<polygon fill="none" stroke="#bfbfbf" points="1102.5,-62 1102.5,-81 1161.5,-81 1161.5,-62 1102.5,-62"/>
<text text-anchor="middle" x="1132" y="-69" font-family="Helvetica,sans-Serif" font-size="10.00">functional</text>
</g>
<!-- Node11&#45;&gt;Node14 -->
<g id="edge13" class="edge"><title>Node11&#45;&gt;Node14</title>
<path fill="none" stroke="midnightblue" d="M1095.37,-246.495C1112.75,-239.653 1133.6,-228.13 1144,-210 1165.69,-172.203 1150.51,-118.718 1139.89,-90.9078"/>
<polygon fill="midnightblue" stroke="midnightblue" points="1143,-89.2472 1136.01,-81.287 1136.51,-91.87 1143,-89.2472"/>
</g>
<!-- Node15 -->
<g id="node15" class="node"><title>Node15</title>
<polygon fill="none" stroke="#bfbfbf" points="750,-62 750,-81 794,-81 794,-62 750,-62"/>
<text text-anchor="middle" x="772" y="-69" font-family="Helvetica,sans-Serif" font-size="10.00">vector</text>
</g>
<!-- Node11&#45;&gt;Node15 -->
<g id="edge15" class="edge"><title>Node11&#45;&gt;Node15</title>
<path fill="none" stroke="midnightblue" d="M1080.24,-246.363C1098.39,-233.487 1127.01,-208.763 1111,-190 1044.98,-112.629 978.086,-194.989 885,-154 864.736,-145.077 863.823,-136.138 846,-123 828.789,-110.313 808.724,-96.6897 793.833,-86.7939"/>
<polygon fill="midnightblue" stroke="midnightblue" points="795.574,-83.7493 785.301,-81.1557 791.715,-89.5892 795.574,-83.7493"/>
</g>
<!-- Node16&#45;&gt;Node12 -->
<g id="edge17" class="edge"><title>Node16&#45;&gt;Node12</title>
<path fill="none" stroke="midnightblue" d="M831.194,-246.444C858.572,-237.145 902.409,-222.257 932.395,-212.073"/>
<polygon fill="midnightblue" stroke="midnightblue" points="933.646,-215.345 941.989,-208.815 931.394,-208.717 933.646,-215.345"/>
</g>
<!-- Node17 -->
<g id="node17" class="node"><title>Node17</title>
<polygon fill="none" stroke="#bfbfbf" points="764,-190.5 764,-209.5 810,-209.5 810,-190.5 764,-190.5"/>
<text text-anchor="middle" x="787" y="-197.5" font-family="Helvetica,sans-Serif" font-size="10.00">chrono</text>
</g>
<!-- Node16&#45;&gt;Node17 -->
<g id="edge18" class="edge"><title>Node16&#45;&gt;Node17</title>
<path fill="none" stroke="midnightblue" d="M802.863,-246.083C800.317,-238.849 796.644,-228.409 793.473,-219.397"/>
<polygon fill="midnightblue" stroke="midnightblue" points="796.7,-218.023 790.079,-209.751 790.097,-220.346 796.7,-218.023"/>
</g>
<!-- Node18 -->
<g id="node18" class="node"><title>Node18</title>
<polygon fill="none" stroke="#bfbfbf" points="852,-0.5 852,-19.5 898,-19.5 898,-0.5 852,-0.5"/>
<text text-anchor="middle" x="875" y="-7.5" font-family="Helvetica,sans-Serif" font-size="10.00">cstdint</text>
</g>
<!-- Node16&#45;&gt;Node18 -->
<g id="edge19" class="edge"><title>Node16&#45;&gt;Node18</title>
<path fill="none" stroke="midnightblue" d="M823.913,-246.455C842.358,-237.583 871.872,-223.183 897,-210 913.208,-201.496 916.426,-197.767 933,-190 1037.37,-141.093 1108.9,-184.1 1171,-87 1178.42,-75.3929 1179.98,-66.4489 1171,-56 1168.86,-53.5057 984.938,-26.8068 908.125,-15.7516"/>
<polygon fill="midnightblue" stroke="midnightblue" points="908.424,-12.2586 898.028,-14.2996 907.428,-19.1874 908.424,-12.2586"/>
</g>
<!-- Node19 -->
<g id="node19" class="node"><title>Node19</title>
<polygon fill="none" stroke="#bfbfbf" points="1032,-62 1032,-81 1084,-81 1084,-62 1032,-62"/>
<text text-anchor="middle" x="1058" y="-69" font-family="Helvetica,sans-Serif" font-size="10.00">sstream</text>
</g>
<!-- Node16&#45;&gt;Node19 -->
<g id="edge20" class="edge"><title>Node16&#45;&gt;Node19</title>
<path fill="none" stroke="midnightblue" d="M816.434,-246.457C833.21,-233.035 867.593,-206.81 900,-190 941.189,-168.634 960.896,-181.864 998,-154 1020.76,-136.908 1038.74,-108.811 1048.88,-90.4821"/>
<polygon fill="midnightblue" stroke="midnightblue" points="1052.08,-91.9095 1053.68,-81.4361 1045.9,-88.6258 1052.08,-91.9095"/>
</g>
<!-- Node20 -->
<g id="node20" class="node"><title>Node20</title>
<g id="a_node20"><a xlink:href="string_8hpp.html" target="_top" xlink:title="../string/string.hpp">
<polygon fill="none" stroke="black" points="893.5,-129 893.5,-148 988.5,-148 988.5,-129 893.5,-129"/>
<text text-anchor="middle" x="941" y="-136" font-family="Helvetica,sans-Serif" font-size="10.00">../string/string.hpp</text>
</a>
</g>
</g>
<!-- Node16&#45;&gt;Node20 -->
<g id="edge21" class="edge"><title>Node16&#45;&gt;Node20</title>
<path fill="none" stroke="midnightblue" d="M812.198,-246.297C821.853,-233.119 841.516,-207.757 862,-190 878.554,-175.65 899.537,-162.431 915.717,-153.119"/>
<polygon fill="midnightblue" stroke="midnightblue" points="917.62,-156.064 924.618,-148.11 914.187,-149.964 917.62,-156.064"/>
</g>
<!-- Node16&#45;&gt;Node25 -->
<g id="edge35" class="edge"><title>Node16&#45;&gt;Node25</title>
<path fill="none" stroke="midnightblue" d="M767.813,-246.444C725.859,-237.043 658.406,-221.929 612.929,-211.739"/>
<polygon fill="midnightblue" stroke="midnightblue" points="613.532,-208.288 603.009,-209.516 612.001,-215.118 613.532,-208.288"/>
</g>
<!-- Node20&#45;&gt;Node7 -->
<g id="edge25" class="edge"><title>Node20&#45;&gt;Node7</title>
<path fill="none" stroke="midnightblue" d="M893.233,-129.654C878.149,-127.325 861.4,-124.894 846,-123 675.427,-102.026 628.376,-125.992 461,-87 458.002,-86.3016 454.923,-85.4206 451.878,-84.4394"/>
<polygon fill="midnightblue" stroke="midnightblue" points="453,-81.1236 442.405,-81.0649 450.651,-87.7177 453,-81.1236"/>
</g>
<!-- Node20&#45;&gt;Node8 -->
<g id="edge26" class="edge"><title>Node20&#45;&gt;Node8</title>
<path fill="none" stroke="midnightblue" d="M927.847,-128.832C898.712,-109.782 829.249,-65.23 803,-56 703.988,-21.1841 578.299,-13.2722 520.996,-11.4978"/>
<polygon fill="midnightblue" stroke="midnightblue" points="520.885,-7.99362 510.795,-11.2256 520.698,-14.9911 520.885,-7.99362"/>
</g>
<!-- Node20&#45;&gt;Node9 -->
<g id="edge28" class="edge"><title>Node20&#45;&gt;Node9</title>
<path fill="none" stroke="midnightblue" d="M893.192,-129.965C878.106,-127.651 861.367,-125.15 846,-123 720.431,-105.433 687.219,-112.409 563,-87 558.464,-86.0722 553.742,-84.9492 549.082,-83.7436"/>
<polygon fill="midnightblue" stroke="midnightblue" points="549.643,-80.2691 539.075,-81.016 547.803,-87.0227 549.643,-80.2691"/>
</g>
<!-- Node20&#45;&gt;Node14 -->
<g id="edge23" class="edge"><title>Node20&#45;&gt;Node14</title>
<path fill="none" stroke="midnightblue" d="M967.731,-128.934C998.165,-119.108 1049.33,-102.369 1093,-87 1095.24,-86.211 1097.55,-85.3852 1099.88,-84.5452"/>
<polygon fill="midnightblue" stroke="midnightblue" points="1101.18,-87.7957 1109.36,-81.0693 1098.77,-81.2228 1101.18,-87.7957"/>
</g>
<!-- Node20&#45;&gt;Node15 -->
<g id="edge29" class="edge"><title>Node20&#45;&gt;Node15</title>
<path fill="none" stroke="midnightblue" d="M917.88,-128.882C891.307,-118.939 846.412,-102.027 808,-87 806.165,-86.282 804.279,-85.5388 802.378,-84.7855"/>
<polygon fill="midnightblue" stroke="midnightblue" points="803.497,-81.4636 792.912,-81.005 800.9,-87.9643 803.497,-81.4636"/>
</g>
<!-- Node20&#45;&gt;Node18 -->
<g id="edge22" class="edge"><title>Node20&#45;&gt;Node18</title>
<path fill="none" stroke="midnightblue" d="M923.926,-128.916C909.151,-120.465 888.681,-106.062 879,-87 869.949,-69.1783 870.198,-45.8796 871.917,-29.8007"/>
<polygon fill="midnightblue" stroke="midnightblue" points="875.431,-29.9318 873.316,-19.5503 868.496,-28.9851 875.431,-29.9318"/>
</g>
<!-- Node20&#45;&gt;Node19 -->
<g id="edge27" class="edge"><title>Node20&#45;&gt;Node19</title>
<path fill="none" stroke="midnightblue" d="M956.779,-128.734C976.515,-117.769 1010.51,-98.8809 1033.61,-86.0495"/>
<polygon fill="midnightblue" stroke="midnightblue" points="1035.43,-89.0433 1042.47,-81.1273 1032.03,-82.9242 1035.43,-89.0433"/>
</g>
<!-- Node21 -->
<g id="node21" class="node"><title>Node21</title>
<polygon fill="none" stroke="#bfbfbf" points="888,-62 888,-81 940,-81 940,-62 888,-62"/>
<text text-anchor="middle" x="914" y="-69" font-family="Helvetica,sans-Serif" font-size="10.00">memory</text>
</g>
<!-- Node20&#45;&gt;Node21 -->
<g id="edge24" class="edge"><title>Node20&#45;&gt;Node21</title>
<path fill="none" stroke="midnightblue" d="M937.359,-128.734C933.31,-118.988 926.661,-102.981 921.49,-90.5318"/>
<polygon fill="midnightblue" stroke="midnightblue" points="924.652,-89.0196 917.584,-81.1273 918.188,-91.7049 924.652,-89.0196"/>
</g>
<!-- Node22 -->
<g id="node22" class="node"><title>Node22</title>
<g id="a_node22"><a xlink:href="color_8hpp.html" target="_top" xlink:title="color.hpp">
<polygon fill="none" stroke="black" points="958,-62 958,-81 1014,-81 1014,-62 958,-62"/>
<text text-anchor="middle" x="986" y="-69" font-family="Helvetica,sans-Serif" font-size="10.00">color.hpp</text>
</a>
</g>
</g>
<!-- Node20&#45;&gt;Node22 -->
<g id="edge30" class="edge"><title>Node20&#45;&gt;Node22</title>
<path fill="none" stroke="midnightblue" d="M947.069,-128.734C954.019,-118.695 965.567,-102.014 974.285,-89.4213"/>
<polygon fill="midnightblue" stroke="midnightblue" points="977.213,-91.3415 980.027,-81.1273 971.457,-87.357 977.213,-91.3415"/>
</g>
<!-- Node22&#45;&gt;Node8 -->
<g id="edge34" class="edge"><title>Node22&#45;&gt;Node8</title>
<path fill="none" stroke="midnightblue" d="M967.12,-61.9447C961.403,-59.672 955.038,-57.4495 949,-56 791.308,-18.1428 595.828,-12.0208 521.06,-11.1149"/>
<polygon fill="midnightblue" stroke="midnightblue" points="520.957,-7.61378 510.924,-11.0159 520.889,-14.6134 520.957,-7.61378"/>
</g>
<!-- Node22&#45;&gt;Node18 -->
<g id="edge32" class="edge"><title>Node22&#45;&gt;Node18</title>
<path fill="none" stroke="midnightblue" d="M970.096,-61.9751C951.715,-52.1222 921.244,-35.7883 899.755,-24.2697"/>
<polygon fill="midnightblue" stroke="midnightblue" points="901.341,-21.1488 890.874,-19.5091 898.034,-27.3183 901.341,-21.1488"/>
</g>
<!-- Node23 -->
<g id="node23" class="node"><title>Node23</title>
<polygon fill="none" stroke="#bfbfbf" points="947,-0.5 947,-19.5 993,-19.5 993,-0.5 947,-0.5"/>
<text text-anchor="middle" x="970" y="-7.5" font-family="Helvetica,sans-Serif" font-size="10.00">cctype</text>
</g>
<!-- Node22&#45;&gt;Node23 -->
<g id="edge31" class="edge"><title>Node22&#45;&gt;Node23</title>
<path fill="none" stroke="midnightblue" d="M983.708,-61.9751C981.426,-53.4919 977.853,-40.2043 974.927,-29.3222"/>
<polygon fill="midnightblue" stroke="midnightblue" points="978.265,-28.2571 972.288,-19.5091 971.505,-30.0749 978.265,-28.2571"/>
</g>
<!-- Node24 -->
<g id="node24" class="node"><title>Node24</title>
<polygon fill="none" stroke="#bfbfbf" points="1011.5,-0.5 1011.5,-19.5 1056.5,-19.5 1056.5,-0.5 1011.5,-0.5"/>
<text text-anchor="middle" x="1034" y="-7.5" font-family="Helvetica,sans-Serif" font-size="10.00">cstdlib</text>
</g>
<!-- Node22&#45;&gt;Node24 -->
<g id="edge33" class="edge"><title>Node22&#45;&gt;Node24</title>
<path fill="none" stroke="midnightblue" d="M992.877,-61.9751C1000.15,-52.9617 1011.8,-38.5246 1020.84,-27.3118"/>
<polygon fill="midnightblue" stroke="midnightblue" points="1023.58,-29.4898 1027.14,-19.5091 1018.13,-25.0946 1023.58,-29.4898"/>
</g>
<!-- Node25&#45;&gt;Node4 -->
<g id="edge38" class="edge"><title>Node25&#45;&gt;Node4</title>
<path fill="none" stroke="midnightblue" d="M614.136,-192.286C659.095,-185.353 727.076,-172.869 784,-154 785.667,-153.447 787.363,-152.829 789.058,-152.167"/>
<polygon fill="midnightblue" stroke="midnightblue" points="790.769,-155.241 798.561,-148.063 787.993,-148.815 790.769,-155.241"/>
</g>
<!-- Node25&#45;&gt;Node7 -->
<g id="edge39" class="edge"><title>Node25&#45;&gt;Node7</title>
<path fill="none" stroke="midnightblue" d="M515.683,-193.066C469.49,-186.374 405.33,-173.771 390,-154 374.646,-134.199 392.548,-106.285 407.372,-88.8015"/>
<polygon fill="midnightblue" stroke="midnightblue" points="410.173,-90.9202 414.243,-81.1381 404.961,-86.2473 410.173,-90.9202"/>
</g>
<!-- Node25&#45;&gt;Node8 -->
<g id="edge40" class="edge"><title>Node25&#45;&gt;Node8</title>
<path fill="none" stroke="midnightblue" d="M515.744,-197.767C433.404,-194.848 272.267,-185.208 226,-154 197.619,-134.856 196.733,-120.101 188,-87 184.485,-73.6781 179.004,-66.4356 188,-56 222.743,-15.6969 388.723,-10.9317 458.736,-10.7518"/>
<polygon fill="midnightblue" stroke="midnightblue" points="459.112,-14.252 469.114,-10.7576 459.116,-7.25196 459.112,-14.252"/>
</g>
<!-- Node25&#45;&gt;Node9 -->
<g id="edge41" class="edge"><title>Node25&#45;&gt;Node9</title>
<path fill="none" stroke="midnightblue" d="M570.687,-190.082C579.29,-175.363 593.455,-145.388 582,-123 573.521,-106.429 556.79,-94.049 541.81,-85.6948"/>
<polygon fill="midnightblue" stroke="midnightblue" points="543.287,-82.5178 532.799,-81.0119 540.059,-88.7291 543.287,-82.5178"/>
</g>
<!-- Node25&#45;&gt;Node20 -->
<g id="edge48" class="edge"><title>Node25&#45;&gt;Node20</title>
<path fill="none" stroke="midnightblue" d="M614.155,-191.221C683.454,-180.255 809.619,-160.29 883.282,-148.634"/>
<polygon fill="midnightblue" stroke="midnightblue" points="883.987,-152.066 893.317,-147.046 882.893,-145.152 883.987,-152.066"/>
</g>
<!-- Node26 -->
<g id="node26" class="node"><title>Node26</title>
<polygon fill="none" stroke="#bfbfbf" points="523,-129 523,-148 573,-148 573,-129 523,-129"/>
<text text-anchor="middle" x="548" y="-136" font-family="Helvetica,sans-Serif" font-size="10.00">iomanip</text>
</g>
<!-- Node25&#45;&gt;Node26 -->
<g id="edge36" class="edge"><title>Node25&#45;&gt;Node26</title>
<path fill="none" stroke="midnightblue" d="M562.564,-190.475C560.141,-181.992 556.344,-168.704 553.235,-157.822"/>
<polygon fill="midnightblue" stroke="midnightblue" points="556.544,-156.663 550.431,-148.009 549.813,-158.586 556.544,-156.663"/>
</g>
<!-- Node27 -->
<g id="node27" class="node"><title>Node27</title>
<polygon fill="none" stroke="#bfbfbf" points="572,-62 572,-81 626,-81 626,-62 572,-62"/>
<text text-anchor="middle" x="599" y="-69" font-family="Helvetica,sans-Serif" font-size="10.00">iostream</text>
</g>
<!-- Node25&#45;&gt;Node27 -->
<g id="edge37" class="edge"><title>Node25&#45;&gt;Node27</title>
<path fill="none" stroke="midnightblue" d="M579.952,-190.474C591.932,-182.702 607.873,-170.002 615,-154 624.133,-133.493 616.24,-107.786 608.652,-90.7881"/>
<polygon fill="midnightblue" stroke="midnightblue" points="611.637,-88.9224 604.121,-81.4545 605.339,-91.9791 611.637,-88.9224"/>
</g>
<!-- Node28 -->
<g id="node28" class="node"><title>Node28</title>
<polygon fill="none" stroke="#bfbfbf" points="399.5,-123.5 399.5,-153.5 504.5,-153.5 504.5,-123.5 399.5,-123.5"/>
<text text-anchor="start" x="407.5" y="-141.5" font-family="Helvetica,sans-Serif" font-size="10.00">boost/chrono/io/time</text>
<text text-anchor="middle" x="452" y="-130.5" font-family="Helvetica,sans-Serif" font-size="10.00">_point_io.hpp</text>
</g>
<!-- Node25&#45;&gt;Node28 -->
<g id="edge42" class="edge"><title>Node25&#45;&gt;Node28</title>
<path fill="none" stroke="midnightblue" d="M548.81,-190.475C532.933,-182.115 508.197,-169.09 487.702,-158.299"/>
<polygon fill="midnightblue" stroke="midnightblue" points="489.111,-155.085 478.632,-153.523 485.85,-161.279 489.111,-155.085"/>
</g>
<!-- Node29 -->
<g id="node29" class="node"><title>Node29</title>
<g id="a_node29"><a xlink:href="multibuf_8hpp.html" target="_top" xlink:title="multibuf.hpp">
<polygon fill="none" stroke="black" points="705,-129 705,-148 775,-148 775,-129 705,-129"/>
<text text-anchor="middle" x="740" y="-136" font-family="Helvetica,sans-Serif" font-size="10.00">multibuf.hpp</text>
</a>
</g>
</g>
<!-- Node25&#45;&gt;Node29 -->
<g id="edge43" class="edge"><title>Node25&#45;&gt;Node29</title>
<path fill="none" stroke="midnightblue" d="M590.073,-190.475C620.352,-180.18 671.44,-162.81 705.441,-151.25"/>
<polygon fill="midnightblue" stroke="midnightblue" points="706.632,-154.542 714.973,-148.009 704.379,-147.914 706.632,-154.542"/>
</g>
<!-- Node25&#45;&gt;Node31 -->
<g id="edge49" class="edge"><title>Node25&#45;&gt;Node31</title>
<path fill="none" stroke="midnightblue" d="M515.67,-191.566C465.77,-183.675 386.569,-170.129 319,-154 315.083,-153.065 311.015,-152.006 306.972,-150.896"/>
<polygon fill="midnightblue" stroke="midnightblue" points="307.652,-147.45 297.075,-148.073 305.732,-154.182 307.652,-147.45"/>
</g>
<!-- Node29&#45;&gt;Node8 -->
<g id="edge47" class="edge"><title>Node29&#45;&gt;Node8</title>
<path fill="none" stroke="midnightblue" d="M728.034,-128.697C714.549,-118.726 692.026,-101.922 673,-87 655.85,-73.5491 654.204,-66.3078 635,-56 598.021,-36.1518 550.948,-23.5853 520.643,-16.9209"/>
<polygon fill="midnightblue" stroke="midnightblue" points="521.175,-13.456 510.667,-14.8074 519.725,-20.304 521.175,-13.456"/>
</g>
<!-- Node29&#45;&gt;Node15 -->
<g id="edge46" class="edge"><title>Node29&#45;&gt;Node15</title>
<path fill="none" stroke="midnightblue" d="M744.316,-128.734C749.162,-118.89 757.152,-102.66 763.306,-90.1594"/>
<polygon fill="midnightblue" stroke="midnightblue" points="766.476,-91.6449 767.753,-81.1273 760.196,-88.5531 766.476,-91.6449"/>
</g>
<!-- Node29&#45;&gt;Node27 -->
<g id="edge44" class="edge"><title>Node29&#45;&gt;Node27</title>
<path fill="none" stroke="midnightblue" d="M721.276,-128.869C697.152,-117.748 655.002,-98.3167 627.045,-85.4286"/>
<polygon fill="midnightblue" stroke="midnightblue" points="628.348,-82.1752 617.801,-81.1672 625.417,-88.5323 628.348,-82.1752"/>
</g>
<!-- Node30 -->
<g id="node30" class="node"><title>Node30</title>
<polygon fill="none" stroke="#bfbfbf" points="682,-62 682,-81 732,-81 732,-62 682,-62"/>
<text text-anchor="middle" x="707" y="-69" font-family="Helvetica,sans-Serif" font-size="10.00">fstream</text>
</g>
<!-- Node29&#45;&gt;Node30 -->
<g id="edge45" class="edge"><title>Node29&#45;&gt;Node30</title>
<path fill="none" stroke="midnightblue" d="M735.549,-128.734C730.552,-118.89 722.312,-102.66 715.966,-90.1594"/>
<polygon fill="midnightblue" stroke="midnightblue" points="719.028,-88.4595 711.38,-81.1273 712.786,-91.6284 719.028,-88.4595"/>
</g>
<!-- Node31&#45;&gt;Node8 -->
<g id="edge50" class="edge"><title>Node31&#45;&gt;Node8</title>
<path fill="none" stroke="midnightblue" d="M276.341,-128.783C288.814,-112.24 318.192,-76.1499 351,-56 385.072,-35.0733 429.89,-22.8557 459.299,-16.5566"/>
<polygon fill="midnightblue" stroke="midnightblue" points="460.29,-19.9266 469.388,-14.4984 458.891,-13.0679 460.29,-19.9266"/>
</g>
<!-- Node31&#45;&gt;Node9 -->
<g id="edge52" class="edge"><title>Node31&#45;&gt;Node9</title>
<path fill="none" stroke="midnightblue" d="M303.175,-128.928C341.311,-119.027 405.761,-102.154 461,-87 464.787,-85.9612 468.727,-84.866 472.666,-83.7621"/>
<polygon fill="midnightblue" stroke="midnightblue" points="473.687,-87.1106 482.361,-81.027 471.787,-80.3735 473.687,-87.1106"/>
</g>
<!-- Node31&#45;&gt;Node18 -->
<g id="edge51" class="edge"><title>Node31&#45;&gt;Node18</title>
<path fill="none" stroke="midnightblue" d="M284.245,-128.856C299.959,-119.162 325.826,-102.73 347,-87 364.221,-74.2065 364.194,-64.2434 384,-56 467.124,-21.4038 745.183,-13.2793 841.678,-11.482"/>
<polygon fill="midnightblue" stroke="midnightblue" points="841.808,-14.9804 851.745,-11.3055 841.685,-7.98144 841.808,-14.9804"/>
</g>
<!-- Node32 -->
<g id="node32" class="node"><title>Node32</title>
<polygon fill="none" stroke="#bfbfbf" points="197.5,-56.5 197.5,-86.5 298.5,-86.5 298.5,-56.5 197.5,-56.5"/>
<text text-anchor="start" x="205.5" y="-74.5" font-family="Helvetica,sans-Serif" font-size="10.00">boost/property_tree</text>
<text text-anchor="middle" x="248" y="-63.5" font-family="Helvetica,sans-Serif" font-size="10.00">/ptree.hpp</text>
</g>
<!-- Node31&#45;&gt;Node32 -->
<g id="edge53" class="edge"><title>Node31&#45;&gt;Node32</title>
<path fill="none" stroke="midnightblue" d="M267.033,-128.734C264.231,-120.456 259.901,-107.662 256.078,-96.3674"/>
<polygon fill="midnightblue" stroke="midnightblue" points="259.29,-94.9391 252.769,-86.589 252.659,-97.1833 259.29,-94.9391"/>
</g>
<!-- Node33&#45;&gt;Node4 -->
<g id="edge57" class="edge"><title>Node33&#45;&gt;Node4</title>
<path fill="none" stroke="midnightblue" d="M839.298,-307.881C810.478,-303.293 774.958,-292.261 756,-266 736.227,-238.611 740.747,-220.626 755,-190 762.188,-174.555 776.683,-162.144 789.625,-153.49"/>
<polygon fill="midnightblue" stroke="midnightblue" points="791.606,-156.38 798.228,-148.109 787.894,-150.445 791.606,-156.38"/>
</g>
<!-- Node33&#45;&gt;Node5 -->
<g id="edge58" class="edge"><title>Node33&#45;&gt;Node5</title>
<path fill="none" stroke="midnightblue" d="M928.893,-309.928C981.492,-307.156 1070.2,-297.686 1139,-266 1164.32,-254.34 1188.28,-232.548 1203.04,-217.429"/>
<polygon fill="midnightblue" stroke="midnightblue" points="1205.91,-219.491 1210.24,-209.822 1200.82,-214.678 1205.91,-219.491"/>
</g>
<!-- Node33&#45;&gt;Node9 -->
<g id="edge60" class="edge"><title>Node33&#45;&gt;Node9</title>
<path fill="none" stroke="midnightblue" d="M839.448,-302.815C809.985,-296.042 771.345,-284.475 741,-266 664.496,-219.422 669.899,-177.732 599,-123 580.221,-108.503 556.874,-95.1714 539.095,-85.8508"/>
<polygon fill="midnightblue" stroke="midnightblue" points="540.35,-82.5603 529.855,-81.1033 537.15,-88.7865 540.35,-82.5603"/>
</g>
<!-- Node33&#45;&gt;Node11 -->
<g id="edge61" class="edge"><title>Node33&#45;&gt;Node11</title>
<path fill="none" stroke="midnightblue" d="M912.997,-302.444C944.185,-293.241 993.93,-278.562 1028.41,-268.388"/>
<polygon fill="midnightblue" stroke="midnightblue" points="1029.54,-271.704 1038.14,-265.516 1027.56,-264.99 1029.54,-271.704"/>
</g>
<!-- Node33&#45;&gt;Node12 -->
<g id="edge55" class="edge"><title>Node33&#45;&gt;Node12</title>
<path fill="none" stroke="midnightblue" d="M890.826,-302.462C897.967,-293.476 909.445,-278.875 919,-266 930.934,-249.92 944.089,-231.228 953.263,-218.027"/>
<polygon fill="midnightblue" stroke="midnightblue" points="956.351,-219.716 959.166,-209.501 950.596,-215.731 956.351,-219.716"/>
</g>
<!-- Node33&#45;&gt;Node13 -->
<g id="edge56" class="edge"><title>Node33&#45;&gt;Node13</title>
<path fill="none" stroke="midnightblue" d="M897.34,-302.368C926.512,-283.492 996.223,-238.385 1032,-215.237"/>
<polygon fill="midnightblue" stroke="midnightblue" points="1034.23,-217.962 1040.72,-209.591 1030.43,-212.085 1034.23,-217.962"/>
</g>
<!-- Node33&#45;&gt;Node16 -->
<g id="edge63" class="edge"><title>Node33&#45;&gt;Node16</title>
<path fill="none" stroke="midnightblue" d="M871.468,-302.324C859.414,-293.979 840.973,-281.212 826.731,-271.352"/>
<polygon fill="midnightblue" stroke="midnightblue" points="828.715,-268.469 818.501,-265.655 824.731,-274.224 828.715,-268.469"/>
</g>
<!-- Node33&#45;&gt;Node31 -->
<g id="edge62" class="edge"><title>Node33&#45;&gt;Node31</title>
<path fill="none" stroke="midnightblue" d="M839.29,-304.432C791.151,-296.922 712.519,-283.39 646,-266 516.021,-232.02 365.817,-176.378 301.676,-151.814"/>
<polygon fill="midnightblue" stroke="midnightblue" points="302.726,-148.468 292.136,-148.147 300.214,-155.002 302.726,-148.468"/>
</g>
<!-- Node34 -->
<g id="node34" class="node"><title>Node34</title>
<polygon fill="none" stroke="#bfbfbf" points="866,-246.5 866,-265.5 910,-265.5 910,-246.5 866,-246.5"/>
<text text-anchor="middle" x="888" y="-253.5" font-family="Helvetica,sans-Serif" font-size="10.00">thread</text>
</g>
<!-- Node33&#45;&gt;Node34 -->
<g id="edge59" class="edge"><title>Node33&#45;&gt;Node34</title>
<path fill="none" stroke="midnightblue" d="M884.661,-302.083C885.185,-295.006 885.936,-284.861 886.594,-275.986"/>
<polygon fill="midnightblue" stroke="midnightblue" points="890.103,-275.982 887.352,-265.751 883.123,-275.465 890.103,-275.982"/>
</g>
</g>
</svg>
