<?xml version="1.0" encoding="UTF-8" standalone="no"?>
<!DOCTYPE svg PUBLIC "-//W3C//DTD SVG 1.1//EN"
 "http://www.w3.org/Graphics/SVG/1.1/DTD/svg11.dtd">
<!-- Generated by graphviz version 2.38.0 (20140413.2041)
 -->
<!-- Title: src/string/json.hpp Pages: 1 -->
<svg width="1135pt" height="274pt"
 viewBox="0.00 0.00 1135.00 274.00" xmlns="http://www.w3.org/2000/svg" xmlns:xlink="http://www.w3.org/1999/xlink">
<g id="graph0" class="graph" transform="scale(1 1) rotate(0) translate(4 270)">
<title>src/string/json.hpp</title>
<!-- Node1 -->
<g id="node1" class="node"><title>Node1</title>
<polygon fill="#bfbfbf" stroke="black" points="407.5,-246.5 407.5,-265.5 504.5,-265.5 504.5,-246.5 407.5,-246.5"/>
<text text-anchor="middle" x="456" y="-253.5" font-family="Helvetica,sans-Serif" font-size="10.00">src/string/json.hpp</text>
</g>
<!-- Node2 -->
<g id="node2" class="node"><title>Node2</title>
<polygon fill="none" stroke="#bfbfbf" points="1077,-62 1077,-81 1127,-81 1127,-62 1077,-62"/>
<text text-anchor="middle" x="1102" y="-69" font-family="Helvetica,sans-Serif" font-size="10.00">fstream</text>
</g>
<!-- Node1&#45;&gt;Node2 -->
<g id="edge1" class="edge"><title>Node1&#45;&gt;Node2</title>
<path fill="none" stroke="midnightblue" d="M504.636,-255.016C640.688,-253.935 1020.29,-242.862 1098,-154 1112.9,-136.964 1110.76,-109.453 1107.05,-91.1747"/>
<polygon fill="midnightblue" stroke="midnightblue" points="1110.44,-90.3205 1104.73,-81.3954 1103.63,-91.9326 1110.44,-90.3205"/>
</g>
<!-- Node3 -->
<g id="node3" class="node"><title>Node3</title>
<polygon fill="none" stroke="#bfbfbf" points="319.5,-190.5 319.5,-209.5 368.5,-209.5 368.5,-190.5 319.5,-190.5"/>
<text text-anchor="middle" x="344" y="-197.5" font-family="Helvetica,sans-Serif" font-size="10.00">istream</text>
</g>
<!-- Node1&#45;&gt;Node3 -->
<g id="edge2" class="edge"><title>Node1&#45;&gt;Node3</title>
<path fill="none" stroke="midnightblue" d="M438.005,-246.324C419.962,-237.625 391.953,-224.12 371.197,-214.113"/>
<polygon fill="midnightblue" stroke="midnightblue" points="372.478,-210.845 361.95,-209.655 369.438,-217.15 372.478,-210.845"/>
</g>
<!-- Node4 -->
<g id="node4" class="node"><title>Node4</title>
<polygon fill="none" stroke="#bfbfbf" points="386.5,-190.5 386.5,-209.5 427.5,-209.5 427.5,-190.5 386.5,-190.5"/>
<text text-anchor="middle" x="407" y="-197.5" font-family="Helvetica,sans-Serif" font-size="10.00">stack</text>
</g>
<!-- Node1&#45;&gt;Node4 -->
<g id="edge3" class="edge"><title>Node1&#45;&gt;Node4</title>
<path fill="none" stroke="midnightblue" d="M447.909,-246.083C440.845,-238.298 430.412,-226.801 421.851,-217.367"/>
<polygon fill="midnightblue" stroke="midnightblue" points="424.253,-214.805 414.941,-209.751 419.069,-219.509 424.253,-214.805"/>
</g>
<!-- Node5 -->
<g id="node5" class="node"><title>Node5</title>
<polygon fill="none" stroke="#bfbfbf" points="0,-62 0,-81 52,-81 52,-62 0,-62"/>
<text text-anchor="middle" x="26" y="-69" font-family="Helvetica,sans-Serif" font-size="10.00">sstream</text>
</g>
<!-- Node1&#45;&gt;Node5 -->
<g id="edge4" class="edge"><title>Node1&#45;&gt;Node5</title>
<path fill="none" stroke="midnightblue" d="M423.329,-246.465C393.416,-238.291 348.133,-225.007 310,-210 211.077,-171.069 98.9319,-112.147 50.457,-85.9149"/>
<polygon fill="midnightblue" stroke="midnightblue" points="52.0913,-82.8197 41.6337,-81.1199 48.7489,-88.9701 52.0913,-82.8197"/>
</g>
<!-- Node6 -->
<g id="node6" class="node"><title>Node6</title>
<polygon fill="none" stroke="#bfbfbf" points="583.5,-0.5 583.5,-19.5 624.5,-19.5 624.5,-0.5 583.5,-0.5"/>
<text text-anchor="middle" x="604" y="-7.5" font-family="Helvetica,sans-Serif" font-size="10.00">string</text>
</g>
<!-- Node1&#45;&gt;Node6 -->
<g id="edge5" class="edge"><title>Node1&#45;&gt;Node6</title>
<path fill="none" stroke="midnightblue" d="M453.858,-246.263C447.015,-216.103 428.732,-114.983 475,-56 498.441,-26.1172 543.025,-16.0114 573.134,-12.6333"/>
<polygon fill="midnightblue" stroke="midnightblue" points="573.491,-16.1152 583.121,-11.6976 572.838,-9.14576 573.491,-16.1152"/>
</g>
<!-- Node7 -->
<g id="node7" class="node"><title>Node7</title>
<polygon fill="none" stroke="#bfbfbf" points="585.5,-56.5 585.5,-86.5 686.5,-86.5 686.5,-56.5 585.5,-56.5"/>
<text text-anchor="start" x="593.5" y="-74.5" font-family="Helvetica,sans-Serif" font-size="10.00">boost/property_tree</text>
<text text-anchor="middle" x="636" y="-63.5" font-family="Helvetica,sans-Serif" font-size="10.00">/ptree.hpp</text>
</g>
<!-- Node1&#45;&gt;Node7 -->
<g id="edge6" class="edge"><title>Node1&#45;&gt;Node7</title>
<path fill="none" stroke="midnightblue" d="M464.682,-246.198C491.741,-218.763 575.099,-134.247 614.694,-94.102"/>
<polygon fill="midnightblue" stroke="midnightblue" points="617.47,-96.2721 622,-86.6947 612.486,-91.3566 617.47,-96.2721"/>
</g>
<!-- Node8 -->
<g id="node8" class="node"><title>Node8</title>
<g id="a_node8"><a xlink:href="logger_8hpp.html" target="_top" xlink:title="string/logger.hpp">
<polygon fill="none" stroke="black" points="697.5,-190.5 697.5,-209.5 786.5,-209.5 786.5,-190.5 697.5,-190.5"/>
<text text-anchor="middle" x="742" y="-197.5" font-family="Helvetica,sans-Serif" font-size="10.00">string/logger.hpp</text>
</a>
</g>
</g>
<!-- Node1&#45;&gt;Node8 -->
<g id="edge7" class="edge"><title>Node1&#45;&gt;Node8</title>
<path fill="none" stroke="midnightblue" d="M501.318,-246.444C551.776,-236.916 633.316,-221.521 687.289,-211.33"/>
<polygon fill="midnightblue" stroke="midnightblue" points="688.188,-214.722 697.365,-209.428 686.889,-207.844 688.188,-214.722"/>
</g>
<!-- Node8&#45;&gt;Node6 -->
<g id="edge12" class="edge"><title>Node8&#45;&gt;Node6</title>
<path fill="none" stroke="midnightblue" d="M757.762,-190.428C771.221,-182.458 790.356,-169.5 803,-154 831.877,-118.602 863.036,-91.2677 834,-56 809.097,-25.7527 691.494,-15.5475 634.761,-12.3477"/>
<polygon fill="midnightblue" stroke="midnightblue" points="634.762,-8.84297 624.592,-11.8128 634.394,-15.8333 634.762,-8.84297"/>
</g>
<!-- Node9 -->
<g id="node9" class="node"><title>Node9</title>
<polygon fill="none" stroke="#bfbfbf" points="939,-129 939,-148 989,-148 989,-129 939,-129"/>
<text text-anchor="middle" x="964" y="-136" font-family="Helvetica,sans-Serif" font-size="10.00">iomanip</text>
</g>
<!-- Node8&#45;&gt;Node9 -->
<g id="edge8" class="edge"><title>Node8&#45;&gt;Node9</title>
<path fill="none" stroke="midnightblue" d="M786.651,-190.521C825.119,-182.695 881.88,-169.895 930,-154 931.919,-153.366 933.881,-152.668 935.846,-151.933"/>
<polygon fill="midnightblue" stroke="midnightblue" points="937.536,-155.026 945.511,-148.051 934.927,-148.53 937.536,-155.026"/>
</g>
<!-- Node10 -->
<g id="node10" class="node"><title>Node10</title>
<polygon fill="none" stroke="#bfbfbf" points="955,-62 955,-81 1009,-81 1009,-62 955,-62"/>
<text text-anchor="middle" x="982" y="-69" font-family="Helvetica,sans-Serif" font-size="10.00">iostream</text>
</g>
<!-- Node8&#45;&gt;Node10 -->
<g id="edge9" class="edge"><title>Node8&#45;&gt;Node10</title>
<path fill="none" stroke="midnightblue" d="M786.643,-197.801C852.694,-194.979 971.523,-185.537 998,-154 1013.02,-136.11 1002.62,-108.225 992.963,-90.1592"/>
<polygon fill="midnightblue" stroke="midnightblue" points="995.861,-88.1783 987.838,-81.2587 989.795,-91.6713 995.861,-88.1783"/>
</g>
<!-- Node11 -->
<g id="node11" class="node"><title>Node11</title>
<polygon fill="none" stroke="#bfbfbf" points="1045,-129 1045,-148 1089,-148 1089,-129 1045,-129"/>
<text text-anchor="middle" x="1067" y="-136" font-family="Helvetica,sans-Serif" font-size="10.00">mutex</text>
</g>
<!-- Node8&#45;&gt;Node11 -->
<g id="edge10" class="edge"><title>Node8&#45;&gt;Node11</title>
<path fill="none" stroke="midnightblue" d="M786.73,-195.23C844.1,-189.672 946.306,-177.32 1031,-154 1033.5,-153.311 1036.06,-152.502 1038.61,-151.624"/>
<polygon fill="midnightblue" stroke="midnightblue" points="1040.1,-154.804 1048.22,-148.004 1037.63,-148.254 1040.1,-154.804"/>
</g>
<!-- Node12 -->
<g id="node12" class="node"><title>Node12</title>
<polygon fill="none" stroke="#bfbfbf" points="70.5,-62 70.5,-81 129.5,-81 129.5,-62 70.5,-62"/>
<text text-anchor="middle" x="100" y="-69" font-family="Helvetica,sans-Serif" font-size="10.00">stdexcept</text>
</g>
<!-- Node8&#45;&gt;Node12 -->
<g id="edge11" class="edge"><title>Node8&#45;&gt;Node12</title>
<path fill="none" stroke="midnightblue" d="M697.474,-198.836C616.229,-197.59 439.033,-190.488 295,-154 231.168,-137.83 161.001,-104.279 124.751,-85.6625"/>
<polygon fill="midnightblue" stroke="midnightblue" points="126.362,-82.5552 115.874,-81.0526 123.136,-88.7675 126.362,-82.5552"/>
</g>
<!-- Node13 -->
<g id="node13" class="node"><title>Node13</title>
<polygon fill="none" stroke="#bfbfbf" points="484.5,-62 484.5,-81 567.5,-81 567.5,-62 484.5,-62"/>
<text text-anchor="middle" x="526" y="-69" font-family="Helvetica,sans-Serif" font-size="10.00">unordered_map</text>
</g>
<!-- Node8&#45;&gt;Node13 -->
<g id="edge13" class="edge"><title>Node8&#45;&gt;Node13</title>
<path fill="none" stroke="midnightblue" d="M697.325,-192.779C665.809,-186.754 623.725,-175.277 592,-154 567.134,-137.323 546.98,-108.442 535.745,-89.9171"/>
<polygon fill="midnightblue" stroke="midnightblue" points="538.641,-87.9349 530.577,-81.0636 532.596,-91.4642 538.641,-87.9349"/>
</g>
<!-- Node14 -->
<g id="node14" class="node"><title>Node14</title>
<polygon fill="none" stroke="#bfbfbf" points="689.5,-123.5 689.5,-153.5 794.5,-153.5 794.5,-123.5 689.5,-123.5"/>
<text text-anchor="start" x="697.5" y="-141.5" font-family="Helvetica,sans-Serif" font-size="10.00">boost/chrono/io/time</text>
<text text-anchor="middle" x="742" y="-130.5" font-family="Helvetica,sans-Serif" font-size="10.00">_point_io.hpp</text>
</g>
<!-- Node8&#45;&gt;Node14 -->
<g id="edge14" class="edge"><title>Node8&#45;&gt;Node14</title>
<path fill="none" stroke="midnightblue" d="M742,-190.475C742,-183.471 742,-173.192 742,-163.696"/>
<polygon fill="midnightblue" stroke="midnightblue" points="745.5,-163.523 742,-153.523 738.5,-163.523 745.5,-163.523"/>
</g>
<!-- Node15 -->
<g id="node15" class="node"><title>Node15</title>
<g id="a_node15"><a xlink:href="multibuf_8hpp.html" target="_top" xlink:title="multibuf.hpp">
<polygon fill="none" stroke="black" points="851,-129 851,-148 921,-148 921,-129 851,-129"/>
<text text-anchor="middle" x="886" y="-136" font-family="Helvetica,sans-Serif" font-size="10.00">multibuf.hpp</text>
</a>
</g>
</g>
<!-- Node8&#45;&gt;Node15 -->
<g id="edge15" class="edge"><title>Node8&#45;&gt;Node15</title>
<path fill="none" stroke="midnightblue" d="M762.632,-190.475C787.119,-180.357 828.147,-163.405 856.109,-151.851"/>
<polygon fill="midnightblue" stroke="midnightblue" points="857.501,-155.063 865.407,-148.009 854.828,-148.593 857.501,-155.063"/>
</g>
<!-- Node17 -->
<g id="node17" class="node"><title>Node17</title>
<g id="a_node17"><a xlink:href="string_8hpp.html" target="_top" xlink:title="string.hpp">
<polygon fill="none" stroke="black" points="304.5,-129 304.5,-148 363.5,-148 363.5,-129 304.5,-129"/>
<text text-anchor="middle" x="334" y="-136" font-family="Helvetica,sans-Serif" font-size="10.00">string.hpp</text>
</a>
</g>
</g>
<!-- Node8&#45;&gt;Node17 -->
<g id="edge20" class="edge"><title>Node8&#45;&gt;Node17</title>
<path fill="none" stroke="midnightblue" d="M697.17,-192.462C616.999,-180.771 450.321,-156.463 373.877,-145.315"/>
<polygon fill="midnightblue" stroke="midnightblue" points="374.108,-141.812 363.707,-143.832 373.098,-148.739 374.108,-141.812"/>
</g>
<!-- Node24 -->
<g id="node24" class="node"><title>Node24</title>
<g id="a_node24"><a xlink:href="settings_8hpp.html" target="_top" xlink:title="settings.hpp">
<polygon fill="none" stroke="black" points="601,-129 601,-148 671,-148 671,-129 601,-129"/>
<text text-anchor="middle" x="636" y="-136" font-family="Helvetica,sans-Serif" font-size="10.00">settings.hpp</text>
</a>
</g>
</g>
<!-- Node8&#45;&gt;Node24 -->
<g id="edge34" class="edge"><title>Node8&#45;&gt;Node24</title>
<path fill="none" stroke="midnightblue" d="M726.813,-190.475C709.338,-180.666 680.421,-164.435 659.917,-152.925"/>
<polygon fill="midnightblue" stroke="midnightblue" points="661.592,-149.852 651.159,-148.009 658.166,-155.956 661.592,-149.852"/>
</g>
<!-- Node15&#45;&gt;Node2 -->
<g id="edge17" class="edge"><title>Node15&#45;&gt;Node2</title>
<path fill="none" stroke="midnightblue" d="M911.548,-128.924C917.586,-126.941 924.01,-124.866 930,-123 977.327,-108.258 1032.34,-92.3118 1067.16,-82.3662"/>
<polygon fill="midnightblue" stroke="midnightblue" points="1068.2,-85.7104 1076.86,-79.6033 1066.28,-78.9785 1068.2,-85.7104"/>
</g>
<!-- Node15&#45;&gt;Node6 -->
<g id="edge19" class="edge"><title>Node15&#45;&gt;Node6</title>
<path fill="none" stroke="midnightblue" d="M886.806,-128.875C887.848,-112.166 887.515,-75.3279 867,-56 833.921,-24.8352 697.041,-15.0077 634.916,-12.1173"/>
<polygon fill="midnightblue" stroke="midnightblue" points="634.715,-8.60538 624.573,-11.6686 634.412,-15.5988 634.715,-8.60538"/>
</g>
<!-- Node15&#45;&gt;Node10 -->
<g id="edge16" class="edge"><title>Node15&#45;&gt;Node10</title>
<path fill="none" stroke="midnightblue" d="M898.947,-128.734C914.853,-117.964 942.049,-99.55 960.969,-86.7395"/>
<polygon fill="midnightblue" stroke="midnightblue" points="962.94,-89.6321 969.258,-81.1273 959.015,-83.8357 962.94,-89.6321"/>
</g>
<!-- Node16 -->
<g id="node16" class="node"><title>Node16</title>
<polygon fill="none" stroke="#bfbfbf" points="781,-62 781,-81 825,-81 825,-62 781,-62"/>
<text text-anchor="middle" x="803" y="-69" font-family="Helvetica,sans-Serif" font-size="10.00">vector</text>
</g>
<!-- Node15&#45;&gt;Node16 -->
<g id="edge18" class="edge"><title>Node15&#45;&gt;Node16</title>
<path fill="none" stroke="midnightblue" d="M874.806,-128.734C861.366,-118.208 838.6,-100.379 822.304,-87.6174"/>
<polygon fill="midnightblue" stroke="midnightblue" points="824.047,-84.5374 814.016,-81.1273 819.731,-90.0486 824.047,-84.5374"/>
</g>
<!-- Node17&#45;&gt;Node5 -->
<g id="edge26" class="edge"><title>Node17&#45;&gt;Node5</title>
<path fill="none" stroke="midnightblue" d="M304.435,-134.099C253.824,-127.82 147.657,-112.656 61,-87 58.7119,-86.3226 56.3693,-85.5459 54.0337,-84.7118"/>
<polygon fill="midnightblue" stroke="midnightblue" points="55.218,-81.4171 44.629,-81.066 52.6878,-87.9439 55.218,-81.4171"/>
</g>
<!-- Node17&#45;&gt;Node6 -->
<g id="edge25" class="edge"><title>Node17&#45;&gt;Node6</title>
<path fill="none" stroke="midnightblue" d="M345.283,-128.806C371.877,-108.34 436.656,-58.6392 442,-56 485.1,-34.7157 539.786,-22.1936 573.316,-15.9682"/>
<polygon fill="midnightblue" stroke="midnightblue" points="574.189,-19.3679 583.418,-14.1651 572.959,-12.4768 574.189,-19.3679"/>
</g>
<!-- Node17&#45;&gt;Node12 -->
<g id="edge24" class="edge"><title>Node17&#45;&gt;Node12</title>
<path fill="none" stroke="midnightblue" d="M304.331,-130.817C265.874,-121.927 196.88,-105.202 139,-87 136.44,-86.1948 133.801,-85.3179 131.16,-84.407"/>
<polygon fill="midnightblue" stroke="midnightblue" points="132.322,-81.1056 121.728,-81.0272 129.961,-87.6953 132.322,-81.1056"/>
</g>
<!-- Node17&#45;&gt;Node13 -->
<g id="edge27" class="edge"><title>Node17&#45;&gt;Node13</title>
<path fill="none" stroke="midnightblue" d="M359.496,-128.869C393.3,-117.424 453.097,-97.1807 491.079,-84.3223"/>
<polygon fill="midnightblue" stroke="midnightblue" points="492.355,-87.5856 500.704,-81.0637 490.11,-80.9552 492.355,-87.5856"/>
</g>
<!-- Node17&#45;&gt;Node16 -->
<g id="edge28" class="edge"><title>Node17&#45;&gt;Node16</title>
<path fill="none" stroke="midnightblue" d="M363.694,-133.385C447.295,-121.798 684.184,-88.9671 770.784,-76.9649"/>
<polygon fill="midnightblue" stroke="midnightblue" points="771.389,-80.4147 780.813,-75.5749 770.428,-73.4809 771.389,-80.4147"/>
</g>
<!-- Node18 -->
<g id="node18" class="node"><title>Node18</title>
<polygon fill="none" stroke="#bfbfbf" points="217,-0.5 217,-19.5 263,-19.5 263,-0.5 217,-0.5"/>
<text text-anchor="middle" x="240" y="-7.5" font-family="Helvetica,sans-Serif" font-size="10.00">cstdint</text>
</g>
<!-- Node17&#45;&gt;Node18 -->
<g id="edge21" class="edge"><title>Node17&#45;&gt;Node18</title>
<path fill="none" stroke="midnightblue" d="M308.717,-128.921C289.664,-121.082 264.577,-107.545 251,-87 239.772,-70.0103 238.027,-46.2374 238.445,-29.8248"/>
<polygon fill="midnightblue" stroke="midnightblue" points="241.942,-29.9877 238.991,-19.8121 234.952,-29.6068 241.942,-29.9877"/>
</g>
<!-- Node19 -->
<g id="node19" class="node"><title>Node19</title>
<polygon fill="none" stroke="#bfbfbf" points="260.5,-62 260.5,-81 319.5,-81 319.5,-62 260.5,-62"/>
<text text-anchor="middle" x="290" y="-69" font-family="Helvetica,sans-Serif" font-size="10.00">functional</text>
</g>
<!-- Node17&#45;&gt;Node19 -->
<g id="edge22" class="edge"><title>Node17&#45;&gt;Node19</title>
<path fill="none" stroke="midnightblue" d="M328.066,-128.734C321.271,-118.695 309.979,-102.014 301.454,-89.4213"/>
<polygon fill="midnightblue" stroke="midnightblue" points="304.344,-87.4464 295.84,-81.1273 298.547,-91.3704 304.344,-87.4464"/>
</g>
<!-- Node20 -->
<g id="node20" class="node"><title>Node20</title>
<polygon fill="none" stroke="#bfbfbf" points="338,-62 338,-81 390,-81 390,-62 338,-62"/>
<text text-anchor="middle" x="364" y="-69" font-family="Helvetica,sans-Serif" font-size="10.00">memory</text>
</g>
<!-- Node17&#45;&gt;Node20 -->
<g id="edge23" class="edge"><title>Node17&#45;&gt;Node20</title>
<path fill="none" stroke="midnightblue" d="M338.046,-128.734C342.544,-118.988 349.932,-102.981 355.678,-90.5318"/>
<polygon fill="midnightblue" stroke="midnightblue" points="359.005,-91.6736 360.018,-81.1273 352.65,-88.7402 359.005,-91.6736"/>
</g>
<!-- Node21 -->
<g id="node21" class="node"><title>Node21</title>
<g id="a_node21"><a xlink:href="color_8hpp.html" target="_top" xlink:title="color.hpp">
<polygon fill="none" stroke="black" points="148,-62 148,-81 204,-81 204,-62 148,-62"/>
<text text-anchor="middle" x="176" y="-69" font-family="Helvetica,sans-Serif" font-size="10.00">color.hpp</text>
</a>
</g>
</g>
<!-- Node17&#45;&gt;Node21 -->
<g id="edge29" class="edge"><title>Node17&#45;&gt;Node21</title>
<path fill="none" stroke="midnightblue" d="M313.019,-128.869C285.75,-117.65 237.928,-97.9766 206.609,-85.0925"/>
<polygon fill="midnightblue" stroke="midnightblue" points="207.648,-81.735 197.068,-81.1672 204.984,-88.2086 207.648,-81.735"/>
</g>
<!-- Node21&#45;&gt;Node6 -->
<g id="edge33" class="edge"><title>Node21&#45;&gt;Node6</title>
<path fill="none" stroke="midnightblue" d="M204.06,-64.6319C218.115,-61.8057 235.417,-58.497 251,-56 369.547,-37.0044 511.529,-20.9171 573.054,-14.2689"/>
<polygon fill="midnightblue" stroke="midnightblue" points="573.675,-17.7225 583.244,-13.1749 572.927,-10.7625 573.675,-17.7225"/>
</g>
<!-- Node21&#45;&gt;Node18 -->
<g id="edge31" class="edge"><title>Node21&#45;&gt;Node18</title>
<path fill="none" stroke="midnightblue" d="M185.17,-61.9751C195.15,-52.6966 211.312,-37.6706 223.509,-26.331"/>
<polygon fill="midnightblue" stroke="midnightblue" points="225.907,-28.8814 230.847,-19.5091 221.14,-23.7547 225.907,-28.8814"/>
</g>
<!-- Node22 -->
<g id="node22" class="node"><title>Node22</title>
<polygon fill="none" stroke="#bfbfbf" points="89,-0.5 89,-19.5 135,-19.5 135,-0.5 89,-0.5"/>
<text text-anchor="middle" x="112" y="-7.5" font-family="Helvetica,sans-Serif" font-size="10.00">cctype</text>
</g>
<!-- Node21&#45;&gt;Node22 -->
<g id="edge30" class="edge"><title>Node21&#45;&gt;Node22</title>
<path fill="none" stroke="midnightblue" d="M166.83,-61.9751C156.85,-52.6966 140.688,-37.6706 128.491,-26.331"/>
<polygon fill="midnightblue" stroke="midnightblue" points="130.86,-23.7547 121.153,-19.5091 126.093,-28.8814 130.86,-23.7547"/>
</g>
<!-- Node23 -->
<g id="node23" class="node"><title>Node23</title>
<polygon fill="none" stroke="#bfbfbf" points="153.5,-0.5 153.5,-19.5 198.5,-19.5 198.5,-0.5 153.5,-0.5"/>
<text text-anchor="middle" x="176" y="-7.5" font-family="Helvetica,sans-Serif" font-size="10.00">cstdlib</text>
</g>
<!-- Node21&#45;&gt;Node23 -->
<g id="edge32" class="edge"><title>Node21&#45;&gt;Node23</title>
<path fill="none" stroke="midnightblue" d="M176,-61.9751C176,-53.5803 176,-40.4806 176,-29.6631"/>
<polygon fill="midnightblue" stroke="midnightblue" points="179.5,-29.5091 176,-19.5091 172.5,-29.5091 179.5,-29.5091"/>
</g>
<!-- Node24&#45;&gt;Node6 -->
<g id="edge35" class="edge"><title>Node24&#45;&gt;Node6</title>
<path fill="none" stroke="midnightblue" d="M657.294,-128.96C682.172,-118.497 720.969,-100.5 729,-87 736.044,-75.1591 736.922,-67.2722 729,-56 707.857,-25.9166 664.571,-15.8502 634.921,-12.5366"/>
<polygon fill="midnightblue" stroke="midnightblue" points="634.958,-9.02539 624.68,-11.5967 634.318,-15.9961 634.958,-9.02539"/>
</g>
<!-- Node24&#45;&gt;Node7 -->
<g id="edge38" class="edge"><title>Node24&#45;&gt;Node7</title>
<path fill="none" stroke="midnightblue" d="M636,-128.734C636,-120.541 636,-107.923 636,-96.7136"/>
<polygon fill="midnightblue" stroke="midnightblue" points="639.5,-96.589 636,-86.589 632.5,-96.5891 639.5,-96.589"/>
</g>
<!-- Node24&#45;&gt;Node13 -->
<g id="edge37" class="edge"><title>Node24&#45;&gt;Node13</title>
<path fill="none" stroke="midnightblue" d="M621.165,-128.734C602.692,-117.818 570.928,-99.0487 549.22,-86.2209"/>
<polygon fill="midnightblue" stroke="midnightblue" points="550.99,-83.2014 540.6,-81.1273 547.429,-89.2279 550.99,-83.2014"/>
</g>
<!-- Node24&#45;&gt;Node18 -->
<g id="edge36" class="edge"><title>Node24&#45;&gt;Node18</title>
<path fill="none" stroke="midnightblue" d="M650.186,-128.946C673.99,-113.576 717.283,-80.5958 695,-56 666.75,-24.8184 373.188,-14.4196 273.165,-11.7671"/>
<polygon fill="midnightblue" stroke="midnightblue" points="273.111,-8.26463 263.025,-11.5073 272.932,-15.2623 273.111,-8.26463"/>
</g>
</g>
</svg>
