<?xml version="1.0" encoding="UTF-8" standalone="no"?>
<!DOCTYPE svg PUBLIC "-//W3C//DTD SVG 1.1//EN"
 "http://www.w3.org/Graphics/SVG/1.1/DTD/svg11.dtd">
<!-- Generated by graphviz version 2.38.0 (20140413.2041)
 -->
<!-- Title: src/string/json.hpp Pages: 1 -->
<!--zoomable 319 -->
<svg id="main" version="1.1" xmlns="http://www.w3.org/2000/svg" xmlns:xlink="http://www.w3.org/1999/xlink" xml:space="preserve" onload="init(evt)">
<style type="text/css"><![CDATA[
.edge:hover path { stroke: red; }
.edge:hover polygon { stroke: red; fill: red; }
]]></style>
<script type="text/javascript"><![CDATA[
var edges = document.getElementsByTagName('g');
if (edges && edges.length) {
  for (var i=0;i<edges.length;i++) {
    if (edges[i].id.substr(0,4)=='edge') {
      edges[i].setAttribute('class','edge');
    }
  }
}
]]></script>
        <defs>
                <circle id="rim" cx="0" cy="0" r="7"/>
                <circle id="rim2" cx="0" cy="0" r="3.5"/>
                <g id="zoomPlus">
                        <use xlink:href="#rim" fill="#404040">
                                <set attributeName="fill" to="#808080" begin="zoomplus.mouseover" end="zoomplus.mouseout"/>
                        </use>
                        <path d="M-4,0h8M0,-4v8" fill="none" stroke="white" stroke-width="1.5" pointer-events="none"/>
                </g>
                <g id="zoomMin">
                        <use xlink:href="#rim" fill="#404040">
                                <set attributeName="fill" to="#808080" begin="zoomminus.mouseover" end="zoomminus.mouseout"/>
                        </use>
                        <path d="M-4,0h8" fill="none" stroke="white" stroke-width="1.5" pointer-events="none"/>
                </g>
                <g id="dirArrow">
                        <path fill="none" stroke="white" stroke-width="1.5" d="M0,-3.0v7 M-2.5,-0.5L0,-3.0L2.5,-0.5"/>
                </g>
               <g id="resetDef">
                       <use xlink:href="#rim2" fill="#404040">
                               <set attributeName="fill" to="#808080" begin="reset.mouseover" end="reset.mouseout"/>
                       </use>
               </g>
        </defs>

<script type="text/javascript">
var viewWidth = 1190;
var viewHeight = 319;
var sectionId = 'dynsection-0';
</script>
<script xlink:href="svgpan.js"/>
<svg id="graph" class="graph">
<g id="viewport">
<title>src/string/json.hpp</title>
<!-- Node1 -->
<g id="node1" class="node"><title>Node1</title>
<polygon fill="#bfbfbf" stroke="black" points="162.925,-291.5 162.925,-310.5 259.925,-310.5 259.925,-291.5 162.925,-291.5"/>
<text text-anchor="middle" x="211.425" y="-298.5" font-family="Helvetica,sans-Serif" font-size="10.00">src/string/json.hpp</text>
</g>
<!-- Node2 -->
<g id="node2" class="node"><title>Node2</title>
<polygon fill="none" stroke="#bfbfbf" points="532.425,-123.5 532.425,-142.5 582.425,-142.5 582.425,-123.5 532.425,-123.5"/>
<text text-anchor="middle" x="557.425" y="-130.5" font-family="Helvetica,sans-Serif" font-size="10.00">fstream</text>
</g>
<!-- Node1&#45;&gt;Node2 -->
<g id="edge1" class="edge"><title>Node1&#45;&gt;Node2</title>
<path fill="none" stroke="midnightblue" d="M229.541,-291.309C286.528,-263.968 462.377,-179.601 530.281,-147.023"/>
<polygon fill="midnightblue" stroke="midnightblue" points="531.987,-150.086 539.489,-142.605 528.959,-143.775 531.987,-150.086"/>
</g>
<!-- Node3 -->
<g id="node3" class="node"><title>Node3</title>
<polygon fill="none" stroke="#bfbfbf" points="55.9253,-235.5 55.9253,-254.5 104.925,-254.5 104.925,-235.5 55.9253,-235.5"/>
<text text-anchor="middle" x="80.4253" y="-242.5" font-family="Helvetica,sans-Serif" font-size="10.00">istream</text>
</g>
<!-- Node1&#45;&gt;Node3 -->
<g id="edge2" class="edge"><title>Node1&#45;&gt;Node3</title>
<path fill="none" stroke="midnightblue" d="M190.668,-291.444C169.109,-282.557 135.162,-268.563 110.631,-258.451"/>
<polygon fill="midnightblue" stroke="midnightblue" points="111.665,-255.092 101.085,-254.516 108.997,-261.563 111.665,-255.092"/>
</g>
<!-- Node4 -->
<g id="node4" class="node"><title>Node4</title>
<polygon fill="none" stroke="#bfbfbf" points="122.925,-235.5 122.925,-254.5 163.925,-254.5 163.925,-235.5 122.925,-235.5"/>
<text text-anchor="middle" x="143.425" y="-242.5" font-family="Helvetica,sans-Serif" font-size="10.00">stack</text>
</g>
<!-- Node1&#45;&gt;Node4 -->
<g id="edge3" class="edge"><title>Node1&#45;&gt;Node4</title>
<path fill="none" stroke="midnightblue" d="M200.5,-291.324C190.251,-283.185 174.705,-270.839 162.424,-261.087"/>
<polygon fill="midnightblue" stroke="midnightblue" points="164.557,-258.312 154.549,-254.834 160.204,-263.794 164.557,-258.312"/>
</g>
<!-- Node5 -->
<g id="node5" class="node"><title>Node5</title>
<polygon fill="none" stroke="#bfbfbf" points="336.425,-123.5 336.425,-142.5 388.425,-142.5 388.425,-123.5 336.425,-123.5"/>
<text text-anchor="middle" x="362.425" y="-130.5" font-family="Helvetica,sans-Serif" font-size="10.00">sstream</text>
</g>
<!-- Node1&#45;&gt;Node5 -->
<g id="edge4" class="edge"><title>Node1&#45;&gt;Node5</title>
<path fill="none" stroke="midnightblue" d="M219.544,-291.075C243.827,-264.38 316.156,-184.865 347.578,-150.322"/>
<polygon fill="midnightblue" stroke="midnightblue" points="350.491,-152.321 354.631,-142.568 345.313,-147.61 350.491,-152.321"/>
</g>
<!-- Node6 -->
<g id="node6" class="node"><title>Node6</title>
<polygon fill="none" stroke="#bfbfbf" points="458.925,-62 458.925,-81 499.925,-81 499.925,-62 458.925,-62"/>
<text text-anchor="middle" x="479.425" y="-69" font-family="Helvetica,sans-Serif" font-size="10.00">string</text>
</g>
<!-- Node1&#45;&gt;Node6 -->
<g id="edge5" class="edge"><title>Node1&#45;&gt;Node6</title>
<path fill="none" stroke="midnightblue" d="M206.209,-291.118C198.806,-278.554 184.775,-254.905 172.425,-235 142.763,-187.193 76.4606,-165.415 113.425,-123 135.403,-97.7811 364.591,-80.1299 448.697,-74.4586"/>
<polygon fill="midnightblue" stroke="midnightblue" points="449.145,-77.9367 458.891,-73.7822 448.681,-70.952 449.145,-77.9367"/>
</g>
<!-- Node7 -->
<g id="node7" class="node"><title>Node7</title>
<polygon fill="none" stroke="#bfbfbf" points="178.925,-56.5 178.925,-86.5 279.925,-86.5 279.925,-56.5 178.925,-56.5"/>
<text text-anchor="start" x="186.925" y="-74.5" font-family="Helvetica,sans-Serif" font-size="10.00">boost/property_tree</text>
<text text-anchor="middle" x="229.425" y="-63.5" font-family="Helvetica,sans-Serif" font-size="10.00">/ptree.hpp</text>
</g>
<!-- Node1&#45;&gt;Node7 -->
<g id="edge6" class="edge"><title>Node1&#45;&gt;Node7</title>
<path fill="none" stroke="midnightblue" d="M162.83,-293.326C119.427,-286.252 60.5732,-273.523 46.4253,-255 27.045,-229.626 -50.1493,-251.346 51.4253,-123 66.1126,-104.442 122.867,-90.5161 168.395,-82.0388"/>
<polygon fill="midnightblue" stroke="midnightblue" points="169.291,-85.4335 178.508,-80.2092 168.045,-78.5453 169.291,-85.4335"/>
</g>
<!-- Node8 -->
<g id="node8" class="node"><title>Node8</title>
<g id="a_node8"><a xlink:href="logger_8hpp.html" target="_top" xlink:title="string/logger.hpp">
<polygon fill="none" stroke="black" points="800.925,-235.5 800.925,-254.5 889.925,-254.5 889.925,-235.5 800.925,-235.5"/>
<text text-anchor="middle" x="845.425" y="-242.5" font-family="Helvetica,sans-Serif" font-size="10.00">string/logger.hpp</text>
</a>
</g>
</g>
<!-- Node1&#45;&gt;Node8 -->
<g id="edge7" class="edge"><title>Node1&#45;&gt;Node8</title>
<path fill="none" stroke="midnightblue" d="M260.121,-295.852C376.201,-285.965 668.59,-261.062 790.609,-250.669"/>
<polygon fill="midnightblue" stroke="midnightblue" points="791.169,-254.134 800.836,-249.798 790.575,-247.159 791.169,-254.134"/>
</g>
<!-- Node25 -->
<g id="node25" class="node"><title>Node25</title>
<g id="a_node25"><a xlink:href="string__functions_8hpp.html" target="_top" xlink:title="string_functions.hpp">
<polygon fill="none" stroke="black" points="171.425,-179.5 171.425,-198.5 275.425,-198.5 275.425,-179.5 171.425,-179.5"/>
<text text-anchor="middle" x="223.425" y="-186.5" font-family="Helvetica,sans-Serif" font-size="10.00">string_functions.hpp</text>
</a>
</g>
</g>
<!-- Node1&#45;&gt;Node25 -->
<g id="edge40" class="edge"><title>Node1&#45;&gt;Node25</title>
<path fill="none" stroke="midnightblue" d="M212.367,-291.368C214.303,-273.617 218.771,-232.666 221.396,-208.597"/>
<polygon fill="midnightblue" stroke="midnightblue" points="224.883,-208.912 222.488,-198.591 217.924,-208.153 224.883,-208.912"/>
</g>
<!-- Node8&#45;&gt;Node6 -->
<g id="edge12" class="edge"><title>Node8&#45;&gt;Node6</title>
<path fill="none" stroke="midnightblue" d="M800.899,-240.431C703.185,-231.512 475.462,-204.41 435.425,-143 423.033,-123.993 442.472,-101.733 459.309,-87.3895"/>
<polygon fill="midnightblue" stroke="midnightblue" points="461.614,-90.0269 467.215,-81.0331 457.228,-84.5715 461.614,-90.0269"/>
</g>
<!-- Node9 -->
<g id="node9" class="node"><title>Node9</title>
<polygon fill="none" stroke="#bfbfbf" points="857.425,-179.5 857.425,-198.5 907.425,-198.5 907.425,-179.5 857.425,-179.5"/>
<text text-anchor="middle" x="882.425" y="-186.5" font-family="Helvetica,sans-Serif" font-size="10.00">iomanip</text>
</g>
<!-- Node8&#45;&gt;Node9 -->
<g id="edge8" class="edge"><title>Node8&#45;&gt;Node9</title>
<path fill="none" stroke="midnightblue" d="M851.535,-235.083C856.707,-227.534 864.271,-216.495 870.62,-207.23"/>
<polygon fill="midnightblue" stroke="midnightblue" points="873.664,-208.979 876.429,-198.751 867.89,-205.022 873.664,-208.979"/>
</g>
<!-- Node10 -->
<g id="node10" class="node"><title>Node10</title>
<polygon fill="none" stroke="#bfbfbf" points="960.425,-123.5 960.425,-142.5 1014.43,-142.5 1014.43,-123.5 960.425,-123.5"/>
<text text-anchor="middle" x="987.425" y="-130.5" font-family="Helvetica,sans-Serif" font-size="10.00">iostream</text>
</g>
<!-- Node8&#45;&gt;Node10 -->
<g id="edge9" class="edge"><title>Node8&#45;&gt;Node10</title>
<path fill="none" stroke="midnightblue" d="M860.622,-235.425C875.359,-226.869 898.113,-213.011 916.425,-199 936.618,-183.55 957.886,-163.506 971.82,-149.786"/>
<polygon fill="midnightblue" stroke="midnightblue" points="974.498,-152.058 979.113,-142.521 969.558,-147.099 974.498,-152.058"/>
</g>
<!-- Node11 -->
<g id="node11" class="node"><title>Node11</title>
<polygon fill="none" stroke="#bfbfbf" points="963.425,-179.5 963.425,-198.5 1007.43,-198.5 1007.43,-179.5 963.425,-179.5"/>
<text text-anchor="middle" x="985.425" y="-186.5" font-family="Helvetica,sans-Serif" font-size="10.00">mutex</text>
</g>
<!-- Node8&#45;&gt;Node11 -->
<g id="edge10" class="edge"><title>Node8&#45;&gt;Node11</title>
<path fill="none" stroke="midnightblue" d="M867.609,-235.444C890.854,-226.478 927.574,-212.314 953.841,-202.183"/>
<polygon fill="midnightblue" stroke="midnightblue" points="955.275,-205.381 963.346,-198.516 952.756,-198.85 955.275,-205.381"/>
</g>
<!-- Node12 -->
<g id="node12" class="node"><title>Node12</title>
<polygon fill="none" stroke="#bfbfbf" points="1108.93,-123.5 1108.93,-142.5 1167.93,-142.5 1167.93,-123.5 1108.93,-123.5"/>
<text text-anchor="middle" x="1138.43" y="-130.5" font-family="Helvetica,sans-Serif" font-size="10.00">stdexcept</text>
</g>
<!-- Node8&#45;&gt;Node12 -->
<g id="edge11" class="edge"><title>Node8&#45;&gt;Node12</title>
<path fill="none" stroke="midnightblue" d="M889.177,-235.426C924.262,-227.857 974.409,-215.463 1016.43,-199 1052.72,-184.778 1092.08,-162.434 1115.99,-148.002"/>
<polygon fill="midnightblue" stroke="midnightblue" points="1117.95,-150.909 1124.66,-142.71 1114.3,-144.935 1117.95,-150.909"/>
</g>
<!-- Node13 -->
<g id="node13" class="node"><title>Node13</title>
<polygon fill="none" stroke="#bfbfbf" points="1038.93,-62 1038.93,-81 1121.93,-81 1121.93,-62 1038.93,-62"/>
<text text-anchor="middle" x="1080.43" y="-69" font-family="Helvetica,sans-Serif" font-size="10.00">unordered_map</text>
</g>
<!-- Node8&#45;&gt;Node13 -->
<g id="edge13" class="edge"><title>Node8&#45;&gt;Node13</title>
<path fill="none" stroke="midnightblue" d="M890.093,-237.517C973.132,-224.399 1145.74,-191.749 1177.43,-143 1194.93,-116.07 1156.11,-95.9952 1122.49,-84.2928"/>
<polygon fill="midnightblue" stroke="midnightblue" points="1123.34,-80.8876 1112.75,-81.0735 1121.15,-87.5342 1123.34,-80.8876"/>
</g>
<!-- Node14 -->
<g id="node14" class="node"><title>Node14</title>
<g id="a_node14"><a xlink:href="multibuf_8hpp.html" target="_top" xlink:title="multibuf.hpp">
<polygon fill="none" stroke="black" points="625.425,-179.5 625.425,-198.5 695.425,-198.5 695.425,-179.5 625.425,-179.5"/>
<text text-anchor="middle" x="660.425" y="-186.5" font-family="Helvetica,sans-Serif" font-size="10.00">multibuf.hpp</text>
</a>
</g>
</g>
<!-- Node8&#45;&gt;Node14 -->
<g id="edge14" class="edge"><title>Node8&#45;&gt;Node14</title>
<path fill="none" stroke="midnightblue" d="M816.111,-235.444C784.583,-226.241 734.294,-211.562 699.44,-201.388"/>
<polygon fill="midnightblue" stroke="midnightblue" points="700.182,-197.959 689.602,-198.516 698.221,-204.678 700.182,-197.959"/>
</g>
<!-- Node16 -->
<g id="node16" class="node"><title>Node16</title>
<g id="a_node16"><a xlink:href="string_8hpp.html" target="_top" xlink:title="string.hpp">
<polygon fill="none" stroke="black" points="779.925,-179.5 779.925,-198.5 838.925,-198.5 838.925,-179.5 779.925,-179.5"/>
<text text-anchor="middle" x="809.425" y="-186.5" font-family="Helvetica,sans-Serif" font-size="10.00">string.hpp</text>
</a>
</g>
</g>
<!-- Node8&#45;&gt;Node16 -->
<g id="edge19" class="edge"><title>Node8&#45;&gt;Node16</title>
<path fill="none" stroke="midnightblue" d="M839.481,-235.083C834.448,-227.534 827.088,-216.495 820.912,-207.23"/>
<polygon fill="midnightblue" stroke="midnightblue" points="823.719,-205.13 815.259,-198.751 817.894,-209.013 823.719,-205.13"/>
</g>
<!-- Node24 -->
<g id="node24" class="node"><title>Node24</title>
<g id="a_node24"><a xlink:href="settings_8hpp.html" target="_top" xlink:title="settings.hpp">
<polygon fill="none" stroke="black" points="444.425,-123.5 444.425,-142.5 514.425,-142.5 514.425,-123.5 444.425,-123.5"/>
<text text-anchor="middle" x="479.425" y="-130.5" font-family="Helvetica,sans-Serif" font-size="10.00">settings.hpp</text>
</a>
</g>
</g>
<!-- Node8&#45;&gt;Node24 -->
<g id="edge34" class="edge"><title>Node8&#45;&gt;Node24</title>
<path fill="none" stroke="midnightblue" d="M800.687,-238.568C753.907,-232.116 678.762,-219.555 616.425,-199 575.231,-185.416 530.312,-162.392 503.528,-147.707"/>
<polygon fill="midnightblue" stroke="midnightblue" points="504.962,-144.5 494.521,-142.707 501.565,-150.62 504.962,-144.5"/>
</g>
<!-- Node14&#45;&gt;Node2 -->
<g id="edge16" class="edge"><title>Node14&#45;&gt;Node2</title>
<path fill="none" stroke="midnightblue" d="M643.877,-179.324C627.434,-170.703 601.99,-157.364 582.957,-147.386"/>
<polygon fill="midnightblue" stroke="midnightblue" points="584.415,-144.198 573.933,-142.655 581.164,-150.398 584.415,-144.198"/>
</g>
<!-- Node14&#45;&gt;Node6 -->
<g id="edge18" class="edge"><title>Node14&#45;&gt;Node6</title>
<path fill="none" stroke="midnightblue" d="M653.094,-179.463C641.229,-166.05 616.595,-139.837 591.425,-123 565.674,-105.774 533.089,-91.8385 509.715,-83.0048"/>
<polygon fill="midnightblue" stroke="midnightblue" points="510.902,-79.712 500.308,-79.5366 508.48,-86.2798 510.902,-79.712"/>
</g>
<!-- Node14&#45;&gt;Node10 -->
<g id="edge15" class="edge"><title>Node14&#45;&gt;Node10</title>
<path fill="none" stroke="midnightblue" d="M695.547,-183.625C748.603,-176.788 852.525,-162.503 950.308,-143.069"/>
<polygon fill="midnightblue" stroke="midnightblue" points="951.245,-146.451 960.359,-141.049 949.865,-139.588 951.245,-146.451"/>
</g>
<!-- Node15 -->
<g id="node15" class="node"><title>Node15</title>
<polygon fill="none" stroke="#bfbfbf" points="638.425,-123.5 638.425,-142.5 682.425,-142.5 682.425,-123.5 638.425,-123.5"/>
<text text-anchor="middle" x="660.425" y="-130.5" font-family="Helvetica,sans-Serif" font-size="10.00">vector</text>
</g>
<!-- Node14&#45;&gt;Node15 -->
<g id="edge17" class="edge"><title>Node14&#45;&gt;Node15</title>
<path fill="none" stroke="midnightblue" d="M660.425,-179.083C660.425,-172.006 660.425,-161.861 660.425,-152.986"/>
<polygon fill="midnightblue" stroke="midnightblue" points="663.925,-152.751 660.425,-142.751 656.925,-152.751 663.925,-152.751"/>
</g>
<!-- Node16&#45;&gt;Node5 -->
<g id="edge25" class="edge"><title>Node16&#45;&gt;Node5</title>
<path fill="none" stroke="midnightblue" d="M779.847,-184.471C716.624,-176.921 563.64,-158.617 435.425,-143 423.366,-141.531 410.189,-139.911 398.39,-138.455"/>
<polygon fill="midnightblue" stroke="midnightblue" points="398.792,-134.978 388.438,-137.226 397.933,-141.925 398.792,-134.978"/>
</g>
<!-- Node16&#45;&gt;Node6 -->
<g id="edge24" class="edge"><title>Node16&#45;&gt;Node6</title>
<path fill="none" stroke="midnightblue" d="M805.593,-179.167C798.884,-164.844 783.588,-136.77 761.425,-123 740.222,-109.826 578.845,-86.257 510.188,-76.6991"/>
<polygon fill="midnightblue" stroke="midnightblue" points="510.386,-73.1932 500.001,-75.2891 509.427,-80.1271 510.386,-73.1932"/>
</g>
<!-- Node16&#45;&gt;Node12 -->
<g id="edge23" class="edge"><title>Node16&#45;&gt;Node12</title>
<path fill="none" stroke="midnightblue" d="M839.183,-180.87C842.297,-180.203 845.421,-179.566 848.425,-179 957.016,-158.56 985.587,-162.079 1094.43,-143 1095.87,-142.748 1097.33,-142.484 1098.81,-142.212"/>
<polygon fill="midnightblue" stroke="midnightblue" points="1099.48,-145.646 1108.65,-140.328 1098.17,-138.771 1099.48,-145.646"/>
</g>
<!-- Node16&#45;&gt;Node13 -->
<g id="edge26" class="edge"><title>Node16&#45;&gt;Node13</title>
<path fill="none" stroke="midnightblue" d="M839.207,-180.988C842.315,-180.297 845.432,-179.623 848.425,-179 934.281,-161.136 971.564,-194.661 1042.43,-143 1059.77,-130.355 1070.01,-107.324 1075.41,-91.0309"/>
<polygon fill="midnightblue" stroke="midnightblue" points="1078.89,-91.6221 1078.41,-81.0383 1072.19,-89.6139 1078.89,-91.6221"/>
</g>
<!-- Node16&#45;&gt;Node15 -->
<g id="edge27" class="edge"><title>Node16&#45;&gt;Node15</title>
<path fill="none" stroke="midnightblue" d="M785.816,-179.444C760.529,-170.279 720.259,-155.685 692.201,-145.516"/>
<polygon fill="midnightblue" stroke="midnightblue" points="693.061,-142.105 682.467,-141.988 690.676,-148.686 693.061,-142.105"/>
</g>
<!-- Node17 -->
<g id="node17" class="node"><title>Node17</title>
<polygon fill="none" stroke="#bfbfbf" points="821.425,-62 821.425,-81 867.425,-81 867.425,-62 821.425,-62"/>
<text text-anchor="middle" x="844.425" y="-69" font-family="Helvetica,sans-Serif" font-size="10.00">cstdint</text>
</g>
<!-- Node16&#45;&gt;Node17 -->
<g id="edge20" class="edge"><title>Node16&#45;&gt;Node17</title>
<path fill="none" stroke="midnightblue" d="M839.219,-181.047C842.326,-180.345 845.438,-179.652 848.425,-179 926.006,-162.071 973.251,-204.546 1023.43,-143 1054.16,-105.297 1006.7,-132.031 876.425,-87 874.761,-86.4246 873.065,-85.7946 871.365,-85.1295"/>
<polygon fill="midnightblue" stroke="midnightblue" points="872.366,-81.7524 861.793,-81.0743 869.635,-88.1978 872.366,-81.7524"/>
</g>
<!-- Node18 -->
<g id="node18" class="node"><title>Node18</title>
<polygon fill="none" stroke="#bfbfbf" points="808.925,-123.5 808.925,-142.5 867.925,-142.5 867.925,-123.5 808.925,-123.5"/>
<text text-anchor="middle" x="838.425" y="-130.5" font-family="Helvetica,sans-Serif" font-size="10.00">functional</text>
</g>
<!-- Node16&#45;&gt;Node18 -->
<g id="edge21" class="edge"><title>Node16&#45;&gt;Node18</title>
<path fill="none" stroke="midnightblue" d="M814.214,-179.083C818.184,-171.691 823.95,-160.953 828.86,-151.811"/>
<polygon fill="midnightblue" stroke="midnightblue" points="832.078,-153.217 833.726,-142.751 825.911,-149.905 832.078,-153.217"/>
</g>
<!-- Node19 -->
<g id="node19" class="node"><title>Node19</title>
<polygon fill="none" stroke="#bfbfbf" points="700.425,-123.5 700.425,-142.5 752.425,-142.5 752.425,-123.5 700.425,-123.5"/>
<text text-anchor="middle" x="726.425" y="-130.5" font-family="Helvetica,sans-Serif" font-size="10.00">memory</text>
</g>
<!-- Node16&#45;&gt;Node19 -->
<g id="edge22" class="edge"><title>Node16&#45;&gt;Node19</title>
<path fill="none" stroke="midnightblue" d="M796.09,-179.324C783.263,-170.979 763.64,-158.212 748.485,-148.352"/>
<polygon fill="midnightblue" stroke="midnightblue" points="750.018,-145.174 739.728,-142.655 746.201,-151.042 750.018,-145.174"/>
</g>
<!-- Node20 -->
<g id="node20" class="node"><title>Node20</title>
<g id="a_node20"><a xlink:href="color_8hpp.html" target="_top" xlink:title="color.hpp">
<polygon fill="none" stroke="black" points="886.425,-123.5 886.425,-142.5 942.425,-142.5 942.425,-123.5 886.425,-123.5"/>
<text text-anchor="middle" x="914.425" y="-130.5" font-family="Helvetica,sans-Serif" font-size="10.00">color.hpp</text>
</a>
</g>
</g>
<!-- Node16&#45;&gt;Node20 -->
<g id="edge28" class="edge"><title>Node16&#45;&gt;Node20</title>
<path fill="none" stroke="midnightblue" d="M826.295,-179.324C843.134,-170.664 869.232,-157.242 888.663,-147.249"/>
<polygon fill="midnightblue" stroke="midnightblue" points="890.305,-150.341 897.597,-142.655 887.103,-144.116 890.305,-150.341"/>
</g>
<!-- Node20&#45;&gt;Node6 -->
<g id="edge30" class="edge"><title>Node20&#45;&gt;Node6</title>
<path fill="none" stroke="midnightblue" d="M886.273,-124.981C882.964,-124.261 879.627,-123.581 876.425,-123 805.767,-110.176 590.358,-85.1341 510.042,-75.9681"/>
<polygon fill="midnightblue" stroke="midnightblue" points="510.398,-72.4861 500.066,-74.832 509.606,-79.4411 510.398,-72.4861"/>
</g>
<!-- Node20&#45;&gt;Node17 -->
<g id="edge29" class="edge"><title>Node20&#45;&gt;Node17</title>
<path fill="none" stroke="midnightblue" d="M904.396,-123.475C893.376,-114.108 875.465,-98.8839 862.082,-87.5081"/>
<polygon fill="midnightblue" stroke="midnightblue" points="864.322,-84.8188 854.436,-81.0091 859.789,-90.1524 864.322,-84.8188"/>
</g>
<!-- Node21 -->
<g id="node21" class="node"><title>Node21</title>
<g id="a_node21"><a xlink:href="math_8hpp.html" target="_top" xlink:title="math.hpp">
<polygon fill="none" stroke="black" points="885.925,-62 885.925,-81 942.925,-81 942.925,-62 885.925,-62"/>
<text text-anchor="middle" x="914.425" y="-69" font-family="Helvetica,sans-Serif" font-size="10.00">math.hpp</text>
</a>
</g>
</g>
<!-- Node20&#45;&gt;Node21 -->
<g id="edge31" class="edge"><title>Node20&#45;&gt;Node21</title>
<path fill="none" stroke="midnightblue" d="M914.425,-123.475C914.425,-115.08 914.425,-101.981 914.425,-91.1631"/>
<polygon fill="midnightblue" stroke="midnightblue" points="917.925,-91.0091 914.425,-81.0091 910.925,-91.0091 917.925,-91.0091"/>
</g>
<!-- Node23 -->
<g id="node23" class="node"><title>Node23</title>
<g id="a_node23"><a xlink:href="c_09_09-compat_8hpp.html" target="_top" xlink:title="This file defined some compatibility for features of C++14 and beyond. ">
<polygon fill="none" stroke="black" points="617.425,-62 617.425,-81 705.425,-81 705.425,-62 617.425,-62"/>
<text text-anchor="middle" x="661.425" y="-69" font-family="Helvetica,sans-Serif" font-size="10.00">c++&#45;compat.hpp</text>
</a>
</g>
</g>
<!-- Node20&#45;&gt;Node23 -->
<g id="edge33" class="edge"><title>Node20&#45;&gt;Node23</title>
<path fill="none" stroke="midnightblue" d="M886.205,-125.31C882.908,-124.53 879.593,-123.747 876.425,-123 818.384,-109.31 751.509,-93.6146 707.958,-83.4036"/>
<polygon fill="midnightblue" stroke="midnightblue" points="708.485,-79.9323 697.95,-81.0574 706.887,-86.7475 708.485,-79.9323"/>
</g>
<!-- Node22 -->
<g id="node22" class="node"><title>Node22</title>
<polygon fill="none" stroke="#bfbfbf" points="423.425,-0.5 423.425,-19.5 479.425,-19.5 479.425,-0.5 423.425,-0.5"/>
<text text-anchor="middle" x="451.425" y="-7.5" font-family="Helvetica,sans-Serif" font-size="10.00">algorithm</text>
</g>
<!-- Node21&#45;&gt;Node22 -->
<g id="edge32" class="edge"><title>Node21&#45;&gt;Node22</title>
<path fill="none" stroke="midnightblue" d="M895.009,-61.9829C889.137,-59.7112 882.606,-57.4798 876.425,-56 736.639,-22.5308 565.042,-13.9471 489.825,-11.7515"/>
<polygon fill="midnightblue" stroke="midnightblue" points="489.533,-8.24243 479.442,-11.4717 489.345,-15.2399 489.533,-8.24243"/>
</g>
<!-- Node24&#45;&gt;Node6 -->
<g id="edge35" class="edge"><title>Node24&#45;&gt;Node6</title>
<path fill="none" stroke="midnightblue" d="M479.425,-123.475C479.425,-115.08 479.425,-101.981 479.425,-91.1631"/>
<polygon fill="midnightblue" stroke="midnightblue" points="482.925,-91.0091 479.425,-81.0091 475.925,-91.0091 482.925,-91.0091"/>
</g>
<!-- Node24&#45;&gt;Node7 -->
<g id="edge38" class="edge"><title>Node24&#45;&gt;Node7</title>
<path fill="none" stroke="midnightblue" d="M444.401,-123.664C404.421,-114.149 338.32,-98.417 289.952,-86.9054"/>
<polygon fill="midnightblue" stroke="midnightblue" points="290.761,-83.5002 280.222,-84.5897 289.14,-90.31 290.761,-83.5002"/>
</g>
<!-- Node24&#45;&gt;Node13 -->
<g id="edge37" class="edge"><title>Node24&#45;&gt;Node13</title>
<path fill="none" stroke="midnightblue" d="M514.904,-124.369C517.78,-123.865 520.647,-123.4 523.425,-123 712.375,-95.8256 761.446,-105.663 951.425,-87 976.922,-84.4953 1005.21,-81.3558 1028.79,-78.6393"/>
<polygon fill="midnightblue" stroke="midnightblue" points="1029.39,-82.0931 1038.92,-77.4645 1028.58,-75.1397 1029.39,-82.0931"/>
</g>
<!-- Node24&#45;&gt;Node17 -->
<g id="edge36" class="edge"><title>Node24&#45;&gt;Node17</title>
<path fill="none" stroke="midnightblue" d="M514.462,-124.683C517.49,-124.096 520.51,-123.527 523.425,-123 628.209,-104.051 752.981,-85.5915 811.303,-77.2008"/>
<polygon fill="midnightblue" stroke="midnightblue" points="811.997,-80.6371 821.4,-75.7534 811.004,-73.7079 811.997,-80.6371"/>
</g>
<!-- Node24&#45;&gt;Node23 -->
<g id="edge39" class="edge"><title>Node24&#45;&gt;Node23</title>
<path fill="none" stroke="midnightblue" d="M505.501,-123.475C536.991,-113.18 590.123,-95.8103 625.483,-84.2502"/>
<polygon fill="midnightblue" stroke="midnightblue" points="626.98,-87.4433 635.397,-81.0091 624.805,-80.7898 626.98,-87.4433"/>
</g>
<!-- Node25&#45;&gt;Node5 -->
<g id="edge44" class="edge"><title>Node25&#45;&gt;Node5</title>
<path fill="none" stroke="midnightblue" d="M245.45,-179.444C268.529,-170.478 304.987,-156.314 331.066,-146.183"/>
<polygon fill="midnightblue" stroke="midnightblue" points="332.449,-149.4 340.503,-142.516 329.915,-142.875 332.449,-149.4"/>
</g>
<!-- Node25&#45;&gt;Node6 -->
<g id="edge45" class="edge"><title>Node25&#45;&gt;Node6</title>
<path fill="none" stroke="midnightblue" d="M187.012,-179.427C149.529,-168.942 99.5911,-149.292 122.425,-123 143.782,-98.4096 366.377,-80.4243 448.882,-74.5577"/>
<polygon fill="midnightblue" stroke="midnightblue" points="449.164,-78.0466 458.895,-73.8566 448.675,-71.0637 449.164,-78.0466"/>
</g>
<!-- Node25&#45;&gt;Node22 -->
<g id="edge41" class="edge"><title>Node25&#45;&gt;Node22</title>
<path fill="none" stroke="midnightblue" d="M171.253,-179.767C149.58,-173.492 126.479,-162.444 113.425,-143 87.224,-103.972 135.396,-75.3221 169.425,-56 210.348,-32.7633 345.658,-19.243 412.86,-13.807"/>
<polygon fill="midnightblue" stroke="midnightblue" points="413.342,-17.2799 423.036,-13.0037 412.791,-10.3016 413.342,-17.2799"/>
</g>
<!-- Node25&#45;&gt;Node24 -->
<g id="edge47" class="edge"><title>Node25&#45;&gt;Node24</title>
<path fill="none" stroke="midnightblue" d="M263.989,-179.444C310.453,-169.643 386.359,-153.631 434.555,-143.465"/>
<polygon fill="midnightblue" stroke="midnightblue" points="435.336,-146.877 444.399,-141.388 433.892,-140.028 435.336,-146.877"/>
</g>
<!-- Node26 -->
<g id="node26" class="node"><title>Node26</title>
<polygon fill="none" stroke="#bfbfbf" points="131.925,-123.5 131.925,-142.5 178.925,-142.5 178.925,-123.5 131.925,-123.5"/>
<text text-anchor="middle" x="155.425" y="-130.5" font-family="Helvetica,sans-Serif" font-size="10.00">iterator</text>
</g>
<!-- Node25&#45;&gt;Node26 -->
<g id="edge42" class="edge"><title>Node25&#45;&gt;Node26</title>
<path fill="none" stroke="midnightblue" d="M212.5,-179.324C202.251,-171.185 186.705,-158.839 174.424,-149.087"/>
<polygon fill="midnightblue" stroke="midnightblue" points="176.557,-146.312 166.549,-142.834 172.204,-151.794 176.557,-146.312"/>
</g>
<!-- Node27 -->
<g id="node27" class="node"><title>Node27</title>
<polygon fill="none" stroke="#bfbfbf" points="196.925,-123.5 196.925,-142.5 237.925,-142.5 237.925,-123.5 196.925,-123.5"/>
<text text-anchor="middle" x="217.425" y="-130.5" font-family="Helvetica,sans-Serif" font-size="10.00">regex</text>
</g>
<!-- Node25&#45;&gt;Node27 -->
<g id="edge43" class="edge"><title>Node25&#45;&gt;Node27</title>
<path fill="none" stroke="midnightblue" d="M222.434,-179.083C221.639,-171.927 220.496,-161.635 219.502,-152.691"/>
<polygon fill="midnightblue" stroke="midnightblue" points="222.981,-152.303 218.398,-142.751 216.023,-153.076 222.981,-152.303"/>
</g>
<!-- Node28 -->
<g id="node28" class="node"><title>Node28</title>
<polygon fill="none" stroke="#bfbfbf" points="256.425,-123.5 256.425,-142.5 318.425,-142.5 318.425,-123.5 256.425,-123.5"/>
<text text-anchor="middle" x="287.425" y="-130.5" font-family="Helvetica,sans-Serif" font-size="10.00">type_traits</text>
</g>
<!-- Node25&#45;&gt;Node28 -->
<g id="edge46" class="edge"><title>Node25&#45;&gt;Node28</title>
<path fill="none" stroke="midnightblue" d="M233.708,-179.324C243.262,-171.263 257.705,-159.077 269.21,-149.369"/>
<polygon fill="midnightblue" stroke="midnightblue" points="271.57,-151.958 276.955,-142.834 267.055,-146.608 271.57,-151.958"/>
</g>
</g>
</svg>
        <g id="navigator" transform="translate(0 0)" fill="#404254">
                <rect fill="#f2f5e9" fill-opacity="0.5" stroke="#606060" stroke-width=".5" x="0" y="0" width="60" height="60"/>
                <use id="zoomplus" xlink:href="#zoomPlus" x="17" y="9" onmousedown="handleZoom(evt,'in')"/>
                <use id="zoomminus" xlink:href="#zoomMin" x="42" y="9" onmousedown="handleZoom(evt,'out')"/>
                <use id="reset" xlink:href="#resetDef" x="30" y="36" onmousedown="handleReset()"/>
                <g id="arrowUp" xlink:href="#dirArrow" transform="translate(30 24)" onmousedown="handlePan(0,-1)">
                  <use xlink:href="#rim" fill="#404040">
                        <set attributeName="fill" to="#808080" begin="arrowUp.mouseover" end="arrowUp.mouseout"/>
                  </use>
                  <path fill="none" stroke="white" stroke-width="1.5" d="M0,-3.0v7 M-2.5,-0.5L0,-3.0L2.5,-0.5"/>
                </g>
                <g id="arrowRight" xlink:href="#dirArrow" transform="rotate(90) translate(36 -43)" onmousedown="handlePan(1,0)">
                  <use xlink:href="#rim" fill="#404040">
                        <set attributeName="fill" to="#808080" begin="arrowRight.mouseover" end="arrowRight.mouseout"/>
                  </use>
                  <path fill="none" stroke="white" stroke-width="1.5" d="M0,-3.0v7 M-2.5,-0.5L0,-3.0L2.5,-0.5"/>
                </g>
                <g id="arrowDown" xlink:href="#dirArrow" transform="rotate(180) translate(-30 -48)" onmousedown="handlePan(0,1)">
                  <use xlink:href="#rim" fill="#404040">
                        <set attributeName="fill" to="#808080" begin="arrowDown.mouseover" end="arrowDown.mouseout"/>
                  </use>
                  <path fill="none" stroke="white" stroke-width="1.5" d="M0,-3.0v7 M-2.5,-0.5L0,-3.0L2.5,-0.5"/>
                </g>
                <g id="arrowLeft" xlink:href="#dirArrow" transform="rotate(270) translate(-36 17)" onmousedown="handlePan(-1,0)">
                  <use xlink:href="#rim" fill="#404040">
                        <set attributeName="fill" to="#808080" begin="arrowLeft.mouseover" end="arrowLeft.mouseout"/>
                  </use>
                  <path fill="none" stroke="white" stroke-width="1.5" d="M0,-3.0v7 M-2.5,-0.5L0,-3.0L2.5,-0.5"/>
                </g>
        </g>
        <svg viewBox="0 0 15 15" width="100%" height="30px" preserveAspectRatio="xMaxYMin meet">
         <g id="arrow_out" transform="scale(0.3 0.3)">
          <a xlink:href="json_8hpp__incl_org.svg" target="_base">
           <rect id="button" ry="5" rx="5" y="6" x="6" height="38" width="38"
                fill="#f2f5e9" fill-opacity="0.5" stroke="#606060" stroke-width="1.0"/>
           <path id="arrow"
             d="M 11.500037,31.436501 C 11.940474,20.09759 22.043105,11.32322 32.158766,21.979434 L 37.068811,17.246167 C 37.068811,17.246167 37.088388,32 37.088388,32 L 22.160133,31.978069 C 22.160133,31.978069 26.997745,27.140456 26.997745,27.140456 C 18.528582,18.264221 13.291696,25.230495 11.500037,31.436501 z"
             style="fill:#404040;"/>
          </a>
         </g>
        </svg>
</svg>
