<?xml version="1.0" encoding="UTF-8" standalone="no"?>
<!DOCTYPE svg PUBLIC "-//W3C//DTD SVG 1.1//EN"
 "http://www.w3.org/Graphics/SVG/1.1/DTD/svg11.dtd">
<!-- Generated by graphviz version 2.38.0 (20140413.2041)
 -->
<!-- Title: src/string/json.hpp Pages: 1 -->
<!--zoomable 330 -->
<svg id="main" version="1.1" xmlns="http://www.w3.org/2000/svg" xmlns:xlink="http://www.w3.org/1999/xlink" xml:space="preserve" onload="init(evt)">
<style type="text/css"><![CDATA[
.edge:hover path { stroke: red; }
.edge:hover polygon { stroke: red; fill: red; }
]]></style>
<script type="text/javascript"><![CDATA[
var edges = document.getElementsByTagName('g');
if (edges && edges.length) {
  for (var i=0;i<edges.length;i++) {
    if (edges[i].id.substr(0,4)=='edge') {
      edges[i].setAttribute('class','edge');
    }
  }
}
]]></script>
        <defs>
                <circle id="rim" cx="0" cy="0" r="7"/>
                <circle id="rim2" cx="0" cy="0" r="3.5"/>
                <g id="zoomPlus">
                        <use xlink:href="#rim" fill="#404040">
                                <set attributeName="fill" to="#808080" begin="zoomplus.mouseover" end="zoomplus.mouseout"/>
                        </use>
                        <path d="M-4,0h8M0,-4v8" fill="none" stroke="white" stroke-width="1.5" pointer-events="none"/>
                </g>
                <g id="zoomMin">
                        <use xlink:href="#rim" fill="#404040">
                                <set attributeName="fill" to="#808080" begin="zoomminus.mouseover" end="zoomminus.mouseout"/>
                        </use>
                        <path d="M-4,0h8" fill="none" stroke="white" stroke-width="1.5" pointer-events="none"/>
                </g>
                <g id="dirArrow">
                        <path fill="none" stroke="white" stroke-width="1.5" d="M0,-3.0v7 M-2.5,-0.5L0,-3.0L2.5,-0.5"/>
                </g>
               <g id="resetDef">
                       <use xlink:href="#rim2" fill="#404040">
                               <set attributeName="fill" to="#808080" begin="reset.mouseover" end="reset.mouseout"/>
                       </use>
               </g>
        </defs>

<script type="text/javascript">
var viewWidth = 1312;
var viewHeight = 330;
var sectionId = 'dynsection-0';
</script>
<script xlink:href="svgpan.js"/>
<svg id="graph" class="graph">
<g id="viewport">
<title>src/string/json.hpp</title>
<!-- Node1 -->
<g id="node1" class="node"><title>Node1</title>
<polygon fill="#bfbfbf" stroke="black" points="240.308,-302.5 240.308,-321.5 337.308,-321.5 337.308,-302.5 240.308,-302.5"/>
<text text-anchor="middle" x="288.808" y="-309.5" font-family="Helvetica,sans-Serif" font-size="10.00">src/string/json.hpp</text>
</g>
<!-- Node2 -->
<g id="node2" class="node"><title>Node2</title>
<polygon fill="none" stroke="#bfbfbf" points="42.8084,-118 42.8084,-137 92.8084,-137 92.8084,-118 42.8084,-118"/>
<text text-anchor="middle" x="67.8084" y="-125" font-family="Helvetica,sans-Serif" font-size="10.00">fstream</text>
</g>
<!-- Node1&#45;&gt;Node2 -->
<g id="edge1" class="edge"><title>Node1&#45;&gt;Node2</title>
<path fill="none" stroke="midnightblue" d="M276.765,-302.46C253.056,-285.518 198.891,-246.162 155.808,-210 130.04,-188.371 101.747,-161.582 84.3792,-144.76"/>
<polygon fill="midnightblue" stroke="midnightblue" points="86.3959,-141.838 76.7899,-137.369 81.5121,-146.853 86.3959,-141.838"/>
</g>
<!-- Node3 -->
<g id="node3" class="node"><title>Node3</title>
<polygon fill="none" stroke="#bfbfbf" points="43.3084,-246.5 43.3084,-265.5 92.3084,-265.5 92.3084,-246.5 43.3084,-246.5"/>
<text text-anchor="middle" x="67.8084" y="-253.5" font-family="Helvetica,sans-Serif" font-size="10.00">istream</text>
</g>
<!-- Node1&#45;&gt;Node3 -->
<g id="edge2" class="edge"><title>Node1&#45;&gt;Node3</title>
<path fill="none" stroke="midnightblue" d="M251.626,-302.462C215.716,-294.136 159.557,-280.905 102.551,-266.395"/>
<polygon fill="midnightblue" stroke="midnightblue" points="103.208,-262.951 92.6526,-263.865 101.474,-269.733 103.208,-262.951"/>
</g>
<!-- Node4 -->
<g id="node4" class="node"><title>Node4</title>
<polygon fill="none" stroke="#bfbfbf" points="110.308,-246.5 110.308,-265.5 151.308,-265.5 151.308,-246.5 110.308,-246.5"/>
<text text-anchor="middle" x="130.808" y="-253.5" font-family="Helvetica,sans-Serif" font-size="10.00">stack</text>
</g>
<!-- Node1&#45;&gt;Node4 -->
<g id="edge3" class="edge"><title>Node1&#45;&gt;Node4</title>
<path fill="none" stroke="midnightblue" d="M263.773,-302.444C235.942,-292.932 190.994,-277.57 161.176,-267.379"/>
<polygon fill="midnightblue" stroke="midnightblue" points="162.285,-264.059 151.69,-264.137 160.021,-270.683 162.285,-264.059"/>
</g>
<!-- Node5 -->
<g id="node5" class="node"><title>Node5</title>
<polygon fill="none" stroke="#bfbfbf" points="993.808,-118 993.808,-137 1045.81,-137 1045.81,-118 993.808,-118"/>
<text text-anchor="middle" x="1019.81" y="-125" font-family="Helvetica,sans-Serif" font-size="10.00">sstream</text>
</g>
<!-- Node1&#45;&gt;Node5 -->
<g id="edge4" class="edge"><title>Node1&#45;&gt;Node5</title>
<path fill="none" stroke="midnightblue" d="M337.37,-311.022C445.021,-309.412 709.978,-296.224 909.808,-210 947.21,-193.862 983.835,-162.803 1003.96,-144.036"/>
<polygon fill="midnightblue" stroke="midnightblue" points="1006.47,-146.48 1011.3,-137.049 1001.64,-141.41 1006.47,-146.48"/>
</g>
<!-- Node6 -->
<g id="node6" class="node"><title>Node6</title>
<polygon fill="none" stroke="#bfbfbf" points="476.308,-56.5 476.308,-75.5 517.308,-75.5 517.308,-56.5 476.308,-56.5"/>
<text text-anchor="middle" x="496.808" y="-63.5" font-family="Helvetica,sans-Serif" font-size="10.00">string</text>
</g>
<!-- Node1&#45;&gt;Node6 -->
<g id="edge5" class="edge"><title>Node1&#45;&gt;Node6</title>
<path fill="none" stroke="midnightblue" d="M240.217,-309.589C173.717,-306.516 59.6325,-296.78 33.8084,-266 -10.1832,-213.565 -12.1887,-162.684 33.8084,-112 62.8421,-80.0076 366.815,-70.0578 465.825,-67.6534"/>
<polygon fill="midnightblue" stroke="midnightblue" points="466.155,-71.1467 476.071,-67.414 465.992,-64.1486 466.155,-71.1467"/>
</g>
<!-- Node7 -->
<g id="node7" class="node"><title>Node7</title>
<polygon fill="none" stroke="#bfbfbf" points="798.308,-112.5 798.308,-142.5 899.308,-142.5 899.308,-112.5 798.308,-112.5"/>
<text text-anchor="start" x="806.308" y="-130.5" font-family="Helvetica,sans-Serif" font-size="10.00">boost/property_tree</text>
<text text-anchor="middle" x="848.808" y="-119.5" font-family="Helvetica,sans-Serif" font-size="10.00">/ptree.hpp</text>
</g>
<!-- Node1&#45;&gt;Node7 -->
<g id="edge6" class="edge"><title>Node1&#45;&gt;Node7</title>
<path fill="none" stroke="midnightblue" d="M337.377,-305.261C419.448,-294.36 589.642,-266.521 722.808,-210 760.135,-194.157 798.65,-167.451 823.111,-148.949"/>
<polygon fill="midnightblue" stroke="midnightblue" points="825.349,-151.643 831.151,-142.777 821.087,-146.09 825.349,-151.643"/>
</g>
<!-- Node8 -->
<g id="node8" class="node"><title>Node8</title>
<g id="a_node8"><a xlink:href="logger_8hpp.html" target="_top" xlink:title="string/logger.hpp">
<polygon fill="none" stroke="black" points="353.308,-246.5 353.308,-265.5 442.308,-265.5 442.308,-246.5 353.308,-246.5"/>
<text text-anchor="middle" x="397.808" y="-253.5" font-family="Helvetica,sans-Serif" font-size="10.00">string/logger.hpp</text>
</a>
</g>
</g>
<!-- Node1&#45;&gt;Node8 -->
<g id="edge7" class="edge"><title>Node1&#45;&gt;Node8</title>
<path fill="none" stroke="midnightblue" d="M306.321,-302.324C323.881,-293.625 351.14,-280.12 371.34,-270.113"/>
<polygon fill="midnightblue" stroke="midnightblue" points="372.932,-273.23 380.339,-265.655 369.825,-266.958 372.932,-273.23"/>
</g>
<!-- Node25 -->
<g id="node25" class="node"><title>Node25</title>
<g id="a_node25"><a xlink:href="string__functions_8hpp.html" target="_top" xlink:title="string_functions.hpp">
<polygon fill="none" stroke="black" points="1086.81,-246.5 1086.81,-265.5 1190.81,-265.5 1190.81,-246.5 1086.81,-246.5"/>
<text text-anchor="middle" x="1138.81" y="-253.5" font-family="Helvetica,sans-Serif" font-size="10.00">string_functions.hpp</text>
</a>
</g>
</g>
<!-- Node1&#45;&gt;Node25 -->
<g id="edge39" class="edge"><title>Node1&#45;&gt;Node25</title>
<path fill="none" stroke="midnightblue" d="M337.561,-307.903C483.142,-298.654 914.599,-271.244 1076.5,-260.959"/>
<polygon fill="midnightblue" stroke="midnightblue" points="1077.01,-264.433 1086.77,-260.306 1076.56,-257.447 1077.01,-264.433"/>
</g>
<!-- Node8&#45;&gt;Node6 -->
<g id="edge12" class="edge"><title>Node8&#45;&gt;Node6</title>
<path fill="none" stroke="midnightblue" d="M368.068,-246.453C350.073,-239.637 328.425,-228.159 316.808,-210 293.307,-173.262 284.86,-146.29 311.808,-112 330.655,-88.0197 418.466,-75.2283 466.019,-69.9558"/>
<polygon fill="midnightblue" stroke="midnightblue" points="466.496,-73.4249 476.07,-68.887 465.756,-66.4641 466.496,-73.4249"/>
</g>
<!-- Node9 -->
<g id="node9" class="node"><title>Node9</title>
<polygon fill="none" stroke="#bfbfbf" points="636.808,-185 636.808,-204 686.808,-204 686.808,-185 636.808,-185"/>
<text text-anchor="middle" x="661.808" y="-192" font-family="Helvetica,sans-Serif" font-size="10.00">iomanip</text>
</g>
<!-- Node8&#45;&gt;Node9 -->
<g id="edge8" class="edge"><title>Node8&#45;&gt;Node9</title>
<path fill="none" stroke="midnightblue" d="M442.346,-248.932C488.962,-241.961 563.975,-228.983 626.808,-210 629.093,-209.31 631.433,-208.524 633.766,-207.684"/>
<polygon fill="midnightblue" stroke="midnightblue" points="635.117,-210.914 643.168,-204.026 632.579,-204.39 635.117,-210.914"/>
</g>
<!-- Node10 -->
<g id="node10" class="node"><title>Node10</title>
<polygon fill="none" stroke="#bfbfbf" points="110.808,-118 110.808,-137 164.808,-137 164.808,-118 110.808,-118"/>
<text text-anchor="middle" x="137.808" y="-125" font-family="Helvetica,sans-Serif" font-size="10.00">iostream</text>
</g>
<!-- Node8&#45;&gt;Node10 -->
<g id="edge9" class="edge"><title>Node8&#45;&gt;Node10</title>
<path fill="none" stroke="midnightblue" d="M353.06,-255.656C307.035,-254.169 235.28,-245.607 185.808,-210 164.093,-194.371 150.576,-165.623 143.618,-146.787"/>
<polygon fill="midnightblue" stroke="midnightblue" points="146.901,-145.571 140.341,-137.251 140.281,-147.846 146.901,-145.571"/>
</g>
<!-- Node11 -->
<g id="node11" class="node"><title>Node11</title>
<polygon fill="none" stroke="#bfbfbf" points="325.808,-185 325.808,-204 369.808,-204 369.808,-185 325.808,-185"/>
<text text-anchor="middle" x="347.808" y="-192" font-family="Helvetica,sans-Serif" font-size="10.00">mutex</text>
</g>
<!-- Node8&#45;&gt;Node11 -->
<g id="edge10" class="edge"><title>Node8&#45;&gt;Node11</title>
<path fill="none" stroke="midnightblue" d="M390.645,-246.475C383.07,-237.462 370.938,-223.025 361.516,-211.812"/>
<polygon fill="midnightblue" stroke="midnightblue" points="364.072,-209.413 354.959,-204.009 358.713,-213.917 364.072,-209.413"/>
</g>
<!-- Node12 -->
<g id="node12" class="node"><title>Node12</title>
<polygon fill="none" stroke="#bfbfbf" points="321.308,-118 321.308,-137 380.308,-137 380.308,-118 321.308,-118"/>
<text text-anchor="middle" x="350.808" y="-125" font-family="Helvetica,sans-Serif" font-size="10.00">stdexcept</text>
</g>
<!-- Node8&#45;&gt;Node12 -->
<g id="edge11" class="edge"><title>Node8&#45;&gt;Node12</title>
<path fill="none" stroke="midnightblue" d="M396.405,-246.339C393.913,-231.99 388.089,-202.533 378.808,-179 374.278,-167.51 367.623,-155.383 361.937,-145.893"/>
<polygon fill="midnightblue" stroke="midnightblue" points="364.732,-143.758 356.494,-137.096 358.779,-147.441 364.732,-143.758"/>
</g>
<!-- Node13 -->
<g id="node13" class="node"><title>Node13</title>
<polygon fill="none" stroke="#bfbfbf" points="697.308,-118 697.308,-137 780.308,-137 780.308,-118 697.308,-118"/>
<text text-anchor="middle" x="738.808" y="-125" font-family="Helvetica,sans-Serif" font-size="10.00">unordered_map</text>
</g>
<!-- Node8&#45;&gt;Node13 -->
<g id="edge13" class="edge"><title>Node8&#45;&gt;Node13</title>
<path fill="none" stroke="midnightblue" d="M442.392,-253.129C515.3,-249.283 655.924,-238.329 695.808,-210 717.069,-194.899 728.689,-165.985 734.325,-146.971"/>
<polygon fill="midnightblue" stroke="midnightblue" points="737.762,-147.666 736.98,-137.1 731.003,-145.848 737.762,-147.666"/>
</g>
<!-- Node14 -->
<g id="node14" class="node"><title>Node14</title>
<polygon fill="none" stroke="#bfbfbf" points="513.308,-179.5 513.308,-209.5 618.308,-209.5 618.308,-179.5 513.308,-179.5"/>
<text text-anchor="start" x="521.308" y="-197.5" font-family="Helvetica,sans-Serif" font-size="10.00">boost/chrono/io/time</text>
<text text-anchor="middle" x="565.808" y="-186.5" font-family="Helvetica,sans-Serif" font-size="10.00">_point_io.hpp</text>
</g>
<!-- Node8&#45;&gt;Node14 -->
<g id="edge14" class="edge"><title>Node8&#45;&gt;Node14</title>
<path fill="none" stroke="midnightblue" d="M421.879,-246.475C446.439,-237.776 485.263,-224.026 516.402,-212.998"/>
<polygon fill="midnightblue" stroke="midnightblue" points="517.956,-216.161 526.214,-209.523 515.619,-209.562 517.956,-216.161"/>
</g>
<!-- Node15 -->
<g id="node15" class="node"><title>Node15</title>
<g id="a_node15"><a xlink:href="multibuf_8hpp.html" target="_top" xlink:title="multibuf.hpp">
<polygon fill="none" stroke="black" points="194.808,-185 194.808,-204 264.808,-204 264.808,-185 194.808,-185"/>
<text text-anchor="middle" x="229.808" y="-192" font-family="Helvetica,sans-Serif" font-size="10.00">multibuf.hpp</text>
</a>
</g>
</g>
<!-- Node8&#45;&gt;Node15 -->
<g id="edge15" class="edge"><title>Node8&#45;&gt;Node15</title>
<path fill="none" stroke="midnightblue" d="M373.738,-246.475C344.795,-236.225 296.046,-218.959 263.407,-207.399"/>
<polygon fill="midnightblue" stroke="midnightblue" points="264.429,-204.048 253.834,-204.009 262.092,-210.647 264.429,-204.048"/>
</g>
<!-- Node17 -->
<g id="node17" class="node"><title>Node17</title>
<g id="a_node17"><a xlink:href="string_8hpp.html" target="_top" xlink:title="string.hpp">
<polygon fill="none" stroke="black" points="436.308,-185 436.308,-204 495.308,-204 495.308,-185 436.308,-185"/>
<text text-anchor="middle" x="465.808" y="-192" font-family="Helvetica,sans-Serif" font-size="10.00">string.hpp</text>
</a>
</g>
</g>
<!-- Node8&#45;&gt;Node17 -->
<g id="edge20" class="edge"><title>Node8&#45;&gt;Node17</title>
<path fill="none" stroke="midnightblue" d="M407.551,-246.475C418.155,-237.197 435.328,-222.171 448.287,-210.831"/>
<polygon fill="midnightblue" stroke="midnightblue" points="450.863,-213.228 456.084,-204.009 446.253,-207.96 450.863,-213.228"/>
</g>
<!-- Node24 -->
<g id="node24" class="node"><title>Node24</title>
<g id="a_node24"><a xlink:href="settings_8hpp.html" target="_top" xlink:title="settings.hpp">
<polygon fill="none" stroke="black" points="830.808,-185 830.808,-204 900.808,-204 900.808,-185 830.808,-185"/>
<text text-anchor="middle" x="865.808" y="-192" font-family="Helvetica,sans-Serif" font-size="10.00">settings.hpp</text>
</a>
</g>
</g>
<!-- Node8&#45;&gt;Node24 -->
<g id="edge34" class="edge"><title>Node8&#45;&gt;Node24</title>
<path fill="none" stroke="midnightblue" d="M442.682,-249.295C531.92,-237.949 730.765,-212.669 820.422,-201.27"/>
<polygon fill="midnightblue" stroke="midnightblue" points="821.065,-204.717 830.544,-199.983 820.182,-197.773 821.065,-204.717"/>
</g>
<!-- Node15&#45;&gt;Node2 -->
<g id="edge17" class="edge"><title>Node15&#45;&gt;Node2</title>
<path fill="none" stroke="midnightblue" d="M207.536,-184.925C181.941,-175.022 138.716,-158.147 101.808,-143 100.217,-142.347 98.5854,-141.671 96.9403,-140.985"/>
<polygon fill="midnightblue" stroke="midnightblue" points="98.121,-137.685 87.5467,-137.026 95.4019,-144.135 98.121,-137.685"/>
</g>
<!-- Node15&#45;&gt;Node6 -->
<g id="edge19" class="edge"><title>Node15&#45;&gt;Node6</title>
<path fill="none" stroke="midnightblue" d="M223.607,-184.731C212.897,-168.419 193.735,-133.151 211.808,-112 244.252,-74.0318 399.062,-67.9096 465.931,-67.0585"/>
<polygon fill="midnightblue" stroke="midnightblue" points="466.279,-70.5555 476.245,-66.9608 466.213,-63.5558 466.279,-70.5555"/>
</g>
<!-- Node15&#45;&gt;Node10 -->
<g id="edge16" class="edge"><title>Node15&#45;&gt;Node10</title>
<path fill="none" stroke="midnightblue" d="M217.401,-184.734C202.227,-174.013 176.33,-155.716 158.209,-142.914"/>
<polygon fill="midnightblue" stroke="midnightblue" points="160.206,-140.039 150.019,-137.127 156.167,-145.756 160.206,-140.039"/>
</g>
<!-- Node16 -->
<g id="node16" class="node"><title>Node16</title>
<polygon fill="none" stroke="#bfbfbf" points="220.808,-118 220.808,-137 264.808,-137 264.808,-118 220.808,-118"/>
<text text-anchor="middle" x="242.808" y="-125" font-family="Helvetica,sans-Serif" font-size="10.00">vector</text>
</g>
<!-- Node15&#45;&gt;Node16 -->
<g id="edge18" class="edge"><title>Node15&#45;&gt;Node16</title>
<path fill="none" stroke="midnightblue" d="M231.562,-184.734C233.472,-175.183 236.585,-159.618 239.052,-147.283"/>
<polygon fill="midnightblue" stroke="midnightblue" points="242.554,-147.62 241.083,-137.127 235.69,-146.247 242.554,-147.62"/>
</g>
<!-- Node17&#45;&gt;Node5 -->
<g id="edge26" class="edge"><title>Node17&#45;&gt;Node5</title>
<path fill="none" stroke="midnightblue" d="M485.21,-184.918C491.081,-182.645 497.616,-180.428 503.808,-179 679.463,-138.483 728.608,-162.576 907.808,-143 933.101,-140.237 961.53,-136.549 983.417,-133.585"/>
<polygon fill="midnightblue" stroke="midnightblue" points="984.159,-137.016 993.593,-132.194 983.211,-130.08 984.159,-137.016"/>
</g>
<!-- Node17&#45;&gt;Node6 -->
<g id="edge25" class="edge"><title>Node17&#45;&gt;Node6</title>
<path fill="none" stroke="midnightblue" d="M487.856,-184.916C493.072,-182.933 498.624,-180.86 503.808,-179 551.035,-162.053 581.528,-183.745 610.808,-143 618.849,-131.812 618.559,-123.391 610.808,-112 601.077,-97.6959 557.709,-83.4065 527.364,-74.885"/>
<polygon fill="midnightblue" stroke="midnightblue" points="528.209,-71.4876 517.64,-72.2245 526.362,-78.2395 528.209,-71.4876"/>
</g>
<!-- Node17&#45;&gt;Node12 -->
<g id="edge24" class="edge"><title>Node17&#45;&gt;Node12</title>
<path fill="none" stroke="midnightblue" d="M450.299,-184.734C430.901,-173.769 397.482,-154.881 374.781,-142.049"/>
<polygon fill="midnightblue" stroke="midnightblue" points="376.5,-139.001 366.072,-137.127 373.056,-145.095 376.5,-139.001"/>
</g>
<!-- Node17&#45;&gt;Node13 -->
<g id="edge27" class="edge"><title>Node17&#45;&gt;Node13</title>
<path fill="none" stroke="midnightblue" d="M486.503,-184.89C492.061,-182.775 498.11,-180.648 503.808,-179 581.763,-156.457 603.722,-161.177 682.808,-143 687.516,-141.918 692.431,-140.731 697.309,-139.516"/>
<polygon fill="midnightblue" stroke="midnightblue" points="698.361,-142.86 707.194,-137.009 696.64,-136.075 698.361,-142.86"/>
</g>
<!-- Node17&#45;&gt;Node16 -->
<g id="edge28" class="edge"><title>Node17&#45;&gt;Node16</title>
<path fill="none" stroke="midnightblue" d="M436.196,-184.869C394.187,-172.624 317.615,-150.305 274.499,-137.737"/>
<polygon fill="midnightblue" stroke="midnightblue" points="275.39,-134.351 264.81,-134.913 273.431,-141.071 275.39,-134.351"/>
</g>
<!-- Node18 -->
<g id="node18" class="node"><title>Node18</title>
<polygon fill="none" stroke="#bfbfbf" points="645.808,-56.5 645.808,-75.5 691.808,-75.5 691.808,-56.5 645.808,-56.5"/>
<text text-anchor="middle" x="668.808" y="-63.5" font-family="Helvetica,sans-Serif" font-size="10.00">cstdint</text>
</g>
<!-- Node17&#45;&gt;Node18 -->
<g id="edge21" class="edge"><title>Node17&#45;&gt;Node18</title>
<path fill="none" stroke="midnightblue" d="M487.401,-184.91C492.733,-182.885 498.453,-180.796 503.808,-179 558.218,-160.755 583.161,-179.054 627.808,-143 646.257,-128.102 657.56,-102.601 663.505,-85.2862"/>
<polygon fill="midnightblue" stroke="midnightblue" points="666.848,-86.3214 666.53,-75.7314 660.175,-84.2087 666.848,-86.3214"/>
</g>
<!-- Node19 -->
<g id="node19" class="node"><title>Node19</title>
<polygon fill="none" stroke="#bfbfbf" points="543.308,-118 543.308,-137 602.308,-137 602.308,-118 543.308,-118"/>
<text text-anchor="middle" x="572.808" y="-125" font-family="Helvetica,sans-Serif" font-size="10.00">functional</text>
</g>
<!-- Node17&#45;&gt;Node19 -->
<g id="edge22" class="edge"><title>Node17&#45;&gt;Node19</title>
<path fill="none" stroke="midnightblue" d="M480.239,-184.734C498.128,-173.867 528.83,-155.216 549.938,-142.393"/>
<polygon fill="midnightblue" stroke="midnightblue" points="551.877,-145.311 558.607,-137.127 548.243,-139.328 551.877,-145.311"/>
</g>
<!-- Node20 -->
<g id="node20" class="node"><title>Node20</title>
<polygon fill="none" stroke="#bfbfbf" points="398.808,-118 398.808,-137 450.808,-137 450.808,-118 398.808,-118"/>
<text text-anchor="middle" x="424.808" y="-125" font-family="Helvetica,sans-Serif" font-size="10.00">memory</text>
</g>
<!-- Node17&#45;&gt;Node20 -->
<g id="edge23" class="edge"><title>Node17&#45;&gt;Node20</title>
<path fill="none" stroke="midnightblue" d="M460.279,-184.734C454.009,-174.793 443.629,-158.338 435.714,-145.789"/>
<polygon fill="midnightblue" stroke="midnightblue" points="438.546,-143.718 430.25,-137.127 432.625,-147.453 438.546,-143.718"/>
</g>
<!-- Node21 -->
<g id="node21" class="node"><title>Node21</title>
<g id="a_node21"><a xlink:href="color_8hpp.html" target="_top" xlink:title="color.hpp">
<polygon fill="none" stroke="black" points="468.808,-118 468.808,-137 524.808,-137 524.808,-118 468.808,-118"/>
<text text-anchor="middle" x="496.808" y="-125" font-family="Helvetica,sans-Serif" font-size="10.00">color.hpp</text>
</a>
</g>
</g>
<!-- Node17&#45;&gt;Node21 -->
<g id="edge29" class="edge"><title>Node17&#45;&gt;Node21</title>
<path fill="none" stroke="midnightblue" d="M469.989,-184.734C474.684,-174.89 482.425,-158.66 488.386,-146.159"/>
<polygon fill="midnightblue" stroke="midnightblue" points="491.548,-147.66 492.694,-137.127 485.23,-144.647 491.548,-147.66"/>
</g>
<!-- Node21&#45;&gt;Node6 -->
<g id="edge31" class="edge"><title>Node21&#45;&gt;Node6</title>
<path fill="none" stroke="midnightblue" d="M496.808,-117.975C496.808,-109.58 496.808,-96.4806 496.808,-85.6631"/>
<polygon fill="midnightblue" stroke="midnightblue" points="500.309,-85.5091 496.808,-75.5091 493.309,-85.5091 500.309,-85.5091"/>
</g>
<!-- Node21&#45;&gt;Node18 -->
<g id="edge30" class="edge"><title>Node21&#45;&gt;Node18</title>
<path fill="none" stroke="midnightblue" d="M518.259,-117.877C523.338,-115.895 528.749,-113.833 533.808,-112 568.41,-99.4625 608.455,-86.2785 635.892,-77.4459"/>
<polygon fill="midnightblue" stroke="midnightblue" points="637.298,-80.6705 645.752,-74.2842 635.161,-74.0048 637.298,-80.6705"/>
</g>
<!-- Node22 -->
<g id="node22" class="node"><title>Node22</title>
<g id="a_node22"><a xlink:href="math_8hpp.html" target="_top" xlink:title="math.hpp">
<polygon fill="none" stroke="black" points="553.308,-56.5 553.308,-75.5 610.308,-75.5 610.308,-56.5 553.308,-56.5"/>
<text text-anchor="middle" x="581.808" y="-63.5" font-family="Helvetica,sans-Serif" font-size="10.00">math.hpp</text>
</a>
</g>
</g>
<!-- Node21&#45;&gt;Node22 -->
<g id="edge32" class="edge"><title>Node21&#45;&gt;Node22</title>
<path fill="none" stroke="midnightblue" d="M508.987,-117.975C522.621,-108.431 544.941,-92.8073 561.282,-81.3683"/>
<polygon fill="midnightblue" stroke="midnightblue" points="563.467,-84.1111 569.653,-75.5091 559.453,-78.3764 563.467,-84.1111"/>
</g>
<!-- Node23 -->
<g id="node23" class="node"><title>Node23</title>
<polygon fill="none" stroke="#bfbfbf" points="877.808,-0.5 877.808,-19.5 933.808,-19.5 933.808,-0.5 877.808,-0.5"/>
<text text-anchor="middle" x="905.808" y="-7.5" font-family="Helvetica,sans-Serif" font-size="10.00">algorithm</text>
</g>
<!-- Node22&#45;&gt;Node23 -->
<g id="edge33" class="edge"><title>Node22&#45;&gt;Node23</title>
<path fill="none" stroke="midnightblue" d="M610.561,-60.2079C669.071,-50.4563 801.983,-28.3042 867.644,-17.3608"/>
<polygon fill="midnightblue" stroke="midnightblue" points="868.294,-20.8007 877.583,-15.7043 867.143,-13.896 868.294,-20.8007"/>
</g>
<!-- Node24&#45;&gt;Node6 -->
<g id="edge35" class="edge"><title>Node24&#45;&gt;Node6</title>
<path fill="none" stroke="midnightblue" d="M876.504,-184.763C894.795,-168.809 928.221,-134.531 907.808,-112 880.521,-81.8809 584.03,-81.8278 543.808,-76 538.497,-75.2305 532.874,-74.2763 527.435,-73.2797"/>
<polygon fill="midnightblue" stroke="midnightblue" points="527.81,-69.7881 517.331,-71.3481 526.496,-76.6636 527.81,-69.7881"/>
</g>
<!-- Node24&#45;&gt;Node7 -->
<g id="edge38" class="edge"><title>Node24&#45;&gt;Node7</title>
<path fill="none" stroke="midnightblue" d="M863.516,-184.734C861.351,-176.456 858.005,-163.662 855.051,-152.367"/>
<polygon fill="midnightblue" stroke="midnightblue" points="858.41,-151.378 852.493,-142.589 851.637,-153.149 858.41,-151.378"/>
</g>
<!-- Node24&#45;&gt;Node13 -->
<g id="edge37" class="edge"><title>Node24&#45;&gt;Node13</title>
<path fill="none" stroke="midnightblue" d="M848.944,-184.869C827.405,-173.845 789.912,-154.655 764.732,-141.768"/>
<polygon fill="midnightblue" stroke="midnightblue" points="766.239,-138.608 755.743,-137.167 763.05,-144.839 766.239,-138.608"/>
</g>
<!-- Node24&#45;&gt;Node18 -->
<g id="edge36" class="edge"><title>Node24&#45;&gt;Node18</title>
<path fill="none" stroke="midnightblue" d="M884.498,-184.941C913.875,-170.357 965.218,-139.584 941.808,-112 911.409,-76.1796 768.074,-68.8267 702.141,-67.351"/>
<polygon fill="midnightblue" stroke="midnightblue" points="701.947,-63.8468 691.882,-67.1553 701.814,-70.8455 701.947,-63.8468"/>
</g>
<!-- Node25&#45;&gt;Node5 -->
<g id="edge43" class="edge"><title>Node25&#45;&gt;Node5</title>
<path fill="none" stroke="midnightblue" d="M1190.66,-246.438C1241.99,-235.742 1309,-214.403 1279.81,-179 1251.89,-145.14 1121.07,-133.698 1056.31,-130.068"/>
<polygon fill="midnightblue" stroke="midnightblue" points="1056.31,-126.563 1046.14,-129.532 1055.94,-133.553 1056.31,-126.563"/>
</g>
<!-- Node25&#45;&gt;Node6 -->
<g id="edge44" class="edge"><title>Node25&#45;&gt;Node6</title>
<path fill="none" stroke="midnightblue" d="M1119.53,-246.405C1104.96,-238.895 1085.67,-226.592 1074.81,-210 1050.46,-172.808 1088.23,-141.309 1054.81,-112 1012.01,-74.4728 600.248,-83.3654 543.808,-76 538.487,-75.3056 532.859,-74.3886 527.417,-73.4056"/>
<polygon fill="midnightblue" stroke="midnightblue" points="527.792,-69.914 517.313,-71.475 526.479,-76.7896 527.792,-69.914"/>
</g>
<!-- Node25&#45;&gt;Node23 -->
<g id="edge40" class="edge"><title>Node25&#45;&gt;Node23</title>
<path fill="none" stroke="midnightblue" d="M1191.03,-249.626C1247.63,-241.518 1326.31,-222.23 1297.81,-179 1216.96,-56.3962 1026.08,-22.9266 944.2,-14.0695"/>
<polygon fill="midnightblue" stroke="midnightblue" points="944.152,-10.5468 933.85,-13.0195 943.446,-17.5111 944.152,-10.5468"/>
</g>
<!-- Node25&#45;&gt;Node24 -->
<g id="edge46" class="edge"><title>Node25&#45;&gt;Node24</title>
<path fill="none" stroke="midnightblue" d="M1099.69,-246.475C1049.8,-235.6 963.672,-216.829 911.015,-205.353"/>
<polygon fill="midnightblue" stroke="midnightblue" points="911.466,-201.869 900.95,-203.159 909.976,-208.708 911.466,-201.869"/>
</g>
<!-- Node26 -->
<g id="node26" class="node"><title>Node26</title>
<polygon fill="none" stroke="#bfbfbf" points="1084.31,-185 1084.31,-204 1131.31,-204 1131.31,-185 1084.31,-185"/>
<text text-anchor="middle" x="1107.81" y="-192" font-family="Helvetica,sans-Serif" font-size="10.00">iterator</text>
</g>
<!-- Node25&#45;&gt;Node26 -->
<g id="edge41" class="edge"><title>Node25&#45;&gt;Node26</title>
<path fill="none" stroke="midnightblue" d="M1134.37,-246.475C1129.85,-237.815 1122.73,-224.149 1117,-213.145"/>
<polygon fill="midnightblue" stroke="midnightblue" points="1119.97,-211.26 1112.24,-204.009 1113.76,-214.495 1119.97,-211.26"/>
</g>
<!-- Node27 -->
<g id="node27" class="node"><title>Node27</title>
<polygon fill="none" stroke="#bfbfbf" points="1149.31,-185 1149.31,-204 1190.31,-204 1190.31,-185 1149.31,-185"/>
<text text-anchor="middle" x="1169.81" y="-192" font-family="Helvetica,sans-Serif" font-size="10.00">regex</text>
</g>
<!-- Node25&#45;&gt;Node27 -->
<g id="edge42" class="edge"><title>Node25&#45;&gt;Node27</title>
<path fill="none" stroke="midnightblue" d="M1143.25,-246.475C1147.76,-237.815 1154.88,-224.149 1160.62,-213.145"/>
<polygon fill="midnightblue" stroke="midnightblue" points="1163.86,-214.495 1165.38,-204.009 1157.65,-211.26 1163.86,-214.495"/>
</g>
<!-- Node28 -->
<g id="node28" class="node"><title>Node28</title>
<polygon fill="none" stroke="#bfbfbf" points="1208.81,-185 1208.81,-204 1270.81,-204 1270.81,-185 1208.81,-185"/>
<text text-anchor="middle" x="1239.81" y="-192" font-family="Helvetica,sans-Serif" font-size="10.00">type_traits</text>
</g>
<!-- Node25&#45;&gt;Node28 -->
<g id="edge45" class="edge"><title>Node25&#45;&gt;Node28</title>
<path fill="none" stroke="midnightblue" d="M1153.28,-246.475C1169.78,-236.755 1196.99,-220.727 1216.49,-209.237"/>
<polygon fill="midnightblue" stroke="midnightblue" points="1218.52,-212.101 1225.36,-204.009 1214.97,-206.069 1218.52,-212.101"/>
</g>
</g>
</svg>
        <g id="navigator" transform="translate(0 0)" fill="#404254">
                <rect fill="#f2f5e9" fill-opacity="0.5" stroke="#606060" stroke-width=".5" x="0" y="0" width="60" height="60"/>
                <use id="zoomplus" xlink:href="#zoomPlus" x="17" y="9" onmousedown="handleZoom(evt,'in')"/>
                <use id="zoomminus" xlink:href="#zoomMin" x="42" y="9" onmousedown="handleZoom(evt,'out')"/>
                <use id="reset" xlink:href="#resetDef" x="30" y="36" onmousedown="handleReset()"/>
                <g id="arrowUp" xlink:href="#dirArrow" transform="translate(30 24)" onmousedown="handlePan(0,-1)">
                  <use xlink:href="#rim" fill="#404040">
                        <set attributeName="fill" to="#808080" begin="arrowUp.mouseover" end="arrowUp.mouseout"/>
                  </use>
                  <path fill="none" stroke="white" stroke-width="1.5" d="M0,-3.0v7 M-2.5,-0.5L0,-3.0L2.5,-0.5"/>
                </g>
                <g id="arrowRight" xlink:href="#dirArrow" transform="rotate(90) translate(36 -43)" onmousedown="handlePan(1,0)">
                  <use xlink:href="#rim" fill="#404040">
                        <set attributeName="fill" to="#808080" begin="arrowRight.mouseover" end="arrowRight.mouseout"/>
                  </use>
                  <path fill="none" stroke="white" stroke-width="1.5" d="M0,-3.0v7 M-2.5,-0.5L0,-3.0L2.5,-0.5"/>
                </g>
                <g id="arrowDown" xlink:href="#dirArrow" transform="rotate(180) translate(-30 -48)" onmousedown="handlePan(0,1)">
                  <use xlink:href="#rim" fill="#404040">
                        <set attributeName="fill" to="#808080" begin="arrowDown.mouseover" end="arrowDown.mouseout"/>
                  </use>
                  <path fill="none" stroke="white" stroke-width="1.5" d="M0,-3.0v7 M-2.5,-0.5L0,-3.0L2.5,-0.5"/>
                </g>
                <g id="arrowLeft" xlink:href="#dirArrow" transform="rotate(270) translate(-36 17)" onmousedown="handlePan(-1,0)">
                  <use xlink:href="#rim" fill="#404040">
                        <set attributeName="fill" to="#808080" begin="arrowLeft.mouseover" end="arrowLeft.mouseout"/>
                  </use>
                  <path fill="none" stroke="white" stroke-width="1.5" d="M0,-3.0v7 M-2.5,-0.5L0,-3.0L2.5,-0.5"/>
                </g>
        </g>
        <svg viewBox="0 0 15 15" width="100%" height="30px" preserveAspectRatio="xMaxYMin meet">
         <g id="arrow_out" transform="scale(0.3 0.3)">
          <a xlink:href="json_8hpp__incl_org.svg" target="_base">
           <rect id="button" ry="5" rx="5" y="6" x="6" height="38" width="38"
                fill="#f2f5e9" fill-opacity="0.5" stroke="#606060" stroke-width="1.0"/>
           <path id="arrow"
             d="M 11.500037,31.436501 C 11.940474,20.09759 22.043105,11.32322 32.158766,21.979434 L 37.068811,17.246167 C 37.068811,17.246167 37.088388,32 37.088388,32 L 22.160133,31.978069 C 22.160133,31.978069 26.997745,27.140456 26.997745,27.140456 C 18.528582,18.264221 13.291696,25.230495 11.500037,31.436501 z"
             style="fill:#404040;"/>
          </a>
         </g>
        </svg>
</svg>
