<?xml version="1.0" encoding="UTF-8" standalone="no"?>
<!DOCTYPE svg PUBLIC "-//W3C//DTD SVG 1.1//EN"
 "http://www.w3.org/Graphics/SVG/1.1/DTD/svg11.dtd">
<!-- Generated by graphviz version 2.38.0 (20140413.2041)
 -->
<!-- Title: src/string/json.hpp Pages: 1 -->
<svg width="1366pt" height="274pt"
 viewBox="0.00 0.00 1366.00 274.00" xmlns="http://www.w3.org/2000/svg" xmlns:xlink="http://www.w3.org/1999/xlink">
<g id="graph0" class="graph" transform="scale(1 1) rotate(0) translate(4 270)">
<title>src/string/json.hpp</title>
<!-- Node1 -->
<g id="node1" class="node"><title>Node1</title>
<polygon fill="#bfbfbf" stroke="black" points="401,-246.5 401,-265.5 498,-265.5 498,-246.5 401,-246.5"/>
<text text-anchor="middle" x="449.5" y="-253.5" font-family="Helvetica,sans-Serif" font-size="10.00">src/string/json.hpp</text>
</g>
<!-- Node2 -->
<g id="node2" class="node"><title>Node2</title>
<polygon fill="none" stroke="#bfbfbf" points="634.5,-62 634.5,-81 684.5,-81 684.5,-62 634.5,-62"/>
<text text-anchor="middle" x="659.5" y="-69" font-family="Helvetica,sans-Serif" font-size="10.00">fstream</text>
</g>
<!-- Node1&#45;&gt;Node2 -->
<g id="edge1" class="edge"><title>Node1&#45;&gt;Node2</title>
<path fill="none" stroke="midnightblue" d="M439.774,-246.352C415.552,-223.803 356.83,-162.246 390.5,-123 424.757,-83.0695 573.832,-101.17 624.5,-87 626.939,-86.318 629.435,-85.5131 631.918,-84.6379"/>
<polygon fill="midnightblue" stroke="midnightblue" points="633.201,-87.8944 641.266,-81.0237 630.676,-81.3654 633.201,-87.8944"/>
</g>
<!-- Node3 -->
<g id="node3" class="node"><title>Node3</title>
<polygon fill="none" stroke="#bfbfbf" points="235,-190.5 235,-209.5 284,-209.5 284,-190.5 235,-190.5"/>
<text text-anchor="middle" x="259.5" y="-197.5" font-family="Helvetica,sans-Serif" font-size="10.00">istream</text>
</g>
<!-- Node1&#45;&gt;Node3 -->
<g id="edge2" class="edge"><title>Node1&#45;&gt;Node3</title>
<path fill="none" stroke="midnightblue" d="M419.394,-246.444C385.299,-236.753 329.842,-220.992 294.022,-210.811"/>
<polygon fill="midnightblue" stroke="midnightblue" points="294.603,-207.338 284.028,-207.971 292.69,-214.072 294.603,-207.338"/>
</g>
<!-- Node4 -->
<g id="node4" class="node"><title>Node4</title>
<polygon fill="none" stroke="#bfbfbf" points="302,-190.5 302,-209.5 343,-209.5 343,-190.5 302,-190.5"/>
<text text-anchor="middle" x="322.5" y="-197.5" font-family="Helvetica,sans-Serif" font-size="10.00">stack</text>
</g>
<!-- Node1&#45;&gt;Node4 -->
<g id="edge3" class="edge"><title>Node1&#45;&gt;Node4</title>
<path fill="none" stroke="midnightblue" d="M429.376,-246.444C408.476,-237.557 375.565,-223.563 351.784,-213.451"/>
<polygon fill="midnightblue" stroke="midnightblue" points="353.102,-210.208 342.529,-209.516 350.362,-216.65 353.102,-210.208"/>
</g>
<!-- Node5 -->
<g id="node5" class="node"><title>Node5</title>
<polygon fill="none" stroke="#bfbfbf" points="988.5,-62 988.5,-81 1040.5,-81 1040.5,-62 988.5,-62"/>
<text text-anchor="middle" x="1014.5" y="-69" font-family="Helvetica,sans-Serif" font-size="10.00">sstream</text>
</g>
<!-- Node1&#45;&gt;Node5 -->
<g id="edge4" class="edge"><title>Node1&#45;&gt;Node5</title>
<path fill="none" stroke="midnightblue" d="M498.036,-253.927C621.089,-250.778 938.107,-239.829 974.5,-210 1010.3,-180.654 1015.18,-121.249 1015.19,-91.0418"/>
<polygon fill="midnightblue" stroke="midnightblue" points="1018.68,-90.9513 1015,-81.0174 1011.69,-91.0802 1018.68,-90.9513"/>
</g>
<!-- Node6 -->
<g id="node6" class="node"><title>Node6</title>
<polygon fill="none" stroke="#bfbfbf" points="792,-0.5 792,-19.5 833,-19.5 833,-0.5 792,-0.5"/>
<text text-anchor="middle" x="812.5" y="-7.5" font-family="Helvetica,sans-Serif" font-size="10.00">string</text>
</g>
<!-- Node1&#45;&gt;Node6 -->
<g id="edge5" class="edge"><title>Node1&#45;&gt;Node6</title>
<path fill="none" stroke="midnightblue" d="M498.325,-250.16C602.587,-238.888 842.314,-207.683 901.5,-154 934.565,-124.01 948.44,-93.0227 923.5,-56 905.733,-29.6256 869.581,-18.7035 843.351,-14.1839"/>
<polygon fill="midnightblue" stroke="midnightblue" points="843.556,-10.6756 833.148,-12.6567 842.52,-17.5985 843.556,-10.6756"/>
</g>
<!-- Node7 -->
<g id="node7" class="node"><title>Node7</title>
<polygon fill="none" stroke="#bfbfbf" points="0,-56.5 0,-86.5 101,-86.5 101,-56.5 0,-56.5"/>
<text text-anchor="start" x="8" y="-74.5" font-family="Helvetica,sans-Serif" font-size="10.00">boost/property_tree</text>
<text text-anchor="middle" x="50.5" y="-63.5" font-family="Helvetica,sans-Serif" font-size="10.00">/ptree.hpp</text>
</g>
<!-- Node1&#45;&gt;Node7 -->
<g id="edge6" class="edge"><title>Node1&#45;&gt;Node7</title>
<path fill="none" stroke="midnightblue" d="M400.73,-251.761C353.944,-247.167 282.231,-236.163 225.5,-210 162.426,-180.912 101.642,-124.875 71.0338,-94.0794"/>
<polygon fill="midnightblue" stroke="midnightblue" points="73.4202,-91.5141 63.9191,-86.8258 68.4228,-96.4158 73.4202,-91.5141"/>
</g>
<!-- Node8 -->
<g id="node8" class="node"><title>Node8</title>
<g id="a_node8"><a xlink:href="logger_8hpp.html" target="_top" xlink:title="string/logger.hpp">
<polygon fill="none" stroke="black" points="483,-190.5 483,-209.5 572,-209.5 572,-190.5 483,-190.5"/>
<text text-anchor="middle" x="527.5" y="-197.5" font-family="Helvetica,sans-Serif" font-size="10.00">string/logger.hpp</text>
</a>
</g>
</g>
<!-- Node1&#45;&gt;Node8 -->
<g id="edge7" class="edge"><title>Node1&#45;&gt;Node8</title>
<path fill="none" stroke="midnightblue" d="M462.032,-246.324C474.086,-237.979 492.527,-225.212 506.769,-215.352"/>
<polygon fill="midnightblue" stroke="midnightblue" points="508.769,-218.224 514.999,-209.655 504.785,-212.469 508.769,-218.224"/>
</g>
<!-- Node25 -->
<g id="node25" class="node"><title>Node25</title>
<g id="a_node25"><a xlink:href="string__functions_8hpp.html" target="_top" xlink:title="string_functions.hpp">
<polygon fill="none" stroke="black" points="1065.5,-129 1065.5,-148 1169.5,-148 1169.5,-129 1065.5,-129"/>
<text text-anchor="middle" x="1117.5" y="-136" font-family="Helvetica,sans-Serif" font-size="10.00">string_functions.hpp</text>
</a>
</g>
</g>
<!-- Node1&#45;&gt;Node25 -->
<g id="edge39" class="edge"><title>Node1&#45;&gt;Node25</title>
<path fill="none" stroke="midnightblue" d="M498.387,-254.537C618.503,-252.862 925.229,-245.162 1020.5,-210 1052.85,-198.061 1083.94,-172.059 1101.87,-155.189"/>
<polygon fill="midnightblue" stroke="midnightblue" points="1104.37,-157.632 1109.13,-148.164 1099.51,-152.6 1104.37,-157.632"/>
</g>
<!-- Node8&#45;&gt;Node6 -->
<g id="edge12" class="edge"><title>Node8&#45;&gt;Node6</title>
<path fill="none" stroke="midnightblue" d="M572.307,-198.266C654.13,-196.105 823.635,-187.585 870.5,-154 907.857,-127.229 927.748,-95.0414 903.5,-56 890.314,-34.7701 863.817,-23.2525 842.8,-17.2013"/>
<polygon fill="midnightblue" stroke="midnightblue" points="843.564,-13.7837 833.005,-14.6513 841.8,-20.5579 843.564,-13.7837"/>
</g>
<!-- Node9 -->
<g id="node9" class="node"><title>Node9</title>
<polygon fill="none" stroke="#bfbfbf" points="399.5,-129 399.5,-148 449.5,-148 449.5,-129 399.5,-129"/>
<text text-anchor="middle" x="424.5" y="-136" font-family="Helvetica,sans-Serif" font-size="10.00">iomanip</text>
</g>
<!-- Node8&#45;&gt;Node9 -->
<g id="edge8" class="edge"><title>Node8&#45;&gt;Node9</title>
<path fill="none" stroke="midnightblue" d="M512.743,-190.475C495.839,-180.711 467.917,-164.581 448.01,-153.081"/>
<polygon fill="midnightblue" stroke="midnightblue" points="449.64,-149.981 439.23,-148.009 446.138,-156.042 449.64,-149.981"/>
</g>
<!-- Node10 -->
<g id="node10" class="node"><title>Node10</title>
<polygon fill="none" stroke="#bfbfbf" points="840.5,-62 840.5,-81 894.5,-81 894.5,-62 840.5,-62"/>
<text text-anchor="middle" x="867.5" y="-69" font-family="Helvetica,sans-Serif" font-size="10.00">iostream</text>
</g>
<!-- Node8&#45;&gt;Node10 -->
<g id="edge9" class="edge"><title>Node8&#45;&gt;Node10</title>
<path fill="none" stroke="midnightblue" d="M572.148,-198.701C650.429,-197.235 807.908,-189.785 847.5,-154 864.946,-138.231 868.343,-109.947 868.472,-91.198"/>
<polygon fill="midnightblue" stroke="midnightblue" points="871.971,-91.1065 868.239,-81.1907 864.973,-91.2695 871.971,-91.1065"/>
</g>
<!-- Node11 -->
<g id="node11" class="node"><title>Node11</title>
<polygon fill="none" stroke="#bfbfbf" points="505.5,-129 505.5,-148 549.5,-148 549.5,-129 505.5,-129"/>
<text text-anchor="middle" x="527.5" y="-136" font-family="Helvetica,sans-Serif" font-size="10.00">mutex</text>
</g>
<!-- Node8&#45;&gt;Node11 -->
<g id="edge10" class="edge"><title>Node8&#45;&gt;Node11</title>
<path fill="none" stroke="midnightblue" d="M527.5,-190.475C527.5,-182.08 527.5,-168.981 527.5,-158.163"/>
<polygon fill="midnightblue" stroke="midnightblue" points="531,-158.009 527.5,-148.009 524,-158.009 531,-158.009"/>
</g>
<!-- Node12 -->
<g id="node12" class="node"><title>Node12</title>
<polygon fill="none" stroke="#bfbfbf" points="259,-62 259,-81 318,-81 318,-62 259,-62"/>
<text text-anchor="middle" x="288.5" y="-69" font-family="Helvetica,sans-Serif" font-size="10.00">stdexcept</text>
</g>
<!-- Node8&#45;&gt;Node12 -->
<g id="edge11" class="edge"><title>Node8&#45;&gt;Node12</title>
<path fill="none" stroke="midnightblue" d="M522.006,-190.264C511.591,-174.428 487.412,-140.964 458.5,-123 409.031,-92.2625 388.168,-104.118 332.5,-87 329.595,-86.1069 326.59,-85.1615 323.576,-84.1989"/>
<polygon fill="midnightblue" stroke="midnightblue" points="324.63,-80.8611 314.038,-81.1077 322.472,-87.5202 324.63,-80.8611"/>
</g>
<!-- Node13 -->
<g id="node13" class="node"><title>Node13</title>
<polygon fill="none" stroke="#bfbfbf" points="158,-62 158,-81 241,-81 241,-62 158,-62"/>
<text text-anchor="middle" x="199.5" y="-69" font-family="Helvetica,sans-Serif" font-size="10.00">unordered_map</text>
</g>
<!-- Node8&#45;&gt;Node13 -->
<g id="edge13" class="edge"><title>Node8&#45;&gt;Node13</title>
<path fill="none" stroke="midnightblue" d="M499.178,-190.478C471.301,-181.907 427.632,-167.991 390.5,-154 331.503,-131.771 263.983,-101.881 227.113,-85.1696"/>
<polygon fill="midnightblue" stroke="midnightblue" points="228.542,-81.9748 217.991,-81.02 225.644,-88.3466 228.542,-81.9748"/>
</g>
<!-- Node14 -->
<g id="node14" class="node"><title>Node14</title>
<polygon fill="none" stroke="#bfbfbf" points="734,-123.5 734,-153.5 839,-153.5 839,-123.5 734,-123.5"/>
<text text-anchor="start" x="742" y="-141.5" font-family="Helvetica,sans-Serif" font-size="10.00">boost/chrono/io/time</text>
<text text-anchor="middle" x="786.5" y="-130.5" font-family="Helvetica,sans-Serif" font-size="10.00">_point_io.hpp</text>
</g>
<!-- Node8&#45;&gt;Node14 -->
<g id="edge14" class="edge"><title>Node8&#45;&gt;Node14</title>
<path fill="none" stroke="midnightblue" d="M565.28,-190.431C602.932,-181.877 662.672,-168.27 723.902,-154.132"/>
<polygon fill="midnightblue" stroke="midnightblue" points="724.784,-157.52 733.739,-151.859 723.208,-150.7 724.784,-157.52"/>
</g>
<!-- Node15 -->
<g id="node15" class="node"><title>Node15</title>
<g id="a_node15"><a xlink:href="multibuf_8hpp.html" target="_top" xlink:title="multibuf.hpp">
<polygon fill="none" stroke="black" points="645.5,-129 645.5,-148 715.5,-148 715.5,-129 645.5,-129"/>
<text text-anchor="middle" x="680.5" y="-136" font-family="Helvetica,sans-Serif" font-size="10.00">multibuf.hpp</text>
</a>
</g>
</g>
<!-- Node8&#45;&gt;Node15 -->
<g id="edge15" class="edge"><title>Node8&#45;&gt;Node15</title>
<path fill="none" stroke="midnightblue" d="M549.421,-190.475C575.552,-180.313 619.412,-163.256 649.13,-151.7"/>
<polygon fill="midnightblue" stroke="midnightblue" points="650.568,-154.896 658.619,-148.009 648.031,-148.372 650.568,-154.896"/>
</g>
<!-- Node17 -->
<g id="node17" class="node"><title>Node17</title>
<g id="a_node17"><a xlink:href="string_8hpp.html" target="_top" xlink:title="string.hpp">
<polygon fill="none" stroke="black" points="568,-129 568,-148 627,-148 627,-129 568,-129"/>
<text text-anchor="middle" x="597.5" y="-136" font-family="Helvetica,sans-Serif" font-size="10.00">string.hpp</text>
</a>
</g>
</g>
<!-- Node8&#45;&gt;Node17 -->
<g id="edge20" class="edge"><title>Node8&#45;&gt;Node17</title>
<path fill="none" stroke="midnightblue" d="M537.529,-190.475C548.549,-181.108 566.46,-165.884 579.843,-154.508"/>
<polygon fill="midnightblue" stroke="midnightblue" points="582.137,-157.152 587.489,-148.009 577.603,-151.819 582.137,-157.152"/>
</g>
<!-- Node24 -->
<g id="node24" class="node"><title>Node24</title>
<g id="a_node24"><a xlink:href="settings_8hpp.html" target="_top" xlink:title="settings.hpp">
<polygon fill="none" stroke="black" points="164.5,-129 164.5,-148 234.5,-148 234.5,-129 164.5,-129"/>
<text text-anchor="middle" x="199.5" y="-136" font-family="Helvetica,sans-Serif" font-size="10.00">settings.hpp</text>
</a>
</g>
</g>
<!-- Node8&#45;&gt;Node24 -->
<g id="edge34" class="edge"><title>Node8&#45;&gt;Node24</title>
<path fill="none" stroke="midnightblue" d="M482.923,-190.914C420.536,-179.597 307.792,-159.144 244.943,-147.744"/>
<polygon fill="midnightblue" stroke="midnightblue" points="245.392,-144.268 234.928,-145.927 244.143,-151.156 245.392,-144.268"/>
</g>
<!-- Node15&#45;&gt;Node2 -->
<g id="edge17" class="edge"><title>Node15&#45;&gt;Node2</title>
<path fill="none" stroke="midnightblue" d="M677.668,-128.734C674.551,-119.085 669.451,-103.3 665.447,-90.9063"/>
<polygon fill="midnightblue" stroke="midnightblue" points="668.692,-89.567 662.287,-81.1273 662.031,-91.719 668.692,-89.567"/>
</g>
<!-- Node15&#45;&gt;Node6 -->
<g id="edge19" class="edge"><title>Node15&#45;&gt;Node6</title>
<path fill="none" stroke="midnightblue" d="M706.216,-128.97C735.785,-118.673 781.765,-100.996 793.5,-87 806.99,-70.9111 811.119,-46.5895 812.272,-29.8149"/>
<polygon fill="midnightblue" stroke="midnightblue" points="815.778,-29.731 812.673,-19.6014 808.783,-29.4563 815.778,-29.731"/>
</g>
<!-- Node15&#45;&gt;Node10 -->
<g id="edge16" class="edge"><title>Node15&#45;&gt;Node10</title>
<path fill="none" stroke="midnightblue" d="M705.318,-128.974C734.382,-118.976 783.968,-101.876 826.5,-87 828.87,-86.1712 831.315,-85.313 833.777,-84.4472"/>
<polygon fill="midnightblue" stroke="midnightblue" points="834.961,-87.7411 843.228,-81.1151 832.633,-81.1394 834.961,-87.7411"/>
</g>
<!-- Node16 -->
<g id="node16" class="node"><title>Node16</title>
<polygon fill="none" stroke="#bfbfbf" points="740.5,-62 740.5,-81 784.5,-81 784.5,-62 740.5,-62"/>
<text text-anchor="middle" x="762.5" y="-69" font-family="Helvetica,sans-Serif" font-size="10.00">vector</text>
</g>
<!-- Node15&#45;&gt;Node16 -->
<g id="edge18" class="edge"><title>Node15&#45;&gt;Node16</title>
<path fill="none" stroke="midnightblue" d="M691.559,-128.734C704.838,-118.208 727.329,-100.379 743.429,-87.6174"/>
<polygon fill="midnightblue" stroke="midnightblue" points="745.954,-90.0821 751.616,-81.1273 741.606,-84.5965 745.954,-90.0821"/>
</g>
<!-- Node17&#45;&gt;Node5 -->
<g id="edge26" class="edge"><title>Node17&#45;&gt;Node5</title>
<path fill="none" stroke="midnightblue" d="M617.874,-128.949C623.796,-126.732 630.332,-124.538 636.5,-123 644.783,-120.934 885.191,-89.403 978.226,-77.2376"/>
<polygon fill="midnightblue" stroke="midnightblue" points="978.843,-80.687 988.305,-75.9202 977.935,-73.746 978.843,-80.687"/>
</g>
<!-- Node17&#45;&gt;Node6 -->
<g id="edge25" class="edge"><title>Node17&#45;&gt;Node6</title>
<path fill="none" stroke="midnightblue" d="M616.532,-128.881C636.369,-119.581 668.053,-103.828 693.5,-87 711.68,-74.9774 713.458,-68.2294 731.5,-56 748.976,-44.1539 769.822,-32.6268 785.99,-24.2051"/>
<polygon fill="midnightblue" stroke="midnightblue" points="787.611,-27.3076 794.908,-19.6265 784.413,-21.0804 787.611,-27.3076"/>
</g>
<!-- Node17&#45;&gt;Node12 -->
<g id="edge24" class="edge"><title>Node17&#45;&gt;Node12</title>
<path fill="none" stroke="midnightblue" d="M576.695,-128.898C570.881,-126.733 564.508,-124.579 558.5,-123 460.129,-97.1509 431.34,-110.994 332.5,-87 329.034,-86.1586 325.449,-85.1737 321.889,-84.1201"/>
<polygon fill="midnightblue" stroke="midnightblue" points="322.636,-80.6863 312.047,-81.0316 320.54,-87.3652 322.636,-80.6863"/>
</g>
<!-- Node17&#45;&gt;Node13 -->
<g id="edge27" class="edge"><title>Node17&#45;&gt;Node13</title>
<path fill="none" stroke="midnightblue" d="M577.142,-128.882C571.221,-126.664 564.681,-124.486 558.5,-123 424.069,-90.6762 385.03,-114.349 249.5,-87 244.993,-86.0904 240.302,-84.9697 235.679,-83.7577"/>
<polygon fill="midnightblue" stroke="midnightblue" points="236.336,-80.3078 225.764,-81.0051 234.464,-87.0527 236.336,-80.3078"/>
</g>
<!-- Node17&#45;&gt;Node16 -->
<g id="edge28" class="edge"><title>Node17&#45;&gt;Node16</title>
<path fill="none" stroke="midnightblue" d="M619.438,-128.987C645.127,-119.001 688.947,-101.913 726.5,-87 728.136,-86.3503 729.813,-85.6822 731.506,-85.0063"/>
<polygon fill="midnightblue" stroke="midnightblue" points="733.214,-88.0921 741.193,-81.1218 730.609,-81.5949 733.214,-88.0921"/>
</g>
<!-- Node18 -->
<g id="node18" class="node"><title>Node18</title>
<polygon fill="none" stroke="#bfbfbf" points="315.5,-0.5 315.5,-19.5 361.5,-19.5 361.5,-0.5 315.5,-0.5"/>
<text text-anchor="middle" x="338.5" y="-7.5" font-family="Helvetica,sans-Serif" font-size="10.00">cstdint</text>
</g>
<!-- Node17&#45;&gt;Node18 -->
<g id="edge21" class="edge"><title>Node17&#45;&gt;Node18</title>
<path fill="none" stroke="midnightblue" d="M576.261,-128.852C570.557,-126.737 564.348,-124.62 558.5,-123 474.408,-99.7103 431.847,-143.673 365.5,-87 348.731,-72.6761 342.376,-47.2103 339.968,-29.7342"/>
<polygon fill="midnightblue" stroke="midnightblue" points="343.428,-29.1727 338.886,-19.601 336.468,-29.9161 343.428,-29.1727"/>
</g>
<!-- Node19 -->
<g id="node19" class="node"><title>Node19</title>
<polygon fill="none" stroke="#bfbfbf" points="557,-62 557,-81 616,-81 616,-62 557,-62"/>
<text text-anchor="middle" x="586.5" y="-69" font-family="Helvetica,sans-Serif" font-size="10.00">functional</text>
</g>
<!-- Node17&#45;&gt;Node19 -->
<g id="edge22" class="edge"><title>Node17&#45;&gt;Node19</title>
<path fill="none" stroke="midnightblue" d="M596.016,-128.734C594.4,-119.183 591.766,-103.618 589.679,-91.2829"/>
<polygon fill="midnightblue" stroke="midnightblue" points="593.08,-90.4031 587.96,-81.1273 586.178,-91.5711 593.08,-90.4031"/>
</g>
<!-- Node20 -->
<g id="node20" class="node"><title>Node20</title>
<polygon fill="none" stroke="#bfbfbf" points="486.5,-62 486.5,-81 538.5,-81 538.5,-62 486.5,-62"/>
<text text-anchor="middle" x="512.5" y="-69" font-family="Helvetica,sans-Serif" font-size="10.00">memory</text>
</g>
<!-- Node17&#45;&gt;Node20 -->
<g id="edge23" class="edge"><title>Node17&#45;&gt;Node20</title>
<path fill="none" stroke="midnightblue" d="M586.037,-128.734C572.145,-118.111 548.525,-100.049 531.807,-87.2642"/>
<polygon fill="midnightblue" stroke="midnightblue" points="533.852,-84.4216 523.782,-81.1273 529.599,-89.9821 533.852,-84.4216"/>
</g>
<!-- Node21 -->
<g id="node21" class="node"><title>Node21</title>
<g id="a_node21"><a xlink:href="color_8hpp.html" target="_top" xlink:title="color.hpp">
<polygon fill="none" stroke="black" points="374.5,-62 374.5,-81 430.5,-81 430.5,-62 374.5,-62"/>
<text text-anchor="middle" x="402.5" y="-69" font-family="Helvetica,sans-Serif" font-size="10.00">color.hpp</text>
</a>
</g>
</g>
<!-- Node17&#45;&gt;Node21 -->
<g id="edge29" class="edge"><title>Node17&#45;&gt;Node21</title>
<path fill="none" stroke="midnightblue" d="M574.874,-128.901C569.522,-126.919 563.822,-124.85 558.5,-123 518.223,-109.001 471.671,-94.0946 439.977,-84.1358"/>
<polygon fill="midnightblue" stroke="midnightblue" points="440.825,-80.7336 430.236,-81.0836 438.732,-87.4134 440.825,-80.7336"/>
</g>
<!-- Node21&#45;&gt;Node6 -->
<g id="edge33" class="edge"><title>Node21&#45;&gt;Node6</title>
<path fill="none" stroke="midnightblue" d="M424.478,-61.9365C430.856,-59.719 437.886,-57.5281 444.5,-56 567.513,-27.5796 718.066,-16.2926 781.736,-12.5685"/>
<polygon fill="midnightblue" stroke="midnightblue" points="782.104,-16.0534 791.891,-11.9962 781.71,-9.06444 782.104,-16.0534"/>
</g>
<!-- Node21&#45;&gt;Node18 -->
<g id="edge31" class="edge"><title>Node21&#45;&gt;Node18</title>
<path fill="none" stroke="midnightblue" d="M393.33,-61.9751C383.35,-52.6966 367.188,-37.6706 354.991,-26.331"/>
<polygon fill="midnightblue" stroke="midnightblue" points="357.36,-23.7547 347.653,-19.5091 352.593,-28.8814 357.36,-23.7547"/>
</g>
<!-- Node22 -->
<g id="node22" class="node"><title>Node22</title>
<polygon fill="none" stroke="#bfbfbf" points="443.5,-0.5 443.5,-19.5 489.5,-19.5 489.5,-0.5 443.5,-0.5"/>
<text text-anchor="middle" x="466.5" y="-7.5" font-family="Helvetica,sans-Serif" font-size="10.00">cctype</text>
</g>
<!-- Node21&#45;&gt;Node22 -->
<g id="edge30" class="edge"><title>Node21&#45;&gt;Node22</title>
<path fill="none" stroke="midnightblue" d="M411.67,-61.9751C421.65,-52.6966 437.812,-37.6706 450.009,-26.331"/>
<polygon fill="midnightblue" stroke="midnightblue" points="452.407,-28.8814 457.347,-19.5091 447.64,-23.7547 452.407,-28.8814"/>
</g>
<!-- Node23 -->
<g id="node23" class="node"><title>Node23</title>
<polygon fill="none" stroke="#bfbfbf" points="380,-0.5 380,-19.5 425,-19.5 425,-0.5 380,-0.5"/>
<text text-anchor="middle" x="402.5" y="-7.5" font-family="Helvetica,sans-Serif" font-size="10.00">cstdlib</text>
</g>
<!-- Node21&#45;&gt;Node23 -->
<g id="edge32" class="edge"><title>Node21&#45;&gt;Node23</title>
<path fill="none" stroke="midnightblue" d="M402.5,-61.9751C402.5,-53.5803 402.5,-40.4806 402.5,-29.6631"/>
<polygon fill="midnightblue" stroke="midnightblue" points="406,-29.5091 402.5,-19.5091 399,-29.5091 406,-29.5091"/>
</g>
<!-- Node24&#45;&gt;Node6 -->
<g id="edge35" class="edge"><title>Node24&#45;&gt;Node6</title>
<path fill="none" stroke="midnightblue" d="M234.533,-135.325C282.802,-131.199 371.502,-119.499 439.5,-87 459.165,-77.6012 457.501,-64.6663 477.5,-56 531.916,-32.4195 709.238,-18.0225 781.463,-13.0071"/>
<polygon fill="midnightblue" stroke="midnightblue" points="781.986,-16.4798 791.725,-12.309 781.51,-9.49596 781.986,-16.4798"/>
</g>
<!-- Node24&#45;&gt;Node7 -->
<g id="edge38" class="edge"><title>Node24&#45;&gt;Node7</title>
<path fill="none" stroke="midnightblue" d="M179.714,-128.869C157.453,-119.157 120.666,-103.109 92.0247,-90.6148"/>
<polygon fill="midnightblue" stroke="midnightblue" points="93.222,-87.3186 82.6566,-86.5281 90.423,-93.7347 93.222,-87.3186"/>
</g>
<!-- Node24&#45;&gt;Node13 -->
<g id="edge37" class="edge"><title>Node24&#45;&gt;Node13</title>
<path fill="none" stroke="midnightblue" d="M199.5,-128.734C199.5,-119.183 199.5,-103.618 199.5,-91.2829"/>
<polygon fill="midnightblue" stroke="midnightblue" points="203,-91.1273 199.5,-81.1273 196,-91.1273 203,-91.1273"/>
</g>
<!-- Node24&#45;&gt;Node18 -->
<g id="edge36" class="edge"><title>Node24&#45;&gt;Node18</title>
<path fill="none" stroke="midnightblue" d="M186.827,-128.759C166.055,-113.374 128.932,-80.7441 148.5,-56 167.698,-31.724 256.177,-19.1845 305.334,-13.9896"/>
<polygon fill="midnightblue" stroke="midnightblue" points="305.881,-17.4523 315.477,-12.963 305.176,-10.4879 305.881,-17.4523"/>
</g>
<!-- Node25&#45;&gt;Node5 -->
<g id="edge43" class="edge"><title>Node25&#45;&gt;Node5</title>
<path fill="none" stroke="midnightblue" d="M1103.61,-128.734C1086.47,-117.916 1057.1,-99.3832 1036.79,-86.5659"/>
<polygon fill="midnightblue" stroke="midnightblue" points="1038.5,-83.5043 1028.17,-81.1273 1034.76,-89.4241 1038.5,-83.5043"/>
</g>
<!-- Node25&#45;&gt;Node6 -->
<g id="edge44" class="edge"><title>Node25&#45;&gt;Node6</title>
<path fill="none" stroke="midnightblue" d="M1113.03,-128.925C1103.72,-111.967 1080.48,-74.2136 1049.5,-56 983.518,-17.2027 890.953,-10.8661 843.391,-10.4157"/>
<polygon fill="midnightblue" stroke="midnightblue" points="843.133,-6.91556 833.13,-10.4051 843.126,-13.9156 843.133,-6.91556"/>
</g>
<!-- Node26 -->
<g id="node26" class="node"><title>Node26</title>
<polygon fill="none" stroke="#bfbfbf" points="1236.5,-62 1236.5,-81 1292.5,-81 1292.5,-62 1236.5,-62"/>
<text text-anchor="middle" x="1264.5" y="-69" font-family="Helvetica,sans-Serif" font-size="10.00">algorithm</text>
</g>
<!-- Node25&#45;&gt;Node26 -->
<g id="edge40" class="edge"><title>Node25&#45;&gt;Node26</title>
<path fill="none" stroke="midnightblue" d="M1137.02,-128.869C1162.28,-117.699 1206.5,-98.1468 1235.64,-85.2602"/>
<polygon fill="midnightblue" stroke="midnightblue" points="1237.17,-88.4123 1244.9,-81.1672 1234.34,-82.0103 1237.17,-88.4123"/>
</g>
<!-- Node27 -->
<g id="node27" class="node"><title>Node27</title>
<polygon fill="none" stroke="#bfbfbf" points="1311,-62 1311,-81 1358,-81 1358,-62 1311,-62"/>
<text text-anchor="middle" x="1334.5" y="-69" font-family="Helvetica,sans-Serif" font-size="10.00">iterator</text>
</g>
<!-- Node25&#45;&gt;Node27 -->
<g id="edge41" class="edge"><title>Node25&#45;&gt;Node27</title>
<path fill="none" stroke="midnightblue" d="M1154.65,-128.998C1192.16,-120.018 1251.55,-104.722 1301.5,-87 1303.16,-86.4102 1304.86,-85.7745 1306.56,-85.1101"/>
<polygon fill="midnightblue" stroke="midnightblue" points="1308.3,-88.1792 1316.19,-81.112 1305.61,-81.7143 1308.3,-88.1792"/>
</g>
<!-- Node28 -->
<g id="node28" class="node"><title>Node28</title>
<polygon fill="none" stroke="#bfbfbf" points="1097,-62 1097,-81 1138,-81 1138,-62 1097,-62"/>
<text text-anchor="middle" x="1117.5" y="-69" font-family="Helvetica,sans-Serif" font-size="10.00">regex</text>
</g>
<!-- Node25&#45;&gt;Node28 -->
<g id="edge42" class="edge"><title>Node25&#45;&gt;Node28</title>
<path fill="none" stroke="midnightblue" d="M1117.5,-128.734C1117.5,-119.183 1117.5,-103.618 1117.5,-91.2829"/>
<polygon fill="midnightblue" stroke="midnightblue" points="1121,-91.1273 1117.5,-81.1273 1114,-91.1273 1121,-91.1273"/>
</g>
<!-- Node29 -->
<g id="node29" class="node"><title>Node29</title>
<polygon fill="none" stroke="#bfbfbf" points="1156.5,-62 1156.5,-81 1218.5,-81 1218.5,-62 1156.5,-62"/>
<text text-anchor="middle" x="1187.5" y="-69" font-family="Helvetica,sans-Serif" font-size="10.00">type_traits</text>
</g>
<!-- Node25&#45;&gt;Node29 -->
<g id="edge45" class="edge"><title>Node25&#45;&gt;Node29</title>
<path fill="none" stroke="midnightblue" d="M1126.94,-128.734C1138.17,-118.305 1157.12,-100.709 1170.84,-87.9732"/>
<polygon fill="midnightblue" stroke="midnightblue" points="1173.26,-90.4966 1178.21,-81.1273 1168.5,-85.3671 1173.26,-90.4966"/>
</g>
</g>
</svg>
