<?xml version="1.0" encoding="UTF-8" standalone="no"?>
<!DOCTYPE svg PUBLIC "-//W3C//DTD SVG 1.1//EN"
 "http://www.w3.org/Graphics/SVG/1.1/DTD/svg11.dtd">
<!-- Generated by graphviz version 2.38.0 (20140413.2041)
 -->
<!-- Title: src/string/json.hpp Pages: 1 -->
<!--zoomable 274 -->
<svg id="main" version="1.1" xmlns="http://www.w3.org/2000/svg" xmlns:xlink="http://www.w3.org/1999/xlink" xml:space="preserve" onload="init(evt)">
<style type="text/css"><![CDATA[
.edge:hover path { stroke: red; }
.edge:hover polygon { stroke: red; fill: red; }
]]></style>
<script type="text/javascript"><![CDATA[
var edges = document.getElementsByTagName('g');
if (edges && edges.length) {
  for (var i=0;i<edges.length;i++) {
    if (edges[i].id.substr(0,4)=='edge') {
      edges[i].setAttribute('class','edge');
    }
  }
}
]]></script>
        <defs>
                <circle id="rim" cx="0" cy="0" r="7"/>
                <circle id="rim2" cx="0" cy="0" r="3.5"/>
                <g id="zoomPlus">
                        <use xlink:href="#rim" fill="#404040">
                                <set attributeName="fill" to="#808080" begin="zoomplus.mouseover" end="zoomplus.mouseout"/>
                        </use>
                        <path d="M-4,0h8M0,-4v8" fill="none" stroke="white" stroke-width="1.5" pointer-events="none"/>
                </g>
                <g id="zoomMin">
                        <use xlink:href="#rim" fill="#404040">
                                <set attributeName="fill" to="#808080" begin="zoomminus.mouseover" end="zoomminus.mouseout"/>
                        </use>
                        <path d="M-4,0h8" fill="none" stroke="white" stroke-width="1.5" pointer-events="none"/>
                </g>
                <g id="dirArrow">
                        <path fill="none" stroke="white" stroke-width="1.5" d="M0,-3.0v7 M-2.5,-0.5L0,-3.0L2.5,-0.5"/>
                </g>
               <g id="resetDef">
                       <use xlink:href="#rim2" fill="#404040">
                               <set attributeName="fill" to="#808080" begin="reset.mouseover" end="reset.mouseout"/>
                       </use>
               </g>
        </defs>

<script type="text/javascript">
var viewWidth = 1038;
var viewHeight = 274;
var sectionId = 'dynsection-0';
</script>
<script xlink:href="svgpan.js"/>
<svg id="graph" class="graph">
<g id="viewport">
<title>src/string/json.hpp</title>
<!-- Node1 -->
<g id="node1" class="node"><title>Node1</title>
<polygon fill="#bfbfbf" stroke="black" points="522.942,-246.5 522.942,-265.5 619.942,-265.5 619.942,-246.5 522.942,-246.5"/>
<text text-anchor="middle" x="571.442" y="-253.5" font-family="Helvetica,sans-Serif" font-size="10.00">src/string/json.hpp</text>
</g>
<!-- Node2 -->
<g id="node2" class="node"><title>Node2</title>
<polygon fill="none" stroke="#bfbfbf" points="22.4425,-62 22.4425,-81 72.4425,-81 72.4425,-62 22.4425,-62"/>
<text text-anchor="middle" x="47.4425" y="-69" font-family="Helvetica,sans-Serif" font-size="10.00">fstream</text>
</g>
<!-- Node1&#45;&gt;Node2 -->
<g id="edge1" class="edge"><title>Node1&#45;&gt;Node2</title>
<path fill="none" stroke="midnightblue" d="M522.813,-253.211C404.63,-247.74 107.609,-226.871 47.4425,-154 33.0512,-136.57 36.6209,-109.157 41.3395,-91.0074"/>
<polygon fill="midnightblue" stroke="midnightblue" points="44.7287,-91.8881 44.1994,-81.3065 38.0144,-89.9086 44.7287,-91.8881"/>
</g>
<!-- Node3 -->
<g id="node3" class="node"><title>Node3</title>
<polygon fill="none" stroke="#bfbfbf" points="754.942,-190.5 754.942,-209.5 803.942,-209.5 803.942,-190.5 754.942,-190.5"/>
<text text-anchor="middle" x="779.442" y="-197.5" font-family="Helvetica,sans-Serif" font-size="10.00">istream</text>
</g>
<!-- Node1&#45;&gt;Node3 -->
<g id="edge2" class="edge"><title>Node1&#45;&gt;Node3</title>
<path fill="none" stroke="midnightblue" d="M604.401,-246.444C642.782,-236.479 705.891,-220.095 744.927,-209.961"/>
<polygon fill="midnightblue" stroke="midnightblue" points="745.981,-213.303 754.781,-207.403 744.222,-206.528 745.981,-213.303"/>
</g>
<!-- Node4 -->
<g id="node4" class="node"><title>Node4</title>
<polygon fill="none" stroke="#bfbfbf" points="821.942,-190.5 821.942,-209.5 862.942,-209.5 862.942,-190.5 821.942,-190.5"/>
<text text-anchor="middle" x="842.442" y="-197.5" font-family="Helvetica,sans-Serif" font-size="10.00">stack</text>
</g>
<!-- Node1&#45;&gt;Node4 -->
<g id="edge3" class="edge"><title>Node1&#45;&gt;Node4</title>
<path fill="none" stroke="midnightblue" d="M620.235,-247.462C667.049,-239.877 739.876,-227.159 812.137,-209.848"/>
<polygon fill="midnightblue" stroke="midnightblue" points="812.972,-213.248 821.865,-207.489 811.322,-206.445 812.972,-213.248"/>
</g>
<!-- Node5 -->
<g id="node5" class="node"><title>Node5</title>
<polygon fill="none" stroke="#bfbfbf" points="294.942,-0.5 294.942,-19.5 335.942,-19.5 335.942,-0.5 294.942,-0.5"/>
<text text-anchor="middle" x="315.442" y="-7.5" font-family="Helvetica,sans-Serif" font-size="10.00">string</text>
</g>
<!-- Node1&#45;&gt;Node5 -->
<g id="edge4" class="edge"><title>Node1&#45;&gt;Node5</title>
<path fill="none" stroke="midnightblue" d="M522.7,-253.77C418.916,-250.591 179.458,-240.132 104.442,-210 67.1489,-195.02 56.0199,-187.249 33.4425,-154 8.46987,-117.224 -15.5822,-89.67 13.4425,-56 48.1851,-15.6969 214.165,-10.9317 284.179,-10.7518"/>
<polygon fill="midnightblue" stroke="midnightblue" points="284.555,-14.252 294.557,-10.7576 284.559,-7.25196 284.555,-14.252"/>
</g>
<!-- Node6 -->
<g id="node6" class="node"><title>Node6</title>
<polygon fill="none" stroke="#bfbfbf" points="928.942,-56.5 928.942,-86.5 1029.94,-86.5 1029.94,-56.5 928.942,-56.5"/>
<text text-anchor="start" x="936.942" y="-74.5" font-family="Helvetica,sans-Serif" font-size="10.00">boost/property_tree</text>
<text text-anchor="middle" x="979.442" y="-63.5" font-family="Helvetica,sans-Serif" font-size="10.00">/ptree.hpp</text>
</g>
<!-- Node1&#45;&gt;Node6 -->
<g id="edge5" class="edge"><title>Node1&#45;&gt;Node6</title>
<path fill="none" stroke="midnightblue" d="M590.574,-246.442C653.061,-218.492 852.1,-129.461 938.626,-90.7574"/>
<polygon fill="midnightblue" stroke="midnightblue" points="940.17,-93.9009 947.869,-86.6228 937.312,-87.5111 940.17,-93.9009"/>
</g>
<!-- Node7 -->
<g id="node7" class="node"><title>Node7</title>
<g id="a_node7"><a xlink:href="logger_8hpp.html" target="_top" xlink:title="string/logger.hpp">
<polygon fill="none" stroke="black" points="371.942,-190.5 371.942,-209.5 460.942,-209.5 460.942,-190.5 371.942,-190.5"/>
<text text-anchor="middle" x="416.442" y="-197.5" font-family="Helvetica,sans-Serif" font-size="10.00">string/logger.hpp</text>
</a>
</g>
</g>
<!-- Node1&#45;&gt;Node7 -->
<g id="edge6" class="edge"><title>Node1&#45;&gt;Node7</title>
<path fill="none" stroke="midnightblue" d="M546.882,-246.444C520.92,-237.399 479.774,-223.064 450.645,-212.916"/>
<polygon fill="midnightblue" stroke="midnightblue" points="451.483,-209.501 440.888,-209.516 449.18,-216.112 451.483,-209.501"/>
</g>
<!-- Node7&#45;&gt;Node5 -->
<g id="edge11" class="edge"><title>Node7&#45;&gt;Node5</title>
<path fill="none" stroke="midnightblue" d="M412.313,-190.497C404.221,-174.743 384.75,-140.985 358.442,-123 310.716,-90.3717 268.209,-133.192 233.442,-87 225.157,-75.9918 226.425,-67.8565 233.442,-56 244.591,-37.1657 266.729,-25.69 285.195,-19.0452"/>
<polygon fill="midnightblue" stroke="midnightblue" points="286.304,-22.3648 294.71,-15.9159 284.117,-15.7152 286.304,-22.3648"/>
</g>
<!-- Node8 -->
<g id="node8" class="node"><title>Node8</title>
<polygon fill="none" stroke="#bfbfbf" points="610.442,-129 610.442,-148 660.442,-148 660.442,-129 610.442,-129"/>
<text text-anchor="middle" x="635.442" y="-136" font-family="Helvetica,sans-Serif" font-size="10.00">iomanip</text>
</g>
<!-- Node7&#45;&gt;Node8 -->
<g id="edge7" class="edge"><title>Node7&#45;&gt;Node8</title>
<path fill="none" stroke="midnightblue" d="M460.375,-190.444C498.224,-182.569 554.077,-169.742 601.442,-154 603.361,-153.362 605.322,-152.662 607.286,-151.925"/>
<polygon fill="midnightblue" stroke="midnightblue" points="608.977,-155.017 616.95,-148.039 606.366,-148.522 608.977,-155.017"/>
</g>
<!-- Node9 -->
<g id="node9" class="node"><title>Node9</title>
<polygon fill="none" stroke="#bfbfbf" points="94.4425,-62 94.4425,-81 148.442,-81 148.442,-62 94.4425,-62"/>
<text text-anchor="middle" x="121.442" y="-69" font-family="Helvetica,sans-Serif" font-size="10.00">iostream</text>
</g>
<!-- Node7&#45;&gt;Node9 -->
<g id="edge8" class="edge"><title>Node7&#45;&gt;Node9</title>
<path fill="none" stroke="midnightblue" d="M371.839,-197.061C304.253,-193.233 180.279,-182.445 147.442,-154 129.323,-138.303 123.716,-110 122.047,-91.2276"/>
<polygon fill="midnightblue" stroke="midnightblue" points="125.538,-90.9788 121.447,-81.206 118.551,-91.3974 125.538,-90.9788"/>
</g>
<!-- Node10 -->
<g id="node10" class="node"><title>Node10</title>
<polygon fill="none" stroke="#bfbfbf" points="56.4425,-129 56.4425,-148 100.442,-148 100.442,-129 56.4425,-129"/>
<text text-anchor="middle" x="78.4425" y="-136" font-family="Helvetica,sans-Serif" font-size="10.00">mutex</text>
</g>
<!-- Node7&#45;&gt;Node10 -->
<g id="edge9" class="edge"><title>Node7&#45;&gt;Node10</title>
<path fill="none" stroke="midnightblue" d="M371.759,-195.644C312.216,-190.427 203.961,-178.333 114.442,-154 111.939,-153.32 109.375,-152.516 106.824,-151.641"/>
<polygon fill="midnightblue" stroke="midnightblue" points="107.805,-148.271 97.2129,-148.028 105.342,-154.823 107.805,-148.271"/>
</g>
<!-- Node11 -->
<g id="node11" class="node"><title>Node11</title>
<polygon fill="none" stroke="#bfbfbf" points="812.942,-62 812.942,-81 871.942,-81 871.942,-62 812.942,-62"/>
<text text-anchor="middle" x="842.442" y="-69" font-family="Helvetica,sans-Serif" font-size="10.00">stdexcept</text>
</g>
<!-- Node7&#45;&gt;Node11 -->
<g id="edge10" class="edge"><title>Node7&#45;&gt;Node11</title>
<path fill="none" stroke="midnightblue" d="M461.107,-197.058C513.031,-193.461 600.419,-183.21 669.442,-154 691.139,-144.818 691.74,-134.245 712.442,-123 742.251,-106.809 778.369,-93.2147 804.962,-84.2242"/>
<polygon fill="midnightblue" stroke="midnightblue" points="806.266,-87.4793 814.655,-81.0081 804.061,-80.8355 806.266,-87.4793"/>
</g>
<!-- Node12 -->
<g id="node12" class="node"><title>Node12</title>
<polygon fill="none" stroke="#bfbfbf" points="304.942,-62 304.942,-81 387.942,-81 387.942,-62 304.942,-62"/>
<text text-anchor="middle" x="346.442" y="-69" font-family="Helvetica,sans-Serif" font-size="10.00">unordered_map</text>
</g>
<!-- Node7&#45;&gt;Node12 -->
<g id="edge12" class="edge"><title>Node7&#45;&gt;Node12</title>
<path fill="none" stroke="midnightblue" d="M414.921,-190.063C412.134,-175.318 405.283,-145.304 392.442,-123 384.954,-109.992 373.627,-97.5028 364.087,-88.1989"/>
<polygon fill="midnightblue" stroke="midnightblue" points="366.305,-85.4806 356.617,-81.1913 361.515,-90.5858 366.305,-85.4806"/>
</g>
<!-- Node13 -->
<g id="node13" class="node"><title>Node13</title>
<polygon fill="none" stroke="#bfbfbf" points="244.942,-123.5 244.942,-153.5 349.942,-153.5 349.942,-123.5 244.942,-123.5"/>
<text text-anchor="start" x="252.942" y="-141.5" font-family="Helvetica,sans-Serif" font-size="10.00">boost/chrono/io/time</text>
<text text-anchor="middle" x="297.442" y="-130.5" font-family="Helvetica,sans-Serif" font-size="10.00">_point_io.hpp</text>
</g>
<!-- Node7&#45;&gt;Node13 -->
<g id="edge13" class="edge"><title>Node7&#45;&gt;Node13</title>
<path fill="none" stroke="midnightblue" d="M399.393,-190.475C382.523,-182.04 356.153,-168.855 334.458,-158.008"/>
<polygon fill="midnightblue" stroke="midnightblue" points="335.998,-154.865 325.488,-153.523 332.867,-161.126 335.998,-154.865"/>
</g>
<!-- Node14 -->
<g id="node14" class="node"><title>Node14</title>
<g id="a_node14"><a xlink:href="multibuf_8hpp.html" target="_top" xlink:title="multibuf.hpp">
<polygon fill="none" stroke="black" points="156.442,-129 156.442,-148 226.442,-148 226.442,-129 156.442,-129"/>
<text text-anchor="middle" x="191.442" y="-136" font-family="Helvetica,sans-Serif" font-size="10.00">multibuf.hpp</text>
</a>
</g>
</g>
<!-- Node7&#45;&gt;Node14 -->
<g id="edge14" class="edge"><title>Node7&#45;&gt;Node14</title>
<path fill="none" stroke="midnightblue" d="M378.437,-190.422C341.659,-181.917 284.441,-168.143 235.442,-154 232.448,-153.136 229.352,-152.201 226.254,-151.236"/>
<polygon fill="midnightblue" stroke="midnightblue" points="227.062,-147.821 216.471,-148.107 224.929,-154.488 227.062,-147.821"/>
</g>
<!-- Node16 -->
<g id="node16" class="node"><title>Node16</title>
<g id="a_node16"><a xlink:href="string_8hpp.html" target="_top" xlink:title="string.hpp">
<polygon fill="none" stroke="black" points="444.942,-129 444.942,-148 503.942,-148 503.942,-129 444.942,-129"/>
<text text-anchor="middle" x="474.442" y="-136" font-family="Helvetica,sans-Serif" font-size="10.00">string.hpp</text>
</a>
</g>
</g>
<!-- Node7&#45;&gt;Node16 -->
<g id="edge19" class="edge"><title>Node7&#45;&gt;Node16</title>
<path fill="none" stroke="midnightblue" d="M424.752,-190.475C433.625,-181.373 447.888,-166.741 458.862,-155.483"/>
<polygon fill="midnightblue" stroke="midnightblue" points="461.674,-157.613 466.148,-148.009 456.661,-152.727 461.674,-157.613"/>
</g>
<!-- Node24 -->
<g id="node24" class="node"><title>Node24</title>
<g id="a_node24"><a xlink:href="settings_8hpp.html" target="_top" xlink:title="settings.hpp">
<polygon fill="none" stroke="black" points="522.442,-129 522.442,-148 592.442,-148 592.442,-129 522.442,-129"/>
<text text-anchor="middle" x="557.442" y="-136" font-family="Helvetica,sans-Serif" font-size="10.00">settings.hpp</text>
</a>
</g>
</g>
<!-- Node7&#45;&gt;Node24 -->
<g id="edge33" class="edge"><title>Node7&#45;&gt;Node24</title>
<path fill="none" stroke="midnightblue" d="M436.644,-190.475C460.517,-180.401 500.444,-163.553 527.815,-152.002"/>
<polygon fill="midnightblue" stroke="midnightblue" points="529.426,-155.122 537.278,-148.009 526.704,-148.672 529.426,-155.122"/>
</g>
<!-- Node14&#45;&gt;Node2 -->
<g id="edge16" class="edge"><title>Node14&#45;&gt;Node2</title>
<path fill="none" stroke="midnightblue" d="M172.32,-128.869C147.683,-117.748 104.636,-98.3167 76.0844,-85.4286"/>
<polygon fill="midnightblue" stroke="midnightblue" points="77.1981,-82.0914 66.6437,-81.1672 74.3182,-88.4715 77.1981,-82.0914"/>
</g>
<!-- Node14&#45;&gt;Node5 -->
<g id="edge18" class="edge"><title>Node14&#45;&gt;Node5</title>
<path fill="none" stroke="midnightblue" d="M189.731,-128.833C187.067,-112.691 183.817,-77.6938 200.442,-56 220.475,-29.8605 257.872,-18.8883 284.582,-14.293"/>
<polygon fill="midnightblue" stroke="midnightblue" points="285.225,-17.7357 294.589,-12.7795 284.178,-10.8144 285.225,-17.7357"/>
</g>
<!-- Node14&#45;&gt;Node9 -->
<g id="edge15" class="edge"><title>Node14&#45;&gt;Node9</title>
<path fill="none" stroke="midnightblue" d="M182.002,-128.734C170.771,-118.305 151.821,-100.709 138.106,-87.9732"/>
<polygon fill="midnightblue" stroke="midnightblue" points="140.443,-85.3671 130.733,-81.1273 135.68,-90.4966 140.443,-85.3671"/>
</g>
<!-- Node15 -->
<g id="node15" class="node"><title>Node15</title>
<polygon fill="none" stroke="#bfbfbf" points="242.442,-62 242.442,-81 286.442,-81 286.442,-62 242.442,-62"/>
<text text-anchor="middle" x="264.442" y="-69" font-family="Helvetica,sans-Serif" font-size="10.00">vector</text>
</g>
<!-- Node14&#45;&gt;Node15 -->
<g id="edge17" class="edge"><title>Node14&#45;&gt;Node15</title>
<path fill="none" stroke="midnightblue" d="M201.288,-128.734C212.999,-118.305 232.762,-100.709 247.065,-87.9732"/>
<polygon fill="midnightblue" stroke="midnightblue" points="249.612,-90.3913 254.753,-81.1273 244.957,-85.1634 249.612,-90.3913"/>
</g>
<!-- Node16&#45;&gt;Node5 -->
<g id="edge24" class="edge"><title>Node16&#45;&gt;Node5</title>
<path fill="none" stroke="midnightblue" d="M467.638,-128.826C454.901,-112.972 426.058,-78.853 396.442,-56 380.047,-43.3483 359.658,-32.0414 343.438,-23.9261"/>
<polygon fill="midnightblue" stroke="midnightblue" points="344.953,-20.7712 334.431,-19.5308 341.883,-27.062 344.953,-20.7712"/>
</g>
<!-- Node16&#45;&gt;Node11 -->
<g id="edge23" class="edge"><title>Node16&#45;&gt;Node11</title>
<path fill="none" stroke="midnightblue" d="M494.81,-128.921C500.731,-126.703 507.269,-124.516 513.442,-123 637.432,-92.552 673.902,-115.11 798.442,-87 802.11,-86.1721 805.906,-85.163 809.66,-84.0666"/>
<polygon fill="midnightblue" stroke="midnightblue" points="810.887,-87.3502 819.386,-81.0244 808.797,-80.6694 810.887,-87.3502"/>
</g>
<!-- Node16&#45;&gt;Node12 -->
<g id="edge26" class="edge"><title>Node16&#45;&gt;Node12</title>
<path fill="none" stroke="midnightblue" d="M457.445,-128.869C435.737,-117.845 397.949,-98.6554 372.57,-85.7678"/>
<polygon fill="midnightblue" stroke="midnightblue" points="374.011,-82.5743 363.51,-81.1672 370.842,-88.8157 374.011,-82.5743"/>
</g>
<!-- Node16&#45;&gt;Node15 -->
<g id="edge27" class="edge"><title>Node16&#45;&gt;Node15</title>
<path fill="none" stroke="midnightblue" d="M444.83,-130.713C408.943,-122.132 346.888,-106.144 295.442,-87 294.016,-86.469 292.564,-85.899 291.106,-85.3032"/>
<polygon fill="midnightblue" stroke="midnightblue" points="292.173,-81.9494 281.61,-81.135 289.36,-88.3591 292.173,-81.9494"/>
</g>
<!-- Node17 -->
<g id="node17" class="node"><title>Node17</title>
<polygon fill="none" stroke="#bfbfbf" points="769.442,-0.5 769.442,-19.5 815.442,-19.5 815.442,-0.5 769.442,-0.5"/>
<text text-anchor="middle" x="792.442" y="-7.5" font-family="Helvetica,sans-Serif" font-size="10.00">cstdint</text>
</g>
<!-- Node16&#45;&gt;Node17 -->
<g id="edge20" class="edge"><title>Node16&#45;&gt;Node17</title>
<path fill="none" stroke="midnightblue" d="M494.826,-128.986C500.748,-126.769 507.282,-124.566 513.442,-123 623.092,-95.127 677.875,-158.637 765.442,-87 782.593,-72.9693 788.857,-47.2435 791.141,-29.6431"/>
<polygon fill="midnightblue" stroke="midnightblue" points="794.624,-29.979 792.125,-19.6832 787.658,-29.2903 794.624,-29.979"/>
</g>
<!-- Node18 -->
<g id="node18" class="node"><title>Node18</title>
<polygon fill="none" stroke="#bfbfbf" points="444.942,-62 444.942,-81 503.942,-81 503.942,-62 444.942,-62"/>
<text text-anchor="middle" x="474.442" y="-69" font-family="Helvetica,sans-Serif" font-size="10.00">functional</text>
</g>
<!-- Node16&#45;&gt;Node18 -->
<g id="edge21" class="edge"><title>Node16&#45;&gt;Node18</title>
<path fill="none" stroke="midnightblue" d="M474.442,-128.734C474.442,-119.183 474.442,-103.618 474.442,-91.2829"/>
<polygon fill="midnightblue" stroke="midnightblue" points="477.943,-91.1273 474.442,-81.1273 470.943,-91.1273 477.943,-91.1273"/>
</g>
<!-- Node19 -->
<g id="node19" class="node"><title>Node19</title>
<polygon fill="none" stroke="#bfbfbf" points="522.442,-62 522.442,-81 574.442,-81 574.442,-62 522.442,-62"/>
<text text-anchor="middle" x="548.442" y="-69" font-family="Helvetica,sans-Serif" font-size="10.00">memory</text>
</g>
<!-- Node16&#45;&gt;Node19 -->
<g id="edge22" class="edge"><title>Node16&#45;&gt;Node19</title>
<path fill="none" stroke="midnightblue" d="M484.422,-128.734C496.295,-118.305 516.328,-100.709 530.827,-87.9732"/>
<polygon fill="midnightblue" stroke="midnightblue" points="533.417,-90.3564 538.621,-81.1273 528.798,-85.0971 533.417,-90.3564"/>
</g>
<!-- Node20 -->
<g id="node20" class="node"><title>Node20</title>
<polygon fill="none" stroke="#bfbfbf" points="592.442,-62 592.442,-81 644.442,-81 644.442,-62 592.442,-62"/>
<text text-anchor="middle" x="618.442" y="-69" font-family="Helvetica,sans-Serif" font-size="10.00">sstream</text>
</g>
<!-- Node16&#45;&gt;Node20 -->
<g id="edge25" class="edge"><title>Node16&#45;&gt;Node20</title>
<path fill="none" stroke="midnightblue" d="M493.565,-128.869C518.202,-117.748 561.249,-98.3167 589.801,-85.4286"/>
<polygon fill="midnightblue" stroke="midnightblue" points="591.567,-88.4715 599.241,-81.1672 588.687,-82.0914 591.567,-88.4715"/>
</g>
<!-- Node21 -->
<g id="node21" class="node"><title>Node21</title>
<g id="a_node21"><a xlink:href="color_8hpp.html" target="_top" xlink:title="color.hpp">
<polygon fill="none" stroke="black" points="700.442,-62 700.442,-81 756.442,-81 756.442,-62 700.442,-62"/>
<text text-anchor="middle" x="728.442" y="-69" font-family="Helvetica,sans-Serif" font-size="10.00">color.hpp</text>
</a>
</g>
</g>
<!-- Node16&#45;&gt;Node21 -->
<g id="edge28" class="edge"><title>Node16&#45;&gt;Node21</title>
<path fill="none" stroke="midnightblue" d="M496.143,-128.884C501.733,-126.816 507.772,-124.713 513.442,-123 574.607,-104.526 647.243,-88.7047 690.499,-79.9107"/>
<polygon fill="midnightblue" stroke="midnightblue" points="691.203,-83.3393 700.315,-77.9335 689.821,-76.4772 691.203,-83.3393"/>
</g>
<!-- Node21&#45;&gt;Node5 -->
<g id="edge32" class="edge"><title>Node21&#45;&gt;Node5</title>
<path fill="none" stroke="midnightblue" d="M706.465,-61.9323C700.087,-59.7148 693.057,-57.5249 686.442,-56 562.428,-27.4117 410.647,-16.2141 346.458,-12.5409"/>
<polygon fill="midnightblue" stroke="midnightblue" points="346.397,-9.03237 336.219,-11.9771 346.012,-16.0218 346.397,-9.03237"/>
</g>
<!-- Node21&#45;&gt;Node17 -->
<g id="edge30" class="edge"><title>Node21&#45;&gt;Node17</title>
<path fill="none" stroke="midnightblue" d="M737.612,-61.9751C747.592,-52.6966 763.755,-37.6706 775.952,-26.331"/>
<polygon fill="midnightblue" stroke="midnightblue" points="778.349,-28.8814 783.29,-19.5091 773.583,-23.7547 778.349,-28.8814"/>
</g>
<!-- Node22 -->
<g id="node22" class="node"><title>Node22</title>
<polygon fill="none" stroke="#bfbfbf" points="641.442,-0.5 641.442,-19.5 687.442,-19.5 687.442,-0.5 641.442,-0.5"/>
<text text-anchor="middle" x="664.442" y="-7.5" font-family="Helvetica,sans-Serif" font-size="10.00">cctype</text>
</g>
<!-- Node21&#45;&gt;Node22 -->
<g id="edge29" class="edge"><title>Node21&#45;&gt;Node22</title>
<path fill="none" stroke="midnightblue" d="M719.273,-61.9751C709.293,-52.6966 693.13,-37.6706 680.933,-26.331"/>
<polygon fill="midnightblue" stroke="midnightblue" points="683.302,-23.7547 673.595,-19.5091 678.536,-28.8814 683.302,-23.7547"/>
</g>
<!-- Node23 -->
<g id="node23" class="node"><title>Node23</title>
<polygon fill="none" stroke="#bfbfbf" points="705.942,-0.5 705.942,-19.5 750.942,-19.5 750.942,-0.5 705.942,-0.5"/>
<text text-anchor="middle" x="728.442" y="-7.5" font-family="Helvetica,sans-Serif" font-size="10.00">cstdlib</text>
</g>
<!-- Node21&#45;&gt;Node23 -->
<g id="edge31" class="edge"><title>Node21&#45;&gt;Node23</title>
<path fill="none" stroke="midnightblue" d="M728.442,-61.9751C728.442,-53.5803 728.442,-40.4806 728.442,-29.6631"/>
<polygon fill="midnightblue" stroke="midnightblue" points="731.943,-29.5091 728.442,-19.5091 724.943,-29.5091 731.943,-29.5091"/>
</g>
<!-- Node24&#45;&gt;Node5 -->
<g id="edge34" class="edge"><title>Node24&#45;&gt;Node5</title>
<path fill="none" stroke="midnightblue" d="M582.241,-128.968C618.756,-115.127 679.944,-86.264 653.442,-56 633.329,-33.0309 426.138,-17.8584 346.444,-12.8327"/>
<polygon fill="midnightblue" stroke="midnightblue" points="346.274,-9.31562 336.077,-12.1911 345.842,-16.3022 346.274,-9.31562"/>
</g>
<!-- Node24&#45;&gt;Node6 -->
<g id="edge37" class="edge"><title>Node24&#45;&gt;Node6</title>
<path fill="none" stroke="midnightblue" d="M580.488,-128.926C587.17,-126.708 594.53,-124.52 601.442,-123 738.204,-92.9304 776.362,-110.276 914.442,-87 915.903,-86.7538 917.381,-86.4958 918.869,-86.228"/>
<polygon fill="midnightblue" stroke="midnightblue" points="919.633,-89.6456 928.802,-84.336 918.323,-82.7692 919.633,-89.6456"/>
</g>
<!-- Node24&#45;&gt;Node12 -->
<g id="edge36" class="edge"><title>Node24&#45;&gt;Node12</title>
<path fill="none" stroke="midnightblue" d="M531.291,-128.993C525.116,-127.007 518.552,-124.914 512.442,-123 468.806,-109.333 418.553,-94.1184 384.873,-83.9966"/>
<polygon fill="midnightblue" stroke="midnightblue" points="385.563,-80.5493 374.979,-81.0262 383.55,-87.2537 385.563,-80.5493"/>
</g>
<!-- Node24&#45;&gt;Node17 -->
<g id="edge35" class="edge"><title>Node24&#45;&gt;Node17</title>
<path fill="none" stroke="midnightblue" d="M580.502,-128.988C587.184,-126.771 594.54,-124.568 601.442,-123 662.404,-109.154 839.164,-133.947 880.442,-87 889.54,-76.653 887.633,-67.7527 880.442,-56 868.546,-36.5552 845.3,-25.1735 825.686,-18.7227"/>
<polygon fill="midnightblue" stroke="midnightblue" points="826.424,-15.2902 815.84,-15.7823 824.421,-21.9975 826.424,-15.2902"/>
</g>
</g>
</svg>
        <g id="navigator" transform="translate(0 0)" fill="#404254">
                <rect fill="#f2f5e9" fill-opacity="0.5" stroke="#606060" stroke-width=".5" x="0" y="0" width="60" height="60"/>
                <use id="zoomplus" xlink:href="#zoomPlus" x="17" y="9" onmousedown="handleZoom(evt,'in')"/>
                <use id="zoomminus" xlink:href="#zoomMin" x="42" y="9" onmousedown="handleZoom(evt,'out')"/>
                <use id="reset" xlink:href="#resetDef" x="30" y="36" onmousedown="handleReset()"/>
                <g id="arrowUp" xlink:href="#dirArrow" transform="translate(30 24)" onmousedown="handlePan(0,-1)">
                  <use xlink:href="#rim" fill="#404040">
                        <set attributeName="fill" to="#808080" begin="arrowUp.mouseover" end="arrowUp.mouseout"/>
                  </use>
                  <path fill="none" stroke="white" stroke-width="1.5" d="M0,-3.0v7 M-2.5,-0.5L0,-3.0L2.5,-0.5"/>
                </g>
                <g id="arrowRight" xlink:href="#dirArrow" transform="rotate(90) translate(36 -43)" onmousedown="handlePan(1,0)">
                  <use xlink:href="#rim" fill="#404040">
                        <set attributeName="fill" to="#808080" begin="arrowRight.mouseover" end="arrowRight.mouseout"/>
                  </use>
                  <path fill="none" stroke="white" stroke-width="1.5" d="M0,-3.0v7 M-2.5,-0.5L0,-3.0L2.5,-0.5"/>
                </g>
                <g id="arrowDown" xlink:href="#dirArrow" transform="rotate(180) translate(-30 -48)" onmousedown="handlePan(0,1)">
                  <use xlink:href="#rim" fill="#404040">
                        <set attributeName="fill" to="#808080" begin="arrowDown.mouseover" end="arrowDown.mouseout"/>
                  </use>
                  <path fill="none" stroke="white" stroke-width="1.5" d="M0,-3.0v7 M-2.5,-0.5L0,-3.0L2.5,-0.5"/>
                </g>
                <g id="arrowLeft" xlink:href="#dirArrow" transform="rotate(270) translate(-36 17)" onmousedown="handlePan(-1,0)">
                  <use xlink:href="#rim" fill="#404040">
                        <set attributeName="fill" to="#808080" begin="arrowLeft.mouseover" end="arrowLeft.mouseout"/>
                  </use>
                  <path fill="none" stroke="white" stroke-width="1.5" d="M0,-3.0v7 M-2.5,-0.5L0,-3.0L2.5,-0.5"/>
                </g>
        </g>
        <svg viewBox="0 0 15 15" width="100%" height="30px" preserveAspectRatio="xMaxYMin meet">
         <g id="arrow_out" transform="scale(0.3 0.3)">
          <a xlink:href="json_8hpp__incl_org.svg" target="_base">
           <rect id="button" ry="5" rx="5" y="6" x="6" height="38" width="38"
                fill="#f2f5e9" fill-opacity="0.5" stroke="#606060" stroke-width="1.0"/>
           <path id="arrow"
             d="M 11.500037,31.436501 C 11.940474,20.09759 22.043105,11.32322 32.158766,21.979434 L 37.068811,17.246167 C 37.068811,17.246167 37.088388,32 37.088388,32 L 22.160133,31.978069 C 22.160133,31.978069 26.997745,27.140456 26.997745,27.140456 C 18.528582,18.264221 13.291696,25.230495 11.500037,31.436501 z"
             style="fill:#404040;"/>
          </a>
         </g>
        </svg>
</svg>
