<?xml version="1.0" encoding="UTF-8" standalone="no"?>
<!DOCTYPE svg PUBLIC "-//W3C//DTD SVG 1.1//EN"
 "http://www.w3.org/Graphics/SVG/1.1/DTD/svg11.dtd">
<!-- Generated by graphviz version 2.38.0 (20140413.2041)
 -->
<!-- Title: src/string/json.hpp Pages: 1 -->
<svg width="1443pt" height="274pt"
 viewBox="0.00 0.00 1442.50 274.00" xmlns="http://www.w3.org/2000/svg" xmlns:xlink="http://www.w3.org/1999/xlink">
<g id="graph0" class="graph" transform="scale(1 1) rotate(0) translate(4 270)">
<title>src/string/json.hpp</title>
<!-- Node1 -->
<g id="node1" class="node"><title>Node1</title>
<polygon fill="#bfbfbf" stroke="black" points="1112.5,-246.5 1112.5,-265.5 1209.5,-265.5 1209.5,-246.5 1112.5,-246.5"/>
<text text-anchor="middle" x="1161" y="-253.5" font-family="Helvetica,sans-Serif" font-size="10.00">src/string/json.hpp</text>
</g>
<!-- Node2 -->
<g id="node2" class="node"><title>Node2</title>
<polygon fill="none" stroke="#bfbfbf" points="0,-62 0,-81 50,-81 50,-62 0,-62"/>
<text text-anchor="middle" x="25" y="-69" font-family="Helvetica,sans-Serif" font-size="10.00">fstream</text>
</g>
<!-- Node1&#45;&gt;Node2 -->
<g id="edge1" class="edge"><title>Node1&#45;&gt;Node2</title>
<path fill="none" stroke="midnightblue" d="M1112.46,-253.806C909.095,-248.377 132.392,-223.223 50,-154 31.615,-138.554 26.4922,-109.95 25.2057,-91.0713"/>
<polygon fill="midnightblue" stroke="midnightblue" points="28.7008,-90.8725 24.8181,-81.0148 21.7059,-91.1422 28.7008,-90.8725"/>
</g>
<!-- Node3 -->
<g id="node3" class="node"><title>Node3</title>
<polygon fill="none" stroke="#bfbfbf" points="1326.5,-190.5 1326.5,-209.5 1375.5,-209.5 1375.5,-190.5 1326.5,-190.5"/>
<text text-anchor="middle" x="1351" y="-197.5" font-family="Helvetica,sans-Serif" font-size="10.00">istream</text>
</g>
<!-- Node1&#45;&gt;Node3 -->
<g id="edge2" class="edge"><title>Node1&#45;&gt;Node3</title>
<path fill="none" stroke="midnightblue" d="M1191.11,-246.444C1225.2,-236.753 1280.66,-220.992 1316.48,-210.811"/>
<polygon fill="midnightblue" stroke="midnightblue" points="1317.81,-214.072 1326.47,-207.971 1315.9,-207.338 1317.81,-214.072"/>
</g>
<!-- Node4 -->
<g id="node4" class="node"><title>Node4</title>
<polygon fill="none" stroke="#bfbfbf" points="1393.5,-190.5 1393.5,-209.5 1434.5,-209.5 1434.5,-190.5 1393.5,-190.5"/>
<text text-anchor="middle" x="1414" y="-197.5" font-family="Helvetica,sans-Serif" font-size="10.00">stack</text>
</g>
<!-- Node1&#45;&gt;Node4 -->
<g id="edge3" class="edge"><title>Node1&#45;&gt;Node4</title>
<path fill="none" stroke="midnightblue" d="M1209.57,-246.535C1252.82,-238.698 1317.96,-226.159 1383.71,-209.878"/>
<polygon fill="midnightblue" stroke="midnightblue" points="1384.56,-213.273 1393.41,-207.449 1382.86,-206.482 1384.56,-213.273"/>
</g>
<!-- Node5 -->
<g id="node5" class="node"><title>Node5</title>
<polygon fill="none" stroke="#bfbfbf" points="1072,-62 1072,-81 1124,-81 1124,-62 1072,-62"/>
<text text-anchor="middle" x="1098" y="-69" font-family="Helvetica,sans-Serif" font-size="10.00">sstream</text>
</g>
<!-- Node1&#45;&gt;Node5 -->
<g id="edge4" class="edge"><title>Node1&#45;&gt;Node5</title>
<path fill="none" stroke="midnightblue" d="M1173.34,-246.384C1202.6,-224.905 1271.41,-167.514 1240,-123 1227.55,-105.365 1172.17,-89.4849 1134.36,-80.423"/>
<polygon fill="midnightblue" stroke="midnightblue" points="1134.75,-76.9192 1124.21,-78.0521 1133.16,-83.7356 1134.75,-76.9192"/>
</g>
<!-- Node6 -->
<g id="node6" class="node"><title>Node6</title>
<polygon fill="none" stroke="#bfbfbf" points="706.5,-0.5 706.5,-19.5 747.5,-19.5 747.5,-0.5 706.5,-0.5"/>
<text text-anchor="middle" x="727" y="-7.5" font-family="Helvetica,sans-Serif" font-size="10.00">string</text>
</g>
<!-- Node1&#45;&gt;Node6 -->
<g id="edge5" class="edge"><title>Node1&#45;&gt;Node6</title>
<path fill="none" stroke="midnightblue" d="M1114.13,-246.455C1081.56,-239.402 1037.76,-227.653 1002,-210 964.698,-191.584 953.819,-185.801 927,-154 895.477,-116.621 914.548,-87.3218 877,-56 842.768,-27.444 790.852,-17.0074 757.949,-13.1941"/>
<polygon fill="midnightblue" stroke="midnightblue" points="757.875,-9.6686 747.572,-12.1382 757.166,-16.6326 757.875,-9.6686"/>
</g>
<!-- Node7 -->
<g id="node7" class="node"><title>Node7</title>
<polygon fill="none" stroke="#bfbfbf" points="1194.5,-56.5 1194.5,-86.5 1295.5,-86.5 1295.5,-56.5 1194.5,-56.5"/>
<text text-anchor="start" x="1202.5" y="-74.5" font-family="Helvetica,sans-Serif" font-size="10.00">boost/property_tree</text>
<text text-anchor="middle" x="1245" y="-63.5" font-family="Helvetica,sans-Serif" font-size="10.00">/ptree.hpp</text>
</g>
<!-- Node1&#45;&gt;Node7 -->
<g id="edge6" class="edge"><title>Node1&#45;&gt;Node7</title>
<path fill="none" stroke="midnightblue" d="M1184.07,-246.486C1201.06,-239.155 1223.63,-227.048 1238,-210 1263.64,-179.586 1264.36,-162.414 1259,-123 1257.81,-114.253 1255.51,-104.881 1253.11,-96.6157"/>
<polygon fill="midnightblue" stroke="midnightblue" points="1256.4,-95.3888 1250.1,-86.8675 1249.71,-97.455 1256.4,-95.3888"/>
</g>
<!-- Node8 -->
<g id="node8" class="node"><title>Node8</title>
<g id="a_node8"><a xlink:href="logger_8hpp.html" target="_top" xlink:title="string/logger.hpp">
<polygon fill="none" stroke="black" points="507.5,-190.5 507.5,-209.5 596.5,-209.5 596.5,-190.5 507.5,-190.5"/>
<text text-anchor="middle" x="552" y="-197.5" font-family="Helvetica,sans-Serif" font-size="10.00">string/logger.hpp</text>
</a>
</g>
</g>
<!-- Node1&#45;&gt;Node8 -->
<g id="edge7" class="edge"><title>Node1&#45;&gt;Node8</title>
<path fill="none" stroke="midnightblue" d="M1112.45,-250.695C1000.43,-240.763 724.537,-216.299 606.742,-205.854"/>
<polygon fill="midnightblue" stroke="midnightblue" points="606.787,-202.344 596.517,-204.947 606.169,-209.317 606.787,-202.344"/>
</g>
<!-- Node26 -->
<g id="node26" class="node"><title>Node26</title>
<g id="a_node26"><a xlink:href="string__functions_8hpp.html" target="_top" xlink:title="string_functions.hpp">
<polygon fill="none" stroke="black" points="1011,-190.5 1011,-209.5 1115,-209.5 1115,-190.5 1011,-190.5"/>
<text text-anchor="middle" x="1063" y="-197.5" font-family="Helvetica,sans-Serif" font-size="10.00">string_functions.hpp</text>
</a>
</g>
</g>
<!-- Node1&#45;&gt;Node26 -->
<g id="edge40" class="edge"><title>Node1&#45;&gt;Node26</title>
<path fill="none" stroke="midnightblue" d="M1145.25,-246.324C1129.68,-237.743 1105.62,-224.486 1087.54,-214.522"/>
<polygon fill="midnightblue" stroke="midnightblue" points="1089.15,-211.415 1078.71,-209.655 1085.78,-217.546 1089.15,-211.415"/>
</g>
<!-- Node8&#45;&gt;Node6 -->
<g id="edge12" class="edge"><title>Node8&#45;&gt;Node6</title>
<path fill="none" stroke="midnightblue" d="M556.27,-190.426C564.436,-174.855 583.726,-141.804 609,-123 646.227,-95.3016 675.779,-121.327 707,-87 721.172,-71.4182 725.524,-46.9921 726.747,-30.0546"/>
<polygon fill="midnightblue" stroke="midnightblue" points="730.258,-29.8623 727.175,-19.7258 723.264,-29.5721 730.258,-29.8623"/>
</g>
<!-- Node9 -->
<g id="node9" class="node"><title>Node9</title>
<polygon fill="none" stroke="#bfbfbf" points="742,-129 742,-148 792,-148 792,-129 742,-129"/>
<text text-anchor="middle" x="767" y="-136" font-family="Helvetica,sans-Serif" font-size="10.00">iomanip</text>
</g>
<!-- Node8&#45;&gt;Node9 -->
<g id="edge8" class="edge"><title>Node8&#45;&gt;Node9</title>
<path fill="none" stroke="midnightblue" d="M593.602,-190.433C630.407,-182.421 685.353,-169.4 732,-154 733.921,-153.366 735.885,-152.675 737.854,-151.95"/>
<polygon fill="midnightblue" stroke="midnightblue" points="739.534,-155.051 747.57,-148.147 736.983,-148.533 739.534,-155.051"/>
</g>
<!-- Node10 -->
<g id="node10" class="node"><title>Node10</title>
<polygon fill="none" stroke="#bfbfbf" points="68,-62 68,-81 122,-81 122,-62 68,-62"/>
<text text-anchor="middle" x="95" y="-69" font-family="Helvetica,sans-Serif" font-size="10.00">iostream</text>
</g>
<!-- Node8&#45;&gt;Node10 -->
<g id="edge9" class="edge"><title>Node8&#45;&gt;Node10</title>
<path fill="none" stroke="midnightblue" d="M507.214,-198.639C415.333,-197.159 209.177,-189.821 150,-154 125.974,-139.457 110.112,-109.943 101.845,-90.7086"/>
<polygon fill="midnightblue" stroke="midnightblue" points="105.014,-89.208 98.0298,-81.241 98.5212,-91.8244 105.014,-89.208"/>
</g>
<!-- Node11 -->
<g id="node11" class="node"><title>Node11</title>
<polygon fill="none" stroke="#bfbfbf" points="59,-129 59,-148 103,-148 103,-129 59,-129"/>
<text text-anchor="middle" x="81" y="-136" font-family="Helvetica,sans-Serif" font-size="10.00">mutex</text>
</g>
<!-- Node8&#45;&gt;Node11 -->
<g id="edge10" class="edge"><title>Node8&#45;&gt;Node11</title>
<path fill="none" stroke="midnightblue" d="M507.461,-198.476C427.909,-196.642 256.649,-188.617 117,-154 114.333,-153.339 111.602,-152.52 108.895,-151.612"/>
<polygon fill="midnightblue" stroke="midnightblue" points="109.948,-148.268 99.3555,-148.043 107.495,-154.825 109.948,-148.268"/>
</g>
<!-- Node12 -->
<g id="node12" class="node"><title>Node12</title>
<polygon fill="none" stroke="#bfbfbf" points="240.5,-62 240.5,-81 299.5,-81 299.5,-62 240.5,-62"/>
<text text-anchor="middle" x="270" y="-69" font-family="Helvetica,sans-Serif" font-size="10.00">stdexcept</text>
</g>
<!-- Node8&#45;&gt;Node12 -->
<g id="edge11" class="edge"><title>Node8&#45;&gt;Node12</title>
<path fill="none" stroke="midnightblue" d="M532.617,-190.305C483.8,-168.407 355.611,-110.904 298.344,-85.2144"/>
<polygon fill="midnightblue" stroke="midnightblue" points="299.702,-81.988 289.146,-81.0884 296.837,-88.3748 299.702,-81.988"/>
</g>
<!-- Node13 -->
<g id="node13" class="node"><title>Node13</title>
<polygon fill="none" stroke="#bfbfbf" points="615.5,-62 615.5,-81 698.5,-81 698.5,-62 615.5,-62"/>
<text text-anchor="middle" x="657" y="-69" font-family="Helvetica,sans-Serif" font-size="10.00">unordered_map</text>
</g>
<!-- Node8&#45;&gt;Node13 -->
<g id="edge13" class="edge"><title>Node8&#45;&gt;Node13</title>
<path fill="none" stroke="midnightblue" d="M552.806,-190.113C554.588,-174.908 560.059,-143.557 576,-123 588.818,-106.47 608.689,-93.9632 625.54,-85.5312"/>
<polygon fill="midnightblue" stroke="midnightblue" points="627.495,-88.4784 635.037,-81.0377 624.501,-82.1509 627.495,-88.4784"/>
</g>
<!-- Node14 -->
<g id="node14" class="node"><title>Node14</title>
<polygon fill="none" stroke="#bfbfbf" points="618.5,-123.5 618.5,-153.5 723.5,-153.5 723.5,-123.5 618.5,-123.5"/>
<text text-anchor="start" x="626.5" y="-141.5" font-family="Helvetica,sans-Serif" font-size="10.00">boost/chrono/io/time</text>
<text text-anchor="middle" x="671" y="-130.5" font-family="Helvetica,sans-Serif" font-size="10.00">_point_io.hpp</text>
</g>
<!-- Node8&#45;&gt;Node14 -->
<g id="edge14" class="edge"><title>Node8&#45;&gt;Node14</title>
<path fill="none" stroke="midnightblue" d="M569.05,-190.475C585.92,-182.04 612.29,-168.855 633.984,-158.008"/>
<polygon fill="midnightblue" stroke="midnightblue" points="635.575,-161.126 642.954,-153.523 632.445,-154.865 635.575,-161.126"/>
</g>
<!-- Node15 -->
<g id="node15" class="node"><title>Node15</title>
<g id="a_node15"><a xlink:href="multibuf_8hpp.html" target="_top" xlink:title="multibuf.hpp">
<polygon fill="none" stroke="black" points="159,-129 159,-148 229,-148 229,-129 159,-129"/>
<text text-anchor="middle" x="194" y="-136" font-family="Helvetica,sans-Serif" font-size="10.00">multibuf.hpp</text>
</a>
</g>
</g>
<!-- Node8&#45;&gt;Node15 -->
<g id="edge15" class="edge"><title>Node8&#45;&gt;Node15</title>
<path fill="none" stroke="midnightblue" d="M507.383,-191.585C438.832,-180.191 308.315,-158.499 239.335,-147.035"/>
<polygon fill="midnightblue" stroke="midnightblue" points="239.653,-143.54 229.214,-145.353 238.505,-150.445 239.653,-143.54"/>
</g>
<!-- Node17 -->
<g id="node17" class="node"><title>Node17</title>
<g id="a_node17"><a xlink:href="string_8hpp.html" target="_top" xlink:title="string.hpp">
<polygon fill="none" stroke="black" points="464.5,-129 464.5,-148 523.5,-148 523.5,-129 464.5,-129"/>
<text text-anchor="middle" x="494" y="-136" font-family="Helvetica,sans-Serif" font-size="10.00">string.hpp</text>
</a>
</g>
</g>
<!-- Node8&#45;&gt;Node17 -->
<g id="edge20" class="edge"><title>Node8&#45;&gt;Node17</title>
<path fill="none" stroke="midnightblue" d="M543.69,-190.475C534.818,-181.373 520.554,-166.741 509.58,-155.483"/>
<polygon fill="midnightblue" stroke="midnightblue" points="511.781,-152.727 502.295,-148.009 506.769,-157.613 511.781,-152.727"/>
</g>
<!-- Node25 -->
<g id="node25" class="node"><title>Node25</title>
<g id="a_node25"><a xlink:href="settings_8hpp.html" target="_top" xlink:title="settings.hpp">
<polygon fill="none" stroke="black" points="810,-129 810,-148 880,-148 880,-129 810,-129"/>
<text text-anchor="middle" x="845" y="-136" font-family="Helvetica,sans-Serif" font-size="10.00">settings.hpp</text>
</a>
</g>
</g>
<!-- Node8&#45;&gt;Node25 -->
<g id="edge35" class="edge"><title>Node8&#45;&gt;Node25</title>
<path fill="none" stroke="midnightblue" d="M596.933,-192.811C647.109,-185.453 730.531,-171.886 801,-154 804.377,-153.143 807.87,-152.161 811.344,-151.121"/>
<polygon fill="midnightblue" stroke="midnightblue" points="812.484,-154.431 820.971,-148.09 810.382,-147.754 812.484,-154.431"/>
</g>
<!-- Node15&#45;&gt;Node2 -->
<g id="edge17" class="edge"><title>Node15&#45;&gt;Node2</title>
<path fill="none" stroke="midnightblue" d="M169.976,-128.885C142.882,-119.082 97.5678,-102.428 59,-87 57.4025,-86.3609 55.7666,-85.6967 54.118,-85.0195"/>
<polygon fill="midnightblue" stroke="midnightblue" points="55.29,-81.7159 44.7139,-81.0856 52.5885,-88.1737 55.29,-81.7159"/>
</g>
<!-- Node15&#45;&gt;Node6 -->
<g id="edge19" class="edge"><title>Node15&#45;&gt;Node6</title>
<path fill="none" stroke="midnightblue" d="M186.481,-128.682C173.428,-112.286 149.731,-76.8852 169,-56 187.016,-36.4727 581.474,-17.4683 696.054,-12.3442"/>
<polygon fill="midnightblue" stroke="midnightblue" points="696.412,-15.8319 706.247,-11.8921 696.101,-8.83878 696.412,-15.8319"/>
</g>
<!-- Node15&#45;&gt;Node10 -->
<g id="edge16" class="edge"><title>Node15&#45;&gt;Node10</title>
<path fill="none" stroke="midnightblue" d="M180.648,-128.734C164.246,-117.964 136.199,-99.55 116.688,-86.7395"/>
<polygon fill="midnightblue" stroke="midnightblue" points="118.42,-83.69 108.14,-81.1273 114.578,-89.5415 118.42,-83.69"/>
</g>
<!-- Node16 -->
<g id="node16" class="node"><title>Node16</title>
<polygon fill="none" stroke="#bfbfbf" points="178,-62 178,-81 222,-81 222,-62 178,-62"/>
<text text-anchor="middle" x="200" y="-69" font-family="Helvetica,sans-Serif" font-size="10.00">vector</text>
</g>
<!-- Node15&#45;&gt;Node16 -->
<g id="edge18" class="edge"><title>Node15&#45;&gt;Node16</title>
<path fill="none" stroke="midnightblue" d="M194.809,-128.734C195.691,-119.183 197.128,-103.618 198.266,-91.2829"/>
<polygon fill="midnightblue" stroke="midnightblue" points="201.77,-91.4067 199.204,-81.1273 194.799,-90.7632 201.77,-91.4067"/>
</g>
<!-- Node17&#45;&gt;Node5 -->
<g id="edge26" class="edge"><title>Node17&#45;&gt;Node5</title>
<path fill="none" stroke="midnightblue" d="M523.762,-133.561C546.967,-130.534 580.011,-126.324 609,-123 777.991,-103.623 980.237,-83.8088 1061.53,-75.9826"/>
<polygon fill="midnightblue" stroke="midnightblue" points="1062.12,-79.4426 1071.74,-75.0021 1061.45,-72.4747 1062.12,-79.4426"/>
</g>
<!-- Node17&#45;&gt;Node6 -->
<g id="edge25" class="edge"><title>Node17&#45;&gt;Node6</title>
<path fill="none" stroke="midnightblue" d="M484.951,-128.998C469.139,-113.129 439.903,-78.5709 459,-56 489.103,-20.4205 632.366,-12.9561 696.194,-11.4022"/>
<polygon fill="midnightblue" stroke="midnightblue" points="696.513,-14.8963 706.437,-11.1875 696.366,-7.89788 696.513,-14.8963"/>
</g>
<!-- Node17&#45;&gt;Node12 -->
<g id="edge24" class="edge"><title>Node17&#45;&gt;Node12</title>
<path fill="none" stroke="midnightblue" d="M464.283,-130.261C427.534,-121.109 363.196,-104.433 309,-87 306.593,-86.2258 304.115,-85.3922 301.631,-84.5301"/>
<polygon fill="midnightblue" stroke="midnightblue" points="302.748,-81.2125 292.154,-81.1277 300.383,-87.8008 302.748,-81.2125"/>
</g>
<!-- Node17&#45;&gt;Node13 -->
<g id="edge28" class="edge"><title>Node17&#45;&gt;Node13</title>
<path fill="none" stroke="midnightblue" d="M515.645,-128.869C543.977,-117.571 593.816,-97.6961 626.109,-84.8183"/>
<polygon fill="midnightblue" stroke="midnightblue" points="627.533,-88.0189 635.525,-81.0637 624.94,-81.5168 627.533,-88.0189"/>
</g>
<!-- Node17&#45;&gt;Node16 -->
<g id="edge29" class="edge"><title>Node17&#45;&gt;Node16</title>
<path fill="none" stroke="midnightblue" d="M464.213,-134.222C414.822,-128.248 313.261,-113.678 231,-87 229.329,-86.4581 227.631,-85.8481 225.934,-85.1928"/>
<polygon fill="midnightblue" stroke="midnightblue" points="226.994,-81.839 216.425,-81.1049 224.23,-88.27 226.994,-81.839"/>
</g>
<!-- Node18 -->
<g id="node18" class="node"><title>Node18</title>
<polygon fill="none" stroke="#bfbfbf" points="387,-0.5 387,-19.5 433,-19.5 433,-0.5 387,-0.5"/>
<text text-anchor="middle" x="410" y="-7.5" font-family="Helvetica,sans-Serif" font-size="10.00">cstdint</text>
</g>
<!-- Node17&#45;&gt;Node18 -->
<g id="edge21" class="edge"><title>Node17&#45;&gt;Node18</title>
<path fill="none" stroke="midnightblue" d="M476.035,-128.919C460.342,-120.47 438.216,-106.068 426,-87 414.997,-69.824 411.411,-46.4079 410.318,-30.1248"/>
<polygon fill="midnightblue" stroke="midnightblue" points="413.798,-29.5688 409.893,-19.7201 406.804,-29.8548 413.798,-29.5688"/>
</g>
<!-- Node19 -->
<g id="node19" class="node"><title>Node19</title>
<polygon fill="none" stroke="#bfbfbf" points="538.5,-62 538.5,-81 597.5,-81 597.5,-62 538.5,-62"/>
<text text-anchor="middle" x="568" y="-69" font-family="Helvetica,sans-Serif" font-size="10.00">functional</text>
</g>
<!-- Node17&#45;&gt;Node19 -->
<g id="edge22" class="edge"><title>Node17&#45;&gt;Node19</title>
<path fill="none" stroke="midnightblue" d="M503.98,-128.734C515.852,-118.305 535.885,-100.709 550.384,-87.9732"/>
<polygon fill="midnightblue" stroke="midnightblue" points="552.975,-90.3564 558.178,-81.1273 548.355,-85.0971 552.975,-90.3564"/>
</g>
<!-- Node20 -->
<g id="node20" class="node"><title>Node20</title>
<polygon fill="none" stroke="#bfbfbf" points="468,-62 468,-81 520,-81 520,-62 468,-62"/>
<text text-anchor="middle" x="494" y="-69" font-family="Helvetica,sans-Serif" font-size="10.00">memory</text>
</g>
<!-- Node17&#45;&gt;Node20 -->
<g id="edge23" class="edge"><title>Node17&#45;&gt;Node20</title>
<path fill="none" stroke="midnightblue" d="M494,-128.734C494,-119.183 494,-103.618 494,-91.2829"/>
<polygon fill="midnightblue" stroke="midnightblue" points="497.5,-91.1273 494,-81.1273 490.5,-91.1273 497.5,-91.1273"/>
</g>
<!-- Node21 -->
<g id="node21" class="node"><title>Node21</title>
<polygon fill="none" stroke="#bfbfbf" points="755,-62 755,-81 817,-81 817,-62 755,-62"/>
<text text-anchor="middle" x="786" y="-69" font-family="Helvetica,sans-Serif" font-size="10.00">type_traits</text>
</g>
<!-- Node17&#45;&gt;Node21 -->
<g id="edge27" class="edge"><title>Node17&#45;&gt;Node21</title>
<path fill="none" stroke="midnightblue" d="M523.605,-130.91C576.1,-119.224 685.561,-94.8579 745.174,-81.5881"/>
<polygon fill="midnightblue" stroke="midnightblue" points="745.998,-84.9904 754.998,-79.4011 744.477,-78.1576 745.998,-84.9904"/>
</g>
<!-- Node22 -->
<g id="node22" class="node"><title>Node22</title>
<g id="a_node22"><a xlink:href="color_8hpp.html" target="_top" xlink:title="color.hpp">
<polygon fill="none" stroke="black" points="318,-62 318,-81 374,-81 374,-62 318,-62"/>
<text text-anchor="middle" x="346" y="-69" font-family="Helvetica,sans-Serif" font-size="10.00">color.hpp</text>
</a>
</g>
</g>
<!-- Node17&#45;&gt;Node22 -->
<g id="edge30" class="edge"><title>Node17&#45;&gt;Node22</title>
<path fill="none" stroke="midnightblue" d="M474.347,-128.869C448.915,-117.699 404.396,-98.1468 375.054,-85.2602"/>
<polygon fill="midnightblue" stroke="midnightblue" points="376.298,-81.9839 365.735,-81.1672 373.483,-88.393 376.298,-81.9839"/>
</g>
<!-- Node22&#45;&gt;Node6 -->
<g id="edge34" class="edge"><title>Node22&#45;&gt;Node6</title>
<path fill="none" stroke="midnightblue" d="M374.101,-65.1875C389.422,-62.3463 408.732,-58.8551 426,-56 524.477,-39.7183 641.519,-22.9623 696.104,-15.2977"/>
<polygon fill="midnightblue" stroke="midnightblue" points="696.747,-18.7419 706.165,-13.8888 695.776,-11.8096 696.747,-18.7419"/>
</g>
<!-- Node22&#45;&gt;Node18 -->
<g id="edge32" class="edge"><title>Node22&#45;&gt;Node18</title>
<path fill="none" stroke="midnightblue" d="M355.17,-61.9751C365.15,-52.6966 381.312,-37.6706 393.509,-26.331"/>
<polygon fill="midnightblue" stroke="midnightblue" points="395.907,-28.8814 400.847,-19.5091 391.14,-23.7547 395.907,-28.8814"/>
</g>
<!-- Node23 -->
<g id="node23" class="node"><title>Node23</title>
<polygon fill="none" stroke="#bfbfbf" points="323,-0.5 323,-19.5 369,-19.5 369,-0.5 323,-0.5"/>
<text text-anchor="middle" x="346" y="-7.5" font-family="Helvetica,sans-Serif" font-size="10.00">cctype</text>
</g>
<!-- Node22&#45;&gt;Node23 -->
<g id="edge31" class="edge"><title>Node22&#45;&gt;Node23</title>
<path fill="none" stroke="midnightblue" d="M346,-61.9751C346,-53.5803 346,-40.4806 346,-29.6631"/>
<polygon fill="midnightblue" stroke="midnightblue" points="349.5,-29.5091 346,-19.5091 342.5,-29.5091 349.5,-29.5091"/>
</g>
<!-- Node24 -->
<g id="node24" class="node"><title>Node24</title>
<polygon fill="none" stroke="#bfbfbf" points="259.5,-0.5 259.5,-19.5 304.5,-19.5 304.5,-0.5 259.5,-0.5"/>
<text text-anchor="middle" x="282" y="-7.5" font-family="Helvetica,sans-Serif" font-size="10.00">cstdlib</text>
</g>
<!-- Node22&#45;&gt;Node24 -->
<g id="edge33" class="edge"><title>Node22&#45;&gt;Node24</title>
<path fill="none" stroke="midnightblue" d="M336.83,-61.9751C326.85,-52.6966 310.688,-37.6706 298.491,-26.331"/>
<polygon fill="midnightblue" stroke="midnightblue" points="300.86,-23.7547 291.153,-19.5091 296.093,-28.8814 300.86,-23.7547"/>
</g>
<!-- Node25&#45;&gt;Node6 -->
<g id="edge36" class="edge"><title>Node25&#45;&gt;Node6</title>
<path fill="none" stroke="midnightblue" d="M850.195,-128.969C859.146,-113.052 875.041,-78.4162 859,-56 836.187,-24.1205 789.43,-14.5658 758.141,-11.8487"/>
<polygon fill="midnightblue" stroke="midnightblue" points="757.997,-8.33108 747.784,-11.1475 757.524,-15.3151 757.997,-8.33108"/>
</g>
<!-- Node25&#45;&gt;Node7 -->
<g id="edge39" class="edge"><title>Node25&#45;&gt;Node7</title>
<path fill="none" stroke="midnightblue" d="M880.092,-131.155C894.602,-128.568 911.602,-125.584 927,-123 1016.48,-107.984 1120.34,-91.708 1184.36,-81.8064"/>
<polygon fill="midnightblue" stroke="midnightblue" points="1184.94,-85.2588 1194.29,-80.2731 1183.87,-78.3409 1184.94,-85.2588"/>
</g>
<!-- Node25&#45;&gt;Node13 -->
<g id="edge38" class="edge"><title>Node25&#45;&gt;Node13</title>
<path fill="none" stroke="midnightblue" d="M820.035,-128.869C787.076,-117.473 728.882,-97.3528 691.67,-84.4869"/>
<polygon fill="midnightblue" stroke="midnightblue" points="692.364,-81.0235 681.769,-81.0637 690.076,-87.6393 692.364,-81.0235"/>
</g>
<!-- Node25&#45;&gt;Node18 -->
<g id="edge37" class="edge"><title>Node25&#45;&gt;Node18</title>
<path fill="none" stroke="midnightblue" d="M845.91,-128.762C847.132,-111.855 847.102,-74.6858 826,-56 797.493,-30.7562 536.63,-16.677 443.143,-12.4078"/>
<polygon fill="midnightblue" stroke="midnightblue" points="443.25,-8.90911 433.103,-11.9578 442.936,-15.9021 443.25,-8.90911"/>
</g>
<!-- Node26&#45;&gt;Node5 -->
<g id="edge44" class="edge"><title>Node26&#45;&gt;Node5</title>
<path fill="none" stroke="midnightblue" d="M1065.41,-190.305C1071.05,-169.904 1085.25,-118.6 1092.91,-90.9078"/>
<polygon fill="midnightblue" stroke="midnightblue" points="1096.28,-91.8269 1095.58,-81.2557 1089.54,-89.9603 1096.28,-91.8269"/>
</g>
<!-- Node26&#45;&gt;Node6 -->
<g id="edge45" class="edge"><title>Node26&#45;&gt;Node6</title>
<path fill="none" stroke="midnightblue" d="M1059.44,-190.34C1053.05,-175.479 1038.56,-144.631 1020,-123 988.679,-86.4918 978.515,-76.5017 935,-56 876.121,-28.2596 799.779,-17.3886 757.891,-13.3061"/>
<polygon fill="midnightblue" stroke="midnightblue" points="758.045,-9.80572 747.769,-12.3876 757.412,-16.7771 758.045,-9.80572"/>
</g>
<!-- Node26&#45;&gt;Node21 -->
<g id="edge46" class="edge"><title>Node26&#45;&gt;Node21</title>
<path fill="none" stroke="midnightblue" d="M1056.86,-190.444C1045.02,-174.601 1017.42,-140.703 986,-123 935.809,-94.7207 869.722,-82.0411 827.537,-76.5226"/>
<polygon fill="midnightblue" stroke="midnightblue" points="827.703,-73.0168 817.351,-75.2688 826.848,-79.9644 827.703,-73.0168"/>
</g>
<!-- Node26&#45;&gt;Node25 -->
<g id="edge47" class="edge"><title>Node26&#45;&gt;Node25</title>
<path fill="none" stroke="midnightblue" d="M1031.77,-190.475C993.4,-180.004 928.213,-162.212 885.889,-150.66"/>
<polygon fill="midnightblue" stroke="midnightblue" points="886.745,-147.266 876.176,-148.009 884.902,-154.019 886.745,-147.266"/>
</g>
<!-- Node27 -->
<g id="node27" class="node"><title>Node27</title>
<polygon fill="none" stroke="#bfbfbf" points="1110,-129 1110,-148 1166,-148 1166,-129 1110,-129"/>
<text text-anchor="middle" x="1138" y="-136" font-family="Helvetica,sans-Serif" font-size="10.00">algorithm</text>
</g>
<!-- Node26&#45;&gt;Node27 -->
<g id="edge41" class="edge"><title>Node26&#45;&gt;Node27</title>
<path fill="none" stroke="midnightblue" d="M1073.75,-190.475C1085.55,-181.108 1104.74,-165.884 1119.08,-154.508"/>
<polygon fill="midnightblue" stroke="midnightblue" points="1121.62,-156.966 1127.27,-148.009 1117.26,-151.482 1121.62,-156.966"/>
</g>
<!-- Node28 -->
<g id="node28" class="node"><title>Node28</title>
<polygon fill="none" stroke="#bfbfbf" points="1184.5,-129 1184.5,-148 1231.5,-148 1231.5,-129 1184.5,-129"/>
<text text-anchor="middle" x="1208" y="-136" font-family="Helvetica,sans-Serif" font-size="10.00">iterator</text>
</g>
<!-- Node26&#45;&gt;Node28 -->
<g id="edge42" class="edge"><title>Node26&#45;&gt;Node28</title>
<path fill="none" stroke="midnightblue" d="M1084.97,-190.411C1107.62,-181.504 1143.9,-167.077 1175,-154 1176.41,-153.409 1177.84,-152.799 1179.29,-152.179"/>
<polygon fill="midnightblue" stroke="midnightblue" points="1181.07,-155.225 1188.85,-148.038 1178.28,-148.802 1181.07,-155.225"/>
</g>
<!-- Node29 -->
<g id="node29" class="node"><title>Node29</title>
<polygon fill="none" stroke="#bfbfbf" points="936.5,-129 936.5,-148 977.5,-148 977.5,-129 936.5,-129"/>
<text text-anchor="middle" x="957" y="-136" font-family="Helvetica,sans-Serif" font-size="10.00">regex</text>
</g>
<!-- Node26&#45;&gt;Node29 -->
<g id="edge43" class="edge"><title>Node26&#45;&gt;Node29</title>
<path fill="none" stroke="midnightblue" d="M1047.81,-190.475C1030.34,-180.666 1001.42,-164.435 980.917,-152.925"/>
<polygon fill="midnightblue" stroke="midnightblue" points="982.592,-149.852 972.159,-148.009 979.166,-155.956 982.592,-149.852"/>
</g>
</g>
</svg>
