<?xml version="1.0" encoding="UTF-8" standalone="no"?>
<!DOCTYPE svg PUBLIC "-//W3C//DTD SVG 1.1//EN"
 "http://www.w3.org/Graphics/SVG/1.1/DTD/svg11.dtd">
<!-- Generated by graphviz version 2.38.0 (20140413.2041)
 -->
<!-- Title: src/string/logger.cpp Pages: 1 -->
<!--zoomable 431 -->
<svg id="main" version="1.1" xmlns="http://www.w3.org/2000/svg" xmlns:xlink="http://www.w3.org/1999/xlink" xml:space="preserve" onload="init(evt)">
<style type="text/css"><![CDATA[
.edge:hover path { stroke: red; }
.edge:hover polygon { stroke: red; fill: red; }
]]></style>
<script type="text/javascript"><![CDATA[
var edges = document.getElementsByTagName('g');
if (edges && edges.length) {
  for (var i=0;i<edges.length;i++) {
    if (edges[i].id.substr(0,4)=='edge') {
      edges[i].setAttribute('class','edge');
    }
  }
}
]]></script>
        <defs>
                <circle id="rim" cx="0" cy="0" r="7"/>
                <circle id="rim2" cx="0" cy="0" r="3.5"/>
                <g id="zoomPlus">
                        <use xlink:href="#rim" fill="#404040">
                                <set attributeName="fill" to="#808080" begin="zoomplus.mouseover" end="zoomplus.mouseout"/>
                        </use>
                        <path d="M-4,0h8M0,-4v8" fill="none" stroke="white" stroke-width="1.5" pointer-events="none"/>
                </g>
                <g id="zoomMin">
                        <use xlink:href="#rim" fill="#404040">
                                <set attributeName="fill" to="#808080" begin="zoomminus.mouseover" end="zoomminus.mouseout"/>
                        </use>
                        <path d="M-4,0h8" fill="none" stroke="white" stroke-width="1.5" pointer-events="none"/>
                </g>
                <g id="dirArrow">
                        <path fill="none" stroke="white" stroke-width="1.5" d="M0,-3.0v7 M-2.5,-0.5L0,-3.0L2.5,-0.5"/>
                </g>
               <g id="resetDef">
                       <use xlink:href="#rim2" fill="#404040">
                               <set attributeName="fill" to="#808080" begin="reset.mouseover" end="reset.mouseout"/>
                       </use>
               </g>
        </defs>

<script type="text/javascript">
var viewWidth = 1650;
var viewHeight = 431;
var sectionId = 'dynsection-0';
</script>
<script xlink:href="svgpan.js"/>
<svg id="graph" class="graph">
<g id="viewport">
<title>src/string/logger.cpp</title>
<!-- Node1 -->
<g id="node1" class="node"><title>Node1</title>
<polygon fill="#bfbfbf" stroke="black" points="578.662,-403.5 578.662,-422.5 683.662,-422.5 683.662,-403.5 578.662,-403.5"/>
<text text-anchor="middle" x="631.162" y="-410.5" font-family="Helvetica,sans-Serif" font-size="10.00">src/string/logger.cpp</text>
</g>
<!-- Node2 -->
<g id="node2" class="node"><title>Node2</title>
<g id="a_node2"><a xlink:href="logger_8hpp.html" target="_top" xlink:title="logger.hpp">
<polygon fill="none" stroke="black" points="301.162,-291.5 301.162,-310.5 363.162,-310.5 363.162,-291.5 301.162,-291.5"/>
<text text-anchor="middle" x="332.162" y="-298.5" font-family="Helvetica,sans-Serif" font-size="10.00">logger.hpp</text>
</a>
</g>
</g>
<!-- Node1&#45;&gt;Node2 -->
<g id="edge1" class="edge"><title>Node1&#45;&gt;Node2</title>
<path fill="none" stroke="midnightblue" d="M607.7,-403.368C554.754,-383.89 425.882,-336.479 365.022,-314.089"/>
<polygon fill="midnightblue" stroke="midnightblue" points="366.108,-310.759 355.515,-310.591 363.691,-317.329 366.108,-310.759"/>
</g>
<!-- Node27 -->
<g id="node27" class="node"><title>Node27</title>
<g id="a_node27"><a xlink:href="time__string_8hpp.html" target="_top" xlink:title="time/time_string.hpp">
<polygon fill="none" stroke="black" points="671.662,-347.5 671.662,-366.5 776.662,-366.5 776.662,-347.5 671.662,-347.5"/>
<text text-anchor="middle" x="724.162" y="-354.5" font-family="Helvetica,sans-Serif" font-size="10.00">time/time_string.hpp</text>
</a>
</g>
</g>
<!-- Node1&#45;&gt;Node27 -->
<g id="edge41" class="edge"><title>Node1&#45;&gt;Node27</title>
<path fill="none" stroke="midnightblue" d="M646.104,-403.324C660.747,-394.822 683.296,-381.729 700.4,-371.797"/>
<polygon fill="midnightblue" stroke="midnightblue" points="702.366,-374.703 709.257,-366.655 698.851,-368.649 702.366,-374.703"/>
</g>
<!-- Node3 -->
<g id="node3" class="node"><title>Node3</title>
<polygon fill="none" stroke="#bfbfbf" points="208.162,-235.5 208.162,-254.5 258.162,-254.5 258.162,-235.5 208.162,-235.5"/>
<text text-anchor="middle" x="233.162" y="-242.5" font-family="Helvetica,sans-Serif" font-size="10.00">iomanip</text>
</g>
<!-- Node2&#45;&gt;Node3 -->
<g id="edge2" class="edge"><title>Node2&#45;&gt;Node3</title>
<path fill="none" stroke="midnightblue" d="M316.256,-291.324C300.524,-282.743 276.22,-269.486 257.953,-259.522"/>
<polygon fill="midnightblue" stroke="midnightblue" points="259.483,-256.37 249.028,-254.655 256.131,-262.516 259.483,-256.37"/>
</g>
<!-- Node4 -->
<g id="node4" class="node"><title>Node4</title>
<polygon fill="none" stroke="#bfbfbf" points="242.162,-174 242.162,-193 296.162,-193 296.162,-174 242.162,-174"/>
<text text-anchor="middle" x="269.162" y="-181" font-family="Helvetica,sans-Serif" font-size="10.00">iostream</text>
</g>
<!-- Node2&#45;&gt;Node4 -->
<g id="edge3" class="edge"><title>Node2&#45;&gt;Node4</title>
<path fill="none" stroke="midnightblue" d="M327.427,-291.319C317.12,-272.422 292.479,-227.248 278.773,-202.121"/>
<polygon fill="midnightblue" stroke="midnightblue" points="281.813,-200.385 273.952,-193.282 275.668,-203.737 281.813,-200.385"/>
</g>
<!-- Node5 -->
<g id="node5" class="node"><title>Node5</title>
<polygon fill="none" stroke="#bfbfbf" points="1301.16,-112.5 1301.16,-131.5 1345.16,-131.5 1345.16,-112.5 1301.16,-112.5"/>
<text text-anchor="middle" x="1323.16" y="-119.5" font-family="Helvetica,sans-Serif" font-size="10.00">mutex</text>
</g>
<!-- Node2&#45;&gt;Node5 -->
<g id="edge4" class="edge"><title>Node2&#45;&gt;Node5</title>
<path fill="none" stroke="midnightblue" d="M363.177,-297.018C523.341,-281.577 1250.15,-210.955 1270.16,-199 1292.33,-185.762 1307.53,-159.25 1315.79,-141.311"/>
<polygon fill="midnightblue" stroke="midnightblue" points="1319.1,-142.474 1319.85,-131.906 1312.68,-139.699 1319.1,-142.474"/>
</g>
<!-- Node6 -->
<g id="node6" class="node"><title>Node6</title>
<polygon fill="none" stroke="#bfbfbf" points="449.662,-112.5 449.662,-131.5 508.662,-131.5 508.662,-112.5 449.662,-112.5"/>
<text text-anchor="middle" x="479.162" y="-119.5" font-family="Helvetica,sans-Serif" font-size="10.00">stdexcept</text>
</g>
<!-- Node2&#45;&gt;Node6 -->
<g id="edge5" class="edge"><title>Node2&#45;&gt;Node6</title>
<path fill="none" stroke="midnightblue" d="M332.618,-291.36C333.659,-278.263 337.063,-253.005 348.162,-235 375.222,-191.1 425.221,-155.547 455.008,-136.999"/>
<polygon fill="midnightblue" stroke="midnightblue" points="457.187,-139.77 463.914,-131.585 453.551,-133.789 457.187,-139.77"/>
</g>
<!-- Node7 -->
<g id="node7" class="node"><title>Node7</title>
<polygon fill="none" stroke="#bfbfbf" points="273.662,-56.5 273.662,-75.5 314.662,-75.5 314.662,-56.5 273.662,-56.5"/>
<text text-anchor="middle" x="294.162" y="-63.5" font-family="Helvetica,sans-Serif" font-size="10.00">string</text>
</g>
<!-- Node2&#45;&gt;Node7 -->
<g id="edge6" class="edge"><title>Node2&#45;&gt;Node7</title>
<path fill="none" stroke="midnightblue" d="M300.9,-295.878C252.813,-287.566 163.112,-263.692 133.162,-199 126.383,-184.359 133.76,-117.339 138.162,-112 168.55,-75.1431 227.069,-67.3636 263.157,-66.3154"/>
<polygon fill="midnightblue" stroke="midnightblue" points="263.626,-69.8098 273.58,-66.1815 263.536,-62.8104 263.626,-69.8098"/>
</g>
<!-- Node8 -->
<g id="node8" class="node"><title>Node8</title>
<polygon fill="none" stroke="#bfbfbf" points="526.662,-112.5 526.662,-131.5 609.662,-131.5 609.662,-112.5 526.662,-112.5"/>
<text text-anchor="middle" x="568.162" y="-119.5" font-family="Helvetica,sans-Serif" font-size="10.00">unordered_map</text>
</g>
<!-- Node2&#45;&gt;Node8 -->
<g id="edge7" class="edge"><title>Node2&#45;&gt;Node8</title>
<path fill="none" stroke="midnightblue" d="M350.15,-291.33C377.215,-278.412 430.146,-253.635 476.162,-235 519.945,-217.269 549,-237.646 576.162,-199 587.927,-182.26 582.614,-158.108 576.529,-141.549"/>
<polygon fill="midnightblue" stroke="midnightblue" points="579.616,-139.85 572.591,-131.919 573.137,-142.5 579.616,-139.85"/>
</g>
<!-- Node9 -->
<g id="node9" class="node"><title>Node9</title>
<g id="a_node9"><a xlink:href="multibuf_8hpp.html" target="_top" xlink:title="multibuf.hpp">
<polygon fill="none" stroke="black" points="16.1619,-235.5 16.1619,-254.5 86.1619,-254.5 86.1619,-235.5 16.1619,-235.5"/>
<text text-anchor="middle" x="51.1619" y="-242.5" font-family="Helvetica,sans-Serif" font-size="10.00">multibuf.hpp</text>
</a>
</g>
</g>
<!-- Node2&#45;&gt;Node9 -->
<g id="edge8" class="edge"><title>Node2&#45;&gt;Node9</title>
<path fill="none" stroke="midnightblue" d="M301.016,-294.015C251.275,-284.456 153.677,-265.701 96.2893,-254.672"/>
<polygon fill="midnightblue" stroke="midnightblue" points="96.8871,-251.223 86.4063,-252.773 95.566,-258.097 96.8871,-251.223"/>
</g>
<!-- Node15 -->
<g id="node15" class="node"><title>Node15</title>
<g id="a_node15"><a xlink:href="string_8hpp.html" target="_top" xlink:title="string.hpp">
<polygon fill="none" stroke="black" points="662.662,-174 662.662,-193 721.662,-193 721.662,-174 662.662,-174"/>
<text text-anchor="middle" x="692.162" y="-181" font-family="Helvetica,sans-Serif" font-size="10.00">string.hpp</text>
</a>
</g>
</g>
<!-- Node2&#45;&gt;Node15 -->
<g id="edge16" class="edge"><title>Node2&#45;&gt;Node15</title>
<path fill="none" stroke="midnightblue" d="M358.926,-291.413C422.579,-270.991 583.076,-219.499 655.592,-196.233"/>
<polygon fill="midnightblue" stroke="midnightblue" points="656.769,-199.531 665.221,-193.143 654.63,-192.866 656.769,-199.531"/>
</g>
<!-- Node25 -->
<g id="node25" class="node"><title>Node25</title>
<g id="a_node25"><a xlink:href="settings_8hpp.html" target="_top" xlink:title="settings.hpp">
<polygon fill="none" stroke="black" points="706.162,-235.5 706.162,-254.5 776.162,-254.5 776.162,-235.5 706.162,-235.5"/>
<text text-anchor="middle" x="741.162" y="-242.5" font-family="Helvetica,sans-Serif" font-size="10.00">settings.hpp</text>
</a>
</g>
</g>
<!-- Node2&#45;&gt;Node25 -->
<g id="edge34" class="edge"><title>Node2&#45;&gt;Node25</title>
<path fill="none" stroke="midnightblue" d="M363.239,-295.897C435,-286.422 612.483,-262.989 696.151,-251.943"/>
<polygon fill="midnightblue" stroke="midnightblue" points="696.66,-255.406 706.116,-250.627 695.744,-248.466 696.66,-255.406"/>
</g>
<!-- Node9&#45;&gt;Node4 -->
<g id="edge9" class="edge"><title>Node9&#45;&gt;Node4</title>
<path fill="none" stroke="midnightblue" d="M86.2362,-236.698C122.977,-228.72 182.184,-214.932 232.162,-199 234.436,-198.275 236.771,-197.481 239.109,-196.651"/>
<polygon fill="midnightblue" stroke="midnightblue" points="240.446,-199.887 248.589,-193.109 237.996,-193.33 240.446,-199.887"/>
</g>
<!-- Node9&#45;&gt;Node7 -->
<g id="edge12" class="edge"><title>Node9&#45;&gt;Node7</title>
<path fill="none" stroke="midnightblue" d="M43.7896,-235.487C24.9958,-212.737 -21.0183,-149.701 11.1619,-112 43.2863,-74.3638 196.365,-68.0467 263.025,-67.1007"/>
<polygon fill="midnightblue" stroke="midnightblue" points="263.357,-70.5974 273.318,-66.9882 263.281,-63.5978 263.357,-70.5974"/>
</g>
<!-- Node10 -->
<g id="node10" class="node"><title>Node10</title>
<polygon fill="none" stroke="#bfbfbf" points="36.1619,-174 36.1619,-193 86.1619,-193 86.1619,-174 36.1619,-174"/>
<text text-anchor="middle" x="61.1619" y="-181" font-family="Helvetica,sans-Serif" font-size="10.00">fstream</text>
</g>
<!-- Node9&#45;&gt;Node10 -->
<g id="edge10" class="edge"><title>Node9&#45;&gt;Node10</title>
<path fill="none" stroke="midnightblue" d="M52.5946,-235.475C54.0055,-227.08 56.2071,-213.981 58.0252,-203.163"/>
<polygon fill="midnightblue" stroke="midnightblue" points="61.5258,-203.451 59.7318,-193.009 54.6227,-202.291 61.5258,-203.451"/>
</g>
<!-- Node11 -->
<g id="node11" class="node"><title>Node11</title>
<polygon fill="none" stroke="#bfbfbf" points="20.1619,-112.5 20.1619,-131.5 64.1619,-131.5 64.1619,-112.5 20.1619,-112.5"/>
<text text-anchor="middle" x="42.1619" y="-119.5" font-family="Helvetica,sans-Serif" font-size="10.00">vector</text>
</g>
<!-- Node9&#45;&gt;Node11 -->
<g id="edge11" class="edge"><title>Node9&#45;&gt;Node11</title>
<path fill="none" stroke="midnightblue" d="M44.795,-235.232C38.9017,-226.532 30.5548,-212.572 27.1619,-199 22.2854,-179.494 28.22,-156.852 34.0018,-141.388"/>
<polygon fill="midnightblue" stroke="midnightblue" points="37.3127,-142.538 37.8454,-131.957 30.8303,-139.896 37.3127,-142.538"/>
</g>
<!-- Node12 -->
<g id="node12" class="node"><title>Node12</title>
<g id="a_node12"><a xlink:href="maybe__ptr_8hpp.html" target="_top" xlink:title="maybe_ptr.hpp">
<polygon fill="none" stroke="black" points="142.662,-174 142.662,-193 223.662,-193 223.662,-174 142.662,-174"/>
<text text-anchor="middle" x="183.162" y="-181" font-family="Helvetica,sans-Serif" font-size="10.00">maybe_ptr.hpp</text>
</a>
</g>
</g>
<!-- Node9&#45;&gt;Node12 -->
<g id="edge13" class="edge"><title>Node9&#45;&gt;Node12</title>
<path fill="none" stroke="midnightblue" d="M70.0742,-235.475C92.3248,-225.445 129.474,-208.7 155.088,-197.155"/>
<polygon fill="midnightblue" stroke="midnightblue" points="156.606,-200.309 164.285,-193.009 153.73,-193.928 156.606,-200.309"/>
</g>
<!-- Node13 -->
<g id="node13" class="node"><title>Node13</title>
<polygon fill="none" stroke="#bfbfbf" points="379.162,-112.5 379.162,-131.5 431.162,-131.5 431.162,-112.5 379.162,-112.5"/>
<text text-anchor="middle" x="405.162" y="-119.5" font-family="Helvetica,sans-Serif" font-size="10.00">memory</text>
</g>
<!-- Node12&#45;&gt;Node13 -->
<g id="edge14" class="edge"><title>Node12&#45;&gt;Node13</title>
<path fill="none" stroke="midnightblue" d="M212.208,-173.936C219.069,-171.952 226.366,-169.874 233.162,-168 280.014,-155.08 334.301,-141.029 369.152,-132.127"/>
<polygon fill="midnightblue" stroke="midnightblue" points="370.053,-135.509 378.878,-129.647 368.324,-128.726 370.053,-135.509"/>
</g>
<!-- Node14 -->
<g id="node14" class="node"><title>Node14</title>
<polygon fill="none" stroke="#bfbfbf" points="147.162,-112.5 147.162,-131.5 209.162,-131.5 209.162,-112.5 147.162,-112.5"/>
<text text-anchor="middle" x="178.162" y="-119.5" font-family="Helvetica,sans-Serif" font-size="10.00">type_traits</text>
</g>
<!-- Node12&#45;&gt;Node14 -->
<g id="edge15" class="edge"><title>Node12&#45;&gt;Node14</title>
<path fill="none" stroke="midnightblue" d="M182.445,-173.975C181.74,-165.58 180.639,-152.481 179.73,-141.663"/>
<polygon fill="midnightblue" stroke="midnightblue" points="183.202,-141.181 178.877,-131.509 176.227,-141.767 183.202,-141.181"/>
</g>
<!-- Node15&#45;&gt;Node6 -->
<g id="edge20" class="edge"><title>Node15&#45;&gt;Node6</title>
<path fill="none" stroke="midnightblue" d="M662.545,-174.227C625.056,-163.755 560.352,-145.68 518.68,-134.039"/>
<polygon fill="midnightblue" stroke="midnightblue" points="519.443,-130.618 508.87,-131.299 517.559,-137.36 519.443,-130.618"/>
</g>
<!-- Node15&#45;&gt;Node7 -->
<g id="edge21" class="edge"><title>Node15&#45;&gt;Node7</title>
<path fill="none" stroke="midnightblue" d="M685.997,-173.78C674.58,-158.389 648.526,-126.652 618.162,-112 566.594,-87.1157 395.238,-73.5131 324.801,-68.8589"/>
<polygon fill="midnightblue" stroke="midnightblue" points="324.985,-65.3636 314.781,-68.2125 324.535,-72.3491 324.985,-65.3636"/>
</g>
<!-- Node15&#45;&gt;Node8 -->
<g id="edge23" class="edge"><title>Node15&#45;&gt;Node8</title>
<path fill="none" stroke="midnightblue" d="M674.396,-173.975C653.678,-164.034 619.21,-147.495 595.173,-135.961"/>
<polygon fill="midnightblue" stroke="midnightblue" points="596.425,-132.68 585.895,-131.509 593.397,-138.991 596.425,-132.68"/>
</g>
<!-- Node15&#45;&gt;Node11 -->
<g id="edge24" class="edge"><title>Node15&#45;&gt;Node11</title>
<path fill="none" stroke="midnightblue" d="M662.641,-178.46C639.221,-175.339 605.636,-171.052 576.162,-168 381.878,-147.882 332.734,-149.116 138.162,-132 116.875,-130.127 92.9463,-127.884 74.304,-126.106"/>
<polygon fill="midnightblue" stroke="midnightblue" points="74.5587,-122.615 64.2706,-125.145 73.8913,-129.583 74.5587,-122.615"/>
</g>
<!-- Node15&#45;&gt;Node13 -->
<g id="edge19" class="edge"><title>Node15&#45;&gt;Node13</title>
<path fill="none" stroke="midnightblue" d="M662.567,-177.105C617.117,-168.704 527.195,-151.625 441.397,-132.191"/>
<polygon fill="midnightblue" stroke="midnightblue" points="442.026,-128.745 431.498,-129.934 440.47,-135.57 442.026,-128.745"/>
</g>
<!-- Node16 -->
<g id="node16" class="node"><title>Node16</title>
<polygon fill="none" stroke="#bfbfbf" points="817.162,-56.5 817.162,-75.5 863.162,-75.5 863.162,-56.5 817.162,-56.5"/>
<text text-anchor="middle" x="840.162" y="-63.5" font-family="Helvetica,sans-Serif" font-size="10.00">cstdint</text>
</g>
<!-- Node15&#45;&gt;Node16 -->
<g id="edge17" class="edge"><title>Node15&#45;&gt;Node16</title>
<path fill="none" stroke="midnightblue" d="M705.175,-173.923C719.805,-164.154 744.133,-147.532 764.162,-132 784.999,-115.841 807.861,-95.978 823.012,-82.4928"/>
<polygon fill="midnightblue" stroke="midnightblue" points="825.459,-84.9997 830.574,-75.7212 820.789,-79.785 825.459,-84.9997"/>
</g>
<!-- Node17 -->
<g id="node17" class="node"><title>Node17</title>
<polygon fill="none" stroke="#bfbfbf" points="1146.66,-112.5 1146.66,-131.5 1205.66,-131.5 1205.66,-112.5 1146.66,-112.5"/>
<text text-anchor="middle" x="1176.16" y="-119.5" font-family="Helvetica,sans-Serif" font-size="10.00">functional</text>
</g>
<!-- Node15&#45;&gt;Node17 -->
<g id="edge18" class="edge"><title>Node15&#45;&gt;Node17</title>
<path fill="none" stroke="midnightblue" d="M711.574,-173.964C717.445,-171.691 723.978,-169.465 730.162,-168 806.987,-149.806 1042.19,-132.185 1136.46,-125.657"/>
<polygon fill="midnightblue" stroke="midnightblue" points="1136.72,-129.148 1146.46,-124.97 1136.24,-122.164 1136.72,-129.148"/>
</g>
<!-- Node18 -->
<g id="node18" class="node"><title>Node18</title>
<polygon fill="none" stroke="#bfbfbf" points="924.162,-112.5 924.162,-131.5 976.162,-131.5 976.162,-112.5 924.162,-112.5"/>
<text text-anchor="middle" x="950.162" y="-119.5" font-family="Helvetica,sans-Serif" font-size="10.00">sstream</text>
</g>
<!-- Node15&#45;&gt;Node18 -->
<g id="edge22" class="edge"><title>Node15&#45;&gt;Node18</title>
<path fill="none" stroke="midnightblue" d="M712.86,-173.903C718.418,-171.788 724.467,-169.657 730.162,-168 793.927,-149.447 870.241,-135.66 914.171,-128.511"/>
<polygon fill="midnightblue" stroke="midnightblue" points="914.769,-131.96 924.088,-126.921 913.66,-125.048 914.769,-131.96"/>
</g>
<!-- Node19 -->
<g id="node19" class="node"><title>Node19</title>
<g id="a_node19"><a xlink:href="color_8hpp.html" target="_top" xlink:title="color.hpp">
<polygon fill="none" stroke="black" points="812.162,-112.5 812.162,-131.5 868.162,-131.5 868.162,-112.5 812.162,-112.5"/>
<text text-anchor="middle" x="840.162" y="-119.5" font-family="Helvetica,sans-Serif" font-size="10.00">color.hpp</text>
</a>
</g>
</g>
<!-- Node15&#45;&gt;Node19 -->
<g id="edge25" class="edge"><title>Node15&#45;&gt;Node19</title>
<path fill="none" stroke="midnightblue" d="M713.367,-173.975C738.534,-163.857 780.702,-146.905 809.441,-135.351"/>
<polygon fill="midnightblue" stroke="midnightblue" points="811.024,-138.487 818.996,-131.509 808.413,-131.992 811.024,-138.487"/>
</g>
<!-- Node23 -->
<g id="node23" class="node"><title>Node23</title>
<g id="a_node23"><a xlink:href="quickstream_8hpp.html" target="_top" xlink:title="quickstream.hpp">
<polygon fill="none" stroke="black" points="666.662,-112.5 666.662,-131.5 755.662,-131.5 755.662,-112.5 666.662,-112.5"/>
<text text-anchor="middle" x="711.162" y="-119.5" font-family="Helvetica,sans-Serif" font-size="10.00">quickstream.hpp</text>
</a>
</g>
</g>
<!-- Node15&#45;&gt;Node23 -->
<g id="edge31" class="edge"><title>Node15&#45;&gt;Node23</title>
<path fill="none" stroke="midnightblue" d="M694.884,-173.975C697.593,-165.492 701.836,-152.204 705.311,-141.322"/>
<polygon fill="midnightblue" stroke="midnightblue" points="708.737,-142.1 708.445,-131.509 702.069,-139.97 708.737,-142.1"/>
</g>
<!-- Node19&#45;&gt;Node7 -->
<g id="edge27" class="edge"><title>Node19&#45;&gt;Node7</title>
<path fill="none" stroke="midnightblue" d="M812.027,-117.516C797.705,-115.781 780.015,-113.697 764.162,-112 598.695,-94.2836 400.087,-76.3661 324.963,-69.7083"/>
<polygon fill="midnightblue" stroke="midnightblue" points="325.064,-66.2036 314.794,-68.809 324.447,-73.1764 325.064,-66.2036"/>
</g>
<!-- Node19&#45;&gt;Node16 -->
<g id="edge26" class="edge"><title>Node19&#45;&gt;Node16</title>
<path fill="none" stroke="midnightblue" d="M840.162,-112.083C840.162,-105.006 840.162,-94.8611 840.162,-85.9865"/>
<polygon fill="midnightblue" stroke="midnightblue" points="843.662,-85.751 840.162,-75.7511 836.662,-85.7511 843.662,-85.751"/>
</g>
<!-- Node20 -->
<g id="node20" class="node"><title>Node20</title>
<g id="a_node20"><a xlink:href="math_8hpp.html" target="_top" xlink:title="math.hpp">
<polygon fill="none" stroke="black" points="1096.66,-56.5 1096.66,-75.5 1153.66,-75.5 1153.66,-56.5 1096.66,-56.5"/>
<text text-anchor="middle" x="1125.16" y="-63.5" font-family="Helvetica,sans-Serif" font-size="10.00">math.hpp</text>
</a>
</g>
</g>
<!-- Node19&#45;&gt;Node20 -->
<g id="edge28" class="edge"><title>Node19&#45;&gt;Node20</title>
<path fill="none" stroke="midnightblue" d="M868.408,-116.349C912.685,-108.951 1001.34,-93.7107 1086.71,-76.0008"/>
<polygon fill="midnightblue" stroke="midnightblue" points="1087.49,-79.4134 1096.56,-73.9425 1086.06,-72.5613 1087.49,-79.4134"/>
</g>
<!-- Node22 -->
<g id="node22" class="node"><title>Node22</title>
<g id="a_node22"><a xlink:href="c_09_09-compat_8hpp.html" target="_top" xlink:title="This file defined some compatibility for features of C++14 and beyond. ">
<polygon fill="none" stroke="black" points="990.162,-56.5 990.162,-75.5 1078.16,-75.5 1078.16,-56.5 990.162,-56.5"/>
<text text-anchor="middle" x="1034.16" y="-63.5" font-family="Helvetica,sans-Serif" font-size="10.00">c++&#45;compat.hpp</text>
</a>
</g>
</g>
<!-- Node19&#45;&gt;Node22 -->
<g id="edge30" class="edge"><title>Node19&#45;&gt;Node22</title>
<path fill="none" stroke="midnightblue" d="M868.371,-113.148C901.223,-104.004 955.763,-88.8222 993.261,-78.3847"/>
<polygon fill="midnightblue" stroke="midnightblue" points="994.658,-81.629 1003.35,-75.5756 992.781,-74.8854 994.658,-81.629"/>
</g>
<!-- Node21 -->
<g id="node21" class="node"><title>Node21</title>
<polygon fill="none" stroke="#bfbfbf" points="1234.16,-0.5 1234.16,-19.5 1290.16,-19.5 1290.16,-0.5 1234.16,-0.5"/>
<text text-anchor="middle" x="1262.16" y="-7.5" font-family="Helvetica,sans-Serif" font-size="10.00">algorithm</text>
</g>
<!-- Node20&#45;&gt;Node21 -->
<g id="edge29" class="edge"><title>Node20&#45;&gt;Node21</title>
<path fill="none" stroke="midnightblue" d="M1146.87,-56.4435C1169.52,-47.5171 1205.23,-33.4387 1230.91,-23.3168"/>
<polygon fill="midnightblue" stroke="midnightblue" points="1232.54,-26.4397 1240.56,-19.5164 1229.97,-19.9273 1232.54,-26.4397"/>
</g>
<!-- Node23&#45;&gt;Node7 -->
<g id="edge32" class="edge"><title>Node23&#45;&gt;Node7</title>
<path fill="none" stroke="midnightblue" d="M666.402,-114.046C661.598,-113.337 656.78,-112.642 652.162,-112 531.297,-95.1882 387.078,-77.9052 325.034,-70.6029"/>
<polygon fill="midnightblue" stroke="midnightblue" points="325.11,-67.0879 314.77,-69.3978 324.293,-74.0401 325.11,-67.0879"/>
</g>
<!-- Node24 -->
<g id="node24" class="node"><title>Node24</title>
<polygon fill="none" stroke="#bfbfbf" points="690.662,-56.5 690.662,-75.5 731.662,-75.5 731.662,-56.5 690.662,-56.5"/>
<text text-anchor="middle" x="711.162" y="-63.5" font-family="Helvetica,sans-Serif" font-size="10.00">regex</text>
</g>
<!-- Node23&#45;&gt;Node24 -->
<g id="edge33" class="edge"><title>Node23&#45;&gt;Node24</title>
<path fill="none" stroke="midnightblue" d="M711.162,-112.083C711.162,-105.006 711.162,-94.8611 711.162,-85.9865"/>
<polygon fill="midnightblue" stroke="midnightblue" points="714.662,-85.751 711.162,-75.7511 707.662,-85.7511 714.662,-85.751"/>
</g>
<!-- Node25&#45;&gt;Node7 -->
<g id="edge35" class="edge"><title>Node25&#45;&gt;Node7</title>
<path fill="none" stroke="midnightblue" d="M706.108,-243.615C651.052,-241.89 541.857,-233.902 457.162,-199 435.379,-190.023 434.563,-179.783 414.162,-168 380.399,-148.5 363.449,-157.738 334.162,-132 319.425,-119.049 308.355,-99.3357 301.639,-85.0146"/>
<polygon fill="midnightblue" stroke="midnightblue" points="304.772,-83.4452 297.528,-75.7134 298.369,-86.2748 304.772,-83.4452"/>
</g>
<!-- Node25&#45;&gt;Node8 -->
<g id="edge37" class="edge"><title>Node25&#45;&gt;Node8</title>
<path fill="none" stroke="midnightblue" d="M720.763,-235.379C702.373,-227.194 674.955,-213.946 653.162,-199 626.786,-180.912 599.847,-155.385 583.561,-139.012"/>
<polygon fill="midnightblue" stroke="midnightblue" points="585.972,-136.472 576.471,-131.783 580.974,-141.373 585.972,-136.472"/>
</g>
<!-- Node25&#45;&gt;Node15 -->
<g id="edge40" class="edge"><title>Node25&#45;&gt;Node15</title>
<path fill="none" stroke="midnightblue" d="M734.141,-235.475C726.719,-226.462 714.829,-212.025 705.595,-200.812"/>
<polygon fill="midnightblue" stroke="midnightblue" points="708.228,-198.503 699.169,-193.009 702.825,-202.953 708.228,-198.503"/>
</g>
<!-- Node25&#45;&gt;Node16 -->
<g id="edge36" class="edge"><title>Node25&#45;&gt;Node16</title>
<path fill="none" stroke="midnightblue" d="M776.206,-236.758C799.496,-230.339 829.33,-218.811 849.162,-199 877.9,-170.293 890.864,-150.239 877.162,-112 873.221,-101.003 865.305,-90.7688 857.802,-82.8479"/>
<polygon fill="midnightblue" stroke="midnightblue" points="860.181,-80.2784 850.6,-75.7555 855.27,-85.2659 860.181,-80.2784"/>
</g>
<!-- Node25&#45;&gt;Node22 -->
<g id="edge39" class="edge"><title>Node25&#45;&gt;Node22</title>
<path fill="none" stroke="midnightblue" d="M775.647,-235.409C826.616,-221.247 922.747,-188.761 985.162,-132 1000.62,-117.94 1014.57,-98.435 1023.6,-84.4667"/>
<polygon fill="midnightblue" stroke="midnightblue" points="1026.67,-86.1485 1029.02,-75.8159 1020.74,-82.4322 1026.67,-86.1485"/>
</g>
<!-- Node26 -->
<g id="node26" class="node"><title>Node26</title>
<polygon fill="none" stroke="#bfbfbf" points="739.662,-168.5 739.662,-198.5 840.662,-198.5 840.662,-168.5 739.662,-168.5"/>
<text text-anchor="start" x="747.662" y="-186.5" font-family="Helvetica,sans-Serif" font-size="10.00">boost/property_tree</text>
<text text-anchor="middle" x="790.162" y="-175.5" font-family="Helvetica,sans-Serif" font-size="10.00">/ptree.hpp</text>
</g>
<!-- Node25&#45;&gt;Node26 -->
<g id="edge38" class="edge"><title>Node25&#45;&gt;Node26</title>
<path fill="none" stroke="midnightblue" d="M748.182,-235.475C754.447,-227.869 763.892,-216.399 772.238,-206.265"/>
<polygon fill="midnightblue" stroke="midnightblue" points="774.958,-208.467 778.614,-198.523 769.555,-204.017 774.958,-208.467"/>
</g>
<!-- Node28 -->
<g id="node28" class="node"><title>Node28</title>
<g id="a_node28"><a xlink:href="time_8hpp.html" target="_top" xlink:title="time.hpp">
<polygon fill="none" stroke="black" points="1129.16,-235.5 1129.16,-254.5 1183.16,-254.5 1183.16,-235.5 1129.16,-235.5"/>
<text text-anchor="middle" x="1156.16" y="-242.5" font-family="Helvetica,sans-Serif" font-size="10.00">time.hpp</text>
</a>
</g>
</g>
<!-- Node27&#45;&gt;Node28 -->
<g id="edge42" class="edge"><title>Node27&#45;&gt;Node28</title>
<path fill="none" stroke="midnightblue" d="M757.701,-347.46C837.153,-327.229 1036.37,-276.502 1119.17,-255.418"/>
<polygon fill="midnightblue" stroke="midnightblue" points="1120.08,-258.799 1128.91,-252.939 1118.35,-252.015 1120.08,-258.799"/>
</g>
<!-- Node36 -->
<g id="node36" class="node"><title>Node36</title>
<g id="a_node36"><a xlink:href="language_8hpp.html" target="_top" xlink:title="string/language.hpp">
<polygon fill="none" stroke="black" points="466.662,-174 466.662,-193 567.662,-193 567.662,-174 466.662,-174"/>
<text text-anchor="middle" x="517.162" y="-181" font-family="Helvetica,sans-Serif" font-size="10.00">string/language.hpp</text>
</a>
</g>
</g>
<!-- Node27&#45;&gt;Node36 -->
<g id="edge55" class="edge"><title>Node27&#45;&gt;Node36</title>
<path fill="none" stroke="midnightblue" d="M713.897,-347.495C680.926,-320.179 577.422,-234.425 535.282,-199.512"/>
<polygon fill="midnightblue" stroke="midnightblue" points="537.422,-196.741 527.489,-193.056 532.957,-202.131 537.422,-196.741"/>
</g>
<!-- Node37 -->
<g id="node37" class="node"><title>Node37</title>
<g id="a_node37"><a xlink:href="string__functions_8hpp.html" target="_top" xlink:title="string/string_functions.hpp">
<polygon fill="none" stroke="black" points="754.662,-291.5 754.662,-310.5 885.662,-310.5 885.662,-291.5 754.662,-291.5"/>
<text text-anchor="middle" x="820.162" y="-298.5" font-family="Helvetica,sans-Serif" font-size="10.00">string/string_functions.hpp</text>
</a>
</g>
</g>
<!-- Node27&#45;&gt;Node37 -->
<g id="edge59" class="edge"><title>Node27&#45;&gt;Node37</title>
<path fill="none" stroke="midnightblue" d="M739.586,-347.324C754.701,-338.822 777.977,-325.729 795.633,-315.797"/>
<polygon fill="midnightblue" stroke="midnightblue" points="797.776,-318.608 804.776,-310.655 794.344,-312.507 797.776,-318.608"/>
</g>
<!-- Node28&#45;&gt;Node17 -->
<g id="edge44" class="edge"><title>Node28&#45;&gt;Node17</title>
<path fill="none" stroke="midnightblue" d="M1157.6,-235.298C1160.83,-215.763 1168.71,-168.065 1173.1,-141.547"/>
<polygon fill="midnightblue" stroke="midnightblue" points="1176.56,-142.06 1174.74,-131.623 1169.65,-140.919 1176.56,-142.06"/>
</g>
<!-- Node28&#45;&gt;Node20 -->
<g id="edge54" class="edge"><title>Node28&#45;&gt;Node20</title>
<path fill="none" stroke="midnightblue" d="M1154.67,-235.463C1149.93,-208.428 1135.19,-124.239 1128.51,-86.109"/>
<polygon fill="midnightblue" stroke="midnightblue" points="1131.89,-85.1146 1126.72,-75.8684 1124.99,-86.3223 1131.89,-85.1146"/>
</g>
<!-- Node28&#45;&gt;Node22 -->
<g id="edge53" class="edge"><title>Node28&#45;&gt;Node22</title>
<path fill="none" stroke="midnightblue" d="M1150.28,-235.463C1131.32,-207.962 1071.6,-121.319 1046,-84.1783"/>
<polygon fill="midnightblue" stroke="midnightblue" points="1048.83,-82.1157 1040.27,-75.8684 1043.07,-86.0883 1048.83,-82.1157"/>
</g>
<!-- Node29 -->
<g id="node29" class="node"><title>Node29</title>
<polygon fill="none" stroke="#bfbfbf" points="1318.16,-174 1318.16,-193 1364.16,-193 1364.16,-174 1318.16,-174"/>
<text text-anchor="middle" x="1341.16" y="-181" font-family="Helvetica,sans-Serif" font-size="10.00">chrono</text>
</g>
<!-- Node28&#45;&gt;Node29 -->
<g id="edge43" class="edge"><title>Node28&#45;&gt;Node29</title>
<path fill="none" stroke="midnightblue" d="M1183.37,-236.419C1213.22,-227.944 1262.43,-213.497 1304.16,-199 1306.28,-198.264 1308.46,-197.482 1310.64,-196.676"/>
<polygon fill="midnightblue" stroke="midnightblue" points="1312.03,-199.892 1320.14,-193.069 1309.55,-193.349 1312.03,-199.892"/>
</g>
<!-- Node30 -->
<g id="node30" class="node"><title>Node30</title>
<g id="a_node30"><a xlink:href="functional_8hpp.html" target="_top" xlink:title="functional.hpp">
<polygon fill="none" stroke="black" points="1184.66,-174 1184.66,-193 1261.66,-193 1261.66,-174 1184.66,-174"/>
<text text-anchor="middle" x="1223.16" y="-181" font-family="Helvetica,sans-Serif" font-size="10.00">functional.hpp</text>
</a>
</g>
</g>
<!-- Node28&#45;&gt;Node30 -->
<g id="edge45" class="edge"><title>Node28&#45;&gt;Node30</title>
<path fill="none" stroke="midnightblue" d="M1165.76,-235.475C1176.21,-226.197 1193.13,-211.171 1205.9,-199.831"/>
<polygon fill="midnightblue" stroke="midnightblue" points="1208.43,-202.266 1213.58,-193.009 1203.78,-197.032 1208.43,-202.266"/>
</g>
<!-- Node32 -->
<g id="node32" class="node"><title>Node32</title>
<g id="a_node32"><a xlink:href="concurrency_8hpp.html" target="_top" xlink:title="concurrency.hpp">
<polygon fill="none" stroke="black" points="1423.66,-174 1423.66,-193 1512.66,-193 1512.66,-174 1423.66,-174"/>
<text text-anchor="middle" x="1468.16" y="-181" font-family="Helvetica,sans-Serif" font-size="10.00">concurrency.hpp</text>
</a>
</g>
</g>
<!-- Node28&#45;&gt;Node32 -->
<g id="edge48" class="edge"><title>Node28&#45;&gt;Node32</title>
<path fill="none" stroke="midnightblue" d="M1183.3,-238.824C1234.49,-229.062 1346.19,-207.761 1413.5,-194.924"/>
<polygon fill="midnightblue" stroke="midnightblue" points="1414.34,-198.328 1423.5,-193.017 1413.02,-191.452 1414.34,-198.328"/>
</g>
<!-- Node30&#45;&gt;Node17 -->
<g id="edge46" class="edge"><title>Node30&#45;&gt;Node17</title>
<path fill="none" stroke="midnightblue" d="M1216.43,-173.975C1209.38,-165.05 1198.13,-150.807 1189.31,-139.643"/>
<polygon fill="midnightblue" stroke="midnightblue" points="1191.83,-137.187 1182.88,-131.509 1186.34,-141.526 1191.83,-137.187"/>
</g>
<!-- Node31 -->
<g id="node31" class="node"><title>Node31</title>
<polygon fill="none" stroke="#bfbfbf" points="1224.16,-112.5 1224.16,-131.5 1264.16,-131.5 1264.16,-112.5 1224.16,-112.5"/>
<text text-anchor="middle" x="1244.16" y="-119.5" font-family="Helvetica,sans-Serif" font-size="10.00">utility</text>
</g>
<!-- Node30&#45;&gt;Node31 -->
<g id="edge47" class="edge"><title>Node30&#45;&gt;Node31</title>
<path fill="none" stroke="midnightblue" d="M1226.17,-173.975C1229.2,-165.404 1233.95,-151.927 1237.81,-140.983"/>
<polygon fill="midnightblue" stroke="midnightblue" points="1241.13,-142.104 1241.16,-131.509 1234.53,-139.774 1241.13,-142.104"/>
</g>
<!-- Node32&#45;&gt;Node5 -->
<g id="edge52" class="edge"><title>Node32&#45;&gt;Node5</title>
<path fill="none" stroke="midnightblue" d="M1447.39,-173.975C1422.73,-163.857 1381.42,-146.905 1353.26,-135.351"/>
<polygon fill="midnightblue" stroke="midnightblue" points="1354.48,-132.067 1343.9,-131.509 1351.82,-138.543 1354.48,-132.067"/>
</g>
<!-- Node33 -->
<g id="node33" class="node"><title>Node33</title>
<polygon fill="none" stroke="#bfbfbf" points="1596.16,-112.5 1596.16,-131.5 1642.16,-131.5 1642.16,-112.5 1596.16,-112.5"/>
<text text-anchor="middle" x="1619.16" y="-119.5" font-family="Helvetica,sans-Serif" font-size="10.00">atomic</text>
</g>
<!-- Node32&#45;&gt;Node33 -->
<g id="edge49" class="edge"><title>Node32&#45;&gt;Node33</title>
<path fill="none" stroke="midnightblue" d="M1489.8,-173.975C1515.59,-163.813 1558.87,-146.756 1588.2,-135.2"/>
<polygon fill="midnightblue" stroke="midnightblue" points="1589.55,-138.432 1597.57,-131.509 1586.98,-131.919 1589.55,-138.432"/>
</g>
<!-- Node34 -->
<g id="node34" class="node"><title>Node34</title>
<polygon fill="none" stroke="#bfbfbf" points="1420.66,-112.5 1420.66,-131.5 1515.66,-131.5 1515.66,-112.5 1420.66,-112.5"/>
<text text-anchor="middle" x="1468.16" y="-119.5" font-family="Helvetica,sans-Serif" font-size="10.00">condition_variable</text>
</g>
<!-- Node32&#45;&gt;Node34 -->
<g id="edge50" class="edge"><title>Node32&#45;&gt;Node34</title>
<path fill="none" stroke="midnightblue" d="M1468.16,-173.975C1468.16,-165.58 1468.16,-152.481 1468.16,-141.663"/>
<polygon fill="midnightblue" stroke="midnightblue" points="1471.66,-141.509 1468.16,-131.509 1464.66,-141.509 1471.66,-141.509"/>
</g>
<!-- Node35 -->
<g id="node35" class="node"><title>Node35</title>
<polygon fill="none" stroke="#bfbfbf" points="1534.16,-112.5 1534.16,-131.5 1578.16,-131.5 1578.16,-112.5 1534.16,-112.5"/>
<text text-anchor="middle" x="1556.16" y="-119.5" font-family="Helvetica,sans-Serif" font-size="10.00">thread</text>
</g>
<!-- Node32&#45;&gt;Node35 -->
<g id="edge51" class="edge"><title>Node32&#45;&gt;Node35</title>
<path fill="none" stroke="midnightblue" d="M1480.77,-173.975C1494.89,-164.431 1517.99,-148.807 1534.91,-137.368"/>
<polygon fill="midnightblue" stroke="midnightblue" points="1537.25,-140.01 1543.58,-131.509 1533.33,-134.211 1537.25,-140.01"/>
</g>
<!-- Node36&#45;&gt;Node7 -->
<g id="edge56" class="edge"><title>Node36&#45;&gt;Node7</title>
<path fill="none" stroke="midnightblue" d="M485.473,-173.979C446.572,-163.209 383.173,-144.564 362.162,-132 340.602,-119.109 320.402,-98.2435 307.711,-83.6401"/>
<polygon fill="midnightblue" stroke="midnightblue" points="310.278,-81.2557 301.153,-75.8731 304.93,-85.7717 310.278,-81.2557"/>
</g>
<!-- Node36&#45;&gt;Node8 -->
<g id="edge58" class="edge"><title>Node36&#45;&gt;Node8</title>
<path fill="none" stroke="midnightblue" d="M524.469,-173.975C532.195,-164.962 544.569,-150.525 554.18,-139.312"/>
<polygon fill="midnightblue" stroke="midnightblue" points="557.018,-141.379 560.868,-131.509 551.703,-136.824 557.018,-141.379"/>
</g>
<!-- Node36&#45;&gt;Node24 -->
<g id="edge57" class="edge"><title>Node36&#45;&gt;Node24</title>
<path fill="none" stroke="midnightblue" d="M486.135,-173.916C445.098,-162.255 377.119,-141.746 370.162,-132 364.997,-124.765 364.302,-118.684 370.162,-112 390.464,-88.8422 599.487,-73.7852 679.887,-68.8114"/>
<polygon fill="midnightblue" stroke="midnightblue" points="680.575,-72.2761 690.345,-68.1767 680.151,-65.289 680.575,-72.2761"/>
</g>
<!-- Node37&#45;&gt;Node7 -->
<g id="edge64" class="edge"><title>Node37&#45;&gt;Node7</title>
<path fill="none" stroke="midnightblue" d="M758.5,-291.474C677.008,-278.7 530.211,-250.416 414.162,-199 389.706,-188.165 330.125,-153.463 314.162,-132 304.143,-118.529 299.084,-99.9706 296.565,-86.1313"/>
<polygon fill="midnightblue" stroke="midnightblue" points="299.962,-85.1895 294.995,-75.8316 293.042,-86.245 299.962,-85.1895"/>
</g>
<!-- Node37&#45;&gt;Node14 -->
<g id="edge65" class="edge"><title>Node37&#45;&gt;Node14</title>
<path fill="none" stroke="midnightblue" d="M754.387,-296.144C688.899,-291.055 586.033,-279.663 500.162,-255 408.948,-228.803 393.29,-203.209 305.162,-168 274.671,-155.818 239.435,-143.466 213.825,-134.793"/>
<polygon fill="midnightblue" stroke="midnightblue" points="214.762,-131.416 204.168,-131.543 212.529,-138.05 214.762,-131.416"/>
</g>
<!-- Node37&#45;&gt;Node18 -->
<g id="edge63" class="edge"><title>Node37&#45;&gt;Node18</title>
<path fill="none" stroke="midnightblue" d="M826.432,-291.463C846.631,-263.962 910.266,-177.319 937.545,-140.178"/>
<polygon fill="midnightblue" stroke="midnightblue" points="940.55,-142 943.648,-131.868 934.908,-137.856 940.55,-142"/>
</g>
<!-- Node37&#45;&gt;Node21 -->
<g id="edge60" class="edge"><title>Node37&#45;&gt;Node21</title>
<path fill="none" stroke="midnightblue" d="M885.778,-300.409C1036.02,-299.58 1392.16,-286.823 1392.16,-184.5 1392.16,-184.5 1392.16,-184.5 1392.16,-121 1392.16,-71.1231 1335.71,-39.2132 1297.2,-23.2503"/>
<polygon fill="midnightblue" stroke="midnightblue" points="1298.43,-19.9724 1287.85,-19.5343 1295.85,-26.4782 1298.43,-19.9724"/>
</g>
<!-- Node37&#45;&gt;Node24 -->
<g id="edge62" class="edge"><title>Node37&#45;&gt;Node24</title>
<path fill="none" stroke="midnightblue" d="M838.39,-291.467C892.491,-265.052 1044.75,-182.177 985.162,-112 969.538,-93.6009 810.648,-76.4472 742.227,-69.8521"/>
<polygon fill="midnightblue" stroke="midnightblue" points="742.345,-66.3476 732.059,-68.8858 741.683,-73.3162 742.345,-66.3476"/>
</g>
<!-- Node37&#45;&gt;Node25 -->
<g id="edge66" class="edge"><title>Node37&#45;&gt;Node25</title>
<path fill="none" stroke="midnightblue" d="M807.469,-291.324C795.261,-282.979 776.583,-270.212 762.159,-260.352"/>
<polygon fill="midnightblue" stroke="midnightblue" points="764.054,-257.408 753.823,-254.655 760.104,-263.187 764.054,-257.408"/>
</g>
<!-- Node38 -->
<g id="node38" class="node"><title>Node38</title>
<polygon fill="none" stroke="#bfbfbf" points="1032.66,-235.5 1032.66,-254.5 1079.66,-254.5 1079.66,-235.5 1032.66,-235.5"/>
<text text-anchor="middle" x="1056.16" y="-242.5" font-family="Helvetica,sans-Serif" font-size="10.00">iterator</text>
</g>
<!-- Node37&#45;&gt;Node38 -->
<g id="edge61" class="edge"><title>Node37&#45;&gt;Node38</title>
<path fill="none" stroke="midnightblue" d="M858.143,-291.475C898.02,-282.5 962.532,-267.909 1018.16,-255 1019.61,-254.665 1021.08,-254.321 1022.57,-253.973"/>
<polygon fill="midnightblue" stroke="midnightblue" points="1023.52,-257.346 1032.45,-251.65 1021.92,-250.531 1023.52,-257.346"/>
</g>
</g>
</svg>
        <g id="navigator" transform="translate(0 0)" fill="#404254">
                <rect fill="#f2f5e9" fill-opacity="0.5" stroke="#606060" stroke-width=".5" x="0" y="0" width="60" height="60"/>
                <use id="zoomplus" xlink:href="#zoomPlus" x="17" y="9" onmousedown="handleZoom(evt,'in')"/>
                <use id="zoomminus" xlink:href="#zoomMin" x="42" y="9" onmousedown="handleZoom(evt,'out')"/>
                <use id="reset" xlink:href="#resetDef" x="30" y="36" onmousedown="handleReset()"/>
                <g id="arrowUp" xlink:href="#dirArrow" transform="translate(30 24)" onmousedown="handlePan(0,-1)">
                  <use xlink:href="#rim" fill="#404040">
                        <set attributeName="fill" to="#808080" begin="arrowUp.mouseover" end="arrowUp.mouseout"/>
                  </use>
                  <path fill="none" stroke="white" stroke-width="1.5" d="M0,-3.0v7 M-2.5,-0.5L0,-3.0L2.5,-0.5"/>
                </g>
                <g id="arrowRight" xlink:href="#dirArrow" transform="rotate(90) translate(36 -43)" onmousedown="handlePan(1,0)">
                  <use xlink:href="#rim" fill="#404040">
                        <set attributeName="fill" to="#808080" begin="arrowRight.mouseover" end="arrowRight.mouseout"/>
                  </use>
                  <path fill="none" stroke="white" stroke-width="1.5" d="M0,-3.0v7 M-2.5,-0.5L0,-3.0L2.5,-0.5"/>
                </g>
                <g id="arrowDown" xlink:href="#dirArrow" transform="rotate(180) translate(-30 -48)" onmousedown="handlePan(0,1)">
                  <use xlink:href="#rim" fill="#404040">
                        <set attributeName="fill" to="#808080" begin="arrowDown.mouseover" end="arrowDown.mouseout"/>
                  </use>
                  <path fill="none" stroke="white" stroke-width="1.5" d="M0,-3.0v7 M-2.5,-0.5L0,-3.0L2.5,-0.5"/>
                </g>
                <g id="arrowLeft" xlink:href="#dirArrow" transform="rotate(270) translate(-36 17)" onmousedown="handlePan(-1,0)">
                  <use xlink:href="#rim" fill="#404040">
                        <set attributeName="fill" to="#808080" begin="arrowLeft.mouseover" end="arrowLeft.mouseout"/>
                  </use>
                  <path fill="none" stroke="white" stroke-width="1.5" d="M0,-3.0v7 M-2.5,-0.5L0,-3.0L2.5,-0.5"/>
                </g>
        </g>
        <svg viewBox="0 0 15 15" width="100%" height="30px" preserveAspectRatio="xMaxYMin meet">
         <g id="arrow_out" transform="scale(0.3 0.3)">
          <a xlink:href="logger_8cpp__incl_org.svg" target="_base">
           <rect id="button" ry="5" rx="5" y="6" x="6" height="38" width="38"
                fill="#f2f5e9" fill-opacity="0.5" stroke="#606060" stroke-width="1.0"/>
           <path id="arrow"
             d="M 11.500037,31.436501 C 11.940474,20.09759 22.043105,11.32322 32.158766,21.979434 L 37.068811,17.246167 C 37.068811,17.246167 37.088388,32 37.088388,32 L 22.160133,31.978069 C 22.160133,31.978069 26.997745,27.140456 26.997745,27.140456 C 18.528582,18.264221 13.291696,25.230495 11.500037,31.436501 z"
             style="fill:#404040;"/>
          </a>
         </g>
        </svg>
</svg>
