<?xml version="1.0" encoding="UTF-8" standalone="no"?>
<!DOCTYPE svg PUBLIC "-//W3C//DTD SVG 1.1//EN"
 "http://www.w3.org/Graphics/SVG/1.1/DTD/svg11.dtd">
<!-- Generated by graphviz version 2.38.0 (20140413.2041)
 -->
<!-- Title: src/string/logger.hpp Pages: 1 -->
<!--zoomable 319 -->
<svg id="main" version="1.1" xmlns="http://www.w3.org/2000/svg" xmlns:xlink="http://www.w3.org/1999/xlink" xml:space="preserve" onload="init(evt)">
<style type="text/css"><![CDATA[
.edge:hover path { stroke: red; }
.edge:hover polygon { stroke: red; fill: red; }
]]></style>
<script type="text/javascript"><![CDATA[
var edges = document.getElementsByTagName('g');
if (edges && edges.length) {
  for (var i=0;i<edges.length;i++) {
    if (edges[i].id.substr(0,4)=='edge') {
      edges[i].setAttribute('class','edge');
    }
  }
}
]]></script>
        <defs>
                <circle id="rim" cx="0" cy="0" r="7"/>
                <circle id="rim2" cx="0" cy="0" r="3.5"/>
                <g id="zoomPlus">
                        <use xlink:href="#rim" fill="#404040">
                                <set attributeName="fill" to="#808080" begin="zoomplus.mouseover" end="zoomplus.mouseout"/>
                        </use>
                        <path d="M-4,0h8M0,-4v8" fill="none" stroke="white" stroke-width="1.5" pointer-events="none"/>
                </g>
                <g id="zoomMin">
                        <use xlink:href="#rim" fill="#404040">
                                <set attributeName="fill" to="#808080" begin="zoomminus.mouseover" end="zoomminus.mouseout"/>
                        </use>
                        <path d="M-4,0h8" fill="none" stroke="white" stroke-width="1.5" pointer-events="none"/>
                </g>
                <g id="dirArrow">
                        <path fill="none" stroke="white" stroke-width="1.5" d="M0,-3.0v7 M-2.5,-0.5L0,-3.0L2.5,-0.5"/>
                </g>
               <g id="resetDef">
                       <use xlink:href="#rim2" fill="#404040">
                               <set attributeName="fill" to="#808080" begin="reset.mouseover" end="reset.mouseout"/>
                       </use>
               </g>
        </defs>

<script type="text/javascript">
var viewWidth = 1165;
var viewHeight = 319;
var sectionId = 'dynsection-0';
</script>
<script xlink:href="svgpan.js"/>
<svg id="graph" class="graph">
<g id="viewport">
<title>src/string/logger.hpp</title>
<!-- Node1 -->
<g id="node1" class="node"><title>Node1</title>
<polygon fill="#bfbfbf" stroke="black" points="273.5,-291.5 273.5,-310.5 378.5,-310.5 378.5,-291.5 273.5,-291.5"/>
<text text-anchor="middle" x="326" y="-298.5" font-family="Helvetica,sans-Serif" font-size="10.00">src/string/logger.hpp</text>
</g>
<!-- Node2 -->
<g id="node2" class="node"><title>Node2</title>
<polygon fill="none" stroke="#bfbfbf" points="54,-235.5 54,-254.5 104,-254.5 104,-235.5 54,-235.5"/>
<text text-anchor="middle" x="79" y="-242.5" font-family="Helvetica,sans-Serif" font-size="10.00">iomanip</text>
</g>
<!-- Node1&#45;&gt;Node2 -->
<g id="edge1" class="edge"><title>Node1&#45;&gt;Node2</title>
<path fill="none" stroke="midnightblue" d="M285.701,-291.453C243.772,-282.52 176.231,-268.017 118,-255 116.741,-254.719 115.46,-254.431 114.166,-254.139"/>
<polygon fill="midnightblue" stroke="midnightblue" points="114.691,-250.669 104.164,-251.86 113.137,-257.494 114.691,-250.669"/>
</g>
<!-- Node3 -->
<g id="node3" class="node"><title>Node3</title>
<polygon fill="none" stroke="#bfbfbf" points="0,-174 0,-193 54,-193 54,-174 0,-174"/>
<text text-anchor="middle" x="27" y="-181" font-family="Helvetica,sans-Serif" font-size="10.00">iostream</text>
</g>
<!-- Node1&#45;&gt;Node3 -->
<g id="edge2" class="edge"><title>Node1&#45;&gt;Node3</title>
<path fill="none" stroke="midnightblue" d="M279.241,-291.499C243.362,-284.142 193.023,-271.996 151,-255 140.657,-250.817 83.4285,-217.587 50.4498,-198.279"/>
<polygon fill="midnightblue" stroke="midnightblue" points="51.8578,-195.047 41.4609,-193.009 48.3176,-201.086 51.8578,-195.047"/>
</g>
<!-- Node4 -->
<g id="node4" class="node"><title>Node4</title>
<polygon fill="none" stroke="#bfbfbf" points="160,-235.5 160,-254.5 204,-254.5 204,-235.5 160,-235.5"/>
<text text-anchor="middle" x="182" y="-242.5" font-family="Helvetica,sans-Serif" font-size="10.00">mutex</text>
</g>
<!-- Node1&#45;&gt;Node4 -->
<g id="edge3" class="edge"><title>Node1&#45;&gt;Node4</title>
<path fill="none" stroke="midnightblue" d="M303.183,-291.444C279.027,-282.385 240.724,-268.021 213.655,-257.871"/>
<polygon fill="midnightblue" stroke="midnightblue" points="214.83,-254.573 204.237,-254.339 212.372,-261.127 214.83,-254.573"/>
</g>
<!-- Node5 -->
<g id="node5" class="node"><title>Node5</title>
<polygon fill="none" stroke="#bfbfbf" points="392.5,-112.5 392.5,-131.5 451.5,-131.5 451.5,-112.5 392.5,-112.5"/>
<text text-anchor="middle" x="422" y="-119.5" font-family="Helvetica,sans-Serif" font-size="10.00">stdexcept</text>
</g>
<!-- Node1&#45;&gt;Node5 -->
<g id="edge4" class="edge"><title>Node1&#45;&gt;Node5</title>
<path fill="none" stroke="midnightblue" d="M330.63,-291.463C345.42,-264.195 391.745,-178.783 412.165,-141.133"/>
<polygon fill="midnightblue" stroke="midnightblue" points="415.499,-142.327 417.19,-131.868 409.346,-138.99 415.499,-142.327"/>
</g>
<!-- Node6 -->
<g id="node6" class="node"><title>Node6</title>
<polygon fill="none" stroke="#bfbfbf" points="559.5,-56.5 559.5,-75.5 600.5,-75.5 600.5,-56.5 559.5,-56.5"/>
<text text-anchor="middle" x="580" y="-63.5" font-family="Helvetica,sans-Serif" font-size="10.00">string</text>
</g>
<!-- Node1&#45;&gt;Node6 -->
<g id="edge5" class="edge"><title>Node1&#45;&gt;Node6</title>
<path fill="none" stroke="midnightblue" d="M325.788,-291.338C325.558,-261.513 329.04,-162.154 383,-112 436.388,-62.3767 472.03,-92.6143 543,-76 545.062,-75.5173 547.187,-75.0145 549.327,-74.5042"/>
<polygon fill="midnightblue" stroke="midnightblue" points="550.37,-77.8533 559.272,-72.1088 548.73,-71.048 550.37,-77.8533"/>
</g>
<!-- Node7 -->
<g id="node7" class="node"><title>Node7</title>
<polygon fill="none" stroke="#bfbfbf" points="913.5,-112.5 913.5,-131.5 996.5,-131.5 996.5,-112.5 913.5,-112.5"/>
<text text-anchor="middle" x="955" y="-119.5" font-family="Helvetica,sans-Serif" font-size="10.00">unordered_map</text>
</g>
<!-- Node1&#45;&gt;Node7 -->
<g id="edge6" class="edge"><title>Node1&#45;&gt;Node7</title>
<path fill="none" stroke="midnightblue" d="M356.338,-291.463C459.706,-262.375 798.189,-167.126 914.965,-134.266"/>
<polygon fill="midnightblue" stroke="midnightblue" points="915.921,-137.633 924.599,-131.555 914.025,-130.895 915.921,-137.633"/>
</g>
<!-- Node8 -->
<g id="node8" class="node"><title>Node8</title>
<g id="a_node8"><a xlink:href="multibuf_8hpp.html" target="_top" xlink:title="multibuf.hpp">
<polygon fill="none" stroke="black" points="222,-235.5 222,-254.5 292,-254.5 292,-235.5 222,-235.5"/>
<text text-anchor="middle" x="257" y="-242.5" font-family="Helvetica,sans-Serif" font-size="10.00">multibuf.hpp</text>
</a>
</g>
</g>
<!-- Node1&#45;&gt;Node8 -->
<g id="edge7" class="edge"><title>Node1&#45;&gt;Node8</title>
<path fill="none" stroke="midnightblue" d="M314.914,-291.324C304.514,-283.185 288.739,-270.839 276.278,-261.087"/>
<polygon fill="midnightblue" stroke="midnightblue" points="278.32,-258.241 268.288,-254.834 274.006,-263.753 278.32,-258.241"/>
</g>
<!-- Node14 -->
<g id="node14" class="node"><title>Node14</title>
<g id="a_node14"><a xlink:href="string_8hpp.html" target="_top" xlink:title="string.hpp">
<polygon fill="none" stroke="black" points="584.5,-174 584.5,-193 643.5,-193 643.5,-174 584.5,-174"/>
<text text-anchor="middle" x="614" y="-181" font-family="Helvetica,sans-Serif" font-size="10.00">string.hpp</text>
</a>
</g>
</g>
<!-- Node1&#45;&gt;Node14 -->
<g id="edge15" class="edge"><title>Node1&#45;&gt;Node14</title>
<path fill="none" stroke="midnightblue" d="M347.647,-291.319C398.224,-271.035 524.301,-220.473 583.01,-196.928"/>
<polygon fill="midnightblue" stroke="midnightblue" points="584.516,-200.095 592.495,-193.124 581.911,-193.598 584.516,-200.095"/>
</g>
<!-- Node24 -->
<g id="node24" class="node"><title>Node24</title>
<g id="a_node24"><a xlink:href="settings_8hpp.html" target="_top" xlink:title="settings.hpp">
<polygon fill="none" stroke="black" points="920,-235.5 920,-254.5 990,-254.5 990,-235.5 920,-235.5"/>
<text text-anchor="middle" x="955" y="-242.5" font-family="Helvetica,sans-Serif" font-size="10.00">settings.hpp</text>
</a>
</g>
</g>
<!-- Node1&#45;&gt;Node24 -->
<g id="edge33" class="edge"><title>Node1&#45;&gt;Node24</title>
<path fill="none" stroke="midnightblue" d="M378.815,-295.879C475.376,-288.281 686.865,-271.342 865,-255 879.596,-253.661 895.514,-252.102 909.849,-250.661"/>
<polygon fill="midnightblue" stroke="midnightblue" points="910.368,-254.127 919.965,-249.638 909.664,-247.162 910.368,-254.127"/>
</g>
<!-- Node8&#45;&gt;Node3 -->
<g id="edge8" class="edge"><title>Node8&#45;&gt;Node3</title>
<path fill="none" stroke="midnightblue" d="M221.718,-236.504C174.213,-226.292 92.2651,-208.227 63,-199 60.7227,-198.282 58.3861,-197.485 56.0502,-196.645"/>
<polygon fill="midnightblue" stroke="midnightblue" points="57.1962,-193.336 46.6055,-193.036 54.698,-199.875 57.1962,-193.336"/>
</g>
<!-- Node8&#45;&gt;Node6 -->
<g id="edge11" class="edge"><title>Node8&#45;&gt;Node6</title>
<path fill="none" stroke="midnightblue" d="M254.276,-235.461C249.685,-221.286 239.932,-192.076 230,-168 223.252,-151.643 216.872,-149.265 213,-132 211.055,-123.327 207.065,-118.617 213,-112 262.253,-57.0822 470.341,-88.7445 543,-76 545.086,-75.6342 547.229,-75.219 549.382,-74.7725"/>
<polygon fill="midnightblue" stroke="midnightblue" points="550.372,-78.1374 559.357,-72.5234 548.832,-71.3088 550.372,-78.1374"/>
</g>
<!-- Node9 -->
<g id="node9" class="node"><title>Node9</title>
<polygon fill="none" stroke="#bfbfbf" points="72,-174 72,-193 122,-193 122,-174 72,-174"/>
<text text-anchor="middle" x="97" y="-181" font-family="Helvetica,sans-Serif" font-size="10.00">fstream</text>
</g>
<!-- Node8&#45;&gt;Node9 -->
<g id="edge9" class="edge"><title>Node8&#45;&gt;Node9</title>
<path fill="none" stroke="midnightblue" d="M231.733,-235.476C206.175,-226.737 165.609,-212.546 131,-199 129.398,-198.373 127.758,-197.718 126.107,-197.048"/>
<polygon fill="midnightblue" stroke="midnightblue" points="127.271,-193.742 116.694,-193.136 124.585,-200.206 127.271,-193.742"/>
</g>
<!-- Node10 -->
<g id="node10" class="node"><title>Node10</title>
<polygon fill="none" stroke="#bfbfbf" points="292,-112.5 292,-131.5 336,-131.5 336,-112.5 292,-112.5"/>
<text text-anchor="middle" x="314" y="-119.5" font-family="Helvetica,sans-Serif" font-size="10.00">vector</text>
</g>
<!-- Node8&#45;&gt;Node10 -->
<g id="edge10" class="edge"><title>Node8&#45;&gt;Node10</title>
<path fill="none" stroke="midnightblue" d="M261.099,-235.298C270.384,-215.589 293.173,-167.211 305.595,-140.842"/>
<polygon fill="midnightblue" stroke="midnightblue" points="308.842,-142.161 309.938,-131.623 302.51,-139.178 308.842,-142.161"/>
</g>
<!-- Node11 -->
<g id="node11" class="node"><title>Node11</title>
<g id="a_node11"><a xlink:href="maybe__ptr_8hpp.html" target="_top" xlink:title="maybe_ptr.hpp">
<polygon fill="none" stroke="black" points="140.5,-174 140.5,-193 221.5,-193 221.5,-174 140.5,-174"/>
<text text-anchor="middle" x="181" y="-181" font-family="Helvetica,sans-Serif" font-size="10.00">maybe_ptr.hpp</text>
</a>
</g>
</g>
<!-- Node8&#45;&gt;Node11 -->
<g id="edge12" class="edge"><title>Node8&#45;&gt;Node11</title>
<path fill="none" stroke="midnightblue" d="M246.111,-235.475C234.034,-226.02 214.333,-210.596 199.76,-199.187"/>
<polygon fill="midnightblue" stroke="midnightblue" points="201.9,-196.418 191.869,-193.009 197.585,-201.929 201.9,-196.418"/>
</g>
<!-- Node12 -->
<g id="node12" class="node"><title>Node12</title>
<polygon fill="none" stroke="#bfbfbf" points="222,-112.5 222,-131.5 274,-131.5 274,-112.5 222,-112.5"/>
<text text-anchor="middle" x="248" y="-119.5" font-family="Helvetica,sans-Serif" font-size="10.00">memory</text>
</g>
<!-- Node11&#45;&gt;Node12 -->
<g id="edge13" class="edge"><title>Node11&#45;&gt;Node12</title>
<path fill="none" stroke="midnightblue" d="M190.599,-173.975C201.048,-164.697 217.968,-149.671 230.736,-138.331"/>
<polygon fill="midnightblue" stroke="midnightblue" points="233.265,-140.766 238.418,-131.509 228.617,-135.532 233.265,-140.766"/>
</g>
<!-- Node13 -->
<g id="node13" class="node"><title>Node13</title>
<polygon fill="none" stroke="#bfbfbf" points="104,-112.5 104,-131.5 166,-131.5 166,-112.5 104,-112.5"/>
<text text-anchor="middle" x="135" y="-119.5" font-family="Helvetica,sans-Serif" font-size="10.00">type_traits</text>
</g>
<!-- Node11&#45;&gt;Node13 -->
<g id="edge14" class="edge"><title>Node11&#45;&gt;Node13</title>
<path fill="none" stroke="midnightblue" d="M174.409,-173.975C167.509,-165.05 156.498,-150.807 147.866,-139.643"/>
<polygon fill="midnightblue" stroke="midnightblue" points="150.464,-137.28 141.578,-131.509 144.926,-141.561 150.464,-137.28"/>
</g>
<!-- Node14&#45;&gt;Node5 -->
<g id="edge19" class="edge"><title>Node14&#45;&gt;Node5</title>
<path fill="none" stroke="midnightblue" d="M586.491,-173.975C553.129,-163.636 496.738,-146.161 459.437,-134.602"/>
<polygon fill="midnightblue" stroke="midnightblue" points="460.046,-131.126 449.458,-131.509 457.974,-137.812 460.046,-131.126"/>
</g>
<!-- Node14&#45;&gt;Node6 -->
<g id="edge20" class="edge"><title>Node14&#45;&gt;Node6</title>
<path fill="none" stroke="midnightblue" d="M611.444,-173.819C605.956,-155.173 592.936,-110.943 585.485,-85.6317"/>
<polygon fill="midnightblue" stroke="midnightblue" points="588.767,-84.3866 582.585,-75.782 582.052,-86.3634 588.767,-84.3866"/>
</g>
<!-- Node14&#45;&gt;Node7 -->
<g id="edge22" class="edge"><title>Node14&#45;&gt;Node7</title>
<path fill="none" stroke="midnightblue" d="M643.665,-177.324C701.658,-167.205 830.702,-144.688 903.128,-132.051"/>
<polygon fill="midnightblue" stroke="midnightblue" points="904.138,-135.428 913.387,-130.261 902.934,-128.532 904.138,-135.428"/>
</g>
<!-- Node14&#45;&gt;Node10 -->
<g id="edge23" class="edge"><title>Node14&#45;&gt;Node10</title>
<path fill="none" stroke="midnightblue" d="M584.414,-176.632C527.797,-165.403 404.565,-140.962 346.064,-129.359"/>
<polygon fill="midnightblue" stroke="midnightblue" points="346.745,-125.926 336.255,-127.414 345.383,-132.793 346.745,-125.926"/>
</g>
<!-- Node14&#45;&gt;Node12 -->
<g id="edge18" class="edge"><title>Node14&#45;&gt;Node12</title>
<path fill="none" stroke="midnightblue" d="M584.152,-178.966C527.568,-172.048 400.662,-155.49 284.441,-132.127"/>
<polygon fill="midnightblue" stroke="midnightblue" points="284.805,-128.629 274.308,-130.066 283.41,-135.489 284.805,-128.629"/>
</g>
<!-- Node15 -->
<g id="node15" class="node"><title>Node15</title>
<polygon fill="none" stroke="#bfbfbf" points="869,-56.5 869,-75.5 915,-75.5 915,-56.5 869,-56.5"/>
<text text-anchor="middle" x="892" y="-63.5" font-family="Helvetica,sans-Serif" font-size="10.00">cstdint</text>
</g>
<!-- Node14&#45;&gt;Node15 -->
<g id="edge16" class="edge"><title>Node14&#45;&gt;Node15</title>
<path fill="none" stroke="midnightblue" d="M643.5,-180.087C702.527,-174.713 832.388,-159.97 866,-132 879.847,-120.477 886.376,-100.508 889.418,-85.736"/>
<polygon fill="midnightblue" stroke="midnightblue" points="892.902,-86.1239 891.129,-75.6785 886.002,-84.95 892.902,-86.1239"/>
</g>
<!-- Node16 -->
<g id="node16" class="node"><title>Node16</title>
<polygon fill="none" stroke="#bfbfbf" points="685.5,-112.5 685.5,-131.5 744.5,-131.5 744.5,-112.5 685.5,-112.5"/>
<text text-anchor="middle" x="715" y="-119.5" font-family="Helvetica,sans-Serif" font-size="10.00">functional</text>
</g>
<!-- Node14&#45;&gt;Node16 -->
<g id="edge17" class="edge"><title>Node14&#45;&gt;Node16</title>
<path fill="none" stroke="midnightblue" d="M628.471,-173.975C644.971,-164.255 672.178,-148.227 691.681,-136.737"/>
<polygon fill="midnightblue" stroke="midnightblue" points="693.716,-139.601 700.556,-131.509 690.163,-133.569 693.716,-139.601"/>
</g>
<!-- Node17 -->
<g id="node17" class="node"><title>Node17</title>
<polygon fill="none" stroke="#bfbfbf" points="615,-112.5 615,-131.5 667,-131.5 667,-112.5 615,-112.5"/>
<text text-anchor="middle" x="641" y="-119.5" font-family="Helvetica,sans-Serif" font-size="10.00">sstream</text>
</g>
<!-- Node14&#45;&gt;Node17 -->
<g id="edge21" class="edge"><title>Node14&#45;&gt;Node17</title>
<path fill="none" stroke="midnightblue" d="M617.868,-173.975C621.798,-165.315 628,-151.649 632.993,-140.645"/>
<polygon fill="midnightblue" stroke="midnightblue" points="636.194,-142.062 637.139,-131.509 629.819,-139.169 636.194,-142.062"/>
</g>
<!-- Node18 -->
<g id="node18" class="node"><title>Node18</title>
<g id="a_node18"><a xlink:href="color_8hpp.html" target="_top" xlink:title="color.hpp">
<polygon fill="none" stroke="black" points="801,-112.5 801,-131.5 857,-131.5 857,-112.5 801,-112.5"/>
<text text-anchor="middle" x="829" y="-119.5" font-family="Helvetica,sans-Serif" font-size="10.00">color.hpp</text>
</a>
</g>
</g>
<!-- Node14&#45;&gt;Node18 -->
<g id="edge24" class="edge"><title>Node14&#45;&gt;Node18</title>
<path fill="none" stroke="midnightblue" d="M643.895,-174.227C682.269,-163.607 748.892,-145.169 790.874,-133.551"/>
<polygon fill="midnightblue" stroke="midnightblue" points="792.023,-136.865 800.727,-130.824 790.155,-130.119 792.023,-136.865"/>
</g>
<!-- Node22 -->
<g id="node22" class="node"><title>Node22</title>
<g id="a_node22"><a xlink:href="quickstream_8hpp.html" target="_top" xlink:title="quickstream.hpp">
<polygon fill="none" stroke="black" points="469.5,-112.5 469.5,-131.5 558.5,-131.5 558.5,-112.5 469.5,-112.5"/>
<text text-anchor="middle" x="514" y="-119.5" font-family="Helvetica,sans-Serif" font-size="10.00">quickstream.hpp</text>
</a>
</g>
</g>
<!-- Node14&#45;&gt;Node22 -->
<g id="edge30" class="edge"><title>Node14&#45;&gt;Node22</title>
<path fill="none" stroke="midnightblue" d="M599.672,-173.975C583.336,-164.255 556.398,-148.227 537.088,-136.737"/>
<polygon fill="midnightblue" stroke="midnightblue" points="538.685,-133.615 528.301,-131.509 535.105,-139.63 538.685,-133.615"/>
</g>
<!-- Node18&#45;&gt;Node6 -->
<g id="edge26" class="edge"><title>Node18&#45;&gt;Node6</title>
<path fill="none" stroke="midnightblue" d="M800.921,-114.91C753.879,-104.709 659.516,-84.2445 610.749,-73.6685"/>
<polygon fill="midnightblue" stroke="midnightblue" points="611.302,-70.2071 600.787,-71.5081 609.818,-77.048 611.302,-70.2071"/>
</g>
<!-- Node18&#45;&gt;Node15 -->
<g id="edge25" class="edge"><title>Node18&#45;&gt;Node15</title>
<path fill="none" stroke="midnightblue" d="M839.122,-112.324C848.526,-104.263 862.744,-92.0765 874.069,-82.3695"/>
<polygon fill="midnightblue" stroke="midnightblue" points="876.379,-84.9993 881.694,-75.8339 871.823,-79.6844 876.379,-84.9993"/>
</g>
<!-- Node19 -->
<g id="node19" class="node"><title>Node19</title>
<g id="a_node19"><a xlink:href="math_8hpp.html" target="_top" xlink:title="math.hpp">
<polygon fill="none" stroke="black" points="793.5,-56.5 793.5,-75.5 850.5,-75.5 850.5,-56.5 793.5,-56.5"/>
<text text-anchor="middle" x="822" y="-63.5" font-family="Helvetica,sans-Serif" font-size="10.00">math.hpp</text>
</a>
</g>
</g>
<!-- Node18&#45;&gt;Node19 -->
<g id="edge27" class="edge"><title>Node18&#45;&gt;Node19</title>
<path fill="none" stroke="midnightblue" d="M827.844,-112.083C826.916,-104.927 825.582,-94.6353 824.423,-85.6911"/>
<polygon fill="midnightblue" stroke="midnightblue" points="827.891,-85.2181 823.134,-75.7511 820.949,-86.1181 827.891,-85.2181"/>
</g>
<!-- Node21 -->
<g id="node21" class="node"><title>Node21</title>
<g id="a_node21"><a xlink:href="c_09_09-compat_8hpp.html" target="_top" xlink:title="This file defined some compatibility for features of C++14 and beyond. ">
<polygon fill="none" stroke="black" points="1031,-56.5 1031,-75.5 1119,-75.5 1119,-56.5 1031,-56.5"/>
<text text-anchor="middle" x="1075" y="-63.5" font-family="Helvetica,sans-Serif" font-size="10.00">c++&#45;compat.hpp</text>
</a>
</g>
</g>
<!-- Node18&#45;&gt;Node21 -->
<g id="edge29" class="edge"><title>Node18&#45;&gt;Node21</title>
<path fill="none" stroke="midnightblue" d="M857.219,-114.806C898.426,-105.76 975.642,-88.8104 1026.18,-77.716"/>
<polygon fill="midnightblue" stroke="midnightblue" points="1027.21,-81.0736 1036.23,-75.5108 1025.71,-74.2364 1027.21,-81.0736"/>
</g>
<!-- Node20 -->
<g id="node20" class="node"><title>Node20</title>
<polygon fill="none" stroke="#bfbfbf" points="794,-0.5 794,-19.5 850,-19.5 850,-0.5 794,-0.5"/>
<text text-anchor="middle" x="822" y="-7.5" font-family="Helvetica,sans-Serif" font-size="10.00">algorithm</text>
</g>
<!-- Node19&#45;&gt;Node20 -->
<g id="edge28" class="edge"><title>Node19&#45;&gt;Node20</title>
<path fill="none" stroke="midnightblue" d="M822,-56.083C822,-49.0059 822,-38.8611 822,-29.9865"/>
<polygon fill="midnightblue" stroke="midnightblue" points="825.5,-29.751 822,-19.7511 818.5,-29.7511 825.5,-29.751"/>
</g>
<!-- Node22&#45;&gt;Node6 -->
<g id="edge31" class="edge"><title>Node22&#45;&gt;Node6</title>
<path fill="none" stroke="midnightblue" d="M524.604,-112.324C534.456,-104.263 549.351,-92.0765 561.215,-82.3695"/>
<polygon fill="midnightblue" stroke="midnightblue" points="563.68,-84.8752 569.203,-75.8339 559.247,-79.4575 563.68,-84.8752"/>
</g>
<!-- Node23 -->
<g id="node23" class="node"><title>Node23</title>
<polygon fill="none" stroke="#bfbfbf" points="493.5,-56.5 493.5,-75.5 534.5,-75.5 534.5,-56.5 493.5,-56.5"/>
<text text-anchor="middle" x="514" y="-63.5" font-family="Helvetica,sans-Serif" font-size="10.00">regex</text>
</g>
<!-- Node22&#45;&gt;Node23 -->
<g id="edge32" class="edge"><title>Node22&#45;&gt;Node23</title>
<path fill="none" stroke="midnightblue" d="M514,-112.083C514,-105.006 514,-94.8611 514,-85.9865"/>
<polygon fill="midnightblue" stroke="midnightblue" points="517.5,-85.751 514,-75.7511 510.5,-85.7511 517.5,-85.751"/>
</g>
<!-- Node24&#45;&gt;Node6 -->
<g id="edge34" class="edge"><title>Node24&#45;&gt;Node6</title>
<path fill="none" stroke="midnightblue" d="M943.074,-235.418C906.277,-209.058 794.555,-129.969 754,-112 706.172,-90.8087 646.361,-78.0734 610.775,-71.8073"/>
<polygon fill="midnightblue" stroke="midnightblue" points="610.995,-68.2945 600.55,-70.0682 609.821,-75.1954 610.995,-68.2945"/>
</g>
<!-- Node24&#45;&gt;Node7 -->
<g id="edge36" class="edge"><title>Node24&#45;&gt;Node7</title>
<path fill="none" stroke="midnightblue" d="M955,-235.298C955,-215.85 955,-168.49 955,-141.904"/>
<polygon fill="midnightblue" stroke="midnightblue" points="958.5,-141.623 955,-131.623 951.5,-141.623 958.5,-141.623"/>
</g>
<!-- Node24&#45;&gt;Node14 -->
<g id="edge39" class="edge"><title>Node24&#45;&gt;Node14</title>
<path fill="none" stroke="midnightblue" d="M919.791,-237.857C855.828,-226.696 720.964,-203.164 653.78,-191.441"/>
<polygon fill="midnightblue" stroke="midnightblue" points="654.053,-187.936 643.6,-189.665 652.85,-194.832 654.053,-187.936"/>
</g>
<!-- Node24&#45;&gt;Node15 -->
<g id="edge35" class="edge"><title>Node24&#45;&gt;Node15</title>
<path fill="none" stroke="midnightblue" d="M963.639,-235.329C984.584,-213.236 1034.33,-153.64 1006,-112 988.037,-85.5978 951.956,-74.6862 925.173,-70.1766"/>
<polygon fill="midnightblue" stroke="midnightblue" points="925.465,-66.682 915.063,-68.6979 924.452,-73.6083 925.465,-66.682"/>
</g>
<!-- Node24&#45;&gt;Node21 -->
<g id="edge38" class="edge"><title>Node24&#45;&gt;Node21</title>
<path fill="none" stroke="midnightblue" d="M990.006,-240.956C1040.18,-235.786 1128.64,-223.389 1148,-199 1178.51,-160.563 1125.24,-107.673 1094.5,-82.0819"/>
<polygon fill="midnightblue" stroke="midnightblue" points="1096.49,-79.19 1086.51,-75.6224 1092.08,-84.6325 1096.49,-79.19"/>
</g>
<!-- Node25 -->
<g id="node25" class="node"><title>Node25</title>
<polygon fill="none" stroke="#bfbfbf" points="1037.5,-168.5 1037.5,-198.5 1138.5,-198.5 1138.5,-168.5 1037.5,-168.5"/>
<text text-anchor="start" x="1045.5" y="-186.5" font-family="Helvetica,sans-Serif" font-size="10.00">boost/property_tree</text>
<text text-anchor="middle" x="1088" y="-175.5" font-family="Helvetica,sans-Serif" font-size="10.00">/ptree.hpp</text>
</g>
<!-- Node24&#45;&gt;Node25 -->
<g id="edge37" class="edge"><title>Node24&#45;&gt;Node25</title>
<path fill="none" stroke="midnightblue" d="M974.056,-235.475C993.079,-226.965 1022.91,-213.619 1047.28,-202.718"/>
<polygon fill="midnightblue" stroke="midnightblue" points="1048.96,-205.802 1056.65,-198.523 1046.1,-199.412 1048.96,-205.802"/>
</g>
</g>
</svg>
        <g id="navigator" transform="translate(0 0)" fill="#404254">
                <rect fill="#f2f5e9" fill-opacity="0.5" stroke="#606060" stroke-width=".5" x="0" y="0" width="60" height="60"/>
                <use id="zoomplus" xlink:href="#zoomPlus" x="17" y="9" onmousedown="handleZoom(evt,'in')"/>
                <use id="zoomminus" xlink:href="#zoomMin" x="42" y="9" onmousedown="handleZoom(evt,'out')"/>
                <use id="reset" xlink:href="#resetDef" x="30" y="36" onmousedown="handleReset()"/>
                <g id="arrowUp" xlink:href="#dirArrow" transform="translate(30 24)" onmousedown="handlePan(0,-1)">
                  <use xlink:href="#rim" fill="#404040">
                        <set attributeName="fill" to="#808080" begin="arrowUp.mouseover" end="arrowUp.mouseout"/>
                  </use>
                  <path fill="none" stroke="white" stroke-width="1.5" d="M0,-3.0v7 M-2.5,-0.5L0,-3.0L2.5,-0.5"/>
                </g>
                <g id="arrowRight" xlink:href="#dirArrow" transform="rotate(90) translate(36 -43)" onmousedown="handlePan(1,0)">
                  <use xlink:href="#rim" fill="#404040">
                        <set attributeName="fill" to="#808080" begin="arrowRight.mouseover" end="arrowRight.mouseout"/>
                  </use>
                  <path fill="none" stroke="white" stroke-width="1.5" d="M0,-3.0v7 M-2.5,-0.5L0,-3.0L2.5,-0.5"/>
                </g>
                <g id="arrowDown" xlink:href="#dirArrow" transform="rotate(180) translate(-30 -48)" onmousedown="handlePan(0,1)">
                  <use xlink:href="#rim" fill="#404040">
                        <set attributeName="fill" to="#808080" begin="arrowDown.mouseover" end="arrowDown.mouseout"/>
                  </use>
                  <path fill="none" stroke="white" stroke-width="1.5" d="M0,-3.0v7 M-2.5,-0.5L0,-3.0L2.5,-0.5"/>
                </g>
                <g id="arrowLeft" xlink:href="#dirArrow" transform="rotate(270) translate(-36 17)" onmousedown="handlePan(-1,0)">
                  <use xlink:href="#rim" fill="#404040">
                        <set attributeName="fill" to="#808080" begin="arrowLeft.mouseover" end="arrowLeft.mouseout"/>
                  </use>
                  <path fill="none" stroke="white" stroke-width="1.5" d="M0,-3.0v7 M-2.5,-0.5L0,-3.0L2.5,-0.5"/>
                </g>
        </g>
        <svg viewBox="0 0 15 15" width="100%" height="30px" preserveAspectRatio="xMaxYMin meet">
         <g id="arrow_out" transform="scale(0.3 0.3)">
          <a xlink:href="logger_8hpp__incl_org.svg" target="_base">
           <rect id="button" ry="5" rx="5" y="6" x="6" height="38" width="38"
                fill="#f2f5e9" fill-opacity="0.5" stroke="#606060" stroke-width="1.0"/>
           <path id="arrow"
             d="M 11.500037,31.436501 C 11.940474,20.09759 22.043105,11.32322 32.158766,21.979434 L 37.068811,17.246167 C 37.068811,17.246167 37.088388,32 37.088388,32 L 22.160133,31.978069 C 22.160133,31.978069 26.997745,27.140456 26.997745,27.140456 C 18.528582,18.264221 13.291696,25.230495 11.500037,31.436501 z"
             style="fill:#404040;"/>
          </a>
         </g>
        </svg>
</svg>
