<?xml version="1.0" encoding="UTF-8" standalone="no"?>
<!DOCTYPE svg PUBLIC "-//W3C//DTD SVG 1.1//EN"
 "http://www.w3.org/Graphics/SVG/1.1/DTD/svg11.dtd">
<!-- Generated by graphviz version 2.38.0 (20140413.2041)
 -->
<!-- Title: src/string/logger.cpp Pages: 1 -->
<svg width="1523pt" height="319pt"
 viewBox="0.00 0.00 1522.91 319.00" xmlns="http://www.w3.org/2000/svg" xmlns:xlink="http://www.w3.org/1999/xlink">
<g id="graph0" class="graph" transform="scale(1 1) rotate(0) translate(4 315)">
<title>src/string/logger.cpp</title>
<!-- Node1 -->
<g id="node1" class="node"><title>Node1</title>
<polygon fill="#bfbfbf" stroke="black" points="613.409,-291.5 613.409,-310.5 718.409,-310.5 718.409,-291.5 613.409,-291.5"/>
<text text-anchor="middle" x="665.909" y="-298.5" font-family="Helvetica,sans-Serif" font-size="10.00">src/string/logger.cpp</text>
</g>
<!-- Node2 -->
<g id="node2" class="node"><title>Node2</title>
<g id="a_node2"><a xlink:href="logger_8hpp.html" target="_top" xlink:title="logger.hpp">
<polygon fill="none" stroke="black" points="459.909,-235.5 459.909,-254.5 521.909,-254.5 521.909,-235.5 459.909,-235.5"/>
<text text-anchor="middle" x="490.909" y="-242.5" font-family="Helvetica,sans-Serif" font-size="10.00">logger.hpp</text>
</a>
</g>
</g>
<!-- Node1&#45;&gt;Node2 -->
<g id="edge1" class="edge"><title>Node1&#45;&gt;Node2</title>
<path fill="none" stroke="midnightblue" d="M638.18,-291.444C608.484,-282.28 561.193,-267.688 528.24,-257.519"/>
<polygon fill="midnightblue" stroke="midnightblue" points="529.096,-254.121 518.509,-254.516 527.032,-260.809 529.096,-254.121"/>
</g>
<!-- Node23 -->
<g id="node23" class="node"><title>Node23</title>
<g id="a_node23"><a xlink:href="time__string_8hpp.html" target="_top" xlink:title="time/time_string.hpp">
<polygon fill="none" stroke="black" points="789.409,-235.5 789.409,-254.5 894.409,-254.5 894.409,-235.5 789.409,-235.5"/>
<text text-anchor="middle" x="841.909" y="-242.5" font-family="Helvetica,sans-Serif" font-size="10.00">time/time_string.hpp</text>
</a>
</g>
</g>
<!-- Node1&#45;&gt;Node23 -->
<g id="edge34" class="edge"><title>Node1&#45;&gt;Node23</title>
<path fill="none" stroke="midnightblue" d="M693.797,-291.444C723.663,-282.28 771.224,-267.688 804.365,-257.519"/>
<polygon fill="midnightblue" stroke="midnightblue" points="805.619,-260.796 814.152,-254.516 803.565,-254.104 805.619,-260.796"/>
</g>
<!-- Node3 -->
<g id="node3" class="node"><title>Node3</title>
<polygon fill="none" stroke="#bfbfbf" points="502.909,-179.5 502.909,-198.5 552.909,-198.5 552.909,-179.5 502.909,-179.5"/>
<text text-anchor="middle" x="527.909" y="-186.5" font-family="Helvetica,sans-Serif" font-size="10.00">iomanip</text>
</g>
<!-- Node2&#45;&gt;Node3 -->
<g id="edge2" class="edge"><title>Node2&#45;&gt;Node3</title>
<path fill="none" stroke="midnightblue" d="M497.019,-235.083C502.192,-227.534 509.755,-216.495 516.104,-207.23"/>
<polygon fill="midnightblue" stroke="midnightblue" points="519.148,-208.979 521.913,-198.751 513.374,-205.022 519.148,-208.979"/>
</g>
<!-- Node4 -->
<g id="node4" class="node"><title>Node4</title>
<polygon fill="none" stroke="#bfbfbf" points="92.9093,-118 92.9093,-137 146.909,-137 146.909,-118 92.9093,-118"/>
<text text-anchor="middle" x="119.909" y="-125" font-family="Helvetica,sans-Serif" font-size="10.00">iostream</text>
</g>
<!-- Node2&#45;&gt;Node4 -->
<g id="edge3" class="edge"><title>Node2&#45;&gt;Node4</title>
<path fill="none" stroke="midnightblue" d="M459.664,-235.595C400.061,-219.338 266.234,-181.761 155.909,-143 154.002,-142.33 152.048,-141.618 150.083,-140.883"/>
<polygon fill="midnightblue" stroke="midnightblue" points="150.937,-137.46 140.348,-137.103 148.404,-143.985 150.937,-137.46"/>
</g>
<!-- Node5 -->
<g id="node5" class="node"><title>Node5</title>
<polygon fill="none" stroke="#bfbfbf" points="1230.91,-56.5 1230.91,-75.5 1274.91,-75.5 1274.91,-56.5 1230.91,-56.5"/>
<text text-anchor="middle" x="1252.91" y="-63.5" font-family="Helvetica,sans-Serif" font-size="10.00">mutex</text>
</g>
<!-- Node2&#45;&gt;Node5 -->
<g id="edge4" class="edge"><title>Node2&#45;&gt;Node5</title>
<path fill="none" stroke="midnightblue" d="M522.221,-242.883C629.387,-238.869 980.913,-224.066 1090.91,-199 1157.46,-183.835 1188.84,-194.258 1233.91,-143 1247.77,-127.233 1251.83,-102.845 1252.86,-85.9669"/>
<polygon fill="midnightblue" stroke="midnightblue" points="1256.37,-85.783 1253.17,-75.6803 1249.37,-85.5681 1256.37,-85.783"/>
</g>
<!-- Node6 -->
<g id="node6" class="node"><title>Node6</title>
<polygon fill="none" stroke="#bfbfbf" points="227.409,-118 227.409,-137 286.409,-137 286.409,-118 227.409,-118"/>
<text text-anchor="middle" x="256.909" y="-125" font-family="Helvetica,sans-Serif" font-size="10.00">stdexcept</text>
</g>
<!-- Node2&#45;&gt;Node6 -->
<g id="edge5" class="edge"><title>Node2&#45;&gt;Node6</title>
<path fill="none" stroke="midnightblue" d="M473.321,-235.319C432.651,-215.245 331.9,-165.515 283.585,-141.667"/>
<polygon fill="midnightblue" stroke="midnightblue" points="284.899,-138.412 274.382,-137.124 281.8,-144.689 284.899,-138.412"/>
</g>
<!-- Node7 -->
<g id="node7" class="node"><title>Node7</title>
<polygon fill="none" stroke="#bfbfbf" points="434.409,-56.5 434.409,-75.5 475.409,-75.5 475.409,-56.5 434.409,-56.5"/>
<text text-anchor="middle" x="454.909" y="-63.5" font-family="Helvetica,sans-Serif" font-size="10.00">string</text>
</g>
<!-- Node2&#45;&gt;Node7 -->
<g id="edge6" class="edge"><title>Node2&#45;&gt;Node7</title>
<path fill="none" stroke="midnightblue" d="M459.656,-242.867C375.447,-239.46 145.496,-227.716 75.9093,-199 39.0803,-183.802 23.1683,-178.909 5.9093,-143 -0.0590817,-130.582 -3.33454,-122.217 5.9093,-112 33.9635,-80.9936 327.508,-70.4062 424.208,-67.7453"/>
<polygon fill="midnightblue" stroke="midnightblue" points="424.326,-71.2435 434.229,-67.4788 424.14,-64.246 424.326,-71.2435"/>
</g>
<!-- Node8 -->
<g id="node8" class="node"><title>Node8</title>
<polygon fill="none" stroke="#bfbfbf" points="633.409,-118 633.409,-137 716.409,-137 716.409,-118 633.409,-118"/>
<text text-anchor="middle" x="674.909" y="-125" font-family="Helvetica,sans-Serif" font-size="10.00">unordered_map</text>
</g>
<!-- Node2&#45;&gt;Node8 -->
<g id="edge7" class="edge"><title>Node2&#45;&gt;Node8</title>
<path fill="none" stroke="midnightblue" d="M504.739,-235.319C536.308,-215.503 613.913,-166.789 652.448,-142.599"/>
<polygon fill="midnightblue" stroke="midnightblue" points="654.31,-145.563 660.919,-137.282 650.588,-139.634 654.31,-145.563"/>
</g>
<!-- Node9 -->
<g id="node9" class="node"><title>Node9</title>
<g id="a_node9"><a xlink:href="multibuf_8hpp.html" target="_top" xlink:title="multibuf.hpp">
<polygon fill="none" stroke="black" points="84.9093,-179.5 84.9093,-198.5 154.909,-198.5 154.909,-179.5 84.9093,-179.5"/>
<text text-anchor="middle" x="119.909" y="-186.5" font-family="Helvetica,sans-Serif" font-size="10.00">multibuf.hpp</text>
</a>
</g>
</g>
<!-- Node2&#45;&gt;Node9 -->
<g id="edge8" class="edge"><title>Node2&#45;&gt;Node9</title>
<path fill="none" stroke="midnightblue" d="M459.598,-239.443C393.944,-229.886 241.65,-207.72 165.283,-196.604"/>
<polygon fill="midnightblue" stroke="midnightblue" points="165.428,-193.089 155.028,-195.112 164.419,-200.016 165.428,-193.089"/>
</g>
<!-- Node12 -->
<g id="node12" class="node"><title>Node12</title>
<g id="a_node12"><a xlink:href="string_8hpp.html" target="_top" xlink:title="string.hpp">
<polygon fill="none" stroke="black" points="425.409,-179.5 425.409,-198.5 484.409,-198.5 484.409,-179.5 425.409,-179.5"/>
<text text-anchor="middle" x="454.909" y="-186.5" font-family="Helvetica,sans-Serif" font-size="10.00">string.hpp</text>
</a>
</g>
</g>
<!-- Node2&#45;&gt;Node12 -->
<g id="edge13" class="edge"><title>Node2&#45;&gt;Node12</title>
<path fill="none" stroke="midnightblue" d="M484.965,-235.083C479.932,-227.534 472.573,-216.495 466.396,-207.23"/>
<polygon fill="midnightblue" stroke="midnightblue" points="469.203,-205.13 460.743,-198.751 463.378,-209.013 469.203,-205.13"/>
</g>
<!-- Node21 -->
<g id="node21" class="node"><title>Node21</title>
<g id="a_node21"><a xlink:href="settings_8hpp.html" target="_top" xlink:title="settings.hpp">
<polygon fill="none" stroke="black" points="728.909,-179.5 728.909,-198.5 798.909,-198.5 798.909,-179.5 728.909,-179.5"/>
<text text-anchor="middle" x="763.909" y="-186.5" font-family="Helvetica,sans-Serif" font-size="10.00">settings.hpp</text>
</a>
</g>
</g>
<!-- Node2&#45;&gt;Node21 -->
<g id="edge28" class="edge"><title>Node2&#45;&gt;Node21</title>
<path fill="none" stroke="midnightblue" d="M521.96,-237.858C570.112,-228.333 663.028,-209.955 718.652,-198.952"/>
<polygon fill="midnightblue" stroke="midnightblue" points="719.455,-202.361 728.585,-196.987 718.096,-195.494 719.455,-202.361"/>
</g>
<!-- Node9&#45;&gt;Node4 -->
<g id="edge9" class="edge"><title>Node9&#45;&gt;Node4</title>
<path fill="none" stroke="midnightblue" d="M119.909,-179.475C119.909,-171.08 119.909,-157.981 119.909,-147.163"/>
<polygon fill="midnightblue" stroke="midnightblue" points="123.409,-147.009 119.909,-137.009 116.409,-147.009 123.409,-147.009"/>
</g>
<!-- Node9&#45;&gt;Node7 -->
<g id="edge12" class="edge"><title>Node9&#45;&gt;Node7</title>
<path fill="none" stroke="midnightblue" d="M84.7698,-182.893C60.9293,-177.401 31.0853,-166.102 15.9093,-143 8.34476,-131.485 6.67701,-122.227 15.9093,-112 43.252,-81.7112 329.108,-70.6702 424.28,-67.8175"/>
<polygon fill="midnightblue" stroke="midnightblue" points="424.514,-71.3123 434.408,-67.5236 424.311,-64.3153 424.514,-71.3123"/>
</g>
<!-- Node10 -->
<g id="node10" class="node"><title>Node10</title>
<polygon fill="none" stroke="#bfbfbf" points="24.9093,-118 24.9093,-137 74.9093,-137 74.9093,-118 24.9093,-118"/>
<text text-anchor="middle" x="49.9093" y="-125" font-family="Helvetica,sans-Serif" font-size="10.00">fstream</text>
</g>
<!-- Node9&#45;&gt;Node10 -->
<g id="edge10" class="edge"><title>Node9&#45;&gt;Node10</title>
<path fill="none" stroke="midnightblue" d="M109.88,-179.475C98.8602,-170.108 80.9492,-154.884 67.5658,-143.508"/>
<polygon fill="midnightblue" stroke="midnightblue" points="69.8062,-140.819 59.92,-137.009 65.2726,-146.152 69.8062,-140.819"/>
</g>
<!-- Node11 -->
<g id="node11" class="node"><title>Node11</title>
<polygon fill="none" stroke="#bfbfbf" points="164.909,-118 164.909,-137 208.909,-137 208.909,-118 164.909,-118"/>
<text text-anchor="middle" x="186.909" y="-125" font-family="Helvetica,sans-Serif" font-size="10.00">vector</text>
</g>
<!-- Node9&#45;&gt;Node11 -->
<g id="edge11" class="edge"><title>Node9&#45;&gt;Node11</title>
<path fill="none" stroke="midnightblue" d="M129.509,-179.475C139.957,-170.197 156.877,-155.171 169.646,-143.831"/>
<polygon fill="midnightblue" stroke="midnightblue" points="172.175,-146.266 177.328,-137.009 167.526,-141.032 172.175,-146.266"/>
</g>
<!-- Node12&#45;&gt;Node6 -->
<g id="edge17" class="edge"><title>Node12&#45;&gt;Node6</title>
<path fill="none" stroke="midnightblue" d="M425.391,-180.405C393.306,-171.973 340.63,-157.616 295.909,-143 293.506,-142.215 291.031,-141.373 288.549,-140.505"/>
<polygon fill="midnightblue" stroke="midnightblue" points="289.669,-137.189 279.075,-137.091 287.296,-143.774 289.669,-137.189"/>
</g>
<!-- Node12&#45;&gt;Node7 -->
<g id="edge18" class="edge"><title>Node12&#45;&gt;Node7</title>
<path fill="none" stroke="midnightblue" d="M454.909,-179.298C454.909,-159.85 454.909,-112.49 454.909,-85.9036"/>
<polygon fill="midnightblue" stroke="midnightblue" points="458.409,-85.6231 454.909,-75.6232 451.409,-85.6232 458.409,-85.6231"/>
</g>
<!-- Node12&#45;&gt;Node8 -->
<g id="edge20" class="edge"><title>Node12&#45;&gt;Node8</title>
<path fill="none" stroke="midnightblue" d="M484.579,-179.976C522.99,-169.587 590.132,-151.428 633.536,-139.69"/>
<polygon fill="midnightblue" stroke="midnightblue" points="634.483,-143.059 643.222,-137.07 632.655,-136.302 634.483,-143.059"/>
</g>
<!-- Node12&#45;&gt;Node11 -->
<g id="edge21" class="edge"><title>Node12&#45;&gt;Node11</title>
<path fill="none" stroke="midnightblue" d="M425.13,-184.769C379.628,-179.295 290.439,-166.439 217.909,-143 216.238,-142.46 214.539,-141.851 212.842,-141.197"/>
<polygon fill="midnightblue" stroke="midnightblue" points="213.902,-137.843 203.332,-137.112 211.139,-144.275 213.902,-137.843"/>
</g>
<!-- Node13 -->
<g id="node13" class="node"><title>Node13</title>
<polygon fill="none" stroke="#bfbfbf" points="525.909,-56.5 525.909,-75.5 571.909,-75.5 571.909,-56.5 525.909,-56.5"/>
<text text-anchor="middle" x="548.909" y="-63.5" font-family="Helvetica,sans-Serif" font-size="10.00">cstdint</text>
</g>
<!-- Node12&#45;&gt;Node13 -->
<g id="edge14" class="edge"><title>Node12&#45;&gt;Node13</title>
<path fill="none" stroke="midnightblue" d="M461.114,-179.472C471.456,-165.313 492.96,-136.125 511.909,-112 519.5,-102.336 528.22,-91.7088 535.287,-83.2096"/>
<polygon fill="midnightblue" stroke="midnightblue" points="537.975,-85.4521 541.701,-75.5341 532.603,-80.9636 537.975,-85.4521"/>
</g>
<!-- Node14 -->
<g id="node14" class="node"><title>Node14</title>
<polygon fill="none" stroke="#bfbfbf" points="1025.41,-56.5 1025.41,-75.5 1084.41,-75.5 1084.41,-56.5 1025.41,-56.5"/>
<text text-anchor="middle" x="1054.91" y="-63.5" font-family="Helvetica,sans-Serif" font-size="10.00">functional</text>
</g>
<!-- Node12&#45;&gt;Node14 -->
<g id="edge15" class="edge"><title>Node12&#45;&gt;Node14</title>
<path fill="none" stroke="midnightblue" d="M484.516,-181.043C511.917,-173.874 553.23,-161.176 585.909,-143 604.957,-132.406 603.733,-120.245 623.909,-112 782.859,-47.0459 841.004,-101.627 1015.18,-75.8464"/>
<polygon fill="midnightblue" stroke="midnightblue" points="1015.83,-79.2863 1025.18,-74.2967 1014.76,-72.3688 1015.83,-79.2863"/>
</g>
<!-- Node15 -->
<g id="node15" class="node"><title>Node15</title>
<polygon fill="none" stroke="#bfbfbf" points="304.909,-118 304.909,-137 356.909,-137 356.909,-118 304.909,-118"/>
<text text-anchor="middle" x="330.909" y="-125" font-family="Helvetica,sans-Serif" font-size="10.00">memory</text>
</g>
<!-- Node12&#45;&gt;Node15 -->
<g id="edge16" class="edge"><title>Node12&#45;&gt;Node15</title>
<path fill="none" stroke="midnightblue" d="M437.143,-179.475C416.425,-169.534 381.957,-152.995 357.92,-141.461"/>
<polygon fill="midnightblue" stroke="midnightblue" points="359.172,-138.18 348.643,-137.009 356.144,-144.491 359.172,-138.18"/>
</g>
<!-- Node16 -->
<g id="node16" class="node"><title>Node16</title>
<polygon fill="none" stroke="#bfbfbf" points="374.909,-118 374.909,-137 426.909,-137 426.909,-118 374.909,-118"/>
<text text-anchor="middle" x="400.909" y="-125" font-family="Helvetica,sans-Serif" font-size="10.00">sstream</text>
</g>
<!-- Node12&#45;&gt;Node16 -->
<g id="edge19" class="edge"><title>Node12&#45;&gt;Node16</title>
<path fill="none" stroke="midnightblue" d="M447.172,-179.475C438.912,-170.373 425.632,-155.741 415.415,-144.483"/>
<polygon fill="midnightblue" stroke="midnightblue" points="417.944,-142.062 408.632,-137.009 412.761,-146.766 417.944,-142.062"/>
</g>
<!-- Node17 -->
<g id="node17" class="node"><title>Node17</title>
<g id="a_node17"><a xlink:href="color_8hpp.html" target="_top" xlink:title="color.hpp">
<polygon fill="none" stroke="black" points="520.909,-118 520.909,-137 576.909,-137 576.909,-118 520.909,-118"/>
<text text-anchor="middle" x="548.909" y="-125" font-family="Helvetica,sans-Serif" font-size="10.00">color.hpp</text>
</a>
</g>
</g>
<!-- Node12&#45;&gt;Node17 -->
<g id="edge22" class="edge"><title>Node12&#45;&gt;Node17</title>
<path fill="none" stroke="midnightblue" d="M468.377,-179.475C483.594,-169.843 508.596,-154.017 526.71,-142.552"/>
<polygon fill="midnightblue" stroke="midnightblue" points="528.889,-145.315 535.466,-137.009 525.145,-139.4 528.889,-145.315"/>
</g>
<!-- Node17&#45;&gt;Node7 -->
<g id="edge24" class="edge"><title>Node17&#45;&gt;Node7</title>
<path fill="none" stroke="midnightblue" d="M535.441,-117.975C520.224,-108.343 495.223,-92.5175 477.109,-81.0517"/>
<polygon fill="midnightblue" stroke="midnightblue" points="478.674,-77.9002 468.352,-75.5091 474.93,-83.8149 478.674,-77.9002"/>
</g>
<!-- Node17&#45;&gt;Node13 -->
<g id="edge23" class="edge"><title>Node17&#45;&gt;Node13</title>
<path fill="none" stroke="midnightblue" d="M548.909,-117.975C548.909,-109.58 548.909,-96.4806 548.909,-85.6631"/>
<polygon fill="midnightblue" stroke="midnightblue" points="552.409,-85.5091 548.909,-75.5091 545.409,-85.5091 552.409,-85.5091"/>
</g>
<!-- Node18 -->
<g id="node18" class="node"><title>Node18</title>
<g id="a_node18"><a xlink:href="math_8hpp.html" target="_top" xlink:title="math.hpp">
<polygon fill="none" stroke="black" points="717.409,-56.5 717.409,-75.5 774.409,-75.5 774.409,-56.5 717.409,-56.5"/>
<text text-anchor="middle" x="745.909" y="-63.5" font-family="Helvetica,sans-Serif" font-size="10.00">math.hpp</text>
</a>
</g>
</g>
<!-- Node17&#45;&gt;Node18 -->
<g id="edge25" class="edge"><title>Node17&#45;&gt;Node18</title>
<path fill="none" stroke="midnightblue" d="M573.271,-117.859C579.035,-115.879 585.175,-113.821 590.909,-112 630.431,-99.4494 676.055,-86.3718 707.52,-77.5704"/>
<polygon fill="midnightblue" stroke="midnightblue" points="708.519,-80.9253 717.212,-74.8691 706.64,-74.1823 708.519,-80.9253"/>
</g>
<!-- Node20 -->
<g id="node20" class="node"><title>Node20</title>
<g id="a_node20"><a xlink:href="c_09_09-compat_8hpp.html" target="_top" xlink:title="This file defined some compatibility for features of C++14 and beyond. ">
<polygon fill="none" stroke="black" points="918.909,-56.5 918.909,-75.5 1006.91,-75.5 1006.91,-56.5 918.909,-56.5"/>
<text text-anchor="middle" x="962.909" y="-63.5" font-family="Helvetica,sans-Serif" font-size="10.00">c++&#45;compat.hpp</text>
</a>
</g>
</g>
<!-- Node17&#45;&gt;Node20 -->
<g id="edge27" class="edge"><title>Node17&#45;&gt;Node20</title>
<path fill="none" stroke="midnightblue" d="M570.886,-117.931C577.264,-115.713 584.294,-113.524 590.909,-112 702.086,-86.3899 835.519,-74.7499 908.539,-69.9583"/>
<polygon fill="midnightblue" stroke="midnightblue" points="909.107,-73.4293 918.864,-69.3002 908.662,-66.4434 909.107,-73.4293"/>
</g>
<!-- Node19 -->
<g id="node19" class="node"><title>Node19</title>
<polygon fill="none" stroke="#bfbfbf" points="717.909,-0.5 717.909,-19.5 773.909,-19.5 773.909,-0.5 717.909,-0.5"/>
<text text-anchor="middle" x="745.909" y="-7.5" font-family="Helvetica,sans-Serif" font-size="10.00">algorithm</text>
</g>
<!-- Node18&#45;&gt;Node19 -->
<g id="edge26" class="edge"><title>Node18&#45;&gt;Node19</title>
<path fill="none" stroke="midnightblue" d="M745.909,-56.083C745.909,-49.0059 745.909,-38.8611 745.909,-29.9865"/>
<polygon fill="midnightblue" stroke="midnightblue" points="749.409,-29.751 745.909,-19.7511 742.409,-29.7511 749.409,-29.751"/>
</g>
<!-- Node21&#45;&gt;Node7 -->
<g id="edge29" class="edge"><title>Node21&#45;&gt;Node7</title>
<path fill="none" stroke="midnightblue" d="M762.127,-179.274C758.343,-163.148 747.902,-128.796 724.909,-112 720.073,-108.467 555.333,-82.5794 485.599,-71.7462"/>
<polygon fill="midnightblue" stroke="midnightblue" points="486.064,-68.2765 475.645,-70.2019 484.99,-75.1937 486.064,-68.2765"/>
</g>
<!-- Node21&#45;&gt;Node8 -->
<g id="edge31" class="edge"><title>Node21&#45;&gt;Node8</title>
<path fill="none" stroke="midnightblue" d="M751.158,-179.475C736.882,-169.931 713.512,-154.307 696.401,-142.868"/>
<polygon fill="midnightblue" stroke="midnightblue" points="697.896,-139.657 687.637,-137.009 694.005,-145.477 697.896,-139.657"/>
</g>
<!-- Node21&#45;&gt;Node13 -->
<g id="edge30" class="edge"><title>Node21&#45;&gt;Node13</title>
<path fill="none" stroke="midnightblue" d="M766.359,-179.24C770.134,-163.665 775.337,-131.009 758.909,-112 736.224,-85.7509 635.551,-73.8851 582.26,-69.362"/>
<polygon fill="midnightblue" stroke="midnightblue" points="582.521,-65.8718 572.271,-68.5532 581.956,-72.849 582.521,-65.8718"/>
</g>
<!-- Node21&#45;&gt;Node20 -->
<g id="edge33" class="edge"><title>Node21&#45;&gt;Node20</title>
<path fill="none" stroke="midnightblue" d="M798.936,-185.648C833.293,-181.709 885.532,-171.174 920.909,-143 939.562,-128.145 951.198,-102.634 957.368,-85.3052"/>
<polygon fill="midnightblue" stroke="midnightblue" points="960.714,-86.3345 960.517,-75.7415 954.065,-84.1452 960.714,-86.3345"/>
</g>
<!-- Node22 -->
<g id="node22" class="node"><title>Node22</title>
<polygon fill="none" stroke="#bfbfbf" points="811.409,-112.5 811.409,-142.5 912.409,-142.5 912.409,-112.5 811.409,-112.5"/>
<text text-anchor="start" x="819.409" y="-130.5" font-family="Helvetica,sans-Serif" font-size="10.00">boost/property_tree</text>
<text text-anchor="middle" x="861.909" y="-119.5" font-family="Helvetica,sans-Serif" font-size="10.00">/ptree.hpp</text>
</g>
<!-- Node21&#45;&gt;Node22 -->
<g id="edge32" class="edge"><title>Node21&#45;&gt;Node22</title>
<path fill="none" stroke="midnightblue" d="M777.95,-179.475C791.471,-171.266 812.402,-158.558 829.982,-147.885"/>
<polygon fill="midnightblue" stroke="midnightblue" points="832.081,-150.705 838.813,-142.523 828.448,-144.721 832.081,-150.705"/>
</g>
<!-- Node24 -->
<g id="node24" class="node"><title>Node24</title>
<g id="a_node24"><a xlink:href="time_8hpp.html" target="_top" xlink:title="time.hpp">
<polygon fill="none" stroke="black" points="1027.91,-179.5 1027.91,-198.5 1081.91,-198.5 1081.91,-179.5 1027.91,-179.5"/>
<text text-anchor="middle" x="1054.91" y="-186.5" font-family="Helvetica,sans-Serif" font-size="10.00">time.hpp</text>
</a>
</g>
</g>
<!-- Node23&#45;&gt;Node24 -->
<g id="edge35" class="edge"><title>Node23&#45;&gt;Node24</title>
<path fill="none" stroke="midnightblue" d="M875.66,-235.444C914.4,-225.622 977.741,-209.564 1017.83,-199.401"/>
<polygon fill="midnightblue" stroke="midnightblue" points="1018.9,-202.739 1027.74,-196.889 1017.18,-195.953 1018.9,-202.739"/>
</g>
<!-- Node24&#45;&gt;Node14 -->
<g id="edge37" class="edge"><title>Node24&#45;&gt;Node14</title>
<path fill="none" stroke="midnightblue" d="M1054.91,-179.298C1054.91,-159.85 1054.91,-112.49 1054.91,-85.9036"/>
<polygon fill="midnightblue" stroke="midnightblue" points="1058.41,-85.6231 1054.91,-75.6232 1051.41,-85.6232 1058.41,-85.6231"/>
</g>
<!-- Node24&#45;&gt;Node18 -->
<g id="edge47" class="edge"><title>Node24&#45;&gt;Node18</title>
<path fill="none" stroke="midnightblue" d="M1042.54,-179.489C1019.55,-164.019 968.276,-131.128 920.909,-112 875.638,-93.7178 820.731,-81.0326 784.637,-73.8963"/>
<polygon fill="midnightblue" stroke="midnightblue" points="785.007,-70.4034 774.525,-71.9452 783.681,-77.2766 785.007,-70.4034"/>
</g>
<!-- Node24&#45;&gt;Node20 -->
<g id="edge46" class="edge"><title>Node24&#45;&gt;Node20</title>
<path fill="none" stroke="midnightblue" d="M1048.29,-179.298C1033.11,-159.327 995.544,-109.921 975.686,-83.8036"/>
<polygon fill="midnightblue" stroke="midnightblue" points="978.304,-81.4652 969.466,-75.6232 972.732,-85.7019 978.304,-81.4652"/>
</g>
<!-- Node25 -->
<g id="node25" class="node"><title>Node25</title>
<polygon fill="none" stroke="#bfbfbf" points="1178.91,-118 1178.91,-137 1224.91,-137 1224.91,-118 1178.91,-118"/>
<text text-anchor="middle" x="1201.91" y="-125" font-family="Helvetica,sans-Serif" font-size="10.00">chrono</text>
</g>
<!-- Node24&#45;&gt;Node25 -->
<g id="edge36" class="edge"><title>Node24&#45;&gt;Node25</title>
<path fill="none" stroke="midnightblue" d="M1077.29,-179.454C1100.35,-170.582 1137.29,-156.182 1168.91,-143 1170.32,-142.413 1171.76,-141.806 1173.21,-141.189"/>
<polygon fill="midnightblue" stroke="midnightblue" points="1174.98,-144.238 1182.77,-137.058 1172.2,-137.812 1174.98,-144.238"/>
</g>
<!-- Node26 -->
<g id="node26" class="node"><title>Node26</title>
<g id="a_node26"><a xlink:href="functional_8hpp.html" target="_top" xlink:title="functional.hpp">
<polygon fill="none" stroke="black" points="1083.41,-118 1083.41,-137 1160.41,-137 1160.41,-118 1083.41,-118"/>
<text text-anchor="middle" x="1121.91" y="-125" font-family="Helvetica,sans-Serif" font-size="10.00">functional.hpp</text>
</a>
</g>
</g>
<!-- Node24&#45;&gt;Node26 -->
<g id="edge38" class="edge"><title>Node24&#45;&gt;Node26</title>
<path fill="none" stroke="midnightblue" d="M1064.51,-179.475C1074.96,-170.197 1091.88,-155.171 1104.65,-143.831"/>
<polygon fill="midnightblue" stroke="midnightblue" points="1107.17,-146.266 1112.33,-137.009 1102.53,-141.032 1107.17,-146.266"/>
</g>
<!-- Node28 -->
<g id="node28" class="node"><title>Node28</title>
<g id="a_node28"><a xlink:href="concurrency_8hpp.html" target="_top" xlink:title="concurrency.hpp">
<polygon fill="none" stroke="black" points="1281.41,-118 1281.41,-137 1370.41,-137 1370.41,-118 1281.41,-118"/>
<text text-anchor="middle" x="1325.91" y="-125" font-family="Helvetica,sans-Serif" font-size="10.00">concurrency.hpp</text>
</a>
</g>
</g>
<!-- Node24&#45;&gt;Node28 -->
<g id="edge41" class="edge"><title>Node24&#45;&gt;Node28</title>
<path fill="none" stroke="midnightblue" d="M1082.13,-182.022C1127.72,-172.014 1220.08,-151.735 1277.11,-139.213"/>
<polygon fill="midnightblue" stroke="midnightblue" points="1277.97,-142.609 1286.99,-137.046 1276.47,-135.772 1277.97,-142.609"/>
</g>
<!-- Node26&#45;&gt;Node14 -->
<g id="edge39" class="edge"><title>Node26&#45;&gt;Node14</title>
<path fill="none" stroke="midnightblue" d="M1112.31,-117.975C1101.86,-108.697 1084.94,-93.6706 1072.17,-82.331"/>
<polygon fill="midnightblue" stroke="midnightblue" points="1074.29,-79.5323 1064.49,-75.5091 1069.64,-84.7663 1074.29,-79.5323"/>
</g>
<!-- Node27 -->
<g id="node27" class="node"><title>Node27</title>
<polygon fill="none" stroke="#bfbfbf" points="1102.91,-56.5 1102.91,-75.5 1142.91,-75.5 1142.91,-56.5 1102.91,-56.5"/>
<text text-anchor="middle" x="1122.91" y="-63.5" font-family="Helvetica,sans-Serif" font-size="10.00">utility</text>
</g>
<!-- Node26&#45;&gt;Node27 -->
<g id="edge40" class="edge"><title>Node26&#45;&gt;Node27</title>
<path fill="none" stroke="midnightblue" d="M1122.05,-117.975C1122.19,-109.58 1122.41,-96.4806 1122.6,-85.6631"/>
<polygon fill="midnightblue" stroke="midnightblue" points="1126.1,-85.5665 1122.77,-75.5091 1119.1,-85.4488 1126.1,-85.5665"/>
</g>
<!-- Node28&#45;&gt;Node5 -->
<g id="edge45" class="edge"><title>Node28&#45;&gt;Node5</title>
<path fill="none" stroke="midnightblue" d="M1315.45,-117.975C1303.96,-108.608 1285.28,-93.3839 1271.32,-82.0081"/>
<polygon fill="midnightblue" stroke="midnightblue" points="1273.31,-79.114 1263.35,-75.5091 1268.89,-84.54 1273.31,-79.114"/>
</g>
<!-- Node29 -->
<g id="node29" class="node"><title>Node29</title>
<polygon fill="none" stroke="#bfbfbf" points="1292.91,-56.5 1292.91,-75.5 1338.91,-75.5 1338.91,-56.5 1292.91,-56.5"/>
<text text-anchor="middle" x="1315.91" y="-63.5" font-family="Helvetica,sans-Serif" font-size="10.00">atomic</text>
</g>
<!-- Node28&#45;&gt;Node29 -->
<g id="edge42" class="edge"><title>Node28&#45;&gt;Node29</title>
<path fill="none" stroke="midnightblue" d="M1324.48,-117.975C1323.07,-109.58 1320.86,-96.4806 1319.05,-85.6631"/>
<polygon fill="midnightblue" stroke="midnightblue" points="1322.45,-84.7906 1317.34,-75.5091 1315.55,-85.9509 1322.45,-84.7906"/>
</g>
<!-- Node30 -->
<g id="node30" class="node"><title>Node30</title>
<polygon fill="none" stroke="#bfbfbf" points="1357.41,-56.5 1357.41,-75.5 1452.41,-75.5 1452.41,-56.5 1357.41,-56.5"/>
<text text-anchor="middle" x="1404.91" y="-63.5" font-family="Helvetica,sans-Serif" font-size="10.00">condition_variable</text>
</g>
<!-- Node28&#45;&gt;Node30 -->
<g id="edge43" class="edge"><title>Node28&#45;&gt;Node30</title>
<path fill="none" stroke="midnightblue" d="M1337.23,-117.975C1349.78,-108.52 1370.26,-93.0961 1385.41,-81.6871"/>
<polygon fill="midnightblue" stroke="midnightblue" points="1387.73,-84.321 1393.61,-75.5091 1383.52,-78.7295 1387.73,-84.321"/>
</g>
<!-- Node31 -->
<g id="node31" class="node"><title>Node31</title>
<polygon fill="none" stroke="#bfbfbf" points="1470.91,-56.5 1470.91,-75.5 1514.91,-75.5 1514.91,-56.5 1470.91,-56.5"/>
<text text-anchor="middle" x="1492.91" y="-63.5" font-family="Helvetica,sans-Serif" font-size="10.00">thread</text>
</g>
<!-- Node28&#45;&gt;Node31 -->
<g id="edge44" class="edge"><title>Node28&#45;&gt;Node31</title>
<path fill="none" stroke="midnightblue" d="M1349.84,-117.975C1379.18,-107.521 1429,-89.7698 1461.43,-78.2166"/>
<polygon fill="midnightblue" stroke="midnightblue" points="1462.65,-81.4983 1470.89,-74.845 1460.3,-74.9043 1462.65,-81.4983"/>
</g>
</g>
</svg>
