<?xml version="1.0" encoding="UTF-8" standalone="no"?>
<!DOCTYPE svg PUBLIC "-//W3C//DTD SVG 1.1//EN"
 "http://www.w3.org/Graphics/SVG/1.1/DTD/svg11.dtd">
<!-- Generated by graphviz version 2.38.0 (20140413.2041)
 -->
<!-- Title: src/string/logger.cpp Pages: 1 -->
<!--zoomable 274 -->
<svg id="main" version="1.1" xmlns="http://www.w3.org/2000/svg" xmlns:xlink="http://www.w3.org/1999/xlink" xml:space="preserve" onload="init(evt)">
<style type="text/css"><![CDATA[
.edge:hover path { stroke: red; }
.edge:hover polygon { stroke: red; fill: red; }
]]></style>
<script type="text/javascript"><![CDATA[
var edges = document.getElementsByTagName('g');
if (edges && edges.length) {
  for (var i=0;i<edges.length;i++) {
    if (edges[i].id.substr(0,4)=='edge') {
      edges[i].setAttribute('class','edge');
    }
  }
}
]]></script>
        <defs>
                <circle id="rim" cx="0" cy="0" r="7"/>
                <circle id="rim2" cx="0" cy="0" r="3.5"/>
                <g id="zoomPlus">
                        <use xlink:href="#rim" fill="#404040">
                                <set attributeName="fill" to="#808080" begin="zoomplus.mouseover" end="zoomplus.mouseout"/>
                        </use>
                        <path d="M-4,0h8M0,-4v8" fill="none" stroke="white" stroke-width="1.5" pointer-events="none"/>
                </g>
                <g id="zoomMin">
                        <use xlink:href="#rim" fill="#404040">
                                <set attributeName="fill" to="#808080" begin="zoomminus.mouseover" end="zoomminus.mouseout"/>
                        </use>
                        <path d="M-4,0h8" fill="none" stroke="white" stroke-width="1.5" pointer-events="none"/>
                </g>
                <g id="dirArrow">
                        <path fill="none" stroke="white" stroke-width="1.5" d="M0,-3.0v7 M-2.5,-0.5L0,-3.0L2.5,-0.5"/>
                </g>
               <g id="resetDef">
                       <use xlink:href="#rim2" fill="#404040">
                               <set attributeName="fill" to="#808080" begin="reset.mouseover" end="reset.mouseout"/>
                       </use>
               </g>
        </defs>

<script type="text/javascript">
var viewWidth = 1160;
var viewHeight = 274;
var sectionId = 'dynsection-0';
</script>
<script xlink:href="svgpan.js"/>
<svg id="graph" class="graph">
<g id="viewport">
<title>src/string/logger.cpp</title>
<!-- Node1 -->
<g id="node1" class="node"><title>Node1</title>
<polygon fill="#bfbfbf" stroke="black" points="232.5,-246.5 232.5,-265.5 337.5,-265.5 337.5,-246.5 232.5,-246.5"/>
<text text-anchor="middle" x="285" y="-253.5" font-family="Helvetica,sans-Serif" font-size="10.00">src/string/logger.cpp</text>
</g>
<!-- Node2 -->
<g id="node2" class="node"><title>Node2</title>
<g id="a_node2"><a xlink:href="logger_8hpp.html" target="_top" xlink:title="logger.hpp">
<polygon fill="none" stroke="black" points="254,-190.5 254,-209.5 316,-209.5 316,-190.5 254,-190.5"/>
<text text-anchor="middle" x="285" y="-197.5" font-family="Helvetica,sans-Serif" font-size="10.00">logger.hpp</text>
</a>
</g>
</g>
<!-- Node1&#45;&gt;Node2 -->
<g id="edge1" class="edge"><title>Node1&#45;&gt;Node2</title>
<path fill="none" stroke="midnightblue" d="M285,-246.083C285,-239.006 285,-228.861 285,-219.986"/>
<polygon fill="midnightblue" stroke="midnightblue" points="288.5,-219.751 285,-209.751 281.5,-219.751 288.5,-219.751"/>
</g>
<!-- Node3 -->
<g id="node3" class="node"><title>Node3</title>
<polygon fill="none" stroke="#bfbfbf" points="0,-129 0,-148 50,-148 50,-129 0,-129"/>
<text text-anchor="middle" x="25" y="-136" font-family="Helvetica,sans-Serif" font-size="10.00">iomanip</text>
</g>
<!-- Node2&#45;&gt;Node3 -->
<g id="edge2" class="edge"><title>Node2&#45;&gt;Node3</title>
<path fill="none" stroke="midnightblue" d="M253.889,-194.23C210.774,-187.268 130.636,-173.047 64,-154 61.3564,-153.244 58.6367,-152.393 55.9221,-151.491"/>
<polygon fill="midnightblue" stroke="midnightblue" points="56.8525,-148.108 46.2577,-148.083 54.5244,-154.709 56.8525,-148.108"/>
</g>
<!-- Node4 -->
<g id="node4" class="node"><title>Node4</title>
<polygon fill="none" stroke="#bfbfbf" points="59,-62 59,-81 113,-81 113,-62 59,-62"/>
<text text-anchor="middle" x="86" y="-69" font-family="Helvetica,sans-Serif" font-size="10.00">iostream</text>
</g>
<!-- Node2&#45;&gt;Node4 -->
<g id="edge3" class="edge"><title>Node2&#45;&gt;Node4</title>
<path fill="none" stroke="midnightblue" d="M253.665,-195.759C205.768,-190.131 117.705,-176.905 97,-154 81.7766,-137.16 81.2202,-109.799 82.9842,-91.4824"/>
<polygon fill="midnightblue" stroke="midnightblue" points="86.4739,-91.7849 84.2719,-81.4214 79.5306,-90.8961 86.4739,-91.7849"/>
</g>
<!-- Node5 -->
<g id="node5" class="node"><title>Node5</title>
<polygon fill="none" stroke="#bfbfbf" points="106,-129 106,-148 150,-148 150,-129 106,-129"/>
<text text-anchor="middle" x="128" y="-136" font-family="Helvetica,sans-Serif" font-size="10.00">mutex</text>
</g>
<!-- Node2&#45;&gt;Node5 -->
<g id="edge4" class="edge"><title>Node2&#45;&gt;Node5</title>
<path fill="none" stroke="midnightblue" d="M258.665,-190.404C232.982,-181.831 192.941,-167.962 159,-154 157.626,-153.435 156.225,-152.842 154.815,-152.232"/>
<polygon fill="midnightblue" stroke="midnightblue" points="156.132,-148.986 145.577,-148.073 153.259,-155.369 156.132,-148.986"/>
</g>
<!-- Node6 -->
<g id="node6" class="node"><title>Node6</title>
<polygon fill="none" stroke="#bfbfbf" points="346.5,-62 346.5,-81 405.5,-81 405.5,-62 346.5,-62"/>
<text text-anchor="middle" x="376" y="-69" font-family="Helvetica,sans-Serif" font-size="10.00">stdexcept</text>
</g>
<!-- Node2&#45;&gt;Node6 -->
<g id="edge5" class="edge"><title>Node2&#45;&gt;Node6</title>
<path fill="none" stroke="midnightblue" d="M288.129,-190.482C293.748,-175.835 306.513,-145.301 323,-123 332.753,-109.807 346.148,-97.0776 357.03,-87.6997"/>
<polygon fill="midnightblue" stroke="midnightblue" points="359.339,-90.3316 364.761,-81.2293 354.846,-84.9637 359.339,-90.3316"/>
</g>
<!-- Node7 -->
<g id="node7" class="node"><title>Node7</title>
<polygon fill="none" stroke="#bfbfbf" points="525.5,-0.5 525.5,-19.5 566.5,-19.5 566.5,-0.5 525.5,-0.5"/>
<text text-anchor="middle" x="546" y="-7.5" font-family="Helvetica,sans-Serif" font-size="10.00">string</text>
</g>
<!-- Node2&#45;&gt;Node7 -->
<g id="edge6" class="edge"><title>Node2&#45;&gt;Node7</title>
<path fill="none" stroke="midnightblue" d="M280.712,-190.322C269.316,-165.881 241.368,-95.6776 275,-56 305.464,-20.0606 450.317,-12.7918 514.853,-11.3459"/>
<polygon fill="midnightblue" stroke="midnightblue" points="515.278,-14.8386 525.209,-11.149 515.145,-7.83983 515.278,-14.8386"/>
</g>
<!-- Node8 -->
<g id="node8" class="node"><title>Node8</title>
<polygon fill="none" stroke="#bfbfbf" points="872.5,-62 872.5,-81 955.5,-81 955.5,-62 872.5,-62"/>
<text text-anchor="middle" x="914" y="-69" font-family="Helvetica,sans-Serif" font-size="10.00">unordered_map</text>
</g>
<!-- Node2&#45;&gt;Node8 -->
<g id="edge7" class="edge"><title>Node2&#45;&gt;Node8</title>
<path fill="none" stroke="midnightblue" d="M316.371,-196.274C376.226,-190.751 510.684,-176.791 622,-154 730.914,-131.7 755.976,-117.091 863,-87 866.625,-85.9808 870.394,-84.9171 874.167,-83.8492"/>
<polygon fill="midnightblue" stroke="midnightblue" points="875.408,-87.1354 884.074,-81.0399 873.499,-80.4009 875.408,-87.1354"/>
</g>
<!-- Node9 -->
<g id="node9" class="node"><title>Node9</title>
<polygon fill="none" stroke="#bfbfbf" points="332.5,-123.5 332.5,-153.5 437.5,-153.5 437.5,-123.5 332.5,-123.5"/>
<text text-anchor="start" x="340.5" y="-141.5" font-family="Helvetica,sans-Serif" font-size="10.00">boost/chrono/io/time</text>
<text text-anchor="middle" x="385" y="-130.5" font-family="Helvetica,sans-Serif" font-size="10.00">_point_io.hpp</text>
</g>
<!-- Node2&#45;&gt;Node9 -->
<g id="edge8" class="edge"><title>Node2&#45;&gt;Node9</title>
<path fill="none" stroke="midnightblue" d="M299.328,-190.475C313.124,-182.266 334.482,-169.558 352.421,-158.885"/>
<polygon fill="midnightblue" stroke="midnightblue" points="354.628,-161.644 361.432,-153.523 351.048,-155.629 354.628,-161.644"/>
</g>
<!-- Node10 -->
<g id="node10" class="node"><title>Node10</title>
<g id="a_node10"><a xlink:href="multibuf_8hpp.html" target="_top" xlink:title="multibuf.hpp">
<polygon fill="none" stroke="black" points="168,-129 168,-148 238,-148 238,-129 168,-129"/>
<text text-anchor="middle" x="203" y="-136" font-family="Helvetica,sans-Serif" font-size="10.00">multibuf.hpp</text>
</a>
</g>
</g>
<!-- Node2&#45;&gt;Node10 -->
<g id="edge9" class="edge"><title>Node2&#45;&gt;Node10</title>
<path fill="none" stroke="midnightblue" d="M273.251,-190.475C260.221,-181.02 238.964,-165.596 223.241,-154.187"/>
<polygon fill="midnightblue" stroke="midnightblue" points="224.876,-151.049 214.727,-148.009 220.765,-156.715 224.876,-151.049"/>
</g>
<!-- Node13 -->
<g id="node13" class="node"><title>Node13</title>
<g id="a_node13"><a xlink:href="string_8hpp.html" target="_top" xlink:title="string.hpp">
<polygon fill="none" stroke="black" points="554.5,-129 554.5,-148 613.5,-148 613.5,-129 554.5,-129"/>
<text text-anchor="middle" x="584" y="-136" font-family="Helvetica,sans-Serif" font-size="10.00">string.hpp</text>
</a>
</g>
</g>
<!-- Node2&#45;&gt;Node13 -->
<g id="edge14" class="edge"><title>Node2&#45;&gt;Node13</title>
<path fill="none" stroke="midnightblue" d="M316.152,-192.801C370.871,-181.912 484.142,-159.371 544.355,-147.389"/>
<polygon fill="midnightblue" stroke="midnightblue" points="545.126,-150.804 554.251,-145.42 543.76,-143.939 545.126,-150.804"/>
</g>
<!-- Node22 -->
<g id="node22" class="node"><title>Node22</title>
<g id="a_node22"><a xlink:href="settings_8hpp.html" target="_top" xlink:title="settings.hpp">
<polygon fill="none" stroke="black" points="949,-129 949,-148 1019,-148 1019,-129 949,-129"/>
<text text-anchor="middle" x="984" y="-136" font-family="Helvetica,sans-Serif" font-size="10.00">settings.hpp</text>
</a>
</g>
</g>
<!-- Node2&#45;&gt;Node22 -->
<g id="edge29" class="edge"><title>Node2&#45;&gt;Node22</title>
<path fill="none" stroke="midnightblue" d="M316.393,-196.328C428.128,-186.817 806.827,-154.581 938.461,-143.376"/>
<polygon fill="midnightblue" stroke="midnightblue" points="938.935,-146.849 948.602,-142.513 938.341,-139.874 938.935,-146.849"/>
</g>
<!-- Node10&#45;&gt;Node4 -->
<g id="edge10" class="edge"><title>Node10&#45;&gt;Node4</title>
<path fill="none" stroke="midnightblue" d="M187.221,-128.734C167.485,-117.769 133.486,-98.8809 110.389,-86.0495"/>
<polygon fill="midnightblue" stroke="midnightblue" points="111.97,-82.9242 101.529,-81.1273 108.571,-89.0433 111.97,-82.9242"/>
</g>
<!-- Node10&#45;&gt;Node7 -->
<g id="edge13" class="edge"><title>Node10&#45;&gt;Node7</title>
<path fill="none" stroke="midnightblue" d="M194.023,-128.893C178.354,-112.85 149.458,-78.0133 169,-56 191.897,-30.2069 429.35,-16.5102 515.224,-12.3712"/>
<polygon fill="midnightblue" stroke="midnightblue" points="515.558,-15.8595 525.382,-11.8924 515.228,-8.86721 515.558,-15.8595"/>
</g>
<!-- Node11 -->
<g id="node11" class="node"><title>Node11</title>
<polygon fill="none" stroke="#bfbfbf" points="178,-62 178,-81 228,-81 228,-62 178,-62"/>
<text text-anchor="middle" x="203" y="-69" font-family="Helvetica,sans-Serif" font-size="10.00">fstream</text>
</g>
<!-- Node10&#45;&gt;Node11 -->
<g id="edge11" class="edge"><title>Node10&#45;&gt;Node11</title>
<path fill="none" stroke="midnightblue" d="M203,-128.734C203,-119.183 203,-103.618 203,-91.2829"/>
<polygon fill="midnightblue" stroke="midnightblue" points="206.5,-91.1273 203,-81.1273 199.5,-91.1273 206.5,-91.1273"/>
</g>
<!-- Node12 -->
<g id="node12" class="node"><title>Node12</title>
<polygon fill="none" stroke="#bfbfbf" points="284,-62 284,-81 328,-81 328,-62 284,-62"/>
<text text-anchor="middle" x="306" y="-69" font-family="Helvetica,sans-Serif" font-size="10.00">vector</text>
</g>
<!-- Node10&#45;&gt;Node12 -->
<g id="edge12" class="edge"><title>Node10&#45;&gt;Node12</title>
<path fill="none" stroke="midnightblue" d="M216.891,-128.734C234.034,-117.916 263.4,-99.3832 283.711,-86.5659"/>
<polygon fill="midnightblue" stroke="midnightblue" points="285.74,-89.4241 292.329,-81.1273 282.004,-83.5043 285.74,-89.4241"/>
</g>
<!-- Node13&#45;&gt;Node6 -->
<g id="edge18" class="edge"><title>Node13&#45;&gt;Node6</title>
<path fill="none" stroke="midnightblue" d="M554.202,-129.236C520.293,-119.683 463.347,-103.192 415,-87 412.603,-86.1971 410.132,-85.3427 407.652,-84.4659"/>
<polygon fill="midnightblue" stroke="midnightblue" points="408.779,-81.1514 398.184,-81.0347 406.394,-87.7325 408.779,-81.1514"/>
</g>
<!-- Node13&#45;&gt;Node7 -->
<g id="edge19" class="edge"><title>Node13&#45;&gt;Node7</title>
<path fill="none" stroke="midnightblue" d="M582.478,-128.802C579.732,-113.753 573.444,-81.9762 565,-56 562.051,-46.9269 558.024,-37.1379 554.437,-29.0143"/>
<polygon fill="midnightblue" stroke="midnightblue" points="557.569,-27.4471 550.242,-19.7944 551.198,-30.3461 557.569,-27.4471"/>
</g>
<!-- Node13&#45;&gt;Node8 -->
<g id="edge22" class="edge"><title>Node13&#45;&gt;Node8</title>
<path fill="none" stroke="midnightblue" d="M613.517,-133.132C664.643,-125.349 772.853,-107.92 863,-87 867.186,-86.0285 871.542,-84.929 875.866,-83.7806"/>
<polygon fill="midnightblue" stroke="midnightblue" points="877.088,-87.0746 885.803,-81.0494 875.233,-80.3249 877.088,-87.0746"/>
</g>
<!-- Node13&#45;&gt;Node12 -->
<g id="edge23" class="edge"><title>Node13&#45;&gt;Node12</title>
<path fill="none" stroke="midnightblue" d="M554.136,-133.715C507.096,-127.239 413.249,-112.234 337,-87 335.332,-86.4482 333.637,-85.8304 331.941,-85.1693"/>
<polygon fill="midnightblue" stroke="midnightblue" points="333.006,-81.8166 322.438,-81.0665 330.231,-88.2434 333.006,-81.8166"/>
</g>
<!-- Node14 -->
<g id="node14" class="node"><title>Node14</title>
<polygon fill="none" stroke="#bfbfbf" points="713,-0.5 713,-19.5 759,-19.5 759,-0.5 713,-0.5"/>
<text text-anchor="middle" x="736" y="-7.5" font-family="Helvetica,sans-Serif" font-size="10.00">cstdint</text>
</g>
<!-- Node13&#45;&gt;Node14 -->
<g id="edge15" class="edge"><title>Node13&#45;&gt;Node14</title>
<path fill="none" stroke="midnightblue" d="M605.485,-128.896C625.398,-120.247 655.154,-105.553 677,-87 697.009,-70.0073 714.686,-45.2363 725.354,-28.6411"/>
<polygon fill="midnightblue" stroke="midnightblue" points="728.462,-30.2715 730.789,-19.9354 722.524,-26.5641 728.462,-30.2715"/>
</g>
<!-- Node15 -->
<g id="node15" class="node"><title>Node15</title>
<polygon fill="none" stroke="#bfbfbf" points="724.5,-62 724.5,-81 783.5,-81 783.5,-62 724.5,-62"/>
<text text-anchor="middle" x="754" y="-69" font-family="Helvetica,sans-Serif" font-size="10.00">functional</text>
</g>
<!-- Node13&#45;&gt;Node15 -->
<g id="edge16" class="edge"><title>Node13&#45;&gt;Node15</title>
<path fill="none" stroke="midnightblue" d="M606.575,-128.869C636.25,-117.522 688.551,-97.5246 722.217,-84.6522"/>
<polygon fill="midnightblue" stroke="midnightblue" points="723.512,-87.9043 731.603,-81.0637 721.012,-81.3659 723.512,-87.9043"/>
</g>
<!-- Node16 -->
<g id="node16" class="node"><title>Node16</title>
<polygon fill="none" stroke="#bfbfbf" points="802,-62 802,-81 854,-81 854,-62 802,-62"/>
<text text-anchor="middle" x="828" y="-69" font-family="Helvetica,sans-Serif" font-size="10.00">memory</text>
</g>
<!-- Node13&#45;&gt;Node16 -->
<g id="edge17" class="edge"><title>Node13&#45;&gt;Node16</title>
<path fill="none" stroke="midnightblue" d="M613.651,-131.713C654.34,-123.453 729.549,-107.042 792,-87 794.137,-86.3141 796.328,-85.5612 798.522,-84.7703"/>
<polygon fill="midnightblue" stroke="midnightblue" points="799.911,-87.9862 808.006,-81.1501 797.415,-81.4465 799.911,-87.9862"/>
</g>
<!-- Node17 -->
<g id="node17" class="node"><title>Node17</title>
<polygon fill="none" stroke="#bfbfbf" points="424,-62 424,-81 476,-81 476,-62 424,-62"/>
<text text-anchor="middle" x="450" y="-69" font-family="Helvetica,sans-Serif" font-size="10.00">sstream</text>
</g>
<!-- Node13&#45;&gt;Node17 -->
<g id="edge20" class="edge"><title>Node13&#45;&gt;Node17</title>
<path fill="none" stroke="midnightblue" d="M566.206,-128.869C543.38,-117.796 503.572,-98.4862 477.002,-85.5978"/>
<polygon fill="midnightblue" stroke="midnightblue" points="478.393,-82.3826 467.868,-81.1672 475.338,-88.6807 478.393,-82.3826"/>
</g>
<!-- Node18 -->
<g id="node18" class="node"><title>Node18</title>
<polygon fill="none" stroke="#bfbfbf" points="494,-62 494,-81 556,-81 556,-62 494,-62"/>
<text text-anchor="middle" x="525" y="-69" font-family="Helvetica,sans-Serif" font-size="10.00">type_traits</text>
</g>
<!-- Node13&#45;&gt;Node18 -->
<g id="edge21" class="edge"><title>Node13&#45;&gt;Node18</title>
<path fill="none" stroke="midnightblue" d="M576.043,-128.734C566.754,-118.5 551.2,-101.364 539.698,-88.6924"/>
<polygon fill="midnightblue" stroke="midnightblue" points="542.144,-86.1795 532.831,-81.1273 536.96,-90.8843 542.144,-86.1795"/>
</g>
<!-- Node19 -->
<g id="node19" class="node"><title>Node19</title>
<g id="a_node19"><a xlink:href="color_8hpp.html" target="_top" xlink:title="color.hpp">
<polygon fill="none" stroke="black" points="612,-62 612,-81 668,-81 668,-62 612,-62"/>
<text text-anchor="middle" x="640" y="-69" font-family="Helvetica,sans-Serif" font-size="10.00">color.hpp</text>
</a>
</g>
</g>
<!-- Node13&#45;&gt;Node19 -->
<g id="edge24" class="edge"><title>Node13&#45;&gt;Node19</title>
<path fill="none" stroke="midnightblue" d="M591.552,-128.734C600.285,-118.598 614.852,-101.69 625.737,-89.0556"/>
<polygon fill="midnightblue" stroke="midnightblue" points="628.692,-90.9879 632.567,-81.1273 623.388,-86.4189 628.692,-90.9879"/>
</g>
<!-- Node19&#45;&gt;Node7 -->
<g id="edge28" class="edge"><title>Node19&#45;&gt;Node7</title>
<path fill="none" stroke="midnightblue" d="M626.532,-61.9751C611.315,-52.3431 586.313,-36.5175 568.199,-25.0517"/>
<polygon fill="midnightblue" stroke="midnightblue" points="569.764,-21.9002 559.443,-19.5091 566.021,-27.8149 569.764,-21.9002"/>
</g>
<!-- Node19&#45;&gt;Node14 -->
<g id="edge26" class="edge"><title>Node19&#45;&gt;Node14</title>
<path fill="none" stroke="midnightblue" d="M653.754,-61.9751C669.366,-52.2989 695.063,-36.3721 713.583,-24.8941"/>
<polygon fill="midnightblue" stroke="midnightblue" points="715.615,-27.7522 722.271,-19.5091 711.927,-21.8023 715.615,-27.7522"/>
</g>
<!-- Node20 -->
<g id="node20" class="node"><title>Node20</title>
<polygon fill="none" stroke="#bfbfbf" points="585,-0.5 585,-19.5 631,-19.5 631,-0.5 585,-0.5"/>
<text text-anchor="middle" x="608" y="-7.5" font-family="Helvetica,sans-Serif" font-size="10.00">cctype</text>
</g>
<!-- Node19&#45;&gt;Node20 -->
<g id="edge25" class="edge"><title>Node19&#45;&gt;Node20</title>
<path fill="none" stroke="midnightblue" d="M635.415,-61.9751C630.758,-53.3152 623.408,-39.6486 617.49,-28.6453"/>
<polygon fill="midnightblue" stroke="midnightblue" points="620.395,-26.6584 612.576,-19.5091 614.23,-29.974 620.395,-26.6584"/>
</g>
<!-- Node21 -->
<g id="node21" class="node"><title>Node21</title>
<polygon fill="none" stroke="#bfbfbf" points="649.5,-0.5 649.5,-19.5 694.5,-19.5 694.5,-0.5 649.5,-0.5"/>
<text text-anchor="middle" x="672" y="-7.5" font-family="Helvetica,sans-Serif" font-size="10.00">cstdlib</text>
</g>
<!-- Node19&#45;&gt;Node21 -->
<g id="edge27" class="edge"><title>Node19&#45;&gt;Node21</title>
<path fill="none" stroke="midnightblue" d="M644.585,-61.9751C649.242,-53.3152 656.592,-39.6486 662.51,-28.6453"/>
<polygon fill="midnightblue" stroke="midnightblue" points="665.77,-29.974 667.424,-19.5091 659.605,-26.6584 665.77,-29.974"/>
</g>
<!-- Node22&#45;&gt;Node7 -->
<g id="edge30" class="edge"><title>Node22&#45;&gt;Node7</title>
<path fill="none" stroke="midnightblue" d="M984.8,-128.982C985.86,-112.126 985.52,-74.5472 964,-56 900.585,-1.3454 676.577,-34.1653 576.394,-19.4348"/>
<polygon fill="midnightblue" stroke="midnightblue" points="576.97,-15.9825 566.522,-17.7434 575.787,-22.8819 576.97,-15.9825"/>
</g>
<!-- Node22&#45;&gt;Node8 -->
<g id="edge32" class="edge"><title>Node22&#45;&gt;Node8</title>
<path fill="none" stroke="midnightblue" d="M974.559,-128.734C963.329,-118.305 944.379,-100.709 930.663,-87.9732"/>
<polygon fill="midnightblue" stroke="midnightblue" points="933,-85.3671 923.291,-81.1273 928.237,-90.4966 933,-85.3671"/>
</g>
<!-- Node22&#45;&gt;Node14 -->
<g id="edge31" class="edge"><title>Node22&#45;&gt;Node14</title>
<path fill="none" stroke="midnightblue" d="M989.518,-128.717C999.007,-112.382 1015.76,-77.0763 998,-56 969.179,-21.8072 833.858,-13.5951 769.791,-11.6231"/>
<polygon fill="midnightblue" stroke="midnightblue" points="769.514,-8.11426 759.422,-11.3396 769.322,-15.1116 769.514,-8.11426"/>
</g>
<!-- Node23 -->
<g id="node23" class="node"><title>Node23</title>
<polygon fill="none" stroke="#bfbfbf" points="1050.5,-56.5 1050.5,-86.5 1151.5,-86.5 1151.5,-56.5 1050.5,-56.5"/>
<text text-anchor="start" x="1058.5" y="-74.5" font-family="Helvetica,sans-Serif" font-size="10.00">boost/property_tree</text>
<text text-anchor="middle" x="1101" y="-63.5" font-family="Helvetica,sans-Serif" font-size="10.00">/ptree.hpp</text>
</g>
<!-- Node22&#45;&gt;Node23 -->
<g id="edge33" class="edge"><title>Node22&#45;&gt;Node23</title>
<path fill="none" stroke="midnightblue" d="M999.779,-128.734C1016.88,-119.231 1044.7,-103.777 1066.85,-91.4719"/>
<polygon fill="midnightblue" stroke="midnightblue" points="1068.6,-94.5051 1075.64,-86.589 1065.2,-88.3859 1068.6,-94.5051"/>
</g>
</g>
</svg>
        <g id="navigator" transform="translate(0 0)" fill="#404254">
                <rect fill="#f2f5e9" fill-opacity="0.5" stroke="#606060" stroke-width=".5" x="0" y="0" width="60" height="60"/>
                <use id="zoomplus" xlink:href="#zoomPlus" x="17" y="9" onmousedown="handleZoom(evt,'in')"/>
                <use id="zoomminus" xlink:href="#zoomMin" x="42" y="9" onmousedown="handleZoom(evt,'out')"/>
                <use id="reset" xlink:href="#resetDef" x="30" y="36" onmousedown="handleReset()"/>
                <g id="arrowUp" xlink:href="#dirArrow" transform="translate(30 24)" onmousedown="handlePan(0,-1)">
                  <use xlink:href="#rim" fill="#404040">
                        <set attributeName="fill" to="#808080" begin="arrowUp.mouseover" end="arrowUp.mouseout"/>
                  </use>
                  <path fill="none" stroke="white" stroke-width="1.5" d="M0,-3.0v7 M-2.5,-0.5L0,-3.0L2.5,-0.5"/>
                </g>
                <g id="arrowRight" xlink:href="#dirArrow" transform="rotate(90) translate(36 -43)" onmousedown="handlePan(1,0)">
                  <use xlink:href="#rim" fill="#404040">
                        <set attributeName="fill" to="#808080" begin="arrowRight.mouseover" end="arrowRight.mouseout"/>
                  </use>
                  <path fill="none" stroke="white" stroke-width="1.5" d="M0,-3.0v7 M-2.5,-0.5L0,-3.0L2.5,-0.5"/>
                </g>
                <g id="arrowDown" xlink:href="#dirArrow" transform="rotate(180) translate(-30 -48)" onmousedown="handlePan(0,1)">
                  <use xlink:href="#rim" fill="#404040">
                        <set attributeName="fill" to="#808080" begin="arrowDown.mouseover" end="arrowDown.mouseout"/>
                  </use>
                  <path fill="none" stroke="white" stroke-width="1.5" d="M0,-3.0v7 M-2.5,-0.5L0,-3.0L2.5,-0.5"/>
                </g>
                <g id="arrowLeft" xlink:href="#dirArrow" transform="rotate(270) translate(-36 17)" onmousedown="handlePan(-1,0)">
                  <use xlink:href="#rim" fill="#404040">
                        <set attributeName="fill" to="#808080" begin="arrowLeft.mouseover" end="arrowLeft.mouseout"/>
                  </use>
                  <path fill="none" stroke="white" stroke-width="1.5" d="M0,-3.0v7 M-2.5,-0.5L0,-3.0L2.5,-0.5"/>
                </g>
        </g>
        <svg viewBox="0 0 15 15" width="100%" height="30px" preserveAspectRatio="xMaxYMin meet">
         <g id="arrow_out" transform="scale(0.3 0.3)">
          <a xlink:href="logger_8cpp__incl_org.svg" target="_base">
           <rect id="button" ry="5" rx="5" y="6" x="6" height="38" width="38"
                fill="#f2f5e9" fill-opacity="0.5" stroke="#606060" stroke-width="1.0"/>
           <path id="arrow"
             d="M 11.500037,31.436501 C 11.940474,20.09759 22.043105,11.32322 32.158766,21.979434 L 37.068811,17.246167 C 37.068811,17.246167 37.088388,32 37.088388,32 L 22.160133,31.978069 C 22.160133,31.978069 26.997745,27.140456 26.997745,27.140456 C 18.528582,18.264221 13.291696,25.230495 11.500037,31.436501 z"
             style="fill:#404040;"/>
          </a>
         </g>
        </svg>
</svg>
