<?xml version="1.0" encoding="UTF-8" standalone="no"?>
<!DOCTYPE svg PUBLIC "-//W3C//DTD SVG 1.1//EN"
 "http://www.w3.org/Graphics/SVG/1.1/DTD/svg11.dtd">
<!-- Generated by graphviz version 2.38.0 (20140413.2041)
 -->
<!-- Title: src/string/logger.hpp Pages: 1 -->
<svg width="1044pt" height="218pt"
 viewBox="0.00 0.00 1043.67 218.00" xmlns="http://www.w3.org/2000/svg" xmlns:xlink="http://www.w3.org/1999/xlink">
<g id="graph0" class="graph" transform="scale(1 1) rotate(0) translate(4 214)">
<title>src/string/logger.hpp</title>
<!-- Node1 -->
<g id="node1" class="node"><title>Node1</title>
<polygon fill="#bfbfbf" stroke="black" points="232.5,-190.5 232.5,-209.5 337.5,-209.5 337.5,-190.5 232.5,-190.5"/>
<text text-anchor="middle" x="285" y="-197.5" font-family="Helvetica,sans-Serif" font-size="10.00">src/string/logger.hpp</text>
</g>
<!-- Node2 -->
<g id="node2" class="node"><title>Node2</title>
<polygon fill="none" stroke="#bfbfbf" points="0,-129 0,-148 50,-148 50,-129 0,-129"/>
<text text-anchor="middle" x="25" y="-136" font-family="Helvetica,sans-Serif" font-size="10.00">iomanip</text>
</g>
<!-- Node1&#45;&gt;Node2 -->
<g id="edge1" class="edge"><title>Node1&#45;&gt;Node2</title>
<path fill="none" stroke="midnightblue" d="M232.204,-190.623C187.081,-182.901 120.66,-170.196 64,-154 61.3564,-153.244 58.6367,-152.393 55.9221,-151.491"/>
<polygon fill="midnightblue" stroke="midnightblue" points="56.8525,-148.108 46.2577,-148.083 54.5244,-154.709 56.8525,-148.108"/>
</g>
<!-- Node3 -->
<g id="node3" class="node"><title>Node3</title>
<polygon fill="none" stroke="#bfbfbf" points="52,-62 52,-81 106,-81 106,-62 52,-62"/>
<text text-anchor="middle" x="79" y="-69" font-family="Helvetica,sans-Serif" font-size="10.00">iostream</text>
</g>
<!-- Node1&#45;&gt;Node3 -->
<g id="edge2" class="edge"><title>Node1&#45;&gt;Node3</title>
<path fill="none" stroke="midnightblue" d="M232.074,-192.645C183.266,-185.701 115.641,-172.971 97,-154 80.7682,-137.48 77.7882,-109.821 77.84,-91.3699"/>
<polygon fill="midnightblue" stroke="midnightblue" points="81.342,-91.3635 78.1726,-81.2538 74.3458,-91.1333 81.342,-91.3635"/>
</g>
<!-- Node4 -->
<g id="node4" class="node"><title>Node4</title>
<polygon fill="none" stroke="#bfbfbf" points="106,-129 106,-148 150,-148 150,-129 106,-129"/>
<text text-anchor="middle" x="128" y="-136" font-family="Helvetica,sans-Serif" font-size="10.00">mutex</text>
</g>
<!-- Node1&#45;&gt;Node4 -->
<g id="edge3" class="edge"><title>Node1&#45;&gt;Node4</title>
<path fill="none" stroke="midnightblue" d="M258.665,-190.404C232.982,-181.831 192.941,-167.962 159,-154 157.626,-153.435 156.225,-152.842 154.815,-152.232"/>
<polygon fill="midnightblue" stroke="midnightblue" points="156.132,-148.986 145.577,-148.073 153.259,-155.369 156.132,-148.986"/>
</g>
<!-- Node5 -->
<g id="node5" class="node"><title>Node5</title>
<polygon fill="none" stroke="#bfbfbf" points="331.5,-62 331.5,-81 390.5,-81 390.5,-62 331.5,-62"/>
<text text-anchor="middle" x="361" y="-69" font-family="Helvetica,sans-Serif" font-size="10.00">stdexcept</text>
</g>
<!-- Node1&#45;&gt;Node5 -->
<g id="edge4" class="edge"><title>Node1&#45;&gt;Node5</title>
<path fill="none" stroke="midnightblue" d="M288.73,-190.293C295.041,-175.878 308.556,-146.329 323,-123 330.341,-111.143 339.759,-98.6126 347.382,-88.9994"/>
<polygon fill="midnightblue" stroke="midnightblue" points="350.207,-91.0726 353.767,-81.0941 344.761,-86.6741 350.207,-91.0726"/>
</g>
<!-- Node6 -->
<g id="node6" class="node"><title>Node6</title>
<polygon fill="none" stroke="#bfbfbf" points="398.5,-0.5 398.5,-19.5 439.5,-19.5 439.5,-0.5 398.5,-0.5"/>
<text text-anchor="middle" x="419" y="-7.5" font-family="Helvetica,sans-Serif" font-size="10.00">string</text>
</g>
<!-- Node1&#45;&gt;Node6 -->
<g id="edge5" class="edge"><title>Node1&#45;&gt;Node6</title>
<path fill="none" stroke="midnightblue" d="M279.358,-190.213C264.646,-166.082 228.379,-97.8117 260,-56 275.474,-35.5387 346.928,-21.7038 388.594,-15.2231"/>
<polygon fill="midnightblue" stroke="midnightblue" points="389.124,-18.6827 398.493,-13.7343 388.083,-11.7606 389.124,-18.6827"/>
</g>
<!-- Node7 -->
<g id="node7" class="node"><title>Node7</title>
<polygon fill="none" stroke="#bfbfbf" points="815.5,-62 815.5,-81 898.5,-81 898.5,-62 815.5,-62"/>
<text text-anchor="middle" x="857" y="-69" font-family="Helvetica,sans-Serif" font-size="10.00">unordered_map</text>
</g>
<!-- Node1&#45;&gt;Node7 -->
<g id="edge6" class="edge"><title>Node1&#45;&gt;Node7</title>
<path fill="none" stroke="midnightblue" d="M337.5,-191.869C392.311,-184.055 480.625,-170.42 556,-154 651.812,-133.129 762.722,-100.993 819.404,-83.9811"/>
<polygon fill="midnightblue" stroke="midnightblue" points="820.447,-87.3223 829.012,-81.086 818.427,-80.6199 820.447,-87.3223"/>
</g>
<!-- Node8 -->
<g id="node8" class="node"><title>Node8</title>
<polygon fill="none" stroke="#bfbfbf" points="332.5,-123.5 332.5,-153.5 437.5,-153.5 437.5,-123.5 332.5,-123.5"/>
<text text-anchor="start" x="340.5" y="-141.5" font-family="Helvetica,sans-Serif" font-size="10.00">boost/chrono/io/time</text>
<text text-anchor="middle" x="385" y="-130.5" font-family="Helvetica,sans-Serif" font-size="10.00">_point_io.hpp</text>
</g>
<!-- Node1&#45;&gt;Node8 -->
<g id="edge7" class="edge"><title>Node1&#45;&gt;Node8</title>
<path fill="none" stroke="midnightblue" d="M299.328,-190.475C313.124,-182.266 334.482,-169.558 352.421,-158.885"/>
<polygon fill="midnightblue" stroke="midnightblue" points="354.628,-161.644 361.432,-153.523 351.048,-155.629 354.628,-161.644"/>
</g>
<!-- Node9 -->
<g id="node9" class="node"><title>Node9</title>
<g id="a_node9"><a xlink:href="multibuf_8hpp.html" target="_top" xlink:title="multibuf.hpp">
<polygon fill="none" stroke="black" points="168,-129 168,-148 238,-148 238,-129 168,-129"/>
<text text-anchor="middle" x="203" y="-136" font-family="Helvetica,sans-Serif" font-size="10.00">multibuf.hpp</text>
</a>
</g>
</g>
<!-- Node1&#45;&gt;Node9 -->
<g id="edge8" class="edge"><title>Node1&#45;&gt;Node9</title>
<path fill="none" stroke="midnightblue" d="M273.251,-190.475C260.221,-181.02 238.964,-165.596 223.241,-154.187"/>
<polygon fill="midnightblue" stroke="midnightblue" points="224.876,-151.049 214.727,-148.009 220.765,-156.715 224.876,-151.049"/>
</g>
<!-- Node12 -->
<g id="node12" class="node"><title>Node12</title>
<g id="a_node12"><a xlink:href="string_8hpp.html" target="_top" xlink:title="string.hpp">
<polygon fill="none" stroke="black" points="488.5,-129 488.5,-148 547.5,-148 547.5,-129 488.5,-129"/>
<text text-anchor="middle" x="518" y="-136" font-family="Helvetica,sans-Serif" font-size="10.00">string.hpp</text>
</a>
</g>
</g>
<!-- Node1&#45;&gt;Node12 -->
<g id="edge13" class="edge"><title>Node1&#45;&gt;Node12</title>
<path fill="none" stroke="midnightblue" d="M318.383,-190.475C360.732,-179.661 433.655,-161.039 478.661,-149.546"/>
<polygon fill="midnightblue" stroke="midnightblue" points="479.545,-152.932 488.368,-147.067 477.813,-146.15 479.545,-152.932"/>
</g>
<!-- Node20 -->
<g id="node20" class="node"><title>Node20</title>
<g id="a_node20"><a xlink:href="settings_8hpp.html" target="_top" xlink:title="settings.hpp">
<polygon fill="none" stroke="black" points="822,-129 822,-148 892,-148 892,-129 822,-129"/>
<text text-anchor="middle" x="857" y="-136" font-family="Helvetica,sans-Serif" font-size="10.00">settings.hpp</text>
</a>
</g>
</g>
<!-- Node1&#45;&gt;Node20 -->
<g id="edge27" class="edge"><title>Node1&#45;&gt;Node20</title>
<path fill="none" stroke="midnightblue" d="M337.532,-193.536C448.876,-181.954 706.951,-155.108 811.647,-144.218"/>
<polygon fill="midnightblue" stroke="midnightblue" points="812.295,-147.669 821.879,-143.153 811.571,-140.707 812.295,-147.669"/>
</g>
<!-- Node9&#45;&gt;Node3 -->
<g id="edge9" class="edge"><title>Node9&#45;&gt;Node3</title>
<path fill="none" stroke="midnightblue" d="M186.534,-128.869C165.596,-117.893 129.219,-98.8243 104.637,-85.9385"/>
<polygon fill="midnightblue" stroke="midnightblue" points="106.016,-82.7101 95.5343,-81.1672 102.766,-88.9099 106.016,-82.7101"/>
</g>
<!-- Node9&#45;&gt;Node6 -->
<g id="edge12" class="edge"><title>Node9&#45;&gt;Node6</title>
<path fill="none" stroke="midnightblue" d="M202.882,-128.933C203.145,-112.326 206.206,-75.6578 227,-56 250.014,-34.2434 340.041,-20.4308 388.203,-14.4431"/>
<polygon fill="midnightblue" stroke="midnightblue" points="388.855,-17.8899 398.365,-13.2188 388.018,-10.9401 388.855,-17.8899"/>
</g>
<!-- Node10 -->
<g id="node10" class="node"><title>Node10</title>
<polygon fill="none" stroke="#bfbfbf" points="125,-62 125,-81 175,-81 175,-62 125,-62"/>
<text text-anchor="middle" x="150" y="-69" font-family="Helvetica,sans-Serif" font-size="10.00">fstream</text>
</g>
<!-- Node9&#45;&gt;Node10 -->
<g id="edge10" class="edge"><title>Node9&#45;&gt;Node10</title>
<path fill="none" stroke="midnightblue" d="M195.852,-128.734C187.587,-118.598 173.801,-101.69 163.499,-89.0556"/>
<polygon fill="midnightblue" stroke="midnightblue" points="166.067,-86.6657 157.035,-81.1273 160.641,-91.0893 166.067,-86.6657"/>
</g>
<!-- Node11 -->
<g id="node11" class="node"><title>Node11</title>
<polygon fill="none" stroke="#bfbfbf" points="269,-62 269,-81 313,-81 313,-62 269,-62"/>
<text text-anchor="middle" x="291" y="-69" font-family="Helvetica,sans-Serif" font-size="10.00">vector</text>
</g>
<!-- Node9&#45;&gt;Node11 -->
<g id="edge11" class="edge"><title>Node9&#45;&gt;Node11</title>
<path fill="none" stroke="midnightblue" d="M214.868,-128.734C229.25,-118.111 253.704,-100.049 271.012,-87.2642"/>
<polygon fill="midnightblue" stroke="midnightblue" points="273.356,-89.884 279.32,-81.1273 269.197,-84.2534 273.356,-89.884"/>
</g>
<!-- Node12&#45;&gt;Node5 -->
<g id="edge17" class="edge"><title>Node12&#45;&gt;Node5</title>
<path fill="none" stroke="midnightblue" d="M497.152,-128.869C470.056,-117.65 422.536,-97.9766 391.416,-85.0925"/>
<polygon fill="midnightblue" stroke="midnightblue" points="392.513,-81.7587 381.935,-81.1672 389.835,-88.2263 392.513,-81.7587"/>
</g>
<!-- Node12&#45;&gt;Node6 -->
<g id="edge18" class="edge"><title>Node12&#45;&gt;Node6</title>
<path fill="none" stroke="midnightblue" d="M495.639,-128.962C477.426,-120.867 452.442,-106.96 438,-87 425.822,-70.1688 421.412,-46.3652 419.836,-29.9022"/>
<polygon fill="midnightblue" stroke="midnightblue" points="423.323,-29.5863 419.137,-19.8534 416.34,-30.0722 423.323,-29.5863"/>
</g>
<!-- Node12&#45;&gt;Node7 -->
<g id="edge20" class="edge"><title>Node12&#45;&gt;Node7</title>
<path fill="none" stroke="midnightblue" d="M547.892,-132.94C599.678,-124.868 709.333,-107.016 801,-87 805.777,-85.9569 810.763,-84.7861 815.705,-83.5739"/>
<polygon fill="midnightblue" stroke="midnightblue" points="816.864,-86.8913 825.707,-81.0552 815.155,-80.1032 816.864,-86.8913"/>
</g>
<!-- Node12&#45;&gt;Node11 -->
<g id="edge21" class="edge"><title>Node12&#45;&gt;Node11</title>
<path fill="none" stroke="midnightblue" d="M488.265,-131.637C449.41,-123.571 379.543,-107.669 322,-87 320.385,-86.42 318.741,-85.7864 317.093,-85.1187"/>
<polygon fill="midnightblue" stroke="midnightblue" points="318.381,-81.8617 307.816,-81.0562 315.572,-88.2738 318.381,-81.8617"/>
</g>
<!-- Node13 -->
<g id="node13" class="node"><title>Node13</title>
<polygon fill="none" stroke="#bfbfbf" points="772,-0.5 772,-19.5 818,-19.5 818,-0.5 772,-0.5"/>
<text text-anchor="middle" x="795" y="-7.5" font-family="Helvetica,sans-Serif" font-size="10.00">cstdint</text>
</g>
<!-- Node12&#45;&gt;Node13 -->
<g id="edge14" class="edge"><title>Node12&#45;&gt;Node13</title>
<path fill="none" stroke="midnightblue" d="M547.81,-135.123C606.745,-129.854 735.3,-115.357 768,-87 784.662,-72.5515 791.041,-47.1144 793.484,-29.6788"/>
<polygon fill="midnightblue" stroke="midnightblue" points="796.982,-29.8938 794.59,-19.5725 790.023,-29.1327 796.982,-29.8938"/>
</g>
<!-- Node14 -->
<g id="node14" class="node"><title>Node14</title>
<polygon fill="none" stroke="#bfbfbf" points="447.5,-62 447.5,-81 506.5,-81 506.5,-62 447.5,-62"/>
<text text-anchor="middle" x="477" y="-69" font-family="Helvetica,sans-Serif" font-size="10.00">functional</text>
</g>
<!-- Node12&#45;&gt;Node14 -->
<g id="edge15" class="edge"><title>Node12&#45;&gt;Node14</title>
<path fill="none" stroke="midnightblue" d="M512.471,-128.734C506.2,-118.793 495.821,-102.338 487.905,-89.7892"/>
<polygon fill="midnightblue" stroke="midnightblue" points="490.737,-87.718 482.442,-81.1273 484.817,-91.4526 490.737,-87.718"/>
</g>
<!-- Node15 -->
<g id="node15" class="node"><title>Node15</title>
<polygon fill="none" stroke="#bfbfbf" points="525,-62 525,-81 577,-81 577,-62 525,-62"/>
<text text-anchor="middle" x="551" y="-69" font-family="Helvetica,sans-Serif" font-size="10.00">memory</text>
</g>
<!-- Node12&#45;&gt;Node15 -->
<g id="edge16" class="edge"><title>Node12&#45;&gt;Node15</title>
<path fill="none" stroke="midnightblue" d="M522.451,-128.734C527.448,-118.89 535.688,-102.66 542.034,-90.1594"/>
<polygon fill="midnightblue" stroke="midnightblue" points="545.214,-91.6284 546.62,-81.1273 538.972,-88.4595 545.214,-91.6284"/>
</g>
<!-- Node16 -->
<g id="node16" class="node"><title>Node16</title>
<polygon fill="none" stroke="#bfbfbf" points="595,-62 595,-81 647,-81 647,-62 595,-62"/>
<text text-anchor="middle" x="621" y="-69" font-family="Helvetica,sans-Serif" font-size="10.00">sstream</text>
</g>
<!-- Node12&#45;&gt;Node16 -->
<g id="edge19" class="edge"><title>Node12&#45;&gt;Node16</title>
<path fill="none" stroke="midnightblue" d="M531.891,-128.734C549.034,-117.916 578.4,-99.3832 598.711,-86.5659"/>
<polygon fill="midnightblue" stroke="midnightblue" points="600.74,-89.4241 607.329,-81.1273 597.004,-83.5043 600.74,-89.4241"/>
</g>
<!-- Node17 -->
<g id="node17" class="node"><title>Node17</title>
<g id="a_node17"><a xlink:href="color_8hpp.html" target="_top" xlink:title="color.hpp">
<polygon fill="none" stroke="black" points="703,-62 703,-81 759,-81 759,-62 703,-62"/>
<text text-anchor="middle" x="731" y="-69" font-family="Helvetica,sans-Serif" font-size="10.00">color.hpp</text>
</a>
</g>
</g>
<!-- Node12&#45;&gt;Node17 -->
<g id="edge22" class="edge"><title>Node12&#45;&gt;Node17</title>
<path fill="none" stroke="midnightblue" d="M546.285,-128.869C584.105,-117.327 651.255,-96.8354 693.33,-83.9956"/>
<polygon fill="midnightblue" stroke="midnightblue" points="694.395,-87.3301 702.938,-81.0637 692.351,-80.6349 694.395,-87.3301"/>
</g>
<!-- Node17&#45;&gt;Node6 -->
<g id="edge26" class="edge"><title>Node17&#45;&gt;Node6</title>
<path fill="none" stroke="midnightblue" d="M708.541,-61.9707C702.279,-59.8059 695.43,-57.6335 689,-56 603.609,-34.3064 500.292,-20.4328 449.798,-14.4303"/>
<polygon fill="midnightblue" stroke="midnightblue" points="449.902,-10.9188 439.564,-13.2361 449.091,-17.8716 449.902,-10.9188"/>
</g>
<!-- Node17&#45;&gt;Node13 -->
<g id="edge24" class="edge"><title>Node17&#45;&gt;Node13</title>
<path fill="none" stroke="midnightblue" d="M740.17,-61.9751C750.15,-52.6966 766.312,-37.6706 778.509,-26.331"/>
<polygon fill="midnightblue" stroke="midnightblue" points="780.907,-28.8814 785.847,-19.5091 776.14,-23.7547 780.907,-28.8814"/>
</g>
<!-- Node18 -->
<g id="node18" class="node"><title>Node18</title>
<polygon fill="none" stroke="#bfbfbf" points="644,-0.5 644,-19.5 690,-19.5 690,-0.5 644,-0.5"/>
<text text-anchor="middle" x="667" y="-7.5" font-family="Helvetica,sans-Serif" font-size="10.00">cctype</text>
</g>
<!-- Node17&#45;&gt;Node18 -->
<g id="edge23" class="edge"><title>Node17&#45;&gt;Node18</title>
<path fill="none" stroke="midnightblue" d="M721.83,-61.9751C711.85,-52.6966 695.688,-37.6706 683.491,-26.331"/>
<polygon fill="midnightblue" stroke="midnightblue" points="685.86,-23.7547 676.153,-19.5091 681.093,-28.8814 685.86,-23.7547"/>
</g>
<!-- Node19 -->
<g id="node19" class="node"><title>Node19</title>
<polygon fill="none" stroke="#bfbfbf" points="708.5,-0.5 708.5,-19.5 753.5,-19.5 753.5,-0.5 708.5,-0.5"/>
<text text-anchor="middle" x="731" y="-7.5" font-family="Helvetica,sans-Serif" font-size="10.00">cstdlib</text>
</g>
<!-- Node17&#45;&gt;Node19 -->
<g id="edge25" class="edge"><title>Node17&#45;&gt;Node19</title>
<path fill="none" stroke="midnightblue" d="M731,-61.9751C731,-53.5803 731,-40.4806 731,-29.6631"/>
<polygon fill="midnightblue" stroke="midnightblue" points="734.5,-29.5091 731,-19.5091 727.5,-29.5091 734.5,-29.5091"/>
</g>
<!-- Node20&#45;&gt;Node6 -->
<g id="edge28" class="edge"><title>Node20&#45;&gt;Node6</title>
<path fill="none" stroke="midnightblue" d="M821.762,-130.692C787.671,-123.177 735.248,-109.127 694,-87 674.793,-76.6968 675.757,-65.2041 656,-56 586.969,-23.8409 496.431,-14.6633 449.767,-12.0448"/>
<polygon fill="midnightblue" stroke="midnightblue" points="449.853,-8.5449 439.692,-11.5446 449.506,-15.5363 449.853,-8.5449"/>
</g>
<!-- Node20&#45;&gt;Node7 -->
<g id="edge30" class="edge"><title>Node20&#45;&gt;Node7</title>
<path fill="none" stroke="midnightblue" d="M857,-128.734C857,-119.183 857,-103.618 857,-91.2829"/>
<polygon fill="midnightblue" stroke="midnightblue" points="860.5,-91.1273 857,-81.1273 853.5,-91.1273 860.5,-91.1273"/>
</g>
<!-- Node20&#45;&gt;Node13 -->
<g id="edge29" class="edge"><title>Node20&#45;&gt;Node13</title>
<path fill="none" stroke="midnightblue" d="M892.006,-133.734C952.566,-125.859 1066.77,-104.23 1027,-56 1002.18,-25.9033 886.218,-15.6893 828.215,-12.4262"/>
<polygon fill="midnightblue" stroke="midnightblue" points="828.264,-8.92406 818.094,-11.8946 827.897,-15.9144 828.264,-8.92406"/>
</g>
<!-- Node21 -->
<g id="node21" class="node"><title>Node21</title>
<polygon fill="none" stroke="#bfbfbf" points="916.5,-56.5 916.5,-86.5 1017.5,-86.5 1017.5,-56.5 916.5,-56.5"/>
<text text-anchor="start" x="924.5" y="-74.5" font-family="Helvetica,sans-Serif" font-size="10.00">boost/property_tree</text>
<text text-anchor="middle" x="967" y="-63.5" font-family="Helvetica,sans-Serif" font-size="10.00">/ptree.hpp</text>
</g>
<!-- Node20&#45;&gt;Node21 -->
<g id="edge31" class="edge"><title>Node20&#45;&gt;Node21</title>
<path fill="none" stroke="midnightblue" d="M871.835,-128.734C887.773,-119.316 913.606,-104.051 934.337,-91.8008"/>
<polygon fill="midnightblue" stroke="midnightblue" points="936.328,-94.6896 943.157,-86.589 932.767,-88.6631 936.328,-94.6896"/>
</g>
</g>
</svg>
