<?xml version="1.0" encoding="UTF-8" standalone="no"?>
<!DOCTYPE svg PUBLIC "-//W3C//DTD SVG 1.1//EN"
 "http://www.w3.org/Graphics/SVG/1.1/DTD/svg11.dtd">
<!-- Generated by graphviz version 2.38.0 (20140413.2041)
 -->
<!-- Title: src/main.cpp Pages: 1 -->
<!--zoomable 442 -->
<svg id="main" version="1.1" xmlns="http://www.w3.org/2000/svg" xmlns:xlink="http://www.w3.org/1999/xlink" xml:space="preserve" onload="init(evt)">
<style type="text/css"><![CDATA[
.edge:hover path { stroke: red; }
.edge:hover polygon { stroke: red; fill: red; }
]]></style>
<script type="text/javascript"><![CDATA[
var edges = document.getElementsByTagName('g');
if (edges && edges.length) {
  for (var i=0;i<edges.length;i++) {
    if (edges[i].id.substr(0,4)=='edge') {
      edges[i].setAttribute('class','edge');
    }
  }
}
]]></script>
        <defs>
                <circle id="rim" cx="0" cy="0" r="7"/>
                <circle id="rim2" cx="0" cy="0" r="3.5"/>
                <g id="zoomPlus">
                        <use xlink:href="#rim" fill="#404040">
                                <set attributeName="fill" to="#808080" begin="zoomplus.mouseover" end="zoomplus.mouseout"/>
                        </use>
                        <path d="M-4,0h8M0,-4v8" fill="none" stroke="white" stroke-width="1.5" pointer-events="none"/>
                </g>
                <g id="zoomMin">
                        <use xlink:href="#rim" fill="#404040">
                                <set attributeName="fill" to="#808080" begin="zoomminus.mouseover" end="zoomminus.mouseout"/>
                        </use>
                        <path d="M-4,0h8" fill="none" stroke="white" stroke-width="1.5" pointer-events="none"/>
                </g>
                <g id="dirArrow">
                        <path fill="none" stroke="white" stroke-width="1.5" d="M0,-3.0v7 M-2.5,-0.5L0,-3.0L2.5,-0.5"/>
                </g>
               <g id="resetDef">
                       <use xlink:href="#rim2" fill="#404040">
                               <set attributeName="fill" to="#808080" begin="reset.mouseover" end="reset.mouseout"/>
                       </use>
               </g>
        </defs>

<script type="text/javascript">
var viewWidth = 1630;
var viewHeight = 442;
var sectionId = 'dynsection-0';
</script>
<script xlink:href="svgpan.js"/>
<svg id="graph" class="graph">
<g id="viewport">
<title>src/main.cpp</title>
<!-- Node1 -->
<g id="node1" class="node"><title>Node1</title>
<polygon fill="#bfbfbf" stroke="black" points="946.5,-414.5 946.5,-433.5 1019.5,-433.5 1019.5,-414.5 946.5,-414.5"/>
<text text-anchor="middle" x="983" y="-421.5" font-family="Helvetica,sans-Serif" font-size="10.00">src/main.cpp</text>
</g>
<!-- Node2 -->
<g id="node2" class="node"><title>Node2</title>
<g id="a_node2"><a xlink:href="melanobot_8hpp.html" target="_top" xlink:title="melanobot.hpp">
<polygon fill="none" stroke="black" points="796,-358.5 796,-377.5 876,-377.5 876,-358.5 796,-358.5"/>
<text text-anchor="middle" x="836" y="-365.5" font-family="Helvetica,sans-Serif" font-size="10.00">melanobot.hpp</text>
</a>
</g>
</g>
<!-- Node1&#45;&gt;Node2 -->
<g id="edge1" class="edge"><title>Node1&#45;&gt;Node2</title>
<path fill="none" stroke="midnightblue" d="M959.707,-414.444C935.193,-405.438 896.404,-391.189 868.8,-381.049"/>
<polygon fill="midnightblue" stroke="midnightblue" points="869.777,-377.679 859.184,-377.516 867.363,-384.25 869.777,-377.679"/>
</g>
<!-- Node12 -->
<g id="node12" class="node"><title>Node12</title>
<g id="a_node12"><a xlink:href="settings_8hpp.html" target="_top" xlink:title="settings.hpp">
<polygon fill="none" stroke="black" points="79,-67.5 79,-86.5 149,-86.5 149,-67.5 79,-67.5"/>
<text text-anchor="middle" x="114" y="-74.5" font-family="Helvetica,sans-Serif" font-size="10.00">settings.hpp</text>
</a>
</g>
</g>
<!-- Node1&#45;&gt;Node12 -->
<g id="edge75" class="edge"><title>Node1&#45;&gt;Node12</title>
<path fill="none" stroke="midnightblue" d="M946.259,-422.824C767.805,-421.495 0,-410.132 0,-313 0,-313 0,-313 0,-199 0,-148.348 53.5771,-110.277 87.2721,-91.3435"/>
<polygon fill="midnightblue" stroke="midnightblue" points="89.0604,-94.3554 96.1875,-86.516 85.7273,-88.1998 89.0604,-94.3554"/>
</g>
<!-- Node25 -->
<g id="node25" class="node"><title>Node25</title>
<g id="a_node25"><a xlink:href="logger_8hpp.html" target="_top" xlink:title="string/logger.hpp">
<polygon fill="none" stroke="black" points="1187.5,-190.5 1187.5,-209.5 1276.5,-209.5 1276.5,-190.5 1187.5,-190.5"/>
<text text-anchor="middle" x="1232" y="-197.5" font-family="Helvetica,sans-Serif" font-size="10.00">string/logger.hpp</text>
</a>
</g>
</g>
<!-- Node1&#45;&gt;Node25 -->
<g id="edge74" class="edge"><title>Node1&#45;&gt;Node25</title>
<path fill="none" stroke="midnightblue" d="M1019.8,-420.01C1076.17,-414.725 1180.27,-401.961 1208,-378 1254.1,-338.166 1253.54,-306.326 1245,-246 1243.73,-237.042 1241.11,-227.372 1238.55,-219.3"/>
<polygon fill="midnightblue" stroke="midnightblue" points="1241.86,-218.157 1235.34,-209.803 1235.23,-220.398 1241.86,-218.157"/>
</g>
<!-- Node42 -->
<g id="node42" class="node"><title>Node42</title>
<g id="a_node42"><a xlink:href="async__service_8hpp.html" target="_top" xlink:title="network/async_service.hpp">
<polygon fill="none" stroke="black" points="1063,-358.5 1063,-377.5 1199,-377.5 1199,-358.5 1063,-358.5"/>
<text text-anchor="middle" x="1131" y="-365.5" font-family="Helvetica,sans-Serif" font-size="10.00">network/async_service.hpp</text>
</a>
</g>
</g>
<!-- Node1&#45;&gt;Node42 -->
<g id="edge76" class="edge"><title>Node1&#45;&gt;Node42</title>
<path fill="none" stroke="midnightblue" d="M1006.45,-414.444C1031.13,-405.438 1070.19,-391.189 1097.98,-381.049"/>
<polygon fill="midnightblue" stroke="midnightblue" points="1099.46,-384.232 1107.66,-377.516 1097.06,-377.656 1099.46,-384.232"/>
</g>
<!-- Node3 -->
<g id="node3" class="node"><title>Node3</title>
<polygon fill="none" stroke="#bfbfbf" points="830,-246.5 830,-265.5 876,-265.5 876,-246.5 830,-246.5"/>
<text text-anchor="middle" x="853" y="-253.5" font-family="Helvetica,sans-Serif" font-size="10.00">atomic</text>
</g>
<!-- Node2&#45;&gt;Node3 -->
<g id="edge2" class="edge"><title>Node2&#45;&gt;Node3</title>
<path fill="none" stroke="midnightblue" d="M837.334,-358.368C840.077,-340.617 846.406,-299.666 850.126,-275.597"/>
<polygon fill="midnightblue" stroke="midnightblue" points="853.604,-276.009 851.672,-265.591 846.686,-274.94 853.604,-276.009"/>
</g>
<!-- Node4 -->
<g id="node4" class="node"><title>Node4</title>
<polygon fill="none" stroke="#bfbfbf" points="1032.5,-246.5 1032.5,-265.5 1127.5,-265.5 1127.5,-246.5 1032.5,-246.5"/>
<text text-anchor="middle" x="1080" y="-253.5" font-family="Helvetica,sans-Serif" font-size="10.00">condition_variable</text>
</g>
<!-- Node2&#45;&gt;Node4 -->
<g id="edge3" class="edge"><title>Node2&#45;&gt;Node4</title>
<path fill="none" stroke="midnightblue" d="M876.113,-366.654C919.379,-364.439 988.56,-355.375 1037,-322 1053.84,-310.399 1065.78,-289.843 1072.74,-274.947"/>
<polygon fill="midnightblue" stroke="midnightblue" points="1075.98,-276.285 1076.76,-265.719 1069.56,-273.489 1075.98,-276.285"/>
</g>
<!-- Node5 -->
<g id="node5" class="node"><title>Node5</title>
<polygon fill="none" stroke="#bfbfbf" points="1108,-129 1108,-148 1152,-148 1152,-129 1108,-129"/>
<text text-anchor="middle" x="1130" y="-136" font-family="Helvetica,sans-Serif" font-size="10.00">mutex</text>
</g>
<!-- Node2&#45;&gt;Node5 -->
<g id="edge4" class="edge"><title>Node2&#45;&gt;Node5</title>
<path fill="none" stroke="midnightblue" d="M831.291,-358.403C820.34,-337.12 795.929,-281.159 821,-246 885.598,-155.409 1032.52,-141.113 1097.76,-139.384"/>
<polygon fill="midnightblue" stroke="midnightblue" points="1097.93,-142.881 1107.87,-139.201 1097.81,-135.882 1097.93,-142.881"/>
</g>
<!-- Node6 -->
<g id="node6" class="node"><title>Node6</title>
<polygon fill="none" stroke="#bfbfbf" points="894.5,-246.5 894.5,-265.5 937.5,-265.5 937.5,-246.5 894.5,-246.5"/>
<text text-anchor="middle" x="916" y="-253.5" font-family="Helvetica,sans-Serif" font-size="10.00">queue</text>
</g>
<!-- Node2&#45;&gt;Node6 -->
<g id="edge5" class="edge"><title>Node2&#45;&gt;Node6</title>
<path fill="none" stroke="midnightblue" d="M842.277,-358.368C855.48,-340.215 886.326,-297.802 903.644,-273.99"/>
<polygon fill="midnightblue" stroke="midnightblue" points="906.701,-275.737 909.752,-265.591 901.039,-271.62 906.701,-275.737"/>
</g>
<!-- Node7 -->
<g id="node7" class="node"><title>Node7</title>
<polygon fill="none" stroke="#bfbfbf" points="1084,-302.5 1084,-321.5 1128,-321.5 1128,-302.5 1084,-302.5"/>
<text text-anchor="middle" x="1106" y="-309.5" font-family="Helvetica,sans-Serif" font-size="10.00">thread</text>
</g>
<!-- Node2&#45;&gt;Node7 -->
<g id="edge6" class="edge"><title>Node2&#45;&gt;Node7</title>
<path fill="none" stroke="midnightblue" d="M876.302,-359.945C923.042,-351.602 1002.34,-336.952 1070,-322 1071.27,-321.719 1072.57,-321.425 1073.88,-321.124"/>
<polygon fill="midnightblue" stroke="midnightblue" points="1075.05,-324.443 1083.96,-318.714 1073.42,-317.635 1075.05,-324.443"/>
</g>
<!-- Node8 -->
<g id="node8" class="node"><title>Node8</title>
<polygon fill="none" stroke="#bfbfbf" points="618.5,-6 618.5,-25 701.5,-25 701.5,-6 618.5,-6"/>
<text text-anchor="middle" x="660" y="-13" font-family="Helvetica,sans-Serif" font-size="10.00">unordered_map</text>
</g>
<!-- Node2&#45;&gt;Node8 -->
<g id="edge7" class="edge"><title>Node2&#45;&gt;Node8</title>
<path fill="none" stroke="midnightblue" d="M795.95,-365.064C691.402,-359.044 414.886,-336.607 365,-266 348.768,-243.026 381.405,-204.694 392,-190 444.457,-117.244 473.051,-109.57 552,-67 577.91,-53.0288 608.364,-38.9951 630.316,-29.2803"/>
<polygon fill="midnightblue" stroke="midnightblue" points="632.007,-32.3604 639.757,-25.1363 629.194,-25.9507 632.007,-32.3604"/>
</g>
<!-- Node9 -->
<g id="node9" class="node"><title>Node9</title>
<g id="a_node9"><a xlink:href="concurrent__container_8hpp.html" target="_top" xlink:title="concurrent_container.hpp">
<polygon fill="none" stroke="black" points="902,-302.5 902,-321.5 1028,-321.5 1028,-302.5 902,-302.5"/>
<text text-anchor="middle" x="965" y="-309.5" font-family="Helvetica,sans-Serif" font-size="10.00">concurrent_container.hpp</text>
</a>
</g>
</g>
<!-- Node2&#45;&gt;Node9 -->
<g id="edge8" class="edge"><title>Node2&#45;&gt;Node9</title>
<path fill="none" stroke="midnightblue" d="M856.44,-358.444C877.67,-349.557 911.099,-335.563 935.255,-325.451"/>
<polygon fill="midnightblue" stroke="midnightblue" points="936.782,-328.606 944.655,-321.516 934.079,-322.149 936.782,-328.606"/>
</g>
<!-- Node2&#45;&gt;Node12 -->
<g id="edge14" class="edge"><title>Node2&#45;&gt;Node12</title>
<path fill="none" stroke="midnightblue" d="M795.88,-365.746C634.059,-360.164 38,-334.355 38,-257 38,-257 38,-257 38,-199 38,-155.475 73.699,-114.775 96.1634,-93.4715"/>
<polygon fill="midnightblue" stroke="midnightblue" points="98.7341,-95.8634 103.75,-86.5313 94.0094,-90.6984 98.7341,-95.8634"/>
</g>
<!-- Node16 -->
<g id="node16" class="node"><title>Node16</title>
<g id="a_node16"><a xlink:href="connection_8hpp.html" target="_top" xlink:title="network/connection.hpp">
<polygon fill="none" stroke="black" points="532,-302.5 532,-321.5 652,-321.5 652,-302.5 532,-302.5"/>
<text text-anchor="middle" x="592" y="-309.5" font-family="Helvetica,sans-Serif" font-size="10.00">network/connection.hpp</text>
</a>
</g>
</g>
<!-- Node2&#45;&gt;Node16 -->
<g id="edge19" class="edge"><title>Node2&#45;&gt;Node16</title>
<path fill="none" stroke="midnightblue" d="M797.337,-358.444C754.862,-349.043 686.569,-333.929 640.526,-323.739"/>
<polygon fill="midnightblue" stroke="midnightblue" points="641.002,-320.26 630.482,-321.516 639.489,-327.095 641.002,-320.26"/>
</g>
<!-- Node41 -->
<g id="node41" class="node"><title>Node41</title>
<g id="a_node41"><a xlink:href="handler__container_8hpp.html" target="_top" xlink:title="handler/handler_container.hpp">
<polygon fill="none" stroke="black" points="66,-190.5 66,-209.5 212,-209.5 212,-190.5 66,-190.5"/>
<text text-anchor="middle" x="139" y="-197.5" font-family="Helvetica,sans-Serif" font-size="10.00">handler/handler_container.hpp</text>
</a>
</g>
</g>
<!-- Node2&#45;&gt;Node41 -->
<g id="edge72" class="edge"><title>Node2&#45;&gt;Node41</title>
<path fill="none" stroke="midnightblue" d="M795.654,-367.333C681.628,-367.726 359.112,-364.911 264,-322 212.799,-298.9 170.02,-245.504 150.448,-218.021"/>
<polygon fill="midnightblue" stroke="midnightblue" points="153.301,-215.993 144.722,-209.776 147.551,-219.986 153.301,-215.993"/>
</g>
<!-- Node9&#45;&gt;Node3 -->
<g id="edge9" class="edge"><title>Node9&#45;&gt;Node3</title>
<path fill="none" stroke="midnightblue" d="M947.005,-302.324C928.962,-293.625 900.953,-280.12 880.197,-270.113"/>
<polygon fill="midnightblue" stroke="midnightblue" points="881.478,-266.845 870.95,-265.655 878.438,-273.15 881.478,-266.845"/>
</g>
<!-- Node9&#45;&gt;Node4 -->
<g id="edge10" class="edge"><title>Node9&#45;&gt;Node4</title>
<path fill="none" stroke="midnightblue" d="M983.222,-302.444C1001.9,-293.675 1031.16,-279.935 1052.62,-269.858"/>
<polygon fill="midnightblue" stroke="midnightblue" points="1054.3,-272.935 1061.86,-265.516 1051.32,-266.599 1054.3,-272.935"/>
</g>
<!-- Node9&#45;&gt;Node6 -->
<g id="edge12" class="edge"><title>Node9&#45;&gt;Node6</title>
<path fill="none" stroke="midnightblue" d="M956.909,-302.083C949.845,-294.298 939.412,-282.801 930.851,-273.367"/>
<polygon fill="midnightblue" stroke="midnightblue" points="933.253,-270.805 923.941,-265.751 928.069,-275.509 933.253,-270.805"/>
</g>
<!-- Node10 -->
<g id="node10" class="node"><title>Node10</title>
<polygon fill="none" stroke="#bfbfbf" points="991.5,-67.5 991.5,-86.5 1050.5,-86.5 1050.5,-67.5 991.5,-67.5"/>
<text text-anchor="middle" x="1021" y="-74.5" font-family="Helvetica,sans-Serif" font-size="10.00">functional</text>
</g>
<!-- Node9&#45;&gt;Node10 -->
<g id="edge11" class="edge"><title>Node9&#45;&gt;Node10</title>
<path fill="none" stroke="midnightblue" d="M968.152,-302.457C971.397,-293.467 976.464,-278.864 980,-266 996.863,-204.647 1011.33,-130.52 1017.63,-96.5894"/>
<polygon fill="midnightblue" stroke="midnightblue" points="1021.08,-97.1678 1019.45,-86.7001 1014.2,-95.9037 1021.08,-97.1678"/>
</g>
<!-- Node11 -->
<g id="node11" class="node"><title>Node11</title>
<polygon fill="none" stroke="#bfbfbf" points="745,-67.5 745,-86.5 789,-86.5 789,-67.5 745,-67.5"/>
<text text-anchor="middle" x="767" y="-74.5" font-family="Helvetica,sans-Serif" font-size="10.00">vector</text>
</g>
<!-- Node9&#45;&gt;Node11 -->
<g id="edge13" class="edge"><title>Node9&#45;&gt;Node11</title>
<path fill="none" stroke="midnightblue" d="M963.962,-302.417C962.077,-289.394 957.198,-264.234 946,-246 923.616,-209.551 826.289,-126.978 785.302,-93.0178"/>
<polygon fill="midnightblue" stroke="midnightblue" points="787.399,-90.2098 777.458,-86.5431 782.942,-95.6082 787.399,-90.2098"/>
</g>
<!-- Node12&#45;&gt;Node8 -->
<g id="edge17" class="edge"><title>Node12&#45;&gt;Node8</title>
<path fill="none" stroke="midnightblue" d="M149.114,-72.1389C163.628,-70.5449 180.624,-68.6805 196,-67 345.779,-50.6298 522.767,-31.3982 608.421,-22.0982"/>
<polygon fill="midnightblue" stroke="midnightblue" points="608.842,-25.5731 618.406,-21.0141 608.086,-18.614 608.842,-25.5731"/>
</g>
<!-- Node13 -->
<g id="node13" class="node"><title>Node13</title>
<polygon fill="none" stroke="#bfbfbf" points="1038.5,-6 1038.5,-25 1079.5,-25 1079.5,-6 1038.5,-6"/>
<text text-anchor="middle" x="1059" y="-13" font-family="Helvetica,sans-Serif" font-size="10.00">string</text>
</g>
<!-- Node12&#45;&gt;Node13 -->
<g id="edge15" class="edge"><title>Node12&#45;&gt;Node13</title>
<path fill="none" stroke="midnightblue" d="M149.077,-71.7533C163.585,-70.1002 180.587,-68.2959 196,-67 520.931,-39.6793 915.929,-22.3583 1028.02,-17.7421"/>
<polygon fill="midnightblue" stroke="midnightblue" points="1028.42,-21.229 1038.27,-17.3234 1028.13,-14.2348 1028.42,-21.229"/>
</g>
<!-- Node14 -->
<g id="node14" class="node"><title>Node14</title>
<polygon fill="none" stroke="#bfbfbf" points="378,-6 378,-25 424,-25 424,-6 378,-6"/>
<text text-anchor="middle" x="401" y="-13" font-family="Helvetica,sans-Serif" font-size="10.00">cstdint</text>
</g>
<!-- Node12&#45;&gt;Node14 -->
<g id="edge16" class="edge"><title>Node12&#45;&gt;Node14</title>
<path fill="none" stroke="midnightblue" d="M149.192,-68.7041C205.158,-57.1013 313.673,-34.6043 368.14,-23.3125"/>
<polygon fill="midnightblue" stroke="midnightblue" points="368.887,-26.732 377.969,-21.2748 367.466,-19.8778 368.887,-26.732"/>
</g>
<!-- Node15 -->
<g id="node15" class="node"><title>Node15</title>
<polygon fill="none" stroke="#bfbfbf" points="63.5,-0.5 63.5,-30.5 164.5,-30.5 164.5,-0.5 63.5,-0.5"/>
<text text-anchor="start" x="71.5" y="-18.5" font-family="Helvetica,sans-Serif" font-size="10.00">boost/property_tree</text>
<text text-anchor="middle" x="114" y="-7.5" font-family="Helvetica,sans-Serif" font-size="10.00">/ptree.hpp</text>
</g>
<!-- Node12&#45;&gt;Node15 -->
<g id="edge18" class="edge"><title>Node12&#45;&gt;Node15</title>
<path fill="none" stroke="midnightblue" d="M114,-67.4751C114,-60.471 114,-50.1919 114,-40.6956"/>
<polygon fill="midnightblue" stroke="midnightblue" points="117.5,-40.5229 114,-30.523 110.5,-40.523 117.5,-40.5229"/>
</g>
<!-- Node16&#45;&gt;Node3 -->
<g id="edge20" class="edge"><title>Node16&#45;&gt;Node3</title>
<path fill="none" stroke="midnightblue" d="M633.356,-302.444C684.939,-291.771 772.115,-273.735 819.649,-263.9"/>
<polygon fill="midnightblue" stroke="midnightblue" points="820.638,-267.27 829.721,-261.816 819.22,-260.415 820.638,-267.27"/>
</g>
<!-- Node16&#45;&gt;Node14 -->
<g id="edge22" class="edge"><title>Node16&#45;&gt;Node14</title>
<path fill="none" stroke="midnightblue" d="M531.796,-306.265C463.223,-299.961 356.243,-287.088 322,-266 239.16,-214.984 223.87,-180.211 196,-87 193.454,-78.4837 190.518,-73.9968 196,-67 216.939,-40.2774 314.909,-25.7863 367.47,-19.817"/>
<polygon fill="midnightblue" stroke="midnightblue" points="368.086,-23.2705 377.646,-18.7034 367.325,-16.3121 368.086,-23.2705"/>
</g>
<!-- Node17 -->
<g id="node17" class="node"><title>Node17</title>
<polygon fill="none" stroke="#bfbfbf" points="520,-246.5 520,-265.5 566,-265.5 566,-246.5 520,-246.5"/>
<text text-anchor="middle" x="543" y="-253.5" font-family="Helvetica,sans-Serif" font-size="10.00">chrono</text>
</g>
<!-- Node16&#45;&gt;Node17 -->
<g id="edge21" class="edge"><title>Node16&#45;&gt;Node17</title>
<path fill="none" stroke="midnightblue" d="M583.909,-302.083C576.845,-294.298 566.412,-282.801 557.851,-273.367"/>
<polygon fill="midnightblue" stroke="midnightblue" points="560.253,-270.805 550.941,-265.751 555.069,-275.509 560.253,-270.805"/>
</g>
<!-- Node18 -->
<g id="node18" class="node"><title>Node18</title>
<polygon fill="none" stroke="#bfbfbf" points="561,-67.5 561,-86.5 613,-86.5 613,-67.5 561,-67.5"/>
<text text-anchor="middle" x="587" y="-74.5" font-family="Helvetica,sans-Serif" font-size="10.00">sstream</text>
</g>
<!-- Node16&#45;&gt;Node18 -->
<g id="edge23" class="edge"><title>Node16&#45;&gt;Node18</title>
<path fill="none" stroke="midnightblue" d="M531.796,-306.988C474.022,-301.735 392.715,-290.178 373,-266 340.673,-226.355 500.35,-128.01 562.817,-91.7295"/>
<polygon fill="midnightblue" stroke="midnightblue" points="564.714,-94.6759 571.629,-86.6492 561.218,-88.6114 564.714,-94.6759"/>
</g>
<!-- Node19 -->
<g id="node19" class="node"><title>Node19</title>
<g id="a_node19"><a xlink:href="string_8hpp.html" target="_top" xlink:title="string/string.hpp">
<polygon fill="none" stroke="black" points="866,-129 866,-148 952,-148 952,-129 866,-129"/>
<text text-anchor="middle" x="909" y="-136" font-family="Helvetica,sans-Serif" font-size="10.00">string/string.hpp</text>
</a>
</g>
</g>
<!-- Node16&#45;&gt;Node19 -->
<g id="edge24" class="edge"><title>Node16&#45;&gt;Node19</title>
<path fill="none" stroke="midnightblue" d="M616.973,-302.497C640.419,-294.199 676.242,-280.706 706,-266 776.057,-231.379 852.811,-179.302 888.559,-154.14"/>
<polygon fill="midnightblue" stroke="midnightblue" points="890.99,-156.707 897.127,-148.071 886.944,-150.995 890.99,-156.707"/>
</g>
<!-- Node16&#45;&gt;Node25 -->
<g id="edge38" class="edge"><title>Node16&#45;&gt;Node25</title>
<path fill="none" stroke="midnightblue" d="M620.073,-302.393C672.148,-286.534 781.959,-253.622 821,-246 947.082,-221.384 1097.74,-209.193 1177,-204.085"/>
<polygon fill="midnightblue" stroke="midnightblue" points="1177.47,-207.562 1187.23,-203.439 1177.03,-200.576 1177.47,-207.562"/>
</g>
<!-- Node31 -->
<g id="node31" class="node"><title>Node31</title>
<g id="a_node31"><a xlink:href="string__functions_8hpp.html" target="_top" xlink:title="string/string_functions.hpp">
<polygon fill="none" stroke="black" points="249.5,-129 249.5,-148 380.5,-148 380.5,-129 249.5,-129"/>
<text text-anchor="middle" x="315" y="-136" font-family="Helvetica,sans-Serif" font-size="10.00">string/string_functions.hpp</text>
</a>
</g>
</g>
<!-- Node16&#45;&gt;Node31 -->
<g id="edge53" class="edge"><title>Node16&#45;&gt;Node31</title>
<path fill="none" stroke="midnightblue" d="M531.995,-307.933C466.246,-303.293 366.56,-292.075 340,-266 311.066,-237.594 310.56,-186.059 312.739,-158.344"/>
<polygon fill="midnightblue" stroke="midnightblue" points="316.255,-158.359 313.763,-148.061 309.29,-157.665 316.255,-158.359"/>
</g>
<!-- Node36 -->
<g id="node36" class="node"><title>Node36</title>
<g id="a_node36"><a xlink:href="auth__system_8hpp.html" target="_top" xlink:title="user/auth_system.hpp">
<polygon fill="none" stroke="black" points="584.5,-246.5 584.5,-265.5 697.5,-265.5 697.5,-246.5 584.5,-246.5"/>
<text text-anchor="middle" x="641" y="-253.5" font-family="Helvetica,sans-Serif" font-size="10.00">user/auth_system.hpp</text>
</a>
</g>
</g>
<!-- Node16&#45;&gt;Node36 -->
<g id="edge60" class="edge"><title>Node16&#45;&gt;Node36</title>
<path fill="none" stroke="midnightblue" d="M600.091,-302.083C607.155,-294.298 617.588,-282.801 626.149,-273.367"/>
<polygon fill="midnightblue" stroke="midnightblue" points="628.931,-275.509 633.059,-265.751 623.747,-270.805 628.931,-275.509"/>
</g>
<!-- Node39 -->
<g id="node39" class="node"><title>Node39</title>
<g id="a_node39"><a xlink:href="user__manager_8hpp.html" target="_top" xlink:title="user/user_manager.hpp">
<polygon fill="none" stroke="black" points="382.5,-246.5 382.5,-265.5 501.5,-265.5 501.5,-246.5 382.5,-246.5"/>
<text text-anchor="middle" x="442" y="-253.5" font-family="Helvetica,sans-Serif" font-size="10.00">user/user_manager.hpp</text>
</a>
</g>
</g>
<!-- Node16&#45;&gt;Node39 -->
<g id="edge69" class="edge"><title>Node16&#45;&gt;Node39</title>
<path fill="none" stroke="midnightblue" d="M568.232,-302.444C543.107,-293.399 503.289,-279.064 475.1,-268.916"/>
<polygon fill="midnightblue" stroke="midnightblue" points="476.251,-265.611 465.657,-265.516 473.88,-272.197 476.251,-265.611"/>
</g>
<!-- Node19&#45;&gt;Node8 -->
<g id="edge31" class="edge"><title>Node19&#45;&gt;Node8</title>
<path fill="none" stroke="midnightblue" d="M901.749,-128.772C888.967,-113.938 860.932,-83.7838 831,-67 793.77,-46.1239 747.036,-33.0856 711.837,-25.4984"/>
<polygon fill="midnightblue" stroke="midnightblue" points="712.273,-22.0145 701.771,-23.4086 710.85,-28.8683 712.273,-22.0145"/>
</g>
<!-- Node19&#45;&gt;Node10 -->
<g id="edge26" class="edge"><title>Node19&#45;&gt;Node10</title>
<path fill="none" stroke="midnightblue" d="M925.047,-128.975C943.593,-119.122 974.34,-102.788 996.022,-91.2697"/>
<polygon fill="midnightblue" stroke="midnightblue" points="997.794,-94.2916 1004.98,-86.5091 994.51,-88.1098 997.794,-94.2916"/>
</g>
<!-- Node19&#45;&gt;Node11 -->
<g id="edge32" class="edge"><title>Node19&#45;&gt;Node11</title>
<path fill="none" stroke="midnightblue" d="M888.655,-128.975C864.613,-118.901 824.403,-102.053 796.837,-90.5023"/>
<polygon fill="midnightblue" stroke="midnightblue" points="797.883,-87.1457 787.307,-86.5091 795.178,-93.6018 797.883,-87.1457"/>
</g>
<!-- Node19&#45;&gt;Node13 -->
<g id="edge29" class="edge"><title>Node19&#45;&gt;Node13</title>
<path fill="none" stroke="midnightblue" d="M917.065,-128.71C930.043,-114.805 956.675,-87.2389 982,-67 999.121,-53.3176 1019.99,-39.8071 1035.68,-30.2082"/>
<polygon fill="midnightblue" stroke="midnightblue" points="1037.49,-33.1993 1044.25,-25.0368 1033.88,-27.2054 1037.49,-33.1993"/>
</g>
<!-- Node19&#45;&gt;Node14 -->
<g id="edge25" class="edge"><title>Node19&#45;&gt;Node14</title>
<path fill="none" stroke="midnightblue" d="M895.736,-128.858C867.452,-110.459 803.342,-68.9269 798,-67 731.083,-42.8619 517.204,-25.028 434.288,-18.8574"/>
<polygon fill="midnightblue" stroke="midnightblue" points="434.393,-15.3557 424.163,-18.1136 433.88,-22.3369 434.393,-15.3557"/>
</g>
<!-- Node19&#45;&gt;Node18 -->
<g id="edge30" class="edge"><title>Node19&#45;&gt;Node18</title>
<path fill="none" stroke="midnightblue" d="M865.908,-129.537C801.889,-117.708 682.811,-95.7042 623.1,-84.6707"/>
<polygon fill="midnightblue" stroke="midnightblue" points="623.482,-81.182 613.012,-82.8066 622.21,-88.0654 623.482,-81.182"/>
</g>
<!-- Node20 -->
<g id="node20" class="node"><title>Node20</title>
<polygon fill="none" stroke="#bfbfbf" points="883,-67.5 883,-86.5 935,-86.5 935,-67.5 883,-67.5"/>
<text text-anchor="middle" x="909" y="-74.5" font-family="Helvetica,sans-Serif" font-size="10.00">memory</text>
</g>
<!-- Node19&#45;&gt;Node20 -->
<g id="edge27" class="edge"><title>Node19&#45;&gt;Node20</title>
<path fill="none" stroke="midnightblue" d="M909,-128.975C909,-120.58 909,-107.481 909,-96.6631"/>
<polygon fill="midnightblue" stroke="midnightblue" points="912.5,-96.5091 909,-86.5091 905.5,-96.5091 912.5,-96.5091"/>
</g>
<!-- Node21 -->
<g id="node21" class="node"><title>Node21</title>
<polygon fill="none" stroke="#bfbfbf" points="1068.5,-67.5 1068.5,-86.5 1127.5,-86.5 1127.5,-67.5 1068.5,-67.5"/>
<text text-anchor="middle" x="1098" y="-74.5" font-family="Helvetica,sans-Serif" font-size="10.00">stdexcept</text>
</g>
<!-- Node19&#45;&gt;Node21 -->
<g id="edge28" class="edge"><title>Node19&#45;&gt;Node21</title>
<path fill="none" stroke="midnightblue" d="M936.079,-128.975C968.92,-118.636 1024.43,-101.161 1061.15,-89.6017"/>
<polygon fill="midnightblue" stroke="midnightblue" points="1062.48,-92.8505 1070.97,-86.5091 1060.38,-86.1735 1062.48,-92.8505"/>
</g>
<!-- Node22 -->
<g id="node22" class="node"><title>Node22</title>
<g id="a_node22"><a xlink:href="color_8hpp.html" target="_top" xlink:title="color.hpp">
<polygon fill="none" stroke="black" points="1222,-67.5 1222,-86.5 1278,-86.5 1278,-67.5 1222,-67.5"/>
<text text-anchor="middle" x="1250" y="-74.5" font-family="Helvetica,sans-Serif" font-size="10.00">color.hpp</text>
</a>
</g>
</g>
<!-- Node19&#45;&gt;Node22 -->
<g id="edge33" class="edge"><title>Node19&#45;&gt;Node22</title>
<path fill="none" stroke="midnightblue" d="M952.188,-129.964C1019.41,-118.234 1147.99,-95.7989 1211.94,-84.6413"/>
<polygon fill="midnightblue" stroke="midnightblue" points="1212.75,-88.0534 1221.99,-82.8865 1211.54,-81.1576 1212.75,-88.0534"/>
</g>
<!-- Node22&#45;&gt;Node13 -->
<g id="edge37" class="edge"><title>Node22&#45;&gt;Node13</title>
<path fill="none" stroke="midnightblue" d="M1222.63,-67.4751C1187.28,-56.4606 1125.92,-37.3469 1089.22,-25.9152"/>
<polygon fill="midnightblue" stroke="midnightblue" points="1090.16,-22.5404 1079.57,-22.9077 1088.08,-29.2236 1090.16,-22.5404"/>
</g>
<!-- Node22&#45;&gt;Node14 -->
<g id="edge35" class="edge"><title>Node22&#45;&gt;Node14</title>
<path fill="none" stroke="midnightblue" d="M1221.9,-73.6981C1198.83,-71.8285 1165.3,-69.1575 1136,-67 901.866,-49.7613 843.211,-47.1632 609,-31 547.209,-26.7357 475.097,-21.6941 434.065,-18.8193"/>
<polygon fill="midnightblue" stroke="midnightblue" points="434.304,-15.3276 424.084,-18.1198 433.815,-22.3104 434.304,-15.3276"/>
</g>
<!-- Node23 -->
<g id="node23" class="node"><title>Node23</title>
<polygon fill="none" stroke="#bfbfbf" points="1195,-6 1195,-25 1241,-25 1241,-6 1195,-6"/>
<text text-anchor="middle" x="1218" y="-13" font-family="Helvetica,sans-Serif" font-size="10.00">cctype</text>
</g>
<!-- Node22&#45;&gt;Node23 -->
<g id="edge34" class="edge"><title>Node22&#45;&gt;Node23</title>
<path fill="none" stroke="midnightblue" d="M1245.42,-67.4751C1240.76,-58.8152 1233.41,-45.1486 1227.49,-34.1453"/>
<polygon fill="midnightblue" stroke="midnightblue" points="1230.4,-32.1584 1222.58,-25.0091 1224.23,-35.474 1230.4,-32.1584"/>
</g>
<!-- Node24 -->
<g id="node24" class="node"><title>Node24</title>
<polygon fill="none" stroke="#bfbfbf" points="1259.5,-6 1259.5,-25 1304.5,-25 1304.5,-6 1259.5,-6"/>
<text text-anchor="middle" x="1282" y="-13" font-family="Helvetica,sans-Serif" font-size="10.00">cstdlib</text>
</g>
<!-- Node22&#45;&gt;Node24 -->
<g id="edge36" class="edge"><title>Node22&#45;&gt;Node24</title>
<path fill="none" stroke="midnightblue" d="M1254.58,-67.4751C1259.24,-58.8152 1266.59,-45.1486 1272.51,-34.1453"/>
<polygon fill="midnightblue" stroke="midnightblue" points="1275.77,-35.474 1277.42,-25.0091 1269.6,-32.1584 1275.77,-35.474"/>
</g>
<!-- Node25&#45;&gt;Node5 -->
<g id="edge41" class="edge"><title>Node25&#45;&gt;Node5</title>
<path fill="none" stroke="midnightblue" d="M1217.39,-190.475C1200.65,-180.711 1173,-164.581 1153.28,-153.081"/>
<polygon fill="midnightblue" stroke="midnightblue" points="1154.99,-150.025 1144.59,-148.009 1151.46,-156.071 1154.99,-150.025"/>
</g>
<!-- Node25&#45;&gt;Node8 -->
<g id="edge44" class="edge"><title>Node25&#45;&gt;Node8</title>
<path fill="none" stroke="midnightblue" d="M1229.01,-190.253C1219.86,-165.127 1189.58,-92.886 1136,-67 1062.23,-31.3583 819.698,-20.6618 712.15,-17.628"/>
<polygon fill="midnightblue" stroke="midnightblue" points="711.957,-14.1216 701.866,-17.3498 711.768,-21.1191 711.957,-14.1216"/>
</g>
<!-- Node25&#45;&gt;Node12 -->
<g id="edge52" class="edge"><title>Node25&#45;&gt;Node12</title>
<path fill="none" stroke="midnightblue" d="M1187.48,-198.271C1006.51,-195.131 331.317,-181.653 240,-154 197.941,-141.264 155.512,-111.327 132.202,-93.0573"/>
<polygon fill="midnightblue" stroke="midnightblue" points="134.239,-90.2044 124.245,-86.6866 129.864,-95.6688 134.239,-90.2044"/>
</g>
<!-- Node25&#45;&gt;Node13 -->
<g id="edge43" class="edge"><title>Node25&#45;&gt;Node13</title>
<path fill="none" stroke="midnightblue" d="M1276.74,-197.704C1345.99,-193.946 1467.36,-179.368 1429,-123 1390.04,-65.7513 1171.77,-31.4077 1089.96,-20.394"/>
<polygon fill="midnightblue" stroke="midnightblue" points="1090.17,-16.8911 1079.8,-19.0516 1089.26,-23.8308 1090.17,-16.8911"/>
</g>
<!-- Node25&#45;&gt;Node19 -->
<g id="edge51" class="edge"><title>Node25&#45;&gt;Node19</title>
<path fill="none" stroke="midnightblue" d="M1187.43,-190.789C1128.57,-179.948 1025.07,-160.882 962.194,-149.299"/>
<polygon fill="midnightblue" stroke="midnightblue" points="962.554,-145.806 952.086,-147.437 961.286,-152.691 962.554,-145.806"/>
</g>
<!-- Node25&#45;&gt;Node21 -->
<g id="edge42" class="edge"><title>Node25&#45;&gt;Node21</title>
<path fill="none" stroke="midnightblue" d="M1225.04,-190.499C1212.85,-175.876 1186.52,-145.379 1161,-123 1148.15,-111.734 1132.52,-100.559 1120.05,-92.1632"/>
<polygon fill="midnightblue" stroke="midnightblue" points="1121.88,-89.177 1111.61,-86.5795 1118.02,-95.0155 1121.88,-89.177"/>
</g>
<!-- Node26 -->
<g id="node26" class="node"><title>Node26</title>
<polygon fill="none" stroke="#bfbfbf" points="1246,-129 1246,-148 1296,-148 1296,-129 1246,-129"/>
<text text-anchor="middle" x="1271" y="-136" font-family="Helvetica,sans-Serif" font-size="10.00">iomanip</text>
</g>
<!-- Node25&#45;&gt;Node26 -->
<g id="edge39" class="edge"><title>Node25&#45;&gt;Node26</title>
<path fill="none" stroke="midnightblue" d="M1237.59,-190.475C1243.38,-181.638 1252.59,-167.589 1259.87,-156.475"/>
<polygon fill="midnightblue" stroke="midnightblue" points="1262.87,-158.291 1265.42,-148.009 1257.01,-154.454 1262.87,-158.291"/>
</g>
<!-- Node27 -->
<g id="node27" class="node"><title>Node27</title>
<polygon fill="none" stroke="#bfbfbf" points="1568,-67.5 1568,-86.5 1622,-86.5 1622,-67.5 1568,-67.5"/>
<text text-anchor="middle" x="1595" y="-74.5" font-family="Helvetica,sans-Serif" font-size="10.00">iostream</text>
</g>
<!-- Node25&#45;&gt;Node27 -->
<g id="edge40" class="edge"><title>Node25&#45;&gt;Node27</title>
<path fill="none" stroke="midnightblue" d="M1276.56,-197.734C1354.38,-194.73 1510.99,-184.917 1555,-154 1574.4,-140.373 1585.13,-114.355 1590.48,-96.5958"/>
<polygon fill="midnightblue" stroke="midnightblue" points="1593.9,-97.3573 1593.14,-86.7896 1587.14,-95.5227 1593.9,-97.3573"/>
</g>
<!-- Node28 -->
<g id="node28" class="node"><title>Node28</title>
<polygon fill="none" stroke="#bfbfbf" points="1314.5,-123.5 1314.5,-153.5 1419.5,-153.5 1419.5,-123.5 1314.5,-123.5"/>
<text text-anchor="start" x="1322.5" y="-141.5" font-family="Helvetica,sans-Serif" font-size="10.00">boost/chrono/io/time</text>
<text text-anchor="middle" x="1367" y="-130.5" font-family="Helvetica,sans-Serif" font-size="10.00">_point_io.hpp</text>
</g>
<!-- Node25&#45;&gt;Node28 -->
<g id="edge45" class="edge"><title>Node25&#45;&gt;Node28</title>
<path fill="none" stroke="midnightblue" d="M1251.34,-190.475C1270.74,-181.927 1301.2,-168.501 1325.99,-157.573"/>
<polygon fill="midnightblue" stroke="midnightblue" points="1327.44,-160.759 1335.18,-153.523 1324.62,-154.353 1327.44,-160.759"/>
</g>
<!-- Node29 -->
<g id="node29" class="node"><title>Node29</title>
<g id="a_node29"><a xlink:href="multibuf_8hpp.html" target="_top" xlink:title="multibuf.hpp">
<polygon fill="none" stroke="black" points="1476,-129 1476,-148 1546,-148 1546,-129 1476,-129"/>
<text text-anchor="middle" x="1511" y="-136" font-family="Helvetica,sans-Serif" font-size="10.00">multibuf.hpp</text>
</a>
</g>
</g>
<!-- Node25&#45;&gt;Node29 -->
<g id="edge46" class="edge"><title>Node25&#45;&gt;Node29</title>
<path fill="none" stroke="midnightblue" d="M1276.8,-191.529C1323.35,-183.463 1398.18,-169.649 1462,-154 1465.91,-153.041 1469.98,-151.966 1474.02,-150.847"/>
<polygon fill="midnightblue" stroke="midnightblue" points="1475.26,-154.131 1483.91,-148.013 1473.33,-147.402 1475.26,-154.131"/>
</g>
<!-- Node29&#45;&gt;Node11 -->
<g id="edge49" class="edge"><title>Node29&#45;&gt;Node11</title>
<path fill="none" stroke="midnightblue" d="M1475.61,-130.362C1461.2,-127.687 1444.36,-124.85 1429,-123 1183.59,-93.4342 1120.5,-105.36 874,-87 848.872,-85.1285 820.451,-82.7243 799.218,-80.8717"/>
<polygon fill="midnightblue" stroke="midnightblue" points="799.39,-77.3734 789.122,-79.9851 798.778,-84.3466 799.39,-77.3734"/>
</g>
<!-- Node29&#45;&gt;Node13 -->
<g id="edge50" class="edge"><title>Node29&#45;&gt;Node13</title>
<path fill="none" stroke="midnightblue" d="M1506.1,-128.759C1496.93,-113.336 1475.59,-81.5484 1448,-67 1440.05,-62.8073 1180.54,-31.1709 1089.88,-20.2184"/>
<polygon fill="midnightblue" stroke="midnightblue" points="1090.04,-16.7121 1079.69,-18.9885 1089.2,-23.6616 1090.04,-16.7121"/>
</g>
<!-- Node29&#45;&gt;Node27 -->
<g id="edge47" class="edge"><title>Node29&#45;&gt;Node27</title>
<path fill="none" stroke="midnightblue" d="M1523.04,-128.975C1536.51,-119.431 1558.57,-103.807 1574.72,-92.3683"/>
<polygon fill="midnightblue" stroke="midnightblue" points="1576.85,-95.1454 1582.99,-86.5091 1572.8,-89.4332 1576.85,-95.1454"/>
</g>
<!-- Node30 -->
<g id="node30" class="node"><title>Node30</title>
<polygon fill="none" stroke="#bfbfbf" points="1500,-67.5 1500,-86.5 1550,-86.5 1550,-67.5 1500,-67.5"/>
<text text-anchor="middle" x="1525" y="-74.5" font-family="Helvetica,sans-Serif" font-size="10.00">fstream</text>
</g>
<!-- Node29&#45;&gt;Node30 -->
<g id="edge48" class="edge"><title>Node29&#45;&gt;Node30</title>
<path fill="none" stroke="midnightblue" d="M1513.01,-128.975C1515,-120.492 1518.13,-107.204 1520.69,-96.3222"/>
<polygon fill="midnightblue" stroke="midnightblue" points="1524.11,-97.0449 1523,-86.5091 1517.3,-95.4416 1524.11,-97.0449"/>
</g>
<!-- Node31&#45;&gt;Node13 -->
<g id="edge58" class="edge"><title>Node31&#45;&gt;Node13</title>
<path fill="none" stroke="midnightblue" d="M341.555,-128.905C394.322,-111.943 510.827,-75.0981 552,-67 729.809,-32.0278 947.718,-20.6884 1027.68,-17.5537"/>
<polygon fill="midnightblue" stroke="midnightblue" points="1028.16,-21.0379 1038.03,-17.1642 1027.9,-14.0429 1028.16,-21.0379"/>
</g>
<!-- Node31&#45;&gt;Node18 -->
<g id="edge57" class="edge"><title>Node31&#45;&gt;Node18</title>
<path fill="none" stroke="midnightblue" d="M353.971,-128.975C406.606,-117.461 499.699,-97.0971 550.844,-85.9092"/>
<polygon fill="midnightblue" stroke="midnightblue" points="551.769,-89.2896 560.79,-83.7334 550.273,-82.4513 551.769,-89.2896"/>
</g>
<!-- Node32 -->
<g id="node32" class="node"><title>Node32</title>
<polygon fill="none" stroke="#bfbfbf" points="345,-67.5 345,-86.5 401,-86.5 401,-67.5 345,-67.5"/>
<text text-anchor="middle" x="373" y="-74.5" font-family="Helvetica,sans-Serif" font-size="10.00">algorithm</text>
</g>
<!-- Node31&#45;&gt;Node32 -->
<g id="edge54" class="edge"><title>Node31&#45;&gt;Node32</title>
<path fill="none" stroke="midnightblue" d="M323.31,-128.975C332.182,-119.873 346.446,-105.241 357.42,-93.983"/>
<polygon fill="midnightblue" stroke="midnightblue" points="360.231,-96.113 364.705,-86.5091 355.219,-91.2268 360.231,-96.113"/>
</g>
<!-- Node33 -->
<g id="node33" class="node"><title>Node33</title>
<polygon fill="none" stroke="#bfbfbf" points="419.5,-67.5 419.5,-86.5 466.5,-86.5 466.5,-67.5 419.5,-67.5"/>
<text text-anchor="middle" x="443" y="-74.5" font-family="Helvetica,sans-Serif" font-size="10.00">iterator</text>
</g>
<!-- Node31&#45;&gt;Node33 -->
<g id="edge55" class="edge"><title>Node31&#45;&gt;Node33</title>
<path fill="none" stroke="midnightblue" d="M333.339,-128.975C354.821,-118.99 390.622,-102.348 415.448,-90.8075"/>
<polygon fill="midnightblue" stroke="midnightblue" points="417.102,-93.8983 424.695,-86.5091 414.151,-87.5506 417.102,-93.8983"/>
</g>
<!-- Node34 -->
<g id="node34" class="node"><title>Node34</title>
<polygon fill="none" stroke="#bfbfbf" points="205.5,-67.5 205.5,-86.5 246.5,-86.5 246.5,-67.5 205.5,-67.5"/>
<text text-anchor="middle" x="226" y="-74.5" font-family="Helvetica,sans-Serif" font-size="10.00">regex</text>
</g>
<!-- Node31&#45;&gt;Node34 -->
<g id="edge56" class="edge"><title>Node31&#45;&gt;Node34</title>
<path fill="none" stroke="midnightblue" d="M302.248,-128.975C287.973,-119.431 264.603,-103.807 247.492,-92.3683"/>
<polygon fill="midnightblue" stroke="midnightblue" points="248.986,-89.1572 238.728,-86.5091 245.096,-94.9766 248.986,-89.1572"/>
</g>
<!-- Node35 -->
<g id="node35" class="node"><title>Node35</title>
<polygon fill="none" stroke="#bfbfbf" points="265,-67.5 265,-86.5 327,-86.5 327,-67.5 265,-67.5"/>
<text text-anchor="middle" x="296" y="-74.5" font-family="Helvetica,sans-Serif" font-size="10.00">type_traits</text>
</g>
<!-- Node31&#45;&gt;Node35 -->
<g id="edge59" class="edge"><title>Node31&#45;&gt;Node35</title>
<path fill="none" stroke="midnightblue" d="M312.278,-128.975C309.569,-120.492 305.326,-107.204 301.851,-96.3222"/>
<polygon fill="midnightblue" stroke="midnightblue" points="305.093,-94.9705 298.717,-86.5091 298.425,-97.0999 305.093,-94.9705"/>
</g>
<!-- Node36&#45;&gt;Node8 -->
<g id="edge61" class="edge"><title>Node36&#45;&gt;Node8</title>
<path fill="none" stroke="midnightblue" d="M641.699,-246.229C644.463,-211.529 654.671,-83.3919 658.519,-35.0882"/>
<polygon fill="midnightblue" stroke="midnightblue" points="662.01,-35.3458 659.315,-25.0994 655.032,-34.7899 662.01,-35.3458"/>
</g>
<!-- Node37 -->
<g id="node37" class="node"><title>Node37</title>
<g id="a_node37"><a xlink:href="user__group_8hpp.html" target="_top" xlink:title="user_group.hpp">
<polygon fill="none" stroke="black" points="707.5,-190.5 707.5,-209.5 790.5,-209.5 790.5,-190.5 707.5,-190.5"/>
<text text-anchor="middle" x="749" y="-197.5" font-family="Helvetica,sans-Serif" font-size="10.00">user_group.hpp</text>
</a>
</g>
</g>
<!-- Node36&#45;&gt;Node37 -->
<g id="edge62" class="edge"><title>Node36&#45;&gt;Node37</title>
<path fill="none" stroke="midnightblue" d="M658.352,-246.324C675.672,-237.664 702.515,-224.242 722.502,-214.249"/>
<polygon fill="midnightblue" stroke="midnightblue" points="724.312,-217.257 731.691,-209.655 721.181,-210.996 724.312,-217.257"/>
</g>
<!-- Node37&#45;&gt;Node11 -->
<g id="edge63" class="edge"><title>Node37&#45;&gt;Node11</title>
<path fill="none" stroke="midnightblue" d="M750.295,-190.298C753.201,-170.763 760.296,-123.065 764.241,-96.5471"/>
<polygon fill="midnightblue" stroke="midnightblue" points="767.708,-97.0294 765.717,-86.6232 760.784,-95.9993 767.708,-97.0294"/>
</g>
<!-- Node38 -->
<g id="node38" class="node"><title>Node38</title>
<g id="a_node38"><a xlink:href="user_8hpp.html" target="_top" xlink:title="user.hpp">
<polygon fill="none" stroke="black" points="677,-129 677,-148 731,-148 731,-129 677,-129"/>
<text text-anchor="middle" x="704" y="-136" font-family="Helvetica,sans-Serif" font-size="10.00">user.hpp</text>
</a>
</g>
</g>
<!-- Node37&#45;&gt;Node38 -->
<g id="edge64" class="edge"><title>Node37&#45;&gt;Node38</title>
<path fill="none" stroke="midnightblue" d="M742.553,-190.475C735.803,-181.55 725.031,-167.307 716.587,-156.143"/>
<polygon fill="midnightblue" stroke="midnightblue" points="719.259,-153.874 710.435,-148.009 713.676,-158.096 719.259,-153.874"/>
</g>
<!-- Node38&#45;&gt;Node8 -->
<g id="edge67" class="edge"><title>Node38&#45;&gt;Node8</title>
<path fill="none" stroke="midnightblue" d="M700.836,-128.798C693.7,-109.176 676.232,-61.1382 666.616,-34.6933"/>
<polygon fill="midnightblue" stroke="midnightblue" points="669.842,-33.325 663.136,-25.1232 663.264,-35.7172 669.842,-33.325"/>
</g>
<!-- Node38&#45;&gt;Node11 -->
<g id="edge66" class="edge"><title>Node38&#45;&gt;Node11</title>
<path fill="none" stroke="midnightblue" d="M713.026,-128.975C722.757,-119.785 738.458,-104.956 750.423,-93.656"/>
<polygon fill="midnightblue" stroke="midnightblue" points="753.123,-95.9199 757.99,-86.5091 748.317,-90.8308 753.123,-95.9199"/>
</g>
<!-- Node38&#45;&gt;Node12 -->
<g id="edge68" class="edge"><title>Node38&#45;&gt;Node12</title>
<path fill="none" stroke="midnightblue" d="M676.731,-134.888C600.646,-127.58 379.569,-106.198 196,-87 184.102,-85.7557 171.238,-84.3652 159.305,-83.0564"/>
<polygon fill="midnightblue" stroke="midnightblue" points="159.43,-79.549 149.106,-81.933 158.663,-86.5069 159.43,-79.549"/>
</g>
<!-- Node38&#45;&gt;Node13 -->
<g id="edge65" class="edge"><title>Node38&#45;&gt;Node13</title>
<path fill="none" stroke="midnightblue" d="M705.23,-128.94C707.889,-113.803 715.667,-82.4536 736,-67 781.667,-32.291 956.575,-20.9098 1028.17,-17.6567"/>
<polygon fill="midnightblue" stroke="midnightblue" points="1028.51,-21.1455 1038.35,-17.218 1028.21,-14.152 1028.51,-21.1455"/>
</g>
<!-- Node39&#45;&gt;Node38 -->
<g id="edge70" class="edge"><title>Node39&#45;&gt;Node38</title>
<path fill="none" stroke="midnightblue" d="M461.693,-246.319C507.514,-226.119 621.452,-175.891 675.142,-152.222"/>
<polygon fill="midnightblue" stroke="midnightblue" points="676.698,-155.361 684.436,-148.124 673.874,-148.956 676.698,-155.361"/>
</g>
<!-- Node40 -->
<g id="node40" class="node"><title>Node40</title>
<polygon fill="none" stroke="#bfbfbf" points="427.5,-190.5 427.5,-209.5 456.5,-209.5 456.5,-190.5 427.5,-190.5"/>
<text text-anchor="middle" x="442" y="-197.5" font-family="Helvetica,sans-Serif" font-size="10.00">list</text>
</g>
<!-- Node39&#45;&gt;Node40 -->
<g id="edge71" class="edge"><title>Node39&#45;&gt;Node40</title>
<path fill="none" stroke="midnightblue" d="M442,-246.083C442,-239.006 442,-228.861 442,-219.986"/>
<polygon fill="midnightblue" stroke="midnightblue" points="445.5,-219.751 442,-209.751 438.5,-219.751 445.5,-219.751"/>
</g>
<!-- Node41&#45;&gt;Node12 -->
<g id="edge73" class="edge"><title>Node41&#45;&gt;Node12</title>
<path fill="none" stroke="midnightblue" d="M137.202,-190.298C133.166,-170.763 123.311,-123.065 117.832,-96.5471"/>
<polygon fill="midnightblue" stroke="midnightblue" points="121.233,-95.7081 115.782,-86.6232 114.377,-97.1245 121.233,-95.7081"/>
</g>
<!-- Node42&#45;&gt;Node7 -->
<g id="edge79" class="edge"><title>Node42&#45;&gt;Node7</title>
<path fill="none" stroke="midnightblue" d="M1126.87,-358.083C1123.49,-350.77 1118.58,-340.181 1114.38,-331.103"/>
<polygon fill="midnightblue" stroke="midnightblue" points="1117.43,-329.355 1110.05,-321.751 1111.08,-332.296 1117.43,-329.355"/>
</g>
<!-- Node42&#45;&gt;Node9 -->
<g id="edge81" class="edge"><title>Node42&#45;&gt;Node9</title>
<path fill="none" stroke="midnightblue" d="M1104.7,-358.444C1076.65,-349.32 1032.06,-334.813 1000.82,-324.651"/>
<polygon fill="midnightblue" stroke="midnightblue" points="1001.77,-321.282 991.18,-321.516 999.607,-327.938 1001.77,-321.282"/>
</g>
<!-- Node42&#45;&gt;Node10 -->
<g id="edge77" class="edge"><title>Node42&#45;&gt;Node10</title>
<path fill="none" stroke="midnightblue" d="M1133.43,-358.475C1138.76,-338.263 1149.93,-286.121 1136,-246 1119.15,-197.463 1094.69,-196.621 1066,-154 1052.93,-134.592 1039.46,-111.321 1030.7,-95.6868"/>
<polygon fill="midnightblue" stroke="midnightblue" points="1033.59,-93.6807 1025.68,-86.6327 1027.47,-97.0754 1033.59,-93.6807"/>
</g>
<!-- Node42&#45;&gt;Node13 -->
<g id="edge78" class="edge"><title>Node42&#45;&gt;Node13</title>
<path fill="none" stroke="midnightblue" d="M1137.63,-358.275C1143.77,-349.607 1152.46,-335.669 1156,-322 1159.73,-307.622 1158.97,-266.803 1153,-246 1145.15,-218.656 1136.55,-214.443 1122,-190 1112.29,-173.686 1104.32,-172.225 1099,-154 1095.14,-140.775 1093.64,-135.693 1099,-123 1107.93,-101.863 1127.07,-108.137 1136,-87 1139.46,-78.8112 1140.22,-74.8213 1136,-67 1126.09,-48.6564 1106.3,-35.8971 1089.26,-27.7928"/>
<polygon fill="midnightblue" stroke="midnightblue" points="1090.21,-24.3842 1079.64,-23.552 1087.38,-30.7891 1090.21,-24.3842"/>
</g>
<!-- Node42&#45;&gt;Node25 -->
<g id="edge80" class="edge"><title>Node42&#45;&gt;Node25</title>
<path fill="none" stroke="midnightblue" d="M1156.73,-358.379C1173.89,-351.291 1195.51,-339.531 1208,-322 1229.98,-291.14 1233.04,-245.149 1232.84,-219.676"/>
<polygon fill="midnightblue" stroke="midnightblue" points="1236.33,-219.448 1232.57,-209.544 1229.33,-219.633 1236.33,-219.448"/>
</g>
</g>
</svg>
        <g id="navigator" transform="translate(0 0)" fill="#404254">
                <rect fill="#f2f5e9" fill-opacity="0.5" stroke="#606060" stroke-width=".5" x="0" y="0" width="60" height="60"/>
                <use id="zoomplus" xlink:href="#zoomPlus" x="17" y="9" onmousedown="handleZoom(evt,'in')"/>
                <use id="zoomminus" xlink:href="#zoomMin" x="42" y="9" onmousedown="handleZoom(evt,'out')"/>
                <use id="reset" xlink:href="#resetDef" x="30" y="36" onmousedown="handleReset()"/>
                <g id="arrowUp" xlink:href="#dirArrow" transform="translate(30 24)" onmousedown="handlePan(0,-1)">
                  <use xlink:href="#rim" fill="#404040">
                        <set attributeName="fill" to="#808080" begin="arrowUp.mouseover" end="arrowUp.mouseout"/>
                  </use>
                  <path fill="none" stroke="white" stroke-width="1.5" d="M0,-3.0v7 M-2.5,-0.5L0,-3.0L2.5,-0.5"/>
                </g>
                <g id="arrowRight" xlink:href="#dirArrow" transform="rotate(90) translate(36 -43)" onmousedown="handlePan(1,0)">
                  <use xlink:href="#rim" fill="#404040">
                        <set attributeName="fill" to="#808080" begin="arrowRight.mouseover" end="arrowRight.mouseout"/>
                  </use>
                  <path fill="none" stroke="white" stroke-width="1.5" d="M0,-3.0v7 M-2.5,-0.5L0,-3.0L2.5,-0.5"/>
                </g>
                <g id="arrowDown" xlink:href="#dirArrow" transform="rotate(180) translate(-30 -48)" onmousedown="handlePan(0,1)">
                  <use xlink:href="#rim" fill="#404040">
                        <set attributeName="fill" to="#808080" begin="arrowDown.mouseover" end="arrowDown.mouseout"/>
                  </use>
                  <path fill="none" stroke="white" stroke-width="1.5" d="M0,-3.0v7 M-2.5,-0.5L0,-3.0L2.5,-0.5"/>
                </g>
                <g id="arrowLeft" xlink:href="#dirArrow" transform="rotate(270) translate(-36 17)" onmousedown="handlePan(-1,0)">
                  <use xlink:href="#rim" fill="#404040">
                        <set attributeName="fill" to="#808080" begin="arrowLeft.mouseover" end="arrowLeft.mouseout"/>
                  </use>
                  <path fill="none" stroke="white" stroke-width="1.5" d="M0,-3.0v7 M-2.5,-0.5L0,-3.0L2.5,-0.5"/>
                </g>
        </g>
        <svg viewBox="0 0 15 15" width="100%" height="30px" preserveAspectRatio="xMaxYMin meet">
         <g id="arrow_out" transform="scale(0.3 0.3)">
          <a xlink:href="main_8cpp__incl_org.svg" target="_base">
           <rect id="button" ry="5" rx="5" y="6" x="6" height="38" width="38"
                fill="#f2f5e9" fill-opacity="0.5" stroke="#606060" stroke-width="1.0"/>
           <path id="arrow"
             d="M 11.500037,31.436501 C 11.940474,20.09759 22.043105,11.32322 32.158766,21.979434 L 37.068811,17.246167 C 37.068811,17.246167 37.088388,32 37.088388,32 L 22.160133,31.978069 C 22.160133,31.978069 26.997745,27.140456 26.997745,27.140456 C 18.528582,18.264221 13.291696,25.230495 11.500037,31.436501 z"
             style="fill:#404040;"/>
          </a>
         </g>
        </svg>
</svg>
