<?xml version="1.0" encoding="UTF-8" standalone="no"?>
<!DOCTYPE svg PUBLIC "-//W3C//DTD SVG 1.1//EN"
 "http://www.w3.org/Graphics/SVG/1.1/DTD/svg11.dtd">
<!-- Generated by graphviz version 2.38.0 (20140413.2041)
 -->
<!-- Title: src/main.cpp Pages: 1 -->
<!--zoomable 386 -->
<svg id="main" version="1.1" xmlns="http://www.w3.org/2000/svg" xmlns:xlink="http://www.w3.org/1999/xlink" xml:space="preserve" onload="init(evt)">
<style type="text/css"><![CDATA[
.edge:hover path { stroke: red; }
.edge:hover polygon { stroke: red; fill: red; }
]]></style>
<script type="text/javascript"><![CDATA[
var edges = document.getElementsByTagName('g');
if (edges && edges.length) {
  for (var i=0;i<edges.length;i++) {
    if (edges[i].id.substr(0,4)=='edge') {
      edges[i].setAttribute('class','edge');
    }
  }
}
]]></script>
        <defs>
                <circle id="rim" cx="0" cy="0" r="7"/>
                <circle id="rim2" cx="0" cy="0" r="3.5"/>
                <g id="zoomPlus">
                        <use xlink:href="#rim" fill="#404040">
                                <set attributeName="fill" to="#808080" begin="zoomplus.mouseover" end="zoomplus.mouseout"/>
                        </use>
                        <path d="M-4,0h8M0,-4v8" fill="none" stroke="white" stroke-width="1.5" pointer-events="none"/>
                </g>
                <g id="zoomMin">
                        <use xlink:href="#rim" fill="#404040">
                                <set attributeName="fill" to="#808080" begin="zoomminus.mouseover" end="zoomminus.mouseout"/>
                        </use>
                        <path d="M-4,0h8" fill="none" stroke="white" stroke-width="1.5" pointer-events="none"/>
                </g>
                <g id="dirArrow">
                        <path fill="none" stroke="white" stroke-width="1.5" d="M0,-3.0v7 M-2.5,-0.5L0,-3.0L2.5,-0.5"/>
                </g>
               <g id="resetDef">
                       <use xlink:href="#rim2" fill="#404040">
                               <set attributeName="fill" to="#808080" begin="reset.mouseover" end="reset.mouseout"/>
                       </use>
               </g>
        </defs>

<script type="text/javascript">
var viewWidth = 1273;
var viewHeight = 386;
var sectionId = 'dynsection-0';
</script>
<script xlink:href="svgpan.js"/>
<svg id="graph" class="graph">
<g id="viewport">
<title>src/main.cpp</title>
<!-- Node1 -->
<g id="node1" class="node"><title>Node1</title>
<polygon fill="#bfbfbf" stroke="black" points="604.517,-358.5 604.517,-377.5 677.517,-377.5 677.517,-358.5 604.517,-358.5"/>
<text text-anchor="middle" x="641.017" y="-365.5" font-family="Helvetica,sans-Serif" font-size="10.00">src/main.cpp</text>
</g>
<!-- Node2 -->
<g id="node2" class="node"><title>Node2</title>
<g id="a_node2"><a xlink:href="melanobot_8hpp.html" target="_top" xlink:title="melanobot.hpp">
<polygon fill="none" stroke="black" points="567.017,-302.5 567.017,-321.5 647.017,-321.5 647.017,-302.5 567.017,-302.5"/>
<text text-anchor="middle" x="607.017" y="-309.5" font-family="Helvetica,sans-Serif" font-size="10.00">melanobot.hpp</text>
</a>
</g>
</g>
<!-- Node1&#45;&gt;Node2 -->
<g id="edge1" class="edge"><title>Node1&#45;&gt;Node2</title>
<path fill="none" stroke="midnightblue" d="M635.403,-358.083C630.65,-350.534 623.699,-339.495 617.865,-330.23"/>
<polygon fill="midnightblue" stroke="midnightblue" points="620.817,-328.349 612.527,-321.751 614.893,-332.078 620.817,-328.349"/>
</g>
<!-- Node12 -->
<g id="node12" class="node"><title>Node12</title>
<g id="a_node12"><a xlink:href="settings_8hpp.html" target="_top" xlink:title="settings.hpp">
<polygon fill="none" stroke="black" points="76.0171,-129 76.0171,-148 146.017,-148 146.017,-129 76.0171,-129"/>
<text text-anchor="middle" x="111.017" y="-136" font-family="Helvetica,sans-Serif" font-size="10.00">settings.hpp</text>
</a>
</g>
</g>
<!-- Node1&#45;&gt;Node12 -->
<g id="edge65" class="edge"><title>Node1&#45;&gt;Node12</title>
<path fill="none" stroke="midnightblue" d="M604.281,-364.996C497.006,-358.39 187.338,-333.719 117.017,-266 88.0762,-238.13 97.3961,-185.589 105.1,-157.801"/>
<polygon fill="midnightblue" stroke="midnightblue" points="108.471,-158.743 107.989,-148.16 101.766,-156.734 108.471,-158.743"/>
</g>
<!-- Node25 -->
<g id="node25" class="node"><title>Node25</title>
<g id="a_node25"><a xlink:href="logger_8hpp.html" target="_top" xlink:title="string/logger.hpp">
<polygon fill="none" stroke="black" points="726.517,-190.5 726.517,-209.5 815.517,-209.5 815.517,-190.5 726.517,-190.5"/>
<text text-anchor="middle" x="771.017" y="-197.5" font-family="Helvetica,sans-Serif" font-size="10.00">string/logger.hpp</text>
</a>
</g>
</g>
<!-- Node1&#45;&gt;Node25 -->
<g id="edge64" class="edge"><title>Node1&#45;&gt;Node25</title>
<path fill="none" stroke="midnightblue" d="M648.006,-358.075C668.824,-331.493 730.656,-252.538 757.889,-217.763"/>
<polygon fill="midnightblue" stroke="midnightblue" points="760.897,-219.599 764.307,-209.568 755.386,-215.283 760.897,-219.599"/>
</g>
<!-- Node36 -->
<g id="node36" class="node"><title>Node36</title>
<g id="a_node36"><a xlink:href="async__service_8hpp.html" target="_top" xlink:title="network/async_service.hpp">
<polygon fill="none" stroke="black" points="828.017,-302.5 828.017,-321.5 964.017,-321.5 964.017,-302.5 828.017,-302.5"/>
<text text-anchor="middle" x="896.017" y="-309.5" font-family="Helvetica,sans-Serif" font-size="10.00">network/async_service.hpp</text>
</a>
</g>
</g>
<!-- Node1&#45;&gt;Node36 -->
<g id="edge66" class="edge"><title>Node1&#45;&gt;Node36</title>
<path fill="none" stroke="midnightblue" d="M677.552,-359.263C721.744,-349.905 796.356,-334.105 845.899,-323.613"/>
<polygon fill="midnightblue" stroke="midnightblue" points="846.705,-327.02 855.763,-321.524 845.255,-320.172 846.705,-327.02"/>
</g>
<!-- Node3 -->
<g id="node3" class="node"><title>Node3</title>
<polygon fill="none" stroke="#bfbfbf" points="624.017,-190.5 624.017,-209.5 670.017,-209.5 670.017,-190.5 624.017,-190.5"/>
<text text-anchor="middle" x="647.017" y="-197.5" font-family="Helvetica,sans-Serif" font-size="10.00">atomic</text>
</g>
<!-- Node2&#45;&gt;Node3 -->
<g id="edge2" class="edge"><title>Node2&#45;&gt;Node3</title>
<path fill="none" stroke="midnightblue" d="M608.433,-302.381C610.666,-289.734 615.537,-265.536 623.017,-246 626.618,-236.594 631.758,-226.663 636.357,-218.529"/>
<polygon fill="midnightblue" stroke="midnightblue" points="639.521,-220.054 641.56,-209.657 633.482,-216.512 639.521,-220.054"/>
</g>
<!-- Node4 -->
<g id="node4" class="node"><title>Node4</title>
<polygon fill="none" stroke="#bfbfbf" points="894.517,-190.5 894.517,-209.5 989.517,-209.5 989.517,-190.5 894.517,-190.5"/>
<text text-anchor="middle" x="942.017" y="-197.5" font-family="Helvetica,sans-Serif" font-size="10.00">condition_variable</text>
</g>
<!-- Node2&#45;&gt;Node4 -->
<g id="edge3" class="edge"><title>Node2&#45;&gt;Node4</title>
<path fill="none" stroke="midnightblue" d="M634.264,-302.406C659.876,-294.044 699.09,-280.508 732.017,-266 749.482,-258.305 752.225,-252.905 770.017,-246 808.647,-231.009 854.062,-219.365 888.522,-211.681"/>
<polygon fill="midnightblue" stroke="midnightblue" points="889.369,-215.079 898.39,-209.522 887.873,-208.24 889.369,-215.079"/>
</g>
<!-- Node5 -->
<g id="node5" class="node"><title>Node5</title>
<polygon fill="none" stroke="#bfbfbf" points="676.017,-129 676.017,-148 720.017,-148 720.017,-129 676.017,-129"/>
<text text-anchor="middle" x="698.017" y="-136" font-family="Helvetica,sans-Serif" font-size="10.00">mutex</text>
</g>
<!-- Node2&#45;&gt;Node5 -->
<g id="edge4" class="edge"><title>Node2&#45;&gt;Node5</title>
<path fill="none" stroke="midnightblue" d="M614.727,-302.488C629.358,-285.902 661.267,-247.579 679.017,-210 686.878,-193.359 691.933,-172.917 694.837,-158.339"/>
<polygon fill="midnightblue" stroke="midnightblue" points="698.356,-158.556 696.718,-148.088 691.471,-157.293 698.356,-158.556"/>
</g>
<!-- Node6 -->
<g id="node6" class="node"><title>Node6</title>
<polygon fill="none" stroke="#bfbfbf" points="833.517,-190.5 833.517,-209.5 876.517,-209.5 876.517,-190.5 833.517,-190.5"/>
<text text-anchor="middle" x="855.017" y="-197.5" font-family="Helvetica,sans-Serif" font-size="10.00">queue</text>
</g>
<!-- Node2&#45;&gt;Node6 -->
<g id="edge5" class="edge"><title>Node2&#45;&gt;Node6</title>
<path fill="none" stroke="midnightblue" d="M622.785,-302.477C647.003,-289.533 694.972,-264.474 737.017,-246 765.998,-233.266 799.821,-220.583 823.807,-211.943"/>
<polygon fill="midnightblue" stroke="midnightblue" points="825.203,-215.161 833.442,-208.499 822.847,-208.569 825.203,-215.161"/>
</g>
<!-- Node7 -->
<g id="node7" class="node"><title>Node7</title>
<polygon fill="none" stroke="#bfbfbf" points="779.017,-246.5 779.017,-265.5 823.017,-265.5 823.017,-246.5 779.017,-246.5"/>
<text text-anchor="middle" x="801.017" y="-253.5" font-family="Helvetica,sans-Serif" font-size="10.00">thread</text>
</g>
<!-- Node2&#45;&gt;Node7 -->
<g id="edge6" class="edge"><title>Node2&#45;&gt;Node7</title>
<path fill="none" stroke="midnightblue" d="M637.757,-302.444C673.542,-292.483 732.374,-276.107 768.785,-265.972"/>
<polygon fill="midnightblue" stroke="midnightblue" points="770.174,-269.218 778.869,-263.165 768.297,-262.475 770.174,-269.218"/>
</g>
<!-- Node8 -->
<g id="node8" class="node"><title>Node8</title>
<polygon fill="none" stroke="#bfbfbf" points="301.517,-0.5 301.517,-19.5 384.517,-19.5 384.517,-0.5 301.517,-0.5"/>
<text text-anchor="middle" x="343.017" y="-7.5" font-family="Helvetica,sans-Serif" font-size="10.00">unordered_map</text>
</g>
<!-- Node2&#45;&gt;Node8 -->
<g id="edge7" class="edge"><title>Node2&#45;&gt;Node8</title>
<path fill="none" stroke="midnightblue" d="M566.825,-307.62C514.838,-302.451 421.944,-290.485 346.017,-266 291.912,-248.552 265.12,-255.484 231.017,-210 189.578,-154.732 169.753,-112.13 210.017,-56 228.446,-30.3089 262.343,-19.0995 291.303,-14.2921"/>
<polygon fill="midnightblue" stroke="midnightblue" points="291.911,-17.7407 301.307,-12.8455 290.909,-10.8128 291.911,-17.7407"/>
</g>
<!-- Node9 -->
<g id="node9" class="node"><title>Node9</title>
<g id="a_node9"><a xlink:href="concurrent__container_8hpp.html" target="_top" xlink:title="concurrent_container.hpp">
<polygon fill="none" stroke="black" points="879.017,-246.5 879.017,-265.5 1005.02,-265.5 1005.02,-246.5 879.017,-246.5"/>
<text text-anchor="middle" x="942.017" y="-253.5" font-family="Helvetica,sans-Serif" font-size="10.00">concurrent_container.hpp</text>
</a>
</g>
</g>
<!-- Node2&#45;&gt;Node9 -->
<g id="edge8" class="edge"><title>Node2&#45;&gt;Node9</title>
<path fill="none" stroke="midnightblue" d="M647.093,-304.54C704.58,-295.273 811.003,-278.119 879.061,-267.148"/>
<polygon fill="midnightblue" stroke="midnightblue" points="879.911,-270.556 889.227,-265.509 878.797,-263.646 879.911,-270.556"/>
</g>
<!-- Node2&#45;&gt;Node12 -->
<g id="edge14" class="edge"><title>Node2&#45;&gt;Node12</title>
<path fill="none" stroke="midnightblue" d="M566.795,-309.889C458.473,-306.521 166.65,-294.836 135.017,-266 104.962,-238.602 105.504,-186.256 108.334,-158.259"/>
<polygon fill="midnightblue" stroke="midnightblue" points="111.824,-158.553 109.56,-148.203 104.875,-157.706 111.824,-158.553"/>
</g>
<!-- Node16 -->
<g id="node16" class="node"><title>Node16</title>
<g id="a_node16"><a xlink:href="connection_8hpp.html" target="_top" xlink:title="network/connection.hpp">
<polygon fill="none" stroke="black" points="355.017,-246.5 355.017,-265.5 475.017,-265.5 475.017,-246.5 355.017,-246.5"/>
<text text-anchor="middle" x="415.017" y="-253.5" font-family="Helvetica,sans-Serif" font-size="10.00">network/connection.hpp</text>
</a>
</g>
</g>
<!-- Node2&#45;&gt;Node16 -->
<g id="edge19" class="edge"><title>Node2&#45;&gt;Node16</title>
<path fill="none" stroke="midnightblue" d="M576.594,-302.444C543.732,-293.201 491.232,-278.436 455.043,-268.257"/>
<polygon fill="midnightblue" stroke="midnightblue" points="455.872,-264.855 445.298,-265.516 453.977,-271.593 455.872,-264.855"/>
</g>
<!-- Node9&#45;&gt;Node3 -->
<g id="edge9" class="edge"><title>Node9&#45;&gt;Node3</title>
<path fill="none" stroke="midnightblue" d="M895.273,-246.444C835.388,-235.481 733.058,-216.75 680.436,-207.117"/>
<polygon fill="midnightblue" stroke="midnightblue" points="680.765,-203.619 670.298,-205.262 679.504,-210.505 680.765,-203.619"/>
</g>
<!-- Node9&#45;&gt;Node4 -->
<g id="edge10" class="edge"><title>Node9&#45;&gt;Node4</title>
<path fill="none" stroke="midnightblue" d="M942.017,-246.083C942.017,-239.006 942.017,-228.861 942.017,-219.986"/>
<polygon fill="midnightblue" stroke="midnightblue" points="945.517,-219.751 942.017,-209.751 938.517,-219.751 945.517,-219.751"/>
</g>
<!-- Node9&#45;&gt;Node6 -->
<g id="edge12" class="edge"><title>Node9&#45;&gt;Node6</title>
<path fill="none" stroke="midnightblue" d="M928.039,-246.324C914.467,-237.9 893.637,-224.971 877.692,-215.074"/>
<polygon fill="midnightblue" stroke="midnightblue" points="879.303,-211.954 868.96,-209.655 875.611,-217.902 879.303,-211.954"/>
</g>
<!-- Node10 -->
<g id="node10" class="node"><title>Node10</title>
<polygon fill="none" stroke="#bfbfbf" points="1179.52,-62 1179.52,-81 1238.52,-81 1238.52,-62 1179.52,-62"/>
<text text-anchor="middle" x="1209.02" y="-69" font-family="Helvetica,sans-Serif" font-size="10.00">functional</text>
</g>
<!-- Node9&#45;&gt;Node10 -->
<g id="edge11" class="edge"><title>Node9&#45;&gt;Node10</title>
<path fill="none" stroke="midnightblue" d="M967.33,-246.418C1007.69,-231.888 1087.79,-199.521 1144.02,-154 1166.8,-135.551 1186.78,-107.814 1198.38,-89.9331"/>
<polygon fill="midnightblue" stroke="midnightblue" points="1201.55,-91.4605 1203.92,-81.1345 1195.63,-87.7278 1201.55,-91.4605"/>
</g>
<!-- Node11 -->
<g id="node11" class="node"><title>Node11</title>
<polygon fill="none" stroke="#bfbfbf" points="913.017,-0.5 913.017,-19.5 957.017,-19.5 957.017,-0.5 913.017,-0.5"/>
<text text-anchor="middle" x="935.017" y="-7.5" font-family="Helvetica,sans-Serif" font-size="10.00">vector</text>
</g>
<!-- Node9&#45;&gt;Node11 -->
<g id="edge13" class="edge"><title>Node9&#45;&gt;Node11</title>
<path fill="none" stroke="midnightblue" d="M982.135,-246.458C1082.83,-223.314 1332.29,-154.451 1247.02,-56 1211.06,-14.4878 1039.72,-10.4069 967.373,-10.581"/>
<polygon fill="midnightblue" stroke="midnightblue" points="967.026,-7.08271 957.045,-10.6369 967.064,-14.0826 967.026,-7.08271"/>
</g>
<!-- Node12&#45;&gt;Node8 -->
<g id="edge17" class="edge"><title>Node12&#45;&gt;Node8</title>
<path fill="none" stroke="midnightblue" d="M115.548,-128.867C124.779,-112.143 147.422,-75.2805 177.017,-56 211.401,-33.5996 256.71,-22.2812 291.303,-16.602"/>
<polygon fill="midnightblue" stroke="midnightblue" points="291.861,-20.0574 301.214,-15.0797 290.798,-13.1386 291.861,-20.0574"/>
</g>
<!-- Node13 -->
<g id="node13" class="node"><title>Node13</title>
<polygon fill="none" stroke="#bfbfbf" points="667.517,-0.5 667.517,-19.5 708.517,-19.5 708.517,-0.5 667.517,-0.5"/>
<text text-anchor="middle" x="688.017" y="-7.5" font-family="Helvetica,sans-Serif" font-size="10.00">string</text>
</g>
<!-- Node12&#45;&gt;Node13 -->
<g id="edge15" class="edge"><title>Node12&#45;&gt;Node13</title>
<path fill="none" stroke="midnightblue" d="M146.065,-133.55C239.664,-122.929 489.521,-94.086 506.017,-87 526.043,-78.3974 524.823,-66.3267 544.017,-56 580.744,-36.2406 627.492,-23.6524 657.587,-16.9589"/>
<polygon fill="midnightblue" stroke="midnightblue" points="658.449,-20.3536 667.493,-14.8351 656.982,-13.5091 658.449,-20.3536"/>
</g>
<!-- Node14 -->
<g id="node14" class="node"><title>Node14</title>
<polygon fill="none" stroke="#bfbfbf" points="104.017,-0.5 104.017,-19.5 150.017,-19.5 150.017,-0.5 104.017,-0.5"/>
<text text-anchor="middle" x="127.017" y="-7.5" font-family="Helvetica,sans-Serif" font-size="10.00">cstdint</text>
</g>
<!-- Node12&#45;&gt;Node14 -->
<g id="edge16" class="edge"><title>Node12&#45;&gt;Node14</title>
<path fill="none" stroke="midnightblue" d="M75.8875,-129.165C53.9505,-121.947 27.4117,-109.075 14.0171,-87 6.86976,-75.2211 6.28414,-67.403 14.0171,-56 31.6994,-29.9255 67.1518,-18.9589 93.6558,-14.3468"/>
<polygon fill="midnightblue" stroke="midnightblue" points="94.3137,-17.7871 103.675,-12.8256 93.2629,-10.8664 94.3137,-17.7871"/>
</g>
<!-- Node15 -->
<g id="node15" class="node"><title>Node15</title>
<polygon fill="none" stroke="#bfbfbf" points="23.5171,-56.5 23.5171,-86.5 124.517,-86.5 124.517,-56.5 23.5171,-56.5"/>
<text text-anchor="start" x="31.5171" y="-74.5" font-family="Helvetica,sans-Serif" font-size="10.00">boost/property_tree</text>
<text text-anchor="middle" x="74.0171" y="-63.5" font-family="Helvetica,sans-Serif" font-size="10.00">/ptree.hpp</text>
</g>
<!-- Node12&#45;&gt;Node15 -->
<g id="edge18" class="edge"><title>Node12&#45;&gt;Node15</title>
<path fill="none" stroke="midnightblue" d="M106.027,-128.734C101.171,-120.203 93.584,-106.874 87.0152,-95.3345"/>
<polygon fill="midnightblue" stroke="midnightblue" points="90.0257,-93.5482 82.037,-86.589 83.9423,-97.0111 90.0257,-93.5482"/>
</g>
<!-- Node16&#45;&gt;Node3 -->
<g id="edge20" class="edge"><title>Node16&#45;&gt;Node3</title>
<path fill="none" stroke="midnightblue" d="M455.161,-246.464C495.44,-237.772 559.199,-223.666 614.017,-210 614.118,-209.975 614.219,-209.95 614.32,-209.924"/>
<polygon fill="midnightblue" stroke="midnightblue" points="615.169,-213.32 623.972,-207.423 613.414,-206.544 615.169,-213.32"/>
</g>
<!-- Node16&#45;&gt;Node14 -->
<g id="edge22" class="edge"><title>Node16&#45;&gt;Node14</title>
<path fill="none" stroke="midnightblue" d="M354.765,-254.239C254.153,-249.14 57.7617,-221.656 5.01707,-87 -0.00792459,-74.1713 -2.86123,-67.3031 5.01707,-56 24.9069,-27.4639 65.0485,-16.9767 93.8591,-13.1493"/>
<polygon fill="midnightblue" stroke="midnightblue" points="94.3564,-16.6156 103.902,-12.0195 93.5737,-9.65945 94.3564,-16.6156"/>
</g>
<!-- Node17 -->
<g id="node17" class="node"><title>Node17</title>
<polygon fill="none" stroke="#bfbfbf" points="253.017,-190.5 253.017,-209.5 299.017,-209.5 299.017,-190.5 253.017,-190.5"/>
<text text-anchor="middle" x="276.017" y="-197.5" font-family="Helvetica,sans-Serif" font-size="10.00">chrono</text>
</g>
<!-- Node16&#45;&gt;Node17 -->
<g id="edge21" class="edge"><title>Node16&#45;&gt;Node17</title>
<path fill="none" stroke="midnightblue" d="M392.992,-246.444C369.913,-237.478 333.455,-223.314 307.376,-213.183"/>
<polygon fill="midnightblue" stroke="midnightblue" points="308.528,-209.875 297.939,-209.516 305.993,-216.4 308.528,-209.875"/>
</g>
<!-- Node18 -->
<g id="node18" class="node"><title>Node18</title>
<polygon fill="none" stroke="#bfbfbf" points="219.017,-62 219.017,-81 271.017,-81 271.017,-62 219.017,-62"/>
<text text-anchor="middle" x="245.017" y="-69" font-family="Helvetica,sans-Serif" font-size="10.00">sstream</text>
</g>
<!-- Node16&#45;&gt;Node18 -->
<g id="edge23" class="edge"><title>Node16&#45;&gt;Node18</title>
<path fill="none" stroke="midnightblue" d="M355.012,-247.045C311.394,-239.889 257.699,-227.748 244.017,-210 217.136,-175.129 229.507,-119.134 238.525,-90.5522"/>
<polygon fill="midnightblue" stroke="midnightblue" points="241.853,-91.6357 241.727,-81.0416 235.219,-89.4015 241.853,-91.6357"/>
</g>
<!-- Node19 -->
<g id="node19" class="node"><title>Node19</title>
<g id="a_node19"><a xlink:href="string_8hpp.html" target="_top" xlink:title="string/string.hpp">
<polygon fill="none" stroke="black" points="432.017,-129 432.017,-148 518.017,-148 518.017,-129 432.017,-129"/>
<text text-anchor="middle" x="475.017" y="-136" font-family="Helvetica,sans-Serif" font-size="10.00">string/string.hpp</text>
</a>
</g>
</g>
<!-- Node16&#45;&gt;Node19 -->
<g id="edge24" class="edge"><title>Node16&#45;&gt;Node19</title>
<path fill="none" stroke="midnightblue" d="M392.9,-246.349C367.121,-234.934 329.968,-213.517 346.017,-190 363.042,-165.053 394.405,-152.429 421.943,-146.041"/>
<polygon fill="midnightblue" stroke="midnightblue" points="422.812,-149.435 431.882,-143.959 421.376,-142.584 422.812,-149.435"/>
</g>
<!-- Node16&#45;&gt;Node25 -->
<g id="edge38" class="edge"><title>Node16&#45;&gt;Node25</title>
<path fill="none" stroke="midnightblue" d="M471.426,-246.444C538.517,-236.267 649.751,-219.394 716.154,-209.322"/>
<polygon fill="midnightblue" stroke="midnightblue" points="717.051,-212.726 726.413,-207.766 716.001,-205.805 717.051,-212.726"/>
</g>
<!-- Node31 -->
<g id="node31" class="node"><title>Node31</title>
<g id="a_node31"><a xlink:href="auth__system_8hpp.html" target="_top" xlink:title="user/auth_system.hpp">
<polygon fill="none" stroke="black" points="492.517,-190.5 492.517,-209.5 605.517,-209.5 605.517,-190.5 492.517,-190.5"/>
<text text-anchor="middle" x="549.017" y="-197.5" font-family="Helvetica,sans-Serif" font-size="10.00">user/auth_system.hpp</text>
</a>
</g>
</g>
<!-- Node16&#45;&gt;Node31 -->
<g id="edge53" class="edge"><title>Node16&#45;&gt;Node31</title>
<path fill="none" stroke="midnightblue" d="M436.25,-246.444C458.401,-237.517 493.336,-223.439 518.453,-213.317"/>
<polygon fill="midnightblue" stroke="midnightblue" points="519.917,-216.501 527.884,-209.516 517.3,-210.008 519.917,-216.501"/>
</g>
<!-- Node34 -->
<g id="node34" class="node"><title>Node34</title>
<g id="a_node34"><a xlink:href="user__manager_8hpp.html" target="_top" xlink:title="user/user_manager.hpp">
<polygon fill="none" stroke="black" points="355.517,-190.5 355.517,-209.5 474.517,-209.5 474.517,-190.5 355.517,-190.5"/>
<text text-anchor="middle" x="415.017" y="-197.5" font-family="Helvetica,sans-Serif" font-size="10.00">user/user_manager.hpp</text>
</a>
</g>
</g>
<!-- Node16&#45;&gt;Node34 -->
<g id="edge61" class="edge"><title>Node16&#45;&gt;Node34</title>
<path fill="none" stroke="midnightblue" d="M415.017,-246.083C415.017,-239.006 415.017,-228.861 415.017,-219.986"/>
<polygon fill="midnightblue" stroke="midnightblue" points="418.517,-219.751 415.017,-209.751 411.517,-219.751 418.517,-219.751"/>
</g>
<!-- Node19&#45;&gt;Node8 -->
<g id="edge31" class="edge"><title>Node19&#45;&gt;Node8</title>
<path fill="none" stroke="midnightblue" d="M465.944,-128.805C443.996,-107.772 387.774,-53.892 359.613,-26.9042"/>
<polygon fill="midnightblue" stroke="midnightblue" points="361.795,-24.1478 352.153,-19.7557 356.952,-29.2018 361.795,-24.1478"/>
</g>
<!-- Node19&#45;&gt;Node10 -->
<g id="edge26" class="edge"><title>Node19&#45;&gt;Node10</title>
<path fill="none" stroke="midnightblue" d="M518.386,-129.611C533.14,-127.167 549.757,-124.679 565.017,-123 832.766,-93.5404 906.442,-142.545 1170.02,-87 1173.27,-86.3148 1176.61,-85.4077 1179.91,-84.3805"/>
<polygon fill="midnightblue" stroke="midnightblue" points="1181.22,-87.6301 1189.51,-81.0407 1178.92,-81.0182 1181.22,-87.6301"/>
</g>
<!-- Node19&#45;&gt;Node11 -->
<g id="edge32" class="edge"><title>Node19&#45;&gt;Node11</title>
<path fill="none" stroke="midnightblue" d="M518.135,-129.92C584.412,-118.094 705.629,-95.7063 724.017,-87 743.717,-77.673 742.578,-65.8591 762.017,-56 807.991,-32.6825 867.137,-20.6789 903.008,-15.1239"/>
<polygon fill="midnightblue" stroke="midnightblue" points="903.533,-18.5845 912.915,-13.6627 902.511,-11.6594 903.533,-18.5845"/>
</g>
<!-- Node19&#45;&gt;Node13 -->
<g id="edge29" class="edge"><title>Node19&#45;&gt;Node13</title>
<path fill="none" stroke="midnightblue" d="M503.191,-128.912C538.113,-117.986 595.309,-99.0869 614.017,-87 639.044,-70.8306 661.995,-44.7419 675.498,-27.7311"/>
<polygon fill="midnightblue" stroke="midnightblue" points="678.31,-29.8156 681.658,-19.7636 672.772,-25.5338 678.31,-29.8156"/>
</g>
<!-- Node19&#45;&gt;Node14 -->
<g id="edge25" class="edge"><title>Node19&#45;&gt;Node14</title>
<path fill="none" stroke="midnightblue" d="M456.461,-128.938C422.105,-113.268 346.064,-79.4353 280.017,-56 239.225,-41.5261 191.199,-27.9488 159.985,-19.5704"/>
<polygon fill="midnightblue" stroke="midnightblue" points="160.643,-16.1236 150.079,-16.9345 158.843,-22.8882 160.643,-16.1236"/>
</g>
<!-- Node19&#45;&gt;Node18 -->
<g id="edge30" class="edge"><title>Node19&#45;&gt;Node18</title>
<path fill="none" stroke="midnightblue" d="M444.475,-128.869C402.1,-116.893 325.63,-95.2818 280.687,-82.5806"/>
<polygon fill="midnightblue" stroke="midnightblue" points="281.634,-79.2113 271.059,-79.8598 279.731,-85.9475 281.634,-79.2113"/>
</g>
<!-- Node20 -->
<g id="node20" class="node"><title>Node20</title>
<polygon fill="none" stroke="#bfbfbf" points="553.017,-62 553.017,-81 605.017,-81 605.017,-62 553.017,-62"/>
<text text-anchor="middle" x="579.017" y="-69" font-family="Helvetica,sans-Serif" font-size="10.00">memory</text>
</g>
<!-- Node19&#45;&gt;Node20 -->
<g id="edge27" class="edge"><title>Node19&#45;&gt;Node20</title>
<path fill="none" stroke="midnightblue" d="M489.043,-128.734C506.352,-117.916 536.004,-99.3832 556.512,-86.5659"/>
<polygon fill="midnightblue" stroke="midnightblue" points="558.588,-89.3953 565.213,-81.1273 554.878,-83.4593 558.588,-89.3953"/>
</g>
<!-- Node21 -->
<g id="node21" class="node"><title>Node21</title>
<polygon fill="none" stroke="#bfbfbf" points="771.517,-62 771.517,-81 830.517,-81 830.517,-62 771.517,-62"/>
<text text-anchor="middle" x="801.017" y="-69" font-family="Helvetica,sans-Serif" font-size="10.00">stdexcept</text>
</g>
<!-- Node19&#45;&gt;Node21 -->
<g id="edge28" class="edge"><title>Node19&#45;&gt;Node21</title>
<path fill="none" stroke="midnightblue" d="M518.04,-130.56C585.352,-119.573 712.475,-98.2675 757.017,-87 760.394,-86.1457 763.888,-85.1654 767.363,-84.1262"/>
<polygon fill="midnightblue" stroke="midnightblue" points="768.502,-87.4371 776.99,-81.0972 766.401,-80.7598 768.502,-87.4371"/>
</g>
<!-- Node22 -->
<g id="node22" class="node"><title>Node22</title>
<g id="a_node22"><a xlink:href="color_8hpp.html" target="_top" xlink:title="color.hpp">
<polygon fill="none" stroke="black" points="441.017,-62 441.017,-81 497.017,-81 497.017,-62 441.017,-62"/>
<text text-anchor="middle" x="469.017" y="-69" font-family="Helvetica,sans-Serif" font-size="10.00">color.hpp</text>
</a>
</g>
</g>
<!-- Node19&#45;&gt;Node22 -->
<g id="edge33" class="edge"><title>Node19&#45;&gt;Node22</title>
<path fill="none" stroke="midnightblue" d="M474.208,-128.734C473.326,-119.183 471.89,-103.618 470.751,-91.2829"/>
<polygon fill="midnightblue" stroke="midnightblue" points="474.218,-90.7632 469.813,-81.1273 467.248,-91.4067 474.218,-90.7632"/>
</g>
<!-- Node22&#45;&gt;Node13 -->
<g id="edge37" class="edge"><title>Node22&#45;&gt;Node13</title>
<path fill="none" stroke="midnightblue" d="M492.892,-61.8711C498.786,-59.8481 505.105,-57.7688 511.017,-56 561.807,-40.8051 621.758,-26.2624 657.236,-18.002"/>
<polygon fill="midnightblue" stroke="midnightblue" points="658.469,-21.3092 667.424,-15.6463 656.892,-14.4892 658.469,-21.3092"/>
</g>
<!-- Node22&#45;&gt;Node14 -->
<g id="edge35" class="edge"><title>Node22&#45;&gt;Node14</title>
<path fill="none" stroke="midnightblue" d="M440.739,-65.5802C378,-54.6652 227.413,-28.4666 160.286,-16.7881"/>
<polygon fill="midnightblue" stroke="midnightblue" points="160.708,-13.3089 150.256,-15.043 159.508,-20.2053 160.708,-13.3089"/>
</g>
<!-- Node23 -->
<g id="node23" class="node"><title>Node23</title>
<polygon fill="none" stroke="#bfbfbf" points="414.017,-0.5 414.017,-19.5 460.017,-19.5 460.017,-0.5 414.017,-0.5"/>
<text text-anchor="middle" x="437.017" y="-7.5" font-family="Helvetica,sans-Serif" font-size="10.00">cctype</text>
</g>
<!-- Node22&#45;&gt;Node23 -->
<g id="edge34" class="edge"><title>Node22&#45;&gt;Node23</title>
<path fill="none" stroke="midnightblue" d="M464.432,-61.9751C459.775,-53.3152 452.425,-39.6486 446.507,-28.6453"/>
<polygon fill="midnightblue" stroke="midnightblue" points="449.413,-26.6584 441.593,-19.5091 443.248,-29.974 449.413,-26.6584"/>
</g>
<!-- Node24 -->
<g id="node24" class="node"><title>Node24</title>
<polygon fill="none" stroke="#bfbfbf" points="478.517,-0.5 478.517,-19.5 523.517,-19.5 523.517,-0.5 478.517,-0.5"/>
<text text-anchor="middle" x="501.017" y="-7.5" font-family="Helvetica,sans-Serif" font-size="10.00">cstdlib</text>
</g>
<!-- Node22&#45;&gt;Node24 -->
<g id="edge36" class="edge"><title>Node22&#45;&gt;Node24</title>
<path fill="none" stroke="midnightblue" d="M473.602,-61.9751C478.259,-53.3152 485.609,-39.6486 491.527,-28.6453"/>
<polygon fill="midnightblue" stroke="midnightblue" points="494.787,-29.974 496.441,-19.5091 488.622,-26.6584 494.787,-29.974"/>
</g>
<!-- Node25&#45;&gt;Node5 -->
<g id="edge41" class="edge"><title>Node25&#45;&gt;Node5</title>
<path fill="none" stroke="midnightblue" d="M760.558,-190.475C749.066,-181.108 730.387,-165.884 716.43,-154.508"/>
<polygon fill="midnightblue" stroke="midnightblue" points="718.419,-151.614 708.457,-148.009 713.997,-157.04 718.419,-151.614"/>
</g>
<!-- Node25&#45;&gt;Node8 -->
<g id="edge44" class="edge"><title>Node25&#45;&gt;Node8</title>
<path fill="none" stroke="midnightblue" d="M726.411,-194.307C635.329,-184.578 435.459,-162.415 423.017,-154 378.735,-124.051 356.357,-61.0144 347.586,-29.6059"/>
<polygon fill="midnightblue" stroke="midnightblue" points="350.88,-28.3685 344.955,-19.5851 344.109,-30.1462 350.88,-28.3685"/>
</g>
<!-- Node25&#45;&gt;Node12 -->
<g id="edge52" class="edge"><title>Node25&#45;&gt;Node12</title>
<path fill="none" stroke="midnightblue" d="M726.108,-194.471C711.135,-192.997 694.361,-191.385 679.017,-190 485.809,-172.556 437.126,-172.514 244.017,-154 214.856,-151.204 182.146,-147.644 156.463,-144.751"/>
<polygon fill="midnightblue" stroke="midnightblue" points="156.605,-141.244 146.275,-143.597 155.817,-148.2 156.605,-141.244"/>
</g>
<!-- Node25&#45;&gt;Node13 -->
<g id="edge43" class="edge"><title>Node25&#45;&gt;Node13</title>
<path fill="none" stroke="midnightblue" d="M773.904,-190.076C778.904,-175.347 790.087,-145.359 805.017,-123 817.238,-104.697 830.886,-107.451 839.017,-87 844.107,-74.197 847.252,-67.0463 839.017,-56 811.385,-18.9323 754.42,-11.1952 718.899,-10.2168"/>
<polygon fill="midnightblue" stroke="midnightblue" points="718.658,-6.71409 708.62,-10.1052 718.582,-13.7137 718.658,-6.71409"/>
</g>
<!-- Node25&#45;&gt;Node19 -->
<g id="edge51" class="edge"><title>Node25&#45;&gt;Node19</title>
<path fill="none" stroke="midnightblue" d="M728.607,-190.475C675.525,-179.805 584.629,-161.534 527.297,-150.009"/>
<polygon fill="midnightblue" stroke="midnightblue" points="527.842,-146.549 517.348,-148.009 526.462,-153.411 527.842,-146.549"/>
</g>
<!-- Node25&#45;&gt;Node21 -->
<g id="edge42" class="edge"><title>Node25&#45;&gt;Node21</title>
<path fill="none" stroke="midnightblue" d="M769.747,-190.37C767.945,-176.066 765.536,-146.673 772.017,-123 775.301,-111.006 782.124,-98.8794 788.327,-89.5166"/>
<polygon fill="midnightblue" stroke="midnightblue" points="791.295,-91.3798 794.169,-81.1823 785.563,-87.3616 791.295,-91.3798"/>
</g>
<!-- Node26 -->
<g id="node26" class="node"><title>Node26</title>
<polygon fill="none" stroke="#bfbfbf" points="814.017,-129 814.017,-148 864.017,-148 864.017,-129 814.017,-129"/>
<text text-anchor="middle" x="839.017" y="-136" font-family="Helvetica,sans-Serif" font-size="10.00">iomanip</text>
</g>
<!-- Node25&#45;&gt;Node26 -->
<g id="edge39" class="edge"><title>Node25&#45;&gt;Node26</title>
<path fill="none" stroke="midnightblue" d="M780.76,-190.475C791.364,-181.197 808.536,-166.171 821.496,-154.831"/>
<polygon fill="midnightblue" stroke="midnightblue" points="824.071,-157.228 829.292,-148.009 819.462,-151.96 824.071,-157.228"/>
</g>
<!-- Node27 -->
<g id="node27" class="node"><title>Node27</title>
<polygon fill="none" stroke="#bfbfbf" points="1107.02,-62 1107.02,-81 1161.02,-81 1161.02,-62 1107.02,-62"/>
<text text-anchor="middle" x="1134.02" y="-69" font-family="Helvetica,sans-Serif" font-size="10.00">iostream</text>
</g>
<!-- Node25&#45;&gt;Node27 -->
<g id="edge40" class="edge"><title>Node25&#45;&gt;Node27</title>
<path fill="none" stroke="midnightblue" d="M815.525,-191.281C818.397,-190.833 821.246,-190.402 824.017,-190 890.249,-180.395 1075.36,-200.982 1123.02,-154 1139.43,-137.821 1139.52,-109.643 1137.34,-91.0301"/>
<polygon fill="midnightblue" stroke="midnightblue" points="1140.8,-90.4793 1135.86,-81.104 1133.88,-91.5105 1140.8,-90.4793"/>
</g>
<!-- Node28 -->
<g id="node28" class="node"><title>Node28</title>
<polygon fill="none" stroke="#bfbfbf" points="882.517,-123.5 882.517,-153.5 987.517,-153.5 987.517,-123.5 882.517,-123.5"/>
<text text-anchor="start" x="890.517" y="-141.5" font-family="Helvetica,sans-Serif" font-size="10.00">boost/chrono/io/time</text>
<text text-anchor="middle" x="935.017" y="-130.5" font-family="Helvetica,sans-Serif" font-size="10.00">_point_io.hpp</text>
</g>
<!-- Node25&#45;&gt;Node28 -->
<g id="edge45" class="edge"><title>Node25&#45;&gt;Node28</title>
<path fill="none" stroke="midnightblue" d="M794.514,-190.475C818.49,-181.776 856.39,-168.026 886.787,-156.998"/>
<polygon fill="midnightblue" stroke="midnightblue" points="888.159,-160.224 896.366,-153.523 885.771,-153.643 888.159,-160.224"/>
</g>
<!-- Node29 -->
<g id="node29" class="node"><title>Node29</title>
<g id="a_node29"><a xlink:href="multibuf_8hpp.html" target="_top" xlink:title="multibuf.hpp">
<polygon fill="none" stroke="black" points="1044.02,-129 1044.02,-148 1114.02,-148 1114.02,-129 1044.02,-129"/>
<text text-anchor="middle" x="1079.02" y="-136" font-family="Helvetica,sans-Serif" font-size="10.00">multibuf.hpp</text>
</a>
</g>
</g>
<!-- Node25&#45;&gt;Node29 -->
<g id="edge46" class="edge"><title>Node25&#45;&gt;Node29</title>
<path fill="none" stroke="midnightblue" d="M815.146,-190.475C873.205,-179.259 974.737,-159.645 1033.49,-148.296"/>
<polygon fill="midnightblue" stroke="midnightblue" points="1034.43,-151.678 1043.59,-146.344 1033.1,-144.805 1034.43,-151.678"/>
</g>
<!-- Node29&#45;&gt;Node11 -->
<g id="edge49" class="edge"><title>Node29&#45;&gt;Node11</title>
<path fill="none" stroke="midnightblue" d="M1079.53,-128.673C1079.98,-112.264 1078.56,-76.8399 1060.02,-56 1036.36,-29.4141 995.815,-18.5287 967.331,-14.0757"/>
<polygon fill="midnightblue" stroke="midnightblue" points="967.448,-10.559 957.065,-12.6647 966.495,-17.4938 967.448,-10.559"/>
</g>
<!-- Node29&#45;&gt;Node13 -->
<g id="edge50" class="edge"><title>Node29&#45;&gt;Node13</title>
<path fill="none" stroke="midnightblue" d="M1064.27,-128.756C1035.68,-112.167 970.3,-76.0013 911.017,-56 844.292,-33.4878 762.339,-20.5054 718.736,-14.6985"/>
<polygon fill="midnightblue" stroke="midnightblue" points="719.13,-11.2203 708.763,-13.4071 718.231,-18.1623 719.13,-11.2203"/>
</g>
<!-- Node29&#45;&gt;Node27 -->
<g id="edge47" class="edge"><title>Node29&#45;&gt;Node27</title>
<path fill="none" stroke="midnightblue" d="M1086.43,-128.734C1095.01,-118.598 1109.32,-101.69 1120.01,-89.0556"/>
<polygon fill="midnightblue" stroke="midnightblue" points="1122.93,-91.022 1126.72,-81.1273 1117.59,-86.5004 1122.93,-91.022"/>
</g>
<!-- Node30 -->
<g id="node30" class="node"><title>Node30</title>
<polygon fill="none" stroke="#bfbfbf" points="1001.02,-62 1001.02,-81 1051.02,-81 1051.02,-62 1001.02,-62"/>
<text text-anchor="middle" x="1026.02" y="-69" font-family="Helvetica,sans-Serif" font-size="10.00">fstream</text>
</g>
<!-- Node29&#45;&gt;Node30 -->
<g id="edge48" class="edge"><title>Node29&#45;&gt;Node30</title>
<path fill="none" stroke="midnightblue" d="M1071.87,-128.734C1063.6,-118.598 1049.82,-101.69 1039.52,-89.0556"/>
<polygon fill="midnightblue" stroke="midnightblue" points="1042.08,-86.6657 1033.05,-81.1273 1036.66,-91.0893 1042.08,-86.6657"/>
</g>
<!-- Node31&#45;&gt;Node8 -->
<g id="edge54" class="edge"><title>Node31&#45;&gt;Node8</title>
<path fill="none" stroke="midnightblue" d="M500.979,-190.425C448.448,-180.598 370.423,-164.499 361.017,-154 330.074,-119.461 334.499,-59.988 339.3,-29.7822"/>
<polygon fill="midnightblue" stroke="midnightblue" points="342.779,-30.2102 341.086,-19.7515 335.887,-28.9833 342.779,-30.2102"/>
</g>
<!-- Node32 -->
<g id="node32" class="node"><title>Node32</title>
<g id="a_node32"><a xlink:href="user__group_8hpp.html" target="_top" xlink:title="user_group.hpp">
<polygon fill="none" stroke="black" points="574.517,-129 574.517,-148 657.517,-148 657.517,-129 574.517,-129"/>
<text text-anchor="middle" x="616.017" y="-136" font-family="Helvetica,sans-Serif" font-size="10.00">user_group.hpp</text>
</a>
</g>
</g>
<!-- Node31&#45;&gt;Node32 -->
<g id="edge55" class="edge"><title>Node31&#45;&gt;Node32</title>
<path fill="none" stroke="midnightblue" d="M558.617,-190.475C569.065,-181.197 585.985,-166.171 598.754,-154.831"/>
<polygon fill="midnightblue" stroke="midnightblue" points="601.282,-157.266 606.435,-148.009 596.634,-152.032 601.282,-157.266"/>
</g>
<!-- Node32&#45;&gt;Node11 -->
<g id="edge56" class="edge"><title>Node32&#45;&gt;Node11</title>
<path fill="none" stroke="midnightblue" d="M644.782,-128.938C652.014,-126.891 659.778,-124.784 667.017,-123 742.848,-104.309 768.288,-120.124 839.017,-87 871.07,-71.9892 902.038,-44.3556 919.773,-26.8683"/>
<polygon fill="midnightblue" stroke="midnightblue" points="922.394,-29.196 926.947,-19.6294 917.422,-24.2685 922.394,-29.196"/>
</g>
<!-- Node33 -->
<g id="node33" class="node"><title>Node33</title>
<g id="a_node33"><a xlink:href="user_8hpp.html" target="_top" xlink:title="user.hpp">
<polygon fill="none" stroke="black" points="661.017,-62 661.017,-81 715.017,-81 715.017,-62 661.017,-62"/>
<text text-anchor="middle" x="688.017" y="-69" font-family="Helvetica,sans-Serif" font-size="10.00">user.hpp</text>
</a>
</g>
</g>
<!-- Node32&#45;&gt;Node33 -->
<g id="edge57" class="edge"><title>Node32&#45;&gt;Node33</title>
<path fill="none" stroke="midnightblue" d="M625.727,-128.734C637.279,-118.305 656.77,-100.709 670.878,-87.9732"/>
<polygon fill="midnightblue" stroke="midnightblue" points="673.383,-90.4263 678.461,-81.1273 668.693,-85.2304 673.383,-90.4263"/>
</g>
<!-- Node33&#45;&gt;Node8 -->
<g id="edge60" class="edge"><title>Node33&#45;&gt;Node8</title>
<path fill="none" stroke="midnightblue" d="M660.989,-65.0091C646.989,-62.2143 629.605,-58.8207 614.017,-56 537.963,-42.2373 449.601,-27.8663 394.991,-19.1722"/>
<polygon fill="midnightblue" stroke="midnightblue" points="395.29,-15.676 384.865,-17.5637 394.192,-22.5893 395.29,-15.676"/>
</g>
<!-- Node33&#45;&gt;Node11 -->
<g id="edge59" class="edge"><title>Node33&#45;&gt;Node11</title>
<path fill="none" stroke="midnightblue" d="M710.84,-61.8606C716.716,-59.7933 723.063,-57.6961 729.017,-56 789.744,-38.7021 862.156,-24.2853 902.939,-16.7199"/>
<polygon fill="midnightblue" stroke="midnightblue" points="903.638,-20.1502 912.842,-14.9026 902.374,-13.2652 903.638,-20.1502"/>
</g>
<!-- Node33&#45;&gt;Node13 -->
<g id="edge58" class="edge"><title>Node33&#45;&gt;Node13</title>
<path fill="none" stroke="midnightblue" d="M688.017,-61.9751C688.017,-53.5803 688.017,-40.4806 688.017,-29.6631"/>
<polygon fill="midnightblue" stroke="midnightblue" points="691.517,-29.5091 688.017,-19.5091 684.517,-29.5091 691.517,-29.5091"/>
</g>
<!-- Node34&#45;&gt;Node33 -->
<g id="edge62" class="edge"><title>Node34&#45;&gt;Node33</title>
<path fill="none" stroke="midnightblue" d="M442.798,-190.461C466.148,-182.68 499.947,-169.976 527.017,-154 545.788,-142.922 546.288,-134.149 565.017,-123 580.812,-113.597 624.56,-96.3485 655.367,-84.6553"/>
<polygon fill="midnightblue" stroke="midnightblue" points="656.743,-87.877 664.863,-81.071 654.271,-81.328 656.743,-87.877"/>
</g>
<!-- Node35 -->
<g id="node35" class="node"><title>Node35</title>
<polygon fill="none" stroke="#bfbfbf" points="253.517,-129 253.517,-148 282.517,-148 282.517,-129 253.517,-129"/>
<text text-anchor="middle" x="268.017" y="-136" font-family="Helvetica,sans-Serif" font-size="10.00">list</text>
</g>
<!-- Node34&#45;&gt;Node35 -->
<g id="edge63" class="edge"><title>Node34&#45;&gt;Node35</title>
<path fill="none" stroke="midnightblue" d="M390.323,-190.392C366.248,-181.811 328.733,-167.935 297.017,-154 295.387,-153.284 293.718,-152.523 292.043,-151.741"/>
<polygon fill="midnightblue" stroke="midnightblue" points="293.159,-148.391 282.636,-147.163 290.096,-154.686 293.159,-148.391"/>
</g>
<!-- Node36&#45;&gt;Node7 -->
<g id="edge69" class="edge"><title>Node36&#45;&gt;Node7</title>
<path fill="none" stroke="midnightblue" d="M880.754,-302.324C865.796,-293.822 842.762,-280.729 825.29,-270.797"/>
<polygon fill="midnightblue" stroke="midnightblue" points="826.666,-267.553 816.243,-265.655 823.207,-273.639 826.666,-267.553"/>
</g>
<!-- Node36&#45;&gt;Node9 -->
<g id="edge71" class="edge"><title>Node36&#45;&gt;Node9</title>
<path fill="none" stroke="midnightblue" d="M903.613,-302.083C910.245,-294.298 920.038,-282.801 928.075,-273.367"/>
<polygon fill="midnightblue" stroke="midnightblue" points="930.742,-275.633 934.562,-265.751 925.413,-271.094 930.742,-275.633"/>
</g>
<!-- Node36&#45;&gt;Node10 -->
<g id="edge67" class="edge"><title>Node36&#45;&gt;Node10</title>
<path fill="none" stroke="midnightblue" d="M943.365,-302.462C974.229,-295.585 1014.63,-284.034 1047.02,-266 1112.48,-229.545 1128.87,-214.54 1173.02,-154 1187.22,-134.52 1197.47,-108.551 1203.32,-91.2139"/>
<polygon fill="midnightblue" stroke="midnightblue" points="1206.8,-91.8141 1206.53,-81.2229 1200.14,-89.6766 1206.8,-91.8141"/>
</g>
<!-- Node36&#45;&gt;Node13 -->
<g id="edge68" class="edge"><title>Node36&#45;&gt;Node13</title>
<path fill="none" stroke="midnightblue" d="M956.498,-302.469C978.335,-296.144 1000.83,-285.139 1014.02,-266 1035.64,-234.611 1105.13,-264.252 996.017,-123 970.936,-90.5328 947.834,-105.101 911.017,-87 885.836,-74.6199 881.997,-66.6027 856.017,-56 809.653,-37.0782 752.855,-23.7869 718.599,-16.772"/>
<polygon fill="midnightblue" stroke="midnightblue" points="719.221,-13.3271 708.728,-14.7972 717.847,-20.1911 719.221,-13.3271"/>
</g>
<!-- Node36&#45;&gt;Node25 -->
<g id="edge70" class="edge"><title>Node36&#45;&gt;Node25</title>
<path fill="none" stroke="midnightblue" d="M888.139,-302.153C876.445,-289.224 853.554,-264.675 832.017,-246 819.499,-235.145 804.539,-224.082 792.567,-215.642"/>
<polygon fill="midnightblue" stroke="midnightblue" points="794.293,-212.58 784.084,-209.746 790.298,-218.327 794.293,-212.58"/>
</g>
</g>
</svg>
        <g id="navigator" transform="translate(0 0)" fill="#404254">
                <rect fill="#f2f5e9" fill-opacity="0.5" stroke="#606060" stroke-width=".5" x="0" y="0" width="60" height="60"/>
                <use id="zoomplus" xlink:href="#zoomPlus" x="17" y="9" onmousedown="handleZoom(evt,'in')"/>
                <use id="zoomminus" xlink:href="#zoomMin" x="42" y="9" onmousedown="handleZoom(evt,'out')"/>
                <use id="reset" xlink:href="#resetDef" x="30" y="36" onmousedown="handleReset()"/>
                <g id="arrowUp" xlink:href="#dirArrow" transform="translate(30 24)" onmousedown="handlePan(0,-1)">
                  <use xlink:href="#rim" fill="#404040">
                        <set attributeName="fill" to="#808080" begin="arrowUp.mouseover" end="arrowUp.mouseout"/>
                  </use>
                  <path fill="none" stroke="white" stroke-width="1.5" d="M0,-3.0v7 M-2.5,-0.5L0,-3.0L2.5,-0.5"/>
                </g>
                <g id="arrowRight" xlink:href="#dirArrow" transform="rotate(90) translate(36 -43)" onmousedown="handlePan(1,0)">
                  <use xlink:href="#rim" fill="#404040">
                        <set attributeName="fill" to="#808080" begin="arrowRight.mouseover" end="arrowRight.mouseout"/>
                  </use>
                  <path fill="none" stroke="white" stroke-width="1.5" d="M0,-3.0v7 M-2.5,-0.5L0,-3.0L2.5,-0.5"/>
                </g>
                <g id="arrowDown" xlink:href="#dirArrow" transform="rotate(180) translate(-30 -48)" onmousedown="handlePan(0,1)">
                  <use xlink:href="#rim" fill="#404040">
                        <set attributeName="fill" to="#808080" begin="arrowDown.mouseover" end="arrowDown.mouseout"/>
                  </use>
                  <path fill="none" stroke="white" stroke-width="1.5" d="M0,-3.0v7 M-2.5,-0.5L0,-3.0L2.5,-0.5"/>
                </g>
                <g id="arrowLeft" xlink:href="#dirArrow" transform="rotate(270) translate(-36 17)" onmousedown="handlePan(-1,0)">
                  <use xlink:href="#rim" fill="#404040">
                        <set attributeName="fill" to="#808080" begin="arrowLeft.mouseover" end="arrowLeft.mouseout"/>
                  </use>
                  <path fill="none" stroke="white" stroke-width="1.5" d="M0,-3.0v7 M-2.5,-0.5L0,-3.0L2.5,-0.5"/>
                </g>
        </g>
        <svg viewBox="0 0 15 15" width="100%" height="30px" preserveAspectRatio="xMaxYMin meet">
         <g id="arrow_out" transform="scale(0.3 0.3)">
          <a xlink:href="main_8cpp__incl_org.svg" target="_base">
           <rect id="button" ry="5" rx="5" y="6" x="6" height="38" width="38"
                fill="#f2f5e9" fill-opacity="0.5" stroke="#606060" stroke-width="1.0"/>
           <path id="arrow"
             d="M 11.500037,31.436501 C 11.940474,20.09759 22.043105,11.32322 32.158766,21.979434 L 37.068811,17.246167 C 37.068811,17.246167 37.088388,32 37.088388,32 L 22.160133,31.978069 C 22.160133,31.978069 26.997745,27.140456 26.997745,27.140456 C 18.528582,18.264221 13.291696,25.230495 11.500037,31.436501 z"
             style="fill:#404040;"/>
          </a>
         </g>
        </svg>
</svg>
