<?xml version="1.0" encoding="UTF-8" standalone="no"?>
<!DOCTYPE svg PUBLIC "-//W3C//DTD SVG 1.1//EN"
 "http://www.w3.org/Graphics/SVG/1.1/DTD/svg11.dtd">
<!-- Generated by graphviz version 2.38.0 (20140413.2041)
 -->
<!-- Title: src/main.cpp Pages: 1 -->
<!--zoomable 386 -->
<svg id="main" version="1.1" xmlns="http://www.w3.org/2000/svg" xmlns:xlink="http://www.w3.org/1999/xlink" xml:space="preserve" onload="init(evt)">
<style type="text/css"><![CDATA[
.edge:hover path { stroke: red; }
.edge:hover polygon { stroke: red; fill: red; }
]]></style>
<script type="text/javascript"><![CDATA[
var edges = document.getElementsByTagName('g');
if (edges && edges.length) {
  for (var i=0;i<edges.length;i++) {
    if (edges[i].id.substr(0,4)=='edge') {
      edges[i].setAttribute('class','edge');
    }
  }
}
]]></script>
        <defs>
                <circle id="rim" cx="0" cy="0" r="7"/>
                <circle id="rim2" cx="0" cy="0" r="3.5"/>
                <g id="zoomPlus">
                        <use xlink:href="#rim" fill="#404040">
                                <set attributeName="fill" to="#808080" begin="zoomplus.mouseover" end="zoomplus.mouseout"/>
                        </use>
                        <path d="M-4,0h8M0,-4v8" fill="none" stroke="white" stroke-width="1.5" pointer-events="none"/>
                </g>
                <g id="zoomMin">
                        <use xlink:href="#rim" fill="#404040">
                                <set attributeName="fill" to="#808080" begin="zoomminus.mouseover" end="zoomminus.mouseout"/>
                        </use>
                        <path d="M-4,0h8" fill="none" stroke="white" stroke-width="1.5" pointer-events="none"/>
                </g>
                <g id="dirArrow">
                        <path fill="none" stroke="white" stroke-width="1.5" d="M0,-3.0v7 M-2.5,-0.5L0,-3.0L2.5,-0.5"/>
                </g>
               <g id="resetDef">
                       <use xlink:href="#rim2" fill="#404040">
                               <set attributeName="fill" to="#808080" begin="reset.mouseover" end="reset.mouseout"/>
                       </use>
               </g>
        </defs>

<script type="text/javascript">
var viewWidth = 1080;
var viewHeight = 386;
var sectionId = 'dynsection-0';
</script>
<script xlink:href="svgpan.js"/>
<svg id="graph" class="graph">
<g id="viewport">
<title>src/main.cpp</title>
<!-- Node1 -->
<g id="node1" class="node"><title>Node1</title>
<polygon fill="#bfbfbf" stroke="black" points="484,-358.5 484,-377.5 557,-377.5 557,-358.5 484,-358.5"/>
<text text-anchor="middle" x="520.5" y="-365.5" font-family="Helvetica,sans-Serif" font-size="10.00">src/main.cpp</text>
</g>
<!-- Node2 -->
<g id="node2" class="node"><title>Node2</title>
<g id="a_node2"><a xlink:href="melanobot_8hpp.html" target="_top" xlink:title="melanobot.hpp">
<polygon fill="none" stroke="black" points="514.5,-302.5 514.5,-321.5 594.5,-321.5 594.5,-302.5 514.5,-302.5"/>
<text text-anchor="middle" x="554.5" y="-309.5" font-family="Helvetica,sans-Serif" font-size="10.00">melanobot.hpp</text>
</a>
</g>
</g>
<!-- Node1&#45;&gt;Node2 -->
<g id="edge1" class="edge"><title>Node1&#45;&gt;Node2</title>
<path fill="none" stroke="midnightblue" d="M526.114,-358.083C530.867,-350.534 537.818,-339.495 543.652,-330.23"/>
<polygon fill="midnightblue" stroke="midnightblue" points="546.624,-332.078 548.99,-321.751 540.7,-328.349 546.624,-332.078"/>
</g>
<!-- Node12 -->
<g id="node12" class="node"><title>Node12</title>
<g id="a_node12"><a xlink:href="settings_8hpp.html" target="_top" xlink:title="settings.hpp">
<polygon fill="none" stroke="black" points="109.5,-129 109.5,-148 179.5,-148 179.5,-129 109.5,-129"/>
<text text-anchor="middle" x="144.5" y="-136" font-family="Helvetica,sans-Serif" font-size="10.00">settings.hpp</text>
</a>
</g>
</g>
<!-- Node1&#45;&gt;Node12 -->
<g id="edge54" class="edge"><title>Node1&#45;&gt;Node12</title>
<path fill="none" stroke="midnightblue" d="M483.901,-366.263C414.664,-362.955 263.327,-346.337 172.5,-266 141.847,-238.887 140.621,-186.421 142.478,-158.331"/>
<polygon fill="midnightblue" stroke="midnightblue" points="145.976,-158.504 143.352,-148.239 139.002,-157.9 145.976,-158.504"/>
</g>
<!-- Node25 -->
<g id="node25" class="node"><title>Node25</title>
<g id="a_node25"><a xlink:href="logger_8hpp.html" target="_top" xlink:title="../string/logger.hpp">
<polygon fill="none" stroke="black" points="451.5,-190.5 451.5,-209.5 549.5,-209.5 549.5,-190.5 451.5,-190.5"/>
<text text-anchor="middle" x="500.5" y="-197.5" font-family="Helvetica,sans-Serif" font-size="10.00">../string/logger.hpp</text>
</a>
</g>
</g>
<!-- Node1&#45;&gt;Node25 -->
<g id="edge53" class="edge"><title>Node1&#45;&gt;Node25</title>
<path fill="none" stroke="midnightblue" d="M516.757,-358.229C513.143,-349.298 507.879,-334.96 505.5,-322 498.944,-286.28 498.959,-243.675 499.662,-219.739"/>
<polygon fill="midnightblue" stroke="midnightblue" points="503.165,-219.722 500.037,-209.6 496.17,-219.464 503.165,-219.722"/>
</g>
<!-- Node31 -->
<g id="node31" class="node"><title>Node31</title>
<g id="a_node31"><a xlink:href="async__service_8hpp.html" target="_top" xlink:title="network/async_service.hpp">
<polygon fill="none" stroke="black" points="677.5,-302.5 677.5,-321.5 813.5,-321.5 813.5,-302.5 677.5,-302.5"/>
<text text-anchor="middle" x="745.5" y="-309.5" font-family="Helvetica,sans-Serif" font-size="10.00">network/async_service.hpp</text>
</a>
</g>
</g>
<!-- Node1&#45;&gt;Node31 -->
<g id="edge55" class="edge"><title>Node1&#45;&gt;Node31</title>
<path fill="none" stroke="midnightblue" d="M556.152,-358.444C595.156,-349.083 657.766,-334.056 700.217,-323.868"/>
<polygon fill="midnightblue" stroke="midnightblue" points="701.108,-327.254 710.015,-321.516 699.474,-320.447 701.108,-327.254"/>
</g>
<!-- Node3 -->
<g id="node3" class="node"><title>Node3</title>
<polygon fill="none" stroke="#bfbfbf" points="567.5,-190.5 567.5,-209.5 613.5,-209.5 613.5,-190.5 567.5,-190.5"/>
<text text-anchor="middle" x="590.5" y="-197.5" font-family="Helvetica,sans-Serif" font-size="10.00">atomic</text>
</g>
<!-- Node2&#45;&gt;Node3 -->
<g id="edge2" class="edge"><title>Node2&#45;&gt;Node3</title>
<path fill="none" stroke="midnightblue" d="M551.25,-302.233C547.025,-289.403 541.02,-264.978 548.5,-246 553.014,-234.548 561.969,-224.291 570.455,-216.472"/>
<polygon fill="midnightblue" stroke="midnightblue" points="572.969,-218.927 578.286,-209.764 568.415,-213.611 572.969,-218.927"/>
</g>
<!-- Node4 -->
<g id="node4" class="node"><title>Node4</title>
<polygon fill="none" stroke="#bfbfbf" points="693,-190.5 693,-209.5 788,-209.5 788,-190.5 693,-190.5"/>
<text text-anchor="middle" x="740.5" y="-197.5" font-family="Helvetica,sans-Serif" font-size="10.00">condition_variable</text>
</g>
<!-- Node2&#45;&gt;Node4 -->
<g id="edge3" class="edge"><title>Node2&#45;&gt;Node4</title>
<path fill="none" stroke="midnightblue" d="M561.169,-302.232C572.021,-288.503 594.789,-261.864 619.5,-246 643.017,-230.903 672.33,-219.837 696.214,-212.456"/>
<polygon fill="midnightblue" stroke="midnightblue" points="697.499,-215.726 706.085,-209.518 695.502,-209.017 697.499,-215.726"/>
</g>
<!-- Node5 -->
<g id="node5" class="node"><title>Node5</title>
<polygon fill="none" stroke="#bfbfbf" points="274.5,-129 274.5,-148 318.5,-148 318.5,-129 274.5,-129"/>
<text text-anchor="middle" x="296.5" y="-136" font-family="Helvetica,sans-Serif" font-size="10.00">mutex</text>
</g>
<!-- Node2&#45;&gt;Node5 -->
<g id="edge4" class="edge"><title>Node2&#45;&gt;Node5</title>
<path fill="none" stroke="midnightblue" d="M514.275,-307.265C457.56,-301.29 357.835,-287.967 329.5,-266 296.708,-240.578 293.922,-186.955 295.009,-158.372"/>
<polygon fill="midnightblue" stroke="midnightblue" points="298.518,-158.311 295.61,-148.123 291.53,-157.901 298.518,-158.311"/>
</g>
<!-- Node6 -->
<g id="node6" class="node"><title>Node6</title>
<polygon fill="none" stroke="#bfbfbf" points="632,-190.5 632,-209.5 675,-209.5 675,-190.5 632,-190.5"/>
<text text-anchor="middle" x="653.5" y="-197.5" font-family="Helvetica,sans-Serif" font-size="10.00">queue</text>
</g>
<!-- Node2&#45;&gt;Node6 -->
<g id="edge5" class="edge"><title>Node2&#45;&gt;Node6</title>
<path fill="none" stroke="midnightblue" d="M557.199,-302.166C561.615,-288.817 571.433,-263.234 586.5,-246 597.74,-233.143 613.463,-222.329 626.853,-214.526"/>
<polygon fill="midnightblue" stroke="midnightblue" points="628.634,-217.541 635.667,-209.618 625.228,-211.426 628.634,-217.541"/>
</g>
<!-- Node7 -->
<g id="node7" class="node"><title>Node7</title>
<polygon fill="none" stroke="#bfbfbf" points="628.5,-246.5 628.5,-265.5 672.5,-265.5 672.5,-246.5 628.5,-246.5"/>
<text text-anchor="middle" x="650.5" y="-253.5" font-family="Helvetica,sans-Serif" font-size="10.00">thread</text>
</g>
<!-- Node2&#45;&gt;Node7 -->
<g id="edge6" class="edge"><title>Node2&#45;&gt;Node7</title>
<path fill="none" stroke="midnightblue" d="M569.924,-302.324C585.04,-293.822 608.315,-280.729 625.971,-270.797"/>
<polygon fill="midnightblue" stroke="midnightblue" points="628.114,-273.608 635.114,-265.655 624.683,-267.507 628.114,-273.608"/>
</g>
<!-- Node8 -->
<g id="node8" class="node"><title>Node8</title>
<polygon fill="none" stroke="#bfbfbf" points="234,-62 234,-81 317,-81 317,-62 234,-62"/>
<text text-anchor="middle" x="275.5" y="-69" font-family="Helvetica,sans-Serif" font-size="10.00">unordered_map</text>
</g>
<!-- Node2&#45;&gt;Node8 -->
<g id="edge7" class="edge"><title>Node2&#45;&gt;Node8</title>
<path fill="none" stroke="midnightblue" d="M514.299,-308.307C453.034,-303.443 340.167,-291.262 309.5,-266 258.175,-223.721 259.011,-189.179 265.5,-123 266.553,-112.259 268.838,-100.416 270.958,-90.8991"/>
<polygon fill="midnightblue" stroke="midnightblue" points="274.403,-91.5379 273.287,-81.002 267.589,-89.9342 274.403,-91.5379"/>
</g>
<!-- Node9 -->
<g id="node9" class="node"><title>Node9</title>
<g id="a_node9"><a xlink:href="concurrent__container_8hpp.html" target="_top" xlink:title="concurrent_container.hpp">
<polygon fill="none" stroke="black" points="728.5,-246.5 728.5,-265.5 854.5,-265.5 854.5,-246.5 728.5,-246.5"/>
<text text-anchor="middle" x="791.5" y="-253.5" font-family="Helvetica,sans-Serif" font-size="10.00">concurrent_container.hpp</text>
</a>
</g>
</g>
<!-- Node2&#45;&gt;Node9 -->
<g id="edge8" class="edge"><title>Node2&#45;&gt;Node9</title>
<path fill="none" stroke="midnightblue" d="M592.053,-302.444C633.311,-293.043 699.644,-277.929 744.366,-267.739"/>
<polygon fill="midnightblue" stroke="midnightblue" points="745.15,-271.151 754.122,-265.516 743.595,-264.326 745.15,-271.151"/>
</g>
<!-- Node2&#45;&gt;Node12 -->
<g id="edge14" class="edge"><title>Node2&#45;&gt;Node12</title>
<path fill="none" stroke="midnightblue" d="M514.265,-311.035C430.835,-310.319 242.671,-304.369 193.5,-266 159.719,-239.64 149.205,-186.856 145.948,-158.52"/>
<polygon fill="midnightblue" stroke="midnightblue" points="149.41,-157.954 144.974,-148.333 142.442,-158.621 149.41,-157.954"/>
</g>
<!-- Node16 -->
<g id="node16" class="node"><title>Node16</title>
<g id="a_node16"><a xlink:href="connection_8hpp.html" target="_top" xlink:title="network/connection.hpp">
<polygon fill="none" stroke="black" points="338.5,-246.5 338.5,-265.5 458.5,-265.5 458.5,-246.5 338.5,-246.5"/>
<text text-anchor="middle" x="398.5" y="-253.5" font-family="Helvetica,sans-Serif" font-size="10.00">network/connection.hpp</text>
</a>
</g>
</g>
<!-- Node2&#45;&gt;Node16 -->
<g id="edge19" class="edge"><title>Node2&#45;&gt;Node16</title>
<path fill="none" stroke="midnightblue" d="M529.781,-302.444C503.652,-293.399 462.241,-279.064 432.924,-268.916"/>
<polygon fill="midnightblue" stroke="midnightblue" points="433.698,-265.48 423.103,-265.516 431.408,-272.095 433.698,-265.48"/>
</g>
<!-- Node9&#45;&gt;Node3 -->
<g id="edge9" class="edge"><title>Node9&#45;&gt;Node3</title>
<path fill="none" stroke="midnightblue" d="M758.75,-246.424C726.673,-237.993 676.155,-224.63 623.428,-210.228"/>
<polygon fill="midnightblue" stroke="midnightblue" points="624.131,-206.791 613.561,-207.527 622.283,-213.543 624.131,-206.791"/>
</g>
<!-- Node9&#45;&gt;Node4 -->
<g id="edge10" class="edge"><title>Node9&#45;&gt;Node4</title>
<path fill="none" stroke="midnightblue" d="M783.078,-246.083C775.652,-238.22 764.648,-226.569 755.688,-217.081"/>
<polygon fill="midnightblue" stroke="midnightblue" points="758.176,-214.618 748.765,-209.751 753.087,-219.424 758.176,-214.618"/>
</g>
<!-- Node9&#45;&gt;Node6 -->
<g id="edge12" class="edge"><title>Node9&#45;&gt;Node6</title>
<path fill="none" stroke="midnightblue" d="M769.633,-246.444C746.721,-237.478 710.525,-223.314 684.634,-213.183"/>
<polygon fill="midnightblue" stroke="midnightblue" points="685.852,-209.901 675.264,-209.516 683.301,-216.42 685.852,-209.901"/>
</g>
<!-- Node10 -->
<g id="node10" class="node"><title>Node10</title>
<polygon fill="none" stroke="#bfbfbf" points="982,-62 982,-81 1041,-81 1041,-62 982,-62"/>
<text text-anchor="middle" x="1011.5" y="-69" font-family="Helvetica,sans-Serif" font-size="10.00">functional</text>
</g>
<!-- Node9&#45;&gt;Node10 -->
<g id="edge11" class="edge"><title>Node9&#45;&gt;Node10</title>
<path fill="none" stroke="midnightblue" d="M807.522,-246.28C836.275,-230.215 897.802,-193.912 942.5,-154 964.786,-134.1 986.357,-106.957 999.282,-89.5766"/>
<polygon fill="midnightblue" stroke="midnightblue" points="1002.45,-91.1727 1005.52,-81.033 996.798,-87.0438 1002.45,-91.1727"/>
</g>
<!-- Node11 -->
<g id="node11" class="node"><title>Node11</title>
<polygon fill="none" stroke="#bfbfbf" points="741.5,-62 741.5,-81 785.5,-81 785.5,-62 741.5,-62"/>
<text text-anchor="middle" x="763.5" y="-69" font-family="Helvetica,sans-Serif" font-size="10.00">vector</text>
</g>
<!-- Node9&#45;&gt;Node11 -->
<g id="edge13" class="edge"><title>Node9&#45;&gt;Node11</title>
<path fill="none" stroke="midnightblue" d="M793.477,-246.42C798.031,-225.024 807.88,-167.807 794.5,-123 790.842,-110.749 783.429,-98.4912 776.77,-89.1203"/>
<polygon fill="midnightblue" stroke="midnightblue" points="779.564,-87.013 770.763,-81.115 773.965,-91.2143 779.564,-87.013"/>
</g>
<!-- Node12&#45;&gt;Node8 -->
<g id="edge17" class="edge"><title>Node12&#45;&gt;Node8</title>
<path fill="none" stroke="midnightblue" d="M161.896,-128.869C184.113,-117.845 222.787,-98.6554 248.76,-85.7678"/>
<polygon fill="midnightblue" stroke="midnightblue" points="250.63,-88.7473 258.032,-81.1672 247.519,-82.4767 250.63,-88.7473"/>
</g>
<!-- Node13 -->
<g id="node13" class="node"><title>Node13</title>
<polygon fill="none" stroke="#bfbfbf" points="635,-0.5 635,-19.5 676,-19.5 676,-0.5 635,-0.5"/>
<text text-anchor="middle" x="655.5" y="-7.5" font-family="Helvetica,sans-Serif" font-size="10.00">string</text>
</g>
<!-- Node12&#45;&gt;Node13 -->
<g id="edge15" class="edge"><title>Node12&#45;&gt;Node13</title>
<path fill="none" stroke="midnightblue" d="M149.855,-128.95C161.198,-111.687 189.497,-72.8806 224.5,-56 242.546,-47.2972 529.038,-21.9151 624.685,-13.6412"/>
<polygon fill="midnightblue" stroke="midnightblue" points="625.205,-17.1095 634.867,-12.7628 624.603,-10.1354 625.205,-17.1095"/>
</g>
<!-- Node14 -->
<g id="node14" class="node"><title>Node14</title>
<polygon fill="none" stroke="#bfbfbf" points="267.5,-0.5 267.5,-19.5 313.5,-19.5 313.5,-0.5 267.5,-0.5"/>
<text text-anchor="middle" x="290.5" y="-7.5" font-family="Helvetica,sans-Serif" font-size="10.00">cstdint</text>
</g>
<!-- Node12&#45;&gt;Node14 -->
<g id="edge16" class="edge"><title>Node12&#45;&gt;Node14</title>
<path fill="none" stroke="midnightblue" d="M142.677,-128.745C139.826,-112.455 136.278,-77.2231 153.5,-56 178.586,-25.0865 225.37,-15.2148 257.215,-12.1719"/>
<polygon fill="midnightblue" stroke="midnightblue" points="257.691,-15.6456 267.39,-11.3812 257.148,-8.66661 257.691,-15.6456"/>
</g>
<!-- Node15 -->
<g id="node15" class="node"><title>Node15</title>
<polygon fill="none" stroke="#bfbfbf" points="0,-56.5 0,-86.5 101,-86.5 101,-56.5 0,-56.5"/>
<text text-anchor="start" x="8" y="-74.5" font-family="Helvetica,sans-Serif" font-size="10.00">boost/property_tree</text>
<text text-anchor="middle" x="50.5" y="-63.5" font-family="Helvetica,sans-Serif" font-size="10.00">/ptree.hpp</text>
</g>
<!-- Node12&#45;&gt;Node15 -->
<g id="edge18" class="edge"><title>Node12&#45;&gt;Node15</title>
<path fill="none" stroke="midnightblue" d="M131.823,-128.734C118.386,-119.443 96.7204,-104.461 79.1293,-92.2968"/>
<polygon fill="midnightblue" stroke="midnightblue" points="81.0906,-89.3978 70.8749,-86.589 77.1093,-95.1554 81.0906,-89.3978"/>
</g>
<!-- Node16&#45;&gt;Node3 -->
<g id="edge20" class="edge"><title>Node16&#45;&gt;Node3</title>
<path fill="none" stroke="midnightblue" d="M428.923,-246.444C463.954,-236.591 521.302,-220.462 557.418,-210.304"/>
<polygon fill="midnightblue" stroke="midnightblue" points="558.772,-213.559 567.451,-207.483 556.876,-206.821 558.772,-213.559"/>
</g>
<!-- Node16&#45;&gt;Node14 -->
<g id="edge22" class="edge"><title>Node16&#45;&gt;Node14</title>
<path fill="none" stroke="midnightblue" d="M370.54,-246.496C350.037,-239.234 322.416,-227.21 302.5,-210 253.521,-167.677 242.051,-149.307 224.5,-87 220.764,-73.7383 218.062,-68.1812 224.5,-56 231.924,-41.9533 245.921,-31.4667 259.121,-24.167"/>
<polygon fill="midnightblue" stroke="midnightblue" points="260.723,-27.2788 268.041,-19.6178 257.543,-21.0428 260.723,-27.2788"/>
</g>
<!-- Node17 -->
<g id="node17" class="node"><title>Node17</title>
<polygon fill="none" stroke="#bfbfbf" points="311.5,-190.5 311.5,-209.5 357.5,-209.5 357.5,-190.5 311.5,-190.5"/>
<text text-anchor="middle" x="334.5" y="-197.5" font-family="Helvetica,sans-Serif" font-size="10.00">chrono</text>
</g>
<!-- Node16&#45;&gt;Node17 -->
<g id="edge21" class="edge"><title>Node16&#45;&gt;Node17</title>
<path fill="none" stroke="midnightblue" d="M388.217,-246.324C378.664,-238.263 364.22,-226.077 352.716,-216.369"/>
<polygon fill="midnightblue" stroke="midnightblue" points="354.87,-213.608 344.97,-209.834 350.356,-218.958 354.87,-213.608"/>
</g>
<!-- Node18 -->
<g id="node18" class="node"><title>Node18</title>
<polygon fill="none" stroke="#bfbfbf" points="335.5,-62 335.5,-81 387.5,-81 387.5,-62 335.5,-62"/>
<text text-anchor="middle" x="361.5" y="-69" font-family="Helvetica,sans-Serif" font-size="10.00">sstream</text>
</g>
<!-- Node16&#45;&gt;Node18 -->
<g id="edge23" class="edge"><title>Node16&#45;&gt;Node18</title>
<path fill="none" stroke="midnightblue" d="M396.715,-246.198C391.013,-218.073 373.149,-129.958 365.283,-91.1575"/>
<polygon fill="midnightblue" stroke="midnightblue" points="368.684,-90.3192 363.267,-81.214 361.824,-91.7101 368.684,-90.3192"/>
</g>
<!-- Node19 -->
<g id="node19" class="node"><title>Node19</title>
<g id="a_node19"><a xlink:href="string_8hpp.html" target="_top" xlink:title="../string/string.hpp">
<polygon fill="none" stroke="black" points="420,-129 420,-148 515,-148 515,-129 420,-129"/>
<text text-anchor="middle" x="467.5" y="-136" font-family="Helvetica,sans-Serif" font-size="10.00">../string/string.hpp</text>
</a>
</g>
</g>
<!-- Node16&#45;&gt;Node19 -->
<g id="edge24" class="edge"><title>Node16&#45;&gt;Node19</title>
<path fill="none" stroke="midnightblue" d="M403.686,-246.319C414.975,-227.422 441.962,-182.248 456.973,-157.121"/>
<polygon fill="midnightblue" stroke="midnightblue" points="460.13,-158.662 462.254,-148.282 454.12,-155.072 460.13,-158.662"/>
</g>
<!-- Node16&#45;&gt;Node25 -->
<g id="edge38" class="edge"><title>Node16&#45;&gt;Node25</title>
<path fill="none" stroke="midnightblue" d="M414.888,-246.324C431.171,-237.703 456.367,-224.364 475.216,-214.386"/>
<polygon fill="midnightblue" stroke="midnightblue" points="476.952,-217.427 484.153,-209.655 473.677,-211.24 476.952,-217.427"/>
</g>
<!-- Node19&#45;&gt;Node8 -->
<g id="edge31" class="edge"><title>Node19&#45;&gt;Node8</title>
<path fill="none" stroke="midnightblue" d="M442.004,-128.869C408.2,-117.424 348.403,-97.1807 310.421,-84.3223"/>
<polygon fill="midnightblue" stroke="midnightblue" points="311.39,-80.9552 300.796,-81.0637 309.145,-87.5856 311.39,-80.9552"/>
</g>
<!-- Node19&#45;&gt;Node10 -->
<g id="edge26" class="edge"><title>Node19&#45;&gt;Node10</title>
<path fill="none" stroke="midnightblue" d="M496.648,-128.932C505.232,-126.687 514.686,-124.483 523.5,-123 720.921,-89.7845 777.042,-130.294 972.5,-87 975.575,-86.319 978.733,-85.4494 981.857,-84.4753"/>
<polygon fill="midnightblue" stroke="midnightblue" points="983.273,-87.6889 991.578,-81.1102 980.983,-81.0741 983.273,-87.6889"/>
</g>
<!-- Node19&#45;&gt;Node11 -->
<g id="edge32" class="edge"><title>Node19&#45;&gt;Node11</title>
<path fill="none" stroke="midnightblue" d="M499.42,-128.964C507.276,-126.939 515.678,-124.835 523.5,-123 543.583,-118.29 670.789,-91.7725 731.427,-79.1628"/>
<polygon fill="midnightblue" stroke="midnightblue" points="732.171,-82.5831 741.249,-77.1209 730.746,-75.7296 732.171,-82.5831"/>
</g>
<!-- Node19&#45;&gt;Node13 -->
<g id="edge29" class="edge"><title>Node19&#45;&gt;Node13</title>
<path fill="none" stroke="midnightblue" d="M492.626,-128.976C516.028,-120.384 551.296,-105.728 578.5,-87 603.532,-69.7674 627.68,-43.9594 642.063,-27.2992"/>
<polygon fill="midnightblue" stroke="midnightblue" points="644.861,-29.4102 648.647,-19.5147 639.516,-24.8898 644.861,-29.4102"/>
</g>
<!-- Node19&#45;&gt;Node14 -->
<g id="edge25" class="edge"><title>Node19&#45;&gt;Node14</title>
<path fill="none" stroke="midnightblue" d="M461.874,-128.734C451.017,-112.425 425.659,-77.1628 396.5,-56 374.19,-39.8085 345.163,-28.0043 323.126,-20.5585"/>
<polygon fill="midnightblue" stroke="midnightblue" points="324.134,-17.2061 313.542,-17.4441 321.971,-23.8634 324.134,-17.2061"/>
</g>
<!-- Node19&#45;&gt;Node18 -->
<g id="edge30" class="edge"><title>Node19&#45;&gt;Node18</title>
<path fill="none" stroke="midnightblue" d="M453.204,-128.734C435.483,-117.867 405.068,-99.2161 384.156,-86.3931"/>
<polygon fill="midnightblue" stroke="midnightblue" points="385.924,-83.3712 375.569,-81.1273 382.264,-89.3386 385.924,-83.3712"/>
</g>
<!-- Node20 -->
<g id="node20" class="node"><title>Node20</title>
<polygon fill="none" stroke="#bfbfbf" points="517.5,-62 517.5,-81 569.5,-81 569.5,-62 517.5,-62"/>
<text text-anchor="middle" x="543.5" y="-69" font-family="Helvetica,sans-Serif" font-size="10.00">memory</text>
</g>
<!-- Node19&#45;&gt;Node20 -->
<g id="edge27" class="edge"><title>Node19&#45;&gt;Node20</title>
<path fill="none" stroke="midnightblue" d="M477.75,-128.734C489.943,-118.305 510.517,-100.709 525.408,-87.9732"/>
<polygon fill="midnightblue" stroke="midnightblue" points="528.088,-90.2869 533.413,-81.1273 523.538,-84.9671 528.088,-90.2869"/>
</g>
<!-- Node21 -->
<g id="node21" class="node"><title>Node21</title>
<polygon fill="none" stroke="#bfbfbf" points="626,-62 626,-81 685,-81 685,-62 626,-62"/>
<text text-anchor="middle" x="655.5" y="-69" font-family="Helvetica,sans-Serif" font-size="10.00">stdexcept</text>
</g>
<!-- Node19&#45;&gt;Node21 -->
<g id="edge28" class="edge"><title>Node19&#45;&gt;Node21</title>
<path fill="none" stroke="midnightblue" d="M492.465,-128.869C525.424,-117.473 583.618,-97.3528 620.83,-84.4869"/>
<polygon fill="midnightblue" stroke="midnightblue" points="622.424,-87.6393 630.731,-81.0637 620.136,-81.0235 622.424,-87.6393"/>
</g>
<!-- Node22 -->
<g id="node22" class="node"><title>Node22</title>
<g id="a_node22"><a xlink:href="color_8hpp.html" target="_top" xlink:title="color.hpp">
<polygon fill="none" stroke="black" points="443.5,-62 443.5,-81 499.5,-81 499.5,-62 443.5,-62"/>
<text text-anchor="middle" x="471.5" y="-69" font-family="Helvetica,sans-Serif" font-size="10.00">color.hpp</text>
</a>
</g>
</g>
<!-- Node19&#45;&gt;Node22 -->
<g id="edge33" class="edge"><title>Node19&#45;&gt;Node22</title>
<path fill="none" stroke="midnightblue" d="M468.039,-128.734C468.627,-119.183 469.585,-103.618 470.344,-91.2829"/>
<polygon fill="midnightblue" stroke="midnightblue" points="473.848,-91.3234 470.969,-81.1273 466.861,-90.8934 473.848,-91.3234"/>
</g>
<!-- Node22&#45;&gt;Node13 -->
<g id="edge37" class="edge"><title>Node22&#45;&gt;Node13</title>
<path fill="none" stroke="midnightblue" d="M492.528,-61.9382C497.72,-59.9131 503.288,-57.8161 508.5,-56 548.406,-42.0955 595.18,-28.1769 625.062,-19.5804"/>
<polygon fill="midnightblue" stroke="midnightblue" points="626.236,-22.8851 634.888,-16.7704 624.311,-16.1549 626.236,-22.8851"/>
</g>
<!-- Node22&#45;&gt;Node14 -->
<g id="edge35" class="edge"><title>Node22&#45;&gt;Node14</title>
<path fill="none" stroke="midnightblue" d="M447.097,-61.986C441.334,-60.0001 435.206,-57.9085 429.5,-56 393.293,-43.8904 351.611,-30.4646 323.409,-21.4565"/>
<polygon fill="midnightblue" stroke="midnightblue" points="324.254,-18.0524 313.664,-18.3482 322.127,-24.7214 324.254,-18.0524"/>
</g>
<!-- Node23 -->
<g id="node23" class="node"><title>Node23</title>
<polygon fill="none" stroke="#bfbfbf" points="480.5,-0.5 480.5,-19.5 526.5,-19.5 526.5,-0.5 480.5,-0.5"/>
<text text-anchor="middle" x="503.5" y="-7.5" font-family="Helvetica,sans-Serif" font-size="10.00">cctype</text>
</g>
<!-- Node22&#45;&gt;Node23 -->
<g id="edge34" class="edge"><title>Node22&#45;&gt;Node23</title>
<path fill="none" stroke="midnightblue" d="M476.085,-61.9751C480.742,-53.3152 488.092,-39.6486 494.01,-28.6453"/>
<polygon fill="midnightblue" stroke="midnightblue" points="497.27,-29.974 498.924,-19.5091 491.105,-26.6584 497.27,-29.974"/>
</g>
<!-- Node24 -->
<g id="node24" class="node"><title>Node24</title>
<polygon fill="none" stroke="#bfbfbf" points="417,-0.5 417,-19.5 462,-19.5 462,-0.5 417,-0.5"/>
<text text-anchor="middle" x="439.5" y="-7.5" font-family="Helvetica,sans-Serif" font-size="10.00">cstdlib</text>
</g>
<!-- Node22&#45;&gt;Node24 -->
<g id="edge36" class="edge"><title>Node22&#45;&gt;Node24</title>
<path fill="none" stroke="midnightblue" d="M466.915,-61.9751C462.258,-53.3152 454.908,-39.6486 448.99,-28.6453"/>
<polygon fill="midnightblue" stroke="midnightblue" points="451.895,-26.6584 444.076,-19.5091 445.73,-29.974 451.895,-26.6584"/>
</g>
<!-- Node25&#45;&gt;Node5 -->
<g id="edge41" class="edge"><title>Node25&#45;&gt;Node5</title>
<path fill="none" stroke="midnightblue" d="M464.327,-190.477C430.27,-182.165 377.989,-168.662 333.5,-154 331.233,-153.253 328.903,-152.443 326.569,-151.601"/>
<polygon fill="midnightblue" stroke="midnightblue" points="327.689,-148.283 317.097,-148.036 325.223,-154.834 327.689,-148.283"/>
</g>
<!-- Node25&#45;&gt;Node8 -->
<g id="edge44" class="edge"><title>Node25&#45;&gt;Node8</title>
<path fill="none" stroke="midnightblue" d="M482.352,-190.45C464.019,-181.691 434.984,-167.484 410.5,-154 369.956,-131.672 324.084,-103.289 297.604,-86.5875"/>
<polygon fill="midnightblue" stroke="midnightblue" points="299.409,-83.5875 289.087,-81.1961 295.665,-89.5021 299.409,-83.5875"/>
</g>
<!-- Node25&#45;&gt;Node12 -->
<g id="edge52" class="edge"><title>Node25&#45;&gt;Node12</title>
<path fill="none" stroke="midnightblue" d="M451.373,-190.789C382.21,-179.23 257.096,-158.319 189.97,-147.1"/>
<polygon fill="midnightblue" stroke="midnightblue" points="190.153,-143.582 179.712,-145.385 188.999,-150.486 190.153,-143.582"/>
</g>
<!-- Node25&#45;&gt;Node13 -->
<g id="edge43" class="edge"><title>Node25&#45;&gt;Node13</title>
<path fill="none" stroke="midnightblue" d="M549.888,-190.776C592.619,-182.768 650.189,-169.552 667.5,-154 701.022,-123.885 708.978,-98.3206 693.5,-56 689.443,-44.9083 681.312,-34.6651 673.609,-26.7625"/>
<polygon fill="midnightblue" stroke="midnightblue" points="675.862,-24.0747 666.214,-19.6955 671.025,-29.1351 675.862,-24.0747"/>
</g>
<!-- Node25&#45;&gt;Node19 -->
<g id="edge51" class="edge"><title>Node25&#45;&gt;Node19</title>
<path fill="none" stroke="midnightblue" d="M495.772,-190.475C490.92,-181.727 483.234,-167.869 477.1,-156.809"/>
<polygon fill="midnightblue" stroke="midnightblue" points="480.13,-155.057 472.219,-148.009 474.009,-158.452 480.13,-155.057"/>
</g>
<!-- Node25&#45;&gt;Node21 -->
<g id="edge42" class="edge"><title>Node25&#45;&gt;Node21</title>
<path fill="none" stroke="midnightblue" d="M546.849,-190.446C584.592,-182.487 633.655,-169.535 646.5,-154 660.923,-136.556 660.902,-109.342 658.815,-91.2226"/>
<polygon fill="midnightblue" stroke="midnightblue" points="662.272,-90.672 657.359,-81.2849 655.346,-91.6866 662.272,-90.672"/>
</g>
<!-- Node26 -->
<g id="node26" class="node"><title>Node26</title>
<polygon fill="none" stroke="#bfbfbf" points="735.5,-129 735.5,-148 785.5,-148 785.5,-129 735.5,-129"/>
<text text-anchor="middle" x="760.5" y="-136" font-family="Helvetica,sans-Serif" font-size="10.00">iomanip</text>
</g>
<!-- Node25&#45;&gt;Node26 -->
<g id="edge39" class="edge"><title>Node25&#45;&gt;Node26</title>
<path fill="none" stroke="midnightblue" d="M549.744,-191.228C594.881,-183.574 663.334,-170.626 721.5,-154 724.144,-153.244 726.863,-152.393 729.578,-151.491"/>
<polygon fill="midnightblue" stroke="midnightblue" points="730.976,-154.709 739.242,-148.083 728.648,-148.108 730.976,-154.709"/>
</g>
<!-- Node27 -->
<g id="node27" class="node"><title>Node27</title>
<polygon fill="none" stroke="#bfbfbf" points="909.5,-62 909.5,-81 963.5,-81 963.5,-62 909.5,-62"/>
<text text-anchor="middle" x="936.5" y="-69" font-family="Helvetica,sans-Serif" font-size="10.00">iostream</text>
</g>
<!-- Node25&#45;&gt;Node27 -->
<g id="edge40" class="edge"><title>Node25&#45;&gt;Node27</title>
<path fill="none" stroke="midnightblue" d="M549.521,-191.2C552.557,-190.777 555.569,-190.373 558.5,-190 638.695,-179.798 860.694,-208.393 920.5,-154 937.719,-138.34 939.585,-110.027 938.613,-91.2425"/>
<polygon fill="midnightblue" stroke="midnightblue" points="942.096,-90.8899 937.781,-81.2137 935.12,-91.469 942.096,-90.8899"/>
</g>
<!-- Node28 -->
<g id="node28" class="node"><title>Node28</title>
<polygon fill="none" stroke="#bfbfbf" points="533,-123.5 533,-153.5 638,-153.5 638,-123.5 533,-123.5"/>
<text text-anchor="start" x="541" y="-141.5" font-family="Helvetica,sans-Serif" font-size="10.00">boost/chrono/io/time</text>
<text text-anchor="middle" x="585.5" y="-130.5" font-family="Helvetica,sans-Serif" font-size="10.00">_point_io.hpp</text>
</g>
<!-- Node25&#45;&gt;Node28 -->
<g id="edge45" class="edge"><title>Node25&#45;&gt;Node28</title>
<path fill="none" stroke="midnightblue" d="M512.678,-190.475C524.19,-182.417 541.896,-170.023 556.966,-159.474"/>
<polygon fill="midnightblue" stroke="midnightblue" points="559.282,-162.125 565.467,-153.523 555.268,-156.39 559.282,-162.125"/>
</g>
<!-- Node29 -->
<g id="node29" class="node"><title>Node29</title>
<g id="a_node29"><a xlink:href="multibuf_8hpp.html" target="_top" xlink:title="multibuf.hpp">
<polygon fill="none" stroke="black" points="841.5,-129 841.5,-148 911.5,-148 911.5,-129 841.5,-129"/>
<text text-anchor="middle" x="876.5" y="-136" font-family="Helvetica,sans-Serif" font-size="10.00">multibuf.hpp</text>
</a>
</g>
</g>
<!-- Node25&#45;&gt;Node29 -->
<g id="edge46" class="edge"><title>Node25&#45;&gt;Node29</title>
<path fill="none" stroke="midnightblue" d="M549.546,-191.38C552.576,-190.912 555.579,-190.449 558.5,-190 663.368,-173.865 689.808,-171.239 794.5,-154 806.416,-152.038 819.286,-149.813 831.219,-147.704"/>
<polygon fill="midnightblue" stroke="midnightblue" points="832.183,-151.088 841.416,-145.892 830.958,-144.196 832.183,-151.088"/>
</g>
<!-- Node29&#45;&gt;Node11 -->
<g id="edge49" class="edge"><title>Node29&#45;&gt;Node11</title>
<path fill="none" stroke="midnightblue" d="M861.26,-128.734C842.284,-117.818 809.654,-99.0487 787.353,-86.2209"/>
<polygon fill="midnightblue" stroke="midnightblue" points="788.912,-83.0796 778.498,-81.1273 785.421,-89.1474 788.912,-83.0796"/>
</g>
<!-- Node29&#45;&gt;Node13 -->
<g id="edge50" class="edge"><title>Node29&#45;&gt;Node13</title>
<path fill="none" stroke="midnightblue" d="M877.854,-128.759C879.886,-112.175 881.657,-76.0183 862.5,-56 838.583,-31.0082 738.038,-18.4468 686.399,-13.5424"/>
<polygon fill="midnightblue" stroke="midnightblue" points="686.444,-10.0321 676.167,-12.6104 685.809,-17.0032 686.444,-10.0321"/>
</g>
<!-- Node29&#45;&gt;Node27 -->
<g id="edge47" class="edge"><title>Node29&#45;&gt;Node27</title>
<path fill="none" stroke="midnightblue" d="M884.592,-128.734C894.038,-118.5 909.856,-101.364 921.553,-88.6924"/>
<polygon fill="midnightblue" stroke="midnightblue" points="924.325,-90.8494 928.536,-81.1273 919.182,-86.1014 924.325,-90.8494"/>
</g>
<!-- Node30 -->
<g id="node30" class="node"><title>Node30</title>
<polygon fill="none" stroke="#bfbfbf" points="803.5,-62 803.5,-81 853.5,-81 853.5,-62 803.5,-62"/>
<text text-anchor="middle" x="828.5" y="-69" font-family="Helvetica,sans-Serif" font-size="10.00">fstream</text>
</g>
<!-- Node29&#45;&gt;Node30 -->
<g id="edge48" class="edge"><title>Node29&#45;&gt;Node30</title>
<path fill="none" stroke="midnightblue" d="M870.027,-128.734C862.613,-118.695 850.295,-102.014 840.996,-89.4213"/>
<polygon fill="midnightblue" stroke="midnightblue" points="843.627,-87.0925 834.871,-81.1273 837.996,-91.2508 843.627,-87.0925"/>
</g>
<!-- Node31&#45;&gt;Node7 -->
<g id="edge58" class="edge"><title>Node31&#45;&gt;Node7</title>
<path fill="none" stroke="midnightblue" d="M730.237,-302.324C715.279,-293.822 692.245,-280.729 674.773,-270.797"/>
<polygon fill="midnightblue" stroke="midnightblue" points="676.149,-267.553 665.726,-265.655 672.69,-273.639 676.149,-267.553"/>
</g>
<!-- Node31&#45;&gt;Node9 -->
<g id="edge60" class="edge"><title>Node31&#45;&gt;Node9</title>
<path fill="none" stroke="midnightblue" d="M753.096,-302.083C759.727,-294.298 769.521,-282.801 777.558,-273.367"/>
<polygon fill="midnightblue" stroke="midnightblue" points="780.225,-275.633 784.045,-265.751 774.896,-271.094 780.225,-275.633"/>
</g>
<!-- Node31&#45;&gt;Node10 -->
<g id="edge56" class="edge"><title>Node31&#45;&gt;Node10</title>
<path fill="none" stroke="midnightblue" d="M779.146,-302.465C803.825,-295.217 837.434,-283.225 863.5,-266 921.192,-227.875 931.787,-210.61 971.5,-154 985.742,-133.698 997.588,-107.564 1004.6,-90.4371"/>
<polygon fill="midnightblue" stroke="midnightblue" points="1007.88,-91.6552 1008.32,-81.0695 1001.38,-89.0706 1007.88,-91.6552"/>
</g>
<!-- Node31&#45;&gt;Node13 -->
<g id="edge57" class="edge"><title>Node31&#45;&gt;Node13</title>
<path fill="none" stroke="midnightblue" d="M809.899,-302.468C904.388,-288.119 1069.5,-255.28 1069.5,-201 1069.5,-201 1069.5,-201 1069.5,-137.5 1069.5,-100.306 1078.28,-80.7365 1050.5,-56 1023.41,-31.8741 774.427,-17.0255 686.265,-12.4873"/>
<polygon fill="midnightblue" stroke="midnightblue" points="686.264,-8.98292 676.1,-11.9733 685.911,-15.974 686.264,-8.98292"/>
</g>
<!-- Node31&#45;&gt;Node25 -->
<g id="edge59" class="edge"><title>Node31&#45;&gt;Node25</title>
<path fill="none" stroke="midnightblue" d="M739.5,-302.352C729.277,-288.295 707.086,-260.596 681.5,-246 660.385,-233.955 601.777,-220.56 556.918,-211.541"/>
<polygon fill="midnightblue" stroke="midnightblue" points="557.489,-208.086 546.999,-209.572 556.126,-214.952 557.489,-208.086"/>
</g>
</g>
</svg>
        <g id="navigator" transform="translate(0 0)" fill="#404254">
                <rect fill="#f2f5e9" fill-opacity="0.5" stroke="#606060" stroke-width=".5" x="0" y="0" width="60" height="60"/>
                <use id="zoomplus" xlink:href="#zoomPlus" x="17" y="9" onmousedown="handleZoom(evt,'in')"/>
                <use id="zoomminus" xlink:href="#zoomMin" x="42" y="9" onmousedown="handleZoom(evt,'out')"/>
                <use id="reset" xlink:href="#resetDef" x="30" y="36" onmousedown="handleReset()"/>
                <g id="arrowUp" xlink:href="#dirArrow" transform="translate(30 24)" onmousedown="handlePan(0,-1)">
                  <use xlink:href="#rim" fill="#404040">
                        <set attributeName="fill" to="#808080" begin="arrowUp.mouseover" end="arrowUp.mouseout"/>
                  </use>
                  <path fill="none" stroke="white" stroke-width="1.5" d="M0,-3.0v7 M-2.5,-0.5L0,-3.0L2.5,-0.5"/>
                </g>
                <g id="arrowRight" xlink:href="#dirArrow" transform="rotate(90) translate(36 -43)" onmousedown="handlePan(1,0)">
                  <use xlink:href="#rim" fill="#404040">
                        <set attributeName="fill" to="#808080" begin="arrowRight.mouseover" end="arrowRight.mouseout"/>
                  </use>
                  <path fill="none" stroke="white" stroke-width="1.5" d="M0,-3.0v7 M-2.5,-0.5L0,-3.0L2.5,-0.5"/>
                </g>
                <g id="arrowDown" xlink:href="#dirArrow" transform="rotate(180) translate(-30 -48)" onmousedown="handlePan(0,1)">
                  <use xlink:href="#rim" fill="#404040">
                        <set attributeName="fill" to="#808080" begin="arrowDown.mouseover" end="arrowDown.mouseout"/>
                  </use>
                  <path fill="none" stroke="white" stroke-width="1.5" d="M0,-3.0v7 M-2.5,-0.5L0,-3.0L2.5,-0.5"/>
                </g>
                <g id="arrowLeft" xlink:href="#dirArrow" transform="rotate(270) translate(-36 17)" onmousedown="handlePan(-1,0)">
                  <use xlink:href="#rim" fill="#404040">
                        <set attributeName="fill" to="#808080" begin="arrowLeft.mouseover" end="arrowLeft.mouseout"/>
                  </use>
                  <path fill="none" stroke="white" stroke-width="1.5" d="M0,-3.0v7 M-2.5,-0.5L0,-3.0L2.5,-0.5"/>
                </g>
        </g>
        <svg viewBox="0 0 15 15" width="100%" height="30px" preserveAspectRatio="xMaxYMin meet">
         <g id="arrow_out" transform="scale(0.3 0.3)">
          <a xlink:href="main_8cpp__incl_org.svg" target="_base">
           <rect id="button" ry="5" rx="5" y="6" x="6" height="38" width="38"
                fill="#f2f5e9" fill-opacity="0.5" stroke="#606060" stroke-width="1.0"/>
           <path id="arrow"
             d="M 11.500037,31.436501 C 11.940474,20.09759 22.043105,11.32322 32.158766,21.979434 L 37.068811,17.246167 C 37.068811,17.246167 37.088388,32 37.088388,32 L 22.160133,31.978069 C 22.160133,31.978069 26.997745,27.140456 26.997745,27.140456 C 18.528582,18.264221 13.291696,25.230495 11.500037,31.436501 z"
             style="fill:#404040;"/>
          </a>
         </g>
        </svg>
</svg>
