<?xml version="1.0" encoding="UTF-8" standalone="no"?>
<!DOCTYPE svg PUBLIC "-//W3C//DTD SVG 1.1//EN"
 "http://www.w3.org/Graphics/SVG/1.1/DTD/svg11.dtd">
<!-- Generated by graphviz version 2.38.0 (20140413.2041)
 -->
<!-- Title: src/melanobot.cpp Pages: 1 -->
<svg width="1655pt" height="442pt"
 viewBox="0.00 0.00 1655.00 442.00" xmlns="http://www.w3.org/2000/svg" xmlns:xlink="http://www.w3.org/1999/xlink">
<g id="graph0" class="graph" transform="scale(1 1) rotate(0) translate(4 438)">
<title>src/melanobot.cpp</title>
<!-- Node1 -->
<g id="node1" class="node"><title>Node1</title>
<polygon fill="#bfbfbf" stroke="black" points="778.5,-414.5 778.5,-433.5 875.5,-433.5 875.5,-414.5 778.5,-414.5"/>
<text text-anchor="middle" x="827" y="-421.5" font-family="Helvetica,sans-Serif" font-size="10.00">src/melanobot.cpp</text>
</g>
<!-- Node2 -->
<g id="node2" class="node"><title>Node2</title>
<g id="a_node2"><a xlink:href="melanobot_8hpp.html" target="_top" xlink:title="melanobot.hpp">
<polygon fill="none" stroke="black" points="278,-302.5 278,-321.5 358,-321.5 358,-302.5 278,-302.5"/>
<text text-anchor="middle" x="318" y="-309.5" font-family="Helvetica,sans-Serif" font-size="10.00">melanobot.hpp</text>
</a>
</g>
</g>
<!-- Node1&#45;&gt;Node2 -->
<g id="edge1" class="edge"><title>Node1&#45;&gt;Node2</title>
<path fill="none" stroke="midnightblue" d="M787.483,-414.46C695.686,-394.622 468.201,-345.46 367.417,-323.679"/>
<polygon fill="midnightblue" stroke="midnightblue" points="368.005,-320.226 357.492,-321.535 366.527,-327.068 368.005,-320.226"/>
</g>
<!-- Node36 -->
<g id="node36" class="node"><title>Node36</title>
<g id="a_node36"><a xlink:href="handler_8hpp.html" target="_top" xlink:title="handler/handler.hpp">
<polygon fill="none" stroke="black" points="972.5,-358.5 972.5,-377.5 1073.5,-377.5 1073.5,-358.5 972.5,-358.5"/>
<text text-anchor="middle" x="1023" y="-365.5" font-family="Helvetica,sans-Serif" font-size="10.00">handler/handler.hpp</text>
</a>
</g>
</g>
<!-- Node1&#45;&gt;Node36 -->
<g id="edge64" class="edge"><title>Node1&#45;&gt;Node36</title>
<path fill="none" stroke="midnightblue" d="M858.057,-414.444C891.603,-405.201 945.197,-390.436 982.141,-380.257"/>
<polygon fill="midnightblue" stroke="midnightblue" points="983.377,-383.547 992.089,-377.516 981.518,-376.798 983.377,-383.547"/>
</g>
<!-- Node3 -->
<g id="node3" class="node"><title>Node3</title>
<polygon fill="none" stroke="#bfbfbf" points="312,-190.5 312,-209.5 358,-209.5 358,-190.5 312,-190.5"/>
<text text-anchor="middle" x="335" y="-197.5" font-family="Helvetica,sans-Serif" font-size="10.00">atomic</text>
</g>
<!-- Node2&#45;&gt;Node3 -->
<g id="edge2" class="edge"><title>Node2&#45;&gt;Node3</title>
<path fill="none" stroke="midnightblue" d="M319.334,-302.368C322.077,-284.617 328.406,-243.666 332.126,-219.597"/>
<polygon fill="midnightblue" stroke="midnightblue" points="335.604,-220.009 333.672,-209.591 328.686,-218.94 335.604,-220.009"/>
</g>
<!-- Node4 -->
<g id="node4" class="node"><title>Node4</title>
<polygon fill="none" stroke="#bfbfbf" points="22.5,-190.5 22.5,-209.5 117.5,-209.5 117.5,-190.5 22.5,-190.5"/>
<text text-anchor="middle" x="70" y="-197.5" font-family="Helvetica,sans-Serif" font-size="10.00">condition_variable</text>
</g>
<!-- Node2&#45;&gt;Node4 -->
<g id="edge3" class="edge"><title>Node2&#45;&gt;Node4</title>
<path fill="none" stroke="midnightblue" d="M277.961,-307.899C220.394,-302.655 118.167,-290.166 91,-266 77.8667,-254.318 72.9017,-234.374 71.0489,-219.651"/>
<polygon fill="midnightblue" stroke="midnightblue" points="74.53,-219.283 70.155,-209.634 67.5578,-219.905 74.53,-219.283"/>
</g>
<!-- Node5 -->
<g id="node5" class="node"><title>Node5</title>
<polygon fill="none" stroke="#bfbfbf" points="938,-129 938,-148 982,-148 982,-129 938,-129"/>
<text text-anchor="middle" x="960" y="-136" font-family="Helvetica,sans-Serif" font-size="10.00">mutex</text>
</g>
<!-- Node2&#45;&gt;Node5 -->
<g id="edge4" class="edge"><title>Node2&#45;&gt;Node5</title>
<path fill="none" stroke="midnightblue" d="M358.09,-310.55C466.116,-308.874 761.158,-301.119 851,-266 888.757,-251.241 896.991,-241.097 923,-210 936.273,-194.13 946.673,-172.719 953.023,-157.67"/>
<polygon fill="midnightblue" stroke="midnightblue" points="956.425,-158.591 956.913,-148.007 949.932,-155.976 956.425,-158.591"/>
</g>
<!-- Node6 -->
<g id="node6" class="node"><title>Node6</title>
<polygon fill="none" stroke="#bfbfbf" points="212.5,-190.5 212.5,-209.5 255.5,-209.5 255.5,-190.5 212.5,-190.5"/>
<text text-anchor="middle" x="234" y="-197.5" font-family="Helvetica,sans-Serif" font-size="10.00">queue</text>
</g>
<!-- Node2&#45;&gt;Node6 -->
<g id="edge5" class="edge"><title>Node2&#45;&gt;Node6</title>
<path fill="none" stroke="midnightblue" d="M309.674,-302.332C301.324,-293.481 288.265,-279.203 278,-266 265.885,-250.418 253.394,-231.66 244.83,-218.308"/>
<polygon fill="midnightblue" stroke="midnightblue" points="247.661,-216.237 239.351,-209.665 241.749,-219.985 247.661,-216.237"/>
</g>
<!-- Node7 -->
<g id="node7" class="node"><title>Node7</title>
<polygon fill="none" stroke="#bfbfbf" points="0,-246.5 0,-265.5 44,-265.5 44,-246.5 0,-246.5"/>
<text text-anchor="middle" x="22" y="-253.5" font-family="Helvetica,sans-Serif" font-size="10.00">thread</text>
</g>
<!-- Node2&#45;&gt;Node7 -->
<g id="edge6" class="edge"><title>Node2&#45;&gt;Node7</title>
<path fill="none" stroke="midnightblue" d="M277.738,-304.973C226.488,-297.086 135.316,-282.332 58,-266 56.7236,-265.73 55.4239,-265.447 54.1125,-265.154"/>
<polygon fill="midnightblue" stroke="midnightblue" points="54.5613,-261.664 44.0253,-262.779 52.957,-268.478 54.5613,-261.664"/>
</g>
<!-- Node8 -->
<g id="node8" class="node"><title>Node8</title>
<polygon fill="none" stroke="#bfbfbf" points="521.5,-0.5 521.5,-19.5 604.5,-19.5 604.5,-0.5 521.5,-0.5"/>
<text text-anchor="middle" x="563" y="-7.5" font-family="Helvetica,sans-Serif" font-size="10.00">unordered_map</text>
</g>
<!-- Node2&#45;&gt;Node8 -->
<g id="edge7" class="edge"><title>Node2&#45;&gt;Node8</title>
<path fill="none" stroke="midnightblue" d="M314.259,-302.017C299.758,-265.609 251.287,-127.567 318,-56 324.587,-48.9334 441.373,-29.8032 511.29,-18.8962"/>
<polygon fill="midnightblue" stroke="midnightblue" points="511.903,-22.343 521.247,-17.349 510.829,-15.426 511.903,-22.343"/>
</g>
<!-- Node9 -->
<g id="node9" class="node"><title>Node9</title>
<g id="a_node9"><a xlink:href="concurrent__container_8hpp.html" target="_top" xlink:title="concurrent_container.hpp">
<polygon fill="none" stroke="black" points="100,-246.5 100,-265.5 226,-265.5 226,-246.5 100,-246.5"/>
<text text-anchor="middle" x="163" y="-253.5" font-family="Helvetica,sans-Serif" font-size="10.00">concurrent_container.hpp</text>
</a>
</g>
</g>
<!-- Node2&#45;&gt;Node9 -->
<g id="edge8" class="edge"><title>Node2&#45;&gt;Node9</title>
<path fill="none" stroke="midnightblue" d="M293.44,-302.444C267.477,-293.399 226.332,-279.064 197.203,-268.916"/>
<polygon fill="midnightblue" stroke="midnightblue" points="198.04,-265.501 187.445,-265.516 195.737,-272.112 198.04,-265.501"/>
</g>
<!-- Node12 -->
<g id="node12" class="node"><title>Node12</title>
<g id="a_node12"><a xlink:href="settings_8hpp.html" target="_top" xlink:title="settings.hpp">
<polygon fill="none" stroke="black" points="1038,-129 1038,-148 1108,-148 1108,-129 1038,-129"/>
<text text-anchor="middle" x="1073" y="-136" font-family="Helvetica,sans-Serif" font-size="10.00">settings.hpp</text>
</a>
</g>
</g>
<!-- Node2&#45;&gt;Node12 -->
<g id="edge14" class="edge"><title>Node2&#45;&gt;Node12</title>
<path fill="none" stroke="midnightblue" d="M358.39,-310.427C471.024,-308.414 786.702,-299.826 884,-266 920.83,-253.196 1013.33,-184.852 1053.68,-154.289"/>
<polygon fill="midnightblue" stroke="midnightblue" points="1055.83,-157.047 1061.67,-148.208 1051.59,-151.475 1055.83,-157.047"/>
</g>
<!-- Node16 -->
<g id="node16" class="node"><title>Node16</title>
<g id="a_node16"><a xlink:href="connection_8hpp.html" target="_top" xlink:title="network/connection.hpp">
<polygon fill="none" stroke="black" points="722,-246.5 722,-265.5 842,-265.5 842,-246.5 722,-246.5"/>
<text text-anchor="middle" x="782" y="-253.5" font-family="Helvetica,sans-Serif" font-size="10.00">network/connection.hpp</text>
</a>
</g>
</g>
<!-- Node2&#45;&gt;Node16 -->
<g id="edge19" class="edge"><title>Node2&#45;&gt;Node16</title>
<path fill="none" stroke="midnightblue" d="M358.365,-306.302C437.369,-297.108 613.28,-276.635 711.764,-265.174"/>
<polygon fill="midnightblue" stroke="midnightblue" points="712.393,-268.625 721.922,-263.992 711.584,-261.671 712.393,-268.625"/>
</g>
<!-- Node9&#45;&gt;Node3 -->
<g id="edge9" class="edge"><title>Node9&#45;&gt;Node3</title>
<path fill="none" stroke="midnightblue" d="M190.254,-246.444C220.512,-236.944 269.355,-221.609 301.816,-211.418"/>
<polygon fill="midnightblue" stroke="midnightblue" points="303.242,-214.639 311.735,-208.304 301.146,-207.96 303.242,-214.639"/>
</g>
<!-- Node9&#45;&gt;Node4 -->
<g id="edge10" class="edge"><title>Node9&#45;&gt;Node4</title>
<path fill="none" stroke="midnightblue" d="M148.058,-246.324C133.415,-237.822 110.866,-224.729 93.7623,-214.797"/>
<polygon fill="midnightblue" stroke="midnightblue" points="95.3104,-211.649 84.905,-209.655 91.7954,-217.703 95.3104,-211.649"/>
</g>
<!-- Node9&#45;&gt;Node6 -->
<g id="edge12" class="edge"><title>Node9&#45;&gt;Node6</title>
<path fill="none" stroke="midnightblue" d="M174.407,-246.324C185.109,-238.185 201.341,-225.839 214.163,-216.087"/>
<polygon fill="midnightblue" stroke="midnightblue" points="216.544,-218.673 222.385,-209.834 212.307,-213.102 216.544,-218.673"/>
</g>
<!-- Node10 -->
<g id="node10" class="node"><title>Node10</title>
<polygon fill="none" stroke="#bfbfbf" points="327.5,-62 327.5,-81 386.5,-81 386.5,-62 327.5,-62"/>
<text text-anchor="middle" x="357" y="-69" font-family="Helvetica,sans-Serif" font-size="10.00">functional</text>
</g>
<!-- Node9&#45;&gt;Node10 -->
<g id="edge11" class="edge"><title>Node9&#45;&gt;Node10</title>
<path fill="none" stroke="midnightblue" d="M167.039,-246.329C173.43,-233.192 186.822,-207.884 203,-190 243.04,-145.737 301.581,-106.372 333.725,-86.3885"/>
<polygon fill="midnightblue" stroke="midnightblue" points="335.734,-89.2623 342.429,-81.0511 332.074,-83.2949 335.734,-89.2623"/>
</g>
<!-- Node11 -->
<g id="node11" class="node"><title>Node11</title>
<polygon fill="none" stroke="#bfbfbf" points="448,-0.5 448,-19.5 492,-19.5 492,-0.5 448,-0.5"/>
<text text-anchor="middle" x="470" y="-7.5" font-family="Helvetica,sans-Serif" font-size="10.00">vector</text>
</g>
<!-- Node9&#45;&gt;Node11 -->
<g id="edge13" class="edge"><title>Node9&#45;&gt;Node11</title>
<path fill="none" stroke="midnightblue" d="M164.751,-246.402C171.65,-214.921 200.077,-105.227 270,-56 320.865,-20.19 395.504,-12.3019 437.743,-10.9011"/>
<polygon fill="midnightblue" stroke="midnightblue" points="438.082,-14.3945 448,-10.6687 437.923,-7.39626 438.082,-14.3945"/>
</g>
<!-- Node12&#45;&gt;Node8 -->
<g id="edge17" class="edge"><title>Node12&#45;&gt;Node8</title>
<path fill="none" stroke="midnightblue" d="M1043.74,-128.913C1011.34,-119.268 957.653,-102.879 912,-87 875.593,-74.3369 868.191,-66.1306 831,-56 757.231,-35.9061 669.463,-23.2196 614.981,-16.6144"/>
<polygon fill="midnightblue" stroke="midnightblue" points="615.218,-13.118 604.875,-15.4127 614.391,-20.069 615.218,-13.118"/>
</g>
<!-- Node13 -->
<g id="node13" class="node"><title>Node13</title>
<polygon fill="none" stroke="#bfbfbf" points="1345.5,-0.5 1345.5,-19.5 1386.5,-19.5 1386.5,-0.5 1345.5,-0.5"/>
<text text-anchor="middle" x="1366" y="-7.5" font-family="Helvetica,sans-Serif" font-size="10.00">string</text>
</g>
<!-- Node12&#45;&gt;Node13 -->
<g id="edge15" class="edge"><title>Node12&#45;&gt;Node13</title>
<path fill="none" stroke="midnightblue" d="M1098.56,-128.949C1104.59,-126.965 1111.02,-124.883 1117,-123 1170.11,-106.285 1185.98,-109.294 1237,-87 1258.26,-77.7099 1312.61,-44.4148 1343.55,-25.1146"/>
<polygon fill="midnightblue" stroke="midnightblue" points="1345.72,-27.8869 1352.34,-19.6162 1342.01,-21.9524 1345.72,-27.8869"/>
</g>
<!-- Node14 -->
<g id="node14" class="node"><title>Node14</title>
<polygon fill="none" stroke="#bfbfbf" points="1024,-0.5 1024,-19.5 1070,-19.5 1070,-0.5 1024,-0.5"/>
<text text-anchor="middle" x="1047" y="-7.5" font-family="Helvetica,sans-Serif" font-size="10.00">cstdint</text>
</g>
<!-- Node12&#45;&gt;Node14 -->
<g id="edge16" class="edge"><title>Node12&#45;&gt;Node14</title>
<path fill="none" stroke="midnightblue" d="M1099.04,-128.918C1140.53,-115.185 1217.19,-89.5464 1219,-87 1226.99,-75.7777 1227.42,-66.9058 1219,-56 1202.19,-34.2294 1125.43,-20.962 1080.34,-14.9093"/>
<polygon fill="midnightblue" stroke="midnightblue" points="1080.51,-11.4032 1070.15,-13.592 1079.62,-18.3455 1080.51,-11.4032"/>
</g>
<!-- Node15 -->
<g id="node15" class="node"><title>Node15</title>
<polygon fill="none" stroke="#bfbfbf" points="1109.5,-56.5 1109.5,-86.5 1210.5,-86.5 1210.5,-56.5 1109.5,-56.5"/>
<text text-anchor="start" x="1117.5" y="-74.5" font-family="Helvetica,sans-Serif" font-size="10.00">boost/property_tree</text>
<text text-anchor="middle" x="1160" y="-63.5" font-family="Helvetica,sans-Serif" font-size="10.00">/ptree.hpp</text>
</g>
<!-- Node12&#45;&gt;Node15 -->
<g id="edge18" class="edge"><title>Node12&#45;&gt;Node15</title>
<path fill="none" stroke="midnightblue" d="M1084.73,-128.734C1097.06,-119.527 1116.86,-104.733 1133.06,-92.6293"/>
<polygon fill="midnightblue" stroke="midnightblue" points="1135.23,-95.3782 1141.14,-86.589 1131.04,-89.7704 1135.23,-95.3782"/>
</g>
<!-- Node16&#45;&gt;Node3 -->
<g id="edge20" class="edge"><title>Node16&#45;&gt;Node3</title>
<path fill="none" stroke="midnightblue" d="M721.909,-247.998C647.493,-239.287 516.86,-223.867 405,-210 392.99,-208.511 379.828,-206.832 368.191,-205.33"/>
<polygon fill="midnightblue" stroke="midnightblue" points="368.375,-201.825 358.008,-204.012 367.476,-208.767 368.375,-201.825"/>
</g>
<!-- Node16&#45;&gt;Node14 -->
<g id="edge22" class="edge"><title>Node16&#45;&gt;Node14</title>
<path fill="none" stroke="midnightblue" d="M791.811,-246.412C802.105,-237.384 818.741,-222.751 833,-210 854.461,-190.809 904.673,-138.398 929,-123 964.359,-100.62 986.485,-116.664 1016,-87 1031.66,-71.2558 1039.75,-46.5117 1043.67,-29.5623"/>
<polygon fill="midnightblue" stroke="midnightblue" points="1047.11,-30.2219 1045.69,-19.7227 1040.25,-28.816 1047.11,-30.2219"/>
</g>
<!-- Node17 -->
<g id="node17" class="node"><title>Node17</title>
<polygon fill="none" stroke="#bfbfbf" points="759,-190.5 759,-209.5 805,-209.5 805,-190.5 759,-190.5"/>
<text text-anchor="middle" x="782" y="-197.5" font-family="Helvetica,sans-Serif" font-size="10.00">chrono</text>
</g>
<!-- Node16&#45;&gt;Node17 -->
<g id="edge21" class="edge"><title>Node16&#45;&gt;Node17</title>
<path fill="none" stroke="midnightblue" d="M782,-246.083C782,-239.006 782,-228.861 782,-219.986"/>
<polygon fill="midnightblue" stroke="midnightblue" points="785.5,-219.751 782,-209.751 778.5,-219.751 785.5,-219.751"/>
</g>
<!-- Node18 -->
<g id="node18" class="node"><title>Node18</title>
<polygon fill="none" stroke="#bfbfbf" points="591,-62 591,-81 643,-81 643,-62 591,-62"/>
<text text-anchor="middle" x="617" y="-69" font-family="Helvetica,sans-Serif" font-size="10.00">sstream</text>
</g>
<!-- Node16&#45;&gt;Node18 -->
<g id="edge23" class="edge"><title>Node16&#45;&gt;Node18</title>
<path fill="none" stroke="midnightblue" d="M775.891,-246.378C756.304,-218.779 695.731,-133.786 685,-123 671.217,-109.147 653.42,-96.0683 639.49,-86.6927"/>
<polygon fill="midnightblue" stroke="midnightblue" points="641.254,-83.6641 630.976,-81.0955 637.409,-89.5134 641.254,-83.6641"/>
</g>
<!-- Node19 -->
<g id="node19" class="node"><title>Node19</title>
<g id="a_node19"><a xlink:href="string_8hpp.html" target="_top" xlink:title="string/string.hpp">
<polygon fill="none" stroke="black" points="796,-129 796,-148 882,-148 882,-129 796,-129"/>
<text text-anchor="middle" x="839" y="-136" font-family="Helvetica,sans-Serif" font-size="10.00">string/string.hpp</text>
</a>
</g>
</g>
<!-- Node16&#45;&gt;Node19 -->
<g id="edge24" class="edge"><title>Node16&#45;&gt;Node19</title>
<path fill="none" stroke="midnightblue" d="M789.406,-246.173C796.461,-237.43 807.013,-223.439 814,-210 822.784,-193.106 829.707,-172.437 834.019,-157.859"/>
<polygon fill="midnightblue" stroke="midnightblue" points="837.436,-158.638 836.795,-148.062 830.701,-156.729 837.436,-158.638"/>
</g>
<!-- Node25 -->
<g id="node25" class="node"><title>Node25</title>
<g id="a_node25"><a xlink:href="logger_8hpp.html" target="_top" xlink:title="string/logger.hpp">
<polygon fill="none" stroke="black" points="1079.5,-190.5 1079.5,-209.5 1168.5,-209.5 1168.5,-190.5 1079.5,-190.5"/>
<text text-anchor="middle" x="1124" y="-197.5" font-family="Helvetica,sans-Serif" font-size="10.00">string/logger.hpp</text>
</a>
</g>
</g>
<!-- Node16&#45;&gt;Node25 -->
<g id="edge38" class="edge"><title>Node16&#45;&gt;Node25</title>
<path fill="none" stroke="midnightblue" d="M836.191,-246.444C900.017,-236.366 1005.43,-219.721 1069.42,-209.617"/>
<polygon fill="midnightblue" stroke="midnightblue" points="1069.99,-213.071 1079.33,-208.054 1068.9,-206.156 1069.99,-213.071"/>
</g>
<!-- Node31 -->
<g id="node31" class="node"><title>Node31</title>
<g id="a_node31"><a xlink:href="auth__system_8hpp.html" target="_top" xlink:title="user/auth_system.hpp">
<polygon fill="none" stroke="black" points="414.5,-190.5 414.5,-209.5 527.5,-209.5 527.5,-190.5 414.5,-190.5"/>
<text text-anchor="middle" x="471" y="-197.5" font-family="Helvetica,sans-Serif" font-size="10.00">user/auth_system.hpp</text>
</a>
</g>
</g>
<!-- Node16&#45;&gt;Node31 -->
<g id="edge53" class="edge"><title>Node16&#45;&gt;Node31</title>
<path fill="none" stroke="midnightblue" d="M732.721,-246.444C677.672,-236.885 588.601,-221.419 529.916,-211.23"/>
<polygon fill="midnightblue" stroke="midnightblue" points="530.5,-207.779 520.048,-209.516 529.302,-214.676 530.5,-207.779"/>
</g>
<!-- Node34 -->
<g id="node34" class="node"><title>Node34</title>
<g id="a_node34"><a xlink:href="user__manager_8hpp.html" target="_top" xlink:title="user/user_manager.hpp">
<polygon fill="none" stroke="black" points="545.5,-190.5 545.5,-209.5 664.5,-209.5 664.5,-190.5 545.5,-190.5"/>
<text text-anchor="middle" x="605" y="-197.5" font-family="Helvetica,sans-Serif" font-size="10.00">user/user_manager.hpp</text>
</a>
</g>
</g>
<!-- Node16&#45;&gt;Node34 -->
<g id="edge61" class="edge"><title>Node16&#45;&gt;Node34</title>
<path fill="none" stroke="midnightblue" d="M753.954,-246.444C723.918,-237.28 676.087,-222.688 642.757,-212.519"/>
<polygon fill="midnightblue" stroke="midnightblue" points="643.501,-209.087 632.915,-209.516 641.458,-215.782 643.501,-209.087"/>
</g>
<!-- Node19&#45;&gt;Node8 -->
<g id="edge31" class="edge"><title>Node19&#45;&gt;Node8</title>
<path fill="none" stroke="midnightblue" d="M833.205,-128.775C821.504,-111.888 793.312,-74.7549 760,-56 714.909,-30.6134 656.379,-19.5421 614.866,-14.7176"/>
<polygon fill="midnightblue" stroke="midnightblue" points="615.015,-11.2134 604.697,-13.6207 614.264,-18.173 615.015,-11.2134"/>
</g>
<!-- Node19&#45;&gt;Node10 -->
<g id="edge26" class="edge"><title>Node19&#45;&gt;Node10</title>
<path fill="none" stroke="midnightblue" d="M795.721,-132.996C721.505,-125.073 565.262,-107.522 434,-87 421.838,-85.0985 408.653,-82.7295 396.688,-80.4611"/>
<polygon fill="midnightblue" stroke="midnightblue" points="397.025,-76.9618 386.543,-78.5079 395.701,-83.8355 397.025,-76.9618"/>
</g>
<!-- Node19&#45;&gt;Node11 -->
<g id="edge32" class="edge"><title>Node19&#45;&gt;Node11</title>
<path fill="none" stroke="midnightblue" d="M809.65,-128.913C772.506,-117.812 710.85,-98.5408 690,-87 670.93,-76.4448 671.498,-65.7415 652,-56 638.64,-49.3252 550.891,-29.0918 502.283,-18.1716"/>
<polygon fill="midnightblue" stroke="midnightblue" points="502.783,-14.697 492.26,-15.9272 501.254,-21.5279 502.783,-14.697"/>
</g>
<!-- Node19&#45;&gt;Node13 -->
<g id="edge29" class="edge"><title>Node19&#45;&gt;Node13</title>
<path fill="none" stroke="midnightblue" d="M871.847,-128.927C907.554,-119.422 966.184,-103.273 1016,-87 1053.83,-74.6432 1061.55,-66.2521 1100,-56 1183.69,-33.6856 1285.28,-20.1276 1335.23,-14.3195"/>
<polygon fill="midnightblue" stroke="midnightblue" points="1335.83,-17.7745 1345.37,-13.1658 1335.03,-10.8194 1335.83,-17.7745"/>
</g>
<!-- Node19&#45;&gt;Node14 -->
<g id="edge25" class="edge"><title>Node19&#45;&gt;Node14</title>
<path fill="none" stroke="midnightblue" d="M870.287,-128.975C907.53,-118.449 967.069,-100.307 986,-87 1008.1,-71.4657 1026.36,-45.7455 1036.98,-28.5877"/>
<polygon fill="midnightblue" stroke="midnightblue" points="1040.21,-30.0003 1042.31,-19.6166 1034.19,-26.4213 1040.21,-30.0003"/>
</g>
<!-- Node19&#45;&gt;Node18 -->
<g id="edge30" class="edge"><title>Node19&#45;&gt;Node18</title>
<path fill="none" stroke="midnightblue" d="M805.226,-128.962C768.512,-119.488 708.227,-103.365 657,-87 654.449,-86.1852 651.819,-85.3103 649.183,-84.4089"/>
<polygon fill="midnightblue" stroke="midnightblue" points="650.336,-81.1043 639.741,-81.0871 648.012,-87.7075 650.336,-81.1043"/>
</g>
<!-- Node20 -->
<g id="node20" class="node"><title>Node20</title>
<polygon fill="none" stroke="#bfbfbf" points="699,-62 699,-81 751,-81 751,-62 699,-62"/>
<text text-anchor="middle" x="725" y="-69" font-family="Helvetica,sans-Serif" font-size="10.00">memory</text>
</g>
<!-- Node19&#45;&gt;Node20 -->
<g id="edge27" class="edge"><title>Node19&#45;&gt;Node20</title>
<path fill="none" stroke="midnightblue" d="M823.625,-128.734C804.481,-117.818 771.562,-99.0487 749.064,-86.2209"/>
<polygon fill="midnightblue" stroke="midnightblue" points="750.552,-83.04 740.131,-81.1273 747.084,-89.121 750.552,-83.04"/>
</g>
<!-- Node21 -->
<g id="node21" class="node"><title>Node21</title>
<polygon fill="none" stroke="#bfbfbf" points="1483.5,-62 1483.5,-81 1542.5,-81 1542.5,-62 1483.5,-62"/>
<text text-anchor="middle" x="1513" y="-69" font-family="Helvetica,sans-Serif" font-size="10.00">stdexcept</text>
</g>
<!-- Node19&#45;&gt;Node21 -->
<g id="edge28" class="edge"><title>Node19&#45;&gt;Node21</title>
<path fill="none" stroke="midnightblue" d="M882.38,-129.712C897.136,-127.276 913.75,-124.766 929,-123 1153.4,-97.0085 1211.96,-115.951 1436,-87 1448.1,-85.4359 1461.18,-83.1872 1473.06,-80.9258"/>
<polygon fill="midnightblue" stroke="midnightblue" points="1474,-84.3086 1483.14,-78.9522 1472.66,-77.4391 1474,-84.3086"/>
</g>
<!-- Node22 -->
<g id="node22" class="node"><title>Node22</title>
<g id="a_node22"><a xlink:href="color_8hpp.html" target="_top" xlink:title="color.hpp">
<polygon fill="none" stroke="black" points="921,-62 921,-81 977,-81 977,-62 921,-62"/>
<text text-anchor="middle" x="949" y="-69" font-family="Helvetica,sans-Serif" font-size="10.00">color.hpp</text>
</a>
</g>
</g>
<!-- Node19&#45;&gt;Node22 -->
<g id="edge33" class="edge"><title>Node19&#45;&gt;Node22</title>
<path fill="none" stroke="midnightblue" d="M853.835,-128.734C872.308,-117.818 904.072,-99.0487 925.78,-86.2209"/>
<polygon fill="midnightblue" stroke="midnightblue" points="927.571,-89.2279 934.4,-81.1273 924.01,-83.2014 927.571,-89.2279"/>
</g>
<!-- Node22&#45;&gt;Node13 -->
<g id="edge37" class="edge"><title>Node22&#45;&gt;Node13</title>
<path fill="none" stroke="midnightblue" d="M977.084,-65.0796C992.4,-62.2068 1011.71,-58.7198 1029,-56 1141.53,-38.2987 1275.92,-21.7123 1335.25,-14.6195"/>
<polygon fill="midnightblue" stroke="midnightblue" points="1335.92,-18.0649 1345.44,-13.4075 1335.09,-11.1139 1335.92,-18.0649"/>
</g>
<!-- Node22&#45;&gt;Node14 -->
<g id="edge35" class="edge"><title>Node22&#45;&gt;Node14</title>
<path fill="none" stroke="midnightblue" d="M963.041,-61.9751C979.051,-52.2548 1005.45,-36.2266 1024.37,-24.7372"/>
<polygon fill="midnightblue" stroke="midnightblue" points="1026.25,-27.6907 1032.99,-19.5091 1022.62,-21.7072 1026.25,-27.6907"/>
</g>
<!-- Node23 -->
<g id="node23" class="node"><title>Node23</title>
<polygon fill="none" stroke="#bfbfbf" points="943,-0.5 943,-19.5 989,-19.5 989,-0.5 943,-0.5"/>
<text text-anchor="middle" x="966" y="-7.5" font-family="Helvetica,sans-Serif" font-size="10.00">cctype</text>
</g>
<!-- Node22&#45;&gt;Node23 -->
<g id="edge34" class="edge"><title>Node22&#45;&gt;Node23</title>
<path fill="none" stroke="midnightblue" d="M951.436,-61.9751C953.859,-53.4919 957.656,-40.2043 960.765,-29.3222"/>
<polygon fill="midnightblue" stroke="midnightblue" points="964.187,-30.0859 963.569,-19.5091 957.456,-28.1628 964.187,-30.0859"/>
</g>
<!-- Node24 -->
<g id="node24" class="node"><title>Node24</title>
<polygon fill="none" stroke="#bfbfbf" points="879.5,-0.5 879.5,-19.5 924.5,-19.5 924.5,-0.5 879.5,-0.5"/>
<text text-anchor="middle" x="902" y="-7.5" font-family="Helvetica,sans-Serif" font-size="10.00">cstdlib</text>
</g>
<!-- Node22&#45;&gt;Node24 -->
<g id="edge36" class="edge"><title>Node22&#45;&gt;Node24</title>
<path fill="none" stroke="midnightblue" d="M942.266,-61.9751C935.216,-53.0501 923.965,-38.8071 915.146,-27.6425"/>
<polygon fill="midnightblue" stroke="midnightblue" points="917.667,-25.1867 908.721,-19.5091 912.174,-29.5258 917.667,-25.1867"/>
</g>
<!-- Node25&#45;&gt;Node5 -->
<g id="edge41" class="edge"><title>Node25&#45;&gt;Node5</title>
<path fill="none" stroke="midnightblue" d="M1098.38,-190.37C1072.45,-181.548 1031.27,-167.294 996,-154 994.156,-153.305 992.263,-152.579 990.357,-151.839"/>
<polygon fill="midnightblue" stroke="midnightblue" points="991.464,-148.513 980.878,-148.093 988.892,-155.024 991.464,-148.513"/>
</g>
<!-- Node25&#45;&gt;Node8 -->
<g id="edge44" class="edge"><title>Node25&#45;&gt;Node8</title>
<path fill="none" stroke="midnightblue" d="M1102.09,-190.409C1082.31,-182.244 1052.76,-169.008 1029,-154 1010.57,-142.361 1010.6,-132.535 991,-123 925.457,-91.1119 896.333,-119.317 831,-87 811.77,-77.4883 813.365,-65.2327 794,-56 736.448,-28.5606 663.226,-17.8528 614.823,-13.6742"/>
<polygon fill="midnightblue" stroke="midnightblue" points="614.832,-10.1639 604.585,-12.8558 614.274,-17.1416 614.832,-10.1639"/>
</g>
<!-- Node25&#45;&gt;Node12 -->
<g id="edge52" class="edge"><title>Node25&#45;&gt;Node12</title>
<path fill="none" stroke="midnightblue" d="M1116.69,-190.475C1108.97,-181.462 1096.59,-167.025 1086.98,-155.812"/>
<polygon fill="midnightblue" stroke="midnightblue" points="1089.46,-153.324 1080.29,-148.009 1084.14,-157.879 1089.46,-153.324"/>
</g>
<!-- Node25&#45;&gt;Node13 -->
<g id="edge43" class="edge"><title>Node25&#45;&gt;Node13</title>
<path fill="none" stroke="midnightblue" d="M1168.54,-196.204C1249.15,-190.649 1415.83,-176.758 1469,-154 1512.58,-135.346 1531.56,-129.774 1552,-87 1581.44,-25.3915 1457.11,-13.5644 1396.95,-11.4099"/>
<polygon fill="midnightblue" stroke="midnightblue" points="1396.96,-7.90858 1386.86,-11.1177 1396.75,-14.9057 1396.96,-7.90858"/>
</g>
<!-- Node25&#45;&gt;Node19 -->
<g id="edge51" class="edge"><title>Node25&#45;&gt;Node19</title>
<path fill="none" stroke="midnightblue" d="M1083.17,-190.475C1032.16,-179.827 944.901,-161.609 889.68,-150.081"/>
<polygon fill="midnightblue" stroke="midnightblue" points="890.262,-146.627 879.758,-148.009 888.831,-153.479 890.262,-146.627"/>
</g>
<!-- Node25&#45;&gt;Node21 -->
<g id="edge42" class="edge"><title>Node25&#45;&gt;Node21</title>
<path fill="none" stroke="midnightblue" d="M1168.52,-196.131C1243.05,-190.741 1389.41,-177.477 1435,-154 1464.18,-138.975 1488.58,-108.698 1501.96,-89.5747"/>
<polygon fill="midnightblue" stroke="midnightblue" points="1504.91,-91.4457 1507.61,-81.1989 1499.11,-87.5298 1504.91,-91.4457"/>
</g>
<!-- Node26 -->
<g id="node26" class="node"><title>Node26</title>
<polygon fill="none" stroke="#bfbfbf" points="1126,-129 1126,-148 1176,-148 1176,-129 1126,-129"/>
<text text-anchor="middle" x="1151" y="-136" font-family="Helvetica,sans-Serif" font-size="10.00">iomanip</text>
</g>
<!-- Node25&#45;&gt;Node26 -->
<g id="edge39" class="edge"><title>Node25&#45;&gt;Node26</title>
<path fill="none" stroke="midnightblue" d="M1127.87,-190.475C1131.8,-181.815 1138,-168.149 1142.99,-157.145"/>
<polygon fill="midnightblue" stroke="midnightblue" points="1146.19,-158.562 1147.14,-148.009 1139.82,-155.669 1146.19,-158.562"/>
</g>
<!-- Node27 -->
<g id="node27" class="node"><title>Node27</title>
<polygon fill="none" stroke="#bfbfbf" points="1305,-62 1305,-81 1359,-81 1359,-62 1305,-62"/>
<text text-anchor="middle" x="1332" y="-69" font-family="Helvetica,sans-Serif" font-size="10.00">iostream</text>
</g>
<!-- Node25&#45;&gt;Node27 -->
<g id="edge40" class="edge"><title>Node25&#45;&gt;Node27</title>
<path fill="none" stroke="midnightblue" d="M1168.91,-193.213C1216.75,-186.173 1288.26,-172.847 1308,-154 1325.14,-137.638 1330.22,-109.715 1331.63,-91.1851"/>
<polygon fill="midnightblue" stroke="midnightblue" points="1335.13,-91.202 1332.1,-81.0489 1328.14,-90.874 1335.13,-91.202"/>
</g>
<!-- Node28 -->
<g id="node28" class="node"><title>Node28</title>
<polygon fill="none" stroke="#bfbfbf" points="1194.5,-123.5 1194.5,-153.5 1299.5,-153.5 1299.5,-123.5 1194.5,-123.5"/>
<text text-anchor="start" x="1202.5" y="-141.5" font-family="Helvetica,sans-Serif" font-size="10.00">boost/chrono/io/time</text>
<text text-anchor="middle" x="1247" y="-130.5" font-family="Helvetica,sans-Serif" font-size="10.00">_point_io.hpp</text>
</g>
<!-- Node25&#45;&gt;Node28 -->
<g id="edge45" class="edge"><title>Node25&#45;&gt;Node28</title>
<path fill="none" stroke="midnightblue" d="M1141.62,-190.475C1159.06,-182.04 1186.32,-168.855 1208.74,-158.008"/>
<polygon fill="midnightblue" stroke="midnightblue" points="1210.53,-161.028 1218.01,-153.523 1207.49,-154.727 1210.53,-161.028"/>
</g>
<!-- Node29 -->
<g id="node29" class="node"><title>Node29</title>
<g id="a_node29"><a xlink:href="multibuf_8hpp.html" target="_top" xlink:title="multibuf.hpp">
<polygon fill="none" stroke="black" points="1356,-129 1356,-148 1426,-148 1426,-129 1356,-129"/>
<text text-anchor="middle" x="1391" y="-136" font-family="Helvetica,sans-Serif" font-size="10.00">multibuf.hpp</text>
</a>
</g>
</g>
<!-- Node25&#45;&gt;Node29 -->
<g id="edge46" class="edge"><title>Node25&#45;&gt;Node29</title>
<path fill="none" stroke="midnightblue" d="M1168.51,-190.95C1212.74,-182.682 1282.4,-168.942 1342,-154 1345.86,-153.033 1349.87,-151.959 1353.86,-150.847"/>
<polygon fill="midnightblue" stroke="midnightblue" points="1355,-154.162 1363.64,-148.038 1353.06,-147.434 1355,-154.162"/>
</g>
<!-- Node29&#45;&gt;Node11 -->
<g id="edge49" class="edge"><title>Node29&#45;&gt;Node11</title>
<path fill="none" stroke="midnightblue" d="M1355.96,-130.72C1341.2,-128.035 1323.81,-125.096 1308,-123 1132.81,-99.7738 1086.85,-112.697 912,-87 843.787,-76.9748 827.921,-67.846 760,-56 650.279,-36.8637 621.625,-39.6794 512,-20 508.77,-19.4202 505.41,-18.7739 502.06,-18.101"/>
<polygon fill="midnightblue" stroke="midnightblue" points="502.682,-14.6555 492.178,-16.0426 501.254,-21.5084 502.682,-14.6555"/>
</g>
<!-- Node29&#45;&gt;Node13 -->
<g id="edge50" class="edge"><title>Node29&#45;&gt;Node13</title>
<path fill="none" stroke="midnightblue" d="M1401.92,-128.949C1419.47,-114.122 1450.56,-82.6703 1436,-56 1427.48,-40.3969 1410.98,-29.397 1396.14,-22.1798"/>
<polygon fill="midnightblue" stroke="midnightblue" points="1397.28,-18.8577 1386.72,-17.9731 1394.43,-25.2486 1397.28,-18.8577"/>
</g>
<!-- Node29&#45;&gt;Node27 -->
<g id="edge47" class="edge"><title>Node29&#45;&gt;Node27</title>
<path fill="none" stroke="midnightblue" d="M1383.04,-128.734C1373.75,-118.5 1358.2,-101.364 1346.7,-88.6924"/>
<polygon fill="midnightblue" stroke="midnightblue" points="1349.14,-86.1795 1339.83,-81.1273 1343.96,-90.8843 1349.14,-86.1795"/>
</g>
<!-- Node30 -->
<g id="node30" class="node"><title>Node30</title>
<polygon fill="none" stroke="#bfbfbf" points="1377,-62 1377,-81 1427,-81 1427,-62 1377,-62"/>
<text text-anchor="middle" x="1402" y="-69" font-family="Helvetica,sans-Serif" font-size="10.00">fstream</text>
</g>
<!-- Node29&#45;&gt;Node30 -->
<g id="edge48" class="edge"><title>Node29&#45;&gt;Node30</title>
<path fill="none" stroke="midnightblue" d="M1392.48,-128.734C1394.1,-119.183 1396.73,-103.618 1398.82,-91.2829"/>
<polygon fill="midnightblue" stroke="midnightblue" points="1402.32,-91.5711 1400.54,-81.1273 1395.42,-90.4031 1402.32,-91.5711"/>
</g>
<!-- Node31&#45;&gt;Node8 -->
<g id="edge54" class="edge"><title>Node31&#45;&gt;Node8</title>
<path fill="none" stroke="midnightblue" d="M478.776,-190.181C486.202,-181.443 497.364,-167.455 505,-154 529.047,-111.627 548.198,-57.2911 557.274,-29.3729"/>
<polygon fill="midnightblue" stroke="midnightblue" points="560.642,-30.3319 560.344,-19.7412 553.973,-28.2063 560.642,-30.3319"/>
</g>
<!-- Node32 -->
<g id="node32" class="node"><title>Node32</title>
<g id="a_node32"><a xlink:href="user__group_8hpp.html" target="_top" xlink:title="user_group.hpp">
<polygon fill="none" stroke="black" points="413.5,-129 413.5,-148 496.5,-148 496.5,-129 413.5,-129"/>
<text text-anchor="middle" x="455" y="-136" font-family="Helvetica,sans-Serif" font-size="10.00">user_group.hpp</text>
</a>
</g>
</g>
<!-- Node31&#45;&gt;Node32 -->
<g id="edge55" class="edge"><title>Node31&#45;&gt;Node32</title>
<path fill="none" stroke="midnightblue" d="M468.708,-190.475C466.426,-181.992 462.853,-168.704 459.927,-157.822"/>
<polygon fill="midnightblue" stroke="midnightblue" points="463.265,-156.757 457.288,-148.009 456.505,-158.575 463.265,-156.757"/>
</g>
<!-- Node32&#45;&gt;Node11 -->
<g id="edge56" class="edge"><title>Node32&#45;&gt;Node11</title>
<path fill="none" stroke="midnightblue" d="M449.417,-128.79C440.495,-113.724 424.907,-81.9211 434,-56 437.785,-45.2094 445.367,-35.084 452.6,-27.1808"/>
<polygon fill="midnightblue" stroke="midnightblue" points="455.326,-29.4005 459.838,-19.8145 450.333,-24.4943 455.326,-29.4005"/>
</g>
<!-- Node33 -->
<g id="node33" class="node"><title>Node33</title>
<g id="a_node33"><a xlink:href="user_8hpp.html" target="_top" xlink:title="user.hpp">
<polygon fill="none" stroke="black" points="443,-62 443,-81 497,-81 497,-62 443,-62"/>
<text text-anchor="middle" x="470" y="-69" font-family="Helvetica,sans-Serif" font-size="10.00">user.hpp</text>
</a>
</g>
</g>
<!-- Node32&#45;&gt;Node33 -->
<g id="edge57" class="edge"><title>Node32&#45;&gt;Node33</title>
<path fill="none" stroke="midnightblue" d="M457.023,-128.734C459.25,-119.085 462.892,-103.3 465.752,-90.9063"/>
<polygon fill="midnightblue" stroke="midnightblue" points="469.171,-91.6583 468.009,-81.1273 462.35,-90.0842 469.171,-91.6583"/>
</g>
<!-- Node33&#45;&gt;Node8 -->
<g id="edge60" class="edge"><title>Node33&#45;&gt;Node8</title>
<path fill="none" stroke="midnightblue" d="M483.325,-61.9751C498.38,-52.3431 523.116,-36.5175 541.037,-25.0517"/>
<polygon fill="midnightblue" stroke="midnightblue" points="543.163,-27.8466 549.7,-19.5091 539.39,-21.9501 543.163,-27.8466"/>
</g>
<!-- Node33&#45;&gt;Node11 -->
<g id="edge59" class="edge"><title>Node33&#45;&gt;Node11</title>
<path fill="none" stroke="midnightblue" d="M470,-61.9751C470,-53.5803 470,-40.4806 470,-29.6631"/>
<polygon fill="midnightblue" stroke="midnightblue" points="473.5,-29.5091 470,-19.5091 466.5,-29.5091 473.5,-29.5091"/>
</g>
<!-- Node33&#45;&gt;Node13 -->
<g id="edge58" class="edge"><title>Node33&#45;&gt;Node13</title>
<path fill="none" stroke="midnightblue" d="M497.098,-66.4407C519.743,-63.1809 552.912,-58.7142 582,-56 874.366,-28.7191 1229.72,-15.4902 1335.13,-11.9789"/>
<polygon fill="midnightblue" stroke="midnightblue" points="1335.49,-15.4691 1345.37,-11.6424 1335.26,-8.47284 1335.49,-15.4691"/>
</g>
<!-- Node34&#45;&gt;Node33 -->
<g id="edge62" class="edge"><title>Node34&#45;&gt;Node33</title>
<path fill="none" stroke="midnightblue" d="M595.721,-190.305C573.274,-169.272 515.774,-115.392 486.973,-88.4042"/>
<polygon fill="midnightblue" stroke="midnightblue" points="489.034,-85.5394 479.344,-81.2557 484.248,-90.6473 489.034,-85.5394"/>
</g>
<!-- Node35 -->
<g id="node35" class="node"><title>Node35</title>
<polygon fill="none" stroke="#bfbfbf" points="591.5,-129 591.5,-148 620.5,-148 620.5,-129 591.5,-129"/>
<text text-anchor="middle" x="606" y="-136" font-family="Helvetica,sans-Serif" font-size="10.00">list</text>
</g>
<!-- Node34&#45;&gt;Node35 -->
<g id="edge63" class="edge"><title>Node34&#45;&gt;Node35</title>
<path fill="none" stroke="midnightblue" d="M605.143,-190.475C605.284,-182.08 605.505,-168.981 605.686,-158.163"/>
<polygon fill="midnightblue" stroke="midnightblue" points="609.188,-158.067 605.857,-148.009 602.189,-157.949 609.188,-158.067"/>
</g>
<!-- Node36&#45;&gt;Node2 -->
<g id="edge80" class="edge"><title>Node36&#45;&gt;Node2</title>
<path fill="none" stroke="midnightblue" d="M972.199,-365.152C862.379,-360.793 594.78,-348.203 372,-322 370.726,-321.85 369.436,-321.691 368.135,-321.524"/>
<polygon fill="midnightblue" stroke="midnightblue" points="368.432,-318.032 358.043,-320.114 367.463,-324.964 368.432,-318.032"/>
</g>
<!-- Node36&#45;&gt;Node8 -->
<g id="edge69" class="edge"><title>Node36&#45;&gt;Node8</title>
<path fill="none" stroke="midnightblue" d="M972.426,-362.441C905.83,-354.014 788.378,-330.486 713,-266 683.995,-241.186 692.388,-222.88 673,-190 654.905,-159.313 653.26,-149.088 629,-123 611.081,-103.732 596.443,-108.994 582,-87 570.706,-69.8018 566.125,-46.3897 564.267,-30.1137"/>
<polygon fill="midnightblue" stroke="midnightblue" points="567.714,-29.3633 563.339,-19.7143 560.742,-29.986 567.714,-29.3633"/>
</g>
<!-- Node36&#45;&gt;Node10 -->
<g id="edge65" class="edge"><title>Node36&#45;&gt;Node10</title>
<path fill="none" stroke="midnightblue" d="M972.368,-364.464C904.579,-360.147 781.033,-349.04 679,-322 551.831,-288.299 495.568,-305.421 405,-210 373.038,-176.325 362.232,-120.216 358.676,-91.1814"/>
<polygon fill="midnightblue" stroke="midnightblue" points="362.149,-90.7399 357.611,-81.1661 355.188,-91.4802 362.149,-90.7399"/>
</g>
<!-- Node36&#45;&gt;Node12 -->
<g id="edge71" class="edge"><title>Node36&#45;&gt;Node12</title>
<path fill="none" stroke="midnightblue" d="M1024.89,-358.165C1027.56,-345.657 1032.61,-322.074 1037,-302 1048.37,-249.933 1062.05,-188.543 1068.8,-158.289"/>
<polygon fill="midnightblue" stroke="midnightblue" points="1072.27,-158.826 1071.03,-148.303 1065.43,-157.3 1072.27,-158.826"/>
</g>
<!-- Node36&#45;&gt;Node13 -->
<g id="edge66" class="edge"><title>Node36&#45;&gt;Node13</title>
<path fill="none" stroke="midnightblue" d="M1073.59,-367.147C1160.64,-366.301 1343.79,-359.691 1493,-322 1565.03,-303.806 1647,-331.291 1647,-257 1647,-257 1647,-257 1647,-137.5 1647,-28.8544 1470.18,-12.9757 1397.06,-11.0538"/>
<polygon fill="midnightblue" stroke="midnightblue" points="1396.73,-7.5469 1386.66,-10.8575 1396.59,-14.5456 1396.73,-7.5469"/>
</g>
<!-- Node36&#45;&gt;Node16 -->
<g id="edge70" class="edge"><title>Node36&#45;&gt;Node16</title>
<path fill="none" stroke="midnightblue" d="M1004.09,-358.368C961.854,-339.091 859.676,-292.454 810.02,-269.789"/>
<polygon fill="midnightblue" stroke="midnightblue" points="811.374,-266.56 800.823,-265.591 808.467,-272.928 811.374,-266.56"/>
</g>
<!-- Node36&#45;&gt;Node21 -->
<g id="edge67" class="edge"><title>Node36&#45;&gt;Node21</title>
<path fill="none" stroke="midnightblue" d="M1073.77,-366.727C1202.76,-364.671 1533,-350.295 1533,-257 1533,-257 1533,-257 1533,-199 1533,-160.051 1523.64,-115.175 1517.72,-90.7203"/>
<polygon fill="midnightblue" stroke="midnightblue" points="1521.12,-89.8673 1515.29,-81.0159 1514.33,-91.5664 1521.12,-89.8673"/>
</g>
<!-- Node36&#45;&gt;Node25 -->
<g id="edge72" class="edge"><title>Node36&#45;&gt;Node25</title>
<path fill="none" stroke="midnightblue" d="M1025.97,-358.262C1033.22,-337.588 1053.24,-284.522 1080,-246 1087.54,-235.145 1097.78,-224.501 1106.48,-216.292"/>
<polygon fill="midnightblue" stroke="midnightblue" points="1108.9,-218.828 1113.92,-209.502 1104.18,-213.658 1108.9,-218.828"/>
</g>
<!-- Node37 -->
<g id="node37" class="node"><title>Node37</title>
<polygon fill="none" stroke="#bfbfbf" points="1089,-246.5 1089,-265.5 1151,-265.5 1151,-246.5 1089,-246.5"/>
<text text-anchor="middle" x="1120" y="-253.5" font-family="Helvetica,sans-Serif" font-size="10.00">type_traits</text>
</g>
<!-- Node36&#45;&gt;Node37 -->
<g id="edge68" class="edge"><title>Node36&#45;&gt;Node37</title>
<path fill="none" stroke="midnightblue" d="M1034.49,-358.437C1045.54,-349.889 1062.4,-336.038 1075,-322 1088.28,-307.206 1100.94,-288.344 1109.43,-274.754"/>
<polygon fill="midnightblue" stroke="midnightblue" points="1112.59,-276.282 1114.82,-265.924 1106.62,-272.633 1112.59,-276.282"/>
</g>
<!-- Node38 -->
<g id="node38" class="node"><title>Node38</title>
<g id="a_node38"><a xlink:href="string__functions_8hpp.html" target="_top" xlink:title="string/string_functions.hpp">
<polygon fill="none" stroke="black" points="1169.5,-302.5 1169.5,-321.5 1300.5,-321.5 1300.5,-302.5 1169.5,-302.5"/>
<text text-anchor="middle" x="1235" y="-309.5" font-family="Helvetica,sans-Serif" font-size="10.00">string/string_functions.hpp</text>
</a>
</g>
</g>
<!-- Node36&#45;&gt;Node38 -->
<g id="edge73" class="edge"><title>Node36&#45;&gt;Node38</title>
<path fill="none" stroke="midnightblue" d="M1056.59,-358.444C1093.19,-349.122 1151.84,-334.183 1191.83,-323.997"/>
<polygon fill="midnightblue" stroke="midnightblue" points="1192.74,-327.377 1201.57,-321.516 1191.01,-320.593 1192.74,-327.377"/>
</g>
<!-- Node38&#45;&gt;Node13 -->
<g id="edge78" class="edge"><title>Node38&#45;&gt;Node13</title>
<path fill="none" stroke="midnightblue" d="M1290.98,-302.478C1323.24,-295.873 1363.68,-284.607 1396,-266 1491.62,-210.953 1529.91,-190.548 1568,-87 1593.56,-17.5224 1459.35,-10.0182 1396.76,-10.2121"/>
<polygon fill="midnightblue" stroke="midnightblue" points="1396.62,-6.71312 1386.66,-10.3125 1396.69,-13.7128 1396.62,-6.71312"/>
</g>
<!-- Node38&#45;&gt;Node18 -->
<g id="edge77" class="edge"><title>Node38&#45;&gt;Node18</title>
<path fill="none" stroke="midnightblue" d="M1227.63,-302.385C1215.15,-288.375 1188.46,-260.741 1160,-246 1084.19,-206.731 867.359,-182.827 787,-154 733.115,-134.67 673.505,-103.709 641.147,-86.034"/>
<polygon fill="midnightblue" stroke="midnightblue" points="642.464,-82.7634 632.016,-81.0027 639.086,-88.8943 642.464,-82.7634"/>
</g>
<!-- Node38&#45;&gt;Node37 -->
<g id="edge79" class="edge"><title>Node38&#45;&gt;Node37</title>
<path fill="none" stroke="midnightblue" d="M1216.78,-302.444C1198.1,-293.675 1168.84,-279.935 1147.38,-269.858"/>
<polygon fill="midnightblue" stroke="midnightblue" points="1148.68,-266.599 1138.14,-265.516 1145.7,-272.935 1148.68,-266.599"/>
</g>
<!-- Node39 -->
<g id="node39" class="node"><title>Node39</title>
<polygon fill="none" stroke="#bfbfbf" points="1207,-246.5 1207,-265.5 1263,-265.5 1263,-246.5 1207,-246.5"/>
<text text-anchor="middle" x="1235" y="-253.5" font-family="Helvetica,sans-Serif" font-size="10.00">algorithm</text>
</g>
<!-- Node38&#45;&gt;Node39 -->
<g id="edge74" class="edge"><title>Node38&#45;&gt;Node39</title>
<path fill="none" stroke="midnightblue" d="M1235,-302.083C1235,-295.006 1235,-284.861 1235,-275.986"/>
<polygon fill="midnightblue" stroke="midnightblue" points="1238.5,-275.751 1235,-265.751 1231.5,-275.751 1238.5,-275.751"/>
</g>
<!-- Node40 -->
<g id="node40" class="node"><title>Node40</title>
<polygon fill="none" stroke="#bfbfbf" points="1281.5,-246.5 1281.5,-265.5 1328.5,-265.5 1328.5,-246.5 1281.5,-246.5"/>
<text text-anchor="middle" x="1305" y="-253.5" font-family="Helvetica,sans-Serif" font-size="10.00">iterator</text>
</g>
<!-- Node38&#45;&gt;Node40 -->
<g id="edge75" class="edge"><title>Node38&#45;&gt;Node40</title>
<path fill="none" stroke="midnightblue" d="M1246.25,-302.324C1256.8,-294.185 1272.8,-281.839 1285.44,-272.087"/>
<polygon fill="midnightblue" stroke="midnightblue" points="1287.77,-274.713 1293.55,-265.834 1283.49,-269.171 1287.77,-274.713"/>
</g>
<!-- Node41 -->
<g id="node41" class="node"><title>Node41</title>
<polygon fill="none" stroke="#bfbfbf" points="1346.5,-246.5 1346.5,-265.5 1387.5,-265.5 1387.5,-246.5 1346.5,-246.5"/>
<text text-anchor="middle" x="1367" y="-253.5" font-family="Helvetica,sans-Serif" font-size="10.00">regex</text>
</g>
<!-- Node38&#45;&gt;Node41 -->
<g id="edge76" class="edge"><title>Node38&#45;&gt;Node41</title>
<path fill="none" stroke="midnightblue" d="M1255.92,-302.444C1277.74,-293.517 1312.15,-279.439 1336.89,-269.317"/>
<polygon fill="midnightblue" stroke="midnightblue" points="1338.25,-272.542 1346.18,-265.516 1335.6,-266.063 1338.25,-272.542"/>
</g>
</g>
</svg>
