<?xml version="1.0" encoding="UTF-8" standalone="no"?>
<!DOCTYPE svg PUBLIC "-//W3C//DTD SVG 1.1//EN"
 "http://www.w3.org/Graphics/SVG/1.1/DTD/svg11.dtd">
<!-- Generated by graphviz version 2.38.0 (20140413.2041)
 -->
<!-- Title: src/melanobot.hpp Pages: 1 -->
<svg width="1398pt" height="442pt"
 viewBox="0.00 0.00 1398.02 442.00" xmlns="http://www.w3.org/2000/svg" xmlns:xlink="http://www.w3.org/1999/xlink">
<g id="graph0" class="graph" transform="scale(1 1) rotate(0) translate(4 438)">
<title>src/melanobot.hpp</title>
<!-- Node1 -->
<g id="node1" class="node"><title>Node1</title>
<polygon fill="#bfbfbf" stroke="black" points="692.522,-414.5 692.522,-433.5 789.522,-433.5 789.522,-414.5 692.522,-414.5"/>
<text text-anchor="middle" x="741.022" y="-421.5" font-family="Helvetica,sans-Serif" font-size="10.00">src/melanobot.hpp</text>
</g>
<!-- Node2 -->
<g id="node2" class="node"><title>Node2</title>
<polygon fill="none" stroke="#bfbfbf" points="399.022,-302.5 399.022,-321.5 445.022,-321.5 445.022,-302.5 399.022,-302.5"/>
<text text-anchor="middle" x="422.022" y="-309.5" font-family="Helvetica,sans-Serif" font-size="10.00">atomic</text>
</g>
<!-- Node1&#45;&gt;Node2 -->
<g id="edge1" class="edge"><title>Node1&#45;&gt;Node2</title>
<path fill="none" stroke="midnightblue" d="M706.34,-414.464C673.693,-406.143 623.591,-392.634 581.022,-378 534.453,-361.991 481.806,-339.59 450.298,-325.704"/>
<polygon fill="midnightblue" stroke="midnightblue" points="451.406,-322.367 440.846,-321.514 448.569,-328.766 451.406,-322.367"/>
</g>
<!-- Node3 -->
<g id="node3" class="node"><title>Node3</title>
<polygon fill="none" stroke="#bfbfbf" points="145.522,-302.5 145.522,-321.5 240.522,-321.5 240.522,-302.5 145.522,-302.5"/>
<text text-anchor="middle" x="193.022" y="-309.5" font-family="Helvetica,sans-Serif" font-size="10.00">condition_variable</text>
</g>
<!-- Node1&#45;&gt;Node3 -->
<g id="edge2" class="edge"><title>Node1&#45;&gt;Node3</title>
<path fill="none" stroke="midnightblue" d="M692.422,-421.466C590.16,-417.716 356.09,-406.24 282.022,-378 253.4,-367.087 225.77,-344.403 209.085,-328.938"/>
<polygon fill="midnightblue" stroke="midnightblue" points="211.06,-325.984 201.41,-321.61 206.226,-331.047 211.06,-325.984"/>
</g>
<!-- Node4 -->
<g id="node4" class="node"><title>Node4</title>
<polygon fill="none" stroke="#bfbfbf" points="865.022,-185 865.022,-204 909.022,-204 909.022,-185 865.022,-185"/>
<text text-anchor="middle" x="887.022" y="-192" font-family="Helvetica,sans-Serif" font-size="10.00">mutex</text>
</g>
<!-- Node1&#45;&gt;Node4 -->
<g id="edge3" class="edge"><title>Node1&#45;&gt;Node4</title>
<path fill="none" stroke="midnightblue" d="M746.567,-414.36C768.158,-380.716 846.851,-258.096 876.034,-212.622"/>
<polygon fill="midnightblue" stroke="midnightblue" points="879.016,-214.455 881.471,-204.149 873.125,-210.675 879.016,-214.455"/>
</g>
<!-- Node5 -->
<g id="node5" class="node"><title>Node5</title>
<polygon fill="none" stroke="#bfbfbf" points="258.522,-302.5 258.522,-321.5 301.522,-321.5 301.522,-302.5 258.522,-302.5"/>
<text text-anchor="middle" x="280.022" y="-309.5" font-family="Helvetica,sans-Serif" font-size="10.00">queue</text>
</g>
<!-- Node1&#45;&gt;Node5 -->
<g id="edge4" class="edge"><title>Node1&#45;&gt;Node5</title>
<path fill="none" stroke="midnightblue" d="M692.304,-421.076C583.67,-416.359 328.781,-402.758 299.022,-378 285.626,-366.855 281.373,-346.826 280.166,-331.937"/>
<polygon fill="midnightblue" stroke="midnightblue" points="283.656,-331.628 279.736,-321.785 276.663,-331.924 283.656,-331.628"/>
</g>
<!-- Node6 -->
<g id="node6" class="node"><title>Node6</title>
<polygon fill="none" stroke="#bfbfbf" points="1346.02,-358.5 1346.02,-377.5 1390.02,-377.5 1390.02,-358.5 1346.02,-358.5"/>
<text text-anchor="middle" x="1368.02" y="-365.5" font-family="Helvetica,sans-Serif" font-size="10.00">thread</text>
</g>
<!-- Node1&#45;&gt;Node6 -->
<g id="edge5" class="edge"><title>Node1&#45;&gt;Node6</title>
<path fill="none" stroke="midnightblue" d="M789.611,-422.074C891.035,-419.533 1132.42,-410.311 1332.02,-378 1333.27,-377.797 1334.55,-377.573 1335.83,-377.33"/>
<polygon fill="midnightblue" stroke="midnightblue" points="1336.64,-380.737 1345.68,-375.208 1335.16,-373.894 1336.64,-380.737"/>
</g>
<!-- Node7 -->
<g id="node7" class="node"><title>Node7</title>
<polygon fill="none" stroke="#bfbfbf" points="841.522,-62 841.522,-81 924.522,-81 924.522,-62 841.522,-62"/>
<text text-anchor="middle" x="883.022" y="-69" font-family="Helvetica,sans-Serif" font-size="10.00">unordered_map</text>
</g>
<!-- Node1&#45;&gt;Node7 -->
<g id="edge6" class="edge"><title>Node1&#45;&gt;Node7</title>
<path fill="none" stroke="midnightblue" d="M789.719,-418.852C928.827,-406.355 1318.02,-366.602 1318.02,-313 1318.02,-313 1318.02,-313 1318.02,-193.5 1318.02,-161.049 1323.54,-144.255 1299.02,-123 1245.66,-76.7462 1034.01,-71.6028 934.822,-71.8183"/>
<polygon fill="midnightblue" stroke="midnightblue" points="934.711,-68.3186 924.726,-71.8597 934.74,-75.3186 934.711,-68.3186"/>
</g>
<!-- Node8 -->
<g id="node8" class="node"><title>Node8</title>
<g id="a_node8"><a xlink:href="concurrent__container_8hpp.html" target="_top" xlink:title="concurrent_container.hpp">
<polygon fill="none" stroke="black" points="308.022,-358.5 308.022,-377.5 434.022,-377.5 434.022,-358.5 308.022,-358.5"/>
<text text-anchor="middle" x="371.022" y="-365.5" font-family="Helvetica,sans-Serif" font-size="10.00">concurrent_container.hpp</text>
</a>
</g>
</g>
<!-- Node1&#45;&gt;Node8 -->
<g id="edge7" class="edge"><title>Node1&#45;&gt;Node8</title>
<path fill="none" stroke="midnightblue" d="M692.271,-415.885C627.518,-406.435 512.794,-389.691 439.407,-378.98"/>
<polygon fill="midnightblue" stroke="midnightblue" points="439.736,-375.491 429.335,-377.511 438.725,-382.418 439.736,-375.491"/>
</g>
<!-- Node11 -->
<g id="node11" class="node"><title>Node11</title>
<g id="a_node11"><a xlink:href="settings_8hpp.html" target="_top" xlink:title="settings.hpp">
<polygon fill="none" stroke="black" points="785.022,-123.5 785.022,-142.5 855.022,-142.5 855.022,-123.5 785.022,-123.5"/>
<text text-anchor="middle" x="820.022" y="-130.5" font-family="Helvetica,sans-Serif" font-size="10.00">settings.hpp</text>
</a>
</g>
</g>
<!-- Node1&#45;&gt;Node11 -->
<g id="edge13" class="edge"><title>Node1&#45;&gt;Node11</title>
<path fill="none" stroke="midnightblue" d="M789.553,-420.718C851.086,-416.689 951.969,-405.908 975.022,-378 1011.5,-333.836 1222.31,-512.7 939.022,-179 920.535,-157.223 890.355,-145.964 865.015,-140.154"/>
<polygon fill="midnightblue" stroke="midnightblue" points="865.722,-136.726 855.218,-138.116 864.296,-143.579 865.722,-136.726"/>
</g>
<!-- Node15 -->
<g id="node15" class="node"><title>Node15</title>
<g id="a_node15"><a xlink:href="src_2network_2connection_8hpp.html" target="_top" xlink:title="network/connection.hpp">
<polygon fill="none" stroke="black" points="590.022,-358.5 590.022,-377.5 710.022,-377.5 710.022,-358.5 590.022,-358.5"/>
<text text-anchor="middle" x="650.022" y="-365.5" font-family="Helvetica,sans-Serif" font-size="10.00">network/connection.hpp</text>
</a>
</g>
</g>
<!-- Node1&#45;&gt;Node15 -->
<g id="edge18" class="edge"><title>Node1&#45;&gt;Node15</title>
<path fill="none" stroke="midnightblue" d="M726.401,-414.324C712.073,-405.822 690.01,-392.729 673.273,-382.797"/>
<polygon fill="midnightblue" stroke="midnightblue" points="674.993,-379.748 664.607,-377.655 671.42,-385.768 674.993,-379.748"/>
</g>
<!-- Node40 -->
<g id="node40" class="node"><title>Node40</title>
<g id="a_node40"><a xlink:href="handler__container_8hpp.html" target="_top" xlink:title="handler/handler_container.hpp">
<polygon fill="none" stroke="black" points="820.022,-358.5 820.022,-377.5 966.022,-377.5 966.022,-358.5 820.022,-358.5"/>
<text text-anchor="middle" x="893.022" y="-365.5" font-family="Helvetica,sans-Serif" font-size="10.00">handler/handler_container.hpp</text>
</a>
</g>
</g>
<!-- Node1&#45;&gt;Node40 -->
<g id="edge73" class="edge"><title>Node1&#45;&gt;Node40</title>
<path fill="none" stroke="midnightblue" d="M765.107,-414.444C790.567,-405.399 830.916,-391.064 859.481,-380.916"/>
<polygon fill="midnightblue" stroke="midnightblue" points="860.799,-384.162 869.05,-377.516 858.455,-377.566 860.799,-384.162"/>
</g>
<!-- Node8&#45;&gt;Node2 -->
<g id="edge8" class="edge"><title>Node8&#45;&gt;Node2</title>
<path fill="none" stroke="midnightblue" d="M379.444,-358.083C386.87,-350.22 397.874,-338.569 406.834,-329.081"/>
<polygon fill="midnightblue" stroke="midnightblue" points="409.435,-331.424 413.757,-321.751 404.346,-326.618 409.435,-331.424"/>
</g>
<!-- Node8&#45;&gt;Node3 -->
<g id="edge9" class="edge"><title>Node8&#45;&gt;Node3</title>
<path fill="none" stroke="midnightblue" d="M342.817,-358.444C312.612,-349.28 264.511,-334.688 230.993,-324.519"/>
<polygon fill="midnightblue" stroke="midnightblue" points="231.68,-321.07 221.095,-321.516 229.648,-327.769 231.68,-321.07"/>
</g>
<!-- Node8&#45;&gt;Node5 -->
<g id="edge11" class="edge"><title>Node8&#45;&gt;Node5</title>
<path fill="none" stroke="midnightblue" d="M356.401,-358.324C342.073,-349.822 320.01,-336.729 303.273,-326.797"/>
<polygon fill="midnightblue" stroke="midnightblue" points="304.993,-323.748 294.607,-321.655 301.42,-329.768 304.993,-323.748"/>
</g>
<!-- Node9 -->
<g id="node9" class="node"><title>Node9</title>
<polygon fill="none" stroke="#bfbfbf" points="16.5221,-123.5 16.5221,-142.5 75.5221,-142.5 75.5221,-123.5 16.5221,-123.5"/>
<text text-anchor="middle" x="46.0221" y="-130.5" font-family="Helvetica,sans-Serif" font-size="10.00">functional</text>
</g>
<!-- Node8&#45;&gt;Node9 -->
<g id="edge10" class="edge"><title>Node8&#45;&gt;Node9</title>
<path fill="none" stroke="midnightblue" d="M364.177,-358.274C353.537,-345.064 331.962,-319.663 310.022,-302 247.919,-252.003 223.078,-253.128 156.022,-210 124.107,-189.473 88.0963,-164.171 66.2352,-148.563"/>
<polygon fill="midnightblue" stroke="midnightblue" points="68.2204,-145.679 58.0528,-142.701 64.1439,-151.37 68.2204,-145.679"/>
</g>
<!-- Node10 -->
<g id="node10" class="node"><title>Node10</title>
<polygon fill="none" stroke="#bfbfbf" points="645.022,-123.5 645.022,-142.5 689.022,-142.5 689.022,-123.5 645.022,-123.5"/>
<text text-anchor="middle" x="667.022" y="-130.5" font-family="Helvetica,sans-Serif" font-size="10.00">vector</text>
</g>
<!-- Node8&#45;&gt;Node10 -->
<g id="edge12" class="edge"><title>Node8&#45;&gt;Node10</title>
<path fill="none" stroke="midnightblue" d="M372.604,-358.247C375.133,-345.435 380.766,-321.031 390.022,-302 419.423,-241.554 422.053,-216.224 478.022,-179 535.415,-140.829 563.807,-159.277 634.877,-143.049"/>
<polygon fill="midnightblue" stroke="midnightblue" points="635.831,-146.419 644.714,-140.646 634.169,-139.619 635.831,-146.419"/>
</g>
<!-- Node11&#45;&gt;Node7 -->
<g id="edge16" class="edge"><title>Node11&#45;&gt;Node7</title>
<path fill="none" stroke="midnightblue" d="M829.048,-123.475C838.779,-114.285 854.48,-99.4563 866.445,-88.156"/>
<polygon fill="midnightblue" stroke="midnightblue" points="869.145,-90.4199 874.012,-81.0091 864.339,-85.3308 869.145,-90.4199"/>
</g>
<!-- Node12 -->
<g id="node12" class="node"><title>Node12</title>
<polygon fill="none" stroke="#bfbfbf" points="456.522,-62 456.522,-81 497.522,-81 497.522,-62 456.522,-62"/>
<text text-anchor="middle" x="477.022" y="-69" font-family="Helvetica,sans-Serif" font-size="10.00">string</text>
</g>
<!-- Node11&#45;&gt;Node12 -->
<g id="edge14" class="edge"><title>Node11&#45;&gt;Node12</title>
<path fill="none" stroke="midnightblue" d="M784.79,-125.624C779.832,-124.737 774.8,-123.842 770.022,-123 674.429,-106.159 561.179,-86.8111 507.791,-77.726"/>
<polygon fill="midnightblue" stroke="midnightblue" points="508.08,-74.2249 497.635,-75.9986 506.906,-81.1258 508.08,-74.2249"/>
</g>
<!-- Node13 -->
<g id="node13" class="node"><title>Node13</title>
<polygon fill="none" stroke="#bfbfbf" points="186.022,-62 186.022,-81 232.022,-81 232.022,-62 186.022,-62"/>
<text text-anchor="middle" x="209.022" y="-69" font-family="Helvetica,sans-Serif" font-size="10.00">cstdint</text>
</g>
<!-- Node11&#45;&gt;Node13 -->
<g id="edge15" class="edge"><title>Node11&#45;&gt;Node13</title>
<path fill="none" stroke="midnightblue" d="M784.718,-129.383C682.712,-121.76 388.764,-99.328 293.022,-87 276.207,-84.8348 257.619,-81.7037 242.213,-78.9047"/>
<polygon fill="midnightblue" stroke="midnightblue" points="242.587,-75.4145 232.117,-77.036 241.313,-82.2976 242.587,-75.4145"/>
</g>
<!-- Node14 -->
<g id="node14" class="node"><title>Node14</title>
<polygon fill="none" stroke="#bfbfbf" points="722.522,-56.5 722.522,-86.5 823.522,-86.5 823.522,-56.5 722.522,-56.5"/>
<text text-anchor="start" x="730.522" y="-74.5" font-family="Helvetica,sans-Serif" font-size="10.00">boost/property_tree</text>
<text text-anchor="middle" x="773.022" y="-63.5" font-family="Helvetica,sans-Serif" font-size="10.00">/ptree.hpp</text>
</g>
<!-- Node11&#45;&gt;Node14 -->
<g id="edge17" class="edge"><title>Node11&#45;&gt;Node14</title>
<path fill="none" stroke="midnightblue" d="M813.288,-123.475C807.339,-115.944 798.399,-104.626 790.453,-94.5663"/>
<polygon fill="midnightblue" stroke="midnightblue" points="793.044,-92.2006 784.099,-86.523 787.551,-96.5396 793.044,-92.2006"/>
</g>
<!-- Node15&#45;&gt;Node2 -->
<g id="edge19" class="edge"><title>Node15&#45;&gt;Node2</title>
<path fill="none" stroke="midnightblue" d="M613.387,-358.452C574.924,-349.457 512.695,-334.85 459.022,-322 457.756,-321.697 456.466,-321.387 455.164,-321.074"/>
<polygon fill="midnightblue" stroke="midnightblue" points="455.651,-317.591 445.108,-318.643 454.006,-324.395 455.651,-317.591"/>
</g>
<!-- Node15&#45;&gt;Node13 -->
<g id="edge20" class="edge"><title>Node15&#45;&gt;Node13</title>
<path fill="none" stroke="midnightblue" d="M624.482,-358.457C579.198,-343.321 486.543,-312.411 454.022,-302 253.201,-237.709 121.538,-320.055 7.02208,-143 -32.8059,-81.4215 108.952,-72.8924 175.893,-72.2127"/>
<polygon fill="midnightblue" stroke="midnightblue" points="175.972,-75.7124 185.955,-72.164 175.938,-68.7125 175.972,-75.7124"/>
</g>
<!-- Node16 -->
<g id="node16" class="node"><title>Node16</title>
<g id="a_node16"><a xlink:href="logger_8hpp.html" target="_top" xlink:title="string/logger.hpp">
<polygon fill="none" stroke="black" points="466.522,-246.5 466.522,-265.5 555.522,-265.5 555.522,-246.5 466.522,-246.5"/>
<text text-anchor="middle" x="511.022" y="-253.5" font-family="Helvetica,sans-Serif" font-size="10.00">string/logger.hpp</text>
</a>
</g>
</g>
<!-- Node15&#45;&gt;Node16 -->
<g id="edge21" class="edge"><title>Node15&#45;&gt;Node16</title>
<path fill="none" stroke="midnightblue" d="M597.971,-358.482C574.32,-352.119 547.733,-341.08 530.022,-322 518.409,-309.489 513.857,-290.262 512.092,-275.961"/>
<polygon fill="midnightblue" stroke="midnightblue" points="515.559,-275.424 511.193,-265.77 508.586,-276.039 515.559,-275.424"/>
</g>
<!-- Node29 -->
<g id="node29" class="node"><title>Node29</title>
<g id="a_node29"><a xlink:href="string__functions_8hpp.html" target="_top" xlink:title="string/string_functions.hpp">
<polygon fill="none" stroke="black" points="1143.52,-185 1143.52,-204 1274.52,-204 1274.52,-185 1143.52,-185"/>
<text text-anchor="middle" x="1209.02" y="-192" font-family="Helvetica,sans-Serif" font-size="10.00">string/string_functions.hpp</text>
</a>
</g>
</g>
<!-- Node15&#45;&gt;Node29 -->
<g id="edge49" class="edge"><title>Node15&#45;&gt;Node29</title>
<path fill="none" stroke="midnightblue" d="M710.116,-360.474C798.578,-349.349 967.772,-322.23 1101.02,-266 1135.14,-251.603 1170.25,-226.387 1190.83,-210.337"/>
<polygon fill="midnightblue" stroke="midnightblue" points="1193.06,-213.037 1198.71,-204.078 1188.7,-207.554 1193.06,-213.037"/>
</g>
<!-- Node33 -->
<g id="node33" class="node"><title>Node33</title>
<g id="a_node33"><a xlink:href="auth__system_8hpp.html" target="_top" xlink:title="user/auth_system.hpp">
<polygon fill="none" stroke="black" points="676.522,-302.5 676.522,-321.5 789.522,-321.5 789.522,-302.5 676.522,-302.5"/>
<text text-anchor="middle" x="733.022" y="-309.5" font-family="Helvetica,sans-Serif" font-size="10.00">user/auth_system.hpp</text>
</a>
</g>
</g>
<!-- Node15&#45;&gt;Node33 -->
<g id="edge57" class="edge"><title>Node15&#45;&gt;Node33</title>
<path fill="none" stroke="midnightblue" d="M663.357,-358.324C676.184,-349.979 695.807,-337.212 710.962,-327.352"/>
<polygon fill="midnightblue" stroke="midnightblue" points="713.246,-330.042 719.72,-321.655 709.429,-324.174 713.246,-330.042"/>
</g>
<!-- Node36 -->
<g id="node36" class="node"><title>Node36</title>
<g id="a_node36"><a xlink:href="user__manager_8hpp.html" target="_top" xlink:title="user/user_manager.hpp">
<polygon fill="none" stroke="black" points="539.522,-302.5 539.522,-321.5 658.522,-321.5 658.522,-302.5 539.522,-302.5"/>
<text text-anchor="middle" x="599.022" y="-309.5" font-family="Helvetica,sans-Serif" font-size="10.00">user/user_manager.hpp</text>
</a>
</g>
</g>
<!-- Node15&#45;&gt;Node36 -->
<g id="edge66" class="edge"><title>Node15&#45;&gt;Node36</title>
<path fill="none" stroke="midnightblue" d="M641.6,-358.083C634.174,-350.22 623.17,-338.569 614.21,-329.081"/>
<polygon fill="midnightblue" stroke="midnightblue" points="616.698,-326.618 607.287,-321.751 611.609,-331.424 616.698,-326.618"/>
</g>
<!-- Node38 -->
<g id="node38" class="node"><title>Node38</title>
<g id="a_node38"><a xlink:href="network_8hpp.html" target="_top" xlink:title="network.hpp">
<polygon fill="none" stroke="black" points="1022.02,-246.5 1022.02,-265.5 1092.02,-265.5 1092.02,-246.5 1022.02,-246.5"/>
<text text-anchor="middle" x="1057.02" y="-253.5" font-family="Helvetica,sans-Serif" font-size="10.00">network.hpp</text>
</a>
</g>
</g>
<!-- Node15&#45;&gt;Node38 -->
<g id="edge69" class="edge"><title>Node15&#45;&gt;Node38</title>
<path fill="none" stroke="midnightblue" d="M682.477,-358.457C712.739,-350.182 758.951,-336.746 798.022,-322 818.119,-314.415 821.608,-308.685 842.022,-302 899.227,-283.266 967.627,-270.526 1011.67,-263.511"/>
<polygon fill="midnightblue" stroke="midnightblue" points="1012.43,-266.934 1021.77,-261.934 1011.35,-260.018 1012.43,-266.934"/>
</g>
<!-- Node16&#45;&gt;Node4 -->
<g id="edge24" class="edge"><title>Node16&#45;&gt;Node4</title>
<path fill="none" stroke="midnightblue" d="M555.772,-248.636C562.229,-247.738 568.795,-246.837 575.022,-246 699.81,-229.233 735.102,-245.094 856.022,-210 857.948,-209.441 859.905,-208.778 861.851,-208.047"/>
<polygon fill="midnightblue" stroke="midnightblue" points="863.483,-211.155 871.301,-204.004 860.73,-204.719 863.483,-211.155"/>
</g>
<!-- Node16&#45;&gt;Node7 -->
<g id="edge27" class="edge"><title>Node16&#45;&gt;Node7</title>
<path fill="none" stroke="midnightblue" d="M555.742,-248.247C588.89,-241.879 634.318,-230.205 670.022,-210 687.535,-200.089 687.687,-192.029 703.022,-179 734.185,-152.524 741.112,-144.292 776.022,-123 800.507,-108.067 830.111,-94.4014 851.967,-85.0627"/>
<polygon fill="midnightblue" stroke="midnightblue" points="853.557,-88.191 861.418,-81.0874 850.843,-81.7385 853.557,-88.191"/>
</g>
<!-- Node16&#45;&gt;Node11 -->
<g id="edge48" class="edge"><title>Node16&#45;&gt;Node11</title>
<path fill="none" stroke="midnightblue" d="M555.855,-248.988C595.669,-242.61 654.839,-230.55 703.022,-210 740.59,-193.977 779.427,-166.09 801.564,-148.919"/>
<polygon fill="midnightblue" stroke="midnightblue" points="803.767,-151.639 809.454,-142.7 799.434,-146.141 803.767,-151.639"/>
</g>
<!-- Node16&#45;&gt;Node12 -->
<g id="edge26" class="edge"><title>Node16&#45;&gt;Node12</title>
<path fill="none" stroke="midnightblue" d="M466.262,-247.779C411.126,-238.433 323.536,-221.932 314.022,-210 305.433,-199.227 307.107,-190.917 314.022,-179 330.209,-151.107 349.813,-160.31 377.022,-143 405.619,-124.807 437.417,-101.904 457.316,-87.2307"/>
<polygon fill="midnightblue" stroke="midnightblue" points="459.617,-89.8813 465.567,-81.1145 455.449,-84.2578 459.617,-89.8813"/>
</g>
<!-- Node17 -->
<g id="node17" class="node"><title>Node17</title>
<polygon fill="none" stroke="#bfbfbf" points="611.022,-185 611.022,-204 661.022,-204 661.022,-185 611.022,-185"/>
<text text-anchor="middle" x="636.022" y="-192" font-family="Helvetica,sans-Serif" font-size="10.00">iomanip</text>
</g>
<!-- Node16&#45;&gt;Node17 -->
<g id="edge22" class="edge"><title>Node16&#45;&gt;Node17</title>
<path fill="none" stroke="midnightblue" d="M528.932,-246.475C549.909,-236.49 584.872,-219.848 609.116,-208.307"/>
<polygon fill="midnightblue" stroke="midnightblue" points="610.621,-211.467 618.146,-204.009 607.612,-205.147 610.621,-211.467"/>
</g>
<!-- Node18 -->
<g id="node18" class="node"><title>Node18</title>
<polygon fill="none" stroke="#bfbfbf" points="573.022,-123.5 573.022,-142.5 627.022,-142.5 627.022,-123.5 573.022,-123.5"/>
<text text-anchor="middle" x="600.022" y="-130.5" font-family="Helvetica,sans-Serif" font-size="10.00">iostream</text>
</g>
<!-- Node16&#45;&gt;Node18 -->
<g id="edge23" class="edge"><title>Node16&#45;&gt;Node18</title>
<path fill="none" stroke="midnightblue" d="M502.001,-246.458C487.604,-231.773 462.559,-201.186 478.022,-179 483.162,-171.625 529.133,-156.008 563.137,-145.259"/>
<polygon fill="midnightblue" stroke="midnightblue" points="564.309,-148.56 572.806,-142.231 562.217,-141.879 564.309,-148.56"/>
</g>
<!-- Node19 -->
<g id="node19" class="node"><title>Node19</title>
<polygon fill="none" stroke="#bfbfbf" points="93.5221,-123.5 93.5221,-142.5 152.522,-142.5 152.522,-123.5 93.5221,-123.5"/>
<text text-anchor="middle" x="123.022" y="-130.5" font-family="Helvetica,sans-Serif" font-size="10.00">stdexcept</text>
</g>
<!-- Node16&#45;&gt;Node19 -->
<g id="edge25" class="edge"><title>Node16&#45;&gt;Node19</title>
<path fill="none" stroke="midnightblue" d="M466.213,-248.933C381.106,-237.358 203.972,-213.003 198.022,-210 170.964,-196.344 147.876,-169.131 134.724,-151.248"/>
<polygon fill="midnightblue" stroke="midnightblue" points="137.422,-149.002 128.783,-142.868 131.711,-153.05 137.422,-149.002"/>
</g>
<!-- Node20 -->
<g id="node20" class="node"><title>Node20</title>
<polygon fill="none" stroke="#bfbfbf" points="487.522,-179.5 487.522,-209.5 592.522,-209.5 592.522,-179.5 487.522,-179.5"/>
<text text-anchor="start" x="495.522" y="-197.5" font-family="Helvetica,sans-Serif" font-size="10.00">boost/chrono/io/time</text>
<text text-anchor="middle" x="540.022" y="-186.5" font-family="Helvetica,sans-Serif" font-size="10.00">_point_io.hpp</text>
</g>
<!-- Node16&#45;&gt;Node20 -->
<g id="edge28" class="edge"><title>Node16&#45;&gt;Node20</title>
<path fill="none" stroke="midnightblue" d="M515.177,-246.475C518.701,-239.245 523.926,-228.525 528.676,-218.779"/>
<polygon fill="midnightblue" stroke="midnightblue" points="531.952,-220.046 533.187,-209.523 525.66,-216.979 531.952,-220.046"/>
</g>
<!-- Node21 -->
<g id="node21" class="node"><title>Node21</title>
<g id="a_node21"><a xlink:href="multibuf_8hpp.html" target="_top" xlink:title="multibuf.hpp">
<polygon fill="none" stroke="black" points="323.022,-185 323.022,-204 393.022,-204 393.022,-185 323.022,-185"/>
<text text-anchor="middle" x="358.022" y="-192" font-family="Helvetica,sans-Serif" font-size="10.00">multibuf.hpp</text>
</a>
</g>
</g>
<!-- Node16&#45;&gt;Node21 -->
<g id="edge29" class="edge"><title>Node16&#45;&gt;Node21</title>
<path fill="none" stroke="midnightblue" d="M489.101,-246.475C462.97,-236.313 419.11,-219.256 389.392,-207.7"/>
<polygon fill="midnightblue" stroke="midnightblue" points="390.491,-204.372 379.903,-204.009 387.954,-210.896 390.491,-204.372"/>
</g>
<!-- Node23 -->
<g id="node23" class="node"><title>Node23</title>
<g id="a_node23"><a xlink:href="string_8hpp.html" target="_top" xlink:title="string.hpp">
<polygon fill="none" stroke="black" points="207.522,-185 207.522,-204 266.522,-204 266.522,-185 207.522,-185"/>
<text text-anchor="middle" x="237.022" y="-192" font-family="Helvetica,sans-Serif" font-size="10.00">string.hpp</text>
</a>
</g>
</g>
<!-- Node16&#45;&gt;Node23 -->
<g id="edge34" class="edge"><title>Node16&#45;&gt;Node23</title>
<path fill="none" stroke="midnightblue" d="M466.126,-247.927C419.493,-240.183 344.595,-226.624 281.022,-210 277.652,-209.119 274.162,-208.12 270.691,-207.07"/>
<polygon fill="midnightblue" stroke="midnightblue" points="271.657,-203.705 261.067,-204.026 269.546,-210.379 271.657,-203.705"/>
</g>
<!-- Node21&#45;&gt;Node10 -->
<g id="edge32" class="edge"><title>Node21&#45;&gt;Node10</title>
<path fill="none" stroke="midnightblue" d="M393.115,-187.59C453.452,-177.355 575.379,-156.336 634.752,-143.067"/>
<polygon fill="midnightblue" stroke="midnightblue" points="635.785,-146.421 644.744,-140.765 634.213,-139.6 635.785,-146.421"/>
</g>
<!-- Node21&#45;&gt;Node12 -->
<g id="edge33" class="edge"><title>Node21&#45;&gt;Node12</title>
<path fill="none" stroke="midnightblue" d="M386.214,-184.883C407.321,-177.087 435.467,-163.625 453.022,-143 465.565,-128.264 471.645,-106.66 474.532,-91.2566"/>
<polygon fill="midnightblue" stroke="midnightblue" points="477.997,-91.7496 476.116,-81.3231 471.085,-90.6469 477.997,-91.7496"/>
</g>
<!-- Node21&#45;&gt;Node18 -->
<g id="edge30" class="edge"><title>Node21&#45;&gt;Node18</title>
<path fill="none" stroke="midnightblue" d="M385.665,-184.993C392.614,-182.945 400.071,-180.823 407.022,-179 473.292,-161.615 492.751,-159.813 563.115,-143.172"/>
<polygon fill="midnightblue" stroke="midnightblue" points="563.993,-146.561 572.909,-140.839 562.37,-139.752 563.993,-146.561"/>
</g>
<!-- Node22 -->
<g id="node22" class="node"><title>Node22</title>
<polygon fill="none" stroke="#bfbfbf" points="505.022,-123.5 505.022,-142.5 555.022,-142.5 555.022,-123.5 505.022,-123.5"/>
<text text-anchor="middle" x="530.022" y="-130.5" font-family="Helvetica,sans-Serif" font-size="10.00">fstream</text>
</g>
<!-- Node21&#45;&gt;Node22 -->
<g id="edge31" class="edge"><title>Node21&#45;&gt;Node22</title>
<path fill="none" stroke="midnightblue" d="M382.665,-184.975C412.297,-174.725 462.207,-157.459 495.624,-145.899"/>
<polygon fill="midnightblue" stroke="midnightblue" points="497.118,-149.086 505.424,-142.509 494.83,-142.471 497.118,-149.086"/>
</g>
<!-- Node23&#45;&gt;Node7 -->
<g id="edge41" class="edge"><title>Node23&#45;&gt;Node7</title>
<path fill="none" stroke="midnightblue" d="M263.172,-184.892C309.547,-169.964 409.469,-139.309 496.022,-123 643.613,-95.1891 684.59,-115.64 832.022,-87 836.743,-86.0828 841.662,-84.936 846.501,-83.6915"/>
<polygon fill="midnightblue" stroke="midnightblue" points="847.502,-87.0463 856.232,-81.042 845.663,-80.2921 847.502,-87.0463"/>
</g>
<!-- Node23&#45;&gt;Node9 -->
<g id="edge36" class="edge"><title>Node23&#45;&gt;Node9</title>
<path fill="none" stroke="midnightblue" d="M209.656,-184.975C176.468,-174.636 120.371,-157.161 83.2645,-145.602"/>
<polygon fill="midnightblue" stroke="midnightblue" points="83.9254,-142.142 73.337,-142.509 81.8434,-148.825 83.9254,-142.142"/>
</g>
<!-- Node23&#45;&gt;Node10 -->
<g id="edge42" class="edge"><title>Node23&#45;&gt;Node10</title>
<path fill="none" stroke="midnightblue" d="M266.552,-187.404C280.846,-184.59 298.282,-181.358 314.022,-179 453.236,-158.14 493.027,-170.588 634.844,-142.922"/>
<polygon fill="midnightblue" stroke="midnightblue" points="635.656,-146.329 644.784,-140.951 634.294,-139.463 635.656,-146.329"/>
</g>
<!-- Node23&#45;&gt;Node12 -->
<g id="edge39" class="edge"><title>Node23&#45;&gt;Node12</title>
<path fill="none" stroke="midnightblue" d="M256.092,-184.824C277.593,-174.968 313.532,-158.266 344.022,-143 382.109,-123.931 425.608,-100.567 452.191,-86.1059"/>
<polygon fill="midnightblue" stroke="midnightblue" points="454.074,-89.0658 461.177,-81.2055 450.722,-82.9201 454.074,-89.0658"/>
</g>
<!-- Node23&#45;&gt;Node13 -->
<g id="edge35" class="edge"><title>Node23&#45;&gt;Node13</title>
<path fill="none" stroke="midnightblue" d="M227.934,-184.843C218.859,-175.512 205.497,-159.735 200.022,-143 194.458,-125.992 198.087,-105.627 202.279,-91.1687"/>
<polygon fill="midnightblue" stroke="midnightblue" points="205.686,-92.0087 205.451,-81.4165 199.029,-89.8435 205.686,-92.0087"/>
</g>
<!-- Node23&#45;&gt;Node19 -->
<g id="edge38" class="edge"><title>Node23&#45;&gt;Node19</title>
<path fill="none" stroke="midnightblue" d="M220.689,-184.975C201.811,-175.122 170.516,-158.788 148.446,-147.27"/>
<polygon fill="midnightblue" stroke="midnightblue" points="149.81,-144.033 139.325,-142.509 146.571,-150.239 149.81,-144.033"/>
</g>
<!-- Node24 -->
<g id="node24" class="node"><title>Node24</title>
<polygon fill="none" stroke="#bfbfbf" points="283.022,-123.5 283.022,-142.5 335.022,-142.5 335.022,-123.5 283.022,-123.5"/>
<text text-anchor="middle" x="309.022" y="-130.5" font-family="Helvetica,sans-Serif" font-size="10.00">memory</text>
</g>
<!-- Node23&#45;&gt;Node24 -->
<g id="edge37" class="edge"><title>Node23&#45;&gt;Node24</title>
<path fill="none" stroke="midnightblue" d="M247.338,-184.975C258.673,-175.608 277.095,-160.384 290.861,-149.008"/>
<polygon fill="midnightblue" stroke="midnightblue" points="293.246,-151.577 298.725,-142.509 288.787,-146.181 293.246,-151.577"/>
</g>
<!-- Node25 -->
<g id="node25" class="node"><title>Node25</title>
<polygon fill="none" stroke="#bfbfbf" points="994.022,-123.5 994.022,-142.5 1046.02,-142.5 1046.02,-123.5 994.022,-123.5"/>
<text text-anchor="middle" x="1020.02" y="-130.5" font-family="Helvetica,sans-Serif" font-size="10.00">sstream</text>
</g>
<!-- Node23&#45;&gt;Node25 -->
<g id="edge40" class="edge"><title>Node23&#45;&gt;Node25</title>
<path fill="none" stroke="midnightblue" d="M266.873,-186.997C281.088,-184.127 298.365,-180.966 314.022,-179 347.5,-174.797 843.827,-144.645 983.623,-136.196"/>
<polygon fill="midnightblue" stroke="midnightblue" points="984.038,-139.677 993.809,-135.58 983.616,-132.69 984.038,-139.677"/>
</g>
<!-- Node26 -->
<g id="node26" class="node"><title>Node26</title>
<g id="a_node26"><a xlink:href="color_8hpp.html" target="_top" xlink:title="color.hpp">
<polygon fill="none" stroke="black" points="209.022,-123.5 209.022,-142.5 265.022,-142.5 265.022,-123.5 209.022,-123.5"/>
<text text-anchor="middle" x="237.022" y="-130.5" font-family="Helvetica,sans-Serif" font-size="10.00">color.hpp</text>
</a>
</g>
</g>
<!-- Node23&#45;&gt;Node26 -->
<g id="edge43" class="edge"><title>Node23&#45;&gt;Node26</title>
<path fill="none" stroke="midnightblue" d="M237.022,-184.975C237.022,-176.58 237.022,-163.481 237.022,-152.663"/>
<polygon fill="midnightblue" stroke="midnightblue" points="240.522,-152.509 237.022,-142.509 233.522,-152.509 240.522,-152.509"/>
</g>
<!-- Node26&#45;&gt;Node12 -->
<g id="edge45" class="edge"><title>Node26&#45;&gt;Node12</title>
<path fill="none" stroke="midnightblue" d="M265.023,-125.058C310.431,-113.801 399.761,-91.6542 446.649,-80.03"/>
<polygon fill="midnightblue" stroke="midnightblue" points="447.658,-83.3859 456.522,-77.5824 445.973,-76.5916 447.658,-83.3859"/>
</g>
<!-- Node26&#45;&gt;Node13 -->
<g id="edge44" class="edge"><title>Node26&#45;&gt;Node13</title>
<path fill="none" stroke="midnightblue" d="M233.01,-123.475C228.935,-114.815 222.504,-101.149 217.326,-90.1453"/>
<polygon fill="midnightblue" stroke="midnightblue" points="220.451,-88.567 213.026,-81.0091 214.118,-91.5476 220.451,-88.567"/>
</g>
<!-- Node27 -->
<g id="node27" class="node"><title>Node27</title>
<g id="a_node27"><a xlink:href="math_8hpp.html" target="_top" xlink:title="math.hpp">
<polygon fill="none" stroke="black" points="302.522,-62 302.522,-81 359.522,-81 359.522,-62 302.522,-62"/>
<text text-anchor="middle" x="331.022" y="-69" font-family="Helvetica,sans-Serif" font-size="10.00">math.hpp</text>
</a>
</g>
</g>
<!-- Node26&#45;&gt;Node27 -->
<g id="edge46" class="edge"><title>Node26&#45;&gt;Node27</title>
<path fill="none" stroke="midnightblue" d="M250.49,-123.475C265.707,-113.843 290.709,-98.0175 308.823,-86.5517"/>
<polygon fill="midnightblue" stroke="midnightblue" points="311.002,-89.3149 317.579,-81.0091 307.258,-83.4002 311.002,-89.3149"/>
</g>
<!-- Node28 -->
<g id="node28" class="node"><title>Node28</title>
<polygon fill="none" stroke="#bfbfbf" points="815.022,-0.5 815.022,-19.5 871.022,-19.5 871.022,-0.5 815.022,-0.5"/>
<text text-anchor="middle" x="843.022" y="-7.5" font-family="Helvetica,sans-Serif" font-size="10.00">algorithm</text>
</g>
<!-- Node27&#45;&gt;Node28 -->
<g id="edge47" class="edge"><title>Node27&#45;&gt;Node28</title>
<path fill="none" stroke="midnightblue" d="M359.614,-66.8355C383.086,-63.8489 417.196,-59.5587 447.022,-56 578.05,-40.3665 733.623,-23.0522 804.455,-15.2374"/>
<polygon fill="midnightblue" stroke="midnightblue" points="805.123,-18.6852 814.679,-14.1105 804.356,-11.7273 805.123,-18.6852"/>
</g>
<!-- Node29&#45;&gt;Node11 -->
<g id="edge56" class="edge"><title>Node29&#45;&gt;Node11</title>
<path fill="none" stroke="midnightblue" d="M1153.29,-184.975C1075.7,-173.107 936.63,-151.836 865.155,-140.903"/>
<polygon fill="midnightblue" stroke="midnightblue" points="865.529,-137.42 855.115,-139.368 864.471,-144.34 865.529,-137.42"/>
</g>
<!-- Node29&#45;&gt;Node12 -->
<g id="edge54" class="edge"><title>Node29&#45;&gt;Node12</title>
<path fill="none" stroke="midnightblue" d="M1188.5,-184.927C1165.36,-175.162 1126.71,-158.543 1094.02,-143 1076.43,-134.636 1073.74,-128.393 1055.02,-123 1002.27,-107.803 620.251,-81.8698 507.975,-74.5041"/>
<polygon fill="midnightblue" stroke="midnightblue" points="507.885,-70.9909 497.678,-73.8311 507.428,-77.976 507.885,-70.9909"/>
</g>
<!-- Node29&#45;&gt;Node25 -->
<g id="edge53" class="edge"><title>Node29&#45;&gt;Node25</title>
<path fill="none" stroke="midnightblue" d="M1181.94,-184.975C1148.82,-174.548 1092.64,-156.863 1055.94,-145.307"/>
<polygon fill="midnightblue" stroke="midnightblue" points="1056.73,-141.886 1046.14,-142.222 1054.63,-148.563 1056.73,-141.886"/>
</g>
<!-- Node29&#45;&gt;Node28 -->
<g id="edge50" class="edge"><title>Node29&#45;&gt;Node28</title>
<path fill="none" stroke="midnightblue" d="M1237.08,-184.901C1270.81,-173.111 1320.39,-150.255 1299.02,-123 1246.98,-56.6277 981.136,-24.3774 881.129,-14.452"/>
<polygon fill="midnightblue" stroke="midnightblue" points="881.443,-10.9662 871.151,-13.4816 880.766,-17.9333 881.443,-10.9662"/>
</g>
<!-- Node30 -->
<g id="node30" class="node"><title>Node30</title>
<polygon fill="none" stroke="#bfbfbf" points="1242.52,-123.5 1242.52,-142.5 1289.52,-142.5 1289.52,-123.5 1242.52,-123.5"/>
<text text-anchor="middle" x="1266.02" y="-130.5" font-family="Helvetica,sans-Serif" font-size="10.00">iterator</text>
</g>
<!-- Node29&#45;&gt;Node30 -->
<g id="edge51" class="edge"><title>Node29&#45;&gt;Node30</title>
<path fill="none" stroke="midnightblue" d="M1217.19,-184.975C1225.91,-175.873 1239.93,-161.241 1250.71,-149.983"/>
<polygon fill="midnightblue" stroke="midnightblue" points="1253.48,-152.151 1257.87,-142.509 1248.43,-147.309 1253.48,-152.151"/>
</g>
<!-- Node31 -->
<g id="node31" class="node"><title>Node31</title>
<polygon fill="none" stroke="#bfbfbf" points="1102.52,-123.5 1102.52,-142.5 1143.52,-142.5 1143.52,-123.5 1102.52,-123.5"/>
<text text-anchor="middle" x="1123.02" y="-130.5" font-family="Helvetica,sans-Serif" font-size="10.00">regex</text>
</g>
<!-- Node29&#45;&gt;Node31 -->
<g id="edge52" class="edge"><title>Node29&#45;&gt;Node31</title>
<path fill="none" stroke="midnightblue" d="M1196.7,-184.975C1182.91,-175.431 1160.32,-159.807 1143.79,-148.368"/>
<polygon fill="midnightblue" stroke="midnightblue" points="1145.54,-145.32 1135.32,-142.509 1141.55,-151.077 1145.54,-145.32"/>
</g>
<!-- Node32 -->
<g id="node32" class="node"><title>Node32</title>
<polygon fill="none" stroke="#bfbfbf" points="1162.02,-123.5 1162.02,-142.5 1224.02,-142.5 1224.02,-123.5 1162.02,-123.5"/>
<text text-anchor="middle" x="1193.02" y="-130.5" font-family="Helvetica,sans-Serif" font-size="10.00">type_traits</text>
</g>
<!-- Node29&#45;&gt;Node32 -->
<g id="edge55" class="edge"><title>Node29&#45;&gt;Node32</title>
<path fill="none" stroke="midnightblue" d="M1206.73,-184.975C1204.45,-176.492 1200.88,-163.204 1197.95,-152.322"/>
<polygon fill="midnightblue" stroke="midnightblue" points="1201.29,-151.257 1195.31,-142.509 1194.53,-153.075 1201.29,-151.257"/>
</g>
<!-- Node33&#45;&gt;Node7 -->
<g id="edge58" class="edge"><title>Node33&#45;&gt;Node7</title>
<path fill="none" stroke="midnightblue" d="M771.272,-302.469C815.531,-290.324 886.371,-263.341 918.022,-210 941.185,-170.963 912.867,-116.881 895.18,-89.6401"/>
<polygon fill="midnightblue" stroke="midnightblue" points="897.97,-87.5168 889.469,-81.1926 892.171,-91.4373 897.97,-87.5168"/>
</g>
<!-- Node34 -->
<g id="node34" class="node"><title>Node34</title>
<g id="a_node34"><a xlink:href="user__group_8hpp.html" target="_top" xlink:title="user_group.hpp">
<polygon fill="none" stroke="black" points="691.522,-246.5 691.522,-265.5 774.522,-265.5 774.522,-246.5 691.522,-246.5"/>
<text text-anchor="middle" x="733.022" y="-253.5" font-family="Helvetica,sans-Serif" font-size="10.00">user_group.hpp</text>
</a>
</g>
</g>
<!-- Node33&#45;&gt;Node34 -->
<g id="edge59" class="edge"><title>Node33&#45;&gt;Node34</title>
<path fill="none" stroke="midnightblue" d="M733.022,-302.083C733.022,-295.006 733.022,-284.861 733.022,-275.986"/>
<polygon fill="midnightblue" stroke="midnightblue" points="736.522,-275.751 733.022,-265.751 729.522,-275.751 736.522,-275.751"/>
</g>
<!-- Node34&#45;&gt;Node10 -->
<g id="edge60" class="edge"><title>Node34&#45;&gt;Node10</title>
<path fill="none" stroke="midnightblue" d="M728.276,-246.298C717.478,-226.502 690.903,-177.782 676.564,-151.493"/>
<polygon fill="midnightblue" stroke="midnightblue" points="679.587,-149.726 671.726,-142.623 673.442,-153.078 679.587,-149.726"/>
</g>
<!-- Node35 -->
<g id="node35" class="node"><title>Node35</title>
<g id="a_node35"><a xlink:href="user_8hpp.html" target="_top" xlink:title="user.hpp">
<polygon fill="none" stroke="black" points="793.022,-185 793.022,-204 847.022,-204 847.022,-185 793.022,-185"/>
<text text-anchor="middle" x="820.022" y="-192" font-family="Helvetica,sans-Serif" font-size="10.00">user.hpp</text>
</a>
</g>
</g>
<!-- Node34&#45;&gt;Node35 -->
<g id="edge61" class="edge"><title>Node34&#45;&gt;Node35</title>
<path fill="none" stroke="midnightblue" d="M745.487,-246.475C759.442,-236.931 782.287,-221.307 799.013,-209.868"/>
<polygon fill="midnightblue" stroke="midnightblue" points="801.302,-212.543 807.58,-204.009 797.35,-206.765 801.302,-212.543"/>
</g>
<!-- Node35&#45;&gt;Node7 -->
<g id="edge64" class="edge"><title>Node35&#45;&gt;Node7</title>
<path fill="none" stroke="midnightblue" d="M829.877,-184.797C839.892,-175.429 855.157,-159.621 864.022,-143 872.769,-126.6 877.729,-105.859 880.371,-91.1298"/>
<polygon fill="midnightblue" stroke="midnightblue" points="883.834,-91.6377 881.964,-81.2094 876.923,-90.5282 883.834,-91.6377"/>
</g>
<!-- Node35&#45;&gt;Node10 -->
<g id="edge63" class="edge"><title>Node35&#45;&gt;Node10</title>
<path fill="none" stroke="midnightblue" d="M798.101,-184.975C771.97,-174.813 728.11,-157.756 698.392,-146.2"/>
<polygon fill="midnightblue" stroke="midnightblue" points="699.491,-142.872 688.903,-142.509 696.954,-149.396 699.491,-142.872"/>
</g>
<!-- Node35&#45;&gt;Node11 -->
<g id="edge65" class="edge"><title>Node35&#45;&gt;Node11</title>
<path fill="none" stroke="midnightblue" d="M820.022,-184.975C820.022,-176.58 820.022,-163.481 820.022,-152.663"/>
<polygon fill="midnightblue" stroke="midnightblue" points="823.522,-152.509 820.022,-142.509 816.522,-152.509 823.522,-152.509"/>
</g>
<!-- Node35&#45;&gt;Node12 -->
<g id="edge62" class="edge"><title>Node35&#45;&gt;Node12</title>
<path fill="none" stroke="midnightblue" d="M807.832,-184.779C786.558,-169.954 740.827,-139.816 698.022,-123 632.708,-97.342 551.17,-82.9278 507.69,-76.5415"/>
<polygon fill="midnightblue" stroke="midnightblue" points="508.136,-73.0697 497.742,-75.1238 507.148,-79.9997 508.136,-73.0697"/>
</g>
<!-- Node36&#45;&gt;Node35 -->
<g id="edge67" class="edge"><title>Node36&#45;&gt;Node35</title>
<path fill="none" stroke="midnightblue" d="M655.244,-302.456C701.755,-294.459 763.269,-281.447 783.022,-266 799.655,-252.993 809.612,-230.408 814.938,-214.306"/>
<polygon fill="midnightblue" stroke="midnightblue" points="818.391,-214.976 817.91,-204.392 811.686,-212.965 818.391,-214.976"/>
</g>
<!-- Node37 -->
<g id="node37" class="node"><title>Node37</title>
<polygon fill="none" stroke="#bfbfbf" points="584.522,-246.5 584.522,-265.5 613.522,-265.5 613.522,-246.5 584.522,-246.5"/>
<text text-anchor="middle" x="599.022" y="-253.5" font-family="Helvetica,sans-Serif" font-size="10.00">list</text>
</g>
<!-- Node36&#45;&gt;Node37 -->
<g id="edge68" class="edge"><title>Node36&#45;&gt;Node37</title>
<path fill="none" stroke="midnightblue" d="M599.022,-302.083C599.022,-295.006 599.022,-284.861 599.022,-275.986"/>
<polygon fill="midnightblue" stroke="midnightblue" points="602.522,-275.751 599.022,-265.751 595.522,-275.751 602.522,-275.751"/>
</g>
<!-- Node38&#45;&gt;Node25 -->
<g id="edge71" class="edge"><title>Node38&#45;&gt;Node25</title>
<path fill="none" stroke="midnightblue" d="M1068.01,-246.365C1077.47,-238.171 1090.46,-224.917 1096.02,-210 1100.84,-197.091 1102.85,-190.97 1096.02,-179 1087.22,-163.555 1070.8,-152.87 1055.47,-145.802"/>
<polygon fill="midnightblue" stroke="midnightblue" points="1056.72,-142.529 1046.15,-141.857 1053.99,-148.976 1056.72,-142.529"/>
</g>
<!-- Node38&#45;&gt;Node29 -->
<g id="edge72" class="edge"><title>Node38&#45;&gt;Node29</title>
<path fill="none" stroke="midnightblue" d="M1078.8,-246.475C1104.76,-236.313 1148.33,-219.256 1177.86,-207.7"/>
<polygon fill="midnightblue" stroke="midnightblue" points="1179.25,-210.913 1187.28,-204.009 1176.7,-204.395 1179.25,-210.913"/>
</g>
<!-- Node39 -->
<g id="node39" class="node"><title>Node39</title>
<polygon fill="none" stroke="#bfbfbf" points="1041.02,-185 1041.02,-204 1087.02,-204 1087.02,-185 1041.02,-185"/>
<text text-anchor="middle" x="1064.02" y="-192" font-family="Helvetica,sans-Serif" font-size="10.00">chrono</text>
</g>
<!-- Node38&#45;&gt;Node39 -->
<g id="edge70" class="edge"><title>Node38&#45;&gt;Node39</title>
<path fill="none" stroke="midnightblue" d="M1058.03,-246.475C1059.01,-238.08 1060.55,-224.981 1061.83,-214.163"/>
<polygon fill="midnightblue" stroke="midnightblue" points="1065.33,-214.35 1063.02,-204.009 1058.38,-213.532 1065.33,-214.35"/>
</g>
<!-- Node40&#45;&gt;Node11 -->
<g id="edge74" class="edge"><title>Node40&#45;&gt;Node11</title>
<path fill="none" stroke="midnightblue" d="M897.891,-358.269C913.032,-329.836 956.056,-238.316 918.022,-179 906.265,-160.664 884.953,-149.7 865.2,-143.194"/>
<polygon fill="midnightblue" stroke="midnightblue" points="865.958,-139.768 855.375,-140.265 863.958,-146.476 865.958,-139.768"/>
</g>
</g>
</svg>
