<?xml version="1.0" encoding="UTF-8" standalone="no"?>
<!DOCTYPE svg PUBLIC "-//W3C//DTD SVG 1.1//EN"
 "http://www.w3.org/Graphics/SVG/1.1/DTD/svg11.dtd">
<!-- Generated by graphviz version 2.38.0 (20140413.2041)
 -->
<!-- Title: src/melanobot.cpp Pages: 1 -->
<!--zoomable 442 -->
<svg id="main" version="1.1" xmlns="http://www.w3.org/2000/svg" xmlns:xlink="http://www.w3.org/1999/xlink" xml:space="preserve" onload="init(evt)">
<style type="text/css"><![CDATA[
.edge:hover path { stroke: red; }
.edge:hover polygon { stroke: red; fill: red; }
]]></style>
<script type="text/javascript"><![CDATA[
var edges = document.getElementsByTagName('g');
if (edges && edges.length) {
  for (var i=0;i<edges.length;i++) {
    if (edges[i].id.substr(0,4)=='edge') {
      edges[i].setAttribute('class','edge');
    }
  }
}
]]></script>
        <defs>
                <circle id="rim" cx="0" cy="0" r="7"/>
                <circle id="rim2" cx="0" cy="0" r="3.5"/>
                <g id="zoomPlus">
                        <use xlink:href="#rim" fill="#404040">
                                <set attributeName="fill" to="#808080" begin="zoomplus.mouseover" end="zoomplus.mouseout"/>
                        </use>
                        <path d="M-4,0h8M0,-4v8" fill="none" stroke="white" stroke-width="1.5" pointer-events="none"/>
                </g>
                <g id="zoomMin">
                        <use xlink:href="#rim" fill="#404040">
                                <set attributeName="fill" to="#808080" begin="zoomminus.mouseover" end="zoomminus.mouseout"/>
                        </use>
                        <path d="M-4,0h8" fill="none" stroke="white" stroke-width="1.5" pointer-events="none"/>
                </g>
                <g id="dirArrow">
                        <path fill="none" stroke="white" stroke-width="1.5" d="M0,-3.0v7 M-2.5,-0.5L0,-3.0L2.5,-0.5"/>
                </g>
               <g id="resetDef">
                       <use xlink:href="#rim2" fill="#404040">
                               <set attributeName="fill" to="#808080" begin="reset.mouseover" end="reset.mouseout"/>
                       </use>
               </g>
        </defs>

<script type="text/javascript">
var viewWidth = 1289;
var viewHeight = 442;
var sectionId = 'dynsection-0';
</script>
<script xlink:href="svgpan.js"/>
<svg id="graph" class="graph">
<g id="viewport">
<title>src/melanobot.cpp</title>
<!-- Node1 -->
<g id="node1" class="node"><title>Node1</title>
<polygon fill="#bfbfbf" stroke="black" points="579.5,-414.5 579.5,-433.5 676.5,-433.5 676.5,-414.5 579.5,-414.5"/>
<text text-anchor="middle" x="628" y="-421.5" font-family="Helvetica,sans-Serif" font-size="10.00">src/melanobot.cpp</text>
</g>
<!-- Node2 -->
<g id="node2" class="node"><title>Node2</title>
<g id="a_node2"><a xlink:href="melanobot_8hpp.html" target="_top" xlink:title="melanobot.hpp">
<polygon fill="none" stroke="black" points="390,-302.5 390,-321.5 470,-321.5 470,-302.5 390,-302.5"/>
<text text-anchor="middle" x="430" y="-309.5" font-family="Helvetica,sans-Serif" font-size="10.00">melanobot.hpp</text>
</a>
</g>
</g>
<!-- Node1&#45;&gt;Node2 -->
<g id="edge1" class="edge"><title>Node1&#45;&gt;Node2</title>
<path fill="none" stroke="midnightblue" d="M612.463,-414.368C578.125,-395.292 495.56,-349.422 454.31,-326.505"/>
<polygon fill="midnightblue" stroke="midnightblue" points="455.906,-323.388 445.465,-321.591 452.506,-329.507 455.906,-323.388"/>
</g>
<!-- Node31 -->
<g id="node31" class="node"><title>Node31</title>
<g id="a_node31"><a xlink:href="handler_8hpp.html" target="_top" xlink:title="handler/handler.hpp">
<polygon fill="none" stroke="black" points="670.5,-358.5 670.5,-377.5 771.5,-377.5 771.5,-358.5 670.5,-358.5"/>
<text text-anchor="middle" x="721" y="-365.5" font-family="Helvetica,sans-Serif" font-size="10.00">handler/handler.hpp</text>
</a>
</g>
</g>
<!-- Node1&#45;&gt;Node31 -->
<g id="edge53" class="edge"><title>Node1&#45;&gt;Node31</title>
<path fill="none" stroke="midnightblue" d="M642.942,-414.324C657.585,-405.822 680.134,-392.729 697.238,-382.797"/>
<polygon fill="midnightblue" stroke="midnightblue" points="699.205,-385.703 706.095,-377.655 695.69,-379.649 699.205,-385.703"/>
</g>
<!-- Node3 -->
<g id="node3" class="node"><title>Node3</title>
<polygon fill="none" stroke="#bfbfbf" points="279,-190.5 279,-209.5 325,-209.5 325,-190.5 279,-190.5"/>
<text text-anchor="middle" x="302" y="-197.5" font-family="Helvetica,sans-Serif" font-size="10.00">atomic</text>
</g>
<!-- Node2&#45;&gt;Node3 -->
<g id="edge2" class="edge"><title>Node2&#45;&gt;Node3</title>
<path fill="none" stroke="midnightblue" d="M414.413,-302.39C399.888,-294.016 377.98,-280.472 361,-266 343.683,-251.241 326.498,-231.589 315.18,-217.771"/>
<polygon fill="midnightblue" stroke="midnightblue" points="317.64,-215.246 308.648,-209.644 312.184,-219.631 317.64,-215.246"/>
</g>
<!-- Node4 -->
<g id="node4" class="node"><title>Node4</title>
<polygon fill="none" stroke="#bfbfbf" points="89.5,-190.5 89.5,-209.5 184.5,-209.5 184.5,-190.5 89.5,-190.5"/>
<text text-anchor="middle" x="137" y="-197.5" font-family="Helvetica,sans-Serif" font-size="10.00">condition_variable</text>
</g>
<!-- Node2&#45;&gt;Node4 -->
<g id="edge3" class="edge"><title>Node2&#45;&gt;Node4</title>
<path fill="none" stroke="midnightblue" d="M389.903,-307.702C328.051,-301.978 212.952,-288.598 179,-266 162.097,-254.75 150.514,-234.13 143.861,-219.124"/>
<polygon fill="midnightblue" stroke="midnightblue" points="147.075,-217.736 140.037,-209.816 140.6,-220.396 147.075,-217.736"/>
</g>
<!-- Node5 -->
<g id="node5" class="node"><title>Node5</title>
<polygon fill="none" stroke="#bfbfbf" points="573,-129 573,-148 617,-148 617,-129 573,-129"/>
<text text-anchor="middle" x="595" y="-136" font-family="Helvetica,sans-Serif" font-size="10.00">mutex</text>
</g>
<!-- Node2&#45;&gt;Node5 -->
<g id="edge4" class="edge"><title>Node2&#45;&gt;Node5</title>
<path fill="none" stroke="midnightblue" d="M470.145,-303.757C494.552,-297.488 524.803,-286.128 545,-266 575.15,-235.953 587.631,-185.505 592.377,-158.28"/>
<polygon fill="midnightblue" stroke="midnightblue" points="595.872,-158.584 593.966,-148.162 588.957,-157.498 595.872,-158.584"/>
</g>
<!-- Node6 -->
<g id="node6" class="node"><title>Node6</title>
<polygon fill="none" stroke="#bfbfbf" points="28.5,-190.5 28.5,-209.5 71.5,-209.5 71.5,-190.5 28.5,-190.5"/>
<text text-anchor="middle" x="50" y="-197.5" font-family="Helvetica,sans-Serif" font-size="10.00">queue</text>
</g>
<!-- Node2&#45;&gt;Node6 -->
<g id="edge5" class="edge"><title>Node2&#45;&gt;Node6</title>
<path fill="none" stroke="midnightblue" d="M389.745,-309.236C335.202,-305.772 235.511,-295.604 156,-266 123.046,-253.73 89.1116,-230.757 68.7873,-215.67"/>
<polygon fill="midnightblue" stroke="midnightblue" points="70.7909,-212.797 60.7058,-209.551 66.5651,-218.378 70.7909,-212.797"/>
</g>
<!-- Node7 -->
<g id="node7" class="node"><title>Node7</title>
<polygon fill="none" stroke="#bfbfbf" points="50,-246.5 50,-265.5 94,-265.5 94,-246.5 50,-246.5"/>
<text text-anchor="middle" x="72" y="-253.5" font-family="Helvetica,sans-Serif" font-size="10.00">thread</text>
</g>
<!-- Node2&#45;&gt;Node7 -->
<g id="edge6" class="edge"><title>Node2&#45;&gt;Node7</title>
<path fill="none" stroke="midnightblue" d="M389.866,-306.778C328.72,-300.033 208.707,-285.568 108,-266 106.719,-265.751 105.416,-265.485 104.102,-265.207"/>
<polygon fill="midnightblue" stroke="midnightblue" points="104.531,-261.715 94.0021,-262.894 102.968,-268.538 104.531,-261.715"/>
</g>
<!-- Node8 -->
<g id="node8" class="node"><title>Node8</title>
<polygon fill="none" stroke="#bfbfbf" points="529.5,-62 529.5,-81 612.5,-81 612.5,-62 529.5,-62"/>
<text text-anchor="middle" x="571" y="-69" font-family="Helvetica,sans-Serif" font-size="10.00">unordered_map</text>
</g>
<!-- Node2&#45;&gt;Node8 -->
<g id="edge7" class="edge"><title>Node2&#45;&gt;Node8</title>
<path fill="none" stroke="midnightblue" d="M449.734,-302.403C465.068,-294.819 485.87,-282.419 499,-266 542.43,-211.691 561.385,-128.568 568.019,-91.4932"/>
<polygon fill="midnightblue" stroke="midnightblue" points="571.548,-91.6107 569.755,-81.1687 564.645,-90.4498 571.548,-91.6107"/>
</g>
<!-- Node9 -->
<g id="node9" class="node"><title>Node9</title>
<g id="a_node9"><a xlink:href="concurrent__container_8hpp.html" target="_top" xlink:title="concurrent_container.hpp">
<polygon fill="none" stroke="black" points="188,-246.5 188,-265.5 314,-265.5 314,-246.5 188,-246.5"/>
<text text-anchor="middle" x="251" y="-253.5" font-family="Helvetica,sans-Serif" font-size="10.00">concurrent_container.hpp</text>
</a>
</g>
</g>
<!-- Node2&#45;&gt;Node9 -->
<g id="edge8" class="edge"><title>Node2&#45;&gt;Node9</title>
<path fill="none" stroke="midnightblue" d="M401.637,-302.444C371.262,-293.28 322.89,-278.688 289.184,-268.519"/>
<polygon fill="midnightblue" stroke="midnightblue" points="289.815,-265.054 279.23,-265.516 287.793,-271.756 289.815,-265.054"/>
</g>
<!-- Node12 -->
<g id="node12" class="node"><title>Node12</title>
<g id="a_node12"><a xlink:href="settings_8hpp.html" target="_top" xlink:title="settings.hpp">
<polygon fill="none" stroke="black" points="711,-129 711,-148 781,-148 781,-129 711,-129"/>
<text text-anchor="middle" x="746" y="-136" font-family="Helvetica,sans-Serif" font-size="10.00">settings.hpp</text>
</a>
</g>
</g>
<!-- Node2&#45;&gt;Node12 -->
<g id="edge14" class="edge"><title>Node2&#45;&gt;Node12</title>
<path fill="none" stroke="midnightblue" d="M465.482,-302.471C493.834,-294.927 534.127,-282.545 567,-266 631.004,-233.787 697.695,-180.523 728.493,-154.604"/>
<polygon fill="midnightblue" stroke="midnightblue" points="730.842,-157.201 736.196,-148.059 726.309,-151.867 730.842,-157.201"/>
</g>
<!-- Node16 -->
<g id="node16" class="node"><title>Node16</title>
<g id="a_node16"><a xlink:href="connection_8hpp.html" target="_top" xlink:title="network/connection.hpp">
<polygon fill="none" stroke="black" points="370,-246.5 370,-265.5 490,-265.5 490,-246.5 370,-246.5"/>
<text text-anchor="middle" x="430" y="-253.5" font-family="Helvetica,sans-Serif" font-size="10.00">network/connection.hpp</text>
</a>
</g>
</g>
<!-- Node2&#45;&gt;Node16 -->
<g id="edge19" class="edge"><title>Node2&#45;&gt;Node16</title>
<path fill="none" stroke="midnightblue" d="M430,-302.083C430,-295.006 430,-284.861 430,-275.986"/>
<polygon fill="midnightblue" stroke="midnightblue" points="433.5,-275.751 430,-265.751 426.5,-275.751 433.5,-275.751"/>
</g>
<!-- Node9&#45;&gt;Node3 -->
<g id="edge9" class="edge"><title>Node9&#45;&gt;Node3</title>
<path fill="none" stroke="midnightblue" d="M259.422,-246.083C266.848,-238.22 277.852,-226.569 286.812,-217.081"/>
<polygon fill="midnightblue" stroke="midnightblue" points="289.413,-219.424 293.735,-209.751 284.324,-214.618 289.413,-219.424"/>
</g>
<!-- Node9&#45;&gt;Node4 -->
<g id="edge10" class="edge"><title>Node9&#45;&gt;Node4</title>
<path fill="none" stroke="midnightblue" d="M232.936,-246.444C214.425,-237.675 185.419,-223.935 164.145,-213.858"/>
<polygon fill="midnightblue" stroke="midnightblue" points="165.515,-210.634 154.979,-209.516 162.518,-216.96 165.515,-210.634"/>
</g>
<!-- Node9&#45;&gt;Node6 -->
<g id="edge12" class="edge"><title>Node9&#45;&gt;Node6</title>
<path fill="none" stroke="midnightblue" d="M217.164,-246.459C184.626,-238.165 133.822,-225.007 81.4063,-210.334"/>
<polygon fill="midnightblue" stroke="midnightblue" points="82.1785,-206.915 71.6044,-207.577 80.2833,-213.654 82.1785,-206.915"/>
</g>
<!-- Node10 -->
<g id="node10" class="node"><title>Node10</title>
<polygon fill="none" stroke="#bfbfbf" points="173.5,-62 173.5,-81 232.5,-81 232.5,-62 173.5,-62"/>
<text text-anchor="middle" x="203" y="-69" font-family="Helvetica,sans-Serif" font-size="10.00">functional</text>
</g>
<!-- Node9&#45;&gt;Node10 -->
<g id="edge11" class="edge"><title>Node9&#45;&gt;Node10</title>
<path fill="none" stroke="midnightblue" d="M248.164,-246.418C245.222,-237.396 240.561,-222.767 237,-210 225.207,-167.72 213.33,-117.551 207.219,-91.0503"/>
<polygon fill="midnightblue" stroke="midnightblue" points="210.615,-90.1999 204.97,-81.2339 203.792,-91.7629 210.615,-90.1999"/>
</g>
<!-- Node11 -->
<g id="node11" class="node"><title>Node11</title>
<polygon fill="none" stroke="#bfbfbf" points="397,-62 397,-81 441,-81 441,-62 397,-62"/>
<text text-anchor="middle" x="419" y="-69" font-family="Helvetica,sans-Serif" font-size="10.00">vector</text>
</g>
<!-- Node9&#45;&gt;Node11 -->
<g id="edge13" class="edge"><title>Node9&#45;&gt;Node11</title>
<path fill="none" stroke="midnightblue" d="M251.844,-246.292C253.476,-233.107 258.029,-207.736 270,-190 302.207,-142.283 359.873,-104.96 393.233,-86.075"/>
<polygon fill="midnightblue" stroke="midnightblue" points="395.298,-88.9327 402.354,-81.0292 391.909,-82.8075 395.298,-88.9327"/>
</g>
<!-- Node12&#45;&gt;Node8 -->
<g id="edge17" class="edge"><title>Node12&#45;&gt;Node8</title>
<path fill="none" stroke="midnightblue" d="M722.761,-128.869C692.213,-117.522 638.374,-97.5246 603.717,-84.6522"/>
<polygon fill="midnightblue" stroke="midnightblue" points="604.649,-81.2646 594.056,-81.0637 602.212,-87.8266 604.649,-81.2646"/>
</g>
<!-- Node13 -->
<g id="node13" class="node"><title>Node13</title>
<polygon fill="none" stroke="#bfbfbf" points="928.5,-0.5 928.5,-19.5 969.5,-19.5 969.5,-0.5 928.5,-0.5"/>
<text text-anchor="middle" x="949" y="-7.5" font-family="Helvetica,sans-Serif" font-size="10.00">string</text>
</g>
<!-- Node12&#45;&gt;Node13 -->
<g id="edge15" class="edge"><title>Node12&#45;&gt;Node13</title>
<path fill="none" stroke="midnightblue" d="M771.795,-128.945C812.11,-115.513 885.995,-90.6267 891,-87 912.46,-71.4508 929.712,-45.7344 939.658,-28.5814"/>
<polygon fill="midnightblue" stroke="midnightblue" points="942.844,-30.0537 944.646,-19.6132 936.727,-26.6511 942.844,-30.0537"/>
</g>
<!-- Node14 -->
<g id="node14" class="node"><title>Node14</title>
<polygon fill="none" stroke="#bfbfbf" points="462,-0.5 462,-19.5 508,-19.5 508,-0.5 462,-0.5"/>
<text text-anchor="middle" x="485" y="-7.5" font-family="Helvetica,sans-Serif" font-size="10.00">cstdint</text>
</g>
<!-- Node12&#45;&gt;Node14 -->
<g id="edge16" class="edge"><title>Node12&#45;&gt;Node14</title>
<path fill="none" stroke="midnightblue" d="M729.735,-128.845C712.124,-119.271 683.415,-103.063 660,-87 641.741,-74.4742 640.478,-66.5294 621,-56 587.875,-38.0937 546.361,-25.6275 517.968,-18.43"/>
<polygon fill="midnightblue" stroke="midnightblue" points="518.687,-15.0026 508.14,-16.0163 517.017,-21.8006 518.687,-15.0026"/>
</g>
<!-- Node15 -->
<g id="node15" class="node"><title>Node15</title>
<polygon fill="none" stroke="#bfbfbf" points="781.5,-56.5 781.5,-86.5 882.5,-86.5 882.5,-56.5 781.5,-56.5"/>
<text text-anchor="start" x="789.5" y="-74.5" font-family="Helvetica,sans-Serif" font-size="10.00">boost/property_tree</text>
<text text-anchor="middle" x="832" y="-63.5" font-family="Helvetica,sans-Serif" font-size="10.00">/ptree.hpp</text>
</g>
<!-- Node12&#45;&gt;Node15 -->
<g id="edge18" class="edge"><title>Node12&#45;&gt;Node15</title>
<path fill="none" stroke="midnightblue" d="M757.598,-128.734C769.78,-119.527 789.353,-104.733 805.367,-92.6293"/>
<polygon fill="midnightblue" stroke="midnightblue" points="807.492,-95.4109 813.359,-86.589 803.271,-89.8265 807.492,-95.4109"/>
</g>
<!-- Node16&#45;&gt;Node3 -->
<g id="edge20" class="edge"><title>Node16&#45;&gt;Node3</title>
<path fill="none" stroke="midnightblue" d="M409.718,-246.444C388.653,-237.557 355.483,-223.563 331.514,-213.451"/>
<polygon fill="midnightblue" stroke="midnightblue" points="332.761,-210.179 322.187,-209.516 330.04,-216.628 332.761,-210.179"/>
</g>
<!-- Node16&#45;&gt;Node14 -->
<g id="edge22" class="edge"><title>Node16&#45;&gt;Node14</title>
<path fill="none" stroke="midnightblue" d="M419.907,-246.274C381.79,-212.85 250.241,-92.9997 280,-56 301.151,-29.7023 399.026,-17.9009 451.518,-13.3861"/>
<polygon fill="midnightblue" stroke="midnightblue" points="452,-16.8584 461.681,-12.5543 451.429,-9.88176 452,-16.8584"/>
</g>
<!-- Node17 -->
<g id="node17" class="node"><title>Node17</title>
<polygon fill="none" stroke="#bfbfbf" points="457,-190.5 457,-209.5 503,-209.5 503,-190.5 457,-190.5"/>
<text text-anchor="middle" x="480" y="-197.5" font-family="Helvetica,sans-Serif" font-size="10.00">chrono</text>
</g>
<!-- Node16&#45;&gt;Node17 -->
<g id="edge21" class="edge"><title>Node16&#45;&gt;Node17</title>
<path fill="none" stroke="midnightblue" d="M438.256,-246.083C445.465,-238.298 456.11,-226.801 464.846,-217.367"/>
<polygon fill="midnightblue" stroke="midnightblue" points="467.671,-219.467 471.897,-209.751 462.535,-214.711 467.671,-219.467"/>
</g>
<!-- Node18 -->
<g id="node18" class="node"><title>Node18</title>
<polygon fill="none" stroke="#bfbfbf" points="289,-62 289,-81 341,-81 341,-62 289,-62"/>
<text text-anchor="middle" x="315" y="-69" font-family="Helvetica,sans-Serif" font-size="10.00">sstream</text>
</g>
<!-- Node16&#45;&gt;Node18 -->
<g id="edge23" class="edge"><title>Node16&#45;&gt;Node18</title>
<path fill="none" stroke="midnightblue" d="M424.453,-246.198C406.502,-217.71 349.77,-127.679 325.828,-89.6835"/>
<polygon fill="midnightblue" stroke="midnightblue" points="328.783,-87.8085 320.491,-81.214 322.861,-91.5404 328.783,-87.8085"/>
</g>
<!-- Node19 -->
<g id="node19" class="node"><title>Node19</title>
<g id="a_node19"><a xlink:href="string_8hpp.html" target="_top" xlink:title="../string/string.hpp">
<polygon fill="none" stroke="black" points="421.5,-129 421.5,-148 516.5,-148 516.5,-129 421.5,-129"/>
<text text-anchor="middle" x="469" y="-136" font-family="Helvetica,sans-Serif" font-size="10.00">../string/string.hpp</text>
</a>
</g>
</g>
<!-- Node16&#45;&gt;Node19 -->
<g id="edge24" class="edge"><title>Node16&#45;&gt;Node19</title>
<path fill="none" stroke="midnightblue" d="M432,-246.483C435.021,-233.966 441.128,-209.925 448,-190 451.774,-179.057 456.716,-167.085 460.857,-157.545"/>
<polygon fill="midnightblue" stroke="midnightblue" points="464.097,-158.872 464.944,-148.311 457.696,-156.039 464.097,-158.872"/>
</g>
<!-- Node25 -->
<g id="node25" class="node"><title>Node25</title>
<g id="a_node25"><a xlink:href="logger_8hpp.html" target="_top" xlink:title="../string/logger.hpp">
<polygon fill="none" stroke="black" points="767,-190.5 767,-209.5 865,-209.5 865,-190.5 767,-190.5"/>
<text text-anchor="middle" x="816" y="-197.5" font-family="Helvetica,sans-Serif" font-size="10.00">../string/logger.hpp</text>
</a>
</g>
</g>
<!-- Node16&#45;&gt;Node25 -->
<g id="edge38" class="edge"><title>Node16&#45;&gt;Node25</title>
<path fill="none" stroke="midnightblue" d="M490.312,-246.562C562.966,-236.398 684.243,-219.432 756.522,-209.321"/>
<polygon fill="midnightblue" stroke="midnightblue" points="757.4,-212.732 766.819,-207.88 756.43,-205.8 757.4,-212.732"/>
</g>
<!-- Node19&#45;&gt;Node8 -->
<g id="edge31" class="edge"><title>Node19&#45;&gt;Node8</title>
<path fill="none" stroke="midnightblue" d="M482.756,-128.734C499.732,-117.916 528.814,-99.3832 548.927,-86.5659"/>
<polygon fill="midnightblue" stroke="midnightblue" points="550.91,-89.4531 557.462,-81.1273 547.148,-83.5498 550.91,-89.4531"/>
</g>
<!-- Node19&#45;&gt;Node10 -->
<g id="edge26" class="edge"><title>Node19&#45;&gt;Node10</title>
<path fill="none" stroke="midnightblue" d="M433.952,-128.936C384.487,-116.848 294.461,-94.8495 242.625,-82.1828"/>
<polygon fill="midnightblue" stroke="midnightblue" points="243.335,-78.7535 232.79,-79.7796 241.674,-85.5534 243.335,-78.7535"/>
</g>
<!-- Node19&#45;&gt;Node11 -->
<g id="edge32" class="edge"><title>Node19&#45;&gt;Node11</title>
<path fill="none" stroke="midnightblue" d="M462.257,-128.734C454.46,-118.598 441.454,-101.69 431.735,-89.0556"/>
<polygon fill="midnightblue" stroke="midnightblue" points="434.508,-86.9196 425.636,-81.1273 428.959,-91.1876 434.508,-86.9196"/>
</g>
<!-- Node19&#45;&gt;Node13 -->
<g id="edge29" class="edge"><title>Node19&#45;&gt;Node13</title>
<path fill="none" stroke="midnightblue" d="M516.618,-129.732C587.509,-117.97 714.58,-96.0548 734,-87 753.754,-77.7893 752.534,-65.8055 772,-56 819.938,-31.8523 881.876,-19.9632 918.335,-14.6796"/>
<polygon fill="midnightblue" stroke="midnightblue" points="918.92,-18.1323 928.349,-13.3026 917.966,-11.1976 918.92,-18.1323"/>
</g>
<!-- Node19&#45;&gt;Node14 -->
<g id="edge25" class="edge"><title>Node19&#45;&gt;Node14</title>
<path fill="none" stroke="midnightblue" d="M442.703,-128.941C423.761,-121.236 399.58,-107.865 388,-87 381.314,-74.9531 380.586,-67.6128 388,-56 402.034,-34.0183 429.877,-22.6107 452.146,-16.7915"/>
<polygon fill="midnightblue" stroke="midnightblue" points="452.983,-20.1902 461.916,-14.4931 451.38,-13.3762 452.983,-20.1902"/>
</g>
<!-- Node19&#45;&gt;Node18 -->
<g id="edge30" class="edge"><title>Node19&#45;&gt;Node18</title>
<path fill="none" stroke="midnightblue" d="M448.55,-128.869C421.972,-117.65 375.36,-97.9766 344.834,-85.0925"/>
<polygon fill="midnightblue" stroke="midnightblue" points="346.109,-81.8313 335.535,-81.1672 343.387,-88.2804 346.109,-81.8313"/>
</g>
<!-- Node20 -->
<g id="node20" class="node"><title>Node20</title>
<polygon fill="none" stroke="#bfbfbf" points="459,-62 459,-81 511,-81 511,-62 459,-62"/>
<text text-anchor="middle" x="485" y="-69" font-family="Helvetica,sans-Serif" font-size="10.00">memory</text>
</g>
<!-- Node19&#45;&gt;Node20 -->
<g id="edge27" class="edge"><title>Node19&#45;&gt;Node20</title>
<path fill="none" stroke="midnightblue" d="M471.158,-128.734C473.533,-119.085 477.418,-103.3 480.469,-90.9063"/>
<polygon fill="midnightblue" stroke="midnightblue" points="483.885,-91.674 482.876,-81.1273 477.088,-90.0009 483.885,-91.674"/>
</g>
<!-- Node21 -->
<g id="node21" class="node"><title>Node21</title>
<polygon fill="none" stroke="#bfbfbf" points="1155.5,-62 1155.5,-81 1214.5,-81 1214.5,-62 1155.5,-62"/>
<text text-anchor="middle" x="1185" y="-69" font-family="Helvetica,sans-Serif" font-size="10.00">stdexcept</text>
</g>
<!-- Node19&#45;&gt;Node21 -->
<g id="edge28" class="edge"><title>Node19&#45;&gt;Node21</title>
<path fill="none" stroke="midnightblue" d="M516.737,-129.399C531.82,-127.059 548.576,-124.684 564,-123 804.875,-96.6959 867.618,-117.475 1108,-87 1120.11,-85.465 1133.19,-83.225 1145.07,-80.9626"/>
<polygon fill="midnightblue" stroke="midnightblue" points="1146.01,-84.3451 1155.15,-78.9859 1144.66,-77.476 1146.01,-84.3451"/>
</g>
<!-- Node22 -->
<g id="node22" class="node"><title>Node22</title>
<g id="a_node22"><a xlink:href="color_8hpp.html" target="_top" xlink:title="color.hpp">
<polygon fill="none" stroke="black" points="669,-62 669,-81 725,-81 725,-62 669,-62"/>
<text text-anchor="middle" x="697" y="-69" font-family="Helvetica,sans-Serif" font-size="10.00">color.hpp</text>
</a>
</g>
</g>
<!-- Node19&#45;&gt;Node22 -->
<g id="edge33" class="edge"><title>Node19&#45;&gt;Node22</title>
<path fill="none" stroke="midnightblue" d="M499.277,-128.869C540.494,-117.118 614.255,-96.0896 659.099,-83.305"/>
<polygon fill="midnightblue" stroke="midnightblue" points="660.094,-86.6609 668.751,-80.5533 658.175,-79.9292 660.094,-86.6609"/>
</g>
<!-- Node22&#45;&gt;Node13 -->
<g id="edge37" class="edge"><title>Node22&#45;&gt;Node13</title>
<path fill="none" stroke="midnightblue" d="M720.388,-61.8632C726.408,-59.7958 732.907,-57.6979 739,-56 801.944,-38.4605 877.119,-23.8469 918.284,-16.3725"/>
<polygon fill="midnightblue" stroke="midnightblue" points="919.007,-19.7988 928.23,-14.5857 917.769,-12.9091 919.007,-19.7988"/>
</g>
<!-- Node22&#45;&gt;Node14 -->
<g id="edge35" class="edge"><title>Node22&#45;&gt;Node14</title>
<path fill="none" stroke="midnightblue" d="M673.112,-61.9122C667.219,-59.8879 660.904,-57.7977 655,-56 607.887,-41.6531 552.648,-27.5192 518.231,-19.0265"/>
<polygon fill="midnightblue" stroke="midnightblue" points="518.796,-15.5614 508.25,-16.5779 517.128,-22.3598 518.796,-15.5614"/>
</g>
<!-- Node23 -->
<g id="node23" class="node"><title>Node23</title>
<polygon fill="none" stroke="#bfbfbf" points="642,-0.5 642,-19.5 688,-19.5 688,-0.5 642,-0.5"/>
<text text-anchor="middle" x="665" y="-7.5" font-family="Helvetica,sans-Serif" font-size="10.00">cctype</text>
</g>
<!-- Node22&#45;&gt;Node23 -->
<g id="edge34" class="edge"><title>Node22&#45;&gt;Node23</title>
<path fill="none" stroke="midnightblue" d="M692.415,-61.9751C687.758,-53.3152 680.408,-39.6486 674.49,-28.6453"/>
<polygon fill="midnightblue" stroke="midnightblue" points="677.395,-26.6584 669.576,-19.5091 671.23,-29.974 677.395,-26.6584"/>
</g>
<!-- Node24 -->
<g id="node24" class="node"><title>Node24</title>
<polygon fill="none" stroke="#bfbfbf" points="706.5,-0.5 706.5,-19.5 751.5,-19.5 751.5,-0.5 706.5,-0.5"/>
<text text-anchor="middle" x="729" y="-7.5" font-family="Helvetica,sans-Serif" font-size="10.00">cstdlib</text>
</g>
<!-- Node22&#45;&gt;Node24 -->
<g id="edge36" class="edge"><title>Node22&#45;&gt;Node24</title>
<path fill="none" stroke="midnightblue" d="M701.585,-61.9751C706.242,-53.3152 713.592,-39.6486 719.51,-28.6453"/>
<polygon fill="midnightblue" stroke="midnightblue" points="722.77,-29.974 724.424,-19.5091 716.605,-26.6584 722.77,-29.974"/>
</g>
<!-- Node25&#45;&gt;Node5 -->
<g id="edge41" class="edge"><title>Node25&#45;&gt;Node5</title>
<path fill="none" stroke="midnightblue" d="M784.336,-190.475C742.437,-179.195 668.983,-159.419 626.944,-148.1"/>
<polygon fill="midnightblue" stroke="midnightblue" points="627.787,-144.703 617.221,-145.483 625.968,-151.462 627.787,-144.703"/>
</g>
<!-- Node25&#45;&gt;Node8 -->
<g id="edge44" class="edge"><title>Node25&#45;&gt;Node8</title>
<path fill="none" stroke="midnightblue" d="M788.894,-190.435C765.247,-182.47 730.378,-169.514 702,-154 681.328,-142.699 678.799,-135.769 659,-123 638.391,-109.709 614.172,-95.9386 596.364,-86.1413"/>
<polygon fill="midnightblue" stroke="midnightblue" points="597.649,-82.8549 587.194,-81.1353 594.295,-88.999 597.649,-82.8549"/>
</g>
<!-- Node25&#45;&gt;Node12 -->
<g id="edge52" class="edge"><title>Node25&#45;&gt;Node12</title>
<path fill="none" stroke="midnightblue" d="M805.971,-190.475C794.951,-181.108 777.04,-165.884 763.657,-154.508"/>
<polygon fill="midnightblue" stroke="midnightblue" points="765.897,-151.819 756.011,-148.009 761.363,-157.152 765.897,-151.819"/>
</g>
<!-- Node25&#45;&gt;Node13 -->
<g id="edge43" class="edge"><title>Node25&#45;&gt;Node13</title>
<path fill="none" stroke="midnightblue" d="M865.081,-197.086C934.548,-193.374 1056.71,-182.835 1089,-154 1122.09,-124.449 1134.76,-91.3867 1108,-56 1092.53,-35.5387 1021.07,-21.7038 979.406,-15.2231"/>
<polygon fill="midnightblue" stroke="midnightblue" points="979.917,-11.7606 969.507,-13.7343 978.876,-18.6827 979.917,-11.7606"/>
</g>
<!-- Node25&#45;&gt;Node19 -->
<g id="edge51" class="edge"><title>Node25&#45;&gt;Node19</title>
<path fill="none" stroke="midnightblue" d="M766.652,-190.538C703.293,-179.674 593.548,-160.856 526.485,-149.357"/>
<polygon fill="midnightblue" stroke="midnightblue" points="526.955,-145.886 516.507,-147.646 525.772,-152.786 526.955,-145.886"/>
</g>
<!-- Node25&#45;&gt;Node21 -->
<g id="edge42" class="edge"><title>Node25&#45;&gt;Node21</title>
<path fill="none" stroke="midnightblue" d="M865.206,-197.547C944.817,-194.326 1097.36,-184.284 1141,-154 1162.63,-138.986 1174.6,-109.828 1180.41,-90.767"/>
<polygon fill="midnightblue" stroke="midnightblue" points="1183.78,-91.704 1183.08,-81.1319 1177.03,-89.8297 1183.78,-91.704"/>
</g>
<!-- Node26 -->
<g id="node26" class="node"><title>Node26</title>
<polygon fill="none" stroke="#bfbfbf" points="887,-129 887,-148 937,-148 937,-129 887,-129"/>
<text text-anchor="middle" x="912" y="-136" font-family="Helvetica,sans-Serif" font-size="10.00">iomanip</text>
</g>
<!-- Node25&#45;&gt;Node26 -->
<g id="edge39" class="edge"><title>Node25&#45;&gt;Node26</title>
<path fill="none" stroke="midnightblue" d="M829.754,-190.475C845.366,-180.799 871.063,-164.872 889.583,-153.394"/>
<polygon fill="midnightblue" stroke="midnightblue" points="891.615,-156.252 898.271,-148.009 887.927,-150.302 891.615,-156.252"/>
</g>
<!-- Node27 -->
<g id="node27" class="node"><title>Node27</title>
<polygon fill="none" stroke="#bfbfbf" points="1045,-62 1045,-81 1099,-81 1099,-62 1045,-62"/>
<text text-anchor="middle" x="1072" y="-69" font-family="Helvetica,sans-Serif" font-size="10.00">iostream</text>
</g>
<!-- Node25&#45;&gt;Node27 -->
<g id="edge40" class="edge"><title>Node25&#45;&gt;Node27</title>
<path fill="none" stroke="midnightblue" d="M865.17,-197.343C931.122,-193.985 1042.98,-183.919 1069,-154 1083.84,-136.932 1081.33,-109.429 1077.34,-91.1611"/>
<polygon fill="midnightblue" stroke="midnightblue" points="1080.72,-90.2285 1074.88,-81.3881 1073.93,-91.9405 1080.72,-90.2285"/>
</g>
<!-- Node28 -->
<g id="node28" class="node"><title>Node28</title>
<polygon fill="none" stroke="#bfbfbf" points="955.5,-123.5 955.5,-153.5 1060.5,-153.5 1060.5,-123.5 955.5,-123.5"/>
<text text-anchor="start" x="963.5" y="-141.5" font-family="Helvetica,sans-Serif" font-size="10.00">boost/chrono/io/time</text>
<text text-anchor="middle" x="1008" y="-130.5" font-family="Helvetica,sans-Serif" font-size="10.00">_point_io.hpp</text>
</g>
<!-- Node25&#45;&gt;Node28 -->
<g id="edge45" class="edge"><title>Node25&#45;&gt;Node28</title>
<path fill="none" stroke="midnightblue" d="M843.509,-190.475C871.943,-181.664 917.104,-167.668 952.918,-156.57"/>
<polygon fill="midnightblue" stroke="midnightblue" points="954.234,-159.826 962.749,-153.523 952.161,-153.14 954.234,-159.826"/>
</g>
<!-- Node29 -->
<g id="node29" class="node"><title>Node29</title>
<g id="a_node29"><a xlink:href="multibuf_8hpp.html" target="_top" xlink:title="multibuf.hpp">
<polygon fill="none" stroke="black" points="799,-129 799,-148 869,-148 869,-129 799,-129"/>
<text text-anchor="middle" x="834" y="-136" font-family="Helvetica,sans-Serif" font-size="10.00">multibuf.hpp</text>
</a>
</g>
</g>
<!-- Node25&#45;&gt;Node29 -->
<g id="edge46" class="edge"><title>Node25&#45;&gt;Node29</title>
<path fill="none" stroke="midnightblue" d="M818.579,-190.475C821.145,-181.992 825.165,-168.704 828.457,-157.822"/>
<polygon fill="midnightblue" stroke="midnightblue" points="831.88,-158.594 831.426,-148.009 825.18,-156.567 831.88,-158.594"/>
</g>
<!-- Node29&#45;&gt;Node11 -->
<g id="edge49" class="edge"><title>Node29&#45;&gt;Node11</title>
<path fill="none" stroke="midnightblue" d="M810.963,-128.886C804.281,-126.667 796.92,-124.489 790,-123 641.443,-91.039 596.39,-127.751 450,-87 448.068,-86.4622 446.107,-85.8142 444.158,-85.0944"/>
<polygon fill="midnightblue" stroke="midnightblue" points="445.274,-81.7658 434.701,-81.0747 442.535,-88.2079 445.274,-81.7658"/>
</g>
<!-- Node29&#45;&gt;Node13 -->
<g id="edge50" class="edge"><title>Node29&#45;&gt;Node13</title>
<path fill="none" stroke="midnightblue" d="M860.721,-128.856C881.059,-120.981 908.31,-107.429 925,-87 938.372,-70.6325 944.331,-46.7393 946.963,-30.1285"/>
<polygon fill="midnightblue" stroke="midnightblue" points="950.464,-30.3463 948.303,-19.9742 943.525,-29.4301 950.464,-30.3463"/>
</g>
<!-- Node29&#45;&gt;Node27 -->
<g id="edge47" class="edge"><title>Node29&#45;&gt;Node27</title>
<path fill="none" stroke="midnightblue" d="M858.542,-128.959C864.848,-126.889 871.646,-124.767 878,-123 947.39,-103.708 967.269,-108.522 1036,-87 1038.28,-86.2865 1040.62,-85.4926 1042.95,-84.6544"/>
<polygon fill="midnightblue" stroke="midnightblue" points="1044.3,-87.8853 1052.4,-81.0506 1041.81,-81.3451 1044.3,-87.8853"/>
</g>
<!-- Node30 -->
<g id="node30" class="node"><title>Node30</title>
<polygon fill="none" stroke="#bfbfbf" points="977,-62 977,-81 1027,-81 1027,-62 977,-62"/>
<text text-anchor="middle" x="1002" y="-69" font-family="Helvetica,sans-Serif" font-size="10.00">fstream</text>
</g>
<!-- Node29&#45;&gt;Node30 -->
<g id="edge48" class="edge"><title>Node29&#45;&gt;Node30</title>
<path fill="none" stroke="midnightblue" d="M856.309,-128.869C885.51,-117.571 936.878,-97.6961 970.162,-84.8183"/>
<polygon fill="midnightblue" stroke="midnightblue" points="971.803,-87.9363 979.866,-81.0637 969.277,-81.4079 971.803,-87.9363"/>
</g>
<!-- Node31&#45;&gt;Node2 -->
<g id="edge69" class="edge"><title>Node31&#45;&gt;Node2</title>
<path fill="none" stroke="midnightblue" d="M674.89,-358.444C621.894,-348.609 535.198,-332.521 480.443,-322.36"/>
<polygon fill="midnightblue" stroke="midnightblue" points="480.742,-318.856 470.271,-320.473 479.465,-325.739 480.742,-318.856"/>
</g>
<!-- Node31&#45;&gt;Node8 -->
<g id="edge58" class="edge"><title>Node31&#45;&gt;Node8</title>
<path fill="none" stroke="midnightblue" d="M719.141,-358.333C711.764,-325.322 682.184,-205.185 626,-123 616.672,-109.356 602.993,-96.7758 591.611,-87.5846"/>
<polygon fill="midnightblue" stroke="midnightblue" points="593.508,-84.6267 583.464,-81.255 589.213,-90.1543 593.508,-84.6267"/>
</g>
<!-- Node31&#45;&gt;Node10 -->
<g id="edge54" class="edge"><title>Node31&#45;&gt;Node10</title>
<path fill="none" stroke="midnightblue" d="M670.301,-364.618C506.186,-356.241 0,-324.901 0,-257 0,-257 0,-257 0,-199 0,-122.807 104.282,-90.8503 163.362,-78.8594"/>
<polygon fill="midnightblue" stroke="midnightblue" points="164.324,-82.2384 173.482,-76.9103 163.001,-75.3647 164.324,-82.2384"/>
</g>
<!-- Node31&#45;&gt;Node12 -->
<g id="edge60" class="edge"><title>Node31&#45;&gt;Node12</title>
<path fill="none" stroke="midnightblue" d="M721.95,-358.36C725.6,-325.138 738.785,-205.16 743.926,-158.371"/>
<polygon fill="midnightblue" stroke="midnightblue" points="747.436,-158.472 745.05,-148.149 740.478,-157.707 747.436,-158.472"/>
</g>
<!-- Node31&#45;&gt;Node13 -->
<g id="edge55" class="edge"><title>Node31&#45;&gt;Node13</title>
<path fill="none" stroke="midnightblue" d="M771.684,-367.712C909.533,-368.297 1281,-360.291 1281,-257 1281,-257 1281,-257 1281,-137.5 1281,-98.0789 1277.2,-80.1002 1246,-56 1204.85,-24.2131 1047.62,-14.643 980.101,-11.965"/>
<polygon fill="midnightblue" stroke="midnightblue" points="979.818,-8.45217 969.695,-11.5792 979.558,-15.4474 979.818,-8.45217"/>
</g>
<!-- Node31&#45;&gt;Node16 -->
<g id="edge59" class="edge"><title>Node31&#45;&gt;Node16</title>
<path fill="none" stroke="midnightblue" d="M698.166,-358.368C646.743,-338.93 521.73,-291.674 462.348,-269.228"/>
<polygon fill="midnightblue" stroke="midnightblue" points="463.32,-265.853 452.728,-265.591 460.845,-272.401 463.32,-265.853"/>
</g>
<!-- Node31&#45;&gt;Node21 -->
<g id="edge56" class="edge"><title>Node31&#45;&gt;Node21</title>
<path fill="none" stroke="midnightblue" d="M771.526,-366.983C902.528,-365.585 1243,-352.741 1243,-257 1243,-257 1243,-257 1243,-199 1243,-156.342 1215.41,-112.353 1198.29,-89.1597"/>
<polygon fill="midnightblue" stroke="midnightblue" points="1200.96,-86.8967 1192.11,-81.0748 1195.4,-91.1461 1200.96,-86.8967"/>
</g>
<!-- Node31&#45;&gt;Node25 -->
<g id="edge61" class="edge"><title>Node31&#45;&gt;Node25</title>
<path fill="none" stroke="midnightblue" d="M724.156,-358.389C731.82,-337.989 752.658,-285.472 778,-246 784.546,-235.804 793.174,-225.405 800.554,-217.176"/>
<polygon fill="midnightblue" stroke="midnightblue" points="803.189,-219.482 807.395,-209.758 798.043,-214.736 803.189,-219.482"/>
</g>
<!-- Node32 -->
<g id="node32" class="node"><title>Node32</title>
<polygon fill="none" stroke="#bfbfbf" points="787,-246.5 787,-265.5 849,-265.5 849,-246.5 787,-246.5"/>
<text text-anchor="middle" x="818" y="-253.5" font-family="Helvetica,sans-Serif" font-size="10.00">type_traits</text>
</g>
<!-- Node31&#45;&gt;Node32 -->
<g id="edge57" class="edge"><title>Node31&#45;&gt;Node32</title>
<path fill="none" stroke="midnightblue" d="M732.487,-358.437C743.545,-349.889 760.4,-336.038 773,-322 786.279,-307.206 798.938,-288.344 807.426,-274.754"/>
<polygon fill="midnightblue" stroke="midnightblue" points="810.594,-276.282 812.82,-265.924 804.621,-272.633 810.594,-276.282"/>
</g>
<!-- Node33 -->
<g id="node33" class="node"><title>Node33</title>
<g id="a_node33"><a xlink:href="string__functions_8hpp.html" target="_top" xlink:title="string/string_functions.hpp">
<polygon fill="none" stroke="black" points="867.5,-302.5 867.5,-321.5 998.5,-321.5 998.5,-302.5 867.5,-302.5"/>
<text text-anchor="middle" x="933" y="-309.5" font-family="Helvetica,sans-Serif" font-size="10.00">string/string_functions.hpp</text>
</a>
</g>
</g>
<!-- Node31&#45;&gt;Node33 -->
<g id="edge62" class="edge"><title>Node31&#45;&gt;Node33</title>
<path fill="none" stroke="midnightblue" d="M754.592,-358.444C791.187,-349.122 849.838,-334.183 889.826,-323.997"/>
<polygon fill="midnightblue" stroke="midnightblue" points="890.739,-327.377 899.565,-321.516 889.011,-320.593 890.739,-327.377"/>
</g>
<!-- Node33&#45;&gt;Node13 -->
<g id="edge67" class="edge"><title>Node33&#45;&gt;Node13</title>
<path fill="none" stroke="midnightblue" d="M998.798,-302.833C1029.79,-296.546 1066,-285.469 1094,-266 1184.12,-203.332 1295.08,-139.652 1224,-56 1192.92,-19.4181 1044.77,-12.5107 979.73,-11.2538"/>
<polygon fill="midnightblue" stroke="midnightblue" points="979.731,-7.75346 969.676,-11.0923 979.618,-14.7526 979.731,-7.75346"/>
</g>
<!-- Node33&#45;&gt;Node18 -->
<g id="edge66" class="edge"><title>Node33&#45;&gt;Node18</title>
<path fill="none" stroke="midnightblue" d="M925.689,-302.261C913.306,-288.074 886.735,-260.192 858,-246 676.531,-156.372 594.149,-242.236 412,-154 403.019,-149.649 358.022,-110.508 332.588,-88.0897"/>
<polygon fill="midnightblue" stroke="midnightblue" points="334.604,-85.2008 324.793,-81.2027 329.97,-90.4467 334.604,-85.2008"/>
</g>
<!-- Node33&#45;&gt;Node32 -->
<g id="edge68" class="edge"><title>Node33&#45;&gt;Node32</title>
<path fill="none" stroke="midnightblue" d="M914.778,-302.444C896.104,-293.675 866.844,-279.935 845.383,-269.858"/>
<polygon fill="midnightblue" stroke="midnightblue" points="846.676,-266.599 836.137,-265.516 843.701,-272.935 846.676,-266.599"/>
</g>
<!-- Node34 -->
<g id="node34" class="node"><title>Node34</title>
<polygon fill="none" stroke="#bfbfbf" points="905,-246.5 905,-265.5 961,-265.5 961,-246.5 905,-246.5"/>
<text text-anchor="middle" x="933" y="-253.5" font-family="Helvetica,sans-Serif" font-size="10.00">algorithm</text>
</g>
<!-- Node33&#45;&gt;Node34 -->
<g id="edge63" class="edge"><title>Node33&#45;&gt;Node34</title>
<path fill="none" stroke="midnightblue" d="M933,-302.083C933,-295.006 933,-284.861 933,-275.986"/>
<polygon fill="midnightblue" stroke="midnightblue" points="936.5,-275.751 933,-265.751 929.5,-275.751 936.5,-275.751"/>
</g>
<!-- Node35 -->
<g id="node35" class="node"><title>Node35</title>
<polygon fill="none" stroke="#bfbfbf" points="979.5,-246.5 979.5,-265.5 1026.5,-265.5 1026.5,-246.5 979.5,-246.5"/>
<text text-anchor="middle" x="1003" y="-253.5" font-family="Helvetica,sans-Serif" font-size="10.00">iterator</text>
</g>
<!-- Node33&#45;&gt;Node35 -->
<g id="edge64" class="edge"><title>Node33&#45;&gt;Node35</title>
<path fill="none" stroke="midnightblue" d="M944.247,-302.324C954.797,-294.185 970.801,-281.839 983.442,-272.087"/>
<polygon fill="midnightblue" stroke="midnightblue" points="985.769,-274.713 991.549,-265.834 981.493,-269.171 985.769,-274.713"/>
</g>
<!-- Node36 -->
<g id="node36" class="node"><title>Node36</title>
<polygon fill="none" stroke="#bfbfbf" points="1044.5,-246.5 1044.5,-265.5 1085.5,-265.5 1085.5,-246.5 1044.5,-246.5"/>
<text text-anchor="middle" x="1065" y="-253.5" font-family="Helvetica,sans-Serif" font-size="10.00">regex</text>
</g>
<!-- Node33&#45;&gt;Node36 -->
<g id="edge65" class="edge"><title>Node33&#45;&gt;Node36</title>
<path fill="none" stroke="midnightblue" d="M953.916,-302.444C975.736,-293.517 1010.15,-279.439 1034.89,-269.317"/>
<polygon fill="midnightblue" stroke="midnightblue" points="1036.25,-272.542 1044.18,-265.516 1033.6,-266.063 1036.25,-272.542"/>
</g>
</g>
</svg>
        <g id="navigator" transform="translate(0 0)" fill="#404254">
                <rect fill="#f2f5e9" fill-opacity="0.5" stroke="#606060" stroke-width=".5" x="0" y="0" width="60" height="60"/>
                <use id="zoomplus" xlink:href="#zoomPlus" x="17" y="9" onmousedown="handleZoom(evt,'in')"/>
                <use id="zoomminus" xlink:href="#zoomMin" x="42" y="9" onmousedown="handleZoom(evt,'out')"/>
                <use id="reset" xlink:href="#resetDef" x="30" y="36" onmousedown="handleReset()"/>
                <g id="arrowUp" xlink:href="#dirArrow" transform="translate(30 24)" onmousedown="handlePan(0,-1)">
                  <use xlink:href="#rim" fill="#404040">
                        <set attributeName="fill" to="#808080" begin="arrowUp.mouseover" end="arrowUp.mouseout"/>
                  </use>
                  <path fill="none" stroke="white" stroke-width="1.5" d="M0,-3.0v7 M-2.5,-0.5L0,-3.0L2.5,-0.5"/>
                </g>
                <g id="arrowRight" xlink:href="#dirArrow" transform="rotate(90) translate(36 -43)" onmousedown="handlePan(1,0)">
                  <use xlink:href="#rim" fill="#404040">
                        <set attributeName="fill" to="#808080" begin="arrowRight.mouseover" end="arrowRight.mouseout"/>
                  </use>
                  <path fill="none" stroke="white" stroke-width="1.5" d="M0,-3.0v7 M-2.5,-0.5L0,-3.0L2.5,-0.5"/>
                </g>
                <g id="arrowDown" xlink:href="#dirArrow" transform="rotate(180) translate(-30 -48)" onmousedown="handlePan(0,1)">
                  <use xlink:href="#rim" fill="#404040">
                        <set attributeName="fill" to="#808080" begin="arrowDown.mouseover" end="arrowDown.mouseout"/>
                  </use>
                  <path fill="none" stroke="white" stroke-width="1.5" d="M0,-3.0v7 M-2.5,-0.5L0,-3.0L2.5,-0.5"/>
                </g>
                <g id="arrowLeft" xlink:href="#dirArrow" transform="rotate(270) translate(-36 17)" onmousedown="handlePan(-1,0)">
                  <use xlink:href="#rim" fill="#404040">
                        <set attributeName="fill" to="#808080" begin="arrowLeft.mouseover" end="arrowLeft.mouseout"/>
                  </use>
                  <path fill="none" stroke="white" stroke-width="1.5" d="M0,-3.0v7 M-2.5,-0.5L0,-3.0L2.5,-0.5"/>
                </g>
        </g>
        <svg viewBox="0 0 15 15" width="100%" height="30px" preserveAspectRatio="xMaxYMin meet">
         <g id="arrow_out" transform="scale(0.3 0.3)">
          <a xlink:href="melanobot_8cpp__incl_org.svg" target="_base">
           <rect id="button" ry="5" rx="5" y="6" x="6" height="38" width="38"
                fill="#f2f5e9" fill-opacity="0.5" stroke="#606060" stroke-width="1.0"/>
           <path id="arrow"
             d="M 11.500037,31.436501 C 11.940474,20.09759 22.043105,11.32322 32.158766,21.979434 L 37.068811,17.246167 C 37.068811,17.246167 37.088388,32 37.088388,32 L 22.160133,31.978069 C 22.160133,31.978069 26.997745,27.140456 26.997745,27.140456 C 18.528582,18.264221 13.291696,25.230495 11.500037,31.436501 z"
             style="fill:#404040;"/>
          </a>
         </g>
        </svg>
</svg>
