<?xml version="1.0" encoding="UTF-8" standalone="no"?>
<!DOCTYPE svg PUBLIC "-//W3C//DTD SVG 1.1//EN"
 "http://www.w3.org/Graphics/SVG/1.1/DTD/svg11.dtd">
<!-- Generated by graphviz version 2.38.0 (20140413.2041)
 -->
<!-- Title: src/melanomodule.hpp Pages: 1 -->
<svg width="890pt" height="84pt"
 viewBox="0.00 0.00 890.00 84.00" xmlns="http://www.w3.org/2000/svg" xmlns:xlink="http://www.w3.org/1999/xlink">
<g id="graph0" class="graph" transform="scale(1 1) rotate(0) translate(4 80)">
<title>src/melanomodule.hpp</title>
<!-- Node1 -->
<g id="node1" class="node"><title>Node1</title>
<polygon fill="#bfbfbf" stroke="black" points="357,-56.5 357,-75.5 472,-75.5 472,-56.5 357,-56.5"/>
<text text-anchor="middle" x="414.5" y="-63.5" font-family="Helvetica,sans-Serif" font-size="10.00">src/melanomodule.hpp</text>
</g>
<!-- Node2 -->
<g id="node2" class="node"><title>Node2</title>
<g id="a_node2"><a xlink:href="main_8cpp.html" target="_top" xlink:title="src/main.cpp">
<polygon fill="none" stroke="black" points="0,-0.5 0,-19.5 73,-19.5 73,-0.5 0,-0.5"/>
<text text-anchor="middle" x="36.5" y="-7.5" font-family="Helvetica,sans-Serif" font-size="10.00">src/main.cpp</text>
</a>
</g>
</g>
<!-- Node1&#45;&gt;Node2 -->
<g id="edge1" class="edge"><title>Node1&#45;&gt;Node2</title>
<path fill="none" stroke="midnightblue" d="M346.813,-57.1228C279.397,-48.9787 173.033,-35.3222 81.5,-20 78.8283,-19.5528 76.0725,-19.0656 73.3021,-18.5569"/>
<polygon fill="midnightblue" stroke="midnightblue" points="346.534,-60.6144 356.88,-58.3329 347.37,-53.6644 346.534,-60.6144"/>
</g>
<!-- Node3 -->
<g id="node3" class="node"><title>Node3</title>
<g id="a_node3"><a xlink:href="posix_8cpp.html" target="_top" xlink:title="modules/posix/posix.cpp">
<polygon fill="none" stroke="black" points="91,-0.5 91,-19.5 216,-19.5 216,-0.5 91,-0.5"/>
<text text-anchor="middle" x="153.5" y="-7.5" font-family="Helvetica,sans-Serif" font-size="10.00">modules/posix/posix.cpp</text>
</a>
</g>
</g>
<!-- Node1&#45;&gt;Node3 -->
<g id="edge2" class="edge"><title>Node1&#45;&gt;Node3</title>
<path fill="none" stroke="midnightblue" d="M363.313,-54.4096C313.987,-44.2042 240.305,-28.9597 194.663,-19.5164"/>
<polygon fill="midnightblue" stroke="midnightblue" points="362.642,-57.8448 373.144,-56.4435 364.06,-50.99 362.642,-57.8448"/>
</g>
<!-- Node4 -->
<g id="node4" class="node"><title>Node4</title>
<g id="a_node4"><a xlink:href="fun_8cpp.html" target="_top" xlink:title="modules/fun/fun.cpp">
<polygon fill="none" stroke="black" points="234,-0.5 234,-19.5 339,-19.5 339,-0.5 234,-0.5"/>
<text text-anchor="middle" x="286.5" y="-7.5" font-family="Helvetica,sans-Serif" font-size="10.00">modules/fun/fun.cpp</text>
</a>
</g>
</g>
<!-- Node1&#45;&gt;Node4 -->
<g id="edge3" class="edge"><title>Node1&#45;&gt;Node4</title>
<path fill="none" stroke="midnightblue" d="M384.877,-52.503C360.881,-42.3795 327.716,-28.388 306.687,-19.5164"/>
<polygon fill="midnightblue" stroke="midnightblue" points="383.644,-55.7813 394.218,-56.4435 386.365,-49.3317 383.644,-55.7813"/>
</g>
<!-- Node5 -->
<g id="node5" class="node"><title>Node5</title>
<g id="a_node5"><a xlink:href="web_8cpp.html" target="_top" xlink:title="modules/web/web.cpp">
<polygon fill="none" stroke="black" points="357.5,-0.5 357.5,-19.5 471.5,-19.5 471.5,-0.5 357.5,-0.5"/>
<text text-anchor="middle" x="414.5" y="-7.5" font-family="Helvetica,sans-Serif" font-size="10.00">modules/web/web.cpp</text>
</a>
</g>
</g>
<!-- Node1&#45;&gt;Node5 -->
<g id="edge4" class="edge"><title>Node1&#45;&gt;Node5</title>
<path fill="none" stroke="midnightblue" d="M414.5,-45.8045C414.5,-36.9102 414.5,-26.7798 414.5,-19.7511"/>
<polygon fill="midnightblue" stroke="midnightblue" points="411,-46.083 414.5,-56.083 418,-46.083 411,-46.083"/>
</g>
<!-- Node6 -->
<g id="node6" class="node"><title>Node6</title>
<g id="a_node6"><a xlink:href="core_8cpp.html" target="_top" xlink:title="modules/core/core.cpp">
<polygon fill="none" stroke="black" points="489.5,-0.5 489.5,-19.5 605.5,-19.5 605.5,-0.5 489.5,-0.5"/>
<text text-anchor="middle" x="547.5" y="-7.5" font-family="Helvetica,sans-Serif" font-size="10.00">modules/core/core.cpp</text>
</a>
</g>
</g>
<!-- Node1&#45;&gt;Node6 -->
<g id="edge5" class="edge"><title>Node1&#45;&gt;Node6</title>
<path fill="none" stroke="midnightblue" d="M444.948,-52.6377C469.907,-42.504 504.577,-28.4274 526.524,-19.5164"/>
<polygon fill="midnightblue" stroke="midnightblue" points="443.523,-49.4387 435.574,-56.4435 446.156,-55.9245 443.523,-49.4387"/>
</g>
<!-- Node7 -->
<g id="node7" class="node"><title>Node7</title>
<g id="a_node7"><a xlink:href="irc_8cpp.html" target="_top" xlink:title="modules/irc/irc.cpp">
<polygon fill="none" stroke="black" points="624,-0.5 624,-19.5 723,-19.5 723,-0.5 624,-0.5"/>
<text text-anchor="middle" x="673.5" y="-7.5" font-family="Helvetica,sans-Serif" font-size="10.00">modules/irc/irc.cpp</text>
</a>
</g>
</g>
<!-- Node1&#45;&gt;Node7 -->
<g id="edge6" class="edge"><title>Node1&#45;&gt;Node7</title>
<path fill="none" stroke="midnightblue" d="M465.602,-54.3456C514.548,-44.1405 587.454,-28.94 632.653,-19.5164"/>
<polygon fill="midnightblue" stroke="midnightblue" points="464.614,-50.9761 455.539,-56.4435 466.043,-57.8287 464.614,-50.9761"/>
</g>
<!-- Node8 -->
<g id="node8" class="node"><title>Node8</title>
<g id="a_node8"><a xlink:href="xonotic_8cpp.html" target="_top" xlink:title="modules/xonotic/xonotic.cpp">
<polygon fill="none" stroke="black" points="741,-0.5 741,-19.5 882,-19.5 882,-0.5 741,-0.5"/>
<text text-anchor="middle" x="811.5" y="-7.5" font-family="Helvetica,sans-Serif" font-size="10.00">modules/xonotic/xonotic.cpp</text>
</a>
</g>
</g>
<!-- Node1&#45;&gt;Node8 -->
<g id="edge7" class="edge"><title>Node1&#45;&gt;Node8</title>
<path fill="none" stroke="midnightblue" d="M482.467,-55.7552C557.184,-45.5921 676.228,-29.3997 748.787,-19.5303"/>
<polygon fill="midnightblue" stroke="midnightblue" points="481.664,-52.332 472.227,-57.1479 482.608,-59.2681 481.664,-52.332"/>
</g>
</g>
</svg>
