<?xml version="1.0" encoding="UTF-8" standalone="no"?>
<!DOCTYPE svg PUBLIC "-//W3C//DTD SVG 1.1//EN"
 "http://www.w3.org/Graphics/SVG/1.1/DTD/svg11.dtd">
<!-- Generated by graphviz version 2.38.0 (20140413.2041)
 -->
<!-- Title: src/melanobot.hpp Pages: 1 -->
<svg width="1434pt" height="330pt"
 viewBox="0.00 0.00 1433.50 330.00" xmlns="http://www.w3.org/2000/svg" xmlns:xlink="http://www.w3.org/1999/xlink">
<g id="graph0" class="graph" transform="scale(1 1) rotate(0) translate(4 326)">
<title>src/melanobot.hpp</title>
<!-- Node1 -->
<g id="node1" class="node"><title>Node1</title>
<polygon fill="#bfbfbf" stroke="black" points="731,-302.5 731,-321.5 828,-321.5 828,-302.5 731,-302.5"/>
<text text-anchor="middle" x="779.5" y="-309.5" font-family="Helvetica,sans-Serif" font-size="10.00">src/melanobot.hpp</text>
</g>
<!-- Node2 -->
<g id="node2" class="node"><title>Node2</title>
<polygon fill="none" stroke="#bfbfbf" points="285.5,-190.5 285.5,-209.5 331.5,-209.5 331.5,-190.5 285.5,-190.5"/>
<text text-anchor="middle" x="308.5" y="-197.5" font-family="Helvetica,sans-Serif" font-size="10.00">atomic</text>
</g>
<!-- Node1&#45;&gt;Node2 -->
<g id="edge1" class="edge"><title>Node1&#45;&gt;Node2</title>
<path fill="none" stroke="midnightblue" d="M739.395,-302.449C663.657,-286.154 494.226,-249.006 341.566,-210.181"/>
<polygon fill="midnightblue" stroke="midnightblue" points="342.091,-206.703 331.536,-207.622 340.36,-213.486 342.091,-206.703"/>
</g>
<!-- Node3 -->
<g id="node3" class="node"><title>Node3</title>
<polygon fill="none" stroke="#bfbfbf" points="0,-190.5 0,-209.5 95,-209.5 95,-190.5 0,-190.5"/>
<text text-anchor="middle" x="47.5" y="-197.5" font-family="Helvetica,sans-Serif" font-size="10.00">condition_variable</text>
</g>
<!-- Node1&#45;&gt;Node3 -->
<g id="edge2" class="edge"><title>Node1&#45;&gt;Node3</title>
<path fill="none" stroke="midnightblue" d="M730.75,-311.057C600.262,-310.663 245.549,-305.847 136.5,-266 107.465,-255.39 79.6303,-232.283 63.0452,-216.679"/>
<polygon fill="midnightblue" stroke="midnightblue" points="65.4686,-214.154 55.8511,-209.709 60.5977,-219.181 65.4686,-214.154"/>
</g>
<!-- Node4 -->
<g id="node4" class="node"><title>Node4</title>
<polygon fill="none" stroke="#bfbfbf" points="1049.5,-129 1049.5,-148 1093.5,-148 1093.5,-129 1049.5,-129"/>
<text text-anchor="middle" x="1071.5" y="-136" font-family="Helvetica,sans-Serif" font-size="10.00">mutex</text>
</g>
<!-- Node1&#45;&gt;Node4 -->
<g id="edge3" class="edge"><title>Node1&#45;&gt;Node4</title>
<path fill="none" stroke="midnightblue" d="M793.98,-302.495C841.072,-274.837 990.169,-187.268 1048.13,-153.224"/>
<polygon fill="midnightblue" stroke="midnightblue" points="1050.08,-156.138 1056.93,-148.056 1046.54,-150.103 1050.08,-156.138"/>
</g>
<!-- Node5 -->
<g id="node5" class="node"><title>Node5</title>
<polygon fill="none" stroke="#bfbfbf" points="113,-190.5 113,-209.5 156,-209.5 156,-190.5 113,-190.5"/>
<text text-anchor="middle" x="134.5" y="-197.5" font-family="Helvetica,sans-Serif" font-size="10.00">queue</text>
</g>
<!-- Node1&#45;&gt;Node5 -->
<g id="edge4" class="edge"><title>Node1&#45;&gt;Node5</title>
<path fill="none" stroke="midnightblue" d="M730.835,-310.684C591.284,-309.343 196.882,-302.343 152.5,-266 139.072,-255.004 135.159,-234.952 134.245,-220.016"/>
<polygon fill="midnightblue" stroke="midnightblue" points="137.74,-219.748 134.022,-209.827 130.741,-219.901 137.74,-219.748"/>
</g>
<!-- Node6 -->
<g id="node6" class="node"><title>Node6</title>
<polygon fill="none" stroke="#bfbfbf" points="1381.5,-246.5 1381.5,-265.5 1425.5,-265.5 1425.5,-246.5 1381.5,-246.5"/>
<text text-anchor="middle" x="1403.5" y="-253.5" font-family="Helvetica,sans-Serif" font-size="10.00">thread</text>
</g>
<!-- Node1&#45;&gt;Node6 -->
<g id="edge5" class="edge"><title>Node1&#45;&gt;Node6</title>
<path fill="none" stroke="midnightblue" d="M828.229,-310.044C929.363,-307.451 1169.16,-298.146 1367.5,-266 1368.75,-265.797 1370.02,-265.572 1371.31,-265.33"/>
<polygon fill="midnightblue" stroke="midnightblue" points="1372.12,-268.736 1381.15,-263.207 1370.64,-261.893 1372.12,-268.736"/>
</g>
<!-- Node7 -->
<g id="node7" class="node"><title>Node7</title>
<polygon fill="none" stroke="#bfbfbf" points="819,-6 819,-25 902,-25 902,-6 819,-6"/>
<text text-anchor="middle" x="860.5" y="-13" font-family="Helvetica,sans-Serif" font-size="10.00">unordered_map</text>
</g>
<!-- Node1&#45;&gt;Node7 -->
<g id="edge6" class="edge"><title>Node1&#45;&gt;Node7</title>
<path fill="none" stroke="midnightblue" d="M828.439,-306.781C967.248,-294.164 1353.5,-254.27 1353.5,-201 1353.5,-201 1353.5,-201 1353.5,-137.5 1353.5,-97.2066 1331.84,-86.3631 1296.5,-67 1233.55,-32.5057 1046.78,-39.4899 975.5,-31 954.74,-28.5273 931.891,-25.6735 912.066,-23.1552"/>
<polygon fill="midnightblue" stroke="midnightblue" points="912.364,-19.6649 902.002,-21.8726 911.479,-26.6088 912.364,-19.6649"/>
</g>
<!-- Node8 -->
<g id="node8" class="node"><title>Node8</title>
<g id="a_node8"><a xlink:href="concurrent__container_8hpp.html" target="_top" xlink:title="concurrent_container.hpp">
<polygon fill="none" stroke="black" points="161.5,-246.5 161.5,-265.5 287.5,-265.5 287.5,-246.5 161.5,-246.5"/>
<text text-anchor="middle" x="224.5" y="-253.5" font-family="Helvetica,sans-Serif" font-size="10.00">concurrent_container.hpp</text>
</a>
</g>
</g>
<!-- Node1&#45;&gt;Node8 -->
<g id="edge7" class="edge"><title>Node1&#45;&gt;Node8</title>
<path fill="none" stroke="midnightblue" d="M730.734,-306.255C633.036,-296.749 412.848,-275.326 297.739,-264.126"/>
<polygon fill="midnightblue" stroke="midnightblue" points="297.902,-260.625 287.61,-263.14 297.224,-267.592 297.902,-260.625"/>
</g>
<!-- Node11 -->
<g id="node11" class="node"><title>Node11</title>
<g id="a_node11"><a xlink:href="settings_8hpp.html" target="_top" xlink:title="settings.hpp">
<polygon fill="none" stroke="black" points="1217.5,-67.5 1217.5,-86.5 1287.5,-86.5 1287.5,-67.5 1217.5,-67.5"/>
<text text-anchor="middle" x="1252.5" y="-74.5" font-family="Helvetica,sans-Serif" font-size="10.00">settings.hpp</text>
</a>
</g>
</g>
<!-- Node1&#45;&gt;Node11 -->
<g id="edge13" class="edge"><title>Node1&#45;&gt;Node11</title>
<path fill="none" stroke="midnightblue" d="M800.899,-302.429C822.946,-293.536 858.262,-279.12 888.5,-266 998.705,-218.182 1029.06,-211.564 1134.5,-154 1170,-134.621 1209.06,-108.426 1232.15,-92.3974"/>
<polygon fill="midnightblue" stroke="midnightblue" points="1234.27,-95.1901 1240.46,-86.5917 1230.26,-89.4532 1234.27,-95.1901"/>
</g>
<!-- Node15 -->
<g id="node15" class="node"><title>Node15</title>
<g id="a_node15"><a xlink:href="connection_8hpp.html" target="_top" xlink:title="network/connection.hpp">
<polygon fill="none" stroke="black" points="719.5,-246.5 719.5,-265.5 839.5,-265.5 839.5,-246.5 719.5,-246.5"/>
<text text-anchor="middle" x="779.5" y="-253.5" font-family="Helvetica,sans-Serif" font-size="10.00">network/connection.hpp</text>
</a>
</g>
</g>
<!-- Node1&#45;&gt;Node15 -->
<g id="edge18" class="edge"><title>Node1&#45;&gt;Node15</title>
<path fill="none" stroke="midnightblue" d="M779.5,-302.083C779.5,-295.006 779.5,-284.861 779.5,-275.986"/>
<polygon fill="midnightblue" stroke="midnightblue" points="783,-275.751 779.5,-265.751 776,-275.751 783,-275.751"/>
</g>
<!-- Node8&#45;&gt;Node2 -->
<g id="edge8" class="edge"><title>Node8&#45;&gt;Node2</title>
<path fill="none" stroke="midnightblue" d="M237.996,-246.324C251.1,-237.9 271.212,-224.971 286.607,-215.074"/>
<polygon fill="midnightblue" stroke="midnightblue" points="288.518,-218.006 295.037,-209.655 284.733,-212.118 288.518,-218.006"/>
</g>
<!-- Node8&#45;&gt;Node3 -->
<g id="edge9" class="edge"><title>Node8&#45;&gt;Node3</title>
<path fill="none" stroke="midnightblue" d="M196.454,-246.444C166.418,-237.28 118.587,-222.688 85.2573,-212.519"/>
<polygon fill="midnightblue" stroke="midnightblue" points="86.0011,-209.087 75.415,-209.516 83.9584,-215.782 86.0011,-209.087"/>
</g>
<!-- Node8&#45;&gt;Node5 -->
<g id="edge11" class="edge"><title>Node8&#45;&gt;Node5</title>
<path fill="none" stroke="midnightblue" d="M210.04,-246.324C196,-237.9 174.452,-224.971 157.957,-215.074"/>
<polygon fill="midnightblue" stroke="midnightblue" points="159.3,-211.798 148.924,-209.655 155.698,-217.801 159.3,-211.798"/>
</g>
<!-- Node9 -->
<g id="node9" class="node"><title>Node9</title>
<polygon fill="none" stroke="#bfbfbf" points="366,-67.5 366,-86.5 425,-86.5 425,-67.5 366,-67.5"/>
<text text-anchor="middle" x="395.5" y="-74.5" font-family="Helvetica,sans-Serif" font-size="10.00">functional</text>
</g>
<!-- Node8&#45;&gt;Node9 -->
<g id="edge10" class="edge"><title>Node8&#45;&gt;Node9</title>
<path fill="none" stroke="midnightblue" d="M222.714,-246.339C218.488,-223.222 210.422,-159.356 241.5,-123 249.082,-114.13 312.719,-97.5922 355.78,-87.2245"/>
<polygon fill="midnightblue" stroke="midnightblue" points="356.786,-90.5828 365.7,-84.8571 355.161,-83.774 356.786,-90.5828"/>
</g>
<!-- Node10 -->
<g id="node10" class="node"><title>Node10</title>
<polygon fill="none" stroke="#bfbfbf" points="298.5,-6 298.5,-25 342.5,-25 342.5,-6 298.5,-6"/>
<text text-anchor="middle" x="320.5" y="-13" font-family="Helvetica,sans-Serif" font-size="10.00">vector</text>
</g>
<!-- Node8&#45;&gt;Node10 -->
<g id="edge12" class="edge"><title>Node8&#45;&gt;Node10</title>
<path fill="none" stroke="midnightblue" d="M221.913,-246.482C215.804,-224.748 202.377,-165.924 221.5,-123 238.976,-83.7738 276.94,-49.6537 300.447,-31.174"/>
<polygon fill="midnightblue" stroke="midnightblue" points="302.577,-33.9513 308.389,-25.0928 298.321,-28.3935 302.577,-33.9513"/>
</g>
<!-- Node11&#45;&gt;Node7 -->
<g id="edge16" class="edge"><title>Node11&#45;&gt;Node7</title>
<path fill="none" stroke="midnightblue" d="M1217.47,-68.6452C1214.44,-68.0666 1211.42,-67.5098 1208.5,-67 1103.68,-48.6894 980.269,-31.9021 912.178,-23.0523"/>
<polygon fill="midnightblue" stroke="midnightblue" points="912.505,-19.5656 902.139,-21.753 911.607,-26.5077 912.505,-19.5656"/>
</g>
<!-- Node12 -->
<g id="node12" class="node"><title>Node12</title>
<polygon fill="none" stroke="#bfbfbf" points="723,-6 723,-25 764,-25 764,-6 723,-6"/>
<text text-anchor="middle" x="743.5" y="-13" font-family="Helvetica,sans-Serif" font-size="10.00">string</text>
</g>
<!-- Node11&#45;&gt;Node12 -->
<g id="edge14" class="edge"><title>Node11&#45;&gt;Node12</title>
<path fill="none" stroke="midnightblue" d="M1217.5,-68.473C1214.46,-67.9318 1211.43,-67.4307 1208.5,-67 1032.34,-41.1189 985.47,-58.1574 809.5,-31 797.902,-29.2101 785.291,-26.6051 774.229,-24.0952"/>
<polygon fill="midnightblue" stroke="midnightblue" points="774.715,-20.6148 764.181,-21.7478 773.123,-27.4312 774.715,-20.6148"/>
</g>
<!-- Node13 -->
<g id="node13" class="node"><title>Node13</title>
<polygon fill="none" stroke="#bfbfbf" points="1121.5,-6 1121.5,-25 1167.5,-25 1167.5,-6 1121.5,-6"/>
<text text-anchor="middle" x="1144.5" y="-13" font-family="Helvetica,sans-Serif" font-size="10.00">cstdint</text>
</g>
<!-- Node11&#45;&gt;Node13 -->
<g id="edge15" class="edge"><title>Node11&#45;&gt;Node13</title>
<path fill="none" stroke="midnightblue" d="M1237.03,-67.4751C1219.22,-57.6664 1189.76,-41.4346 1168.87,-29.925"/>
<polygon fill="midnightblue" stroke="midnightblue" points="1170.39,-26.769 1159.95,-25.0091 1167.01,-32.9001 1170.39,-26.769"/>
</g>
<!-- Node14 -->
<g id="node14" class="node"><title>Node14</title>
<polygon fill="none" stroke="#bfbfbf" points="1202,-0.5 1202,-30.5 1303,-30.5 1303,-0.5 1202,-0.5"/>
<text text-anchor="start" x="1210" y="-18.5" font-family="Helvetica,sans-Serif" font-size="10.00">boost/property_tree</text>
<text text-anchor="middle" x="1252.5" y="-7.5" font-family="Helvetica,sans-Serif" font-size="10.00">/ptree.hpp</text>
</g>
<!-- Node11&#45;&gt;Node14 -->
<g id="edge17" class="edge"><title>Node11&#45;&gt;Node14</title>
<path fill="none" stroke="midnightblue" d="M1252.5,-67.4751C1252.5,-60.471 1252.5,-50.1919 1252.5,-40.6956"/>
<polygon fill="midnightblue" stroke="midnightblue" points="1256,-40.5229 1252.5,-30.523 1249,-40.523 1256,-40.5229"/>
</g>
<!-- Node15&#45;&gt;Node2 -->
<g id="edge19" class="edge"><title>Node15&#45;&gt;Node2</title>
<path fill="none" stroke="midnightblue" d="M719.382,-252.117C636.367,-247.413 481.922,-236.058 341.866,-209.96"/>
<polygon fill="midnightblue" stroke="midnightblue" points="342.285,-206.477 331.808,-208.056 340.982,-213.355 342.285,-206.477"/>
</g>
<!-- Node15&#45;&gt;Node13 -->
<g id="edge21" class="edge"><title>Node15&#45;&gt;Node13</title>
<path fill="none" stroke="midnightblue" d="M839.636,-247.935C889.411,-241.125 961.577,-229.014 1022.5,-210 1149.92,-170.23 1223.97,-199.061 1296.5,-87 1301.33,-79.5377 1301.7,-74.2085 1296.5,-67 1294.68,-64.483 1221.43,-40.9013 1177.29,-26.8698"/>
<polygon fill="midnightblue" stroke="midnightblue" points="1178.15,-23.4688 1167.56,-23.7792 1176.03,-30.1407 1178.15,-23.4688"/>
</g>
<!-- Node16 -->
<g id="node16" class="node"><title>Node16</title>
<polygon fill="none" stroke="#bfbfbf" points="713.5,-190.5 713.5,-209.5 759.5,-209.5 759.5,-190.5 713.5,-190.5"/>
<text text-anchor="middle" x="736.5" y="-197.5" font-family="Helvetica,sans-Serif" font-size="10.00">chrono</text>
</g>
<!-- Node15&#45;&gt;Node16 -->
<g id="edge20" class="edge"><title>Node15&#45;&gt;Node16</title>
<path fill="none" stroke="midnightblue" d="M772.399,-246.083C766.263,-238.377 757.23,-227.033 749.761,-217.653"/>
<polygon fill="midnightblue" stroke="midnightblue" points="752.436,-215.394 743.468,-209.751 746.96,-219.754 752.436,-215.394"/>
</g>
<!-- Node17 -->
<g id="node17" class="node"><title>Node17</title>
<polygon fill="none" stroke="#bfbfbf" points="1147.5,-67.5 1147.5,-86.5 1199.5,-86.5 1199.5,-67.5 1147.5,-67.5"/>
<text text-anchor="middle" x="1173.5" y="-74.5" font-family="Helvetica,sans-Serif" font-size="10.00">sstream</text>
</g>
<!-- Node15&#45;&gt;Node17 -->
<g id="edge22" class="edge"><title>Node15&#45;&gt;Node17</title>
<path fill="none" stroke="midnightblue" d="M835.736,-246.461C903.25,-234.256 1017.94,-207.16 1102.5,-154 1127.14,-138.513 1148.89,-112.406 1161.63,-95.1881"/>
<polygon fill="midnightblue" stroke="midnightblue" points="1164.76,-96.8279 1167.74,-86.6607 1159.07,-92.7507 1164.76,-96.8279"/>
</g>
<!-- Node18 -->
<g id="node18" class="node"><title>Node18</title>
<g id="a_node18"><a xlink:href="string_8hpp.html" target="_top" xlink:title="string/string.hpp">
<polygon fill="none" stroke="black" points="907.5,-129 907.5,-148 993.5,-148 993.5,-129 907.5,-129"/>
<text text-anchor="middle" x="950.5" y="-136" font-family="Helvetica,sans-Serif" font-size="10.00">string/string.hpp</text>
</a>
</g>
</g>
<!-- Node15&#45;&gt;Node18 -->
<g id="edge23" class="edge"><title>Node15&#45;&gt;Node18</title>
<path fill="none" stroke="midnightblue" d="M803.096,-246.378C823.236,-238.462 852.504,-225.611 875.5,-210 898.703,-194.248 921.644,-171.314 935.924,-155.924"/>
<polygon fill="midnightblue" stroke="midnightblue" points="938.771,-157.995 942.912,-148.243 933.593,-153.284 938.771,-157.995"/>
</g>
<!-- Node24 -->
<g id="node24" class="node"><title>Node24</title>
<g id="a_node24"><a xlink:href="logger_8hpp.html" target="_top" xlink:title="string/logger.hpp">
<polygon fill="none" stroke="black" points="778,-190.5 778,-209.5 867,-209.5 867,-190.5 778,-190.5"/>
<text text-anchor="middle" x="822.5" y="-197.5" font-family="Helvetica,sans-Serif" font-size="10.00">string/logger.hpp</text>
</a>
</g>
</g>
<!-- Node15&#45;&gt;Node24 -->
<g id="edge37" class="edge"><title>Node15&#45;&gt;Node24</title>
<path fill="none" stroke="midnightblue" d="M786.601,-246.083C792.737,-238.377 801.77,-227.033 809.239,-217.653"/>
<polygon fill="midnightblue" stroke="midnightblue" points="812.04,-219.754 815.532,-209.751 806.564,-215.394 812.04,-219.754"/>
</g>
<!-- Node30 -->
<g id="node30" class="node"><title>Node30</title>
<g id="a_node30"><a xlink:href="auth__system_8hpp.html" target="_top" xlink:title="user/auth_system.hpp">
<polygon fill="none" stroke="black" points="487,-190.5 487,-209.5 600,-209.5 600,-190.5 487,-190.5"/>
<text text-anchor="middle" x="543.5" y="-197.5" font-family="Helvetica,sans-Serif" font-size="10.00">user/auth_system.hpp</text>
</a>
</g>
</g>
<!-- Node15&#45;&gt;Node30 -->
<g id="edge52" class="edge"><title>Node15&#45;&gt;Node30</title>
<path fill="none" stroke="midnightblue" d="M742.105,-246.444C701.108,-237.063 635.246,-221.993 590.716,-211.804"/>
<polygon fill="midnightblue" stroke="midnightblue" points="591.249,-208.335 580.72,-209.516 589.687,-215.159 591.249,-208.335"/>
</g>
<!-- Node33 -->
<g id="node33" class="node"><title>Node33</title>
<g id="a_node33"><a xlink:href="user__manager_8hpp.html" target="_top" xlink:title="user/user_manager.hpp">
<polygon fill="none" stroke="black" points="350,-190.5 350,-209.5 469,-209.5 469,-190.5 350,-190.5"/>
<text text-anchor="middle" x="409.5" y="-197.5" font-family="Helvetica,sans-Serif" font-size="10.00">user/user_manager.hpp</text>
</a>
</g>
</g>
<!-- Node15&#45;&gt;Node33 -->
<g id="edge60" class="edge"><title>Node15&#45;&gt;Node33</title>
<path fill="none" stroke="midnightblue" d="M720.872,-246.444C654.838,-236.806 547.657,-221.163 477.869,-210.978"/>
<polygon fill="midnightblue" stroke="midnightblue" points="478.254,-207.497 467.853,-209.516 477.243,-214.424 478.254,-207.497"/>
</g>
<!-- Node18&#45;&gt;Node7 -->
<g id="edge30" class="edge"><title>Node18&#45;&gt;Node7</title>
<path fill="none" stroke="midnightblue" d="M960.149,-128.808C974.241,-115.038 997.347,-87.6537 983.5,-67 967.542,-43.1978 938.137,-30.605 912.08,-23.9473"/>
<polygon fill="midnightblue" stroke="midnightblue" points="912.824,-20.5271 902.292,-21.6752 911.241,-27.3458 912.824,-20.5271"/>
</g>
<!-- Node18&#45;&gt;Node9 -->
<g id="edge25" class="edge"><title>Node18&#45;&gt;Node9</title>
<path fill="none" stroke="midnightblue" d="M907.412,-132.881C802.747,-121.66 536.303,-93.0951 435.214,-82.2576"/>
<polygon fill="midnightblue" stroke="midnightblue" points="435.434,-78.7612 425.117,-81.1752 434.687,-85.7213 435.434,-78.7612"/>
</g>
<!-- Node18&#45;&gt;Node10 -->
<g id="edge31" class="edge"><title>Node18&#45;&gt;Node10</title>
<path fill="none" stroke="midnightblue" d="M938.781,-128.895C915.17,-111.733 862.356,-74.269 841.5,-67 750.321,-35.2209 451.511,-21.4035 352.61,-17.6258"/>
<polygon fill="midnightblue" stroke="midnightblue" points="352.738,-14.1283 342.615,-17.2525 352.477,-21.1234 352.738,-14.1283"/>
</g>
<!-- Node18&#45;&gt;Node12 -->
<g id="edge28" class="edge"><title>Node18&#45;&gt;Node12</title>
<path fill="none" stroke="midnightblue" d="M953.654,-128.585C958.19,-114.008 964.561,-84.904 950.5,-67 947.737,-63.4824 830.936,-36.4417 774.032,-23.4395"/>
<polygon fill="midnightblue" stroke="midnightblue" points="774.673,-19.9958 764.145,-21.1839 773.116,-26.8205 774.673,-19.9958"/>
</g>
<!-- Node18&#45;&gt;Node13 -->
<g id="edge24" class="edge"><title>Node18&#45;&gt;Node13</title>
<path fill="none" stroke="midnightblue" d="M984.385,-128.955C1022.75,-118.793 1082.28,-101.397 1100.5,-87 1117.96,-73.204 1130.35,-50.445 1137.44,-34.5286"/>
<polygon fill="midnightblue" stroke="midnightblue" points="1140.71,-35.7962 1141.34,-25.2203 1134.25,-33.0929 1140.71,-35.7962"/>
</g>
<!-- Node18&#45;&gt;Node17 -->
<g id="edge29" class="edge"><title>Node18&#45;&gt;Node17</title>
<path fill="none" stroke="midnightblue" d="M982.45,-128.975C1023.48,-118.028 1094.5,-99.0792 1137.43,-87.6248"/>
<polygon fill="midnightblue" stroke="midnightblue" points="1138.42,-90.9821 1147.18,-85.0224 1136.62,-84.2187 1138.42,-90.9821"/>
</g>
<!-- Node19 -->
<g id="node19" class="node"><title>Node19</title>
<polygon fill="none" stroke="#bfbfbf" points="889.5,-67.5 889.5,-86.5 941.5,-86.5 941.5,-67.5 889.5,-67.5"/>
<text text-anchor="middle" x="915.5" y="-74.5" font-family="Helvetica,sans-Serif" font-size="10.00">memory</text>
</g>
<!-- Node18&#45;&gt;Node19 -->
<g id="edge26" class="edge"><title>Node18&#45;&gt;Node19</title>
<path fill="none" stroke="midnightblue" d="M945.485,-128.975C940.339,-120.227 932.188,-106.369 925.682,-95.3093"/>
<polygon fill="midnightblue" stroke="midnightblue" points="928.592,-93.3539 920.505,-86.5091 922.559,-96.903 928.592,-93.3539"/>
</g>
<!-- Node20 -->
<g id="node20" class="node"><title>Node20</title>
<polygon fill="none" stroke="#bfbfbf" points="774,-67.5 774,-86.5 833,-86.5 833,-67.5 774,-67.5"/>
<text text-anchor="middle" x="803.5" y="-74.5" font-family="Helvetica,sans-Serif" font-size="10.00">stdexcept</text>
</g>
<!-- Node18&#45;&gt;Node20 -->
<g id="edge27" class="edge"><title>Node18&#45;&gt;Node20</title>
<path fill="none" stroke="midnightblue" d="M929.438,-128.975C904.441,-118.857 862.558,-101.905 834.013,-90.3507"/>
<polygon fill="midnightblue" stroke="midnightblue" points="835.105,-87.0168 824.522,-86.5091 832.479,-93.5054 835.105,-87.0168"/>
</g>
<!-- Node21 -->
<g id="node21" class="node"><title>Node21</title>
<g id="a_node21"><a xlink:href="color_8hpp.html" target="_top" xlink:title="color.hpp">
<polygon fill="none" stroke="black" points="1035.5,-67.5 1035.5,-86.5 1091.5,-86.5 1091.5,-67.5 1035.5,-67.5"/>
<text text-anchor="middle" x="1063.5" y="-74.5" font-family="Helvetica,sans-Serif" font-size="10.00">color.hpp</text>
</a>
</g>
</g>
<!-- Node18&#45;&gt;Node21 -->
<g id="edge32" class="edge"><title>Node18&#45;&gt;Node21</title>
<path fill="none" stroke="midnightblue" d="M966.69,-128.975C985.402,-119.122 1016.42,-102.788 1038.3,-91.2697"/>
<polygon fill="midnightblue" stroke="midnightblue" points="1040.12,-94.2651 1047.34,-86.5091 1036.86,-88.0713 1040.12,-94.2651"/>
</g>
<!-- Node21&#45;&gt;Node12 -->
<g id="edge36" class="edge"><title>Node21&#45;&gt;Node12</title>
<path fill="none" stroke="midnightblue" d="M1035.24,-71.3814C988.268,-63.6179 891.206,-47.206 809.5,-31 797.989,-28.7168 785.397,-26.0041 774.326,-23.546"/>
<polygon fill="midnightblue" stroke="midnightblue" points="774.786,-20.0623 764.262,-21.2897 773.254,-26.8927 774.786,-20.0623"/>
</g>
<!-- Node21&#45;&gt;Node13 -->
<g id="edge34" class="edge"><title>Node21&#45;&gt;Node13</title>
<path fill="none" stroke="midnightblue" d="M1075.11,-67.4751C1087.98,-58.0199 1108.97,-42.5961 1124.51,-31.1871"/>
<polygon fill="midnightblue" stroke="midnightblue" points="1126.93,-33.75 1132.92,-25.0091 1122.78,-28.1085 1126.93,-33.75"/>
</g>
<!-- Node22 -->
<g id="node22" class="node"><title>Node22</title>
<polygon fill="none" stroke="#bfbfbf" points="984.5,-6 984.5,-25 1030.5,-25 1030.5,-6 984.5,-6"/>
<text text-anchor="middle" x="1007.5" y="-13" font-family="Helvetica,sans-Serif" font-size="10.00">cctype</text>
</g>
<!-- Node21&#45;&gt;Node22 -->
<g id="edge33" class="edge"><title>Node21&#45;&gt;Node22</title>
<path fill="none" stroke="midnightblue" d="M1055.48,-67.4751C1046.91,-58.3733 1033.14,-43.741 1022.54,-32.483"/>
<polygon fill="midnightblue" stroke="midnightblue" points="1024.91,-29.8923 1015.51,-25.0091 1019.81,-34.6899 1024.91,-29.8923"/>
</g>
<!-- Node23 -->
<g id="node23" class="node"><title>Node23</title>
<polygon fill="none" stroke="#bfbfbf" points="1049,-6 1049,-25 1094,-25 1094,-6 1049,-6"/>
<text text-anchor="middle" x="1071.5" y="-13" font-family="Helvetica,sans-Serif" font-size="10.00">cstdlib</text>
</g>
<!-- Node21&#45;&gt;Node23 -->
<g id="edge35" class="edge"><title>Node21&#45;&gt;Node23</title>
<path fill="none" stroke="midnightblue" d="M1064.65,-67.4751C1065.77,-59.0803 1067.54,-45.9806 1068.99,-35.1631"/>
<polygon fill="midnightblue" stroke="midnightblue" points="1072.49,-35.3863 1070.36,-25.0091 1065.55,-34.4535 1072.49,-35.3863"/>
</g>
<!-- Node24&#45;&gt;Node4 -->
<g id="edge40" class="edge"><title>Node24&#45;&gt;Node4</title>
<path fill="none" stroke="midnightblue" d="M867.129,-191.912C910.626,-184.458 978.372,-171.394 1035.5,-154 1037.78,-153.305 1040.13,-152.524 1042.47,-151.695"/>
<polygon fill="midnightblue" stroke="midnightblue" points="1043.81,-154.928 1051.92,-148.109 1041.33,-148.384 1043.81,-154.928"/>
</g>
<!-- Node24&#45;&gt;Node7 -->
<g id="edge43" class="edge"><title>Node24&#45;&gt;Node7</title>
<path fill="none" stroke="midnightblue" d="M824.243,-190.328C826.758,-175.449 829.85,-144.574 817.5,-123 803.353,-98.2871 777.828,-112.164 764.5,-87 760.34,-79.1448 759.905,-74.6091 764.5,-67 775.743,-48.3825 796.379,-36.2852 815.646,-28.6142"/>
<polygon fill="midnightblue" stroke="midnightblue" points="817.058,-31.8242 825.242,-25.095 814.648,-25.2522 817.058,-31.8242"/>
</g>
<!-- Node24&#45;&gt;Node11 -->
<g id="edge51" class="edge"><title>Node24&#45;&gt;Node11</title>
<path fill="none" stroke="midnightblue" d="M867.308,-193.38C904.931,-187.379 959.305,-175.651 1002.5,-154 1021.99,-144.233 1020.84,-132.416 1040.5,-123 1044.3,-121.181 1146.47,-99.8973 1207.56,-87.2637"/>
<polygon fill="midnightblue" stroke="midnightblue" points="1208.28,-90.6905 1217.36,-85.2391 1206.86,-83.8354 1208.28,-90.6905"/>
</g>
<!-- Node24&#45;&gt;Node12 -->
<g id="edge42" class="edge"><title>Node24&#45;&gt;Node12</title>
<path fill="none" stroke="midnightblue" d="M817.361,-190.102C809.159,-175.905 792.595,-147.255 778.5,-123 769.193,-106.985 764.061,-104.322 757.5,-87 751.153,-70.2413 747.521,-50.0992 745.556,-35.6436"/>
<polygon fill="midnightblue" stroke="midnightblue" points="748.997,-34.9478 744.317,-25.4428 742.048,-35.7919 748.997,-34.9478"/>
</g>
<!-- Node24&#45;&gt;Node18 -->
<g id="edge50" class="edge"><title>Node24&#45;&gt;Node18</title>
<path fill="none" stroke="midnightblue" d="M840.839,-190.475C862.321,-180.49 898.122,-163.848 922.948,-152.307"/>
<polygon fill="midnightblue" stroke="midnightblue" points="924.602,-155.398 932.195,-148.009 921.651,-149.051 924.602,-155.398"/>
</g>
<!-- Node24&#45;&gt;Node20 -->
<g id="edge41" class="edge"><title>Node24&#45;&gt;Node20</title>
<path fill="none" stroke="midnightblue" d="M831.52,-190.34C839.572,-181.932 850.798,-168.363 855.5,-154 859.787,-140.906 861.228,-135.531 855.5,-123 849.723,-110.36 838.448,-99.911 827.869,-92.2737"/>
<polygon fill="midnightblue" stroke="midnightblue" points="829.542,-89.1817 819.283,-86.5333 825.651,-95.0009 829.542,-89.1817"/>
</g>
<!-- Node25 -->
<g id="node25" class="node"><title>Node25</title>
<polygon fill="none" stroke="#bfbfbf" points="563.5,-129 563.5,-148 613.5,-148 613.5,-129 563.5,-129"/>
<text text-anchor="middle" x="588.5" y="-136" font-family="Helvetica,sans-Serif" font-size="10.00">iomanip</text>
</g>
<!-- Node24&#45;&gt;Node25 -->
<g id="edge38" class="edge"><title>Node24&#45;&gt;Node25</title>
<path fill="none" stroke="midnightblue" d="M777.789,-191.353C736.841,-183.784 674.829,-170.89 622.5,-154 620.576,-153.379 618.611,-152.691 616.644,-151.963"/>
<polygon fill="midnightblue" stroke="midnightblue" points="617.558,-148.559 606.973,-148.099 614.961,-155.059 617.558,-148.559"/>
</g>
<!-- Node26 -->
<g id="node26" class="node"><title>Node26</title>
<polygon fill="none" stroke="#bfbfbf" points="625.5,-67.5 625.5,-86.5 679.5,-86.5 679.5,-67.5 625.5,-67.5"/>
<text text-anchor="middle" x="652.5" y="-74.5" font-family="Helvetica,sans-Serif" font-size="10.00">iostream</text>
</g>
<!-- Node24&#45;&gt;Node26 -->
<g id="edge39" class="edge"><title>Node24&#45;&gt;Node26</title>
<path fill="none" stroke="midnightblue" d="M815.194,-190.073C802.351,-174.807 774.347,-143.367 745.5,-123 726.659,-109.698 703.282,-98.4052 684.679,-90.4598"/>
<polygon fill="midnightblue" stroke="midnightblue" points="686.013,-87.2239 675.435,-86.617 683.326,-93.6877 686.013,-87.2239"/>
</g>
<!-- Node27 -->
<g id="node27" class="node"><title>Node27</title>
<polygon fill="none" stroke="#bfbfbf" points="632,-123.5 632,-153.5 737,-153.5 737,-123.5 632,-123.5"/>
<text text-anchor="start" x="640" y="-141.5" font-family="Helvetica,sans-Serif" font-size="10.00">boost/chrono/io/time</text>
<text text-anchor="middle" x="684.5" y="-130.5" font-family="Helvetica,sans-Serif" font-size="10.00">_point_io.hpp</text>
</g>
<!-- Node24&#45;&gt;Node27 -->
<g id="edge44" class="edge"><title>Node24&#45;&gt;Node27</title>
<path fill="none" stroke="midnightblue" d="M802.728,-190.475C782.902,-181.927 751.763,-168.501 726.418,-157.573"/>
<polygon fill="midnightblue" stroke="midnightblue" points="727.592,-154.268 717.024,-153.523 724.821,-160.696 727.592,-154.268"/>
</g>
<!-- Node28 -->
<g id="node28" class="node"><title>Node28</title>
<g id="a_node28"><a xlink:href="multibuf_8hpp.html" target="_top" xlink:title="multibuf.hpp">
<polygon fill="none" stroke="black" points="475.5,-129 475.5,-148 545.5,-148 545.5,-129 475.5,-129"/>
<text text-anchor="middle" x="510.5" y="-136" font-family="Helvetica,sans-Serif" font-size="10.00">multibuf.hpp</text>
</a>
</g>
</g>
<!-- Node24&#45;&gt;Node28 -->
<g id="edge45" class="edge"><title>Node24&#45;&gt;Node28</title>
<path fill="none" stroke="midnightblue" d="M777.893,-191.554C702.375,-178.942 557.209,-154.67 554.5,-154 551.118,-153.164 547.621,-152.196 544.145,-151.164"/>
<polygon fill="midnightblue" stroke="midnightblue" points="545.104,-147.797 534.515,-148.145 543.01,-154.476 545.104,-147.797"/>
</g>
<!-- Node28&#45;&gt;Node10 -->
<g id="edge48" class="edge"><title>Node28&#45;&gt;Node10</title>
<path fill="none" stroke="midnightblue" d="M502.699,-128.718C489.561,-114.333 461.684,-85.4982 433.5,-67 407.878,-50.1836 375.732,-36.4302 352.283,-27.5465"/>
<polygon fill="midnightblue" stroke="midnightblue" points="353.404,-24.2293 342.81,-24.0426 350.975,-30.7946 353.404,-24.2293"/>
</g>
<!-- Node28&#45;&gt;Node12 -->
<g id="edge49" class="edge"><title>Node28&#45;&gt;Node12</title>
<path fill="none" stroke="midnightblue" d="M512.765,-128.634C517.078,-113.589 527.929,-83.1284 548.5,-67 597.109,-28.8897 671.467,-19.3282 712.905,-17.0627"/>
<polygon fill="midnightblue" stroke="midnightblue" points="713.102,-20.5575 722.939,-16.6229 712.795,-13.5642 713.102,-20.5575"/>
</g>
<!-- Node28&#45;&gt;Node26 -->
<g id="edge46" class="edge"><title>Node28&#45;&gt;Node26</title>
<path fill="none" stroke="midnightblue" d="M530.845,-128.975C554.887,-118.901 595.097,-102.053 622.663,-90.5023"/>
<polygon fill="midnightblue" stroke="midnightblue" points="624.322,-93.6018 632.193,-86.5091 621.617,-87.1457 624.322,-93.6018"/>
</g>
<!-- Node29 -->
<g id="node29" class="node"><title>Node29</title>
<polygon fill="none" stroke="#bfbfbf" points="557.5,-67.5 557.5,-86.5 607.5,-86.5 607.5,-67.5 557.5,-67.5"/>
<text text-anchor="middle" x="582.5" y="-74.5" font-family="Helvetica,sans-Serif" font-size="10.00">fstream</text>
</g>
<!-- Node28&#45;&gt;Node29 -->
<g id="edge47" class="edge"><title>Node28&#45;&gt;Node29</title>
<path fill="none" stroke="midnightblue" d="M520.816,-128.975C532.151,-119.608 550.573,-104.384 564.339,-93.0081"/>
<polygon fill="midnightblue" stroke="midnightblue" points="566.724,-95.5773 572.203,-86.5091 562.265,-90.1813 566.724,-95.5773"/>
</g>
<!-- Node30&#45;&gt;Node7 -->
<g id="edge53" class="edge"><title>Node30&#45;&gt;Node7</title>
<path fill="none" stroke="midnightblue" d="M515.128,-190.495C497.748,-183.653 476.904,-172.13 466.5,-154 459.643,-142.05 460.067,-135.184 466.5,-123 532.81,2.58229 632.33,-53.8116 772.5,-31 784.202,-29.0956 796.777,-27.0332 808.655,-25.0777"/>
<polygon fill="midnightblue" stroke="midnightblue" points="809.577,-28.473 818.874,-23.3934 808.438,-21.5662 809.577,-28.473"/>
</g>
<!-- Node31 -->
<g id="node31" class="node"><title>Node31</title>
<g id="a_node31"><a xlink:href="user__group_8hpp.html" target="_top" xlink:title="user_group.hpp">
<polygon fill="none" stroke="black" points="298,-129 298,-148 381,-148 381,-129 298,-129"/>
<text text-anchor="middle" x="339.5" y="-136" font-family="Helvetica,sans-Serif" font-size="10.00">user_group.hpp</text>
</a>
</g>
</g>
<!-- Node30&#45;&gt;Node31 -->
<g id="edge54" class="edge"><title>Node30&#45;&gt;Node31</title>
<path fill="none" stroke="midnightblue" d="M514.272,-190.475C478.597,-180.07 418.14,-162.437 378.518,-150.88"/>
<polygon fill="midnightblue" stroke="midnightblue" points="379.254,-147.449 368.674,-148.009 377.294,-154.169 379.254,-147.449"/>
</g>
<!-- Node31&#45;&gt;Node10 -->
<g id="edge55" class="edge"><title>Node31&#45;&gt;Node10</title>
<path fill="none" stroke="midnightblue" d="M324.604,-128.878C311.279,-120.217 292.635,-105.514 284.5,-87 276.089,-67.8578 290.39,-46.568 303.378,-32.4441"/>
<polygon fill="midnightblue" stroke="midnightblue" points="306.163,-34.6046 310.693,-25.0266 301.179,-29.6897 306.163,-34.6046"/>
</g>
<!-- Node32 -->
<g id="node32" class="node"><title>Node32</title>
<g id="a_node32"><a xlink:href="user_8hpp.html" target="_top" xlink:title="user.hpp">
<polygon fill="none" stroke="black" points="293.5,-67.5 293.5,-86.5 347.5,-86.5 347.5,-67.5 293.5,-67.5"/>
<text text-anchor="middle" x="320.5" y="-74.5" font-family="Helvetica,sans-Serif" font-size="10.00">user.hpp</text>
</a>
</g>
</g>
<!-- Node31&#45;&gt;Node32 -->
<g id="edge56" class="edge"><title>Node31&#45;&gt;Node32</title>
<path fill="none" stroke="midnightblue" d="M336.778,-128.975C334.069,-120.492 329.826,-107.204 326.351,-96.3222"/>
<polygon fill="midnightblue" stroke="midnightblue" points="329.593,-94.9705 323.217,-86.5091 322.925,-97.0999 329.593,-94.9705"/>
</g>
<!-- Node32&#45;&gt;Node7 -->
<g id="edge59" class="edge"><title>Node32&#45;&gt;Node7</title>
<path fill="none" stroke="midnightblue" d="M347.53,-68.7538C350.542,-68.0923 353.577,-67.4887 356.5,-67 539.54,-36.3989 588.364,-54.1029 772.5,-31 784.264,-29.524 796.863,-27.6338 808.746,-25.7092"/>
<polygon fill="midnightblue" stroke="midnightblue" points="809.67,-29.1039 818.964,-24.0185 808.527,-22.1978 809.67,-29.1039"/>
</g>
<!-- Node32&#45;&gt;Node10 -->
<g id="edge58" class="edge"><title>Node32&#45;&gt;Node10</title>
<path fill="none" stroke="midnightblue" d="M320.5,-67.4751C320.5,-59.0803 320.5,-45.9806 320.5,-35.1631"/>
<polygon fill="midnightblue" stroke="midnightblue" points="324,-35.0091 320.5,-25.0091 317,-35.0091 324,-35.0091"/>
</g>
<!-- Node32&#45;&gt;Node12 -->
<g id="edge57" class="edge"><title>Node32&#45;&gt;Node12</title>
<path fill="none" stroke="midnightblue" d="M347.553,-68.8817C350.561,-68.1962 353.588,-67.552 356.5,-67 487.981,-42.0722 646.935,-25.5497 712.711,-19.3005"/>
<polygon fill="midnightblue" stroke="midnightblue" points="713.18,-22.7719 722.81,-18.3527 712.526,-15.8026 713.18,-22.7719"/>
</g>
<!-- Node33&#45;&gt;Node32 -->
<g id="edge61" class="edge"><title>Node33&#45;&gt;Node32</title>
<path fill="none" stroke="midnightblue" d="M409.193,-190.164C408.26,-175.037 404.51,-143.8 389.5,-123 379.64,-109.337 364.242,-98.7192 350.491,-91.2373"/>
<polygon fill="midnightblue" stroke="midnightblue" points="351.821,-87.9867 341.323,-86.5596 348.64,-94.222 351.821,-87.9867"/>
</g>
<!-- Node34 -->
<g id="node34" class="node"><title>Node34</title>
<polygon fill="none" stroke="#bfbfbf" points="251,-129 251,-148 280,-148 280,-129 251,-129"/>
<text text-anchor="middle" x="265.5" y="-136" font-family="Helvetica,sans-Serif" font-size="10.00">list</text>
</g>
<!-- Node33&#45;&gt;Node34 -->
<g id="edge62" class="edge"><title>Node33&#45;&gt;Node34</title>
<path fill="none" stroke="midnightblue" d="M381.427,-190.39C356.455,-182.306 319.238,-169.201 288.5,-154 288.077,-153.791 287.652,-153.576 287.225,-153.356"/>
<polygon fill="midnightblue" stroke="midnightblue" points="288.78,-150.212 278.366,-148.263 285.291,-156.281 288.78,-150.212"/>
</g>
</g>
</svg>
