<?xml version="1.0" encoding="UTF-8" standalone="no"?>
<!DOCTYPE svg PUBLIC "-//W3C//DTD SVG 1.1//EN"
 "http://www.w3.org/Graphics/SVG/1.1/DTD/svg11.dtd">
<!-- Generated by graphviz version 2.38.0 (20140413.2041)
 -->
<!-- Title: src/melanobot.hpp Pages: 1 -->
<svg width="631pt" height="196pt"
 viewBox="0.00 0.00 630.50 196.00" xmlns="http://www.w3.org/2000/svg" xmlns:xlink="http://www.w3.org/1999/xlink">
<g id="graph0" class="graph" transform="scale(1 1) rotate(0) translate(4 192)">
<title>src/melanobot.hpp</title>
<!-- Node1 -->
<g id="node1" class="node"><title>Node1</title>
<polygon fill="#bfbfbf" stroke="black" points="257,-168.5 257,-187.5 354,-187.5 354,-168.5 257,-168.5"/>
<text text-anchor="middle" x="305.5" y="-175.5" font-family="Helvetica,sans-Serif" font-size="10.00">src/melanobot.hpp</text>
</g>
<!-- Node2 -->
<g id="node2" class="node"><title>Node2</title>
<g id="a_node2"><a xlink:href="melanobot_8cpp.html" target="_top" xlink:title="src/melanobot.cpp">
<polygon fill="none" stroke="black" points="0,-56.5 0,-75.5 97,-75.5 97,-56.5 0,-56.5"/>
<text text-anchor="middle" x="48.5" y="-63.5" font-family="Helvetica,sans-Serif" font-size="10.00">src/melanobot.cpp</text>
</a>
</g>
</g>
<!-- Node1&#45;&gt;Node2 -->
<g id="edge1" class="edge"><title>Node1&#45;&gt;Node2</title>
<path fill="none" stroke="midnightblue" d="M267.047,-165.417C240.643,-157.07 204.994,-145.021 174.5,-132 133.075,-114.311 86.4884,-88.6966 63.2881,-75.5268"/>
<polygon fill="midnightblue" stroke="midnightblue" points="266.095,-168.786 276.684,-168.429 268.183,-162.105 266.095,-168.786"/>
</g>
<!-- Node3 -->
<g id="node3" class="node"><title>Node3</title>
<g id="a_node3"><a xlink:href="handler_8hpp.html" target="_top" xlink:title="src/handler/handler.hpp">
<polygon fill="none" stroke="black" points="183.5,-112.5 183.5,-131.5 301.5,-131.5 301.5,-112.5 183.5,-112.5"/>
<text text-anchor="middle" x="242.5" y="-119.5" font-family="Helvetica,sans-Serif" font-size="10.00">src/handler/handler.hpp</text>
</a>
</g>
</g>
<!-- Node1&#45;&gt;Node3 -->
<g id="edge2" class="edge"><title>Node1&#45;&gt;Node3</title>
<path fill="none" stroke="midnightblue" d="M287.46,-161.537C276.227,-151.909 262.181,-139.869 252.806,-131.834"/>
<polygon fill="midnightblue" stroke="midnightblue" points="285.508,-164.473 295.378,-168.324 290.063,-159.159 285.508,-164.473"/>
</g>
<!-- Node8 -->
<g id="node8" class="node"><title>Node8</title>
<g id="a_node8"><a xlink:href="irc_8hpp.html" target="_top" xlink:title="src/network/irc.hpp">
<polygon fill="none" stroke="black" points="319.5,-112.5 319.5,-131.5 419.5,-131.5 419.5,-112.5 319.5,-112.5"/>
<text text-anchor="middle" x="369.5" y="-119.5" font-family="Helvetica,sans-Serif" font-size="10.00">src/network/irc.hpp</text>
</a>
</g>
</g>
<!-- Node1&#45;&gt;Node8 -->
<g id="edge8" class="edge"><title>Node1&#45;&gt;Node8</title>
<path fill="none" stroke="midnightblue" d="M323.491,-161.82C334.958,-152.145 349.413,-139.948 359.03,-131.834"/>
<polygon fill="midnightblue" stroke="midnightblue" points="321.169,-159.2 315.783,-168.324 325.683,-164.55 321.169,-159.2"/>
</g>
<!-- Node10 -->
<g id="node10" class="node"><title>Node10</title>
<g id="a_node10"><a xlink:href="main_8cpp.html" target="_top" xlink:title="src/main.cpp">
<polygon fill="none" stroke="black" points="438,-112.5 438,-131.5 511,-131.5 511,-112.5 438,-112.5"/>
<text text-anchor="middle" x="474.5" y="-119.5" font-family="Helvetica,sans-Serif" font-size="10.00">src/main.cpp</text>
</a>
</g>
</g>
<!-- Node1&#45;&gt;Node10 -->
<g id="edge10" class="edge"><title>Node1&#45;&gt;Node10</title>
<path fill="none" stroke="midnightblue" d="M342.103,-165.304C373.947,-155.129 419.342,-140.625 447.847,-131.516"/>
<polygon fill="midnightblue" stroke="midnightblue" points="340.739,-162.066 332.279,-168.444 342.869,-168.734 340.739,-162.066"/>
</g>
<!-- Node3&#45;&gt;Node2 -->
<g id="edge3" class="edge"><title>Node3&#45;&gt;Node2</title>
<path fill="none" stroke="midnightblue" d="M201.899,-109.699C165.285,-99.507 112.243,-84.7429 79.0961,-75.5164"/>
<polygon fill="midnightblue" stroke="midnightblue" points="201.188,-113.134 211.76,-112.444 203.065,-106.39 201.188,-113.134"/>
</g>
<!-- Node4 -->
<g id="node4" class="node"><title>Node4</title>
<g id="a_node4"><a xlink:href="web-api_8hpp.html" target="_top" xlink:title="src/handler/web&#45;api.hpp">
<polygon fill="none" stroke="black" points="114.5,-56.5 114.5,-75.5 234.5,-75.5 234.5,-56.5 114.5,-56.5"/>
<text text-anchor="middle" x="174.5" y="-63.5" font-family="Helvetica,sans-Serif" font-size="10.00">src/handler/web&#45;api.hpp</text>
</a>
</g>
</g>
<!-- Node3&#45;&gt;Node4 -->
<g id="edge4" class="edge"><title>Node3&#45;&gt;Node4</title>
<path fill="none" stroke="midnightblue" d="M223.738,-106.101C211.5,-96.3824 195.941,-84.0269 185.624,-75.8339"/>
<polygon fill="midnightblue" stroke="midnightblue" points="221.567,-108.846 231.575,-112.324 225.92,-103.364 221.567,-108.846"/>
</g>
<!-- Node6 -->
<g id="node6" class="node"><title>Node6</title>
<g id="a_node6"><a xlink:href="simple_8cpp.html" target="_top" xlink:title="src/handler/simple.cpp">
<polygon fill="none" stroke="black" points="253,-56.5 253,-75.5 368,-75.5 368,-56.5 253,-56.5"/>
<text text-anchor="middle" x="310.5" y="-63.5" font-family="Helvetica,sans-Serif" font-size="10.00">src/handler/simple.cpp</text>
</a>
</g>
</g>
<!-- Node3&#45;&gt;Node6 -->
<g id="edge6" class="edge"><title>Node3&#45;&gt;Node6</title>
<path fill="none" stroke="midnightblue" d="M261.262,-106.101C273.5,-96.3824 289.059,-84.0269 299.376,-75.8339"/>
<polygon fill="midnightblue" stroke="midnightblue" points="259.08,-103.364 253.425,-112.324 263.433,-108.846 259.08,-103.364"/>
</g>
<!-- Node7 -->
<g id="node7" class="node"><title>Node7</title>
<g id="a_node7"><a xlink:href="handler_8cpp.html" target="_top" xlink:title="src/handler/handler.cpp">
<polygon fill="none" stroke="black" points="386.5,-56.5 386.5,-75.5 504.5,-75.5 504.5,-56.5 386.5,-56.5"/>
<text text-anchor="middle" x="445.5" y="-63.5" font-family="Helvetica,sans-Serif" font-size="10.00">src/handler/handler.cpp</text>
</a>
</g>
</g>
<!-- Node3&#45;&gt;Node7 -->
<g id="edge7" class="edge"><title>Node3&#45;&gt;Node7</title>
<path fill="none" stroke="midnightblue" d="M284.494,-109.829C322.823,-99.6333 378.652,-84.7823 413.485,-75.5164"/>
<polygon fill="midnightblue" stroke="midnightblue" points="283.43,-106.49 274.666,-112.444 285.23,-113.255 283.43,-106.49"/>
</g>
<!-- Node5 -->
<g id="node5" class="node"><title>Node5</title>
<g id="a_node5"><a xlink:href="web-api_8cpp.html" target="_top" xlink:title="src/handler/web&#45;api.cpp">
<polygon fill="none" stroke="black" points="114.5,-0.5 114.5,-19.5 234.5,-19.5 234.5,-0.5 114.5,-0.5"/>
<text text-anchor="middle" x="174.5" y="-7.5" font-family="Helvetica,sans-Serif" font-size="10.00">src/handler/web&#45;api.cpp</text>
</a>
</g>
</g>
<!-- Node4&#45;&gt;Node5 -->
<g id="edge5" class="edge"><title>Node4&#45;&gt;Node5</title>
<path fill="none" stroke="midnightblue" d="M174.5,-45.8045C174.5,-36.9102 174.5,-26.7798 174.5,-19.7511"/>
<polygon fill="midnightblue" stroke="midnightblue" points="171,-46.083 174.5,-56.083 178,-46.083 171,-46.083"/>
</g>
<!-- Node9 -->
<g id="node9" class="node"><title>Node9</title>
<g id="a_node9"><a xlink:href="irc_8cpp.html" target="_top" xlink:title="src/network/irc.cpp">
<polygon fill="none" stroke="black" points="522.5,-56.5 522.5,-75.5 622.5,-75.5 622.5,-56.5 522.5,-56.5"/>
<text text-anchor="middle" x="572.5" y="-63.5" font-family="Helvetica,sans-Serif" font-size="10.00">src/network/irc.cpp</text>
</a>
</g>
</g>
<!-- Node8&#45;&gt;Node9 -->
<g id="edge9" class="edge"><title>Node8&#45;&gt;Node9</title>
<path fill="none" stroke="midnightblue" d="M411.494,-109.829C449.823,-99.6333 505.652,-84.7823 540.485,-75.5164"/>
<polygon fill="midnightblue" stroke="midnightblue" points="410.43,-106.49 401.666,-112.444 412.23,-113.255 410.43,-106.49"/>
</g>
</g>
</svg>
