<?xml version="1.0" encoding="UTF-8" standalone="no"?>
<!DOCTYPE svg PUBLIC "-//W3C//DTD SVG 1.1//EN"
 "http://www.w3.org/Graphics/SVG/1.1/DTD/svg11.dtd">
<!-- Generated by graphviz version 2.38.0 (20140413.2041)
 -->
<!-- Title: src/melanobot.hpp Pages: 1 -->
<!--zoomable 330 -->
<svg id="main" version="1.1" xmlns="http://www.w3.org/2000/svg" xmlns:xlink="http://www.w3.org/1999/xlink" xml:space="preserve" onload="init(evt)">
<style type="text/css"><![CDATA[
.edge:hover path { stroke: red; }
.edge:hover polygon { stroke: red; fill: red; }
]]></style>
<script type="text/javascript"><![CDATA[
var edges = document.getElementsByTagName('g');
if (edges && edges.length) {
  for (var i=0;i<edges.length;i++) {
    if (edges[i].id.substr(0,4)=='edge') {
      edges[i].setAttribute('class','edge');
    }
  }
}
]]></script>
        <defs>
                <circle id="rim" cx="0" cy="0" r="7"/>
                <circle id="rim2" cx="0" cy="0" r="3.5"/>
                <g id="zoomPlus">
                        <use xlink:href="#rim" fill="#404040">
                                <set attributeName="fill" to="#808080" begin="zoomplus.mouseover" end="zoomplus.mouseout"/>
                        </use>
                        <path d="M-4,0h8M0,-4v8" fill="none" stroke="white" stroke-width="1.5" pointer-events="none"/>
                </g>
                <g id="zoomMin">
                        <use xlink:href="#rim" fill="#404040">
                                <set attributeName="fill" to="#808080" begin="zoomminus.mouseover" end="zoomminus.mouseout"/>
                        </use>
                        <path d="M-4,0h8" fill="none" stroke="white" stroke-width="1.5" pointer-events="none"/>
                </g>
                <g id="dirArrow">
                        <path fill="none" stroke="white" stroke-width="1.5" d="M0,-3.0v7 M-2.5,-0.5L0,-3.0L2.5,-0.5"/>
                </g>
               <g id="resetDef">
                       <use xlink:href="#rim2" fill="#404040">
                               <set attributeName="fill" to="#808080" begin="reset.mouseover" end="reset.mouseout"/>
                       </use>
               </g>
        </defs>

<script type="text/javascript">
var viewWidth = 1128;
var viewHeight = 330;
var sectionId = 'dynsection-0';
</script>
<script xlink:href="svgpan.js"/>
<svg id="graph" class="graph">
<g id="viewport">
<title>src/melanobot.hpp</title>
<!-- Node1 -->
<g id="node1" class="node"><title>Node1</title>
<polygon fill="#bfbfbf" stroke="black" points="350,-302.5 350,-321.5 447,-321.5 447,-302.5 350,-302.5"/>
<text text-anchor="middle" x="398.5" y="-309.5" font-family="Helvetica,sans-Serif" font-size="10.00">src/melanobot.hpp</text>
</g>
<!-- Node2 -->
<g id="node2" class="node"><title>Node2</title>
<polygon fill="none" stroke="#bfbfbf" points="465.5,-190.5 465.5,-209.5 511.5,-209.5 511.5,-190.5 465.5,-190.5"/>
<text text-anchor="middle" x="488.5" y="-197.5" font-family="Helvetica,sans-Serif" font-size="10.00">atomic</text>
</g>
<!-- Node1&#45;&gt;Node2 -->
<g id="edge1" class="edge"><title>Node1&#45;&gt;Node2</title>
<path fill="none" stroke="midnightblue" d="M420.495,-302.465C436.609,-295.123 457.804,-283.011 470.5,-266 480.459,-252.657 484.908,-234.084 486.895,-220.207"/>
<polygon fill="midnightblue" stroke="midnightblue" points="490.418,-220.2 488.053,-209.873 483.461,-219.421 490.418,-220.2"/>
</g>
<!-- Node3 -->
<g id="node3" class="node"><title>Node3</title>
<polygon fill="none" stroke="#bfbfbf" points="215,-190.5 215,-209.5 310,-209.5 310,-190.5 215,-190.5"/>
<text text-anchor="middle" x="262.5" y="-197.5" font-family="Helvetica,sans-Serif" font-size="10.00">condition_variable</text>
</g>
<!-- Node1&#45;&gt;Node3 -->
<g id="edge2" class="edge"><title>Node1&#45;&gt;Node3</title>
<path fill="none" stroke="midnightblue" d="M379.513,-302.422C362.776,-294.358 338.212,-281.267 319.5,-266 302.137,-251.835 285.64,-232.084 274.904,-218.081"/>
<polygon fill="midnightblue" stroke="midnightblue" points="277.521,-215.737 268.729,-209.825 271.915,-219.929 277.521,-215.737"/>
</g>
<!-- Node4 -->
<g id="node4" class="node"><title>Node4</title>
<polygon fill="none" stroke="#bfbfbf" points="1075.5,-129 1075.5,-148 1119.5,-148 1119.5,-129 1075.5,-129"/>
<text text-anchor="middle" x="1097.5" y="-136" font-family="Helvetica,sans-Serif" font-size="10.00">mutex</text>
</g>
<!-- Node1&#45;&gt;Node4 -->
<g id="edge3" class="edge"><title>Node1&#45;&gt;Node4</title>
<path fill="none" stroke="midnightblue" d="M447.247,-303.544C497.457,-295.54 577.848,-281.82 646.5,-266 805.436,-229.376 992.161,-172.492 1065.57,-149.574"/>
<polygon fill="midnightblue" stroke="midnightblue" points="1066.67,-152.899 1075.17,-146.571 1064.58,-146.218 1066.67,-152.899"/>
</g>
<!-- Node5 -->
<g id="node5" class="node"><title>Node5</title>
<polygon fill="none" stroke="#bfbfbf" points="328,-190.5 328,-209.5 371,-209.5 371,-190.5 328,-190.5"/>
<text text-anchor="middle" x="349.5" y="-197.5" font-family="Helvetica,sans-Serif" font-size="10.00">queue</text>
</g>
<!-- Node1&#45;&gt;Node5 -->
<g id="edge4" class="edge"><title>Node1&#45;&gt;Node5</title>
<path fill="none" stroke="midnightblue" d="M372.996,-302.472C356.513,-295.478 336.361,-283.792 326.5,-266 318.013,-250.688 326.73,-231.657 335.763,-218.154"/>
<polygon fill="midnightblue" stroke="midnightblue" points="338.791,-219.942 341.861,-209.802 333.137,-215.815 338.791,-219.942"/>
</g>
<!-- Node6 -->
<g id="node6" class="node"><title>Node6</title>
<polygon fill="none" stroke="#bfbfbf" points="861.5,-246.5 861.5,-265.5 905.5,-265.5 905.5,-246.5 861.5,-246.5"/>
<text text-anchor="middle" x="883.5" y="-253.5" font-family="Helvetica,sans-Serif" font-size="10.00">thread</text>
</g>
<!-- Node1&#45;&gt;Node6 -->
<g id="edge5" class="edge"><title>Node1&#45;&gt;Node6</title>
<path fill="none" stroke="midnightblue" d="M447.317,-308.433C530.119,-303.561 703.173,-291.136 847.5,-266 848.75,-265.782 850.02,-265.545 851.3,-265.292"/>
<polygon fill="midnightblue" stroke="midnightblue" points="852.127,-268.694 861.139,-263.124 850.62,-261.858 852.127,-268.694"/>
</g>
<!-- Node7 -->
<g id="node7" class="node"><title>Node7</title>
<polygon fill="none" stroke="#bfbfbf" points="158,-62 158,-81 241,-81 241,-62 158,-62"/>
<text text-anchor="middle" x="199.5" y="-69" font-family="Helvetica,sans-Serif" font-size="10.00">unordered_map</text>
</g>
<!-- Node1&#45;&gt;Node7 -->
<g id="edge6" class="edge"><title>Node1&#45;&gt;Node7</title>
<path fill="none" stroke="midnightblue" d="M355.456,-302.424C308.924,-290.577 237.177,-264.2 205.5,-210 183.671,-172.65 189.718,-119.354 195.129,-91.3502"/>
<polygon fill="midnightblue" stroke="midnightblue" points="198.605,-91.8319 197.255,-81.3234 191.757,-90.3799 198.605,-91.8319"/>
</g>
<!-- Node8 -->
<g id="node8" class="node"><title>Node8</title>
<g id="a_node8"><a xlink:href="concurrent__container_8hpp.html" target="_top" xlink:title="concurrent_container.hpp">
<polygon fill="none" stroke="black" points="335.5,-246.5 335.5,-265.5 461.5,-265.5 461.5,-246.5 335.5,-246.5"/>
<text text-anchor="middle" x="398.5" y="-253.5" font-family="Helvetica,sans-Serif" font-size="10.00">concurrent_container.hpp</text>
</a>
</g>
</g>
<!-- Node1&#45;&gt;Node8 -->
<g id="edge7" class="edge"><title>Node1&#45;&gt;Node8</title>
<path fill="none" stroke="midnightblue" d="M398.5,-302.083C398.5,-295.006 398.5,-284.861 398.5,-275.986"/>
<polygon fill="midnightblue" stroke="midnightblue" points="402,-275.751 398.5,-265.751 395,-275.751 402,-275.751"/>
</g>
<!-- Node11 -->
<g id="node11" class="node"><title>Node11</title>
<g id="a_node11"><a xlink:href="settings_8hpp.html" target="_top" xlink:title="settings.hpp">
<polygon fill="none" stroke="black" points="94.5,-129 94.5,-148 164.5,-148 164.5,-129 94.5,-129"/>
<text text-anchor="middle" x="129.5" y="-136" font-family="Helvetica,sans-Serif" font-size="10.00">settings.hpp</text>
</a>
</g>
</g>
<!-- Node1&#45;&gt;Node11 -->
<g id="edge13" class="edge"><title>Node1&#45;&gt;Node11</title>
<path fill="none" stroke="midnightblue" d="M349.827,-306.971C291.497,-301.199 198.37,-288.682 172.5,-266 140.768,-238.178 132.421,-186.011 130.247,-158.153"/>
<polygon fill="midnightblue" stroke="midnightblue" points="133.74,-157.926 129.655,-148.15 126.752,-158.34 133.74,-157.926"/>
</g>
<!-- Node15 -->
<g id="node15" class="node"><title>Node15</title>
<g id="a_node15"><a xlink:href="connection_8hpp.html" target="_top" xlink:title="network/connection.hpp">
<polygon fill="none" stroke="black" points="517.5,-246.5 517.5,-265.5 637.5,-265.5 637.5,-246.5 517.5,-246.5"/>
<text text-anchor="middle" x="577.5" y="-253.5" font-family="Helvetica,sans-Serif" font-size="10.00">network/connection.hpp</text>
</a>
</g>
</g>
<!-- Node1&#45;&gt;Node15 -->
<g id="edge18" class="edge"><title>Node1&#45;&gt;Node15</title>
<path fill="none" stroke="midnightblue" d="M426.863,-302.444C457.238,-293.28 505.61,-278.688 539.316,-268.519"/>
<polygon fill="midnightblue" stroke="midnightblue" points="540.707,-271.756 549.27,-265.516 538.685,-265.054 540.707,-271.756"/>
</g>
<!-- Node8&#45;&gt;Node2 -->
<g id="edge8" class="edge"><title>Node8&#45;&gt;Node2</title>
<path fill="none" stroke="midnightblue" d="M412.96,-246.324C427,-237.9 448.548,-224.971 465.043,-215.074"/>
<polygon fill="midnightblue" stroke="midnightblue" points="467.302,-217.801 474.076,-209.655 463.7,-211.798 467.302,-217.801"/>
</g>
<!-- Node8&#45;&gt;Node3 -->
<g id="edge9" class="edge"><title>Node8&#45;&gt;Node3</title>
<path fill="none" stroke="midnightblue" d="M376.95,-246.444C354.469,-237.517 319.012,-223.439 293.52,-213.317"/>
<polygon fill="midnightblue" stroke="midnightblue" points="294.535,-209.954 283.949,-209.516 291.951,-216.46 294.535,-209.954"/>
</g>
<!-- Node8&#45;&gt;Node5 -->
<g id="edge11" class="edge"><title>Node8&#45;&gt;Node5</title>
<path fill="none" stroke="midnightblue" d="M390.409,-246.083C383.345,-238.298 372.912,-226.801 364.351,-217.367"/>
<polygon fill="midnightblue" stroke="midnightblue" points="366.753,-214.805 357.441,-209.751 361.569,-219.509 366.753,-214.805"/>
</g>
<!-- Node9 -->
<g id="node9" class="node"><title>Node9</title>
<polygon fill="none" stroke="#bfbfbf" points="298,-62 298,-81 357,-81 357,-62 298,-62"/>
<text text-anchor="middle" x="327.5" y="-69" font-family="Helvetica,sans-Serif" font-size="10.00">functional</text>
</g>
<!-- Node8&#45;&gt;Node9 -->
<g id="edge10" class="edge"><title>Node8&#45;&gt;Node9</title>
<path fill="none" stroke="midnightblue" d="M396.392,-246.47C393.208,-233.936 386.767,-209.876 379.5,-190 366.281,-153.844 347.254,-113.04 336.257,-90.2844"/>
<polygon fill="midnightblue" stroke="midnightblue" points="339.347,-88.6355 331.819,-81.1806 333.055,-91.703 339.347,-88.6355"/>
</g>
<!-- Node10 -->
<g id="node10" class="node"><title>Node10</title>
<polygon fill="none" stroke="#bfbfbf" points="781.5,-62 781.5,-81 825.5,-81 825.5,-62 781.5,-62"/>
<text text-anchor="middle" x="803.5" y="-69" font-family="Helvetica,sans-Serif" font-size="10.00">vector</text>
</g>
<!-- Node8&#45;&gt;Node10 -->
<g id="edge12" class="edge"><title>Node8&#45;&gt;Node10</title>
<path fill="none" stroke="midnightblue" d="M403.752,-246.364C412.75,-232.326 432.486,-204.652 456.5,-190 510.977,-156.762 534.698,-173.382 595.5,-154 675.245,-128.58 694.234,-119.177 771.5,-87 772.872,-86.4285 774.274,-85.8343 775.686,-85.227"/>
<polygon fill="midnightblue" stroke="midnightblue" points="777.236,-88.3687 784.972,-81.1293 774.41,-81.9645 777.236,-88.3687"/>
</g>
<!-- Node11&#45;&gt;Node7 -->
<g id="edge16" class="edge"><title>Node11&#45;&gt;Node7</title>
<path fill="none" stroke="midnightblue" d="M138.941,-128.734C150.171,-118.305 169.121,-100.709 182.837,-87.9732"/>
<polygon fill="midnightblue" stroke="midnightblue" points="185.263,-90.4966 190.209,-81.1273 180.5,-85.3671 185.263,-90.4966"/>
</g>
<!-- Node12 -->
<g id="node12" class="node"><title>Node12</title>
<polygon fill="none" stroke="#bfbfbf" points="585,-0.5 585,-19.5 626,-19.5 626,-0.5 585,-0.5"/>
<text text-anchor="middle" x="605.5" y="-7.5" font-family="Helvetica,sans-Serif" font-size="10.00">string</text>
</g>
<!-- Node11&#45;&gt;Node12 -->
<g id="edge14" class="edge"><title>Node11&#45;&gt;Node12</title>
<path fill="none" stroke="midnightblue" d="M164.536,-134.82C241.419,-128.555 422.521,-111.597 478.5,-87 498.455,-78.2321 498.223,-67.8756 516.5,-56 535.487,-43.6625 558.302,-32.1864 576.079,-23.9114"/>
<polygon fill="midnightblue" stroke="midnightblue" points="577.741,-27 585.38,-19.6584 574.83,-20.6339 577.741,-27"/>
</g>
<!-- Node13 -->
<g id="node13" class="node"><title>Node13</title>
<polygon fill="none" stroke="#bfbfbf" points="284.5,-0.5 284.5,-19.5 330.5,-19.5 330.5,-0.5 284.5,-0.5"/>
<text text-anchor="middle" x="307.5" y="-7.5" font-family="Helvetica,sans-Serif" font-size="10.00">cstdint</text>
</g>
<!-- Node11&#45;&gt;Node13 -->
<g id="edge15" class="edge"><title>Node11&#45;&gt;Node13</title>
<path fill="none" stroke="midnightblue" d="M128.869,-128.808C128.173,-112.307 129.141,-76.2858 148.5,-56 181.308,-21.6204 238.23,-12.8913 274.323,-11.0121"/>
<polygon fill="midnightblue" stroke="midnightblue" points="274.497,-14.5081 284.36,-10.6377 274.236,-7.513 274.497,-14.5081"/>
</g>
<!-- Node14 -->
<g id="node14" class="node"><title>Node14</title>
<polygon fill="none" stroke="#bfbfbf" points="0,-56.5 0,-86.5 101,-86.5 101,-56.5 0,-56.5"/>
<text text-anchor="start" x="8" y="-74.5" font-family="Helvetica,sans-Serif" font-size="10.00">boost/property_tree</text>
<text text-anchor="middle" x="50.5" y="-63.5" font-family="Helvetica,sans-Serif" font-size="10.00">/ptree.hpp</text>
</g>
<!-- Node11&#45;&gt;Node14 -->
<g id="edge17" class="edge"><title>Node11&#45;&gt;Node14</title>
<path fill="none" stroke="midnightblue" d="M118.846,-128.734C107.759,-119.611 90.0046,-105.004 75.3705,-92.9631"/>
<polygon fill="midnightblue" stroke="midnightblue" points="77.5695,-90.2399 67.6236,-86.589 73.1219,-95.6454 77.5695,-90.2399"/>
</g>
<!-- Node15&#45;&gt;Node2 -->
<g id="edge19" class="edge"><title>Node15&#45;&gt;Node2</title>
<path fill="none" stroke="midnightblue" d="M563.201,-246.324C549.317,-237.9 528.008,-224.971 511.696,-215.074"/>
<polygon fill="midnightblue" stroke="midnightblue" points="513.129,-211.85 502.764,-209.655 509.498,-217.834 513.129,-211.85"/>
</g>
<!-- Node15&#45;&gt;Node13 -->
<g id="edge21" class="edge"><title>Node15&#45;&gt;Node13</title>
<path fill="none" stroke="midnightblue" d="M571.788,-246.351C562.459,-232.786 542.744,-206.367 520.5,-190 429.631,-123.139 349.994,-181.583 288.5,-87 276.849,-69.0803 286.664,-44.5206 295.979,-28.2265"/>
<polygon fill="midnightblue" stroke="midnightblue" points="298.967,-30.0489 301.24,-19.7007 293.01,-26.3728 298.967,-30.0489"/>
</g>
<!-- Node16 -->
<g id="node16" class="node"><title>Node16</title>
<polygon fill="none" stroke="#bfbfbf" points="643.5,-190.5 643.5,-209.5 689.5,-209.5 689.5,-190.5 643.5,-190.5"/>
<text text-anchor="middle" x="666.5" y="-197.5" font-family="Helvetica,sans-Serif" font-size="10.00">chrono</text>
</g>
<!-- Node15&#45;&gt;Node16 -->
<g id="edge20" class="edge"><title>Node15&#45;&gt;Node16</title>
<path fill="none" stroke="midnightblue" d="M591.799,-246.324C605.683,-237.9 626.992,-224.971 643.304,-215.074"/>
<polygon fill="midnightblue" stroke="midnightblue" points="645.502,-217.834 652.236,-209.655 641.871,-211.85 645.502,-217.834"/>
</g>
<!-- Node17 -->
<g id="node17" class="node"><title>Node17</title>
<polygon fill="none" stroke="#bfbfbf" points="633.5,-62 633.5,-81 685.5,-81 685.5,-62 633.5,-62"/>
<text text-anchor="middle" x="659.5" y="-69" font-family="Helvetica,sans-Serif" font-size="10.00">sstream</text>
</g>
<!-- Node15&#45;&gt;Node17 -->
<g id="edge22" class="edge"><title>Node15&#45;&gt;Node17</title>
<path fill="none" stroke="midnightblue" d="M581.455,-246.198C594.146,-217.952 634.024,-129.2 651.34,-90.6606"/>
<polygon fill="midnightblue" stroke="midnightblue" points="654.679,-91.7701 655.585,-81.214 648.294,-88.9011 654.679,-91.7701"/>
</g>
<!-- Node18 -->
<g id="node18" class="node"><title>Node18</title>
<g id="a_node18"><a xlink:href="string_8hpp.html" target="_top" xlink:title="../string/string.hpp">
<polygon fill="none" stroke="black" points="492,-129 492,-148 587,-148 587,-129 492,-129"/>
<text text-anchor="middle" x="539.5" y="-136" font-family="Helvetica,sans-Serif" font-size="10.00">../string/string.hpp</text>
</a>
</g>
</g>
<!-- Node15&#45;&gt;Node18 -->
<g id="edge23" class="edge"><title>Node15&#45;&gt;Node18</title>
<path fill="none" stroke="midnightblue" d="M574.644,-246.319C568.482,-227.59 553.827,-183.046 545.518,-157.792"/>
<polygon fill="midnightblue" stroke="midnightblue" points="548.839,-156.687 542.389,-148.282 542.19,-158.875 548.839,-156.687"/>
</g>
<!-- Node24 -->
<g id="node24" class="node"><title>Node24</title>
<g id="a_node24"><a xlink:href="logger_8hpp.html" target="_top" xlink:title="../string/logger.hpp">
<polygon fill="none" stroke="black" points="707.5,-190.5 707.5,-209.5 805.5,-209.5 805.5,-190.5 707.5,-190.5"/>
<text text-anchor="middle" x="756.5" y="-197.5" font-family="Helvetica,sans-Serif" font-size="10.00">../string/logger.hpp</text>
</a>
</g>
</g>
<!-- Node15&#45;&gt;Node24 -->
<g id="edge37" class="edge"><title>Node15&#45;&gt;Node24</title>
<path fill="none" stroke="midnightblue" d="M605.863,-246.444C636.238,-237.28 684.61,-222.688 718.316,-212.519"/>
<polygon fill="midnightblue" stroke="midnightblue" points="719.707,-215.756 728.27,-209.516 717.685,-209.054 719.707,-215.756"/>
</g>
<!-- Node18&#45;&gt;Node7 -->
<g id="edge30" class="edge"><title>Node18&#45;&gt;Node7</title>
<path fill="none" stroke="midnightblue" d="M494.701,-128.936C431.755,-116.902 317.418,-95.0432 251.027,-82.3508"/>
<polygon fill="midnightblue" stroke="midnightblue" points="251.675,-78.9113 241.195,-80.4712 250.36,-85.7867 251.675,-78.9113"/>
</g>
<!-- Node18&#45;&gt;Node9 -->
<g id="edge25" class="edge"><title>Node18&#45;&gt;Node9</title>
<path fill="none" stroke="midnightblue" d="M510.293,-128.974C476.723,-119.116 420.011,-102.282 371.5,-87 368.602,-86.087 365.6,-85.1277 362.59,-84.1555"/>
<polygon fill="midnightblue" stroke="midnightblue" points="363.649,-80.8195 353.056,-81.0481 361.479,-87.4749 363.649,-80.8195"/>
</g>
<!-- Node18&#45;&gt;Node10 -->
<g id="edge31" class="edge"><title>Node18&#45;&gt;Node10</title>
<path fill="none" stroke="midnightblue" d="M587.386,-130.121C634.856,-122.099 709.284,-107.61 771.5,-87 773.367,-86.3814 775.272,-85.6886 777.175,-84.9501"/>
<polygon fill="midnightblue" stroke="midnightblue" points="778.648,-88.1271 786.495,-81.0081 775.921,-81.6801 778.648,-88.1271"/>
</g>
<!-- Node18&#45;&gt;Node12 -->
<g id="edge28" class="edge"><title>Node18&#45;&gt;Node12</title>
<path fill="none" stroke="midnightblue" d="M550.113,-128.972C560.882,-119.746 577.245,-104.053 586.5,-87 596.21,-69.109 601.061,-46.1597 603.415,-30.1823"/>
<polygon fill="midnightblue" stroke="midnightblue" points="606.926,-30.3154 604.722,-19.9525 599.983,-29.4283 606.926,-30.3154"/>
</g>
<!-- Node18&#45;&gt;Node13 -->
<g id="edge24" class="edge"><title>Node18&#45;&gt;Node13</title>
<path fill="none" stroke="midnightblue" d="M508.532,-128.956C480.355,-120.488 438.151,-106.035 404.5,-87 385.228,-76.0984 382.914,-69.6756 365.5,-56 352.56,-45.8383 337.922,-34.4821 326.589,-25.72"/>
<polygon fill="midnightblue" stroke="midnightblue" points="328.703,-22.9306 318.649,-19.5881 324.424,-28.4706 328.703,-22.9306"/>
</g>
<!-- Node18&#45;&gt;Node17 -->
<g id="edge29" class="edge"><title>Node18&#45;&gt;Node17</title>
<path fill="none" stroke="midnightblue" d="M555.684,-128.734C575.926,-117.769 610.797,-98.8809 634.486,-86.0495"/>
<polygon fill="midnightblue" stroke="midnightblue" points="636.447,-88.9677 643.573,-81.1273 633.113,-82.8127 636.447,-88.9677"/>
</g>
<!-- Node19 -->
<g id="node19" class="node"><title>Node19</title>
<polygon fill="none" stroke="#bfbfbf" points="525.5,-62 525.5,-81 577.5,-81 577.5,-62 525.5,-62"/>
<text text-anchor="middle" x="551.5" y="-69" font-family="Helvetica,sans-Serif" font-size="10.00">memory</text>
</g>
<!-- Node18&#45;&gt;Node19 -->
<g id="edge26" class="edge"><title>Node18&#45;&gt;Node19</title>
<path fill="none" stroke="midnightblue" d="M541.118,-128.734C542.882,-119.183 545.755,-103.618 548.032,-91.2829"/>
<polygon fill="midnightblue" stroke="midnightblue" points="551.534,-91.5966 549.907,-81.1273 544.65,-90.3257 551.534,-91.5966"/>
</g>
<!-- Node20 -->
<g id="node20" class="node"><title>Node20</title>
<polygon fill="none" stroke="#bfbfbf" points="704,-62 704,-81 763,-81 763,-62 704,-62"/>
<text text-anchor="middle" x="733.5" y="-69" font-family="Helvetica,sans-Serif" font-size="10.00">stdexcept</text>
</g>
<!-- Node18&#45;&gt;Node20 -->
<g id="edge27" class="edge"><title>Node18&#45;&gt;Node20</title>
<path fill="none" stroke="midnightblue" d="M566.773,-128.987C597.821,-119.209 650.004,-102.513 694.5,-87 696.745,-86.2175 699.056,-85.3965 701.381,-84.56"/>
<polygon fill="midnightblue" stroke="midnightblue" points="702.681,-87.8116 710.872,-81.0917 700.278,-81.2368 702.681,-87.8116"/>
</g>
<!-- Node21 -->
<g id="node21" class="node"><title>Node21</title>
<g id="a_node21"><a xlink:href="color_8hpp.html" target="_top" xlink:title="color.hpp">
<polygon fill="none" stroke="black" points="413.5,-62 413.5,-81 469.5,-81 469.5,-62 413.5,-62"/>
<text text-anchor="middle" x="441.5" y="-69" font-family="Helvetica,sans-Serif" font-size="10.00">color.hpp</text>
</a>
</g>
</g>
<!-- Node18&#45;&gt;Node21 -->
<g id="edge32" class="edge"><title>Node18&#45;&gt;Node21</title>
<path fill="none" stroke="midnightblue" d="M526.283,-128.734C510.046,-117.964 482.283,-99.55 462.969,-86.7395"/>
<polygon fill="midnightblue" stroke="midnightblue" points="464.775,-83.738 454.507,-81.1273 460.906,-89.5715 464.775,-83.738"/>
</g>
<!-- Node21&#45;&gt;Node12 -->
<g id="edge36" class="edge"><title>Node21&#45;&gt;Node12</title>
<path fill="none" stroke="midnightblue" d="M464.997,-61.9751C494.008,-51.4498 543.404,-33.5286 575.229,-21.9823"/>
<polygon fill="midnightblue" stroke="midnightblue" points="576.69,-25.1757 584.897,-18.475 574.302,-18.5954 576.69,-25.1757"/>
</g>
<!-- Node21&#45;&gt;Node13 -->
<g id="edge34" class="edge"><title>Node21&#45;&gt;Node13</title>
<path fill="none" stroke="midnightblue" d="M422.301,-61.9751C399.713,-51.9455 362.001,-35.2002 335.999,-23.6546"/>
<polygon fill="midnightblue" stroke="midnightblue" points="337.223,-20.3685 326.663,-19.5091 334.382,-26.7662 337.223,-20.3685"/>
</g>
<!-- Node22 -->
<g id="node22" class="node"><title>Node22</title>
<polygon fill="none" stroke="#bfbfbf" points="386.5,-0.5 386.5,-19.5 432.5,-19.5 432.5,-0.5 386.5,-0.5"/>
<text text-anchor="middle" x="409.5" y="-7.5" font-family="Helvetica,sans-Serif" font-size="10.00">cctype</text>
</g>
<!-- Node21&#45;&gt;Node22 -->
<g id="edge33" class="edge"><title>Node21&#45;&gt;Node22</title>
<path fill="none" stroke="midnightblue" d="M436.915,-61.9751C432.258,-53.3152 424.908,-39.6486 418.99,-28.6453"/>
<polygon fill="midnightblue" stroke="midnightblue" points="421.895,-26.6584 414.076,-19.5091 415.73,-29.974 421.895,-26.6584"/>
</g>
<!-- Node23 -->
<g id="node23" class="node"><title>Node23</title>
<polygon fill="none" stroke="#bfbfbf" points="451,-0.5 451,-19.5 496,-19.5 496,-0.5 451,-0.5"/>
<text text-anchor="middle" x="473.5" y="-7.5" font-family="Helvetica,sans-Serif" font-size="10.00">cstdlib</text>
</g>
<!-- Node21&#45;&gt;Node23 -->
<g id="edge35" class="edge"><title>Node21&#45;&gt;Node23</title>
<path fill="none" stroke="midnightblue" d="M446.085,-61.9751C450.742,-53.3152 458.092,-39.6486 464.01,-28.6453"/>
<polygon fill="midnightblue" stroke="midnightblue" points="467.27,-29.974 468.924,-19.5091 461.105,-26.6584 467.27,-29.974"/>
</g>
<!-- Node24&#45;&gt;Node4 -->
<g id="edge40" class="edge"><title>Node24&#45;&gt;Node4</title>
<path fill="none" stroke="midnightblue" d="M805.641,-191.901C890.33,-179.645 1055.37,-155.663 1061.5,-154 1064,-153.321 1066.57,-152.519 1069.12,-151.645"/>
<polygon fill="midnightblue" stroke="midnightblue" points="1070.6,-154.827 1078.73,-148.034 1068.14,-148.275 1070.6,-154.827"/>
</g>
<!-- Node24&#45;&gt;Node7 -->
<g id="edge43" class="edge"><title>Node24&#45;&gt;Node7</title>
<path fill="none" stroke="midnightblue" d="M707.316,-191.245C634.428,-179.702 503.986,-158.841 482.5,-154 392.297,-133.678 288.31,-101.397 235.028,-84.194"/>
<polygon fill="midnightblue" stroke="midnightblue" points="235.968,-80.8192 225.376,-81.063 233.808,-87.4777 235.968,-80.8192"/>
</g>
<!-- Node24&#45;&gt;Node11 -->
<g id="edge51" class="edge"><title>Node24&#45;&gt;Node11</title>
<path fill="none" stroke="midnightblue" d="M707.484,-191.163C704.446,-190.749 701.433,-190.357 698.5,-190 597.188,-177.657 290.974,-152.517 174.831,-143.137"/>
<polygon fill="midnightblue" stroke="midnightblue" points="174.77,-139.621 164.521,-142.305 174.207,-146.598 174.77,-139.621"/>
</g>
<!-- Node24&#45;&gt;Node12 -->
<g id="edge42" class="edge"><title>Node24&#45;&gt;Node12</title>
<path fill="none" stroke="midnightblue" d="M805.665,-191.646C876.909,-180.787 1001.2,-160.992 1008.5,-154 1040.33,-123.529 1052.94,-88.7822 1023.5,-56 997.668,-27.2383 728.306,-15.2618 636.189,-11.9869"/>
<polygon fill="midnightblue" stroke="midnightblue" points="636.222,-8.48601 626.107,-11.6383 635.98,-15.4818 636.222,-8.48601"/>
</g>
<!-- Node24&#45;&gt;Node18 -->
<g id="edge50" class="edge"><title>Node24&#45;&gt;Node18</title>
<path fill="none" stroke="midnightblue" d="M725.409,-190.475C687.219,-180.004 622.331,-162.212 580.201,-150.66"/>
<polygon fill="midnightblue" stroke="midnightblue" points="581.103,-147.278 570.533,-148.009 579.252,-154.029 581.103,-147.278"/>
</g>
<!-- Node24&#45;&gt;Node20 -->
<g id="edge41" class="edge"><title>Node24&#45;&gt;Node20</title>
<path fill="none" stroke="midnightblue" d="M742.713,-190.189C731.674,-182.241 716.998,-169.447 710.5,-154 701.541,-132.703 712.25,-106.839 721.854,-90.0425"/>
<polygon fill="midnightblue" stroke="midnightblue" points="724.971,-91.6558 727.225,-81.3035 719.007,-87.9906 724.971,-91.6558"/>
</g>
<!-- Node25 -->
<g id="node25" class="node"><title>Node25</title>
<polygon fill="none" stroke="#bfbfbf" points="719.5,-129 719.5,-148 769.5,-148 769.5,-129 719.5,-129"/>
<text text-anchor="middle" x="744.5" y="-136" font-family="Helvetica,sans-Serif" font-size="10.00">iomanip</text>
</g>
<!-- Node24&#45;&gt;Node25 -->
<g id="edge38" class="edge"><title>Node24&#45;&gt;Node25</title>
<path fill="none" stroke="midnightblue" d="M754.781,-190.475C753.07,-181.992 750.39,-168.704 748.195,-157.822"/>
<polygon fill="midnightblue" stroke="midnightblue" points="751.624,-157.12 746.216,-148.009 744.762,-158.504 751.624,-157.12"/>
</g>
<!-- Node26 -->
<g id="node26" class="node"><title>Node26</title>
<polygon fill="none" stroke="#bfbfbf" points="960.5,-62 960.5,-81 1014.5,-81 1014.5,-62 960.5,-62"/>
<text text-anchor="middle" x="987.5" y="-69" font-family="Helvetica,sans-Serif" font-size="10.00">iostream</text>
</g>
<!-- Node24&#45;&gt;Node26 -->
<g id="edge39" class="edge"><title>Node24&#45;&gt;Node26</title>
<path fill="none" stroke="midnightblue" d="M805.675,-191.173C872.55,-180.294 984.605,-161.137 990.5,-154 1004.9,-136.561 1000.16,-109.15 994.562,-91.0037"/>
<polygon fill="midnightblue" stroke="midnightblue" points="997.786,-89.6157 991.215,-81.3045 991.169,-91.8992 997.786,-89.6157"/>
</g>
<!-- Node27 -->
<g id="node27" class="node"><title>Node27</title>
<polygon fill="none" stroke="#bfbfbf" points="876,-123.5 876,-153.5 981,-153.5 981,-123.5 876,-123.5"/>
<text text-anchor="start" x="884" y="-141.5" font-family="Helvetica,sans-Serif" font-size="10.00">boost/chrono/io/time</text>
<text text-anchor="middle" x="928.5" y="-130.5" font-family="Helvetica,sans-Serif" font-size="10.00">_point_io.hpp</text>
</g>
<!-- Node24&#45;&gt;Node27 -->
<g id="edge44" class="edge"><title>Node24&#45;&gt;Node27</title>
<path fill="none" stroke="midnightblue" d="M781.143,-190.475C806.398,-181.739 846.381,-167.907 878.331,-156.855"/>
<polygon fill="midnightblue" stroke="midnightblue" points="879.657,-160.1 887.963,-153.523 877.368,-153.485 879.657,-160.1"/>
</g>
<!-- Node28 -->
<g id="node28" class="node"><title>Node28</title>
<g id="a_node28"><a xlink:href="multibuf_8hpp.html" target="_top" xlink:title="multibuf.hpp">
<polygon fill="none" stroke="black" points="787.5,-129 787.5,-148 857.5,-148 857.5,-129 787.5,-129"/>
<text text-anchor="middle" x="822.5" y="-136" font-family="Helvetica,sans-Serif" font-size="10.00">multibuf.hpp</text>
</a>
</g>
</g>
<!-- Node24&#45;&gt;Node28 -->
<g id="edge45" class="edge"><title>Node24&#45;&gt;Node28</title>
<path fill="none" stroke="midnightblue" d="M765.956,-190.475C776.248,-181.197 792.916,-166.171 805.494,-154.831"/>
<polygon fill="midnightblue" stroke="midnightblue" points="807.978,-157.305 813.061,-148.009 803.29,-152.105 807.978,-157.305"/>
</g>
<!-- Node28&#45;&gt;Node10 -->
<g id="edge48" class="edge"><title>Node28&#45;&gt;Node10</title>
<path fill="none" stroke="midnightblue" d="M819.938,-128.734C817.117,-119.085 812.503,-103.3 808.88,-90.9063"/>
<polygon fill="midnightblue" stroke="midnightblue" points="812.187,-89.7436 806.022,-81.1273 805.468,-91.7077 812.187,-89.7436"/>
</g>
<!-- Node28&#45;&gt;Node12 -->
<g id="edge49" class="edge"><title>Node28&#45;&gt;Node12</title>
<path fill="none" stroke="midnightblue" d="M842.566,-128.824C873.418,-114.315 926.544,-83.9617 902.5,-56 868.369,-16.3077 705.116,-11.1953 636.251,-10.8372"/>
<polygon fill="midnightblue" stroke="midnightblue" points="636.051,-7.33683 626.043,-10.8159 636.036,-14.3368 636.051,-7.33683"/>
</g>
<!-- Node28&#45;&gt;Node26 -->
<g id="edge46" class="edge"><title>Node28&#45;&gt;Node26</title>
<path fill="none" stroke="midnightblue" d="M844.411,-128.869C873.09,-117.571 923.541,-97.6961 956.23,-84.8183"/>
<polygon fill="midnightblue" stroke="midnightblue" points="957.74,-87.9854 965.761,-81.0637 955.175,-81.4725 957.74,-87.9854"/>
</g>
<!-- Node29 -->
<g id="node29" class="node"><title>Node29</title>
<polygon fill="none" stroke="#bfbfbf" points="843.5,-62 843.5,-81 893.5,-81 893.5,-62 843.5,-62"/>
<text text-anchor="middle" x="868.5" y="-69" font-family="Helvetica,sans-Serif" font-size="10.00">fstream</text>
</g>
<!-- Node28&#45;&gt;Node29 -->
<g id="edge47" class="edge"><title>Node28&#45;&gt;Node29</title>
<path fill="none" stroke="midnightblue" d="M828.704,-128.734C835.808,-118.695 847.613,-102.014 856.525,-89.4213"/>
<polygon fill="midnightblue" stroke="midnightblue" points="859.475,-91.3119 862.395,-81.1273 853.761,-87.2682 859.475,-91.3119"/>
</g>
</g>
</svg>
        <g id="navigator" transform="translate(0 0)" fill="#404254">
                <rect fill="#f2f5e9" fill-opacity="0.5" stroke="#606060" stroke-width=".5" x="0" y="0" width="60" height="60"/>
                <use id="zoomplus" xlink:href="#zoomPlus" x="17" y="9" onmousedown="handleZoom(evt,'in')"/>
                <use id="zoomminus" xlink:href="#zoomMin" x="42" y="9" onmousedown="handleZoom(evt,'out')"/>
                <use id="reset" xlink:href="#resetDef" x="30" y="36" onmousedown="handleReset()"/>
                <g id="arrowUp" xlink:href="#dirArrow" transform="translate(30 24)" onmousedown="handlePan(0,-1)">
                  <use xlink:href="#rim" fill="#404040">
                        <set attributeName="fill" to="#808080" begin="arrowUp.mouseover" end="arrowUp.mouseout"/>
                  </use>
                  <path fill="none" stroke="white" stroke-width="1.5" d="M0,-3.0v7 M-2.5,-0.5L0,-3.0L2.5,-0.5"/>
                </g>
                <g id="arrowRight" xlink:href="#dirArrow" transform="rotate(90) translate(36 -43)" onmousedown="handlePan(1,0)">
                  <use xlink:href="#rim" fill="#404040">
                        <set attributeName="fill" to="#808080" begin="arrowRight.mouseover" end="arrowRight.mouseout"/>
                  </use>
                  <path fill="none" stroke="white" stroke-width="1.5" d="M0,-3.0v7 M-2.5,-0.5L0,-3.0L2.5,-0.5"/>
                </g>
                <g id="arrowDown" xlink:href="#dirArrow" transform="rotate(180) translate(-30 -48)" onmousedown="handlePan(0,1)">
                  <use xlink:href="#rim" fill="#404040">
                        <set attributeName="fill" to="#808080" begin="arrowDown.mouseover" end="arrowDown.mouseout"/>
                  </use>
                  <path fill="none" stroke="white" stroke-width="1.5" d="M0,-3.0v7 M-2.5,-0.5L0,-3.0L2.5,-0.5"/>
                </g>
                <g id="arrowLeft" xlink:href="#dirArrow" transform="rotate(270) translate(-36 17)" onmousedown="handlePan(-1,0)">
                  <use xlink:href="#rim" fill="#404040">
                        <set attributeName="fill" to="#808080" begin="arrowLeft.mouseover" end="arrowLeft.mouseout"/>
                  </use>
                  <path fill="none" stroke="white" stroke-width="1.5" d="M0,-3.0v7 M-2.5,-0.5L0,-3.0L2.5,-0.5"/>
                </g>
        </g>
        <svg viewBox="0 0 15 15" width="100%" height="30px" preserveAspectRatio="xMaxYMin meet">
         <g id="arrow_out" transform="scale(0.3 0.3)">
          <a xlink:href="melanobot_8hpp__incl_org.svg" target="_base">
           <rect id="button" ry="5" rx="5" y="6" x="6" height="38" width="38"
                fill="#f2f5e9" fill-opacity="0.5" stroke="#606060" stroke-width="1.0"/>
           <path id="arrow"
             d="M 11.500037,31.436501 C 11.940474,20.09759 22.043105,11.32322 32.158766,21.979434 L 37.068811,17.246167 C 37.068811,17.246167 37.088388,32 37.088388,32 L 22.160133,31.978069 C 22.160133,31.978069 26.997745,27.140456 26.997745,27.140456 C 18.528582,18.264221 13.291696,25.230495 11.500037,31.436501 z"
             style="fill:#404040;"/>
          </a>
         </g>
        </svg>
</svg>
