<?xml version="1.0" encoding="UTF-8" standalone="no"?>
<!DOCTYPE svg PUBLIC "-//W3C//DTD SVG 1.1//EN"
 "http://www.w3.org/Graphics/SVG/1.1/DTD/svg11.dtd">
<!-- Generated by graphviz version 2.38.0 (20140413.2041)
 -->
<!-- Title: src/melanobot.hpp Pages: 1 -->
<svg width="1091pt" height="196pt"
 viewBox="0.00 0.00 1090.50 196.00" xmlns="http://www.w3.org/2000/svg" xmlns:xlink="http://www.w3.org/1999/xlink">
<g id="graph0" class="graph" transform="scale(1 1) rotate(0) translate(4 192)">
<title>src/melanobot.hpp</title>
<!-- Node1 -->
<g id="node1" class="node"><title>Node1</title>
<polygon fill="#bfbfbf" stroke="black" points="516,-168.5 516,-187.5 613,-187.5 613,-168.5 516,-168.5"/>
<text text-anchor="middle" x="564.5" y="-175.5" font-family="Helvetica,sans-Serif" font-size="10.00">src/melanobot.hpp</text>
</g>
<!-- Node2 -->
<g id="node2" class="node"><title>Node2</title>
<g id="a_node2"><a xlink:href="melanobot_8cpp.html" target="_top" xlink:title="src/melanobot.cpp">
<polygon fill="none" stroke="black" points="0,-56.5 0,-75.5 97,-75.5 97,-56.5 0,-56.5"/>
<text text-anchor="middle" x="48.5" y="-63.5" font-family="Helvetica,sans-Serif" font-size="10.00">src/melanobot.cpp</text>
</a>
</g>
</g>
<!-- Node1&#45;&gt;Node2 -->
<g id="edge1" class="edge"><title>Node1&#45;&gt;Node2</title>
<path fill="none" stroke="midnightblue" d="M514.376,-166.315C412.182,-144.529 181.569,-95.3674 88.5348,-75.5345"/>
<polygon fill="midnightblue" stroke="midnightblue" points="513.93,-169.798 524.44,-168.46 515.389,-162.952 513.93,-169.798"/>
</g>
<!-- Node3 -->
<g id="node3" class="node"><title>Node3</title>
<g id="a_node3"><a xlink:href="handler_8hpp.html" target="_top" xlink:title="src/handler/handler.hpp">
<polygon fill="none" stroke="black" points="370.5,-112.5 370.5,-131.5 488.5,-131.5 488.5,-112.5 370.5,-112.5"/>
<text text-anchor="middle" x="429.5" y="-119.5" font-family="Helvetica,sans-Serif" font-size="10.00">src/handler/handler.hpp</text>
</a>
</g>
</g>
<!-- Node1&#45;&gt;Node3 -->
<g id="edge2" class="edge"><title>Node1&#45;&gt;Node3</title>
<path fill="none" stroke="midnightblue" d="M533.594,-164.638C508.26,-154.504 473.069,-140.427 450.791,-131.516"/>
<polygon fill="midnightblue" stroke="midnightblue" points="532.524,-167.979 543.109,-168.444 535.124,-161.48 532.524,-167.979"/>
</g>
<!-- Node10 -->
<g id="node10" class="node"><title>Node10</title>
<g id="a_node10"><a xlink:href="irc__connection_8hpp.html" target="_top" xlink:title="src/network/irc_connection.hpp">
<polygon fill="none" stroke="black" points="624.5,-112.5 624.5,-131.5 776.5,-131.5 776.5,-112.5 624.5,-112.5"/>
<text text-anchor="middle" x="700.5" y="-119.5" font-family="Helvetica,sans-Serif" font-size="10.00">src/network/irc_connection.hpp</text>
</a>
</g>
</g>
<!-- Node1&#45;&gt;Node10 -->
<g id="edge10" class="edge"><title>Node1&#45;&gt;Node10</title>
<path fill="none" stroke="midnightblue" d="M595.635,-164.638C621.157,-154.504 656.609,-140.427 679.051,-131.516"/>
<polygon fill="midnightblue" stroke="midnightblue" points="594.052,-161.5 586.05,-168.444 596.635,-168.006 594.052,-161.5"/>
</g>
<!-- Node13 -->
<g id="node13" class="node"><title>Node13</title>
<g id="a_node13"><a xlink:href="main_8cpp.html" target="_top" xlink:title="src/main.cpp">
<polygon fill="none" stroke="black" points="795,-112.5 795,-131.5 868,-131.5 868,-112.5 795,-112.5"/>
<text text-anchor="middle" x="831.5" y="-119.5" font-family="Helvetica,sans-Serif" font-size="10.00">src/main.cpp</text>
</a>
</g>
</g>
<!-- Node1&#45;&gt;Node13 -->
<g id="edge14" class="edge"><title>Node1&#45;&gt;Node13</title>
<path fill="none" stroke="midnightblue" d="M616.934,-166.395C669.457,-155.773 748.922,-139.701 794.968,-130.388"/>
<polygon fill="midnightblue" stroke="midnightblue" points="615.915,-163.031 606.807,-168.444 617.302,-169.892 615.915,-163.031"/>
</g>
<!-- Node3&#45;&gt;Node2 -->
<g id="edge3" class="edge"><title>Node3&#45;&gt;Node2</title>
<path fill="none" stroke="midnightblue" d="M360.108,-111.742C294.467,-102.895 193.215,-89.0151 105.5,-76 102.725,-75.5883 99.8755,-75.159 97.0005,-74.7208"/>
<polygon fill="midnightblue" stroke="midnightblue" points="359.953,-115.253 370.33,-113.118 360.886,-108.315 359.953,-115.253"/>
</g>
<!-- Node4 -->
<g id="node4" class="node"><title>Node4</title>
<g id="a_node4"><a xlink:href="ctcp_8cpp.html" target="_top" xlink:title="src/handler/ctcp.cpp">
<polygon fill="none" stroke="black" points="115,-56.5 115,-75.5 220,-75.5 220,-56.5 115,-56.5"/>
<text text-anchor="middle" x="167.5" y="-63.5" font-family="Helvetica,sans-Serif" font-size="10.00">src/handler/ctcp.cpp</text>
</a>
</g>
</g>
<!-- Node3&#45;&gt;Node4 -->
<g id="edge4" class="edge"><title>Node3&#45;&gt;Node4</title>
<path fill="none" stroke="midnightblue" d="M378.117,-110.41C328.602,-100.204 254.638,-84.9597 208.82,-75.5164"/>
<polygon fill="midnightblue" stroke="midnightblue" points="377.485,-113.853 387.985,-112.444 378.898,-106.997 377.485,-113.853"/>
</g>
<!-- Node5 -->
<g id="node5" class="node"><title>Node5</title>
<g id="a_node5"><a xlink:href="web-api_8hpp.html" target="_top" xlink:title="src/handler/web&#45;api.hpp">
<polygon fill="none" stroke="black" points="238.5,-56.5 238.5,-75.5 358.5,-75.5 358.5,-56.5 238.5,-56.5"/>
<text text-anchor="middle" x="298.5" y="-63.5" font-family="Helvetica,sans-Serif" font-size="10.00">src/handler/web&#45;api.hpp</text>
</a>
</g>
</g>
<!-- Node3&#45;&gt;Node5 -->
<g id="edge5" class="edge"><title>Node3&#45;&gt;Node5</title>
<path fill="none" stroke="midnightblue" d="M399.183,-108.503C374.624,-98.3795 340.682,-84.388 319.16,-75.5164"/>
<polygon fill="midnightblue" stroke="midnightblue" points="398.163,-111.868 408.743,-112.444 400.831,-105.397 398.163,-111.868"/>
</g>
<!-- Node7 -->
<g id="node7" class="node"><title>Node7</title>
<g id="a_node7"><a xlink:href="irc__whois_8cpp.html" target="_top" xlink:title="src/handler/irc_whois.cpp">
<polygon fill="none" stroke="black" points="636.5,-56.5 636.5,-75.5 764.5,-75.5 764.5,-56.5 636.5,-56.5"/>
<text text-anchor="middle" x="700.5" y="-63.5" font-family="Helvetica,sans-Serif" font-size="10.00">src/handler/irc_whois.cpp</text>
</a>
</g>
</g>
<!-- Node3&#45;&gt;Node7 -->
<g id="edge7" class="edge"><title>Node3&#45;&gt;Node7</title>
<path fill="none" stroke="midnightblue" d="M482.328,-110.473C533.545,-100.268 610.27,-84.9794 657.76,-75.5164"/>
<polygon fill="midnightblue" stroke="midnightblue" points="481.564,-107.057 472.441,-112.444 482.932,-113.922 481.564,-107.057"/>
</g>
<!-- Node8 -->
<g id="node8" class="node"><title>Node8</title>
<g id="a_node8"><a xlink:href="core_8cpp.html" target="_top" xlink:title="This file defines handlers which are essential for proper usage of the bot. ">
<polygon fill="none" stroke="black" points="377,-56.5 377,-75.5 482,-75.5 482,-56.5 377,-56.5"/>
<text text-anchor="middle" x="429.5" y="-63.5" font-family="Helvetica,sans-Serif" font-size="10.00">src/handler/core.cpp</text>
</a>
</g>
</g>
<!-- Node3&#45;&gt;Node8 -->
<g id="edge8" class="edge"><title>Node3&#45;&gt;Node8</title>
<path fill="none" stroke="midnightblue" d="M429.5,-101.805C429.5,-92.9102 429.5,-82.7798 429.5,-75.7511"/>
<polygon fill="midnightblue" stroke="midnightblue" points="426,-102.083 429.5,-112.083 433,-102.083 426,-102.083"/>
</g>
<!-- Node9 -->
<g id="node9" class="node"><title>Node9</title>
<g id="a_node9"><a xlink:href="handler_8cpp.html" target="_top" xlink:title="src/handler/handler.cpp">
<polygon fill="none" stroke="black" points="500.5,-56.5 500.5,-75.5 618.5,-75.5 618.5,-56.5 500.5,-56.5"/>
<text text-anchor="middle" x="559.5" y="-63.5" font-family="Helvetica,sans-Serif" font-size="10.00">src/handler/handler.cpp</text>
</a>
</g>
</g>
<!-- Node3&#45;&gt;Node9 -->
<g id="edge9" class="edge"><title>Node3&#45;&gt;Node9</title>
<path fill="none" stroke="midnightblue" d="M459.585,-108.503C483.957,-98.3795 517.64,-84.388 538.997,-75.5164"/>
<polygon fill="midnightblue" stroke="midnightblue" points="457.991,-105.375 450.099,-112.444 460.677,-111.84 457.991,-105.375"/>
</g>
<!-- Node6 -->
<g id="node6" class="node"><title>Node6</title>
<g id="a_node6"><a xlink:href="web-api_8cpp.html" target="_top" xlink:title="src/handler/web&#45;api.cpp">
<polygon fill="none" stroke="black" points="238.5,-0.5 238.5,-19.5 358.5,-19.5 358.5,-0.5 238.5,-0.5"/>
<text text-anchor="middle" x="298.5" y="-7.5" font-family="Helvetica,sans-Serif" font-size="10.00">src/handler/web&#45;api.cpp</text>
</a>
</g>
</g>
<!-- Node5&#45;&gt;Node6 -->
<g id="edge6" class="edge"><title>Node5&#45;&gt;Node6</title>
<path fill="none" stroke="midnightblue" d="M298.5,-45.8045C298.5,-36.9102 298.5,-26.7798 298.5,-19.7511"/>
<polygon fill="midnightblue" stroke="midnightblue" points="295,-46.083 298.5,-56.083 302,-46.083 295,-46.083"/>
</g>
<!-- Node10&#45;&gt;Node7 -->
<g id="edge11" class="edge"><title>Node10&#45;&gt;Node7</title>
<path fill="none" stroke="midnightblue" d="M700.5,-101.805C700.5,-92.9102 700.5,-82.7798 700.5,-75.7511"/>
<polygon fill="midnightblue" stroke="midnightblue" points="697,-102.083 700.5,-112.083 704,-102.083 697,-102.083"/>
</g>
<!-- Node11 -->
<g id="node11" class="node"><title>Node11</title>
<g id="a_node11"><a xlink:href="irc__connection_8cpp.html" target="_top" xlink:title="src/network/irc_connection.cpp">
<polygon fill="none" stroke="black" points="782.5,-56.5 782.5,-75.5 934.5,-75.5 934.5,-56.5 782.5,-56.5"/>
<text text-anchor="middle" x="858.5" y="-63.5" font-family="Helvetica,sans-Serif" font-size="10.00">src/network/irc_connection.cpp</text>
</a>
</g>
</g>
<!-- Node10&#45;&gt;Node11 -->
<g id="edge12" class="edge"><title>Node10&#45;&gt;Node11</title>
<path fill="none" stroke="midnightblue" d="M735.108,-109.172C764.859,-99.0039 807.047,-84.5852 833.582,-75.5164"/>
<polygon fill="midnightblue" stroke="midnightblue" points="733.866,-105.898 725.536,-112.444 736.13,-112.521 733.866,-105.898"/>
</g>
<!-- Node12 -->
<g id="node12" class="node"><title>Node12</title>
<g id="a_node12"><a xlink:href="irc__buffer_8cpp.html" target="_top" xlink:title="src/network/irc_buffer.cpp">
<polygon fill="none" stroke="black" points="952.5,-56.5 952.5,-75.5 1082.5,-75.5 1082.5,-56.5 952.5,-56.5"/>
<text text-anchor="middle" x="1017.5" y="-63.5" font-family="Helvetica,sans-Serif" font-size="10.00">src/network/irc_buffer.cpp</text>
</a>
</g>
</g>
<!-- Node10&#45;&gt;Node12 -->
<g id="edge13" class="edge"><title>Node10&#45;&gt;Node12</title>
<path fill="none" stroke="midnightblue" d="M760.803,-110.727C820.707,-100.523 911.491,-85.0583 967.505,-75.5164"/>
<polygon fill="midnightblue" stroke="midnightblue" points="760,-107.314 750.73,-112.444 761.175,-114.214 760,-107.314"/>
</g>
</g>
</svg>
