<?xml version="1.0" encoding="UTF-8" standalone="no"?>
<!DOCTYPE svg PUBLIC "-//W3C//DTD SVG 1.1//EN"
 "http://www.w3.org/Graphics/SVG/1.1/DTD/svg11.dtd">
<!-- Generated by graphviz version 2.38.0 (20140413.2041)
 -->
<!-- Title: src/melanobot.hpp Pages: 1 -->
<!--zoomable 386 -->
<svg id="main" version="1.1" xmlns="http://www.w3.org/2000/svg" xmlns:xlink="http://www.w3.org/1999/xlink" xml:space="preserve" onload="init(evt)">
<style type="text/css"><![CDATA[
.edge:hover path { stroke: red; }
.edge:hover polygon { stroke: red; fill: red; }
]]></style>
<script type="text/javascript"><![CDATA[
var edges = document.getElementsByTagName('g');
if (edges && edges.length) {
  for (var i=0;i<edges.length;i++) {
    if (edges[i].id.substr(0,4)=='edge') {
      edges[i].setAttribute('class','edge');
    }
  }
}
]]></script>
        <defs>
                <circle id="rim" cx="0" cy="0" r="7"/>
                <circle id="rim2" cx="0" cy="0" r="3.5"/>
                <g id="zoomPlus">
                        <use xlink:href="#rim" fill="#404040">
                                <set attributeName="fill" to="#808080" begin="zoomplus.mouseover" end="zoomplus.mouseout"/>
                        </use>
                        <path d="M-4,0h8M0,-4v8" fill="none" stroke="white" stroke-width="1.5" pointer-events="none"/>
                </g>
                <g id="zoomMin">
                        <use xlink:href="#rim" fill="#404040">
                                <set attributeName="fill" to="#808080" begin="zoomminus.mouseover" end="zoomminus.mouseout"/>
                        </use>
                        <path d="M-4,0h8" fill="none" stroke="white" stroke-width="1.5" pointer-events="none"/>
                </g>
                <g id="dirArrow">
                        <path fill="none" stroke="white" stroke-width="1.5" d="M0,-3.0v7 M-2.5,-0.5L0,-3.0L2.5,-0.5"/>
                </g>
               <g id="resetDef">
                       <use xlink:href="#rim2" fill="#404040">
                               <set attributeName="fill" to="#808080" begin="reset.mouseover" end="reset.mouseout"/>
                       </use>
               </g>
        </defs>

<script type="text/javascript">
var viewWidth = 1509;
var viewHeight = 386;
var sectionId = 'dynsection-0';
</script>
<script xlink:href="svgpan.js"/>
<svg id="graph" class="graph">
<g id="viewport">
<title>src/melanobot.hpp</title>
<!-- Node1 -->
<g id="node1" class="node"><title>Node1</title>
<polygon fill="#bfbfbf" stroke="black" points="403.5,-358.5 403.5,-377.5 500.5,-377.5 500.5,-358.5 403.5,-358.5"/>
<text text-anchor="middle" x="452" y="-365.5" font-family="Helvetica,sans-Serif" font-size="10.00">src/melanobot.hpp</text>
</g>
<!-- Node2 -->
<g id="node2" class="node"><title>Node2</title>
<polygon fill="none" stroke="#bfbfbf" points="283,-246.5 283,-265.5 329,-265.5 329,-246.5 283,-246.5"/>
<text text-anchor="middle" x="306" y="-253.5" font-family="Helvetica,sans-Serif" font-size="10.00">atomic</text>
</g>
<!-- Node1&#45;&gt;Node2 -->
<g id="edge1" class="edge"><title>Node1&#45;&gt;Node2</title>
<path fill="none" stroke="midnightblue" d="M440.544,-358.368C415.703,-339.653 356.637,-295.151 325.687,-271.832"/>
<polygon fill="midnightblue" stroke="midnightblue" points="327.496,-268.814 317.403,-265.591 323.284,-274.404 327.496,-268.814"/>
</g>
<!-- Node3 -->
<g id="node3" class="node"><title>Node3</title>
<polygon fill="none" stroke="#bfbfbf" points="28.5,-246.5 28.5,-265.5 123.5,-265.5 123.5,-246.5 28.5,-246.5"/>
<text text-anchor="middle" x="76" y="-253.5" font-family="Helvetica,sans-Serif" font-size="10.00">condition_variable</text>
</g>
<!-- Node1&#45;&gt;Node3 -->
<g id="edge2" class="edge"><title>Node1&#45;&gt;Node3</title>
<path fill="none" stroke="midnightblue" d="M403.468,-366.411C344.637,-364.145 243.504,-355.201 164,-322 136.239,-310.407 109.144,-288.277 92.5168,-273.087"/>
<polygon fill="midnightblue" stroke="midnightblue" points="94.5144,-270.161 84.8283,-265.868 89.7231,-275.265 94.5144,-270.161"/>
</g>
<!-- Node4 -->
<g id="node4" class="node"><title>Node4</title>
<polygon fill="none" stroke="#bfbfbf" points="1039,-129 1039,-148 1083,-148 1083,-129 1039,-129"/>
<text text-anchor="middle" x="1061" y="-136" font-family="Helvetica,sans-Serif" font-size="10.00">mutex</text>
</g>
<!-- Node1&#45;&gt;Node4 -->
<g id="edge3" class="edge"><title>Node1&#45;&gt;Node4</title>
<path fill="none" stroke="midnightblue" d="M500.643,-367.037C605.377,-366.368 848.527,-360.571 920,-322 989.89,-284.283 1036.12,-195.453 1053.4,-157.358"/>
<polygon fill="midnightblue" stroke="midnightblue" points="1056.68,-158.606 1057.5,-148.043 1050.27,-155.785 1056.68,-158.606"/>
</g>
<!-- Node5 -->
<g id="node5" class="node"><title>Node5</title>
<polygon fill="none" stroke="#bfbfbf" points="141.5,-246.5 141.5,-265.5 184.5,-265.5 184.5,-246.5 141.5,-246.5"/>
<text text-anchor="middle" x="163" y="-253.5" font-family="Helvetica,sans-Serif" font-size="10.00">queue</text>
</g>
<!-- Node1&#45;&gt;Node5 -->
<g id="edge4" class="edge"><title>Node1&#45;&gt;Node5</title>
<path fill="none" stroke="midnightblue" d="M403.308,-365.163C334.046,-361.542 211.915,-351.111 180,-322 167.227,-310.349 163.546,-290.4 162.71,-275.668"/>
<polygon fill="midnightblue" stroke="midnightblue" points="166.209,-275.575 162.523,-265.643 159.21,-275.706 166.209,-275.575"/>
</g>
<!-- Node6 -->
<g id="node6" class="node"><title>Node6</title>
<polygon fill="none" stroke="#bfbfbf" points="1110,-302.5 1110,-321.5 1154,-321.5 1154,-302.5 1110,-302.5"/>
<text text-anchor="middle" x="1132" y="-309.5" font-family="Helvetica,sans-Serif" font-size="10.00">thread</text>
</g>
<!-- Node1&#45;&gt;Node6 -->
<g id="edge5" class="edge"><title>Node1&#45;&gt;Node6</title>
<path fill="none" stroke="midnightblue" d="M500.801,-366.499C608.761,-364.758 875.721,-356.955 1096,-322 1097.25,-321.801 1098.53,-321.58 1099.81,-321.34"/>
<polygon fill="midnightblue" stroke="midnightblue" points="1100.61,-324.748 1109.66,-319.23 1099.15,-317.903 1100.61,-324.748"/>
</g>
<!-- Node7 -->
<g id="node7" class="node"><title>Node7</title>
<polygon fill="none" stroke="#bfbfbf" points="344.5,-6 344.5,-25 427.5,-25 427.5,-6 344.5,-6"/>
<text text-anchor="middle" x="386" y="-13" font-family="Helvetica,sans-Serif" font-size="10.00">unordered_map</text>
</g>
<!-- Node1&#45;&gt;Node7 -->
<g id="edge6" class="edge"><title>Node1&#45;&gt;Node7</title>
<path fill="none" stroke="midnightblue" d="M403.199,-365.406C286.321,-360.266 0,-339.277 0,-257 0,-257 0,-257 0,-137.5 0,-68.2596 229.008,-33.8966 334.237,-21.7616"/>
<polygon fill="midnightblue" stroke="midnightblue" points="334.78,-25.2226 344.324,-20.6228 333.995,-18.2668 334.78,-25.2226"/>
</g>
<!-- Node8 -->
<g id="node8" class="node"><title>Node8</title>
<g id="a_node8"><a xlink:href="concurrent__container_8hpp.html" target="_top" xlink:title="concurrent_container.hpp">
<polygon fill="none" stroke="black" points="189,-302.5 189,-321.5 315,-321.5 315,-302.5 189,-302.5"/>
<text text-anchor="middle" x="252" y="-309.5" font-family="Helvetica,sans-Serif" font-size="10.00">concurrent_container.hpp</text>
</a>
</g>
</g>
<!-- Node1&#45;&gt;Node8 -->
<g id="edge7" class="edge"><title>Node1&#45;&gt;Node8</title>
<path fill="none" stroke="midnightblue" d="M420.309,-358.444C385.932,-349.162 330.923,-334.309 293.211,-324.127"/>
<polygon fill="midnightblue" stroke="midnightblue" points="294.109,-320.744 283.542,-321.516 292.284,-327.502 294.109,-320.744"/>
</g>
<!-- Node11 -->
<g id="node11" class="node"><title>Node11</title>
<g id="a_node11"><a xlink:href="settings_8hpp.html" target="_top" xlink:title="settings.hpp">
<polygon fill="none" stroke="black" points="641,-67.5 641,-86.5 711,-86.5 711,-67.5 641,-67.5"/>
<text text-anchor="middle" x="676" y="-74.5" font-family="Helvetica,sans-Serif" font-size="10.00">settings.hpp</text>
</a>
</g>
</g>
<!-- Node1&#45;&gt;Node11 -->
<g id="edge13" class="edge"><title>Node1&#45;&gt;Node11</title>
<path fill="none" stroke="midnightblue" d="M485.439,-358.413C529.369,-344.884 601,-314.073 601,-257 601,-257 601,-257 601,-199 601,-164.183 601.228,-152.323 620,-123 627.959,-110.567 640.529,-100.012 651.745,-92.2551"/>
<polygon fill="midnightblue" stroke="midnightblue" points="653.872,-95.0467 660.336,-86.6522 650.048,-89.1835 653.872,-95.0467"/>
</g>
<!-- Node15 -->
<g id="node15" class="node"><title>Node15</title>
<g id="a_node15"><a xlink:href="connection_8hpp.html" target="_top" xlink:title="network/connection.hpp">
<polygon fill="none" stroke="black" points="791,-302.5 791,-321.5 911,-321.5 911,-302.5 791,-302.5"/>
<text text-anchor="middle" x="851" y="-309.5" font-family="Helvetica,sans-Serif" font-size="10.00">network/connection.hpp</text>
</a>
</g>
</g>
<!-- Node1&#45;&gt;Node15 -->
<g id="edge18" class="edge"><title>Node1&#45;&gt;Node15</title>
<path fill="none" stroke="midnightblue" d="M500.526,-360.433C570.533,-350.958 700.271,-333.399 780.746,-322.508"/>
<polygon fill="midnightblue" stroke="midnightblue" points="781.352,-325.958 790.793,-321.148 780.414,-319.021 781.352,-325.958"/>
</g>
<!-- Node40 -->
<g id="node40" class="node"><title>Node40</title>
<g id="a_node40"><a xlink:href="handler__container_8hpp.html" target="_top" xlink:title="handler/handler_container.hpp">
<polygon fill="none" stroke="black" points="427,-190.5 427,-209.5 573,-209.5 573,-190.5 427,-190.5"/>
<text text-anchor="middle" x="500" y="-197.5" font-family="Helvetica,sans-Serif" font-size="10.00">handler/handler_container.hpp</text>
</a>
</g>
</g>
<!-- Node1&#45;&gt;Node40 -->
<g id="edge71" class="edge"><title>Node1&#45;&gt;Node40</title>
<path fill="none" stroke="midnightblue" d="M454.581,-358.075C462.136,-331.945 484.325,-255.211 494.628,-219.577"/>
<polygon fill="midnightblue" stroke="midnightblue" points="498.107,-220.147 497.522,-209.568 491.382,-218.202 498.107,-220.147"/>
</g>
<!-- Node8&#45;&gt;Node2 -->
<g id="edge8" class="edge"><title>Node8&#45;&gt;Node2</title>
<path fill="none" stroke="midnightblue" d="M260.917,-302.083C268.78,-294.22 280.431,-282.569 289.919,-273.081"/>
<polygon fill="midnightblue" stroke="midnightblue" points="292.653,-275.297 297.249,-265.751 287.703,-270.347 292.653,-275.297"/>
</g>
<!-- Node8&#45;&gt;Node3 -->
<g id="edge9" class="edge"><title>Node8&#45;&gt;Node3</title>
<path fill="none" stroke="midnightblue" d="M224.112,-302.444C194.246,-293.28 146.685,-278.688 113.544,-268.519"/>
<polygon fill="midnightblue" stroke="midnightblue" points="114.344,-265.104 103.757,-265.516 112.291,-271.796 114.344,-265.104"/>
</g>
<!-- Node8&#45;&gt;Node5 -->
<g id="edge11" class="edge"><title>Node8&#45;&gt;Node5</title>
<path fill="none" stroke="midnightblue" d="M237.701,-302.324C223.817,-293.9 202.508,-280.971 186.196,-271.074"/>
<polygon fill="midnightblue" stroke="midnightblue" points="187.629,-267.85 177.264,-265.655 183.998,-273.834 187.629,-267.85"/>
</g>
<!-- Node9 -->
<g id="node9" class="node"><title>Node9</title>
<polygon fill="none" stroke="#bfbfbf" points="247.5,-67.5 247.5,-86.5 306.5,-86.5 306.5,-67.5 247.5,-67.5"/>
<text text-anchor="middle" x="277" y="-74.5" font-family="Helvetica,sans-Serif" font-size="10.00">functional</text>
</g>
<!-- Node8&#45;&gt;Node9 -->
<g id="edge10" class="edge"><title>Node8&#45;&gt;Node9</title>
<path fill="none" stroke="midnightblue" d="M248.144,-302.249C244.442,-293.333 239.111,-279.006 237,-266 226.82,-203.265 214.414,-182.407 237,-123 241.335,-111.598 250.031,-101.239 258.21,-93.343"/>
<polygon fill="midnightblue" stroke="midnightblue" points="260.642,-95.8633 265.734,-86.5728 255.959,-90.6595 260.642,-95.8633"/>
</g>
<!-- Node10 -->
<g id="node10" class="node"><title>Node10</title>
<polygon fill="none" stroke="#bfbfbf" points="503,-67.5 503,-86.5 547,-86.5 547,-67.5 503,-67.5"/>
<text text-anchor="middle" x="525" y="-74.5" font-family="Helvetica,sans-Serif" font-size="10.00">vector</text>
</g>
<!-- Node8&#45;&gt;Node10 -->
<g id="edge12" class="edge"><title>Node8&#45;&gt;Node10</title>
<path fill="none" stroke="midnightblue" d="M254.026,-302.233C257.196,-289.404 264.016,-264.979 274,-246 305.783,-185.583 309.742,-161.67 366,-123 404.506,-96.5318 458.375,-85.5279 492.472,-81.0246"/>
<polygon fill="midnightblue" stroke="midnightblue" points="493.294,-84.4509 502.803,-79.7795 492.457,-77.5012 493.294,-84.4509"/>
</g>
<!-- Node11&#45;&gt;Node7 -->
<g id="edge16" class="edge"><title>Node11&#45;&gt;Node7</title>
<path fill="none" stroke="midnightblue" d="M640.73,-68.7636C590.036,-58.3626 496.25,-39.1202 437.713,-27.11"/>
<polygon fill="midnightblue" stroke="midnightblue" points="438.066,-23.6097 427.567,-25.0284 436.659,-30.4669 438.066,-23.6097"/>
</g>
<!-- Node12 -->
<g id="node12" class="node"><title>Node12</title>
<polygon fill="none" stroke="#bfbfbf" points="731.5,-6 731.5,-25 772.5,-25 772.5,-6 731.5,-6"/>
<text text-anchor="middle" x="752" y="-13" font-family="Helvetica,sans-Serif" font-size="10.00">string</text>
</g>
<!-- Node11&#45;&gt;Node12 -->
<g id="edge14" class="edge"><title>Node11&#45;&gt;Node12</title>
<path fill="none" stroke="midnightblue" d="M686.889,-67.4751C698.966,-58.0199 718.667,-42.5961 733.24,-31.1871"/>
<polygon fill="midnightblue" stroke="midnightblue" points="735.415,-33.9295 741.131,-25.0091 731.1,-28.4177 735.415,-33.9295"/>
</g>
<!-- Node13 -->
<g id="node13" class="node"><title>Node13</title>
<polygon fill="none" stroke="#bfbfbf" points="1094,-6 1094,-25 1140,-25 1140,-6 1094,-6"/>
<text text-anchor="middle" x="1117" y="-13" font-family="Helvetica,sans-Serif" font-size="10.00">cstdint</text>
</g>
<!-- Node11&#45;&gt;Node13 -->
<g id="edge15" class="edge"><title>Node11&#45;&gt;Node13</title>
<path fill="none" stroke="midnightblue" d="M711.029,-72.154C809.697,-61.3183 1082.87,-31.3024 1084,-31 1086.29,-30.3848 1088.64,-29.633 1090.96,-28.7989"/>
<polygon fill="midnightblue" stroke="midnightblue" points="1092.27,-32.0412 1100.23,-25.0441 1089.65,-25.5529 1092.27,-32.0412"/>
</g>
<!-- Node14 -->
<g id="node14" class="node"><title>Node14</title>
<polygon fill="none" stroke="#bfbfbf" points="612.5,-0.5 612.5,-30.5 713.5,-30.5 713.5,-0.5 612.5,-0.5"/>
<text text-anchor="start" x="620.5" y="-18.5" font-family="Helvetica,sans-Serif" font-size="10.00">boost/property_tree</text>
<text text-anchor="middle" x="663" y="-7.5" font-family="Helvetica,sans-Serif" font-size="10.00">/ptree.hpp</text>
</g>
<!-- Node11&#45;&gt;Node14 -->
<g id="edge17" class="edge"><title>Node11&#45;&gt;Node14</title>
<path fill="none" stroke="midnightblue" d="M674.137,-67.4751C672.591,-60.3957 670.313,-49.9705 668.22,-40.3896"/>
<polygon fill="midnightblue" stroke="midnightblue" points="671.618,-39.5454 666.064,-30.523 664.779,-41.0396 671.618,-39.5454"/>
</g>
<!-- Node15&#45;&gt;Node2 -->
<g id="edge19" class="edge"><title>Node15&#45;&gt;Node2</title>
<path fill="none" stroke="midnightblue" d="M790.882,-309.358C696.45,-305.984 507.603,-296.025 339.331,-265.919"/>
<polygon fill="midnightblue" stroke="midnightblue" points="339.766,-262.441 329.301,-264.096 338.514,-269.328 339.766,-262.441"/>
</g>
<!-- Node15&#45;&gt;Node13 -->
<g id="edge21" class="edge"><title>Node15&#45;&gt;Node13</title>
<path fill="none" stroke="midnightblue" d="M911.183,-307.096C1072.07,-295.859 1500,-260.39 1500,-201 1500,-201 1500,-201 1500,-137.5 1500,-105.049 1505.34,-88.4637 1481,-67 1432.23,-23.9902 1230.33,-17.456 1150.09,-16.5786"/>
<polygon fill="midnightblue" stroke="midnightblue" points="1150.08,-13.0785 1140.05,-16.4919 1150.02,-20.0782 1150.08,-13.0785"/>
</g>
<!-- Node16 -->
<g id="node16" class="node"><title>Node16</title>
<polygon fill="none" stroke="#bfbfbf" points="910,-246.5 910,-265.5 956,-265.5 956,-246.5 910,-246.5"/>
<text text-anchor="middle" x="933" y="-253.5" font-family="Helvetica,sans-Serif" font-size="10.00">chrono</text>
</g>
<!-- Node15&#45;&gt;Node16 -->
<g id="edge20" class="edge"><title>Node15&#45;&gt;Node16</title>
<path fill="none" stroke="midnightblue" d="M864.175,-302.324C876.847,-293.979 896.233,-281.212 911.206,-271.352"/>
<polygon fill="midnightblue" stroke="midnightblue" points="913.431,-274.078 919.858,-265.655 909.581,-268.231 913.431,-274.078"/>
</g>
<!-- Node17 -->
<g id="node17" class="node"><title>Node17</title>
<polygon fill="none" stroke="#bfbfbf" points="1141,-67.5 1141,-86.5 1193,-86.5 1193,-67.5 1141,-67.5"/>
<text text-anchor="middle" x="1167" y="-74.5" font-family="Helvetica,sans-Serif" font-size="10.00">sstream</text>
</g>
<!-- Node15&#45;&gt;Node17 -->
<g id="edge22" class="edge"><title>Node15&#45;&gt;Node17</title>
<path fill="none" stroke="midnightblue" d="M880.893,-302.355C904.695,-294.745 938.324,-282.331 965,-266 1045.98,-216.422 1122.65,-130.92 1153.14,-94.8398"/>
<polygon fill="midnightblue" stroke="midnightblue" points="1156.15,-96.7016 1159.88,-86.7836 1150.78,-92.2132 1156.15,-96.7016"/>
</g>
<!-- Node18 -->
<g id="node18" class="node"><title>Node18</title>
<g id="a_node18"><a xlink:href="string_8hpp.html" target="_top" xlink:title="string/string.hpp">
<polygon fill="none" stroke="black" points="935,-129 935,-148 1021,-148 1021,-129 935,-129"/>
<text text-anchor="middle" x="978" y="-136" font-family="Helvetica,sans-Serif" font-size="10.00">string/string.hpp</text>
</a>
</g>
</g>
<!-- Node15&#45;&gt;Node18 -->
<g id="edge23" class="edge"><title>Node15&#45;&gt;Node18</title>
<path fill="none" stroke="midnightblue" d="M857.473,-302.26C877.518,-275.191 938.817,-192.413 965.439,-156.462"/>
<polygon fill="midnightblue" stroke="midnightblue" points="968.553,-158.139 971.691,-148.019 962.927,-153.973 968.553,-158.139"/>
</g>
<!-- Node24 -->
<g id="node24" class="node"><title>Node24</title>
<g id="a_node24"><a xlink:href="logger_8hpp.html" target="_top" xlink:title="string/logger.hpp">
<polygon fill="none" stroke="black" points="764.5,-190.5 764.5,-209.5 853.5,-209.5 853.5,-190.5 764.5,-190.5"/>
<text text-anchor="middle" x="809" y="-197.5" font-family="Helvetica,sans-Serif" font-size="10.00">string/logger.hpp</text>
</a>
</g>
</g>
<!-- Node15&#45;&gt;Node24 -->
<g id="edge37" class="edge"><title>Node15&#45;&gt;Node24</title>
<path fill="none" stroke="midnightblue" d="M847.704,-302.368C840.865,-284.456 825.007,-242.923 815.853,-218.948"/>
<polygon fill="midnightblue" stroke="midnightblue" points="819.117,-217.685 812.28,-209.591 812.578,-220.182 819.117,-217.685"/>
</g>
<!-- Node30 -->
<g id="node30" class="node"><title>Node30</title>
<g id="a_node30"><a xlink:href="string__functions_8hpp.html" target="_top" xlink:title="string/string_functions.hpp">
<polygon fill="none" stroke="black" points="1173.5,-129 1173.5,-148 1304.5,-148 1304.5,-129 1173.5,-129"/>
<text text-anchor="middle" x="1239" y="-136" font-family="Helvetica,sans-Serif" font-size="10.00">string/string_functions.hpp</text>
</a>
</g>
</g>
<!-- Node15&#45;&gt;Node30 -->
<g id="edge52" class="edge"><title>Node15&#45;&gt;Node30</title>
<path fill="none" stroke="midnightblue" d="M895.818,-302.443C930.5,-295.023 979.314,-282.82 1020,-266 1097.06,-234.143 1180.31,-179.937 1218.15,-154.072"/>
<polygon fill="midnightblue" stroke="midnightblue" points="1220.52,-156.693 1226.77,-148.137 1216.55,-150.929 1220.52,-156.693"/>
</g>
<!-- Node35 -->
<g id="node35" class="node"><title>Node35</title>
<g id="a_node35"><a xlink:href="auth__system_8hpp.html" target="_top" xlink:title="user/auth_system.hpp">
<polygon fill="none" stroke="black" points="347.5,-246.5 347.5,-265.5 460.5,-265.5 460.5,-246.5 347.5,-246.5"/>
<text text-anchor="middle" x="404" y="-253.5" font-family="Helvetica,sans-Serif" font-size="10.00">user/auth_system.hpp</text>
</a>
</g>
</g>
<!-- Node15&#45;&gt;Node35 -->
<g id="edge59" class="edge"><title>Node15&#45;&gt;Node35</title>
<path fill="none" stroke="midnightblue" d="M790.716,-303.717C707.276,-293.637 557.105,-275.496 470.494,-265.033"/>
<polygon fill="midnightblue" stroke="midnightblue" points="470.861,-261.552 460.514,-263.827 470.022,-268.501 470.861,-261.552"/>
</g>
<!-- Node38 -->
<g id="node38" class="node"><title>Node38</title>
<g id="a_node38"><a xlink:href="user__manager_8hpp.html" target="_top" xlink:title="user/user_manager.hpp">
<polygon fill="none" stroke="black" points="665.5,-246.5 665.5,-265.5 784.5,-265.5 784.5,-246.5 665.5,-246.5"/>
<text text-anchor="middle" x="725" y="-253.5" font-family="Helvetica,sans-Serif" font-size="10.00">user/user_manager.hpp</text>
</a>
</g>
</g>
<!-- Node15&#45;&gt;Node38 -->
<g id="edge68" class="edge"><title>Node15&#45;&gt;Node38</title>
<path fill="none" stroke="midnightblue" d="M831.035,-302.444C810.391,-293.596 777.937,-279.687 754.368,-269.586"/>
<polygon fill="midnightblue" stroke="midnightblue" points="755.442,-266.239 744.872,-265.516 752.684,-272.673 755.442,-266.239"/>
</g>
<!-- Node18&#45;&gt;Node7 -->
<g id="edge30" class="edge"><title>Node18&#45;&gt;Node7</title>
<path fill="none" stroke="midnightblue" d="M959.905,-128.861C939.111,-118.899 903.991,-101.969 874,-87 856.571,-78.3006 853.65,-72.6249 835,-67 761.757,-44.9097 539.471,-27.1651 437.778,-19.968"/>
<polygon fill="midnightblue" stroke="midnightblue" points="437.959,-16.4722 427.738,-19.264 437.469,-23.455 437.959,-16.4722"/>
</g>
<!-- Node18&#45;&gt;Node9 -->
<g id="edge25" class="edge"><title>Node18&#45;&gt;Node9</title>
<path fill="none" stroke="midnightblue" d="M934.799,-132.111C910.011,-129.143 878.288,-125.554 850,-123 616.331,-101.899 553.027,-121.309 316.648,-86.8369"/>
<polygon fill="midnightblue" stroke="midnightblue" points="317.121,-83.3689 306.717,-85.3721 316.099,-90.294 317.121,-83.3689"/>
</g>
<!-- Node18&#45;&gt;Node10 -->
<g id="edge31" class="edge"><title>Node18&#45;&gt;Node10</title>
<path fill="none" stroke="midnightblue" d="M934.974,-131.849C844.617,-119.981 636.883,-92.6954 557.056,-82.2105"/>
<polygon fill="midnightblue" stroke="midnightblue" points="557.47,-78.7349 547.1,-80.9027 556.559,-85.6753 557.47,-78.7349"/>
</g>
<!-- Node18&#45;&gt;Node12 -->
<g id="edge28" class="edge"><title>Node18&#45;&gt;Node12</title>
<path fill="none" stroke="midnightblue" d="M976.25,-128.659C972.809,-113.653 963.714,-83.2478 944,-67 897.244,-28.4643 824.166,-19.0398 782.964,-16.917"/>
<polygon fill="midnightblue" stroke="midnightblue" points="782.855,-13.4099 772.723,-16.5073 782.575,-20.4043 782.855,-13.4099"/>
</g>
<!-- Node18&#45;&gt;Node13 -->
<g id="edge24" class="edge"><title>Node18&#45;&gt;Node13</title>
<path fill="none" stroke="midnightblue" d="M1004.23,-128.909C1034.41,-118.551 1081.44,-100.815 1094,-87 1106.96,-72.7412 1112.63,-51.0569 1115.1,-35.5038"/>
<polygon fill="midnightblue" stroke="midnightblue" points="1118.59,-35.8213 1116.39,-25.4562 1111.65,-34.9273 1118.59,-35.8213"/>
</g>
<!-- Node18&#45;&gt;Node17 -->
<g id="edge29" class="edge"><title>Node18&#45;&gt;Node17</title>
<path fill="none" stroke="midnightblue" d="M1005.08,-128.975C1038.2,-118.548 1094.38,-100.863 1131.08,-89.3074"/>
<polygon fill="midnightblue" stroke="midnightblue" points="1132.4,-92.5634 1140.88,-86.222 1130.29,-85.8864 1132.4,-92.5634"/>
</g>
<!-- Node19 -->
<g id="node19" class="node"><title>Node19</title>
<polygon fill="none" stroke="#bfbfbf" points="883,-67.5 883,-86.5 935,-86.5 935,-67.5 883,-67.5"/>
<text text-anchor="middle" x="909" y="-74.5" font-family="Helvetica,sans-Serif" font-size="10.00">memory</text>
</g>
<!-- Node18&#45;&gt;Node19 -->
<g id="edge26" class="edge"><title>Node18&#45;&gt;Node19</title>
<path fill="none" stroke="midnightblue" d="M968.114,-128.975C957.354,-119.697 939.929,-104.671 926.779,-93.331"/>
<polygon fill="midnightblue" stroke="midnightblue" points="928.727,-90.389 918.868,-86.5091 924.155,-95.6902 928.727,-90.389"/>
</g>
<!-- Node20 -->
<g id="node20" class="node"><title>Node20</title>
<polygon fill="none" stroke="#bfbfbf" points="767.5,-67.5 767.5,-86.5 826.5,-86.5 826.5,-67.5 767.5,-67.5"/>
<text text-anchor="middle" x="797" y="-74.5" font-family="Helvetica,sans-Serif" font-size="10.00">stdexcept</text>
</g>
<!-- Node18&#45;&gt;Node20 -->
<g id="edge27" class="edge"><title>Node18&#45;&gt;Node20</title>
<path fill="none" stroke="midnightblue" d="M952.067,-128.975C920.75,-118.68 867.91,-101.31 832.744,-89.7502"/>
<polygon fill="midnightblue" stroke="midnightblue" points="833.478,-86.3071 822.885,-86.5091 831.292,-92.957 833.478,-86.3071"/>
</g>
<!-- Node21 -->
<g id="node21" class="node"><title>Node21</title>
<g id="a_node21"><a xlink:href="color_8hpp.html" target="_top" xlink:title="color.hpp">
<polygon fill="none" stroke="black" points="1029,-67.5 1029,-86.5 1085,-86.5 1085,-67.5 1029,-67.5"/>
<text text-anchor="middle" x="1057" y="-74.5" font-family="Helvetica,sans-Serif" font-size="10.00">color.hpp</text>
</a>
</g>
</g>
<!-- Node18&#45;&gt;Node21 -->
<g id="edge32" class="edge"><title>Node18&#45;&gt;Node21</title>
<path fill="none" stroke="midnightblue" d="M989.319,-128.975C1001.87,-119.52 1022.35,-104.096 1037.5,-92.6871"/>
<polygon fill="midnightblue" stroke="midnightblue" points="1039.82,-95.321 1045.7,-86.5091 1035.61,-89.7295 1039.82,-95.321"/>
</g>
<!-- Node21&#45;&gt;Node12 -->
<g id="edge36" class="edge"><title>Node21&#45;&gt;Node12</title>
<path fill="none" stroke="midnightblue" d="M1028.55,-69.8177C1024.02,-68.8582 1019.38,-67.8907 1015,-67 931.164,-49.9707 831.977,-31.3328 782.815,-22.1959"/>
<polygon fill="midnightblue" stroke="midnightblue" points="783.298,-18.7258 772.827,-20.3425 782.021,-25.6083 783.298,-18.7258"/>
</g>
<!-- Node21&#45;&gt;Node13 -->
<g id="edge34" class="edge"><title>Node21&#45;&gt;Node13</title>
<path fill="none" stroke="midnightblue" d="M1065.6,-67.4751C1074.86,-58.285 1089.82,-43.4563 1101.21,-32.156"/>
<polygon fill="midnightblue" stroke="midnightblue" points="1103.78,-34.5358 1108.42,-25.0091 1098.85,-29.5653 1103.78,-34.5358"/>
</g>
<!-- Node22 -->
<g id="node22" class="node"><title>Node22</title>
<polygon fill="none" stroke="#bfbfbf" points="966,-6 966,-25 1012,-25 1012,-6 966,-6"/>
<text text-anchor="middle" x="989" y="-13" font-family="Helvetica,sans-Serif" font-size="10.00">cctype</text>
</g>
<!-- Node21&#45;&gt;Node22 -->
<g id="edge33" class="edge"><title>Node21&#45;&gt;Node22</title>
<path fill="none" stroke="midnightblue" d="M1047.26,-67.4751C1036.65,-58.1966 1019.48,-43.1706 1006.52,-31.831"/>
<polygon fill="midnightblue" stroke="midnightblue" points="1008.56,-28.9601 998.725,-25.0091 1003.95,-34.2282 1008.56,-28.9601"/>
</g>
<!-- Node23 -->
<g id="node23" class="node"><title>Node23</title>
<polygon fill="none" stroke="#bfbfbf" points="1030.5,-6 1030.5,-25 1075.5,-25 1075.5,-6 1030.5,-6"/>
<text text-anchor="middle" x="1053" y="-13" font-family="Helvetica,sans-Serif" font-size="10.00">cstdlib</text>
</g>
<!-- Node21&#45;&gt;Node23 -->
<g id="edge35" class="edge"><title>Node21&#45;&gt;Node23</title>
<path fill="none" stroke="midnightblue" d="M1056.43,-67.4751C1055.86,-59.0803 1054.98,-45.9806 1054.25,-35.1631"/>
<polygon fill="midnightblue" stroke="midnightblue" points="1057.74,-34.7518 1053.57,-25.0091 1050.75,-35.2214 1057.74,-34.7518"/>
</g>
<!-- Node24&#45;&gt;Node4 -->
<g id="edge40" class="edge"><title>Node24&#45;&gt;Node4</title>
<path fill="none" stroke="midnightblue" d="M853.831,-193.055C899.059,-186.322 970.516,-173.659 1030,-154 1031.67,-153.449 1033.36,-152.832 1035.06,-152.171"/>
<polygon fill="midnightblue" stroke="midnightblue" points="1036.77,-155.245 1044.56,-148.069 1034,-148.818 1036.77,-155.245"/>
</g>
<!-- Node24&#45;&gt;Node7 -->
<g id="edge43" class="edge"><title>Node24&#45;&gt;Node7</title>
<path fill="none" stroke="midnightblue" d="M764.395,-192.134C758.88,-191.369 753.314,-190.637 748,-190 575.608,-169.321 524.925,-205.143 359,-154 300.256,-135.893 269.211,-139.959 238,-87 214.157,-46.5431 282.531,-28.9505 334.154,-21.5554"/>
<polygon fill="midnightblue" stroke="midnightblue" points="334.775,-25.0035 344.223,-20.2085 333.847,-18.0653 334.775,-25.0035"/>
</g>
<!-- Node24&#45;&gt;Node11 -->
<g id="edge51" class="edge"><title>Node24&#45;&gt;Node11</title>
<path fill="none" stroke="midnightblue" d="M802.715,-190.366C791.675,-175.543 767.622,-144.751 743,-123 729.69,-111.242 713.135,-100.095 699.812,-91.8376"/>
<polygon fill="midnightblue" stroke="midnightblue" points="701.55,-88.7987 691.184,-86.6102 697.923,-94.7855 701.55,-88.7987"/>
</g>
<!-- Node24&#45;&gt;Node12 -->
<g id="edge42" class="edge"><title>Node24&#45;&gt;Node12</title>
<path fill="none" stroke="midnightblue" d="M819.774,-190.459C836.643,-176.035 865.804,-146.156 850,-123 825.247,-86.7341 784.269,-122.183 758,-87 747,-72.268 746.812,-50.6638 748.553,-35.2589"/>
<polygon fill="midnightblue" stroke="midnightblue" points="752.021,-35.7312 750.034,-25.3243 745.097,-34.6986 752.021,-35.7312"/>
</g>
<!-- Node24&#45;&gt;Node18 -->
<g id="edge50" class="edge"><title>Node24&#45;&gt;Node18</title>
<path fill="none" stroke="midnightblue" d="M833.214,-190.475C862.329,-180.225 911.368,-162.959 944.202,-151.399"/>
<polygon fill="midnightblue" stroke="midnightblue" points="945.561,-154.631 953.831,-148.009 943.237,-148.029 945.561,-154.631"/>
</g>
<!-- Node24&#45;&gt;Node20 -->
<g id="edge41" class="edge"><title>Node24&#45;&gt;Node20</title>
<path fill="none" stroke="midnightblue" d="M835.929,-190.356C852.719,-183.411 872.978,-171.825 883,-154 889.753,-141.99 890.135,-134.786 883,-123 872.765,-106.093 853.858,-95.233 836.373,-88.4272"/>
<polygon fill="midnightblue" stroke="midnightblue" points="837.464,-85.1006 826.87,-85.0507 835.121,-91.6966 837.464,-85.1006"/>
</g>
<!-- Node25 -->
<g id="node25" class="node"><title>Node25</title>
<polygon fill="none" stroke="#bfbfbf" points="791,-129 791,-148 841,-148 841,-129 791,-129"/>
<text text-anchor="middle" x="816" y="-136" font-family="Helvetica,sans-Serif" font-size="10.00">iomanip</text>
</g>
<!-- Node24&#45;&gt;Node25 -->
<g id="edge38" class="edge"><title>Node24&#45;&gt;Node25</title>
<path fill="none" stroke="midnightblue" d="M810.003,-190.475C810.991,-182.08 812.532,-168.981 813.804,-158.163"/>
<polygon fill="midnightblue" stroke="midnightblue" points="817.306,-158.35 814.999,-148.009 810.354,-157.532 817.306,-158.35"/>
</g>
<!-- Node26 -->
<g id="node26" class="node"><title>Node26</title>
<polygon fill="none" stroke="#bfbfbf" points="325,-67.5 325,-86.5 379,-86.5 379,-67.5 325,-67.5"/>
<text text-anchor="middle" x="352" y="-74.5" font-family="Helvetica,sans-Serif" font-size="10.00">iostream</text>
</g>
<!-- Node24&#45;&gt;Node26 -->
<g id="edge39" class="edge"><title>Node24&#45;&gt;Node26</title>
<path fill="none" stroke="midnightblue" d="M764.391,-192.167C758.876,-191.396 753.312,-190.654 748,-190 667.326,-180.065 449.418,-202.244 384,-154 365.766,-140.553 357.847,-114.69 354.458,-96.8986"/>
<polygon fill="midnightblue" stroke="midnightblue" points="357.882,-96.1408 352.852,-86.8161 350.969,-97.2422 357.882,-96.1408"/>
</g>
<!-- Node27 -->
<g id="node27" class="node"><title>Node27</title>
<polygon fill="none" stroke="#bfbfbf" points="629.5,-123.5 629.5,-153.5 734.5,-153.5 734.5,-123.5 629.5,-123.5"/>
<text text-anchor="start" x="637.5" y="-141.5" font-family="Helvetica,sans-Serif" font-size="10.00">boost/chrono/io/time</text>
<text text-anchor="middle" x="682" y="-130.5" font-family="Helvetica,sans-Serif" font-size="10.00">_point_io.hpp</text>
</g>
<!-- Node24&#45;&gt;Node27 -->
<g id="edge44" class="edge"><title>Node24&#45;&gt;Node27</title>
<path fill="none" stroke="midnightblue" d="M790.804,-190.475C772.719,-182.002 744.406,-168.737 721.195,-157.863"/>
<polygon fill="midnightblue" stroke="midnightblue" points="722.472,-154.596 711.931,-153.523 719.502,-160.935 722.472,-154.596"/>
</g>
<!-- Node28 -->
<g id="node28" class="node"><title>Node28</title>
<g id="a_node28"><a xlink:href="multibuf_8hpp.html" target="_top" xlink:title="multibuf.hpp">
<polygon fill="none" stroke="black" points="393,-129 393,-148 463,-148 463,-129 393,-129"/>
<text text-anchor="middle" x="428" y="-136" font-family="Helvetica,sans-Serif" font-size="10.00">multibuf.hpp</text>
</a>
</g>
</g>
<!-- Node24&#45;&gt;Node28 -->
<g id="edge45" class="edge"><title>Node24&#45;&gt;Node28</title>
<path fill="none" stroke="midnightblue" d="M764.37,-192.327C758.859,-191.529 753.302,-190.737 748,-190 625.472,-172.971 592.615,-181.481 472,-154 468.334,-153.165 464.539,-152.151 460.786,-151.052"/>
<polygon fill="midnightblue" stroke="midnightblue" points="461.65,-147.655 451.061,-148.006 459.558,-154.335 461.65,-147.655"/>
</g>
<!-- Node28&#45;&gt;Node10 -->
<g id="edge48" class="edge"><title>Node28&#45;&gt;Node10</title>
<path fill="none" stroke="midnightblue" d="M441.898,-128.975C457.672,-119.299 483.637,-103.372 502.349,-91.8941"/>
<polygon fill="midnightblue" stroke="midnightblue" points="504.434,-94.7213 511.128,-86.5091 500.774,-88.7544 504.434,-94.7213"/>
</g>
<!-- Node28&#45;&gt;Node12 -->
<g id="edge49" class="edge"><title>Node28&#45;&gt;Node12</title>
<path fill="none" stroke="midnightblue" d="M433.286,-128.834C443.132,-113.528 465.855,-81.9211 494,-67 584.639,-18.9476 624.097,-61.6514 722,-31 723.67,-30.4772 725.364,-29.8754 727.054,-29.2207"/>
<polygon fill="midnightblue" stroke="midnightblue" points="728.733,-32.3058 736.474,-25.0727 725.912,-25.8993 728.733,-32.3058"/>
</g>
<!-- Node28&#45;&gt;Node26 -->
<g id="edge46" class="edge"><title>Node28&#45;&gt;Node26</title>
<path fill="none" stroke="midnightblue" d="M417.111,-128.975C405.034,-119.52 385.333,-104.096 370.76,-92.6871"/>
<polygon fill="midnightblue" stroke="midnightblue" points="372.9,-89.9177 362.869,-86.5091 368.585,-95.4295 372.9,-89.9177"/>
</g>
<!-- Node29 -->
<g id="node29" class="node"><title>Node29</title>
<polygon fill="none" stroke="#bfbfbf" points="397,-67.5 397,-86.5 447,-86.5 447,-67.5 397,-67.5"/>
<text text-anchor="middle" x="422" y="-74.5" font-family="Helvetica,sans-Serif" font-size="10.00">fstream</text>
</g>
<!-- Node28&#45;&gt;Node29 -->
<g id="edge47" class="edge"><title>Node28&#45;&gt;Node29</title>
<path fill="none" stroke="midnightblue" d="M427.14,-128.975C426.294,-120.58 424.973,-107.481 423.882,-96.6631"/>
<polygon fill="midnightblue" stroke="midnightblue" points="427.344,-96.1074 422.858,-86.5091 420.379,-96.8098 427.344,-96.1074"/>
</g>
<!-- Node30&#45;&gt;Node12 -->
<g id="edge57" class="edge"><title>Node30&#45;&gt;Node12</title>
<path fill="none" stroke="midnightblue" d="M1194.08,-128.98C1149.48,-120.093 1079.38,-104.962 1020,-87 995.901,-79.7106 991.084,-74.3385 967,-67 902.25,-47.2703 824.56,-30.7364 782.568,-22.3733"/>
<polygon fill="midnightblue" stroke="midnightblue" points="783.18,-18.9265 772.691,-20.4261 781.826,-25.7943 783.18,-18.9265"/>
</g>
<!-- Node30&#45;&gt;Node17 -->
<g id="edge56" class="edge"><title>Node30&#45;&gt;Node17</title>
<path fill="none" stroke="midnightblue" d="M1228.68,-128.975C1217.35,-119.608 1198.93,-104.384 1185.16,-93.0081"/>
<polygon fill="midnightblue" stroke="midnightblue" points="1187.23,-90.1813 1177.3,-86.5091 1182.78,-95.5773 1187.23,-90.1813"/>
</g>
<!-- Node31 -->
<g id="node31" class="node"><title>Node31</title>
<polygon fill="none" stroke="#bfbfbf" points="1211,-67.5 1211,-86.5 1267,-86.5 1267,-67.5 1211,-67.5"/>
<text text-anchor="middle" x="1239" y="-74.5" font-family="Helvetica,sans-Serif" font-size="10.00">algorithm</text>
</g>
<!-- Node30&#45;&gt;Node31 -->
<g id="edge53" class="edge"><title>Node30&#45;&gt;Node31</title>
<path fill="none" stroke="midnightblue" d="M1239,-128.975C1239,-120.58 1239,-107.481 1239,-96.6631"/>
<polygon fill="midnightblue" stroke="midnightblue" points="1242.5,-96.5091 1239,-86.5091 1235.5,-96.5091 1242.5,-96.5091"/>
</g>
<!-- Node32 -->
<g id="node32" class="node"><title>Node32</title>
<polygon fill="none" stroke="#bfbfbf" points="1285.5,-67.5 1285.5,-86.5 1332.5,-86.5 1332.5,-67.5 1285.5,-67.5"/>
<text text-anchor="middle" x="1309" y="-74.5" font-family="Helvetica,sans-Serif" font-size="10.00">iterator</text>
</g>
<!-- Node30&#45;&gt;Node32 -->
<g id="edge54" class="edge"><title>Node30&#45;&gt;Node32</title>
<path fill="none" stroke="midnightblue" d="M1249.03,-128.975C1260.05,-119.608 1277.96,-104.384 1291.34,-93.0081"/>
<polygon fill="midnightblue" stroke="midnightblue" points="1293.64,-95.6524 1298.99,-86.5091 1289.1,-90.3188 1293.64,-95.6524"/>
</g>
<!-- Node33 -->
<g id="node33" class="node"><title>Node33</title>
<polygon fill="none" stroke="#bfbfbf" points="1350.5,-67.5 1350.5,-86.5 1391.5,-86.5 1391.5,-67.5 1350.5,-67.5"/>
<text text-anchor="middle" x="1371" y="-74.5" font-family="Helvetica,sans-Serif" font-size="10.00">regex</text>
</g>
<!-- Node30&#45;&gt;Node33 -->
<g id="edge55" class="edge"><title>Node30&#45;&gt;Node33</title>
<path fill="none" stroke="midnightblue" d="M1257.91,-128.975C1280.16,-118.945 1317.31,-102.2 1342.93,-90.6546"/>
<polygon fill="midnightblue" stroke="midnightblue" points="1344.44,-93.8094 1352.12,-86.5091 1341.57,-87.4277 1344.44,-93.8094"/>
</g>
<!-- Node34 -->
<g id="node34" class="node"><title>Node34</title>
<polygon fill="none" stroke="#bfbfbf" points="1410,-67.5 1410,-86.5 1472,-86.5 1472,-67.5 1410,-67.5"/>
<text text-anchor="middle" x="1441" y="-74.5" font-family="Helvetica,sans-Serif" font-size="10.00">type_traits</text>
</g>
<!-- Node30&#45;&gt;Node34 -->
<g id="edge58" class="edge"><title>Node30&#45;&gt;Node34</title>
<path fill="none" stroke="midnightblue" d="M1267.94,-128.975C1303.27,-118.57 1363.13,-100.937 1402.36,-89.3801"/>
<polygon fill="midnightblue" stroke="midnightblue" points="1403.51,-92.6921 1412.11,-86.5091 1401.53,-85.9773 1403.51,-92.6921"/>
</g>
<!-- Node35&#45;&gt;Node7 -->
<g id="edge60" class="edge"><title>Node35&#45;&gt;Node7</title>
<path fill="none" stroke="midnightblue" d="M382.084,-246.489C363.443,-238.643 336.512,-225.831 316,-210 263.195,-169.244 246.278,-151.687 230,-87 218.193,-40.082 284.479,-24.3262 334.317,-19.0728"/>
<polygon fill="midnightblue" stroke="midnightblue" points="334.724,-22.5501 344.352,-18.1298 334.069,-15.5808 334.724,-22.5501"/>
</g>
<!-- Node36 -->
<g id="node36" class="node"><title>Node36</title>
<g id="a_node36"><a xlink:href="user__group_8hpp.html" target="_top" xlink:title="user_group.hpp">
<polygon fill="none" stroke="black" points="325.5,-190.5 325.5,-209.5 408.5,-209.5 408.5,-190.5 325.5,-190.5"/>
<text text-anchor="middle" x="367" y="-197.5" font-family="Helvetica,sans-Serif" font-size="10.00">user_group.hpp</text>
</a>
</g>
</g>
<!-- Node35&#45;&gt;Node36 -->
<g id="edge61" class="edge"><title>Node35&#45;&gt;Node36</title>
<path fill="none" stroke="midnightblue" d="M397.89,-246.083C392.718,-238.534 385.154,-227.495 378.806,-218.23"/>
<polygon fill="midnightblue" stroke="midnightblue" points="381.536,-216.022 372.996,-209.751 375.761,-219.979 381.536,-216.022"/>
</g>
<!-- Node36&#45;&gt;Node10 -->
<g id="edge62" class="edge"><title>Node36&#45;&gt;Node10</title>
<path fill="none" stroke="midnightblue" d="M366.35,-190.23C365.695,-174.637 366.66,-141.954 384,-123 398.744,-106.884 456.094,-92.3261 492.955,-84.3651"/>
<polygon fill="midnightblue" stroke="midnightblue" points="493.694,-87.7865 502.757,-82.2989 492.25,-80.9371 493.694,-87.7865"/>
</g>
<!-- Node37 -->
<g id="node37" class="node"><title>Node37</title>
<g id="a_node37"><a xlink:href="user_8hpp.html" target="_top" xlink:title="user.hpp">
<polygon fill="none" stroke="black" points="481,-129 481,-148 535,-148 535,-129 481,-129"/>
<text text-anchor="middle" x="508" y="-136" font-family="Helvetica,sans-Serif" font-size="10.00">user.hpp</text>
</a>
</g>
</g>
<!-- Node36&#45;&gt;Node37 -->
<g id="edge63" class="edge"><title>Node36&#45;&gt;Node37</title>
<path fill="none" stroke="midnightblue" d="M387.202,-190.475C411.074,-180.401 451.002,-163.553 478.373,-152.002"/>
<polygon fill="midnightblue" stroke="midnightblue" points="479.983,-155.122 487.836,-148.009 477.262,-148.672 479.983,-155.122"/>
</g>
<!-- Node37&#45;&gt;Node7 -->
<g id="edge66" class="edge"><title>Node37&#45;&gt;Node7</title>
<path fill="none" stroke="midnightblue" d="M521.436,-128.869C540.714,-115.412 572.204,-88.7179 556,-67 541.707,-47.8438 482.223,-33.3486 437.619,-24.9067"/>
<polygon fill="midnightblue" stroke="midnightblue" points="438.248,-21.4639 427.78,-23.0958 436.981,-28.3482 438.248,-21.4639"/>
</g>
<!-- Node37&#45;&gt;Node10 -->
<g id="edge65" class="edge"><title>Node37&#45;&gt;Node10</title>
<path fill="none" stroke="midnightblue" d="M510.436,-128.975C512.859,-120.492 516.656,-107.204 519.765,-96.3222"/>
<polygon fill="midnightblue" stroke="midnightblue" points="523.187,-97.0859 522.569,-86.5091 516.456,-95.1628 523.187,-97.0859"/>
</g>
<!-- Node37&#45;&gt;Node11 -->
<g id="edge67" class="edge"><title>Node37&#45;&gt;Node11</title>
<path fill="none" stroke="midnightblue" d="M532.07,-128.975C561.013,-118.725 609.762,-101.459 642.402,-89.8994"/>
<polygon fill="midnightblue" stroke="midnightblue" points="643.717,-93.1468 651.974,-86.5091 641.38,-86.5484 643.717,-93.1468"/>
</g>
<!-- Node37&#45;&gt;Node12 -->
<g id="edge64" class="edge"><title>Node37&#45;&gt;Node12</title>
<path fill="none" stroke="midnightblue" d="M521.798,-128.826C544.347,-114.842 590.722,-86.8752 632,-67 670.816,-48.31 682.582,-48.3844 722,-31 723.161,-30.4879 724.344,-29.9571 725.535,-29.4146"/>
<polygon fill="midnightblue" stroke="midnightblue" points="727.079,-32.5566 734.646,-25.1412 724.106,-26.2191 727.079,-32.5566"/>
</g>
<!-- Node38&#45;&gt;Node37 -->
<g id="edge69" class="edge"><title>Node38&#45;&gt;Node37</title>
<path fill="none" stroke="midnightblue" d="M708.69,-246.319C671.132,-226.328 578.322,-176.929 533.301,-152.967"/>
<polygon fill="midnightblue" stroke="midnightblue" points="534.675,-149.733 524.204,-148.124 531.387,-155.913 534.675,-149.733"/>
</g>
<!-- Node39 -->
<g id="node39" class="node"><title>Node39</title>
<polygon fill="none" stroke="#bfbfbf" points="710.5,-190.5 710.5,-209.5 739.5,-209.5 739.5,-190.5 710.5,-190.5"/>
<text text-anchor="middle" x="725" y="-197.5" font-family="Helvetica,sans-Serif" font-size="10.00">list</text>
</g>
<!-- Node38&#45;&gt;Node39 -->
<g id="edge70" class="edge"><title>Node38&#45;&gt;Node39</title>
<path fill="none" stroke="midnightblue" d="M725,-246.083C725,-239.006 725,-228.861 725,-219.986"/>
<polygon fill="midnightblue" stroke="midnightblue" points="728.5,-219.751 725,-209.751 721.5,-219.751 728.5,-219.751"/>
</g>
<!-- Node40&#45;&gt;Node11 -->
<g id="edge72" class="edge"><title>Node40&#45;&gt;Node11</title>
<path fill="none" stroke="midnightblue" d="M508.536,-190.222C523.47,-175.183 555.734,-144.074 587,-123 605.656,-110.426 628.302,-99.023 646.082,-90.8419"/>
<polygon fill="midnightblue" stroke="midnightblue" points="647.723,-93.941 655.402,-86.6413 644.847,-87.5592 647.723,-93.941"/>
</g>
</g>
</svg>
        <g id="navigator" transform="translate(0 0)" fill="#404254">
                <rect fill="#f2f5e9" fill-opacity="0.5" stroke="#606060" stroke-width=".5" x="0" y="0" width="60" height="60"/>
                <use id="zoomplus" xlink:href="#zoomPlus" x="17" y="9" onmousedown="handleZoom(evt,'in')"/>
                <use id="zoomminus" xlink:href="#zoomMin" x="42" y="9" onmousedown="handleZoom(evt,'out')"/>
                <use id="reset" xlink:href="#resetDef" x="30" y="36" onmousedown="handleReset()"/>
                <g id="arrowUp" xlink:href="#dirArrow" transform="translate(30 24)" onmousedown="handlePan(0,-1)">
                  <use xlink:href="#rim" fill="#404040">
                        <set attributeName="fill" to="#808080" begin="arrowUp.mouseover" end="arrowUp.mouseout"/>
                  </use>
                  <path fill="none" stroke="white" stroke-width="1.5" d="M0,-3.0v7 M-2.5,-0.5L0,-3.0L2.5,-0.5"/>
                </g>
                <g id="arrowRight" xlink:href="#dirArrow" transform="rotate(90) translate(36 -43)" onmousedown="handlePan(1,0)">
                  <use xlink:href="#rim" fill="#404040">
                        <set attributeName="fill" to="#808080" begin="arrowRight.mouseover" end="arrowRight.mouseout"/>
                  </use>
                  <path fill="none" stroke="white" stroke-width="1.5" d="M0,-3.0v7 M-2.5,-0.5L0,-3.0L2.5,-0.5"/>
                </g>
                <g id="arrowDown" xlink:href="#dirArrow" transform="rotate(180) translate(-30 -48)" onmousedown="handlePan(0,1)">
                  <use xlink:href="#rim" fill="#404040">
                        <set attributeName="fill" to="#808080" begin="arrowDown.mouseover" end="arrowDown.mouseout"/>
                  </use>
                  <path fill="none" stroke="white" stroke-width="1.5" d="M0,-3.0v7 M-2.5,-0.5L0,-3.0L2.5,-0.5"/>
                </g>
                <g id="arrowLeft" xlink:href="#dirArrow" transform="rotate(270) translate(-36 17)" onmousedown="handlePan(-1,0)">
                  <use xlink:href="#rim" fill="#404040">
                        <set attributeName="fill" to="#808080" begin="arrowLeft.mouseover" end="arrowLeft.mouseout"/>
                  </use>
                  <path fill="none" stroke="white" stroke-width="1.5" d="M0,-3.0v7 M-2.5,-0.5L0,-3.0L2.5,-0.5"/>
                </g>
        </g>
        <svg viewBox="0 0 15 15" width="100%" height="30px" preserveAspectRatio="xMaxYMin meet">
         <g id="arrow_out" transform="scale(0.3 0.3)">
          <a xlink:href="melanobot_8hpp__incl_org.svg" target="_base">
           <rect id="button" ry="5" rx="5" y="6" x="6" height="38" width="38"
                fill="#f2f5e9" fill-opacity="0.5" stroke="#606060" stroke-width="1.0"/>
           <path id="arrow"
             d="M 11.500037,31.436501 C 11.940474,20.09759 22.043105,11.32322 32.158766,21.979434 L 37.068811,17.246167 C 37.068811,17.246167 37.088388,32 37.088388,32 L 22.160133,31.978069 C 22.160133,31.978069 26.997745,27.140456 26.997745,27.140456 C 18.528582,18.264221 13.291696,25.230495 11.500037,31.436501 z"
             style="fill:#404040;"/>
          </a>
         </g>
        </svg>
</svg>
