<?xml version="1.0" encoding="UTF-8" standalone="no"?>
<!DOCTYPE svg PUBLIC "-//W3C//DTD SVG 1.1//EN"
 "http://www.w3.org/Graphics/SVG/1.1/DTD/svg11.dtd">
<!-- Generated by graphviz version 2.38.0 (20140413.2041)
 -->
<!-- Title: src/melanobot.cpp Pages: 1 -->
<svg width="1641pt" height="498pt"
 viewBox="0.00 0.00 1641.00 498.00" xmlns="http://www.w3.org/2000/svg" xmlns:xlink="http://www.w3.org/1999/xlink">
<g id="graph0" class="graph" transform="scale(1 1) rotate(0) translate(4 494)">
<title>src/melanobot.cpp</title>
<!-- Node1 -->
<g id="node1" class="node"><title>Node1</title>
<polygon fill="#bfbfbf" stroke="black" points="798.5,-470.5 798.5,-489.5 895.5,-489.5 895.5,-470.5 798.5,-470.5"/>
<text text-anchor="middle" x="847" y="-477.5" font-family="Helvetica,sans-Serif" font-size="10.00">src/melanobot.cpp</text>
</g>
<!-- Node2 -->
<g id="node2" class="node"><title>Node2</title>
<g id="a_node2"><a xlink:href="melanobot_8hpp.html" target="_top" xlink:title="melanobot.hpp">
<polygon fill="none" stroke="black" points="312,-358.5 312,-377.5 392,-377.5 392,-358.5 312,-358.5"/>
<text text-anchor="middle" x="352" y="-365.5" font-family="Helvetica,sans-Serif" font-size="10.00">melanobot.hpp</text>
</a>
</g>
</g>
<!-- Node1&#45;&gt;Node2 -->
<g id="edge1" class="edge"><title>Node1&#45;&gt;Node2</title>
<path fill="none" stroke="midnightblue" d="M808.57,-470.46C719.388,-450.642 498.516,-401.559 400.355,-379.745"/>
<polygon fill="midnightblue" stroke="midnightblue" points="400.927,-376.287 390.405,-377.535 399.408,-383.121 400.927,-376.287"/>
</g>
<!-- Node42 -->
<g id="node42" class="node"><title>Node42</title>
<g id="a_node42"><a xlink:href="handler_8hpp.html" target="_top" xlink:title="handler/handler.hpp">
<polygon fill="none" stroke="black" points="996.5,-414.5 996.5,-433.5 1097.5,-433.5 1097.5,-414.5 996.5,-414.5"/>
<text text-anchor="middle" x="1047" y="-421.5" font-family="Helvetica,sans-Serif" font-size="10.00">handler/handler.hpp</text>
</a>
</g>
</g>
<!-- Node1&#45;&gt;Node42 -->
<g id="edge74" class="edge"><title>Node1&#45;&gt;Node42</title>
<path fill="none" stroke="midnightblue" d="M878.691,-470.444C913.068,-461.162 968.077,-446.309 1005.79,-436.127"/>
<polygon fill="midnightblue" stroke="midnightblue" points="1006.72,-439.502 1015.46,-433.516 1004.89,-432.744 1006.72,-439.502"/>
</g>
<!-- Node3 -->
<g id="node3" class="node"><title>Node3</title>
<polygon fill="none" stroke="#bfbfbf" points="279,-246.5 279,-265.5 325,-265.5 325,-246.5 279,-246.5"/>
<text text-anchor="middle" x="302" y="-253.5" font-family="Helvetica,sans-Serif" font-size="10.00">atomic</text>
</g>
<!-- Node2&#45;&gt;Node3 -->
<g id="edge2" class="edge"><title>Node2&#45;&gt;Node3</title>
<path fill="none" stroke="midnightblue" d="M334.498,-358.465C321.213,-350.917 303.924,-338.533 296,-322 289.043,-307.485 291.653,-289.068 295.355,-275.547"/>
<polygon fill="midnightblue" stroke="midnightblue" points="298.721,-276.511 298.396,-265.921 292.046,-274.402 298.721,-276.511"/>
</g>
<!-- Node4 -->
<g id="node4" class="node"><title>Node4</title>
<polygon fill="none" stroke="#bfbfbf" points="89.5,-246.5 89.5,-265.5 184.5,-265.5 184.5,-246.5 89.5,-246.5"/>
<text text-anchor="middle" x="137" y="-253.5" font-family="Helvetica,sans-Serif" font-size="10.00">condition_variable</text>
</g>
<!-- Node2&#45;&gt;Node4 -->
<g id="edge3" class="edge"><title>Node2&#45;&gt;Node4</title>
<path fill="none" stroke="midnightblue" d="M311.969,-365.393C250.836,-362.003 138.685,-351.789 114,-322 102.362,-307.955 112.727,-287.602 123.025,-273.425"/>
<polygon fill="midnightblue" stroke="midnightblue" points="125.816,-275.538 129.23,-265.508 120.307,-271.219 125.816,-275.538"/>
</g>
<!-- Node5 -->
<g id="node5" class="node"><title>Node5</title>
<polygon fill="none" stroke="#bfbfbf" points="911,-129 911,-148 955,-148 955,-129 911,-129"/>
<text text-anchor="middle" x="933" y="-136" font-family="Helvetica,sans-Serif" font-size="10.00">mutex</text>
</g>
<!-- Node2&#45;&gt;Node5 -->
<g id="edge4" class="edge"><title>Node2&#45;&gt;Node5</title>
<path fill="none" stroke="midnightblue" d="M392.254,-366.398C436.577,-363.991 508.389,-354.79 560,-322 595.864,-299.214 587.011,-275.071 618,-246 650.724,-215.302 660.701,-207.54 702,-190 769.338,-161.402 854.868,-148.147 900.629,-142.733"/>
<polygon fill="midnightblue" stroke="midnightblue" points="901.295,-146.18 910.838,-141.578 900.508,-139.224 901.295,-146.18"/>
</g>
<!-- Node6 -->
<g id="node6" class="node"><title>Node6</title>
<polygon fill="none" stroke="#bfbfbf" points="28.5,-246.5 28.5,-265.5 71.5,-265.5 71.5,-246.5 28.5,-246.5"/>
<text text-anchor="middle" x="50" y="-253.5" font-family="Helvetica,sans-Serif" font-size="10.00">queue</text>
</g>
<!-- Node2&#45;&gt;Node6 -->
<g id="edge5" class="edge"><title>Node2&#45;&gt;Node6</title>
<path fill="none" stroke="midnightblue" d="M311.973,-367.789C260.646,-367.074 170.464,-359.863 105,-322 85.4757,-310.707 69.6873,-289.786 60.117,-274.725"/>
<polygon fill="midnightblue" stroke="midnightblue" points="62.914,-272.586 54.7492,-265.834 56.9215,-276.204 62.914,-272.586"/>
</g>
<!-- Node7 -->
<g id="node7" class="node"><title>Node7</title>
<polygon fill="none" stroke="#bfbfbf" points="305,-302.5 305,-321.5 349,-321.5 349,-302.5 305,-302.5"/>
<text text-anchor="middle" x="327" y="-309.5" font-family="Helvetica,sans-Serif" font-size="10.00">thread</text>
</g>
<!-- Node2&#45;&gt;Node7 -->
<g id="edge6" class="edge"><title>Node2&#45;&gt;Node7</title>
<path fill="none" stroke="midnightblue" d="M347.872,-358.083C344.486,-350.77 339.584,-340.181 335.381,-331.103"/>
<polygon fill="midnightblue" stroke="midnightblue" points="338.429,-329.355 331.051,-321.751 332.077,-332.296 338.429,-329.355"/>
</g>
<!-- Node8 -->
<g id="node8" class="node"><title>Node8</title>
<polygon fill="none" stroke="#bfbfbf" points="415.5,-6 415.5,-25 498.5,-25 498.5,-6 415.5,-6"/>
<text text-anchor="middle" x="457" y="-13" font-family="Helvetica,sans-Serif" font-size="10.00">unordered_map</text>
</g>
<!-- Node2&#45;&gt;Node8 -->
<g id="edge7" class="edge"><title>Node2&#45;&gt;Node8</title>
<path fill="none" stroke="midnightblue" d="M311.995,-366.923C256.879,-365.406 155.602,-357.474 78,-322 36.9588,-303.239 0,-302.126 0,-257 0,-257 0,-257 0,-137.5 0,-54.4605 285.531,-27.0963 405.203,-19.2741"/>
<polygon fill="midnightblue" stroke="midnightblue" points="405.474,-22.764 415.233,-18.639 405.032,-15.778 405.474,-22.764"/>
</g>
<!-- Node9 -->
<g id="node9" class="node"><title>Node9</title>
<g id="a_node9"><a xlink:href="concurrent__container_8hpp.html" target="_top" xlink:title="concurrent_container.hpp">
<polygon fill="none" stroke="black" points="123,-302.5 123,-321.5 249,-321.5 249,-302.5 123,-302.5"/>
<text text-anchor="middle" x="186" y="-309.5" font-family="Helvetica,sans-Serif" font-size="10.00">concurrent_container.hpp</text>
</a>
</g>
</g>
<!-- Node2&#45;&gt;Node9 -->
<g id="edge8" class="edge"><title>Node2&#45;&gt;Node9</title>
<path fill="none" stroke="midnightblue" d="M325.697,-358.444C297.649,-349.32 253.056,-334.813 221.816,-324.651"/>
<polygon fill="midnightblue" stroke="midnightblue" points="222.772,-321.282 212.18,-321.516 220.607,-327.938 222.772,-321.282"/>
</g>
<!-- Node12 -->
<g id="node12" class="node"><title>Node12</title>
<g id="a_node12"><a xlink:href="settings_8hpp.html" target="_top" xlink:title="settings.hpp">
<polygon fill="none" stroke="black" points="523,-67.5 523,-86.5 593,-86.5 593,-67.5 523,-67.5"/>
<text text-anchor="middle" x="558" y="-74.5" font-family="Helvetica,sans-Serif" font-size="10.00">settings.hpp</text>
</a>
</g>
</g>
<!-- Node2&#45;&gt;Node12 -->
<g id="edge14" class="edge"><title>Node2&#45;&gt;Node12</title>
<path fill="none" stroke="midnightblue" d="M353.633,-358.452C361.238,-319.453 394.274,-158.782 429,-123 451.142,-100.185 485.462,-88.9244 513.138,-83.3739"/>
<polygon fill="midnightblue" stroke="midnightblue" points="513.788,-86.813 522.998,-81.5764 512.533,-79.9265 513.788,-86.813"/>
</g>
<!-- Node16 -->
<g id="node16" class="node"><title>Node16</title>
<g id="a_node16"><a xlink:href="connection_8hpp.html" target="_top" xlink:title="network/connection.hpp">
<polygon fill="none" stroke="black" points="779,-302.5 779,-321.5 899,-321.5 899,-302.5 779,-302.5"/>
<text text-anchor="middle" x="839" y="-309.5" font-family="Helvetica,sans-Serif" font-size="10.00">network/connection.hpp</text>
</a>
</g>
</g>
<!-- Node2&#45;&gt;Node16 -->
<g id="edge19" class="edge"><title>Node2&#45;&gt;Node16</title>
<path fill="none" stroke="midnightblue" d="M392.268,-362.535C475.082,-353.352 665.387,-332.251 768.878,-320.775"/>
<polygon fill="midnightblue" stroke="midnightblue" points="769.367,-324.243 778.92,-319.662 768.596,-317.285 769.367,-324.243"/>
</g>
<!-- Node41 -->
<g id="node41" class="node"><title>Node41</title>
<g id="a_node41"><a xlink:href="handler__container_8hpp.html" target="_top" xlink:title="handler/handler_container.hpp">
<polygon fill="none" stroke="black" points="405,-302.5 405,-321.5 551,-321.5 551,-302.5 405,-302.5"/>
<text text-anchor="middle" x="478" y="-309.5" font-family="Helvetica,sans-Serif" font-size="10.00">handler/handler_container.hpp</text>
</a>
</g>
</g>
<!-- Node2&#45;&gt;Node41 -->
<g id="edge72" class="edge"><title>Node2&#45;&gt;Node41</title>
<path fill="none" stroke="midnightblue" d="M371.965,-358.444C392.609,-349.596 425.063,-335.687 448.632,-325.586"/>
<polygon fill="midnightblue" stroke="midnightblue" points="450.316,-328.673 458.128,-321.516 447.558,-322.239 450.316,-328.673"/>
</g>
<!-- Node9&#45;&gt;Node3 -->
<g id="edge9" class="edge"><title>Node9&#45;&gt;Node3</title>
<path fill="none" stroke="midnightblue" d="M204.381,-302.444C223.216,-293.675 252.731,-279.935 274.379,-269.858"/>
<polygon fill="midnightblue" stroke="midnightblue" points="276.117,-272.91 283.705,-265.516 273.162,-266.564 276.117,-272.91"/>
</g>
<!-- Node9&#45;&gt;Node4 -->
<g id="edge10" class="edge"><title>Node9&#45;&gt;Node4</title>
<path fill="none" stroke="midnightblue" d="M177.909,-302.083C170.845,-294.298 160.412,-282.801 151.851,-273.367"/>
<polygon fill="midnightblue" stroke="midnightblue" points="154.253,-270.805 144.941,-265.751 149.069,-275.509 154.253,-270.805"/>
</g>
<!-- Node9&#45;&gt;Node6 -->
<g id="edge12" class="edge"><title>Node9&#45;&gt;Node6</title>
<path fill="none" stroke="midnightblue" d="M164.45,-302.444C141.969,-293.517 106.512,-279.439 81.0201,-269.317"/>
<polygon fill="midnightblue" stroke="midnightblue" points="82.0346,-265.954 71.4488,-265.516 79.4513,-272.46 82.0346,-265.954"/>
</g>
<!-- Node10 -->
<g id="node10" class="node"><title>Node10</title>
<polygon fill="none" stroke="#bfbfbf" points="759.5,-67.5 759.5,-86.5 818.5,-86.5 818.5,-67.5 759.5,-67.5"/>
<text text-anchor="middle" x="789" y="-74.5" font-family="Helvetica,sans-Serif" font-size="10.00">functional</text>
</g>
<!-- Node9&#45;&gt;Node10 -->
<g id="edge11" class="edge"><title>Node9&#45;&gt;Node10</title>
<path fill="none" stroke="midnightblue" d="M195.755,-302.327C214.123,-286.191 253.474,-252.597 270,-246 417.285,-187.204 478.284,-270.203 625,-210 658.338,-196.32 737.623,-125.395 772.291,-93.5315"/>
<polygon fill="midnightblue" stroke="midnightblue" points="774.748,-96.0259 779.721,-86.6708 770,-90.8828 774.748,-96.0259"/>
</g>
<!-- Node11 -->
<g id="node11" class="node"><title>Node11</title>
<polygon fill="none" stroke="#bfbfbf" points="649,-67.5 649,-86.5 693,-86.5 693,-67.5 649,-67.5"/>
<text text-anchor="middle" x="671" y="-74.5" font-family="Helvetica,sans-Serif" font-size="10.00">vector</text>
</g>
<!-- Node9&#45;&gt;Node11 -->
<g id="edge13" class="edge"><title>Node9&#45;&gt;Node11</title>
<path fill="none" stroke="midnightblue" d="M190.7,-302.055C198.484,-288.083 215.366,-261.117 237,-246 345.411,-170.244 397.689,-204.32 520,-154 566.087,-135.039 617.47,-107.794 646.847,-91.5972"/>
<polygon fill="midnightblue" stroke="midnightblue" points="648.882,-94.4702 655.926,-86.5557 645.484,-88.3503 648.882,-94.4702"/>
</g>
<!-- Node12&#45;&gt;Node8 -->
<g id="edge17" class="edge"><title>Node12&#45;&gt;Node8</title>
<path fill="none" stroke="midnightblue" d="M543.529,-67.4751C527.029,-57.7548 499.822,-41.7266 480.319,-30.2372"/>
<polygon fill="midnightblue" stroke="midnightblue" points="481.837,-27.0693 471.444,-25.0091 478.284,-33.1005 481.837,-27.0693"/>
</g>
<!-- Node13 -->
<g id="node13" class="node"><title>Node13</title>
<polygon fill="none" stroke="#bfbfbf" points="1184.5,-6 1184.5,-25 1225.5,-25 1225.5,-6 1184.5,-6"/>
<text text-anchor="middle" x="1205" y="-13" font-family="Helvetica,sans-Serif" font-size="10.00">string</text>
</g>
<!-- Node12&#45;&gt;Node13 -->
<g id="edge15" class="edge"><title>Node12&#45;&gt;Node13</title>
<path fill="none" stroke="midnightblue" d="M593.253,-69.0177C597.865,-68.2535 602.537,-67.5535 607,-67 850.985,-36.7417 917.352,-76.2825 1159,-31 1164.12,-30.0414 1169.46,-28.6935 1174.62,-27.2018"/>
<polygon fill="midnightblue" stroke="midnightblue" points="1175.69,-30.5328 1184.2,-24.2208 1173.61,-23.8487 1175.69,-30.5328"/>
</g>
<!-- Node14 -->
<g id="node14" class="node"><title>Node14</title>
<polygon fill="none" stroke="#bfbfbf" points="842,-6 842,-25 888,-25 888,-6 842,-6"/>
<text text-anchor="middle" x="865" y="-13" font-family="Helvetica,sans-Serif" font-size="10.00">cstdint</text>
</g>
<!-- Node12&#45;&gt;Node14 -->
<g id="edge16" class="edge"><title>Node12&#45;&gt;Node14</title>
<path fill="none" stroke="midnightblue" d="M593.217,-69.1746C652.969,-57.5939 773.397,-34.2537 831.772,-22.94"/>
<polygon fill="midnightblue" stroke="midnightblue" points="832.77,-26.3118 841.921,-20.9729 831.438,-19.4397 832.77,-26.3118"/>
</g>
<!-- Node15 -->
<g id="node15" class="node"><title>Node15</title>
<polygon fill="none" stroke="#bfbfbf" points="516.5,-0.5 516.5,-30.5 617.5,-30.5 617.5,-0.5 516.5,-0.5"/>
<text text-anchor="start" x="524.5" y="-18.5" font-family="Helvetica,sans-Serif" font-size="10.00">boost/property_tree</text>
<text text-anchor="middle" x="567" y="-7.5" font-family="Helvetica,sans-Serif" font-size="10.00">/ptree.hpp</text>
</g>
<!-- Node12&#45;&gt;Node15 -->
<g id="edge18" class="edge"><title>Node12&#45;&gt;Node15</title>
<path fill="none" stroke="midnightblue" d="M559.289,-67.4751C560.349,-60.471 561.904,-50.1919 563.34,-40.6956"/>
<polygon fill="midnightblue" stroke="midnightblue" points="566.844,-40.934 564.879,-30.523 559.923,-39.887 566.844,-40.934"/>
</g>
<!-- Node16&#45;&gt;Node3 -->
<g id="edge20" class="edge"><title>Node16&#45;&gt;Node3</title>
<path fill="none" stroke="midnightblue" d="M778.962,-304.963C665.611,-293.564 423.546,-269.222 335.175,-260.336"/>
<polygon fill="midnightblue" stroke="midnightblue" points="335.479,-256.849 325.179,-259.331 334.778,-263.814 335.479,-256.849"/>
</g>
<!-- Node16&#45;&gt;Node14 -->
<g id="edge22" class="edge"><title>Node16&#45;&gt;Node14</title>
<path fill="none" stroke="midnightblue" d="M837.474,-302.219C835.016,-289.372 829.47,-264.926 820,-246 811.05,-228.114 802.411,-227.648 793,-210 761.772,-151.44 713.712,-122.567 750,-67 767.973,-39.4786 804.653,-26.8586 831.778,-21.1335"/>
<polygon fill="midnightblue" stroke="midnightblue" points="832.475,-24.5637 841.647,-19.2602 831.17,-17.6865 832.475,-24.5637"/>
</g>
<!-- Node17 -->
<g id="node17" class="node"><title>Node17</title>
<polygon fill="none" stroke="#bfbfbf" points="765,-246.5 765,-265.5 811,-265.5 811,-246.5 765,-246.5"/>
<text text-anchor="middle" x="788" y="-253.5" font-family="Helvetica,sans-Serif" font-size="10.00">chrono</text>
</g>
<!-- Node16&#45;&gt;Node17 -->
<g id="edge21" class="edge"><title>Node16&#45;&gt;Node17</title>
<path fill="none" stroke="midnightblue" d="M830.578,-302.083C823.152,-294.22 812.148,-282.569 803.188,-273.081"/>
<polygon fill="midnightblue" stroke="midnightblue" points="805.676,-270.618 796.265,-265.751 800.587,-275.424 805.676,-270.618"/>
</g>
<!-- Node18 -->
<g id="node18" class="node"><title>Node18</title>
<polygon fill="none" stroke="#bfbfbf" points="837,-67.5 837,-86.5 889,-86.5 889,-67.5 837,-67.5"/>
<text text-anchor="middle" x="863" y="-74.5" font-family="Helvetica,sans-Serif" font-size="10.00">sstream</text>
</g>
<!-- Node16&#45;&gt;Node18 -->
<g id="edge23" class="edge"><title>Node16&#45;&gt;Node18</title>
<path fill="none" stroke="midnightblue" d="M842.455,-302.198C845.799,-293.242 850.69,-278.886 853,-266 863.937,-204.988 864.158,-131.203 863.537,-97.0492"/>
<polygon fill="midnightblue" stroke="midnightblue" points="867.028,-96.6242 863.299,-86.7075 860.03,-96.7855 867.028,-96.6242"/>
</g>
<!-- Node19 -->
<g id="node19" class="node"><title>Node19</title>
<g id="a_node19"><a xlink:href="string_8hpp.html" target="_top" xlink:title="string/string.hpp">
<polygon fill="none" stroke="black" points="1011,-129 1011,-148 1097,-148 1097,-129 1011,-129"/>
<text text-anchor="middle" x="1054" y="-136" font-family="Helvetica,sans-Serif" font-size="10.00">string/string.hpp</text>
</a>
</g>
</g>
<!-- Node16&#45;&gt;Node19 -->
<g id="edge24" class="edge"><title>Node16&#45;&gt;Node19</title>
<path fill="none" stroke="midnightblue" d="M851.015,-302.202C862.15,-293.697 878.789,-280.063 891,-266 917.351,-235.654 909.458,-216.123 940,-190 961.087,-171.964 989.64,-159.328 1012.89,-151.207"/>
<polygon fill="midnightblue" stroke="midnightblue" points="1014.12,-154.487 1022.5,-148 1011.91,-147.847 1014.12,-154.487"/>
</g>
<!-- Node25 -->
<g id="node25" class="node"><title>Node25</title>
<g id="a_node25"><a xlink:href="logger_8hpp.html" target="_top" xlink:title="string/logger.hpp">
<polygon fill="none" stroke="black" points="1304.5,-190.5 1304.5,-209.5 1393.5,-209.5 1393.5,-190.5 1304.5,-190.5"/>
<text text-anchor="middle" x="1349" y="-197.5" font-family="Helvetica,sans-Serif" font-size="10.00">string/logger.hpp</text>
</a>
</g>
</g>
<!-- Node16&#45;&gt;Node25 -->
<g id="edge38" class="edge"><title>Node16&#45;&gt;Node25</title>
<path fill="none" stroke="midnightblue" d="M899.081,-303.531C956.441,-295.903 1045.13,-282.806 1121,-266 1189.79,-250.764 1268.52,-226.844 1313.14,-212.663"/>
<polygon fill="midnightblue" stroke="midnightblue" points="1314.47,-215.914 1322.93,-209.536 1312.34,-209.246 1314.47,-215.914"/>
</g>
<!-- Node31 -->
<g id="node31" class="node"><title>Node31</title>
<g id="a_node31"><a xlink:href="string__functions_8hpp.html" target="_top" xlink:title="string/string_functions.hpp">
<polygon fill="none" stroke="black" points="981.5,-246.5 981.5,-265.5 1112.5,-265.5 1112.5,-246.5 981.5,-246.5"/>
<text text-anchor="middle" x="1047" y="-253.5" font-family="Helvetica,sans-Serif" font-size="10.00">string/string_functions.hpp</text>
</a>
</g>
</g>
<!-- Node16&#45;&gt;Node31 -->
<g id="edge53" class="edge"><title>Node16&#45;&gt;Node31</title>
<path fill="none" stroke="midnightblue" d="M871.958,-302.444C907.787,-293.142 965.163,-278.246 1004.39,-268.062"/>
<polygon fill="midnightblue" stroke="midnightblue" points="1005.4,-271.417 1014.2,-265.516 1003.64,-264.642 1005.4,-271.417"/>
</g>
<!-- Node36 -->
<g id="node36" class="node"><title>Node36</title>
<g id="a_node36"><a xlink:href="auth__system_8hpp.html" target="_top" xlink:title="user/auth_system.hpp">
<polygon fill="none" stroke="black" points="457.5,-246.5 457.5,-265.5 570.5,-265.5 570.5,-246.5 457.5,-246.5"/>
<text text-anchor="middle" x="514" y="-253.5" font-family="Helvetica,sans-Serif" font-size="10.00">user/auth_system.hpp</text>
</a>
</g>
</g>
<!-- Node16&#45;&gt;Node36 -->
<g id="edge60" class="edge"><title>Node16&#45;&gt;Node36</title>
<path fill="none" stroke="midnightblue" d="M787.503,-302.444C729.856,-292.865 636.51,-277.356 575.188,-267.167"/>
<polygon fill="midnightblue" stroke="midnightblue" points="575.695,-263.703 565.256,-265.516 574.547,-270.608 575.695,-263.703"/>
</g>
<!-- Node39 -->
<g id="node39" class="node"><title>Node39</title>
<g id="a_node39"><a xlink:href="user__manager_8hpp.html" target="_top" xlink:title="user/user_manager.hpp">
<polygon fill="none" stroke="black" points="627.5,-246.5 627.5,-265.5 746.5,-265.5 746.5,-246.5 627.5,-246.5"/>
<text text-anchor="middle" x="687" y="-253.5" font-family="Helvetica,sans-Serif" font-size="10.00">user/user_manager.hpp</text>
</a>
</g>
</g>
<!-- Node16&#45;&gt;Node39 -->
<g id="edge69" class="edge"><title>Node16&#45;&gt;Node39</title>
<path fill="none" stroke="midnightblue" d="M814.915,-302.444C789.455,-293.399 749.106,-279.064 720.541,-268.916"/>
<polygon fill="midnightblue" stroke="midnightblue" points="721.567,-265.566 710.972,-265.516 719.223,-272.162 721.567,-265.566"/>
</g>
<!-- Node19&#45;&gt;Node8 -->
<g id="edge31" class="edge"><title>Node19&#45;&gt;Node8</title>
<path fill="none" stroke="midnightblue" d="M1032.45,-128.886C1008.62,-119.217 969.196,-102.808 936,-87 918.769,-78.7944 916.298,-72.4235 898,-67 730.682,-17.4079 678.469,-63.45 507,-31 502.307,-30.1119 497.421,-28.9726 492.622,-27.7237"/>
<polygon fill="midnightblue" stroke="midnightblue" points="493.553,-24.35 482.982,-25.0514 491.683,-31.0956 493.553,-24.35"/>
</g>
<!-- Node19&#45;&gt;Node10 -->
<g id="edge26" class="edge"><title>Node19&#45;&gt;Node10</title>
<path fill="none" stroke="midnightblue" d="M1021.5,-128.998C1013.5,-126.971 1004.95,-124.858 997,-123 925.284,-106.247 904.645,-103.816 828.837,-87.1501"/>
<polygon fill="midnightblue" stroke="midnightblue" points="829.318,-83.6721 818.799,-84.9312 827.808,-90.5071 829.318,-83.6721"/>
</g>
<!-- Node19&#45;&gt;Node11 -->
<g id="edge32" class="edge"><title>Node19&#45;&gt;Node11</title>
<path fill="none" stroke="midnightblue" d="M1023.08,-128.964C1014.66,-126.824 1005.52,-124.666 997,-123 941,-112.048 773.919,-90.7905 703.194,-81.9772"/>
<polygon fill="midnightblue" stroke="midnightblue" points="703.447,-78.4818 693.092,-80.7214 702.584,-85.4283 703.447,-78.4818"/>
</g>
<!-- Node19&#45;&gt;Node13 -->
<g id="edge29" class="edge"><title>Node19&#45;&gt;Node13</title>
<path fill="none" stroke="midnightblue" d="M1079.56,-128.979C1101.56,-120.739 1133.25,-106.613 1156,-87 1173.22,-72.1486 1187.32,-49.9569 1195.9,-34.4503"/>
<polygon fill="midnightblue" stroke="midnightblue" points="1199.13,-35.8438 1200.72,-25.3699 1192.94,-32.5622 1199.13,-35.8438"/>
</g>
<!-- Node19&#45;&gt;Node14 -->
<g id="edge25" class="edge"><title>Node19&#45;&gt;Node14</title>
<path fill="none" stroke="midnightblue" d="M1050.3,-128.825C1043.58,-114.071 1028.02,-84.0342 1006,-67 973.99,-42.2349 928.781,-28.9161 898.257,-22.2797"/>
<polygon fill="midnightblue" stroke="midnightblue" points="898.617,-18.7808 888.118,-20.2032 897.212,-25.6385 898.617,-18.7808"/>
</g>
<!-- Node19&#45;&gt;Node18 -->
<g id="edge30" class="edge"><title>Node19&#45;&gt;Node18</title>
<path fill="none" stroke="midnightblue" d="M1026.63,-128.975C993.068,-118.519 936.071,-100.763 898.985,-89.2099"/>
<polygon fill="midnightblue" stroke="midnightblue" points="899.677,-85.7598 889.089,-86.1271 897.595,-92.443 899.677,-85.7598"/>
</g>
<!-- Node20 -->
<g id="node20" class="node"><title>Node20</title>
<polygon fill="none" stroke="#bfbfbf" points="945,-67.5 945,-86.5 997,-86.5 997,-67.5 945,-67.5"/>
<text text-anchor="middle" x="971" y="-74.5" font-family="Helvetica,sans-Serif" font-size="10.00">memory</text>
</g>
<!-- Node19&#45;&gt;Node20 -->
<g id="edge27" class="edge"><title>Node19&#45;&gt;Node20</title>
<path fill="none" stroke="midnightblue" d="M1042.11,-128.975C1028.8,-119.431 1007,-103.807 991.043,-92.3683"/>
<polygon fill="midnightblue" stroke="midnightblue" points="993.036,-89.4908 982.87,-86.5091 988.958,-95.18 993.036,-89.4908"/>
</g>
<!-- Node21 -->
<g id="node21" class="node"><title>Node21</title>
<polygon fill="none" stroke="#bfbfbf" points="1241.5,-67.5 1241.5,-86.5 1300.5,-86.5 1300.5,-67.5 1241.5,-67.5"/>
<text text-anchor="middle" x="1271" y="-74.5" font-family="Helvetica,sans-Serif" font-size="10.00">stdexcept</text>
</g>
<!-- Node19&#45;&gt;Node21 -->
<g id="edge28" class="edge"><title>Node19&#45;&gt;Node21</title>
<path fill="none" stroke="midnightblue" d="M1085.09,-128.975C1123.63,-118.407 1189.37,-100.383 1231.46,-88.8418"/>
<polygon fill="midnightblue" stroke="midnightblue" points="1232.64,-92.1469 1241.36,-86.1271 1230.79,-85.3961 1232.64,-92.1469"/>
</g>
<!-- Node22 -->
<g id="node22" class="node"><title>Node22</title>
<g id="a_node22"><a xlink:href="color_8hpp.html" target="_top" xlink:title="color.hpp">
<polygon fill="none" stroke="black" points="1091,-67.5 1091,-86.5 1147,-86.5 1147,-67.5 1091,-67.5"/>
<text text-anchor="middle" x="1119" y="-74.5" font-family="Helvetica,sans-Serif" font-size="10.00">color.hpp</text>
</a>
</g>
</g>
<!-- Node19&#45;&gt;Node22 -->
<g id="edge33" class="edge"><title>Node19&#45;&gt;Node22</title>
<path fill="none" stroke="midnightblue" d="M1063.31,-128.975C1073.45,-119.697 1089.86,-104.671 1102.25,-93.331"/>
<polygon fill="midnightblue" stroke="midnightblue" points="1104.69,-95.8429 1109.7,-86.5091 1099.96,-90.6795 1104.69,-95.8429"/>
</g>
<!-- Node22&#45;&gt;Node13 -->
<g id="edge37" class="edge"><title>Node22&#45;&gt;Node13</title>
<path fill="none" stroke="midnightblue" d="M1131.32,-67.4751C1145.12,-57.9315 1167.7,-42.3073 1184.23,-30.8683"/>
<polygon fill="midnightblue" stroke="midnightblue" points="1186.47,-33.577 1192.7,-25.0091 1182.49,-27.8205 1186.47,-33.577"/>
</g>
<!-- Node22&#45;&gt;Node14 -->
<g id="edge35" class="edge"><title>Node22&#45;&gt;Node14</title>
<path fill="none" stroke="midnightblue" d="M1090.85,-69.4051C1043.58,-58.332 948.494,-36.0587 898.101,-24.2539"/>
<polygon fill="midnightblue" stroke="midnightblue" points="898.594,-20.7747 888.059,-21.9016 896.997,-27.5902 898.594,-20.7747"/>
</g>
<!-- Node23 -->
<g id="node23" class="node"><title>Node23</title>
<polygon fill="none" stroke="#bfbfbf" points="1104,-6 1104,-25 1150,-25 1150,-6 1104,-6"/>
<text text-anchor="middle" x="1127" y="-13" font-family="Helvetica,sans-Serif" font-size="10.00">cctype</text>
</g>
<!-- Node22&#45;&gt;Node23 -->
<g id="edge34" class="edge"><title>Node22&#45;&gt;Node23</title>
<path fill="none" stroke="midnightblue" d="M1120.15,-67.4751C1121.27,-59.0803 1123.04,-45.9806 1124.49,-35.1631"/>
<polygon fill="midnightblue" stroke="midnightblue" points="1127.99,-35.3863 1125.86,-25.0091 1121.05,-34.4535 1127.99,-35.3863"/>
</g>
<!-- Node24 -->
<g id="node24" class="node"><title>Node24</title>
<polygon fill="none" stroke="#bfbfbf" points="1040.5,-6 1040.5,-25 1085.5,-25 1085.5,-6 1040.5,-6"/>
<text text-anchor="middle" x="1063" y="-13" font-family="Helvetica,sans-Serif" font-size="10.00">cstdlib</text>
</g>
<!-- Node22&#45;&gt;Node24 -->
<g id="edge36" class="edge"><title>Node22&#45;&gt;Node24</title>
<path fill="none" stroke="midnightblue" d="M1110.98,-67.4751C1102.41,-58.3733 1088.64,-43.741 1078.04,-32.483"/>
<polygon fill="midnightblue" stroke="midnightblue" points="1080.41,-29.8923 1071.01,-25.0091 1075.31,-34.6899 1080.41,-29.8923"/>
</g>
<!-- Node25&#45;&gt;Node5 -->
<g id="edge41" class="edge"><title>Node25&#45;&gt;Node5</title>
<path fill="none" stroke="midnightblue" d="M1304.25,-191.983C1299.44,-191.286 1294.62,-190.612 1290,-190 1147.68,-171.172 1108.19,-189.141 969,-154 966.336,-153.327 963.607,-152.501 960.901,-151.587"/>
<polygon fill="midnightblue" stroke="midnightblue" points="961.956,-148.245 951.363,-148.011 959.498,-154.799 961.956,-148.245"/>
</g>
<!-- Node25&#45;&gt;Node8 -->
<g id="edge44" class="edge"><title>Node25&#45;&gt;Node8</title>
<path fill="none" stroke="midnightblue" d="M1319.99,-190.441C1291.69,-181.896 1247.53,-168.047 1210,-154 1117.69,-119.452 1101.8,-90.1968 1006,-67 789.891,-14.6713 725.875,-70.1818 507,-31 502.246,-30.1489 497.298,-29.0214 492.444,-27.7698"/>
<polygon fill="midnightblue" stroke="midnightblue" points="493.277,-24.3688 482.705,-25.0756 491.41,-31.1154 493.277,-24.3688"/>
</g>
<!-- Node25&#45;&gt;Node12 -->
<g id="edge52" class="edge"><title>Node25&#45;&gt;Node12</title>
<path fill="none" stroke="midnightblue" d="M1304.24,-192.042C1299.44,-191.334 1294.62,-190.641 1290,-190 1162.23,-172.272 1120.59,-204.747 1002,-154 981.962,-145.426 984.098,-131.434 964,-123 962.964,-122.565 708.909,-94.5932 603.259,-82.9749"/>
<polygon fill="midnightblue" stroke="midnightblue" points="603.536,-79.4844 593.214,-81.8703 602.771,-86.4424 603.536,-79.4844"/>
</g>
<!-- Node25&#45;&gt;Node13 -->
<g id="edge43" class="edge"><title>Node25&#45;&gt;Node13</title>
<path fill="none" stroke="midnightblue" d="M1393.74,-194.589C1447.33,-188.422 1532.8,-175.498 1556,-154 1585.1,-127.032 1602.09,-96.8867 1576,-67 1531.81,-16.3888 1317.08,-14.5857 1236.04,-15.7671"/>
<polygon fill="midnightblue" stroke="midnightblue" points="1235.9,-12.2689 1225.96,-15.9401 1236.02,-19.2679 1235.9,-12.2689"/>
</g>
<!-- Node25&#45;&gt;Node19 -->
<g id="edge51" class="edge"><title>Node25&#45;&gt;Node19</title>
<path fill="none" stroke="midnightblue" d="M1304.09,-191.367C1256.11,-183.014 1177.92,-168.824 1111,-154 1106.21,-152.938 1101.2,-151.763 1096.23,-150.556"/>
<polygon fill="midnightblue" stroke="midnightblue" points="1096.72,-147.07 1086.17,-148.056 1095.03,-153.864 1096.72,-147.07"/>
</g>
<!-- Node25&#45;&gt;Node21 -->
<g id="edge42" class="edge"><title>Node25&#45;&gt;Node21</title>
<path fill="none" stroke="midnightblue" d="M1309.25,-190.433C1275.4,-182.236 1230.61,-168.939 1220,-154 1212.02,-142.767 1214.33,-135.558 1220,-123 1225.62,-110.555 1236.56,-100.172 1246.88,-92.5273"/>
<polygon fill="midnightblue" stroke="midnightblue" points="1249.01,-95.3123 1255.27,-86.7643 1245.04,-89.5431 1249.01,-95.3123"/>
</g>
<!-- Node26 -->
<g id="node26" class="node"><title>Node26</title>
<polygon fill="none" stroke="#bfbfbf" points="1229,-129 1229,-148 1279,-148 1279,-129 1229,-129"/>
<text text-anchor="middle" x="1254" y="-136" font-family="Helvetica,sans-Serif" font-size="10.00">iomanip</text>
</g>
<!-- Node25&#45;&gt;Node26 -->
<g id="edge39" class="edge"><title>Node25&#45;&gt;Node26</title>
<path fill="none" stroke="midnightblue" d="M1335.39,-190.475C1319.94,-180.799 1294.51,-164.872 1276.18,-153.394"/>
<polygon fill="midnightblue" stroke="midnightblue" points="1277.92,-150.351 1267.59,-148.009 1274.2,-156.283 1277.92,-150.351"/>
</g>
<!-- Node27 -->
<g id="node27" class="node"><title>Node27</title>
<polygon fill="none" stroke="#bfbfbf" points="1513,-67.5 1513,-86.5 1567,-86.5 1567,-67.5 1513,-67.5"/>
<text text-anchor="middle" x="1540" y="-74.5" font-family="Helvetica,sans-Serif" font-size="10.00">iostream</text>
</g>
<!-- Node25&#45;&gt;Node27 -->
<g id="edge40" class="edge"><title>Node25&#45;&gt;Node27</title>
<path fill="none" stroke="midnightblue" d="M1393.87,-194.556C1443.88,-188.58 1520.09,-176.066 1538,-154 1550.96,-138.026 1548.88,-113.332 1545.27,-96.4567"/>
<polygon fill="midnightblue" stroke="midnightblue" points="1548.64,-95.5173 1542.82,-86.6668 1541.85,-97.2175 1548.64,-95.5173"/>
</g>
<!-- Node28 -->
<g id="node28" class="node"><title>Node28</title>
<polygon fill="none" stroke="#bfbfbf" points="1297.5,-123.5 1297.5,-153.5 1402.5,-153.5 1402.5,-123.5 1297.5,-123.5"/>
<text text-anchor="start" x="1305.5" y="-141.5" font-family="Helvetica,sans-Serif" font-size="10.00">boost/chrono/io/time</text>
<text text-anchor="middle" x="1350" y="-130.5" font-family="Helvetica,sans-Serif" font-size="10.00">_point_io.hpp</text>
</g>
<!-- Node25&#45;&gt;Node28 -->
<g id="edge45" class="edge"><title>Node25&#45;&gt;Node28</title>
<path fill="none" stroke="midnightblue" d="M1349.14,-190.475C1349.26,-183.471 1349.43,-173.192 1349.59,-163.696"/>
<polygon fill="midnightblue" stroke="midnightblue" points="1353.1,-163.58 1349.76,-153.523 1346.1,-163.463 1353.1,-163.58"/>
</g>
<!-- Node29 -->
<g id="node29" class="node"><title>Node29</title>
<g id="a_node29"><a xlink:href="multibuf_8hpp.html" target="_top" xlink:title="multibuf.hpp">
<polygon fill="none" stroke="black" points="1459,-129 1459,-148 1529,-148 1529,-129 1459,-129"/>
<text text-anchor="middle" x="1494" y="-136" font-family="Helvetica,sans-Serif" font-size="10.00">multibuf.hpp</text>
</a>
</g>
</g>
<!-- Node25&#45;&gt;Node29 -->
<g id="edge46" class="edge"><title>Node25&#45;&gt;Node29</title>
<path fill="none" stroke="midnightblue" d="M1369.77,-190.475C1394.43,-180.357 1435.75,-163.405 1463.9,-151.851"/>
<polygon fill="midnightblue" stroke="midnightblue" points="1465.34,-155.043 1473.26,-148.009 1462.68,-148.567 1465.34,-155.043"/>
</g>
<!-- Node29&#45;&gt;Node11 -->
<g id="edge49" class="edge"><title>Node29&#45;&gt;Node11</title>
<path fill="none" stroke="midnightblue" d="M1458.62,-130.281C1444.21,-127.594 1427.37,-124.77 1412,-123 1119.28,-89.2846 1043.62,-111.687 750,-87 734.654,-85.7097 717.68,-83.8348 703.412,-82.1299"/>
<polygon fill="midnightblue" stroke="midnightblue" points="703.45,-78.6086 693.1,-80.8717 702.602,-85.5571 703.45,-78.6086"/>
</g>
<!-- Node29&#45;&gt;Node13 -->
<g id="edge50" class="edge"><title>Node29&#45;&gt;Node13</title>
<path fill="none" stroke="midnightblue" d="M1493.16,-128.564C1491.23,-113.413 1485.06,-82.7968 1466,-67 1431.22,-38.1794 1297.03,-23.9076 1235.79,-18.786"/>
<polygon fill="midnightblue" stroke="midnightblue" points="1235.83,-15.2783 1225.58,-17.9613 1235.27,-22.2556 1235.83,-15.2783"/>
</g>
<!-- Node29&#45;&gt;Node27 -->
<g id="edge47" class="edge"><title>Node29&#45;&gt;Node27</title>
<path fill="none" stroke="midnightblue" d="M1500.59,-128.975C1507.49,-120.05 1518.5,-105.807 1527.13,-94.6425"/>
<polygon fill="midnightblue" stroke="midnightblue" points="1530.07,-96.5612 1533.42,-86.5091 1524.54,-92.2798 1530.07,-96.5612"/>
</g>
<!-- Node30 -->
<g id="node30" class="node"><title>Node30</title>
<polygon fill="none" stroke="#bfbfbf" points="1407,-67.5 1407,-86.5 1457,-86.5 1457,-67.5 1407,-67.5"/>
<text text-anchor="middle" x="1432" y="-74.5" font-family="Helvetica,sans-Serif" font-size="10.00">fstream</text>
</g>
<!-- Node29&#45;&gt;Node30 -->
<g id="edge48" class="edge"><title>Node29&#45;&gt;Node30</title>
<path fill="none" stroke="midnightblue" d="M1485.12,-128.975C1475.54,-119.785 1460.09,-104.956 1448.31,-93.656"/>
<polygon fill="midnightblue" stroke="midnightblue" points="1450.51,-90.908 1440.87,-86.5091 1445.66,-95.9585 1450.51,-90.908"/>
</g>
<!-- Node31&#45;&gt;Node13 -->
<g id="edge58" class="edge"><title>Node31&#45;&gt;Node13</title>
<path fill="none" stroke="midnightblue" d="M1077.79,-246.46C1097.46,-239.558 1122.15,-227.982 1138,-210 1183.8,-158.036 1198.7,-73.0805 1203.2,-35.4559"/>
<polygon fill="midnightblue" stroke="midnightblue" points="1206.69,-35.7055 1204.28,-25.3877 1199.73,-34.9545 1206.69,-35.7055"/>
</g>
<!-- Node31&#45;&gt;Node18 -->
<g id="edge57" class="edge"><title>Node31&#45;&gt;Node18</title>
<path fill="none" stroke="midnightblue" d="M1013.47,-246.365C990.925,-239.323 961.513,-227.624 940,-210 902.33,-179.14 879.094,-124.674 868.959,-96.3174"/>
<polygon fill="midnightblue" stroke="midnightblue" points="872.263,-95.1601 865.714,-86.8316 865.639,-97.4261 872.263,-95.1601"/>
</g>
<!-- Node32 -->
<g id="node32" class="node"><title>Node32</title>
<polygon fill="none" stroke="#bfbfbf" points="949,-190.5 949,-209.5 1005,-209.5 1005,-190.5 949,-190.5"/>
<text text-anchor="middle" x="977" y="-197.5" font-family="Helvetica,sans-Serif" font-size="10.00">algorithm</text>
</g>
<!-- Node31&#45;&gt;Node32 -->
<g id="edge54" class="edge"><title>Node31&#45;&gt;Node32</title>
<path fill="none" stroke="midnightblue" d="M1035.75,-246.324C1025.2,-238.185 1009.2,-225.839 996.558,-216.087"/>
<polygon fill="midnightblue" stroke="midnightblue" points="998.507,-213.171 988.451,-209.834 994.231,-218.713 998.507,-213.171"/>
</g>
<!-- Node33 -->
<g id="node33" class="node"><title>Node33</title>
<polygon fill="none" stroke="#bfbfbf" points="1023.5,-190.5 1023.5,-209.5 1070.5,-209.5 1070.5,-190.5 1023.5,-190.5"/>
<text text-anchor="middle" x="1047" y="-197.5" font-family="Helvetica,sans-Serif" font-size="10.00">iterator</text>
</g>
<!-- Node31&#45;&gt;Node33 -->
<g id="edge55" class="edge"><title>Node31&#45;&gt;Node33</title>
<path fill="none" stroke="midnightblue" d="M1047,-246.083C1047,-239.006 1047,-228.861 1047,-219.986"/>
<polygon fill="midnightblue" stroke="midnightblue" points="1050.5,-219.751 1047,-209.751 1043.5,-219.751 1050.5,-219.751"/>
</g>
<!-- Node34 -->
<g id="node34" class="node"><title>Node34</title>
<polygon fill="none" stroke="#bfbfbf" points="1088.5,-190.5 1088.5,-209.5 1129.5,-209.5 1129.5,-190.5 1088.5,-190.5"/>
<text text-anchor="middle" x="1109" y="-197.5" font-family="Helvetica,sans-Serif" font-size="10.00">regex</text>
</g>
<!-- Node31&#45;&gt;Node34 -->
<g id="edge56" class="edge"><title>Node31&#45;&gt;Node34</title>
<path fill="none" stroke="midnightblue" d="M1056.96,-246.324C1066.13,-238.341 1079.94,-226.313 1091.03,-216.653"/>
<polygon fill="midnightblue" stroke="midnightblue" points="1093.62,-219.041 1098.86,-209.834 1089.02,-213.762 1093.62,-219.041"/>
</g>
<!-- Node35 -->
<g id="node35" class="node"><title>Node35</title>
<polygon fill="none" stroke="#bfbfbf" points="1186,-190.5 1186,-209.5 1248,-209.5 1248,-190.5 1186,-190.5"/>
<text text-anchor="middle" x="1217" y="-197.5" font-family="Helvetica,sans-Serif" font-size="10.00">type_traits</text>
</g>
<!-- Node31&#45;&gt;Node35 -->
<g id="edge59" class="edge"><title>Node31&#45;&gt;Node35</title>
<path fill="none" stroke="midnightblue" d="M1073.94,-246.444C1102.66,-237.32 1148.33,-222.813 1180.32,-212.651"/>
<polygon fill="midnightblue" stroke="midnightblue" points="1181.72,-215.88 1190.19,-209.516 1179.6,-209.208 1181.72,-215.88"/>
</g>
<!-- Node36&#45;&gt;Node8 -->
<g id="edge61" class="edge"><title>Node36&#45;&gt;Node8</title>
<path fill="none" stroke="midnightblue" d="M505.839,-246.446C490.864,-230.085 459.477,-192.545 448,-154 435.754,-112.873 445.088,-61.8736 451.772,-35.028"/>
<polygon fill="midnightblue" stroke="midnightblue" points="455.225,-35.6638 454.404,-25.1008 448.458,-33.8698 455.225,-35.6638"/>
</g>
<!-- Node37 -->
<g id="node37" class="node"><title>Node37</title>
<g id="a_node37"><a xlink:href="user__group_8hpp.html" target="_top" xlink:title="user_group.hpp">
<polygon fill="none" stroke="black" points="533.5,-190.5 533.5,-209.5 616.5,-209.5 616.5,-190.5 533.5,-190.5"/>
<text text-anchor="middle" x="575" y="-197.5" font-family="Helvetica,sans-Serif" font-size="10.00">user_group.hpp</text>
</a>
</g>
</g>
<!-- Node36&#45;&gt;Node37 -->
<g id="edge62" class="edge"><title>Node36&#45;&gt;Node37</title>
<path fill="none" stroke="midnightblue" d="M523.801,-246.324C532.818,-238.341 546.406,-226.313 557.318,-216.653"/>
<polygon fill="midnightblue" stroke="midnightblue" points="559.853,-219.083 565.021,-209.834 555.213,-213.842 559.853,-219.083"/>
</g>
<!-- Node37&#45;&gt;Node11 -->
<g id="edge63" class="edge"><title>Node37&#45;&gt;Node11</title>
<path fill="none" stroke="midnightblue" d="M581.904,-190.298C597.818,-170.24 637.29,-120.489 657.939,-94.4628"/>
<polygon fill="midnightblue" stroke="midnightblue" points="660.685,-96.6325 664.158,-86.6232 655.201,-92.2817 660.685,-96.6325"/>
</g>
<!-- Node38 -->
<g id="node38" class="node"><title>Node38</title>
<g id="a_node38"><a xlink:href="user_8hpp.html" target="_top" xlink:title="user.hpp">
<polygon fill="none" stroke="black" points="457,-129 457,-148 511,-148 511,-129 457,-129"/>
<text text-anchor="middle" x="484" y="-136" font-family="Helvetica,sans-Serif" font-size="10.00">user.hpp</text>
</a>
</g>
</g>
<!-- Node37&#45;&gt;Node38 -->
<g id="edge64" class="edge"><title>Node37&#45;&gt;Node38</title>
<path fill="none" stroke="midnightblue" d="M561.962,-190.475C547.231,-180.843 523.027,-165.017 505.491,-153.552"/>
<polygon fill="midnightblue" stroke="midnightblue" points="507.299,-150.552 497.014,-148.009 503.468,-156.411 507.299,-150.552"/>
</g>
<!-- Node38&#45;&gt;Node8 -->
<g id="edge67" class="edge"><title>Node38&#45;&gt;Node8</title>
<path fill="none" stroke="midnightblue" d="M482.058,-128.798C477.699,-109.263 467.056,-61.5646 461.139,-35.0471"/>
<polygon fill="midnightblue" stroke="midnightblue" points="464.518,-34.1209 458.924,-25.1232 457.686,-35.6454 464.518,-34.1209"/>
</g>
<!-- Node38&#45;&gt;Node11 -->
<g id="edge66" class="edge"><title>Node38&#45;&gt;Node11</title>
<path fill="none" stroke="midnightblue" d="M507.792,-128.9C513.419,-126.918 519.409,-124.849 525,-123 563.97,-110.109 609.177,-96.3593 638.84,-87.4996"/>
<polygon fill="midnightblue" stroke="midnightblue" points="640.063,-90.7874 648.648,-84.5792 638.065,-84.0785 640.063,-90.7874"/>
</g>
<!-- Node38&#45;&gt;Node12 -->
<g id="edge68" class="edge"><title>Node38&#45;&gt;Node12</title>
<path fill="none" stroke="midnightblue" d="M494.602,-128.975C506.252,-119.608 525.186,-104.384 539.335,-93.0081"/>
<polygon fill="midnightblue" stroke="midnightblue" points="541.817,-95.503 547.417,-86.5091 537.431,-90.0477 541.817,-95.503"/>
</g>
<!-- Node38&#45;&gt;Node13 -->
<g id="edge65" class="edge"><title>Node38&#45;&gt;Node13</title>
<path fill="none" stroke="midnightblue" d="M505.547,-128.886C529.38,-119.217 568.804,-102.808 602,-87 619.231,-78.7944 621.642,-72.2168 640,-67 862.415,-3.79763 931.823,-74.0562 1159,-31 1164.11,-30.0308 1169.46,-28.6775 1174.61,-27.1837"/>
<polygon fill="midnightblue" stroke="midnightblue" points="1175.69,-30.5146 1184.2,-24.202 1173.61,-23.8306 1175.69,-30.5146"/>
</g>
<!-- Node39&#45;&gt;Node38 -->
<g id="edge70" class="edge"><title>Node39&#45;&gt;Node38</title>
<path fill="none" stroke="midnightblue" d="M627.338,-249.76C594.071,-244.262 553.523,-233.009 524,-210 507.046,-196.786 496.083,-174.241 489.998,-158.205"/>
<polygon fill="midnightblue" stroke="midnightblue" points="493.153,-156.624 486.551,-148.338 486.544,-158.933 493.153,-156.624"/>
</g>
<!-- Node40 -->
<g id="node40" class="node"><title>Node40</title>
<polygon fill="none" stroke="#bfbfbf" points="711.5,-190.5 711.5,-209.5 740.5,-209.5 740.5,-190.5 711.5,-190.5"/>
<text text-anchor="middle" x="726" y="-197.5" font-family="Helvetica,sans-Serif" font-size="10.00">list</text>
</g>
<!-- Node39&#45;&gt;Node40 -->
<g id="edge71" class="edge"><title>Node39&#45;&gt;Node40</title>
<path fill="none" stroke="midnightblue" d="M693.44,-246.083C698.949,-238.455 707.031,-227.264 713.765,-217.941"/>
<polygon fill="midnightblue" stroke="midnightblue" points="716.662,-219.907 719.68,-209.751 710.987,-215.809 716.662,-219.907"/>
</g>
<!-- Node41&#45;&gt;Node12 -->
<g id="edge73" class="edge"><title>Node41&#45;&gt;Node12</title>
<path fill="none" stroke="midnightblue" d="M469.786,-302.182C462.456,-293.663 452.245,-280.019 448,-266 429.583,-205.171 412.575,-175.767 448,-123 462.491,-101.415 489.365,-90.1766 512.922,-84.3287"/>
<polygon fill="midnightblue" stroke="midnightblue" points="513.767,-87.7262 522.769,-82.1381 512.247,-80.8933 513.767,-87.7262"/>
</g>
<!-- Node42&#45;&gt;Node2 -->
<g id="edge84" class="edge"><title>Node42&#45;&gt;Node2</title>
<path fill="none" stroke="midnightblue" d="M996.457,-419.073C868.091,-409.099 530.616,-382.878 402.402,-372.916"/>
<polygon fill="midnightblue" stroke="midnightblue" points="402.336,-369.401 392.095,-372.115 401.793,-376.379 402.336,-369.401"/>
</g>
<!-- Node42&#45;&gt;Node8 -->
<g id="edge79" class="edge"><title>Node42&#45;&gt;Node8</title>
<path fill="none" stroke="midnightblue" d="M1012.38,-414.498C886.144,-383.426 457.417,-277.241 448,-266 391.052,-198.02 430.879,-79.336 449.169,-34.4154"/>
<polygon fill="midnightblue" stroke="midnightblue" points="452.437,-35.6727 453.092,-25.0981 445.986,-32.9566 452.437,-35.6727"/>
</g>
<!-- Node42&#45;&gt;Node10 -->
<g id="edge75" class="edge"><title>Node42&#45;&gt;Node10</title>
<path fill="none" stroke="midnightblue" d="M1040.62,-414.472C1006.74,-369.17 847.684,-156.473 801.563,-94.7998"/>
<polygon fill="midnightblue" stroke="midnightblue" points="804.177,-92.4511 795.386,-86.5389 798.572,-96.6434 804.177,-92.4511"/>
</g>
<!-- Node42&#45;&gt;Node12 -->
<g id="edge81" class="edge"><title>Node42&#45;&gt;Node12</title>
<path fill="none" stroke="midnightblue" d="M1097.54,-420.479C1164.98,-414.085 1276,-391.619 1276,-313 1276,-313 1276,-313 1276,-255 1276,-224.902 1280.14,-209.245 1257,-190 1196.03,-139.299 980.29,-166.574 902,-154 792.229,-136.37 664.906,-105.458 600.302,-89.0157"/>
<polygon fill="midnightblue" stroke="midnightblue" points="601.04,-85.5918 590.484,-86.5052 599.306,-92.3736 601.04,-85.5918"/>
</g>
<!-- Node42&#45;&gt;Node13 -->
<g id="edge76" class="edge"><title>Node42&#45;&gt;Node13</title>
<path fill="none" stroke="midnightblue" d="M1097.72,-418.819C1240.08,-406.41 1633,-367.247 1633,-313 1633,-313 1633,-313 1633,-137.5 1633,-101.905 1624.33,-87.1749 1595,-67 1536.73,-26.9108 1317.3,-18.6341 1235.76,-16.9353"/>
<polygon fill="midnightblue" stroke="midnightblue" points="1235.71,-13.4337 1225.64,-16.744 1235.57,-20.4324 1235.71,-13.4337"/>
</g>
<!-- Node42&#45;&gt;Node16 -->
<g id="edge80" class="edge"><title>Node42&#45;&gt;Node16</title>
<path fill="none" stroke="midnightblue" d="M1022.84,-414.375C1000.56,-406.092 966.845,-392.695 939,-378 909.939,-362.663 878.48,-341.363 858.763,-327.386"/>
<polygon fill="midnightblue" stroke="midnightblue" points="860.75,-324.504 850.582,-321.528 856.675,-330.195 860.75,-324.504"/>
</g>
<!-- Node42&#45;&gt;Node21 -->
<g id="edge77" class="edge"><title>Node42&#45;&gt;Node21</title>
<path fill="none" stroke="midnightblue" d="M1097.6,-419.156C1201.87,-409.84 1431,-381.568 1431,-313 1431,-313 1431,-313 1431,-199 1431,-164.183 1435.82,-148.394 1412,-123 1385.94,-95.2177 1342.78,-84.5217 1311.06,-80.4397"/>
<polygon fill="midnightblue" stroke="midnightblue" points="1311.11,-76.9237 1300.79,-79.2938 1310.34,-83.8806 1311.11,-76.9237"/>
</g>
<!-- Node42&#45;&gt;Node25 -->
<g id="edge82" class="edge"><title>Node42&#45;&gt;Node25</title>
<path fill="none" stroke="midnightblue" d="M1097.7,-419.604C1160.29,-414.417 1261.92,-402.432 1290,-378 1337.41,-336.749 1346.84,-256.369 1348.64,-219.856"/>
<polygon fill="midnightblue" stroke="midnightblue" points="1352.14,-219.763 1348.99,-209.648 1345.15,-219.522 1352.14,-219.763"/>
</g>
<!-- Node42&#45;&gt;Node31 -->
<g id="edge83" class="edge"><title>Node42&#45;&gt;Node31</title>
<path fill="none" stroke="midnightblue" d="M1047,-414.075C1047,-387.945 1047,-311.211 1047,-275.577"/>
<polygon fill="midnightblue" stroke="midnightblue" points="1050.5,-275.568 1047,-265.568 1043.5,-275.568 1050.5,-275.568"/>
</g>
<!-- Node42&#45;&gt;Node35 -->
<g id="edge78" class="edge"><title>Node42&#45;&gt;Node35</title>
<path fill="none" stroke="midnightblue" d="M1053.66,-414.297C1079.05,-381.148 1169.97,-262.414 1204.01,-217.961"/>
<polygon fill="midnightblue" stroke="midnightblue" points="1206.9,-219.951 1210.2,-209.884 1201.34,-215.695 1206.9,-219.951"/>
</g>
</g>
</svg>
