<?xml version="1.0" encoding="UTF-8" standalone="no"?>
<!DOCTYPE svg PUBLIC "-//W3C//DTD SVG 1.1//EN"
 "http://www.w3.org/Graphics/SVG/1.1/DTD/svg11.dtd">
<!-- Generated by graphviz version 2.38.0 (20140413.2041)
 -->
<!-- Title: modules/irc/network/connection.hpp Pages: 1 -->
<svg width="1524pt" height="453pt"
 viewBox="0.00 0.00 1523.50 453.00" xmlns="http://www.w3.org/2000/svg" xmlns:xlink="http://www.w3.org/1999/xlink">
<g id="graph0" class="graph" transform="scale(1 1) rotate(0) translate(4 449)">
<title>modules/irc/network/connection.hpp</title>
<!-- Node1 -->
<g id="node1" class="node"><title>Node1</title>
<polygon fill="#bfbfbf" stroke="black" points="795.5,-414.5 795.5,-444.5 899.5,-444.5 899.5,-414.5 795.5,-414.5"/>
<text text-anchor="start" x="803.5" y="-432.5" font-family="Helvetica,sans-Serif" font-size="10.00">modules/irc/network</text>
<text text-anchor="middle" x="847.5" y="-421.5" font-family="Helvetica,sans-Serif" font-size="10.00">/connection.hpp</text>
</g>
<!-- Node2 -->
<g id="node2" class="node"><title>Node2</title>
<polygon fill="none" stroke="#bfbfbf" points="358,-190.5 358,-209.5 387,-209.5 387,-190.5 358,-190.5"/>
<text text-anchor="middle" x="372.5" y="-197.5" font-family="Helvetica,sans-Serif" font-size="10.00">list</text>
</g>
<!-- Node1&#45;&gt;Node2 -->
<g id="edge1" class="edge"><title>Node1&#45;&gt;Node2</title>
<path fill="none" stroke="midnightblue" d="M795.255,-422.757C704.234,-410.161 515.435,-372.2 401.5,-266 388.246,-253.646 380.662,-234.121 376.6,-219.691"/>
<polygon fill="midnightblue" stroke="midnightblue" points="379.962,-218.709 374.145,-209.854 373.17,-220.404 379.962,-218.709"/>
</g>
<!-- Node3 -->
<g id="node3" class="node"><title>Node3</title>
<polygon fill="none" stroke="#bfbfbf" points="1336,-246.5 1336,-265.5 1379,-265.5 1379,-246.5 1336,-246.5"/>
<text text-anchor="middle" x="1357.5" y="-253.5" font-family="Helvetica,sans-Serif" font-size="10.00">queue</text>
</g>
<!-- Node1&#45;&gt;Node3 -->
<g id="edge2" class="edge"><title>Node1&#45;&gt;Node3</title>
<path fill="none" stroke="midnightblue" d="M899.604,-425.977C972.091,-421.44 1106.92,-409.257 1217.5,-378 1276.86,-361.221 1305.88,-370.105 1344.5,-322 1354.96,-308.971 1357.74,-289.813 1358.18,-275.669"/>
<polygon fill="midnightblue" stroke="midnightblue" points="1361.68,-275.6 1358.14,-265.614 1354.68,-275.629 1361.68,-275.6"/>
</g>
<!-- Node4 -->
<g id="node4" class="node"><title>Node4</title>
<polygon fill="none" stroke="#bfbfbf" points="0,-67.5 0,-86.5 41,-86.5 41,-67.5 0,-67.5"/>
<text text-anchor="middle" x="20.5" y="-74.5" font-family="Helvetica,sans-Serif" font-size="10.00">regex</text>
</g>
<!-- Node1&#45;&gt;Node4 -->
<g id="edge3" class="edge"><title>Node1&#45;&gt;Node4</title>
<path fill="none" stroke="midnightblue" d="M795.353,-426.571C616.44,-419.27 38.5,-389.746 38.5,-313 38.5,-313 38.5,-313 38.5,-199 38.5,-162.497 30.3863,-120.467 25.0538,-96.7861"/>
<polygon fill="midnightblue" stroke="midnightblue" points="28.39,-95.6811 22.7072,-86.7393 21.5735,-97.2733 28.39,-95.6811"/>
</g>
<!-- Node5 -->
<g id="node5" class="node"><title>Node5</title>
<polygon fill="none" stroke="#bfbfbf" points="388,-67.5 388,-86.5 447,-86.5 447,-67.5 388,-67.5"/>
<text text-anchor="middle" x="417.5" y="-74.5" font-family="Helvetica,sans-Serif" font-size="10.00">stdexcept</text>
</g>
<!-- Node1&#45;&gt;Node5 -->
<g id="edge4" class="edge"><title>Node1&#45;&gt;Node5</title>
<path fill="none" stroke="midnightblue" d="M795.46,-427.853C664.103,-424.819 329.5,-407.788 329.5,-313 329.5,-313 329.5,-313 329.5,-199 329.5,-153.493 370.714,-113.602 396.732,-92.9539"/>
<polygon fill="midnightblue" stroke="midnightblue" points="399.078,-95.566 404.892,-86.7087 394.823,-90.0074 399.078,-95.566"/>
</g>
<!-- Node6 -->
<g id="node6" class="node"><title>Node6</title>
<polygon fill="none" stroke="#bfbfbf" points="1298,-6 1298,-25 1381,-25 1381,-6 1298,-6"/>
<text text-anchor="middle" x="1339.5" y="-13" font-family="Helvetica,sans-Serif" font-size="10.00">unordered_map</text>
</g>
<!-- Node1&#45;&gt;Node6 -->
<g id="edge5" class="edge"><title>Node1&#45;&gt;Node6</title>
<path fill="none" stroke="midnightblue" d="M899.639,-424.985C1056.85,-413.696 1515.5,-375.414 1515.5,-313 1515.5,-313 1515.5,-313 1515.5,-137.5 1515.5,-75.6678 1440.82,-43.0484 1388.76,-27.8196"/>
<polygon fill="midnightblue" stroke="midnightblue" points="1389.57,-24.413 1379,-25.0887 1387.68,-31.154 1389.57,-24.413"/>
</g>
<!-- Node7 -->
<g id="node7" class="node"><title>Node7</title>
<g id="a_node7"><a xlink:href="src_2network_2connection_8hpp.html" target="_top" xlink:title="network/connection.hpp">
<polygon fill="none" stroke="black" points="709.5,-302.5 709.5,-321.5 829.5,-321.5 829.5,-302.5 709.5,-302.5"/>
<text text-anchor="middle" x="769.5" y="-309.5" font-family="Helvetica,sans-Serif" font-size="10.00">network/connection.hpp</text>
</a>
</g>
</g>
<!-- Node1&#45;&gt;Node7 -->
<g id="edge6" class="edge"><title>Node1&#45;&gt;Node7</title>
<path fill="none" stroke="midnightblue" d="M837.936,-414.337C823.563,-393.054 796.437,-352.887 781.004,-330.035"/>
<polygon fill="midnightblue" stroke="midnightblue" points="783.852,-327.998 775.355,-321.669 778.051,-331.916 783.852,-327.998"/>
</g>
<!-- Node37 -->
<g id="node37" class="node"><title>Node37</title>
<g id="a_node37"><a xlink:href="buffer_8hpp.html" target="_top" xlink:title="irc/network/buffer.hpp">
<polygon fill="none" stroke="black" points="846,-358.5 846,-377.5 957,-377.5 957,-358.5 846,-358.5"/>
<text text-anchor="middle" x="901.5" y="-365.5" font-family="Helvetica,sans-Serif" font-size="10.00">irc/network/buffer.hpp</text>
</a>
</g>
</g>
<!-- Node1&#45;&gt;Node37 -->
<g id="edge65" class="edge"><title>Node1&#45;&gt;Node37</title>
<path fill="none" stroke="midnightblue" d="M860.297,-414.399C868.225,-405.664 878.436,-394.413 886.71,-385.296"/>
<polygon fill="midnightblue" stroke="midnightblue" points="889.514,-387.415 893.643,-377.658 884.33,-382.711 889.514,-387.415"/>
</g>
<!-- Node42 -->
<g id="node42" class="node"><title>Node42</title>
<g id="a_node42"><a xlink:href="melanobot_8hpp.html" target="_top" xlink:title="melanobot.hpp">
<polygon fill="none" stroke="black" points="1128.5,-358.5 1128.5,-377.5 1208.5,-377.5 1208.5,-358.5 1128.5,-358.5"/>
<text text-anchor="middle" x="1168.5" y="-365.5" font-family="Helvetica,sans-Serif" font-size="10.00">melanobot.hpp</text>
</a>
</g>
</g>
<!-- Node1&#45;&gt;Node42 -->
<g id="edge77" class="edge"><title>Node1&#45;&gt;Node42</title>
<path fill="none" stroke="midnightblue" d="M899.789,-418.808C960.247,-407.601 1059.05,-389.288 1118.51,-378.265"/>
<polygon fill="midnightblue" stroke="midnightblue" points="1119.23,-381.693 1128.42,-376.429 1117.95,-374.81 1119.23,-381.693"/>
</g>
<!-- Node8 -->
<g id="node8" class="node"><title>Node8</title>
<polygon fill="none" stroke="#bfbfbf" points="1043.5,-246.5 1043.5,-265.5 1089.5,-265.5 1089.5,-246.5 1043.5,-246.5"/>
<text text-anchor="middle" x="1066.5" y="-253.5" font-family="Helvetica,sans-Serif" font-size="10.00">atomic</text>
</g>
<!-- Node7&#45;&gt;Node8 -->
<g id="edge7" class="edge"><title>Node7&#45;&gt;Node8</title>
<path fill="none" stroke="midnightblue" d="M816.561,-302.444C877.131,-291.431 980.831,-272.576 1033.59,-262.984"/>
<polygon fill="midnightblue" stroke="midnightblue" points="1034.22,-266.427 1043.43,-261.194 1032.97,-259.54 1034.22,-266.427"/>
</g>
<!-- Node9 -->
<g id="node9" class="node"><title>Node9</title>
<polygon fill="none" stroke="#bfbfbf" points="519.5,-246.5 519.5,-265.5 565.5,-265.5 565.5,-246.5 519.5,-246.5"/>
<text text-anchor="middle" x="542.5" y="-253.5" font-family="Helvetica,sans-Serif" font-size="10.00">chrono</text>
</g>
<!-- Node7&#45;&gt;Node9 -->
<g id="edge8" class="edge"><title>Node7&#45;&gt;Node9</title>
<path fill="none" stroke="midnightblue" d="M733.06,-302.439C694.801,-293.433 632.899,-278.818 579.5,-266 578.234,-265.696 576.945,-265.386 575.642,-265.072"/>
<polygon fill="midnightblue" stroke="midnightblue" points="576.13,-261.589 565.587,-262.639 574.484,-268.393 576.13,-261.589"/>
</g>
<!-- Node10 -->
<g id="node10" class="node"><title>Node10</title>
<polygon fill="none" stroke="#bfbfbf" points="557.5,-6 557.5,-25 603.5,-25 603.5,-6 557.5,-6"/>
<text text-anchor="middle" x="580.5" y="-13" font-family="Helvetica,sans-Serif" font-size="10.00">cstdint</text>
</g>
<!-- Node7&#45;&gt;Node10 -->
<g id="edge9" class="edge"><title>Node7&#45;&gt;Node10</title>
<path fill="none" stroke="midnightblue" d="M709.358,-302.918C619.985,-290.829 461.961,-269.117 456.5,-266 418.883,-244.531 433.017,-211.642 395.5,-190 270.836,-118.086 145.957,-218.952 88.5,-87 48.7092,4.38145 435.624,-49.8218 533.5,-31 538.057,-30.1237 542.797,-28.966 547.438,-27.6859"/>
<polygon fill="midnightblue" stroke="midnightblue" points="548.736,-30.9513 557.327,-24.7497 546.744,-24.2409 548.736,-30.9513"/>
</g>
<!-- Node11 -->
<g id="node11" class="node"><title>Node11</title>
<polygon fill="none" stroke="#bfbfbf" points="317.5,-67.5 317.5,-86.5 369.5,-86.5 369.5,-67.5 317.5,-67.5"/>
<text text-anchor="middle" x="343.5" y="-74.5" font-family="Helvetica,sans-Serif" font-size="10.00">sstream</text>
</g>
<!-- Node7&#45;&gt;Node11 -->
<g id="edge10" class="edge"><title>Node7&#45;&gt;Node11</title>
<path fill="none" stroke="midnightblue" d="M709.252,-302.89C638.104,-292.947 527.252,-276.167 510.5,-266 474.176,-243.955 480.256,-222.172 452.5,-190 421.539,-154.113 382.079,-115.053 360.135,-93.8598"/>
<polygon fill="midnightblue" stroke="midnightblue" points="362.273,-91.0599 352.636,-86.6558 357.423,-96.1078 362.273,-91.0599"/>
</g>
<!-- Node12 -->
<g id="node12" class="node"><title>Node12</title>
<g id="a_node12"><a xlink:href="string_8hpp.html" target="_top" xlink:title="string/string.hpp">
<polygon fill="none" stroke="black" points="564.5,-129 564.5,-148 650.5,-148 650.5,-129 564.5,-129"/>
<text text-anchor="middle" x="607.5" y="-136" font-family="Helvetica,sans-Serif" font-size="10.00">string/string.hpp</text>
</a>
</g>
</g>
<!-- Node7&#45;&gt;Node12 -->
<g id="edge11" class="edge"><title>Node7&#45;&gt;Node12</title>
<path fill="none" stroke="midnightblue" d="M715.758,-302.466C675.566,-294.881 625.413,-282.448 612.5,-266 588.036,-234.839 595.543,-184.845 602.128,-157.988"/>
<polygon fill="midnightblue" stroke="midnightblue" points="605.593,-158.581 604.798,-148.016 598.831,-156.771 605.593,-158.581"/>
</g>
<!-- Node21 -->
<g id="node21" class="node"><title>Node21</title>
<g id="a_node21"><a xlink:href="logger_8hpp.html" target="_top" xlink:title="string/logger.hpp">
<polygon fill="none" stroke="black" points="916,-190.5 916,-209.5 1005,-209.5 1005,-190.5 916,-190.5"/>
<text text-anchor="middle" x="960.5" y="-197.5" font-family="Helvetica,sans-Serif" font-size="10.00">string/logger.hpp</text>
</a>
</g>
</g>
<!-- Node7&#45;&gt;Node21 -->
<g id="edge26" class="edge"><title>Node7&#45;&gt;Node21</title>
<path fill="none" stroke="midnightblue" d="M769.467,-302.497C769.894,-288.648 772.818,-261.241 788.5,-246 819.455,-215.914 867.921,-205.27 905.526,-201.805"/>
<polygon fill="midnightblue" stroke="midnightblue" points="906.122,-205.269 915.821,-201.008 905.581,-198.29 906.122,-205.269"/>
</g>
<!-- Node30 -->
<g id="node30" class="node"><title>Node30</title>
<g id="a_node30"><a xlink:href="string__functions_8hpp.html" target="_top" xlink:title="string/string_functions.hpp">
<polygon fill="none" stroke="black" points="170,-129 170,-148 301,-148 301,-129 170,-129"/>
<text text-anchor="middle" x="235.5" y="-136" font-family="Helvetica,sans-Serif" font-size="10.00">string/string_functions.hpp</text>
</a>
</g>
</g>
<!-- Node7&#45;&gt;Node30 -->
<g id="edge45" class="edge"><title>Node7&#45;&gt;Node30</title>
<path fill="none" stroke="midnightblue" d="M709.437,-303.037C626.812,-291.894 487.125,-272.309 477.5,-266 444.087,-244.1 461.756,-213.571 429.5,-190 395.322,-165.024 349.828,-152.382 311.486,-145.991"/>
<polygon fill="midnightblue" stroke="midnightblue" points="311.81,-142.499 301.392,-144.423 310.736,-149.416 311.81,-142.499"/>
</g>
<!-- Node33 -->
<g id="node33" class="node"><title>Node33</title>
<g id="a_node33"><a xlink:href="auth__system_8hpp.html" target="_top" xlink:title="user/auth_system.hpp">
<polygon fill="none" stroke="black" points="798,-246.5 798,-265.5 911,-265.5 911,-246.5 798,-246.5"/>
<text text-anchor="middle" x="854.5" y="-253.5" font-family="Helvetica,sans-Serif" font-size="10.00">user/auth_system.hpp</text>
</a>
</g>
</g>
<!-- Node7&#45;&gt;Node33 -->
<g id="edge53" class="edge"><title>Node7&#45;&gt;Node33</title>
<path fill="none" stroke="midnightblue" d="M783.157,-302.324C796.416,-293.9 816.768,-280.971 832.346,-271.074"/>
<polygon fill="midnightblue" stroke="midnightblue" points="834.313,-273.971 840.877,-265.655 830.56,-268.063 834.313,-273.971"/>
</g>
<!-- Node36 -->
<g id="node36" class="node"><title>Node36</title>
<g id="a_node36"><a xlink:href="user__manager_8hpp.html" target="_top" xlink:title="user/user_manager.hpp">
<polygon fill="none" stroke="black" points="622,-246.5 622,-265.5 741,-265.5 741,-246.5 622,-246.5"/>
<text text-anchor="middle" x="681.5" y="-253.5" font-family="Helvetica,sans-Serif" font-size="10.00">user/user_manager.hpp</text>
</a>
</g>
</g>
<!-- Node7&#45;&gt;Node36 -->
<g id="edge62" class="edge"><title>Node7&#45;&gt;Node36</title>
<path fill="none" stroke="midnightblue" d="M755.361,-302.324C741.634,-293.9 720.564,-280.971 704.436,-271.074"/>
<polygon fill="midnightblue" stroke="midnightblue" points="705.957,-267.902 695.604,-265.655 702.296,-273.868 705.957,-267.902"/>
</g>
<!-- Node12&#45;&gt;Node5 -->
<g id="edge15" class="edge"><title>Node12&#45;&gt;Node5</title>
<path fill="none" stroke="midnightblue" d="M580.278,-128.975C547.263,-118.636 491.46,-101.161 454.547,-89.6017"/>
<polygon fill="midnightblue" stroke="midnightblue" points="455.261,-86.1576 444.672,-86.5091 453.169,-92.8377 455.261,-86.1576"/>
</g>
<!-- Node12&#45;&gt;Node6 -->
<g id="edge19" class="edge"><title>Node12&#45;&gt;Node6</title>
<path fill="none" stroke="midnightblue" d="M626.175,-128.985C647.622,-119.138 683.803,-102.313 714.5,-87 731.578,-78.4806 734.185,-72.3687 752.5,-67 852.268,-37.7543 1163.73,-23.1119 1287.77,-18.3218"/>
<polygon fill="midnightblue" stroke="midnightblue" points="1287.92,-21.8188 1297.78,-17.9411 1287.65,-14.8239 1287.92,-21.8188"/>
</g>
<!-- Node12&#45;&gt;Node10 -->
<g id="edge12" class="edge"><title>Node12&#45;&gt;Node10</title>
<path fill="none" stroke="midnightblue" d="M605.558,-128.798C601.199,-109.263 590.556,-61.5646 584.639,-35.0471"/>
<polygon fill="midnightblue" stroke="midnightblue" points="588.018,-34.1209 582.424,-25.1232 581.186,-35.6454 588.018,-34.1209"/>
</g>
<!-- Node12&#45;&gt;Node11 -->
<g id="edge17" class="edge"><title>Node12&#45;&gt;Node11</title>
<path fill="none" stroke="midnightblue" d="M566.864,-128.983C523.067,-119.705 451.07,-104.17 379.885,-87.2725"/>
<polygon fill="midnightblue" stroke="midnightblue" points="380.388,-83.7944 369.849,-84.8796 378.765,-90.6035 380.388,-83.7944"/>
</g>
<!-- Node13 -->
<g id="node13" class="node"><title>Node13</title>
<polygon fill="none" stroke="#bfbfbf" points="950,-67.5 950,-86.5 1009,-86.5 1009,-67.5 950,-67.5"/>
<text text-anchor="middle" x="979.5" y="-74.5" font-family="Helvetica,sans-Serif" font-size="10.00">functional</text>
</g>
<!-- Node12&#45;&gt;Node13 -->
<g id="edge13" class="edge"><title>Node12&#45;&gt;Node13</title>
<path fill="none" stroke="midnightblue" d="M650.52,-132.044C712.28,-123.977 829.825,-107.753 939.804,-87.005"/>
<polygon fill="midnightblue" stroke="midnightblue" points="940.57,-90.4221 949.739,-85.1141 939.261,-83.5455 940.57,-90.4221"/>
</g>
<!-- Node14 -->
<g id="node14" class="node"><title>Node14</title>
<polygon fill="none" stroke="#bfbfbf" points="653.5,-67.5 653.5,-86.5 705.5,-86.5 705.5,-67.5 653.5,-67.5"/>
<text text-anchor="middle" x="679.5" y="-74.5" font-family="Helvetica,sans-Serif" font-size="10.00">memory</text>
</g>
<!-- Node12&#45;&gt;Node14 -->
<g id="edge14" class="edge"><title>Node12&#45;&gt;Node14</title>
<path fill="none" stroke="midnightblue" d="M617.816,-128.975C629.151,-119.608 647.573,-104.384 661.339,-93.0081"/>
<polygon fill="midnightblue" stroke="midnightblue" points="663.724,-95.5773 669.203,-86.5091 659.265,-90.1813 663.724,-95.5773"/>
</g>
<!-- Node15 -->
<g id="node15" class="node"><title>Node15</title>
<polygon fill="none" stroke="#bfbfbf" points="800,-6 800,-25 841,-25 841,-6 800,-6"/>
<text text-anchor="middle" x="820.5" y="-13" font-family="Helvetica,sans-Serif" font-size="10.00">string</text>
</g>
<!-- Node12&#45;&gt;Node15 -->
<g id="edge16" class="edge"><title>Node12&#45;&gt;Node15</title>
<path fill="none" stroke="midnightblue" d="M609.68,-128.693C613.841,-113.739 624.35,-83.4101 644.5,-67 686.788,-32.5607 751.443,-21.6008 789.492,-18.1176"/>
<polygon fill="midnightblue" stroke="midnightblue" points="790.243,-21.5691 799.935,-17.2892 789.69,-14.591 790.243,-21.5691"/>
</g>
<!-- Node16 -->
<g id="node16" class="node"><title>Node16</title>
<polygon fill="none" stroke="#bfbfbf" points="237.5,-67.5 237.5,-86.5 299.5,-86.5 299.5,-67.5 237.5,-67.5"/>
<text text-anchor="middle" x="268.5" y="-74.5" font-family="Helvetica,sans-Serif" font-size="10.00">type_traits</text>
</g>
<!-- Node12&#45;&gt;Node16 -->
<g id="edge18" class="edge"><title>Node12&#45;&gt;Node16</title>
<path fill="none" stroke="midnightblue" d="M564.289,-130.952C507.969,-122.252 406.197,-105.968 309.818,-87.1797"/>
<polygon fill="midnightblue" stroke="midnightblue" points="310.396,-83.7264 299.909,-85.2353 309.048,-90.5954 310.396,-83.7264"/>
</g>
<!-- Node17 -->
<g id="node17" class="node"><title>Node17</title>
<polygon fill="none" stroke="#bfbfbf" points="761.5,-67.5 761.5,-86.5 805.5,-86.5 805.5,-67.5 761.5,-67.5"/>
<text text-anchor="middle" x="783.5" y="-74.5" font-family="Helvetica,sans-Serif" font-size="10.00">vector</text>
</g>
<!-- Node12&#45;&gt;Node17 -->
<g id="edge20" class="edge"><title>Node12&#45;&gt;Node17</title>
<path fill="none" stroke="midnightblue" d="M632.717,-128.975C664.12,-118.359 717.78,-100.218 751.897,-88.6839"/>
<polygon fill="midnightblue" stroke="midnightblue" points="753.037,-91.9933 761.389,-85.475 750.795,-85.362 753.037,-91.9933"/>
</g>
<!-- Node18 -->
<g id="node18" class="node"><title>Node18</title>
<g id="a_node18"><a xlink:href="color_8hpp.html" target="_top" xlink:title="color.hpp">
<polygon fill="none" stroke="black" points="465.5,-67.5 465.5,-86.5 521.5,-86.5 521.5,-67.5 465.5,-67.5"/>
<text text-anchor="middle" x="493.5" y="-74.5" font-family="Helvetica,sans-Serif" font-size="10.00">color.hpp</text>
</a>
</g>
</g>
<!-- Node12&#45;&gt;Node18 -->
<g id="edge21" class="edge"><title>Node12&#45;&gt;Node18</title>
<path fill="none" stroke="midnightblue" d="M591.167,-128.975C572.289,-119.122 540.993,-102.788 518.924,-91.2697"/>
<polygon fill="midnightblue" stroke="midnightblue" points="520.288,-88.0333 509.803,-86.5091 517.049,-94.2389 520.288,-88.0333"/>
</g>
<!-- Node18&#45;&gt;Node10 -->
<g id="edge23" class="edge"><title>Node18&#45;&gt;Node10</title>
<path fill="none" stroke="midnightblue" d="M505.965,-67.4751C519.919,-57.9315 542.765,-42.3073 559.491,-30.8683"/>
<polygon fill="midnightblue" stroke="midnightblue" points="561.78,-33.5433 568.058,-25.0091 557.828,-27.7653 561.78,-33.5433"/>
</g>
<!-- Node18&#45;&gt;Node15 -->
<g id="edge25" class="edge"><title>Node18&#45;&gt;Node15</title>
<path fill="none" stroke="midnightblue" d="M521.938,-69.7624C526.469,-68.8101 531.109,-67.8592 535.5,-67 627.772,-48.9446 737.411,-30.3049 789.738,-21.5804"/>
<polygon fill="midnightblue" stroke="midnightblue" points="790.422,-25.0148 799.712,-19.9218 789.273,-18.1096 790.422,-25.0148"/>
</g>
<!-- Node19 -->
<g id="node19" class="node"><title>Node19</title>
<polygon fill="none" stroke="#bfbfbf" points="478.5,-6 478.5,-25 524.5,-25 524.5,-6 478.5,-6"/>
<text text-anchor="middle" x="501.5" y="-13" font-family="Helvetica,sans-Serif" font-size="10.00">cctype</text>
</g>
<!-- Node18&#45;&gt;Node19 -->
<g id="edge22" class="edge"><title>Node18&#45;&gt;Node19</title>
<path fill="none" stroke="midnightblue" d="M494.646,-67.4751C495.775,-59.0803 497.536,-45.9806 498.991,-35.1631"/>
<polygon fill="midnightblue" stroke="midnightblue" points="502.492,-35.3863 500.356,-25.0091 495.555,-34.4535 502.492,-35.3863"/>
</g>
<!-- Node20 -->
<g id="node20" class="node"><title>Node20</title>
<polygon fill="none" stroke="#bfbfbf" points="415,-6 415,-25 460,-25 460,-6 415,-6"/>
<text text-anchor="middle" x="437.5" y="-13" font-family="Helvetica,sans-Serif" font-size="10.00">cstdlib</text>
</g>
<!-- Node18&#45;&gt;Node20 -->
<g id="edge24" class="edge"><title>Node18&#45;&gt;Node20</title>
<path fill="none" stroke="midnightblue" d="M485.477,-67.4751C476.91,-58.3733 463.139,-43.741 452.543,-32.483"/>
<polygon fill="midnightblue" stroke="midnightblue" points="454.911,-29.8923 445.509,-25.0091 449.814,-34.6899 454.911,-29.8923"/>
</g>
<!-- Node21&#45;&gt;Node5 -->
<g id="edge30" class="edge"><title>Node21&#45;&gt;Node5</title>
<path fill="none" stroke="midnightblue" d="M915.638,-195.141C817.319,-186.522 588.931,-165.557 555.5,-154 530.788,-145.457 528.27,-135.852 505.5,-123 485.326,-111.614 461.958,-99.7222 444.374,-91.0248"/>
<polygon fill="midnightblue" stroke="midnightblue" points="445.775,-87.814 435.257,-86.5451 442.688,-94.0965 445.775,-87.814"/>
</g>
<!-- Node21&#45;&gt;Node6 -->
<g id="edge32" class="edge"><title>Node21&#45;&gt;Node6</title>
<path fill="none" stroke="midnightblue" d="M1005.18,-199.078C1087.61,-198.287 1259.14,-191.981 1302.5,-154 1336.81,-123.946 1340.88,-65.7883 1340.48,-35.6495"/>
<polygon fill="midnightblue" stroke="midnightblue" points="1343.97,-35.1414 1340.15,-25.2597 1336.97,-35.3676 1343.97,-35.1414"/>
</g>
<!-- Node21&#45;&gt;Node12 -->
<g id="edge39" class="edge"><title>Node21&#45;&gt;Node12</title>
<path fill="none" stroke="midnightblue" d="M915.792,-191.464C850.72,-180.496 730.121,-160.168 660.613,-148.452"/>
<polygon fill="midnightblue" stroke="midnightblue" points="661.183,-144.999 650.741,-146.788 660.02,-151.902 661.183,-144.999"/>
</g>
<!-- Node21&#45;&gt;Node15 -->
<g id="edge31" class="edge"><title>Node21&#45;&gt;Node15</title>
<path fill="none" stroke="midnightblue" d="M950.874,-190.048C936.182,-175.279 911.385,-145.234 926.5,-123 953.198,-83.7265 1047.36,-103.931 1017.5,-67 969.493,-7.61609 921.557,-56.2763 849.5,-31 848.072,-30.4993 846.625,-29.9438 845.178,-29.3508"/>
<polygon fill="midnightblue" stroke="midnightblue" points="846.386,-26.0547 835.837,-25.0704 843.47,-32.4183 846.386,-26.0547"/>
</g>
<!-- Node22 -->
<g id="node22" class="node"><title>Node22</title>
<polygon fill="none" stroke="#bfbfbf" points="935.5,-129 935.5,-148 985.5,-148 985.5,-129 935.5,-129"/>
<text text-anchor="middle" x="960.5" y="-136" font-family="Helvetica,sans-Serif" font-size="10.00">iomanip</text>
</g>
<!-- Node21&#45;&gt;Node22 -->
<g id="edge27" class="edge"><title>Node21&#45;&gt;Node22</title>
<path fill="none" stroke="midnightblue" d="M960.5,-190.475C960.5,-182.08 960.5,-168.981 960.5,-158.163"/>
<polygon fill="midnightblue" stroke="midnightblue" points="964,-158.009 960.5,-148.009 957,-158.009 964,-158.009"/>
</g>
<!-- Node23 -->
<g id="node23" class="node"><title>Node23</title>
<polygon fill="none" stroke="#bfbfbf" points="1257.5,-67.5 1257.5,-86.5 1311.5,-86.5 1311.5,-67.5 1257.5,-67.5"/>
<text text-anchor="middle" x="1284.5" y="-74.5" font-family="Helvetica,sans-Serif" font-size="10.00">iostream</text>
</g>
<!-- Node21&#45;&gt;Node23 -->
<g id="edge28" class="edge"><title>Node21&#45;&gt;Node23</title>
<path fill="none" stroke="midnightblue" d="M1005.29,-199.545C1085.02,-199.464 1246.59,-194.201 1282.5,-154 1296.28,-138.578 1293.94,-113.565 1290.05,-96.4781"/>
<polygon fill="midnightblue" stroke="midnightblue" points="1293.37,-95.3441 1287.43,-86.5746 1286.61,-97.1375 1293.37,-95.3441"/>
</g>
<!-- Node24 -->
<g id="node24" class="node"><title>Node24</title>
<polygon fill="none" stroke="#bfbfbf" points="1405.5,-129 1405.5,-148 1449.5,-148 1449.5,-129 1405.5,-129"/>
<text text-anchor="middle" x="1427.5" y="-136" font-family="Helvetica,sans-Serif" font-size="10.00">mutex</text>
</g>
<!-- Node21&#45;&gt;Node24 -->
<g id="edge29" class="edge"><title>Node21&#45;&gt;Node24</title>
<path fill="none" stroke="midnightblue" d="M1005.15,-195.053C1078.22,-188.333 1227.78,-173.483 1353.5,-154 1367.28,-151.864 1382.41,-148.995 1395.37,-146.373"/>
<polygon fill="midnightblue" stroke="midnightblue" points="1396.15,-149.786 1405.24,-144.342 1394.74,-142.93 1396.15,-149.786"/>
</g>
<!-- Node25 -->
<g id="node25" class="node"><title>Node25</title>
<polygon fill="none" stroke="#bfbfbf" points="1004,-123.5 1004,-153.5 1109,-153.5 1109,-123.5 1004,-123.5"/>
<text text-anchor="start" x="1012" y="-141.5" font-family="Helvetica,sans-Serif" font-size="10.00">boost/chrono/io/time</text>
<text text-anchor="middle" x="1056.5" y="-130.5" font-family="Helvetica,sans-Serif" font-size="10.00">_point_io.hpp</text>
</g>
<!-- Node21&#45;&gt;Node25 -->
<g id="edge33" class="edge"><title>Node21&#45;&gt;Node25</title>
<path fill="none" stroke="midnightblue" d="M974.254,-190.475C987.499,-182.266 1008,-169.558 1025.22,-158.885"/>
<polygon fill="midnightblue" stroke="midnightblue" points="1027.22,-161.766 1033.87,-153.523 1023.53,-155.816 1027.22,-161.766"/>
</g>
<!-- Node26 -->
<g id="node26" class="node"><title>Node26</title>
<g id="a_node26"><a xlink:href="multibuf_8hpp.html" target="_top" xlink:title="multibuf.hpp">
<polygon fill="none" stroke="black" points="1203.5,-129 1203.5,-148 1273.5,-148 1273.5,-129 1203.5,-129"/>
<text text-anchor="middle" x="1238.5" y="-136" font-family="Helvetica,sans-Serif" font-size="10.00">multibuf.hpp</text>
</a>
</g>
</g>
<!-- Node21&#45;&gt;Node26 -->
<g id="edge34" class="edge"><title>Node21&#45;&gt;Node26</title>
<path fill="none" stroke="midnightblue" d="M1000.33,-190.475C1051.39,-179.547 1139.7,-160.647 1193.24,-149.186"/>
<polygon fill="midnightblue" stroke="midnightblue" points="1194.1,-152.582 1203.15,-147.067 1192.63,-145.737 1194.1,-152.582"/>
</g>
<!-- Node28 -->
<g id="node28" class="node"><title>Node28</title>
<g id="a_node28"><a xlink:href="settings_8hpp.html" target="_top" xlink:title="settings.hpp">
<polygon fill="none" stroke="black" points="861.5,-67.5 861.5,-86.5 931.5,-86.5 931.5,-67.5 861.5,-67.5"/>
<text text-anchor="middle" x="896.5" y="-74.5" font-family="Helvetica,sans-Serif" font-size="10.00">settings.hpp</text>
</a>
</g>
</g>
<!-- Node21&#45;&gt;Node28 -->
<g id="edge40" class="edge"><title>Node21&#45;&gt;Node28</title>
<path fill="none" stroke="midnightblue" d="M937.712,-190.471C922.174,-183.316 902.793,-171.435 893.5,-154 884.013,-136.2 886.916,-112.584 890.8,-96.4295"/>
<polygon fill="midnightblue" stroke="midnightblue" points="894.226,-97.1714 893.506,-86.601 887.477,-95.3132 894.226,-97.1714"/>
</g>
<!-- Node26&#45;&gt;Node15 -->
<g id="edge38" class="edge"><title>Node26&#45;&gt;Node15</title>
<path fill="none" stroke="midnightblue" d="M1219.51,-128.999C1186.14,-114.371 1114.56,-84.3468 1051.5,-67 963.574,-42.8127 936.063,-59.6867 849.5,-31 847.884,-30.4644 846.244,-29.8528 844.61,-29.1909"/>
<polygon fill="midnightblue" stroke="midnightblue" points="846.05,-26.0009 835.501,-25.0246 843.139,-32.3667 846.05,-26.0009"/>
</g>
<!-- Node26&#45;&gt;Node17 -->
<g id="edge37" class="edge"><title>Node26&#45;&gt;Node17</title>
<path fill="none" stroke="midnightblue" d="M1203.18,-132.881C1117.26,-121.646 898.393,-93.0245 815.752,-82.2175"/>
<polygon fill="midnightblue" stroke="midnightblue" points="816.062,-78.7284 805.692,-80.9021 815.154,-85.6693 816.062,-78.7284"/>
</g>
<!-- Node26&#45;&gt;Node23 -->
<g id="edge35" class="edge"><title>Node26&#45;&gt;Node23</title>
<path fill="none" stroke="midnightblue" d="M1245.09,-128.975C1251.99,-120.05 1263,-105.807 1271.63,-94.6425"/>
<polygon fill="midnightblue" stroke="midnightblue" points="1274.57,-96.5612 1277.92,-86.5091 1269.04,-92.2798 1274.57,-96.5612"/>
</g>
<!-- Node27 -->
<g id="node27" class="node"><title>Node27</title>
<polygon fill="none" stroke="#bfbfbf" points="1189.5,-67.5 1189.5,-86.5 1239.5,-86.5 1239.5,-67.5 1189.5,-67.5"/>
<text text-anchor="middle" x="1214.5" y="-74.5" font-family="Helvetica,sans-Serif" font-size="10.00">fstream</text>
</g>
<!-- Node26&#45;&gt;Node27 -->
<g id="edge36" class="edge"><title>Node26&#45;&gt;Node27</title>
<path fill="none" stroke="midnightblue" d="M1235.06,-128.975C1231.6,-120.404 1226.17,-106.927 1221.75,-95.983"/>
<polygon fill="midnightblue" stroke="midnightblue" points="1224.92,-94.4738 1217.93,-86.5091 1218.43,-97.0924 1224.92,-94.4738"/>
</g>
<!-- Node28&#45;&gt;Node6 -->
<g id="edge43" class="edge"><title>Node28&#45;&gt;Node6</title>
<path fill="none" stroke="midnightblue" d="M931.52,-68.5873C934.552,-68.0213 937.577,-67.4832 940.5,-67 1064.52,-46.4978 1211.44,-29.8566 1287.71,-21.7855"/>
<polygon fill="midnightblue" stroke="midnightblue" points="1288.41,-25.2308 1297.99,-20.704 1287.68,-18.2692 1288.41,-25.2308"/>
</g>
<!-- Node28&#45;&gt;Node10 -->
<g id="edge42" class="edge"><title>Node28&#45;&gt;Node10</title>
<path fill="none" stroke="midnightblue" d="M861.475,-69.4051C800.081,-57.8451 673.857,-34.0783 613.743,-22.7593"/>
<polygon fill="midnightblue" stroke="midnightblue" points="614.133,-19.2714 603.658,-20.8605 612.838,-26.1505 614.133,-19.2714"/>
</g>
<!-- Node28&#45;&gt;Node15 -->
<g id="edge41" class="edge"><title>Node28&#45;&gt;Node15</title>
<path fill="none" stroke="midnightblue" d="M885.611,-67.4751C873.534,-58.0199 853.833,-42.5961 839.26,-31.1871"/>
<polygon fill="midnightblue" stroke="midnightblue" points="841.4,-28.4177 831.369,-25.0091 837.085,-33.9295 841.4,-28.4177"/>
</g>
<!-- Node29 -->
<g id="node29" class="node"><title>Node29</title>
<polygon fill="none" stroke="#bfbfbf" points="859,-0.5 859,-30.5 960,-30.5 960,-0.5 859,-0.5"/>
<text text-anchor="start" x="867" y="-18.5" font-family="Helvetica,sans-Serif" font-size="10.00">boost/property_tree</text>
<text text-anchor="middle" x="909.5" y="-7.5" font-family="Helvetica,sans-Serif" font-size="10.00">/ptree.hpp</text>
</g>
<!-- Node28&#45;&gt;Node29 -->
<g id="edge44" class="edge"><title>Node28&#45;&gt;Node29</title>
<path fill="none" stroke="midnightblue" d="M898.363,-67.4751C899.909,-60.3957 902.187,-49.9705 904.28,-40.3896"/>
<polygon fill="midnightblue" stroke="midnightblue" points="907.721,-41.0396 906.436,-30.523 900.882,-39.5454 907.721,-41.0396"/>
</g>
<!-- Node30&#45;&gt;Node4 -->
<g id="edge48" class="edge"><title>Node30&#45;&gt;Node4</title>
<path fill="none" stroke="midnightblue" d="M204.696,-128.975C163.699,-117.63 91.6501,-97.6904 50.8727,-86.4055"/>
<polygon fill="midnightblue" stroke="midnightblue" points="51.7886,-83.0274 41.2173,-83.7334 49.9215,-89.7739 51.7886,-83.0274"/>
</g>
<!-- Node30&#45;&gt;Node11 -->
<g id="edge49" class="edge"><title>Node30&#45;&gt;Node11</title>
<path fill="none" stroke="midnightblue" d="M250.974,-128.975C268.778,-119.166 298.241,-102.935 319.132,-91.425"/>
<polygon fill="midnightblue" stroke="midnightblue" points="320.985,-94.4001 328.055,-86.5091 317.607,-88.269 320.985,-94.4001"/>
</g>
<!-- Node30&#45;&gt;Node15 -->
<g id="edge50" class="edge"><title>Node30&#45;&gt;Node15</title>
<path fill="none" stroke="midnightblue" d="M292.271,-128.972C351.832,-119.747 448.07,-104.054 530.5,-87 625.874,-67.2683 737.537,-38.5042 790.151,-24.6098"/>
<polygon fill="midnightblue" stroke="midnightblue" points="791.094,-27.9808 799.864,-22.0362 789.301,-21.2143 791.094,-27.9808"/>
</g>
<!-- Node30&#45;&gt;Node16 -->
<g id="edge51" class="edge"><title>Node30&#45;&gt;Node16</title>
<path fill="none" stroke="midnightblue" d="M240.228,-128.975C245.08,-120.227 252.766,-106.369 258.9,-95.3093"/>
<polygon fill="midnightblue" stroke="midnightblue" points="261.991,-96.9517 263.781,-86.5091 255.87,-93.5566 261.991,-96.9517"/>
</g>
<!-- Node30&#45;&gt;Node28 -->
<g id="edge52" class="edge"><title>Node30&#45;&gt;Node28</title>
<path fill="none" stroke="midnightblue" d="M301.102,-132.258C408.489,-123.569 628.478,-105.319 814.5,-87 826.405,-85.8276 839.272,-84.4621 851.205,-83.1543"/>
<polygon fill="midnightblue" stroke="midnightblue" points="851.848,-86.6045 861.403,-82.0262 851.079,-79.647 851.848,-86.6045"/>
</g>
<!-- Node31 -->
<g id="node31" class="node"><title>Node31</title>
<polygon fill="none" stroke="#bfbfbf" points="97.5,-67.5 97.5,-86.5 153.5,-86.5 153.5,-67.5 97.5,-67.5"/>
<text text-anchor="middle" x="125.5" y="-74.5" font-family="Helvetica,sans-Serif" font-size="10.00">algorithm</text>
</g>
<!-- Node30&#45;&gt;Node31 -->
<g id="edge46" class="edge"><title>Node30&#45;&gt;Node31</title>
<path fill="none" stroke="midnightblue" d="M219.74,-128.975C201.524,-119.122 171.327,-102.788 150.032,-91.2697"/>
<polygon fill="midnightblue" stroke="midnightblue" points="151.692,-88.1883 141.231,-86.5091 148.362,-94.3453 151.692,-88.1883"/>
</g>
<!-- Node32 -->
<g id="node32" class="node"><title>Node32</title>
<polygon fill="none" stroke="#bfbfbf" points="172,-67.5 172,-86.5 219,-86.5 219,-67.5 172,-67.5"/>
<text text-anchor="middle" x="195.5" y="-74.5" font-family="Helvetica,sans-Serif" font-size="10.00">iterator</text>
</g>
<!-- Node30&#45;&gt;Node32 -->
<g id="edge47" class="edge"><title>Node30&#45;&gt;Node32</title>
<path fill="none" stroke="midnightblue" d="M229.769,-128.975C223.828,-120.138 214.383,-106.089 206.912,-94.975"/>
<polygon fill="midnightblue" stroke="midnightblue" points="209.704,-92.8554 201.22,-86.5091 203.895,-96.7608 209.704,-92.8554"/>
</g>
<!-- Node33&#45;&gt;Node6 -->
<g id="edge54" class="edge"><title>Node33&#45;&gt;Node6</title>
<path fill="none" stroke="midnightblue" d="M900.236,-246.5C1015.92,-224.832 1312.21,-168.242 1328.5,-154 1358.7,-127.6 1357.54,-106.793 1352.5,-67 1351.14,-56.284 1348.23,-44.5873 1345.5,-35.1517"/>
<polygon fill="midnightblue" stroke="midnightblue" points="1348.76,-33.8477 1342.49,-25.308 1342.07,-35.8944 1348.76,-33.8477"/>
</g>
<!-- Node34 -->
<g id="node34" class="node"><title>Node34</title>
<g id="a_node34"><a xlink:href="user__group_8hpp.html" target="_top" xlink:title="user_group.hpp">
<polygon fill="none" stroke="black" points="735,-190.5 735,-209.5 818,-209.5 818,-190.5 735,-190.5"/>
<text text-anchor="middle" x="776.5" y="-197.5" font-family="Helvetica,sans-Serif" font-size="10.00">user_group.hpp</text>
</a>
</g>
</g>
<!-- Node33&#45;&gt;Node34 -->
<g id="edge55" class="edge"><title>Node33&#45;&gt;Node34</title>
<path fill="none" stroke="midnightblue" d="M841.968,-246.324C829.914,-237.979 811.473,-225.212 797.231,-215.352"/>
<polygon fill="midnightblue" stroke="midnightblue" points="799.215,-212.469 789.001,-209.655 795.231,-218.224 799.215,-212.469"/>
</g>
<!-- Node34&#45;&gt;Node17 -->
<g id="edge56" class="edge"><title>Node34&#45;&gt;Node17</title>
<path fill="none" stroke="midnightblue" d="M752.712,-190.499C736.779,-183.413 717.037,-171.605 707.5,-154 700.938,-141.885 700.677,-134.97 707.5,-123 717.085,-106.185 735.695,-95.0113 752.1,-88.0042"/>
<polygon fill="midnightblue" stroke="midnightblue" points="753.388,-91.2588 761.419,-84.3489 750.831,-84.7422 753.388,-91.2588"/>
</g>
<!-- Node35 -->
<g id="node35" class="node"><title>Node35</title>
<g id="a_node35"><a xlink:href="user_8hpp.html" target="_top" xlink:title="user.hpp">
<polygon fill="none" stroke="black" points="749.5,-129 749.5,-148 803.5,-148 803.5,-129 749.5,-129"/>
<text text-anchor="middle" x="776.5" y="-136" font-family="Helvetica,sans-Serif" font-size="10.00">user.hpp</text>
</a>
</g>
</g>
<!-- Node34&#45;&gt;Node35 -->
<g id="edge57" class="edge"><title>Node34&#45;&gt;Node35</title>
<path fill="none" stroke="midnightblue" d="M776.5,-190.475C776.5,-182.08 776.5,-168.981 776.5,-158.163"/>
<polygon fill="midnightblue" stroke="midnightblue" points="780,-158.009 776.5,-148.009 773,-158.009 780,-158.009"/>
</g>
<!-- Node35&#45;&gt;Node6 -->
<g id="edge60" class="edge"><title>Node35&#45;&gt;Node6</title>
<path fill="none" stroke="midnightblue" d="M803.624,-131.899C848.253,-122.665 939.96,-103.612 1017.5,-87 1114.5,-66.2184 1227.78,-41.255 1290.81,-27.3021"/>
<polygon fill="midnightblue" stroke="midnightblue" points="1291.86,-30.6562 1300.86,-25.0768 1290.34,-23.8218 1291.86,-30.6562"/>
</g>
<!-- Node35&#45;&gt;Node15 -->
<g id="edge58" class="edge"><title>Node35&#45;&gt;Node15</title>
<path fill="none" stroke="midnightblue" d="M785.541,-128.79C794.623,-119.416 808.155,-103.604 814.5,-87 820.866,-70.3402 821.941,-49.9012 821.679,-35.3282"/>
<polygon fill="midnightblue" stroke="midnightblue" points="825.166,-34.9305 821.258,-25.0828 818.172,-35.2182 825.166,-34.9305"/>
</g>
<!-- Node35&#45;&gt;Node17 -->
<g id="edge59" class="edge"><title>Node35&#45;&gt;Node17</title>
<path fill="none" stroke="midnightblue" d="M777.503,-128.975C778.491,-120.58 780.032,-107.481 781.304,-96.6631"/>
<polygon fill="midnightblue" stroke="midnightblue" points="784.806,-96.8496 782.499,-86.5091 777.854,-96.0316 784.806,-96.8496"/>
</g>
<!-- Node35&#45;&gt;Node28 -->
<g id="edge61" class="edge"><title>Node35&#45;&gt;Node28</title>
<path fill="none" stroke="midnightblue" d="M793.693,-128.975C813.743,-119.034 847.099,-102.495 870.36,-90.961"/>
<polygon fill="midnightblue" stroke="midnightblue" points="871.934,-94.0871 879.339,-86.5091 868.825,-87.8157 871.934,-94.0871"/>
</g>
<!-- Node36&#45;&gt;Node2 -->
<g id="edge64" class="edge"><title>Node36&#45;&gt;Node2</title>
<path fill="none" stroke="midnightblue" d="M632.538,-246.444C565.633,-234.751 448.151,-214.22 397.214,-205.319"/>
<polygon fill="midnightblue" stroke="midnightblue" points="397.576,-201.829 387.123,-203.555 396.371,-208.725 397.576,-201.829"/>
</g>
<!-- Node36&#45;&gt;Node35 -->
<g id="edge63" class="edge"><title>Node36&#45;&gt;Node35</title>
<path fill="none" stroke="midnightblue" d="M686.69,-246.206C694.446,-233.342 709.836,-208.876 725.5,-190 735.797,-177.592 748.716,-164.824 758.975,-155.231"/>
<polygon fill="midnightblue" stroke="midnightblue" points="761.537,-157.63 766.53,-148.286 756.8,-152.476 761.537,-157.63"/>
</g>
<!-- Node37&#45;&gt;Node7 -->
<g id="edge69" class="edge"><title>Node37&#45;&gt;Node7</title>
<path fill="none" stroke="midnightblue" d="M880.584,-358.444C858.764,-349.517 824.35,-335.439 799.608,-325.317"/>
<polygon fill="midnightblue" stroke="midnightblue" points="800.899,-322.063 790.318,-321.516 798.248,-328.542 800.899,-322.063"/>
</g>
<!-- Node37&#45;&gt;Node21 -->
<g id="edge76" class="edge"><title>Node37&#45;&gt;Node21</title>
<path fill="none" stroke="midnightblue" d="M904.672,-358.075C913.999,-331.832 941.469,-254.545 954.061,-219.117"/>
<polygon fill="midnightblue" stroke="midnightblue" points="957.404,-220.163 957.455,-209.568 950.808,-217.818 957.404,-220.163"/>
</g>
<!-- Node37&#45;&gt;Node24 -->
<g id="edge66" class="edge"><title>Node37&#45;&gt;Node24</title>
<path fill="none" stroke="midnightblue" d="M907.389,-358.31C923.998,-334.683 973.963,-269.477 1034.5,-246 1177,-190.738 1244.22,-286.566 1376.5,-210 1397.07,-198.093 1411.62,-174.19 1419.78,-157.536"/>
<polygon fill="midnightblue" stroke="midnightblue" points="1423.04,-158.823 1424.03,-148.275 1416.68,-155.903 1423.04,-158.823"/>
</g>
<!-- Node38 -->
<g id="node38" class="node"><title>Node38</title>
<polygon fill="none" stroke="#bfbfbf" points="967.5,-302.5 967.5,-321.5 1011.5,-321.5 1011.5,-302.5 967.5,-302.5"/>
<text text-anchor="middle" x="989.5" y="-309.5" font-family="Helvetica,sans-Serif" font-size="10.00">thread</text>
</g>
<!-- Node37&#45;&gt;Node38 -->
<g id="edge67" class="edge"><title>Node37&#45;&gt;Node38</title>
<path fill="none" stroke="midnightblue" d="M915.639,-358.324C929.366,-349.9 950.436,-336.971 966.564,-327.074"/>
<polygon fill="midnightblue" stroke="midnightblue" points="968.704,-329.868 975.396,-321.655 965.043,-323.902 968.704,-329.868"/>
</g>
<!-- Node39 -->
<g id="node39" class="node"><title>Node39</title>
<polygon fill="none" stroke="#bfbfbf" points="611.5,-302.5 611.5,-321.5 691.5,-321.5 691.5,-302.5 611.5,-302.5"/>
<text text-anchor="middle" x="651.5" y="-309.5" font-family="Helvetica,sans-Serif" font-size="10.00">boost/asio.hpp</text>
</g>
<!-- Node37&#45;&gt;Node39 -->
<g id="edge68" class="edge"><title>Node37&#45;&gt;Node39</title>
<path fill="none" stroke="midnightblue" d="M861.887,-358.444C818.275,-349.023 748.1,-333.866 700.922,-323.675"/>
<polygon fill="midnightblue" stroke="midnightblue" points="701.441,-320.207 690.928,-321.516 699.964,-327.049 701.441,-320.207"/>
</g>
<!-- Node40 -->
<g id="node40" class="node"><title>Node40</title>
<g id="a_node40"><a xlink:href="concurrent__container_8hpp.html" target="_top" xlink:title="concurrent_container.hpp">
<polygon fill="none" stroke="black" points="1105.5,-302.5 1105.5,-321.5 1231.5,-321.5 1231.5,-302.5 1105.5,-302.5"/>
<text text-anchor="middle" x="1168.5" y="-309.5" font-family="Helvetica,sans-Serif" font-size="10.00">concurrent_container.hpp</text>
</a>
</g>
</g>
<!-- Node37&#45;&gt;Node40 -->
<g id="edge70" class="edge"><title>Node37&#45;&gt;Node40</title>
<path fill="none" stroke="midnightblue" d="M943.807,-358.444C990.58,-348.984 1065.96,-333.738 1116.35,-323.547"/>
<polygon fill="midnightblue" stroke="midnightblue" points="1117.28,-326.929 1126.39,-321.516 1115.9,-320.068 1117.28,-326.929"/>
</g>
<!-- Node40&#45;&gt;Node3 -->
<g id="edge74" class="edge"><title>Node40&#45;&gt;Node3</title>
<path fill="none" stroke="midnightblue" d="M1198.45,-302.444C1233.31,-292.483 1290.63,-276.107 1326.1,-265.972"/>
<polygon fill="midnightblue" stroke="midnightblue" points="1327.27,-269.278 1335.92,-263.165 1325.35,-262.547 1327.27,-269.278"/>
</g>
<!-- Node40&#45;&gt;Node8 -->
<g id="edge71" class="edge"><title>Node40&#45;&gt;Node8</title>
<path fill="none" stroke="midnightblue" d="M1152.11,-302.324C1135.83,-293.703 1110.63,-280.364 1091.78,-270.386"/>
<polygon fill="midnightblue" stroke="midnightblue" points="1093.32,-267.24 1082.85,-265.655 1090.05,-273.427 1093.32,-267.24"/>
</g>
<!-- Node40&#45;&gt;Node13 -->
<g id="edge73" class="edge"><title>Node40&#45;&gt;Node13</title>
<path fill="none" stroke="midnightblue" d="M1168.85,-302.133C1169.52,-272.481 1167.6,-175.691 1117.5,-123 1103.87,-108.664 1055.05,-94.987 1019.33,-86.5524"/>
<polygon fill="midnightblue" stroke="midnightblue" points="1019.72,-83.0489 1009.19,-84.2123 1018.14,-89.8699 1019.72,-83.0489"/>
</g>
<!-- Node40&#45;&gt;Node17 -->
<g id="edge75" class="edge"><title>Node40&#45;&gt;Node17</title>
<path fill="none" stroke="midnightblue" d="M1161.84,-302.192C1150.52,-287.906 1126.05,-259.884 1098.5,-246 1020.97,-206.923 990.505,-231.93 906.5,-210 887.665,-205.083 751.853,-169.812 740.5,-154 726.162,-134.031 747.243,-108.865 764.624,-93.0985"/>
<polygon fill="midnightblue" stroke="midnightblue" points="766.914,-95.7454 772.209,-86.5686 762.347,-90.4405 766.914,-95.7454"/>
</g>
<!-- Node41 -->
<g id="node41" class="node"><title>Node41</title>
<polygon fill="none" stroke="#bfbfbf" points="1184,-246.5 1184,-265.5 1279,-265.5 1279,-246.5 1184,-246.5"/>
<text text-anchor="middle" x="1231.5" y="-253.5" font-family="Helvetica,sans-Serif" font-size="10.00">condition_variable</text>
</g>
<!-- Node40&#45;&gt;Node41 -->
<g id="edge72" class="edge"><title>Node40&#45;&gt;Node41</title>
<path fill="none" stroke="midnightblue" d="M1178.62,-302.324C1188.03,-294.263 1202.24,-282.077 1213.57,-272.369"/>
<polygon fill="midnightblue" stroke="midnightblue" points="1215.88,-274.999 1221.19,-265.834 1211.32,-269.684 1215.88,-274.999"/>
</g>
<!-- Node42&#45;&gt;Node3 -->
<g id="edge81" class="edge"><title>Node42&#45;&gt;Node3</title>
<path fill="none" stroke="midnightblue" d="M1208.8,-363.601C1242.13,-358.956 1289.09,-347.97 1321.5,-322 1336.57,-309.927 1346.32,-289.752 1351.83,-275.077"/>
<polygon fill="midnightblue" stroke="midnightblue" points="1355.16,-276.151 1355.1,-265.557 1348.54,-273.876 1355.16,-276.151"/>
</g>
<!-- Node42&#45;&gt;Node6 -->
<g id="edge83" class="edge"><title>Node42&#45;&gt;Node6</title>
<path fill="none" stroke="midnightblue" d="M1208.58,-361.35C1292.19,-348.435 1477.5,-313.445 1477.5,-257 1477.5,-257 1477.5,-257 1477.5,-137.5 1477.5,-82.1898 1414.05,-46.2551 1373.2,-28.8502"/>
<polygon fill="midnightblue" stroke="midnightblue" points="1374.43,-25.5739 1363.85,-25.0211 1371.78,-32.0513 1374.43,-25.5739"/>
</g>
<!-- Node42&#45;&gt;Node7 -->
<g id="edge86" class="edge"><title>Node42&#45;&gt;Node7</title>
<path fill="none" stroke="midnightblue" d="M1128.42,-361.575C1060.81,-352.426 923.317,-333.817 839.508,-322.475"/>
<polygon fill="midnightblue" stroke="midnightblue" points="839.941,-319.002 829.562,-321.129 839.002,-325.938 839.941,-319.002"/>
</g>
<!-- Node42&#45;&gt;Node8 -->
<g id="edge78" class="edge"><title>Node42&#45;&gt;Node8</title>
<path fill="none" stroke="midnightblue" d="M1148.57,-358.47C1132.73,-350.851 1110.92,-338.368 1096.5,-322 1084.7,-308.608 1076.7,-289.786 1071.95,-275.841"/>
<polygon fill="midnightblue" stroke="midnightblue" points="1075.16,-274.39 1068.82,-265.899 1068.48,-276.489 1075.16,-274.39"/>
</g>
<!-- Node42&#45;&gt;Node24 -->
<g id="edge80" class="edge"><title>Node42&#45;&gt;Node24</title>
<path fill="none" stroke="midnightblue" d="M1208.56,-364.248C1246.34,-360.013 1303.17,-349.266 1344.5,-322 1401.64,-284.308 1419.97,-196.829 1425.4,-158.298"/>
<polygon fill="midnightblue" stroke="midnightblue" points="1428.92,-158.38 1426.7,-148.02 1421.97,-157.502 1428.92,-158.38"/>
</g>
<!-- Node42&#45;&gt;Node28 -->
<g id="edge85" class="edge"><title>Node42&#45;&gt;Node28</title>
<path fill="none" stroke="midnightblue" d="M1143.41,-358.491C1091.81,-339.765 973.066,-290.165 906.5,-210 880.95,-179.23 877.895,-162.6 883.5,-123 884.768,-114.042 887.389,-104.372 889.948,-96.2998"/>
<polygon fill="midnightblue" stroke="midnightblue" points="893.271,-97.3976 893.156,-86.8034 886.639,-95.1569 893.271,-97.3976"/>
</g>
<!-- Node42&#45;&gt;Node38 -->
<g id="edge82" class="edge"><title>Node42&#45;&gt;Node38</title>
<path fill="none" stroke="midnightblue" d="M1140.14,-358.444C1107.8,-348.687 1055.06,-332.776 1021.33,-322.604"/>
<polygon fill="midnightblue" stroke="midnightblue" points="1022.11,-319.181 1011.52,-319.644 1020.09,-325.883 1022.11,-319.181"/>
</g>
<!-- Node42&#45;&gt;Node40 -->
<g id="edge84" class="edge"><title>Node42&#45;&gt;Node40</title>
<path fill="none" stroke="midnightblue" d="M1168.5,-358.083C1168.5,-351.006 1168.5,-340.861 1168.5,-331.986"/>
<polygon fill="midnightblue" stroke="midnightblue" points="1172,-331.751 1168.5,-321.751 1165,-331.751 1172,-331.751"/>
</g>
<!-- Node42&#45;&gt;Node41 -->
<g id="edge79" class="edge"><title>Node42&#45;&gt;Node41</title>
<path fill="none" stroke="midnightblue" d="M1194,-358.472C1210.49,-351.478 1230.64,-339.792 1240.5,-322 1248.51,-307.549 1244.56,-288.61 1239.62,-274.906"/>
<polygon fill="midnightblue" stroke="midnightblue" points="1242.85,-273.553 1235.84,-265.608 1236.37,-276.19 1242.85,-273.553"/>
</g>
<!-- Node43 -->
<g id="node43" class="node"><title>Node43</title>
<g id="a_node43"><a xlink:href="handler__container_8hpp.html" target="_top" xlink:title="handler/handler_container.hpp">
<polygon fill="none" stroke="black" points="1221.5,-190.5 1221.5,-209.5 1367.5,-209.5 1367.5,-190.5 1221.5,-190.5"/>
<text text-anchor="middle" x="1294.5" y="-197.5" font-family="Helvetica,sans-Serif" font-size="10.00">handler/handler_container.hpp</text>
</a>
</g>
</g>
<!-- Node42&#45;&gt;Node43 -->
<g id="edge87" class="edge"><title>Node42&#45;&gt;Node43</title>
<path fill="none" stroke="midnightblue" d="M1195.26,-358.396C1214.45,-351.145 1239.91,-339.178 1257.5,-322 1277.7,-302.272 1279.17,-292.978 1287.5,-266 1292.16,-250.902 1293.82,-233.002 1294.37,-219.813"/>
<polygon fill="midnightblue" stroke="midnightblue" points="1297.87,-219.703 1294.61,-209.624 1290.88,-219.539 1297.87,-219.703"/>
</g>
<!-- Node43&#45;&gt;Node28 -->
<g id="edge88" class="edge"><title>Node43&#45;&gt;Node28</title>
<path fill="none" stroke="midnightblue" d="M1275.09,-190.397C1232.51,-171.57 1133.46,-127.991 1117.5,-123 1043.88,-99.9738 1020.94,-102.773 941.534,-87.1725"/>
<polygon fill="midnightblue" stroke="midnightblue" points="942.056,-83.7076 931.564,-85.1758 940.682,-90.5713 942.056,-83.7076"/>
</g>
</g>
</svg>
