<?xml version="1.0" encoding="UTF-8" standalone="no"?>
<!DOCTYPE svg PUBLIC "-//W3C//DTD SVG 1.1//EN"
 "http://www.w3.org/Graphics/SVG/1.1/DTD/svg11.dtd">
<!-- Generated by graphviz version 2.38.0 (20140413.2041)
 -->
<!-- Title: src/string/multibuf.hpp Pages: 1 -->
<!--zoomable 364 -->
<svg id="main" version="1.1" xmlns="http://www.w3.org/2000/svg" xmlns:xlink="http://www.w3.org/1999/xlink" xml:space="preserve" onload="init(evt)">
<style type="text/css"><![CDATA[
.edge:hover path { stroke: red; }
.edge:hover polygon { stroke: red; fill: red; }
]]></style>
<script type="text/javascript"><![CDATA[
var edges = document.getElementsByTagName('g');
if (edges && edges.length) {
  for (var i=0;i<edges.length;i++) {
    if (edges[i].id.substr(0,4)=='edge') {
      edges[i].setAttribute('class','edge');
    }
  }
}
]]></script>
        <defs>
                <circle id="rim" cx="0" cy="0" r="7"/>
                <circle id="rim2" cx="0" cy="0" r="3.5"/>
                <g id="zoomPlus">
                        <use xlink:href="#rim" fill="#404040">
                                <set attributeName="fill" to="#808080" begin="zoomplus.mouseover" end="zoomplus.mouseout"/>
                        </use>
                        <path d="M-4,0h8M0,-4v8" fill="none" stroke="white" stroke-width="1.5" pointer-events="none"/>
                </g>
                <g id="zoomMin">
                        <use xlink:href="#rim" fill="#404040">
                                <set attributeName="fill" to="#808080" begin="zoomminus.mouseover" end="zoomminus.mouseout"/>
                        </use>
                        <path d="M-4,0h8" fill="none" stroke="white" stroke-width="1.5" pointer-events="none"/>
                </g>
                <g id="dirArrow">
                        <path fill="none" stroke="white" stroke-width="1.5" d="M0,-3.0v7 M-2.5,-0.5L0,-3.0L2.5,-0.5"/>
                </g>
               <g id="resetDef">
                       <use xlink:href="#rim2" fill="#404040">
                               <set attributeName="fill" to="#808080" begin="reset.mouseover" end="reset.mouseout"/>
                       </use>
               </g>
        </defs>

<script type="text/javascript">
var viewWidth = 970;
var viewHeight = 364;
var sectionId = 'dynsection-1';
</script>
<script xlink:href="svgpan.js"/>
<svg id="graph" class="graph">
<g id="viewport">
<title>src/string/multibuf.hpp</title>
<!-- Node1 -->
<g id="node1" class="node"><title>Node1</title>
<polygon fill="#bfbfbf" stroke="black" points="466,-336.5 466,-355.5 579,-355.5 579,-336.5 466,-336.5"/>
<text text-anchor="middle" x="522.5" y="-343.5" font-family="Helvetica,sans-Serif" font-size="10.00">src/string/multibuf.hpp</text>
</g>
<!-- Node2 -->
<g id="node2" class="node"><title>Node2</title>
<g id="a_node2"><a xlink:href="logger_8hpp.html" target="_top" xlink:title="src/string/logger.hpp">
<polygon fill="none" stroke="black" points="470,-280.5 470,-299.5 575,-299.5 575,-280.5 470,-280.5"/>
<text text-anchor="middle" x="522.5" y="-287.5" font-family="Helvetica,sans-Serif" font-size="10.00">src/string/logger.hpp</text>
</a>
</g>
</g>
<!-- Node1&#45;&gt;Node2 -->
<g id="edge1" class="edge"><title>Node1&#45;&gt;Node2</title>
<path fill="none" stroke="midnightblue" d="M522.5,-325.805C522.5,-316.91 522.5,-306.78 522.5,-299.751"/>
<polygon fill="midnightblue" stroke="midnightblue" points="519,-326.083 522.5,-336.083 526,-326.083 519,-326.083"/>
</g>
<!-- Node3 -->
<g id="node3" class="node"><title>Node3</title>
<g id="a_node3"><a xlink:href="string_8cpp.html" target="_top" xlink:title="src/string/string.cpp">
<polygon fill="none" stroke="black" points="0,-224.5 0,-243.5 103,-243.5 103,-224.5 0,-224.5"/>
<text text-anchor="middle" x="51.5" y="-231.5" font-family="Helvetica,sans-Serif" font-size="10.00">src/string/string.cpp</text>
</a>
</g>
</g>
<!-- Node2&#45;&gt;Node3 -->
<g id="edge2" class="edge"><title>Node2&#45;&gt;Node3</title>
<path fill="none" stroke="midnightblue" d="M459.875,-282.926C379.211,-274.924 234.718,-259.98 111.5,-244 108.784,-243.648 106.001,-243.274 103.192,-242.887"/>
<polygon fill="midnightblue" stroke="midnightblue" points="459.572,-286.414 469.868,-283.915 460.261,-279.447 459.572,-286.414"/>
</g>
<!-- Node4 -->
<g id="node4" class="node"><title>Node4</title>
<g id="a_node4"><a xlink:href="logger_8cpp.html" target="_top" xlink:title="src/string/logger.cpp">
<polygon fill="none" stroke="black" points="121,-224.5 121,-243.5 226,-243.5 226,-224.5 121,-224.5"/>
<text text-anchor="middle" x="173.5" y="-231.5" font-family="Helvetica,sans-Serif" font-size="10.00">src/string/logger.cpp</text>
</a>
</g>
</g>
<!-- Node2&#45;&gt;Node4 -->
<g id="edge3" class="edge"><title>Node2&#45;&gt;Node4</title>
<path fill="none" stroke="midnightblue" d="M459.916,-279.317C393.259,-269.003 288.911,-252.857 226.269,-243.165"/>
<polygon fill="midnightblue" stroke="midnightblue" points="459.456,-282.787 469.873,-280.857 460.526,-275.869 459.456,-282.787"/>
</g>
<!-- Node5 -->
<g id="node5" class="node"><title>Node5</title>
<g id="a_node5"><a xlink:href="connection_8hpp.html" target="_top" xlink:title="src/network/connection.hpp">
<polygon fill="none" stroke="black" points="310,-224.5 310,-243.5 447,-243.5 447,-224.5 310,-224.5"/>
<text text-anchor="middle" x="378.5" y="-231.5" font-family="Helvetica,sans-Serif" font-size="10.00">src/network/connection.hpp</text>
</a>
</g>
</g>
<!-- Node2&#45;&gt;Node5 -->
<g id="edge4" class="edge"><title>Node2&#45;&gt;Node5</title>
<path fill="none" stroke="midnightblue" d="M490.249,-276.906C463.176,-266.754 425.183,-252.506 401.21,-243.516"/>
<polygon fill="midnightblue" stroke="midnightblue" points="489.091,-280.209 499.683,-280.444 491.548,-273.655 489.091,-280.209"/>
</g>
<!-- Node8 -->
<g id="node8" class="node"><title>Node8</title>
<g id="a_node8"><a xlink:href="handler_8hpp.html" target="_top" xlink:title="src/handler/handler.hpp">
<polygon fill="none" stroke="black" points="220.5,-112.5 220.5,-131.5 338.5,-131.5 338.5,-112.5 220.5,-112.5"/>
<text text-anchor="middle" x="279.5" y="-119.5" font-family="Helvetica,sans-Serif" font-size="10.00">src/handler/handler.hpp</text>
</a>
</g>
</g>
<!-- Node2&#45;&gt;Node8 -->
<g id="edge18" class="edge"><title>Node2&#45;&gt;Node8</title>
<path fill="none" stroke="midnightblue" d="M459.665,-283.983C402.266,-278.065 323.143,-266.103 301.5,-244 270.877,-212.726 275.191,-153.948 278.125,-131.77"/>
<polygon fill="midnightblue" stroke="midnightblue" points="459.455,-287.48 469.752,-284.985 460.146,-280.514 459.455,-287.48"/>
</g>
<!-- Node13 -->
<g id="node13" class="node"><title>Node13</title>
<g id="a_node13"><a xlink:href="irc_8hpp.html" target="_top" xlink:title="src/network/irc.hpp">
<polygon fill="none" stroke="black" points="394.5,-112.5 394.5,-131.5 494.5,-131.5 494.5,-112.5 394.5,-112.5"/>
<text text-anchor="middle" x="444.5" y="-119.5" font-family="Helvetica,sans-Serif" font-size="10.00">src/network/irc.hpp</text>
</a>
</g>
</g>
<!-- Node2&#45;&gt;Node13 -->
<g id="edge28" class="edge"><title>Node2&#45;&gt;Node13</title>
<path fill="none" stroke="midnightblue" d="M513.974,-270.856C497.245,-235.252 460.689,-157.453 448.526,-131.568"/>
<polygon fill="midnightblue" stroke="midnightblue" points="510.886,-272.513 518.306,-280.075 517.221,-269.536 510.886,-272.513"/>
</g>
<!-- Node14 -->
<g id="node14" class="node"><title>Node14</title>
<g id="a_node14"><a xlink:href="irc_8cpp.html" target="_top" xlink:title="src/network/irc.cpp">
<polygon fill="none" stroke="black" points="462.5,-56.5 462.5,-75.5 562.5,-75.5 562.5,-56.5 462.5,-56.5"/>
<text text-anchor="middle" x="512.5" y="-63.5" font-family="Helvetica,sans-Serif" font-size="10.00">src/network/irc.cpp</text>
</a>
</g>
</g>
<!-- Node2&#45;&gt;Node14 -->
<g id="edge29" class="edge"><title>Node2&#45;&gt;Node14</title>
<path fill="none" stroke="midnightblue" d="M521.657,-270.295C519.601,-224.644 514.385,-108.854 512.9,-75.8837"/>
<polygon fill="midnightblue" stroke="midnightblue" points="518.161,-270.465 522.108,-280.297 525.154,-270.15 518.161,-270.465"/>
</g>
<!-- Node15 -->
<g id="node15" class="node"><title>Node15</title>
<g id="a_node15"><a xlink:href="main_8cpp.html" target="_top" xlink:title="src/main.cpp">
<polygon fill="none" stroke="black" points="551,-112.5 551,-131.5 624,-131.5 624,-112.5 551,-112.5"/>
<text text-anchor="middle" x="587.5" y="-119.5" font-family="Helvetica,sans-Serif" font-size="10.00">src/main.cpp</text>
</a>
</g>
</g>
<!-- Node2&#45;&gt;Node15 -->
<g id="edge31" class="edge"><title>Node2&#45;&gt;Node15</title>
<path fill="none" stroke="midnightblue" d="M529.785,-270.395C543.807,-234.585 574.053,-157.342 584.145,-131.568"/>
<polygon fill="midnightblue" stroke="midnightblue" points="526.382,-269.487 525.995,-280.075 532.9,-272.04 526.382,-269.487"/>
</g>
<!-- Node16 -->
<g id="node16" class="node"><title>Node16</title>
<g id="a_node16"><a xlink:href="async__service_8hpp.html" target="_top" xlink:title="src/network/async_service.hpp">
<polygon fill="none" stroke="black" points="588.5,-224.5 588.5,-243.5 740.5,-243.5 740.5,-224.5 588.5,-224.5"/>
<text text-anchor="middle" x="664.5" y="-231.5" font-family="Helvetica,sans-Serif" font-size="10.00">src/network/async_service.hpp</text>
</a>
</g>
</g>
<!-- Node2&#45;&gt;Node16 -->
<g id="edge19" class="edge"><title>Node2&#45;&gt;Node16</title>
<path fill="none" stroke="midnightblue" d="M554.655,-276.772C581.328,-266.629 618.569,-252.467 642.105,-243.516"/>
<polygon fill="midnightblue" stroke="midnightblue" points="553.103,-273.618 545,-280.444 555.591,-280.16 553.103,-273.618"/>
</g>
<!-- Node18 -->
<g id="node18" class="node"><title>Node18</title>
<g id="a_node18"><a xlink:href="http_8cpp.html" target="_top" xlink:title="src/network/http.cpp">
<polygon fill="none" stroke="black" points="709.5,-112.5 709.5,-131.5 815.5,-131.5 815.5,-112.5 709.5,-112.5"/>
<text text-anchor="middle" x="762.5" y="-119.5" font-family="Helvetica,sans-Serif" font-size="10.00">src/network/http.cpp</text>
</a>
</g>
</g>
<!-- Node2&#45;&gt;Node18 -->
<g id="edge27" class="edge"><title>Node2&#45;&gt;Node18</title>
<path fill="none" stroke="midnightblue" d="M585.177,-284.765C644.561,-279.362 727.803,-267.711 749.5,-244 778.739,-212.046 769.486,-153.677 764.639,-131.689"/>
<polygon fill="midnightblue" stroke="midnightblue" points="584.785,-281.286 575.127,-285.641 585.393,-288.259 584.785,-281.286"/>
</g>
<!-- Node19 -->
<g id="node19" class="node"><title>Node19</title>
<g id="a_node19"><a xlink:href="json_8hpp.html" target="_top" xlink:title="src/string/json.hpp">
<polygon fill="none" stroke="black" points="797,-224.5 797,-243.5 894,-243.5 894,-224.5 797,-224.5"/>
<text text-anchor="middle" x="845.5" y="-231.5" font-family="Helvetica,sans-Serif" font-size="10.00">src/string/json.hpp</text>
</a>
</g>
</g>
<!-- Node2&#45;&gt;Node19 -->
<g id="edge24" class="edge"><title>Node2&#45;&gt;Node19</title>
<path fill="none" stroke="midnightblue" d="M583.702,-278.768C645.59,-268.421 740.007,-252.637 796.935,-243.119"/>
<polygon fill="midnightblue" stroke="midnightblue" points="582.966,-275.342 573.68,-280.444 584.121,-282.247 582.966,-275.342"/>
</g>
<!-- Node20 -->
<g id="node20" class="node"><title>Node20</title>
<g id="a_node20"><a xlink:href="settings_8cpp.html" target="_top" xlink:title="src/settings.cpp">
<polygon fill="none" stroke="black" points="875.5,-168.5 875.5,-187.5 961.5,-187.5 961.5,-168.5 875.5,-168.5"/>
<text text-anchor="middle" x="918.5" y="-175.5" font-family="Helvetica,sans-Serif" font-size="10.00">src/settings.cpp</text>
</a>
</g>
</g>
<!-- Node2&#45;&gt;Node20 -->
<g id="edge30" class="edge"><title>Node2&#45;&gt;Node20</title>
<path fill="none" stroke="midnightblue" d="M585.439,-285.492C687.55,-279.226 880.304,-264.792 903.5,-244 919.541,-229.622 920.191,-201.824 919.347,-187.697"/>
<polygon fill="midnightblue" stroke="midnightblue" points="585.02,-282.011 575.249,-286.109 585.442,-288.998 585.02,-282.011"/>
</g>
<!-- Node6 -->
<g id="node6" class="node"><title>Node6</title>
<g id="a_node6"><a xlink:href="melanobot_8hpp.html" target="_top" xlink:title="src/melanobot.hpp">
<polygon fill="none" stroke="black" points="321,-168.5 321,-187.5 418,-187.5 418,-168.5 321,-168.5"/>
<text text-anchor="middle" x="369.5" y="-175.5" font-family="Helvetica,sans-Serif" font-size="10.00">src/melanobot.hpp</text>
</a>
</g>
</g>
<!-- Node5&#45;&gt;Node6 -->
<g id="edge5" class="edge"><title>Node5&#45;&gt;Node6</title>
<path fill="none" stroke="midnightblue" d="M375.35,-214.101C373.856,-205.136 372.143,-194.858 370.959,-187.751"/>
<polygon fill="midnightblue" stroke="midnightblue" points="371.917,-214.794 377.014,-224.083 378.822,-213.644 371.917,-214.794"/>
</g>
<!-- Node5&#45;&gt;Node8 -->
<g id="edge16" class="edge"><title>Node5&#45;&gt;Node8</title>
<path fill="none" stroke="midnightblue" d="M352.203,-219.27C339.058,-211.436 323.625,-200.657 312.5,-188 297.293,-170.7 287.029,-145.145 282.366,-131.817"/>
<polygon fill="midnightblue" stroke="midnightblue" points="350.855,-222.529 361.276,-224.437 354.319,-216.447 350.855,-222.529"/>
</g>
<!-- Node5&#45;&gt;Node13 -->
<g id="edge17" class="edge"><title>Node5&#45;&gt;Node13</title>
<path fill="none" stroke="midnightblue" d="M399.846,-217.96C409.592,-210.072 420.497,-199.633 427.5,-188 438.449,-169.812 442.422,-144.632 443.804,-131.595"/>
<polygon fill="midnightblue" stroke="midnightblue" points="397.513,-215.339 391.707,-224.201 401.773,-220.894 397.513,-215.339"/>
</g>
<!-- Node7 -->
<g id="node7" class="node"><title>Node7</title>
<g id="a_node7"><a xlink:href="melanobot_8cpp.html" target="_top" xlink:title="src/melanobot.cpp">
<polygon fill="none" stroke="black" points="337,-56.5 337,-75.5 434,-75.5 434,-56.5 337,-56.5"/>
<text text-anchor="middle" x="385.5" y="-63.5" font-family="Helvetica,sans-Serif" font-size="10.00">src/melanobot.cpp</text>
</a>
</g>
</g>
<!-- Node6&#45;&gt;Node7 -->
<g id="edge6" class="edge"><title>Node6&#45;&gt;Node7</title>
<path fill="none" stroke="midnightblue" d="M372.213,-158.348C375.718,-134.254 381.673,-93.3079 384.25,-75.5914"/>
<polygon fill="midnightblue" stroke="midnightblue" points="368.731,-157.969 370.755,-168.368 375.659,-158.976 368.731,-157.969"/>
</g>
<!-- Node6&#45;&gt;Node8 -->
<g id="edge7" class="edge"><title>Node6&#45;&gt;Node8</title>
<path fill="none" stroke="midnightblue" d="M346.462,-163.177C329.901,-153.241 308.082,-140.149 293.924,-131.655"/>
<polygon fill="midnightblue" stroke="midnightblue" points="344.664,-166.18 355.04,-168.324 348.266,-160.178 344.664,-166.18"/>
</g>
<!-- Node6&#45;&gt;Node13 -->
<g id="edge13" class="edge"><title>Node6&#45;&gt;Node13</title>
<path fill="none" stroke="midnightblue" d="M389.805,-162.38C403.361,-152.62 420.742,-140.106 432.231,-131.834"/>
<polygon fill="midnightblue" stroke="midnightblue" points="387.62,-159.641 381.55,-168.324 391.71,-165.321 387.62,-159.641"/>
</g>
<!-- Node6&#45;&gt;Node15 -->
<g id="edge15" class="edge"><title>Node6&#45;&gt;Node15</title>
<path fill="none" stroke="midnightblue" d="M413.812,-166.024C454.992,-155.823 515.473,-140.841 553.119,-131.516"/>
<polygon fill="midnightblue" stroke="midnightblue" points="412.908,-162.642 404.043,-168.444 414.591,-169.436 412.908,-162.642"/>
</g>
<!-- Node8&#45;&gt;Node7 -->
<g id="edge8" class="edge"><title>Node8&#45;&gt;Node7</title>
<path fill="none" stroke="midnightblue" d="M305.556,-107.726C325.184,-97.7271 351.528,-84.3065 368.512,-75.6545"/>
<polygon fill="midnightblue" stroke="midnightblue" points="303.852,-104.666 296.531,-112.324 307.03,-110.903 303.852,-104.666"/>
</g>
<!-- Node9 -->
<g id="node9" class="node"><title>Node9</title>
<g id="a_node9"><a xlink:href="web-api_8hpp.html" target="_top" xlink:title="src/handler/web&#45;api.hpp">
<polygon fill="none" stroke="black" points="619.5,-56.5 619.5,-75.5 739.5,-75.5 739.5,-56.5 619.5,-56.5"/>
<text text-anchor="middle" x="679.5" y="-63.5" font-family="Helvetica,sans-Serif" font-size="10.00">src/handler/web&#45;api.hpp</text>
</a>
</g>
</g>
<!-- Node8&#45;&gt;Node9 -->
<g id="edge9" class="edge"><title>Node8&#45;&gt;Node9</title>
<path fill="none" stroke="midnightblue" d="M348.52,-111.682C424.856,-101.377 546.631,-84.9373 619.254,-75.1332"/>
<polygon fill="midnightblue" stroke="midnightblue" points="347.963,-108.226 338.521,-113.032 348.9,-115.163 347.963,-108.226"/>
</g>
<!-- Node11 -->
<g id="node11" class="node"><title>Node11</title>
<g id="a_node11"><a xlink:href="simple_8cpp.html" target="_top" xlink:title="src/handler/simple.cpp">
<polygon fill="none" stroke="black" points="204,-56.5 204,-75.5 319,-75.5 319,-56.5 204,-56.5"/>
<text text-anchor="middle" x="261.5" y="-63.5" font-family="Helvetica,sans-Serif" font-size="10.00">src/handler/simple.cpp</text>
</a>
</g>
</g>
<!-- Node8&#45;&gt;Node11 -->
<g id="edge11" class="edge"><title>Node8&#45;&gt;Node11</title>
<path fill="none" stroke="midnightblue" d="M273.299,-102.396C270.287,-93.362 266.812,-82.936 264.417,-75.7511"/>
<polygon fill="midnightblue" stroke="midnightblue" points="270.045,-103.703 276.528,-112.083 276.686,-101.489 270.045,-103.703"/>
</g>
<!-- Node12 -->
<g id="node12" class="node"><title>Node12</title>
<g id="a_node12"><a xlink:href="handler_8cpp.html" target="_top" xlink:title="src/handler/handler.cpp">
<polygon fill="none" stroke="black" points="67.5,-56.5 67.5,-75.5 185.5,-75.5 185.5,-56.5 67.5,-56.5"/>
<text text-anchor="middle" x="126.5" y="-63.5" font-family="Helvetica,sans-Serif" font-size="10.00">src/handler/handler.cpp</text>
</a>
</g>
</g>
<!-- Node8&#45;&gt;Node12 -->
<g id="edge12" class="edge"><title>Node8&#45;&gt;Node12</title>
<path fill="none" stroke="midnightblue" d="M245.611,-109.039C216.823,-98.8786 176.213,-84.5457 150.63,-75.5164"/>
<polygon fill="midnightblue" stroke="midnightblue" points="244.662,-112.416 255.257,-112.444 246.992,-105.815 244.662,-112.416"/>
</g>
<!-- Node10 -->
<g id="node10" class="node"><title>Node10</title>
<g id="a_node10"><a xlink:href="web-api_8cpp.html" target="_top" xlink:title="src/handler/web&#45;api.cpp">
<polygon fill="none" stroke="black" points="619.5,-0.5 619.5,-19.5 739.5,-19.5 739.5,-0.5 619.5,-0.5"/>
<text text-anchor="middle" x="679.5" y="-7.5" font-family="Helvetica,sans-Serif" font-size="10.00">src/handler/web&#45;api.cpp</text>
</a>
</g>
</g>
<!-- Node9&#45;&gt;Node10 -->
<g id="edge10" class="edge"><title>Node9&#45;&gt;Node10</title>
<path fill="none" stroke="midnightblue" d="M679.5,-45.8045C679.5,-36.9102 679.5,-26.7798 679.5,-19.7511"/>
<polygon fill="midnightblue" stroke="midnightblue" points="676,-46.083 679.5,-56.083 683,-46.083 676,-46.083"/>
</g>
<!-- Node13&#45;&gt;Node14 -->
<g id="edge14" class="edge"><title>Node13&#45;&gt;Node14</title>
<path fill="none" stroke="midnightblue" d="M463.262,-106.101C475.5,-96.3824 491.059,-84.0269 501.376,-75.8339"/>
<polygon fill="midnightblue" stroke="midnightblue" points="461.08,-103.364 455.425,-112.324 465.433,-108.846 461.08,-103.364"/>
</g>
<!-- Node16&#45;&gt;Node15 -->
<g id="edge23" class="edge"><title>Node16&#45;&gt;Node15</title>
<path fill="none" stroke="midnightblue" d="M645.619,-217.869C636.312,-209.728 625.417,-199.095 617.5,-188 604.361,-169.587 594.741,-144.502 590.277,-131.538"/>
<polygon fill="midnightblue" stroke="midnightblue" points="643.375,-220.556 653.274,-224.332 647.89,-215.207 643.375,-220.556"/>
</g>
<!-- Node17 -->
<g id="node17" class="node"><title>Node17</title>
<g id="a_node17"><a xlink:href="http_8hpp.html" target="_top" xlink:title="src/network/http.hpp">
<polygon fill="none" stroke="black" points="626.5,-168.5 626.5,-187.5 732.5,-187.5 732.5,-168.5 626.5,-168.5"/>
<text text-anchor="middle" x="679.5" y="-175.5" font-family="Helvetica,sans-Serif" font-size="10.00">src/network/http.hpp</text>
</a>
</g>
</g>
<!-- Node16&#45;&gt;Node17 -->
<g id="edge20" class="edge"><title>Node16&#45;&gt;Node17</title>
<path fill="none" stroke="midnightblue" d="M669.668,-214.396C672.177,-205.362 675.073,-194.936 677.069,-187.751"/>
<polygon fill="midnightblue" stroke="midnightblue" points="666.281,-213.511 666.977,-224.083 673.026,-215.385 666.281,-213.511"/>
</g>
<!-- Node17&#45;&gt;Node9 -->
<g id="edge21" class="edge"><title>Node17&#45;&gt;Node9</title>
<path fill="none" stroke="midnightblue" d="M679.5,-158.348C679.5,-134.254 679.5,-93.3079 679.5,-75.5914"/>
<polygon fill="midnightblue" stroke="midnightblue" points="676,-158.368 679.5,-168.368 683,-158.369 676,-158.368"/>
</g>
<!-- Node17&#45;&gt;Node18 -->
<g id="edge22" class="edge"><title>Node17&#45;&gt;Node18</title>
<path fill="none" stroke="midnightblue" d="M701.599,-162.622C716.762,-152.757 736.383,-139.992 749.198,-131.655"/>
<polygon fill="midnightblue" stroke="midnightblue" points="699.309,-159.937 692.835,-168.324 703.126,-165.804 699.309,-159.937"/>
</g>
<!-- Node19&#45;&gt;Node9 -->
<g id="edge25" class="edge"><title>Node19&#45;&gt;Node9</title>
<path fill="none" stroke="midnightblue" d="M847.795,-214.339C849.919,-188.178 849.63,-140.602 824.5,-112 803.276,-87.8426 769.349,-76.4901 739.648,-71.2244"/>
<polygon fill="midnightblue" stroke="midnightblue" points="844.3,-214.112 846.767,-224.416 851.264,-214.823 844.3,-214.112"/>
</g>
<!-- Node19&#45;&gt;Node20 -->
<g id="edge26" class="edge"><title>Node19&#45;&gt;Node20</title>
<path fill="none" stroke="midnightblue" d="M865.642,-218.101C878.779,-208.382 895.482,-196.027 906.558,-187.834"/>
<polygon fill="midnightblue" stroke="midnightblue" points="863.187,-215.563 857.229,-224.324 867.35,-221.191 863.187,-215.563"/>
</g>
</g>
</svg>
        <g id="navigator" transform="translate(0 0)" fill="#404254">
                <rect fill="#f2f5e9" fill-opacity="0.5" stroke="#606060" stroke-width=".5" x="0" y="0" width="60" height="60"/>
                <use id="zoomplus" xlink:href="#zoomPlus" x="17" y="9" onmousedown="handleZoom(evt,'in')"/>
                <use id="zoomminus" xlink:href="#zoomMin" x="42" y="9" onmousedown="handleZoom(evt,'out')"/>
                <use id="reset" xlink:href="#resetDef" x="30" y="36" onmousedown="handleReset()"/>
                <g id="arrowUp" xlink:href="#dirArrow" transform="translate(30 24)" onmousedown="handlePan(0,-1)">
                  <use xlink:href="#rim" fill="#404040">
                        <set attributeName="fill" to="#808080" begin="arrowUp.mouseover" end="arrowUp.mouseout"/>
                  </use>
                  <path fill="none" stroke="white" stroke-width="1.5" d="M0,-3.0v7 M-2.5,-0.5L0,-3.0L2.5,-0.5"/>
                </g>
                <g id="arrowRight" xlink:href="#dirArrow" transform="rotate(90) translate(36 -43)" onmousedown="handlePan(1,0)">
                  <use xlink:href="#rim" fill="#404040">
                        <set attributeName="fill" to="#808080" begin="arrowRight.mouseover" end="arrowRight.mouseout"/>
                  </use>
                  <path fill="none" stroke="white" stroke-width="1.5" d="M0,-3.0v7 M-2.5,-0.5L0,-3.0L2.5,-0.5"/>
                </g>
                <g id="arrowDown" xlink:href="#dirArrow" transform="rotate(180) translate(-30 -48)" onmousedown="handlePan(0,1)">
                  <use xlink:href="#rim" fill="#404040">
                        <set attributeName="fill" to="#808080" begin="arrowDown.mouseover" end="arrowDown.mouseout"/>
                  </use>
                  <path fill="none" stroke="white" stroke-width="1.5" d="M0,-3.0v7 M-2.5,-0.5L0,-3.0L2.5,-0.5"/>
                </g>
                <g id="arrowLeft" xlink:href="#dirArrow" transform="rotate(270) translate(-36 17)" onmousedown="handlePan(-1,0)">
                  <use xlink:href="#rim" fill="#404040">
                        <set attributeName="fill" to="#808080" begin="arrowLeft.mouseover" end="arrowLeft.mouseout"/>
                  </use>
                  <path fill="none" stroke="white" stroke-width="1.5" d="M0,-3.0v7 M-2.5,-0.5L0,-3.0L2.5,-0.5"/>
                </g>
        </g>
        <svg viewBox="0 0 15 15" width="100%" height="30px" preserveAspectRatio="xMaxYMin meet">
         <g id="arrow_out" transform="scale(0.3 0.3)">
          <a xlink:href="multibuf_8hpp__dep__incl_org.svg" target="_base">
           <rect id="button" ry="5" rx="5" y="6" x="6" height="38" width="38"
                fill="#f2f5e9" fill-opacity="0.5" stroke="#606060" stroke-width="1.0"/>
           <path id="arrow"
             d="M 11.500037,31.436501 C 11.940474,20.09759 22.043105,11.32322 32.158766,21.979434 L 37.068811,17.246167 C 37.068811,17.246167 37.088388,32 37.088388,32 L 22.160133,31.978069 C 22.160133,31.978069 26.997745,27.140456 26.997745,27.140456 C 18.528582,18.264221 13.291696,25.230495 11.500037,31.436501 z"
             style="fill:#404040;"/>
          </a>
         </g>
        </svg>
</svg>
