<?xml version="1.0" encoding="UTF-8" standalone="no"?>
<!DOCTYPE svg PUBLIC "-//W3C//DTD SVG 1.1//EN"
 "http://www.w3.org/Graphics/SVG/1.1/DTD/svg11.dtd">
<!-- Generated by graphviz version 2.38.0 (20140413.2041)
 -->
<!-- Title: src/network/network.hpp Pages: 1 -->
<svg width="1494pt" height="375pt"
 viewBox="0.00 0.00 1494.05 375.00" xmlns="http://www.w3.org/2000/svg" xmlns:xlink="http://www.w3.org/1999/xlink">
<g id="graph0" class="graph" transform="scale(1 1) rotate(0) translate(4 371)">
<title>src/network/network.hpp</title>
<!-- Node1 -->
<g id="node1" class="node"><title>Node1</title>
<polygon fill="#bfbfbf" stroke="black" points="838.053,-347.5 838.053,-366.5 962.053,-366.5 962.053,-347.5 838.053,-347.5"/>
<text text-anchor="middle" x="900.053" y="-354.5" font-family="Helvetica,sans-Serif" font-size="10.00">src/network/network.hpp</text>
</g>
<!-- Node2 -->
<g id="node2" class="node"><title>Node2</title>
<polygon fill="none" stroke="#bfbfbf" points="858.053,-112.5 858.053,-131.5 910.053,-131.5 910.053,-112.5 858.053,-112.5"/>
<text text-anchor="middle" x="884.053" y="-119.5" font-family="Helvetica,sans-Serif" font-size="10.00">sstream</text>
</g>
<!-- Node1&#45;&gt;Node2 -->
<g id="edge1" class="edge"><title>Node1&#45;&gt;Node2</title>
<path fill="none" stroke="midnightblue" d="M899.465,-347.431C897.152,-313.754 888.654,-189.994 885.365,-142.102"/>
<polygon fill="midnightblue" stroke="midnightblue" points="888.841,-141.632 884.664,-131.896 881.858,-142.112 888.841,-141.632"/>
</g>
<!-- Node3 -->
<g id="node3" class="node"><title>Node3</title>
<g id="a_node3"><a xlink:href="string__functions_8hpp.html" target="_top" xlink:title="string/string_functions.hpp">
<polygon fill="none" stroke="black" points="138.553,-291.5 138.553,-310.5 269.553,-310.5 269.553,-291.5 138.553,-291.5"/>
<text text-anchor="middle" x="204.053" y="-298.5" font-family="Helvetica,sans-Serif" font-size="10.00">string/string_functions.hpp</text>
</a>
</g>
</g>
<!-- Node1&#45;&gt;Node3 -->
<g id="edge2" class="edge"><title>Node1&#45;&gt;Node3</title>
<path fill="none" stroke="midnightblue" d="M837.982,-351.184C710.241,-341.273 418.333,-318.625 279.76,-307.874"/>
<polygon fill="midnightblue" stroke="midnightblue" points="279.89,-304.373 269.649,-307.089 279.349,-311.352 279.89,-304.373"/>
</g>
<!-- Node22 -->
<g id="node22" class="node"><title>Node22</title>
<g id="a_node22"><a xlink:href="time_8hpp.html" target="_top" xlink:title="time/time.hpp">
<polygon fill="none" stroke="black" points="1005.05,-235.5 1005.05,-254.5 1081.05,-254.5 1081.05,-235.5 1005.05,-235.5"/>
<text text-anchor="middle" x="1043.05" y="-242.5" font-family="Helvetica,sans-Serif" font-size="10.00">time/time.hpp</text>
</a>
</g>
</g>
<!-- Node1&#45;&gt;Node22 -->
<g id="edge33" class="edge"><title>Node1&#45;&gt;Node22</title>
<path fill="none" stroke="midnightblue" d="M911.274,-347.368C935.604,-328.653 993.457,-284.151 1023.77,-260.832"/>
<polygon fill="midnightblue" stroke="midnightblue" points="1026.09,-263.463 1031.88,-254.591 1021.82,-257.914 1026.09,-263.463"/>
</g>
<!-- Node3&#45;&gt;Node2 -->
<g id="edge6" class="edge"><title>Node3&#45;&gt;Node2</title>
<path fill="none" stroke="midnightblue" d="M268.782,-291.471C365.767,-277.702 553.873,-247.151 708.053,-199 763.281,-181.752 824.661,-152.884 858.37,-136.13"/>
<polygon fill="midnightblue" stroke="midnightblue" points="860.142,-139.157 867.512,-131.546 857.004,-132.9 860.142,-139.157"/>
</g>
<!-- Node4 -->
<g id="node4" class="node"><title>Node4</title>
<polygon fill="none" stroke="#bfbfbf" points="419.053,-0.5 419.053,-19.5 475.053,-19.5 475.053,-0.5 419.053,-0.5"/>
<text text-anchor="middle" x="447.053" y="-7.5" font-family="Helvetica,sans-Serif" font-size="10.00">algorithm</text>
</g>
<!-- Node3&#45;&gt;Node4 -->
<g id="edge3" class="edge"><title>Node3&#45;&gt;Node4</title>
<path fill="none" stroke="midnightblue" d="M140.369,-291.43C94.2654,-283.969 37.1672,-271.718 20.0533,-255 -3.16,-232.323 1.05333,-216.951 1.05333,-184.5 1.05333,-184.5 1.05333,-184.5 1.05333,-121 1.05333,-37.3554 300.501,-16.9318 408.665,-12.283"/>
<polygon fill="midnightblue" stroke="midnightblue" points="408.967,-15.7737 418.816,-11.8693 408.681,-8.77948 408.967,-15.7737"/>
</g>
<!-- Node5 -->
<g id="node5" class="node"><title>Node5</title>
<polygon fill="none" stroke="#bfbfbf" points="29.5533,-235.5 29.5533,-254.5 76.5533,-254.5 76.5533,-235.5 29.5533,-235.5"/>
<text text-anchor="middle" x="53.0533" y="-242.5" font-family="Helvetica,sans-Serif" font-size="10.00">iterator</text>
</g>
<!-- Node3&#45;&gt;Node5 -->
<g id="edge4" class="edge"><title>Node3&#45;&gt;Node5</title>
<path fill="none" stroke="midnightblue" d="M180.127,-291.444C154.835,-282.399 114.751,-268.064 86.3736,-257.916"/>
<polygon fill="midnightblue" stroke="midnightblue" points="87.4624,-254.588 76.8678,-254.516 85.1052,-261.179 87.4624,-254.588"/>
</g>
<!-- Node6 -->
<g id="node6" class="node"><title>Node6</title>
<polygon fill="none" stroke="#bfbfbf" points="203.553,-56.5 203.553,-75.5 244.553,-75.5 244.553,-56.5 203.553,-56.5"/>
<text text-anchor="middle" x="224.053" y="-63.5" font-family="Helvetica,sans-Serif" font-size="10.00">regex</text>
</g>
<!-- Node3&#45;&gt;Node6 -->
<g id="edge5" class="edge"><title>Node3&#45;&gt;Node6</title>
<path fill="none" stroke="midnightblue" d="M198.896,-291.307C186.703,-270.564 156.768,-218.455 152.053,-199 148.313,-183.566 153.025,-115.517 155.053,-112 163.788,-96.8582 179.911,-85.9172 194.376,-78.6173"/>
<polygon fill="midnightblue" stroke="midnightblue" points="195.965,-81.7381 203.548,-74.3385 193.006,-75.3944 195.965,-81.7381"/>
</g>
<!-- Node7 -->
<g id="node7" class="node"><title>Node7</title>
<polygon fill="none" stroke="#bfbfbf" points="376.553,-56.5 376.553,-75.5 417.553,-75.5 417.553,-56.5 376.553,-56.5"/>
<text text-anchor="middle" x="397.053" y="-63.5" font-family="Helvetica,sans-Serif" font-size="10.00">string</text>
</g>
<!-- Node3&#45;&gt;Node7 -->
<g id="edge7" class="edge"><title>Node3&#45;&gt;Node7</title>
<path fill="none" stroke="midnightblue" d="M202.935,-291.132C199.723,-261.479 193.576,-164.683 242.053,-112 274.035,-77.2428 331.101,-68.7473 366.352,-66.9987"/>
<polygon fill="midnightblue" stroke="midnightblue" points="366.665,-70.4901 376.54,-66.651 366.426,-63.4942 366.665,-70.4901"/>
</g>
<!-- Node8 -->
<g id="node8" class="node"><title>Node8</title>
<polygon fill="none" stroke="#bfbfbf" points="95.0533,-235.5 95.0533,-254.5 157.053,-254.5 157.053,-235.5 95.0533,-235.5"/>
<text text-anchor="middle" x="126.053" y="-242.5" font-family="Helvetica,sans-Serif" font-size="10.00">type_traits</text>
</g>
<!-- Node3&#45;&gt;Node8 -->
<g id="edge8" class="edge"><title>Node3&#45;&gt;Node8</title>
<path fill="none" stroke="midnightblue" d="M191.521,-291.324C179.467,-282.979 161.026,-270.212 146.785,-260.352"/>
<polygon fill="midnightblue" stroke="midnightblue" points="148.768,-257.469 138.554,-254.655 144.784,-263.224 148.768,-257.469"/>
</g>
<!-- Node9 -->
<g id="node9" class="node"><title>Node9</title>
<g id="a_node9"><a xlink:href="settings_8hpp.html" target="_top" xlink:title="settings.hpp">
<polygon fill="none" stroke="black" points="255.053,-235.5 255.053,-254.5 325.053,-254.5 325.053,-235.5 255.053,-235.5"/>
<text text-anchor="middle" x="290.053" y="-242.5" font-family="Helvetica,sans-Serif" font-size="10.00">settings.hpp</text>
</a>
</g>
</g>
<!-- Node3&#45;&gt;Node9 -->
<g id="edge9" class="edge"><title>Node3&#45;&gt;Node9</title>
<path fill="none" stroke="midnightblue" d="M217.871,-291.324C231.286,-282.9 251.877,-269.971 267.639,-260.074"/>
<polygon fill="midnightblue" stroke="midnightblue" points="269.663,-262.936 276.27,-254.655 265.94,-257.008 269.663,-262.936"/>
</g>
<!-- Node9&#45;&gt;Node7 -->
<g id="edge10" class="edge"><title>Node9&#45;&gt;Node7</title>
<path fill="none" stroke="midnightblue" d="M254.869,-241.178C227.005,-236.878 189.762,-226.076 171.053,-199 149.073,-167.189 146.526,-141.892 171.053,-112 195.43,-82.291 310.501,-71.8293 366.412,-68.458"/>
<polygon fill="midnightblue" stroke="midnightblue" points="366.658,-71.9498 376.445,-67.8913 366.263,-64.9609 366.658,-71.9498"/>
</g>
<!-- Node10 -->
<g id="node10" class="node"><title>Node10</title>
<polygon fill="none" stroke="#bfbfbf" points="485.053,-56.5 485.053,-75.5 531.053,-75.5 531.053,-56.5 485.053,-56.5"/>
<text text-anchor="middle" x="508.053" y="-63.5" font-family="Helvetica,sans-Serif" font-size="10.00">cstdint</text>
</g>
<!-- Node9&#45;&gt;Node10 -->
<g id="edge11" class="edge"><title>Node9&#45;&gt;Node10</title>
<path fill="none" stroke="midnightblue" d="M281.565,-235.252C260.469,-212.46 209.631,-150.368 242.053,-112 249.547,-103.132 405.067,-80.9975 474.768,-71.4734"/>
<polygon fill="midnightblue" stroke="midnightblue" points="475.355,-74.9258 484.792,-70.1098 474.412,-67.9897 475.355,-74.9258"/>
</g>
<!-- Node11 -->
<g id="node11" class="node"><title>Node11</title>
<polygon fill="none" stroke="#bfbfbf" points="251.553,-112.5 251.553,-131.5 334.553,-131.5 334.553,-112.5 251.553,-112.5"/>
<text text-anchor="middle" x="293.053" y="-119.5" font-family="Helvetica,sans-Serif" font-size="10.00">unordered_map</text>
</g>
<!-- Node9&#45;&gt;Node11 -->
<g id="edge12" class="edge"><title>Node9&#45;&gt;Node11</title>
<path fill="none" stroke="midnightblue" d="M290.269,-235.298C290.751,-215.85 291.925,-168.49 292.585,-141.904"/>
<polygon fill="midnightblue" stroke="midnightblue" points="296.091,-141.707 292.84,-131.623 289.093,-141.533 296.091,-141.707"/>
</g>
<!-- Node12 -->
<g id="node12" class="node"><title>Node12</title>
<polygon fill="none" stroke="#bfbfbf" points="318.553,-168.5 318.553,-198.5 419.553,-198.5 419.553,-168.5 318.553,-168.5"/>
<text text-anchor="start" x="326.553" y="-186.5" font-family="Helvetica,sans-Serif" font-size="10.00">boost/property_tree</text>
<text text-anchor="middle" x="369.053" y="-175.5" font-family="Helvetica,sans-Serif" font-size="10.00">/ptree.hpp</text>
</g>
<!-- Node9&#45;&gt;Node12 -->
<g id="edge13" class="edge"><title>Node9&#45;&gt;Node12</title>
<path fill="none" stroke="midnightblue" d="M301.372,-235.475C311.972,-227.492 328.22,-215.254 342.14,-204.77"/>
<polygon fill="midnightblue" stroke="midnightblue" points="344.552,-207.335 350.435,-198.523 340.341,-201.743 344.552,-207.335"/>
</g>
<!-- Node13 -->
<g id="node13" class="node"><title>Node13</title>
<g id="a_node13"><a xlink:href="c_09_09-compat_8hpp.html" target="_top" xlink:title="This file defined some compatibility for features of C++14 and beyond. ">
<polygon fill="none" stroke="black" points="758.053,-56.5 758.053,-75.5 846.053,-75.5 846.053,-56.5 758.053,-56.5"/>
<text text-anchor="middle" x="802.053" y="-63.5" font-family="Helvetica,sans-Serif" font-size="10.00">c++&#45;compat.hpp</text>
</a>
</g>
</g>
<!-- Node9&#45;&gt;Node13 -->
<g id="edge14" class="edge"><title>Node9&#45;&gt;Node13</title>
<path fill="none" stroke="midnightblue" d="M325.458,-241.297C385.471,-236.225 510.724,-223.512 614.053,-199 704.037,-177.654 757.207,-207.188 811.053,-132 820.673,-118.567 816.505,-99.4923 811.083,-85.4796"/>
<polygon fill="midnightblue" stroke="midnightblue" points="814.118,-83.6845 806.901,-75.9281 807.706,-86.4923 814.118,-83.6845"/>
</g>
<!-- Node14 -->
<g id="node14" class="node"><title>Node14</title>
<g id="a_node14"><a xlink:href="string_8hpp.html" target="_top" xlink:title="string/string.hpp">
<polygon fill="none" stroke="black" points="519.053,-174 519.053,-193 605.053,-193 605.053,-174 519.053,-174"/>
<text text-anchor="middle" x="562.053" y="-181" font-family="Helvetica,sans-Serif" font-size="10.00">string/string.hpp</text>
</a>
</g>
</g>
<!-- Node9&#45;&gt;Node14 -->
<g id="edge15" class="edge"><title>Node9&#45;&gt;Node14</title>
<path fill="none" stroke="midnightblue" d="M325.056,-236.343C372.773,-225.905 458.492,-207.154 512.713,-195.293"/>
<polygon fill="midnightblue" stroke="midnightblue" points="513.765,-198.646 522.786,-193.09 512.269,-191.808 513.765,-198.646"/>
</g>
<!-- Node14&#45;&gt;Node2 -->
<g id="edge21" class="edge"><title>Node14&#45;&gt;Node2</title>
<path fill="none" stroke="midnightblue" d="M605.146,-174.537C669.165,-162.708 788.242,-140.704 847.953,-129.671"/>
<polygon fill="midnightblue" stroke="midnightblue" points="848.844,-133.065 858.041,-127.807 847.572,-126.182 848.844,-133.065"/>
</g>
<!-- Node14&#45;&gt;Node7 -->
<g id="edge20" class="edge"><title>Node14&#45;&gt;Node7</title>
<path fill="none" stroke="midnightblue" d="M549.652,-173.819C521.582,-154.17 452.923,-106.109 418.077,-81.7169"/>
<polygon fill="midnightblue" stroke="midnightblue" points="419.799,-78.6494 409.599,-75.782 415.784,-84.384 419.799,-78.6494"/>
</g>
<!-- Node14&#45;&gt;Node10 -->
<g id="edge16" class="edge"><title>Node14&#45;&gt;Node10</title>
<path fill="none" stroke="midnightblue" d="M554.661,-173.739C546.832,-164.073 534.587,-147.789 527.053,-132 519.933,-117.079 514.902,-98.9366 511.814,-85.6149"/>
<polygon fill="midnightblue" stroke="midnightblue" points="515.211,-84.7669 509.673,-75.7348 508.37,-86.2492 515.211,-84.7669"/>
</g>
<!-- Node14&#45;&gt;Node11 -->
<g id="edge22" class="edge"><title>Node14&#45;&gt;Node11</title>
<path fill="none" stroke="midnightblue" d="M523.512,-173.975C475.571,-163.371 393.692,-145.26 341.538,-133.724"/>
<polygon fill="midnightblue" stroke="midnightblue" points="342.043,-130.251 331.523,-131.509 340.531,-137.086 342.043,-130.251"/>
</g>
<!-- Node15 -->
<g id="node15" class="node"><title>Node15</title>
<polygon fill="none" stroke="#bfbfbf" points="966.553,-112.5 966.553,-131.5 1025.55,-131.5 1025.55,-112.5 966.553,-112.5"/>
<text text-anchor="middle" x="996.053" y="-119.5" font-family="Helvetica,sans-Serif" font-size="10.00">functional</text>
</g>
<!-- Node14&#45;&gt;Node15 -->
<g id="edge17" class="edge"><title>Node14&#45;&gt;Node15</title>
<path fill="none" stroke="midnightblue" d="M605.254,-176.577C689.485,-165.03 874.541,-139.659 956.103,-128.477"/>
<polygon fill="midnightblue" stroke="midnightblue" points="957.012,-131.885 966.444,-127.059 956.061,-124.95 957.012,-131.885"/>
</g>
<!-- Node16 -->
<g id="node16" class="node"><title>Node16</title>
<polygon fill="none" stroke="#bfbfbf" points="536.053,-112.5 536.053,-131.5 588.053,-131.5 588.053,-112.5 536.053,-112.5"/>
<text text-anchor="middle" x="562.053" y="-119.5" font-family="Helvetica,sans-Serif" font-size="10.00">memory</text>
</g>
<!-- Node14&#45;&gt;Node16 -->
<g id="edge18" class="edge"><title>Node14&#45;&gt;Node16</title>
<path fill="none" stroke="midnightblue" d="M562.053,-173.975C562.053,-165.58 562.053,-152.481 562.053,-141.663"/>
<polygon fill="midnightblue" stroke="midnightblue" points="565.553,-141.509 562.053,-131.509 558.553,-141.509 565.553,-141.509"/>
</g>
<!-- Node17 -->
<g id="node17" class="node"><title>Node17</title>
<polygon fill="none" stroke="#bfbfbf" points="606.553,-112.5 606.553,-131.5 665.553,-131.5 665.553,-112.5 606.553,-112.5"/>
<text text-anchor="middle" x="636.053" y="-119.5" font-family="Helvetica,sans-Serif" font-size="10.00">stdexcept</text>
</g>
<!-- Node14&#45;&gt;Node17 -->
<g id="edge19" class="edge"><title>Node14&#45;&gt;Node17</title>
<path fill="none" stroke="midnightblue" d="M572.656,-173.975C584.305,-164.608 603.24,-149.384 617.388,-138.008"/>
<polygon fill="midnightblue" stroke="midnightblue" points="619.871,-140.503 625.471,-131.509 615.484,-135.048 619.871,-140.503"/>
</g>
<!-- Node18 -->
<g id="node18" class="node"><title>Node18</title>
<polygon fill="none" stroke="#bfbfbf" points="684.053,-112.5 684.053,-131.5 728.053,-131.5 728.053,-112.5 684.053,-112.5"/>
<text text-anchor="middle" x="706.053" y="-119.5" font-family="Helvetica,sans-Serif" font-size="10.00">vector</text>
</g>
<!-- Node14&#45;&gt;Node18 -->
<g id="edge23" class="edge"><title>Node14&#45;&gt;Node18</title>
<path fill="none" stroke="midnightblue" d="M582.685,-173.975C607.172,-163.857 648.2,-146.905 676.163,-135.351"/>
<polygon fill="midnightblue" stroke="midnightblue" points="677.554,-138.563 685.46,-131.509 674.881,-132.093 677.554,-138.563"/>
</g>
<!-- Node19 -->
<g id="node19" class="node"><title>Node19</title>
<g id="a_node19"><a xlink:href="color_8hpp.html" target="_top" xlink:title="color.hpp">
<polygon fill="none" stroke="black" points="746.053,-112.5 746.053,-131.5 802.053,-131.5 802.053,-112.5 746.053,-112.5"/>
<text text-anchor="middle" x="774.053" y="-119.5" font-family="Helvetica,sans-Serif" font-size="10.00">color.hpp</text>
</a>
</g>
</g>
<!-- Node14&#45;&gt;Node19 -->
<g id="edge24" class="edge"><title>Node14&#45;&gt;Node19</title>
<path fill="none" stroke="midnightblue" d="M592.428,-173.975C630.294,-163.348 695.025,-145.18 736.115,-133.648"/>
<polygon fill="midnightblue" stroke="midnightblue" points="737.086,-137.011 745.768,-130.939 735.194,-130.271 737.086,-137.011"/>
</g>
<!-- Node21 -->
<g id="node21" class="node"><title>Node21</title>
<g id="a_node21"><a xlink:href="quickstream_8hpp.html" target="_top" xlink:title="quickstream.hpp">
<polygon fill="none" stroke="black" points="352.553,-112.5 352.553,-131.5 441.553,-131.5 441.553,-112.5 352.553,-112.5"/>
<text text-anchor="middle" x="397.053" y="-119.5" font-family="Helvetica,sans-Serif" font-size="10.00">quickstream.hpp</text>
</a>
</g>
</g>
<!-- Node14&#45;&gt;Node21 -->
<g id="edge30" class="edge"><title>Node14&#45;&gt;Node21</title>
<path fill="none" stroke="midnightblue" d="M538.413,-173.975C510.11,-163.769 462.521,-146.608 430.467,-135.049"/>
<polygon fill="midnightblue" stroke="midnightblue" points="431.244,-131.609 420.65,-131.509 428.87,-138.194 431.244,-131.609"/>
</g>
<!-- Node19&#45;&gt;Node7 -->
<g id="edge26" class="edge"><title>Node19&#45;&gt;Node7</title>
<path fill="none" stroke="midnightblue" d="M745.839,-113.808C742.882,-113.153 739.912,-112.535 737.053,-112 677.906,-100.925 500.207,-79.2863 428.032,-70.6688"/>
<polygon fill="midnightblue" stroke="midnightblue" points="428.125,-67.1552 417.782,-69.4478 427.297,-74.1061 428.125,-67.1552"/>
</g>
<!-- Node19&#45;&gt;Node10 -->
<g id="edge25" class="edge"><title>Node19&#45;&gt;Node10</title>
<path fill="none" stroke="midnightblue" d="M745.802,-113.991C742.852,-113.3 739.894,-112.624 737.053,-112 667.628,-96.7431 585.811,-81.2639 541.191,-73.0321"/>
<polygon fill="midnightblue" stroke="midnightblue" points="541.67,-69.5616 531.202,-71.1959 540.404,-76.4462 541.67,-69.5616"/>
</g>
<!-- Node19&#45;&gt;Node13 -->
<g id="edge29" class="edge"><title>Node19&#45;&gt;Node13</title>
<path fill="none" stroke="midnightblue" d="M778.677,-112.083C782.51,-104.691 788.078,-93.9533 792.818,-84.8111"/>
<polygon fill="midnightblue" stroke="midnightblue" points="796.02,-86.2398 797.516,-75.7511 789.805,-83.0175 796.02,-86.2398"/>
</g>
<!-- Node20 -->
<g id="node20" class="node"><title>Node20</title>
<g id="a_node20"><a xlink:href="math_8hpp.html" target="_top" xlink:title="math.hpp">
<polygon fill="none" stroke="black" points="864.553,-56.5 864.553,-75.5 921.553,-75.5 921.553,-56.5 864.553,-56.5"/>
<text text-anchor="middle" x="893.053" y="-63.5" font-family="Helvetica,sans-Serif" font-size="10.00">math.hpp</text>
</a>
</g>
</g>
<!-- Node19&#45;&gt;Node20 -->
<g id="edge27" class="edge"><title>Node19&#45;&gt;Node20</title>
<path fill="none" stroke="midnightblue" d="M792.909,-112.444C812.319,-103.636 842.783,-89.8116 865.018,-79.722"/>
<polygon fill="midnightblue" stroke="midnightblue" points="866.626,-82.836 874.286,-75.5164 863.733,-76.4615 866.626,-82.836"/>
</g>
<!-- Node20&#45;&gt;Node4 -->
<g id="edge28" class="edge"><title>Node20&#45;&gt;Node4</title>
<path fill="none" stroke="midnightblue" d="M864.497,-57.8399C861.322,-57.1623 858.126,-56.5313 855.053,-56 720.191,-32.6828 558.049,-19.0244 485.462,-13.6559"/>
<polygon fill="midnightblue" stroke="midnightblue" points="485.644,-10.16 475.416,-12.9238 485.135,-17.1415 485.644,-10.16"/>
</g>
<!-- Node21&#45;&gt;Node6 -->
<g id="edge32" class="edge"><title>Node21&#45;&gt;Node6</title>
<path fill="none" stroke="midnightblue" d="M369.641,-112.444C338.261,-102.649 287.009,-86.6509 254.436,-76.4836"/>
<polygon fill="midnightblue" stroke="midnightblue" points="255.154,-73.0413 244.565,-73.4026 253.068,-79.7233 255.154,-73.0413"/>
</g>
<!-- Node21&#45;&gt;Node7 -->
<g id="edge31" class="edge"><title>Node21&#45;&gt;Node7</title>
<path fill="none" stroke="midnightblue" d="M397.053,-112.083C397.053,-105.006 397.053,-94.8611 397.053,-85.9865"/>
<polygon fill="midnightblue" stroke="midnightblue" points="400.553,-85.751 397.053,-75.7511 393.553,-85.7511 400.553,-85.751"/>
</g>
<!-- Node22&#45;&gt;Node13 -->
<g id="edge44" class="edge"><title>Node22&#45;&gt;Node13</title>
<path fill="none" stroke="midnightblue" d="M1030.54,-235.495C1018.49,-226.991 1000.05,-213.171 986.053,-199 951.752,-164.283 958.174,-141.179 919.053,-112 898.235,-96.4717 871.4,-85.6419 848.683,-78.5045"/>
<polygon fill="midnightblue" stroke="midnightblue" points="849.485,-75.0911 838.901,-75.5752 847.477,-81.7969 849.485,-75.0911"/>
</g>
<!-- Node22&#45;&gt;Node15 -->
<g id="edge35" class="edge"><title>Node22&#45;&gt;Node15</title>
<path fill="none" stroke="midnightblue" d="M1028.97,-235.259C1017.7,-227.355 1002.71,-214.584 996.053,-199 988.298,-180.838 989.611,-157.935 992.04,-142.042"/>
<polygon fill="midnightblue" stroke="midnightblue" points="995.543,-142.342 993.892,-131.877 988.656,-141.088 995.543,-142.342"/>
</g>
<!-- Node22&#45;&gt;Node20 -->
<g id="edge45" class="edge"><title>Node22&#45;&gt;Node20</title>
<path fill="none" stroke="midnightblue" d="M1081.08,-239.626C1106.67,-234.485 1138.62,-223.306 1155.05,-199 1162.77,-187.585 1160.65,-180.591 1155.05,-168 1118.02,-84.6542 995.19,-69.1857 931.74,-66.8974"/>
<polygon fill="midnightblue" stroke="midnightblue" points="931.811,-63.3981 921.721,-66.6283 931.623,-70.3956 931.811,-63.3981"/>
</g>
<!-- Node23 -->
<g id="node23" class="node"><title>Node23</title>
<polygon fill="none" stroke="#bfbfbf" points="1100.05,-174 1100.05,-193 1146.05,-193 1146.05,-174 1100.05,-174"/>
<text text-anchor="middle" x="1123.05" y="-181" font-family="Helvetica,sans-Serif" font-size="10.00">chrono</text>
</g>
<!-- Node22&#45;&gt;Node23 -->
<g id="edge34" class="edge"><title>Node22&#45;&gt;Node23</title>
<path fill="none" stroke="midnightblue" d="M1054.52,-235.475C1067.23,-226.02 1087.97,-210.596 1103.31,-199.187"/>
<polygon fill="midnightblue" stroke="midnightblue" points="1105.68,-201.785 1111.61,-193.009 1101.5,-196.169 1105.68,-201.785"/>
</g>
<!-- Node24 -->
<g id="node24" class="node"><title>Node24</title>
<g id="a_node24"><a xlink:href="functional_8hpp.html" target="_top" xlink:title="functional.hpp">
<polygon fill="none" stroke="black" points="1004.55,-174 1004.55,-193 1081.55,-193 1081.55,-174 1004.55,-174"/>
<text text-anchor="middle" x="1043.05" y="-181" font-family="Helvetica,sans-Serif" font-size="10.00">functional.hpp</text>
</a>
</g>
</g>
<!-- Node22&#45;&gt;Node24 -->
<g id="edge36" class="edge"><title>Node22&#45;&gt;Node24</title>
<path fill="none" stroke="midnightblue" d="M1043.05,-235.475C1043.05,-227.08 1043.05,-213.981 1043.05,-203.163"/>
<polygon fill="midnightblue" stroke="midnightblue" points="1046.55,-203.009 1043.05,-193.009 1039.55,-203.009 1046.55,-203.009"/>
</g>
<!-- Node26 -->
<g id="node26" class="node"><title>Node26</title>
<g id="a_node26"><a xlink:href="concurrency_8hpp.html" target="_top" xlink:title="concurrency.hpp">
<polygon fill="none" stroke="black" points="1293.55,-174 1293.55,-193 1382.55,-193 1382.55,-174 1293.55,-174"/>
<text text-anchor="middle" x="1338.05" y="-181" font-family="Helvetica,sans-Serif" font-size="10.00">concurrency.hpp</text>
</a>
</g>
</g>
<!-- Node22&#45;&gt;Node26 -->
<g id="edge39" class="edge"><title>Node22&#45;&gt;Node26</title>
<path fill="none" stroke="midnightblue" d="M1081.32,-236.282C1133.49,-225.76 1227.14,-206.872 1285.76,-195.048"/>
<polygon fill="midnightblue" stroke="midnightblue" points="1286.45,-198.478 1295.56,-193.07 1285.07,-191.616 1286.45,-198.478"/>
</g>
<!-- Node24&#45;&gt;Node15 -->
<g id="edge37" class="edge"><title>Node24&#45;&gt;Node15</title>
<path fill="none" stroke="midnightblue" d="M1036.32,-173.975C1029.27,-165.05 1018.02,-150.807 1009.2,-139.643"/>
<polygon fill="midnightblue" stroke="midnightblue" points="1011.72,-137.187 1002.77,-131.509 1006.23,-141.526 1011.72,-137.187"/>
</g>
<!-- Node25 -->
<g id="node25" class="node"><title>Node25</title>
<polygon fill="none" stroke="#bfbfbf" points="1044.05,-112.5 1044.05,-131.5 1084.05,-131.5 1084.05,-112.5 1044.05,-112.5"/>
<text text-anchor="middle" x="1064.05" y="-119.5" font-family="Helvetica,sans-Serif" font-size="10.00">utility</text>
</g>
<!-- Node24&#45;&gt;Node25 -->
<g id="edge38" class="edge"><title>Node24&#45;&gt;Node25</title>
<path fill="none" stroke="midnightblue" d="M1046.06,-173.975C1049.09,-165.404 1053.84,-151.927 1057.71,-140.983"/>
<polygon fill="midnightblue" stroke="midnightblue" points="1061.02,-142.104 1061.05,-131.509 1054.42,-139.774 1061.02,-142.104"/>
</g>
<!-- Node27 -->
<g id="node27" class="node"><title>Node27</title>
<polygon fill="none" stroke="#bfbfbf" points="1440.05,-112.5 1440.05,-131.5 1486.05,-131.5 1486.05,-112.5 1440.05,-112.5"/>
<text text-anchor="middle" x="1463.05" y="-119.5" font-family="Helvetica,sans-Serif" font-size="10.00">atomic</text>
</g>
<!-- Node26&#45;&gt;Node27 -->
<g id="edge40" class="edge"><title>Node26&#45;&gt;Node27</title>
<path fill="none" stroke="midnightblue" d="M1355.96,-173.975C1376.94,-163.99 1411.9,-147.348 1436.15,-135.807"/>
<polygon fill="midnightblue" stroke="midnightblue" points="1437.65,-138.967 1445.18,-131.509 1434.64,-132.647 1437.65,-138.967"/>
</g>
<!-- Node28 -->
<g id="node28" class="node"><title>Node28</title>
<polygon fill="none" stroke="#bfbfbf" points="1202.55,-112.5 1202.55,-131.5 1297.55,-131.5 1297.55,-112.5 1202.55,-112.5"/>
<text text-anchor="middle" x="1250.05" y="-119.5" font-family="Helvetica,sans-Serif" font-size="10.00">condition_variable</text>
</g>
<!-- Node26&#45;&gt;Node28 -->
<g id="edge41" class="edge"><title>Node26&#45;&gt;Node28</title>
<path fill="none" stroke="midnightblue" d="M1325.45,-173.975C1311.33,-164.431 1288.22,-148.807 1271.3,-137.368"/>
<polygon fill="midnightblue" stroke="midnightblue" points="1272.88,-134.211 1262.64,-131.509 1268.96,-140.01 1272.88,-134.211"/>
</g>
<!-- Node29 -->
<g id="node29" class="node"><title>Node29</title>
<polygon fill="none" stroke="#bfbfbf" points="1316.05,-112.5 1316.05,-131.5 1360.05,-131.5 1360.05,-112.5 1316.05,-112.5"/>
<text text-anchor="middle" x="1338.05" y="-119.5" font-family="Helvetica,sans-Serif" font-size="10.00">thread</text>
</g>
<!-- Node26&#45;&gt;Node29 -->
<g id="edge42" class="edge"><title>Node26&#45;&gt;Node29</title>
<path fill="none" stroke="midnightblue" d="M1338.05,-173.975C1338.05,-165.58 1338.05,-152.481 1338.05,-141.663"/>
<polygon fill="midnightblue" stroke="midnightblue" points="1341.55,-141.509 1338.05,-131.509 1334.55,-141.509 1341.55,-141.509"/>
</g>
<!-- Node30 -->
<g id="node30" class="node"><title>Node30</title>
<polygon fill="none" stroke="#bfbfbf" points="1378.05,-112.5 1378.05,-131.5 1422.05,-131.5 1422.05,-112.5 1378.05,-112.5"/>
<text text-anchor="middle" x="1400.05" y="-119.5" font-family="Helvetica,sans-Serif" font-size="10.00">mutex</text>
</g>
<!-- Node26&#45;&gt;Node30 -->
<g id="edge43" class="edge"><title>Node26&#45;&gt;Node30</title>
<path fill="none" stroke="midnightblue" d="M1346.94,-173.975C1356.51,-164.785 1371.96,-149.956 1383.74,-138.656"/>
<polygon fill="midnightblue" stroke="midnightblue" points="1386.4,-140.958 1391.19,-131.509 1381.55,-135.908 1386.4,-140.958"/>
</g>
</g>
</svg>
