<?xml version="1.0" encoding="UTF-8" standalone="no"?>
<!DOCTYPE svg PUBLIC "-//W3C//DTD SVG 1.1//EN"
 "http://www.w3.org/Graphics/SVG/1.1/DTD/svg11.dtd">
<!-- Generated by graphviz version 2.38.0 (20140413.2041)
 -->
<!-- Title: modules/fun/rainbow.cpp Pages: 1 -->
<!--zoomable 308 -->
<svg id="main" version="1.1" xmlns="http://www.w3.org/2000/svg" xmlns:xlink="http://www.w3.org/1999/xlink" xml:space="preserve" onload="init(evt)">
<style type="text/css"><![CDATA[
.edge:hover path { stroke: red; }
.edge:hover polygon { stroke: red; fill: red; }
]]></style>
<script type="text/javascript"><![CDATA[
var edges = document.getElementsByTagName('g');
if (edges && edges.length) {
  for (var i=0;i<edges.length;i++) {
    if (edges[i].id.substr(0,4)=='edge') {
      edges[i].setAttribute('class','edge');
    }
  }
}
]]></script>
        <defs>
                <circle id="rim" cx="0" cy="0" r="7"/>
                <circle id="rim2" cx="0" cy="0" r="3.5"/>
                <g id="zoomPlus">
                        <use xlink:href="#rim" fill="#404040">
                                <set attributeName="fill" to="#808080" begin="zoomplus.mouseover" end="zoomplus.mouseout"/>
                        </use>
                        <path d="M-4,0h8M0,-4v8" fill="none" stroke="white" stroke-width="1.5" pointer-events="none"/>
                </g>
                <g id="zoomMin">
                        <use xlink:href="#rim" fill="#404040">
                                <set attributeName="fill" to="#808080" begin="zoomminus.mouseover" end="zoomminus.mouseout"/>
                        </use>
                        <path d="M-4,0h8" fill="none" stroke="white" stroke-width="1.5" pointer-events="none"/>
                </g>
                <g id="dirArrow">
                        <path fill="none" stroke="white" stroke-width="1.5" d="M0,-3.0v7 M-2.5,-0.5L0,-3.0L2.5,-0.5"/>
                </g>
               <g id="resetDef">
                       <use xlink:href="#rim2" fill="#404040">
                               <set attributeName="fill" to="#808080" begin="reset.mouseover" end="reset.mouseout"/>
                       </use>
               </g>
        </defs>

<script type="text/javascript">
var viewWidth = 684;
var viewHeight = 308;
var sectionId = 'dynsection-0';
</script>
<script xlink:href="svgpan.js"/>
<svg id="graph" class="graph">
<g id="viewport">
<title>modules/fun/rainbow.cpp</title>
<!-- Node1 -->
<g id="node1" class="node"><title>Node1</title>
<polygon fill="#bfbfbf" stroke="black" points="241.541,-280.5 241.541,-299.5 366.541,-299.5 366.541,-280.5 241.541,-280.5"/>
<text text-anchor="middle" x="304.041" y="-287.5" font-family="Helvetica,sans-Serif" font-size="10.00">modules/fun/rainbow.cpp</text>
</g>
<!-- Node2 -->
<g id="node2" class="node"><title>Node2</title>
<g id="a_node2"><a xlink:href="rainbow_8hpp.html" target="_top" xlink:title="rainbow.hpp">
<polygon fill="none" stroke="black" points="269.541,-224.5 269.541,-243.5 338.541,-243.5 338.541,-224.5 269.541,-224.5"/>
<text text-anchor="middle" x="304.041" y="-231.5" font-family="Helvetica,sans-Serif" font-size="10.00">rainbow.hpp</text>
</a>
</g>
</g>
<!-- Node1&#45;&gt;Node2 -->
<g id="edge1" class="edge"><title>Node1&#45;&gt;Node2</title>
<path fill="none" stroke="midnightblue" d="M304.041,-280.083C304.041,-273.006 304.041,-262.861 304.041,-253.986"/>
<polygon fill="midnightblue" stroke="midnightblue" points="307.541,-253.751 304.041,-243.751 300.541,-253.751 307.541,-253.751"/>
</g>
<!-- Node3 -->
<g id="node3" class="node"><title>Node3</title>
<g id="a_node3"><a xlink:href="string_8hpp.html" target="_top" xlink:title="string/string.hpp">
<polygon fill="none" stroke="black" points="261.041,-168.5 261.041,-187.5 347.041,-187.5 347.041,-168.5 261.041,-168.5"/>
<text text-anchor="middle" x="304.041" y="-175.5" font-family="Helvetica,sans-Serif" font-size="10.00">string/string.hpp</text>
</a>
</g>
</g>
<!-- Node2&#45;&gt;Node3 -->
<g id="edge2" class="edge"><title>Node2&#45;&gt;Node3</title>
<path fill="none" stroke="midnightblue" d="M304.041,-224.083C304.041,-217.006 304.041,-206.861 304.041,-197.986"/>
<polygon fill="midnightblue" stroke="midnightblue" points="307.541,-197.751 304.041,-187.751 300.541,-197.751 307.541,-197.751"/>
</g>
<!-- Node4 -->
<g id="node4" class="node"><title>Node4</title>
<polygon fill="none" stroke="#bfbfbf" points="16.0409,-56.5 16.0409,-75.5 62.0409,-75.5 62.0409,-56.5 16.0409,-56.5"/>
<text text-anchor="middle" x="39.0409" y="-63.5" font-family="Helvetica,sans-Serif" font-size="10.00">cstdint</text>
</g>
<!-- Node3&#45;&gt;Node4 -->
<g id="edge3" class="edge"><title>Node3&#45;&gt;Node4</title>
<path fill="none" stroke="midnightblue" d="M260.859,-177.102C186.126,-176.259 37.5316,-169.746 5.04094,-132 -7.71724,-117.178 7.06468,-96.7495 20.9374,-82.7739"/>
<polygon fill="midnightblue" stroke="midnightblue" points="23.5058,-85.1624 28.3702,-75.7502 18.698,-80.0746 23.5058,-85.1624"/>
</g>
<!-- Node5 -->
<g id="node5" class="node"><title>Node5</title>
<polygon fill="none" stroke="#bfbfbf" points="14.5409,-112.5 14.5409,-131.5 73.5409,-131.5 73.5409,-112.5 14.5409,-112.5"/>
<text text-anchor="middle" x="44.0409" y="-119.5" font-family="Helvetica,sans-Serif" font-size="10.00">functional</text>
</g>
<!-- Node3&#45;&gt;Node5 -->
<g id="edge4" class="edge"><title>Node3&#45;&gt;Node5</title>
<path fill="none" stroke="midnightblue" d="M260.777,-168.535C218.264,-160.14 151.292,-146.711 83.7934,-132.12"/>
<polygon fill="midnightblue" stroke="midnightblue" points="84.3483,-128.659 73.8336,-129.959 82.8642,-135.5 84.3483,-128.659"/>
</g>
<!-- Node6 -->
<g id="node6" class="node"><title>Node6</title>
<polygon fill="none" stroke="#bfbfbf" points="92.0409,-112.5 92.0409,-131.5 144.041,-131.5 144.041,-112.5 92.0409,-112.5"/>
<text text-anchor="middle" x="118.041" y="-119.5" font-family="Helvetica,sans-Serif" font-size="10.00">memory</text>
</g>
<!-- Node3&#45;&gt;Node6 -->
<g id="edge5" class="edge"><title>Node3&#45;&gt;Node6</title>
<path fill="none" stroke="midnightblue" d="M274.569,-168.444C241.844,-158.943 189.018,-143.606 153.915,-133.415"/>
<polygon fill="midnightblue" stroke="midnightblue" points="154.653,-129.985 144.074,-130.558 152.702,-136.707 154.653,-129.985"/>
</g>
<!-- Node7 -->
<g id="node7" class="node"><title>Node7</title>
<polygon fill="none" stroke="#bfbfbf" points="162.541,-112.5 162.541,-131.5 221.541,-131.5 221.541,-112.5 162.541,-112.5"/>
<text text-anchor="middle" x="192.041" y="-119.5" font-family="Helvetica,sans-Serif" font-size="10.00">stdexcept</text>
</g>
<!-- Node3&#45;&gt;Node7 -->
<g id="edge6" class="edge"><title>Node3&#45;&gt;Node7</title>
<path fill="none" stroke="midnightblue" d="M286.046,-168.324C268.003,-159.625 239.994,-146.12 219.238,-136.113"/>
<polygon fill="midnightblue" stroke="midnightblue" points="220.519,-132.845 209.991,-131.655 217.479,-139.15 220.519,-132.845"/>
</g>
<!-- Node8 -->
<g id="node8" class="node"><title>Node8</title>
<polygon fill="none" stroke="#bfbfbf" points="537.541,-56.5 537.541,-75.5 578.541,-75.5 578.541,-56.5 537.541,-56.5"/>
<text text-anchor="middle" x="558.041" y="-63.5" font-family="Helvetica,sans-Serif" font-size="10.00">string</text>
</g>
<!-- Node3&#45;&gt;Node8 -->
<g id="edge7" class="edge"><title>Node3&#45;&gt;Node8</title>
<path fill="none" stroke="midnightblue" d="M347.064,-174.065C407.018,-169.112 511.454,-157.078 539.041,-132 551.935,-120.278 556.268,-100.341 557.63,-85.6301"/>
<polygon fill="midnightblue" stroke="midnightblue" points="561.126,-85.8012 558.186,-75.6225 554.137,-85.4131 561.126,-85.8012"/>
</g>
<!-- Node9 -->
<g id="node9" class="node"><title>Node9</title>
<polygon fill="none" stroke="#bfbfbf" points="314.041,-112.5 314.041,-131.5 366.041,-131.5 366.041,-112.5 314.041,-112.5"/>
<text text-anchor="middle" x="340.041" y="-119.5" font-family="Helvetica,sans-Serif" font-size="10.00">sstream</text>
</g>
<!-- Node3&#45;&gt;Node9 -->
<g id="edge8" class="edge"><title>Node3&#45;&gt;Node9</title>
<path fill="none" stroke="midnightblue" d="M309.986,-168.083C315.018,-160.534 322.378,-149.495 328.554,-140.23"/>
<polygon fill="midnightblue" stroke="midnightblue" points="331.572,-142.013 334.207,-131.751 325.748,-138.13 331.572,-142.013"/>
</g>
<!-- Node10 -->
<g id="node10" class="node"><title>Node10</title>
<polygon fill="none" stroke="#bfbfbf" points="384.541,-112.5 384.541,-131.5 467.541,-131.5 467.541,-112.5 384.541,-112.5"/>
<text text-anchor="middle" x="426.041" y="-119.5" font-family="Helvetica,sans-Serif" font-size="10.00">unordered_map</text>
</g>
<!-- Node3&#45;&gt;Node10 -->
<g id="edge9" class="edge"><title>Node3&#45;&gt;Node10</title>
<path fill="none" stroke="midnightblue" d="M323.372,-168.444C343.361,-159.596 374.784,-145.687 397.605,-135.586"/>
<polygon fill="midnightblue" stroke="midnightblue" points="399.072,-138.764 406.8,-131.516 396.239,-132.363 399.072,-138.764"/>
</g>
<!-- Node11 -->
<g id="node11" class="node"><title>Node11</title>
<polygon fill="none" stroke="#bfbfbf" points="486.041,-112.5 486.041,-131.5 530.041,-131.5 530.041,-112.5 486.041,-112.5"/>
<text text-anchor="middle" x="508.041" y="-119.5" font-family="Helvetica,sans-Serif" font-size="10.00">vector</text>
</g>
<!-- Node3&#45;&gt;Node11 -->
<g id="edge10" class="edge"><title>Node3&#45;&gt;Node11</title>
<path fill="none" stroke="midnightblue" d="M337.928,-168.485C370.882,-160.138 422.59,-146.867 476.064,-132.217"/>
<polygon fill="midnightblue" stroke="midnightblue" points="476.997,-135.59 485.711,-129.564 475.141,-128.841 476.997,-135.59"/>
</g>
<!-- Node12 -->
<g id="node12" class="node"><title>Node12</title>
<g id="a_node12"><a xlink:href="color_8hpp.html" target="_top" xlink:title="color.hpp">
<polygon fill="none" stroke="black" points="240.041,-112.5 240.041,-131.5 296.041,-131.5 296.041,-112.5 240.041,-112.5"/>
<text text-anchor="middle" x="268.041" y="-119.5" font-family="Helvetica,sans-Serif" font-size="10.00">color.hpp</text>
</a>
</g>
</g>
<!-- Node3&#45;&gt;Node12 -->
<g id="edge11" class="edge"><title>Node3&#45;&gt;Node12</title>
<path fill="none" stroke="midnightblue" d="M298.096,-168.083C293.064,-160.534 285.704,-149.495 279.527,-140.23"/>
<polygon fill="midnightblue" stroke="midnightblue" points="282.334,-138.13 273.875,-131.751 276.51,-142.013 282.334,-138.13"/>
</g>
<!-- Node16 -->
<g id="node16" class="node"><title>Node16</title>
<g id="a_node16"><a xlink:href="quickstream_8hpp.html" target="_top" xlink:title="quickstream.hpp">
<polygon fill="none" stroke="black" points="586.541,-112.5 586.541,-131.5 675.541,-131.5 675.541,-112.5 586.541,-112.5"/>
<text text-anchor="middle" x="631.041" y="-119.5" font-family="Helvetica,sans-Serif" font-size="10.00">quickstream.hpp</text>
</a>
</g>
</g>
<!-- Node3&#45;&gt;Node16 -->
<g id="edge17" class="edge"><title>Node3&#45;&gt;Node16</title>
<path fill="none" stroke="midnightblue" d="M347.127,-169.885C406.061,-160.153 511.832,-142.686 576.307,-132.039"/>
<polygon fill="midnightblue" stroke="midnightblue" points="576.991,-135.473 586.287,-130.391 575.85,-128.567 576.991,-135.473"/>
</g>
<!-- Node12&#45;&gt;Node4 -->
<g id="edge12" class="edge"><title>Node12&#45;&gt;Node4</title>
<path fill="none" stroke="midnightblue" d="M239.82,-114.312C236.523,-113.532 233.208,-112.748 230.041,-112 174.733,-98.935 110.403,-83.7892 72.2943,-74.8221"/>
<polygon fill="midnightblue" stroke="midnightblue" points="72.806,-71.347 62.2702,-72.4636 71.2028,-78.1609 72.806,-71.347"/>
</g>
<!-- Node12&#45;&gt;Node8 -->
<g id="edge13" class="edge"><title>Node12&#45;&gt;Node8</title>
<path fill="none" stroke="midnightblue" d="M296.281,-113.938C299.233,-113.258 302.194,-112.599 305.041,-112 384.796,-95.2243 479.56,-79.4755 527.298,-71.8308"/>
<polygon fill="midnightblue" stroke="midnightblue" points="527.971,-75.2679 537.296,-70.2384 526.869,-68.355 527.971,-75.2679"/>
</g>
<!-- Node13 -->
<g id="node13" class="node"><title>Node13</title>
<g id="a_node13"><a xlink:href="math_8hpp.html" target="_top" xlink:title="math.hpp">
<polygon fill="none" stroke="black" points="284.541,-56.5 284.541,-75.5 341.541,-75.5 341.541,-56.5 284.541,-56.5"/>
<text text-anchor="middle" x="313.041" y="-63.5" font-family="Helvetica,sans-Serif" font-size="10.00">math.hpp</text>
</a>
</g>
</g>
<!-- Node12&#45;&gt;Node13 -->
<g id="edge14" class="edge"><title>Node12&#45;&gt;Node13</title>
<path fill="none" stroke="midnightblue" d="M275.472,-112.083C281.894,-104.377 291.346,-93.0333 299.163,-83.6531"/>
<polygon fill="midnightblue" stroke="midnightblue" points="302.035,-85.674 305.748,-75.7511 296.658,-81.1927 302.035,-85.674"/>
</g>
<!-- Node15 -->
<g id="node15" class="node"><title>Node15</title>
<g id="a_node15"><a xlink:href="c_09_09-compat_8hpp.html" target="_top" xlink:title="This file defined some compatibility for features of C++14 and beyond. ">
<polygon fill="none" stroke="black" points="178.041,-56.5 178.041,-75.5 266.041,-75.5 266.041,-56.5 178.041,-56.5"/>
<text text-anchor="middle" x="222.041" y="-63.5" font-family="Helvetica,sans-Serif" font-size="10.00">c++&#45;compat.hpp</text>
</a>
</g>
</g>
<!-- Node12&#45;&gt;Node15 -->
<g id="edge16" class="edge"><title>Node12&#45;&gt;Node15</title>
<path fill="none" stroke="midnightblue" d="M260.445,-112.083C253.813,-104.298 244.02,-92.8015 235.983,-83.3665"/>
<polygon fill="midnightblue" stroke="midnightblue" points="238.645,-81.0939 229.496,-75.7511 233.316,-85.6332 238.645,-81.0939"/>
</g>
<!-- Node14 -->
<g id="node14" class="node"><title>Node14</title>
<polygon fill="none" stroke="#bfbfbf" points="285.041,-0.5 285.041,-19.5 341.041,-19.5 341.041,-0.5 285.041,-0.5"/>
<text text-anchor="middle" x="313.041" y="-7.5" font-family="Helvetica,sans-Serif" font-size="10.00">algorithm</text>
</g>
<!-- Node13&#45;&gt;Node14 -->
<g id="edge15" class="edge"><title>Node13&#45;&gt;Node14</title>
<path fill="none" stroke="midnightblue" d="M313.041,-56.083C313.041,-49.0059 313.041,-38.8611 313.041,-29.9865"/>
<polygon fill="midnightblue" stroke="midnightblue" points="316.541,-29.751 313.041,-19.7511 309.541,-29.7511 316.541,-29.751"/>
</g>
<!-- Node16&#45;&gt;Node8 -->
<g id="edge18" class="edge"><title>Node16&#45;&gt;Node8</title>
<path fill="none" stroke="midnightblue" d="M619.312,-112.324C608.204,-104.107 591.299,-91.6017 578.058,-81.8069"/>
<polygon fill="midnightblue" stroke="midnightblue" points="580.104,-78.9671 569.983,-75.8339 575.941,-84.5948 580.104,-78.9671"/>
</g>
<!-- Node17 -->
<g id="node17" class="node"><title>Node17</title>
<polygon fill="none" stroke="#bfbfbf" points="610.541,-56.5 610.541,-75.5 651.541,-75.5 651.541,-56.5 610.541,-56.5"/>
<text text-anchor="middle" x="631.041" y="-63.5" font-family="Helvetica,sans-Serif" font-size="10.00">regex</text>
</g>
<!-- Node16&#45;&gt;Node17 -->
<g id="edge19" class="edge"><title>Node16&#45;&gt;Node17</title>
<path fill="none" stroke="midnightblue" d="M631.041,-112.083C631.041,-105.006 631.041,-94.8611 631.041,-85.9865"/>
<polygon fill="midnightblue" stroke="midnightblue" points="634.541,-85.751 631.041,-75.7511 627.541,-85.7511 634.541,-85.751"/>
</g>
</g>
</svg>
        <g id="navigator" transform="translate(0 0)" fill="#404254">
                <rect fill="#f2f5e9" fill-opacity="0.5" stroke="#606060" stroke-width=".5" x="0" y="0" width="60" height="60"/>
                <use id="zoomplus" xlink:href="#zoomPlus" x="17" y="9" onmousedown="handleZoom(evt,'in')"/>
                <use id="zoomminus" xlink:href="#zoomMin" x="42" y="9" onmousedown="handleZoom(evt,'out')"/>
                <use id="reset" xlink:href="#resetDef" x="30" y="36" onmousedown="handleReset()"/>
                <g id="arrowUp" xlink:href="#dirArrow" transform="translate(30 24)" onmousedown="handlePan(0,-1)">
                  <use xlink:href="#rim" fill="#404040">
                        <set attributeName="fill" to="#808080" begin="arrowUp.mouseover" end="arrowUp.mouseout"/>
                  </use>
                  <path fill="none" stroke="white" stroke-width="1.5" d="M0,-3.0v7 M-2.5,-0.5L0,-3.0L2.5,-0.5"/>
                </g>
                <g id="arrowRight" xlink:href="#dirArrow" transform="rotate(90) translate(36 -43)" onmousedown="handlePan(1,0)">
                  <use xlink:href="#rim" fill="#404040">
                        <set attributeName="fill" to="#808080" begin="arrowRight.mouseover" end="arrowRight.mouseout"/>
                  </use>
                  <path fill="none" stroke="white" stroke-width="1.5" d="M0,-3.0v7 M-2.5,-0.5L0,-3.0L2.5,-0.5"/>
                </g>
                <g id="arrowDown" xlink:href="#dirArrow" transform="rotate(180) translate(-30 -48)" onmousedown="handlePan(0,1)">
                  <use xlink:href="#rim" fill="#404040">
                        <set attributeName="fill" to="#808080" begin="arrowDown.mouseover" end="arrowDown.mouseout"/>
                  </use>
                  <path fill="none" stroke="white" stroke-width="1.5" d="M0,-3.0v7 M-2.5,-0.5L0,-3.0L2.5,-0.5"/>
                </g>
                <g id="arrowLeft" xlink:href="#dirArrow" transform="rotate(270) translate(-36 17)" onmousedown="handlePan(-1,0)">
                  <use xlink:href="#rim" fill="#404040">
                        <set attributeName="fill" to="#808080" begin="arrowLeft.mouseover" end="arrowLeft.mouseout"/>
                  </use>
                  <path fill="none" stroke="white" stroke-width="1.5" d="M0,-3.0v7 M-2.5,-0.5L0,-3.0L2.5,-0.5"/>
                </g>
        </g>
        <svg viewBox="0 0 15 15" width="100%" height="30px" preserveAspectRatio="xMaxYMin meet">
         <g id="arrow_out" transform="scale(0.3 0.3)">
          <a xlink:href="rainbow_8cpp__incl_org.svg" target="_base">
           <rect id="button" ry="5" rx="5" y="6" x="6" height="38" width="38"
                fill="#f2f5e9" fill-opacity="0.5" stroke="#606060" stroke-width="1.0"/>
           <path id="arrow"
             d="M 11.500037,31.436501 C 11.940474,20.09759 22.043105,11.32322 32.158766,21.979434 L 37.068811,17.246167 C 37.068811,17.246167 37.088388,32 37.088388,32 L 22.160133,31.978069 C 22.160133,31.978069 26.997745,27.140456 26.997745,27.140456 C 18.528582,18.264221 13.291696,25.230495 11.500037,31.436501 z"
             style="fill:#404040;"/>
          </a>
         </g>
        </svg>
</svg>
