<?xml version="1.0" encoding="UTF-8" standalone="no"?>
<!DOCTYPE svg PUBLIC "-//W3C//DTD SVG 1.1//EN"
 "http://www.w3.org/Graphics/SVG/1.1/DTD/svg11.dtd">
<!-- Generated by graphviz version 2.38.0 (20140413.2041)
 -->
<!-- Title: src/settings.hpp Pages: 1 -->
<!--zoomable 476 -->
<svg id="main" version="1.1" xmlns="http://www.w3.org/2000/svg" xmlns:xlink="http://www.w3.org/1999/xlink" xml:space="preserve" onload="init(evt)">
<style type="text/css"><![CDATA[
.edge:hover path { stroke: red; }
.edge:hover polygon { stroke: red; fill: red; }
]]></style>
<script type="text/javascript"><![CDATA[
var edges = document.getElementsByTagName('g');
if (edges && edges.length) {
  for (var i=0;i<edges.length;i++) {
    if (edges[i].id.substr(0,4)=='edge') {
      edges[i].setAttribute('class','edge');
    }
  }
}
]]></script>
        <defs>
                <circle id="rim" cx="0" cy="0" r="7"/>
                <circle id="rim2" cx="0" cy="0" r="3.5"/>
                <g id="zoomPlus">
                        <use xlink:href="#rim" fill="#404040">
                                <set attributeName="fill" to="#808080" begin="zoomplus.mouseover" end="zoomplus.mouseout"/>
                        </use>
                        <path d="M-4,0h8M0,-4v8" fill="none" stroke="white" stroke-width="1.5" pointer-events="none"/>
                </g>
                <g id="zoomMin">
                        <use xlink:href="#rim" fill="#404040">
                                <set attributeName="fill" to="#808080" begin="zoomminus.mouseover" end="zoomminus.mouseout"/>
                        </use>
                        <path d="M-4,0h8" fill="none" stroke="white" stroke-width="1.5" pointer-events="none"/>
                </g>
                <g id="dirArrow">
                        <path fill="none" stroke="white" stroke-width="1.5" d="M0,-3.0v7 M-2.5,-0.5L0,-3.0L2.5,-0.5"/>
                </g>
               <g id="resetDef">
                       <use xlink:href="#rim2" fill="#404040">
                               <set attributeName="fill" to="#808080" begin="reset.mouseover" end="reset.mouseout"/>
                       </use>
               </g>
        </defs>

<script type="text/javascript">
var viewWidth = 1272;
var viewHeight = 476;
var sectionId = 'dynsection-1';
</script>
<script xlink:href="svgpan.js"/>
<svg id="graph" class="graph">
<g id="viewport">
<title>src/settings.hpp</title>
<!-- Node1 -->
<g id="node1" class="node"><title>Node1</title>
<polygon fill="#bfbfbf" stroke="black" points="505,-448.5 505,-467.5 591,-467.5 591,-448.5 505,-448.5"/>
<text text-anchor="middle" x="548" y="-455.5" font-family="Helvetica,sans-Serif" font-size="10.00">src/settings.hpp</text>
</g>
<!-- Node2 -->
<g id="node2" class="node"><title>Node2</title>
<g id="a_node2"><a xlink:href="logger_8hpp.html" target="_top" xlink:title="src/string/logger.hpp">
<polygon fill="none" stroke="black" points="339.5,-280.5 339.5,-299.5 444.5,-299.5 444.5,-280.5 339.5,-280.5"/>
<text text-anchor="middle" x="392" y="-287.5" font-family="Helvetica,sans-Serif" font-size="10.00">src/string/logger.hpp</text>
</a>
</g>
</g>
<!-- Node1&#45;&gt;Node2 -->
<g id="edge1" class="edge"><title>Node1&#45;&gt;Node2</title>
<path fill="none" stroke="midnightblue" d="M532.636,-440.651C500.015,-405.939 424.796,-325.898 400.052,-299.568"/>
<polygon fill="midnightblue" stroke="midnightblue" points="530.214,-443.185 539.613,-448.075 535.315,-438.391 530.214,-443.185"/>
</g>
<!-- Node6 -->
<g id="node6" class="node"><title>Node6</title>
<g id="a_node6"><a xlink:href="melanobot_8hpp.html" target="_top" xlink:title="src/melanobot.hpp">
<polygon fill="none" stroke="black" points="865.5,-168.5 865.5,-187.5 962.5,-187.5 962.5,-168.5 865.5,-168.5"/>
<text text-anchor="middle" x="914" y="-175.5" font-family="Helvetica,sans-Serif" font-size="10.00">src/melanobot.hpp</text>
</a>
</g>
</g>
<!-- Node1&#45;&gt;Node6 -->
<g id="edge47" class="edge"><title>Node1&#45;&gt;Node6</title>
<path fill="none" stroke="midnightblue" d="M601.572,-453.68C711.644,-445.387 953,-418.995 953,-347 953,-347 953,-347 953,-289 953,-249.287 930.139,-205.904 919.423,-187.75"/>
<polygon fill="midnightblue" stroke="midnightblue" points="601.061,-450.208 591.342,-454.427 601.57,-457.189 601.061,-450.208"/>
</g>
<!-- Node8 -->
<g id="node8" class="node"><title>Node8</title>
<g id="a_node8"><a xlink:href="handler_8hpp.html" target="_top" xlink:title="src/handler/handler.hpp">
<polygon fill="none" stroke="black" points="877,-112.5 877,-131.5 995,-131.5 995,-112.5 877,-112.5"/>
<text text-anchor="middle" x="936" y="-119.5" font-family="Helvetica,sans-Serif" font-size="10.00">src/handler/handler.hpp</text>
</a>
</g>
</g>
<!-- Node1&#45;&gt;Node8 -->
<g id="edge48" class="edge"><title>Node1&#45;&gt;Node8</title>
<path fill="none" stroke="midnightblue" d="M601.236,-455.99C726.422,-452.177 1029,-433.966 1029,-347 1029,-347 1029,-347 1029,-233 1029,-185.485 977.772,-147.907 951.357,-131.69"/>
<polygon fill="midnightblue" stroke="midnightblue" points="601.005,-452.495 591.109,-456.279 601.205,-459.493 601.005,-452.495"/>
</g>
<!-- Node18 -->
<g id="node18" class="node"><title>Node18</title>
<g id="a_node18"><a xlink:href="main_8cpp.html" target="_top" xlink:title="src/main.cpp">
<polygon fill="none" stroke="black" points="273.5,-112.5 273.5,-131.5 346.5,-131.5 346.5,-112.5 273.5,-112.5"/>
<text text-anchor="middle" x="310" y="-119.5" font-family="Helvetica,sans-Serif" font-size="10.00">src/main.cpp</text>
</a>
</g>
</g>
<!-- Node1&#45;&gt;Node18 -->
<g id="edge50" class="edge"><title>Node1&#45;&gt;Node18</title>
<path fill="none" stroke="midnightblue" d="M494.7,-449.782C404.153,-436.013 230,-402.336 230,-347 230,-347 230,-347 230,-233 230,-187.662 275,-148.456 297.5,-131.687"/>
<polygon fill="midnightblue" stroke="midnightblue" points="494.375,-453.272 504.782,-451.286 495.408,-446.349 494.375,-453.272"/>
</g>
<!-- Node24 -->
<g id="node24" class="node"><title>Node24</title>
<g id="a_node24"><a xlink:href="settings_8cpp.html" target="_top" xlink:title="src/settings.cpp">
<polygon fill="none" stroke="black" points="116,-168.5 116,-187.5 202,-187.5 202,-168.5 116,-168.5"/>
<text text-anchor="middle" x="159" y="-175.5" font-family="Helvetica,sans-Serif" font-size="10.00">src/settings.cpp</text>
</a>
</g>
</g>
<!-- Node1&#45;&gt;Node24 -->
<g id="edge49" class="edge"><title>Node1&#45;&gt;Node24</title>
<path fill="none" stroke="midnightblue" d="M494.692,-457.49C356.971,-457.331 0,-447.247 0,-347 0,-347 0,-347 0,-289 0,-230.427 73.8768,-200.596 120.916,-187.538"/>
<polygon fill="midnightblue" stroke="midnightblue" points="495.002,-460.99 504.999,-457.484 494.997,-453.99 495.002,-460.99"/>
</g>
<!-- Node25 -->
<g id="node25" class="node"><title>Node25</title>
<g id="a_node25"><a xlink:href="user_8hpp.html" target="_top" xlink:title="src/user/user.hpp">
<polygon fill="none" stroke="black" points="554,-392.5 554,-411.5 646,-411.5 646,-392.5 554,-392.5"/>
<text text-anchor="middle" x="600" y="-399.5" font-family="Helvetica,sans-Serif" font-size="10.00">src/user/user.hpp</text>
</a>
</g>
</g>
<!-- Node1&#45;&gt;Node25 -->
<g id="edge39" class="edge"><title>Node1&#45;&gt;Node25</title>
<path fill="none" stroke="midnightblue" d="M563.679,-440.718C572.845,-431.2 584.053,-419.561 591.573,-411.751"/>
<polygon fill="midnightblue" stroke="midnightblue" points="561.002,-438.452 556.587,-448.083 566.044,-443.308 561.002,-438.452"/>
</g>
<!-- Node3 -->
<g id="node3" class="node"><title>Node3</title>
<g id="a_node3"><a xlink:href="string_8cpp.html" target="_top" xlink:title="src/string/string.cpp">
<polygon fill="none" stroke="black" points="296.5,-224.5 296.5,-243.5 399.5,-243.5 399.5,-224.5 296.5,-224.5"/>
<text text-anchor="middle" x="348" y="-231.5" font-family="Helvetica,sans-Serif" font-size="10.00">src/string/string.cpp</text>
</a>
</g>
</g>
<!-- Node2&#45;&gt;Node3 -->
<g id="edge2" class="edge"><title>Node2&#45;&gt;Node3</title>
<path fill="none" stroke="midnightblue" d="M378.265,-272.144C370.599,-262.736 361.367,-251.405 355.131,-243.751"/>
<polygon fill="midnightblue" stroke="midnightblue" points="375.704,-274.541 384.734,-280.083 381.131,-270.12 375.704,-274.541"/>
</g>
<!-- Node4 -->
<g id="node4" class="node"><title>Node4</title>
<g id="a_node4"><a xlink:href="logger_8cpp.html" target="_top" xlink:title="src/string/logger.cpp">
<polygon fill="none" stroke="black" points="664.5,-224.5 664.5,-243.5 769.5,-243.5 769.5,-224.5 664.5,-224.5"/>
<text text-anchor="middle" x="717" y="-231.5" font-family="Helvetica,sans-Serif" font-size="10.00">src/string/logger.cpp</text>
</a>
</g>
</g>
<!-- Node2&#45;&gt;Node4 -->
<g id="edge3" class="edge"><title>Node2&#45;&gt;Node4</title>
<path fill="none" stroke="midnightblue" d="M453.445,-278.791C514.856,-268.587 608.197,-253.078 665.744,-243.516"/>
<polygon fill="midnightblue" stroke="midnightblue" points="452.788,-275.352 443.497,-280.444 453.936,-282.257 452.788,-275.352"/>
</g>
<!-- Node5 -->
<g id="node5" class="node"><title>Node5</title>
<g id="a_node5"><a xlink:href="connection_8hpp.html" target="_top" xlink:title="src/network/connection.hpp">
<polygon fill="none" stroke="black" points="787.5,-224.5 787.5,-243.5 924.5,-243.5 924.5,-224.5 787.5,-224.5"/>
<text text-anchor="middle" x="856" y="-231.5" font-family="Helvetica,sans-Serif" font-size="10.00">src/network/connection.hpp</text>
</a>
</g>
</g>
<!-- Node2&#45;&gt;Node5 -->
<g id="edge4" class="edge"><title>Node2&#45;&gt;Node5</title>
<path fill="none" stroke="midnightblue" d="M454.882,-279.925C599.398,-261.525 637.268,-259.938 778,-244 780.98,-243.663 784.024,-243.317 787.098,-242.966"/>
<polygon fill="midnightblue" stroke="midnightblue" points="454.224,-276.48 444.749,-281.22 455.112,-283.424 454.224,-276.48"/>
</g>
<!-- Node2&#45;&gt;Node8 -->
<g id="edge25" class="edge"><title>Node2&#45;&gt;Node8</title>
<path fill="none" stroke="midnightblue" d="M454.925,-280.105C575.842,-269.911 843.237,-295.969 933,-244 965.682,-225.078 983.256,-203.721 971,-168 965.989,-153.396 954.088,-139.88 945.556,-131.55"/>
<polygon fill="midnightblue" stroke="midnightblue" points="454.35,-276.645 444.733,-281.092 455.024,-283.612 454.35,-276.645"/>
</g>
<!-- Node16 -->
<g id="node16" class="node"><title>Node16</title>
<g id="a_node16"><a xlink:href="irc__connection_8cpp.html" target="_top" xlink:title="src/network/irc_connection.cpp">
<polygon fill="none" stroke="black" points="72,-56.5 72,-75.5 224,-75.5 224,-56.5 72,-56.5"/>
<text text-anchor="middle" x="148" y="-63.5" font-family="Helvetica,sans-Serif" font-size="10.00">src/network/irc_connection.cpp</text>
</a>
</g>
</g>
<!-- Node2&#45;&gt;Node16 -->
<g id="edge35" class="edge"><title>Node2&#45;&gt;Node16</title>
<path fill="none" stroke="midnightblue" d="M329.273,-289.966C242.25,-289.81 91.6539,-283.62 57,-244 8.54698,-188.603 103.72,-102.857 137.059,-75.615"/>
<polygon fill="midnightblue" stroke="midnightblue" points="329.303,-293.466 339.3,-289.958 329.297,-286.466 329.303,-293.466"/>
</g>
<!-- Node2&#45;&gt;Node18 -->
<g id="edge38" class="edge"><title>Node2&#45;&gt;Node18</title>
<path fill="none" stroke="midnightblue" d="M333.306,-277.165C315.395,-270.507 297.64,-260.135 287,-244 263.104,-207.762 291.568,-152.91 304.378,-131.752"/>
<polygon fill="midnightblue" stroke="midnightblue" points="332.635,-280.632 343.229,-280.495 334.862,-273.996 332.635,-280.632"/>
</g>
<!-- Node19 -->
<g id="node19" class="node"><title>Node19</title>
<g id="a_node19"><a xlink:href="irc__buffer_8hpp.html" target="_top" xlink:title="src/network/irc_buffer.hpp">
<polygon fill="none" stroke="black" points="632,-168.5 632,-187.5 762,-187.5 762,-168.5 632,-168.5"/>
<text text-anchor="middle" x="697" y="-175.5" font-family="Helvetica,sans-Serif" font-size="10.00">src/network/irc_buffer.hpp</text>
</a>
</g>
</g>
<!-- Node2&#45;&gt;Node19 -->
<g id="edge34" class="edge"><title>Node2&#45;&gt;Node19</title>
<path fill="none" stroke="midnightblue" d="M454.52,-279.418C509.332,-270.436 584.444,-256.548 612,-244 643.447,-229.68 674.068,-201.856 688.463,-187.71"/>
<polygon fill="midnightblue" stroke="midnightblue" points="453.848,-275.981 444.537,-281.037 454.969,-282.891 453.848,-275.981"/>
</g>
<!-- Node20 -->
<g id="node20" class="node"><title>Node20</title>
<g id="a_node20"><a xlink:href="async__service_8hpp.html" target="_top" xlink:title="src/network/async_service.hpp">
<polygon fill="none" stroke="black" points="418,-224.5 418,-243.5 570,-243.5 570,-224.5 418,-224.5"/>
<text text-anchor="middle" x="494" y="-231.5" font-family="Helvetica,sans-Serif" font-size="10.00">src/network/async_service.hpp</text>
</a>
</g>
</g>
<!-- Node2&#45;&gt;Node20 -->
<g id="edge26" class="edge"><title>Node2&#45;&gt;Node20</title>
<path fill="none" stroke="midnightblue" d="M417.331,-275.59C436.19,-265.605 461.384,-252.267 477.653,-243.655"/>
<polygon fill="midnightblue" stroke="midnightblue" points="415.588,-272.552 408.388,-280.324 418.864,-278.738 415.588,-272.552"/>
</g>
<!-- Node22 -->
<g id="node22" class="node"><title>Node22</title>
<g id="a_node22"><a xlink:href="http_8cpp.html" target="_top" xlink:title="src/network/http.cpp">
<polygon fill="none" stroke="black" points="446,-112.5 446,-131.5 552,-131.5 552,-112.5 446,-112.5"/>
<text text-anchor="middle" x="499" y="-119.5" font-family="Helvetica,sans-Serif" font-size="10.00">src/network/http.cpp</text>
</a>
</g>
</g>
<!-- Node2&#45;&gt;Node22 -->
<g id="edge36" class="edge"><title>Node2&#45;&gt;Node22</title>
<path fill="none" stroke="midnightblue" d="M451.062,-278.553C502.774,-268.806 570.911,-254.266 579,-244 610.483,-204.043 542.472,-151.806 512.379,-131.547"/>
<polygon fill="midnightblue" stroke="midnightblue" points="450.151,-275.162 440.961,-280.436 451.434,-282.044 450.151,-275.162"/>
</g>
<!-- Node23 -->
<g id="node23" class="node"><title>Node23</title>
<g id="a_node23"><a xlink:href="json_8hpp.html" target="_top" xlink:title="src/string/json.hpp">
<polygon fill="none" stroke="black" points="66.5,-224.5 66.5,-243.5 163.5,-243.5 163.5,-224.5 66.5,-224.5"/>
<text text-anchor="middle" x="115" y="-231.5" font-family="Helvetica,sans-Serif" font-size="10.00">src/string/json.hpp</text>
</a>
</g>
</g>
<!-- Node2&#45;&gt;Node23 -->
<g id="edge31" class="edge"><title>Node2&#45;&gt;Node23</title>
<path fill="none" stroke="midnightblue" d="M338.003,-278.473C285.652,-268.268 207.228,-252.979 158.686,-243.516"/>
<polygon fill="midnightblue" stroke="midnightblue" points="337.624,-281.965 348.109,-280.444 338.963,-275.095 337.624,-281.965"/>
</g>
<!-- Node2&#45;&gt;Node24 -->
<g id="edge37" class="edge"><title>Node2&#45;&gt;Node24</title>
<path fill="none" stroke="midnightblue" d="M346.839,-277.788C319.256,-270.091 283.698,-258.626 254,-244 221.013,-227.754 186.368,-201.282 169.489,-187.677"/>
<polygon fill="midnightblue" stroke="midnightblue" points="346.047,-281.199 356.615,-280.452 347.887,-274.446 346.047,-281.199"/>
</g>
<!-- Node5&#45;&gt;Node6 -->
<g id="edge5" class="edge"><title>Node5&#45;&gt;Node6</title>
<path fill="none" stroke="midnightblue" d="M872.913,-217.253C883.203,-207.673 895.966,-195.791 904.512,-187.834"/>
<polygon fill="midnightblue" stroke="midnightblue" points="870.253,-214.948 865.319,-224.324 875.023,-220.071 870.253,-214.948"/>
</g>
<!-- Node5&#45;&gt;Node8 -->
<g id="edge20" class="edge"><title>Node5&#45;&gt;Node8</title>
<path fill="none" stroke="midnightblue" d="M851.269,-214.504C848.816,-200.738 847.819,-181.989 856,-168 866.7,-149.705 887.875,-138.274 905.753,-131.512"/>
<polygon fill="midnightblue" stroke="midnightblue" points="847.853,-215.264 853.401,-224.29 854.692,-213.775 847.853,-215.264"/>
</g>
<!-- Node15 -->
<g id="node15" class="node"><title>Node15</title>
<g id="a_node15"><a xlink:href="irc__connection_8hpp.html" target="_top" xlink:title="src/network/irc_connection.hpp">
<polygon fill="none" stroke="black" points="622,-112.5 622,-131.5 774,-131.5 774,-112.5 622,-112.5"/>
<text text-anchor="middle" x="698" y="-119.5" font-family="Helvetica,sans-Serif" font-size="10.00">src/network/irc_connection.hpp</text>
</a>
</g>
</g>
<!-- Node5&#45;&gt;Node15 -->
<g id="edge21" class="edge"><title>Node5&#45;&gt;Node15</title>
<path fill="none" stroke="midnightblue" d="M837.54,-218.024C820.586,-204.479 794.59,-184.23 771,-168 751.375,-154.498 727.766,-140.295 712.818,-131.542"/>
<polygon fill="midnightblue" stroke="midnightblue" points="835.534,-220.902 845.521,-224.439 839.92,-215.446 835.534,-220.902"/>
</g>
<!-- Node5&#45;&gt;Node19 -->
<g id="edge22" class="edge"><title>Node5&#45;&gt;Node19</title>
<path fill="none" stroke="midnightblue" d="M821.173,-221.172C791.234,-211.004 748.779,-196.585 722.076,-187.516"/>
<polygon fill="midnightblue" stroke="midnightblue" points="820.212,-224.542 830.806,-224.444 822.463,-217.914 820.212,-224.542"/>
</g>
<!-- Node7 -->
<g id="node7" class="node"><title>Node7</title>
<g id="a_node7"><a xlink:href="melanobot_8cpp.html" target="_top" xlink:title="src/melanobot.cpp">
<polygon fill="none" stroke="black" points="1166.5,-56.5 1166.5,-75.5 1263.5,-75.5 1263.5,-56.5 1166.5,-56.5"/>
<text text-anchor="middle" x="1215" y="-63.5" font-family="Helvetica,sans-Serif" font-size="10.00">src/melanobot.cpp</text>
</a>
</g>
</g>
<!-- Node6&#45;&gt;Node7 -->
<g id="edge6" class="edge"><title>Node6&#45;&gt;Node7</title>
<path fill="none" stroke="midnightblue" d="M947.206,-164.865C1008.57,-142.44 1138.3,-95.0315 1191.49,-75.5914"/>
<polygon fill="midnightblue" stroke="midnightblue" points="945.81,-161.649 937.619,-168.368 948.213,-168.223 945.81,-161.649"/>
</g>
<!-- Node6&#45;&gt;Node8 -->
<g id="edge7" class="edge"><title>Node6&#45;&gt;Node8</title>
<path fill="none" stroke="midnightblue" d="M921.46,-158.69C925.167,-149.589 929.476,-139.014 932.435,-131.751"/>
<polygon fill="midnightblue" stroke="midnightblue" points="918.165,-157.502 917.633,-168.083 924.647,-160.143 918.165,-157.502"/>
</g>
<!-- Node6&#45;&gt;Node15 -->
<g id="edge15" class="edge"><title>Node6&#45;&gt;Node15</title>
<path fill="none" stroke="midnightblue" d="M869.836,-165.959C829.039,-155.76 769.287,-140.822 732.066,-131.516"/>
<polygon fill="midnightblue" stroke="midnightblue" points="869.224,-169.414 879.774,-168.444 870.922,-162.623 869.224,-169.414"/>
</g>
<!-- Node6&#45;&gt;Node18 -->
<g id="edge19" class="edge"><title>Node6&#45;&gt;Node18</title>
<path fill="none" stroke="midnightblue" d="M855.306,-171.753C731.751,-160.706 447.897,-135.329 346.683,-126.28"/>
<polygon fill="midnightblue" stroke="midnightblue" points="855.067,-175.245 865.339,-172.649 855.69,-168.273 855.067,-175.245"/>
</g>
<!-- Node8&#45;&gt;Node7 -->
<g id="edge8" class="edge"><title>Node8&#45;&gt;Node7</title>
<path fill="none" stroke="midnightblue" d="M990.058,-110.537C1042.79,-100.332 1122,-84.9992 1171,-75.5164"/>
<polygon fill="midnightblue" stroke="midnightblue" points="989.361,-107.107 980.208,-112.444 990.691,-113.979 989.361,-107.107"/>
</g>
<!-- Node9 -->
<g id="node9" class="node"><title>Node9</title>
<g id="a_node9"><a xlink:href="ctcp_8cpp.html" target="_top" xlink:title="src/handler/ctcp.cpp">
<polygon fill="none" stroke="black" points="783.5,-56.5 783.5,-75.5 888.5,-75.5 888.5,-56.5 783.5,-56.5"/>
<text text-anchor="middle" x="836" y="-63.5" font-family="Helvetica,sans-Serif" font-size="10.00">src/handler/ctcp.cpp</text>
</a>
</g>
</g>
<!-- Node8&#45;&gt;Node9 -->
<g id="edge9" class="edge"><title>Node8&#45;&gt;Node9</title>
<path fill="none" stroke="midnightblue" d="M910.912,-107.453C892.451,-97.4835 867.903,-84.2279 852.027,-75.6545"/>
<polygon fill="midnightblue" stroke="midnightblue" points="909.471,-110.652 919.933,-112.324 912.797,-104.493 909.471,-110.652"/>
</g>
<!-- Node10 -->
<g id="node10" class="node"><title>Node10</title>
<g id="a_node10"><a xlink:href="web-api_8hpp.html" target="_top" xlink:title="src/handler/web&#45;api.hpp">
<polygon fill="none" stroke="black" points="351,-56.5 351,-75.5 471,-75.5 471,-56.5 351,-56.5"/>
<text text-anchor="middle" x="411" y="-63.5" font-family="Helvetica,sans-Serif" font-size="10.00">src/handler/web&#45;api.hpp</text>
</a>
</g>
</g>
<!-- Node8&#45;&gt;Node10 -->
<g id="edge10" class="edge"><title>Node8&#45;&gt;Node10</title>
<path fill="none" stroke="midnightblue" d="M866.895,-114.86C777.5,-106.761 616.983,-91.6888 480,-76 477.119,-75.6701 474.173,-75.3229 471.197,-74.9647"/>
<polygon fill="midnightblue" stroke="midnightblue" points="866.634,-118.35 876.909,-115.765 867.265,-111.379 866.634,-118.35"/>
</g>
<!-- Node12 -->
<g id="node12" class="node"><title>Node12</title>
<g id="a_node12"><a xlink:href="irc__whois_8cpp.html" target="_top" xlink:title="src/handler/irc_whois.cpp">
<polygon fill="none" stroke="black" points="637,-56.5 637,-75.5 765,-75.5 765,-56.5 637,-56.5"/>
<text text-anchor="middle" x="701" y="-63.5" font-family="Helvetica,sans-Serif" font-size="10.00">src/handler/irc_whois.cpp</text>
</a>
</g>
</g>
<!-- Node8&#45;&gt;Node12 -->
<g id="edge12" class="edge"><title>Node8&#45;&gt;Node12</title>
<path fill="none" stroke="midnightblue" d="M888.795,-110.153C844.393,-99.95 778.815,-84.8809 738.062,-75.5164"/>
<polygon fill="midnightblue" stroke="midnightblue" points="888.234,-113.615 898.764,-112.444 889.801,-106.793 888.234,-113.615"/>
</g>
<!-- Node13 -->
<g id="node13" class="node"><title>Node13</title>
<g id="a_node13"><a xlink:href="core_8cpp.html" target="_top" xlink:title="This file defines handlers which are essential for proper usage of the bot. ">
<polygon fill="none" stroke="black" points="906.5,-56.5 906.5,-75.5 1011.5,-75.5 1011.5,-56.5 906.5,-56.5"/>
<text text-anchor="middle" x="959" y="-63.5" font-family="Helvetica,sans-Serif" font-size="10.00">src/handler/core.cpp</text>
</a>
</g>
</g>
<!-- Node8&#45;&gt;Node13 -->
<g id="edge13" class="edge"><title>Node8&#45;&gt;Node13</title>
<path fill="none" stroke="midnightblue" d="M943.799,-102.69C947.675,-93.589 952.179,-83.0141 955.273,-75.7511"/>
<polygon fill="midnightblue" stroke="midnightblue" points="940.497,-101.511 939.798,-112.083 946.937,-104.254 940.497,-101.511"/>
</g>
<!-- Node14 -->
<g id="node14" class="node"><title>Node14</title>
<g id="a_node14"><a xlink:href="handler_8cpp.html" target="_top" xlink:title="src/handler/handler.cpp">
<polygon fill="none" stroke="black" points="1030,-56.5 1030,-75.5 1148,-75.5 1148,-56.5 1030,-56.5"/>
<text text-anchor="middle" x="1089" y="-63.5" font-family="Helvetica,sans-Serif" font-size="10.00">src/handler/handler.cpp</text>
</a>
</g>
</g>
<!-- Node8&#45;&gt;Node14 -->
<g id="edge14" class="edge"><title>Node8&#45;&gt;Node14</title>
<path fill="none" stroke="midnightblue" d="M969.889,-109.039C998.677,-98.8786 1039.29,-84.5457 1064.87,-75.5164"/>
<polygon fill="midnightblue" stroke="midnightblue" points="968.508,-105.815 960.243,-112.444 970.838,-112.416 968.508,-105.815"/>
</g>
<!-- Node11 -->
<g id="node11" class="node"><title>Node11</title>
<g id="a_node11"><a xlink:href="web-api_8cpp.html" target="_top" xlink:title="src/handler/web&#45;api.cpp">
<polygon fill="none" stroke="black" points="351,-0.5 351,-19.5 471,-19.5 471,-0.5 351,-0.5"/>
<text text-anchor="middle" x="411" y="-7.5" font-family="Helvetica,sans-Serif" font-size="10.00">src/handler/web&#45;api.cpp</text>
</a>
</g>
</g>
<!-- Node10&#45;&gt;Node11 -->
<g id="edge11" class="edge"><title>Node10&#45;&gt;Node11</title>
<path fill="none" stroke="midnightblue" d="M411,-45.8045C411,-36.9102 411,-26.7798 411,-19.7511"/>
<polygon fill="midnightblue" stroke="midnightblue" points="407.5,-46.083 411,-56.083 414.5,-46.083 407.5,-46.083"/>
</g>
<!-- Node15&#45;&gt;Node12 -->
<g id="edge16" class="edge"><title>Node15&#45;&gt;Node12</title>
<path fill="none" stroke="midnightblue" d="M699.066,-101.805C699.561,-92.9102 700.123,-82.7798 700.514,-75.7511"/>
<polygon fill="midnightblue" stroke="midnightblue" points="695.556,-101.904 698.495,-112.083 702.545,-102.293 695.556,-101.904"/>
</g>
<!-- Node15&#45;&gt;Node16 -->
<g id="edge17" class="edge"><title>Node15&#45;&gt;Node16</title>
<path fill="none" stroke="midnightblue" d="M611.747,-112.532C505.318,-102.082 326.012,-84.4776 224.356,-74.4967"/>
<polygon fill="midnightblue" stroke="midnightblue" points="611.52,-116.026 621.814,-113.52 612.204,-109.059 611.52,-116.026"/>
</g>
<!-- Node17 -->
<g id="node17" class="node"><title>Node17</title>
<g id="a_node17"><a xlink:href="irc__buffer_8cpp.html" target="_top" xlink:title="src/network/irc_buffer.cpp">
<polygon fill="none" stroke="black" points="489,-56.5 489,-75.5 619,-75.5 619,-56.5 489,-56.5"/>
<text text-anchor="middle" x="554" y="-63.5" font-family="Helvetica,sans-Serif" font-size="10.00">src/network/irc_buffer.cpp</text>
</a>
</g>
</g>
<!-- Node15&#45;&gt;Node17 -->
<g id="edge18" class="edge"><title>Node15&#45;&gt;Node17</title>
<path fill="none" stroke="midnightblue" d="M665.749,-108.906C638.676,-98.7536 600.683,-84.5063 576.71,-75.5164"/>
<polygon fill="midnightblue" stroke="midnightblue" points="664.591,-112.209 675.183,-112.444 667.048,-105.655 664.591,-112.209"/>
</g>
<!-- Node19&#45;&gt;Node15 -->
<g id="edge23" class="edge"><title>Node19&#45;&gt;Node15</title>
<path fill="none" stroke="midnightblue" d="M697.355,-157.805C697.52,-148.91 697.708,-138.78 697.838,-131.751"/>
<polygon fill="midnightblue" stroke="midnightblue" points="693.851,-158.02 697.165,-168.083 700.85,-158.15 693.851,-158.02"/>
</g>
<!-- Node19&#45;&gt;Node17 -->
<g id="edge24" class="edge"><title>Node19&#45;&gt;Node17</title>
<path fill="none" stroke="midnightblue" d="M667.149,-164.096C650.386,-156.115 629.571,-144.935 613,-132 591.135,-114.933 570.539,-89.2801 560.459,-75.8755"/>
<polygon fill="midnightblue" stroke="midnightblue" points="665.943,-167.395 676.489,-168.415 668.881,-161.041 665.943,-167.395"/>
</g>
<!-- Node20&#45;&gt;Node18 -->
<g id="edge30" class="edge"><title>Node20&#45;&gt;Node18</title>
<path fill="none" stroke="midnightblue" d="M470.597,-219.009C431.974,-195.919 356.017,-150.51 324.371,-131.591"/>
<polygon fill="midnightblue" stroke="midnightblue" points="469.183,-222.241 479.562,-224.368 472.775,-216.233 469.183,-222.241"/>
</g>
<!-- Node21 -->
<g id="node21" class="node"><title>Node21</title>
<g id="a_node21"><a xlink:href="http_8hpp.html" target="_top" xlink:title="src/network/http.hpp">
<polygon fill="none" stroke="black" points="441,-168.5 441,-187.5 547,-187.5 547,-168.5 441,-168.5"/>
<text text-anchor="middle" x="494" y="-175.5" font-family="Helvetica,sans-Serif" font-size="10.00">src/network/http.hpp</text>
</a>
</g>
</g>
<!-- Node20&#45;&gt;Node21 -->
<g id="edge27" class="edge"><title>Node20&#45;&gt;Node21</title>
<path fill="none" stroke="midnightblue" d="M494,-213.805C494,-204.91 494,-194.78 494,-187.751"/>
<polygon fill="midnightblue" stroke="midnightblue" points="490.5,-214.083 494,-224.083 497.5,-214.083 490.5,-214.083"/>
</g>
<!-- Node21&#45;&gt;Node10 -->
<g id="edge28" class="edge"><title>Node21&#45;&gt;Node10</title>
<path fill="none" stroke="midnightblue" d="M470.479,-162.644C459.13,-154.756 446.049,-144.115 437,-132 423.763,-114.277 416.206,-88.901 412.943,-75.7111"/>
<polygon fill="midnightblue" stroke="midnightblue" points="468.83,-165.75 479.1,-168.356 472.697,-159.915 468.83,-165.75"/>
</g>
<!-- Node21&#45;&gt;Node22 -->
<g id="edge29" class="edge"><title>Node21&#45;&gt;Node22</title>
<path fill="none" stroke="midnightblue" d="M495.75,-158.101C496.58,-149.136 497.532,-138.858 498.19,-131.751"/>
<polygon fill="midnightblue" stroke="midnightblue" points="492.263,-157.803 494.826,-168.083 499.233,-158.448 492.263,-157.803"/>
</g>
<!-- Node23&#45;&gt;Node10 -->
<g id="edge32" class="edge"><title>Node23&#45;&gt;Node10</title>
<path fill="none" stroke="midnightblue" d="M106.438,-214.545C101.33,-200.546 97.4983,-181.477 107,-168 161.798,-90.2743 279.029,-71.3209 350.836,-67.3035"/>
<polygon fill="midnightblue" stroke="midnightblue" points="103.33,-216.188 110.392,-224.086 109.796,-213.508 103.33,-216.188"/>
</g>
<!-- Node23&#45;&gt;Node24 -->
<g id="edge33" class="edge"><title>Node23&#45;&gt;Node24</title>
<path fill="none" stroke="midnightblue" d="M128.735,-216.144C136.401,-206.736 145.633,-195.405 151.869,-187.751"/>
<polygon fill="midnightblue" stroke="midnightblue" points="125.869,-214.12 122.266,-224.083 131.296,-218.541 125.869,-214.12"/>
</g>
<!-- Node26 -->
<g id="node26" class="node"><title>Node26</title>
<g id="a_node26"><a xlink:href="user__manager_8hpp.html" target="_top" xlink:title="src/user/user_manager.hpp">
<polygon fill="none" stroke="black" points="751.5,-336.5 751.5,-355.5 886.5,-355.5 886.5,-336.5 751.5,-336.5"/>
<text text-anchor="middle" x="819" y="-343.5" font-family="Helvetica,sans-Serif" font-size="10.00">src/user/user_manager.hpp</text>
</a>
</g>
</g>
<!-- Node25&#45;&gt;Node26 -->
<g id="edge40" class="edge"><title>Node25&#45;&gt;Node26</title>
<path fill="none" stroke="midnightblue" d="M644.515,-390.024C685.884,-379.823 746.643,-364.841 784.461,-355.516"/>
<polygon fill="midnightblue" stroke="midnightblue" points="643.572,-386.651 634.701,-392.444 645.248,-393.448 643.572,-386.651"/>
</g>
<!-- Node28 -->
<g id="node28" class="node"><title>Node28</title>
<g id="a_node28"><a xlink:href="user__group_8hpp.html" target="_top" xlink:title="src/user/user_group.hpp">
<polygon fill="none" stroke="black" points="539,-336.5 539,-355.5 661,-355.5 661,-336.5 539,-336.5"/>
<text text-anchor="middle" x="600" y="-343.5" font-family="Helvetica,sans-Serif" font-size="10.00">src/user/user_group.hpp</text>
</a>
</g>
</g>
<!-- Node25&#45;&gt;Node28 -->
<g id="edge43" class="edge"><title>Node25&#45;&gt;Node28</title>
<path fill="none" stroke="midnightblue" d="M600,-381.805C600,-372.91 600,-362.78 600,-355.751"/>
<polygon fill="midnightblue" stroke="midnightblue" points="596.5,-382.083 600,-392.083 603.5,-382.083 596.5,-382.083"/>
</g>
<!-- Node26&#45;&gt;Node5 -->
<g id="edge42" class="edge"><title>Node26&#45;&gt;Node5</title>
<path fill="none" stroke="midnightblue" d="M856.516,-332.226C871.235,-325.162 886.59,-314.753 895,-300 906.666,-279.535 882.95,-255.91 867.629,-243.55"/>
<polygon fill="midnightblue" stroke="midnightblue" points="854.765,-329.173 847.015,-336.397 857.579,-335.582 854.765,-329.173"/>
</g>
<!-- Node27 -->
<g id="node27" class="node"><title>Node27</title>
<g id="a_node27"><a xlink:href="user__manager_8cpp.html" target="_top" xlink:title="src/user/user_manager.cpp">
<polygon fill="none" stroke="black" points="751.5,-280.5 751.5,-299.5 886.5,-299.5 886.5,-280.5 751.5,-280.5"/>
<text text-anchor="middle" x="819" y="-287.5" font-family="Helvetica,sans-Serif" font-size="10.00">src/user/user_manager.cpp</text>
</a>
</g>
</g>
<!-- Node26&#45;&gt;Node27 -->
<g id="edge41" class="edge"><title>Node26&#45;&gt;Node27</title>
<path fill="none" stroke="midnightblue" d="M819,-325.805C819,-316.91 819,-306.78 819,-299.751"/>
<polygon fill="midnightblue" stroke="midnightblue" points="815.5,-326.083 819,-336.083 822.5,-326.083 815.5,-326.083"/>
</g>
<!-- Node29 -->
<g id="node29" class="node"><title>Node29</title>
<g id="a_node29"><a xlink:href="user__group_8cpp.html" target="_top" xlink:title="src/user/user_group.cpp">
<polygon fill="none" stroke="black" points="611,-280.5 611,-299.5 733,-299.5 733,-280.5 611,-280.5"/>
<text text-anchor="middle" x="672" y="-287.5" font-family="Helvetica,sans-Serif" font-size="10.00">src/user/user_group.cpp</text>
</a>
</g>
</g>
<!-- Node28&#45;&gt;Node29 -->
<g id="edge44" class="edge"><title>Node28&#45;&gt;Node29</title>
<path fill="none" stroke="midnightblue" d="M619.866,-330.101C632.823,-320.382 649.297,-308.027 660.221,-299.834"/>
<polygon fill="midnightblue" stroke="midnightblue" points="617.468,-327.524 611.568,-336.324 621.668,-333.124 617.468,-327.524"/>
</g>
<!-- Node30 -->
<g id="node30" class="node"><title>Node30</title>
<g id="a_node30"><a xlink:href="auth__system_8hpp.html" target="_top" xlink:title="src/user/auth_system.hpp">
<polygon fill="none" stroke="black" points="463,-280.5 463,-299.5 593,-299.5 593,-280.5 463,-280.5"/>
<text text-anchor="middle" x="528" y="-287.5" font-family="Helvetica,sans-Serif" font-size="10.00">src/user/auth_system.hpp</text>
</a>
</g>
</g>
<!-- Node28&#45;&gt;Node30 -->
<g id="edge45" class="edge"><title>Node28&#45;&gt;Node30</title>
<path fill="none" stroke="midnightblue" d="M580.134,-330.101C567.177,-320.382 550.703,-308.027 539.779,-299.834"/>
<polygon fill="midnightblue" stroke="midnightblue" points="578.332,-333.124 588.432,-336.324 582.532,-327.524 578.332,-333.124"/>
</g>
<!-- Node30&#45;&gt;Node5 -->
<g id="edge46" class="edge"><title>Node30&#45;&gt;Node5</title>
<path fill="none" stroke="midnightblue" d="M590.012,-278.791C651.99,-268.587 746.193,-253.078 804.271,-243.516"/>
<polygon fill="midnightblue" stroke="midnightblue" points="589.271,-275.365 579.973,-280.444 590.408,-282.272 589.271,-275.365"/>
</g>
</g>
</svg>
        <g id="navigator" transform="translate(0 0)" fill="#404254">
                <rect fill="#f2f5e9" fill-opacity="0.5" stroke="#606060" stroke-width=".5" x="0" y="0" width="60" height="60"/>
                <use id="zoomplus" xlink:href="#zoomPlus" x="17" y="9" onmousedown="handleZoom(evt,'in')"/>
                <use id="zoomminus" xlink:href="#zoomMin" x="42" y="9" onmousedown="handleZoom(evt,'out')"/>
                <use id="reset" xlink:href="#resetDef" x="30" y="36" onmousedown="handleReset()"/>
                <g id="arrowUp" xlink:href="#dirArrow" transform="translate(30 24)" onmousedown="handlePan(0,-1)">
                  <use xlink:href="#rim" fill="#404040">
                        <set attributeName="fill" to="#808080" begin="arrowUp.mouseover" end="arrowUp.mouseout"/>
                  </use>
                  <path fill="none" stroke="white" stroke-width="1.5" d="M0,-3.0v7 M-2.5,-0.5L0,-3.0L2.5,-0.5"/>
                </g>
                <g id="arrowRight" xlink:href="#dirArrow" transform="rotate(90) translate(36 -43)" onmousedown="handlePan(1,0)">
                  <use xlink:href="#rim" fill="#404040">
                        <set attributeName="fill" to="#808080" begin="arrowRight.mouseover" end="arrowRight.mouseout"/>
                  </use>
                  <path fill="none" stroke="white" stroke-width="1.5" d="M0,-3.0v7 M-2.5,-0.5L0,-3.0L2.5,-0.5"/>
                </g>
                <g id="arrowDown" xlink:href="#dirArrow" transform="rotate(180) translate(-30 -48)" onmousedown="handlePan(0,1)">
                  <use xlink:href="#rim" fill="#404040">
                        <set attributeName="fill" to="#808080" begin="arrowDown.mouseover" end="arrowDown.mouseout"/>
                  </use>
                  <path fill="none" stroke="white" stroke-width="1.5" d="M0,-3.0v7 M-2.5,-0.5L0,-3.0L2.5,-0.5"/>
                </g>
                <g id="arrowLeft" xlink:href="#dirArrow" transform="rotate(270) translate(-36 17)" onmousedown="handlePan(-1,0)">
                  <use xlink:href="#rim" fill="#404040">
                        <set attributeName="fill" to="#808080" begin="arrowLeft.mouseover" end="arrowLeft.mouseout"/>
                  </use>
                  <path fill="none" stroke="white" stroke-width="1.5" d="M0,-3.0v7 M-2.5,-0.5L0,-3.0L2.5,-0.5"/>
                </g>
        </g>
        <svg viewBox="0 0 15 15" width="100%" height="30px" preserveAspectRatio="xMaxYMin meet">
         <g id="arrow_out" transform="scale(0.3 0.3)">
          <a xlink:href="settings_8hpp__dep__incl_org.svg" target="_base">
           <rect id="button" ry="5" rx="5" y="6" x="6" height="38" width="38"
                fill="#f2f5e9" fill-opacity="0.5" stroke="#606060" stroke-width="1.0"/>
           <path id="arrow"
             d="M 11.500037,31.436501 C 11.940474,20.09759 22.043105,11.32322 32.158766,21.979434 L 37.068811,17.246167 C 37.068811,17.246167 37.088388,32 37.088388,32 L 22.160133,31.978069 C 22.160133,31.978069 26.997745,27.140456 26.997745,27.140456 C 18.528582,18.264221 13.291696,25.230495 11.500037,31.436501 z"
             style="fill:#404040;"/>
          </a>
         </g>
        </svg>
</svg>
