<?xml version="1.0" encoding="UTF-8" standalone="no"?>
<!DOCTYPE svg PUBLIC "-//W3C//DTD SVG 1.1//EN"
 "http://www.w3.org/Graphics/SVG/1.1/DTD/svg11.dtd">
<!-- Generated by graphviz version 2.38.0 (20140413.2041)
 -->
<!-- Title: src/settings.cpp Pages: 1 -->
<svg width="1392pt" height="397pt"
 viewBox="0.00 0.00 1391.50 397.00" xmlns="http://www.w3.org/2000/svg" xmlns:xlink="http://www.w3.org/1999/xlink">
<g id="graph0" class="graph" transform="scale(1 1) rotate(0) translate(4 393)">
<title>src/settings.cpp</title>
<!-- Node1 -->
<g id="node1" class="node"><title>Node1</title>
<polygon fill="#bfbfbf" stroke="black" points="765.5,-369.5 765.5,-388.5 851.5,-388.5 851.5,-369.5 765.5,-369.5"/>
<text text-anchor="middle" x="808.5" y="-376.5" font-family="Helvetica,sans-Serif" font-size="10.00">src/settings.cpp</text>
</g>
<!-- Node2 -->
<g id="node2" class="node"><title>Node2</title>
<g id="a_node2"><a xlink:href="settings_8hpp.html" target="_top" xlink:title="settings.hpp">
<polygon fill="none" stroke="black" points="521.5,-185 521.5,-204 591.5,-204 591.5,-185 521.5,-185"/>
<text text-anchor="middle" x="556.5" y="-192" font-family="Helvetica,sans-Serif" font-size="10.00">settings.hpp</text>
</a>
</g>
</g>
<!-- Node1&#45;&gt;Node2 -->
<g id="edge1" class="edge"><title>Node1&#45;&gt;Node2</title>
<path fill="none" stroke="midnightblue" d="M765.475,-373.757C711.838,-367.629 624.3,-354.605 600.5,-333 566.259,-301.917 558.519,-244.214 556.867,-214.409"/>
<polygon fill="midnightblue" stroke="midnightblue" points="560.354,-214.004 556.483,-204.142 553.359,-214.266 560.354,-214.004"/>
</g>
<!-- Node7 -->
<g id="node7" class="node"><title>Node7</title>
<polygon fill="none" stroke="#bfbfbf" points="623,-308 623,-327 668,-327 668,-308 623,-308"/>
<text text-anchor="middle" x="645.5" y="-315" font-family="Helvetica,sans-Serif" font-size="10.00">cstdlib</text>
</g>
<!-- Node1&#45;&gt;Node7 -->
<g id="edge6" class="edge"><title>Node1&#45;&gt;Node7</title>
<path fill="none" stroke="midnightblue" d="M780.622,-369.47C753.682,-361 711.87,-347.252 676.5,-333 675.122,-332.445 673.718,-331.86 672.305,-331.256"/>
<polygon fill="midnightblue" stroke="midnightblue" points="673.616,-328.008 663.058,-327.118 670.756,-334.398 673.616,-328.008"/>
</g>
<!-- Node8 -->
<g id="node8" class="node"><title>Node8</title>
<polygon fill="none" stroke="#bfbfbf" points="686,-308 686,-327 793,-327 793,-308 686,-308"/>
<text text-anchor="middle" x="739.5" y="-315" font-family="Helvetica,sans-Serif" font-size="10.00">boost/filesystem.hpp</text>
</g>
<!-- Node1&#45;&gt;Node8 -->
<g id="edge7" class="edge"><title>Node1&#45;&gt;Node8</title>
<path fill="none" stroke="midnightblue" d="M798.614,-369.475C787.854,-360.197 770.429,-345.171 757.279,-333.831"/>
<polygon fill="midnightblue" stroke="midnightblue" points="759.227,-330.889 749.368,-327.009 754.655,-336.19 759.227,-330.889"/>
</g>
<!-- Node9 -->
<g id="node9" class="node"><title>Node9</title>
<polygon fill="none" stroke="#bfbfbf" points="811.5,-308 811.5,-327 945.5,-327 945.5,-308 811.5,-308"/>
<text text-anchor="middle" x="878.5" y="-315" font-family="Helvetica,sans-Serif" font-size="10.00">boost/program_options.hpp</text>
</g>
<!-- Node1&#45;&gt;Node9 -->
<g id="edge8" class="edge"><title>Node1&#45;&gt;Node9</title>
<path fill="none" stroke="midnightblue" d="M818.529,-369.475C829.549,-360.108 847.46,-344.884 860.843,-333.508"/>
<polygon fill="midnightblue" stroke="midnightblue" points="863.137,-336.152 868.489,-327.009 858.603,-330.819 863.137,-336.152"/>
</g>
<!-- Node10 -->
<g id="node10" class="node"><title>Node10</title>
<polygon fill="none" stroke="#bfbfbf" points="964,-302.5 964,-332.5 1065,-332.5 1065,-302.5 964,-302.5"/>
<text text-anchor="start" x="972" y="-320.5" font-family="Helvetica,sans-Serif" font-size="10.00">boost/property_tree</text>
<text text-anchor="middle" x="1014.5" y="-309.5" font-family="Helvetica,sans-Serif" font-size="10.00">/info_parser.hpp</text>
</g>
<!-- Node1&#45;&gt;Node10 -->
<g id="edge9" class="edge"><title>Node1&#45;&gt;Node10</title>
<path fill="none" stroke="midnightblue" d="M838.015,-369.475C868.652,-360.626 917.39,-346.549 955.893,-335.428"/>
<polygon fill="midnightblue" stroke="midnightblue" points="957.314,-338.661 965.95,-332.523 955.371,-331.935 957.314,-338.661"/>
</g>
<!-- Node11 -->
<g id="node11" class="node"><title>Node11</title>
<polygon fill="none" stroke="#bfbfbf" points="1083,-302.5 1083,-332.5 1184,-332.5 1184,-302.5 1083,-302.5"/>
<text text-anchor="start" x="1091" y="-320.5" font-family="Helvetica,sans-Serif" font-size="10.00">boost/property_tree</text>
<text text-anchor="middle" x="1133.5" y="-309.5" font-family="Helvetica,sans-Serif" font-size="10.00">/ini_parser.hpp</text>
</g>
<!-- Node1&#45;&gt;Node11 -->
<g id="edge10" class="edge"><title>Node1&#45;&gt;Node11</title>
<path fill="none" stroke="midnightblue" d="M851.817,-371.583C902.427,-363.877 988.889,-350.071 1072.86,-333.046"/>
<polygon fill="midnightblue" stroke="midnightblue" points="1073.72,-336.441 1082.82,-331.008 1072.32,-329.583 1073.72,-336.441"/>
</g>
<!-- Node12 -->
<g id="node12" class="node"><title>Node12</title>
<polygon fill="none" stroke="#bfbfbf" points="1202,-302.5 1202,-332.5 1303,-332.5 1303,-302.5 1202,-302.5"/>
<text text-anchor="start" x="1210" y="-320.5" font-family="Helvetica,sans-Serif" font-size="10.00">boost/property_tree</text>
<text text-anchor="middle" x="1252.5" y="-309.5" font-family="Helvetica,sans-Serif" font-size="10.00">/xml_parser.hpp</text>
</g>
<!-- Node1&#45;&gt;Node12 -->
<g id="edge11" class="edge"><title>Node1&#45;&gt;Node12</title>
<path fill="none" stroke="midnightblue" d="M851.652,-374.65C921.162,-368.883 1062.36,-355.635 1191.76,-332.984"/>
<polygon fill="midnightblue" stroke="midnightblue" points="1192.62,-336.387 1201.85,-331.194 1191.39,-329.494 1192.62,-336.387"/>
</g>
<!-- Node13 -->
<g id="node13" class="node"><title>Node13</title>
<g id="a_node13"><a xlink:href="logger_8hpp.html" target="_top" xlink:title="string/logger.hpp">
<polygon fill="none" stroke="black" points="845,-246.5 845,-265.5 934,-265.5 934,-246.5 845,-246.5"/>
<text text-anchor="middle" x="889.5" y="-253.5" font-family="Helvetica,sans-Serif" font-size="10.00">string/logger.hpp</text>
</a>
</g>
</g>
<!-- Node1&#45;&gt;Node13 -->
<g id="edge12" class="edge"><title>Node1&#45;&gt;Node13</title>
<path fill="none" stroke="midnightblue" d="M765.447,-375.798C695.495,-370.679 569.196,-354.112 613.5,-302 641.299,-269.301 762.349,-260.304 834.583,-257.867"/>
<polygon fill="midnightblue" stroke="midnightblue" points="834.981,-261.357 844.869,-257.553 834.767,-254.36 834.981,-261.357"/>
</g>
<!-- Node29 -->
<g id="node29" class="node"><title>Node29</title>
<g id="a_node29"><a xlink:href="json_8hpp.html" target="_top" xlink:title="string/json.hpp">
<polygon fill="none" stroke="black" points="415.5,-308 415.5,-327 495.5,-327 495.5,-308 415.5,-308"/>
<text text-anchor="middle" x="455.5" y="-315" font-family="Helvetica,sans-Serif" font-size="10.00">string/json.hpp</text>
</a>
</g>
</g>
<!-- Node1&#45;&gt;Node29 -->
<g id="edge40" class="edge"><title>Node1&#45;&gt;Node29</title>
<path fill="none" stroke="midnightblue" d="M765.215,-370.704C699.635,-359.65 575.392,-338.708 505.857,-326.988"/>
<polygon fill="midnightblue" stroke="midnightblue" points="506.039,-323.469 495.596,-325.258 504.875,-330.372 506.039,-323.469"/>
</g>
<!-- Node36 -->
<g id="node36" class="node"><title>Node36</title>
<g id="a_node36"><a xlink:href="config_8hpp.html" target="_top" xlink:title="config.hpp">
<polygon fill="none" stroke="black" points="1321.5,-308 1321.5,-327 1383.5,-327 1383.5,-308 1321.5,-308"/>
<text text-anchor="middle" x="1352.5" y="-315" font-family="Helvetica,sans-Serif" font-size="10.00">config.hpp</text>
</a>
</g>
</g>
<!-- Node1&#45;&gt;Node36 -->
<g id="edge56" class="edge"><title>Node1&#45;&gt;Node36</title>
<path fill="none" stroke="midnightblue" d="M851.776,-377.759C939.52,-376.477 1144.24,-369.451 1311.5,-333 1314.92,-332.254 1318.45,-331.302 1321.94,-330.243"/>
<polygon fill="midnightblue" stroke="midnightblue" points="1323.13,-333.535 1331.51,-327.059 1320.92,-326.893 1323.13,-333.535"/>
</g>
<!-- Node3 -->
<g id="node3" class="node"><title>Node3</title>
<polygon fill="none" stroke="#bfbfbf" points="594,-56.5 594,-75.5 635,-75.5 635,-56.5 594,-56.5"/>
<text text-anchor="middle" x="614.5" y="-63.5" font-family="Helvetica,sans-Serif" font-size="10.00">string</text>
</g>
<!-- Node2&#45;&gt;Node3 -->
<g id="edge2" class="edge"><title>Node2&#45;&gt;Node3</title>
<path fill="none" stroke="midnightblue" d="M560.487,-184.805C569.882,-164.313 593.572,-112.645 606.228,-85.0416"/>
<polygon fill="midnightblue" stroke="midnightblue" points="609.499,-86.3045 610.486,-75.7557 603.136,-83.387 609.499,-86.3045"/>
</g>
<!-- Node4 -->
<g id="node4" class="node"><title>Node4</title>
<polygon fill="none" stroke="#bfbfbf" points="1181.5,-56.5 1181.5,-75.5 1227.5,-75.5 1227.5,-56.5 1181.5,-56.5"/>
<text text-anchor="middle" x="1204.5" y="-63.5" font-family="Helvetica,sans-Serif" font-size="10.00">cstdint</text>
</g>
<!-- Node2&#45;&gt;Node4 -->
<g id="edge3" class="edge"><title>Node2&#45;&gt;Node4</title>
<path fill="none" stroke="midnightblue" d="M565.067,-184.881C582.973,-167.491 626.452,-128.464 671.5,-112 764.059,-78.1731 1069.5,-69.5049 1171.21,-67.5299"/>
<polygon fill="midnightblue" stroke="midnightblue" points="1171.3,-71.0291 1181.23,-67.3446 1171.17,-64.0303 1171.3,-71.0291"/>
</g>
<!-- Node5 -->
<g id="node5" class="node"><title>Node5</title>
<polygon fill="none" stroke="#bfbfbf" points="681,-118 681,-137 764,-137 764,-118 681,-118"/>
<text text-anchor="middle" x="722.5" y="-125" font-family="Helvetica,sans-Serif" font-size="10.00">unordered_map</text>
</g>
<!-- Node2&#45;&gt;Node5 -->
<g id="edge4" class="edge"><title>Node2&#45;&gt;Node5</title>
<path fill="none" stroke="midnightblue" d="M578.544,-184.869C607.397,-173.571 658.153,-153.696 691.041,-140.818"/>
<polygon fill="midnightblue" stroke="midnightblue" points="692.594,-143.969 700.63,-137.064 690.042,-137.451 692.594,-143.969"/>
</g>
<!-- Node6 -->
<g id="node6" class="node"><title>Node6</title>
<polygon fill="none" stroke="#bfbfbf" points="447,-112.5 447,-142.5 548,-142.5 548,-112.5 447,-112.5"/>
<text text-anchor="start" x="455" y="-130.5" font-family="Helvetica,sans-Serif" font-size="10.00">boost/property_tree</text>
<text text-anchor="middle" x="497.5" y="-119.5" font-family="Helvetica,sans-Serif" font-size="10.00">/ptree.hpp</text>
</g>
<!-- Node2&#45;&gt;Node6 -->
<g id="edge5" class="edge"><title>Node2&#45;&gt;Node6</title>
<path fill="none" stroke="midnightblue" d="M548.543,-184.734C540.569,-175.949 527.979,-162.078 517.298,-150.311"/>
<polygon fill="midnightblue" stroke="midnightblue" points="519.601,-147.641 510.288,-142.589 514.418,-152.346 519.601,-147.641"/>
</g>
<!-- Node13&#45;&gt;Node2 -->
<g id="edge39" class="edge"><title>Node13&#45;&gt;Node2</title>
<path fill="none" stroke="midnightblue" d="M844.885,-249.763C788.662,-242.744 689.248,-228.941 605.5,-210 601.363,-209.064 597.062,-207.972 592.802,-206.815"/>
<polygon fill="midnightblue" stroke="midnightblue" points="593.612,-203.407 583.036,-204.039 591.698,-210.14 593.612,-203.407"/>
</g>
<!-- Node13&#45;&gt;Node3 -->
<g id="edge17" class="edge"><title>Node13&#45;&gt;Node3</title>
<path fill="none" stroke="midnightblue" d="M860.014,-246.464C834.732,-238.603 797.715,-225.782 767.5,-210 721.382,-185.911 708.914,-179.157 671.5,-143 652.861,-124.988 635.626,-100.449 625.095,-84.1851"/>
<polygon fill="midnightblue" stroke="midnightblue" points="628.015,-82.2546 619.709,-75.6773 622.101,-85.9987 628.015,-82.2546"/>
</g>
<!-- Node13&#45;&gt;Node5 -->
<g id="edge18" class="edge"><title>Node13&#45;&gt;Node5</title>
<path fill="none" stroke="midnightblue" d="M869.284,-246.364C851.416,-238.262 825.073,-225.146 804.5,-210 777.969,-190.467 751.749,-162.477 736.349,-144.905"/>
<polygon fill="midnightblue" stroke="midnightblue" points="738.885,-142.486 729.704,-137.199 733.583,-147.058 738.885,-142.486"/>
</g>
<!-- Node14 -->
<g id="node14" class="node"><title>Node14</title>
<polygon fill="none" stroke="#bfbfbf" points="979.5,-185 979.5,-204 1029.5,-204 1029.5,-185 979.5,-185"/>
<text text-anchor="middle" x="1004.5" y="-192" font-family="Helvetica,sans-Serif" font-size="10.00">iomanip</text>
</g>
<!-- Node13&#45;&gt;Node14 -->
<g id="edge13" class="edge"><title>Node13&#45;&gt;Node14</title>
<path fill="none" stroke="midnightblue" d="M905.977,-246.475C925.105,-236.578 956.873,-220.142 979.152,-208.615"/>
<polygon fill="midnightblue" stroke="midnightblue" points="980.781,-211.713 988.054,-204.009 977.564,-205.496 980.781,-211.713"/>
</g>
<!-- Node15 -->
<g id="node15" class="node"><title>Node15</title>
<polygon fill="none" stroke="#bfbfbf" points="1136.5,-118 1136.5,-137 1190.5,-137 1190.5,-118 1136.5,-118"/>
<text text-anchor="middle" x="1163.5" y="-125" font-family="Helvetica,sans-Serif" font-size="10.00">iostream</text>
</g>
<!-- Node13&#45;&gt;Node15 -->
<g id="edge14" class="edge"><title>Node13&#45;&gt;Node15</title>
<path fill="none" stroke="midnightblue" d="M934.114,-255.893C1016.26,-256.477 1186.43,-252.397 1223.5,-210 1242.97,-187.735 1210.89,-159.513 1186.64,-142.795"/>
<polygon fill="midnightblue" stroke="midnightblue" points="1188.44,-139.789 1178.17,-137.188 1184.58,-145.626 1188.44,-139.789"/>
</g>
<!-- Node16 -->
<g id="node16" class="node"><title>Node16</title>
<polygon fill="none" stroke="#bfbfbf" points="1047.5,-185 1047.5,-204 1091.5,-204 1091.5,-185 1047.5,-185"/>
<text text-anchor="middle" x="1069.5" y="-192" font-family="Helvetica,sans-Serif" font-size="10.00">mutex</text>
</g>
<!-- Node13&#45;&gt;Node16 -->
<g id="edge15" class="edge"><title>Node13&#45;&gt;Node16</title>
<path fill="none" stroke="midnightblue" d="M922.806,-246.423C953.31,-238.22 999.507,-224.918 1038.5,-210 1039.92,-209.456 1041.37,-208.876 1042.82,-208.271"/>
<polygon fill="midnightblue" stroke="midnightblue" points="1044.58,-211.322 1052.31,-204.077 1041.75,-204.92 1044.58,-211.322"/>
</g>
<!-- Node17 -->
<g id="node17" class="node"><title>Node17</title>
<polygon fill="none" stroke="#bfbfbf" points="1321,-118 1321,-137 1380,-137 1380,-118 1321,-118"/>
<text text-anchor="middle" x="1350.5" y="-125" font-family="Helvetica,sans-Serif" font-size="10.00">stdexcept</text>
</g>
<!-- Node13&#45;&gt;Node17 -->
<g id="edge16" class="edge"><title>Node13&#45;&gt;Node17</title>
<path fill="none" stroke="midnightblue" d="M934.085,-252.097C1015.71,-246.321 1185.79,-232.018 1240.5,-210 1278.29,-194.793 1314.78,-163.419 1334.78,-144.341"/>
<polygon fill="midnightblue" stroke="midnightblue" points="1337.35,-146.719 1342.06,-137.23 1332.46,-141.71 1337.35,-146.719"/>
</g>
<!-- Node18 -->
<g id="node18" class="node"><title>Node18</title>
<polygon fill="none" stroke="#bfbfbf" points="1110,-179.5 1110,-209.5 1215,-209.5 1215,-179.5 1110,-179.5"/>
<text text-anchor="start" x="1118" y="-197.5" font-family="Helvetica,sans-Serif" font-size="10.00">boost/chrono/io/time</text>
<text text-anchor="middle" x="1162.5" y="-186.5" font-family="Helvetica,sans-Serif" font-size="10.00">_point_io.hpp</text>
</g>
<!-- Node13&#45;&gt;Node18 -->
<g id="edge19" class="edge"><title>Node13&#45;&gt;Node18</title>
<path fill="none" stroke="midnightblue" d="M930.792,-246.444C971.287,-237.996 1035.04,-224.55 1099.78,-210.137"/>
<polygon fill="midnightblue" stroke="midnightblue" points="1100.75,-213.505 1109.75,-207.911 1099.23,-206.674 1100.75,-213.505"/>
</g>
<!-- Node19 -->
<g id="node19" class="node"><title>Node19</title>
<g id="a_node19"><a xlink:href="multibuf_8hpp.html" target="_top" xlink:title="multibuf.hpp">
<polygon fill="none" stroke="black" points="813.5,-185 813.5,-204 883.5,-204 883.5,-185 813.5,-185"/>
<text text-anchor="middle" x="848.5" y="-192" font-family="Helvetica,sans-Serif" font-size="10.00">multibuf.hpp</text>
</a>
</g>
</g>
<!-- Node13&#45;&gt;Node19 -->
<g id="edge20" class="edge"><title>Node13&#45;&gt;Node19</title>
<path fill="none" stroke="midnightblue" d="M883.626,-246.475C877.537,-237.638 867.855,-223.589 860.197,-212.475"/>
<polygon fill="midnightblue" stroke="midnightblue" points="862.92,-210.258 854.363,-204.009 857.156,-214.229 862.92,-210.258"/>
</g>
<!-- Node22 -->
<g id="node22" class="node"><title>Node22</title>
<g id="a_node22"><a xlink:href="string_8hpp.html" target="_top" xlink:title="string.hpp">
<polygon fill="none" stroke="black" points="902,-185 902,-204 961,-204 961,-185 902,-185"/>
<text text-anchor="middle" x="931.5" y="-192" font-family="Helvetica,sans-Serif" font-size="10.00">string.hpp</text>
</a>
</g>
</g>
<!-- Node13&#45;&gt;Node22 -->
<g id="edge25" class="edge"><title>Node13&#45;&gt;Node22</title>
<path fill="none" stroke="midnightblue" d="M895.518,-246.475C901.755,-237.638 911.673,-223.589 919.518,-212.475"/>
<polygon fill="midnightblue" stroke="midnightblue" points="922.586,-214.197 925.494,-204.009 916.867,-210.16 922.586,-214.197"/>
</g>
<!-- Node19&#45;&gt;Node3 -->
<g id="edge24" class="edge"><title>Node19&#45;&gt;Node3</title>
<path fill="none" stroke="midnightblue" d="M850.817,-184.574C854.533,-167.999 859.691,-132.311 841.5,-112 815.752,-83.2512 700.805,-72.3085 645.041,-68.6374"/>
<polygon fill="midnightblue" stroke="midnightblue" points="645.234,-65.1427 635.036,-68.0154 644.8,-72.1293 645.234,-65.1427"/>
</g>
<!-- Node19&#45;&gt;Node15 -->
<g id="edge21" class="edge"><title>Node19&#45;&gt;Node15</title>
<path fill="none" stroke="midnightblue" d="M872.041,-184.945C878.601,-182.78 885.774,-180.614 892.5,-179 994.819,-154.449 1024.9,-170.363 1126.5,-143 1129.1,-142.301 1131.76,-141.479 1134.41,-140.587"/>
<polygon fill="midnightblue" stroke="midnightblue" points="1135.61,-143.873 1143.8,-137.149 1133.21,-137.3 1135.61,-143.873"/>
</g>
<!-- Node20 -->
<g id="node20" class="node"><title>Node20</title>
<polygon fill="none" stroke="#bfbfbf" points="782.5,-118 782.5,-137 832.5,-137 832.5,-118 782.5,-118"/>
<text text-anchor="middle" x="807.5" y="-125" font-family="Helvetica,sans-Serif" font-size="10.00">fstream</text>
</g>
<!-- Node19&#45;&gt;Node20 -->
<g id="edge22" class="edge"><title>Node19&#45;&gt;Node20</title>
<path fill="none" stroke="midnightblue" d="M842.971,-184.734C836.7,-174.793 826.321,-158.338 818.405,-145.789"/>
<polygon fill="midnightblue" stroke="midnightblue" points="821.237,-143.718 812.942,-137.127 815.317,-147.453 821.237,-143.718"/>
</g>
<!-- Node21 -->
<g id="node21" class="node"><title>Node21</title>
<polygon fill="none" stroke="#bfbfbf" points="888.5,-118 888.5,-137 932.5,-137 932.5,-118 888.5,-118"/>
<text text-anchor="middle" x="910.5" y="-125" font-family="Helvetica,sans-Serif" font-size="10.00">vector</text>
</g>
<!-- Node19&#45;&gt;Node21 -->
<g id="edge23" class="edge"><title>Node19&#45;&gt;Node21</title>
<path fill="none" stroke="midnightblue" d="M856.862,-184.734C866.623,-174.5 882.968,-157.364 895.055,-144.692"/>
<polygon fill="midnightblue" stroke="midnightblue" points="897.901,-146.779 902.271,-137.127 892.836,-141.948 897.901,-146.779"/>
</g>
<!-- Node22&#45;&gt;Node3 -->
<g id="edge30" class="edge"><title>Node22&#45;&gt;Node3</title>
<path fill="none" stroke="midnightblue" d="M936.435,-184.634C944.868,-168.159 959.486,-132.631 941.5,-112 903.184,-68.0505 719.167,-65.5378 645.291,-66.356"/>
<polygon fill="midnightblue" stroke="midnightblue" points="645.171,-62.8572 635.221,-66.4963 645.269,-69.8565 645.171,-62.8572"/>
</g>
<!-- Node22&#45;&gt;Node4 -->
<g id="edge26" class="edge"><title>Node22&#45;&gt;Node4</title>
<path fill="none" stroke="midnightblue" d="M952.302,-184.89C958.117,-182.725 964.49,-180.573 970.5,-179 1020.34,-165.959 1164.75,-181.032 1199.5,-143 1213.47,-127.705 1212.22,-102.664 1209.14,-85.5355"/>
<polygon fill="midnightblue" stroke="midnightblue" points="1212.52,-84.6402 1206.99,-75.6045 1205.68,-86.1181 1212.52,-84.6402"/>
</g>
<!-- Node22&#45;&gt;Node5 -->
<g id="edge32" class="edge"><title>Node22&#45;&gt;Node5</title>
<path fill="none" stroke="midnightblue" d="M909.318,-184.959C903.845,-182.933 897.981,-180.831 892.5,-179 868.303,-170.918 804.198,-152.139 761.991,-139.898"/>
<polygon fill="midnightblue" stroke="midnightblue" points="762.873,-136.509 752.294,-137.088 760.925,-143.233 762.873,-136.509"/>
</g>
<!-- Node22&#45;&gt;Node17 -->
<g id="edge29" class="edge"><title>Node22&#45;&gt;Node17</title>
<path fill="none" stroke="midnightblue" d="M951.445,-184.99C957.472,-182.719 964.171,-180.486 970.5,-179 1118.86,-144.172 1163.14,-177.828 1311.5,-143 1314.57,-142.28 1317.72,-141.385 1320.84,-140.395"/>
<polygon fill="midnightblue" stroke="midnightblue" points="1322.26,-143.605 1330.56,-137.01 1319.96,-136.995 1322.26,-143.605"/>
</g>
<!-- Node22&#45;&gt;Node21 -->
<g id="edge33" class="edge"><title>Node22&#45;&gt;Node21</title>
<path fill="none" stroke="midnightblue" d="M928.668,-184.734C925.551,-175.085 920.451,-159.3 916.447,-146.906"/>
<polygon fill="midnightblue" stroke="midnightblue" points="919.692,-145.567 913.287,-137.127 913.031,-147.719 919.692,-145.567"/>
</g>
<!-- Node23 -->
<g id="node23" class="node"><title>Node23</title>
<polygon fill="none" stroke="#bfbfbf" points="1059,-118 1059,-137 1118,-137 1118,-118 1059,-118"/>
<text text-anchor="middle" x="1088.5" y="-125" font-family="Helvetica,sans-Serif" font-size="10.00">functional</text>
</g>
<!-- Node22&#45;&gt;Node23 -->
<g id="edge27" class="edge"><title>Node22&#45;&gt;Node23</title>
<path fill="none" stroke="midnightblue" d="M952.348,-184.869C979.444,-173.65 1026.96,-153.977 1058.08,-141.092"/>
<polygon fill="midnightblue" stroke="midnightblue" points="1059.66,-144.226 1067.57,-137.167 1056.99,-137.759 1059.66,-144.226"/>
</g>
<!-- Node24 -->
<g id="node24" class="node"><title>Node24</title>
<polygon fill="none" stroke="#bfbfbf" points="988.5,-118 988.5,-137 1040.5,-137 1040.5,-118 988.5,-118"/>
<text text-anchor="middle" x="1014.5" y="-125" font-family="Helvetica,sans-Serif" font-size="10.00">memory</text>
</g>
<!-- Node22&#45;&gt;Node24 -->
<g id="edge28" class="edge"><title>Node22&#45;&gt;Node24</title>
<path fill="none" stroke="midnightblue" d="M942.694,-184.734C956.134,-174.208 978.9,-156.379 995.196,-143.617"/>
<polygon fill="midnightblue" stroke="midnightblue" points="997.769,-146.049 1003.48,-137.127 993.453,-140.537 997.769,-146.049"/>
</g>
<!-- Node25 -->
<g id="node25" class="node"><title>Node25</title>
<polygon fill="none" stroke="#bfbfbf" points="376.5,-118 376.5,-137 428.5,-137 428.5,-118 376.5,-118"/>
<text text-anchor="middle" x="402.5" y="-125" font-family="Helvetica,sans-Serif" font-size="10.00">sstream</text>
</g>
<!-- Node22&#45;&gt;Node25 -->
<g id="edge31" class="edge"><title>Node22&#45;&gt;Node25</title>
<path fill="none" stroke="midnightblue" d="M911.579,-184.886C905.553,-182.611 898.848,-180.403 892.5,-179 694.423,-135.235 634.738,-190.403 437.5,-143 434.982,-142.395 432.41,-141.633 429.862,-140.776"/>
<polygon fill="midnightblue" stroke="midnightblue" points="430.895,-137.425 420.304,-137.139 428.405,-143.967 430.895,-137.425"/>
</g>
<!-- Node26 -->
<g id="node26" class="node"><title>Node26</title>
<g id="a_node26"><a xlink:href="color_8hpp.html" target="_top" xlink:title="color.hpp">
<polygon fill="none" stroke="black" points="1246.5,-118 1246.5,-137 1302.5,-137 1302.5,-118 1246.5,-118"/>
<text text-anchor="middle" x="1274.5" y="-125" font-family="Helvetica,sans-Serif" font-size="10.00">color.hpp</text>
</a>
</g>
</g>
<!-- Node22&#45;&gt;Node26 -->
<g id="edge34" class="edge"><title>Node22&#45;&gt;Node26</title>
<path fill="none" stroke="midnightblue" d="M951.878,-184.964C957.8,-182.747 964.335,-180.55 970.5,-179 1084.49,-150.347 1118.18,-170.309 1232.5,-143 1235.9,-142.187 1239.42,-141.206 1242.9,-140.143"/>
<polygon fill="midnightblue" stroke="midnightblue" points="1244.09,-143.437 1252.51,-137 1241.91,-136.785 1244.09,-143.437"/>
</g>
<!-- Node26&#45;&gt;Node3 -->
<g id="edge36" class="edge"><title>Node26&#45;&gt;Node3</title>
<path fill="none" stroke="midnightblue" d="M1246.49,-120.296C1232.45,-117.388 1215.14,-114.106 1199.5,-112 988.695,-83.6088 732.559,-71.5935 645.306,-68.129"/>
<polygon fill="midnightblue" stroke="midnightblue" points="645.183,-64.6217 635.055,-67.7308 644.911,-71.6164 645.183,-64.6217"/>
</g>
<!-- Node26&#45;&gt;Node4 -->
<g id="edge35" class="edge"><title>Node26&#45;&gt;Node4</title>
<path fill="none" stroke="midnightblue" d="M1264.47,-117.975C1253.45,-108.608 1235.54,-93.3839 1222.16,-82.0081"/>
<polygon fill="midnightblue" stroke="midnightblue" points="1224.4,-79.3188 1214.51,-75.5091 1219.86,-84.6524 1224.4,-79.3188"/>
</g>
<!-- Node27 -->
<g id="node27" class="node"><title>Node27</title>
<g id="a_node27"><a xlink:href="math_8hpp.html" target="_top" xlink:title="math.hpp">
<polygon fill="none" stroke="black" points="1246,-56.5 1246,-75.5 1303,-75.5 1303,-56.5 1246,-56.5"/>
<text text-anchor="middle" x="1274.5" y="-63.5" font-family="Helvetica,sans-Serif" font-size="10.00">math.hpp</text>
</a>
</g>
</g>
<!-- Node26&#45;&gt;Node27 -->
<g id="edge37" class="edge"><title>Node26&#45;&gt;Node27</title>
<path fill="none" stroke="midnightblue" d="M1274.5,-117.975C1274.5,-109.58 1274.5,-96.4806 1274.5,-85.6631"/>
<polygon fill="midnightblue" stroke="midnightblue" points="1278,-85.5091 1274.5,-75.5091 1271,-85.5091 1278,-85.5091"/>
</g>
<!-- Node28 -->
<g id="node28" class="node"><title>Node28</title>
<polygon fill="none" stroke="#bfbfbf" points="658.5,-0.5 658.5,-19.5 714.5,-19.5 714.5,-0.5 658.5,-0.5"/>
<text text-anchor="middle" x="686.5" y="-7.5" font-family="Helvetica,sans-Serif" font-size="10.00">algorithm</text>
</g>
<!-- Node27&#45;&gt;Node28 -->
<g id="edge38" class="edge"><title>Node27&#45;&gt;Node28</title>
<path fill="none" stroke="midnightblue" d="M1245.96,-57.7523C1242.78,-57.0911 1239.58,-56.4879 1236.5,-56 1046,-25.825 814.99,-15.2802 724.989,-12.1521"/>
<polygon fill="midnightblue" stroke="midnightblue" points="724.837,-8.64511 714.725,-11.8066 724.602,-15.6411 724.837,-8.64511"/>
</g>
<!-- Node29&#45;&gt;Node3 -->
<g id="edge45" class="edge"><title>Node29&#45;&gt;Node3</title>
<path fill="none" stroke="midnightblue" d="M415.291,-313.553C318.807,-304.909 87.0763,-273.933 155.5,-179 206.473,-108.279 489.237,-77.7845 583.737,-69.4715"/>
<polygon fill="midnightblue" stroke="midnightblue" points="584.136,-72.9502 593.8,-68.6081 583.537,-65.9758 584.136,-72.9502"/>
</g>
<!-- Node29&#45;&gt;Node6 -->
<g id="edge46" class="edge"><title>Node29&#45;&gt;Node6</title>
<path fill="none" stroke="midnightblue" d="M458.06,-307.969C461.017,-297.966 465.931,-280.862 469.5,-266 478.991,-226.476 488.004,-180.063 493.131,-152.531"/>
<polygon fill="midnightblue" stroke="midnightblue" points="496.586,-153.094 494.959,-142.625 489.702,-151.824 496.586,-153.094"/>
</g>
<!-- Node29&#45;&gt;Node13 -->
<g id="edge47" class="edge"><title>Node29&#45;&gt;Node13</title>
<path fill="none" stroke="midnightblue" d="M495.552,-311.009C573.568,-300.313 746,-276.673 834.596,-264.527"/>
<polygon fill="midnightblue" stroke="midnightblue" points="835.282,-267.966 844.714,-263.14 834.332,-261.031 835.282,-267.966"/>
</g>
<!-- Node29&#45;&gt;Node20 -->
<g id="edge41" class="edge"><title>Node29&#45;&gt;Node20</title>
<path fill="none" stroke="midnightblue" d="M471.539,-307.934C527.431,-278.083 713.914,-178.483 782.182,-142.022"/>
<polygon fill="midnightblue" stroke="midnightblue" points="784.195,-144.915 791.366,-137.117 780.897,-138.741 784.195,-144.915"/>
</g>
<!-- Node29&#45;&gt;Node25 -->
<g id="edge44" class="edge"><title>Node29&#45;&gt;Node25</title>
<path fill="none" stroke="midnightblue" d="M453.085,-307.934C445.014,-279.306 418.86,-186.53 407.663,-146.814"/>
<polygon fill="midnightblue" stroke="midnightblue" points="411.011,-145.792 404.929,-137.117 404.274,-147.691 411.011,-145.792"/>
</g>
<!-- Node30 -->
<g id="node30" class="node"><title>Node30</title>
<polygon fill="none" stroke="#bfbfbf" points="0,-246.5 0,-265.5 49,-265.5 49,-246.5 0,-246.5"/>
<text text-anchor="middle" x="24.5" y="-253.5" font-family="Helvetica,sans-Serif" font-size="10.00">istream</text>
</g>
<!-- Node29&#45;&gt;Node30 -->
<g id="edge42" class="edge"><title>Node29&#45;&gt;Node30</title>
<path fill="none" stroke="midnightblue" d="M415.376,-313.282C345.012,-307.233 194.7,-292.511 59.4053,-266.158"/>
<polygon fill="midnightblue" stroke="midnightblue" points="59.7664,-262.662 49.2777,-264.157 58.41,-269.529 59.7664,-262.662"/>
</g>
<!-- Node31 -->
<g id="node31" class="node"><title>Node31</title>
<polygon fill="none" stroke="#bfbfbf" points="67,-246.5 67,-265.5 108,-265.5 108,-246.5 67,-246.5"/>
<text text-anchor="middle" x="87.5" y="-253.5" font-family="Helvetica,sans-Serif" font-size="10.00">stack</text>
</g>
<!-- Node29&#45;&gt;Node31 -->
<g id="edge43" class="edge"><title>Node29&#45;&gt;Node31</title>
<path fill="none" stroke="midnightblue" d="M415.287,-311.737C352.461,-303.995 227.35,-287.374 122.5,-266 121.04,-265.702 119.55,-265.382 118.047,-265.047"/>
<polygon fill="midnightblue" stroke="midnightblue" points="118.688,-261.602 108.148,-262.679 117.059,-268.41 118.688,-261.602"/>
</g>
<!-- Node32 -->
<g id="node32" class="node"><title>Node32</title>
<g id="a_node32"><a xlink:href="string__functions_8hpp.html" target="_top" xlink:title="string_functions.hpp">
<polygon fill="none" stroke="black" points="296.5,-246.5 296.5,-265.5 400.5,-265.5 400.5,-246.5 296.5,-246.5"/>
<text text-anchor="middle" x="348.5" y="-253.5" font-family="Helvetica,sans-Serif" font-size="10.00">string_functions.hpp</text>
</a>
</g>
</g>
<!-- Node29&#45;&gt;Node32 -->
<g id="edge48" class="edge"><title>Node29&#45;&gt;Node32</title>
<path fill="none" stroke="midnightblue" d="M440.17,-307.975C422.53,-298.166 393.34,-281.935 372.642,-270.425"/>
<polygon fill="midnightblue" stroke="midnightblue" points="374.243,-267.31 363.802,-265.509 370.841,-273.428 374.243,-267.31"/>
</g>
<!-- Node32&#45;&gt;Node2 -->
<g id="edge55" class="edge"><title>Node32&#45;&gt;Node2</title>
<path fill="none" stroke="midnightblue" d="M378.301,-246.475C414.753,-236.048 476.58,-218.362 516.974,-206.807"/>
<polygon fill="midnightblue" stroke="midnightblue" points="518.102,-210.124 526.754,-204.009 516.177,-203.394 518.102,-210.124"/>
</g>
<!-- Node32&#45;&gt;Node3 -->
<g id="edge53" class="edge"><title>Node32&#45;&gt;Node3</title>
<path fill="none" stroke="midnightblue" d="M351.29,-246.479C354.106,-237.507 358.336,-222.919 360.5,-210 364.107,-188.467 352.925,-128.256 367.5,-112 395.783,-80.4556 523.545,-70.87 583.392,-68.0834"/>
<polygon fill="midnightblue" stroke="midnightblue" points="583.896,-71.565 593.737,-67.6384 583.595,-64.5714 583.896,-71.565"/>
</g>
<!-- Node32&#45;&gt;Node25 -->
<g id="edge52" class="edge"><title>Node32&#45;&gt;Node25</title>
<path fill="none" stroke="midnightblue" d="M361.147,-246.249C371.729,-238.164 386.23,-225.139 393.5,-210 403.013,-190.19 404.326,-164.635 403.869,-147.468"/>
<polygon fill="midnightblue" stroke="midnightblue" points="407.345,-146.908 403.348,-137.096 400.354,-147.259 407.345,-146.908"/>
</g>
<!-- Node32&#45;&gt;Node28 -->
<g id="edge49" class="edge"><title>Node32&#45;&gt;Node28</title>
<path fill="none" stroke="midnightblue" d="M296.392,-252.702C227.186,-247.614 117.81,-231.293 155.5,-179 215.062,-96.3621 536.291,-35.9483 648.104,-17.1562"/>
<polygon fill="midnightblue" stroke="midnightblue" points="648.964,-20.5613 658.255,-15.4682 647.816,-13.6561 648.964,-20.5613"/>
</g>
<!-- Node33 -->
<g id="node33" class="node"><title>Node33</title>
<polygon fill="none" stroke="#bfbfbf" points="165,-185 165,-204 212,-204 212,-185 165,-185"/>
<text text-anchor="middle" x="188.5" y="-192" font-family="Helvetica,sans-Serif" font-size="10.00">iterator</text>
</g>
<!-- Node32&#45;&gt;Node33 -->
<g id="edge50" class="edge"><title>Node32&#45;&gt;Node33</title>
<path fill="none" stroke="midnightblue" d="M321.772,-246.361C295.701,-237.757 255.038,-223.866 220.5,-210 219.085,-209.432 217.641,-208.837 216.188,-208.225"/>
<polygon fill="midnightblue" stroke="midnightblue" points="217.222,-204.857 206.657,-204.059 214.419,-211.271 217.222,-204.857"/>
</g>
<!-- Node34 -->
<g id="node34" class="node"><title>Node34</title>
<polygon fill="none" stroke="#bfbfbf" points="230,-185 230,-204 271,-204 271,-185 230,-185"/>
<text text-anchor="middle" x="250.5" y="-192" font-family="Helvetica,sans-Serif" font-size="10.00">regex</text>
</g>
<!-- Node32&#45;&gt;Node34 -->
<g id="edge51" class="edge"><title>Node32&#45;&gt;Node34</title>
<path fill="none" stroke="midnightblue" d="M334.459,-246.475C318.449,-236.755 292.05,-220.727 273.126,-209.237"/>
<polygon fill="midnightblue" stroke="midnightblue" points="274.879,-206.207 264.515,-204.009 271.246,-212.191 274.879,-206.207"/>
</g>
<!-- Node35 -->
<g id="node35" class="node"><title>Node35</title>
<polygon fill="none" stroke="#bfbfbf" points="289.5,-185 289.5,-204 351.5,-204 351.5,-185 289.5,-185"/>
<text text-anchor="middle" x="320.5" y="-192" font-family="Helvetica,sans-Serif" font-size="10.00">type_traits</text>
</g>
<!-- Node32&#45;&gt;Node35 -->
<g id="edge54" class="edge"><title>Node32&#45;&gt;Node35</title>
<path fill="none" stroke="midnightblue" d="M344.488,-246.475C340.413,-237.815 333.982,-224.149 328.804,-213.145"/>
<polygon fill="midnightblue" stroke="midnightblue" points="331.929,-211.567 324.504,-204.009 325.595,-214.548 331.929,-211.567"/>
</g>
</g>
</svg>
