<?xml version="1.0" encoding="UTF-8" standalone="no"?>
<!DOCTYPE svg PUBLIC "-//W3C//DTD SVG 1.1//EN"
 "http://www.w3.org/Graphics/SVG/1.1/DTD/svg11.dtd">
<!-- Generated by graphviz version 2.38.0 (20140413.2041)
 -->
<!-- Title: src/settings.hpp Pages: 1 -->
<svg width="1097pt" height="364pt"
 viewBox="0.00 0.00 1096.50 364.00" xmlns="http://www.w3.org/2000/svg" xmlns:xlink="http://www.w3.org/1999/xlink">
<g id="graph0" class="graph" transform="scale(1 1) rotate(0) translate(4 360)">
<title>src/settings.hpp</title>
<!-- Node1 -->
<g id="node1" class="node"><title>Node1</title>
<polygon fill="#bfbfbf" stroke="black" points="685.5,-336.5 685.5,-355.5 771.5,-355.5 771.5,-336.5 685.5,-336.5"/>
<text text-anchor="middle" x="728.5" y="-343.5" font-family="Helvetica,sans-Serif" font-size="10.00">src/settings.hpp</text>
</g>
<!-- Node2 -->
<g id="node2" class="node"><title>Node2</title>
<g id="a_node2"><a xlink:href="logger_8hpp.html" target="_top" xlink:title="src/string/logger.hpp">
<polygon fill="none" stroke="black" points="598,-280.5 598,-299.5 703,-299.5 703,-280.5 598,-280.5"/>
<text text-anchor="middle" x="650.5" y="-287.5" font-family="Helvetica,sans-Serif" font-size="10.00">src/string/logger.hpp</text>
</a>
</g>
</g>
<!-- Node1&#45;&gt;Node2 -->
<g id="edge1" class="edge"><title>Node1&#45;&gt;Node2</title>
<path fill="none" stroke="midnightblue" d="M707.732,-330.622C693.483,-320.757 675.044,-307.992 663.001,-299.655"/>
<polygon fill="midnightblue" stroke="midnightblue" points="705.754,-333.51 715.968,-336.324 709.738,-327.754 705.754,-333.51"/>
</g>
<!-- Node6 -->
<g id="node6" class="node"><title>Node6</title>
<g id="a_node6"><a xlink:href="melanobot_8hpp.html" target="_top" xlink:title="src/melanobot.hpp">
<polygon fill="none" stroke="black" points="808,-168.5 808,-187.5 905,-187.5 905,-168.5 808,-168.5"/>
<text text-anchor="middle" x="856.5" y="-175.5" font-family="Helvetica,sans-Serif" font-size="10.00">src/melanobot.hpp</text>
</a>
</g>
</g>
<!-- Node1&#45;&gt;Node6 -->
<g id="edge32" class="edge"><title>Node1&#45;&gt;Node6</title>
<path fill="none" stroke="midnightblue" d="M781.755,-336.508C833.132,-325.179 908.16,-299.646 943.5,-244 960.329,-217.5 918.466,-197.975 887.137,-187.562"/>
<polygon fill="midnightblue" stroke="midnightblue" points="780.884,-333.115 771.813,-338.59 782.318,-339.966 780.884,-333.115"/>
</g>
<!-- Node8 -->
<g id="node8" class="node"><title>Node8</title>
<g id="a_node8"><a xlink:href="handler_8hpp.html" target="_top" xlink:title="src/handler/handler.hpp">
<polygon fill="none" stroke="black" points="596.5,-112.5 596.5,-131.5 714.5,-131.5 714.5,-112.5 596.5,-112.5"/>
<text text-anchor="middle" x="655.5" y="-119.5" font-family="Helvetica,sans-Serif" font-size="10.00">src/handler/handler.hpp</text>
</a>
</g>
</g>
<!-- Node1&#45;&gt;Node8 -->
<g id="edge33" class="edge"><title>Node1&#45;&gt;Node8</title>
<path fill="none" stroke="midnightblue" d="M675.165,-341.701C563.356,-333.558 310.444,-308.292 258.5,-244 252.914,-237.086 253.044,-231.018 258.5,-224 264.175,-216.701 522.71,-154.587 619.461,-131.551"/>
<polygon fill="midnightblue" stroke="midnightblue" points="674.991,-345.198 685.213,-342.415 675.486,-338.215 674.991,-345.198"/>
</g>
<!-- Node13 -->
<g id="node13" class="node"><title>Node13</title>
<g id="a_node13"><a xlink:href="irc_8hpp.html" target="_top" xlink:title="src/network/irc.hpp">
<polygon fill="none" stroke="black" points="949.5,-112.5 949.5,-131.5 1049.5,-131.5 1049.5,-112.5 949.5,-112.5"/>
<text text-anchor="middle" x="999.5" y="-119.5" font-family="Helvetica,sans-Serif" font-size="10.00">src/network/irc.hpp</text>
</a>
</g>
</g>
<!-- Node1&#45;&gt;Node13 -->
<g id="edge34" class="edge"><title>Node1&#45;&gt;Node13</title>
<path fill="none" stroke="midnightblue" d="M781.969,-339.601C820.05,-333.964 871.379,-322.614 911.5,-300 966.888,-268.781 983.771,-249.34 1000.5,-188 1005.85,-168.401 1003.18,-144.228 1001.13,-131.603"/>
<polygon fill="midnightblue" stroke="midnightblue" points="781.023,-336.199 771.6,-341.044 781.987,-343.132 781.023,-336.199"/>
</g>
<!-- Node15 -->
<g id="node15" class="node"><title>Node15</title>
<g id="a_node15"><a xlink:href="main_8cpp.html" target="_top" xlink:title="src/main.cpp">
<polygon fill="none" stroke="black" points="733,-112.5 733,-131.5 806,-131.5 806,-112.5 733,-112.5"/>
<text text-anchor="middle" x="769.5" y="-119.5" font-family="Helvetica,sans-Serif" font-size="10.00">src/main.cpp</text>
</a>
</g>
</g>
<!-- Node1&#45;&gt;Node15 -->
<g id="edge36" class="edge"><title>Node1&#45;&gt;Node15</title>
<path fill="none" stroke="midnightblue" d="M731.954,-326.295C740.386,-280.644 761.77,-164.854 767.859,-131.884"/>
<polygon fill="midnightblue" stroke="midnightblue" points="728.482,-325.828 730.107,-336.297 735.365,-327.099 728.482,-325.828"/>
</g>
<!-- Node20 -->
<g id="node20" class="node"><title>Node20</title>
<g id="a_node20"><a xlink:href="settings_8cpp.html" target="_top" xlink:title="src/settings.cpp">
<polygon fill="none" stroke="black" points="82.5,-168.5 82.5,-187.5 168.5,-187.5 168.5,-168.5 82.5,-168.5"/>
<text text-anchor="middle" x="125.5" y="-175.5" font-family="Helvetica,sans-Serif" font-size="10.00">src/settings.cpp</text>
</a>
</g>
</g>
<!-- Node1&#45;&gt;Node20 -->
<g id="edge35" class="edge"><title>Node1&#45;&gt;Node20</title>
<path fill="none" stroke="midnightblue" d="M675.084,-344.464C539.192,-342.599 188.3,-334.463 149.5,-300 116.516,-270.702 121.075,-210.205 124.114,-187.691"/>
<polygon fill="midnightblue" stroke="midnightblue" points="675.213,-347.966 685.258,-344.597 675.305,-340.966 675.213,-347.966"/>
</g>
<!-- Node3 -->
<g id="node3" class="node"><title>Node3</title>
<g id="a_node3"><a xlink:href="string_8cpp.html" target="_top" xlink:title="src/string/string.cpp">
<polygon fill="none" stroke="black" points="268,-224.5 268,-243.5 371,-243.5 371,-224.5 268,-224.5"/>
<text text-anchor="middle" x="319.5" y="-231.5" font-family="Helvetica,sans-Serif" font-size="10.00">src/string/string.cpp</text>
</a>
</g>
</g>
<!-- Node2&#45;&gt;Node3 -->
<g id="edge2" class="edge"><title>Node2&#45;&gt;Node3</title>
<path fill="none" stroke="midnightblue" d="M587.89,-278.786C525.15,-268.55 429.711,-252.98 371.158,-243.428"/>
<polygon fill="midnightblue" stroke="midnightblue" points="587.619,-282.288 598.052,-280.444 588.746,-275.379 587.619,-282.288"/>
</g>
<!-- Node4 -->
<g id="node4" class="node"><title>Node4</title>
<g id="a_node4"><a xlink:href="logger_8cpp.html" target="_top" xlink:title="src/string/logger.cpp">
<polygon fill="none" stroke="black" points="560,-224.5 560,-243.5 665,-243.5 665,-224.5 560,-224.5"/>
<text text-anchor="middle" x="612.5" y="-231.5" font-family="Helvetica,sans-Serif" font-size="10.00">src/string/logger.cpp</text>
</a>
</g>
</g>
<!-- Node2&#45;&gt;Node4 -->
<g id="edge3" class="edge"><title>Node2&#45;&gt;Node4</title>
<path fill="none" stroke="midnightblue" d="M638.435,-271.855C631.855,-262.505 623.989,-251.327 618.658,-243.751"/>
<polygon fill="midnightblue" stroke="midnightblue" points="635.608,-273.919 644.225,-280.083 641.332,-269.891 635.608,-273.919"/>
</g>
<!-- Node5 -->
<g id="node5" class="node"><title>Node5</title>
<g id="a_node5"><a xlink:href="connection_8hpp.html" target="_top" xlink:title="src/network/connection.hpp">
<polygon fill="none" stroke="black" points="798,-224.5 798,-243.5 935,-243.5 935,-224.5 798,-224.5"/>
<text text-anchor="middle" x="866.5" y="-231.5" font-family="Helvetica,sans-Serif" font-size="10.00">src/network/connection.hpp</text>
</a>
</g>
</g>
<!-- Node2&#45;&gt;Node5 -->
<g id="edge4" class="edge"><title>Node2&#45;&gt;Node5</title>
<path fill="none" stroke="midnightblue" d="M694.664,-277.959C735.461,-267.76 795.213,-252.822 832.434,-243.516"/>
<polygon fill="midnightblue" stroke="midnightblue" points="693.578,-274.623 684.726,-280.444 695.276,-281.414 693.578,-274.623"/>
</g>
<!-- Node2&#45;&gt;Node8 -->
<g id="edge18" class="edge"><title>Node2&#45;&gt;Node8</title>
<path fill="none" stroke="midnightblue" d="M661.922,-271.442C666.483,-263.419 671.193,-253.582 673.5,-244 683.492,-202.497 666.697,-151.574 659.019,-131.608"/>
<polygon fill="midnightblue" stroke="midnightblue" points="658.808,-269.827 656.605,-280.191 664.789,-273.463 658.808,-269.827"/>
</g>
<!-- Node2&#45;&gt;Node13 -->
<g id="edge28" class="edge"><title>Node2&#45;&gt;Node13</title>
<path fill="none" stroke="midnightblue" d="M713.437,-286.212C788.476,-281.73 908.196,-270.554 943.5,-244 981.608,-215.337 994.647,-154.454 998.287,-131.764"/>
<polygon fill="midnightblue" stroke="midnightblue" points="712.942,-282.735 703.158,-286.801 713.342,-289.723 712.942,-282.735"/>
</g>
<!-- Node14 -->
<g id="node14" class="node"><title>Node14</title>
<g id="a_node14"><a xlink:href="irc_8cpp.html" target="_top" xlink:title="src/network/irc.cpp">
<polygon fill="none" stroke="black" points="988.5,-56.5 988.5,-75.5 1088.5,-75.5 1088.5,-56.5 988.5,-56.5"/>
<text text-anchor="middle" x="1038.5" y="-63.5" font-family="Helvetica,sans-Serif" font-size="10.00">src/network/irc.cpp</text>
</a>
</g>
</g>
<!-- Node2&#45;&gt;Node14 -->
<g id="edge29" class="edge"><title>Node2&#45;&gt;Node14</title>
<path fill="none" stroke="midnightblue" d="M713.705,-285.474C793.455,-280.1 925.305,-267.866 967.5,-244 1023.33,-212.424 1037.04,-192.441 1058.5,-132 1065.53,-112.195 1053.12,-88.5065 1044.9,-75.9099"/>
<polygon fill="midnightblue" stroke="midnightblue" points="713.041,-282.01 703.291,-286.157 713.499,-288.995 713.041,-282.01"/>
</g>
<!-- Node2&#45;&gt;Node15 -->
<g id="edge31" class="edge"><title>Node2&#45;&gt;Node15</title>
<path fill="none" stroke="midnightblue" d="M665.476,-272.761C672.963,-264.388 682.001,-253.883 689.5,-244 720.099,-203.677 751.965,-152.081 764.246,-131.772"/>
<polygon fill="midnightblue" stroke="midnightblue" points="662.746,-270.562 658.621,-280.321 667.931,-275.264 662.746,-270.562"/>
</g>
<!-- Node16 -->
<g id="node16" class="node"><title>Node16</title>
<g id="a_node16"><a xlink:href="async__service_8hpp.html" target="_top" xlink:title="src/network/async_service.hpp">
<polygon fill="none" stroke="black" points="389.5,-224.5 389.5,-243.5 541.5,-243.5 541.5,-224.5 389.5,-224.5"/>
<text text-anchor="middle" x="465.5" y="-231.5" font-family="Helvetica,sans-Serif" font-size="10.00">src/network/async_service.hpp</text>
</a>
</g>
</g>
<!-- Node2&#45;&gt;Node16 -->
<g id="edge19" class="edge"><title>Node2&#45;&gt;Node16</title>
<path fill="none" stroke="midnightblue" d="M611.334,-277.568C576.435,-267.381 526.151,-252.703 494.677,-243.516"/>
<polygon fill="midnightblue" stroke="midnightblue" points="610.606,-281.001 621.186,-280.444 612.567,-274.282 610.606,-281.001"/>
</g>
<!-- Node18 -->
<g id="node18" class="node"><title>Node18</title>
<g id="a_node18"><a xlink:href="http_8cpp.html" target="_top" xlink:title="src/network/http.cpp">
<polygon fill="none" stroke="black" points="186.5,-112.5 186.5,-131.5 292.5,-131.5 292.5,-112.5 186.5,-112.5"/>
<text text-anchor="middle" x="239.5" y="-119.5" font-family="Helvetica,sans-Serif" font-size="10.00">src/network/http.cpp</text>
</a>
</g>
</g>
<!-- Node2&#45;&gt;Node18 -->
<g id="edge27" class="edge"><title>Node2&#45;&gt;Node18</title>
<path fill="none" stroke="midnightblue" d="M587.524,-285.901C482.746,-280.144 281.762,-266.317 258.5,-244 226.89,-213.674 233.849,-153.804 237.774,-131.574"/>
<polygon fill="midnightblue" stroke="midnightblue" points="587.487,-289.404 597.661,-286.449 587.865,-282.414 587.487,-289.404"/>
</g>
<!-- Node19 -->
<g id="node19" class="node"><title>Node19</title>
<g id="a_node19"><a xlink:href="json_8hpp.html" target="_top" xlink:title="src/string/json.hpp">
<polygon fill="none" stroke="black" points="0,-224.5 0,-243.5 97,-243.5 97,-224.5 0,-224.5"/>
<text text-anchor="middle" x="48.5" y="-231.5" font-family="Helvetica,sans-Serif" font-size="10.00">src/string/json.hpp</text>
</a>
</g>
</g>
<!-- Node2&#45;&gt;Node19 -->
<g id="edge24" class="edge"><title>Node2&#45;&gt;Node19</title>
<path fill="none" stroke="midnightblue" d="M587.697,-283.366C467.193,-272.557 205.869,-249.116 97.3122,-239.378"/>
<polygon fill="midnightblue" stroke="midnightblue" points="587.594,-286.871 597.867,-284.279 588.22,-279.899 587.594,-286.871"/>
</g>
<!-- Node2&#45;&gt;Node20 -->
<g id="edge30" class="edge"><title>Node2&#45;&gt;Node20</title>
<path fill="none" stroke="midnightblue" d="M587.709,-285.953C486.153,-280.423 290.654,-267.116 225.5,-244 188.813,-230.984 152.079,-202.03 135.153,-187.567"/>
<polygon fill="midnightblue" stroke="midnightblue" points="587.658,-289.455 597.831,-286.495 588.032,-282.465 587.658,-289.455"/>
</g>
<!-- Node5&#45;&gt;Node6 -->
<g id="edge5" class="edge"><title>Node5&#45;&gt;Node6</title>
<path fill="none" stroke="midnightblue" d="M863,-214.101C861.34,-205.136 859.437,-194.858 858.121,-187.751"/>
<polygon fill="midnightblue" stroke="midnightblue" points="859.586,-214.888 864.849,-224.083 866.469,-213.613 859.586,-214.888"/>
</g>
<!-- Node5&#45;&gt;Node8 -->
<g id="edge16" class="edge"><title>Node5&#45;&gt;Node8</title>
<path fill="none" stroke="midnightblue" d="M841.055,-219.735C797.223,-196.884 708.654,-150.711 671.98,-131.591"/>
<polygon fill="midnightblue" stroke="midnightblue" points="839.458,-222.849 849.943,-224.368 842.694,-216.642 839.458,-222.849"/>
</g>
<!-- Node5&#45;&gt;Node13 -->
<g id="edge17" class="edge"><title>Node5&#45;&gt;Node13</title>
<path fill="none" stroke="midnightblue" d="M884.859,-217.816C913.186,-194.387 966.625,-150.19 989.112,-131.591"/>
<polygon fill="midnightblue" stroke="midnightblue" points="882.412,-215.298 876.936,-224.368 886.873,-220.692 882.412,-215.298"/>
</g>
<!-- Node7 -->
<g id="node7" class="node"><title>Node7</title>
<g id="a_node7"><a xlink:href="melanobot_8cpp.html" target="_top" xlink:title="src/melanobot.cpp">
<polygon fill="none" stroke="black" points="755,-56.5 755,-75.5 852,-75.5 852,-56.5 755,-56.5"/>
<text text-anchor="middle" x="803.5" y="-63.5" font-family="Helvetica,sans-Serif" font-size="10.00">src/melanobot.cpp</text>
</a>
</g>
</g>
<!-- Node6&#45;&gt;Node7 -->
<g id="edge6" class="edge"><title>Node6&#45;&gt;Node7</title>
<path fill="none" stroke="midnightblue" d="M847.981,-159.32C836.442,-135.37 816.292,-93.5484 807.64,-75.5914"/>
<polygon fill="midnightblue" stroke="midnightblue" points="844.847,-160.879 852.341,-168.368 851.154,-157.84 844.847,-160.879"/>
</g>
<!-- Node6&#45;&gt;Node8 -->
<g id="edge7" class="edge"><title>Node6&#45;&gt;Node8</title>
<path fill="none" stroke="midnightblue" d="M814.919,-165.829C776.969,-155.633 721.69,-140.782 687.2,-131.516"/>
<polygon fill="midnightblue" stroke="midnightblue" points="814.085,-169.229 824.651,-168.444 815.902,-162.469 814.085,-169.229"/>
</g>
<!-- Node6&#45;&gt;Node13 -->
<g id="edge13" class="edge"><title>Node6&#45;&gt;Node13</title>
<path fill="none" stroke="midnightblue" d="M888.527,-164.906C915.412,-154.754 953.141,-140.506 976.947,-131.516"/>
<polygon fill="midnightblue" stroke="midnightblue" points="887.278,-161.636 879.159,-168.444 889.75,-168.185 887.278,-161.636"/>
</g>
<!-- Node6&#45;&gt;Node15 -->
<g id="edge15" class="edge"><title>Node6&#45;&gt;Node15</title>
<path fill="none" stroke="midnightblue" d="M833.784,-162.901C817.831,-152.999 797.003,-140.071 783.443,-131.655"/>
<polygon fill="midnightblue" stroke="midnightblue" points="832.18,-166.024 842.522,-168.324 835.871,-160.077 832.18,-166.024"/>
</g>
<!-- Node8&#45;&gt;Node7 -->
<g id="edge8" class="edge"><title>Node8&#45;&gt;Node7</title>
<path fill="none" stroke="midnightblue" d="M688.647,-108.906C716.472,-98.7536 755.52,-84.5063 780.159,-75.5164"/>
<polygon fill="midnightblue" stroke="midnightblue" points="687.146,-105.728 678.951,-112.444 689.545,-112.304 687.146,-105.728"/>
</g>
<!-- Node9 -->
<g id="node9" class="node"><title>Node9</title>
<g id="a_node9"><a xlink:href="web-api_8hpp.html" target="_top" xlink:title="src/handler/web&#45;api.hpp">
<polygon fill="none" stroke="black" points="260.5,-56.5 260.5,-75.5 380.5,-75.5 380.5,-56.5 260.5,-56.5"/>
<text text-anchor="middle" x="320.5" y="-63.5" font-family="Helvetica,sans-Serif" font-size="10.00">src/handler/web&#45;api.hpp</text>
</a>
</g>
</g>
<!-- Node8&#45;&gt;Node9 -->
<g id="edge9" class="edge"><title>Node8&#45;&gt;Node9</title>
<path fill="none" stroke="midnightblue" d="M592.164,-110.791C528.864,-100.587 432.651,-85.078 373.333,-75.5164"/>
<polygon fill="midnightblue" stroke="midnightblue" points="591.989,-114.307 602.418,-112.444 593.103,-107.397 591.989,-114.307"/>
</g>
<!-- Node11 -->
<g id="node11" class="node"><title>Node11</title>
<g id="a_node11"><a xlink:href="simple_8cpp.html" target="_top" xlink:title="src/handler/simple.cpp">
<polygon fill="none" stroke="black" points="474,-56.5 474,-75.5 589,-75.5 589,-56.5 474,-56.5"/>
<text text-anchor="middle" x="531.5" y="-63.5" font-family="Helvetica,sans-Serif" font-size="10.00">src/handler/simple.cpp</text>
</a>
</g>
</g>
<!-- Node8&#45;&gt;Node11 -->
<g id="edge11" class="edge"><title>Node8&#45;&gt;Node11</title>
<path fill="none" stroke="midnightblue" d="M626.493,-108.368C603.271,-98.2553 571.337,-84.3486 551.056,-75.5164"/>
<polygon fill="midnightblue" stroke="midnightblue" points="625.286,-111.66 635.852,-112.444 628.081,-105.242 625.286,-111.66"/>
</g>
<!-- Node12 -->
<g id="node12" class="node"><title>Node12</title>
<g id="a_node12"><a xlink:href="handler_8cpp.html" target="_top" xlink:title="src/handler/handler.cpp">
<polygon fill="none" stroke="black" points="607.5,-56.5 607.5,-75.5 725.5,-75.5 725.5,-56.5 607.5,-56.5"/>
<text text-anchor="middle" x="666.5" y="-63.5" font-family="Helvetica,sans-Serif" font-size="10.00">src/handler/handler.cpp</text>
</a>
</g>
</g>
<!-- Node8&#45;&gt;Node12 -->
<g id="edge12" class="edge"><title>Node8&#45;&gt;Node12</title>
<path fill="none" stroke="midnightblue" d="M659.35,-102.101C661.176,-93.1357 663.27,-82.8579 664.717,-75.7511"/>
<polygon fill="midnightblue" stroke="midnightblue" points="655.883,-101.586 657.316,-112.083 662.742,-102.983 655.883,-101.586"/>
</g>
<!-- Node10 -->
<g id="node10" class="node"><title>Node10</title>
<g id="a_node10"><a xlink:href="web-api_8cpp.html" target="_top" xlink:title="src/handler/web&#45;api.cpp">
<polygon fill="none" stroke="black" points="260.5,-0.5 260.5,-19.5 380.5,-19.5 380.5,-0.5 260.5,-0.5"/>
<text text-anchor="middle" x="320.5" y="-7.5" font-family="Helvetica,sans-Serif" font-size="10.00">src/handler/web&#45;api.cpp</text>
</a>
</g>
</g>
<!-- Node9&#45;&gt;Node10 -->
<g id="edge10" class="edge"><title>Node9&#45;&gt;Node10</title>
<path fill="none" stroke="midnightblue" d="M320.5,-45.8045C320.5,-36.9102 320.5,-26.7798 320.5,-19.7511"/>
<polygon fill="midnightblue" stroke="midnightblue" points="317,-46.083 320.5,-56.083 324,-46.083 317,-46.083"/>
</g>
<!-- Node13&#45;&gt;Node14 -->
<g id="edge14" class="edge"><title>Node13&#45;&gt;Node14</title>
<path fill="none" stroke="midnightblue" d="M1011.88,-103.855C1018.64,-94.5048 1026.71,-83.3265 1032.18,-75.7511"/>
<polygon fill="midnightblue" stroke="midnightblue" points="1008.96,-101.927 1005.94,-112.083 1014.63,-106.025 1008.96,-101.927"/>
</g>
<!-- Node16&#45;&gt;Node15 -->
<g id="edge23" class="edge"><title>Node16&#45;&gt;Node15</title>
<path fill="none" stroke="midnightblue" d="M498.758,-220.966C560.596,-198.59 691.865,-151.092 745.704,-131.61"/>
<polygon fill="midnightblue" stroke="midnightblue" points="497.314,-217.766 489.101,-224.46 499.696,-224.349 497.314,-217.766"/>
</g>
<!-- Node17 -->
<g id="node17" class="node"><title>Node17</title>
<g id="a_node17"><a xlink:href="http_8hpp.html" target="_top" xlink:title="src/network/http.hpp">
<polygon fill="none" stroke="black" points="267.5,-168.5 267.5,-187.5 373.5,-187.5 373.5,-168.5 267.5,-168.5"/>
<text text-anchor="middle" x="320.5" y="-175.5" font-family="Helvetica,sans-Serif" font-size="10.00">src/network/http.hpp</text>
</a>
</g>
</g>
<!-- Node16&#45;&gt;Node17 -->
<g id="edge20" class="edge"><title>Node16&#45;&gt;Node17</title>
<path fill="none" stroke="midnightblue" d="M433.025,-220.906C405.764,-210.754 367.508,-196.506 343.368,-187.516"/>
<polygon fill="midnightblue" stroke="midnightblue" points="431.932,-224.233 442.524,-224.444 434.375,-217.674 431.932,-224.233"/>
</g>
<!-- Node17&#45;&gt;Node9 -->
<g id="edge21" class="edge"><title>Node17&#45;&gt;Node9</title>
<path fill="none" stroke="midnightblue" d="M320.5,-158.348C320.5,-134.254 320.5,-93.3079 320.5,-75.5914"/>
<polygon fill="midnightblue" stroke="midnightblue" points="317,-158.368 320.5,-168.368 324,-158.369 317,-158.368"/>
</g>
<!-- Node17&#45;&gt;Node18 -->
<g id="edge22" class="edge"><title>Node17&#45;&gt;Node18</title>
<path fill="none" stroke="midnightblue" d="M298.933,-162.622C284.136,-152.757 264.988,-139.992 252.482,-131.655"/>
<polygon fill="midnightblue" stroke="midnightblue" points="297.224,-165.689 307.486,-168.324 301.107,-159.865 297.224,-165.689"/>
</g>
<!-- Node19&#45;&gt;Node9 -->
<g id="edge25" class="edge"><title>Node19&#45;&gt;Node9</title>
<path fill="none" stroke="midnightblue" d="M51.9762,-214.412C55.4152,-200.312 61.8986,-181.174 73.5,-168 122.413,-112.457 206.463,-86.9047 262.751,-75.5416"/>
<polygon fill="midnightblue" stroke="midnightblue" points="48.5026,-213.918 49.8312,-224.429 55.3475,-215.384 48.5026,-213.918"/>
</g>
<!-- Node19&#45;&gt;Node20 -->
<g id="edge26" class="edge"><title>Node19&#45;&gt;Node20</title>
<path fill="none" stroke="midnightblue" d="M69.401,-218.342C83.4111,-208.517 101.383,-195.913 113.159,-187.655"/>
<polygon fill="midnightblue" stroke="midnightblue" points="67.0491,-215.717 60.8714,-224.324 71.0683,-221.448 67.0491,-215.717"/>
</g>
</g>
</svg>
