<?xml version="1.0" encoding="UTF-8" standalone="no"?>
<!DOCTYPE svg PUBLIC "-//W3C//DTD SVG 1.1//EN"
 "http://www.w3.org/Graphics/SVG/1.1/DTD/svg11.dtd">
<!-- Generated by graphviz version 2.38.0 (20140413.2041)
 -->
<!-- Title: src/settings.cpp Pages: 1 -->
<!--zoomable 341 -->
<svg id="main" version="1.1" xmlns="http://www.w3.org/2000/svg" xmlns:xlink="http://www.w3.org/1999/xlink" xml:space="preserve" onload="init(evt)">
<style type="text/css"><![CDATA[
.edge:hover path { stroke: red; }
.edge:hover polygon { stroke: red; fill: red; }
]]></style>
<script type="text/javascript"><![CDATA[
var edges = document.getElementsByTagName('g');
if (edges && edges.length) {
  for (var i=0;i<edges.length;i++) {
    if (edges[i].id.substr(0,4)=='edge') {
      edges[i].setAttribute('class','edge');
    }
  }
}
]]></script>
        <defs>
                <circle id="rim" cx="0" cy="0" r="7"/>
                <circle id="rim2" cx="0" cy="0" r="3.5"/>
                <g id="zoomPlus">
                        <use xlink:href="#rim" fill="#404040">
                                <set attributeName="fill" to="#808080" begin="zoomplus.mouseover" end="zoomplus.mouseout"/>
                        </use>
                        <path d="M-4,0h8M0,-4v8" fill="none" stroke="white" stroke-width="1.5" pointer-events="none"/>
                </g>
                <g id="zoomMin">
                        <use xlink:href="#rim" fill="#404040">
                                <set attributeName="fill" to="#808080" begin="zoomminus.mouseover" end="zoomminus.mouseout"/>
                        </use>
                        <path d="M-4,0h8" fill="none" stroke="white" stroke-width="1.5" pointer-events="none"/>
                </g>
                <g id="dirArrow">
                        <path fill="none" stroke="white" stroke-width="1.5" d="M0,-3.0v7 M-2.5,-0.5L0,-3.0L2.5,-0.5"/>
                </g>
               <g id="resetDef">
                       <use xlink:href="#rim2" fill="#404040">
                               <set attributeName="fill" to="#808080" begin="reset.mouseover" end="reset.mouseout"/>
                       </use>
               </g>
        </defs>

<script type="text/javascript">
var viewWidth = 1083;
var viewHeight = 341;
var sectionId = 'dynsection-0';
</script>
<script xlink:href="svgpan.js"/>
<svg id="graph" class="graph">
<g id="viewport">
<title>src/settings.cpp</title>
<!-- Node1 -->
<g id="node1" class="node"><title>Node1</title>
<polygon fill="#bfbfbf" stroke="black" points="427.5,-313.5 427.5,-332.5 513.5,-332.5 513.5,-313.5 427.5,-313.5"/>
<text text-anchor="middle" x="470.5" y="-320.5" font-family="Helvetica,sans-Serif" font-size="10.00">src/settings.cpp</text>
</g>
<!-- Node2 -->
<g id="node2" class="node"><title>Node2</title>
<g id="a_node2"><a xlink:href="settings_8hpp.html" target="_top" xlink:title="settings.hpp">
<polygon fill="none" stroke="black" points="197.5,-129 197.5,-148 267.5,-148 267.5,-129 197.5,-129"/>
<text text-anchor="middle" x="232.5" y="-136" font-family="Helvetica,sans-Serif" font-size="10.00">settings.hpp</text>
</a>
</g>
</g>
<!-- Node1&#45;&gt;Node2 -->
<g id="edge1" class="edge"><title>Node1&#45;&gt;Node2</title>
<path fill="none" stroke="midnightblue" d="M427.347,-320.293C329.368,-315.976 96.7752,-303.062 73.5,-277 27.1008,-225.044 138.284,-174.126 197.856,-151.581"/>
<polygon fill="midnightblue" stroke="midnightblue" points="199.129,-154.842 207.29,-148.085 196.696,-148.278 199.129,-154.842"/>
</g>
<!-- Node7 -->
<g id="node7" class="node"><title>Node7</title>
<polygon fill="none" stroke="#bfbfbf" points="0,-0.5 0,-19.5 45,-19.5 45,-0.5 0,-0.5"/>
<text text-anchor="middle" x="22.5" y="-7.5" font-family="Helvetica,sans-Serif" font-size="10.00">cstdlib</text>
</g>
<!-- Node1&#45;&gt;Node7 -->
<g id="edge6" class="edge"><title>Node1&#45;&gt;Node7</title>
<path fill="none" stroke="midnightblue" d="M427.183,-322.201C333.995,-321.86 118.095,-316.675 58.5,-277 26.3754,-255.613 16.5,-239.593 16.5,-201 16.5,-201 16.5,-201 16.5,-137.5 16.5,-99.1593 19.2841,-54.3554 21.0593,-29.684"/>
<polygon fill="midnightblue" stroke="midnightblue" points="24.5591,-29.8152 21.8117,-19.5828 17.5784,-29.2951 24.5591,-29.8152"/>
</g>
<!-- Node8 -->
<g id="node8" class="node"><title>Node8</title>
<polygon fill="none" stroke="#bfbfbf" points="83,-252 83,-271 190,-271 190,-252 83,-252"/>
<text text-anchor="middle" x="136.5" y="-259" font-family="Helvetica,sans-Serif" font-size="10.00">boost/filesystem.hpp</text>
</g>
<!-- Node1&#45;&gt;Node8 -->
<g id="edge7" class="edge"><title>Node1&#45;&gt;Node8</title>
<path fill="none" stroke="midnightblue" d="M427.171,-315.648C373.542,-307.593 279.503,-292.833 199.5,-277 193.716,-275.855 187.654,-274.57 181.67,-273.25"/>
<polygon fill="midnightblue" stroke="midnightblue" points="182.262,-269.795 171.737,-271.014 180.724,-276.625 182.262,-269.795"/>
</g>
<!-- Node9 -->
<g id="node9" class="node"><title>Node9</title>
<polygon fill="none" stroke="#bfbfbf" points="208.5,-252 208.5,-271 342.5,-271 342.5,-252 208.5,-252"/>
<text text-anchor="middle" x="275.5" y="-259" font-family="Helvetica,sans-Serif" font-size="10.00">boost/program_options.hpp</text>
</g>
<!-- Node1&#45;&gt;Node9 -->
<g id="edge8" class="edge"><title>Node1&#45;&gt;Node9</title>
<path fill="none" stroke="midnightblue" d="M442.561,-313.475C408.533,-303.092 350.916,-285.512 313.038,-273.954"/>
<polygon fill="midnightblue" stroke="midnightblue" points="313.973,-270.58 303.387,-271.009 311.93,-277.275 313.973,-270.58"/>
</g>
<!-- Node10 -->
<g id="node10" class="node"><title>Node10</title>
<polygon fill="none" stroke="#bfbfbf" points="361,-246.5 361,-276.5 462,-276.5 462,-246.5 361,-246.5"/>
<text text-anchor="start" x="369" y="-264.5" font-family="Helvetica,sans-Serif" font-size="10.00">boost/property_tree</text>
<text text-anchor="middle" x="411.5" y="-253.5" font-family="Helvetica,sans-Serif" font-size="10.00">/info_parser.hpp</text>
</g>
<!-- Node1&#45;&gt;Node10 -->
<g id="edge9" class="edge"><title>Node1&#45;&gt;Node10</title>
<path fill="none" stroke="midnightblue" d="M462.047,-313.475C454.355,-305.718 442.679,-293.943 432.487,-283.665"/>
<polygon fill="midnightblue" stroke="midnightblue" points="434.932,-281.159 425.405,-276.523 429.961,-286.088 434.932,-281.159"/>
</g>
<!-- Node11 -->
<g id="node11" class="node"><title>Node11</title>
<polygon fill="none" stroke="#bfbfbf" points="480,-246.5 480,-276.5 581,-276.5 581,-246.5 480,-246.5"/>
<text text-anchor="start" x="488" y="-264.5" font-family="Helvetica,sans-Serif" font-size="10.00">boost/property_tree</text>
<text text-anchor="middle" x="530.5" y="-253.5" font-family="Helvetica,sans-Serif" font-size="10.00">/ini_parser.hpp</text>
</g>
<!-- Node1&#45;&gt;Node11 -->
<g id="edge10" class="edge"><title>Node1&#45;&gt;Node11</title>
<path fill="none" stroke="midnightblue" d="M479.097,-313.475C486.919,-305.718 498.792,-293.943 509.158,-283.665"/>
<polygon fill="midnightblue" stroke="midnightblue" points="511.723,-286.05 516.359,-276.523 506.794,-281.079 511.723,-286.05"/>
</g>
<!-- Node12 -->
<g id="node12" class="node"><title>Node12</title>
<polygon fill="none" stroke="#bfbfbf" points="599,-246.5 599,-276.5 700,-276.5 700,-246.5 599,-246.5"/>
<text text-anchor="start" x="607" y="-264.5" font-family="Helvetica,sans-Serif" font-size="10.00">boost/property_tree</text>
<text text-anchor="middle" x="649.5" y="-253.5" font-family="Helvetica,sans-Serif" font-size="10.00">/xml_parser.hpp</text>
</g>
<!-- Node1&#45;&gt;Node12 -->
<g id="edge11" class="edge"><title>Node1&#45;&gt;Node12</title>
<path fill="none" stroke="midnightblue" d="M496.146,-313.475C522.542,-304.701 564.398,-290.788 597.719,-279.712"/>
<polygon fill="midnightblue" stroke="midnightblue" points="598.928,-282.999 607.313,-276.523 596.72,-276.356 598.928,-282.999"/>
</g>
<!-- Node13 -->
<g id="node13" class="node"><title>Node13</title>
<g id="a_node13"><a xlink:href="logger_8hpp.html" target="_top" xlink:title="string/logger.hpp">
<polygon fill="none" stroke="black" points="602,-190.5 602,-209.5 691,-209.5 691,-190.5 602,-190.5"/>
<text text-anchor="middle" x="646.5" y="-197.5" font-family="Helvetica,sans-Serif" font-size="10.00">string/logger.hpp</text>
</a>
</g>
</g>
<!-- Node1&#45;&gt;Node13 -->
<g id="edge12" class="edge"><title>Node1&#45;&gt;Node13</title>
<path fill="none" stroke="midnightblue" d="M513.561,-320.221C575.298,-316.665 684.218,-306.303 708.5,-277 717.291,-266.391 714.758,-258.275 708.5,-246 701.5,-232.27 688.134,-221.75 675.6,-214.346"/>
<polygon fill="midnightblue" stroke="midnightblue" points="677.178,-211.22 666.723,-209.505 673.826,-217.366 677.178,-211.22"/>
</g>
<!-- Node28 -->
<g id="node28" class="node"><title>Node28</title>
<g id="a_node28"><a xlink:href="json_8hpp.html" target="_top" xlink:title="string/json.hpp">
<polygon fill="none" stroke="black" points="756.5,-252 756.5,-271 836.5,-271 836.5,-252 756.5,-252"/>
<text text-anchor="middle" x="796.5" y="-259" font-family="Helvetica,sans-Serif" font-size="10.00">string/json.hpp</text>
</a>
</g>
</g>
<!-- Node1&#45;&gt;Node28 -->
<g id="edge40" class="edge"><title>Node1&#45;&gt;Node28</title>
<path fill="none" stroke="midnightblue" d="M513.618,-316.204C567.464,-308.659 662.271,-294.364 742.5,-277 747.232,-275.976 752.17,-274.8 757.053,-273.572"/>
<polygon fill="midnightblue" stroke="midnightblue" points="758.122,-276.91 766.919,-271.005 756.36,-270.135 758.122,-276.91"/>
</g>
<!-- Node31 -->
<g id="node31" class="node"><title>Node31</title>
<g id="a_node31"><a xlink:href="config_8hpp.html" target="_top" xlink:title="config.hpp">
<polygon fill="none" stroke="black" points="854.5,-252 854.5,-271 916.5,-271 916.5,-252 854.5,-252"/>
<text text-anchor="middle" x="885.5" y="-259" font-family="Helvetica,sans-Serif" font-size="10.00">config.hpp</text>
</a>
</g>
</g>
<!-- Node1&#45;&gt;Node31 -->
<g id="edge48" class="edge"><title>Node1&#45;&gt;Node31</title>
<path fill="none" stroke="midnightblue" d="M513.517,-320.031C583.816,-316.106 727.328,-305.118 845.5,-277 848.563,-276.271 851.715,-275.383 854.841,-274.409"/>
<polygon fill="midnightblue" stroke="midnightblue" points="856.258,-277.624 864.6,-271.094 854.006,-270.996 856.258,-277.624"/>
</g>
<!-- Node3 -->
<g id="node3" class="node"><title>Node3</title>
<polygon fill="none" stroke="#bfbfbf" points="485,-0.5 485,-19.5 526,-19.5 526,-0.5 485,-0.5"/>
<text text-anchor="middle" x="505.5" y="-7.5" font-family="Helvetica,sans-Serif" font-size="10.00">string</text>
</g>
<!-- Node2&#45;&gt;Node3 -->
<g id="edge2" class="edge"><title>Node2&#45;&gt;Node3</title>
<path fill="none" stroke="midnightblue" d="M227.768,-128.664C219.693,-112.241 205.761,-76.7936 223.5,-56 255.503,-18.4847 408.045,-12.1006 474.472,-11.1187"/>
<polygon fill="midnightblue" stroke="midnightblue" points="474.77,-14.6156 484.729,-11.0005 474.69,-7.61609 474.77,-14.6156"/>
</g>
<!-- Node4 -->
<g id="node4" class="node"><title>Node4</title>
<polygon fill="none" stroke="#bfbfbf" points="65.5,-0.5 65.5,-19.5 111.5,-19.5 111.5,-0.5 65.5,-0.5"/>
<text text-anchor="middle" x="88.5" y="-7.5" font-family="Helvetica,sans-Serif" font-size="10.00">cstdint</text>
</g>
<!-- Node2&#45;&gt;Node4 -->
<g id="edge3" class="edge"><title>Node2&#45;&gt;Node4</title>
<path fill="none" stroke="midnightblue" d="M197.283,-137.077C160.821,-134.521 105.49,-124.255 78.5,-87 66.3443,-70.2213 72.6722,-45.742 79.4978,-29.134"/>
<polygon fill="midnightblue" stroke="midnightblue" points="82.7197,-30.5034 83.6511,-19.9495 76.3415,-27.619 82.7197,-30.5034"/>
</g>
<!-- Node5 -->
<g id="node5" class="node"><title>Node5</title>
<polygon fill="none" stroke="#bfbfbf" points="391,-62 391,-81 474,-81 474,-62 391,-62"/>
<text text-anchor="middle" x="432.5" y="-69" font-family="Helvetica,sans-Serif" font-size="10.00">unordered_map</text>
</g>
<!-- Node2&#45;&gt;Node5 -->
<g id="edge4" class="edge"><title>Node2&#45;&gt;Node5</title>
<path fill="none" stroke="midnightblue" d="M259.058,-128.869C294.421,-117.376 357.09,-97.0082 396.627,-84.1586"/>
<polygon fill="midnightblue" stroke="midnightblue" points="397.722,-87.4832 406.15,-81.0637 395.558,-80.826 397.722,-87.4832"/>
</g>
<!-- Node6 -->
<g id="node6" class="node"><title>Node6</title>
<polygon fill="none" stroke="#bfbfbf" points="233,-56.5 233,-86.5 334,-86.5 334,-56.5 233,-56.5"/>
<text text-anchor="start" x="241" y="-74.5" font-family="Helvetica,sans-Serif" font-size="10.00">boost/property_tree</text>
<text text-anchor="middle" x="283.5" y="-63.5" font-family="Helvetica,sans-Serif" font-size="10.00">/ptree.hpp</text>
</g>
<!-- Node2&#45;&gt;Node6 -->
<g id="edge5" class="edge"><title>Node2&#45;&gt;Node6</title>
<path fill="none" stroke="midnightblue" d="M239.378,-128.734C246.204,-120.034 256.945,-106.345 266.12,-94.6511"/>
<polygon fill="midnightblue" stroke="midnightblue" points="269.026,-96.6169 272.446,-86.589 263.519,-92.2959 269.026,-96.6169"/>
</g>
<!-- Node13&#45;&gt;Node2 -->
<g id="edge39" class="edge"><title>Node13&#45;&gt;Node2</title>
<path fill="none" stroke="midnightblue" d="M601.801,-192.576C522.462,-181.173 357.873,-157.519 277.978,-146.036"/>
<polygon fill="midnightblue" stroke="midnightblue" points="278.141,-142.524 267.745,-144.565 277.145,-149.452 278.141,-142.524"/>
</g>
<!-- Node13&#45;&gt;Node3 -->
<g id="edge17" class="edge"><title>Node13&#45;&gt;Node3</title>
<path fill="none" stroke="midnightblue" d="M601.812,-198.134C533.56,-195.76 408.312,-186.912 380.5,-154 371.066,-142.836 362.647,-82.4752 381.5,-56 402.56,-26.4259 445.089,-16.2232 474.421,-12.7412"/>
<polygon fill="midnightblue" stroke="midnightblue" points="474.958,-16.2052 484.566,-11.739 474.27,-9.2391 474.958,-16.2052"/>
</g>
<!-- Node13&#45;&gt;Node5 -->
<g id="edge18" class="edge"><title>Node13&#45;&gt;Node5</title>
<path fill="none" stroke="midnightblue" d="M621.653,-190.366C600.004,-182.356 568.149,-169.374 542.5,-154 523.508,-142.616 521.195,-136.31 503.5,-123 486.94,-110.543 467.772,-96.9572 453.529,-87.0176"/>
<polygon fill="midnightblue" stroke="midnightblue" points="455.167,-83.8935 444.958,-81.0609 451.172,-89.6418 455.167,-83.8935"/>
</g>
<!-- Node14 -->
<g id="node14" class="node"><title>Node14</title>
<polygon fill="none" stroke="#bfbfbf" points="551.5,-129 551.5,-148 601.5,-148 601.5,-129 551.5,-129"/>
<text text-anchor="middle" x="576.5" y="-136" font-family="Helvetica,sans-Serif" font-size="10.00">iomanip</text>
</g>
<!-- Node13&#45;&gt;Node14 -->
<g id="edge13" class="edge"><title>Node13&#45;&gt;Node14</title>
<path fill="none" stroke="midnightblue" d="M636.471,-190.475C625.451,-181.108 607.54,-165.884 594.157,-154.508"/>
<polygon fill="midnightblue" stroke="midnightblue" points="596.397,-151.819 586.511,-148.009 591.863,-157.152 596.397,-151.819"/>
</g>
<!-- Node15 -->
<g id="node15" class="node"><title>Node15</title>
<polygon fill="none" stroke="#bfbfbf" points="887.5,-62 887.5,-81 941.5,-81 941.5,-62 887.5,-62"/>
<text text-anchor="middle" x="914.5" y="-69" font-family="Helvetica,sans-Serif" font-size="10.00">iostream</text>
</g>
<!-- Node13&#45;&gt;Node15 -->
<g id="edge14" class="edge"><title>Node13&#45;&gt;Node15</title>
<path fill="none" stroke="midnightblue" d="M672.925,-190.454C697.752,-182.126 735.736,-168.612 767.5,-154 812.992,-133.073 863.547,-103.582 891.936,-86.4104"/>
<polygon fill="midnightblue" stroke="midnightblue" points="893.954,-89.2797 900.675,-81.0896 890.313,-83.3008 893.954,-89.2797"/>
</g>
<!-- Node16 -->
<g id="node16" class="node"><title>Node16</title>
<polygon fill="none" stroke="#bfbfbf" points="697.5,-129 697.5,-148 741.5,-148 741.5,-129 697.5,-129"/>
<text text-anchor="middle" x="719.5" y="-136" font-family="Helvetica,sans-Serif" font-size="10.00">mutex</text>
</g>
<!-- Node13&#45;&gt;Node16 -->
<g id="edge15" class="edge"><title>Node13&#45;&gt;Node16</title>
<path fill="none" stroke="midnightblue" d="M656.959,-190.475C668.451,-181.108 687.13,-165.884 701.087,-154.508"/>
<polygon fill="midnightblue" stroke="midnightblue" points="703.52,-157.04 709.06,-148.009 699.098,-151.614 703.52,-157.04"/>
</g>
<!-- Node17 -->
<g id="node17" class="node"><title>Node17</title>
<polygon fill="none" stroke="#bfbfbf" points="678,-62 678,-81 737,-81 737,-62 678,-62"/>
<text text-anchor="middle" x="707.5" y="-69" font-family="Helvetica,sans-Serif" font-size="10.00">stdexcept</text>
</g>
<!-- Node13&#45;&gt;Node17 -->
<g id="edge16" class="edge"><title>Node13&#45;&gt;Node17</title>
<path fill="none" stroke="midnightblue" d="M691.055,-191.484C712.886,-185.312 737.268,-174.143 750.5,-154 764.896,-132.085 743.233,-104.825 725.782,-88.0469"/>
<polygon fill="midnightblue" stroke="midnightblue" points="727.952,-85.288 718.206,-81.1324 723.233,-90.4586 727.952,-85.288"/>
</g>
<!-- Node18 -->
<g id="node18" class="node"><title>Node18</title>
<polygon fill="none" stroke="#bfbfbf" points="390,-123.5 390,-153.5 495,-153.5 495,-123.5 390,-123.5"/>
<text text-anchor="start" x="398" y="-141.5" font-family="Helvetica,sans-Serif" font-size="10.00">boost/chrono/io/time</text>
<text text-anchor="middle" x="442.5" y="-130.5" font-family="Helvetica,sans-Serif" font-size="10.00">_point_io.hpp</text>
</g>
<!-- Node13&#45;&gt;Node18 -->
<g id="edge19" class="edge"><title>Node13&#45;&gt;Node18</title>
<path fill="none" stroke="midnightblue" d="M617.272,-190.475C586.932,-181.626 538.667,-167.549 500.538,-156.428"/>
<polygon fill="midnightblue" stroke="midnightblue" points="501.159,-152.963 490.579,-153.523 499.199,-159.683 501.159,-152.963"/>
</g>
<!-- Node19 -->
<g id="node19" class="node"><title>Node19</title>
<g id="a_node19"><a xlink:href="multibuf_8hpp.html" target="_top" xlink:title="multibuf.hpp">
<polygon fill="none" stroke="black" points="911.5,-129 911.5,-148 981.5,-148 981.5,-129 911.5,-129"/>
<text text-anchor="middle" x="946.5" y="-136" font-family="Helvetica,sans-Serif" font-size="10.00">multibuf.hpp</text>
</a>
</g>
</g>
<!-- Node13&#45;&gt;Node19 -->
<g id="edge20" class="edge"><title>Node13&#45;&gt;Node19</title>
<path fill="none" stroke="midnightblue" d="M691.009,-191.296C757.671,-179.715 877.764,-158.674 897.5,-154 901.579,-153.034 905.822,-151.931 910.028,-150.773"/>
<polygon fill="midnightblue" stroke="midnightblue" points="911.031,-154.127 919.685,-148.015 909.108,-147.396 911.031,-154.127"/>
</g>
<!-- Node22 -->
<g id="node22" class="node"><title>Node22</title>
<g id="a_node22"><a xlink:href="string_8hpp.html" target="_top" xlink:title="string.hpp">
<polygon fill="none" stroke="black" points="620,-129 620,-148 679,-148 679,-129 620,-129"/>
<text text-anchor="middle" x="649.5" y="-136" font-family="Helvetica,sans-Serif" font-size="10.00">string.hpp</text>
</a>
</g>
</g>
<!-- Node13&#45;&gt;Node22 -->
<g id="edge25" class="edge"><title>Node13&#45;&gt;Node22</title>
<path fill="none" stroke="midnightblue" d="M646.93,-190.475C647.353,-182.08 648.014,-168.981 648.559,-158.163"/>
<polygon fill="midnightblue" stroke="midnightblue" points="652.063,-158.173 649.071,-148.009 645.072,-157.82 652.063,-158.173"/>
</g>
<!-- Node19&#45;&gt;Node3 -->
<g id="edge24" class="edge"><title>Node19&#45;&gt;Node3</title>
<path fill="none" stroke="midnightblue" d="M950.439,-128.807C957.251,-112.305 968.835,-76.2823 950.5,-56 922.766,-25.3205 633.015,-14.5391 536.547,-11.7845"/>
<polygon fill="midnightblue" stroke="midnightblue" points="536.373,-8.2785 526.28,-11.5011 536.18,-15.2758 536.373,-8.2785"/>
</g>
<!-- Node19&#45;&gt;Node15 -->
<g id="edge21" class="edge"><title>Node19&#45;&gt;Node15</title>
<path fill="none" stroke="midnightblue" d="M942.184,-128.734C937.338,-118.89 929.348,-102.66 923.194,-90.1594"/>
<polygon fill="midnightblue" stroke="midnightblue" points="926.304,-88.5531 918.747,-81.1273 920.024,-91.6449 926.304,-88.5531"/>
</g>
<!-- Node20 -->
<g id="node20" class="node"><title>Node20</title>
<polygon fill="none" stroke="#bfbfbf" points="997.5,-62 997.5,-81 1047.5,-81 1047.5,-62 997.5,-62"/>
<text text-anchor="middle" x="1022.5" y="-69" font-family="Helvetica,sans-Serif" font-size="10.00">fstream</text>
</g>
<!-- Node19&#45;&gt;Node20 -->
<g id="edge22" class="edge"><title>Node19&#45;&gt;Node20</title>
<path fill="none" stroke="midnightblue" d="M956.75,-128.734C968.943,-118.305 989.517,-100.709 1004.41,-87.9732"/>
<polygon fill="midnightblue" stroke="midnightblue" points="1007.09,-90.2869 1012.41,-81.1273 1002.54,-84.9671 1007.09,-90.2869"/>
</g>
<!-- Node21 -->
<g id="node21" class="node"><title>Node21</title>
<polygon fill="none" stroke="#bfbfbf" points="825.5,-62 825.5,-81 869.5,-81 869.5,-62 825.5,-62"/>
<text text-anchor="middle" x="847.5" y="-69" font-family="Helvetica,sans-Serif" font-size="10.00">vector</text>
</g>
<!-- Node19&#45;&gt;Node21 -->
<g id="edge23" class="edge"><title>Node19&#45;&gt;Node21</title>
<path fill="none" stroke="midnightblue" d="M933.148,-128.734C916.746,-117.964 888.699,-99.55 869.188,-86.7395"/>
<polygon fill="midnightblue" stroke="midnightblue" points="870.92,-83.69 860.64,-81.1273 867.078,-89.5415 870.92,-83.69"/>
</g>
<!-- Node22&#45;&gt;Node3 -->
<g id="edge30" class="edge"><title>Node22&#45;&gt;Node3</title>
<path fill="none" stroke="midnightblue" d="M650.008,-128.673C650.459,-112.264 649.043,-76.8399 630.5,-56 606.437,-28.9557 564.895,-18.158 536.351,-13.8511"/>
<polygon fill="midnightblue" stroke="midnightblue" points="536.484,-10.3382 526.111,-12.4978 535.567,-17.2779 536.484,-10.3382"/>
</g>
<!-- Node22&#45;&gt;Node4 -->
<g id="edge26" class="edge"><title>Node22&#45;&gt;Node4</title>
<path fill="none" stroke="midnightblue" d="M629.585,-128.858C623.559,-126.583 616.853,-124.381 610.5,-123 501.859,-99.3905 198.333,-156.429 111.5,-87 94.4614,-73.3766 89.6992,-47.5545 88.5466,-29.8212"/>
<polygon fill="midnightblue" stroke="midnightblue" points="92.0432,-29.6559 88.2177,-19.7758 85.0469,-29.8851 92.0432,-29.6559"/>
</g>
<!-- Node22&#45;&gt;Node5 -->
<g id="edge32" class="edge"><title>Node22&#45;&gt;Node5</title>
<path fill="none" stroke="midnightblue" d="M627.336,-128.902C621.863,-126.878 615.994,-124.791 610.5,-123 554.313,-104.688 539.324,-103.23 482.5,-87 478.945,-85.9846 475.249,-84.9235 471.549,-83.8572"/>
<polygon fill="midnightblue" stroke="midnightblue" points="472.414,-80.4641 461.836,-81.0504 470.471,-87.189 472.414,-80.4641"/>
</g>
<!-- Node22&#45;&gt;Node17 -->
<g id="edge29" class="edge"><title>Node22&#45;&gt;Node17</title>
<path fill="none" stroke="midnightblue" d="M657.322,-128.734C666.453,-118.5 681.744,-101.364 693.051,-88.6924"/>
<polygon fill="midnightblue" stroke="midnightblue" points="695.755,-90.919 699.802,-81.1273 690.532,-86.2585 695.755,-90.919"/>
</g>
<!-- Node22&#45;&gt;Node21 -->
<g id="edge33" class="edge"><title>Node22&#45;&gt;Node21</title>
<path fill="none" stroke="midnightblue" d="M671.664,-128.902C677.137,-126.878 683.006,-124.791 688.5,-123 744.687,-104.688 761.106,-107.588 816.5,-87 817.927,-86.4696 819.379,-85.9001 820.837,-85.3046"/>
<polygon fill="midnightblue" stroke="midnightblue" points="822.583,-88.3607 830.334,-81.1376 819.77,-81.9507 822.583,-88.3607"/>
</g>
<!-- Node23 -->
<g id="node23" class="node"><title>Node23</title>
<polygon fill="none" stroke="#bfbfbf" points="492,-62 492,-81 551,-81 551,-62 492,-62"/>
<text text-anchor="middle" x="521.5" y="-69" font-family="Helvetica,sans-Serif" font-size="10.00">functional</text>
</g>
<!-- Node22&#45;&gt;Node23 -->
<g id="edge27" class="edge"><title>Node22&#45;&gt;Node23</title>
<path fill="none" stroke="midnightblue" d="M632.503,-128.869C610.794,-117.845 573.006,-98.6554 547.627,-85.7678"/>
<polygon fill="midnightblue" stroke="midnightblue" points="549.069,-82.5743 538.568,-81.1672 545.899,-88.8157 549.069,-82.5743"/>
</g>
<!-- Node24 -->
<g id="node24" class="node"><title>Node24</title>
<polygon fill="none" stroke="#bfbfbf" points="569.5,-62 569.5,-81 621.5,-81 621.5,-62 569.5,-62"/>
<text text-anchor="middle" x="595.5" y="-69" font-family="Helvetica,sans-Serif" font-size="10.00">memory</text>
</g>
<!-- Node22&#45;&gt;Node24 -->
<g id="edge28" class="edge"><title>Node22&#45;&gt;Node24</title>
<path fill="none" stroke="midnightblue" d="M642.217,-128.734C633.797,-118.598 619.75,-101.69 609.254,-89.0556"/>
<polygon fill="midnightblue" stroke="midnightblue" points="611.75,-86.5826 602.667,-81.1273 606.365,-91.0558 611.75,-86.5826"/>
</g>
<!-- Node25 -->
<g id="node25" class="node"><title>Node25</title>
<polygon fill="none" stroke="#bfbfbf" points="755.5,-62 755.5,-81 807.5,-81 807.5,-62 755.5,-62"/>
<text text-anchor="middle" x="781.5" y="-69" font-family="Helvetica,sans-Serif" font-size="10.00">sstream</text>
</g>
<!-- Node22&#45;&gt;Node25 -->
<g id="edge31" class="edge"><title>Node22&#45;&gt;Node25</title>
<path fill="none" stroke="midnightblue" d="M667.029,-128.869C689.514,-117.796 728.728,-98.4862 754.901,-85.5978"/>
<polygon fill="midnightblue" stroke="midnightblue" points="756.474,-88.7249 763.899,-81.1672 753.381,-82.445 756.474,-88.7249"/>
</g>
<!-- Node26 -->
<g id="node26" class="node"><title>Node26</title>
<g id="a_node26"><a xlink:href="color_8hpp.html" target="_top" xlink:title="color.hpp">
<polygon fill="none" stroke="black" points="120.5,-62 120.5,-81 176.5,-81 176.5,-62 120.5,-62"/>
<text text-anchor="middle" x="148.5" y="-69" font-family="Helvetica,sans-Serif" font-size="10.00">color.hpp</text>
</a>
</g>
</g>
<!-- Node22&#45;&gt;Node26 -->
<g id="edge34" class="edge"><title>Node22&#45;&gt;Node26</title>
<path fill="none" stroke="midnightblue" d="M629.567,-128.941C623.54,-126.668 616.838,-124.446 610.5,-123 442.087,-84.5683 394.507,-111.424 223.5,-87 211.416,-85.2742 198.327,-82.915 186.517,-80.601"/>
<polygon fill="midnightblue" stroke="midnightblue" points="187.019,-77.132 176.525,-78.5962 185.642,-83.9952 187.019,-77.132"/>
</g>
<!-- Node26&#45;&gt;Node3 -->
<g id="edge38" class="edge"><title>Node26&#45;&gt;Node3</title>
<path fill="none" stroke="midnightblue" d="M170.934,-61.8717C177.196,-59.7064 184.052,-57.5586 190.5,-56 293.156,-31.1869 418.162,-18.3379 474.885,-13.4217"/>
<polygon fill="midnightblue" stroke="midnightblue" points="475.307,-16.8986 484.977,-12.569 474.718,-9.92347 475.307,-16.8986"/>
</g>
<!-- Node26&#45;&gt;Node4 -->
<g id="edge36" class="edge"><title>Node26&#45;&gt;Node4</title>
<path fill="none" stroke="midnightblue" d="M139.903,-61.9751C130.636,-52.785 115.683,-37.9563 104.288,-26.656"/>
<polygon fill="midnightblue" stroke="midnightblue" points="106.646,-24.0653 97.0806,-19.5091 101.717,-29.0358 106.646,-24.0653"/>
</g>
<!-- Node26&#45;&gt;Node7 -->
<g id="edge37" class="edge"><title>Node26&#45;&gt;Node7</title>
<path fill="none" stroke="midnightblue" d="M130.447,-61.9751C109.302,-51.9897 74.0596,-35.3476 49.6218,-23.8075"/>
<polygon fill="midnightblue" stroke="midnightblue" points="51.0563,-20.6143 40.5192,-19.5091 48.0672,-26.9441 51.0563,-20.6143"/>
</g>
<!-- Node27 -->
<g id="node27" class="node"><title>Node27</title>
<polygon fill="none" stroke="#bfbfbf" points="129.5,-0.5 129.5,-19.5 175.5,-19.5 175.5,-0.5 129.5,-0.5"/>
<text text-anchor="middle" x="152.5" y="-7.5" font-family="Helvetica,sans-Serif" font-size="10.00">cctype</text>
</g>
<!-- Node26&#45;&gt;Node27 -->
<g id="edge35" class="edge"><title>Node26&#45;&gt;Node27</title>
<path fill="none" stroke="midnightblue" d="M149.073,-61.9751C149.637,-53.5803 150.518,-40.4806 151.245,-29.6631"/>
<polygon fill="midnightblue" stroke="midnightblue" points="154.749,-29.7214 151.928,-19.5091 147.765,-29.2518 154.749,-29.7214"/>
</g>
<!-- Node28&#45;&gt;Node3 -->
<g id="edge45" class="edge"><title>Node28&#45;&gt;Node3</title>
<path fill="none" stroke="midnightblue" d="M824.159,-251.94C864.901,-239.235 937.441,-216.218 948.5,-210 1021.37,-169.03 1113.16,-117.472 1056.5,-56 1021.09,-17.5809 647.275,-11.962 536.357,-11.1405"/>
<polygon fill="midnightblue" stroke="midnightblue" points="536.196,-7.6395 526.173,-11.0734 536.149,-14.6394 536.196,-7.6395"/>
</g>
<!-- Node28&#45;&gt;Node6 -->
<g id="edge46" class="edge"><title>Node28&#45;&gt;Node6</title>
<path fill="none" stroke="midnightblue" d="M756.439,-253.275C663.54,-236.085 436.195,-191.395 368.5,-154 341.342,-138.998 316.512,-113.142 300.794,-94.5727"/>
<polygon fill="midnightblue" stroke="midnightblue" points="303.299,-92.109 294.238,-86.6187 297.898,-96.5614 303.299,-92.109"/>
</g>
<!-- Node28&#45;&gt;Node13 -->
<g id="edge47" class="edge"><title>Node28&#45;&gt;Node13</title>
<path fill="none" stroke="midnightblue" d="M775.009,-251.975C749.39,-241.813 706.39,-224.756 677.255,-213.2"/>
<polygon fill="midnightblue" stroke="midnightblue" points="678.537,-209.943 667.951,-209.509 675.956,-216.45 678.537,-209.943"/>
</g>
<!-- Node28&#45;&gt;Node20 -->
<g id="edge41" class="edge"><title>Node28&#45;&gt;Node20</title>
<path fill="none" stroke="midnightblue" d="M824.525,-251.995C866.177,-238.009 944.442,-206.361 990.5,-154 1006.46,-135.852 1014.94,-108.808 1019.07,-90.9193"/>
<polygon fill="midnightblue" stroke="midnightblue" points="1022.5,-91.6291 1021.11,-81.1255 1015.65,-90.2016 1022.5,-91.6291"/>
</g>
<!-- Node28&#45;&gt;Node25 -->
<g id="edge44" class="edge"><title>Node28&#45;&gt;Node25</title>
<path fill="none" stroke="midnightblue" d="M803.389,-251.829C810.527,-242.24 821.227,-226.021 825.5,-210 827.791,-201.411 827.084,-198.747 825.5,-190 818.802,-153.011 801.14,-112.497 790.339,-90.0189"/>
<polygon fill="midnightblue" stroke="midnightblue" points="793.477,-88.4676 785.924,-81.0377 787.195,-91.556 793.477,-88.4676"/>
</g>
<!-- Node29 -->
<g id="node29" class="node"><title>Node29</title>
<polygon fill="none" stroke="#bfbfbf" points="709,-190.5 709,-209.5 758,-209.5 758,-190.5 709,-190.5"/>
<text text-anchor="middle" x="733.5" y="-197.5" font-family="Helvetica,sans-Serif" font-size="10.00">istream</text>
</g>
<!-- Node28&#45;&gt;Node29 -->
<g id="edge42" class="edge"><title>Node28&#45;&gt;Node29</title>
<path fill="none" stroke="midnightblue" d="M787.474,-251.975C777.743,-242.785 762.042,-227.956 750.077,-216.656"/>
<polygon fill="midnightblue" stroke="midnightblue" points="752.183,-213.831 742.51,-209.509 747.377,-218.92 752.183,-213.831"/>
</g>
<!-- Node30 -->
<g id="node30" class="node"><title>Node30</title>
<polygon fill="none" stroke="#bfbfbf" points="776,-190.5 776,-209.5 817,-209.5 817,-190.5 776,-190.5"/>
<text text-anchor="middle" x="796.5" y="-197.5" font-family="Helvetica,sans-Serif" font-size="10.00">stack</text>
</g>
<!-- Node28&#45;&gt;Node30 -->
<g id="edge43" class="edge"><title>Node28&#45;&gt;Node30</title>
<path fill="none" stroke="midnightblue" d="M796.5,-251.975C796.5,-243.58 796.5,-230.481 796.5,-219.663"/>
<polygon fill="midnightblue" stroke="midnightblue" points="800,-219.509 796.5,-209.509 793,-219.509 800,-219.509"/>
</g>
</g>
</svg>
        <g id="navigator" transform="translate(0 0)" fill="#404254">
                <rect fill="#f2f5e9" fill-opacity="0.5" stroke="#606060" stroke-width=".5" x="0" y="0" width="60" height="60"/>
                <use id="zoomplus" xlink:href="#zoomPlus" x="17" y="9" onmousedown="handleZoom(evt,'in')"/>
                <use id="zoomminus" xlink:href="#zoomMin" x="42" y="9" onmousedown="handleZoom(evt,'out')"/>
                <use id="reset" xlink:href="#resetDef" x="30" y="36" onmousedown="handleReset()"/>
                <g id="arrowUp" xlink:href="#dirArrow" transform="translate(30 24)" onmousedown="handlePan(0,-1)">
                  <use xlink:href="#rim" fill="#404040">
                        <set attributeName="fill" to="#808080" begin="arrowUp.mouseover" end="arrowUp.mouseout"/>
                  </use>
                  <path fill="none" stroke="white" stroke-width="1.5" d="M0,-3.0v7 M-2.5,-0.5L0,-3.0L2.5,-0.5"/>
                </g>
                <g id="arrowRight" xlink:href="#dirArrow" transform="rotate(90) translate(36 -43)" onmousedown="handlePan(1,0)">
                  <use xlink:href="#rim" fill="#404040">
                        <set attributeName="fill" to="#808080" begin="arrowRight.mouseover" end="arrowRight.mouseout"/>
                  </use>
                  <path fill="none" stroke="white" stroke-width="1.5" d="M0,-3.0v7 M-2.5,-0.5L0,-3.0L2.5,-0.5"/>
                </g>
                <g id="arrowDown" xlink:href="#dirArrow" transform="rotate(180) translate(-30 -48)" onmousedown="handlePan(0,1)">
                  <use xlink:href="#rim" fill="#404040">
                        <set attributeName="fill" to="#808080" begin="arrowDown.mouseover" end="arrowDown.mouseout"/>
                  </use>
                  <path fill="none" stroke="white" stroke-width="1.5" d="M0,-3.0v7 M-2.5,-0.5L0,-3.0L2.5,-0.5"/>
                </g>
                <g id="arrowLeft" xlink:href="#dirArrow" transform="rotate(270) translate(-36 17)" onmousedown="handlePan(-1,0)">
                  <use xlink:href="#rim" fill="#404040">
                        <set attributeName="fill" to="#808080" begin="arrowLeft.mouseover" end="arrowLeft.mouseout"/>
                  </use>
                  <path fill="none" stroke="white" stroke-width="1.5" d="M0,-3.0v7 M-2.5,-0.5L0,-3.0L2.5,-0.5"/>
                </g>
        </g>
        <svg viewBox="0 0 15 15" width="100%" height="30px" preserveAspectRatio="xMaxYMin meet">
         <g id="arrow_out" transform="scale(0.3 0.3)">
          <a xlink:href="settings_8cpp__incl_org.svg" target="_base">
           <rect id="button" ry="5" rx="5" y="6" x="6" height="38" width="38"
                fill="#f2f5e9" fill-opacity="0.5" stroke="#606060" stroke-width="1.0"/>
           <path id="arrow"
             d="M 11.500037,31.436501 C 11.940474,20.09759 22.043105,11.32322 32.158766,21.979434 L 37.068811,17.246167 C 37.068811,17.246167 37.088388,32 37.088388,32 L 22.160133,31.978069 C 22.160133,31.978069 26.997745,27.140456 26.997745,27.140456 C 18.528582,18.264221 13.291696,25.230495 11.500037,31.436501 z"
             style="fill:#404040;"/>
          </a>
         </g>
        </svg>
</svg>
