<?xml version="1.0" encoding="UTF-8" standalone="no"?>
<!DOCTYPE svg PUBLIC "-//W3C//DTD SVG 1.1//EN"
 "http://www.w3.org/Graphics/SVG/1.1/DTD/svg11.dtd">
<!-- Generated by graphviz version 2.38.0 (20140413.2041)
 -->
<!-- Title: src/settings.cpp Pages: 1 -->
<!--zoomable 341 -->
<svg id="main" version="1.1" xmlns="http://www.w3.org/2000/svg" xmlns:xlink="http://www.w3.org/1999/xlink" xml:space="preserve" onload="init(evt)">
<style type="text/css"><![CDATA[
.edge:hover path { stroke: red; }
.edge:hover polygon { stroke: red; fill: red; }
]]></style>
<script type="text/javascript"><![CDATA[
var edges = document.getElementsByTagName('g');
if (edges && edges.length) {
  for (var i=0;i<edges.length;i++) {
    if (edges[i].id.substr(0,4)=='edge') {
      edges[i].setAttribute('class','edge');
    }
  }
}
]]></script>
        <defs>
                <circle id="rim" cx="0" cy="0" r="7"/>
                <circle id="rim2" cx="0" cy="0" r="3.5"/>
                <g id="zoomPlus">
                        <use xlink:href="#rim" fill="#404040">
                                <set attributeName="fill" to="#808080" begin="zoomplus.mouseover" end="zoomplus.mouseout"/>
                        </use>
                        <path d="M-4,0h8M0,-4v8" fill="none" stroke="white" stroke-width="1.5" pointer-events="none"/>
                </g>
                <g id="zoomMin">
                        <use xlink:href="#rim" fill="#404040">
                                <set attributeName="fill" to="#808080" begin="zoomminus.mouseover" end="zoomminus.mouseout"/>
                        </use>
                        <path d="M-4,0h8" fill="none" stroke="white" stroke-width="1.5" pointer-events="none"/>
                </g>
                <g id="dirArrow">
                        <path fill="none" stroke="white" stroke-width="1.5" d="M0,-3.0v7 M-2.5,-0.5L0,-3.0L2.5,-0.5"/>
                </g>
               <g id="resetDef">
                       <use xlink:href="#rim2" fill="#404040">
                               <set attributeName="fill" to="#808080" begin="reset.mouseover" end="reset.mouseout"/>
                       </use>
               </g>
        </defs>

<script type="text/javascript">
var viewWidth = 1583;
var viewHeight = 341;
var sectionId = 'dynsection-0';
</script>
<script xlink:href="svgpan.js"/>
<svg id="graph" class="graph">
<g id="viewport">
<title>src/settings.cpp</title>
<!-- Node1 -->
<g id="node1" class="node"><title>Node1</title>
<polygon fill="#bfbfbf" stroke="black" points="957.153,-313.5 957.153,-332.5 1043.15,-332.5 1043.15,-313.5 957.153,-313.5"/>
<text text-anchor="middle" x="1000.15" y="-320.5" font-family="Helvetica,sans-Serif" font-size="10.00">src/settings.cpp</text>
</g>
<!-- Node2 -->
<g id="node2" class="node"><title>Node2</title>
<g id="a_node2"><a xlink:href="settings_8hpp.html" target="_top" xlink:title="settings.hpp">
<polygon fill="none" stroke="black" points="735.153,-129 735.153,-148 805.153,-148 805.153,-129 735.153,-129"/>
<text text-anchor="middle" x="770.153" y="-136" font-family="Helvetica,sans-Serif" font-size="10.00">settings.hpp</text>
</a>
</g>
</g>
<!-- Node1&#45;&gt;Node2 -->
<g id="edge1" class="edge"><title>Node1&#45;&gt;Node2</title>
<path fill="none" stroke="midnightblue" d="M957.03,-319.899C897.103,-315.973 793.364,-305.192 770.153,-277 742.169,-243.01 754.507,-186.626 763.593,-157.759"/>
<polygon fill="midnightblue" stroke="midnightblue" points="766.955,-158.74 766.825,-148.146 760.32,-156.509 766.955,-158.74"/>
</g>
<!-- Node7 -->
<g id="node7" class="node"><title>Node7</title>
<polygon fill="none" stroke="#bfbfbf" points="114.653,-0.5 114.653,-19.5 159.653,-19.5 159.653,-0.5 114.653,-0.5"/>
<text text-anchor="middle" x="137.153" y="-7.5" font-family="Helvetica,sans-Serif" font-size="10.00">cstdlib</text>
</g>
<!-- Node1&#45;&gt;Node7 -->
<g id="edge6" class="edge"><title>Node1&#45;&gt;Node7</title>
<path fill="none" stroke="midnightblue" d="M956.907,-321.381C765.159,-318.078 1.1531,-298.78 1.1531,-201 1.1531,-201 1.1531,-201 1.1531,-137.5 1.1531,-100.203 -3.45929,-84.0231 21.1531,-56 42.4204,-31.7855 78.2981,-20.511 104.533,-15.3181"/>
<polygon fill="midnightblue" stroke="midnightblue" points="105.184,-18.7573 114.414,-13.5556 103.955,-11.8661 105.184,-18.7573"/>
</g>
<!-- Node8 -->
<g id="node8" class="node"><title>Node8</title>
<polygon fill="none" stroke="#bfbfbf" points="877.653,-252 877.653,-271 984.653,-271 984.653,-252 877.653,-252"/>
<text text-anchor="middle" x="931.153" y="-259" font-family="Helvetica,sans-Serif" font-size="10.00">boost/filesystem.hpp</text>
</g>
<!-- Node1&#45;&gt;Node8 -->
<g id="edge7" class="edge"><title>Node1&#45;&gt;Node8</title>
<path fill="none" stroke="midnightblue" d="M990.267,-313.475C979.507,-304.197 962.082,-289.171 948.932,-277.831"/>
<polygon fill="midnightblue" stroke="midnightblue" points="950.88,-274.889 941.021,-271.009 946.308,-280.19 950.88,-274.889"/>
</g>
<!-- Node9 -->
<g id="node9" class="node"><title>Node9</title>
<polygon fill="none" stroke="#bfbfbf" points="1003.15,-252 1003.15,-271 1137.15,-271 1137.15,-252 1003.15,-252"/>
<text text-anchor="middle" x="1070.15" y="-259" font-family="Helvetica,sans-Serif" font-size="10.00">boost/program_options.hpp</text>
</g>
<!-- Node1&#45;&gt;Node9 -->
<g id="edge8" class="edge"><title>Node1&#45;&gt;Node9</title>
<path fill="none" stroke="midnightblue" d="M1010.18,-313.475C1021.2,-304.108 1039.11,-288.884 1052.5,-277.508"/>
<polygon fill="midnightblue" stroke="midnightblue" points="1054.79,-280.152 1060.14,-271.009 1050.26,-274.819 1054.79,-280.152"/>
</g>
<!-- Node10 -->
<g id="node10" class="node"><title>Node10</title>
<polygon fill="none" stroke="#bfbfbf" points="1155.65,-246.5 1155.65,-276.5 1256.65,-276.5 1256.65,-246.5 1155.65,-246.5"/>
<text text-anchor="start" x="1163.65" y="-264.5" font-family="Helvetica,sans-Serif" font-size="10.00">boost/property_tree</text>
<text text-anchor="middle" x="1206.15" y="-253.5" font-family="Helvetica,sans-Serif" font-size="10.00">/info_parser.hpp</text>
</g>
<!-- Node1&#45;&gt;Node10 -->
<g id="edge9" class="edge"><title>Node1&#45;&gt;Node10</title>
<path fill="none" stroke="midnightblue" d="M1029.67,-313.475C1060.31,-304.626 1109.04,-290.549 1147.55,-279.428"/>
<polygon fill="midnightblue" stroke="midnightblue" points="1148.97,-282.661 1157.6,-276.523 1147.02,-275.935 1148.97,-282.661"/>
</g>
<!-- Node11 -->
<g id="node11" class="node"><title>Node11</title>
<polygon fill="none" stroke="#bfbfbf" points="1274.65,-246.5 1274.65,-276.5 1375.65,-276.5 1375.65,-246.5 1274.65,-246.5"/>
<text text-anchor="start" x="1282.65" y="-264.5" font-family="Helvetica,sans-Serif" font-size="10.00">boost/property_tree</text>
<text text-anchor="middle" x="1325.15" y="-253.5" font-family="Helvetica,sans-Serif" font-size="10.00">/ini_parser.hpp</text>
</g>
<!-- Node1&#45;&gt;Node11 -->
<g id="edge10" class="edge"><title>Node1&#45;&gt;Node11</title>
<path fill="none" stroke="midnightblue" d="M1043.18,-315.715C1093.92,-308.084 1181,-294.301 1264.46,-277.272"/>
<polygon fill="midnightblue" stroke="midnightblue" points="1265.27,-280.68 1274.36,-275.234 1263.86,-273.824 1265.27,-280.68"/>
</g>
<!-- Node12 -->
<g id="node12" class="node"><title>Node12</title>
<polygon fill="none" stroke="#bfbfbf" points="1393.65,-246.5 1393.65,-276.5 1494.65,-276.5 1494.65,-246.5 1393.65,-246.5"/>
<text text-anchor="start" x="1401.65" y="-264.5" font-family="Helvetica,sans-Serif" font-size="10.00">boost/property_tree</text>
<text text-anchor="middle" x="1444.15" y="-253.5" font-family="Helvetica,sans-Serif" font-size="10.00">/xml_parser.hpp</text>
</g>
<!-- Node1&#45;&gt;Node12 -->
<g id="edge11" class="edge"><title>Node1&#45;&gt;Node12</title>
<path fill="none" stroke="midnightblue" d="M1043.43,-318.713C1113.13,-313.032 1254.72,-299.904 1383.36,-277.196"/>
<polygon fill="midnightblue" stroke="midnightblue" points="1384.16,-280.608 1393.39,-275.401 1382.93,-273.718 1384.16,-280.608"/>
</g>
<!-- Node13 -->
<g id="node13" class="node"><title>Node13</title>
<g id="a_node13"><a xlink:href="logger_8hpp.html" target="_top" xlink:title="string/logger.hpp">
<polygon fill="none" stroke="black" points="349.653,-190.5 349.653,-209.5 438.653,-209.5 438.653,-190.5 349.653,-190.5"/>
<text text-anchor="middle" x="394.153" y="-197.5" font-family="Helvetica,sans-Serif" font-size="10.00">string/logger.hpp</text>
</a>
</g>
</g>
<!-- Node1&#45;&gt;Node13 -->
<g id="edge12" class="edge"><title>Node1&#45;&gt;Node13</title>
<path fill="none" stroke="midnightblue" d="M956.754,-315.237C904.517,-306.944 814.202,-292.118 737.153,-277 630.346,-256.043 505.774,-227.373 440.104,-211.927"/>
<polygon fill="midnightblue" stroke="midnightblue" points="440.618,-208.452 430.082,-209.565 439.012,-215.266 440.618,-208.452"/>
</g>
<!-- Node28 -->
<g id="node28" class="node"><title>Node28</title>
<g id="a_node28"><a xlink:href="json_8hpp.html" target="_top" xlink:title="string/json.hpp">
<polygon fill="none" stroke="black" points="779.153,-252 779.153,-271 859.153,-271 859.153,-252 779.153,-252"/>
<text text-anchor="middle" x="819.153" y="-259" font-family="Helvetica,sans-Serif" font-size="10.00">string/json.hpp</text>
</a>
</g>
</g>
<!-- Node1&#45;&gt;Node28 -->
<g id="edge40" class="edge"><title>Node1&#45;&gt;Node28</title>
<path fill="none" stroke="midnightblue" d="M974.22,-313.475C942.903,-303.18 890.063,-285.81 854.897,-274.25"/>
<polygon fill="midnightblue" stroke="midnightblue" points="855.631,-270.807 845.038,-271.009 853.445,-277.457 855.631,-270.807"/>
</g>
<!-- Node36 -->
<g id="node36" class="node"><title>Node36</title>
<g id="a_node36"><a xlink:href="config_8hpp.html" target="_top" xlink:title="config.hpp">
<polygon fill="none" stroke="black" points="1513.15,-252 1513.15,-271 1575.15,-271 1575.15,-252 1513.15,-252"/>
<text text-anchor="middle" x="1544.15" y="-259" font-family="Helvetica,sans-Serif" font-size="10.00">config.hpp</text>
</a>
</g>
</g>
<!-- Node1&#45;&gt;Node36 -->
<g id="edge55" class="edge"><title>Node1&#45;&gt;Node36</title>
<path fill="none" stroke="midnightblue" d="M1043.2,-321.883C1130.98,-320.833 1336.49,-314.213 1504.15,-277 1507.4,-276.28 1510.74,-275.365 1514.04,-274.346"/>
<polygon fill="midnightblue" stroke="midnightblue" points="1515.35,-277.596 1523.7,-271.067 1513.1,-270.968 1515.35,-277.596"/>
</g>
<!-- Node3 -->
<g id="node3" class="node"><title>Node3</title>
<polygon fill="none" stroke="#bfbfbf" points="375.653,-0.5 375.653,-19.5 416.653,-19.5 416.653,-0.5 375.653,-0.5"/>
<text text-anchor="middle" x="396.153" y="-7.5" font-family="Helvetica,sans-Serif" font-size="10.00">string</text>
</g>
<!-- Node2&#45;&gt;Node3 -->
<g id="edge2" class="edge"><title>Node2&#45;&gt;Node3</title>
<path fill="none" stroke="midnightblue" d="M774.483,-128.584C781.825,-112.025 794.247,-76.3628 776.153,-56 764.557,-42.9497 515.736,-20.9858 427.136,-13.5494"/>
<polygon fill="midnightblue" stroke="midnightblue" points="427.172,-10.0402 416.915,-12.6964 426.59,-17.016 427.172,-10.0402"/>
</g>
<!-- Node4 -->
<g id="node4" class="node"><title>Node4</title>
<polygon fill="none" stroke="#bfbfbf" points="556.153,-0.5 556.153,-19.5 602.153,-19.5 602.153,-0.5 556.153,-0.5"/>
<text text-anchor="middle" x="579.153" y="-7.5" font-family="Helvetica,sans-Serif" font-size="10.00">cstdint</text>
</g>
<!-- Node2&#45;&gt;Node4 -->
<g id="edge3" class="edge"><title>Node2&#45;&gt;Node4</title>
<path fill="none" stroke="midnightblue" d="M780.282,-128.899C797.609,-113.166 829.297,-79.2334 810.153,-56 785.51,-26.0926 670.553,-15.7994 612.656,-12.4737"/>
<polygon fill="midnightblue" stroke="midnightblue" points="612.718,-8.97202 602.545,-11.9306 612.342,-15.9619 612.718,-8.97202"/>
</g>
<!-- Node5 -->
<g id="node5" class="node"><title>Node5</title>
<polygon fill="none" stroke="#bfbfbf" points="684.653,-62 684.653,-81 767.653,-81 767.653,-62 684.653,-62"/>
<text text-anchor="middle" x="726.153" y="-69" font-family="Helvetica,sans-Serif" font-size="10.00">unordered_map</text>
</g>
<!-- Node2&#45;&gt;Node5 -->
<g id="edge4" class="edge"><title>Node2&#45;&gt;Node5</title>
<path fill="none" stroke="midnightblue" d="M764.219,-128.734C757.424,-118.695 746.132,-102.014 737.607,-89.4213"/>
<polygon fill="midnightblue" stroke="midnightblue" points="740.497,-87.4464 731.993,-81.1273 734.7,-91.3704 740.497,-87.4464"/>
</g>
<!-- Node6 -->
<g id="node6" class="node"><title>Node6</title>
<polygon fill="none" stroke="#bfbfbf" points="862.653,-56.5 862.653,-86.5 963.653,-86.5 963.653,-56.5 862.653,-56.5"/>
<text text-anchor="start" x="870.653" y="-74.5" font-family="Helvetica,sans-Serif" font-size="10.00">boost/property_tree</text>
<text text-anchor="middle" x="913.153" y="-63.5" font-family="Helvetica,sans-Serif" font-size="10.00">/ptree.hpp</text>
</g>
<!-- Node2&#45;&gt;Node6 -->
<g id="edge5" class="edge"><title>Node2&#45;&gt;Node6</title>
<path fill="none" stroke="midnightblue" d="M789.142,-128.869C810.414,-119.199 845.506,-103.249 872.942,-90.778"/>
<polygon fill="midnightblue" stroke="midnightblue" points="874.636,-93.8524 882.291,-86.5281 871.739,-87.4799 874.636,-93.8524"/>
</g>
<!-- Node13&#45;&gt;Node2 -->
<g id="edge39" class="edge"><title>Node13&#45;&gt;Node2</title>
<path fill="none" stroke="midnightblue" d="M438.875,-193.611C499.45,-186.065 610.849,-171.316 705.153,-154 711.497,-152.835 718.162,-151.49 724.707,-150.097"/>
<polygon fill="midnightblue" stroke="midnightblue" points="725.806,-153.44 734.831,-147.89 724.315,-146.601 725.806,-153.44"/>
</g>
<!-- Node13&#45;&gt;Node3 -->
<g id="edge17" class="edge"><title>Node13&#45;&gt;Node3</title>
<path fill="none" stroke="midnightblue" d="M385.939,-190.451C368.562,-172.543 328.273,-132.002 311.153,-123 244.366,-87.8812 106.49,-113.669 155.153,-56 184.152,-21.6349 305.493,-29.7708 365.768,-19.5093"/>
<polygon fill="midnightblue" stroke="midnightblue" points="366.474,-22.9375 375.586,-17.5318 365.091,-16.0753 366.474,-22.9375"/>
</g>
<!-- Node13&#45;&gt;Node5 -->
<g id="edge18" class="edge"><title>Node13&#45;&gt;Node5</title>
<path fill="none" stroke="midnightblue" d="M438.806,-193.51C480.635,-187.341 544.304,-175.288 596.153,-154 638.73,-136.519 683.053,-105.51 707.37,-87.196"/>
<polygon fill="midnightblue" stroke="midnightblue" points="709.563,-89.9249 715.383,-81.0719 705.312,-84.3631 709.563,-89.9249"/>
</g>
<!-- Node14 -->
<g id="node14" class="node"><title>Node14</title>
<polygon fill="none" stroke="#bfbfbf" points="67.1531,-129 67.1531,-148 117.153,-148 117.153,-129 67.1531,-129"/>
<text text-anchor="middle" x="92.1531" y="-136" font-family="Helvetica,sans-Serif" font-size="10.00">iomanip</text>
</g>
<!-- Node13&#45;&gt;Node14 -->
<g id="edge13" class="edge"><title>Node13&#45;&gt;Node14</title>
<path fill="none" stroke="midnightblue" d="M349.325,-194.753C295.507,-188.908 202.902,-176.464 126.153,-154 124.001,-153.37 121.804,-152.642 119.613,-151.855"/>
<polygon fill="midnightblue" stroke="midnightblue" points="120.799,-148.56 110.213,-148.139 118.226,-155.07 120.799,-148.56"/>
</g>
<!-- Node15 -->
<g id="node15" class="node"><title>Node15</title>
<polygon fill="none" stroke="#bfbfbf" points="30.1531,-62 30.1531,-81 84.1531,-81 84.1531,-62 30.1531,-62"/>
<text text-anchor="middle" x="57.1531" y="-69" font-family="Helvetica,sans-Serif" font-size="10.00">iostream</text>
</g>
<!-- Node13&#45;&gt;Node15 -->
<g id="edge14" class="edge"><title>Node13&#45;&gt;Node15</title>
<path fill="none" stroke="midnightblue" d="M349.644,-199.892C267.218,-200.49 95.7651,-196.457 58.1531,-154 43.1634,-137.079 46.4921,-109.54 51.1141,-91.2235"/>
<polygon fill="midnightblue" stroke="midnightblue" points="54.5328,-91.999 53.9314,-81.4213 47.8052,-90.0654 54.5328,-91.999"/>
</g>
<!-- Node16 -->
<g id="node16" class="node"><title>Node16</title>
<polygon fill="none" stroke="#bfbfbf" points="135.153,-129 135.153,-148 179.153,-148 179.153,-129 135.153,-129"/>
<text text-anchor="middle" x="157.153" y="-136" font-family="Helvetica,sans-Serif" font-size="10.00">mutex</text>
</g>
<!-- Node13&#45;&gt;Node16 -->
<g id="edge15" class="edge"><title>Node13&#45;&gt;Node16</title>
<path fill="none" stroke="midnightblue" d="M349.579,-192.213C307.324,-185.092 242.421,-172.363 188.153,-154 186.489,-153.437 184.796,-152.811 183.103,-152.143"/>
<polygon fill="midnightblue" stroke="midnightblue" points="184.172,-148.792 173.605,-148.024 181.387,-155.214 184.172,-148.792"/>
</g>
<!-- Node17 -->
<g id="node17" class="node"><title>Node17</title>
<polygon fill="none" stroke="#bfbfbf" points="607.653,-62 607.653,-81 666.653,-81 666.653,-62 607.653,-62"/>
<text text-anchor="middle" x="637.153" y="-69" font-family="Helvetica,sans-Serif" font-size="10.00">stdexcept</text>
</g>
<!-- Node13&#45;&gt;Node17 -->
<g id="edge16" class="edge"><title>Node13&#45;&gt;Node17</title>
<path fill="none" stroke="midnightblue" d="M438.879,-194.153C474.625,-188.681 524.901,-177.29 563.153,-154 590.244,-137.505 613.31,-108.145 626.184,-89.5322"/>
<polygon fill="midnightblue" stroke="midnightblue" points="629.152,-91.3897 631.807,-81.1327 623.335,-87.4958 629.152,-91.3897"/>
</g>
<!-- Node18 -->
<g id="node18" class="node"><title>Node18</title>
<polygon fill="none" stroke="#bfbfbf" points="197.653,-123.5 197.653,-153.5 302.653,-153.5 302.653,-123.5 197.653,-123.5"/>
<text text-anchor="start" x="205.653" y="-141.5" font-family="Helvetica,sans-Serif" font-size="10.00">boost/chrono/io/time</text>
<text text-anchor="middle" x="250.153" y="-130.5" font-family="Helvetica,sans-Serif" font-size="10.00">_point_io.hpp</text>
</g>
<!-- Node13&#45;&gt;Node18 -->
<g id="edge19" class="edge"><title>Node13&#45;&gt;Node18</title>
<path fill="none" stroke="midnightblue" d="M373.521,-190.475C352.743,-181.889 320.054,-168.383 293.545,-157.429"/>
<polygon fill="midnightblue" stroke="midnightblue" points="294.67,-154.107 284.091,-153.523 291.997,-160.577 294.67,-154.107"/>
</g>
<!-- Node19 -->
<g id="node19" class="node"><title>Node19</title>
<g id="a_node19"><a xlink:href="multibuf_8hpp.html" target="_top" xlink:title="multibuf.hpp">
<polygon fill="none" stroke="black" points="359.153,-129 359.153,-148 429.153,-148 429.153,-129 359.153,-129"/>
<text text-anchor="middle" x="394.153" y="-136" font-family="Helvetica,sans-Serif" font-size="10.00">multibuf.hpp</text>
</a>
</g>
</g>
<!-- Node13&#45;&gt;Node19 -->
<g id="edge20" class="edge"><title>Node13&#45;&gt;Node19</title>
<path fill="none" stroke="midnightblue" d="M394.153,-190.475C394.153,-182.08 394.153,-168.981 394.153,-158.163"/>
<polygon fill="midnightblue" stroke="midnightblue" points="397.653,-158.009 394.153,-148.009 390.653,-158.009 397.653,-158.009"/>
</g>
<!-- Node22 -->
<g id="node22" class="node"><title>Node22</title>
<g id="a_node22"><a xlink:href="string_8hpp.html" target="_top" xlink:title="string.hpp">
<polygon fill="none" stroke="black" points="495.653,-129 495.653,-148 554.653,-148 554.653,-129 495.653,-129"/>
<text text-anchor="middle" x="525.153" y="-136" font-family="Helvetica,sans-Serif" font-size="10.00">string.hpp</text>
</a>
</g>
</g>
<!-- Node13&#45;&gt;Node22 -->
<g id="edge25" class="edge"><title>Node13&#45;&gt;Node22</title>
<path fill="none" stroke="midnightblue" d="M412.922,-190.475C435.004,-180.445 471.872,-163.7 497.292,-152.155"/>
<polygon fill="midnightblue" stroke="midnightblue" points="498.761,-155.331 506.419,-148.009 495.867,-148.958 498.761,-155.331"/>
</g>
<!-- Node19&#45;&gt;Node3 -->
<g id="edge24" class="edge"><title>Node19&#45;&gt;Node3</title>
<path fill="none" stroke="midnightblue" d="M366.795,-128.958C359.774,-126.889 352.21,-124.767 345.153,-123 264.363,-102.775 116.847,-119.989 170.153,-56 196.837,-23.9689 308.831,-29.5391 365.644,-19.5548"/>
<polygon fill="midnightblue" stroke="midnightblue" points="366.495,-22.9529 375.577,-17.497 365.075,-16.0985 366.495,-22.9529"/>
</g>
<!-- Node19&#45;&gt;Node15 -->
<g id="edge21" class="edge"><title>Node19&#45;&gt;Node15</title>
<path fill="none" stroke="midnightblue" d="M359.042,-130.728C295.033,-118.382 159.94,-92.3253 94.3917,-79.6825"/>
<polygon fill="midnightblue" stroke="midnightblue" points="94.9722,-76.23 84.4903,-77.7728 93.6464,-83.1034 94.9722,-76.23"/>
</g>
<!-- Node20 -->
<g id="node20" class="node"><title>Node20</title>
<polygon fill="none" stroke="#bfbfbf" points="179.153,-62 179.153,-81 229.153,-81 229.153,-62 179.153,-62"/>
<text text-anchor="middle" x="204.153" y="-69" font-family="Helvetica,sans-Serif" font-size="10.00">fstream</text>
</g>
<!-- Node19&#45;&gt;Node20 -->
<g id="edge22" class="edge"><title>Node19&#45;&gt;Node20</title>
<path fill="none" stroke="midnightblue" d="M365.133,-128.961C333.603,-119.486 281.878,-103.363 238.153,-87 236.5,-86.3815 234.81,-85.7285 233.11,-85.0557"/>
<polygon fill="midnightblue" stroke="midnightblue" points="234.029,-81.6495 223.45,-81.0856 231.369,-88.1241 234.029,-81.6495"/>
</g>
<!-- Node21 -->
<g id="node21" class="node"><title>Node21</title>
<polygon fill="none" stroke="#bfbfbf" points="247.153,-62 247.153,-81 291.153,-81 291.153,-62 247.153,-62"/>
<text text-anchor="middle" x="269.153" y="-69" font-family="Helvetica,sans-Serif" font-size="10.00">vector</text>
</g>
<!-- Node19&#45;&gt;Node21 -->
<g id="edge23" class="edge"><title>Node19&#45;&gt;Node21</title>
<path fill="none" stroke="midnightblue" d="M377.554,-128.869C356.448,-117.893 319.777,-98.8243 294.996,-85.9385"/>
<polygon fill="midnightblue" stroke="midnightblue" points="296.308,-82.6755 285.821,-81.1672 293.078,-88.886 296.308,-82.6755"/>
</g>
<!-- Node22&#45;&gt;Node3 -->
<g id="edge30" class="edge"><title>Node22&#45;&gt;Node3</title>
<path fill="none" stroke="midnightblue" d="M499.085,-128.953C469.42,-118.716 423.59,-101.172 412.153,-87 399.081,-70.8015 395.956,-46.5025 395.535,-29.7631"/>
<polygon fill="midnightblue" stroke="midnightblue" points="399.036,-29.5921 395.587,-19.5745 392.036,-29.5565 399.036,-29.5921"/>
</g>
<!-- Node22&#45;&gt;Node4 -->
<g id="edge26" class="edge"><title>Node22&#45;&gt;Node4</title>
<path fill="none" stroke="midnightblue" d="M532.667,-128.795C540.599,-119.178 552.932,-102.934 560.153,-87 568.556,-68.4591 573.628,-45.6198 576.391,-29.8459"/>
<polygon fill="midnightblue" stroke="midnightblue" points="579.879,-30.2 578.01,-19.7714 572.968,-29.0893 579.879,-30.2"/>
</g>
<!-- Node22&#45;&gt;Node5 -->
<g id="edge32" class="edge"><title>Node22&#45;&gt;Node5</title>
<path fill="none" stroke="midnightblue" d="M551.844,-128.869C587.383,-117.376 650.366,-97.0082 690.101,-84.1586"/>
<polygon fill="midnightblue" stroke="midnightblue" points="691.234,-87.4709 699.672,-81.0637 689.08,-80.8105 691.234,-87.4709"/>
</g>
<!-- Node22&#45;&gt;Node17 -->
<g id="edge29" class="edge"><title>Node22&#45;&gt;Node17</title>
<path fill="none" stroke="midnightblue" d="M540.258,-128.734C559.066,-117.818 591.408,-99.0487 613.511,-86.2209"/>
<polygon fill="midnightblue" stroke="midnightblue" points="615.395,-89.174 622.288,-81.1273 611.882,-83.1197 615.395,-89.174"/>
</g>
<!-- Node22&#45;&gt;Node21 -->
<g id="edge33" class="edge"><title>Node22&#45;&gt;Node21</title>
<path fill="none" stroke="midnightblue" d="M501.104,-128.988C494.67,-126.872 487.687,-124.719 481.153,-123 401.834,-102.126 378.089,-112.561 300.153,-87 298.484,-86.4526 296.787,-85.8383 295.091,-85.1798"/>
<polygon fill="midnightblue" stroke="midnightblue" points="296.154,-81.8266 285.585,-81.0836 293.384,-88.2552 296.154,-81.8266"/>
</g>
<!-- Node23 -->
<g id="node23" class="node"><title>Node23</title>
<polygon fill="none" stroke="#bfbfbf" points="421.653,-62 421.653,-81 480.653,-81 480.653,-62 421.653,-62"/>
<text text-anchor="middle" x="451.153" y="-69" font-family="Helvetica,sans-Serif" font-size="10.00">functional</text>
</g>
<!-- Node22&#45;&gt;Node23 -->
<g id="edge27" class="edge"><title>Node22&#45;&gt;Node23</title>
<path fill="none" stroke="midnightblue" d="M515.173,-128.734C503.301,-118.305 483.268,-100.709 468.769,-87.9732"/>
<polygon fill="midnightblue" stroke="midnightblue" points="470.798,-85.0971 460.975,-81.1273 466.178,-90.3564 470.798,-85.0971"/>
</g>
<!-- Node24 -->
<g id="node24" class="node"><title>Node24</title>
<polygon fill="none" stroke="#bfbfbf" points="499.153,-62 499.153,-81 551.153,-81 551.153,-62 499.153,-62"/>
<text text-anchor="middle" x="525.153" y="-69" font-family="Helvetica,sans-Serif" font-size="10.00">memory</text>
</g>
<!-- Node22&#45;&gt;Node24 -->
<g id="edge28" class="edge"><title>Node22&#45;&gt;Node24</title>
<path fill="none" stroke="midnightblue" d="M525.153,-128.734C525.153,-119.183 525.153,-103.618 525.153,-91.2829"/>
<polygon fill="midnightblue" stroke="midnightblue" points="528.653,-91.1273 525.153,-81.1273 521.653,-91.1273 528.653,-91.1273"/>
</g>
<!-- Node25 -->
<g id="node25" class="node"><title>Node25</title>
<polygon fill="none" stroke="#bfbfbf" points="1020.15,-62 1020.15,-81 1072.15,-81 1072.15,-62 1020.15,-62"/>
<text text-anchor="middle" x="1046.15" y="-69" font-family="Helvetica,sans-Serif" font-size="10.00">sstream</text>
</g>
<!-- Node22&#45;&gt;Node25 -->
<g id="edge31" class="edge"><title>Node22&#45;&gt;Node25</title>
<path fill="none" stroke="midnightblue" d="M554.815,-134.986C626.668,-128.715 815.659,-111.132 972.153,-87 984.462,-85.102 997.842,-82.6122 1009.8,-80.2326"/>
<polygon fill="midnightblue" stroke="midnightblue" points="1010.77,-83.6067 1019.87,-78.1875 1009.38,-76.7466 1010.77,-83.6067"/>
</g>
<!-- Node26 -->
<g id="node26" class="node"><title>Node26</title>
<g id="a_node26"><a xlink:href="color_8hpp.html" target="_top" xlink:title="color.hpp">
<polygon fill="none" stroke="black" points="309.153,-62 309.153,-81 365.153,-81 365.153,-62 309.153,-62"/>
<text text-anchor="middle" x="337.153" y="-69" font-family="Helvetica,sans-Serif" font-size="10.00">color.hpp</text>
</a>
</g>
</g>
<!-- Node22&#45;&gt;Node26 -->
<g id="edge34" class="edge"><title>Node22&#45;&gt;Node26</title>
<path fill="none" stroke="midnightblue" d="M500.188,-128.869C467.229,-117.473 409.035,-97.3528 371.823,-84.4869"/>
<polygon fill="midnightblue" stroke="midnightblue" points="372.517,-81.0235 361.922,-81.0637 370.229,-87.6393 372.517,-81.0235"/>
</g>
<!-- Node26&#45;&gt;Node3 -->
<g id="edge38" class="edge"><title>Node26&#45;&gt;Node3</title>
<path fill="none" stroke="midnightblue" d="M345.606,-61.9751C354.719,-52.785 369.423,-37.9563 380.629,-26.656"/>
<polygon fill="midnightblue" stroke="midnightblue" points="383.16,-29.0744 387.716,-19.5091 378.189,-24.1455 383.16,-29.0744"/>
</g>
<!-- Node26&#45;&gt;Node4 -->
<g id="edge36" class="edge"><title>Node26&#45;&gt;Node4</title>
<path fill="none" stroke="midnightblue" d="M365.387,-63.5581C410.457,-52.477 498.439,-30.8451 546.275,-19.0837"/>
<polygon fill="midnightblue" stroke="midnightblue" points="547.249,-22.4486 556.124,-16.6622 545.577,-15.651 547.249,-22.4486"/>
</g>
<!-- Node26&#45;&gt;Node7 -->
<g id="edge37" class="edge"><title>Node26&#45;&gt;Node7</title>
<path fill="none" stroke="midnightblue" d="M316.549,-61.9871C311.246,-59.9173 305.521,-57.7873 300.153,-56 255.541,-41.1451 202.948,-27.2635 169.823,-18.952"/>
<polygon fill="midnightblue" stroke="midnightblue" points="170.336,-15.4731 159.787,-16.455 168.646,-22.266 170.336,-15.4731"/>
</g>
<!-- Node27 -->
<g id="node27" class="node"><title>Node27</title>
<polygon fill="none" stroke="#bfbfbf" points="311.153,-0.5 311.153,-19.5 357.153,-19.5 357.153,-0.5 311.153,-0.5"/>
<text text-anchor="middle" x="334.153" y="-7.5" font-family="Helvetica,sans-Serif" font-size="10.00">cctype</text>
</g>
<!-- Node26&#45;&gt;Node27 -->
<g id="edge35" class="edge"><title>Node26&#45;&gt;Node27</title>
<path fill="none" stroke="midnightblue" d="M336.723,-61.9751C336.3,-53.5803 335.64,-40.4806 335.094,-29.6631"/>
<polygon fill="midnightblue" stroke="midnightblue" points="338.581,-29.3201 334.582,-19.5091 331.59,-29.6727 338.581,-29.3201"/>
</g>
<!-- Node28&#45;&gt;Node3 -->
<g id="edge45" class="edge"><title>Node28&#45;&gt;Node3</title>
<path fill="none" stroke="midnightblue" d="M814.415,-251.641C807.633,-237.641 797.125,-209.948 808.153,-190 853.692,-107.624 1036.07,-125.1 972.153,-56 962.803,-45.8914 545.486,-20.0029 427.14,-12.8534"/>
<polygon fill="midnightblue" stroke="midnightblue" points="427.145,-9.34743 416.952,-12.2397 426.724,-16.3348 427.145,-9.34743"/>
</g>
<!-- Node28&#45;&gt;Node6 -->
<g id="edge46" class="edge"><title>Node28&#45;&gt;Node6</title>
<path fill="none" stroke="midnightblue" d="M847.577,-251.961C878.292,-242.09 924.198,-225.245 934.153,-210 956.93,-175.122 939.476,-124.817 925.668,-95.7107"/>
<polygon fill="midnightblue" stroke="midnightblue" points="928.775,-94.0999 921.188,-86.7056 922.508,-97.2178 928.775,-94.0999"/>
</g>
<!-- Node28&#45;&gt;Node13 -->
<g id="edge47" class="edge"><title>Node28&#45;&gt;Node13</title>
<path fill="none" stroke="midnightblue" d="M779.05,-255.157C711.682,-246.139 571.539,-227.196 453.153,-210 451.855,-209.811 450.542,-209.62 449.217,-209.425"/>
<polygon fill="midnightblue" stroke="midnightblue" points="449.326,-205.903 438.921,-207.898 448.299,-212.827 449.326,-205.903"/>
</g>
<!-- Node28&#45;&gt;Node20 -->
<g id="edge41" class="edge"><title>Node28&#45;&gt;Node20</title>
<path fill="none" stroke="midnightblue" d="M781.732,-251.969C718.807,-236.878 588.636,-202.434 486.153,-154 463.192,-143.149 461.777,-132.32 438.153,-123 354.137,-89.8548 324.684,-112.879 238.153,-87 236.005,-86.3576 233.81,-85.6205 231.621,-84.8264"/>
<polygon fill="midnightblue" stroke="midnightblue" points="232.811,-81.5332 222.225,-81.0983 230.229,-88.0398 232.811,-81.5332"/>
</g>
<!-- Node28&#45;&gt;Node25 -->
<g id="edge44" class="edge"><title>Node28&#45;&gt;Node25</title>
<path fill="none" stroke="midnightblue" d="M846.046,-251.961C879.709,-241 935.14,-221.974 953.153,-210 981.692,-191.03 986.604,-182.145 1006.15,-154 1020.3,-133.631 1032.17,-107.513 1039.21,-90.4075"/>
<polygon fill="midnightblue" stroke="midnightblue" points="1042.49,-91.6382 1042.95,-81.0535 1035.99,-89.0388 1042.49,-91.6382"/>
</g>
<!-- Node29 -->
<g id="node29" class="node"><title>Node29</title>
<polygon fill="none" stroke="#bfbfbf" points="817.653,-190.5 817.653,-209.5 866.653,-209.5 866.653,-190.5 817.653,-190.5"/>
<text text-anchor="middle" x="842.153" y="-197.5" font-family="Helvetica,sans-Serif" font-size="10.00">istream</text>
</g>
<!-- Node28&#45;&gt;Node29 -->
<g id="edge42" class="edge"><title>Node28&#45;&gt;Node29</title>
<path fill="none" stroke="midnightblue" d="M822.448,-251.975C825.762,-243.404 830.971,-229.927 835.202,-218.983"/>
<polygon fill="midnightblue" stroke="midnightblue" points="838.523,-220.098 838.864,-209.509 831.994,-217.575 838.523,-220.098"/>
</g>
<!-- Node30 -->
<g id="node30" class="node"><title>Node30</title>
<polygon fill="none" stroke="#bfbfbf" points="884.653,-190.5 884.653,-209.5 925.653,-209.5 925.653,-190.5 884.653,-190.5"/>
<text text-anchor="middle" x="905.153" y="-197.5" font-family="Helvetica,sans-Serif" font-size="10.00">stack</text>
</g>
<!-- Node28&#45;&gt;Node30 -->
<g id="edge43" class="edge"><title>Node28&#45;&gt;Node30</title>
<path fill="none" stroke="midnightblue" d="M831.475,-251.975C845.269,-242.431 867.852,-226.807 884.385,-215.368"/>
<polygon fill="midnightblue" stroke="midnightblue" points="886.622,-218.077 892.854,-209.509 882.639,-212.32 886.622,-218.077"/>
</g>
<!-- Node31 -->
<g id="node31" class="node"><title>Node31</title>
<g id="a_node31"><a xlink:href="string__functions_8hpp.html" target="_top" xlink:title="string_functions.hpp">
<polygon fill="none" stroke="black" points="1100.15,-129 1100.15,-148 1204.15,-148 1204.15,-129 1100.15,-129"/>
<text text-anchor="middle" x="1152.15" y="-136" font-family="Helvetica,sans-Serif" font-size="10.00">string_functions.hpp</text>
</a>
</g>
</g>
<!-- Node28&#45;&gt;Node31 -->
<g id="edge48" class="edge"><title>Node28&#45;&gt;Node31</title>
<path fill="none" stroke="midnightblue" d="M846.243,-251.987C853.337,-249.894 861.002,-247.754 868.153,-246 949.084,-226.155 975.521,-242.729 1052.15,-210 1084.17,-196.326 1116.18,-171.263 1135.07,-155"/>
<polygon fill="midnightblue" stroke="midnightblue" points="1137.58,-157.452 1142.78,-148.219 1132.96,-152.196 1137.58,-157.452"/>
</g>
<!-- Node31&#45;&gt;Node3 -->
<g id="edge53" class="edge"><title>Node31&#45;&gt;Node3</title>
<path fill="none" stroke="midnightblue" d="M1147.71,-128.858C1138.22,-111.426 1114.11,-72.3243 1081.15,-56 1073.71,-52.3141 559.539,-20.9087 427.028,-12.8687"/>
<polygon fill="midnightblue" stroke="midnightblue" points="426.971,-9.35892 416.777,-12.2472 426.547,-16.3461 426.971,-9.35892"/>
</g>
<!-- Node31&#45;&gt;Node25 -->
<g id="edge52" class="edge"><title>Node31&#45;&gt;Node25</title>
<path fill="none" stroke="midnightblue" d="M1137.86,-128.734C1120.14,-117.867 1089.72,-99.2161 1068.81,-86.3931"/>
<polygon fill="midnightblue" stroke="midnightblue" points="1070.58,-83.3712 1060.22,-81.1273 1066.92,-89.3386 1070.58,-83.3712"/>
</g>
<!-- Node32 -->
<g id="node32" class="node"><title>Node32</title>
<polygon fill="none" stroke="#bfbfbf" points="1333.15,-62 1333.15,-81 1389.15,-81 1389.15,-62 1333.15,-62"/>
<text text-anchor="middle" x="1361.15" y="-69" font-family="Helvetica,sans-Serif" font-size="10.00">algorithm</text>
</g>
<!-- Node31&#45;&gt;Node32 -->
<g id="edge49" class="edge"><title>Node31&#45;&gt;Node32</title>
<path fill="none" stroke="midnightblue" d="M1184.44,-128.934C1219.2,-119.499 1276.01,-103.466 1324.15,-87 1326.27,-86.2744 1328.45,-85.4993 1330.64,-84.699"/>
<polygon fill="midnightblue" stroke="midnightblue" points="1332.03,-87.9175 1340.14,-81.1043 1329.55,-81.3707 1332.03,-87.9175"/>
</g>
<!-- Node33 -->
<g id="node33" class="node"><title>Node33</title>
<polygon fill="none" stroke="#bfbfbf" points="1128.65,-62 1128.65,-81 1175.65,-81 1175.65,-62 1128.65,-62"/>
<text text-anchor="middle" x="1152.15" y="-69" font-family="Helvetica,sans-Serif" font-size="10.00">iterator</text>
</g>
<!-- Node31&#45;&gt;Node33 -->
<g id="edge50" class="edge"><title>Node31&#45;&gt;Node33</title>
<path fill="none" stroke="midnightblue" d="M1152.15,-128.734C1152.15,-119.183 1152.15,-103.618 1152.15,-91.2829"/>
<polygon fill="midnightblue" stroke="midnightblue" points="1155.65,-91.1273 1152.15,-81.1273 1148.65,-91.1273 1155.65,-91.1273"/>
</g>
<!-- Node34 -->
<g id="node34" class="node"><title>Node34</title>
<polygon fill="none" stroke="#bfbfbf" points="1193.65,-62 1193.65,-81 1234.65,-81 1234.65,-62 1193.65,-62"/>
<text text-anchor="middle" x="1214.15" y="-69" font-family="Helvetica,sans-Serif" font-size="10.00">regex</text>
</g>
<!-- Node31&#45;&gt;Node34 -->
<g id="edge51" class="edge"><title>Node31&#45;&gt;Node34</title>
<path fill="none" stroke="midnightblue" d="M1160.51,-128.734C1170.28,-118.5 1186.62,-101.364 1198.71,-88.6924"/>
<polygon fill="midnightblue" stroke="midnightblue" points="1201.55,-90.7792 1205.92,-81.1273 1196.49,-85.9477 1201.55,-90.7792"/>
</g>
<!-- Node35 -->
<g id="node35" class="node"><title>Node35</title>
<polygon fill="none" stroke="#bfbfbf" points="1253.15,-62 1253.15,-81 1315.15,-81 1315.15,-62 1253.15,-62"/>
<text text-anchor="middle" x="1284.15" y="-69" font-family="Helvetica,sans-Serif" font-size="10.00">type_traits</text>
</g>
<!-- Node31&#45;&gt;Node35 -->
<g id="edge54" class="edge"><title>Node31&#45;&gt;Node35</title>
<path fill="none" stroke="midnightblue" d="M1169.68,-128.869C1192.17,-117.796 1231.38,-98.4862 1257.55,-85.5978"/>
<polygon fill="midnightblue" stroke="midnightblue" points="1259.13,-88.7249 1266.55,-81.1672 1256.03,-82.445 1259.13,-88.7249"/>
</g>
</g>
</svg>
        <g id="navigator" transform="translate(0 0)" fill="#404254">
                <rect fill="#f2f5e9" fill-opacity="0.5" stroke="#606060" stroke-width=".5" x="0" y="0" width="60" height="60"/>
                <use id="zoomplus" xlink:href="#zoomPlus" x="17" y="9" onmousedown="handleZoom(evt,'in')"/>
                <use id="zoomminus" xlink:href="#zoomMin" x="42" y="9" onmousedown="handleZoom(evt,'out')"/>
                <use id="reset" xlink:href="#resetDef" x="30" y="36" onmousedown="handleReset()"/>
                <g id="arrowUp" xlink:href="#dirArrow" transform="translate(30 24)" onmousedown="handlePan(0,-1)">
                  <use xlink:href="#rim" fill="#404040">
                        <set attributeName="fill" to="#808080" begin="arrowUp.mouseover" end="arrowUp.mouseout"/>
                  </use>
                  <path fill="none" stroke="white" stroke-width="1.5" d="M0,-3.0v7 M-2.5,-0.5L0,-3.0L2.5,-0.5"/>
                </g>
                <g id="arrowRight" xlink:href="#dirArrow" transform="rotate(90) translate(36 -43)" onmousedown="handlePan(1,0)">
                  <use xlink:href="#rim" fill="#404040">
                        <set attributeName="fill" to="#808080" begin="arrowRight.mouseover" end="arrowRight.mouseout"/>
                  </use>
                  <path fill="none" stroke="white" stroke-width="1.5" d="M0,-3.0v7 M-2.5,-0.5L0,-3.0L2.5,-0.5"/>
                </g>
                <g id="arrowDown" xlink:href="#dirArrow" transform="rotate(180) translate(-30 -48)" onmousedown="handlePan(0,1)">
                  <use xlink:href="#rim" fill="#404040">
                        <set attributeName="fill" to="#808080" begin="arrowDown.mouseover" end="arrowDown.mouseout"/>
                  </use>
                  <path fill="none" stroke="white" stroke-width="1.5" d="M0,-3.0v7 M-2.5,-0.5L0,-3.0L2.5,-0.5"/>
                </g>
                <g id="arrowLeft" xlink:href="#dirArrow" transform="rotate(270) translate(-36 17)" onmousedown="handlePan(-1,0)">
                  <use xlink:href="#rim" fill="#404040">
                        <set attributeName="fill" to="#808080" begin="arrowLeft.mouseover" end="arrowLeft.mouseout"/>
                  </use>
                  <path fill="none" stroke="white" stroke-width="1.5" d="M0,-3.0v7 M-2.5,-0.5L0,-3.0L2.5,-0.5"/>
                </g>
        </g>
        <svg viewBox="0 0 15 15" width="100%" height="30px" preserveAspectRatio="xMaxYMin meet">
         <g id="arrow_out" transform="scale(0.3 0.3)">
          <a xlink:href="settings_8cpp__incl_org.svg" target="_base">
           <rect id="button" ry="5" rx="5" y="6" x="6" height="38" width="38"
                fill="#f2f5e9" fill-opacity="0.5" stroke="#606060" stroke-width="1.0"/>
           <path id="arrow"
             d="M 11.500037,31.436501 C 11.940474,20.09759 22.043105,11.32322 32.158766,21.979434 L 37.068811,17.246167 C 37.068811,17.246167 37.088388,32 37.088388,32 L 22.160133,31.978069 C 22.160133,31.978069 26.997745,27.140456 26.997745,27.140456 C 18.528582,18.264221 13.291696,25.230495 11.500037,31.436501 z"
             style="fill:#404040;"/>
          </a>
         </g>
        </svg>
</svg>
