<?xml version="1.0" encoding="UTF-8" standalone="no"?>
<!DOCTYPE svg PUBLIC "-//W3C//DTD SVG 1.1//EN"
 "http://www.w3.org/Graphics/SVG/1.1/DTD/svg11.dtd">
<!-- Generated by graphviz version 2.38.0 (20140413.2041)
 -->
<!-- Title: src/settings.hpp Pages: 1 -->
<svg width="441pt" height="95pt"
 viewBox="0.00 0.00 440.50 95.00" xmlns="http://www.w3.org/2000/svg" xmlns:xlink="http://www.w3.org/1999/xlink">
<g id="graph0" class="graph" transform="scale(1 1) rotate(0) translate(4 91)">
<title>src/settings.hpp</title>
<!-- Node1 -->
<g id="node1" class="node"><title>Node1</title>
<polygon fill="#bfbfbf" stroke="black" points="122.5,-67.5 122.5,-86.5 208.5,-86.5 208.5,-67.5 122.5,-67.5"/>
<text text-anchor="middle" x="165.5" y="-74.5" font-family="Helvetica,sans-Serif" font-size="10.00">src/settings.hpp</text>
</g>
<!-- Node2 -->
<g id="node2" class="node"><title>Node2</title>
<polygon fill="none" stroke="#bfbfbf" points="0,-6 0,-25 41,-25 41,-6 0,-6"/>
<text text-anchor="middle" x="20.5" y="-13" font-family="Helvetica,sans-Serif" font-size="10.00">string</text>
</g>
<!-- Node1&#45;&gt;Node2 -->
<g id="edge1" class="edge"><title>Node1&#45;&gt;Node2</title>
<path fill="none" stroke="midnightblue" d="M141.936,-67.3881C118.537,-58.6943 81.7415,-44.6383 50.5,-31 49.3071,-30.4793 48.0922,-29.938 46.8683,-29.384"/>
<polygon fill="midnightblue" stroke="midnightblue" points="48.0686,-26.0814 37.5279,-25.0116 45.1008,-32.4212 48.0686,-26.0814"/>
</g>
<!-- Node3 -->
<g id="node3" class="node"><title>Node3</title>
<polygon fill="none" stroke="#bfbfbf" points="59.5,-6 59.5,-25 105.5,-25 105.5,-6 59.5,-6"/>
<text text-anchor="middle" x="82.5" y="-13" font-family="Helvetica,sans-Serif" font-size="10.00">cstdint</text>
</g>
<!-- Node1&#45;&gt;Node3 -->
<g id="edge2" class="edge"><title>Node1&#45;&gt;Node3</title>
<path fill="none" stroke="midnightblue" d="M153.608,-67.4751C140.295,-57.9315 118.5,-42.3073 102.543,-30.8683"/>
<polygon fill="midnightblue" stroke="midnightblue" points="104.536,-27.9908 94.3698,-25.0091 100.458,-33.68 104.536,-27.9908"/>
</g>
<!-- Node4 -->
<g id="node4" class="node"><title>Node4</title>
<polygon fill="none" stroke="#bfbfbf" points="124,-6 124,-25 207,-25 207,-6 124,-6"/>
<text text-anchor="middle" x="165.5" y="-13" font-family="Helvetica,sans-Serif" font-size="10.00">unordered_map</text>
</g>
<!-- Node1&#45;&gt;Node4 -->
<g id="edge3" class="edge"><title>Node1&#45;&gt;Node4</title>
<path fill="none" stroke="midnightblue" d="M165.5,-67.4751C165.5,-59.0803 165.5,-45.9806 165.5,-35.1631"/>
<polygon fill="midnightblue" stroke="midnightblue" points="169,-35.0091 165.5,-25.0091 162,-35.0091 169,-35.0091"/>
</g>
<!-- Node5 -->
<g id="node5" class="node"><title>Node5</title>
<polygon fill="none" stroke="#bfbfbf" points="225,-0.5 225,-30.5 326,-30.5 326,-0.5 225,-0.5"/>
<text text-anchor="start" x="233" y="-18.5" font-family="Helvetica,sans-Serif" font-size="10.00">boost/property_tree</text>
<text text-anchor="middle" x="275.5" y="-7.5" font-family="Helvetica,sans-Serif" font-size="10.00">/ptree.hpp</text>
</g>
<!-- Node1&#45;&gt;Node5 -->
<g id="edge4" class="edge"><title>Node1&#45;&gt;Node5</title>
<path fill="none" stroke="midnightblue" d="M181.26,-67.4751C196.715,-59.1154 220.795,-46.0902 240.745,-35.2991"/>
<polygon fill="midnightblue" stroke="midnightblue" points="242.445,-38.3592 249.575,-30.523 239.114,-32.2022 242.445,-38.3592"/>
</g>
<!-- Node6 -->
<g id="node6" class="node"><title>Node6</title>
<g id="a_node6"><a xlink:href="c_09_09-compat_8hpp.html" target="_top" xlink:title="This file defined some compatibility for features of C++14 and beyond. ">
<polygon fill="none" stroke="black" points="344.5,-6 344.5,-25 432.5,-25 432.5,-6 344.5,-6"/>
<text text-anchor="middle" x="388.5" y="-13" font-family="Helvetica,sans-Serif" font-size="10.00">c++&#45;compat.hpp</text>
</a>
</g>
</g>
<!-- Node1&#45;&gt;Node6 -->
<g id="edge5" class="edge"><title>Node1&#45;&gt;Node6</title>
<path fill="none" stroke="midnightblue" d="M198.111,-67.4532C232.35,-58.46 287.74,-43.8541 335.5,-31 339.379,-29.956 343.416,-28.8631 347.454,-27.7657"/>
<polygon fill="midnightblue" stroke="midnightblue" points="348.676,-31.0603 357.404,-25.0537 346.835,-24.3067 348.676,-31.0603"/>
</g>
</g>
</svg>
