<?xml version="1.0" encoding="UTF-8" standalone="no"?>
<!DOCTYPE svg PUBLIC "-//W3C//DTD SVG 1.1//EN"
 "http://www.w3.org/Graphics/SVG/1.1/DTD/svg11.dtd">
<!-- Generated by graphviz version 2.38.0 (20140413.2041)
 -->
<!-- Title: src/settings.cpp Pages: 1 -->
<!--zoomable 442 -->
<svg id="main" version="1.1" xmlns="http://www.w3.org/2000/svg" xmlns:xlink="http://www.w3.org/1999/xlink" xml:space="preserve" onload="init(evt)">
<style type="text/css"><![CDATA[
.edge:hover path { stroke: red; }
.edge:hover polygon { stroke: red; fill: red; }
]]></style>
<script type="text/javascript"><![CDATA[
var edges = document.getElementsByTagName('g');
if (edges && edges.length) {
  for (var i=0;i<edges.length;i++) {
    if (edges[i].id.substr(0,4)=='edge') {
      edges[i].setAttribute('class','edge');
    }
  }
}
]]></script>
        <defs>
                <circle id="rim" cx="0" cy="0" r="7"/>
                <circle id="rim2" cx="0" cy="0" r="3.5"/>
                <g id="zoomPlus">
                        <use xlink:href="#rim" fill="#404040">
                                <set attributeName="fill" to="#808080" begin="zoomplus.mouseover" end="zoomplus.mouseout"/>
                        </use>
                        <path d="M-4,0h8M0,-4v8" fill="none" stroke="white" stroke-width="1.5" pointer-events="none"/>
                </g>
                <g id="zoomMin">
                        <use xlink:href="#rim" fill="#404040">
                                <set attributeName="fill" to="#808080" begin="zoomminus.mouseover" end="zoomminus.mouseout"/>
                        </use>
                        <path d="M-4,0h8" fill="none" stroke="white" stroke-width="1.5" pointer-events="none"/>
                </g>
                <g id="dirArrow">
                        <path fill="none" stroke="white" stroke-width="1.5" d="M0,-3.0v7 M-2.5,-0.5L0,-3.0L2.5,-0.5"/>
                </g>
               <g id="resetDef">
                       <use xlink:href="#rim2" fill="#404040">
                               <set attributeName="fill" to="#808080" begin="reset.mouseover" end="reset.mouseout"/>
                       </use>
               </g>
        </defs>

<script type="text/javascript">
var viewWidth = 1671;
var viewHeight = 442;
var sectionId = 'dynsection-0';
</script>
<script xlink:href="svgpan.js"/>
<svg id="graph" class="graph">
<g id="viewport">
<title>src/settings.cpp</title>
<!-- Node1 -->
<g id="node1" class="node"><title>Node1</title>
<polygon fill="#bfbfbf" stroke="black" points="1045,-414.5 1045,-433.5 1131,-433.5 1131,-414.5 1045,-414.5"/>
<text text-anchor="middle" x="1088" y="-421.5" font-family="Helvetica,sans-Serif" font-size="10.00">src/settings.cpp</text>
</g>
<!-- Node2 -->
<g id="node2" class="node"><title>Node2</title>
<g id="a_node2"><a xlink:href="settings_8hpp.html" target="_top" xlink:title="settings.hpp">
<polygon fill="none" stroke="black" points="240,-235.5 240,-254.5 310,-254.5 310,-235.5 240,-235.5"/>
<text text-anchor="middle" x="275" y="-242.5" font-family="Helvetica,sans-Serif" font-size="10.00">settings.hpp</text>
</a>
</g>
</g>
<!-- Node1&#45;&gt;Node2 -->
<g id="edge1" class="edge"><title>Node1&#45;&gt;Node2</title>
<path fill="none" stroke="midnightblue" d="M1044.93,-422.716C932.742,-420.597 624.013,-405.886 390,-311 355.443,-296.988 318.391,-274.554 295.954,-260.048"/>
<polygon fill="midnightblue" stroke="midnightblue" points="297.84,-257.1 287.558,-254.547 294.004,-262.955 297.84,-257.1"/>
</g>
<!-- Node19 -->
<g id="node19" class="node"><title>Node19</title>
<polygon fill="none" stroke="#bfbfbf" points="902.5,-353 902.5,-372 947.5,-372 947.5,-353 902.5,-353"/>
<text text-anchor="middle" x="925" y="-360" font-family="Helvetica,sans-Serif" font-size="10.00">cstdlib</text>
</g>
<!-- Node1&#45;&gt;Node19 -->
<g id="edge25" class="edge"><title>Node1&#45;&gt;Node19</title>
<path fill="none" stroke="midnightblue" d="M1060.12,-414.47C1033.18,-406 991.37,-392.252 956,-378 954.622,-377.445 953.218,-376.86 951.805,-376.256"/>
<polygon fill="midnightblue" stroke="midnightblue" points="953.116,-373.008 942.558,-372.118 950.256,-379.398 953.116,-373.008"/>
</g>
<!-- Node20 -->
<g id="node20" class="node"><title>Node20</title>
<polygon fill="none" stroke="#bfbfbf" points="965.5,-353 965.5,-372 1072.5,-372 1072.5,-353 965.5,-353"/>
<text text-anchor="middle" x="1019" y="-360" font-family="Helvetica,sans-Serif" font-size="10.00">boost/filesystem.hpp</text>
</g>
<!-- Node1&#45;&gt;Node20 -->
<g id="edge26" class="edge"><title>Node1&#45;&gt;Node20</title>
<path fill="none" stroke="midnightblue" d="M1078.11,-414.475C1067.35,-405.197 1049.93,-390.171 1036.78,-378.831"/>
<polygon fill="midnightblue" stroke="midnightblue" points="1038.73,-375.889 1028.87,-372.009 1034.16,-381.19 1038.73,-375.889"/>
</g>
<!-- Node21 -->
<g id="node21" class="node"><title>Node21</title>
<polygon fill="none" stroke="#bfbfbf" points="1091,-353 1091,-372 1225,-372 1225,-353 1091,-353"/>
<text text-anchor="middle" x="1158" y="-360" font-family="Helvetica,sans-Serif" font-size="10.00">boost/program_options.hpp</text>
</g>
<!-- Node1&#45;&gt;Node21 -->
<g id="edge27" class="edge"><title>Node1&#45;&gt;Node21</title>
<path fill="none" stroke="midnightblue" d="M1098.03,-414.475C1109.05,-405.108 1126.96,-389.884 1140.34,-378.508"/>
<polygon fill="midnightblue" stroke="midnightblue" points="1142.64,-381.152 1147.99,-372.009 1138.1,-375.819 1142.64,-381.152"/>
</g>
<!-- Node22 -->
<g id="node22" class="node"><title>Node22</title>
<polygon fill="none" stroke="#bfbfbf" points="1243.5,-347.5 1243.5,-377.5 1344.5,-377.5 1344.5,-347.5 1243.5,-347.5"/>
<text text-anchor="start" x="1251.5" y="-365.5" font-family="Helvetica,sans-Serif" font-size="10.00">boost/property_tree</text>
<text text-anchor="middle" x="1294" y="-354.5" font-family="Helvetica,sans-Serif" font-size="10.00">/info_parser.hpp</text>
</g>
<!-- Node1&#45;&gt;Node22 -->
<g id="edge28" class="edge"><title>Node1&#45;&gt;Node22</title>
<path fill="none" stroke="midnightblue" d="M1117.51,-414.475C1148.15,-405.626 1196.89,-391.549 1235.39,-380.428"/>
<polygon fill="midnightblue" stroke="midnightblue" points="1236.81,-383.661 1245.45,-377.523 1234.87,-376.935 1236.81,-383.661"/>
</g>
<!-- Node23 -->
<g id="node23" class="node"><title>Node23</title>
<polygon fill="none" stroke="#bfbfbf" points="1362.5,-347.5 1362.5,-377.5 1463.5,-377.5 1463.5,-347.5 1362.5,-347.5"/>
<text text-anchor="start" x="1370.5" y="-365.5" font-family="Helvetica,sans-Serif" font-size="10.00">boost/property_tree</text>
<text text-anchor="middle" x="1413" y="-354.5" font-family="Helvetica,sans-Serif" font-size="10.00">/ini_parser.hpp</text>
</g>
<!-- Node1&#45;&gt;Node23 -->
<g id="edge29" class="edge"><title>Node1&#45;&gt;Node23</title>
<path fill="none" stroke="midnightblue" d="M1131.03,-416.715C1181.77,-409.084 1268.85,-395.301 1352.31,-378.272"/>
<polygon fill="midnightblue" stroke="midnightblue" points="1353.12,-381.68 1362.21,-376.234 1351.7,-374.824 1353.12,-381.68"/>
</g>
<!-- Node24 -->
<g id="node24" class="node"><title>Node24</title>
<polygon fill="none" stroke="#bfbfbf" points="1481.5,-347.5 1481.5,-377.5 1582.5,-377.5 1582.5,-347.5 1481.5,-347.5"/>
<text text-anchor="start" x="1489.5" y="-365.5" font-family="Helvetica,sans-Serif" font-size="10.00">boost/property_tree</text>
<text text-anchor="middle" x="1532" y="-354.5" font-family="Helvetica,sans-Serif" font-size="10.00">/xml_parser.hpp</text>
</g>
<!-- Node1&#45;&gt;Node24 -->
<g id="edge30" class="edge"><title>Node1&#45;&gt;Node24</title>
<path fill="none" stroke="midnightblue" d="M1131.27,-419.713C1200.98,-414.032 1342.56,-400.904 1471.21,-378.196"/>
<polygon fill="midnightblue" stroke="midnightblue" points="1472.01,-381.608 1481.24,-376.401 1470.78,-374.718 1472.01,-381.608"/>
</g>
<!-- Node25 -->
<g id="node25" class="node"><title>Node25</title>
<g id="a_node25"><a xlink:href="logger_8hpp.html" target="_top" xlink:title="string/logger.hpp">
<polygon fill="none" stroke="black" points="399.5,-291.5 399.5,-310.5 488.5,-310.5 488.5,-291.5 399.5,-291.5"/>
<text text-anchor="middle" x="444" y="-298.5" font-family="Helvetica,sans-Serif" font-size="10.00">string/logger.hpp</text>
</a>
</g>
</g>
<!-- Node1&#45;&gt;Node25 -->
<g id="edge31" class="edge"><title>Node1&#45;&gt;Node25</title>
<path fill="none" stroke="midnightblue" d="M1044.67,-417.186C987.366,-409.304 883.309,-394.326 795,-378 684.927,-357.65 556.612,-328.464 489.778,-312.844"/>
<polygon fill="midnightblue" stroke="midnightblue" points="490.517,-309.423 479.982,-310.549 488.92,-316.238 490.517,-309.423"/>
</g>
<!-- Node33 -->
<g id="node33" class="node"><title>Node33</title>
<g id="a_node33"><a xlink:href="json_8hpp.html" target="_top" xlink:title="string/json.hpp">
<polygon fill="none" stroke="black" points="804,-353 804,-372 884,-372 884,-353 804,-353"/>
<text text-anchor="middle" x="844" y="-360" font-family="Helvetica,sans-Serif" font-size="10.00">string/json.hpp</text>
</a>
</g>
</g>
<!-- Node1&#45;&gt;Node33 -->
<g id="edge48" class="edge"><title>Node1&#45;&gt;Node33</title>
<path fill="none" stroke="midnightblue" d="M1047.86,-414.487C1008.32,-405.923 946.257,-392.011 893,-378 889.199,-377 885.247,-375.912 881.309,-374.797"/>
<polygon fill="midnightblue" stroke="midnightblue" points="882.224,-371.418 871.645,-372.001 880.278,-378.142 882.224,-371.418"/>
</g>
<!-- Node38 -->
<g id="node38" class="node"><title>Node38</title>
<g id="a_node38"><a xlink:href="config_8hpp.html" target="_top" xlink:title="config.hpp">
<polygon fill="none" stroke="black" points="1601,-353 1601,-372 1663,-372 1663,-353 1601,-353"/>
<text text-anchor="middle" x="1632" y="-360" font-family="Helvetica,sans-Serif" font-size="10.00">config.hpp</text>
</a>
</g>
</g>
<!-- Node1&#45;&gt;Node38 -->
<g id="edge64" class="edge"><title>Node1&#45;&gt;Node38</title>
<path fill="none" stroke="midnightblue" d="M1131.05,-422.883C1218.82,-421.833 1424.34,-415.213 1592,-378 1595.25,-377.28 1598.59,-376.365 1601.89,-375.346"/>
<polygon fill="midnightblue" stroke="midnightblue" points="1603.2,-378.596 1611.54,-372.067 1600.95,-371.968 1603.2,-378.596"/>
</g>
<!-- Node3 -->
<g id="node3" class="node"><title>Node3</title>
<polygon fill="none" stroke="#bfbfbf" points="465.5,-56.5 465.5,-75.5 506.5,-75.5 506.5,-56.5 465.5,-56.5"/>
<text text-anchor="middle" x="486" y="-63.5" font-family="Helvetica,sans-Serif" font-size="10.00">string</text>
</g>
<!-- Node2&#45;&gt;Node3 -->
<g id="edge2" class="edge"><title>Node2&#45;&gt;Node3</title>
<path fill="none" stroke="midnightblue" d="M274.686,-235.473C274.316,-212.134 276.644,-146.649 312,-112 350.601,-74.1713 416.626,-66.9323 455.291,-66.2063"/>
<polygon fill="midnightblue" stroke="midnightblue" points="455.443,-69.7056 465.425,-66.1542 455.407,-62.7057 455.443,-69.7056"/>
</g>
<!-- Node4 -->
<g id="node4" class="node"><title>Node4</title>
<polygon fill="none" stroke="#bfbfbf" points="153,-56.5 153,-75.5 199,-75.5 199,-56.5 153,-56.5"/>
<text text-anchor="middle" x="176" y="-63.5" font-family="Helvetica,sans-Serif" font-size="10.00">cstdint</text>
</g>
<!-- Node2&#45;&gt;Node4 -->
<g id="edge3" class="edge"><title>Node2&#45;&gt;Node4</title>
<path fill="none" stroke="midnightblue" d="M263.729,-235.338C242.528,-218.274 197.213,-177.949 179,-132 173.205,-117.379 172.826,-99.4376 173.685,-86.1107"/>
<polygon fill="midnightblue" stroke="midnightblue" points="177.205,-86.0702 174.655,-75.7867 170.235,-85.4156 177.205,-86.0702"/>
</g>
<!-- Node5 -->
<g id="node5" class="node"><title>Node5</title>
<polygon fill="none" stroke="#bfbfbf" points="26.5,-112.5 26.5,-131.5 109.5,-131.5 109.5,-112.5 26.5,-112.5"/>
<text text-anchor="middle" x="68" y="-119.5" font-family="Helvetica,sans-Serif" font-size="10.00">unordered_map</text>
</g>
<!-- Node2&#45;&gt;Node5 -->
<g id="edge4" class="edge"><title>Node2&#45;&gt;Node5</title>
<path fill="none" stroke="midnightblue" d="M239.714,-236.228C201.251,-227.283 142.686,-212.135 124,-199 102.592,-183.951 86.1045,-158.111 76.7273,-140.794"/>
<polygon fill="midnightblue" stroke="midnightblue" points="79.7437,-139.007 72.0443,-131.729 73.5245,-142.22 79.7437,-139.007"/>
</g>
<!-- Node6 -->
<g id="node6" class="node"><title>Node6</title>
<polygon fill="none" stroke="#bfbfbf" points="445.5,-168.5 445.5,-198.5 546.5,-198.5 546.5,-168.5 445.5,-168.5"/>
<text text-anchor="start" x="453.5" y="-186.5" font-family="Helvetica,sans-Serif" font-size="10.00">boost/property_tree</text>
<text text-anchor="middle" x="496" y="-175.5" font-family="Helvetica,sans-Serif" font-size="10.00">/ptree.hpp</text>
</g>
<!-- Node2&#45;&gt;Node6 -->
<g id="edge5" class="edge"><title>Node2&#45;&gt;Node6</title>
<path fill="none" stroke="midnightblue" d="M306.664,-235.475C340.144,-226.461 393.77,-212.023 435.419,-200.81"/>
<polygon fill="midnightblue" stroke="midnightblue" points="436.441,-204.16 445.188,-198.18 434.622,-197.4 436.441,-204.16"/>
</g>
<!-- Node7 -->
<g id="node7" class="node"><title>Node7</title>
<g id="a_node7"><a xlink:href="c_09_09-compat_8hpp.html" target="_top" xlink:title="This file defined some compatibility for features of C++14 and beyond. ">
<polygon fill="none" stroke="black" points="0,-56.5 0,-75.5 88,-75.5 88,-56.5 0,-56.5"/>
<text text-anchor="middle" x="44" y="-63.5" font-family="Helvetica,sans-Serif" font-size="10.00">c++&#45;compat.hpp</text>
</a>
</g>
</g>
<!-- Node2&#45;&gt;Node7 -->
<g id="edge6" class="edge"><title>Node2&#45;&gt;Node7</title>
<path fill="none" stroke="midnightblue" d="M239.634,-236.272C190.205,-225.324 105.024,-205.865 92,-199 52.4601,-178.157 35.2599,-172.797 17,-132 9.78031,-115.869 19.3353,-97.2192 29.0158,-84.0444"/>
<polygon fill="midnightblue" stroke="midnightblue" points="32.02,-85.8919 35.5331,-75.8965 26.5535,-81.5195 32.02,-85.8919"/>
</g>
<!-- Node8 -->
<g id="node8" class="node"><title>Node8</title>
<g id="a_node8"><a xlink:href="string_8hpp.html" target="_top" xlink:title="string/string.hpp">
<polygon fill="none" stroke="black" points="341,-174 341,-193 427,-193 427,-174 341,-174"/>
<text text-anchor="middle" x="384" y="-181" font-family="Helvetica,sans-Serif" font-size="10.00">string/string.hpp</text>
</a>
</g>
</g>
<!-- Node2&#45;&gt;Node8 -->
<g id="edge7" class="edge"><title>Node2&#45;&gt;Node8</title>
<path fill="none" stroke="midnightblue" d="M290.617,-235.475C308.586,-225.666 338.321,-209.435 359.406,-197.925"/>
<polygon fill="midnightblue" stroke="midnightblue" points="361.311,-200.873 368.412,-193.009 357.958,-194.728 361.311,-200.873"/>
</g>
<!-- Node8&#45;&gt;Node3 -->
<g id="edge12" class="edge"><title>Node8&#45;&gt;Node3</title>
<path fill="none" stroke="midnightblue" d="M391.667,-173.819C408.65,-154.588 449.668,-108.141 471.6,-83.3054"/>
<polygon fill="midnightblue" stroke="midnightblue" points="474.248,-85.5944 478.244,-75.782 469.002,-80.9608 474.248,-85.5944"/>
</g>
<!-- Node8&#45;&gt;Node4 -->
<g id="edge8" class="edge"><title>Node8&#45;&gt;Node4</title>
<path fill="none" stroke="midnightblue" d="M340.997,-182.564C298.382,-180.272 233.992,-170.094 195,-132 182.79,-120.071 178.318,-100.766 176.735,-86.2881"/>
<polygon fill="midnightblue" stroke="midnightblue" points="180.199,-85.6685 175.991,-75.9452 173.217,-86.1704 180.199,-85.6685"/>
</g>
<!-- Node8&#45;&gt;Node5 -->
<g id="edge14" class="edge"><title>Node8&#45;&gt;Node5</title>
<path fill="none" stroke="midnightblue" d="M340.724,-174.352C283.082,-163.498 181.239,-144.322 119.646,-132.725"/>
<polygon fill="midnightblue" stroke="midnightblue" points="120.223,-129.272 109.748,-130.861 118.928,-136.151 120.223,-129.272"/>
</g>
<!-- Node9 -->
<g id="node9" class="node"><title>Node9</title>
<polygon fill="none" stroke="#bfbfbf" points="354.5,-112.5 354.5,-131.5 413.5,-131.5 413.5,-112.5 354.5,-112.5"/>
<text text-anchor="middle" x="384" y="-119.5" font-family="Helvetica,sans-Serif" font-size="10.00">functional</text>
</g>
<!-- Node8&#45;&gt;Node9 -->
<g id="edge9" class="edge"><title>Node8&#45;&gt;Node9</title>
<path fill="none" stroke="midnightblue" d="M384,-173.975C384,-165.58 384,-152.481 384,-141.663"/>
<polygon fill="midnightblue" stroke="midnightblue" points="387.5,-141.509 384,-131.509 380.5,-141.509 387.5,-141.509"/>
</g>
<!-- Node10 -->
<g id="node10" class="node"><title>Node10</title>
<polygon fill="none" stroke="#bfbfbf" points="727,-112.5 727,-131.5 779,-131.5 779,-112.5 727,-112.5"/>
<text text-anchor="middle" x="753" y="-119.5" font-family="Helvetica,sans-Serif" font-size="10.00">memory</text>
</g>
<!-- Node8&#45;&gt;Node10 -->
<g id="edge10" class="edge"><title>Node8&#45;&gt;Node10</title>
<path fill="none" stroke="midnightblue" d="M411.889,-173.937C419.642,-171.772 428.102,-169.608 436,-168 557.22,-143.324 590.139,-153.282 712,-132 713.481,-131.741 714.989,-131.466 716.511,-131.178"/>
<polygon fill="midnightblue" stroke="midnightblue" points="717.488,-134.552 726.6,-129.146 716.106,-127.69 717.488,-134.552"/>
</g>
<!-- Node11 -->
<g id="node11" class="node"><title>Node11</title>
<polygon fill="none" stroke="#bfbfbf" points="577.5,-112.5 577.5,-131.5 636.5,-131.5 636.5,-112.5 577.5,-112.5"/>
<text text-anchor="middle" x="607" y="-119.5" font-family="Helvetica,sans-Serif" font-size="10.00">stdexcept</text>
</g>
<!-- Node8&#45;&gt;Node11 -->
<g id="edge11" class="edge"><title>Node8&#45;&gt;Node11</title>
<path fill="none" stroke="midnightblue" d="M414.226,-173.991C421.361,-172.005 428.944,-169.912 436,-168 481.036,-155.796 532.874,-142.22 567.561,-133.204"/>
<polygon fill="midnightblue" stroke="midnightblue" points="568.509,-136.574 577.309,-130.673 566.75,-129.799 568.509,-136.574"/>
</g>
<!-- Node12 -->
<g id="node12" class="node"><title>Node12</title>
<polygon fill="none" stroke="#bfbfbf" points="1071,-112.5 1071,-131.5 1123,-131.5 1123,-112.5 1071,-112.5"/>
<text text-anchor="middle" x="1097" y="-119.5" font-family="Helvetica,sans-Serif" font-size="10.00">sstream</text>
</g>
<!-- Node8&#45;&gt;Node12 -->
<g id="edge13" class="edge"><title>Node8&#45;&gt;Node12</title>
<path fill="none" stroke="midnightblue" d="M410.484,-173.992C418.594,-171.692 427.594,-169.443 436,-168 497.611,-157.427 931.23,-132.361 1060.63,-125.041"/>
<polygon fill="midnightblue" stroke="midnightblue" points="1061.02,-128.524 1070.81,-124.466 1060.63,-121.535 1061.02,-128.524"/>
</g>
<!-- Node13 -->
<g id="node13" class="node"><title>Node13</title>
<polygon fill="none" stroke="#bfbfbf" points="659,-112.5 659,-131.5 703,-131.5 703,-112.5 659,-112.5"/>
<text text-anchor="middle" x="681" y="-119.5" font-family="Helvetica,sans-Serif" font-size="10.00">vector</text>
</g>
<!-- Node8&#45;&gt;Node13 -->
<g id="edge15" class="edge"><title>Node8&#45;&gt;Node13</title>
<path fill="none" stroke="midnightblue" d="M412.477,-173.999C420.08,-171.883 428.319,-169.728 436,-168 527.959,-147.315 552.77,-151.444 645,-132 646.277,-131.731 647.576,-131.448 648.888,-131.155"/>
<polygon fill="midnightblue" stroke="midnightblue" points="650.043,-134.479 658.975,-128.782 648.439,-127.665 650.043,-134.479"/>
</g>
<!-- Node14 -->
<g id="node14" class="node"><title>Node14</title>
<g id="a_node14"><a xlink:href="color_8hpp.html" target="_top" xlink:title="color.hpp">
<polygon fill="none" stroke="black" points="204,-112.5 204,-131.5 260,-131.5 260,-112.5 204,-112.5"/>
<text text-anchor="middle" x="232" y="-119.5" font-family="Helvetica,sans-Serif" font-size="10.00">color.hpp</text>
</a>
</g>
</g>
<!-- Node8&#45;&gt;Node14 -->
<g id="edge16" class="edge"><title>Node8&#45;&gt;Node14</title>
<path fill="none" stroke="midnightblue" d="M362.222,-173.975C336.262,-163.813 292.689,-146.756 263.165,-135.2"/>
<polygon fill="midnightblue" stroke="midnightblue" points="264.325,-131.895 253.737,-131.509 261.774,-138.413 264.325,-131.895"/>
</g>
<!-- Node17 -->
<g id="node17" class="node"><title>Node17</title>
<g id="a_node17"><a xlink:href="quickstream_8hpp.html" target="_top" xlink:title="quickstream.hpp">
<polygon fill="none" stroke="black" points="470.5,-112.5 470.5,-131.5 559.5,-131.5 559.5,-112.5 470.5,-112.5"/>
<text text-anchor="middle" x="515" y="-119.5" font-family="Helvetica,sans-Serif" font-size="10.00">quickstream.hpp</text>
</a>
</g>
</g>
<!-- Node8&#45;&gt;Node17 -->
<g id="edge22" class="edge"><title>Node8&#45;&gt;Node17</title>
<path fill="none" stroke="midnightblue" d="M402.769,-173.975C424.851,-163.945 461.719,-147.2 487.139,-135.655"/>
<polygon fill="midnightblue" stroke="midnightblue" points="488.608,-138.831 496.266,-131.509 485.713,-132.458 488.608,-138.831"/>
</g>
<!-- Node14&#45;&gt;Node3 -->
<g id="edge18" class="edge"><title>Node14&#45;&gt;Node3</title>
<path fill="none" stroke="midnightblue" d="M260.012,-114.989C264.683,-113.99 269.478,-112.964 274,-112 338.487,-98.2466 414.03,-82.2356 455.273,-73.5028"/>
<polygon fill="midnightblue" stroke="midnightblue" points="456.176,-76.8894 465.234,-71.394 454.726,-70.0411 456.176,-76.8894"/>
</g>
<!-- Node14&#45;&gt;Node4 -->
<g id="edge17" class="edge"><title>Node14&#45;&gt;Node4</title>
<path fill="none" stroke="midnightblue" d="M223.003,-112.324C214.806,-104.42 202.494,-92.5482 192.528,-82.9377"/>
<polygon fill="midnightblue" stroke="midnightblue" points="194.789,-80.2558 185.161,-75.8339 189.93,-85.2947 194.789,-80.2558"/>
</g>
<!-- Node14&#45;&gt;Node7 -->
<g id="edge21" class="edge"><title>Node14&#45;&gt;Node7</title>
<path fill="none" stroke="midnightblue" d="M203.855,-112.916C171.927,-103.745 119.629,-88.7231 83.5953,-78.3731"/>
<polygon fill="midnightblue" stroke="midnightblue" points="84.4715,-74.9833 73.8938,-75.5865 82.5389,-81.7113 84.4715,-74.9833"/>
</g>
<!-- Node15 -->
<g id="node15" class="node"><title>Node15</title>
<g id="a_node15"><a xlink:href="math_8hpp.html" target="_top" xlink:title="math.hpp">
<polygon fill="none" stroke="black" points="303.5,-56.5 303.5,-75.5 360.5,-75.5 360.5,-56.5 303.5,-56.5"/>
<text text-anchor="middle" x="332" y="-63.5" font-family="Helvetica,sans-Serif" font-size="10.00">math.hpp</text>
</a>
</g>
</g>
<!-- Node14&#45;&gt;Node15 -->
<g id="edge19" class="edge"><title>Node14&#45;&gt;Node15</title>
<path fill="none" stroke="midnightblue" d="M248.067,-112.324C263.958,-103.743 288.507,-90.486 306.958,-80.5224"/>
<polygon fill="midnightblue" stroke="midnightblue" points="308.837,-83.4857 315.973,-75.6545 305.511,-77.3264 308.837,-83.4857"/>
</g>
<!-- Node16 -->
<g id="node16" class="node"><title>Node16</title>
<polygon fill="none" stroke="#bfbfbf" points="716,-0.5 716,-19.5 772,-19.5 772,-0.5 716,-0.5"/>
<text text-anchor="middle" x="744" y="-7.5" font-family="Helvetica,sans-Serif" font-size="10.00">algorithm</text>
</g>
<!-- Node15&#45;&gt;Node16 -->
<g id="edge20" class="edge"><title>Node15&#45;&gt;Node16</title>
<path fill="none" stroke="midnightblue" d="M360.644,-61.2457C433.108,-51.748 623.764,-26.7591 705.691,-16.0211"/>
<polygon fill="midnightblue" stroke="midnightblue" points="706.358,-19.4637 715.818,-14.6937 705.448,-12.5231 706.358,-19.4637"/>
</g>
<!-- Node17&#45;&gt;Node3 -->
<g id="edge23" class="edge"><title>Node17&#45;&gt;Node3</title>
<path fill="none" stroke="midnightblue" d="M510.211,-112.083C506.242,-104.691 500.475,-93.9533 495.565,-84.8111"/>
<polygon fill="midnightblue" stroke="midnightblue" points="498.514,-82.9051 490.7,-75.7511 492.347,-86.217 498.514,-82.9051"/>
</g>
<!-- Node18 -->
<g id="node18" class="node"><title>Node18</title>
<polygon fill="none" stroke="#bfbfbf" points="773.5,-56.5 773.5,-75.5 814.5,-75.5 814.5,-56.5 773.5,-56.5"/>
<text text-anchor="middle" x="794" y="-63.5" font-family="Helvetica,sans-Serif" font-size="10.00">regex</text>
</g>
<!-- Node17&#45;&gt;Node18 -->
<g id="edge24" class="edge"><title>Node17&#45;&gt;Node18</title>
<path fill="none" stroke="midnightblue" d="M559.208,-112.444C616.182,-101.416 713.776,-82.5272 763.275,-72.9468"/>
<polygon fill="midnightblue" stroke="midnightblue" points="764.206,-76.3316 773.359,-70.9951 762.876,-69.4591 764.206,-76.3316"/>
</g>
<!-- Node25&#45;&gt;Node2 -->
<g id="edge47" class="edge"><title>Node25&#45;&gt;Node2</title>
<path fill="none" stroke="midnightblue" d="M417.221,-291.444C388.667,-282.32 343.267,-267.813 311.463,-257.651"/>
<polygon fill="midnightblue" stroke="midnightblue" points="312.244,-254.226 301.653,-254.516 310.114,-260.894 312.244,-254.226"/>
</g>
<!-- Node25&#45;&gt;Node3 -->
<g id="edge36" class="edge"><title>Node25&#45;&gt;Node3</title>
<path fill="none" stroke="midnightblue" d="M437.635,-291.337C427.732,-278.209 407.623,-252.914 387,-235 364.944,-215.841 345.894,-224.7 332,-199 325.448,-186.88 330.432,-181.688 332,-168 334.908,-142.615 327.678,-130.782 345,-112 373.485,-81.1138 423.107,-71.3246 455.242,-68.2826"/>
<polygon fill="midnightblue" stroke="midnightblue" points="455.717,-71.7563 465.414,-67.4889 455.172,-64.7775 455.717,-71.7563"/>
</g>
<!-- Node25&#45;&gt;Node5 -->
<g id="edge37" class="edge"><title>Node25&#45;&gt;Node5</title>
<path fill="none" stroke="midnightblue" d="M399.408,-298.999C343.531,-296.352 245.787,-287.058 169,-255 129.951,-238.697 116.722,-233.343 92,-199 79.6518,-181.847 73.4948,-158.105 70.537,-141.745"/>
<polygon fill="midnightblue" stroke="midnightblue" points="73.9789,-141.102 68.9636,-131.769 67.0644,-142.193 73.9789,-141.102"/>
</g>
<!-- Node25&#45;&gt;Node8 -->
<g id="edge46" class="edge"><title>Node25&#45;&gt;Node8</title>
<path fill="none" stroke="midnightblue" d="M441.587,-291.276C437.876,-278.5 430.124,-254.141 420,-235 413.744,-223.171 405.077,-210.925 397.815,-201.456"/>
<polygon fill="midnightblue" stroke="midnightblue" points="400.348,-199.015 391.408,-193.331 394.852,-203.35 400.348,-199.015"/>
</g>
<!-- Node25&#45;&gt;Node11 -->
<g id="edge35" class="edge"><title>Node25&#45;&gt;Node11</title>
<path fill="none" stroke="midnightblue" d="M455.185,-291.293C476.14,-274.678 522.154,-236.731 555,-199 571.169,-180.426 586.706,-156.69 596.518,-140.727"/>
<polygon fill="midnightblue" stroke="midnightblue" points="599.67,-142.279 601.842,-131.909 593.677,-138.661 599.67,-142.279"/>
</g>
<!-- Node26 -->
<g id="node26" class="node"><title>Node26</title>
<polygon fill="none" stroke="#bfbfbf" points="328,-235.5 328,-254.5 378,-254.5 378,-235.5 328,-235.5"/>
<text text-anchor="middle" x="353" y="-242.5" font-family="Helvetica,sans-Serif" font-size="10.00">iomanip</text>
</g>
<!-- Node25&#45;&gt;Node26 -->
<g id="edge32" class="edge"><title>Node25&#45;&gt;Node26</title>
<path fill="none" stroke="midnightblue" d="M429.379,-291.324C415.051,-282.822 392.987,-269.729 376.251,-259.797"/>
<polygon fill="midnightblue" stroke="midnightblue" points="377.97,-256.748 367.584,-254.655 374.398,-262.768 377.97,-256.748"/>
</g>
<!-- Node27 -->
<g id="node27" class="node"><title>Node27</title>
<polygon fill="none" stroke="#bfbfbf" points="603,-174 603,-193 657,-193 657,-174 603,-174"/>
<text text-anchor="middle" x="630" y="-181" font-family="Helvetica,sans-Serif" font-size="10.00">iostream</text>
</g>
<!-- Node25&#45;&gt;Node27 -->
<g id="edge33" class="edge"><title>Node25&#45;&gt;Node27</title>
<path fill="none" stroke="midnightblue" d="M488.553,-294.814C519.474,-289.29 560.133,-277.987 589,-255 605.919,-241.527 617.245,-219.033 623.628,-203.079"/>
<polygon fill="midnightblue" stroke="midnightblue" points="627.07,-203.863 627.266,-193.27 620.507,-201.429 627.07,-203.863"/>
</g>
<!-- Node28 -->
<g id="node28" class="node"><title>Node28</title>
<polygon fill="none" stroke="#bfbfbf" points="178,-235.5 178,-254.5 222,-254.5 222,-235.5 178,-235.5"/>
<text text-anchor="middle" x="200" y="-242.5" font-family="Helvetica,sans-Serif" font-size="10.00">mutex</text>
</g>
<!-- Node25&#45;&gt;Node28 -->
<g id="edge34" class="edge"><title>Node25&#45;&gt;Node28</title>
<path fill="none" stroke="midnightblue" d="M399.312,-291.563C358.172,-283.571 295.261,-270.786 232.034,-255.123"/>
<polygon fill="midnightblue" stroke="midnightblue" points="232.848,-251.719 222.297,-252.688 231.149,-258.51 232.848,-251.719"/>
</g>
<!-- Node29 -->
<g id="node29" class="node"><title>Node29</title>
<g id="a_node29"><a xlink:href="multibuf_8hpp.html" target="_top" xlink:title="multibuf.hpp">
<polygon fill="none" stroke="black" points="699,-235.5 699,-254.5 769,-254.5 769,-235.5 699,-235.5"/>
<text text-anchor="middle" x="734" y="-242.5" font-family="Helvetica,sans-Serif" font-size="10.00">multibuf.hpp</text>
</a>
</g>
</g>
<!-- Node25&#45;&gt;Node29 -->
<g id="edge38" class="edge"><title>Node25&#45;&gt;Node29</title>
<path fill="none" stroke="midnightblue" d="M488.677,-291.681C543.008,-281.564 634.198,-264.584 688.776,-254.421"/>
<polygon fill="midnightblue" stroke="midnightblue" points="689.662,-257.816 698.852,-252.545 688.381,-250.935 689.662,-257.816"/>
</g>
<!-- Node29&#45;&gt;Node3 -->
<g id="edge42" class="edge"><title>Node29&#45;&gt;Node3</title>
<path fill="none" stroke="midnightblue" d="M757.788,-235.499C773.721,-228.413 793.463,-216.605 803,-199 821.689,-164.5 817.278,-138.122 788,-112 748.389,-76.6586 585.906,-69.0727 517.058,-67.4447"/>
<polygon fill="midnightblue" stroke="midnightblue" points="516.917,-63.9411 506.846,-67.2312 516.77,-70.9395 516.917,-63.9411"/>
</g>
<!-- Node29&#45;&gt;Node13 -->
<g id="edge41" class="edge"><title>Node29&#45;&gt;Node13</title>
<path fill="none" stroke="midnightblue" d="M727.213,-235.493C720.527,-226.768 710.412,-212.586 704,-199 695.194,-180.341 688.823,-157.521 685.05,-141.785"/>
<polygon fill="midnightblue" stroke="midnightblue" points="688.396,-140.712 682.764,-131.738 681.57,-142.266 688.396,-140.712"/>
</g>
<!-- Node29&#45;&gt;Node27 -->
<g id="edge39" class="edge"><title>Node29&#45;&gt;Node27</title>
<path fill="none" stroke="midnightblue" d="M719.099,-235.475C702.032,-225.711 673.839,-209.581 653.738,-198.081"/>
<polygon fill="midnightblue" stroke="midnightblue" points="655.291,-194.937 644.873,-193.009 651.815,-201.013 655.291,-194.937"/>
</g>
<!-- Node30 -->
<g id="node30" class="node"><title>Node30</title>
<polygon fill="none" stroke="#bfbfbf" points="851,-174 851,-193 901,-193 901,-174 851,-174"/>
<text text-anchor="middle" x="876" y="-181" font-family="Helvetica,sans-Serif" font-size="10.00">fstream</text>
</g>
<!-- Node29&#45;&gt;Node30 -->
<g id="edge40" class="edge"><title>Node29&#45;&gt;Node30</title>
<path fill="none" stroke="midnightblue" d="M754.345,-235.475C778.387,-225.401 818.597,-208.553 846.163,-197.002"/>
<polygon fill="midnightblue" stroke="midnightblue" points="847.822,-200.102 855.693,-193.009 845.117,-193.646 847.822,-200.102"/>
</g>
<!-- Node31 -->
<g id="node31" class="node"><title>Node31</title>
<g id="a_node31"><a xlink:href="maybe__ptr_8hpp.html" target="_top" xlink:title="maybe_ptr.hpp">
<polygon fill="none" stroke="black" points="713.5,-174 713.5,-193 794.5,-193 794.5,-174 713.5,-174"/>
<text text-anchor="middle" x="754" y="-181" font-family="Helvetica,sans-Serif" font-size="10.00">maybe_ptr.hpp</text>
</a>
</g>
</g>
<!-- Node29&#45;&gt;Node31 -->
<g id="edge43" class="edge"><title>Node29&#45;&gt;Node31</title>
<path fill="none" stroke="midnightblue" d="M736.866,-235.475C739.717,-226.992 744.183,-213.704 747.841,-202.822"/>
<polygon fill="midnightblue" stroke="midnightblue" points="751.271,-203.603 751.14,-193.009 744.636,-201.373 751.271,-203.603"/>
</g>
<!-- Node31&#45;&gt;Node10 -->
<g id="edge44" class="edge"><title>Node31&#45;&gt;Node10</title>
<path fill="none" stroke="midnightblue" d="M753.857,-173.975C753.716,-165.58 753.495,-152.481 753.314,-141.663"/>
<polygon fill="midnightblue" stroke="midnightblue" points="756.811,-141.449 753.143,-131.509 749.812,-141.567 756.811,-141.449"/>
</g>
<!-- Node32 -->
<g id="node32" class="node"><title>Node32</title>
<polygon fill="none" stroke="#bfbfbf" points="839,-112.5 839,-131.5 901,-131.5 901,-112.5 839,-112.5"/>
<text text-anchor="middle" x="870" y="-119.5" font-family="Helvetica,sans-Serif" font-size="10.00">type_traits</text>
</g>
<!-- Node31&#45;&gt;Node32 -->
<g id="edge45" class="edge"><title>Node31&#45;&gt;Node32</title>
<path fill="none" stroke="midnightblue" d="M770.62,-173.975C789.915,-164.078 821.959,-147.642 844.431,-136.115"/>
<polygon fill="midnightblue" stroke="midnightblue" points="846.11,-139.187 853.411,-131.509 842.916,-132.959 846.11,-139.187"/>
</g>
<!-- Node33&#45;&gt;Node3 -->
<g id="edge53" class="edge"><title>Node33&#45;&gt;Node3</title>
<path fill="none" stroke="midnightblue" d="M845.467,-352.798C849.266,-331.671 860.651,-276.367 882,-235 891.296,-216.988 903.422,-218.173 910,-199 922.549,-162.426 935.858,-140.748 910,-112 883.75,-82.8168 609.942,-71.1012 516.811,-67.9414"/>
<polygon fill="midnightblue" stroke="midnightblue" points="516.735,-64.4371 506.625,-67.6058 516.504,-71.4333 516.735,-64.4371"/>
</g>
<!-- Node33&#45;&gt;Node6 -->
<g id="edge54" class="edge"><title>Node33&#45;&gt;Node6</title>
<path fill="none" stroke="midnightblue" d="M827.215,-352.963C773.833,-325.811 607.112,-241.014 532.608,-203.12"/>
<polygon fill="midnightblue" stroke="midnightblue" points="534.071,-199.937 523.571,-198.523 530.897,-206.176 534.071,-199.937"/>
</g>
<!-- Node33&#45;&gt;Node12 -->
<g id="edge52" class="edge"><title>Node33&#45;&gt;Node12</title>
<path fill="none" stroke="midnightblue" d="M870.271,-352.993C877.577,-350.828 885.551,-348.65 893,-347 945.868,-335.289 1098.65,-352.021 1134,-311 1176.86,-261.265 1131.64,-176.476 1108.68,-140.243"/>
<polygon fill="midnightblue" stroke="midnightblue" points="1111.53,-138.213 1103.14,-131.753 1105.67,-142.04 1111.53,-138.213"/>
</g>
<!-- Node33&#45;&gt;Node25 -->
<g id="edge55" class="edge"><title>Node33&#45;&gt;Node25</title>
<path fill="none" stroke="midnightblue" d="M803.815,-355.522C731.714,-344.798 580.317,-322.277 498.781,-310.149"/>
<polygon fill="midnightblue" stroke="midnightblue" points="499.121,-306.661 488.714,-308.651 498.091,-313.585 499.121,-306.661"/>
</g>
<!-- Node33&#45;&gt;Node30 -->
<g id="edge49" class="edge"><title>Node33&#45;&gt;Node30</title>
<path fill="none" stroke="midnightblue" d="M843.02,-352.708C840.977,-331.837 837.361,-277.845 849,-235 852.172,-223.322 858.432,-211.333 864.125,-201.968"/>
<polygon fill="midnightblue" stroke="midnightblue" points="867.244,-203.588 869.701,-193.282 861.354,-199.807 867.244,-203.588"/>
</g>
<!-- Node34 -->
<g id="node34" class="node"><title>Node34</title>
<polygon fill="none" stroke="#bfbfbf" points="1017.5,-291.5 1017.5,-310.5 1066.5,-310.5 1066.5,-291.5 1017.5,-291.5"/>
<text text-anchor="middle" x="1042" y="-298.5" font-family="Helvetica,sans-Serif" font-size="10.00">istream</text>
</g>
<!-- Node33&#45;&gt;Node34 -->
<g id="edge50" class="edge"><title>Node33&#45;&gt;Node34</title>
<path fill="none" stroke="midnightblue" d="M872.369,-352.975C908.099,-342.238 969.44,-323.805 1007.75,-312.293"/>
<polygon fill="midnightblue" stroke="midnightblue" points="1008.86,-315.613 1017.43,-309.384 1006.85,-308.91 1008.86,-315.613"/>
</g>
<!-- Node35 -->
<g id="node35" class="node"><title>Node35</title>
<polygon fill="none" stroke="#bfbfbf" points="1084.5,-291.5 1084.5,-310.5 1125.5,-310.5 1125.5,-291.5 1084.5,-291.5"/>
<text text-anchor="middle" x="1105" y="-298.5" font-family="Helvetica,sans-Serif" font-size="10.00">stack</text>
</g>
<!-- Node33&#45;&gt;Node35 -->
<g id="edge51" class="edge"><title>Node33&#45;&gt;Node35</title>
<path fill="none" stroke="midnightblue" d="M871.092,-352.997C878.186,-350.904 885.85,-348.761 893,-347 969.936,-328.051 993.173,-330.625 1074.24,-310.97"/>
<polygon fill="midnightblue" stroke="midnightblue" points="1075.54,-314.252 1084.42,-308.46 1073.87,-307.455 1075.54,-314.252"/>
</g>
<!-- Node36 -->
<g id="node36" class="node"><title>Node36</title>
<g id="a_node36"><a xlink:href="string__functions_8hpp.html" target="_top" xlink:title="string_functions.hpp">
<polygon fill="none" stroke="black" points="895,-291.5 895,-310.5 999,-310.5 999,-291.5 895,-291.5"/>
<text text-anchor="middle" x="947" y="-298.5" font-family="Helvetica,sans-Serif" font-size="10.00">string_functions.hpp</text>
</a>
</g>
</g>
<!-- Node33&#45;&gt;Node36 -->
<g id="edge56" class="edge"><title>Node33&#45;&gt;Node36</title>
<path fill="none" stroke="midnightblue" d="M858.757,-352.975C875.661,-343.211 903.583,-327.081 923.49,-315.581"/>
<polygon fill="midnightblue" stroke="midnightblue" points="925.362,-318.542 932.27,-310.509 921.86,-312.481 925.362,-318.542"/>
</g>
<!-- Node36&#45;&gt;Node2 -->
<g id="edge63" class="edge"><title>Node36&#45;&gt;Node2</title>
<path fill="none" stroke="midnightblue" d="M894.656,-298.552C788.247,-295.111 538.942,-284.512 320.522,-255.041"/>
<polygon fill="midnightblue" stroke="midnightblue" points="320.855,-251.554 310.473,-253.669 319.908,-258.49 320.855,-251.554"/>
</g>
<!-- Node36&#45;&gt;Node3 -->
<g id="edge61" class="edge"><title>Node36&#45;&gt;Node3</title>
<path fill="none" stroke="midnightblue" d="M951.111,-291.277C955.059,-282.383 960.745,-268.074 963,-255 971.692,-204.606 969.067,-136.474 943,-112 911.943,-82.8415 614.181,-71.004 516.714,-67.8903"/>
<polygon fill="midnightblue" stroke="midnightblue" points="516.725,-64.3891 506.621,-67.5764 516.508,-71.3857 516.725,-64.3891"/>
</g>
<!-- Node36&#45;&gt;Node12 -->
<g id="edge60" class="edge"><title>Node36&#45;&gt;Node12</title>
<path fill="none" stroke="midnightblue" d="M991.115,-291.46C1013.65,-284.982 1039.85,-273.846 1057,-255 1086.32,-222.78 1094.17,-169.688 1096.26,-141.663"/>
<polygon fill="midnightblue" stroke="midnightblue" points="1099.75,-141.812 1096.83,-131.628 1092.76,-141.411 1099.75,-141.812"/>
</g>
<!-- Node36&#45;&gt;Node16 -->
<g id="edge57" class="edge"><title>Node36&#45;&gt;Node16</title>
<path fill="none" stroke="midnightblue" d="M999.189,-292.063C1025.43,-285.782 1056.21,-274.641 1078,-255 1128.47,-209.518 1173.55,-165.749 1132,-112 1088.9,-56.2459 871.247,-25.5035 782.129,-15.0866"/>
<polygon fill="midnightblue" stroke="midnightblue" points="782.501,-11.6063 772.167,-13.9445 781.703,-18.5608 782.501,-11.6063"/>
</g>
<!-- Node36&#45;&gt;Node18 -->
<g id="edge59" class="edge"><title>Node36&#45;&gt;Node18</title>
<path fill="none" stroke="midnightblue" d="M972.504,-291.472C988.987,-284.478 1009.14,-272.792 1019,-255 1049.81,-199.412 1059.29,-161.15 1019,-112 994.74,-82.4071 880.174,-71.8872 824.507,-68.4797"/>
<polygon fill="midnightblue" stroke="midnightblue" points="824.703,-64.9852 814.518,-67.9063 824.301,-71.9737 824.703,-64.9852"/>
</g>
<!-- Node36&#45;&gt;Node32 -->
<g id="edge62" class="edge"><title>Node36&#45;&gt;Node32</title>
<path fill="none" stroke="midnightblue" d="M948.341,-291.416C950.01,-278.814 952.07,-254.67 947,-235 936.913,-195.867 905.859,-158.966 886.408,-138.826"/>
<polygon fill="midnightblue" stroke="midnightblue" points="888.883,-136.351 879.351,-131.726 883.918,-141.286 888.883,-136.351"/>
</g>
<!-- Node37 -->
<g id="node37" class="node"><title>Node37</title>
<polygon fill="none" stroke="#bfbfbf" points="891.5,-235.5 891.5,-254.5 938.5,-254.5 938.5,-235.5 891.5,-235.5"/>
<text text-anchor="middle" x="915" y="-242.5" font-family="Helvetica,sans-Serif" font-size="10.00">iterator</text>
</g>
<!-- Node36&#45;&gt;Node37 -->
<g id="edge58" class="edge"><title>Node36&#45;&gt;Node37</title>
<path fill="none" stroke="midnightblue" d="M941.716,-291.083C937.289,-283.613 930.837,-272.724 925.382,-263.52"/>
<polygon fill="midnightblue" stroke="midnightblue" points="928.295,-261.57 920.186,-254.751 922.273,-265.138 928.295,-261.57"/>
</g>
</g>
</svg>
        <g id="navigator" transform="translate(0 0)" fill="#404254">
                <rect fill="#f2f5e9" fill-opacity="0.5" stroke="#606060" stroke-width=".5" x="0" y="0" width="60" height="60"/>
                <use id="zoomplus" xlink:href="#zoomPlus" x="17" y="9" onmousedown="handleZoom(evt,'in')"/>
                <use id="zoomminus" xlink:href="#zoomMin" x="42" y="9" onmousedown="handleZoom(evt,'out')"/>
                <use id="reset" xlink:href="#resetDef" x="30" y="36" onmousedown="handleReset()"/>
                <g id="arrowUp" xlink:href="#dirArrow" transform="translate(30 24)" onmousedown="handlePan(0,-1)">
                  <use xlink:href="#rim" fill="#404040">
                        <set attributeName="fill" to="#808080" begin="arrowUp.mouseover" end="arrowUp.mouseout"/>
                  </use>
                  <path fill="none" stroke="white" stroke-width="1.5" d="M0,-3.0v7 M-2.5,-0.5L0,-3.0L2.5,-0.5"/>
                </g>
                <g id="arrowRight" xlink:href="#dirArrow" transform="rotate(90) translate(36 -43)" onmousedown="handlePan(1,0)">
                  <use xlink:href="#rim" fill="#404040">
                        <set attributeName="fill" to="#808080" begin="arrowRight.mouseover" end="arrowRight.mouseout"/>
                  </use>
                  <path fill="none" stroke="white" stroke-width="1.5" d="M0,-3.0v7 M-2.5,-0.5L0,-3.0L2.5,-0.5"/>
                </g>
                <g id="arrowDown" xlink:href="#dirArrow" transform="rotate(180) translate(-30 -48)" onmousedown="handlePan(0,1)">
                  <use xlink:href="#rim" fill="#404040">
                        <set attributeName="fill" to="#808080" begin="arrowDown.mouseover" end="arrowDown.mouseout"/>
                  </use>
                  <path fill="none" stroke="white" stroke-width="1.5" d="M0,-3.0v7 M-2.5,-0.5L0,-3.0L2.5,-0.5"/>
                </g>
                <g id="arrowLeft" xlink:href="#dirArrow" transform="rotate(270) translate(-36 17)" onmousedown="handlePan(-1,0)">
                  <use xlink:href="#rim" fill="#404040">
                        <set attributeName="fill" to="#808080" begin="arrowLeft.mouseover" end="arrowLeft.mouseout"/>
                  </use>
                  <path fill="none" stroke="white" stroke-width="1.5" d="M0,-3.0v7 M-2.5,-0.5L0,-3.0L2.5,-0.5"/>
                </g>
        </g>
        <svg viewBox="0 0 15 15" width="100%" height="30px" preserveAspectRatio="xMaxYMin meet">
         <g id="arrow_out" transform="scale(0.3 0.3)">
          <a xlink:href="settings_8cpp__incl_org.svg" target="_base">
           <rect id="button" ry="5" rx="5" y="6" x="6" height="38" width="38"
                fill="#f2f5e9" fill-opacity="0.5" stroke="#606060" stroke-width="1.0"/>
           <path id="arrow"
             d="M 11.500037,31.436501 C 11.940474,20.09759 22.043105,11.32322 32.158766,21.979434 L 37.068811,17.246167 C 37.068811,17.246167 37.088388,32 37.088388,32 L 22.160133,31.978069 C 22.160133,31.978069 26.997745,27.140456 26.997745,27.140456 C 18.528582,18.264221 13.291696,25.230495 11.500037,31.436501 z"
             style="fill:#404040;"/>
          </a>
         </g>
        </svg>
</svg>
