<?xml version="1.0" encoding="UTF-8" standalone="no"?>
<!DOCTYPE svg PUBLIC "-//W3C//DTD SVG 1.1//EN"
 "http://www.w3.org/Graphics/SVG/1.1/DTD/svg11.dtd">
<!-- Generated by graphviz version 2.38.0 (20140413.2041)
 -->
<!-- Title: src/settings.hpp Pages: 1 -->
<svg width="2219pt" height="520pt"
 viewBox="0.00 0.00 2219.01 520.00" xmlns="http://www.w3.org/2000/svg" xmlns:xlink="http://www.w3.org/1999/xlink">
<g id="graph0" class="graph" transform="scale(1 1) rotate(0) translate(4 516)">
<title>src/settings.hpp</title>
<!-- Node1 -->
<g id="node1" class="node"><title>Node1</title>
<polygon fill="#bfbfbf" stroke="black" points="1085.51,-492.5 1085.51,-511.5 1171.51,-511.5 1171.51,-492.5 1085.51,-492.5"/>
<text text-anchor="middle" x="1128.51" y="-499.5" font-family="Helvetica,sans-Serif" font-size="10.00">src/settings.hpp</text>
</g>
<!-- Node2 -->
<g id="node2" class="node"><title>Node2</title>
<g id="a_node2"><a xlink:href="string__functions_8hpp.html" target="_top" xlink:title="src/string/string_functions.hpp">
<polygon fill="none" stroke="black" points="417.506,-313.5 417.506,-332.5 565.506,-332.5 565.506,-313.5 417.506,-313.5"/>
<text text-anchor="middle" x="491.506" y="-320.5" font-family="Helvetica,sans-Serif" font-size="10.00">src/string/string_functions.hpp</text>
</a>
</g>
</g>
<!-- Node1&#45;&gt;Node2 -->
<g id="edge1" class="edge"><title>Node1&#45;&gt;Node2</title>
<path fill="none" stroke="midnightblue" d="M1088.03,-489.754C969.864,-456.919 627.073,-361.669 522.294,-332.555"/>
<polygon fill="midnightblue" stroke="midnightblue" points="1087.21,-493.158 1097.78,-492.463 1089.08,-486.413 1087.21,-493.158"/>
</g>
<!-- Node6 -->
<g id="node6" class="node"><title>Node6</title>
<g id="a_node6"><a xlink:href="melanobot_8hpp.html" target="_top" xlink:title="src/melanobot.hpp">
<polygon fill="none" stroke="black" points="1453.01,-196 1453.01,-215 1550.01,-215 1550.01,-196 1453.01,-196"/>
<text text-anchor="middle" x="1501.51" y="-203" font-family="Helvetica,sans-Serif" font-size="10.00">src/melanobot.hpp</text>
</a>
</g>
</g>
<!-- Node1&#45;&gt;Node6 -->
<g id="edge66" class="edge"><title>Node1&#45;&gt;Node6</title>
<path fill="none" stroke="midnightblue" d="M1182.06,-499.007C1308.79,-492.837 1616.51,-468.721 1616.51,-380 1616.51,-380 1616.51,-380 1616.51,-322 1616.51,-268.519 1553.82,-231.052 1521.01,-215.103"/>
<polygon fill="midnightblue" stroke="midnightblue" points="1181.64,-495.523 1171.81,-499.486 1181.97,-502.515 1181.64,-495.523"/>
</g>
<!-- Node8 -->
<g id="node8" class="node"><title>Node8</title>
<g id="a_node8"><a xlink:href="handler_8hpp.html" target="_top" xlink:title="src/handler/handler.hpp">
<polygon fill="none" stroke="black" points="1480.51,-129 1480.51,-148 1598.51,-148 1598.51,-129 1480.51,-129"/>
<text text-anchor="middle" x="1539.51" y="-136" font-family="Helvetica,sans-Serif" font-size="10.00">src/handler/handler.hpp</text>
</a>
</g>
</g>
<!-- Node1&#45;&gt;Node8 -->
<g id="edge69" class="edge"><title>Node1&#45;&gt;Node8</title>
<path fill="none" stroke="midnightblue" d="M1181.78,-499.266C1281.9,-495.388 1494.11,-484.045 1561.51,-456 1610.79,-435.491 1654.51,-433.38 1654.51,-380 1654.51,-380 1654.51,-380 1654.51,-266 1654.51,-208.42 1588.46,-165.463 1556.47,-148.033"/>
<polygon fill="midnightblue" stroke="midnightblue" points="1181.44,-495.777 1171.58,-499.651 1181.71,-502.772 1181.44,-495.777"/>
</g>
<!-- Node22 -->
<g id="node22" class="node"><title>Node22</title>
<g id="a_node22"><a xlink:href="main_8cpp.html" target="_top" xlink:title="src/main.cpp">
<polygon fill="none" stroke="black" points="1117.01,-129 1117.01,-148 1190.01,-148 1190.01,-129 1117.01,-129"/>
<text text-anchor="middle" x="1153.51" y="-136" font-family="Helvetica,sans-Serif" font-size="10.00">src/main.cpp</text>
</a>
</g>
</g>
<!-- Node1&#45;&gt;Node22 -->
<g id="edge71" class="edge"><title>Node1&#45;&gt;Node22</title>
<path fill="none" stroke="midnightblue" d="M1115.27,-483.773C1089.69,-448.24 1039.39,-365.735 1079.51,-313 1115.8,-265.285 1173.21,-324.715 1209.51,-277 1241.81,-234.535 1185.26,-170.843 1162.43,-148.017"/>
<polygon fill="midnightblue" stroke="midnightblue" points="1112.69,-486.166 1121.45,-492.118 1118.31,-481.999 1112.69,-486.166"/>
</g>
<!-- Node28 -->
<g id="node28" class="node"><title>Node28</title>
<g id="a_node28"><a xlink:href="settings_8cpp.html" target="_top" xlink:title="src/settings.cpp">
<polygon fill="none" stroke="black" points="570.506,-196 570.506,-215 656.506,-215 656.506,-196 570.506,-196"/>
<text text-anchor="middle" x="613.506" y="-203" font-family="Helvetica,sans-Serif" font-size="10.00">src/settings.cpp</text>
</a>
</g>
</g>
<!-- Node1&#45;&gt;Node28 -->
<g id="edge70" class="edge"><title>Node1&#45;&gt;Node28</title>
<path fill="none" stroke="midnightblue" d="M1075.01,-500.926C851.713,-499.924 5.50588,-488.941 5.50588,-380 5.50588,-380 5.50588,-380 5.50588,-322 5.50588,-291.902 1.21607,-276.065 24.5059,-257 66.4977,-222.626 441.132,-210.58 570.108,-207.431"/>
<polygon fill="midnightblue" stroke="midnightblue" points="1075.16,-504.427 1085.17,-500.967 1075.19,-497.427 1075.16,-504.427"/>
</g>
<!-- Node30 -->
<g id="node30" class="node"><title>Node30</title>
<g id="a_node30"><a xlink:href="logger_8hpp.html" target="_top" xlink:title="src/string/logger.hpp">
<polygon fill="none" stroke="black" points="921.006,-313.5 921.006,-332.5 1026.01,-332.5 1026.01,-313.5 921.006,-313.5"/>
<text text-anchor="middle" x="973.506" y="-320.5" font-family="Helvetica,sans-Serif" font-size="10.00">src/string/logger.hpp</text>
</a>
</g>
</g>
<!-- Node1&#45;&gt;Node30 -->
<g id="edge41" class="edge"><title>Node1&#45;&gt;Node30</title>
<path fill="none" stroke="midnightblue" d="M1096.18,-488.424C1079.83,-480.87 1060.54,-469.991 1046.51,-456 1008.3,-417.916 984.312,-355.651 976.4,-332.781"/>
<polygon fill="midnightblue" stroke="midnightblue" points="1094.84,-491.657 1105.4,-492.486 1097.66,-485.251 1094.84,-491.657"/>
</g>
<!-- Node36 -->
<g id="node36" class="node"><title>Node36</title>
<g id="a_node36"><a xlink:href="user_8hpp.html" target="_top" xlink:title="src/user/user.hpp">
<polygon fill="none" stroke="black" points="1150.51,-431 1150.51,-450 1242.51,-450 1242.51,-431 1150.51,-431"/>
<text text-anchor="middle" x="1196.51" y="-438" font-family="Helvetica,sans-Serif" font-size="10.00">src/user/user.hpp</text>
</a>
</g>
</g>
<!-- Node1&#45;&gt;Node36 -->
<g id="edge58" class="edge"><title>Node1&#45;&gt;Node36</title>
<path fill="none" stroke="midnightblue" d="M1146.05,-485.65C1159.01,-474.306 1176.18,-459.281 1186.78,-450.009"/>
<polygon fill="midnightblue" stroke="midnightblue" points="1143.47,-483.256 1138.25,-492.475 1148.08,-488.524 1143.47,-483.256"/>
</g>
<!-- Node42 -->
<g id="node42" class="node"><title>Node42</title>
<g id="a_node42"><a xlink:href="handler__container_8hpp.html" target="_top" xlink:title="src/handler/handler\l_container.hpp">
<polygon fill="none" stroke="black" points="1354.01,-425.5 1354.01,-455.5 1453.01,-455.5 1453.01,-425.5 1354.01,-425.5"/>
<text text-anchor="start" x="1362.01" y="-443.5" font-family="Helvetica,sans-Serif" font-size="10.00">src/handler/handler</text>
<text text-anchor="middle" x="1403.51" y="-432.5" font-family="Helvetica,sans-Serif" font-size="10.00">_container.hpp</text>
</a>
</g>
</g>
<!-- Node1&#45;&gt;Node42 -->
<g id="edge67" class="edge"><title>Node1&#45;&gt;Node42</title>
<path fill="none" stroke="midnightblue" d="M1177.8,-490.335C1227.58,-479.564 1304.06,-463.017 1353.94,-452.224"/>
<polygon fill="midnightblue" stroke="midnightblue" points="1176.94,-486.939 1167.91,-492.475 1178.42,-493.781 1176.94,-486.939"/>
</g>
<!-- Node3 -->
<g id="node3" class="node"><title>Node3</title>
<g id="a_node3"><a xlink:href="string__functions_8cpp.html" target="_top" xlink:title="src/string/string_functions.cpp">
<polygon fill="none" stroke="black" points="33.5059,-257.5 33.5059,-276.5 181.506,-276.5 181.506,-257.5 33.5059,-257.5"/>
<text text-anchor="middle" x="107.506" y="-264.5" font-family="Helvetica,sans-Serif" font-size="10.00">src/string/string_functions.cpp</text>
</a>
</g>
</g>
<!-- Node2&#45;&gt;Node3 -->
<g id="edge2" class="edge"><title>Node2&#45;&gt;Node3</title>
<path fill="none" stroke="midnightblue" d="M420.694,-312.042C348.169,-301.843 236.621,-286.157 168.067,-276.516"/>
<polygon fill="midnightblue" stroke="midnightblue" points="420.27,-315.517 430.66,-313.444 421.245,-308.585 420.27,-315.517"/>
</g>
<!-- Node4 -->
<g id="node4" class="node"><title>Node4</title>
<g id="a_node4"><a xlink:href="string_8cpp.html" target="_top" xlink:title="src/string/string.cpp">
<polygon fill="none" stroke="black" points="361.006,-257.5 361.006,-276.5 464.006,-276.5 464.006,-257.5 361.006,-257.5"/>
<text text-anchor="middle" x="412.506" y="-264.5" font-family="Helvetica,sans-Serif" font-size="10.00">src/string/string.cpp</text>
</a>
</g>
</g>
<!-- Node2&#45;&gt;Node4 -->
<g id="edge3" class="edge"><title>Node2&#45;&gt;Node4</title>
<path fill="none" stroke="midnightblue" d="M470.472,-307.622C456.04,-297.757 437.364,-284.992 425.167,-276.655"/>
<polygon fill="midnightblue" stroke="midnightblue" points="468.582,-310.57 478.813,-313.324 472.533,-304.791 468.582,-310.57"/>
</g>
<!-- Node5 -->
<g id="node5" class="node"><title>Node5</title>
<g id="a_node5"><a xlink:href="src_2network_2connection_8hpp.html" target="_top" xlink:title="src/network/connection.hpp">
<polygon fill="none" stroke="black" points="1318.01,-257.5 1318.01,-276.5 1455.01,-276.5 1455.01,-257.5 1318.01,-257.5"/>
<text text-anchor="middle" x="1386.51" y="-264.5" font-family="Helvetica,sans-Serif" font-size="10.00">src/network/connection.hpp</text>
</a>
</g>
</g>
<!-- Node2&#45;&gt;Node5 -->
<g id="edge4" class="edge"><title>Node2&#45;&gt;Node5</title>
<path fill="none" stroke="midnightblue" d="M575.5,-316.932C751.562,-306.309 1156.32,-281.888 1317.98,-272.134"/>
<polygon fill="midnightblue" stroke="midnightblue" points="575.28,-313.439 565.509,-317.535 575.702,-320.426 575.28,-313.439"/>
</g>
<!-- Node2&#45;&gt;Node8 -->
<g id="edge35" class="edge"><title>Node2&#45;&gt;Node8</title>
<path fill="none" stroke="midnightblue" d="M576.02,-320.868C654.668,-317.767 774.319,-307.776 873.506,-277 891.734,-271.344 893.521,-263.387 911.506,-257 1054.18,-206.335 1096.66,-217.707 1245.51,-190 1330.02,-174.267 1428.55,-157.704 1487.38,-148.003"/>
<polygon fill="midnightblue" stroke="midnightblue" points="575.545,-317.383 565.68,-321.246 575.801,-324.379 575.545,-317.383"/>
</g>
<!-- Node25 -->
<g id="node25" class="node"><title>Node25</title>
<g id="a_node25"><a xlink:href="connection_8cpp.html" target="_top" xlink:title="modules/irc/network\l/connection.cpp">
<polygon fill="none" stroke="black" points="440.506,-56.5 440.506,-86.5 544.506,-86.5 544.506,-56.5 440.506,-56.5"/>
<text text-anchor="start" x="448.506" y="-74.5" font-family="Helvetica,sans-Serif" font-size="10.00">modules/irc/network</text>
<text text-anchor="middle" x="492.506" y="-63.5" font-family="Helvetica,sans-Serif" font-size="10.00">/connection.cpp</text>
</a>
</g>
</g>
<!-- Node2&#45;&gt;Node25 -->
<g id="edge39" class="edge"><title>Node2&#45;&gt;Node25</title>
<path fill="none" stroke="midnightblue" d="M406.97,-319.89C279.362,-315.821 49.666,-304.701 24.5059,-277 -100.686,-139.165 294.438,-89.8548 440.478,-76.5844"/>
<polygon fill="midnightblue" stroke="midnightblue" points="407.002,-323.393 417.106,-320.206 407.22,-316.396 407.002,-323.393"/>
</g>
<!-- Node27 -->
<g id="node27" class="node"><title>Node27</title>
<g id="a_node27"><a xlink:href="json_8hpp.html" target="_top" xlink:title="src/string/json.hpp">
<polygon fill="none" stroke="black" points="521.006,-257.5 521.006,-276.5 618.006,-276.5 618.006,-257.5 521.006,-257.5"/>
<text text-anchor="middle" x="569.506" y="-264.5" font-family="Helvetica,sans-Serif" font-size="10.00">src/string/json.hpp</text>
</a>
</g>
</g>
<!-- Node2&#45;&gt;Node27 -->
<g id="edge36" class="edge"><title>Node2&#45;&gt;Node27</title>
<path fill="none" stroke="midnightblue" d="M512.274,-307.622C526.523,-297.757 544.962,-284.992 557.005,-276.655"/>
<polygon fill="midnightblue" stroke="midnightblue" points="510.268,-304.754 504.038,-313.324 514.252,-310.51 510.268,-304.754"/>
</g>
<!-- Node29 -->
<g id="node29" class="node"><title>Node29</title>
<g id="a_node29"><a xlink:href="irc__formatter_8cpp.html" target="_top" xlink:title="modules/irc/irc_formatter.cpp">
<polygon fill="none" stroke="black" points="200.006,-257.5 200.006,-276.5 343.006,-276.5 343.006,-257.5 200.006,-257.5"/>
<text text-anchor="middle" x="271.506" y="-264.5" font-family="Helvetica,sans-Serif" font-size="10.00">modules/irc/irc_formatter.cpp</text>
</a>
</g>
</g>
<!-- Node2&#45;&gt;Node29 -->
<g id="edge40" class="edge"><title>Node2&#45;&gt;Node29</title>
<path fill="none" stroke="midnightblue" d="M446.788,-311.024C405.23,-300.823 344.193,-285.841 306.202,-276.516"/>
<polygon fill="midnightblue" stroke="midnightblue" points="446.1,-314.459 456.646,-313.444 447.769,-307.661 446.1,-314.459"/>
</g>
<!-- Node5&#45;&gt;Node6 -->
<g id="edge5" class="edge"><title>Node5&#45;&gt;Node6</title>
<path fill="none" stroke="midnightblue" d="M1411.89,-252.867C1434.18,-241.335 1465.94,-224.899 1485.06,-215.009"/>
<polygon fill="midnightblue" stroke="midnightblue" points="1410.26,-249.771 1402.98,-257.475 1413.47,-255.988 1410.26,-249.771"/>
</g>
<!-- Node5&#45;&gt;Node8 -->
<g id="edge30" class="edge"><title>Node5&#45;&gt;Node8</title>
<path fill="none" stroke="midnightblue" d="M1396.61,-248.278C1406.79,-231.624 1423.78,-206.812 1443.51,-190 1465.72,-171.067 1496.23,-156.548 1516.84,-148.038"/>
<polygon fill="midnightblue" stroke="midnightblue" points="1393.52,-246.631 1391.44,-257.019 1399.55,-250.197 1393.52,-246.631"/>
</g>
<!-- Node23 -->
<g id="node23" class="node"><title>Node23</title>
<g id="a_node23"><a xlink:href="modules_2irc_2network_2connection_8hpp.html" target="_top" xlink:title="modules/irc/network\l/connection.hpp">
<polygon fill="none" stroke="black" points="1253.51,-123.5 1253.51,-153.5 1357.51,-153.5 1357.51,-123.5 1253.51,-123.5"/>
<text text-anchor="start" x="1261.51" y="-141.5" font-family="Helvetica,sans-Serif" font-size="10.00">modules/irc/network</text>
<text text-anchor="middle" x="1305.51" y="-130.5" font-family="Helvetica,sans-Serif" font-size="10.00">/connection.hpp</text>
</a>
</g>
</g>
<!-- Node5&#45;&gt;Node23 -->
<g id="edge34" class="edge"><title>Node5&#45;&gt;Node23</title>
<path fill="none" stroke="midnightblue" d="M1385.11,-246.97C1383.17,-230.747 1378.54,-207.365 1367.51,-190 1357.97,-175.003 1342.47,-162.378 1329.36,-153.502"/>
<polygon fill="midnightblue" stroke="midnightblue" points="1381.66,-247.708 1386.1,-257.33 1388.63,-247.042 1381.66,-247.708"/>
</g>
<!-- Node26 -->
<g id="node26" class="node"><title>Node26</title>
<g id="a_node26"><a xlink:href="buffer_8hpp.html" target="_top" xlink:title="modules/irc/network\l/buffer.hpp">
<polygon fill="none" stroke="black" points="1254.51,-190.5 1254.51,-220.5 1358.51,-220.5 1358.51,-190.5 1254.51,-190.5"/>
<text text-anchor="start" x="1262.51" y="-208.5" font-family="Helvetica,sans-Serif" font-size="10.00">modules/irc/network</text>
<text text-anchor="middle" x="1306.51" y="-197.5" font-family="Helvetica,sans-Serif" font-size="10.00">/buffer.hpp</text>
</a>
</g>
</g>
<!-- Node5&#45;&gt;Node26 -->
<g id="edge31" class="edge"><title>Node5&#45;&gt;Node26</title>
<path fill="none" stroke="midnightblue" d="M1366.97,-251.468C1354.3,-242.047 1337.89,-229.841 1325.36,-220.523"/>
<polygon fill="midnightblue" stroke="midnightblue" points="1364.93,-254.316 1375.04,-257.475 1369.11,-248.699 1364.93,-254.316"/>
</g>
<!-- Node7 -->
<g id="node7" class="node"><title>Node7</title>
<g id="a_node7"><a xlink:href="melanobot_8cpp.html" target="_top" xlink:title="src/melanobot.cpp">
<polygon fill="none" stroke="black" points="2114.01,-62 2114.01,-81 2211.01,-81 2211.01,-62 2114.01,-62"/>
<text text-anchor="middle" x="2162.51" y="-69" font-family="Helvetica,sans-Serif" font-size="10.00">src/melanobot.cpp</text>
</a>
</g>
</g>
<!-- Node6&#45;&gt;Node7 -->
<g id="edge6" class="edge"><title>Node6&#45;&gt;Node7</title>
<path fill="none" stroke="midnightblue" d="M1560.31,-194.21C1668.57,-175.01 1906.57,-131.614 2105.51,-87 2113.58,-85.19 2122.25,-83.0738 2130.33,-81.0263"/>
<polygon fill="midnightblue" stroke="midnightblue" points="1559.48,-190.803 1550.24,-195.992 1560.7,-197.695 1559.48,-190.803"/>
</g>
<!-- Node6&#45;&gt;Node8 -->
<g id="edge7" class="edge"><title>Node6&#45;&gt;Node8</title>
<path fill="none" stroke="midnightblue" d="M1511.72,-187.035C1519.07,-174.45 1528.69,-158.007 1534.46,-148.127"/>
<polygon fill="midnightblue" stroke="midnightblue" points="1508.66,-185.334 1506.63,-195.734 1514.7,-188.867 1508.66,-185.334"/>
</g>
<!-- Node6&#45;&gt;Node22 -->
<g id="edge25" class="edge"><title>Node6&#45;&gt;Node22</title>
<path fill="none" stroke="midnightblue" d="M1445.44,-194.027C1373.6,-180.609 1251.1,-157.729 1190.17,-146.348"/>
<polygon fill="midnightblue" stroke="midnightblue" points="1445.18,-197.54 1455.65,-195.936 1446.47,-190.659 1445.18,-197.54"/>
</g>
<!-- Node6&#45;&gt;Node23 -->
<g id="edge26" class="edge"><title>Node6&#45;&gt;Node23</title>
<path fill="none" stroke="midnightblue" d="M1465.72,-192.633C1432.49,-181.612 1382.98,-165.193 1347.81,-153.528"/>
<polygon fill="midnightblue" stroke="midnightblue" points="1464.89,-196.043 1475.48,-195.869 1467.09,-189.399 1464.89,-196.043"/>
</g>
<!-- Node8&#45;&gt;Node7 -->
<g id="edge8" class="edge"><title>Node8&#45;&gt;Node7</title>
<path fill="none" stroke="midnightblue" d="M1608.6,-134.901C1715.69,-130.074 1927.92,-117.309 2105.51,-87 2114.46,-85.4711 2124.08,-83.2527 2132.82,-81.009"/>
<polygon fill="midnightblue" stroke="midnightblue" points="1608.41,-131.406 1598.57,-135.344 1608.72,-138.4 1608.41,-131.406"/>
</g>
<!-- Node9 -->
<g id="node9" class="node"><title>Node9</title>
<g id="a_node9"><a xlink:href="web-api_8hpp.html" target="_top" xlink:title="src/handler/web&#45;api.hpp">
<polygon fill="none" stroke="black" points="716.506,-62 716.506,-81 836.506,-81 836.506,-62 716.506,-62"/>
<text text-anchor="middle" x="776.506" y="-69" font-family="Helvetica,sans-Serif" font-size="10.00">src/handler/web&#45;api.hpp</text>
</a>
</g>
</g>
<!-- Node8&#45;&gt;Node9 -->
<g id="edge9" class="edge"><title>Node8&#45;&gt;Node9</title>
<path fill="none" stroke="midnightblue" d="M1470.45,-131.647C1359.7,-122.255 1135.51,-103.227 945.506,-87 909.416,-83.9177 868.993,-80.4499 836.731,-77.6787"/>
<polygon fill="midnightblue" stroke="midnightblue" points="1470.23,-135.14 1480.49,-132.498 1470.82,-128.165 1470.23,-135.14"/>
</g>
<!-- Node12 -->
<g id="node12" class="node"><title>Node12</title>
<g id="a_node12"><a xlink:href="misc_8cpp.html" target="_top" xlink:title="This file defines handlers which perform miscellaneous tasks. ">
<polygon fill="none" stroke="black" points="1608.01,-62 1608.01,-81 1715.01,-81 1715.01,-62 1608.01,-62"/>
<text text-anchor="middle" x="1661.51" y="-69" font-family="Helvetica,sans-Serif" font-size="10.00">src/handler/misc.cpp</text>
</a>
</g>
</g>
<!-- Node8&#45;&gt;Node12 -->
<g id="edge12" class="edge"><title>Node8&#45;&gt;Node12</title>
<path fill="none" stroke="midnightblue" d="M1564.65,-124.103C1588.81,-111.231 1624.61,-92.16 1645.24,-81.1672"/>
<polygon fill="midnightblue" stroke="midnightblue" points="1562.89,-121.077 1555.71,-128.869 1566.18,-127.255 1562.89,-121.077"/>
</g>
<!-- Node13 -->
<g id="node13" class="node"><title>Node13</title>
<g id="a_node13"><a xlink:href="bridge_8hpp.html" target="_top" xlink:title="src/handler/bridge.hpp">
<polygon fill="none" stroke="black" points="1983.01,-62 1983.01,-81 2096.01,-81 2096.01,-62 1983.01,-62"/>
<text text-anchor="middle" x="2039.51" y="-69" font-family="Helvetica,sans-Serif" font-size="10.00">src/handler/bridge.hpp</text>
</a>
</g>
</g>
<!-- Node8&#45;&gt;Node13 -->
<g id="edge13" class="edge"><title>Node8&#45;&gt;Node13</title>
<path fill="none" stroke="midnightblue" d="M1608.7,-131.704C1694.78,-123.979 1846.1,-108.715 1974.51,-87 1984.2,-85.3613 1994.62,-83.2122 2004.22,-81.0724"/>
<polygon fill="midnightblue" stroke="midnightblue" points="1608.18,-128.236 1598.53,-132.608 1608.8,-135.208 1608.18,-128.236"/>
</g>
<!-- Node15 -->
<g id="node15" class="node"><title>Node15</title>
<g id="a_node15"><a xlink:href="admin_8cpp.html" target="_top" xlink:title="This file defines handlers which allows admin to administrate the bot. ">
<polygon fill="none" stroke="black" points="1852.01,-62 1852.01,-81 1965.01,-81 1965.01,-62 1852.01,-62"/>
<text text-anchor="middle" x="1908.51" y="-69" font-family="Helvetica,sans-Serif" font-size="10.00">src/handler/admin.cpp</text>
</a>
</g>
</g>
<!-- Node8&#45;&gt;Node15 -->
<g id="edge15" class="edge"><title>Node8&#45;&gt;Node15</title>
<path fill="none" stroke="midnightblue" d="M1606.54,-127.446C1668.27,-117.932 1762.29,-102.792 1843.51,-87 1852.7,-85.2124 1862.58,-83.1044 1871.8,-81.0577"/>
<polygon fill="midnightblue" stroke="midnightblue" points="1605.9,-124.004 1596.54,-128.982 1606.96,-130.923 1605.9,-124.004"/>
</g>
<!-- Node16 -->
<g id="node16" class="node"><title>Node16</title>
<g id="a_node16"><a xlink:href="handler_8cpp.html" target="_top" xlink:title="This file contains the definitions for the most basic and reusable handlers. ">
<polygon fill="none" stroke="black" points="1114.51,-62 1114.51,-81 1232.51,-81 1232.51,-62 1114.51,-62"/>
<text text-anchor="middle" x="1173.51" y="-69" font-family="Helvetica,sans-Serif" font-size="10.00">src/handler/handler.cpp</text>
</a>
</g>
</g>
<!-- Node8&#45;&gt;Node16 -->
<g id="edge16" class="edge"><title>Node8&#45;&gt;Node16</title>
<path fill="none" stroke="midnightblue" d="M1474.84,-127.35C1414.39,-117.669 1321.65,-102.329 1241.51,-87 1232.02,-85.1859 1221.82,-83.0896 1212.29,-81.0647"/>
<polygon fill="midnightblue" stroke="midnightblue" points="1474.58,-130.851 1485,-128.972 1475.68,-123.939 1474.58,-130.851"/>
</g>
<!-- Node17 -->
<g id="node17" class="node"><title>Node17</title>
<g id="a_node17"><a xlink:href="irc__actions_8hpp.html" target="_top" xlink:title="modules/irc/handler\l/irc_actions.hpp">
<polygon fill="none" stroke="black" points="1370.01,-56.5 1370.01,-86.5 1471.01,-86.5 1471.01,-56.5 1370.01,-56.5"/>
<text text-anchor="start" x="1378.01" y="-74.5" font-family="Helvetica,sans-Serif" font-size="10.00">modules/irc/handler</text>
<text text-anchor="middle" x="1420.51" y="-63.5" font-family="Helvetica,sans-Serif" font-size="10.00">/irc_actions.hpp</text>
</a>
</g>
</g>
<!-- Node8&#45;&gt;Node17 -->
<g id="edge17" class="edge"><title>Node8&#45;&gt;Node17</title>
<path fill="none" stroke="midnightblue" d="M1514.61,-123.902C1494.59,-112.966 1466.56,-97.6532 1446.3,-86.589"/>
<polygon fill="midnightblue" stroke="midnightblue" points="1513,-127.012 1523.46,-128.734 1516.36,-120.868 1513,-127.012"/>
</g>
<!-- Node19 -->
<g id="node19" class="node"><title>Node19</title>
<g id="a_node19"><a xlink:href="ctcp_8hpp.html" target="_top" xlink:title="This files has handlers for CTCP messages. ">
<polygon fill="none" stroke="black" points="1251.01,-56.5 1251.01,-86.5 1352.01,-86.5 1352.01,-56.5 1251.01,-56.5"/>
<text text-anchor="start" x="1259.01" y="-74.5" font-family="Helvetica,sans-Serif" font-size="10.00">modules/irc/handler</text>
<text text-anchor="middle" x="1301.51" y="-63.5" font-family="Helvetica,sans-Serif" font-size="10.00">/ctcp.hpp</text>
</a>
</g>
</g>
<!-- Node8&#45;&gt;Node19 -->
<g id="edge19" class="edge"><title>Node8&#45;&gt;Node19</title>
<path fill="none" stroke="midnightblue" d="M1498.09,-126.189C1457.6,-115.132 1395.88,-98.2748 1352.42,-86.4049"/>
<polygon fill="midnightblue" stroke="midnightblue" points="1497.33,-129.61 1507.9,-128.869 1499.18,-122.857 1497.33,-129.61"/>
</g>
<!-- Node20 -->
<g id="node20" class="node"><title>Node20</title>
<g id="a_node20"><a xlink:href="irc__admin_8hpp.html" target="_top" xlink:title="This file defines handlers which allows admin to administrate the bot (IRC&#45;specific actions) ...">
<polygon fill="none" stroke="black" points="1489.01,-56.5 1489.01,-86.5 1590.01,-86.5 1590.01,-56.5 1489.01,-56.5"/>
<text text-anchor="start" x="1497.01" y="-74.5" font-family="Helvetica,sans-Serif" font-size="10.00">modules/irc/handler</text>
<text text-anchor="middle" x="1539.51" y="-63.5" font-family="Helvetica,sans-Serif" font-size="10.00">/irc_admin.hpp</text>
</a>
</g>
</g>
<!-- Node8&#45;&gt;Node20 -->
<g id="edge21" class="edge"><title>Node8&#45;&gt;Node20</title>
<path fill="none" stroke="midnightblue" d="M1539.51,-118.411C1539.51,-108.222 1539.51,-95.901 1539.51,-86.589"/>
<polygon fill="midnightblue" stroke="midnightblue" points="1536.01,-118.734 1539.51,-128.734 1543.01,-118.734 1536.01,-118.734"/>
</g>
<!-- Node21 -->
<g id="node21" class="node"><title>Node21</title>
<g id="a_node21"><a xlink:href="irc__whois_8hpp.html" target="_top" xlink:title="This file contains handlers for WHOIS recognition on IRC. ">
<polygon fill="none" stroke="black" points="1733.01,-56.5 1733.01,-86.5 1834.01,-86.5 1834.01,-56.5 1733.01,-56.5"/>
<text text-anchor="start" x="1741.01" y="-74.5" font-family="Helvetica,sans-Serif" font-size="10.00">modules/irc/handler</text>
<text text-anchor="middle" x="1783.51" y="-63.5" font-family="Helvetica,sans-Serif" font-size="10.00">/irc_whois.hpp</text>
</a>
</g>
</g>
<!-- Node8&#45;&gt;Node21 -->
<g id="edge23" class="edge"><title>Node8&#45;&gt;Node21</title>
<path fill="none" stroke="midnightblue" d="M1581.54,-126.304C1623.43,-115.144 1687.8,-97.9943 1732.58,-86.0675"/>
<polygon fill="midnightblue" stroke="midnightblue" points="1580.42,-122.979 1571.66,-128.936 1582.22,-129.743 1580.42,-122.979"/>
</g>
<!-- Node10 -->
<g id="node10" class="node"><title>Node10</title>
<g id="a_node10"><a xlink:href="web-api_8cpp.html" target="_top" xlink:title="This files defines some simple Handlers using web APIs. ">
<polygon fill="none" stroke="black" points="652.506,-0.5 652.506,-19.5 772.506,-19.5 772.506,-0.5 652.506,-0.5"/>
<text text-anchor="middle" x="712.506" y="-7.5" font-family="Helvetica,sans-Serif" font-size="10.00">src/handler/web&#45;api.cpp</text>
</a>
</g>
</g>
<!-- Node9&#45;&gt;Node10 -->
<g id="edge10" class="edge"><title>Node9&#45;&gt;Node10</title>
<path fill="none" stroke="midnightblue" d="M759.995,-55.1496C747.793,-43.8058 731.632,-28.7811 721.659,-19.5091"/>
<polygon fill="midnightblue" stroke="midnightblue" points="757.629,-57.7295 767.336,-61.9751 762.395,-52.6028 757.629,-57.7295"/>
</g>
<!-- Node11 -->
<g id="node11" class="node"><title>Node11</title>
<g id="a_node11"><a xlink:href="fun_8cpp.html" target="_top" xlink:title="This file contains definitions for handlers which are pretty useless. ">
<polygon fill="none" stroke="black" points="790.506,-0.5 790.506,-19.5 890.506,-19.5 890.506,-0.5 790.506,-0.5"/>
<text text-anchor="middle" x="840.506" y="-7.5" font-family="Helvetica,sans-Serif" font-size="10.00">src/handler/fun.cpp</text>
</a>
</g>
</g>
<!-- Node9&#45;&gt;Node11 -->
<g id="edge11" class="edge"><title>Node9&#45;&gt;Node11</title>
<path fill="none" stroke="midnightblue" d="M793.017,-55.1496C805.219,-43.8058 821.38,-28.7811 831.353,-19.5091"/>
<polygon fill="midnightblue" stroke="midnightblue" points="790.616,-52.6028 785.676,-61.9751 795.383,-57.7295 790.616,-52.6028"/>
</g>
<!-- Node14 -->
<g id="node14" class="node"><title>Node14</title>
<g id="a_node14"><a xlink:href="bridge_8cpp.html" target="_top" xlink:title="src/handler/bridge.cpp">
<polygon fill="none" stroke="black" points="1983.01,-0.5 1983.01,-19.5 2096.01,-19.5 2096.01,-0.5 1983.01,-0.5"/>
<text text-anchor="middle" x="2039.51" y="-7.5" font-family="Helvetica,sans-Serif" font-size="10.00">src/handler/bridge.cpp</text>
</a>
</g>
</g>
<!-- Node13&#45;&gt;Node14 -->
<g id="edge14" class="edge"><title>Node13&#45;&gt;Node14</title>
<path fill="none" stroke="midnightblue" d="M2039.51,-51.8165C2039.51,-40.9962 2039.51,-27.898 2039.51,-19.5091"/>
<polygon fill="midnightblue" stroke="midnightblue" points="2036.01,-51.9751 2039.51,-61.9751 2043.01,-51.9751 2036.01,-51.9751"/>
</g>
<!-- Node18 -->
<g id="node18" class="node"><title>Node18</title>
<g id="a_node18"><a xlink:href="irc_8cpp.html" target="_top" xlink:title="modules/irc/irc.cpp">
<polygon fill="none" stroke="black" points="1371.01,-0.5 1371.01,-19.5 1470.01,-19.5 1470.01,-0.5 1371.01,-0.5"/>
<text text-anchor="middle" x="1420.51" y="-7.5" font-family="Helvetica,sans-Serif" font-size="10.00">modules/irc/irc.cpp</text>
</a>
</g>
</g>
<!-- Node17&#45;&gt;Node18 -->
<g id="edge18" class="edge"><title>Node17&#45;&gt;Node18</title>
<path fill="none" stroke="midnightblue" d="M1420.51,-46.2892C1420.51,-36.857 1420.51,-26.6548 1420.51,-19.6578"/>
<polygon fill="midnightblue" stroke="midnightblue" points="1417.01,-46.3993 1420.51,-56.3993 1424.01,-46.3994 1417.01,-46.3993"/>
</g>
<!-- Node19&#45;&gt;Node18 -->
<g id="edge20" class="edge"><title>Node19&#45;&gt;Node18</title>
<path fill="none" stroke="midnightblue" d="M1338.92,-51.7954C1360.42,-41.0428 1386.41,-28.0467 1403.19,-19.6578"/>
<polygon fill="midnightblue" stroke="midnightblue" points="1337.09,-48.7966 1329.71,-56.3993 1340.22,-55.0576 1337.09,-48.7966"/>
</g>
<!-- Node20&#45;&gt;Node18 -->
<g id="edge22" class="edge"><title>Node20&#45;&gt;Node18</title>
<path fill="none" stroke="midnightblue" d="M1502.1,-51.7954C1480.59,-41.0428 1454.6,-28.0467 1437.82,-19.6578"/>
<polygon fill="midnightblue" stroke="midnightblue" points="1500.79,-55.0576 1511.3,-56.3993 1503.93,-48.7966 1500.79,-55.0576"/>
</g>
<!-- Node21&#45;&gt;Node18 -->
<g id="edge24" class="edge"><title>Node21&#45;&gt;Node18</title>
<path fill="none" stroke="midnightblue" d="M1722.76,-55.9665C1627.67,-37.7621 1528.21,-24.2893 1470.07,-16.974"/>
<polygon fill="midnightblue" stroke="midnightblue" points="1722.35,-59.4528 1732.84,-57.9169 1723.68,-52.5803 1722.35,-59.4528"/>
</g>
<!-- Node23&#45;&gt;Node18 -->
<g id="edge27" class="edge"><title>Node23&#45;&gt;Node18</title>
<path fill="none" stroke="midnightblue" d="M1243.21,-123.709C1186.16,-110.78 1109.88,-92.6221 1105.51,-87 1097.04,-76.1303 1096.48,-66.4085 1105.51,-56 1139.26,-17.0837 1291.01,-10.9866 1370.92,-10.5443"/>
<polygon fill="midnightblue" stroke="midnightblue" points="1242.74,-127.19 1253.26,-125.977 1244.28,-120.361 1242.74,-127.19"/>
</g>
<!-- Node24 -->
<g id="node24" class="node"><title>Node24</title>
<g id="a_node24"><a xlink:href="buffer_8cpp.html" target="_top" xlink:title="modules/irc/network\l/buffer.cpp">
<polygon fill="none" stroke="black" points="954.506,-56.5 954.506,-86.5 1058.51,-86.5 1058.51,-56.5 954.506,-56.5"/>
<text text-anchor="start" x="962.506" y="-74.5" font-family="Helvetica,sans-Serif" font-size="10.00">modules/irc/network</text>
<text text-anchor="middle" x="1006.51" y="-63.5" font-family="Helvetica,sans-Serif" font-size="10.00">/buffer.cpp</text>
</a>
</g>
</g>
<!-- Node23&#45;&gt;Node24 -->
<g id="edge28" class="edge"><title>Node23&#45;&gt;Node24</title>
<path fill="none" stroke="midnightblue" d="M1243.2,-124.046C1196.27,-113.899 1130.34,-99.6196 1072.51,-87 1068.04,-86.0245 1063.4,-85.0098 1058.74,-83.9903"/>
<polygon fill="midnightblue" stroke="midnightblue" points="1242.7,-127.518 1253.21,-126.21 1244.18,-120.676 1242.7,-127.518"/>
</g>
<!-- Node23&#45;&gt;Node25 -->
<g id="edge29" class="edge"><title>Node23&#45;&gt;Node25</title>
<path fill="none" stroke="midnightblue" d="M1243.35,-128.4C1228.67,-126.438 1213.05,-124.504 1198.51,-123 1134.07,-116.336 696.745,-86.3848 544.574,-76.0329"/>
<polygon fill="midnightblue" stroke="midnightblue" points="1242.96,-131.879 1253.34,-129.757 1243.9,-124.943 1242.96,-131.879"/>
</g>
<!-- Node26&#45;&gt;Node23 -->
<g id="edge33" class="edge"><title>Node26&#45;&gt;Node23</title>
<path fill="none" stroke="midnightblue" d="M1306.13,-180.108C1305.99,-171.154 1305.84,-161.323 1305.72,-153.577"/>
<polygon fill="midnightblue" stroke="midnightblue" points="1302.64,-180.451 1306.29,-190.396 1309.63,-180.343 1302.64,-180.451"/>
</g>
<!-- Node26&#45;&gt;Node24 -->
<g id="edge32" class="edge"><title>Node26&#45;&gt;Node24</title>
<path fill="none" stroke="midnightblue" d="M1281.51,-183.835C1255.39,-162.578 1215.86,-131.421 1198.51,-123 1153.7,-101.255 1098.3,-87.9681 1058.55,-80.5194"/>
<polygon fill="midnightblue" stroke="midnightblue" points="1279.51,-186.725 1289.47,-190.347 1283.95,-181.306 1279.51,-186.725"/>
</g>
<!-- Node27&#45;&gt;Node9 -->
<g id="edge37" class="edge"><title>Node27&#45;&gt;Node9</title>
<path fill="none" stroke="midnightblue" d="M562.715,-247.512C558.007,-231.663 553.833,-208.524 561.506,-190 577.621,-151.093 592.762,-145.266 628.506,-123 661.919,-102.186 704.962,-88.7488 736.007,-81.0098"/>
<polygon fill="midnightblue" stroke="midnightblue" points="559.449,-248.785 565.92,-257.174 566.093,-246.581 559.449,-248.785"/>
</g>
<!-- Node27&#45;&gt;Node28 -->
<g id="edge38" class="edge"><title>Node27&#45;&gt;Node28</title>
<path fill="none" stroke="midnightblue" d="M581.828,-249.338C590.086,-238.169 600.618,-223.928 607.213,-215.009"/>
<polygon fill="midnightblue" stroke="midnightblue" points="578.942,-247.354 575.81,-257.475 584.57,-251.516 578.942,-247.354"/>
</g>
<!-- Node30&#45;&gt;Node4 -->
<g id="edge42" class="edge"><title>Node30&#45;&gt;Node4</title>
<path fill="none" stroke="midnightblue" d="M910.473,-317.181C816.329,-309.777 633.461,-294.6 478.506,-277 473.91,-276.478 469.138,-275.899 464.359,-275.295"/>
<polygon fill="midnightblue" stroke="midnightblue" points="910.438,-320.689 920.68,-317.98 910.984,-313.71 910.438,-320.689"/>
</g>
<!-- Node30&#45;&gt;Node5 -->
<g id="edge44" class="edge"><title>Node30&#45;&gt;Node5</title>
<path fill="none" stroke="midnightblue" d="M1036.27,-313.794C1113.24,-303.73 1243.06,-286.756 1321.18,-276.542"/>
<polygon fill="midnightblue" stroke="midnightblue" points="1035.69,-310.339 1026.23,-315.106 1036.6,-317.28 1035.69,-310.339"/>
</g>
<!-- Node30&#45;&gt;Node8 -->
<g id="edge45" class="edge"><title>Node30&#45;&gt;Node8</title>
<path fill="none" stroke="midnightblue" d="M1036.23,-316.598C1166.14,-305.362 1453.45,-280.244 1463.51,-277 1510.15,-261.95 1534.19,-263.556 1558.51,-221 1572.2,-197.032 1555.1,-163.748 1545.37,-148.179"/>
<polygon fill="midnightblue" stroke="midnightblue" points="1035.69,-313.132 1026.03,-317.48 1036.29,-320.106 1035.69,-313.132"/>
</g>
<!-- Node30&#45;&gt;Node22 -->
<g id="edge54" class="edge"><title>Node30&#45;&gt;Node22</title>
<path fill="none" stroke="midnightblue" d="M1036.15,-313.279C1097.59,-304.086 1183.49,-289.267 1193.51,-277 1199.13,-270.114 1195.64,-265.628 1193.51,-257 1189.16,-239.439 1181.03,-237.875 1174.51,-221 1164.6,-195.378 1157.92,-163.435 1155.07,-148.273"/>
<polygon fill="midnightblue" stroke="midnightblue" points="1035.52,-309.835 1026.14,-314.761 1036.54,-316.76 1035.52,-309.835"/>
</g>
<!-- Node30&#45;&gt;Node25 -->
<g id="edge55" class="edge"><title>Node30&#45;&gt;Node25</title>
<path fill="none" stroke="midnightblue" d="M910.811,-320.255C791.05,-316.299 539.129,-304.747 511.506,-277 459.557,-224.82 479.054,-123.759 488.536,-86.6279"/>
<polygon fill="midnightblue" stroke="midnightblue" points="910.829,-323.757 920.937,-320.581 911.055,-316.761 910.829,-323.757"/>
</g>
<!-- Node30&#45;&gt;Node26 -->
<g id="edge57" class="edge"><title>Node30&#45;&gt;Node26</title>
<path fill="none" stroke="midnightblue" d="M1036.12,-314.883C1100.1,-306.911 1194.57,-292.99 1227.51,-277 1255.45,-263.432 1280.93,-237.054 1295.02,-220.692"/>
<polygon fill="midnightblue" stroke="midnightblue" points="1035.63,-311.418 1026.13,-316.111 1036.48,-318.365 1035.63,-311.418"/>
</g>
<!-- Node30&#45;&gt;Node27 -->
<g id="edge51" class="edge"><title>Node30&#45;&gt;Node27</title>
<path fill="none" stroke="midnightblue" d="M910.726,-313.92C842.292,-305.064 729.572,-290.338 632.506,-277 627.909,-276.368 623.124,-275.702 618.338,-275.028"/>
<polygon fill="midnightblue" stroke="midnightblue" points="910.541,-317.425 920.907,-315.236 911.439,-310.483 910.541,-317.425"/>
</g>
<!-- Node30&#45;&gt;Node28 -->
<g id="edge53" class="edge"><title>Node30&#45;&gt;Node28</title>
<path fill="none" stroke="midnightblue" d="M910.863,-318.049C834.411,-312.313 710.387,-299.79 670.506,-277 644.541,-262.162 625.72,-230.515 617.741,-215.183"/>
<polygon fill="midnightblue" stroke="midnightblue" points="910.632,-321.541 920.861,-318.78 911.143,-314.56 910.632,-321.541"/>
</g>
<!-- Node31 -->
<g id="node31" class="node"><title>Node31</title>
<g id="a_node31"><a xlink:href="logger_8cpp.html" target="_top" xlink:title="src/string/logger.cpp">
<polygon fill="none" stroke="black" points="921.006,-257.5 921.006,-276.5 1026.01,-276.5 1026.01,-257.5 921.006,-257.5"/>
<text text-anchor="middle" x="973.506" y="-264.5" font-family="Helvetica,sans-Serif" font-size="10.00">src/string/logger.cpp</text>
</a>
</g>
</g>
<!-- Node30&#45;&gt;Node31 -->
<g id="edge43" class="edge"><title>Node30&#45;&gt;Node31</title>
<path fill="none" stroke="midnightblue" d="M973.506,-302.805C973.506,-293.91 973.506,-283.78 973.506,-276.751"/>
<polygon fill="midnightblue" stroke="midnightblue" points="970.006,-303.083 973.506,-313.083 977.006,-303.083 970.006,-303.083"/>
</g>
<!-- Node32 -->
<g id="node32" class="node"><title>Node32</title>
<g id="a_node32"><a xlink:href="async__service_8hpp.html" target="_top" xlink:title="src/network/async_service.hpp">
<polygon fill="none" stroke="black" points="712.506,-257.5 712.506,-276.5 864.506,-276.5 864.506,-257.5 712.506,-257.5"/>
<text text-anchor="middle" x="788.506" y="-264.5" font-family="Helvetica,sans-Serif" font-size="10.00">src/network/async_service.hpp</text>
</a>
</g>
</g>
<!-- Node30&#45;&gt;Node32 -->
<g id="edge46" class="edge"><title>Node30&#45;&gt;Node32</title>
<path fill="none" stroke="midnightblue" d="M934.34,-310.568C899.441,-300.381 849.157,-285.703 817.683,-276.516"/>
<polygon fill="midnightblue" stroke="midnightblue" points="933.612,-314.001 944.192,-313.444 935.573,-307.282 933.612,-314.001"/>
</g>
<!-- Node34 -->
<g id="node34" class="node"><title>Node34</title>
<g id="a_node34"><a xlink:href="http_8cpp.html" target="_top" xlink:title="src/network/http.cpp">
<polygon fill="none" stroke="black" points="637.506,-129 637.506,-148 743.506,-148 743.506,-129 637.506,-129"/>
<text text-anchor="middle" x="690.506" y="-136" font-family="Helvetica,sans-Serif" font-size="10.00">src/network/http.cpp</text>
</a>
</g>
</g>
<!-- Node30&#45;&gt;Node34 -->
<g id="edge52" class="edge"><title>Node30&#45;&gt;Node34</title>
<path fill="none" stroke="midnightblue" d="M910.56,-320.118C839.701,-316.575 730.867,-306.373 703.506,-277 669.511,-240.506 682.176,-172.543 688.12,-148.34"/>
<polygon fill="midnightblue" stroke="midnightblue" points="910.573,-323.622 920.725,-320.594 910.9,-316.63 910.573,-323.622"/>
</g>
<!-- Node35 -->
<g id="node35" class="node"><title>Node35</title>
<g id="a_node35"><a xlink:href="xonotic_8cpp.html" target="_top" xlink:title="modules/xonotic/xonotic.cpp">
<polygon fill="none" stroke="black" points="1044.01,-257.5 1044.01,-276.5 1185.01,-276.5 1185.01,-257.5 1044.01,-257.5"/>
<text text-anchor="middle" x="1114.51" y="-264.5" font-family="Helvetica,sans-Serif" font-size="10.00">modules/xonotic/xonotic.cpp</text>
</a>
</g>
</g>
<!-- Node30&#45;&gt;Node35 -->
<g id="edge56" class="edge"><title>Node30&#45;&gt;Node35</title>
<path fill="none" stroke="midnightblue" d="M1005.43,-309.772C1031.92,-299.629 1068.9,-285.467 1092.27,-276.516"/>
<polygon fill="midnightblue" stroke="midnightblue" points="1003.93,-306.599 995.848,-313.444 1006.44,-313.136 1003.93,-306.599"/>
</g>
<!-- Node32&#45;&gt;Node22 -->
<g id="edge50" class="edge"><title>Node32&#45;&gt;Node22</title>
<path fill="none" stroke="midnightblue" d="M822.959,-254.059C896.027,-228.736 1065.04,-170.161 1128.67,-148.107"/>
<polygon fill="midnightblue" stroke="midnightblue" points="821.609,-250.823 813.307,-257.405 823.902,-257.437 821.609,-250.823"/>
</g>
<!-- Node33 -->
<g id="node33" class="node"><title>Node33</title>
<g id="a_node33"><a xlink:href="http_8hpp.html" target="_top" xlink:title="src/network/http.hpp">
<polygon fill="none" stroke="black" points="723.506,-196 723.506,-215 829.506,-215 829.506,-196 723.506,-196"/>
<text text-anchor="middle" x="776.506" y="-203" font-family="Helvetica,sans-Serif" font-size="10.00">src/network/http.hpp</text>
</a>
</g>
</g>
<!-- Node32&#45;&gt;Node33 -->
<g id="edge47" class="edge"><title>Node32&#45;&gt;Node33</title>
<path fill="none" stroke="midnightblue" d="M784.807,-247.657C782.611,-236.772 779.932,-223.486 778.222,-215.009"/>
<polygon fill="midnightblue" stroke="midnightblue" points="781.379,-248.364 786.787,-257.475 788.24,-246.98 781.379,-248.364"/>
</g>
<!-- Node33&#45;&gt;Node9 -->
<g id="edge48" class="edge"><title>Node33&#45;&gt;Node9</title>
<path fill="none" stroke="midnightblue" d="M776.506,-185.775C776.506,-156.746 776.506,-102.038 776.506,-81.0212"/>
<polygon fill="midnightblue" stroke="midnightblue" points="773.006,-185.839 776.506,-195.839 780.006,-185.839 773.006,-185.839"/>
</g>
<!-- Node33&#45;&gt;Node34 -->
<g id="edge49" class="edge"><title>Node33&#45;&gt;Node34</title>
<path fill="none" stroke="midnightblue" d="M756.749,-189.568C739.774,-176.738 715.889,-158.685 701.92,-148.127"/>
<polygon fill="midnightblue" stroke="midnightblue" points="754.819,-192.496 764.908,-195.734 759.04,-186.912 754.819,-192.496"/>
</g>
<!-- Node37 -->
<g id="node37" class="node"><title>Node37</title>
<g id="a_node37"><a xlink:href="user__manager_8hpp.html" target="_top" xlink:title="src/user/user_manager.hpp">
<polygon fill="none" stroke="black" points="1319.01,-369.5 1319.01,-388.5 1454.01,-388.5 1454.01,-369.5 1319.01,-369.5"/>
<text text-anchor="middle" x="1386.51" y="-376.5" font-family="Helvetica,sans-Serif" font-size="10.00">src/user/user_manager.hpp</text>
</a>
</g>
</g>
<!-- Node36&#45;&gt;Node37 -->
<g id="edge59" class="edge"><title>Node36&#45;&gt;Node37</title>
<path fill="none" stroke="midnightblue" d="M1233.61,-427.881C1270.54,-416.315 1326.34,-398.841 1359.33,-388.509"/>
<polygon fill="midnightblue" stroke="midnightblue" points="1232.23,-424.647 1223.73,-430.975 1234.32,-431.327 1232.23,-424.647"/>
</g>
<!-- Node39 -->
<g id="node39" class="node"><title>Node39</title>
<g id="a_node39"><a xlink:href="user__group_8hpp.html" target="_top" xlink:title="src/user/user_group.hpp">
<polygon fill="none" stroke="black" points="1135.51,-369.5 1135.51,-388.5 1257.51,-388.5 1257.51,-369.5 1135.51,-369.5"/>
<text text-anchor="middle" x="1196.51" y="-376.5" font-family="Helvetica,sans-Serif" font-size="10.00">src/user/user_group.hpp</text>
</a>
</g>
</g>
<!-- Node36&#45;&gt;Node39 -->
<g id="edge62" class="edge"><title>Node36&#45;&gt;Node39</title>
<path fill="none" stroke="midnightblue" d="M1196.51,-420.817C1196.51,-409.996 1196.51,-396.898 1196.51,-388.509"/>
<polygon fill="midnightblue" stroke="midnightblue" points="1193.01,-420.975 1196.51,-430.975 1200.01,-420.975 1193.01,-420.975"/>
</g>
<!-- Node37&#45;&gt;Node5 -->
<g id="edge61" class="edge"><title>Node37&#45;&gt;Node5</title>
<path fill="none" stroke="midnightblue" d="M1386.51,-359.348C1386.51,-335.254 1386.51,-294.308 1386.51,-276.591"/>
<polygon fill="midnightblue" stroke="midnightblue" points="1383.01,-359.368 1386.51,-369.368 1390.01,-359.369 1383.01,-359.368"/>
</g>
<!-- Node38 -->
<g id="node38" class="node"><title>Node38</title>
<g id="a_node38"><a xlink:href="user__manager_8cpp.html" target="_top" xlink:title="src/user/user_manager.cpp">
<polygon fill="none" stroke="black" points="1415.01,-313.5 1415.01,-332.5 1550.01,-332.5 1550.01,-313.5 1415.01,-313.5"/>
<text text-anchor="middle" x="1482.51" y="-320.5" font-family="Helvetica,sans-Serif" font-size="10.00">src/user/user_manager.cpp</text>
</a>
</g>
</g>
<!-- Node37&#45;&gt;Node38 -->
<g id="edge60" class="edge"><title>Node37&#45;&gt;Node38</title>
<path fill="none" stroke="midnightblue" d="M1411.08,-364.177C1428.74,-354.241 1452.02,-341.149 1467.12,-332.655"/>
<polygon fill="midnightblue" stroke="midnightblue" points="1408.93,-361.371 1401.93,-369.324 1412.36,-367.472 1408.93,-361.371"/>
</g>
<!-- Node40 -->
<g id="node40" class="node"><title>Node40</title>
<g id="a_node40"><a xlink:href="user__group_8cpp.html" target="_top" xlink:title="src/user/user_group.cpp">
<polygon fill="none" stroke="black" points="1236.51,-313.5 1236.51,-332.5 1358.51,-332.5 1358.51,-313.5 1236.51,-313.5"/>
<text text-anchor="middle" x="1297.51" y="-320.5" font-family="Helvetica,sans-Serif" font-size="10.00">src/user/user_group.cpp</text>
</a>
</g>
</g>
<!-- Node39&#45;&gt;Node40 -->
<g id="edge63" class="edge"><title>Node39&#45;&gt;Node40</title>
<path fill="none" stroke="midnightblue" d="M1221.59,-364.59C1240.26,-354.605 1265.21,-341.267 1281.32,-332.655"/>
<polygon fill="midnightblue" stroke="midnightblue" points="1219.9,-361.522 1212.73,-369.324 1223.2,-367.696 1219.9,-361.522"/>
</g>
<!-- Node41 -->
<g id="node41" class="node"><title>Node41</title>
<g id="a_node41"><a xlink:href="auth__system_8hpp.html" target="_top" xlink:title="src/user/auth_system.hpp">
<polygon fill="none" stroke="black" points="1088.51,-313.5 1088.51,-332.5 1218.51,-332.5 1218.51,-313.5 1088.51,-313.5"/>
<text text-anchor="middle" x="1153.51" y="-320.5" font-family="Helvetica,sans-Serif" font-size="10.00">src/user/auth_system.hpp</text>
</a>
</g>
</g>
<!-- Node39&#45;&gt;Node41 -->
<g id="edge64" class="edge"><title>Node39&#45;&gt;Node41</title>
<path fill="none" stroke="midnightblue" d="M1183.08,-361.144C1175.59,-351.736 1166.57,-340.405 1160.47,-332.751"/>
<polygon fill="midnightblue" stroke="midnightblue" points="1180.44,-363.44 1189.41,-369.083 1185.91,-359.08 1180.44,-363.44"/>
</g>
<!-- Node41&#45;&gt;Node5 -->
<g id="edge65" class="edge"><title>Node41&#45;&gt;Node5</title>
<path fill="none" stroke="midnightblue" d="M1200.31,-311.153C1244.33,-300.95 1309.35,-285.881 1349.76,-276.516"/>
<polygon fill="midnightblue" stroke="midnightblue" points="1199.38,-307.776 1190.43,-313.444 1200.96,-314.595 1199.38,-307.776"/>
</g>
<!-- Node42&#45;&gt;Node6 -->
<g id="edge68" class="edge"><title>Node42&#45;&gt;Node6</title>
<path fill="none" stroke="midnightblue" d="M1451.47,-421.234C1488.15,-404.416 1536.11,-375.57 1558.51,-333 1581.16,-289.939 1532.58,-236.072 1511.07,-215.263"/>
<polygon fill="midnightblue" stroke="midnightblue" points="1449.66,-418.207 1441.94,-425.456 1452.5,-424.608 1449.66,-418.207"/>
</g>
</g>
</svg>
