<?xml version="1.0" encoding="UTF-8" standalone="no"?>
<!DOCTYPE svg PUBLIC "-//W3C//DTD SVG 1.1//EN"
 "http://www.w3.org/Graphics/SVG/1.1/DTD/svg11.dtd">
<!-- Generated by graphviz version 2.38.0 (20140413.2041)
 -->
<!-- Title: src/settings.cpp Pages: 1 -->
<svg width="1428pt" height="386pt"
 viewBox="0.00 0.00 1428.42 386.00" xmlns="http://www.w3.org/2000/svg" xmlns:xlink="http://www.w3.org/1999/xlink">
<g id="graph0" class="graph" transform="scale(1 1) rotate(0) translate(4 382)">
<title>src/settings.cpp</title>
<!-- Node1 -->
<g id="node1" class="node"><title>Node1</title>
<polygon fill="#bfbfbf" stroke="black" points="423.919,-358.5 423.919,-377.5 509.919,-377.5 509.919,-358.5 423.919,-358.5"/>
<text text-anchor="middle" x="466.919" y="-365.5" font-family="Helvetica,sans-Serif" font-size="10.00">src/settings.cpp</text>
</g>
<!-- Node2 -->
<g id="node2" class="node"><title>Node2</title>
<g id="a_node2"><a xlink:href="settings_8hpp.html" target="_top" xlink:title="settings.hpp">
<polygon fill="none" stroke="black" points="828.919,-179.5 828.919,-198.5 898.919,-198.5 898.919,-179.5 828.919,-179.5"/>
<text text-anchor="middle" x="863.919" y="-186.5" font-family="Helvetica,sans-Serif" font-size="10.00">settings.hpp</text>
</a>
</g>
</g>
<!-- Node1&#45;&gt;Node2 -->
<g id="edge1" class="edge"><title>Node1&#45;&gt;Node2</title>
<path fill="none" stroke="midnightblue" d="M510.175,-365.308C559.457,-361.943 641.378,-351.904 704.919,-322 766.373,-293.078 823.887,-234.746 849.682,-206.318"/>
<polygon fill="midnightblue" stroke="midnightblue" points="852.318,-208.621 856.367,-198.83 847.096,-203.959 852.318,-208.621"/>
</g>
<!-- Node8 -->
<g id="node8" class="node"><title>Node8</title>
<polygon fill="none" stroke="#bfbfbf" points="16.4187,-297 16.4187,-316 61.4187,-316 61.4187,-297 16.4187,-297"/>
<text text-anchor="middle" x="38.9187" y="-304" font-family="Helvetica,sans-Serif" font-size="10.00">cstdlib</text>
</g>
<!-- Node1&#45;&gt;Node8 -->
<g id="edge7" class="edge"><title>Node1&#45;&gt;Node8</title>
<path fill="none" stroke="midnightblue" d="M423.742,-366.65C349.869,-365.053 195.084,-357.341 69.9187,-322 67.9889,-321.455 66.0291,-320.802 64.0808,-320.078"/>
<polygon fill="midnightblue" stroke="midnightblue" points="65.1985,-316.75 54.6268,-316.051 62.455,-323.19 65.1985,-316.75"/>
</g>
<!-- Node9 -->
<g id="node9" class="node"><title>Node9</title>
<polygon fill="none" stroke="#bfbfbf" points="79.4187,-297 79.4187,-316 186.419,-316 186.419,-297 79.4187,-297"/>
<text text-anchor="middle" x="132.919" y="-304" font-family="Helvetica,sans-Serif" font-size="10.00">boost/filesystem.hpp</text>
</g>
<!-- Node1&#45;&gt;Node9 -->
<g id="edge8" class="edge"><title>Node1&#45;&gt;Node9</title>
<path fill="none" stroke="midnightblue" d="M423.589,-360.648C369.961,-352.593 275.922,-337.833 195.919,-322 190.135,-320.855 184.072,-319.57 178.088,-318.25"/>
<polygon fill="midnightblue" stroke="midnightblue" points="178.68,-314.795 168.156,-316.014 177.143,-321.625 178.68,-314.795"/>
</g>
<!-- Node10 -->
<g id="node10" class="node"><title>Node10</title>
<polygon fill="none" stroke="#bfbfbf" points="204.919,-297 204.919,-316 338.919,-316 338.919,-297 204.919,-297"/>
<text text-anchor="middle" x="271.919" y="-304" font-family="Helvetica,sans-Serif" font-size="10.00">boost/program_options.hpp</text>
</g>
<!-- Node1&#45;&gt;Node10 -->
<g id="edge9" class="edge"><title>Node1&#45;&gt;Node10</title>
<path fill="none" stroke="midnightblue" d="M438.98,-358.475C404.951,-348.092 347.335,-330.512 309.457,-318.954"/>
<polygon fill="midnightblue" stroke="midnightblue" points="310.392,-315.58 299.806,-316.009 308.349,-322.275 310.392,-315.58"/>
</g>
<!-- Node11 -->
<g id="node11" class="node"><title>Node11</title>
<polygon fill="none" stroke="#bfbfbf" points="357.419,-291.5 357.419,-321.5 458.419,-321.5 458.419,-291.5 357.419,-291.5"/>
<text text-anchor="start" x="365.419" y="-309.5" font-family="Helvetica,sans-Serif" font-size="10.00">boost/property_tree</text>
<text text-anchor="middle" x="407.919" y="-298.5" font-family="Helvetica,sans-Serif" font-size="10.00">/info_parser.hpp</text>
</g>
<!-- Node1&#45;&gt;Node11 -->
<g id="edge10" class="edge"><title>Node1&#45;&gt;Node11</title>
<path fill="none" stroke="midnightblue" d="M458.465,-358.475C450.773,-350.718 439.098,-338.943 428.905,-328.665"/>
<polygon fill="midnightblue" stroke="midnightblue" points="431.35,-326.159 421.824,-321.523 426.38,-331.088 431.35,-326.159"/>
</g>
<!-- Node12 -->
<g id="node12" class="node"><title>Node12</title>
<polygon fill="none" stroke="#bfbfbf" points="476.419,-291.5 476.419,-321.5 577.419,-321.5 577.419,-291.5 476.419,-291.5"/>
<text text-anchor="start" x="484.419" y="-309.5" font-family="Helvetica,sans-Serif" font-size="10.00">boost/property_tree</text>
<text text-anchor="middle" x="526.919" y="-298.5" font-family="Helvetica,sans-Serif" font-size="10.00">/ini_parser.hpp</text>
</g>
<!-- Node1&#45;&gt;Node12 -->
<g id="edge11" class="edge"><title>Node1&#45;&gt;Node12</title>
<path fill="none" stroke="midnightblue" d="M475.515,-358.475C483.338,-350.718 495.211,-338.943 505.576,-328.665"/>
<polygon fill="midnightblue" stroke="midnightblue" points="508.142,-331.05 512.778,-321.523 503.213,-326.079 508.142,-331.05"/>
</g>
<!-- Node13 -->
<g id="node13" class="node"><title>Node13</title>
<polygon fill="none" stroke="#bfbfbf" points="595.419,-291.5 595.419,-321.5 696.419,-321.5 696.419,-291.5 595.419,-291.5"/>
<text text-anchor="start" x="603.419" y="-309.5" font-family="Helvetica,sans-Serif" font-size="10.00">boost/property_tree</text>
<text text-anchor="middle" x="645.919" y="-298.5" font-family="Helvetica,sans-Serif" font-size="10.00">/xml_parser.hpp</text>
</g>
<!-- Node1&#45;&gt;Node13 -->
<g id="edge12" class="edge"><title>Node1&#45;&gt;Node13</title>
<path fill="none" stroke="midnightblue" d="M492.565,-358.475C518.961,-349.701 560.817,-335.788 594.137,-324.712"/>
<polygon fill="midnightblue" stroke="midnightblue" points="595.347,-327.999 603.732,-321.523 593.138,-321.356 595.347,-327.999"/>
</g>
<!-- Node14 -->
<g id="node14" class="node"><title>Node14</title>
<g id="a_node14"><a xlink:href="logger_8hpp.html" target="_top" xlink:title="string/logger.hpp">
<polygon fill="none" stroke="black" points="362.419,-235.5 362.419,-254.5 451.419,-254.5 451.419,-235.5 362.419,-235.5"/>
<text text-anchor="middle" x="406.919" y="-242.5" font-family="Helvetica,sans-Serif" font-size="10.00">string/logger.hpp</text>
</a>
</g>
</g>
<!-- Node1&#45;&gt;Node14 -->
<g id="edge13" class="edge"><title>Node1&#45;&gt;Node14</title>
<path fill="none" stroke="midnightblue" d="M423.911,-366.013C314.942,-363.07 34.6472,-352.573 6.91875,-322 -2.33721,-311.794 -2.26291,-301.273 6.91875,-291 29.5381,-265.693 248.202,-252.88 352.324,-248.173"/>
<polygon fill="midnightblue" stroke="midnightblue" points="352.497,-251.669 362.333,-247.729 352.188,-244.676 352.497,-251.669"/>
</g>
<!-- Node29 -->
<g id="node29" class="node"><title>Node29</title>
<g id="a_node29"><a xlink:href="json_8hpp.html" target="_top" xlink:title="string/json.hpp">
<polygon fill="none" stroke="black" points="823.919,-297 823.919,-316 903.919,-316 903.919,-297 823.919,-297"/>
<text text-anchor="middle" x="863.919" y="-304" font-family="Helvetica,sans-Serif" font-size="10.00">string/json.hpp</text>
</a>
</g>
</g>
<!-- Node1&#45;&gt;Node29 -->
<g id="edge41" class="edge"><title>Node1&#45;&gt;Node29</title>
<path fill="none" stroke="midnightblue" d="M510.16,-360.519C584.207,-349.422 734.886,-326.839 813.553,-315.048"/>
<polygon fill="midnightblue" stroke="midnightblue" points="814.33,-318.471 823.701,-313.528 813.292,-311.549 814.33,-318.471"/>
</g>
<!-- Node36 -->
<g id="node36" class="node"><title>Node36</title>
<g id="a_node36"><a xlink:href="config_8hpp.html" target="_top" xlink:title="config.hpp">
<polygon fill="none" stroke="black" points="921.919,-297 921.919,-316 983.919,-316 983.919,-297 921.919,-297"/>
<text text-anchor="middle" x="952.919" y="-304" font-family="Helvetica,sans-Serif" font-size="10.00">config.hpp</text>
</a>
</g>
</g>
<!-- Node1&#45;&gt;Node36 -->
<g id="edge57" class="edge"><title>Node1&#45;&gt;Node36</title>
<path fill="none" stroke="midnightblue" d="M510.232,-366.17C590.593,-363.852 767.805,-355.085 912.919,-322 916.16,-321.261 919.497,-320.334 922.797,-319.308"/>
<polygon fill="midnightblue" stroke="midnightblue" points="924.113,-322.557 932.45,-316.02 921.856,-315.931 924.113,-322.557"/>
</g>
<!-- Node3 -->
<g id="node3" class="node"><title>Node3</title>
<polygon fill="none" stroke="#bfbfbf" points="780.419,-56.5 780.419,-75.5 821.419,-75.5 821.419,-56.5 780.419,-56.5"/>
<text text-anchor="middle" x="800.919" y="-63.5" font-family="Helvetica,sans-Serif" font-size="10.00">string</text>
</g>
<!-- Node2&#45;&gt;Node3 -->
<g id="edge2" class="edge"><title>Node2&#45;&gt;Node3</title>
<path fill="none" stroke="midnightblue" d="M859.388,-179.298C849.081,-159.502 823.714,-110.782 810.027,-84.4932"/>
<polygon fill="midnightblue" stroke="midnightblue" points="813.131,-82.8766 805.408,-75.6232 806.922,-86.1093 813.131,-82.8766"/>
</g>
<!-- Node4 -->
<g id="node4" class="node"><title>Node4</title>
<polygon fill="none" stroke="#bfbfbf" points="965.919,-56.5 965.919,-75.5 1011.92,-75.5 1011.92,-56.5 965.919,-56.5"/>
<text text-anchor="middle" x="988.919" y="-63.5" font-family="Helvetica,sans-Serif" font-size="10.00">cstdint</text>
</g>
<!-- Node2&#45;&gt;Node4 -->
<g id="edge3" class="edge"><title>Node2&#45;&gt;Node4</title>
<path fill="none" stroke="midnightblue" d="M899.122,-181.469C936.095,-173.809 990.572,-159.974 1002.92,-143 1015.21,-126.108 1007.37,-101.653 999.342,-85.0818"/>
<polygon fill="midnightblue" stroke="midnightblue" points="1002.27,-83.1244 994.498,-75.9206 996.079,-86.3968 1002.27,-83.1244"/>
</g>
<!-- Node5 -->
<g id="node5" class="node"><title>Node5</title>
<polygon fill="none" stroke="#bfbfbf" points="689.419,-118 689.419,-137 772.419,-137 772.419,-118 689.419,-118"/>
<text text-anchor="middle" x="730.919" y="-125" font-family="Helvetica,sans-Serif" font-size="10.00">unordered_map</text>
</g>
<!-- Node2&#45;&gt;Node5 -->
<g id="edge4" class="edge"><title>Node2&#45;&gt;Node5</title>
<path fill="none" stroke="midnightblue" d="M844.863,-179.475C822.444,-169.445 785.013,-152.7 759.206,-141.155"/>
<polygon fill="midnightblue" stroke="midnightblue" points="760.497,-137.898 749.939,-137.009 757.638,-144.288 760.497,-137.898"/>
</g>
<!-- Node6 -->
<g id="node6" class="node"><title>Node6</title>
<polygon fill="none" stroke="#bfbfbf" points="1093.42,-112.5 1093.42,-142.5 1194.42,-142.5 1194.42,-112.5 1093.42,-112.5"/>
<text text-anchor="start" x="1101.42" y="-130.5" font-family="Helvetica,sans-Serif" font-size="10.00">boost/property_tree</text>
<text text-anchor="middle" x="1143.92" y="-119.5" font-family="Helvetica,sans-Serif" font-size="10.00">/ptree.hpp</text>
</g>
<!-- Node2&#45;&gt;Node6 -->
<g id="edge5" class="edge"><title>Node2&#45;&gt;Node6</title>
<path fill="none" stroke="midnightblue" d="M898.954,-180.815C941.534,-172.048 1015.55,-156.698 1078.92,-143 1080.37,-142.687 1081.83,-142.369 1083.31,-142.047"/>
<polygon fill="midnightblue" stroke="midnightblue" points="1084.17,-145.442 1093.19,-139.884 1082.67,-138.604 1084.17,-145.442"/>
</g>
<!-- Node7 -->
<g id="node7" class="node"><title>Node7</title>
<g id="a_node7"><a xlink:href="c_09_09-compat_8hpp.html" target="_top" xlink:title="This file defined some compatibility for features of C++14 and beyond. ">
<polygon fill="none" stroke="black" points="1029.92,-56.5 1029.92,-75.5 1117.92,-75.5 1117.92,-56.5 1029.92,-56.5"/>
<text text-anchor="middle" x="1073.92" y="-63.5" font-family="Helvetica,sans-Serif" font-size="10.00">c++&#45;compat.hpp</text>
</a>
</g>
</g>
<!-- Node2&#45;&gt;Node7 -->
<g id="edge6" class="edge"><title>Node2&#45;&gt;Node7</title>
<path fill="none" stroke="midnightblue" d="M898.993,-180.715C938.728,-171.977 1000.49,-156.78 1019.92,-143 1041.11,-127.97 1056.95,-101.913 1065.83,-84.5636"/>
<polygon fill="midnightblue" stroke="midnightblue" points="1069.01,-86.0275 1070.23,-75.5039 1062.71,-82.9656 1069.01,-86.0275"/>
</g>
<!-- Node14&#45;&gt;Node2 -->
<g id="edge40" class="edge"><title>Node14&#45;&gt;Node2</title>
<path fill="none" stroke="midnightblue" d="M451.57,-238.724C538.762,-228.421 730.8,-205.73 818.558,-195.36"/>
<polygon fill="midnightblue" stroke="midnightblue" points="819.209,-198.807 828.729,-194.158 818.387,-191.856 819.209,-198.807"/>
</g>
<!-- Node14&#45;&gt;Node3 -->
<g id="edge18" class="edge"><title>Node14&#45;&gt;Node3</title>
<path fill="none" stroke="midnightblue" d="M404.273,-235.466C397.618,-212.112 382.96,-146.589 415.919,-112 440.262,-86.4524 683.173,-72.5598 770.146,-68.374"/>
<polygon fill="midnightblue" stroke="midnightblue" points="770.364,-71.8677 780.188,-67.9007 770.034,-64.8755 770.364,-71.8677"/>
</g>
<!-- Node14&#45;&gt;Node5 -->
<g id="edge19" class="edge"><title>Node14&#45;&gt;Node5</title>
<path fill="none" stroke="midnightblue" d="M451.66,-242.226C523.619,-238.547 660.858,-227.862 698.919,-199 715.453,-186.462 723.682,-163.409 727.611,-147.082"/>
<polygon fill="midnightblue" stroke="midnightblue" points="731.084,-147.568 729.692,-137.065 724.231,-146.143 731.084,-147.568"/>
</g>
<!-- Node15 -->
<g id="node15" class="node"><title>Node15</title>
<polygon fill="none" stroke="#bfbfbf" points="178.919,-179.5 178.919,-198.5 228.919,-198.5 228.919,-179.5 178.919,-179.5"/>
<text text-anchor="middle" x="203.919" y="-186.5" font-family="Helvetica,sans-Serif" font-size="10.00">iomanip</text>
</g>
<!-- Node14&#45;&gt;Node15 -->
<g id="edge14" class="edge"><title>Node14&#45;&gt;Node15</title>
<path fill="none" stroke="midnightblue" d="M374.753,-235.444C337.704,-225.588 277.049,-209.453 238.865,-199.296"/>
<polygon fill="midnightblue" stroke="midnightblue" points="239.764,-195.913 229.2,-196.725 237.964,-202.678 239.764,-195.913"/>
</g>
<!-- Node16 -->
<g id="node16" class="node"><title>Node16</title>
<polygon fill="none" stroke="#bfbfbf" points="135.919,-118 135.919,-137 189.919,-137 189.919,-118 135.919,-118"/>
<text text-anchor="middle" x="162.919" y="-125" font-family="Helvetica,sans-Serif" font-size="10.00">iostream</text>
</g>
<!-- Node14&#45;&gt;Node16 -->
<g id="edge15" class="edge"><title>Node14&#45;&gt;Node16</title>
<path fill="none" stroke="midnightblue" d="M362.361,-241.741C301.012,-237.636 195.223,-226.654 169.919,-199 157.358,-185.272 157.198,-163.15 159.169,-147.348"/>
<polygon fill="midnightblue" stroke="midnightblue" points="162.674,-147.603 160.834,-137.169 155.765,-146.473 162.674,-147.603"/>
</g>
<!-- Node17 -->
<g id="node17" class="node"><title>Node17</title>
<polygon fill="none" stroke="#bfbfbf" points="334.919,-179.5 334.919,-198.5 378.919,-198.5 378.919,-179.5 334.919,-179.5"/>
<text text-anchor="middle" x="356.919" y="-186.5" font-family="Helvetica,sans-Serif" font-size="10.00">mutex</text>
</g>
<!-- Node14&#45;&gt;Node17 -->
<g id="edge16" class="edge"><title>Node14&#45;&gt;Node17</title>
<path fill="none" stroke="midnightblue" d="M398.662,-235.083C391.454,-227.298 380.809,-215.801 372.073,-206.367"/>
<polygon fill="midnightblue" stroke="midnightblue" points="374.384,-203.711 365.022,-198.751 369.248,-208.467 374.384,-203.711"/>
</g>
<!-- Node18 -->
<g id="node18" class="node"><title>Node18</title>
<polygon fill="none" stroke="#bfbfbf" points="425.419,-118 425.419,-137 484.419,-137 484.419,-118 425.419,-118"/>
<text text-anchor="middle" x="454.919" y="-125" font-family="Helvetica,sans-Serif" font-size="10.00">stdexcept</text>
</g>
<!-- Node14&#45;&gt;Node18 -->
<g id="edge17" class="edge"><title>Node14&#45;&gt;Node18</title>
<path fill="none" stroke="midnightblue" d="M410.527,-235.319C418.31,-216.59 436.822,-172.046 447.317,-146.792"/>
<polygon fill="midnightblue" stroke="midnightblue" points="450.663,-147.86 451.269,-137.282 444.199,-145.173 450.663,-147.86"/>
</g>
<!-- Node19 -->
<g id="node19" class="node"><title>Node19</title>
<g id="a_node19"><a xlink:href="multibuf_8hpp.html" target="_top" xlink:title="multibuf.hpp">
<polygon fill="none" stroke="black" points="246.919,-179.5 246.919,-198.5 316.919,-198.5 316.919,-179.5 246.919,-179.5"/>
<text text-anchor="middle" x="281.919" y="-186.5" font-family="Helvetica,sans-Serif" font-size="10.00">multibuf.hpp</text>
</a>
</g>
</g>
<!-- Node14&#45;&gt;Node19 -->
<g id="edge20" class="edge"><title>Node14&#45;&gt;Node19</title>
<path fill="none" stroke="midnightblue" d="M387.112,-235.444C366.632,-226.596 334.436,-212.687 311.054,-202.586"/>
<polygon fill="midnightblue" stroke="midnightblue" points="312.201,-199.269 301.633,-198.516 309.425,-205.695 312.201,-199.269"/>
</g>
<!-- Node22 -->
<g id="node22" class="node"><title>Node22</title>
<g id="a_node22"><a xlink:href="string_8hpp.html" target="_top" xlink:title="string.hpp">
<polygon fill="none" stroke="black" points="631.419,-179.5 631.419,-198.5 690.419,-198.5 690.419,-179.5 631.419,-179.5"/>
<text text-anchor="middle" x="660.919" y="-186.5" font-family="Helvetica,sans-Serif" font-size="10.00">string.hpp</text>
</a>
</g>
</g>
<!-- Node14&#45;&gt;Node22 -->
<g id="edge25" class="edge"><title>Node14&#45;&gt;Node22</title>
<path fill="none" stroke="midnightblue" d="M447.166,-235.444C494.864,-225.303 573.835,-208.514 621.27,-198.429"/>
<polygon fill="midnightblue" stroke="midnightblue" points="622.124,-201.826 631.177,-196.323 620.668,-194.979 622.124,-201.826"/>
</g>
<!-- Node19&#45;&gt;Node3 -->
<g id="edge24" class="edge"><title>Node19&#45;&gt;Node3</title>
<path fill="none" stroke="midnightblue" d="M272.592,-179.476C257.049,-164.276 229.303,-132.192 247.919,-112 283.461,-73.4476 658.63,-67.9221 769.95,-67.1316"/>
<polygon fill="midnightblue" stroke="midnightblue" points="770.193,-70.6303 780.171,-67.0674 770.149,-63.6304 770.193,-70.6303"/>
</g>
<!-- Node19&#45;&gt;Node16 -->
<g id="edge21" class="edge"><title>Node19&#45;&gt;Node16</title>
<path fill="none" stroke="midnightblue" d="M264.869,-179.475C245.075,-169.578 212.202,-153.142 189.149,-141.615"/>
<polygon fill="midnightblue" stroke="midnightblue" points="190.446,-138.351 179.937,-137.009 187.316,-144.612 190.446,-138.351"/>
</g>
<!-- Node20 -->
<g id="node20" class="node"><title>Node20</title>
<polygon fill="none" stroke="#bfbfbf" points="256.919,-118 256.919,-137 306.919,-137 306.919,-118 256.919,-118"/>
<text text-anchor="middle" x="281.919" y="-125" font-family="Helvetica,sans-Serif" font-size="10.00">fstream</text>
</g>
<!-- Node19&#45;&gt;Node20 -->
<g id="edge22" class="edge"><title>Node19&#45;&gt;Node20</title>
<path fill="none" stroke="midnightblue" d="M281.919,-179.475C281.919,-171.08 281.919,-157.981 281.919,-147.163"/>
<polygon fill="midnightblue" stroke="midnightblue" points="285.419,-147.009 281.919,-137.009 278.419,-147.009 285.419,-147.009"/>
</g>
<!-- Node21 -->
<g id="node21" class="node"><title>Node21</title>
<polygon fill="none" stroke="#bfbfbf" points="324.919,-118 324.919,-137 368.919,-137 368.919,-118 324.919,-118"/>
<text text-anchor="middle" x="346.919" y="-125" font-family="Helvetica,sans-Serif" font-size="10.00">vector</text>
</g>
<!-- Node19&#45;&gt;Node21 -->
<g id="edge23" class="edge"><title>Node19&#45;&gt;Node21</title>
<path fill="none" stroke="midnightblue" d="M291.232,-179.475C301.368,-170.197 317.783,-155.171 330.171,-143.831"/>
<polygon fill="midnightblue" stroke="midnightblue" points="332.61,-146.343 337.623,-137.009 327.884,-141.18 332.61,-146.343"/>
</g>
<!-- Node22&#45;&gt;Node3 -->
<g id="edge30" class="edge"><title>Node22&#45;&gt;Node3</title>
<path fill="none" stroke="midnightblue" d="M660.621,-179.29C660.569,-163.794 662.689,-131.258 679.919,-112 703.108,-86.0804 742.643,-75.0493 770.187,-70.3807"/>
<polygon fill="midnightblue" stroke="midnightblue" points="770.732,-73.8382 780.098,-68.8852 769.688,-66.9166 770.732,-73.8382"/>
</g>
<!-- Node22&#45;&gt;Node4 -->
<g id="edge26" class="edge"><title>Node22&#45;&gt;Node4</title>
<path fill="none" stroke="midnightblue" d="M690.638,-185.549C764.015,-179.238 949.337,-161.613 969.919,-143 985.806,-128.632 989.336,-103.176 989.701,-85.7146"/>
<polygon fill="midnightblue" stroke="midnightblue" points="993.199,-85.5488 989.581,-75.5909 986.2,-85.6316 993.199,-85.5488"/>
</g>
<!-- Node22&#45;&gt;Node5 -->
<g id="edge32" class="edge"><title>Node22&#45;&gt;Node5</title>
<path fill="none" stroke="midnightblue" d="M670.948,-179.475C681.968,-170.108 699.879,-154.884 713.262,-143.508"/>
<polygon fill="midnightblue" stroke="midnightblue" points="715.555,-146.152 720.908,-137.009 711.022,-140.819 715.555,-146.152"/>
</g>
<!-- Node22&#45;&gt;Node18 -->
<g id="edge29" class="edge"><title>Node22&#45;&gt;Node18</title>
<path fill="none" stroke="midnightblue" d="M631.416,-180.93C597.857,-172.686 541.537,-158.232 493.919,-143 491.511,-142.23 489.032,-141.399 486.547,-140.539"/>
<polygon fill="midnightblue" stroke="midnightblue" points="487.663,-137.221 477.069,-137.14 485.301,-143.81 487.663,-137.221"/>
</g>
<!-- Node22&#45;&gt;Node21 -->
<g id="edge33" class="edge"><title>Node22&#45;&gt;Node21</title>
<path fill="none" stroke="midnightblue" d="M631.078,-182.772C584.897,-174.624 493.357,-158.246 415.919,-143 403.873,-140.628 390.675,-137.889 379.076,-135.435"/>
<polygon fill="midnightblue" stroke="midnightblue" points="379.462,-131.939 368.953,-133.28 378.004,-138.785 379.462,-131.939"/>
</g>
<!-- Node23 -->
<g id="node23" class="node"><title>Node23</title>
<polygon fill="none" stroke="#bfbfbf" points="573.419,-118 573.419,-137 632.419,-137 632.419,-118 573.419,-118"/>
<text text-anchor="middle" x="602.919" y="-125" font-family="Helvetica,sans-Serif" font-size="10.00">functional</text>
</g>
<!-- Node22&#45;&gt;Node23 -->
<g id="edge27" class="edge"><title>Node22&#45;&gt;Node23</title>
<path fill="none" stroke="midnightblue" d="M652.609,-179.475C643.736,-170.373 629.473,-155.741 618.499,-144.483"/>
<polygon fill="midnightblue" stroke="midnightblue" points="620.7,-141.727 611.213,-137.009 615.687,-146.613 620.7,-141.727"/>
</g>
<!-- Node24 -->
<g id="node24" class="node"><title>Node24</title>
<polygon fill="none" stroke="#bfbfbf" points="502.919,-118 502.919,-137 554.919,-137 554.919,-118 502.919,-118"/>
<text text-anchor="middle" x="528.919" y="-125" font-family="Helvetica,sans-Serif" font-size="10.00">memory</text>
</g>
<!-- Node22&#45;&gt;Node24 -->
<g id="edge28" class="edge"><title>Node22&#45;&gt;Node24</title>
<path fill="none" stroke="midnightblue" d="M642.006,-179.475C619.756,-169.445 582.607,-152.7 556.993,-141.155"/>
<polygon fill="midnightblue" stroke="midnightblue" points="558.351,-137.928 547.796,-137.009 555.474,-144.309 558.351,-137.928"/>
</g>
<!-- Node25 -->
<g id="node25" class="node"><title>Node25</title>
<polygon fill="none" stroke="#bfbfbf" points="1250.92,-118 1250.92,-137 1302.92,-137 1302.92,-118 1250.92,-118"/>
<text text-anchor="middle" x="1276.92" y="-125" font-family="Helvetica,sans-Serif" font-size="10.00">sstream</text>
</g>
<!-- Node22&#45;&gt;Node25 -->
<g id="edge31" class="edge"><title>Node22&#45;&gt;Node25</title>
<path fill="none" stroke="midnightblue" d="M690.492,-185.994C788.664,-179.265 1103.22,-157.128 1203.92,-143 1215.99,-141.306 1229.08,-138.891 1240.8,-136.516"/>
<polygon fill="midnightblue" stroke="midnightblue" points="1241.61,-139.924 1250.69,-134.459 1240.18,-133.07 1241.61,-139.924"/>
</g>
<!-- Node26 -->
<g id="node26" class="node"><title>Node26</title>
<g id="a_node26"><a xlink:href="color_8hpp.html" target="_top" xlink:title="color.hpp">
<polygon fill="none" stroke="black" points="904.919,-118 904.919,-137 960.919,-137 960.919,-118 904.919,-118"/>
<text text-anchor="middle" x="932.919" y="-125" font-family="Helvetica,sans-Serif" font-size="10.00">color.hpp</text>
</a>
</g>
</g>
<!-- Node22&#45;&gt;Node26 -->
<g id="edge34" class="edge"><title>Node22&#45;&gt;Node26</title>
<path fill="none" stroke="midnightblue" d="M690.545,-181.519C740.087,-170.682 839.697,-148.892 894.537,-136.896"/>
<polygon fill="midnightblue" stroke="midnightblue" points="895.536,-140.26 904.557,-134.704 894.04,-133.422 895.536,-140.26"/>
</g>
<!-- Node26&#45;&gt;Node3 -->
<g id="edge36" class="edge"><title>Node26&#45;&gt;Node3</title>
<path fill="none" stroke="midnightblue" d="M914.006,-117.975C891.756,-107.945 854.607,-91.2002 828.993,-79.6546"/>
<polygon fill="midnightblue" stroke="midnightblue" points="830.351,-76.4277 819.796,-75.5091 827.474,-82.8094 830.351,-76.4277"/>
</g>
<!-- Node26&#45;&gt;Node4 -->
<g id="edge35" class="edge"><title>Node26&#45;&gt;Node4</title>
<path fill="none" stroke="midnightblue" d="M940.942,-117.975C949.509,-108.873 963.28,-94.241 973.876,-82.983"/>
<polygon fill="midnightblue" stroke="midnightblue" points="976.605,-85.1899 980.91,-75.5091 971.508,-80.3923 976.605,-85.1899"/>
</g>
<!-- Node26&#45;&gt;Node7 -->
<g id="edge39" class="edge"><title>Node26&#45;&gt;Node7</title>
<path fill="none" stroke="midnightblue" d="M953.121,-117.975C976.993,-107.901 1016.92,-91.0525 1044.29,-79.5023"/>
<polygon fill="midnightblue" stroke="midnightblue" points="1045.9,-82.6217 1053.75,-75.5091 1043.18,-76.1724 1045.9,-82.6217"/>
</g>
<!-- Node27 -->
<g id="node27" class="node"><title>Node27</title>
<g id="a_node27"><a xlink:href="math_8hpp.html" target="_top" xlink:title="math.hpp">
<polygon fill="none" stroke="black" points="890.419,-56.5 890.419,-75.5 947.419,-75.5 947.419,-56.5 890.419,-56.5"/>
<text text-anchor="middle" x="918.919" y="-63.5" font-family="Helvetica,sans-Serif" font-size="10.00">math.hpp</text>
</a>
</g>
</g>
<!-- Node26&#45;&gt;Node27 -->
<g id="edge37" class="edge"><title>Node26&#45;&gt;Node27</title>
<path fill="none" stroke="midnightblue" d="M930.913,-117.975C928.917,-109.492 925.79,-96.2043 923.23,-85.3222"/>
<polygon fill="midnightblue" stroke="midnightblue" points="926.618,-84.4416 920.921,-75.5091 919.804,-86.0449 926.618,-84.4416"/>
</g>
<!-- Node28 -->
<g id="node28" class="node"><title>Node28</title>
<polygon fill="none" stroke="#bfbfbf" points="1042.92,-0.5 1042.92,-19.5 1098.92,-19.5 1098.92,-0.5 1042.92,-0.5"/>
<text text-anchor="middle" x="1070.92" y="-7.5" font-family="Helvetica,sans-Serif" font-size="10.00">algorithm</text>
</g>
<!-- Node27&#45;&gt;Node28 -->
<g id="edge38" class="edge"><title>Node27&#45;&gt;Node28</title>
<path fill="none" stroke="midnightblue" d="M943.004,-56.4435C968.463,-47.3986 1008.81,-33.064 1037.38,-22.9158"/>
<polygon fill="midnightblue" stroke="midnightblue" points="1038.7,-26.1622 1046.95,-19.5164 1036.35,-19.5661 1038.7,-26.1622"/>
</g>
<!-- Node29&#45;&gt;Node3 -->
<g id="edge46" class="edge"><title>Node29&#45;&gt;Node3</title>
<path fill="none" stroke="midnightblue" d="M859.508,-296.924C850.567,-279.155 830.278,-236.817 819.919,-199 809.151,-159.69 804.207,-112.025 802.17,-86.084"/>
<polygon fill="midnightblue" stroke="midnightblue" points="805.639,-85.5239 801.428,-75.8018 798.657,-86.0279 805.639,-85.5239"/>
</g>
<!-- Node29&#45;&gt;Node6 -->
<g id="edge47" class="edge"><title>Node29&#45;&gt;Node6</title>
<path fill="none" stroke="midnightblue" d="M869.884,-296.699C885.817,-273.852 931.795,-212.126 984.919,-179 1014.86,-160.331 1052.31,-147.995 1083.34,-140.191"/>
<polygon fill="midnightblue" stroke="midnightblue" points="1084.27,-143.566 1093.17,-137.815 1082.63,-136.762 1084.27,-143.566"/>
</g>
<!-- Node29&#45;&gt;Node14 -->
<g id="edge48" class="edge"><title>Node29&#45;&gt;Node14</title>
<path fill="none" stroke="midnightblue" d="M823.764,-300.272C741.679,-289.585 554.584,-265.226 461.546,-253.112"/>
<polygon fill="midnightblue" stroke="midnightblue" points="461.857,-249.623 451.489,-251.803 460.954,-256.565 461.857,-249.623"/>
</g>
<!-- Node29&#45;&gt;Node20 -->
<g id="edge42" class="edge"><title>Node29&#45;&gt;Node20</title>
<path fill="none" stroke="midnightblue" d="M830.125,-296.929C743.583,-274.668 507.313,-211.932 315.919,-143 314.062,-142.331 312.161,-141.614 310.253,-140.87"/>
<polygon fill="midnightblue" stroke="midnightblue" points="311.408,-137.561 300.827,-137.019 308.76,-144.041 311.408,-137.561"/>
</g>
<!-- Node29&#45;&gt;Node25 -->
<g id="edge45" class="edge"><title>Node29&#45;&gt;Node25</title>
<path fill="none" stroke="midnightblue" d="M890.995,-296.93C898.089,-294.838 905.757,-292.712 912.919,-291 1062.25,-255.296 1135.93,-306.139 1245.92,-199 1260.41,-184.886 1268.6,-162.834 1272.87,-147.154"/>
<polygon fill="midnightblue" stroke="midnightblue" points="1276.36,-147.612 1275.33,-137.068 1269.56,-145.956 1276.36,-147.612"/>
</g>
<!-- Node30 -->
<g id="node30" class="node"><title>Node30</title>
<polygon fill="none" stroke="#bfbfbf" points="1312.42,-235.5 1312.42,-254.5 1361.42,-254.5 1361.42,-235.5 1312.42,-235.5"/>
<text text-anchor="middle" x="1336.92" y="-242.5" font-family="Helvetica,sans-Serif" font-size="10.00">istream</text>
</g>
<!-- Node29&#45;&gt;Node30 -->
<g id="edge43" class="edge"><title>Node29&#45;&gt;Node30</title>
<path fill="none" stroke="midnightblue" d="M889.372,-296.947C896.881,-294.703 905.166,-292.495 912.919,-291 1081.67,-258.464 1128.26,-282.383 1297.92,-255 1299.38,-254.765 1300.86,-254.506 1302.36,-254.231"/>
<polygon fill="midnightblue" stroke="midnightblue" points="1303.16,-257.639 1312.26,-252.214 1301.76,-250.78 1303.16,-257.639"/>
</g>
<!-- Node31 -->
<g id="node31" class="node"><title>Node31</title>
<polygon fill="none" stroke="#bfbfbf" points="1379.42,-235.5 1379.42,-254.5 1420.42,-254.5 1420.42,-235.5 1379.42,-235.5"/>
<text text-anchor="middle" x="1399.92" y="-242.5" font-family="Helvetica,sans-Serif" font-size="10.00">stack</text>
</g>
<!-- Node29&#45;&gt;Node31 -->
<g id="edge44" class="edge"><title>Node29&#45;&gt;Node31</title>
<path fill="none" stroke="midnightblue" d="M889.105,-296.95C896.681,-294.677 905.068,-292.454 912.919,-291 1110.45,-254.427 1168.53,-292.239 1369.18,-254.946"/>
<polygon fill="midnightblue" stroke="midnightblue" points="1369.98,-258.356 1379.15,-253.052 1368.67,-251.479 1369.98,-258.356"/>
</g>
<!-- Node32 -->
<g id="node32" class="node"><title>Node32</title>
<g id="a_node32"><a xlink:href="string__functions_8hpp.html" target="_top" xlink:title="string_functions.hpp">
<polygon fill="none" stroke="black" points="995.919,-235.5 995.919,-254.5 1099.92,-254.5 1099.92,-235.5 995.919,-235.5"/>
<text text-anchor="middle" x="1047.92" y="-242.5" font-family="Helvetica,sans-Serif" font-size="10.00">string_functions.hpp</text>
</a>
</g>
</g>
<!-- Node29&#45;&gt;Node32 -->
<g id="edge49" class="edge"><title>Node29&#45;&gt;Node32</title>
<path fill="none" stroke="midnightblue" d="M890.281,-296.975C922.254,-286.636 976.295,-269.161 1012.04,-257.602"/>
<polygon fill="midnightblue" stroke="midnightblue" points="1013.17,-260.916 1021.6,-254.509 1011.01,-254.256 1013.17,-260.916"/>
</g>
<!-- Node32&#45;&gt;Node2 -->
<g id="edge56" class="edge"><title>Node32&#45;&gt;Node2</title>
<path fill="none" stroke="midnightblue" d="M1018.76,-235.444C987.405,-226.241 937.388,-211.562 902.722,-201.388"/>
<polygon fill="midnightblue" stroke="midnightblue" points="903.519,-197.974 892.938,-198.516 901.547,-204.691 903.519,-197.974"/>
</g>
<!-- Node32&#45;&gt;Node3 -->
<g id="edge54" class="edge"><title>Node32&#45;&gt;Node3</title>
<path fill="none" stroke="midnightblue" d="M1034.23,-235.475C1007.26,-218.557 945.563,-179.243 895.919,-143 868.255,-122.804 837.519,-97.6985 818.703,-82.0072"/>
<polygon fill="midnightblue" stroke="midnightblue" points="820.863,-79.2513 810.95,-75.5116 816.368,-84.6168 820.863,-79.2513"/>
</g>
<!-- Node32&#45;&gt;Node25 -->
<g id="edge53" class="edge"><title>Node32&#45;&gt;Node25</title>
<path fill="none" stroke="midnightblue" d="M1100.22,-239.416C1136.78,-234.176 1185.4,-222.964 1221.92,-199 1242.13,-185.741 1258.1,-162.535 1267.51,-146.384"/>
<polygon fill="midnightblue" stroke="midnightblue" points="1270.71,-147.833 1272.5,-137.391 1264.59,-144.435 1270.71,-147.833"/>
</g>
<!-- Node32&#45;&gt;Node28 -->
<g id="edge50" class="edge"><title>Node32&#45;&gt;Node28</title>
<path fill="none" stroke="midnightblue" d="M1100.01,-239.594C1129.86,-234.398 1165.86,-223.171 1188.92,-199 1206.7,-180.355 1200.56,-168.546 1203.92,-143 1205.72,-129.34 1210.04,-124.342 1203.92,-112 1182.66,-69.1635 1133.59,-39.5993 1101.36,-23.9868"/>
<polygon fill="midnightblue" stroke="midnightblue" points="1102.49,-20.6524 1091.95,-19.5902 1099.53,-26.9943 1102.49,-20.6524"/>
</g>
<!-- Node33 -->
<g id="node33" class="node"><title>Node33</title>
<polygon fill="none" stroke="#bfbfbf" points="993.419,-179.5 993.419,-198.5 1040.42,-198.5 1040.42,-179.5 993.419,-179.5"/>
<text text-anchor="middle" x="1016.92" y="-186.5" font-family="Helvetica,sans-Serif" font-size="10.00">iterator</text>
</g>
<!-- Node32&#45;&gt;Node33 -->
<g id="edge51" class="edge"><title>Node32&#45;&gt;Node33</title>
<path fill="none" stroke="midnightblue" d="M1042.8,-235.083C1038.51,-227.613 1032.26,-216.724 1026.98,-207.52"/>
<polygon fill="midnightblue" stroke="midnightblue" points="1029.96,-205.681 1021.94,-198.751 1023.89,-209.166 1029.96,-205.681"/>
</g>
<!-- Node34 -->
<g id="node34" class="node"><title>Node34</title>
<polygon fill="none" stroke="#bfbfbf" points="1058.42,-179.5 1058.42,-198.5 1099.42,-198.5 1099.42,-179.5 1058.42,-179.5"/>
<text text-anchor="middle" x="1078.92" y="-186.5" font-family="Helvetica,sans-Serif" font-size="10.00">regex</text>
</g>
<!-- Node32&#45;&gt;Node34 -->
<g id="edge52" class="edge"><title>Node32&#45;&gt;Node34</title>
<path fill="none" stroke="midnightblue" d="M1053.04,-235.083C1057.33,-227.613 1063.58,-216.724 1068.86,-207.52"/>
<polygon fill="midnightblue" stroke="midnightblue" points="1071.95,-209.166 1073.89,-198.751 1065.88,-205.681 1071.95,-209.166"/>
</g>
<!-- Node35 -->
<g id="node35" class="node"><title>Node35</title>
<polygon fill="none" stroke="#bfbfbf" points="1117.92,-179.5 1117.92,-198.5 1179.92,-198.5 1179.92,-179.5 1117.92,-179.5"/>
<text text-anchor="middle" x="1148.92" y="-186.5" font-family="Helvetica,sans-Serif" font-size="10.00">type_traits</text>
</g>
<!-- Node32&#45;&gt;Node35 -->
<g id="edge55" class="edge"><title>Node32&#45;&gt;Node35</title>
<path fill="none" stroke="midnightblue" d="M1064.15,-235.324C1080.27,-226.703 1105.22,-213.364 1123.88,-203.386"/>
<polygon fill="midnightblue" stroke="midnightblue" points="1125.56,-206.456 1132.73,-198.655 1122.26,-200.283 1125.56,-206.456"/>
</g>
</g>
</svg>
