<?xml version="1.0" encoding="UTF-8" standalone="no"?>
<!DOCTYPE svg PUBLIC "-//W3C//DTD SVG 1.1//EN"
 "http://www.w3.org/Graphics/SVG/1.1/DTD/svg11.dtd">
<!-- Generated by graphviz version 2.38.0 (20140413.2041)
 -->
<!-- Title: src/settings.cpp Pages: 1 -->
<!--zoomable 341 -->
<svg id="main" version="1.1" xmlns="http://www.w3.org/2000/svg" xmlns:xlink="http://www.w3.org/1999/xlink" xml:space="preserve" onload="init(evt)">
<style type="text/css"><![CDATA[
.edge:hover path { stroke: red; }
.edge:hover polygon { stroke: red; fill: red; }
]]></style>
<script type="text/javascript"><![CDATA[
var edges = document.getElementsByTagName('g');
if (edges && edges.length) {
  for (var i=0;i<edges.length;i++) {
    if (edges[i].id.substr(0,4)=='edge') {
      edges[i].setAttribute('class','edge');
    }
  }
}
]]></script>
        <defs>
                <circle id="rim" cx="0" cy="0" r="7"/>
                <circle id="rim2" cx="0" cy="0" r="3.5"/>
                <g id="zoomPlus">
                        <use xlink:href="#rim" fill="#404040">
                                <set attributeName="fill" to="#808080" begin="zoomplus.mouseover" end="zoomplus.mouseout"/>
                        </use>
                        <path d="M-4,0h8M0,-4v8" fill="none" stroke="white" stroke-width="1.5" pointer-events="none"/>
                </g>
                <g id="zoomMin">
                        <use xlink:href="#rim" fill="#404040">
                                <set attributeName="fill" to="#808080" begin="zoomminus.mouseover" end="zoomminus.mouseout"/>
                        </use>
                        <path d="M-4,0h8" fill="none" stroke="white" stroke-width="1.5" pointer-events="none"/>
                </g>
                <g id="dirArrow">
                        <path fill="none" stroke="white" stroke-width="1.5" d="M0,-3.0v7 M-2.5,-0.5L0,-3.0L2.5,-0.5"/>
                </g>
               <g id="resetDef">
                       <use xlink:href="#rim2" fill="#404040">
                               <set attributeName="fill" to="#808080" begin="reset.mouseover" end="reset.mouseout"/>
                       </use>
               </g>
        </defs>

<script type="text/javascript">
var viewWidth = 1483;
var viewHeight = 341;
var sectionId = 'dynsection-0';
</script>
<script xlink:href="svgpan.js"/>
<svg id="graph" class="graph">
<g id="viewport">
<title>src/settings.cpp</title>
<!-- Node1 -->
<g id="node1" class="node"><title>Node1</title>
<polygon fill="#bfbfbf" stroke="black" points="694.166,-313.5 694.166,-332.5 780.166,-332.5 780.166,-313.5 694.166,-313.5"/>
<text text-anchor="middle" x="737.166" y="-320.5" font-family="Helvetica,sans-Serif" font-size="10.00">src/settings.cpp</text>
</g>
<!-- Node2 -->
<g id="node2" class="node"><title>Node2</title>
<g id="a_node2"><a xlink:href="settings_8hpp.html" target="_top" xlink:title="settings.hpp">
<polygon fill="none" stroke="black" points="851.166,-129 851.166,-148 921.166,-148 921.166,-129 851.166,-129"/>
<text text-anchor="middle" x="886.166" y="-136" font-family="Helvetica,sans-Serif" font-size="10.00">settings.hpp</text>
</a>
</g>
</g>
<!-- Node1&#45;&gt;Node2 -->
<g id="edge1" class="edge"><title>Node1&#45;&gt;Node2</title>
<path fill="none" stroke="midnightblue" d="M780.227,-320.221C841.964,-316.665 950.884,-306.303 975.166,-277 1009.62,-235.419 943.981,-179.863 907.79,-153.948"/>
<polygon fill="midnightblue" stroke="midnightblue" points="909.506,-150.878 899.302,-148.025 905.5,-156.618 909.506,-150.878"/>
</g>
<!-- Node7 -->
<g id="node7" class="node"><title>Node7</title>
<polygon fill="none" stroke="#bfbfbf" points="51.6659,-0.5 51.6659,-19.5 96.6659,-19.5 96.6659,-0.5 51.6659,-0.5"/>
<text text-anchor="middle" x="74.1659" y="-7.5" font-family="Helvetica,sans-Serif" font-size="10.00">cstdlib</text>
</g>
<!-- Node1&#45;&gt;Node7 -->
<g id="edge6" class="edge"><title>Node1&#45;&gt;Node7</title>
<path fill="none" stroke="midnightblue" d="M694.086,-319.514C536.448,-309.854 0.165928,-271.789 0.165928,-201 0.165928,-201 0.165928,-201 0.165928,-137.5 0.165928,-100.306 -0.497785,-87.5705 19.1659,-56 26.9375,-43.5226 39.389,-32.9118 50.4806,-25.1331"/>
<polygon fill="midnightblue" stroke="midnightblue" points="52.5581,-27.9554 58.969,-19.5202 48.6971,-22.1164 52.5581,-27.9554"/>
</g>
<!-- Node8 -->
<g id="node8" class="node"><title>Node8</title>
<polygon fill="none" stroke="#bfbfbf" points="349.666,-252 349.666,-271 456.666,-271 456.666,-252 349.666,-252"/>
<text text-anchor="middle" x="403.166" y="-259" font-family="Helvetica,sans-Serif" font-size="10.00">boost/filesystem.hpp</text>
</g>
<!-- Node1&#45;&gt;Node8 -->
<g id="edge7" class="edge"><title>Node1&#45;&gt;Node8</title>
<path fill="none" stroke="midnightblue" d="M693.836,-315.648C640.208,-307.593 546.169,-292.833 466.166,-277 460.382,-275.855 454.32,-274.57 448.336,-273.25"/>
<polygon fill="midnightblue" stroke="midnightblue" points="448.928,-269.795 438.403,-271.014 447.39,-276.625 448.928,-269.795"/>
</g>
<!-- Node9 -->
<g id="node9" class="node"><title>Node9</title>
<polygon fill="none" stroke="#bfbfbf" points="475.166,-252 475.166,-271 609.166,-271 609.166,-252 475.166,-252"/>
<text text-anchor="middle" x="542.166" y="-259" font-family="Helvetica,sans-Serif" font-size="10.00">boost/program_options.hpp</text>
</g>
<!-- Node1&#45;&gt;Node9 -->
<g id="edge8" class="edge"><title>Node1&#45;&gt;Node9</title>
<path fill="none" stroke="midnightblue" d="M709.227,-313.475C675.199,-303.092 617.582,-285.512 579.704,-273.954"/>
<polygon fill="midnightblue" stroke="midnightblue" points="580.639,-270.58 570.053,-271.009 578.596,-277.275 580.639,-270.58"/>
</g>
<!-- Node10 -->
<g id="node10" class="node"><title>Node10</title>
<polygon fill="none" stroke="#bfbfbf" points="627.666,-246.5 627.666,-276.5 728.666,-276.5 728.666,-246.5 627.666,-246.5"/>
<text text-anchor="start" x="635.666" y="-264.5" font-family="Helvetica,sans-Serif" font-size="10.00">boost/property_tree</text>
<text text-anchor="middle" x="678.166" y="-253.5" font-family="Helvetica,sans-Serif" font-size="10.00">/info_parser.hpp</text>
</g>
<!-- Node1&#45;&gt;Node10 -->
<g id="edge9" class="edge"><title>Node1&#45;&gt;Node10</title>
<path fill="none" stroke="midnightblue" d="M728.713,-313.475C721.021,-305.718 709.345,-293.943 699.153,-283.665"/>
<polygon fill="midnightblue" stroke="midnightblue" points="701.598,-281.159 692.071,-276.523 696.627,-286.088 701.598,-281.159"/>
</g>
<!-- Node11 -->
<g id="node11" class="node"><title>Node11</title>
<polygon fill="none" stroke="#bfbfbf" points="746.666,-246.5 746.666,-276.5 847.666,-276.5 847.666,-246.5 746.666,-246.5"/>
<text text-anchor="start" x="754.666" y="-264.5" font-family="Helvetica,sans-Serif" font-size="10.00">boost/property_tree</text>
<text text-anchor="middle" x="797.166" y="-253.5" font-family="Helvetica,sans-Serif" font-size="10.00">/ini_parser.hpp</text>
</g>
<!-- Node1&#45;&gt;Node11 -->
<g id="edge10" class="edge"><title>Node1&#45;&gt;Node11</title>
<path fill="none" stroke="midnightblue" d="M745.762,-313.475C753.585,-305.718 765.458,-293.943 775.824,-283.665"/>
<polygon fill="midnightblue" stroke="midnightblue" points="778.389,-286.05 783.025,-276.523 773.46,-281.079 778.389,-286.05"/>
</g>
<!-- Node12 -->
<g id="node12" class="node"><title>Node12</title>
<polygon fill="none" stroke="#bfbfbf" points="865.666,-246.5 865.666,-276.5 966.666,-276.5 966.666,-246.5 865.666,-246.5"/>
<text text-anchor="start" x="873.666" y="-264.5" font-family="Helvetica,sans-Serif" font-size="10.00">boost/property_tree</text>
<text text-anchor="middle" x="916.166" y="-253.5" font-family="Helvetica,sans-Serif" font-size="10.00">/xml_parser.hpp</text>
</g>
<!-- Node1&#45;&gt;Node12 -->
<g id="edge11" class="edge"><title>Node1&#45;&gt;Node12</title>
<path fill="none" stroke="midnightblue" d="M762.812,-313.475C789.208,-304.701 831.064,-290.788 864.384,-279.712"/>
<polygon fill="midnightblue" stroke="midnightblue" points="865.594,-282.999 873.979,-276.523 863.386,-276.356 865.594,-282.999"/>
</g>
<!-- Node13 -->
<g id="node13" class="node"><title>Node13</title>
<g id="a_node13"><a xlink:href="logger_8hpp.html" target="_top" xlink:title="string/logger.hpp">
<polygon fill="none" stroke="black" points="527.666,-190.5 527.666,-209.5 616.666,-209.5 616.666,-190.5 527.666,-190.5"/>
<text text-anchor="middle" x="572.166" y="-197.5" font-family="Helvetica,sans-Serif" font-size="10.00">string/logger.hpp</text>
</a>
</g>
</g>
<!-- Node1&#45;&gt;Node13 -->
<g id="edge12" class="edge"><title>Node1&#45;&gt;Node13</title>
<path fill="none" stroke="midnightblue" d="M694.013,-320.293C596.034,-315.976 363.441,-303.062 340.166,-277 287.725,-218.279 433.531,-204.76 517.5,-201.763"/>
<polygon fill="midnightblue" stroke="midnightblue" points="517.781,-205.255 527.665,-201.44 517.559,-198.259 517.781,-205.255"/>
</g>
<!-- Node29 -->
<g id="node29" class="node"><title>Node29</title>
<g id="a_node29"><a xlink:href="json_8hpp.html" target="_top" xlink:title="string/json.hpp">
<polygon fill="none" stroke="black" points="1184.17,-252 1184.17,-271 1264.17,-271 1264.17,-252 1184.17,-252"/>
<text text-anchor="middle" x="1224.17" y="-259" font-family="Helvetica,sans-Serif" font-size="10.00">string/json.hpp</text>
</a>
</g>
</g>
<!-- Node1&#45;&gt;Node29 -->
<g id="edge41" class="edge"><title>Node1&#45;&gt;Node29</title>
<path fill="none" stroke="midnightblue" d="M780.384,-316.72C870.562,-305.702 1078.33,-280.318 1174.12,-268.614"/>
<polygon fill="midnightblue" stroke="midnightblue" points="1174.63,-272.078 1184.14,-267.391 1173.79,-265.129 1174.63,-272.078"/>
</g>
<!-- Node36 -->
<g id="node36" class="node"><title>Node36</title>
<g id="a_node36"><a xlink:href="config_8hpp.html" target="_top" xlink:title="config.hpp">
<polygon fill="none" stroke="black" points="1282.17,-252 1282.17,-271 1344.17,-271 1344.17,-252 1282.17,-252"/>
<text text-anchor="middle" x="1313.17" y="-259" font-family="Helvetica,sans-Serif" font-size="10.00">config.hpp</text>
</a>
</g>
</g>
<!-- Node1&#45;&gt;Node36 -->
<g id="edge57" class="edge"><title>Node1&#45;&gt;Node36</title>
<path fill="none" stroke="midnightblue" d="M780.469,-322.209C872.369,-321.816 1093.24,-316.435 1273.17,-277 1276.41,-276.288 1279.75,-275.379 1283.06,-274.363"/>
<polygon fill="midnightblue" stroke="midnightblue" points="1284.37,-277.615 1292.71,-271.088 1282.12,-270.985 1284.37,-277.615"/>
</g>
<!-- Node3 -->
<g id="node3" class="node"><title>Node3</title>
<polygon fill="none" stroke="#bfbfbf" points="784.666,-0.5 784.666,-19.5 825.666,-19.5 825.666,-0.5 784.666,-0.5"/>
<text text-anchor="middle" x="805.166" y="-7.5" font-family="Helvetica,sans-Serif" font-size="10.00">string</text>
</g>
<!-- Node2&#45;&gt;Node3 -->
<g id="edge2" class="edge"><title>Node2&#45;&gt;Node3</title>
<path fill="none" stroke="midnightblue" d="M889.855,-128.883C895.98,-113.122 906.254,-79.1482 892.166,-56 879.97,-35.9606 855.654,-24.4513 835.823,-18.0979"/>
<polygon fill="midnightblue" stroke="midnightblue" points="836.528,-14.6581 825.949,-15.2276 834.574,-21.3799 836.528,-14.6581"/>
</g>
<!-- Node4 -->
<g id="node4" class="node"><title>Node4</title>
<polygon fill="none" stroke="#bfbfbf" points="314.166,-0.5 314.166,-19.5 360.166,-19.5 360.166,-0.5 314.166,-0.5"/>
<text text-anchor="middle" x="337.166" y="-7.5" font-family="Helvetica,sans-Serif" font-size="10.00">cstdint</text>
</g>
<!-- Node2&#45;&gt;Node4 -->
<g id="edge3" class="edge"><title>Node2&#45;&gt;Node4</title>
<path fill="none" stroke="midnightblue" d="M875.163,-128.741C852.77,-111.452 799.648,-73.1325 748.166,-56 678.116,-32.6882 455.277,-17.7853 370.416,-12.8291"/>
<polygon fill="midnightblue" stroke="midnightblue" points="370.492,-9.32775 360.308,-12.2478 370.09,-16.3162 370.492,-9.32775"/>
</g>
<!-- Node5 -->
<g id="node5" class="node"><title>Node5</title>
<polygon fill="none" stroke="#bfbfbf" points="545.666,-62 545.666,-81 628.666,-81 628.666,-62 545.666,-62"/>
<text text-anchor="middle" x="587.166" y="-69" font-family="Helvetica,sans-Serif" font-size="10.00">unordered_map</text>
</g>
<!-- Node2&#45;&gt;Node5 -->
<g id="edge4" class="edge"><title>Node2&#45;&gt;Node5</title>
<path fill="none" stroke="midnightblue" d="M862.118,-128.984C855.684,-126.868 848.7,-124.717 842.166,-123 772.6,-104.723 690.819,-89.6302 638.995,-80.8407"/>
<polygon fill="midnightblue" stroke="midnightblue" points="639.483,-77.3739 629.042,-79.1678 638.323,-84.2771 639.483,-77.3739"/>
</g>
<!-- Node6 -->
<g id="node6" class="node"><title>Node6</title>
<polygon fill="none" stroke="#bfbfbf" points="1208.67,-56.5 1208.67,-86.5 1309.67,-86.5 1309.67,-56.5 1208.67,-56.5"/>
<text text-anchor="start" x="1216.67" y="-74.5" font-family="Helvetica,sans-Serif" font-size="10.00">boost/property_tree</text>
<text text-anchor="middle" x="1259.17" y="-63.5" font-family="Helvetica,sans-Serif" font-size="10.00">/ptree.hpp</text>
</g>
<!-- Node2&#45;&gt;Node6 -->
<g id="edge5" class="edge"><title>Node2&#45;&gt;Node6</title>
<path fill="none" stroke="midnightblue" d="M921.254,-131.133C935.763,-128.543 952.764,-125.562 968.166,-123 1067.56,-106.469 1095.57,-107.161 1198.62,-87.007"/>
<polygon fill="midnightblue" stroke="midnightblue" points="1199.36,-90.4281 1208.49,-85.0573 1198,-83.5606 1199.36,-90.4281"/>
</g>
<!-- Node13&#45;&gt;Node2 -->
<g id="edge40" class="edge"><title>Node13&#45;&gt;Node2</title>
<path fill="none" stroke="midnightblue" d="M617.025,-193.664C670.95,-186.759 763.959,-173.283 842.166,-154 845.548,-153.166 849.046,-152.199 852.522,-151.168"/>
<polygon fill="midnightblue" stroke="midnightblue" points="853.656,-154.481 862.152,-148.151 851.563,-147.801 853.656,-154.481"/>
</g>
<!-- Node13&#45;&gt;Node3 -->
<g id="edge17" class="edge"><title>Node13&#45;&gt;Node3</title>
<path fill="none" stroke="midnightblue" d="M575.782,-190.188C586.703,-164.767 621.961,-90.8942 676.166,-56 706.938,-36.1909 747.475,-23.9136 774.83,-17.2849"/>
<polygon fill="midnightblue" stroke="midnightblue" points="775.668,-20.6835 784.62,-15.017 774.088,-13.8641 775.668,-20.6835"/>
</g>
<!-- Node13&#45;&gt;Node5 -->
<g id="edge18" class="edge"><title>Node13&#45;&gt;Node5</title>
<path fill="none" stroke="midnightblue" d="M572.378,-190.071C572.801,-175.831 573.998,-147.123 577.166,-123 578.571,-112.3 580.876,-100.458 582.918,-90.9329"/>
<polygon fill="midnightblue" stroke="midnightblue" points="586.368,-91.5437 585.127,-81.0219 579.536,-90.0214 586.368,-91.5437"/>
</g>
<!-- Node14 -->
<g id="node14" class="node"><title>Node14</title>
<polygon fill="none" stroke="#bfbfbf" points="657.166,-129 657.166,-148 707.166,-148 707.166,-129 657.166,-129"/>
<text text-anchor="middle" x="682.166" y="-136" font-family="Helvetica,sans-Serif" font-size="10.00">iomanip</text>
</g>
<!-- Node13&#45;&gt;Node14 -->
<g id="edge13" class="edge"><title>Node13&#45;&gt;Node14</title>
<path fill="none" stroke="midnightblue" d="M587.926,-190.475C606.142,-180.622 636.339,-164.288 657.634,-152.77"/>
<polygon fill="midnightblue" stroke="midnightblue" points="659.304,-155.845 666.435,-148.009 655.974,-149.688 659.304,-155.845"/>
</g>
<!-- Node15 -->
<g id="node15" class="node"><title>Node15</title>
<polygon fill="none" stroke="#bfbfbf" points="685.166,-62 685.166,-81 739.166,-81 739.166,-62 685.166,-62"/>
<text text-anchor="middle" x="712.166" y="-69" font-family="Helvetica,sans-Serif" font-size="10.00">iostream</text>
</g>
<!-- Node13&#45;&gt;Node15 -->
<g id="edge14" class="edge"><title>Node13&#45;&gt;Node15</title>
<path fill="none" stroke="midnightblue" d="M580.287,-190.233C593.861,-175.731 622.227,-146.06 648.166,-123 662.433,-110.316 679.431,-96.9801 692.323,-87.1994"/>
<polygon fill="midnightblue" stroke="midnightblue" points="694.617,-89.8539 700.508,-81.048 690.411,-84.2581 694.617,-89.8539"/>
</g>
<!-- Node16 -->
<g id="node16" class="node"><title>Node16</title>
<polygon fill="none" stroke="#bfbfbf" points="280.166,-129 280.166,-148 324.166,-148 324.166,-129 280.166,-129"/>
<text text-anchor="middle" x="302.166" y="-136" font-family="Helvetica,sans-Serif" font-size="10.00">mutex</text>
</g>
<!-- Node13&#45;&gt;Node16 -->
<g id="edge15" class="edge"><title>Node13&#45;&gt;Node16</title>
<path fill="none" stroke="midnightblue" d="M527.286,-193.972C478.621,-187.736 399.071,-175.243 333.166,-154 331.494,-153.461 329.795,-152.853 328.097,-152.2"/>
<polygon fill="midnightblue" stroke="midnightblue" points="329.157,-148.846 318.587,-148.116 326.395,-155.278 329.157,-148.846"/>
</g>
<!-- Node17 -->
<g id="node17" class="node"><title>Node17</title>
<polygon fill="none" stroke="#bfbfbf" points="28.6659,-62 28.6659,-81 87.6659,-81 87.6659,-62 28.6659,-62"/>
<text text-anchor="middle" x="58.1659" y="-69" font-family="Helvetica,sans-Serif" font-size="10.00">stdexcept</text>
</g>
<!-- Node13&#45;&gt;Node17 -->
<g id="edge16" class="edge"><title>Node13&#45;&gt;Node17</title>
<path fill="none" stroke="midnightblue" d="M527.438,-195.369C468.108,-189.862 360.469,-177.463 271.166,-154 202.534,-135.968 125.603,-103.239 85.6305,-85.2293"/>
<polygon fill="midnightblue" stroke="midnightblue" points="87.0745,-82.041 76.5223,-81.0911 84.1789,-88.4141 87.0745,-82.041"/>
</g>
<!-- Node18 -->
<g id="node18" class="node"><title>Node18</title>
<polygon fill="none" stroke="#bfbfbf" points="419.666,-123.5 419.666,-153.5 524.666,-153.5 524.666,-123.5 419.666,-123.5"/>
<text text-anchor="start" x="427.666" y="-141.5" font-family="Helvetica,sans-Serif" font-size="10.00">boost/chrono/io/time</text>
<text text-anchor="middle" x="472.166" y="-130.5" font-family="Helvetica,sans-Serif" font-size="10.00">_point_io.hpp</text>
</g>
<!-- Node13&#45;&gt;Node18 -->
<g id="edge19" class="edge"><title>Node13&#45;&gt;Node18</title>
<path fill="none" stroke="midnightblue" d="M557.838,-190.475C544.042,-182.266 522.684,-169.558 504.745,-158.885"/>
<polygon fill="midnightblue" stroke="midnightblue" points="506.117,-155.629 495.734,-153.523 502.538,-161.644 506.117,-155.629"/>
</g>
<!-- Node19 -->
<g id="node19" class="node"><title>Node19</title>
<g id="a_node19"><a xlink:href="multibuf_8hpp.html" target="_top" xlink:title="multibuf.hpp">
<polygon fill="none" stroke="black" points="763.166,-129 763.166,-148 833.166,-148 833.166,-129 763.166,-129"/>
<text text-anchor="middle" x="798.166" y="-136" font-family="Helvetica,sans-Serif" font-size="10.00">multibuf.hpp</text>
</a>
</g>
</g>
<!-- Node13&#45;&gt;Node19 -->
<g id="edge20" class="edge"><title>Node13&#45;&gt;Node19</title>
<path fill="none" stroke="midnightblue" d="M604.546,-190.475C644.404,-179.982 712.184,-162.137 756.054,-150.587"/>
<polygon fill="midnightblue" stroke="midnightblue" points="757.066,-153.94 765.846,-148.009 755.284,-147.17 757.066,-153.94"/>
</g>
<!-- Node22 -->
<g id="node22" class="node"><title>Node22</title>
<g id="a_node22"><a xlink:href="string_8hpp.html" target="_top" xlink:title="string.hpp">
<polygon fill="none" stroke="black" points="342.666,-129 342.666,-148 401.666,-148 401.666,-129 342.666,-129"/>
<text text-anchor="middle" x="372.166" y="-136" font-family="Helvetica,sans-Serif" font-size="10.00">string.hpp</text>
</a>
</g>
</g>
<!-- Node13&#45;&gt;Node22 -->
<g id="edge25" class="edge"><title>Node13&#45;&gt;Node22</title>
<path fill="none" stroke="midnightblue" d="M537.754,-190.439C504.767,-181.999 453.7,-168.317 410.166,-154 407.902,-153.255 405.575,-152.455 403.24,-151.627"/>
<polygon fill="midnightblue" stroke="midnightblue" points="404.337,-148.301 393.743,-148.134 401.921,-154.871 404.337,-148.301"/>
</g>
<!-- Node19&#45;&gt;Node3 -->
<g id="edge24" class="edge"><title>Node19&#45;&gt;Node3</title>
<path fill="none" stroke="midnightblue" d="M798.647,-128.805C799.771,-108.494 802.59,-57.5532 804.127,-29.7768"/>
<polygon fill="midnightblue" stroke="midnightblue" points="807.623,-29.9338 804.681,-19.7557 800.634,-29.547 807.623,-29.9338"/>
</g>
<!-- Node19&#45;&gt;Node15 -->
<g id="edge21" class="edge"><title>Node19&#45;&gt;Node15</title>
<path fill="none" stroke="midnightblue" d="M786.568,-128.734C772.512,-118.111 748.615,-100.049 731.7,-87.2642"/>
<polygon fill="midnightblue" stroke="midnightblue" points="733.669,-84.3648 723.581,-81.1273 729.448,-89.9492 733.669,-84.3648"/>
</g>
<!-- Node20 -->
<g id="node20" class="node"><title>Node20</title>
<polygon fill="none" stroke="#bfbfbf" points="833.166,-62 833.166,-81 883.166,-81 883.166,-62 833.166,-62"/>
<text text-anchor="middle" x="858.166" y="-69" font-family="Helvetica,sans-Serif" font-size="10.00">fstream</text>
</g>
<!-- Node19&#45;&gt;Node20 -->
<g id="edge22" class="edge"><title>Node19&#45;&gt;Node20</title>
<path fill="none" stroke="midnightblue" d="M806.258,-128.734C815.704,-118.5 831.522,-101.364 843.219,-88.6924"/>
<polygon fill="midnightblue" stroke="midnightblue" points="845.991,-90.8494 850.202,-81.1273 840.848,-86.1014 845.991,-90.8494"/>
</g>
<!-- Node21 -->
<g id="node21" class="node"><title>Node21</title>
<polygon fill="none" stroke="#bfbfbf" points="483.166,-62 483.166,-81 527.166,-81 527.166,-62 483.166,-62"/>
<text text-anchor="middle" x="505.166" y="-69" font-family="Helvetica,sans-Serif" font-size="10.00">vector</text>
</g>
<!-- Node19&#45;&gt;Node21 -->
<g id="edge23" class="edge"><title>Node19&#45;&gt;Node21</title>
<path fill="none" stroke="midnightblue" d="M771.363,-128.936C764.197,-126.82 756.426,-124.681 749.166,-123 655.632,-101.339 627.817,-115.599 536.166,-87 534.294,-86.4159 532.39,-85.7415 530.493,-85.0097"/>
<polygon fill="midnightblue" stroke="midnightblue" points="531.815,-81.7686 521.246,-81.0255 529.045,-88.1972 531.815,-81.7686"/>
</g>
<!-- Node22&#45;&gt;Node3 -->
<g id="edge30" class="edge"><title>Node22&#45;&gt;Node3</title>
<path fill="none" stroke="midnightblue" d="M371.62,-128.989C371.056,-112.146 372.458,-74.5873 394.166,-56 422.95,-31.3541 683.895,-16.7491 774.412,-12.3894"/>
<polygon fill="midnightblue" stroke="midnightblue" points="774.755,-15.8772 784.579,-11.9086 774.425,-8.88501 774.755,-15.8772"/>
</g>
<!-- Node22&#45;&gt;Node4 -->
<g id="edge26" class="edge"><title>Node22&#45;&gt;Node4</title>
<path fill="none" stroke="midnightblue" d="M369.76,-128.805C364.116,-108.404 349.921,-57.0998 342.259,-29.4078"/>
<polygon fill="midnightblue" stroke="midnightblue" points="345.628,-28.4603 339.588,-19.7557 338.882,-30.3269 345.628,-28.4603"/>
</g>
<!-- Node22&#45;&gt;Node5 -->
<g id="edge33" class="edge"><title>Node22&#45;&gt;Node5</title>
<path fill="none" stroke="midnightblue" d="M393.752,-128.892C399.085,-126.868 404.806,-124.784 410.166,-123 413.506,-121.889 496.145,-98.3705 547.309,-83.8256"/>
<polygon fill="midnightblue" stroke="midnightblue" points="548.427,-87.1464 557.089,-81.0455 546.513,-80.4131 548.427,-87.1464"/>
</g>
<!-- Node22&#45;&gt;Node17 -->
<g id="edge29" class="edge"><title>Node22&#45;&gt;Node17</title>
<path fill="none" stroke="midnightblue" d="M351.369,-128.87C345.555,-126.704 339.18,-124.557 333.166,-123 230.025,-96.2953 199.191,-114.146 96.1659,-87 93.5051,-86.2989 90.7738,-85.4752 88.0552,-84.5826"/>
<polygon fill="midnightblue" stroke="midnightblue" points="89.008,-81.2065 78.4133,-81.1433 86.6562,-87.7996 89.008,-81.2065"/>
</g>
<!-- Node22&#45;&gt;Node21 -->
<g id="edge34" class="edge"><title>Node22&#45;&gt;Node21</title>
<path fill="none" stroke="midnightblue" d="M389.827,-128.869C412.483,-117.796 451.994,-98.4862 478.366,-85.5978"/>
<polygon fill="midnightblue" stroke="midnightblue" points="479.984,-88.7027 487.432,-81.1672 476.91,-82.4136 479.984,-88.7027"/>
</g>
<!-- Node23 -->
<g id="node23" class="node"><title>Node23</title>
<polygon fill="none" stroke="#bfbfbf" points="105.666,-62 105.666,-81 164.666,-81 164.666,-62 105.666,-62"/>
<text text-anchor="middle" x="135.166" y="-69" font-family="Helvetica,sans-Serif" font-size="10.00">functional</text>
</g>
<!-- Node22&#45;&gt;Node23 -->
<g id="edge27" class="edge"><title>Node22&#45;&gt;Node23</title>
<path fill="none" stroke="midnightblue" d="M350.475,-128.852C344.885,-126.785 338.843,-124.69 333.166,-123 263.722,-102.329 243.61,-107.671 174.166,-87 171.593,-86.2343 168.946,-85.3854 166.3,-84.4935"/>
<polygon fill="midnightblue" stroke="midnightblue" points="167.452,-81.1885 156.857,-81.1479 165.114,-87.7866 167.452,-81.1885"/>
</g>
<!-- Node24 -->
<g id="node24" class="node"><title>Node24</title>
<polygon fill="none" stroke="#bfbfbf" points="257.166,-62 257.166,-81 309.166,-81 309.166,-62 257.166,-62"/>
<text text-anchor="middle" x="283.166" y="-69" font-family="Helvetica,sans-Serif" font-size="10.00">memory</text>
</g>
<!-- Node22&#45;&gt;Node24 -->
<g id="edge28" class="edge"><title>Node22&#45;&gt;Node24</title>
<path fill="none" stroke="midnightblue" d="M360.163,-128.734C345.617,-118.111 320.886,-100.049 303.382,-87.2642"/>
<polygon fill="midnightblue" stroke="midnightblue" points="305.119,-84.1988 294.979,-81.1273 300.99,-89.8517 305.119,-84.1988"/>
</g>
<!-- Node25 -->
<g id="node25" class="node"><title>Node25</title>
<polygon fill="none" stroke="#bfbfbf" points="1138.17,-62 1138.17,-81 1190.17,-81 1190.17,-62 1138.17,-62"/>
<text text-anchor="middle" x="1164.17" y="-69" font-family="Helvetica,sans-Serif" font-size="10.00">sstream</text>
</g>
<!-- Node22&#45;&gt;Node25 -->
<g id="edge31" class="edge"><title>Node22&#45;&gt;Node25</title>
<path fill="none" stroke="midnightblue" d="M391.157,-128.984C397.128,-126.654 403.82,-124.39 410.166,-123 445.564,-115.244 981.624,-83.2522 1127.66,-74.6422"/>
<polygon fill="midnightblue" stroke="midnightblue" points="1128.1,-78.1224 1137.88,-74.0405 1127.69,-71.1345 1128.1,-78.1224"/>
</g>
<!-- Node26 -->
<g id="node26" class="node"><title>Node26</title>
<polygon fill="none" stroke="#bfbfbf" points="403.166,-62 403.166,-81 465.166,-81 465.166,-62 403.166,-62"/>
<text text-anchor="middle" x="434.166" y="-69" font-family="Helvetica,sans-Serif" font-size="10.00">type_traits</text>
</g>
<!-- Node22&#45;&gt;Node26 -->
<g id="edge32" class="edge"><title>Node22&#45;&gt;Node26</title>
<path fill="none" stroke="midnightblue" d="M380.528,-128.734C390.289,-118.5 406.634,-101.364 418.721,-88.6924"/>
<polygon fill="midnightblue" stroke="midnightblue" points="421.567,-90.7792 425.937,-81.1273 416.502,-85.9477 421.567,-90.7792"/>
</g>
<!-- Node27 -->
<g id="node27" class="node"><title>Node27</title>
<g id="a_node27"><a xlink:href="color_8hpp.html" target="_top" xlink:title="color.hpp">
<polygon fill="none" stroke="black" points="183.166,-62 183.166,-81 239.166,-81 239.166,-62 183.166,-62"/>
<text text-anchor="middle" x="211.166" y="-69" font-family="Helvetica,sans-Serif" font-size="10.00">color.hpp</text>
</a>
</g>
</g>
<!-- Node22&#45;&gt;Node27 -->
<g id="edge35" class="edge"><title>Node22&#45;&gt;Node27</title>
<path fill="none" stroke="midnightblue" d="M350.786,-128.869C322.802,-117.571 273.575,-97.6961 241.678,-84.8183"/>
<polygon fill="midnightblue" stroke="midnightblue" points="242.961,-81.5619 232.377,-81.0637 240.34,-88.0529 242.961,-81.5619"/>
</g>
<!-- Node27&#45;&gt;Node3 -->
<g id="edge39" class="edge"><title>Node27&#45;&gt;Node3</title>
<path fill="none" stroke="midnightblue" d="M230.031,-61.8795C235.747,-59.6049 242.116,-57.3978 248.166,-56 444.675,-10.5986 689.339,-9.25968 774.362,-10.36"/>
<polygon fill="midnightblue" stroke="midnightblue" points="774.553,-13.8632 784.605,-10.5153 774.659,-6.86403 774.553,-13.8632"/>
</g>
<!-- Node27&#45;&gt;Node4 -->
<g id="edge37" class="edge"><title>Node27&#45;&gt;Node4</title>
<path fill="none" stroke="midnightblue" d="M229.219,-61.9751C250.364,-51.9897 285.606,-35.3476 310.044,-23.8075"/>
<polygon fill="midnightblue" stroke="midnightblue" points="311.599,-26.9441 319.147,-19.5091 308.61,-20.6143 311.599,-26.9441"/>
</g>
<!-- Node27&#45;&gt;Node7 -->
<g id="edge38" class="edge"><title>Node27&#45;&gt;Node7</title>
<path fill="none" stroke="midnightblue" d="M191.537,-61.9751C168.342,-51.9013 129.547,-35.0525 102.953,-23.5023"/>
<polygon fill="midnightblue" stroke="midnightblue" points="104.325,-20.2824 93.7583,-19.5091 101.536,-26.703 104.325,-20.2824"/>
</g>
<!-- Node28 -->
<g id="node28" class="node"><title>Node28</title>
<polygon fill="none" stroke="#bfbfbf" points="188.166,-0.5 188.166,-19.5 234.166,-19.5 234.166,-0.5 188.166,-0.5"/>
<text text-anchor="middle" x="211.166" y="-7.5" font-family="Helvetica,sans-Serif" font-size="10.00">cctype</text>
</g>
<!-- Node27&#45;&gt;Node28 -->
<g id="edge36" class="edge"><title>Node27&#45;&gt;Node28</title>
<path fill="none" stroke="midnightblue" d="M211.166,-61.9751C211.166,-53.5803 211.166,-40.4806 211.166,-29.6631"/>
<polygon fill="midnightblue" stroke="midnightblue" points="214.666,-29.5091 211.166,-19.5091 207.666,-29.5091 214.666,-29.5091"/>
</g>
<!-- Node29&#45;&gt;Node3 -->
<g id="edge46" class="edge"><title>Node29&#45;&gt;Node3</title>
<path fill="none" stroke="midnightblue" d="M1242.74,-251.841C1258.66,-243.428 1280.91,-229.125 1293.17,-210 1330.57,-151.613 1365.01,-107.129 1318.17,-56 1285.51,-20.3488 941.744,-12.817 835.965,-11.3387"/>
<polygon fill="midnightblue" stroke="midnightblue" points="835.976,-7.8386 825.93,-11.2069 835.884,-14.838 835.976,-7.8386"/>
</g>
<!-- Node29&#45;&gt;Node6 -->
<g id="edge47" class="edge"><title>Node29&#45;&gt;Node6</title>
<path fill="none" stroke="midnightblue" d="M1238.27,-251.68C1250.88,-242.879 1268.52,-228.082 1276.17,-210 1292.02,-172.511 1279.48,-124.504 1269.17,-96.2653"/>
<polygon fill="midnightblue" stroke="midnightblue" points="1272.38,-94.8834 1265.52,-86.8118 1265.85,-97.4015 1272.38,-94.8834"/>
</g>
<!-- Node29&#45;&gt;Node13 -->
<g id="edge48" class="edge"><title>Node29&#45;&gt;Node13</title>
<path fill="none" stroke="midnightblue" d="M1183.87,-256.823C1071.56,-246.573 754.84,-217.67 626.846,-205.99"/>
<polygon fill="midnightblue" stroke="midnightblue" points="627.147,-202.503 616.871,-205.08 626.511,-209.474 627.147,-202.503"/>
</g>
<!-- Node29&#45;&gt;Node20 -->
<g id="edge42" class="edge"><title>Node29&#45;&gt;Node20</title>
<path fill="none" stroke="midnightblue" d="M1220.38,-251.943C1215.96,-241.915 1208.45,-224.788 1202.17,-210 1185.81,-171.483 1198.95,-149.002 1166.17,-123 1124.47,-89.9337 965.444,-77.8796 893.677,-74.0598"/>
<polygon fill="midnightblue" stroke="midnightblue" points="893.507,-70.5467 883.342,-73.5349 893.152,-77.5377 893.507,-70.5467"/>
</g>
<!-- Node29&#45;&gt;Node25 -->
<g id="edge45" class="edge"><title>Node29&#45;&gt;Node25</title>
<path fill="none" stroke="midnightblue" d="M1221.92,-251.724C1216.24,-229.805 1200.6,-170.979 1184.17,-123 1180.44,-112.125 1175.73,-100.156 1171.81,-90.6004"/>
<polygon fill="midnightblue" stroke="midnightblue" points="1175.03,-89.2339 1167.96,-81.3454 1168.57,-91.9227 1175.03,-89.2339"/>
</g>
<!-- Node30 -->
<g id="node30" class="node"><title>Node30</title>
<polygon fill="none" stroke="#bfbfbf" points="1366.67,-190.5 1366.67,-209.5 1415.67,-209.5 1415.67,-190.5 1366.67,-190.5"/>
<text text-anchor="middle" x="1391.17" y="-197.5" font-family="Helvetica,sans-Serif" font-size="10.00">istream</text>
</g>
<!-- Node29&#45;&gt;Node30 -->
<g id="edge43" class="edge"><title>Node29&#45;&gt;Node30</title>
<path fill="none" stroke="midnightblue" d="M1248.09,-251.975C1276.86,-241.725 1325.32,-224.459 1357.77,-212.899"/>
<polygon fill="midnightblue" stroke="midnightblue" points="1359.04,-216.162 1367.28,-209.509 1356.69,-209.568 1359.04,-216.162"/>
</g>
<!-- Node31 -->
<g id="node31" class="node"><title>Node31</title>
<polygon fill="none" stroke="#bfbfbf" points="1433.67,-190.5 1433.67,-209.5 1474.67,-209.5 1474.67,-190.5 1433.67,-190.5"/>
<text text-anchor="middle" x="1454.17" y="-197.5" font-family="Helvetica,sans-Serif" font-size="10.00">stack</text>
</g>
<!-- Node29&#45;&gt;Node31 -->
<g id="edge44" class="edge"><title>Node29&#45;&gt;Node31</title>
<path fill="none" stroke="midnightblue" d="M1252.08,-251.959C1258.95,-249.933 1266.31,-247.831 1273.17,-246 1336.83,-229.005 1355.85,-227.981 1423.65,-210.006"/>
<polygon fill="midnightblue" stroke="midnightblue" points="1424.8,-213.322 1433.55,-207.353 1422.99,-206.56 1424.8,-213.322"/>
</g>
<!-- Node32 -->
<g id="node32" class="node"><title>Node32</title>
<g id="a_node32"><a xlink:href="string__functions_8hpp.html" target="_top" xlink:title="string_functions.hpp">
<polygon fill="none" stroke="black" points="1023.17,-190.5 1023.17,-209.5 1127.17,-209.5 1127.17,-190.5 1023.17,-190.5"/>
<text text-anchor="middle" x="1075.17" y="-197.5" font-family="Helvetica,sans-Serif" font-size="10.00">string_functions.hpp</text>
</a>
</g>
</g>
<!-- Node29&#45;&gt;Node32 -->
<g id="edge49" class="edge"><title>Node29&#45;&gt;Node32</title>
<path fill="none" stroke="midnightblue" d="M1202.82,-251.975C1177.48,-241.857 1135.03,-224.905 1106.09,-213.351"/>
<polygon fill="midnightblue" stroke="midnightblue" points="1107.06,-209.967 1096.47,-209.509 1104.46,-216.468 1107.06,-209.967"/>
</g>
<!-- Node32&#45;&gt;Node2 -->
<g id="edge56" class="edge"><title>Node32&#45;&gt;Node2</title>
<path fill="none" stroke="midnightblue" d="M1048.09,-190.475C1015.25,-180.136 959.736,-162.661 923.018,-151.102"/>
<polygon fill="midnightblue" stroke="midnightblue" points="923.784,-147.674 913.195,-148.009 921.682,-154.35 923.784,-147.674"/>
</g>
<!-- Node32&#45;&gt;Node3 -->
<g id="edge54" class="edge"><title>Node32&#45;&gt;Node3</title>
<path fill="none" stroke="midnightblue" d="M1040.29,-190.482C1017.73,-183.589 988.82,-172.015 968.166,-154 930.024,-120.732 948.195,-89.3974 910.166,-56 888.714,-37.1608 858.187,-25.2798 835.574,-18.4885"/>
<polygon fill="midnightblue" stroke="midnightblue" points="836.377,-15.0784 825.802,-15.7196 834.469,-21.8133 836.377,-15.0784"/>
</g>
<!-- Node32&#45;&gt;Node25 -->
<g id="edge53" class="edge"><title>Node32&#45;&gt;Node25</title>
<path fill="none" stroke="midnightblue" d="M1113.13,-190.411C1132.57,-183.883 1154.54,-172.715 1166.17,-154 1177.98,-134.982 1174.43,-108.353 1169.99,-90.7771"/>
<polygon fill="midnightblue" stroke="midnightblue" points="1173.36,-89.8079 1167.25,-81.1529 1166.63,-91.7296 1173.36,-89.8079"/>
</g>
<!-- Node32&#45;&gt;Node26 -->
<g id="edge55" class="edge"><title>Node32&#45;&gt;Node26</title>
<path fill="none" stroke="midnightblue" d="M1022.94,-195.111C944.716,-188.71 801.288,-174.581 754.166,-154 734.192,-145.276 736.103,-131.808 716.166,-123 616.7,-79.0594 579.586,-113.662 474.166,-87 471.183,-86.2455 468.111,-85.3527 465.06,-84.3864"/>
<polygon fill="midnightblue" stroke="midnightblue" points="466.103,-81.0446 455.509,-81.1297 463.844,-87.67 466.103,-81.0446"/>
</g>
<!-- Node33 -->
<g id="node33" class="node"><title>Node33</title>
<polygon fill="none" stroke="#bfbfbf" points="977.166,-129 977.166,-148 1033.17,-148 1033.17,-129 977.166,-129"/>
<text text-anchor="middle" x="1005.17" y="-136" font-family="Helvetica,sans-Serif" font-size="10.00">algorithm</text>
</g>
<!-- Node32&#45;&gt;Node33 -->
<g id="edge50" class="edge"><title>Node32&#45;&gt;Node33</title>
<path fill="none" stroke="midnightblue" d="M1065.14,-190.475C1054.12,-181.108 1036.21,-165.884 1022.82,-154.508"/>
<polygon fill="midnightblue" stroke="midnightblue" points="1025.06,-151.819 1015.18,-148.009 1020.53,-157.152 1025.06,-151.819"/>
</g>
<!-- Node34 -->
<g id="node34" class="node"><title>Node34</title>
<polygon fill="none" stroke="#bfbfbf" points="1051.67,-129 1051.67,-148 1098.67,-148 1098.67,-129 1051.67,-129"/>
<text text-anchor="middle" x="1075.17" y="-136" font-family="Helvetica,sans-Serif" font-size="10.00">iterator</text>
</g>
<!-- Node32&#45;&gt;Node34 -->
<g id="edge51" class="edge"><title>Node32&#45;&gt;Node34</title>
<path fill="none" stroke="midnightblue" d="M1075.17,-190.475C1075.17,-182.08 1075.17,-168.981 1075.17,-158.163"/>
<polygon fill="midnightblue" stroke="midnightblue" points="1078.67,-158.009 1075.17,-148.009 1071.67,-158.009 1078.67,-158.009"/>
</g>
<!-- Node35 -->
<g id="node35" class="node"><title>Node35</title>
<polygon fill="none" stroke="#bfbfbf" points="1116.67,-129 1116.67,-148 1157.67,-148 1157.67,-129 1116.67,-129"/>
<text text-anchor="middle" x="1137.17" y="-136" font-family="Helvetica,sans-Serif" font-size="10.00">regex</text>
</g>
<!-- Node32&#45;&gt;Node35 -->
<g id="edge52" class="edge"><title>Node32&#45;&gt;Node35</title>
<path fill="none" stroke="midnightblue" d="M1084.05,-190.475C1093.63,-181.285 1109.08,-166.456 1120.85,-155.156"/>
<polygon fill="midnightblue" stroke="midnightblue" points="1123.51,-157.458 1128.3,-148.009 1118.66,-152.408 1123.51,-157.458"/>
</g>
</g>
</svg>
        <g id="navigator" transform="translate(0 0)" fill="#404254">
                <rect fill="#f2f5e9" fill-opacity="0.5" stroke="#606060" stroke-width=".5" x="0" y="0" width="60" height="60"/>
                <use id="zoomplus" xlink:href="#zoomPlus" x="17" y="9" onmousedown="handleZoom(evt,'in')"/>
                <use id="zoomminus" xlink:href="#zoomMin" x="42" y="9" onmousedown="handleZoom(evt,'out')"/>
                <use id="reset" xlink:href="#resetDef" x="30" y="36" onmousedown="handleReset()"/>
                <g id="arrowUp" xlink:href="#dirArrow" transform="translate(30 24)" onmousedown="handlePan(0,-1)">
                  <use xlink:href="#rim" fill="#404040">
                        <set attributeName="fill" to="#808080" begin="arrowUp.mouseover" end="arrowUp.mouseout"/>
                  </use>
                  <path fill="none" stroke="white" stroke-width="1.5" d="M0,-3.0v7 M-2.5,-0.5L0,-3.0L2.5,-0.5"/>
                </g>
                <g id="arrowRight" xlink:href="#dirArrow" transform="rotate(90) translate(36 -43)" onmousedown="handlePan(1,0)">
                  <use xlink:href="#rim" fill="#404040">
                        <set attributeName="fill" to="#808080" begin="arrowRight.mouseover" end="arrowRight.mouseout"/>
                  </use>
                  <path fill="none" stroke="white" stroke-width="1.5" d="M0,-3.0v7 M-2.5,-0.5L0,-3.0L2.5,-0.5"/>
                </g>
                <g id="arrowDown" xlink:href="#dirArrow" transform="rotate(180) translate(-30 -48)" onmousedown="handlePan(0,1)">
                  <use xlink:href="#rim" fill="#404040">
                        <set attributeName="fill" to="#808080" begin="arrowDown.mouseover" end="arrowDown.mouseout"/>
                  </use>
                  <path fill="none" stroke="white" stroke-width="1.5" d="M0,-3.0v7 M-2.5,-0.5L0,-3.0L2.5,-0.5"/>
                </g>
                <g id="arrowLeft" xlink:href="#dirArrow" transform="rotate(270) translate(-36 17)" onmousedown="handlePan(-1,0)">
                  <use xlink:href="#rim" fill="#404040">
                        <set attributeName="fill" to="#808080" begin="arrowLeft.mouseover" end="arrowLeft.mouseout"/>
                  </use>
                  <path fill="none" stroke="white" stroke-width="1.5" d="M0,-3.0v7 M-2.5,-0.5L0,-3.0L2.5,-0.5"/>
                </g>
        </g>
        <svg viewBox="0 0 15 15" width="100%" height="30px" preserveAspectRatio="xMaxYMin meet">
         <g id="arrow_out" transform="scale(0.3 0.3)">
          <a xlink:href="settings_8cpp__incl_org.svg" target="_base">
           <rect id="button" ry="5" rx="5" y="6" x="6" height="38" width="38"
                fill="#f2f5e9" fill-opacity="0.5" stroke="#606060" stroke-width="1.0"/>
           <path id="arrow"
             d="M 11.500037,31.436501 C 11.940474,20.09759 22.043105,11.32322 32.158766,21.979434 L 37.068811,17.246167 C 37.068811,17.246167 37.088388,32 37.088388,32 L 22.160133,31.978069 C 22.160133,31.978069 26.997745,27.140456 26.997745,27.140456 C 18.528582,18.264221 13.291696,25.230495 11.500037,31.436501 z"
             style="fill:#404040;"/>
          </a>
         </g>
        </svg>
</svg>
