<?xml version="1.0" encoding="UTF-8" standalone="no"?>
<!DOCTYPE svg PUBLIC "-//W3C//DTD SVG 1.1//EN"
 "http://www.w3.org/Graphics/SVG/1.1/DTD/svg11.dtd">
<!-- Generated by graphviz version 2.38.0 (20140413.2041)
 -->
<!-- Title: src/network/connection.hpp Pages: 1 -->
<!--zoomable 386 -->
<svg id="main" version="1.1" xmlns="http://www.w3.org/2000/svg" xmlns:xlink="http://www.w3.org/1999/xlink" xml:space="preserve" onload="init(evt)">
<style type="text/css"><![CDATA[
.edge:hover path { stroke: red; }
.edge:hover polygon { stroke: red; fill: red; }
]]></style>
<script type="text/javascript"><![CDATA[
var edges = document.getElementsByTagName('g');
if (edges && edges.length) {
  for (var i=0;i<edges.length;i++) {
    if (edges[i].id.substr(0,4)=='edge') {
      edges[i].setAttribute('class','edge');
    }
  }
}
]]></script>
        <defs>
                <circle id="rim" cx="0" cy="0" r="7"/>
                <circle id="rim2" cx="0" cy="0" r="3.5"/>
                <g id="zoomPlus">
                        <use xlink:href="#rim" fill="#404040">
                                <set attributeName="fill" to="#808080" begin="zoomplus.mouseover" end="zoomplus.mouseout"/>
                        </use>
                        <path d="M-4,0h8M0,-4v8" fill="none" stroke="white" stroke-width="1.5" pointer-events="none"/>
                </g>
                <g id="zoomMin">
                        <use xlink:href="#rim" fill="#404040">
                                <set attributeName="fill" to="#808080" begin="zoomminus.mouseover" end="zoomminus.mouseout"/>
                        </use>
                        <path d="M-4,0h8" fill="none" stroke="white" stroke-width="1.5" pointer-events="none"/>
                </g>
                <g id="dirArrow">
                        <path fill="none" stroke="white" stroke-width="1.5" d="M0,-3.0v7 M-2.5,-0.5L0,-3.0L2.5,-0.5"/>
                </g>
               <g id="resetDef">
                       <use xlink:href="#rim2" fill="#404040">
                               <set attributeName="fill" to="#808080" begin="reset.mouseover" end="reset.mouseout"/>
                       </use>
               </g>
        </defs>

<script type="text/javascript">
var viewWidth = 1327;
var viewHeight = 386;
var sectionId = 'dynsection-0';
</script>
<script xlink:href="svgpan.js"/>
<svg id="graph" class="graph">
<g id="viewport">
<title>src/network/connection.hpp</title>
<!-- Node1 -->
<g id="node1" class="node"><title>Node1</title>
<polygon fill="#bfbfbf" stroke="black" points="708.5,-358.5 708.5,-377.5 845.5,-377.5 845.5,-358.5 708.5,-358.5"/>
<text text-anchor="middle" x="777" y="-365.5" font-family="Helvetica,sans-Serif" font-size="10.00">src/network/connection.hpp</text>
</g>
<!-- Node2 -->
<g id="node2" class="node"><title>Node2</title>
<polygon fill="none" stroke="#bfbfbf" points="0,-302.5 0,-321.5 46,-321.5 46,-302.5 0,-302.5"/>
<text text-anchor="middle" x="23" y="-309.5" font-family="Helvetica,sans-Serif" font-size="10.00">atomic</text>
</g>
<!-- Node1&#45;&gt;Node2 -->
<g id="edge1" class="edge"><title>Node1&#45;&gt;Node2</title>
<path fill="none" stroke="midnightblue" d="M708.36,-366.696C580.208,-365.243 296.142,-357.845 60,-322 58.75,-321.81 57.4802,-321.599 56.2007,-321.369"/>
<polygon fill="midnightblue" stroke="midnightblue" points="56.8651,-317.933 46.3642,-319.341 55.4511,-324.789 56.8651,-317.933"/>
</g>
<!-- Node3 -->
<g id="node3" class="node"><title>Node3</title>
<polygon fill="none" stroke="#bfbfbf" points="257,-62 257,-81 303,-81 303,-62 257,-62"/>
<text text-anchor="middle" x="280" y="-69" font-family="Helvetica,sans-Serif" font-size="10.00">cstdint</text>
</g>
<!-- Node1&#45;&gt;Node3 -->
<g id="edge2" class="edge"><title>Node1&#45;&gt;Node3</title>
<path fill="none" stroke="midnightblue" d="M708.313,-363.406C531.42,-353.236 74,-320.774 74,-257 74,-257 74,-257 74,-193.5 74,-161.049 70.0594,-145.952 93,-123 134.114,-81.8652 205.022,-73.2613 246.705,-72.0082"/>
<polygon fill="midnightblue" stroke="midnightblue" points="246.949,-75.5046 256.887,-71.8315 246.828,-68.5057 246.949,-75.5046"/>
</g>
<!-- Node4 -->
<g id="node4" class="node"><title>Node4</title>
<g id="a_node4"><a xlink:href="logger_8hpp.html" target="_top" xlink:title="string/logger.hpp">
<polygon fill="none" stroke="black" points="542.5,-246.5 542.5,-265.5 631.5,-265.5 631.5,-246.5 542.5,-246.5"/>
<text text-anchor="middle" x="587" y="-253.5" font-family="Helvetica,sans-Serif" font-size="10.00">string/logger.hpp</text>
</a>
</g>
</g>
<!-- Node1&#45;&gt;Node4 -->
<g id="edge3" class="edge"><title>Node1&#45;&gt;Node4</title>
<path fill="none" stroke="midnightblue" d="M762.091,-358.368C729.209,-339.332 650.245,-293.615 610.578,-270.65"/>
<polygon fill="midnightblue" stroke="midnightblue" points="612.248,-267.573 601.84,-265.591 608.74,-273.631 612.248,-267.573"/>
</g>
<!-- Node24 -->
<g id="node24" class="node"><title>Node24</title>
<g id="a_node24"><a xlink:href="string__functions_8hpp.html" target="_top" xlink:title="string/string_functions.hpp">
<polygon fill="none" stroke="black" points="1114.5,-185 1114.5,-204 1245.5,-204 1245.5,-185 1114.5,-185"/>
<text text-anchor="middle" x="1180" y="-192" font-family="Helvetica,sans-Serif" font-size="10.00">string/string_functions.hpp</text>
</a>
</g>
</g>
<!-- Node1&#45;&gt;Node24 -->
<g id="edge35" class="edge"><title>Node1&#45;&gt;Node24</title>
<path fill="none" stroke="midnightblue" d="M845.714,-362.592C894.901,-357.433 961.743,-346.245 1016,-322 1077.85,-294.361 1137.49,-238.889 1164.67,-211.521"/>
<polygon fill="midnightblue" stroke="midnightblue" points="1167.25,-213.888 1171.74,-204.292 1162.25,-208.993 1167.25,-213.888"/>
</g>
<!-- Node28 -->
<g id="node28" class="node"><title>Node28</title>
<g id="a_node28"><a xlink:href="auth__system_8hpp.html" target="_top" xlink:title="user/auth_system.hpp">
<polygon fill="none" stroke="black" points="893.5,-302.5 893.5,-321.5 1006.5,-321.5 1006.5,-302.5 893.5,-302.5"/>
<text text-anchor="middle" x="950" y="-309.5" font-family="Helvetica,sans-Serif" font-size="10.00">user/auth_system.hpp</text>
</a>
</g>
</g>
<!-- Node1&#45;&gt;Node28 -->
<g id="edge43" class="edge"><title>Node1&#45;&gt;Node28</title>
<path fill="none" stroke="midnightblue" d="M804.412,-358.444C833.769,-349.28 880.519,-334.688 913.096,-324.519"/>
<polygon fill="midnightblue" stroke="midnightblue" points="914.213,-327.837 922.716,-321.516 912.127,-321.155 914.213,-327.837"/>
</g>
<!-- Node31 -->
<g id="node31" class="node"><title>Node31</title>
<g id="a_node31"><a xlink:href="user__manager_8hpp.html" target="_top" xlink:title="user/user_manager.hpp">
<polygon fill="none" stroke="black" points="717.5,-302.5 717.5,-321.5 836.5,-321.5 836.5,-302.5 717.5,-302.5"/>
<text text-anchor="middle" x="777" y="-309.5" font-family="Helvetica,sans-Serif" font-size="10.00">user/user_manager.hpp</text>
</a>
</g>
</g>
<!-- Node1&#45;&gt;Node31 -->
<g id="edge52" class="edge"><title>Node1&#45;&gt;Node31</title>
<path fill="none" stroke="midnightblue" d="M777,-358.083C777,-351.006 777,-340.861 777,-331.986"/>
<polygon fill="midnightblue" stroke="midnightblue" points="780.5,-331.751 777,-321.751 773.5,-331.751 780.5,-331.751"/>
</g>
<!-- Node33 -->
<g id="node33" class="node"><title>Node33</title>
<g id="a_node33"><a xlink:href="network_8hpp.html" target="_top" xlink:title="network.hpp">
<polygon fill="none" stroke="black" points="1010,-246.5 1010,-265.5 1080,-265.5 1080,-246.5 1010,-246.5"/>
<text text-anchor="middle" x="1045" y="-253.5" font-family="Helvetica,sans-Serif" font-size="10.00">network.hpp</text>
</a>
</g>
</g>
<!-- Node1&#45;&gt;Node33 -->
<g id="edge55" class="edge"><title>Node1&#45;&gt;Node33</title>
<path fill="none" stroke="midnightblue" d="M790.259,-358.407C814.608,-342.73 865.716,-310.335 885,-302 922.285,-285.885 966.943,-273.886 999.592,-266.349"/>
<polygon fill="midnightblue" stroke="midnightblue" points="1000.76,-269.674 1009.75,-264.059 999.221,-262.845 1000.76,-269.674"/>
</g>
<!-- Node5 -->
<g id="node5" class="node"><title>Node5</title>
<polygon fill="none" stroke="#bfbfbf" points="751,-185 751,-204 801,-204 801,-185 751,-185"/>
<text text-anchor="middle" x="776" y="-192" font-family="Helvetica,sans-Serif" font-size="10.00">iomanip</text>
</g>
<!-- Node4&#45;&gt;Node5 -->
<g id="edge4" class="edge"><title>Node4&#45;&gt;Node5</title>
<path fill="none" stroke="midnightblue" d="M620.63,-246.492C652.28,-238.19 700.831,-224.694 742,-210 743.858,-209.337 745.761,-208.623 747.67,-207.882"/>
<polygon fill="midnightblue" stroke="midnightblue" points="749.16,-211.054 757.099,-204.038 746.517,-204.572 749.16,-211.054"/>
</g>
<!-- Node6 -->
<g id="node6" class="node"><title>Node6</title>
<polygon fill="none" stroke="#bfbfbf" points="102,-123.5 102,-142.5 156,-142.5 156,-123.5 102,-123.5"/>
<text text-anchor="middle" x="129" y="-130.5" font-family="Helvetica,sans-Serif" font-size="10.00">iostream</text>
</g>
<!-- Node4&#45;&gt;Node6 -->
<g id="edge5" class="edge"><title>Node4&#45;&gt;Node6</title>
<path fill="none" stroke="midnightblue" d="M542.38,-251.971C484.367,-247.167 380.371,-235.581 295,-210 242.169,-194.17 184.467,-164.749 152.923,-147.525"/>
<polygon fill="midnightblue" stroke="midnightblue" points="154.453,-144.372 144.007,-142.6 151.068,-150.499 154.453,-144.372"/>
</g>
<!-- Node7 -->
<g id="node7" class="node"><title>Node7</title>
<polygon fill="none" stroke="#bfbfbf" points="565,-185 565,-204 609,-204 609,-185 565,-185"/>
<text text-anchor="middle" x="587" y="-192" font-family="Helvetica,sans-Serif" font-size="10.00">mutex</text>
</g>
<!-- Node4&#45;&gt;Node7 -->
<g id="edge6" class="edge"><title>Node4&#45;&gt;Node7</title>
<path fill="none" stroke="midnightblue" d="M587,-246.475C587,-238.08 587,-224.981 587,-214.163"/>
<polygon fill="midnightblue" stroke="midnightblue" points="590.5,-214.009 587,-204.009 583.5,-214.009 590.5,-214.009"/>
</g>
<!-- Node8 -->
<g id="node8" class="node"><title>Node8</title>
<polygon fill="none" stroke="#bfbfbf" points="654.5,-123.5 654.5,-142.5 713.5,-142.5 713.5,-123.5 654.5,-123.5"/>
<text text-anchor="middle" x="684" y="-130.5" font-family="Helvetica,sans-Serif" font-size="10.00">stdexcept</text>
</g>
<!-- Node4&#45;&gt;Node8 -->
<g id="edge7" class="edge"><title>Node4&#45;&gt;Node8</title>
<path fill="none" stroke="midnightblue" d="M578.322,-246.389C564.491,-231.6 540.514,-200.86 556,-179 566.489,-164.194 610.711,-150.911 644.266,-142.68"/>
<polygon fill="midnightblue" stroke="midnightblue" points="645.372,-146.015 654.288,-140.292 643.749,-139.205 645.372,-146.015"/>
</g>
<!-- Node9 -->
<g id="node9" class="node"><title>Node9</title>
<polygon fill="none" stroke="#bfbfbf" points="567.5,-62 567.5,-81 608.5,-81 608.5,-62 567.5,-62"/>
<text text-anchor="middle" x="588" y="-69" font-family="Helvetica,sans-Serif" font-size="10.00">string</text>
</g>
<!-- Node4&#45;&gt;Node9 -->
<g id="edge8" class="edge"><title>Node4&#45;&gt;Node9</title>
<path fill="none" stroke="midnightblue" d="M542.312,-252.419C509.744,-248.188 466.8,-237.361 440,-210 412.306,-181.725 397.41,-154.779 421,-123 437.304,-101.037 513.724,-84.9284 557.322,-77.3453"/>
<polygon fill="midnightblue" stroke="midnightblue" points="558.107,-80.7623 567.384,-75.6449 556.941,-73.8601 558.107,-80.7623"/>
</g>
<!-- Node10 -->
<g id="node10" class="node"><title>Node10</title>
<polygon fill="none" stroke="#bfbfbf" points="911.5,-62 911.5,-81 994.5,-81 994.5,-62 911.5,-62"/>
<text text-anchor="middle" x="953" y="-69" font-family="Helvetica,sans-Serif" font-size="10.00">unordered_map</text>
</g>
<!-- Node4&#45;&gt;Node10 -->
<g id="edge9" class="edge"><title>Node4&#45;&gt;Node10</title>
<path fill="none" stroke="midnightblue" d="M631.57,-253.453C717.378,-249.852 902.002,-238.902 958,-210 999.964,-188.341 1039.92,-165.34 1019,-123 1011.08,-106.977 995.377,-94.6369 981.272,-86.1668"/>
<polygon fill="midnightblue" stroke="midnightblue" points="982.767,-82.9925 972.331,-81.1598 979.346,-89.0999 982.767,-82.9925"/>
</g>
<!-- Node11 -->
<g id="node11" class="node"><title>Node11</title>
<polygon fill="none" stroke="#bfbfbf" points="627.5,-179.5 627.5,-209.5 732.5,-209.5 732.5,-179.5 627.5,-179.5"/>
<text text-anchor="start" x="635.5" y="-197.5" font-family="Helvetica,sans-Serif" font-size="10.00">boost/chrono/io/time</text>
<text text-anchor="middle" x="680" y="-186.5" font-family="Helvetica,sans-Serif" font-size="10.00">_point_io.hpp</text>
</g>
<!-- Node4&#45;&gt;Node11 -->
<g id="edge10" class="edge"><title>Node4&#45;&gt;Node11</title>
<path fill="none" stroke="midnightblue" d="M600.325,-246.475C613.038,-238.341 632.655,-225.791 649.242,-215.179"/>
<polygon fill="midnightblue" stroke="midnightblue" points="651.544,-217.861 658.082,-209.523 647.772,-211.964 651.544,-217.861"/>
</g>
<!-- Node12 -->
<g id="node12" class="node"><title>Node12</title>
<g id="a_node12"><a xlink:href="multibuf_8hpp.html" target="_top" xlink:title="multibuf.hpp">
<polygon fill="none" stroke="black" points="304,-185 304,-204 374,-204 374,-185 304,-185"/>
<text text-anchor="middle" x="339" y="-192" font-family="Helvetica,sans-Serif" font-size="10.00">multibuf.hpp</text>
</a>
</g>
</g>
<!-- Node4&#45;&gt;Node12 -->
<g id="edge11" class="edge"><title>Node4&#45;&gt;Node12</title>
<path fill="none" stroke="midnightblue" d="M545.648,-246.473C505.265,-237.952 442.155,-224.12 388,-210 384.197,-209.009 380.243,-207.926 376.305,-206.814"/>
<polygon fill="midnightblue" stroke="midnightblue" points="377.218,-203.434 366.64,-204.022 375.276,-210.16 377.218,-203.434"/>
</g>
<!-- Node15 -->
<g id="node15" class="node"><title>Node15</title>
<g id="a_node15"><a xlink:href="string_8hpp.html" target="_top" xlink:title="string.hpp">
<polygon fill="none" stroke="black" points="449.5,-185 449.5,-204 508.5,-204 508.5,-185 449.5,-185"/>
<text text-anchor="middle" x="479" y="-192" font-family="Helvetica,sans-Serif" font-size="10.00">string.hpp</text>
</a>
</g>
</g>
<!-- Node4&#45;&gt;Node15 -->
<g id="edge16" class="edge"><title>Node4&#45;&gt;Node15</title>
<path fill="none" stroke="midnightblue" d="M571.526,-246.475C553.722,-236.666 524.259,-220.435 503.368,-208.925"/>
<polygon fill="midnightblue" stroke="midnightblue" points="504.893,-205.769 494.445,-204.009 501.515,-211.9 504.893,-205.769"/>
</g>
<!-- Node22 -->
<g id="node22" class="node"><title>Node22</title>
<g id="a_node22"><a xlink:href="settings_8hpp.html" target="_top" xlink:title="settings.hpp">
<polygon fill="none" stroke="black" points="832,-123.5 832,-142.5 902,-142.5 902,-123.5 832,-123.5"/>
<text text-anchor="middle" x="867" y="-130.5" font-family="Helvetica,sans-Serif" font-size="10.00">settings.hpp</text>
</a>
</g>
</g>
<!-- Node4&#45;&gt;Node22 -->
<g id="edge30" class="edge"><title>Node4&#45;&gt;Node22</title>
<path fill="none" stroke="midnightblue" d="M631.918,-255.124C679.58,-253.271 755.398,-244.477 810,-210 832.383,-195.867 849.105,-169.582 858.466,-151.938"/>
<polygon fill="midnightblue" stroke="midnightblue" points="861.744,-153.211 863.114,-142.705 855.491,-150.063 861.744,-153.211"/>
</g>
<!-- Node12&#45;&gt;Node6 -->
<g id="edge12" class="edge"><title>Node12&#45;&gt;Node6</title>
<path fill="none" stroke="midnightblue" d="M308.912,-184.975C271.169,-174.281 206.48,-155.953 165.821,-144.433"/>
<polygon fill="midnightblue" stroke="midnightblue" points="166.608,-141.018 156.032,-141.659 164.699,-147.753 166.608,-141.018"/>
</g>
<!-- Node12&#45;&gt;Node9 -->
<g id="edge15" class="edge"><title>Node12&#45;&gt;Node9</title>
<path fill="none" stroke="midnightblue" d="M342.658,-184.595C349.333,-169.493 364.957,-138.947 388,-123 415.366,-104.061 508.418,-86.0033 557.351,-77.5301"/>
<polygon fill="midnightblue" stroke="midnightblue" points="558.097,-80.9536 567.367,-75.8232 556.921,-74.053 558.097,-80.9536"/>
</g>
<!-- Node13 -->
<g id="node13" class="node"><title>Node13</title>
<polygon fill="none" stroke="#bfbfbf" points="174,-123.5 174,-142.5 224,-142.5 224,-123.5 174,-123.5"/>
<text text-anchor="middle" x="199" y="-130.5" font-family="Helvetica,sans-Serif" font-size="10.00">fstream</text>
</g>
<!-- Node12&#45;&gt;Node13 -->
<g id="edge13" class="edge"><title>Node12&#45;&gt;Node13</title>
<path fill="none" stroke="midnightblue" d="M318.941,-184.975C295.238,-174.901 255.594,-158.053 228.417,-146.502"/>
<polygon fill="midnightblue" stroke="midnightblue" points="229.594,-143.199 219.021,-142.509 226.856,-149.642 229.594,-143.199"/>
</g>
<!-- Node14 -->
<g id="node14" class="node"><title>Node14</title>
<polygon fill="none" stroke="#bfbfbf" points="732,-123.5 732,-142.5 776,-142.5 776,-123.5 732,-123.5"/>
<text text-anchor="middle" x="754" y="-130.5" font-family="Helvetica,sans-Serif" font-size="10.00">vector</text>
</g>
<!-- Node12&#45;&gt;Node14 -->
<g id="edge14" class="edge"><title>Node12&#45;&gt;Node14</title>
<path fill="none" stroke="midnightblue" d="M374.037,-188.329C393.462,-185.497 418.057,-181.971 440,-179 562.455,-162.422 597.106,-168.426 721.82,-142.964"/>
<polygon fill="midnightblue" stroke="midnightblue" points="722.67,-146.363 731.753,-140.909 721.252,-139.508 722.67,-146.363"/>
</g>
<!-- Node15&#45;&gt;Node3 -->
<g id="edge17" class="edge"><title>Node15&#45;&gt;Node3</title>
<path fill="none" stroke="midnightblue" d="M449.423,-188.391C394.676,-178.64 282.082,-157.095 271,-143 259.474,-128.341 264.693,-106.421 270.903,-90.9209"/>
<polygon fill="midnightblue" stroke="midnightblue" points="274.281,-91.9417 275.167,-81.384 267.89,-89.0844 274.281,-91.9417"/>
</g>
<!-- Node15&#45;&gt;Node8 -->
<g id="edge20" class="edge"><title>Node15&#45;&gt;Node8</title>
<path fill="none" stroke="midnightblue" d="M504.53,-184.867C510.569,-182.886 516.998,-180.827 523,-179 564.088,-166.495 611.473,-153.41 644.144,-144.595"/>
<polygon fill="midnightblue" stroke="midnightblue" points="645.46,-147.865 654.208,-141.889 643.642,-141.105 645.46,-147.865"/>
</g>
<!-- Node15&#45;&gt;Node9 -->
<g id="edge21" class="edge"><title>Node15&#45;&gt;Node9</title>
<path fill="none" stroke="midnightblue" d="M505.671,-184.975C525.92,-177.166 552.934,-163.643 569,-143 580.54,-128.173 585.086,-106.882 586.869,-91.5826"/>
<polygon fill="midnightblue" stroke="midnightblue" points="590.387,-91.522 587.763,-81.2572 583.413,-90.9178 590.387,-91.522"/>
</g>
<!-- Node15&#45;&gt;Node10 -->
<g id="edge23" class="edge"><title>Node15&#45;&gt;Node10</title>
<path fill="none" stroke="midnightblue" d="M497.604,-184.92C534.59,-167.984 616.346,-131.185 646,-123 757.18,-92.312 790.214,-111.124 903,-87 907.394,-86.0601 911.968,-84.9384 916.485,-83.7409"/>
<polygon fill="midnightblue" stroke="midnightblue" points="917.497,-87.0923 926.192,-81.0395 915.62,-80.3485 917.497,-87.0923"/>
</g>
<!-- Node15&#45;&gt;Node14 -->
<g id="edge24" class="edge"><title>Node15&#45;&gt;Node14</title>
<path fill="none" stroke="midnightblue" d="M508.697,-187.657C560.896,-177.341 667.965,-155.958 721.701,-143.142"/>
<polygon fill="midnightblue" stroke="midnightblue" points="722.821,-146.472 731.706,-140.699 721.161,-139.672 722.821,-146.472"/>
</g>
<!-- Node16 -->
<g id="node16" class="node"><title>Node16</title>
<polygon fill="none" stroke="#bfbfbf" points="430.5,-123.5 430.5,-142.5 489.5,-142.5 489.5,-123.5 430.5,-123.5"/>
<text text-anchor="middle" x="460" y="-130.5" font-family="Helvetica,sans-Serif" font-size="10.00">functional</text>
</g>
<!-- Node15&#45;&gt;Node16 -->
<g id="edge18" class="edge"><title>Node15&#45;&gt;Node16</title>
<path fill="none" stroke="midnightblue" d="M476.278,-184.975C473.569,-176.492 469.326,-163.204 465.851,-152.322"/>
<polygon fill="midnightblue" stroke="midnightblue" points="469.093,-150.97 462.717,-142.509 462.425,-153.1 469.093,-150.97"/>
</g>
<!-- Node17 -->
<g id="node17" class="node"><title>Node17</title>
<polygon fill="none" stroke="#bfbfbf" points="508,-123.5 508,-142.5 560,-142.5 560,-123.5 508,-123.5"/>
<text text-anchor="middle" x="534" y="-130.5" font-family="Helvetica,sans-Serif" font-size="10.00">memory</text>
</g>
<!-- Node15&#45;&gt;Node17 -->
<g id="edge19" class="edge"><title>Node15&#45;&gt;Node17</title>
<path fill="none" stroke="midnightblue" d="M486.88,-184.975C495.294,-175.873 508.819,-161.241 519.226,-149.983"/>
<polygon fill="midnightblue" stroke="midnightblue" points="521.917,-152.228 526.134,-142.509 516.776,-147.477 521.917,-152.228"/>
</g>
<!-- Node18 -->
<g id="node18" class="node"><title>Node18</title>
<polygon fill="none" stroke="#bfbfbf" points="958,-123.5 958,-142.5 1010,-142.5 1010,-123.5 958,-123.5"/>
<text text-anchor="middle" x="984" y="-130.5" font-family="Helvetica,sans-Serif" font-size="10.00">sstream</text>
</g>
<!-- Node15&#45;&gt;Node18 -->
<g id="edge22" class="edge"><title>Node15&#45;&gt;Node18</title>
<path fill="none" stroke="midnightblue" d="M508.519,-187.332C522.811,-184.502 540.248,-181.278 556,-179 712.955,-156.305 753.404,-160.703 911,-143 922.853,-141.668 935.775,-140.11 947.408,-138.669"/>
<polygon fill="midnightblue" stroke="midnightblue" points="948.172,-142.1 957.661,-137.387 947.304,-135.154 948.172,-142.1"/>
</g>
<!-- Node19 -->
<g id="node19" class="node"><title>Node19</title>
<g id="a_node19"><a xlink:href="color_8hpp.html" target="_top" xlink:title="color.hpp">
<polygon fill="none" stroke="black" points="280,-123.5 280,-142.5 336,-142.5 336,-123.5 280,-123.5"/>
<text text-anchor="middle" x="308" y="-130.5" font-family="Helvetica,sans-Serif" font-size="10.00">color.hpp</text>
</a>
</g>
</g>
<!-- Node15&#45;&gt;Node19 -->
<g id="edge25" class="edge"><title>Node15&#45;&gt;Node19</title>
<path fill="none" stroke="midnightblue" d="M454.5,-184.975C425.04,-174.725 375.421,-157.459 342.198,-145.899"/>
<polygon fill="midnightblue" stroke="midnightblue" points="343.05,-142.49 332.455,-142.509 340.749,-149.101 343.05,-142.49"/>
</g>
<!-- Node19&#45;&gt;Node3 -->
<g id="edge26" class="edge"><title>Node19&#45;&gt;Node3</title>
<path fill="none" stroke="midnightblue" d="M303.988,-123.475C299.913,-114.815 293.482,-101.149 288.304,-90.1453"/>
<polygon fill="midnightblue" stroke="midnightblue" points="291.429,-88.567 284.004,-81.0091 285.095,-91.5476 291.429,-88.567"/>
</g>
<!-- Node19&#45;&gt;Node9 -->
<g id="edge27" class="edge"><title>Node19&#45;&gt;Node9</title>
<path fill="none" stroke="midnightblue" d="M336.012,-125.989C340.683,-124.989 345.478,-123.964 350,-123 424.386,-107.138 511.877,-88.6058 557.236,-79.0071"/>
<polygon fill="midnightblue" stroke="midnightblue" points="558.245,-82.371 567.304,-76.8767 556.796,-75.5227 558.245,-82.371"/>
</g>
<!-- Node20 -->
<g id="node20" class="node"><title>Node20</title>
<g id="a_node20"><a xlink:href="math_8hpp.html" target="_top" xlink:title="math.hpp">
<polygon fill="none" stroke="black" points="421.5,-62 421.5,-81 478.5,-81 478.5,-62 421.5,-62"/>
<text text-anchor="middle" x="450" y="-69" font-family="Helvetica,sans-Serif" font-size="10.00">math.hpp</text>
</a>
</g>
</g>
<!-- Node19&#45;&gt;Node20 -->
<g id="edge28" class="edge"><title>Node19&#45;&gt;Node20</title>
<path fill="none" stroke="midnightblue" d="M328.345,-123.475C352.387,-113.401 392.597,-96.5525 420.163,-85.0023"/>
<polygon fill="midnightblue" stroke="midnightblue" points="421.822,-88.1018 429.693,-81.0091 419.117,-81.6457 421.822,-88.1018"/>
</g>
<!-- Node21 -->
<g id="node21" class="node"><title>Node21</title>
<polygon fill="none" stroke="#bfbfbf" points="875,-0.5 875,-19.5 931,-19.5 931,-0.5 875,-0.5"/>
<text text-anchor="middle" x="903" y="-7.5" font-family="Helvetica,sans-Serif" font-size="10.00">algorithm</text>
</g>
<!-- Node20&#45;&gt;Node21 -->
<g id="edge29" class="edge"><title>Node20&#45;&gt;Node21</title>
<path fill="none" stroke="midnightblue" d="M478.875,-66.5933C500.625,-63.6579 531.181,-59.5494 558,-56 669.461,-41.2485 801.228,-24.1583 864.846,-15.929"/>
<polygon fill="midnightblue" stroke="midnightblue" points="865.353,-19.3927 874.822,-14.639 864.455,-12.4505 865.353,-19.3927"/>
</g>
<!-- Node22&#45;&gt;Node3 -->
<g id="edge32" class="edge"><title>Node22&#45;&gt;Node3</title>
<path fill="none" stroke="midnightblue" d="M831.896,-128.045C817.384,-126.436 800.386,-124.587 785,-123 619.331,-105.914 577.669,-104.093 412,-87 378.393,-83.5325 340.006,-79.2833 313.325,-76.2837"/>
<polygon fill="midnightblue" stroke="midnightblue" points="313.687,-72.8023 303.357,-75.16 312.902,-79.7583 313.687,-72.8023"/>
</g>
<!-- Node22&#45;&gt;Node9 -->
<g id="edge31" class="edge"><title>Node22&#45;&gt;Node9</title>
<path fill="none" stroke="midnightblue" d="M831.947,-124.525C776.904,-112.786 671.1,-90.222 618.807,-79.0699"/>
<polygon fill="midnightblue" stroke="midnightblue" points="619.305,-75.5975 608.795,-76.9347 617.845,-82.4436 619.305,-75.5975"/>
</g>
<!-- Node22&#45;&gt;Node10 -->
<g id="edge33" class="edge"><title>Node22&#45;&gt;Node10</title>
<path fill="none" stroke="midnightblue" d="M879.322,-123.475C893.116,-113.931 915.699,-98.3073 932.232,-86.8683"/>
<polygon fill="midnightblue" stroke="midnightblue" points="934.469,-89.577 940.701,-81.0091 930.486,-83.8205 934.469,-89.577"/>
</g>
<!-- Node23 -->
<g id="node23" class="node"><title>Node23</title>
<polygon fill="none" stroke="#bfbfbf" points="792.5,-56.5 792.5,-86.5 893.5,-86.5 893.5,-56.5 792.5,-56.5"/>
<text text-anchor="start" x="800.5" y="-74.5" font-family="Helvetica,sans-Serif" font-size="10.00">boost/property_tree</text>
<text text-anchor="middle" x="843" y="-63.5" font-family="Helvetica,sans-Serif" font-size="10.00">/ptree.hpp</text>
</g>
<!-- Node22&#45;&gt;Node23 -->
<g id="edge34" class="edge"><title>Node22&#45;&gt;Node23</title>
<path fill="none" stroke="midnightblue" d="M863.561,-123.475C860.675,-116.32 856.411,-105.748 852.513,-96.0841"/>
<polygon fill="midnightblue" stroke="midnightblue" points="855.643,-94.4877 848.656,-86.523 849.151,-97.1062 855.643,-94.4877"/>
</g>
<!-- Node24&#45;&gt;Node9 -->
<g id="edge40" class="edge"><title>Node24&#45;&gt;Node9</title>
<path fill="none" stroke="midnightblue" d="M1164.57,-184.883C1136.54,-169.655 1074.96,-138.167 1019,-123 943.079,-102.422 704.243,-81.814 618.787,-74.9168"/>
<polygon fill="midnightblue" stroke="midnightblue" points="618.936,-71.4176 608.688,-74.1081 618.377,-78.3953 618.936,-71.4176"/>
</g>
<!-- Node24&#45;&gt;Node18 -->
<g id="edge39" class="edge"><title>Node24&#45;&gt;Node18</title>
<path fill="none" stroke="midnightblue" d="M1151.92,-184.975C1117.13,-174.415 1057.82,-156.41 1019.8,-144.868"/>
<polygon fill="midnightblue" stroke="midnightblue" points="1020.74,-141.494 1010.15,-141.939 1018.7,-148.193 1020.74,-141.494"/>
</g>
<!-- Node24&#45;&gt;Node21 -->
<g id="edge36" class="edge"><title>Node24&#45;&gt;Node21</title>
<path fill="none" stroke="midnightblue" d="M1224.62,-184.971C1267.94,-174.643 1323.92,-154.596 1300,-123 1256.14,-65.0528 1032.28,-28.5894 941.41,-15.9681"/>
<polygon fill="midnightblue" stroke="midnightblue" points="941.643,-12.4675 931.261,-14.5812 940.695,-19.403 941.643,-12.4675"/>
</g>
<!-- Node24&#45;&gt;Node22 -->
<g id="edge42" class="edge"><title>Node24&#45;&gt;Node22</title>
<path fill="none" stroke="midnightblue" d="M1135.99,-184.959C1125.81,-182.994 1115.03,-180.918 1105,-179 1037.85,-166.161 960.007,-151.481 912.131,-142.476"/>
<polygon fill="midnightblue" stroke="midnightblue" points="912.567,-138.997 902.092,-140.588 911.273,-145.876 912.567,-138.997"/>
</g>
<!-- Node25 -->
<g id="node25" class="node"><title>Node25</title>
<polygon fill="none" stroke="#bfbfbf" points="1104.5,-123.5 1104.5,-142.5 1151.5,-142.5 1151.5,-123.5 1104.5,-123.5"/>
<text text-anchor="middle" x="1128" y="-130.5" font-family="Helvetica,sans-Serif" font-size="10.00">iterator</text>
</g>
<!-- Node24&#45;&gt;Node25 -->
<g id="edge37" class="edge"><title>Node24&#45;&gt;Node25</title>
<path fill="none" stroke="midnightblue" d="M1172.55,-184.975C1164.67,-175.962 1152.06,-161.525 1142.26,-150.312"/>
<polygon fill="midnightblue" stroke="midnightblue" points="1144.65,-147.736 1135.44,-142.509 1139.38,-152.342 1144.65,-147.736"/>
</g>
<!-- Node26 -->
<g id="node26" class="node"><title>Node26</title>
<polygon fill="none" stroke="#bfbfbf" points="1169.5,-123.5 1169.5,-142.5 1210.5,-142.5 1210.5,-123.5 1169.5,-123.5"/>
<text text-anchor="middle" x="1190" y="-130.5" font-family="Helvetica,sans-Serif" font-size="10.00">regex</text>
</g>
<!-- Node24&#45;&gt;Node26 -->
<g id="edge38" class="edge"><title>Node24&#45;&gt;Node26</title>
<path fill="none" stroke="midnightblue" d="M1181.43,-184.975C1182.84,-176.58 1185.05,-163.481 1186.86,-152.663"/>
<polygon fill="midnightblue" stroke="midnightblue" points="1190.36,-152.951 1188.57,-142.509 1183.46,-151.791 1190.36,-152.951"/>
</g>
<!-- Node27 -->
<g id="node27" class="node"><title>Node27</title>
<polygon fill="none" stroke="#bfbfbf" points="1229,-123.5 1229,-142.5 1291,-142.5 1291,-123.5 1229,-123.5"/>
<text text-anchor="middle" x="1260" y="-130.5" font-family="Helvetica,sans-Serif" font-size="10.00">type_traits</text>
</g>
<!-- Node24&#45;&gt;Node27 -->
<g id="edge41" class="edge"><title>Node24&#45;&gt;Node27</title>
<path fill="none" stroke="midnightblue" d="M1191.46,-184.975C1204.17,-175.52 1224.91,-160.096 1240.25,-148.687"/>
<polygon fill="midnightblue" stroke="midnightblue" points="1242.62,-151.285 1248.56,-142.509 1238.45,-145.669 1242.62,-151.285"/>
</g>
<!-- Node28&#45;&gt;Node10 -->
<g id="edge44" class="edge"><title>Node28&#45;&gt;Node10</title>
<path fill="none" stroke="midnightblue" d="M1006.78,-302.778C1127.18,-283.111 1390.02,-227.072 1300,-123 1262.49,-79.6409 1092.35,-72.7472 1005.04,-72.1319"/>
<polygon fill="midnightblue" stroke="midnightblue" points="1004.83,-68.6311 994.817,-72.086 1004.8,-75.631 1004.83,-68.6311"/>
</g>
<!-- Node29 -->
<g id="node29" class="node"><title>Node29</title>
<g id="a_node29"><a xlink:href="user__group_8hpp.html" target="_top" xlink:title="user_group.hpp">
<polygon fill="none" stroke="black" points="880.5,-246.5 880.5,-265.5 963.5,-265.5 963.5,-246.5 880.5,-246.5"/>
<text text-anchor="middle" x="922" y="-253.5" font-family="Helvetica,sans-Serif" font-size="10.00">user_group.hpp</text>
</a>
</g>
</g>
<!-- Node28&#45;&gt;Node29 -->
<g id="edge45" class="edge"><title>Node28&#45;&gt;Node29</title>
<path fill="none" stroke="midnightblue" d="M945.376,-302.083C941.544,-294.691 935.976,-283.953 931.235,-274.811"/>
<polygon fill="midnightblue" stroke="midnightblue" points="934.248,-273.018 926.538,-265.751 928.034,-276.24 934.248,-273.018"/>
</g>
<!-- Node29&#45;&gt;Node14 -->
<g id="edge46" class="edge"><title>Node29&#45;&gt;Node14</title>
<path fill="none" stroke="midnightblue" d="M910.187,-246.492C881.819,-226.06 809.59,-174.038 774.184,-148.537"/>
<polygon fill="midnightblue" stroke="midnightblue" points="776.185,-145.665 766.025,-142.661 772.094,-151.345 776.185,-145.665"/>
</g>
<!-- Node30 -->
<g id="node30" class="node"><title>Node30</title>
<g id="a_node30"><a xlink:href="user_8hpp.html" target="_top" xlink:title="user.hpp">
<polygon fill="none" stroke="black" points="895,-185 895,-204 949,-204 949,-185 895,-185"/>
<text text-anchor="middle" x="922" y="-192" font-family="Helvetica,sans-Serif" font-size="10.00">user.hpp</text>
</a>
</g>
</g>
<!-- Node29&#45;&gt;Node30 -->
<g id="edge47" class="edge"><title>Node29&#45;&gt;Node30</title>
<path fill="none" stroke="midnightblue" d="M922,-246.475C922,-238.08 922,-224.981 922,-214.163"/>
<polygon fill="midnightblue" stroke="midnightblue" points="925.5,-214.009 922,-204.009 918.5,-214.009 925.5,-214.009"/>
</g>
<!-- Node30&#45;&gt;Node9 -->
<g id="edge48" class="edge"><title>Node30&#45;&gt;Node9</title>
<path fill="none" stroke="midnightblue" d="M905.15,-184.987C885.422,-175.002 851.78,-157.913 823,-143 806.055,-134.219 802.809,-129.861 785,-123 727.96,-101.026 657.971,-85.677 618.635,-78.042"/>
<polygon fill="midnightblue" stroke="midnightblue" points="619.1,-74.5677 608.623,-76.1373 617.792,-81.4444 619.1,-74.5677"/>
</g>
<!-- Node30&#45;&gt;Node10 -->
<g id="edge50" class="edge"><title>Node30&#45;&gt;Node10</title>
<path fill="none" stroke="midnightblue" d="M924.229,-184.798C929.234,-165.263 941.455,-117.565 948.248,-91.0471"/>
<polygon fill="midnightblue" stroke="midnightblue" points="951.699,-91.679 950.791,-81.1232 944.918,-89.9416 951.699,-91.679"/>
</g>
<!-- Node30&#45;&gt;Node14 -->
<g id="edge49" class="edge"><title>Node30&#45;&gt;Node14</title>
<path fill="none" stroke="midnightblue" d="M897.93,-184.975C868.411,-174.521 818.291,-156.77 785.67,-145.217"/>
<polygon fill="midnightblue" stroke="midnightblue" points="786.745,-141.884 776.151,-141.845 784.408,-148.483 786.745,-141.884"/>
</g>
<!-- Node30&#45;&gt;Node22 -->
<g id="edge51" class="edge"><title>Node30&#45;&gt;Node22</title>
<path fill="none" stroke="midnightblue" d="M914.12,-184.975C905.706,-175.873 892.181,-161.241 881.774,-149.983"/>
<polygon fill="midnightblue" stroke="midnightblue" points="884.224,-147.477 874.866,-142.509 879.083,-152.228 884.224,-147.477"/>
</g>
<!-- Node31&#45;&gt;Node30 -->
<g id="edge53" class="edge"><title>Node31&#45;&gt;Node30</title>
<path fill="none" stroke="midnightblue" d="M777.37,-302.265C778.404,-288.581 782.309,-262.004 797,-246 803.501,-238.919 853.135,-220.129 887.866,-207.575"/>
<polygon fill="midnightblue" stroke="midnightblue" points="889.432,-210.731 897.66,-204.056 887.065,-204.143 889.432,-210.731"/>
</g>
<!-- Node32 -->
<g id="node32" class="node"><title>Node32</title>
<polygon fill="none" stroke="#bfbfbf" points="805.5,-246.5 805.5,-265.5 834.5,-265.5 834.5,-246.5 805.5,-246.5"/>
<text text-anchor="middle" x="820" y="-253.5" font-family="Helvetica,sans-Serif" font-size="10.00">list</text>
</g>
<!-- Node31&#45;&gt;Node32 -->
<g id="edge54" class="edge"><title>Node31&#45;&gt;Node32</title>
<path fill="none" stroke="midnightblue" d="M784.101,-302.083C790.237,-294.377 799.27,-283.033 806.739,-273.653"/>
<polygon fill="midnightblue" stroke="midnightblue" points="809.54,-275.754 813.032,-265.751 804.064,-271.394 809.54,-275.754"/>
</g>
<!-- Node33&#45;&gt;Node18 -->
<g id="edge57" class="edge"><title>Node33&#45;&gt;Node18</title>
<path fill="none" stroke="midnightblue" d="M1040.61,-246.298C1030.68,-226.589 1006.29,-178.211 992.995,-151.842"/>
<polygon fill="midnightblue" stroke="midnightblue" points="995.974,-149.977 988.347,-142.623 989.724,-153.128 995.974,-149.977"/>
</g>
<!-- Node33&#45;&gt;Node24 -->
<g id="edge58" class="edge"><title>Node33&#45;&gt;Node24</title>
<path fill="none" stroke="midnightblue" d="M1064.34,-246.475C1087.1,-236.445 1125.09,-219.7 1151.29,-208.155"/>
<polygon fill="midnightblue" stroke="midnightblue" points="1152.95,-211.245 1160.69,-204.009 1150.13,-204.839 1152.95,-211.245"/>
</g>
<!-- Node34 -->
<g id="node34" class="node"><title>Node34</title>
<polygon fill="none" stroke="#bfbfbf" points="1050,-185 1050,-204 1096,-204 1096,-185 1050,-185"/>
<text text-anchor="middle" x="1073" y="-192" font-family="Helvetica,sans-Serif" font-size="10.00">chrono</text>
</g>
<!-- Node33&#45;&gt;Node34 -->
<g id="edge56" class="edge"><title>Node33&#45;&gt;Node34</title>
<path fill="none" stroke="midnightblue" d="M1049.01,-246.475C1053.09,-237.815 1059.52,-224.149 1064.7,-213.145"/>
<polygon fill="midnightblue" stroke="midnightblue" points="1067.9,-214.548 1069,-204.009 1061.57,-211.567 1067.9,-214.548"/>
</g>
</g>
</svg>
        <g id="navigator" transform="translate(0 0)" fill="#404254">
                <rect fill="#f2f5e9" fill-opacity="0.5" stroke="#606060" stroke-width=".5" x="0" y="0" width="60" height="60"/>
                <use id="zoomplus" xlink:href="#zoomPlus" x="17" y="9" onmousedown="handleZoom(evt,'in')"/>
                <use id="zoomminus" xlink:href="#zoomMin" x="42" y="9" onmousedown="handleZoom(evt,'out')"/>
                <use id="reset" xlink:href="#resetDef" x="30" y="36" onmousedown="handleReset()"/>
                <g id="arrowUp" xlink:href="#dirArrow" transform="translate(30 24)" onmousedown="handlePan(0,-1)">
                  <use xlink:href="#rim" fill="#404040">
                        <set attributeName="fill" to="#808080" begin="arrowUp.mouseover" end="arrowUp.mouseout"/>
                  </use>
                  <path fill="none" stroke="white" stroke-width="1.5" d="M0,-3.0v7 M-2.5,-0.5L0,-3.0L2.5,-0.5"/>
                </g>
                <g id="arrowRight" xlink:href="#dirArrow" transform="rotate(90) translate(36 -43)" onmousedown="handlePan(1,0)">
                  <use xlink:href="#rim" fill="#404040">
                        <set attributeName="fill" to="#808080" begin="arrowRight.mouseover" end="arrowRight.mouseout"/>
                  </use>
                  <path fill="none" stroke="white" stroke-width="1.5" d="M0,-3.0v7 M-2.5,-0.5L0,-3.0L2.5,-0.5"/>
                </g>
                <g id="arrowDown" xlink:href="#dirArrow" transform="rotate(180) translate(-30 -48)" onmousedown="handlePan(0,1)">
                  <use xlink:href="#rim" fill="#404040">
                        <set attributeName="fill" to="#808080" begin="arrowDown.mouseover" end="arrowDown.mouseout"/>
                  </use>
                  <path fill="none" stroke="white" stroke-width="1.5" d="M0,-3.0v7 M-2.5,-0.5L0,-3.0L2.5,-0.5"/>
                </g>
                <g id="arrowLeft" xlink:href="#dirArrow" transform="rotate(270) translate(-36 17)" onmousedown="handlePan(-1,0)">
                  <use xlink:href="#rim" fill="#404040">
                        <set attributeName="fill" to="#808080" begin="arrowLeft.mouseover" end="arrowLeft.mouseout"/>
                  </use>
                  <path fill="none" stroke="white" stroke-width="1.5" d="M0,-3.0v7 M-2.5,-0.5L0,-3.0L2.5,-0.5"/>
                </g>
        </g>
        <svg viewBox="0 0 15 15" width="100%" height="30px" preserveAspectRatio="xMaxYMin meet">
         <g id="arrow_out" transform="scale(0.3 0.3)">
          <a xlink:href="src_2network_2connection_8hpp__incl_org.svg" target="_base">
           <rect id="button" ry="5" rx="5" y="6" x="6" height="38" width="38"
                fill="#f2f5e9" fill-opacity="0.5" stroke="#606060" stroke-width="1.0"/>
           <path id="arrow"
             d="M 11.500037,31.436501 C 11.940474,20.09759 22.043105,11.32322 32.158766,21.979434 L 37.068811,17.246167 C 37.068811,17.246167 37.088388,32 37.088388,32 L 22.160133,31.978069 C 22.160133,31.978069 26.997745,27.140456 26.997745,27.140456 C 18.528582,18.264221 13.291696,25.230495 11.500037,31.436501 z"
             style="fill:#404040;"/>
          </a>
         </g>
        </svg>
</svg>
