<?xml version="1.0" encoding="UTF-8" standalone="no"?>
<!DOCTYPE svg PUBLIC "-//W3C//DTD SVG 1.1//EN"
 "http://www.w3.org/Graphics/SVG/1.1/DTD/svg11.dtd">
<!-- Generated by graphviz version 2.38.0 (20140413.2041)
 -->
<!-- Title: src/network/connection.hpp Pages: 1 -->
<!--zoomable 375 -->
<svg id="main" version="1.1" xmlns="http://www.w3.org/2000/svg" xmlns:xlink="http://www.w3.org/1999/xlink" xml:space="preserve" onload="init(evt)">
<style type="text/css"><![CDATA[
.edge:hover path { stroke: red; }
.edge:hover polygon { stroke: red; fill: red; }
]]></style>
<script type="text/javascript"><![CDATA[
var edges = document.getElementsByTagName('g');
if (edges && edges.length) {
  for (var i=0;i<edges.length;i++) {
    if (edges[i].id.substr(0,4)=='edge') {
      edges[i].setAttribute('class','edge');
    }
  }
}
]]></script>
        <defs>
                <circle id="rim" cx="0" cy="0" r="7"/>
                <circle id="rim2" cx="0" cy="0" r="3.5"/>
                <g id="zoomPlus">
                        <use xlink:href="#rim" fill="#404040">
                                <set attributeName="fill" to="#808080" begin="zoomplus.mouseover" end="zoomplus.mouseout"/>
                        </use>
                        <path d="M-4,0h8M0,-4v8" fill="none" stroke="white" stroke-width="1.5" pointer-events="none"/>
                </g>
                <g id="zoomMin">
                        <use xlink:href="#rim" fill="#404040">
                                <set attributeName="fill" to="#808080" begin="zoomminus.mouseover" end="zoomminus.mouseout"/>
                        </use>
                        <path d="M-4,0h8" fill="none" stroke="white" stroke-width="1.5" pointer-events="none"/>
                </g>
                <g id="dirArrow">
                        <path fill="none" stroke="white" stroke-width="1.5" d="M0,-3.0v7 M-2.5,-0.5L0,-3.0L2.5,-0.5"/>
                </g>
               <g id="resetDef">
                       <use xlink:href="#rim2" fill="#404040">
                               <set attributeName="fill" to="#808080" begin="reset.mouseover" end="reset.mouseout"/>
                       </use>
               </g>
        </defs>

<script type="text/javascript">
var viewWidth = 1752;
var viewHeight = 375;
var sectionId = 'dynsection-0';
</script>
<script xlink:href="svgpan.js"/>
<svg id="graph" class="graph">
<g id="viewport">
<title>src/network/connection.hpp</title>
<!-- Node1 -->
<g id="node1" class="node"><title>Node1</title>
<polygon fill="#bfbfbf" stroke="black" points="819.446,-347.5 819.446,-366.5 956.446,-366.5 956.446,-347.5 819.446,-347.5"/>
<text text-anchor="middle" x="887.946" y="-354.5" font-family="Helvetica,sans-Serif" font-size="10.00">src/network/connection.hpp</text>
</g>
<!-- Node2 -->
<g id="node2" class="node"><title>Node2</title>
<polygon fill="none" stroke="#bfbfbf" points="1639.95,-62 1639.95,-81 1685.95,-81 1685.95,-62 1639.95,-62"/>
<text text-anchor="middle" x="1662.95" y="-69" font-family="Helvetica,sans-Serif" font-size="10.00">atomic</text>
</g>
<!-- Node1&#45;&gt;Node2 -->
<g id="edge1" class="edge"><title>Node1&#45;&gt;Node2</title>
<path fill="none" stroke="midnightblue" d="M956.645,-353.898C1152.89,-346.988 1701.95,-320.956 1701.95,-246 1701.95,-246 1701.95,-246 1701.95,-188 1701.95,-151.66 1684.4,-112.109 1672.85,-90.002"/>
<polygon fill="midnightblue" stroke="midnightblue" points="1675.89,-88.2684 1668.04,-81.1465 1669.74,-91.6056 1675.89,-88.2684"/>
</g>
<!-- Node3 -->
<g id="node3" class="node"><title>Node3</title>
<polygon fill="none" stroke="#bfbfbf" points="360.946,-62 360.946,-81 406.946,-81 406.946,-62 360.946,-62"/>
<text text-anchor="middle" x="383.946" y="-69" font-family="Helvetica,sans-Serif" font-size="10.00">cstdint</text>
</g>
<!-- Node1&#45;&gt;Node3 -->
<g id="edge2" class="edge"><title>Node1&#45;&gt;Node3</title>
<path fill="none" stroke="midnightblue" d="M819.082,-354.674C610.678,-349.758 0.945774,-328.339 0.945774,-246 0.945774,-246 0.945774,-246 0.945774,-188 0.945774,-157.902 -2.83732,-142.667 19.9458,-123 69.1693,-80.508 270.8,-73.6669 350.909,-72.6431"/>
<polygon fill="midnightblue" stroke="midnightblue" points="350.977,-76.1427 360.94,-72.5377 350.904,-69.1431 350.977,-76.1427"/>
</g>
<!-- Node4 -->
<g id="node4" class="node"><title>Node4</title>
<g id="a_node4"><a xlink:href="logger_8hpp.html" target="_top" xlink:title="string/logger.hpp">
<polygon fill="none" stroke="black" points="415.446,-235.5 415.446,-254.5 504.446,-254.5 504.446,-235.5 415.446,-235.5"/>
<text text-anchor="middle" x="459.946" y="-242.5" font-family="Helvetica,sans-Serif" font-size="10.00">string/logger.hpp</text>
</a>
</g>
</g>
<!-- Node1&#45;&gt;Node4 -->
<g id="edge3" class="edge"><title>Node1&#45;&gt;Node4</title>
<path fill="none" stroke="midnightblue" d="M843.899,-347.459C801.645,-339.032 736.146,-325.361 679.946,-311 614.614,-294.306 539.468,-271.262 496.067,-257.57"/>
<polygon fill="midnightblue" stroke="midnightblue" points="497.113,-254.229 486.523,-254.548 495,-260.903 497.113,-254.229"/>
</g>
<!-- Node24 -->
<g id="node24" class="node"><title>Node24</title>
<g id="a_node24"><a xlink:href="string__functions_8hpp.html" target="_top" xlink:title="string/string_functions.hpp">
<polygon fill="none" stroke="black" points="1013.45,-179.5 1013.45,-198.5 1144.45,-198.5 1144.45,-179.5 1013.45,-179.5"/>
<text text-anchor="middle" x="1078.95" y="-186.5" font-family="Helvetica,sans-Serif" font-size="10.00">string/string_functions.hpp</text>
</a>
</g>
</g>
<!-- Node1&#45;&gt;Node24 -->
<g id="edge36" class="edge"><title>Node1&#45;&gt;Node24</title>
<path fill="none" stroke="midnightblue" d="M902.014,-347.498C915.622,-338.995 936.535,-325.176 952.946,-311 987.926,-280.783 990.205,-266.595 1023.95,-235 1035.32,-224.354 1048.85,-213.264 1059.64,-204.757"/>
<polygon fill="midnightblue" stroke="midnightblue" points="1061.88,-207.451 1067.62,-198.546 1057.58,-201.927 1061.88,-207.451"/>
</g>
<!-- Node28 -->
<g id="node28" class="node"><title>Node28</title>
<g id="a_node28"><a xlink:href="auth__system_8hpp.html" target="_top" xlink:title="user/auth_system.hpp">
<polygon fill="none" stroke="black" points="831.446,-291.5 831.446,-310.5 944.446,-310.5 944.446,-291.5 831.446,-291.5"/>
<text text-anchor="middle" x="887.946" y="-298.5" font-family="Helvetica,sans-Serif" font-size="10.00">user/auth_system.hpp</text>
</a>
</g>
</g>
<!-- Node1&#45;&gt;Node28 -->
<g id="edge44" class="edge"><title>Node1&#45;&gt;Node28</title>
<path fill="none" stroke="midnightblue" d="M887.946,-347.083C887.946,-340.006 887.946,-329.861 887.946,-320.986"/>
<polygon fill="midnightblue" stroke="midnightblue" points="891.446,-320.751 887.946,-310.751 884.446,-320.751 891.446,-320.751"/>
</g>
<!-- Node31 -->
<g id="node31" class="node"><title>Node31</title>
<g id="a_node31"><a xlink:href="user__manager_8hpp.html" target="_top" xlink:title="user/user_manager.hpp">
<polygon fill="none" stroke="black" points="689.446,-291.5 689.446,-310.5 808.446,-310.5 808.446,-291.5 689.446,-291.5"/>
<text text-anchor="middle" x="748.946" y="-298.5" font-family="Helvetica,sans-Serif" font-size="10.00">user/user_manager.hpp</text>
</a>
</g>
</g>
<!-- Node1&#45;&gt;Node31 -->
<g id="edge53" class="edge"><title>Node1&#45;&gt;Node31</title>
<path fill="none" stroke="midnightblue" d="M865.921,-347.444C842.842,-338.478 806.384,-324.314 780.305,-314.183"/>
<polygon fill="midnightblue" stroke="midnightblue" points="781.456,-310.875 770.868,-310.516 778.922,-317.4 781.456,-310.875"/>
</g>
<!-- Node33 -->
<g id="node33" class="node"><title>Node33</title>
<g id="a_node33"><a xlink:href="network_8hpp.html" target="_top" xlink:title="network.hpp">
<polygon fill="none" stroke="black" points="1032.95,-235.5 1032.95,-254.5 1102.95,-254.5 1102.95,-235.5 1032.95,-235.5"/>
<text text-anchor="middle" x="1067.95" y="-242.5" font-family="Helvetica,sans-Serif" font-size="10.00">network.hpp</text>
</a>
</g>
</g>
<!-- Node1&#45;&gt;Node33 -->
<g id="edge56" class="edge"><title>Node1&#45;&gt;Node33</title>
<path fill="none" stroke="midnightblue" d="M923.344,-347.439C948.393,-340.297 982.006,-328.446 1007.95,-311 1027.36,-297.94 1044.92,-277.399 1055.96,-262.909"/>
<polygon fill="midnightblue" stroke="midnightblue" points="1058.82,-264.916 1061.94,-254.79 1053.19,-260.763 1058.82,-264.916"/>
</g>
<!-- Node5 -->
<g id="node5" class="node"><title>Node5</title>
<polygon fill="none" stroke="#bfbfbf" points="398.946,-179.5 398.946,-198.5 448.946,-198.5 448.946,-179.5 398.946,-179.5"/>
<text text-anchor="middle" x="423.946" y="-186.5" font-family="Helvetica,sans-Serif" font-size="10.00">iomanip</text>
</g>
<!-- Node4&#45;&gt;Node5 -->
<g id="edge4" class="edge"><title>Node4&#45;&gt;Node5</title>
<path fill="none" stroke="midnightblue" d="M454.001,-235.083C448.968,-227.534 441.609,-216.495 435.432,-207.23"/>
<polygon fill="midnightblue" stroke="midnightblue" points="438.239,-205.13 429.78,-198.751 432.415,-209.013 438.239,-205.13"/>
</g>
<!-- Node6 -->
<g id="node6" class="node"><title>Node6</title>
<polygon fill="none" stroke="#bfbfbf" points="28.9458,-123.5 28.9458,-142.5 82.9458,-142.5 82.9458,-123.5 28.9458,-123.5"/>
<text text-anchor="middle" x="55.9458" y="-130.5" font-family="Helvetica,sans-Serif" font-size="10.00">iostream</text>
</g>
<!-- Node4&#45;&gt;Node6 -->
<g id="edge5" class="edge"><title>Node4&#45;&gt;Node6</title>
<path fill="none" stroke="midnightblue" d="M415.243,-242.297C333.035,-238.51 161.55,-227.374 109.946,-199 90.1198,-188.099 74.5839,-166.743 65.3642,-151.484"/>
<polygon fill="midnightblue" stroke="midnightblue" points="68.236,-149.456 60.236,-142.509 62.1582,-152.928 68.236,-149.456"/>
</g>
<!-- Node7 -->
<g id="node7" class="node"><title>Node7</title>
<polygon fill="none" stroke="#bfbfbf" points="1285.95,-62 1285.95,-81 1329.95,-81 1329.95,-62 1285.95,-62"/>
<text text-anchor="middle" x="1307.95" y="-69" font-family="Helvetica,sans-Serif" font-size="10.00">mutex</text>
</g>
<!-- Node4&#45;&gt;Node7 -->
<g id="edge6" class="edge"><title>Node4&#45;&gt;Node7</title>
<path fill="none" stroke="midnightblue" d="M504.456,-243.609C572.405,-241.845 705.345,-233.768 811.946,-199 878.514,-177.289 883.194,-144.139 949.946,-123 1088.91,-78.9912 1135.37,-125.56 1275.95,-87 1278.1,-86.4101 1280.29,-85.6929 1282.46,-84.8968"/>
<polygon fill="midnightblue" stroke="midnightblue" points="1283.82,-88.1223 1291.71,-81.052 1281.13,-81.6585 1283.82,-88.1223"/>
</g>
<!-- Node8 -->
<g id="node8" class="node"><title>Node8</title>
<polygon fill="none" stroke="#bfbfbf" points="245.446,-123.5 245.446,-142.5 304.446,-142.5 304.446,-123.5 245.446,-123.5"/>
<text text-anchor="middle" x="274.946" y="-130.5" font-family="Helvetica,sans-Serif" font-size="10.00">stdexcept</text>
</g>
<!-- Node4&#45;&gt;Node8 -->
<g id="edge7" class="edge"><title>Node4&#45;&gt;Node8</title>
<path fill="none" stroke="midnightblue" d="M445.429,-235.368C413.548,-216.412 337.174,-171.001 298.394,-147.942"/>
<polygon fill="midnightblue" stroke="midnightblue" points="299.779,-144.694 289.395,-142.591 296.202,-150.711 299.779,-144.694"/>
</g>
<!-- Node9 -->
<g id="node9" class="node"><title>Node9</title>
<polygon fill="none" stroke="#bfbfbf" points="476.446,-62 476.446,-81 517.446,-81 517.446,-62 476.446,-62"/>
<text text-anchor="middle" x="496.946" y="-69" font-family="Helvetica,sans-Serif" font-size="10.00">string</text>
</g>
<!-- Node4&#45;&gt;Node9 -->
<g id="edge8" class="edge"><title>Node4&#45;&gt;Node9</title>
<path fill="none" stroke="midnightblue" d="M415.442,-237.473C335.74,-223.976 181.797,-188.63 235.946,-123 237.789,-120.767 397.255,-90.9787 465.99,-78.2274"/>
<polygon fill="midnightblue" stroke="midnightblue" points="467.01,-81.598 476.204,-76.334 465.734,-74.7153 467.01,-81.598"/>
</g>
<!-- Node10 -->
<g id="node10" class="node"><title>Node10</title>
<polygon fill="none" stroke="#bfbfbf" points="684.446,-62 684.446,-81 767.446,-81 767.446,-62 684.446,-62"/>
<text text-anchor="middle" x="725.946" y="-69" font-family="Helvetica,sans-Serif" font-size="10.00">unordered_map</text>
</g>
<!-- Node4&#45;&gt;Node10 -->
<g id="edge9" class="edge"><title>Node4&#45;&gt;Node10</title>
<path fill="none" stroke="midnightblue" d="M474.742,-235.427C489.969,-226.533 514.314,-212.115 534.946,-199 586.024,-166.53 597.43,-156.337 647.946,-123 666.855,-110.521 688.491,-96.5362 704.172,-86.4528"/>
<polygon fill="midnightblue" stroke="midnightblue" points="706.128,-89.3564 712.651,-81.0076 702.345,-83.4664 706.128,-89.3564"/>
</g>
<!-- Node11 -->
<g id="node11" class="node"><title>Node11</title>
<g id="a_node11"><a xlink:href="multibuf_8hpp.html" target="_top" xlink:title="multibuf.hpp">
<polygon fill="none" stroke="black" points="118.946,-179.5 118.946,-198.5 188.946,-198.5 188.946,-179.5 118.946,-179.5"/>
<text text-anchor="middle" x="153.946" y="-186.5" font-family="Helvetica,sans-Serif" font-size="10.00">multibuf.hpp</text>
</a>
</g>
</g>
<!-- Node4&#45;&gt;Node11 -->
<g id="edge10" class="edge"><title>Node4&#45;&gt;Node11</title>
<path fill="none" stroke="midnightblue" d="M415.355,-236.308C364.084,-227.437 277.403,-212.356 202.946,-199 201.677,-198.772 200.389,-198.541 199.09,-198.306"/>
<polygon fill="midnightblue" stroke="midnightblue" points="199.467,-194.818 189.003,-196.476 198.217,-201.705 199.467,-194.818"/>
</g>
<!-- Node14 -->
<g id="node14" class="node"><title>Node14</title>
<g id="a_node14"><a xlink:href="string_8hpp.html" target="_top" xlink:title="string.hpp">
<polygon fill="none" stroke="black" points="467.446,-179.5 467.446,-198.5 526.446,-198.5 526.446,-179.5 467.446,-179.5"/>
<text text-anchor="middle" x="496.946" y="-186.5" font-family="Helvetica,sans-Serif" font-size="10.00">string.hpp</text>
</a>
</g>
</g>
<!-- Node4&#45;&gt;Node14 -->
<g id="edge15" class="edge"><title>Node4&#45;&gt;Node14</title>
<path fill="none" stroke="midnightblue" d="M466.056,-235.083C471.228,-227.534 478.792,-216.495 485.14,-207.23"/>
<polygon fill="midnightblue" stroke="midnightblue" points="488.185,-208.979 490.95,-198.751 482.41,-205.022 488.185,-208.979"/>
</g>
<!-- Node22 -->
<g id="node22" class="node"><title>Node22</title>
<g id="a_node22"><a xlink:href="settings_8hpp.html" target="_top" xlink:title="settings.hpp">
<polygon fill="none" stroke="black" points="794.946,-123.5 794.946,-142.5 864.946,-142.5 864.946,-123.5 794.946,-123.5"/>
<text text-anchor="middle" x="829.946" y="-130.5" font-family="Helvetica,sans-Serif" font-size="10.00">settings.hpp</text>
</a>
</g>
</g>
<!-- Node4&#45;&gt;Node22 -->
<g id="edge30" class="edge"><title>Node4&#45;&gt;Node22</title>
<path fill="none" stroke="midnightblue" d="M504.613,-242.429C583.099,-238.932 741.818,-228.354 787.946,-199 805.076,-188.099 816.618,-167.416 823.199,-152.3"/>
<polygon fill="midnightblue" stroke="midnightblue" points="826.491,-153.497 826.971,-142.913 819.995,-150.887 826.491,-153.497"/>
</g>
<!-- Node11&#45;&gt;Node6 -->
<g id="edge11" class="edge"><title>Node11&#45;&gt;Node6</title>
<path fill="none" stroke="midnightblue" d="M138.2,-179.324C122.627,-170.743 98.5685,-157.486 80.4865,-147.522"/>
<polygon fill="midnightblue" stroke="midnightblue" points="82.0996,-144.415 71.6521,-142.655 78.7214,-150.546 82.0996,-144.415"/>
</g>
<!-- Node11&#45;&gt;Node9 -->
<g id="edge14" class="edge"><title>Node11&#45;&gt;Node9</title>
<path fill="none" stroke="midnightblue" d="M157.895,-179.14C164.795,-164.779 180.484,-136.652 202.946,-123 284.989,-73.1339 321.358,-103.459 415.946,-87 432.642,-84.0948 451.257,-80.7685 466.428,-78.0353"/>
<polygon fill="midnightblue" stroke="midnightblue" points="467.095,-81.4714 476.314,-76.2502 465.852,-74.5828 467.095,-81.4714"/>
</g>
<!-- Node12 -->
<g id="node12" class="node"><title>Node12</title>
<polygon fill="none" stroke="#bfbfbf" points="100.946,-123.5 100.946,-142.5 150.946,-142.5 150.946,-123.5 100.946,-123.5"/>
<text text-anchor="middle" x="125.946" y="-130.5" font-family="Helvetica,sans-Serif" font-size="10.00">fstream</text>
</g>
<!-- Node11&#45;&gt;Node12 -->
<g id="edge12" class="edge"><title>Node11&#45;&gt;Node12</title>
<path fill="none" stroke="midnightblue" d="M149.322,-179.083C145.489,-171.691 139.922,-160.953 135.181,-151.811"/>
<polygon fill="midnightblue" stroke="midnightblue" points="138.194,-150.018 130.483,-142.751 131.979,-153.24 138.194,-150.018"/>
</g>
<!-- Node13 -->
<g id="node13" class="node"><title>Node13</title>
<polygon fill="none" stroke="#bfbfbf" points="656.946,-123.5 656.946,-142.5 700.946,-142.5 700.946,-123.5 656.946,-123.5"/>
<text text-anchor="middle" x="678.946" y="-130.5" font-family="Helvetica,sans-Serif" font-size="10.00">vector</text>
</g>
<!-- Node11&#45;&gt;Node13 -->
<g id="edge13" class="edge"><title>Node11&#45;&gt;Node13</title>
<path fill="none" stroke="midnightblue" d="M189.208,-184.373C285.739,-174.444 553.301,-146.923 646.461,-137.341"/>
<polygon fill="midnightblue" stroke="midnightblue" points="647.096,-140.795 656.685,-136.29 646.38,-133.831 647.096,-140.795"/>
</g>
<!-- Node14&#45;&gt;Node3 -->
<g id="edge16" class="edge"><title>Node14&#45;&gt;Node3</title>
<path fill="none" stroke="midnightblue" d="M467.184,-180.445C436.536,-171.992 391.887,-157.565 381.946,-143 371.614,-127.863 374.047,-106.327 377.85,-91.0494"/>
<polygon fill="midnightblue" stroke="midnightblue" points="381.28,-91.7903 380.699,-81.2114 374.556,-89.8434 381.28,-91.7903"/>
</g>
<!-- Node14&#45;&gt;Node8 -->
<g id="edge19" class="edge"><title>Node14&#45;&gt;Node8</title>
<path fill="none" stroke="midnightblue" d="M467.006,-180.717C427.588,-171.129 358.182,-154.247 314.483,-143.617"/>
<polygon fill="midnightblue" stroke="midnightblue" points="315.309,-140.216 304.765,-141.253 313.654,-147.018 315.309,-140.216"/>
</g>
<!-- Node14&#45;&gt;Node9 -->
<g id="edge20" class="edge"><title>Node14&#45;&gt;Node9</title>
<path fill="none" stroke="midnightblue" d="M467.385,-179.591C438.929,-170.828 398.922,-156.513 389.946,-143 368.138,-110.17 427.762,-89.015 466.552,-79.0991"/>
<polygon fill="midnightblue" stroke="midnightblue" points="467.489,-82.4733 476.378,-76.7097 465.835,-75.6715 467.489,-82.4733"/>
</g>
<!-- Node14&#45;&gt;Node10 -->
<g id="edge22" class="edge"><title>Node14&#45;&gt;Node10</title>
<path fill="none" stroke="midnightblue" d="M505.53,-179.245C519.404,-165.533 548.121,-138.918 576.946,-123 609.276,-105.147 649.021,-92.0648 679.329,-83.6944"/>
<polygon fill="midnightblue" stroke="midnightblue" points="680.472,-87.0115 689.221,-81.0363 678.656,-80.2513 680.472,-87.0115"/>
</g>
<!-- Node14&#45;&gt;Node13 -->
<g id="edge23" class="edge"><title>Node14&#45;&gt;Node13</title>
<path fill="none" stroke="midnightblue" d="M525.784,-179.444C558.758,-169.66 612.588,-153.688 646.862,-143.519"/>
<polygon fill="midnightblue" stroke="midnightblue" points="648.235,-146.763 656.826,-140.563 646.243,-140.052 648.235,-146.763"/>
</g>
<!-- Node15 -->
<g id="node15" class="node"><title>Node15</title>
<polygon fill="none" stroke="#bfbfbf" points="1562.45,-62 1562.45,-81 1621.45,-81 1621.45,-62 1562.45,-62"/>
<text text-anchor="middle" x="1591.95" y="-69" font-family="Helvetica,sans-Serif" font-size="10.00">functional</text>
</g>
<!-- Node14&#45;&gt;Node15 -->
<g id="edge17" class="edge"><title>Node14&#45;&gt;Node15</title>
<path fill="none" stroke="midnightblue" d="M511.751,-179.426C538.106,-164.677 595.341,-134.936 647.946,-123 1040.51,-33.9271 1158.26,-166.127 1552.95,-87 1556.2,-86.3468 1559.55,-85.4602 1562.85,-84.4451"/>
<polygon fill="midnightblue" stroke="midnightblue" points="1564.15,-87.6973 1572.46,-81.1196 1561.86,-81.0821 1564.15,-87.6973"/>
</g>
<!-- Node16 -->
<g id="node16" class="node"><title>Node16</title>
<polygon fill="none" stroke="#bfbfbf" points="398.946,-123.5 398.946,-142.5 450.946,-142.5 450.946,-123.5 398.946,-123.5"/>
<text text-anchor="middle" x="424.946" y="-130.5" font-family="Helvetica,sans-Serif" font-size="10.00">memory</text>
</g>
<!-- Node14&#45;&gt;Node16 -->
<g id="edge18" class="edge"><title>Node14&#45;&gt;Node16</title>
<path fill="none" stroke="midnightblue" d="M485.378,-179.324C474.526,-171.185 458.065,-158.839 445.062,-149.087"/>
<polygon fill="midnightblue" stroke="midnightblue" points="446.824,-146.034 436.724,-142.834 442.624,-151.634 446.824,-146.034"/>
</g>
<!-- Node17 -->
<g id="node17" class="node"><title>Node17</title>
<polygon fill="none" stroke="#bfbfbf" points="958.946,-123.5 958.946,-142.5 1010.95,-142.5 1010.95,-123.5 958.946,-123.5"/>
<text text-anchor="middle" x="984.946" y="-130.5" font-family="Helvetica,sans-Serif" font-size="10.00">sstream</text>
</g>
<!-- Node14&#45;&gt;Node17 -->
<g id="edge21" class="edge"><title>Node14&#45;&gt;Node17</title>
<path fill="none" stroke="midnightblue" d="M526.738,-184.703C611.921,-175.277 856.309,-148.234 948.848,-137.994"/>
<polygon fill="midnightblue" stroke="midnightblue" points="949.298,-141.466 958.852,-136.887 948.528,-134.509 949.298,-141.466"/>
</g>
<!-- Node18 -->
<g id="node18" class="node"><title>Node18</title>
<g id="a_node18"><a xlink:href="color_8hpp.html" target="_top" xlink:title="color.hpp">
<polygon fill="none" stroke="black" points="468.946,-123.5 468.946,-142.5 524.946,-142.5 524.946,-123.5 468.946,-123.5"/>
<text text-anchor="middle" x="496.946" y="-130.5" font-family="Helvetica,sans-Serif" font-size="10.00">color.hpp</text>
</a>
</g>
</g>
<!-- Node14&#45;&gt;Node18 -->
<g id="edge24" class="edge"><title>Node14&#45;&gt;Node18</title>
<path fill="none" stroke="midnightblue" d="M496.946,-179.083C496.946,-172.006 496.946,-161.861 496.946,-152.986"/>
<polygon fill="midnightblue" stroke="midnightblue" points="500.446,-152.751 496.946,-142.751 493.446,-152.751 500.446,-152.751"/>
</g>
<!-- Node18&#45;&gt;Node3 -->
<g id="edge25" class="edge"><title>Node18&#45;&gt;Node3</title>
<path fill="none" stroke="midnightblue" d="M480.756,-123.475C462.043,-113.622 431.023,-97.2883 409.147,-85.7697"/>
<polygon fill="midnightblue" stroke="midnightblue" points="410.585,-82.5713 400.106,-81.0091 407.324,-88.7651 410.585,-82.5713"/>
</g>
<!-- Node18&#45;&gt;Node9 -->
<g id="edge26" class="edge"><title>Node18&#45;&gt;Node9</title>
<path fill="none" stroke="midnightblue" d="M496.946,-123.475C496.946,-115.08 496.946,-101.981 496.946,-91.1631"/>
<polygon fill="midnightblue" stroke="midnightblue" points="500.446,-91.0091 496.946,-81.0091 493.446,-91.0091 500.446,-91.0091"/>
</g>
<!-- Node19 -->
<g id="node19" class="node"><title>Node19</title>
<g id="a_node19"><a xlink:href="math_8hpp.html" target="_top" xlink:title="math.hpp">
<polygon fill="none" stroke="black" points="1210.45,-62 1210.45,-81 1267.45,-81 1267.45,-62 1210.45,-62"/>
<text text-anchor="middle" x="1238.95" y="-69" font-family="Helvetica,sans-Serif" font-size="10.00">math.hpp</text>
</a>
</g>
</g>
<!-- Node18&#45;&gt;Node19 -->
<g id="edge27" class="edge"><title>Node18&#45;&gt;Node19</title>
<path fill="none" stroke="midnightblue" d="M525.127,-129.74C639.434,-120.574 1068.66,-86.1553 1200.31,-75.5982"/>
<polygon fill="midnightblue" stroke="midnightblue" points="1200.65,-79.0822 1210.34,-74.794 1200.09,-72.1046 1200.65,-79.0822"/>
</g>
<!-- Node21 -->
<g id="node21" class="node"><title>Node21</title>
<g id="a_node21"><a xlink:href="c_09_09-compat_8hpp.html" target="_top" xlink:title="This file defined some compatibility for features of C++14 and beyond. ">
<polygon fill="none" stroke="black" points="785.946,-62 785.946,-81 873.946,-81 873.946,-62 785.946,-62"/>
<text text-anchor="middle" x="829.946" y="-69" font-family="Helvetica,sans-Serif" font-size="10.00">c++&#45;compat.hpp</text>
</a>
</g>
</g>
<!-- Node18&#45;&gt;Node21 -->
<g id="edge29" class="edge"><title>Node18&#45;&gt;Node21</title>
<path fill="none" stroke="midnightblue" d="M525.241,-128.412C575.838,-121.78 685.035,-106.484 775.946,-87 780.68,-85.9854 785.619,-84.8158 790.503,-83.5901"/>
<polygon fill="midnightblue" stroke="midnightblue" points="791.571,-86.929 800.37,-81.027 789.811,-80.1539 791.571,-86.929"/>
</g>
<!-- Node20 -->
<g id="node20" class="node"><title>Node20</title>
<polygon fill="none" stroke="#bfbfbf" points="1269.95,-0.5 1269.95,-19.5 1325.95,-19.5 1325.95,-0.5 1269.95,-0.5"/>
<text text-anchor="middle" x="1297.95" y="-7.5" font-family="Helvetica,sans-Serif" font-size="10.00">algorithm</text>
</g>
<!-- Node19&#45;&gt;Node20 -->
<g id="edge28" class="edge"><title>Node19&#45;&gt;Node20</title>
<path fill="none" stroke="midnightblue" d="M1247.4,-61.9751C1256.51,-52.785 1271.22,-37.9563 1282.42,-26.656"/>
<polygon fill="midnightblue" stroke="midnightblue" points="1284.95,-29.0744 1289.51,-19.5091 1279.98,-24.1455 1284.95,-29.0744"/>
</g>
<!-- Node22&#45;&gt;Node3 -->
<g id="edge32" class="edge"><title>Node22&#45;&gt;Node3</title>
<path fill="none" stroke="midnightblue" d="M794.825,-128.233C729.93,-121.141 586.908,-104.903 466.946,-87 450.489,-84.544 432.27,-81.4077 417.103,-78.6807"/>
<polygon fill="midnightblue" stroke="midnightblue" points="417.615,-75.2165 407.151,-76.8715 416.363,-82.1036 417.615,-75.2165"/>
</g>
<!-- Node22&#45;&gt;Node9 -->
<g id="edge31" class="edge"><title>Node22&#45;&gt;Node9</title>
<path fill="none" stroke="midnightblue" d="M794.938,-125.745C729.429,-114.04 589.359,-89.0124 527.449,-77.9502"/>
<polygon fill="midnightblue" stroke="midnightblue" points="527.978,-74.4894 517.518,-76.1759 526.747,-81.3803 527.978,-74.4894"/>
</g>
<!-- Node22&#45;&gt;Node10 -->
<g id="edge33" class="edge"><title>Node22&#45;&gt;Node10</title>
<path fill="none" stroke="midnightblue" d="M815.045,-123.475C797.978,-113.711 769.784,-97.5807 749.684,-86.0808"/>
<polygon fill="midnightblue" stroke="midnightblue" points="751.237,-82.9371 740.819,-81.0091 747.761,-89.013 751.237,-82.9371"/>
</g>
<!-- Node22&#45;&gt;Node21 -->
<g id="edge35" class="edge"><title>Node22&#45;&gt;Node21</title>
<path fill="none" stroke="midnightblue" d="M829.946,-123.475C829.946,-115.08 829.946,-101.981 829.946,-91.1631"/>
<polygon fill="midnightblue" stroke="midnightblue" points="833.446,-91.0091 829.946,-81.0091 826.446,-91.0091 833.446,-91.0091"/>
</g>
<!-- Node23 -->
<g id="node23" class="node"><title>Node23</title>
<polygon fill="none" stroke="#bfbfbf" points="892.446,-56.5 892.446,-86.5 993.446,-86.5 993.446,-56.5 892.446,-56.5"/>
<text text-anchor="start" x="900.446" y="-74.5" font-family="Helvetica,sans-Serif" font-size="10.00">boost/property_tree</text>
<text text-anchor="middle" x="942.946" y="-63.5" font-family="Helvetica,sans-Serif" font-size="10.00">/ptree.hpp</text>
</g>
<!-- Node22&#45;&gt;Node23 -->
<g id="edge34" class="edge"><title>Node22&#45;&gt;Node23</title>
<path fill="none" stroke="midnightblue" d="M846.136,-123.475C862.012,-115.115 886.749,-102.09 907.243,-91.2991"/>
<polygon fill="midnightblue" stroke="midnightblue" points="909.096,-94.279 916.314,-86.523 905.835,-88.0852 909.096,-94.279"/>
</g>
<!-- Node24&#45;&gt;Node9 -->
<g id="edge41" class="edge"><title>Node24&#45;&gt;Node9</title>
<path fill="none" stroke="midnightblue" d="M1074.09,-179.397C1065.37,-164.881 1045.56,-135.848 1019.95,-123 1008.85,-117.433 638.245,-84.8001 527.742,-75.1726"/>
<polygon fill="midnightblue" stroke="midnightblue" points="527.857,-71.6694 517.591,-74.2892 527.25,-78.6431 527.857,-71.6694"/>
</g>
<!-- Node24&#45;&gt;Node17 -->
<g id="edge40" class="edge"><title>Node24&#45;&gt;Node17</title>
<path fill="none" stroke="midnightblue" d="M1063.84,-179.324C1049.04,-170.822 1026.25,-157.729 1008.96,-147.797"/>
<polygon fill="midnightblue" stroke="midnightblue" points="1010.43,-144.601 1000.01,-142.655 1006.94,-150.671 1010.43,-144.601"/>
</g>
<!-- Node24&#45;&gt;Node20 -->
<g id="edge37" class="edge"><title>Node24&#45;&gt;Node20</title>
<path fill="none" stroke="midnightblue" d="M1144.66,-185.407C1209.43,-178.729 1303.67,-156.801 1338.95,-87 1345.16,-74.703 1343.92,-68.8481 1338.95,-56 1334.49,-44.498 1325.58,-34.1311 1317.2,-26.2546"/>
<polygon fill="midnightblue" stroke="midnightblue" points="1319.32,-23.4599 1309.49,-19.5103 1314.71,-28.7286 1319.32,-23.4599"/>
</g>
<!-- Node24&#45;&gt;Node22 -->
<g id="edge43" class="edge"><title>Node24&#45;&gt;Node22</title>
<path fill="none" stroke="midnightblue" d="M1039.49,-179.444C994.776,-169.746 922.025,-153.969 875.085,-143.789"/>
<polygon fill="midnightblue" stroke="midnightblue" points="875.705,-140.342 865.19,-141.643 874.221,-147.183 875.705,-140.342"/>
</g>
<!-- Node25 -->
<g id="node25" class="node"><title>Node25</title>
<polygon fill="none" stroke="#bfbfbf" points="1067.45,-123.5 1067.45,-142.5 1114.45,-142.5 1114.45,-123.5 1067.45,-123.5"/>
<text text-anchor="middle" x="1090.95" y="-130.5" font-family="Helvetica,sans-Serif" font-size="10.00">iterator</text>
</g>
<!-- Node24&#45;&gt;Node25 -->
<g id="edge38" class="edge"><title>Node24&#45;&gt;Node25</title>
<path fill="none" stroke="midnightblue" d="M1080.93,-179.083C1082.52,-171.927 1084.8,-161.635 1086.79,-152.691"/>
<polygon fill="midnightblue" stroke="midnightblue" points="1090.25,-153.272 1089,-142.751 1083.42,-151.754 1090.25,-153.272"/>
</g>
<!-- Node26 -->
<g id="node26" class="node"><title>Node26</title>
<polygon fill="none" stroke="#bfbfbf" points="1132.45,-123.5 1132.45,-142.5 1173.45,-142.5 1173.45,-123.5 1132.45,-123.5"/>
<text text-anchor="middle" x="1152.95" y="-130.5" font-family="Helvetica,sans-Serif" font-size="10.00">regex</text>
</g>
<!-- Node24&#45;&gt;Node26 -->
<g id="edge39" class="edge"><title>Node24&#45;&gt;Node26</title>
<path fill="none" stroke="midnightblue" d="M1090.84,-179.324C1102.1,-171.107 1119.23,-158.602 1132.65,-148.807"/>
<polygon fill="midnightblue" stroke="midnightblue" points="1134.83,-151.556 1140.84,-142.834 1130.7,-145.901 1134.83,-151.556"/>
</g>
<!-- Node27 -->
<g id="node27" class="node"><title>Node27</title>
<polygon fill="none" stroke="#bfbfbf" points="1191.95,-123.5 1191.95,-142.5 1253.95,-142.5 1253.95,-123.5 1191.95,-123.5"/>
<text text-anchor="middle" x="1222.95" y="-130.5" font-family="Helvetica,sans-Serif" font-size="10.00">type_traits</text>
</g>
<!-- Node24&#45;&gt;Node27 -->
<g id="edge42" class="edge"><title>Node24&#45;&gt;Node27</title>
<path fill="none" stroke="midnightblue" d="M1101.76,-179.444C1125.78,-170.438 1163.77,-156.189 1190.82,-146.049"/>
<polygon fill="midnightblue" stroke="midnightblue" points="1192.1,-149.305 1200.24,-142.516 1189.64,-142.751 1192.1,-149.305"/>
</g>
<!-- Node28&#45;&gt;Node10 -->
<g id="edge45" class="edge"><title>Node28&#45;&gt;Node10</title>
<path fill="none" stroke="midnightblue" d="M890.207,-291.477C897.007,-263.78 914.414,-175.094 873.946,-123 870.399,-118.435 806.043,-97.5854 763.374,-84.1443"/>
<polygon fill="midnightblue" stroke="midnightblue" points="764.162,-80.7232 753.573,-81.0667 762.065,-87.4018 764.162,-80.7232"/>
</g>
<!-- Node29 -->
<g id="node29" class="node"><title>Node29</title>
<g id="a_node29"><a xlink:href="user__group_8hpp.html" target="_top" xlink:title="user_group.hpp">
<polygon fill="none" stroke="black" points="781.446,-235.5 781.446,-254.5 864.446,-254.5 864.446,-235.5 781.446,-235.5"/>
<text text-anchor="middle" x="822.946" y="-242.5" font-family="Helvetica,sans-Serif" font-size="10.00">user_group.hpp</text>
</a>
</g>
</g>
<!-- Node28&#45;&gt;Node29 -->
<g id="edge46" class="edge"><title>Node28&#45;&gt;Node29</title>
<path fill="none" stroke="midnightblue" d="M877.502,-291.324C867.8,-283.263 853.13,-271.077 841.446,-261.369"/>
<polygon fill="midnightblue" stroke="midnightblue" points="843.508,-258.532 833.579,-254.834 839.035,-263.916 843.508,-258.532"/>
</g>
<!-- Node29&#45;&gt;Node13 -->
<g id="edge47" class="edge"><title>Node29&#45;&gt;Node13</title>
<path fill="none" stroke="midnightblue" d="M787.469,-235.445C764.939,-228.582 736.296,-217.055 715.946,-199 701.564,-186.241 691.442,-166.497 685.462,-152.117"/>
<polygon fill="midnightblue" stroke="midnightblue" points="688.717,-150.829 681.839,-142.77 682.19,-153.359 688.717,-150.829"/>
</g>
<!-- Node30 -->
<g id="node30" class="node"><title>Node30</title>
<g id="a_node30"><a xlink:href="user_8hpp.html" target="_top" xlink:title="user.hpp">
<polygon fill="none" stroke="black" points="724.946,-179.5 724.946,-198.5 778.946,-198.5 778.946,-179.5 724.946,-179.5"/>
<text text-anchor="middle" x="751.946" y="-186.5" font-family="Helvetica,sans-Serif" font-size="10.00">user.hpp</text>
</a>
</g>
</g>
<!-- Node29&#45;&gt;Node30 -->
<g id="edge48" class="edge"><title>Node29&#45;&gt;Node30</title>
<path fill="none" stroke="midnightblue" d="M811.538,-235.324C800.837,-227.185 784.605,-214.839 771.783,-205.087"/>
<polygon fill="midnightblue" stroke="midnightblue" points="773.639,-202.102 763.561,-198.834 769.401,-207.673 773.639,-202.102"/>
</g>
<!-- Node30&#45;&gt;Node9 -->
<g id="edge49" class="edge"><title>Node30&#45;&gt;Node9</title>
<path fill="none" stroke="midnightblue" d="M748.821,-179.312C743.28,-165.198 730.358,-137.417 709.946,-123 654.169,-83.603 571.755,-74.6319 527.576,-72.7844"/>
<polygon fill="midnightblue" stroke="midnightblue" points="527.572,-69.2825 517.464,-72.4596 527.347,-76.2789 527.572,-69.2825"/>
</g>
<!-- Node30&#45;&gt;Node10 -->
<g id="edge51" class="edge"><title>Node30&#45;&gt;Node10</title>
<path fill="none" stroke="midnightblue" d="M751.279,-179.493C750.185,-166.987 747.644,-142.961 742.946,-123 740.39,-112.139 736.469,-100.303 733.036,-90.8212"/>
<polygon fill="midnightblue" stroke="midnightblue" points="736.253,-89.4305 729.467,-81.2937 729.698,-91.886 736.253,-89.4305"/>
</g>
<!-- Node30&#45;&gt;Node13 -->
<g id="edge50" class="edge"><title>Node30&#45;&gt;Node13</title>
<path fill="none" stroke="midnightblue" d="M740.217,-179.324C729.108,-171.107 712.204,-158.602 698.962,-148.807"/>
<polygon fill="midnightblue" stroke="midnightblue" points="701.009,-145.967 690.888,-142.834 696.846,-151.595 701.009,-145.967"/>
</g>
<!-- Node30&#45;&gt;Node22 -->
<g id="edge52" class="edge"><title>Node30&#45;&gt;Node22</title>
<path fill="none" stroke="midnightblue" d="M764.478,-179.324C776.532,-170.979 794.973,-158.212 809.215,-148.352"/>
<polygon fill="midnightblue" stroke="midnightblue" points="811.215,-151.224 817.445,-142.655 807.231,-145.469 811.215,-151.224"/>
</g>
<!-- Node31&#45;&gt;Node30 -->
<g id="edge54" class="edge"><title>Node31&#45;&gt;Node30</title>
<path fill="none" stroke="midnightblue" d="M742.028,-291.321C733.066,-279 719.23,-255.635 724.946,-235 727.738,-224.921 733.455,-214.832 738.913,-206.769"/>
<polygon fill="midnightblue" stroke="midnightblue" points="741.771,-208.79 744.794,-198.636 736.098,-204.688 741.771,-208.79"/>
</g>
<!-- Node32 -->
<g id="node32" class="node"><title>Node32</title>
<polygon fill="none" stroke="#bfbfbf" points="734.446,-235.5 734.446,-254.5 763.446,-254.5 763.446,-235.5 734.446,-235.5"/>
<text text-anchor="middle" x="748.946" y="-242.5" font-family="Helvetica,sans-Serif" font-size="10.00">list</text>
</g>
<!-- Node31&#45;&gt;Node32 -->
<g id="edge55" class="edge"><title>Node31&#45;&gt;Node32</title>
<path fill="none" stroke="midnightblue" d="M748.946,-291.083C748.946,-284.006 748.946,-273.861 748.946,-264.986"/>
<polygon fill="midnightblue" stroke="midnightblue" points="752.446,-264.751 748.946,-254.751 745.446,-264.751 752.446,-264.751"/>
</g>
<!-- Node33&#45;&gt;Node17 -->
<g id="edge57" class="edge"><title>Node33&#45;&gt;Node17</title>
<path fill="none" stroke="midnightblue" d="M1049.63,-235.459C1035.21,-227.833 1015.65,-215.347 1003.95,-199 994.217,-185.406 989.434,-166.861 987.104,-153.058"/>
<polygon fill="midnightblue" stroke="midnightblue" points="990.52,-152.211 985.669,-142.792 983.587,-153.18 990.52,-152.211"/>
</g>
<!-- Node33&#45;&gt;Node24 -->
<g id="edge58" class="edge"><title>Node33&#45;&gt;Node24</title>
<path fill="none" stroke="midnightblue" d="M1069.76,-235.083C1071.22,-227.927 1073.32,-217.635 1075.14,-208.691"/>
<polygon fill="midnightblue" stroke="midnightblue" points="1078.6,-209.248 1077.16,-198.751 1071.74,-207.851 1078.6,-209.248"/>
</g>
<!-- Node34 -->
<g id="node34" class="node"><title>Node34</title>
<g id="a_node34"><a xlink:href="time_8hpp.html" target="_top" xlink:title="time/time.hpp">
<polygon fill="none" stroke="black" points="1370.95,-179.5 1370.95,-198.5 1446.95,-198.5 1446.95,-179.5 1370.95,-179.5"/>
<text text-anchor="middle" x="1408.95" y="-186.5" font-family="Helvetica,sans-Serif" font-size="10.00">time/time.hpp</text>
</a>
</g>
</g>
<!-- Node33&#45;&gt;Node34 -->
<g id="edge59" class="edge"><title>Node33&#45;&gt;Node34</title>
<path fill="none" stroke="midnightblue" d="M1103.15,-238.424C1164.5,-228.71 1291.05,-208.669 1360.58,-197.659"/>
<polygon fill="midnightblue" stroke="midnightblue" points="1361.49,-201.059 1370.82,-196.038 1360.39,-194.145 1361.49,-201.059"/>
</g>
<!-- Node34&#45;&gt;Node15 -->
<g id="edge61" class="edge"><title>Node34&#45;&gt;Node15</title>
<path fill="none" stroke="midnightblue" d="M1447.13,-183.157C1477.39,-177.687 1519.36,-166.297 1548.95,-143 1566.32,-129.321 1578.36,-106.538 1585.2,-90.5842"/>
<polygon fill="midnightblue" stroke="midnightblue" points="1588.47,-91.8349 1588.94,-81.2506 1581.97,-89.2304 1588.47,-91.8349"/>
</g>
<!-- Node34&#45;&gt;Node19 -->
<g id="edge71" class="edge"><title>Node34&#45;&gt;Node19</title>
<path fill="none" stroke="midnightblue" d="M1396.17,-179.319C1367.12,-159.586 1295.91,-111.199 1260.15,-86.9068"/>
<polygon fill="midnightblue" stroke="midnightblue" points="1262.11,-84.0068 1251.87,-81.282 1258.18,-89.7969 1262.11,-84.0068"/>
</g>
<!-- Node34&#45;&gt;Node21 -->
<g id="edge70" class="edge"><title>Node34&#45;&gt;Node21</title>
<path fill="none" stroke="midnightblue" d="M1390.02,-179.379C1352.03,-162.101 1269.54,-124.73 1262.95,-123 1098.86,-79.9358 1049.83,-117.497 882.946,-87 877.856,-86.0699 872.545,-84.8831 867.333,-83.5902"/>
<polygon fill="midnightblue" stroke="midnightblue" points="868.081,-80.1679 857.52,-81.0124 866.303,-86.9382 868.081,-80.1679"/>
</g>
<!-- Node35 -->
<g id="node35" class="node"><title>Node35</title>
<polygon fill="none" stroke="#bfbfbf" points="1385.95,-123.5 1385.95,-142.5 1431.95,-142.5 1431.95,-123.5 1385.95,-123.5"/>
<text text-anchor="middle" x="1408.95" y="-130.5" font-family="Helvetica,sans-Serif" font-size="10.00">chrono</text>
</g>
<!-- Node34&#45;&gt;Node35 -->
<g id="edge60" class="edge"><title>Node34&#45;&gt;Node35</title>
<path fill="none" stroke="midnightblue" d="M1408.95,-179.083C1408.95,-172.006 1408.95,-161.861 1408.95,-152.986"/>
<polygon fill="midnightblue" stroke="midnightblue" points="1412.45,-152.751 1408.95,-142.751 1405.45,-152.751 1412.45,-152.751"/>
</g>
<!-- Node36 -->
<g id="node36" class="node"><title>Node36</title>
<g id="a_node36"><a xlink:href="functional_8hpp.html" target="_top" xlink:title="functional.hpp">
<polygon fill="none" stroke="black" points="1596.45,-123.5 1596.45,-142.5 1673.45,-142.5 1673.45,-123.5 1596.45,-123.5"/>
<text text-anchor="middle" x="1634.95" y="-130.5" font-family="Helvetica,sans-Serif" font-size="10.00">functional.hpp</text>
</a>
</g>
</g>
<!-- Node34&#45;&gt;Node36 -->
<g id="edge62" class="edge"><title>Node34&#45;&gt;Node36</title>
<path fill="none" stroke="midnightblue" d="M1444.76,-179.444C1483.93,-170.083 1546.82,-155.056 1589.46,-144.868"/>
<polygon fill="midnightblue" stroke="midnightblue" points="1590.39,-148.245 1599.3,-142.516 1588.76,-141.436 1590.39,-148.245"/>
</g>
<!-- Node38 -->
<g id="node38" class="node"><title>Node38</title>
<g id="a_node38"><a xlink:href="concurrency_8hpp.html" target="_top" xlink:title="concurrency.hpp">
<polygon fill="none" stroke="black" points="1450.45,-123.5 1450.45,-142.5 1539.45,-142.5 1539.45,-123.5 1450.45,-123.5"/>
<text text-anchor="middle" x="1494.95" y="-130.5" font-family="Helvetica,sans-Serif" font-size="10.00">concurrency.hpp</text>
</a>
</g>
</g>
<!-- Node34&#45;&gt;Node38 -->
<g id="edge65" class="edge"><title>Node34&#45;&gt;Node38</title>
<path fill="none" stroke="midnightblue" d="M1422.76,-179.324C1436.18,-170.9 1456.77,-157.971 1472.53,-148.074"/>
<polygon fill="midnightblue" stroke="midnightblue" points="1474.55,-150.936 1481.16,-142.655 1470.83,-145.008 1474.55,-150.936"/>
</g>
<!-- Node36&#45;&gt;Node15 -->
<g id="edge63" class="edge"><title>Node36&#45;&gt;Node15</title>
<path fill="none" stroke="midnightblue" d="M1628.78,-123.475C1622.33,-114.55 1612.04,-100.307 1603.97,-89.1425"/>
<polygon fill="midnightblue" stroke="midnightblue" points="1606.79,-87.064 1598.1,-81.0091 1601.12,-91.1642 1606.79,-87.064"/>
</g>
<!-- Node37 -->
<g id="node37" class="node"><title>Node37</title>
<polygon fill="none" stroke="#bfbfbf" points="1703.95,-62 1703.95,-81 1743.95,-81 1743.95,-62 1703.95,-62"/>
<text text-anchor="middle" x="1723.95" y="-69" font-family="Helvetica,sans-Serif" font-size="10.00">utility</text>
</g>
<!-- Node36&#45;&gt;Node37 -->
<g id="edge64" class="edge"><title>Node36&#45;&gt;Node37</title>
<path fill="none" stroke="midnightblue" d="M1647.7,-123.475C1661.97,-113.931 1685.34,-98.3073 1702.45,-86.8683"/>
<polygon fill="midnightblue" stroke="midnightblue" points="1704.85,-89.4766 1711.22,-81.0091 1700.96,-83.6572 1704.85,-89.4766"/>
</g>
<!-- Node38&#45;&gt;Node2 -->
<g id="edge66" class="edge"><title>Node38&#45;&gt;Node2</title>
<path fill="none" stroke="midnightblue" d="M1523.65,-123.472C1551.39,-115.003 1594.46,-101.256 1630.95,-87 1632.37,-86.4451 1633.81,-85.8602 1635.27,-85.2566"/>
<polygon fill="midnightblue" stroke="midnightblue" points="1637.03,-88.3087 1644.81,-81.1189 1634.25,-81.8866 1637.03,-88.3087"/>
</g>
<!-- Node38&#45;&gt;Node7 -->
<g id="edge69" class="edge"><title>Node38&#45;&gt;Node7</title>
<path fill="none" stroke="midnightblue" d="M1468.15,-123.475C1434.18,-112.666 1375.7,-94.0577 1339.57,-82.5633"/>
<polygon fill="midnightblue" stroke="midnightblue" points="1340.61,-79.2192 1330.02,-79.5224 1338.48,-85.8897 1340.61,-79.2192"/>
</g>
<!-- Node39 -->
<g id="node39" class="node"><title>Node39</title>
<polygon fill="none" stroke="#bfbfbf" points="1386.45,-62 1386.45,-81 1481.45,-81 1481.45,-62 1386.45,-62"/>
<text text-anchor="middle" x="1433.95" y="-69" font-family="Helvetica,sans-Serif" font-size="10.00">condition_variable</text>
</g>
<!-- Node38&#45;&gt;Node39 -->
<g id="edge67" class="edge"><title>Node38&#45;&gt;Node39</title>
<path fill="none" stroke="midnightblue" d="M1486.21,-123.475C1476.78,-114.285 1461.58,-99.4563 1450,-88.156"/>
<polygon fill="midnightblue" stroke="midnightblue" points="1452.27,-85.4861 1442.67,-81.0091 1447.38,-90.4971 1452.27,-85.4861"/>
</g>
<!-- Node40 -->
<g id="node40" class="node"><title>Node40</title>
<polygon fill="none" stroke="#bfbfbf" points="1499.95,-62 1499.95,-81 1543.95,-81 1543.95,-62 1499.95,-62"/>
<text text-anchor="middle" x="1521.95" y="-69" font-family="Helvetica,sans-Serif" font-size="10.00">thread</text>
</g>
<!-- Node38&#45;&gt;Node40 -->
<g id="edge68" class="edge"><title>Node38&#45;&gt;Node40</title>
<path fill="none" stroke="midnightblue" d="M1498.81,-123.475C1502.74,-114.815 1508.95,-101.149 1513.94,-90.1453"/>
<polygon fill="midnightblue" stroke="midnightblue" points="1517.14,-91.5617 1518.08,-81.0091 1510.76,-88.6691 1517.14,-91.5617"/>
</g>
</g>
</svg>
        <g id="navigator" transform="translate(0 0)" fill="#404254">
                <rect fill="#f2f5e9" fill-opacity="0.5" stroke="#606060" stroke-width=".5" x="0" y="0" width="60" height="60"/>
                <use id="zoomplus" xlink:href="#zoomPlus" x="17" y="9" onmousedown="handleZoom(evt,'in')"/>
                <use id="zoomminus" xlink:href="#zoomMin" x="42" y="9" onmousedown="handleZoom(evt,'out')"/>
                <use id="reset" xlink:href="#resetDef" x="30" y="36" onmousedown="handleReset()"/>
                <g id="arrowUp" xlink:href="#dirArrow" transform="translate(30 24)" onmousedown="handlePan(0,-1)">
                  <use xlink:href="#rim" fill="#404040">
                        <set attributeName="fill" to="#808080" begin="arrowUp.mouseover" end="arrowUp.mouseout"/>
                  </use>
                  <path fill="none" stroke="white" stroke-width="1.5" d="M0,-3.0v7 M-2.5,-0.5L0,-3.0L2.5,-0.5"/>
                </g>
                <g id="arrowRight" xlink:href="#dirArrow" transform="rotate(90) translate(36 -43)" onmousedown="handlePan(1,0)">
                  <use xlink:href="#rim" fill="#404040">
                        <set attributeName="fill" to="#808080" begin="arrowRight.mouseover" end="arrowRight.mouseout"/>
                  </use>
                  <path fill="none" stroke="white" stroke-width="1.5" d="M0,-3.0v7 M-2.5,-0.5L0,-3.0L2.5,-0.5"/>
                </g>
                <g id="arrowDown" xlink:href="#dirArrow" transform="rotate(180) translate(-30 -48)" onmousedown="handlePan(0,1)">
                  <use xlink:href="#rim" fill="#404040">
                        <set attributeName="fill" to="#808080" begin="arrowDown.mouseover" end="arrowDown.mouseout"/>
                  </use>
                  <path fill="none" stroke="white" stroke-width="1.5" d="M0,-3.0v7 M-2.5,-0.5L0,-3.0L2.5,-0.5"/>
                </g>
                <g id="arrowLeft" xlink:href="#dirArrow" transform="rotate(270) translate(-36 17)" onmousedown="handlePan(-1,0)">
                  <use xlink:href="#rim" fill="#404040">
                        <set attributeName="fill" to="#808080" begin="arrowLeft.mouseover" end="arrowLeft.mouseout"/>
                  </use>
                  <path fill="none" stroke="white" stroke-width="1.5" d="M0,-3.0v7 M-2.5,-0.5L0,-3.0L2.5,-0.5"/>
                </g>
        </g>
        <svg viewBox="0 0 15 15" width="100%" height="30px" preserveAspectRatio="xMaxYMin meet">
         <g id="arrow_out" transform="scale(0.3 0.3)">
          <a xlink:href="src_2network_2connection_8hpp__incl_org.svg" target="_base">
           <rect id="button" ry="5" rx="5" y="6" x="6" height="38" width="38"
                fill="#f2f5e9" fill-opacity="0.5" stroke="#606060" stroke-width="1.0"/>
           <path id="arrow"
             d="M 11.500037,31.436501 C 11.940474,20.09759 22.043105,11.32322 32.158766,21.979434 L 37.068811,17.246167 C 37.068811,17.246167 37.088388,32 37.088388,32 L 22.160133,31.978069 C 22.160133,31.978069 26.997745,27.140456 26.997745,27.140456 C 18.528582,18.264221 13.291696,25.230495 11.500037,31.436501 z"
             style="fill:#404040;"/>
          </a>
         </g>
        </svg>
</svg>
