<?xml version="1.0" encoding="UTF-8" standalone="no"?>
<!DOCTYPE svg PUBLIC "-//W3C//DTD SVG 1.1//EN"
 "http://www.w3.org/Graphics/SVG/1.1/DTD/svg11.dtd">
<!-- Generated by graphviz version 2.38.0 (20140413.2041)
 -->
<!-- Title: src/string/string_functions.hpp Pages: 1 -->
<svg width="773pt" height="196pt"
 viewBox="0.00 0.00 772.50 196.00" xmlns="http://www.w3.org/2000/svg" xmlns:xlink="http://www.w3.org/1999/xlink">
<g id="graph0" class="graph" transform="scale(1 1) rotate(0) translate(4 192)">
<title>src/string/string_functions.hpp</title>
<!-- Node1 -->
<g id="node1" class="node"><title>Node1</title>
<polygon fill="#bfbfbf" stroke="black" points="230.5,-168.5 230.5,-187.5 378.5,-187.5 378.5,-168.5 230.5,-168.5"/>
<text text-anchor="middle" x="304.5" y="-175.5" font-family="Helvetica,sans-Serif" font-size="10.00">src/string/string_functions.hpp</text>
</g>
<!-- Node2 -->
<g id="node2" class="node"><title>Node2</title>
<g id="a_node2"><a xlink:href="string__functions_8cpp.html" target="_top" xlink:title="src/string/string_functions.cpp">
<polygon fill="none" stroke="black" points="22.5,-112.5 22.5,-131.5 170.5,-131.5 170.5,-112.5 22.5,-112.5"/>
<text text-anchor="middle" x="96.5" y="-119.5" font-family="Helvetica,sans-Serif" font-size="10.00">src/string/string_functions.cpp</text>
</a>
</g>
</g>
<!-- Node1&#45;&gt;Node2 -->
<g id="edge1" class="edge"><title>Node1&#45;&gt;Node2</title>
<path fill="none" stroke="midnightblue" d="M261.722,-165.894C222.442,-155.697 165.071,-140.802 129.304,-131.516"/>
<polygon fill="midnightblue" stroke="midnightblue" points="260.983,-169.318 271.542,-168.444 262.742,-162.543 260.983,-169.318"/>
</g>
<!-- Node3 -->
<g id="node3" class="node"><title>Node3</title>
<g id="a_node3"><a xlink:href="string_8cpp.html" target="_top" xlink:title="src/string/string.cpp">
<polygon fill="none" stroke="black" points="189,-112.5 189,-131.5 292,-131.5 292,-112.5 189,-112.5"/>
<text text-anchor="middle" x="240.5" y="-119.5" font-family="Helvetica,sans-Serif" font-size="10.00">src/string/string.cpp</text>
</a>
</g>
</g>
<!-- Node1&#45;&gt;Node3 -->
<g id="edge2" class="edge"><title>Node1&#45;&gt;Node3</title>
<path fill="none" stroke="midnightblue" d="M286.509,-161.82C275.042,-152.145 260.587,-139.948 250.97,-131.834"/>
<polygon fill="midnightblue" stroke="midnightblue" points="284.317,-164.55 294.217,-168.324 288.831,-159.2 284.317,-164.55"/>
</g>
<!-- Node4 -->
<g id="node4" class="node"><title>Node4</title>
<g id="a_node4"><a xlink:href="handler_8hpp.html" target="_top" xlink:title="src/handler/handler.hpp">
<polygon fill="none" stroke="black" points="310.5,-112.5 310.5,-131.5 428.5,-131.5 428.5,-112.5 310.5,-112.5"/>
<text text-anchor="middle" x="369.5" y="-119.5" font-family="Helvetica,sans-Serif" font-size="10.00">src/handler/handler.hpp</text>
</a>
</g>
</g>
<!-- Node1&#45;&gt;Node4 -->
<g id="edge3" class="edge"><title>Node1&#45;&gt;Node4</title>
<path fill="none" stroke="midnightblue" d="M322.773,-161.82C334.418,-152.145 349.099,-139.948 358.867,-131.834"/>
<polygon fill="midnightblue" stroke="midnightblue" points="320.399,-159.242 314.943,-168.324 324.872,-164.626 320.399,-159.242"/>
</g>
<!-- Node12 -->
<g id="node12" class="node"><title>Node12</title>
<g id="a_node12"><a xlink:href="irc__connection_8cpp.html" target="_top" xlink:title="src/network/irc_connection.cpp">
<polygon fill="none" stroke="black" points="446.5,-112.5 446.5,-131.5 598.5,-131.5 598.5,-112.5 446.5,-112.5"/>
<text text-anchor="middle" x="522.5" y="-119.5" font-family="Helvetica,sans-Serif" font-size="10.00">src/network/irc_connection.cpp</text>
</a>
</g>
</g>
<!-- Node1&#45;&gt;Node12 -->
<g id="edge11" class="edge"><title>Node1&#45;&gt;Node12</title>
<path fill="none" stroke="midnightblue" d="M348.812,-166.024C389.992,-155.823 450.473,-140.841 488.119,-131.516"/>
<polygon fill="midnightblue" stroke="midnightblue" points="347.908,-162.642 339.043,-168.444 349.591,-169.436 347.908,-162.642"/>
</g>
<!-- Node5 -->
<g id="node5" class="node"><title>Node5</title>
<g id="a_node5"><a xlink:href="melanobot_8cpp.html" target="_top" xlink:title="src/melanobot.cpp">
<polygon fill="none" stroke="black" points="0,-56.5 0,-75.5 97,-75.5 97,-56.5 0,-56.5"/>
<text text-anchor="middle" x="48.5" y="-63.5" font-family="Helvetica,sans-Serif" font-size="10.00">src/melanobot.cpp</text>
</a>
</g>
</g>
<!-- Node4&#45;&gt;Node5 -->
<g id="edge4" class="edge"><title>Node4&#45;&gt;Node5</title>
<path fill="none" stroke="midnightblue" d="M308.692,-110.771C247.281,-100.44 153.632,-84.6858 97.0242,-75.1629"/>
<polygon fill="midnightblue" stroke="midnightblue" points="308.195,-114.236 318.637,-112.444 309.356,-107.333 308.195,-114.236"/>
</g>
<!-- Node6 -->
<g id="node6" class="node"><title>Node6</title>
<g id="a_node6"><a xlink:href="ctcp_8cpp.html" target="_top" xlink:title="src/handler/ctcp.cpp">
<polygon fill="none" stroke="black" points="115,-56.5 115,-75.5 220,-75.5 220,-56.5 115,-56.5"/>
<text text-anchor="middle" x="167.5" y="-63.5" font-family="Helvetica,sans-Serif" font-size="10.00">src/handler/ctcp.cpp</text>
</a>
</g>
</g>
<!-- Node4&#45;&gt;Node6 -->
<g id="edge5" class="edge"><title>Node4&#45;&gt;Node6</title>
<path fill="none" stroke="midnightblue" d="M327.712,-109.829C289.573,-99.6333 234.019,-84.7823 199.358,-75.5164"/>
<polygon fill="midnightblue" stroke="midnightblue" points="326.928,-113.242 337.492,-112.444 328.736,-106.48 326.928,-113.242"/>
</g>
<!-- Node7 -->
<g id="node7" class="node"><title>Node7</title>
<g id="a_node7"><a xlink:href="web-api_8hpp.html" target="_top" xlink:title="src/handler/web&#45;api.hpp">
<polygon fill="none" stroke="black" points="238.5,-56.5 238.5,-75.5 358.5,-75.5 358.5,-56.5 238.5,-56.5"/>
<text text-anchor="middle" x="298.5" y="-63.5" font-family="Helvetica,sans-Serif" font-size="10.00">src/handler/web&#45;api.hpp</text>
</a>
</g>
</g>
<!-- Node4&#45;&gt;Node7 -->
<g id="edge6" class="edge"><title>Node4&#45;&gt;Node7</title>
<path fill="none" stroke="midnightblue" d="M349.91,-106.101C337.132,-96.3824 320.887,-84.0269 310.115,-75.8339"/>
<polygon fill="midnightblue" stroke="midnightblue" points="348.014,-109.056 358.093,-112.324 352.252,-103.484 348.014,-109.056"/>
</g>
<!-- Node9 -->
<g id="node9" class="node"><title>Node9</title>
<g id="a_node9"><a xlink:href="irc__whois_8cpp.html" target="_top" xlink:title="src/handler/irc_whois.cpp">
<polygon fill="none" stroke="black" points="376.5,-56.5 376.5,-75.5 504.5,-75.5 504.5,-56.5 376.5,-56.5"/>
<text text-anchor="middle" x="440.5" y="-63.5" font-family="Helvetica,sans-Serif" font-size="10.00">src/handler/irc_whois.cpp</text>
</a>
</g>
</g>
<!-- Node4&#45;&gt;Node9 -->
<g id="edge8" class="edge"><title>Node4&#45;&gt;Node9</title>
<path fill="none" stroke="midnightblue" d="M389.09,-106.101C401.868,-96.3824 418.113,-84.0269 428.885,-75.8339"/>
<polygon fill="midnightblue" stroke="midnightblue" points="386.748,-103.484 380.907,-112.324 390.986,-109.056 386.748,-103.484"/>
</g>
<!-- Node10 -->
<g id="node10" class="node"><title>Node10</title>
<g id="a_node10"><a xlink:href="core_8cpp.html" target="_top" xlink:title="This file defines handlers which are essential for proper usage of the bot. ">
<polygon fill="none" stroke="black" points="523,-56.5 523,-75.5 628,-75.5 628,-56.5 523,-56.5"/>
<text text-anchor="middle" x="575.5" y="-63.5" font-family="Helvetica,sans-Serif" font-size="10.00">src/handler/core.cpp</text>
</a>
</g>
</g>
<!-- Node4&#45;&gt;Node10 -->
<g id="edge9" class="edge"><title>Node4&#45;&gt;Node10</title>
<path fill="none" stroke="midnightblue" d="M412.115,-109.829C451.01,-99.6333 507.664,-84.7823 543.011,-75.5164"/>
<polygon fill="midnightblue" stroke="midnightblue" points="410.927,-106.522 402.141,-112.444 412.702,-113.293 410.927,-106.522"/>
</g>
<!-- Node11 -->
<g id="node11" class="node"><title>Node11</title>
<g id="a_node11"><a xlink:href="handler_8cpp.html" target="_top" xlink:title="src/handler/handler.cpp">
<polygon fill="none" stroke="black" points="646.5,-56.5 646.5,-75.5 764.5,-75.5 764.5,-56.5 646.5,-56.5"/>
<text text-anchor="middle" x="705.5" y="-63.5" font-family="Helvetica,sans-Serif" font-size="10.00">src/handler/handler.cpp</text>
</a>
</g>
</g>
<!-- Node4&#45;&gt;Node11 -->
<g id="edge10" class="edge"><title>Node4&#45;&gt;Node11</title>
<path fill="none" stroke="midnightblue" d="M432.632,-110.854C496.116,-100.651 592.892,-85.0977 652.509,-75.5164"/>
<polygon fill="midnightblue" stroke="midnightblue" points="432.058,-107.401 422.74,-112.444 433.169,-114.312 432.058,-107.401"/>
</g>
<!-- Node8 -->
<g id="node8" class="node"><title>Node8</title>
<g id="a_node8"><a xlink:href="web-api_8cpp.html" target="_top" xlink:title="src/handler/web&#45;api.cpp">
<polygon fill="none" stroke="black" points="238.5,-0.5 238.5,-19.5 358.5,-19.5 358.5,-0.5 238.5,-0.5"/>
<text text-anchor="middle" x="298.5" y="-7.5" font-family="Helvetica,sans-Serif" font-size="10.00">src/handler/web&#45;api.cpp</text>
</a>
</g>
</g>
<!-- Node7&#45;&gt;Node8 -->
<g id="edge7" class="edge"><title>Node7&#45;&gt;Node8</title>
<path fill="none" stroke="midnightblue" d="M298.5,-45.8045C298.5,-36.9102 298.5,-26.7798 298.5,-19.7511"/>
<polygon fill="midnightblue" stroke="midnightblue" points="295,-46.083 298.5,-56.083 302,-46.083 295,-46.083"/>
</g>
</g>
</svg>
