<?xml version="1.0" encoding="UTF-8" standalone="no"?>
<!DOCTYPE svg PUBLIC "-//W3C//DTD SVG 1.1//EN"
 "http://www.w3.org/Graphics/SVG/1.1/DTD/svg11.dtd">
<!-- Generated by graphviz version 2.38.0 (20140413.2041)
 -->
<!-- Title: src/string/string.cpp Pages: 1 -->
<!--zoomable 386 -->
<svg id="main" version="1.1" xmlns="http://www.w3.org/2000/svg" xmlns:xlink="http://www.w3.org/1999/xlink" xml:space="preserve" onload="init(evt)">
<style type="text/css"><![CDATA[
.edge:hover path { stroke: red; }
.edge:hover polygon { stroke: red; fill: red; }
]]></style>
<script type="text/javascript"><![CDATA[
var edges = document.getElementsByTagName('g');
if (edges && edges.length) {
  for (var i=0;i<edges.length;i++) {
    if (edges[i].id.substr(0,4)=='edge') {
      edges[i].setAttribute('class','edge');
    }
  }
}
]]></script>
        <defs>
                <circle id="rim" cx="0" cy="0" r="7"/>
                <circle id="rim2" cx="0" cy="0" r="3.5"/>
                <g id="zoomPlus">
                        <use xlink:href="#rim" fill="#404040">
                                <set attributeName="fill" to="#808080" begin="zoomplus.mouseover" end="zoomplus.mouseout"/>
                        </use>
                        <path d="M-4,0h8M0,-4v8" fill="none" stroke="white" stroke-width="1.5" pointer-events="none"/>
                </g>
                <g id="zoomMin">
                        <use xlink:href="#rim" fill="#404040">
                                <set attributeName="fill" to="#808080" begin="zoomminus.mouseover" end="zoomminus.mouseout"/>
                        </use>
                        <path d="M-4,0h8" fill="none" stroke="white" stroke-width="1.5" pointer-events="none"/>
                </g>
                <g id="dirArrow">
                        <path fill="none" stroke="white" stroke-width="1.5" d="M0,-3.0v7 M-2.5,-0.5L0,-3.0L2.5,-0.5"/>
                </g>
               <g id="resetDef">
                       <use xlink:href="#rim2" fill="#404040">
                               <set attributeName="fill" to="#808080" begin="reset.mouseover" end="reset.mouseout"/>
                       </use>
               </g>
        </defs>

<script type="text/javascript">
var viewWidth = 1226;
var viewHeight = 386;
var sectionId = 'dynsection-0';
</script>
<script xlink:href="svgpan.js"/>
<svg id="graph" class="graph">
<g id="viewport">
<title>src/string/string.cpp</title>
<!-- Node1 -->
<g id="node1" class="node"><title>Node1</title>
<polygon fill="#bfbfbf" stroke="black" points="758.402,-358.5 758.402,-377.5 861.402,-377.5 861.402,-358.5 758.402,-358.5"/>
<text text-anchor="middle" x="809.902" y="-365.5" font-family="Helvetica,sans-Serif" font-size="10.00">src/string/string.cpp</text>
</g>
<!-- Node2 -->
<g id="node2" class="node"><title>Node2</title>
<g id="a_node2"><a xlink:href="string_8hpp.html" target="_top" xlink:title="string.hpp">
<polygon fill="none" stroke="black" points="528.402,-174 528.402,-193 587.402,-193 587.402,-174 528.402,-174"/>
<text text-anchor="middle" x="557.902" y="-181" font-family="Helvetica,sans-Serif" font-size="10.00">string.hpp</text>
</a>
</g>
</g>
<!-- Node1&#45;&gt;Node2 -->
<g id="edge1" class="edge"><title>Node1&#45;&gt;Node2</title>
<path fill="none" stroke="midnightblue" d="M780.868,-358.497C757.794,-350.967 725.293,-338.592 699.902,-322 645.986,-286.767 594.8,-229.288 571.322,-201.121"/>
<polygon fill="midnightblue" stroke="midnightblue" points="573.759,-198.573 564.705,-193.071 568.351,-203.019 573.759,-198.573"/>
</g>
<!-- Node16 -->
<g id="node16" class="node"><title>Node16</title>
<polygon fill="none" stroke="#bfbfbf" points="1052.4,-56.5 1052.4,-75.5 1093.4,-75.5 1093.4,-56.5 1052.4,-56.5"/>
<text text-anchor="middle" x="1072.9" y="-63.5" font-family="Helvetica,sans-Serif" font-size="10.00">regex</text>
</g>
<!-- Node1&#45;&gt;Node16 -->
<g id="edge20" class="edge"><title>Node1&#45;&gt;Node16</title>
<path fill="none" stroke="midnightblue" d="M861.576,-362.609C971.363,-351.852 1217.9,-319.513 1217.9,-246 1217.9,-246 1217.9,-246 1217.9,-182.5 1217.9,-124.399 1145.8,-90.8057 1103.28,-76.0476"/>
<polygon fill="midnightblue" stroke="midnightblue" points="1104.27,-72.6888 1093.68,-72.8585 1102.06,-79.332 1104.27,-72.6888"/>
</g>
<!-- Node17 -->
<g id="node17" class="node"><title>Node17</title>
<polygon fill="none" stroke="#bfbfbf" points="709.402,-297 709.402,-316 738.402,-316 738.402,-297 709.402,-297"/>
<text text-anchor="middle" x="723.902" y="-304" font-family="Helvetica,sans-Serif" font-size="10.00">list</text>
</g>
<!-- Node1&#45;&gt;Node17 -->
<g id="edge19" class="edge"><title>Node1&#45;&gt;Node17</title>
<path fill="none" stroke="midnightblue" d="M797.581,-358.475C783.786,-348.931 761.204,-333.307 744.67,-321.868"/>
<polygon fill="midnightblue" stroke="midnightblue" points="746.416,-318.82 736.201,-316.009 742.433,-324.577 746.416,-318.82"/>
</g>
<!-- Node18 -->
<g id="node18" class="node"><title>Node18</title>
<polygon fill="none" stroke="#bfbfbf" points="756.402,-291.5 756.402,-321.5 863.402,-321.5 863.402,-291.5 756.402,-291.5"/>
<text text-anchor="start" x="764.402" y="-309.5" font-family="Helvetica,sans-Serif" font-size="10.00">boost/iterator/iterator</text>
<text text-anchor="middle" x="809.902" y="-298.5" font-family="Helvetica,sans-Serif" font-size="10.00">_concepts.hpp</text>
</g>
<!-- Node1&#45;&gt;Node18 -->
<g id="edge21" class="edge"><title>Node1&#45;&gt;Node18</title>
<path fill="none" stroke="midnightblue" d="M809.902,-358.475C809.902,-351.471 809.902,-341.192 809.902,-331.696"/>
<polygon fill="midnightblue" stroke="midnightblue" points="813.402,-331.523 809.902,-321.523 806.402,-331.523 813.402,-331.523"/>
</g>
<!-- Node19 -->
<g id="node19" class="node"><title>Node19</title>
<g id="a_node19"><a xlink:href="logger_8hpp.html" target="_top" xlink:title="logger.hpp">
<polygon fill="none" stroke="black" points="254.902,-297 254.902,-316 316.902,-316 316.902,-297 254.902,-297"/>
<text text-anchor="middle" x="285.902" y="-304" font-family="Helvetica,sans-Serif" font-size="10.00">logger.hpp</text>
</a>
</g>
</g>
<!-- Node1&#45;&gt;Node19 -->
<g id="edge22" class="edge"><title>Node1&#45;&gt;Node19</title>
<path fill="none" stroke="midnightblue" d="M758.225,-361.132C654.198,-349.32 421.417,-322.888 326.933,-312.159"/>
<polygon fill="midnightblue" stroke="midnightblue" points="327.235,-308.671 316.904,-311.02 326.445,-315.626 327.235,-308.671"/>
</g>
<!-- Node29 -->
<g id="node29" class="node"><title>Node29</title>
<g id="a_node29"><a xlink:href="string__functions_8hpp.html" target="_top" xlink:title="string_functions.hpp">
<polygon fill="none" stroke="black" points="881.902,-297 881.902,-316 985.902,-316 985.902,-297 881.902,-297"/>
<text text-anchor="middle" x="933.902" y="-304" font-family="Helvetica,sans-Serif" font-size="10.00">string_functions.hpp</text>
</a>
</g>
</g>
<!-- Node1&#45;&gt;Node29 -->
<g id="edge45" class="edge"><title>Node1&#45;&gt;Node29</title>
<path fill="none" stroke="midnightblue" d="M827.668,-358.475C848.386,-348.534 882.854,-331.995 906.891,-320.461"/>
<polygon fill="midnightblue" stroke="midnightblue" points="908.667,-323.491 916.169,-316.009 905.639,-317.18 908.667,-323.491"/>
</g>
<!-- Node31 -->
<g id="node31" class="node"><title>Node31</title>
<g id="a_node31"><a xlink:href="functional_8hpp.html" target="_top" xlink:title="functional.hpp">
<polygon fill="none" stroke="black" points="1004.4,-297 1004.4,-316 1081.4,-316 1081.4,-297 1004.4,-297"/>
<text text-anchor="middle" x="1042.9" y="-304" font-family="Helvetica,sans-Serif" font-size="10.00">functional.hpp</text>
</a>
</g>
</g>
<!-- Node1&#45;&gt;Node31 -->
<g id="edge53" class="edge"><title>Node1&#45;&gt;Node31</title>
<path fill="none" stroke="midnightblue" d="M847.615,-358.464C885.11,-349.828 944.194,-335.815 994.902,-322 998.472,-321.027 1002.18,-319.978 1005.88,-318.905"/>
<polygon fill="midnightblue" stroke="midnightblue" points="1006.97,-322.233 1015.56,-316.041 1004.98,-315.521 1006.97,-322.233"/>
</g>
<!-- Node3 -->
<g id="node3" class="node"><title>Node3</title>
<polygon fill="none" stroke="#bfbfbf" points="836.902,-56.5 836.902,-75.5 882.902,-75.5 882.902,-56.5 836.902,-56.5"/>
<text text-anchor="middle" x="859.902" y="-63.5" font-family="Helvetica,sans-Serif" font-size="10.00">cstdint</text>
</g>
<!-- Node2&#45;&gt;Node3 -->
<g id="edge2" class="edge"><title>Node2&#45;&gt;Node3</title>
<path fill="none" stroke="midnightblue" d="M587.495,-174.294C595.696,-172.131 604.62,-169.878 612.902,-168 696.295,-149.089 727.493,-174.134 801.902,-132 822.174,-120.521 839.049,-99.3241 849.275,-84.2589"/>
<polygon fill="midnightblue" stroke="midnightblue" points="852.248,-86.107 854.755,-75.8129 846.376,-82.2972 852.248,-86.107"/>
</g>
<!-- Node4 -->
<g id="node4" class="node"><title>Node4</title>
<polygon fill="none" stroke="#bfbfbf" points="996.402,-112.5 996.402,-131.5 1055.4,-131.5 1055.4,-112.5 996.402,-112.5"/>
<text text-anchor="middle" x="1025.9" y="-119.5" font-family="Helvetica,sans-Serif" font-size="10.00">functional</text>
</g>
<!-- Node2&#45;&gt;Node4 -->
<g id="edge3" class="edge"><title>Node2&#45;&gt;Node4</title>
<path fill="none" stroke="midnightblue" d="M586.821,-173.938C595.176,-171.72 604.348,-169.529 612.902,-168 774.077,-139.193 820.286,-158.061 986.117,-131.901"/>
<polygon fill="midnightblue" stroke="midnightblue" points="986.854,-135.327 996.171,-130.283 985.742,-128.416 986.854,-135.327"/>
</g>
<!-- Node5 -->
<g id="node5" class="node"><title>Node5</title>
<polygon fill="none" stroke="#bfbfbf" points="205.902,-112.5 205.902,-131.5 257.902,-131.5 257.902,-112.5 205.902,-112.5"/>
<text text-anchor="middle" x="231.902" y="-119.5" font-family="Helvetica,sans-Serif" font-size="10.00">memory</text>
</g>
<!-- Node2&#45;&gt;Node5 -->
<g id="edge4" class="edge"><title>Node2&#45;&gt;Node5</title>
<path fill="none" stroke="midnightblue" d="M528.008,-178.119C476.813,-170.443 368.899,-153.507 268.25,-132.156"/>
<polygon fill="midnightblue" stroke="midnightblue" points="268.733,-128.68 258.222,-130.008 267.267,-135.525 268.733,-128.68"/>
</g>
<!-- Node6 -->
<g id="node6" class="node"><title>Node6</title>
<polygon fill="none" stroke="#bfbfbf" points="414.402,-112.5 414.402,-131.5 473.402,-131.5 473.402,-112.5 414.402,-112.5"/>
<text text-anchor="middle" x="443.902" y="-119.5" font-family="Helvetica,sans-Serif" font-size="10.00">stdexcept</text>
</g>
<!-- Node2&#45;&gt;Node6 -->
<g id="edge5" class="edge"><title>Node2&#45;&gt;Node6</title>
<path fill="none" stroke="midnightblue" d="M541.569,-173.975C522.691,-164.122 491.396,-147.788 469.327,-136.27"/>
<polygon fill="midnightblue" stroke="midnightblue" points="470.69,-133.033 460.205,-131.509 467.451,-139.239 470.69,-133.033"/>
</g>
<!-- Node7 -->
<g id="node7" class="node"><title>Node7</title>
<polygon fill="none" stroke="#bfbfbf" points="365.402,-56.5 365.402,-75.5 406.402,-75.5 406.402,-56.5 365.402,-56.5"/>
<text text-anchor="middle" x="385.902" y="-63.5" font-family="Helvetica,sans-Serif" font-size="10.00">string</text>
</g>
<!-- Node2&#45;&gt;Node7 -->
<g id="edge6" class="edge"><title>Node2&#45;&gt;Node7</title>
<path fill="none" stroke="midnightblue" d="M550.189,-173.766C537.202,-159.449 509.66,-130.71 481.902,-112 461.272,-98.0939 435.665,-86.3277 416.087,-78.3182"/>
<polygon fill="midnightblue" stroke="midnightblue" points="417.319,-75.0414 406.734,-74.5882 414.726,-81.5435 417.319,-75.0414"/>
</g>
<!-- Node8 -->
<g id="node8" class="node"><title>Node8</title>
<polygon fill="none" stroke="#bfbfbf" points="925.902,-112.5 925.902,-131.5 977.902,-131.5 977.902,-112.5 925.902,-112.5"/>
<text text-anchor="middle" x="951.902" y="-119.5" font-family="Helvetica,sans-Serif" font-size="10.00">sstream</text>
</g>
<!-- Node2&#45;&gt;Node8 -->
<g id="edge7" class="edge"><title>Node2&#45;&gt;Node8</title>
<path fill="none" stroke="midnightblue" d="M587.429,-173.985C595.63,-171.82 604.571,-169.644 612.902,-168 670.34,-156.663 840.482,-136.086 915.581,-127.234"/>
<polygon fill="midnightblue" stroke="midnightblue" points="916.003,-130.709 925.526,-126.065 915.185,-123.757 916.003,-130.709"/>
</g>
<!-- Node9 -->
<g id="node9" class="node"><title>Node9</title>
<polygon fill="none" stroke="#bfbfbf" points="710.402,-112.5 710.402,-131.5 793.402,-131.5 793.402,-112.5 710.402,-112.5"/>
<text text-anchor="middle" x="751.902" y="-119.5" font-family="Helvetica,sans-Serif" font-size="10.00">unordered_map</text>
</g>
<!-- Node2&#45;&gt;Node9 -->
<g id="edge8" class="edge"><title>Node2&#45;&gt;Node9</title>
<path fill="none" stroke="midnightblue" d="M585.698,-173.975C619.552,-163.592 676.873,-146.012 714.557,-134.454"/>
<polygon fill="midnightblue" stroke="midnightblue" points="715.624,-137.788 724.158,-131.509 713.572,-131.095 715.624,-137.788"/>
</g>
<!-- Node10 -->
<g id="node10" class="node"><title>Node10</title>
<polygon fill="none" stroke="#bfbfbf" points="275.902,-112.5 275.902,-131.5 319.902,-131.5 319.902,-112.5 275.902,-112.5"/>
<text text-anchor="middle" x="297.902" y="-119.5" font-family="Helvetica,sans-Serif" font-size="10.00">vector</text>
</g>
<!-- Node2&#45;&gt;Node10 -->
<g id="edge9" class="edge"><title>Node2&#45;&gt;Node10</title>
<path fill="none" stroke="midnightblue" d="M528.33,-175.733C479.021,-164.448 380.424,-141.885 329.684,-130.273"/>
<polygon fill="midnightblue" stroke="midnightblue" points="330.439,-126.856 319.91,-128.036 328.878,-133.679 330.439,-126.856"/>
</g>
<!-- Node11 -->
<g id="node11" class="node"><title>Node11</title>
<g id="a_node11"><a xlink:href="color_8hpp.html" target="_top" xlink:title="color.hpp">
<polygon fill="none" stroke="black" points="529.902,-112.5 529.902,-131.5 585.902,-131.5 585.902,-112.5 529.902,-112.5"/>
<text text-anchor="middle" x="557.902" y="-119.5" font-family="Helvetica,sans-Serif" font-size="10.00">color.hpp</text>
</a>
</g>
</g>
<!-- Node2&#45;&gt;Node11 -->
<g id="edge10" class="edge"><title>Node2&#45;&gt;Node11</title>
<path fill="none" stroke="midnightblue" d="M557.902,-173.975C557.902,-165.58 557.902,-152.481 557.902,-141.663"/>
<polygon fill="midnightblue" stroke="midnightblue" points="561.402,-141.509 557.902,-131.509 554.402,-141.509 561.402,-141.509"/>
</g>
<!-- Node15 -->
<g id="node15" class="node"><title>Node15</title>
<g id="a_node15"><a xlink:href="quickstream_8hpp.html" target="_top" xlink:title="quickstream.hpp">
<polygon fill="none" stroke="black" points="603.402,-112.5 603.402,-131.5 692.402,-131.5 692.402,-112.5 603.402,-112.5"/>
<text text-anchor="middle" x="647.902" y="-119.5" font-family="Helvetica,sans-Serif" font-size="10.00">quickstream.hpp</text>
</a>
</g>
</g>
<!-- Node2&#45;&gt;Node15 -->
<g id="edge16" class="edge"><title>Node2&#45;&gt;Node15</title>
<path fill="none" stroke="midnightblue" d="M570.797,-173.975C585.366,-164.343 609.304,-148.517 626.648,-137.052"/>
<polygon fill="midnightblue" stroke="midnightblue" points="628.62,-139.944 635.031,-131.509 624.759,-134.104 628.62,-139.944"/>
</g>
<!-- Node11&#45;&gt;Node3 -->
<g id="edge11" class="edge"><title>Node11&#45;&gt;Node3</title>
<path fill="none" stroke="midnightblue" d="M586.153,-113.718C588.767,-113.11 591.38,-112.528 593.902,-112 677.147,-94.5803 776.13,-79.232 826.642,-71.7809"/>
<polygon fill="midnightblue" stroke="midnightblue" points="827.275,-75.2256 836.662,-70.3128 826.26,-68.2995 827.275,-75.2256"/>
</g>
<!-- Node11&#45;&gt;Node7 -->
<g id="edge12" class="edge"><title>Node11&#45;&gt;Node7</title>
<path fill="none" stroke="midnightblue" d="M530.648,-112.444C499.536,-102.676 448.773,-86.7385 416.376,-76.5673"/>
<polygon fill="midnightblue" stroke="midnightblue" points="417.14,-73.1388 406.551,-73.4826 415.043,-79.8174 417.14,-73.1388"/>
</g>
<!-- Node12 -->
<g id="node12" class="node"><title>Node12</title>
<g id="a_node12"><a xlink:href="math_8hpp.html" target="_top" xlink:title="math.hpp">
<polygon fill="none" stroke="black" points="560.402,-56.5 560.402,-75.5 617.402,-75.5 617.402,-56.5 560.402,-56.5"/>
<text text-anchor="middle" x="588.902" y="-63.5" font-family="Helvetica,sans-Serif" font-size="10.00">math.hpp</text>
</a>
</g>
</g>
<!-- Node11&#45;&gt;Node12 -->
<g id="edge13" class="edge"><title>Node11&#45;&gt;Node12</title>
<path fill="none" stroke="midnightblue" d="M563.021,-112.083C567.31,-104.613 573.56,-93.7244 578.845,-84.5199"/>
<polygon fill="midnightblue" stroke="midnightblue" points="581.935,-86.1662 583.878,-75.7511 575.864,-82.6811 581.935,-86.1662"/>
</g>
<!-- Node14 -->
<g id="node14" class="node"><title>Node14</title>
<g id="a_node14"><a xlink:href="c_09_09-compat_8hpp.html" target="_top" xlink:title="This file defined some compatibility for features of C++14 and beyond. ">
<polygon fill="none" stroke="black" points="667.902,-56.5 667.902,-75.5 755.902,-75.5 755.902,-56.5 667.902,-56.5"/>
<text text-anchor="middle" x="711.902" y="-63.5" font-family="Helvetica,sans-Serif" font-size="10.00">c++&#45;compat.hpp</text>
</a>
</g>
</g>
<!-- Node11&#45;&gt;Node14 -->
<g id="edge15" class="edge"><title>Node11&#45;&gt;Node14</title>
<path fill="none" stroke="midnightblue" d="M582.304,-112.444C608.099,-103.399 648.979,-89.064 677.92,-78.9158"/>
<polygon fill="midnightblue" stroke="midnightblue" points="679.336,-82.1283 687.615,-75.5164 677.02,-75.5226 679.336,-82.1283"/>
</g>
<!-- Node13 -->
<g id="node13" class="node"><title>Node13</title>
<polygon fill="none" stroke="#bfbfbf" points="826.902,-0.5 826.902,-19.5 882.902,-19.5 882.902,-0.5 826.902,-0.5"/>
<text text-anchor="middle" x="854.902" y="-7.5" font-family="Helvetica,sans-Serif" font-size="10.00">algorithm</text>
</g>
<!-- Node12&#45;&gt;Node13 -->
<g id="edge14" class="edge"><title>Node12&#45;&gt;Node13</title>
<path fill="none" stroke="midnightblue" d="M617.622,-59.1697C665.832,-49.3826 763.033,-29.6502 816.862,-18.7225"/>
<polygon fill="midnightblue" stroke="midnightblue" points="817.6,-22.144 826.704,-16.7244 816.208,-15.284 817.6,-22.144"/>
</g>
<!-- Node15&#45;&gt;Node7 -->
<g id="edge17" class="edge"><title>Node15&#45;&gt;Node7</title>
<path fill="none" stroke="midnightblue" d="M606.388,-112.444C553.534,-101.55 463.455,-82.9841 416.466,-73.2994"/>
<polygon fill="midnightblue" stroke="midnightblue" points="417.08,-69.8524 406.579,-71.2616 415.666,-76.7083 417.08,-69.8524"/>
</g>
<!-- Node15&#45;&gt;Node16 -->
<g id="edge18" class="edge"><title>Node15&#45;&gt;Node16</title>
<path fill="none" stroke="midnightblue" d="M692.411,-113.283C695.282,-112.834 698.131,-112.403 700.902,-112 827.181,-93.6511 978.344,-77.0016 1042.12,-70.2198"/>
<polygon fill="midnightblue" stroke="midnightblue" points="1042.71,-73.6766 1052.29,-69.1434 1041.98,-66.7155 1042.71,-73.6766"/>
</g>
<!-- Node19&#45;&gt;Node2 -->
<g id="edge37" class="edge"><title>Node19&#45;&gt;Node2</title>
<path fill="none" stroke="midnightblue" d="M317.067,-300.816C354.633,-294.304 418.938,-280.354 468.902,-255 497.302,-240.589 525.303,-216.288 542.098,-200.32"/>
<polygon fill="midnightblue" stroke="midnightblue" points="544.661,-202.709 549.395,-193.231 539.783,-197.689 544.661,-202.709"/>
</g>
<!-- Node19&#45;&gt;Node6 -->
<g id="edge26" class="edge"><title>Node19&#45;&gt;Node6</title>
<path fill="none" stroke="midnightblue" d="M293.523,-296.698C318.29,-268.09 396.793,-177.415 429.441,-139.703"/>
<polygon fill="midnightblue" stroke="midnightblue" points="432.459,-141.565 436.358,-131.714 427.167,-136.983 432.459,-141.565"/>
</g>
<!-- Node19&#45;&gt;Node7 -->
<g id="edge27" class="edge"><title>Node19&#45;&gt;Node7</title>
<path fill="none" stroke="midnightblue" d="M269.595,-296.923C250.495,-286.877 217.901,-269.732 189.902,-255 173.012,-246.113 169.743,-241.779 151.902,-235 89.4277,-211.262 47.1166,-251.611 5.90225,-199 -2.59426,-188.154 -1.08983,-179.872 5.90225,-168 31.9502,-123.774 58.3962,-128.782 106.902,-112 193.694,-81.972 302.728,-71.7976 355.075,-68.4974"/>
<polygon fill="midnightblue" stroke="midnightblue" points="355.579,-71.9739 365.357,-67.8929 355.168,-64.986 355.579,-71.9739"/>
</g>
<!-- Node19&#45;&gt;Node9 -->
<g id="edge28" class="edge"><title>Node19&#45;&gt;Node9</title>
<path fill="none" stroke="midnightblue" d="M297.296,-296.813C329.893,-272.41 427.096,-202.761 518.902,-168 527.371,-164.793 634.138,-144.76 700.168,-132.53"/>
<polygon fill="midnightblue" stroke="midnightblue" points="701.198,-135.898 710.394,-130.637 699.924,-129.015 701.198,-135.898"/>
</g>
<!-- Node20 -->
<g id="node20" class="node"><title>Node20</title>
<polygon fill="none" stroke="#bfbfbf" points="30.9023,-235.5 30.9023,-254.5 80.9023,-254.5 80.9023,-235.5 30.9023,-235.5"/>
<text text-anchor="middle" x="55.9023" y="-242.5" font-family="Helvetica,sans-Serif" font-size="10.00">iomanip</text>
</g>
<!-- Node19&#45;&gt;Node20 -->
<g id="edge23" class="edge"><title>Node19&#45;&gt;Node20</title>
<path fill="none" stroke="midnightblue" d="M254.656,-297.517C217.85,-288.099 154.603,-271.869 90.9508,-255.262"/>
<polygon fill="midnightblue" stroke="midnightblue" points="91.7082,-251.843 81.1484,-252.703 89.9397,-258.616 91.7082,-251.843"/>
</g>
<!-- Node21 -->
<g id="node21" class="node"><title>Node21</title>
<polygon fill="none" stroke="#bfbfbf" points="14.9023,-174 14.9023,-193 68.9023,-193 68.9023,-174 14.9023,-174"/>
<text text-anchor="middle" x="41.9023" y="-181" font-family="Helvetica,sans-Serif" font-size="10.00">iostream</text>
</g>
<!-- Node19&#45;&gt;Node21 -->
<g id="edge24" class="edge"><title>Node19&#45;&gt;Node21</title>
<path fill="none" stroke="midnightblue" d="M254.482,-304.31C191.025,-301.178 51.1177,-290.334 21.9023,-255 9.41467,-239.897 19.1947,-217.446 28.9671,-201.957"/>
<polygon fill="midnightblue" stroke="midnightblue" points="32.1023,-203.572 34.8516,-193.34 26.3216,-199.624 32.1023,-203.572"/>
</g>
<!-- Node22 -->
<g id="node22" class="node"><title>Node22</title>
<polygon fill="none" stroke="#bfbfbf" points="98.9023,-235.5 98.9023,-254.5 142.902,-254.5 142.902,-235.5 98.9023,-235.5"/>
<text text-anchor="middle" x="120.902" y="-242.5" font-family="Helvetica,sans-Serif" font-size="10.00">mutex</text>
</g>
<!-- Node19&#45;&gt;Node22 -->
<g id="edge25" class="edge"><title>Node19&#45;&gt;Node22</title>
<path fill="none" stroke="midnightblue" d="M262.262,-296.975C233.476,-286.595 184.742,-269.021 152.691,-257.463"/>
<polygon fill="midnightblue" stroke="midnightblue" points="153.511,-254.038 142.917,-253.939 151.137,-260.623 153.511,-254.038"/>
</g>
<!-- Node23 -->
<g id="node23" class="node"><title>Node23</title>
<g id="a_node23"><a xlink:href="multibuf_8hpp.html" target="_top" xlink:title="multibuf.hpp">
<polygon fill="none" stroke="black" points="198.902,-235.5 198.902,-254.5 268.902,-254.5 268.902,-235.5 198.902,-235.5"/>
<text text-anchor="middle" x="233.902" y="-242.5" font-family="Helvetica,sans-Serif" font-size="10.00">multibuf.hpp</text>
</a>
</g>
</g>
<!-- Node19&#45;&gt;Node23 -->
<g id="edge29" class="edge"><title>Node19&#45;&gt;Node23</title>
<path fill="none" stroke="midnightblue" d="M278.452,-296.975C270.575,-287.962 257.957,-273.525 248.158,-262.312"/>
<polygon fill="midnightblue" stroke="midnightblue" points="250.555,-259.736 241.339,-254.509 245.284,-264.342 250.555,-259.736"/>
</g>
<!-- Node27 -->
<g id="node27" class="node"><title>Node27</title>
<g id="a_node27"><a xlink:href="settings_8hpp.html" target="_top" xlink:title="settings.hpp">
<polygon fill="none" stroke="black" points="677.902,-235.5 677.902,-254.5 747.902,-254.5 747.902,-235.5 677.902,-235.5"/>
<text text-anchor="middle" x="712.902" y="-242.5" font-family="Helvetica,sans-Serif" font-size="10.00">settings.hpp</text>
</a>
</g>
</g>
<!-- Node19&#45;&gt;Node27 -->
<g id="edge38" class="edge"><title>Node19&#45;&gt;Node27</title>
<path fill="none" stroke="midnightblue" d="M316.955,-301.173C391.46,-290.791 580.621,-264.433 667.729,-252.295"/>
<polygon fill="midnightblue" stroke="midnightblue" points="668.41,-255.734 677.832,-250.887 667.444,-248.801 668.41,-255.734"/>
</g>
<!-- Node23&#45;&gt;Node7 -->
<g id="edge33" class="edge"><title>Node23&#45;&gt;Node7</title>
<path fill="none" stroke="midnightblue" d="M199.288,-235.456C168.105,-226.975 125.697,-213.219 115.902,-199 108.899,-188.835 105.829,-124.845 116.902,-112 147.443,-76.5718 291.063,-69.0251 355.032,-67.4258"/>
<polygon fill="midnightblue" stroke="midnightblue" points="355.375,-70.9193 365.297,-67.2037 355.224,-63.9209 355.375,-70.9193"/>
</g>
<!-- Node23&#45;&gt;Node10 -->
<g id="edge32" class="edge"><title>Node23&#45;&gt;Node10</title>
<path fill="none" stroke="midnightblue" d="M247.338,-235.334C258.647,-227.304 274.31,-214.31 282.902,-199 292.859,-181.257 296.287,-157.944 297.424,-141.84"/>
<polygon fill="midnightblue" stroke="midnightblue" points="300.933,-141.725 297.909,-131.571 293.941,-141.395 300.933,-141.725"/>
</g>
<!-- Node23&#45;&gt;Node21 -->
<g id="edge30" class="edge"><title>Node23&#45;&gt;Node21</title>
<path fill="none" stroke="midnightblue" d="M203.682,-235.478C173.099,-226.741 124.519,-212.551 82.9023,-199 80.4524,-198.202 77.9271,-197.36 75.3901,-196.498"/>
<polygon fill="midnightblue" stroke="midnightblue" points="76.2761,-193.101 65.6813,-193.137 73.9864,-199.716 76.2761,-193.101"/>
</g>
<!-- Node24 -->
<g id="node24" class="node"><title>Node24</title>
<polygon fill="none" stroke="#bfbfbf" points="124.902,-174 124.902,-193 174.902,-193 174.902,-174 124.902,-174"/>
<text text-anchor="middle" x="149.902" y="-181" font-family="Helvetica,sans-Serif" font-size="10.00">fstream</text>
</g>
<!-- Node23&#45;&gt;Node24 -->
<g id="edge31" class="edge"><title>Node23&#45;&gt;Node24</title>
<path fill="none" stroke="midnightblue" d="M221.867,-235.475C208.394,-225.931 186.336,-210.307 170.187,-198.868"/>
<polygon fill="midnightblue" stroke="midnightblue" points="172.098,-195.933 161.915,-193.009 168.052,-201.645 172.098,-195.933"/>
</g>
<!-- Node25 -->
<g id="node25" class="node"><title>Node25</title>
<g id="a_node25"><a xlink:href="maybe__ptr_8hpp.html" target="_top" xlink:title="maybe_ptr.hpp">
<polygon fill="none" stroke="black" points="193.402,-174 193.402,-193 274.402,-193 274.402,-174 193.402,-174"/>
<text text-anchor="middle" x="233.902" y="-181" font-family="Helvetica,sans-Serif" font-size="10.00">maybe_ptr.hpp</text>
</a>
</g>
</g>
<!-- Node23&#45;&gt;Node25 -->
<g id="edge34" class="edge"><title>Node23&#45;&gt;Node25</title>
<path fill="none" stroke="midnightblue" d="M233.902,-235.475C233.902,-227.08 233.902,-213.981 233.902,-203.163"/>
<polygon fill="midnightblue" stroke="midnightblue" points="237.402,-203.009 233.902,-193.009 230.402,-203.009 237.402,-203.009"/>
</g>
<!-- Node25&#45;&gt;Node5 -->
<g id="edge35" class="edge"><title>Node25&#45;&gt;Node5</title>
<path fill="none" stroke="midnightblue" d="M233.616,-173.975C233.334,-165.58 232.893,-152.481 232.53,-141.663"/>
<polygon fill="midnightblue" stroke="midnightblue" points="236.022,-141.386 232.188,-131.509 229.026,-141.621 236.022,-141.386"/>
</g>
<!-- Node26 -->
<g id="node26" class="node"><title>Node26</title>
<polygon fill="none" stroke="#bfbfbf" points="125.902,-112.5 125.902,-131.5 187.902,-131.5 187.902,-112.5 125.902,-112.5"/>
<text text-anchor="middle" x="156.902" y="-119.5" font-family="Helvetica,sans-Serif" font-size="10.00">type_traits</text>
</g>
<!-- Node25&#45;&gt;Node26 -->
<g id="edge36" class="edge"><title>Node25&#45;&gt;Node26</title>
<path fill="none" stroke="midnightblue" d="M222.87,-173.975C210.634,-164.52 190.674,-149.096 175.909,-137.687"/>
<polygon fill="midnightblue" stroke="midnightblue" points="177.967,-134.854 167.914,-131.509 173.687,-140.393 177.967,-134.854"/>
</g>
<!-- Node27&#45;&gt;Node2 -->
<g id="edge44" class="edge"><title>Node27&#45;&gt;Node2</title>
<path fill="none" stroke="midnightblue" d="M690.695,-235.475C664.222,-225.313 619.789,-208.256 589.683,-196.7"/>
<polygon fill="midnightblue" stroke="midnightblue" points="590.659,-193.325 580.069,-193.009 588.15,-199.86 590.659,-193.325"/>
</g>
<!-- Node27&#45;&gt;Node3 -->
<g id="edge40" class="edge"><title>Node27&#45;&gt;Node3</title>
<path fill="none" stroke="midnightblue" d="M739.798,-235.437C758.669,-228.265 783.383,-216.379 799.902,-199 831.455,-165.805 848.464,-113.124 855.665,-85.4184"/>
<polygon fill="midnightblue" stroke="midnightblue" points="859.113,-86.0514 858.095,-75.5056 852.314,-84.3846 859.113,-86.0514"/>
</g>
<!-- Node27&#45;&gt;Node7 -->
<g id="edge39" class="edge"><title>Node27&#45;&gt;Node7</title>
<path fill="none" stroke="midnightblue" d="M677.594,-239.112C637.956,-232.876 572.21,-220.269 518.902,-199 464.317,-177.221 441.024,-178.358 404.902,-132 394.525,-118.682 389.811,-99.8508 387.673,-85.8834"/>
<polygon fill="midnightblue" stroke="midnightblue" points="391.142,-85.422 386.45,-75.9227 384.194,-86.2745 391.142,-85.422"/>
</g>
<!-- Node27&#45;&gt;Node9 -->
<g id="edge41" class="edge"><title>Node27&#45;&gt;Node9</title>
<path fill="none" stroke="midnightblue" d="M717.068,-235.18C721.198,-226.211 727.526,-211.843 731.902,-199 738.489,-179.671 744.21,-156.965 747.826,-141.438"/>
<polygon fill="midnightblue" stroke="midnightblue" points="751.27,-142.078 750.07,-131.552 744.444,-140.529 751.27,-142.078"/>
</g>
<!-- Node27&#45;&gt;Node14 -->
<g id="edge43" class="edge"><title>Node27&#45;&gt;Node14</title>
<path fill="none" stroke="midnightblue" d="M727.03,-235.197C758.872,-214.222 831.254,-159.493 801.902,-112 792.229,-96.348 775.28,-85.958 758.68,-79.1496"/>
<polygon fill="midnightblue" stroke="midnightblue" points="759.597,-75.7561 749.005,-75.5421 757.152,-82.3151 759.597,-75.7561"/>
</g>
<!-- Node28 -->
<g id="node28" class="node"><title>Node28</title>
<polygon fill="none" stroke="#bfbfbf" points="622.402,-168.5 622.402,-198.5 723.402,-198.5 723.402,-168.5 622.402,-168.5"/>
<text text-anchor="start" x="630.402" y="-186.5" font-family="Helvetica,sans-Serif" font-size="10.00">boost/property_tree</text>
<text text-anchor="middle" x="672.902" y="-175.5" font-family="Helvetica,sans-Serif" font-size="10.00">/ptree.hpp</text>
</g>
<!-- Node27&#45;&gt;Node28 -->
<g id="edge42" class="edge"><title>Node27&#45;&gt;Node28</title>
<path fill="none" stroke="midnightblue" d="M707.171,-235.475C702.159,-228.019 694.651,-216.852 687.94,-206.869"/>
<polygon fill="midnightblue" stroke="midnightblue" points="690.813,-204.869 682.329,-198.523 685.004,-208.775 690.813,-204.869"/>
</g>
<!-- Node29&#45;&gt;Node7 -->
<g id="edge50" class="edge"><title>Node29&#45;&gt;Node7</title>
<path fill="none" stroke="midnightblue" d="M898.891,-296.962C890.101,-294.915 880.673,-292.802 871.902,-291 775.758,-271.247 521.484,-253.575 439.902,-199 409.239,-178.488 403.695,-166.603 390.902,-132 385.438,-117.221 384.439,-99.2928 384.663,-86.0116"/>
<polygon fill="midnightblue" stroke="midnightblue" points="388.172,-85.8705 385.095,-75.7325 381.178,-85.5769 388.172,-85.8705"/>
</g>
<!-- Node29&#45;&gt;Node8 -->
<g id="edge49" class="edge"><title>Node29&#45;&gt;Node8</title>
<path fill="none" stroke="midnightblue" d="M934.77,-296.698C937.533,-268.693 946.161,-181.213 950.013,-142.16"/>
<polygon fill="midnightblue" stroke="midnightblue" points="953.544,-142.009 951.043,-131.714 946.578,-141.322 953.544,-142.009"/>
</g>
<!-- Node29&#45;&gt;Node13 -->
<g id="edge46" class="edge"><title>Node29&#45;&gt;Node13</title>
<path fill="none" stroke="midnightblue" d="M955.468,-296.853C1004.85,-276.376 1121.9,-223.703 1121.9,-184.5 1121.9,-184.5 1121.9,-184.5 1121.9,-121 1121.9,-90.7745 1124.5,-76.0719 1101.9,-56 1071.56,-29.0479 954.654,-17.4952 893.183,-13.1999"/>
<polygon fill="midnightblue" stroke="midnightblue" points="893.31,-9.70063 883.099,-12.5257 892.843,-16.685 893.31,-9.70063"/>
</g>
<!-- Node29&#45;&gt;Node16 -->
<g id="edge48" class="edge"><title>Node29&#45;&gt;Node16</title>
<path fill="none" stroke="midnightblue" d="M957.405,-296.984C976.658,-288.902 1003.34,-275.003 1019.9,-255 1061.86,-204.331 1070.66,-122.49 1072.47,-85.8221"/>
<polygon fill="midnightblue" stroke="midnightblue" points="1075.97,-85.7218 1072.84,-75.6011 1068.98,-85.4671 1075.97,-85.7218"/>
</g>
<!-- Node29&#45;&gt;Node26 -->
<g id="edge51" class="edge"><title>Node29&#45;&gt;Node26</title>
<path fill="none" stroke="midnightblue" d="M900.585,-296.955C891.34,-294.79 881.27,-292.622 871.902,-291 732.186,-266.814 693.875,-283.149 554.902,-255 468.619,-237.523 448.357,-227.03 364.902,-199 327.968,-186.595 319.472,-181.442 282.902,-168 251.914,-156.61 216.496,-143.996 191.119,-135.029"/>
<polygon fill="midnightblue" stroke="midnightblue" points="192.172,-131.689 181.577,-131.661 189.843,-138.29 192.172,-131.689"/>
</g>
<!-- Node29&#45;&gt;Node27 -->
<g id="edge52" class="edge"><title>Node29&#45;&gt;Node27</title>
<path fill="none" stroke="midnightblue" d="M902.238,-296.975C863.344,-286.504 797.26,-268.712 754.354,-257.16"/>
<polygon fill="midnightblue" stroke="midnightblue" points="755.074,-253.729 744.507,-254.509 753.254,-260.489 755.074,-253.729"/>
</g>
<!-- Node30 -->
<g id="node30" class="node"><title>Node30</title>
<polygon fill="none" stroke="#bfbfbf" points="964.402,-235.5 964.402,-254.5 1011.4,-254.5 1011.4,-235.5 964.402,-235.5"/>
<text text-anchor="middle" x="987.902" y="-242.5" font-family="Helvetica,sans-Serif" font-size="10.00">iterator</text>
</g>
<!-- Node29&#45;&gt;Node30 -->
<g id="edge47" class="edge"><title>Node29&#45;&gt;Node30</title>
<path fill="none" stroke="midnightblue" d="M941.639,-296.975C949.9,-287.873 963.179,-273.241 973.397,-261.983"/>
<polygon fill="midnightblue" stroke="midnightblue" points="976.051,-264.266 980.18,-254.509 970.867,-259.562 976.051,-264.266"/>
</g>
<!-- Node31&#45;&gt;Node4 -->
<g id="edge54" class="edge"><title>Node31&#45;&gt;Node4</title>
<path fill="none" stroke="midnightblue" d="M1042.08,-296.698C1039.47,-268.693 1031.32,-181.213 1027.69,-142.16"/>
<polygon fill="midnightblue" stroke="midnightblue" points="1031.13,-141.346 1026.71,-131.714 1024.16,-141.996 1031.13,-141.346"/>
</g>
<!-- Node32 -->
<g id="node32" class="node"><title>Node32</title>
<polygon fill="none" stroke="#bfbfbf" points="1149.9,-235.5 1149.9,-254.5 1189.9,-254.5 1189.9,-235.5 1149.9,-235.5"/>
<text text-anchor="middle" x="1169.9" y="-242.5" font-family="Helvetica,sans-Serif" font-size="10.00">utility</text>
</g>
<!-- Node31&#45;&gt;Node32 -->
<g id="edge55" class="edge"><title>Node31&#45;&gt;Node32</title>
<path fill="none" stroke="midnightblue" d="M1061.1,-296.975C1082.41,-286.99 1117.93,-270.348 1142.57,-258.807"/>
<polygon fill="midnightblue" stroke="midnightblue" points="1144.17,-261.921 1151.74,-254.509 1141.2,-255.582 1144.17,-261.921"/>
</g>
</g>
</svg>
        <g id="navigator" transform="translate(0 0)" fill="#404254">
                <rect fill="#f2f5e9" fill-opacity="0.5" stroke="#606060" stroke-width=".5" x="0" y="0" width="60" height="60"/>
                <use id="zoomplus" xlink:href="#zoomPlus" x="17" y="9" onmousedown="handleZoom(evt,'in')"/>
                <use id="zoomminus" xlink:href="#zoomMin" x="42" y="9" onmousedown="handleZoom(evt,'out')"/>
                <use id="reset" xlink:href="#resetDef" x="30" y="36" onmousedown="handleReset()"/>
                <g id="arrowUp" xlink:href="#dirArrow" transform="translate(30 24)" onmousedown="handlePan(0,-1)">
                  <use xlink:href="#rim" fill="#404040">
                        <set attributeName="fill" to="#808080" begin="arrowUp.mouseover" end="arrowUp.mouseout"/>
                  </use>
                  <path fill="none" stroke="white" stroke-width="1.5" d="M0,-3.0v7 M-2.5,-0.5L0,-3.0L2.5,-0.5"/>
                </g>
                <g id="arrowRight" xlink:href="#dirArrow" transform="rotate(90) translate(36 -43)" onmousedown="handlePan(1,0)">
                  <use xlink:href="#rim" fill="#404040">
                        <set attributeName="fill" to="#808080" begin="arrowRight.mouseover" end="arrowRight.mouseout"/>
                  </use>
                  <path fill="none" stroke="white" stroke-width="1.5" d="M0,-3.0v7 M-2.5,-0.5L0,-3.0L2.5,-0.5"/>
                </g>
                <g id="arrowDown" xlink:href="#dirArrow" transform="rotate(180) translate(-30 -48)" onmousedown="handlePan(0,1)">
                  <use xlink:href="#rim" fill="#404040">
                        <set attributeName="fill" to="#808080" begin="arrowDown.mouseover" end="arrowDown.mouseout"/>
                  </use>
                  <path fill="none" stroke="white" stroke-width="1.5" d="M0,-3.0v7 M-2.5,-0.5L0,-3.0L2.5,-0.5"/>
                </g>
                <g id="arrowLeft" xlink:href="#dirArrow" transform="rotate(270) translate(-36 17)" onmousedown="handlePan(-1,0)">
                  <use xlink:href="#rim" fill="#404040">
                        <set attributeName="fill" to="#808080" begin="arrowLeft.mouseover" end="arrowLeft.mouseout"/>
                  </use>
                  <path fill="none" stroke="white" stroke-width="1.5" d="M0,-3.0v7 M-2.5,-0.5L0,-3.0L2.5,-0.5"/>
                </g>
        </g>
        <svg viewBox="0 0 15 15" width="100%" height="30px" preserveAspectRatio="xMaxYMin meet">
         <g id="arrow_out" transform="scale(0.3 0.3)">
          <a xlink:href="string_8cpp__incl_org.svg" target="_base">
           <rect id="button" ry="5" rx="5" y="6" x="6" height="38" width="38"
                fill="#f2f5e9" fill-opacity="0.5" stroke="#606060" stroke-width="1.0"/>
           <path id="arrow"
             d="M 11.500037,31.436501 C 11.940474,20.09759 22.043105,11.32322 32.158766,21.979434 L 37.068811,17.246167 C 37.068811,17.246167 37.088388,32 37.088388,32 L 22.160133,31.978069 C 22.160133,31.978069 26.997745,27.140456 26.997745,27.140456 C 18.528582,18.264221 13.291696,25.230495 11.500037,31.436501 z"
             style="fill:#404040;"/>
          </a>
         </g>
        </svg>
</svg>
