<?xml version="1.0" encoding="UTF-8" standalone="no"?>
<!DOCTYPE svg PUBLIC "-//W3C//DTD SVG 1.1//EN"
 "http://www.w3.org/Graphics/SVG/1.1/DTD/svg11.dtd">
<!-- Generated by graphviz version 2.38.0 (20140413.2041)
 -->
<!-- Title: src/string/string.hpp Pages: 1 -->
<!--zoomable 464 -->
<svg id="main" version="1.1" xmlns="http://www.w3.org/2000/svg" xmlns:xlink="http://www.w3.org/1999/xlink" xml:space="preserve" onload="init(evt)">
<style type="text/css"><![CDATA[
.edge:hover path { stroke: red; }
.edge:hover polygon { stroke: red; fill: red; }
]]></style>
<script type="text/javascript"><![CDATA[
var edges = document.getElementsByTagName('g');
if (edges && edges.length) {
  for (var i=0;i<edges.length;i++) {
    if (edges[i].id.substr(0,4)=='edge') {
      edges[i].setAttribute('class','edge');
    }
  }
}
]]></script>
        <defs>
                <circle id="rim" cx="0" cy="0" r="7"/>
                <circle id="rim2" cx="0" cy="0" r="3.5"/>
                <g id="zoomPlus">
                        <use xlink:href="#rim" fill="#404040">
                                <set attributeName="fill" to="#808080" begin="zoomplus.mouseover" end="zoomplus.mouseout"/>
                        </use>
                        <path d="M-4,0h8M0,-4v8" fill="none" stroke="white" stroke-width="1.5" pointer-events="none"/>
                </g>
                <g id="zoomMin">
                        <use xlink:href="#rim" fill="#404040">
                                <set attributeName="fill" to="#808080" begin="zoomminus.mouseover" end="zoomminus.mouseout"/>
                        </use>
                        <path d="M-4,0h8" fill="none" stroke="white" stroke-width="1.5" pointer-events="none"/>
                </g>
                <g id="dirArrow">
                        <path fill="none" stroke="white" stroke-width="1.5" d="M0,-3.0v7 M-2.5,-0.5L0,-3.0L2.5,-0.5"/>
                </g>
               <g id="resetDef">
                       <use xlink:href="#rim2" fill="#404040">
                               <set attributeName="fill" to="#808080" begin="reset.mouseover" end="reset.mouseout"/>
                       </use>
               </g>
        </defs>

<script type="text/javascript">
var viewWidth = 2091;
var viewHeight = 464;
var sectionId = 'dynsection-1';
</script>
<script xlink:href="svgpan.js"/>
<svg id="graph" class="graph">
<g id="viewport">
<title>src/string/string.hpp</title>
<!-- Node1 -->
<g id="node1" class="node"><title>Node1</title>
<polygon fill="#bfbfbf" stroke="black" points="1242,-436.5 1242,-455.5 1345,-455.5 1345,-436.5 1242,-436.5"/>
<text text-anchor="middle" x="1293.5" y="-443.5" font-family="Helvetica,sans-Serif" font-size="10.00">src/string/string.hpp</text>
</g>
<!-- Node2 -->
<g id="node2" class="node"><title>Node2</title>
<g id="a_node2"><a xlink:href="string_8cpp.html" target="_top" xlink:title="src/string/string.cpp">
<polygon fill="none" stroke="black" points="775,-324.5 775,-343.5 878,-343.5 878,-324.5 775,-324.5"/>
<text text-anchor="middle" x="826.5" y="-331.5" font-family="Helvetica,sans-Serif" font-size="10.00">src/string/string.cpp</text>
</a>
</g>
</g>
<!-- Node1&#45;&gt;Node2 -->
<g id="edge1" class="edge"><title>Node1&#45;&gt;Node2</title>
<path fill="none" stroke="midnightblue" d="M1247.29,-434.116C1154.38,-412.231 946.677,-363.307 862.733,-343.535"/>
<polygon fill="midnightblue" stroke="midnightblue" points="1246.71,-437.574 1257.24,-436.46 1248.31,-430.76 1246.71,-437.574"/>
</g>
<!-- Node3 -->
<g id="node3" class="node"><title>Node3</title>
<g id="a_node3"><a xlink:href="logger_8hpp.html" target="_top" xlink:title="src/string/logger.hpp">
<polygon fill="none" stroke="black" points="1241,-380.5 1241,-399.5 1346,-399.5 1346,-380.5 1241,-380.5"/>
<text text-anchor="middle" x="1293.5" y="-387.5" font-family="Helvetica,sans-Serif" font-size="10.00">src/string/logger.hpp</text>
</a>
</g>
</g>
<!-- Node1&#45;&gt;Node3 -->
<g id="edge2" class="edge"><title>Node1&#45;&gt;Node3</title>
<path fill="none" stroke="midnightblue" d="M1293.5,-425.805C1293.5,-416.91 1293.5,-406.78 1293.5,-399.751"/>
<polygon fill="midnightblue" stroke="midnightblue" points="1290,-426.083 1293.5,-436.083 1297,-426.083 1290,-426.083"/>
</g>
<!-- Node5 -->
<g id="node5" class="node"><title>Node5</title>
<g id="a_node5"><a xlink:href="src_2network_2connection_8hpp.html" target="_top" xlink:title="src/network/connection.hpp">
<polygon fill="none" stroke="black" points="953,-324.5 953,-343.5 1090,-343.5 1090,-324.5 953,-324.5"/>
<text text-anchor="middle" x="1021.5" y="-331.5" font-family="Helvetica,sans-Serif" font-size="10.00">src/network/connection.hpp</text>
</a>
</g>
</g>
<!-- Node1&#45;&gt;Node5 -->
<g id="edge56" class="edge"><title>Node1&#45;&gt;Node5</title>
<path fill="none" stroke="midnightblue" d="M1262.8,-432.586C1207.08,-410.05 1090.62,-362.951 1042.74,-343.591"/>
<polygon fill="midnightblue" stroke="midnightblue" points="1261.57,-435.864 1272.16,-436.368 1264.2,-429.375 1261.57,-435.864"/>
</g>
<!-- Node36 -->
<g id="node36" class="node"><title>Node36</title>
<g id="a_node36"><a xlink:href="irc__formatter_8hpp.html" target="_top" xlink:title="modules/irc/irc_formatter.hpp">
<polygon fill="none" stroke="black" points="1840,-380.5 1840,-399.5 1983,-399.5 1983,-380.5 1840,-380.5"/>
<text text-anchor="middle" x="1911.5" y="-387.5" font-family="Helvetica,sans-Serif" font-size="10.00">modules/irc/irc_formatter.hpp</text>
</a>
</g>
</g>
<!-- Node1&#45;&gt;Node36 -->
<g id="edge57" class="edge"><title>Node1&#45;&gt;Node36</title>
<path fill="none" stroke="midnightblue" d="M1355.19,-439.61C1470.4,-429.543 1717.64,-407.939 1839.96,-397.251"/>
<polygon fill="midnightblue" stroke="midnightblue" points="1354.78,-436.132 1345.13,-440.489 1355.39,-443.105 1354.78,-436.132"/>
</g>
<!-- Node38 -->
<g id="node38" class="node"><title>Node38</title>
<g id="a_node38"><a xlink:href="formatter_8hpp.html" target="_top" xlink:title="modules/xonotic/formatter.hpp">
<polygon fill="none" stroke="black" points="1572,-380.5 1572,-399.5 1721,-399.5 1721,-380.5 1572,-380.5"/>
<text text-anchor="middle" x="1646.5" y="-387.5" font-family="Helvetica,sans-Serif" font-size="10.00">modules/xonotic/formatter.hpp</text>
</a>
</g>
</g>
<!-- Node1&#45;&gt;Node38 -->
<g id="edge60" class="edge"><title>Node1&#45;&gt;Node38</title>
<path fill="none" stroke="midnightblue" d="M1355.14,-435.57C1421.69,-425.39 1526.75,-409.319 1590.87,-399.511"/>
<polygon fill="midnightblue" stroke="midnightblue" points="1354.56,-432.118 1345.21,-437.09 1355.62,-439.038 1354.56,-432.118"/>
</g>
<!-- Node3&#45;&gt;Node2 -->
<g id="edge3" class="edge"><title>Node3&#45;&gt;Node2</title>
<path fill="none" stroke="midnightblue" d="M1230.64,-382.413C1151.64,-374.028 1011.93,-358.842 892.5,-344 887.795,-343.415 882.904,-342.787 878.007,-342.144"/>
<polygon fill="midnightblue" stroke="midnightblue" points="1230.59,-385.928 1240.91,-383.501 1231.33,-378.967 1230.59,-385.928"/>
</g>
<!-- Node4 -->
<g id="node4" class="node"><title>Node4</title>
<g id="a_node4"><a xlink:href="logger_8cpp.html" target="_top" xlink:title="src/string/logger.cpp">
<polygon fill="none" stroke="black" points="1300,-324.5 1300,-343.5 1405,-343.5 1405,-324.5 1300,-324.5"/>
<text text-anchor="middle" x="1352.5" y="-331.5" font-family="Helvetica,sans-Serif" font-size="10.00">src/string/logger.cpp</text>
</a>
</g>
</g>
<!-- Node3&#45;&gt;Node4 -->
<g id="edge4" class="edge"><title>Node3&#45;&gt;Node4</title>
<path fill="none" stroke="midnightblue" d="M1310.39,-373.537C1320.91,-363.909 1334.07,-351.869 1342.85,-343.834"/>
<polygon fill="midnightblue" stroke="midnightblue" points="1307.99,-370.99 1302.98,-380.324 1312.72,-376.154 1307.99,-370.99"/>
</g>
<!-- Node3&#45;&gt;Node5 -->
<g id="edge5" class="edge"><title>Node3&#45;&gt;Node5</title>
<path fill="none" stroke="midnightblue" d="M1240.48,-378.473C1189.07,-368.268 1112.06,-352.979 1064.4,-343.516"/>
<polygon fill="midnightblue" stroke="midnightblue" points="1239.91,-381.929 1250.4,-380.444 1241.27,-375.063 1239.91,-381.929"/>
</g>
<!-- Node8 -->
<g id="node8" class="node"><title>Node8</title>
<g id="a_node8"><a xlink:href="handler_8hpp.html" target="_top" xlink:title="src/handler/handler.hpp">
<polygon fill="none" stroke="black" points="800.5,-196 800.5,-215 918.5,-215 918.5,-196 800.5,-196"/>
<text text-anchor="middle" x="859.5" y="-203" font-family="Helvetica,sans-Serif" font-size="10.00">src/handler/handler.hpp</text>
</a>
</g>
</g>
<!-- Node3&#45;&gt;Node8 -->
<g id="edge40" class="edge"><title>Node3&#45;&gt;Node8</title>
<path fill="none" stroke="midnightblue" d="M1230.63,-387.353C1142.97,-383.987 989.612,-373.891 943.5,-344 894.206,-312.046 869.26,-239.991 861.887,-215.128"/>
<polygon fill="midnightblue" stroke="midnightblue" points="1230.6,-390.854 1240.72,-387.722 1230.85,-383.859 1230.6,-390.854"/>
</g>
<!-- Node25 -->
<g id="node25" class="node"><title>Node25</title>
<g id="a_node25"><a xlink:href="main_8cpp.html" target="_top" xlink:title="src/main.cpp">
<polygon fill="none" stroke="black" points="1447,-196 1447,-215 1520,-215 1520,-196 1447,-196"/>
<text text-anchor="middle" x="1483.5" y="-203" font-family="Helvetica,sans-Serif" font-size="10.00">src/main.cpp</text>
</a>
</g>
</g>
<!-- Node3&#45;&gt;Node25 -->
<g id="edge45" class="edge"><title>Node3&#45;&gt;Node25</title>
<path fill="none" stroke="midnightblue" d="M1356.23,-384.981C1387.57,-379.778 1423.76,-368.419 1447.5,-344 1483.28,-307.198 1484.68,-239.428 1483.95,-215.308"/>
<polygon fill="midnightblue" stroke="midnightblue" points="1355.63,-381.532 1346.25,-386.463 1356.66,-388.456 1355.63,-381.532"/>
</g>
<!-- Node28 -->
<g id="node28" class="node"><title>Node28</title>
<g id="a_node28"><a xlink:href="connection_8cpp.html" target="_top" xlink:title="modules/irc/network\l/connection.cpp">
<polygon fill="none" stroke="black" points="1314.5,-123.5 1314.5,-153.5 1418.5,-153.5 1418.5,-123.5 1314.5,-123.5"/>
<text text-anchor="start" x="1322.5" y="-141.5" font-family="Helvetica,sans-Serif" font-size="10.00">modules/irc/network</text>
<text text-anchor="middle" x="1366.5" y="-130.5" font-family="Helvetica,sans-Serif" font-size="10.00">/connection.cpp</text>
</a>
</g>
</g>
<!-- Node3&#45;&gt;Node28 -->
<g id="edge53" class="edge"><title>Node3&#45;&gt;Node28</title>
<path fill="none" stroke="midnightblue" d="M1356.2,-380.373C1378.02,-374.025 1400.31,-363.031 1413.5,-344 1455.93,-282.769 1400.58,-188.867 1376.59,-153.564"/>
<polygon fill="midnightblue" stroke="midnightblue" points="1355.03,-377.06 1346.24,-382.974 1356.8,-383.833 1355.03,-377.06"/>
</g>
<!-- Node29 -->
<g id="node29" class="node"><title>Node29</title>
<g id="a_node29"><a xlink:href="buffer_8hpp.html" target="_top" xlink:title="modules/irc/network\l/buffer.hpp">
<polygon fill="none" stroke="black" points="1126.5,-257.5 1126.5,-287.5 1230.5,-287.5 1230.5,-257.5 1126.5,-257.5"/>
<text text-anchor="start" x="1134.5" y="-275.5" font-family="Helvetica,sans-Serif" font-size="10.00">modules/irc/network</text>
<text text-anchor="middle" x="1178.5" y="-264.5" font-family="Helvetica,sans-Serif" font-size="10.00">/buffer.hpp</text>
</a>
</g>
</g>
<!-- Node3&#45;&gt;Node29 -->
<g id="edge55" class="edge"><title>Node3&#45;&gt;Node29</title>
<path fill="none" stroke="midnightblue" d="M1230.87,-381.715C1207.34,-375.586 1182.83,-364.392 1168.5,-344 1156.77,-327.312 1164.32,-302.849 1171.16,-287.566"/>
<polygon fill="midnightblue" stroke="midnightblue" points="1230.34,-385.183 1240.87,-384.043 1231.92,-378.366 1230.34,-385.183"/>
</g>
<!-- Node30 -->
<g id="node30" class="node"><title>Node30</title>
<g id="a_node30"><a xlink:href="settings_8cpp.html" target="_top" xlink:title="src/settings.cpp">
<polygon fill="none" stroke="black" points="1248.5,-263 1248.5,-282 1334.5,-282 1334.5,-263 1248.5,-263"/>
<text text-anchor="middle" x="1291.5" y="-270" font-family="Helvetica,sans-Serif" font-size="10.00">src/settings.cpp</text>
</a>
</g>
</g>
<!-- Node3&#45;&gt;Node30 -->
<g id="edge41" class="edge"><title>Node3&#45;&gt;Node30</title>
<path fill="none" stroke="midnightblue" d="M1231.02,-379.876C1209.82,-373.464 1188.28,-362.554 1175.5,-344 1170.46,-336.68 1170.63,-331.435 1175.5,-324 1185.55,-308.66 1231.85,-291.843 1262.83,-282.005"/>
<polygon fill="midnightblue" stroke="midnightblue" points="1230.13,-383.263 1240.7,-382.517 1231.97,-376.509 1230.13,-383.263"/>
</g>
<!-- Node31 -->
<g id="node31" class="node"><title>Node31</title>
<g id="a_node31"><a xlink:href="json_8hpp.html" target="_top" xlink:title="src/string/json.hpp">
<polygon fill="none" stroke="black" points="1185,-324.5 1185,-343.5 1282,-343.5 1282,-324.5 1185,-324.5"/>
<text text-anchor="middle" x="1233.5" y="-331.5" font-family="Helvetica,sans-Serif" font-size="10.00">src/string/json.hpp</text>
</a>
</g>
</g>
<!-- Node3&#45;&gt;Node31 -->
<g id="edge42" class="edge"><title>Node3&#45;&gt;Node31</title>
<path fill="none" stroke="midnightblue" d="M1276.32,-373.537C1265.62,-363.909 1252.24,-351.869 1243.32,-343.834"/>
<polygon fill="midnightblue" stroke="midnightblue" points="1274.09,-376.236 1283.86,-380.324 1278.77,-371.033 1274.09,-376.236"/>
</g>
<!-- Node32 -->
<g id="node32" class="node"><title>Node32</title>
<g id="a_node32"><a xlink:href="async__service_8hpp.html" target="_top" xlink:title="src/network/async_service.hpp">
<polygon fill="none" stroke="black" points="1499.5,-263 1499.5,-282 1651.5,-282 1651.5,-263 1499.5,-263"/>
<text text-anchor="middle" x="1575.5" y="-270" font-family="Helvetica,sans-Serif" font-size="10.00">src/network/async_service.hpp</text>
</a>
</g>
</g>
<!-- Node3&#45;&gt;Node32 -->
<g id="edge46" class="edge"><title>Node3&#45;&gt;Node32</title>
<path fill="none" stroke="midnightblue" d="M1356.16,-381.342C1394.84,-374.935 1444.7,-363.577 1485.5,-344 1519.14,-327.858 1551.91,-297.404 1566.94,-282.363"/>
<polygon fill="midnightblue" stroke="midnightblue" points="1355.4,-377.918 1346.07,-382.943 1356.5,-384.832 1355.4,-377.918"/>
</g>
<!-- Node34 -->
<g id="node34" class="node"><title>Node34</title>
<g id="a_node34"><a xlink:href="http_8cpp.html" target="_top" xlink:title="modules/web/http.cpp">
<polygon fill="none" stroke="black" points="1623,-129 1623,-148 1736,-148 1736,-129 1623,-129"/>
<text text-anchor="middle" x="1679.5" y="-136" font-family="Helvetica,sans-Serif" font-size="10.00">modules/web/http.cpp</text>
</a>
</g>
</g>
<!-- Node3&#45;&gt;Node34 -->
<g id="edge52" class="edge"><title>Node3&#45;&gt;Node34</title>
<path fill="none" stroke="midnightblue" d="M1356.36,-379.45C1401.45,-371.844 1463.37,-359.845 1516.5,-344 1539.44,-337.16 1544.21,-332.725 1566.5,-324 1608.16,-307.692 1632.85,-323.172 1660.5,-288 1694.23,-245.087 1685.41,-172.651 1681.15,-148.004"/>
<polygon fill="midnightblue" stroke="midnightblue" points="1355.72,-376.009 1346.43,-381.101 1356.87,-382.914 1355.72,-376.009"/>
</g>
<!-- Node35 -->
<g id="node35" class="node"><title>Node35</title>
<g id="a_node35"><a xlink:href="xonotic_8cpp.html" target="_top" xlink:title="modules/xonotic/xonotic.cpp">
<polygon fill="none" stroke="black" points="1576,-324.5 1576,-343.5 1717,-343.5 1717,-324.5 1576,-324.5"/>
<text text-anchor="middle" x="1646.5" y="-331.5" font-family="Helvetica,sans-Serif" font-size="10.00">modules/xonotic/xonotic.cpp</text>
</a>
</g>
</g>
<!-- Node3&#45;&gt;Node35 -->
<g id="edge54" class="edge"><title>Node3&#45;&gt;Node35</title>
<path fill="none" stroke="midnightblue" d="M1356.29,-379.395C1422.82,-369.217 1526.9,-353.296 1590.66,-343.541"/>
<polygon fill="midnightblue" stroke="midnightblue" points="1355.7,-375.944 1346.35,-380.916 1356.76,-382.863 1355.7,-375.944"/>
</g>
<!-- Node6 -->
<g id="node6" class="node"><title>Node6</title>
<g id="a_node6"><a xlink:href="melanobot_8hpp.html" target="_top" xlink:title="src/melanobot.hpp">
<polygon fill="none" stroke="black" points="973,-263 973,-282 1070,-282 1070,-263 973,-263"/>
<text text-anchor="middle" x="1021.5" y="-270" font-family="Helvetica,sans-Serif" font-size="10.00">src/melanobot.hpp</text>
</a>
</g>
</g>
<!-- Node5&#45;&gt;Node6 -->
<g id="edge6" class="edge"><title>Node5&#45;&gt;Node6</title>
<path fill="none" stroke="midnightblue" d="M1021.5,-314.317C1021.5,-303.496 1021.5,-290.398 1021.5,-282.009"/>
<polygon fill="midnightblue" stroke="midnightblue" points="1018,-314.475 1021.5,-324.475 1025,-314.475 1018,-314.475"/>
</g>
<!-- Node5&#45;&gt;Node8 -->
<g id="edge35" class="edge"><title>Node5&#45;&gt;Node8</title>
<path fill="none" stroke="midnightblue" d="M1002.44,-318.247C991.113,-309.474 976.475,-298.117 963.5,-288 929.491,-261.482 889.345,-229.959 870.417,-215.083"/>
<polygon fill="midnightblue" stroke="midnightblue" points="1000.32,-321.034 1010.37,-324.389 1004.61,-315.499 1000.32,-321.034"/>
</g>
<!-- Node26 -->
<g id="node26" class="node"><title>Node26</title>
<g id="a_node26"><a xlink:href="modules_2irc_2network_2connection_8hpp.html" target="_top" xlink:title="modules/irc/network\l/connection.hpp">
<polygon fill="none" stroke="black" points="1112.5,-190.5 1112.5,-220.5 1216.5,-220.5 1216.5,-190.5 1112.5,-190.5"/>
<text text-anchor="start" x="1120.5" y="-208.5" font-family="Helvetica,sans-Serif" font-size="10.00">modules/irc/network</text>
<text text-anchor="middle" x="1164.5" y="-197.5" font-family="Helvetica,sans-Serif" font-size="10.00">/connection.hpp</text>
</a>
</g>
</g>
<!-- Node5&#45;&gt;Node26 -->
<g id="edge39" class="edge"><title>Node5&#45;&gt;Node26</title>
<path fill="none" stroke="midnightblue" d="M1041.31,-318.066C1052.44,-309.504 1066.46,-298.417 1078.5,-288 1104.63,-265.385 1133.5,-237.353 1150.26,-220.753"/>
<polygon fill="midnightblue" stroke="midnightblue" points="1038.93,-315.482 1033.1,-324.331 1043.17,-321.047 1038.93,-315.482"/>
</g>
<!-- Node5&#45;&gt;Node29 -->
<g id="edge36" class="edge"><title>Node5&#45;&gt;Node29</title>
<path fill="none" stroke="midnightblue" d="M1053.57,-320.847C1079.07,-311.182 1114.78,-297.647 1141.5,-287.523"/>
<polygon fill="midnightblue" stroke="midnightblue" points="1052.1,-317.658 1043.99,-324.475 1054.59,-324.204 1052.1,-317.658"/>
</g>
<!-- Node7 -->
<g id="node7" class="node"><title>Node7</title>
<g id="a_node7"><a xlink:href="melanobot_8cpp.html" target="_top" xlink:title="src/melanobot.cpp">
<polygon fill="none" stroke="black" points="1039,-129 1039,-148 1136,-148 1136,-129 1039,-129"/>
<text text-anchor="middle" x="1087.5" y="-136" font-family="Helvetica,sans-Serif" font-size="10.00">src/melanobot.cpp</text>
</a>
</g>
</g>
<!-- Node6&#45;&gt;Node7 -->
<g id="edge7" class="edge"><title>Node6&#45;&gt;Node7</title>
<path fill="none" stroke="midnightblue" d="M1030.48,-253.54C1044.89,-224.717 1072.64,-169.224 1083.24,-148.021"/>
<polygon fill="midnightblue" stroke="midnightblue" points="1027.17,-252.33 1025.83,-262.839 1033.43,-255.46 1027.17,-252.33"/>
</g>
<!-- Node6&#45;&gt;Node8 -->
<g id="edge8" class="edge"><title>Node6&#45;&gt;Node8</title>
<path fill="none" stroke="midnightblue" d="M990.606,-259.104C958.441,-246.198 908.915,-226.327 880.843,-215.064"/>
<polygon fill="midnightblue" stroke="midnightblue" points="989.403,-262.393 999.988,-262.869 992.01,-255.896 989.403,-262.393"/>
</g>
<!-- Node6&#45;&gt;Node25 -->
<g id="edge30" class="edge"><title>Node6&#45;&gt;Node25</title>
<path fill="none" stroke="midnightblue" d="M1080.44,-262.476C1092.68,-260.635 1105.51,-258.733 1117.5,-257 1237.96,-239.593 1380.93,-220.246 1446.85,-211.398"/>
<polygon fill="midnightblue" stroke="midnightblue" points="1079.69,-259.05 1070.32,-264.003 1080.73,-265.972 1079.69,-259.05"/>
</g>
<!-- Node6&#45;&gt;Node26 -->
<g id="edge31" class="edge"><title>Node6&#45;&gt;Node26</title>
<path fill="none" stroke="midnightblue" d="M1049.83,-258.621C1074.02,-247.625 1108.75,-231.841 1133.64,-220.528"/>
<polygon fill="midnightblue" stroke="midnightblue" points="1048.14,-255.544 1040.49,-262.869 1051.04,-261.917 1048.14,-255.544"/>
</g>
<!-- Node8&#45;&gt;Node7 -->
<g id="edge9" class="edge"><title>Node8&#45;&gt;Node7</title>
<path fill="none" stroke="midnightblue" d="M899.519,-193.091C944.625,-180.232 1016.93,-159.618 1057.46,-148.064"/>
<polygon fill="midnightblue" stroke="midnightblue" points="898.434,-189.761 889.777,-195.869 900.353,-196.493 898.434,-189.761"/>
</g>
<!-- Node9 -->
<g id="node9" class="node"><title>Node9</title>
<g id="a_node9"><a xlink:href="misc_8cpp.html" target="_top" xlink:title="This file defines handlers which perform miscellaneous tasks. ">
<polygon fill="none" stroke="black" points="637,-129 637,-148 744,-148 744,-129 637,-129"/>
<text text-anchor="middle" x="690.5" y="-136" font-family="Helvetica,sans-Serif" font-size="10.00">src/handler/misc.cpp</text>
</a>
</g>
</g>
<!-- Node8&#45;&gt;Node9 -->
<g id="edge10" class="edge"><title>Node8&#45;&gt;Node9</title>
<path fill="none" stroke="midnightblue" d="M827.704,-192.271C794.162,-179.37 742.177,-159.376 712.766,-148.064"/>
<polygon fill="midnightblue" stroke="midnightblue" points="826.468,-195.545 837.058,-195.869 828.981,-189.012 826.468,-195.545"/>
</g>
<!-- Node10 -->
<g id="node10" class="node"><title>Node10</title>
<g id="a_node10"><a xlink:href="bridge_8hpp.html" target="_top" xlink:title="src/handler/bridge.hpp">
<polygon fill="none" stroke="black" points="0,-129 0,-148 113,-148 113,-129 0,-129"/>
<text text-anchor="middle" x="56.5" y="-136" font-family="Helvetica,sans-Serif" font-size="10.00">src/handler/bridge.hpp</text>
</a>
</g>
</g>
<!-- Node8&#45;&gt;Node10 -->
<g id="edge11" class="edge"><title>Node8&#45;&gt;Node10</title>
<path fill="none" stroke="midnightblue" d="M790.043,-203.242C658.788,-200.092 365.589,-189.369 121.5,-154 111.202,-152.508 100.111,-150.273 90.057,-148.001"/>
<polygon fill="midnightblue" stroke="midnightblue" points="790.268,-206.748 800.346,-203.481 790.43,-199.75 790.268,-206.748"/>
</g>
<!-- Node12 -->
<g id="node12" class="node"><title>Node12</title>
<g id="a_node12"><a xlink:href="admin_8cpp.html" target="_top" xlink:title="This file defines handlers which allows admin to administrate the bot. ">
<polygon fill="none" stroke="black" points="369,-129 369,-148 482,-148 482,-129 369,-129"/>
<text text-anchor="middle" x="425.5" y="-136" font-family="Helvetica,sans-Serif" font-size="10.00">src/handler/admin.cpp</text>
</a>
</g>
</g>
<!-- Node8&#45;&gt;Node12 -->
<g id="edge13" class="edge"><title>Node8&#45;&gt;Node12</title>
<path fill="none" stroke="midnightblue" d="M790.168,-196.661C715.998,-187.885 595.036,-172.447 491.5,-154 481.798,-152.271 471.357,-150.116 461.707,-148"/>
<polygon fill="midnightblue" stroke="midnightblue" points="789.976,-200.163 800.317,-197.855 790.794,-193.211 789.976,-200.163"/>
</g>
<!-- Node13 -->
<g id="node13" class="node"><title>Node13</title>
<g id="a_node13"><a xlink:href="handler_8cpp.html" target="_top" xlink:title="This file contains the definitions for the most basic and reusable handlers. ">
<polygon fill="none" stroke="black" points="500.5,-129 500.5,-148 618.5,-148 618.5,-129 500.5,-129"/>
<text text-anchor="middle" x="559.5" y="-136" font-family="Helvetica,sans-Serif" font-size="10.00">src/handler/handler.cpp</text>
</a>
</g>
</g>
<!-- Node8&#45;&gt;Node13 -->
<g id="edge14" class="edge"><title>Node8&#45;&gt;Node13</title>
<path fill="none" stroke="midnightblue" d="M810.129,-193.803C751.093,-181.012 653.459,-159.858 599.116,-148.083"/>
<polygon fill="midnightblue" stroke="midnightblue" points="809.457,-197.239 819.972,-195.936 810.94,-190.397 809.457,-197.239"/>
</g>
<!-- Node14 -->
<g id="node14" class="node"><title>Node14</title>
<g id="a_node14"><a xlink:href="fun-handlers_8hpp.html" target="_top" xlink:title="This file contains definitions for handlers which are pretty useless. ">
<polygon fill="none" stroke="black" points="983,-62 983,-81 1128,-81 1128,-62 983,-62"/>
<text text-anchor="middle" x="1055.5" y="-69" font-family="Helvetica,sans-Serif" font-size="10.00">modules/fun/fun&#45;handlers.hpp</text>
</a>
</g>
</g>
<!-- Node8&#45;&gt;Node14 -->
<g id="edge15" class="edge"><title>Node8&#45;&gt;Node14</title>
<path fill="none" stroke="midnightblue" d="M906.049,-193.112C932.524,-185.101 965.315,-172.469 990.5,-154 1018.52,-133.451 1041.07,-97.8817 1050.6,-81.3814"/>
<polygon fill="midnightblue" stroke="midnightblue" points="904.869,-189.81 896.241,-195.959 906.82,-196.533 904.869,-189.81"/>
</g>
<!-- Node17 -->
<g id="node17" class="node"><title>Node17</title>
<g id="a_node17"><a xlink:href="web-api_8hpp.html" target="_top" xlink:title="modules/web/web&#45;api.hpp">
<polygon fill="none" stroke="black" points="1436.5,-129 1436.5,-148 1566.5,-148 1566.5,-129 1436.5,-129"/>
<text text-anchor="middle" x="1501.5" y="-136" font-family="Helvetica,sans-Serif" font-size="10.00">modules/web/web&#45;api.hpp</text>
</a>
</g>
</g>
<!-- Node8&#45;&gt;Node17 -->
<g id="edge18" class="edge"><title>Node8&#45;&gt;Node17</title>
<path fill="none" stroke="midnightblue" d="M928.649,-200.696C1035.86,-194.271 1248.51,-179.421 1427.5,-154 1438.78,-152.398 1450.93,-150.211 1462.07,-148.02"/>
<polygon fill="midnightblue" stroke="midnightblue" points="928.383,-197.206 918.607,-201.292 928.797,-204.194 928.383,-197.206"/>
</g>
<!-- Node20 -->
<g id="node20" class="node"><title>Node20</title>
<g id="a_node20"><a xlink:href="irc__actions_8hpp.html" target="_top" xlink:title="File containing Handlers which manage responses to various IRC commands. ">
<polygon fill="none" stroke="black" points="881,-123.5 881,-153.5 982,-153.5 982,-123.5 881,-123.5"/>
<text text-anchor="start" x="889" y="-141.5" font-family="Helvetica,sans-Serif" font-size="10.00">modules/irc/handler</text>
<text text-anchor="middle" x="931.5" y="-130.5" font-family="Helvetica,sans-Serif" font-size="10.00">/irc_actions.hpp</text>
</a>
</g>
</g>
<!-- Node8&#45;&gt;Node20 -->
<g id="edge22" class="edge"><title>Node8&#45;&gt;Node20</title>
<path fill="none" stroke="midnightblue" d="M876.749,-188.928C888.656,-178.179 904.359,-164.002 915.894,-153.589"/>
<polygon fill="midnightblue" stroke="midnightblue" points="874.288,-186.435 869.21,-195.734 878.978,-191.631 874.288,-186.435"/>
</g>
<!-- Node22 -->
<g id="node22" class="node"><title>Node22</title>
<g id="a_node22"><a xlink:href="ctcp_8hpp.html" target="_top" xlink:title="This files has handlers for CTCP messages. ">
<polygon fill="none" stroke="black" points="250,-123.5 250,-153.5 351,-153.5 351,-123.5 250,-123.5"/>
<text text-anchor="start" x="258" y="-141.5" font-family="Helvetica,sans-Serif" font-size="10.00">modules/irc/handler</text>
<text text-anchor="middle" x="300.5" y="-130.5" font-family="Helvetica,sans-Serif" font-size="10.00">/ctcp.hpp</text>
</a>
</g>
</g>
<!-- Node8&#45;&gt;Node22 -->
<g id="edge24" class="edge"><title>Node8&#45;&gt;Node22</title>
<path fill="none" stroke="midnightblue" d="M789.995,-200.571C693.037,-194.389 511.929,-180.295 359.5,-154 356.797,-153.534 354.035,-153.013 351.254,-152.453"/>
<polygon fill="midnightblue" stroke="midnightblue" points="790.053,-204.081 800.253,-201.215 790.492,-197.095 790.053,-204.081"/>
</g>
<!-- Node23 -->
<g id="node23" class="node"><title>Node23</title>
<g id="a_node23"><a xlink:href="irc__admin_8hpp.html" target="_top" xlink:title="This file defines handlers which allows admin to administrate the bot (IRC&#45;specific actions) ...">
<polygon fill="none" stroke="black" points="762,-123.5 762,-153.5 863,-153.5 863,-123.5 762,-123.5"/>
<text text-anchor="start" x="770" y="-141.5" font-family="Helvetica,sans-Serif" font-size="10.00">modules/irc/handler</text>
<text text-anchor="middle" x="812.5" y="-130.5" font-family="Helvetica,sans-Serif" font-size="10.00">/irc_admin.hpp</text>
</a>
</g>
</g>
<!-- Node8&#45;&gt;Node23 -->
<g id="edge26" class="edge"><title>Node8&#45;&gt;Node23</title>
<path fill="none" stroke="midnightblue" d="M847.103,-187.355C839.488,-176.824 829.855,-163.502 822.687,-153.589"/>
<polygon fill="midnightblue" stroke="midnightblue" points="844.466,-189.681 853.161,-195.734 850.138,-185.579 844.466,-189.681"/>
</g>
<!-- Node24 -->
<g id="node24" class="node"><title>Node24</title>
<g id="a_node24"><a xlink:href="irc__whois_8hpp.html" target="_top" xlink:title="This file contains handlers for WHOIS recognition on IRC. ">
<polygon fill="none" stroke="black" points="131,-123.5 131,-153.5 232,-153.5 232,-123.5 131,-123.5"/>
<text text-anchor="start" x="139" y="-141.5" font-family="Helvetica,sans-Serif" font-size="10.00">modules/irc/handler</text>
<text text-anchor="middle" x="181.5" y="-130.5" font-family="Helvetica,sans-Serif" font-size="10.00">/irc_whois.hpp</text>
</a>
</g>
</g>
<!-- Node8&#45;&gt;Node24 -->
<g id="edge28" class="edge"><title>Node8&#45;&gt;Node24</title>
<path fill="none" stroke="midnightblue" d="M790.162,-202.45C675.238,-198.247 438.332,-186.169 240.5,-154 237.793,-153.56 235.027,-153.06 232.243,-152.516"/>
<polygon fill="midnightblue" stroke="midnightblue" points="790.112,-205.95 800.23,-202.809 790.361,-198.955 790.112,-205.95"/>
</g>
<!-- Node11 -->
<g id="node11" class="node"><title>Node11</title>
<g id="a_node11"><a xlink:href="bridge_8cpp.html" target="_top" xlink:title="src/handler/bridge.cpp">
<polygon fill="none" stroke="black" points="0,-62 0,-81 113,-81 113,-62 0,-62"/>
<text text-anchor="middle" x="56.5" y="-69" font-family="Helvetica,sans-Serif" font-size="10.00">src/handler/bridge.cpp</text>
</a>
</g>
</g>
<!-- Node10&#45;&gt;Node11 -->
<g id="edge12" class="edge"><title>Node10&#45;&gt;Node11</title>
<path fill="none" stroke="midnightblue" d="M56.5,-118.537C56.5,-106.17 56.5,-90.6198 56.5,-81.1273"/>
<polygon fill="midnightblue" stroke="midnightblue" points="53.0001,-118.734 56.5,-128.734 60.0001,-118.734 53.0001,-118.734"/>
</g>
<!-- Node15 -->
<g id="node15" class="node"><title>Node15</title>
<g id="a_node15"><a xlink:href="fun-handlers_8cpp.html" target="_top" xlink:title="modules/fun/fun&#45;handlers.cpp">
<polygon fill="none" stroke="black" points="912,-0.5 912,-19.5 1057,-19.5 1057,-0.5 912,-0.5"/>
<text text-anchor="middle" x="984.5" y="-7.5" font-family="Helvetica,sans-Serif" font-size="10.00">modules/fun/fun&#45;handlers.cpp</text>
</a>
</g>
</g>
<!-- Node14&#45;&gt;Node15 -->
<g id="edge16" class="edge"><title>Node14&#45;&gt;Node15</title>
<path fill="none" stroke="midnightblue" d="M1037.57,-55.4727C1023.99,-44.0925 1005.82,-28.8694 994.654,-19.5091"/>
<polygon fill="midnightblue" stroke="midnightblue" points="1035.41,-58.2346 1045.33,-61.9751 1039.91,-52.8694 1035.41,-58.2346"/>
</g>
<!-- Node16 -->
<g id="node16" class="node"><title>Node16</title>
<g id="a_node16"><a xlink:href="fun_8cpp.html" target="_top" xlink:title="modules/fun/fun.cpp">
<polygon fill="none" stroke="black" points="1075,-0.5 1075,-19.5 1180,-19.5 1180,-0.5 1075,-0.5"/>
<text text-anchor="middle" x="1127.5" y="-7.5" font-family="Helvetica,sans-Serif" font-size="10.00">modules/fun/fun.cpp</text>
</a>
</g>
</g>
<!-- Node14&#45;&gt;Node16 -->
<g id="edge17" class="edge"><title>Node14&#45;&gt;Node16</title>
<path fill="none" stroke="midnightblue" d="M1073.68,-55.4727C1087.46,-44.0925 1105.88,-28.8694 1117.2,-19.5091"/>
<polygon fill="midnightblue" stroke="midnightblue" points="1071.29,-52.9069 1065.82,-61.9751 1075.75,-58.3028 1071.29,-52.9069"/>
</g>
<!-- Node17&#45;&gt;Node14 -->
<g id="edge19" class="edge"><title>Node17&#45;&gt;Node14</title>
<path fill="none" stroke="midnightblue" d="M1450.22,-127.049C1442.62,-125.616 1434.86,-124.22 1427.5,-123 1323.66,-105.793 1202.78,-90.1982 1127.7,-81.0296"/>
<polygon fill="midnightblue" stroke="midnightblue" points="1449.61,-130.495 1460.09,-128.942 1450.93,-123.621 1449.61,-130.495"/>
</g>
<!-- Node18 -->
<g id="node18" class="node"><title>Node18</title>
<g id="a_node18"><a xlink:href="web-api-concrete_8hpp.html" target="_top" xlink:title="This files defines some simple Handlers using web APIs. ">
<polygon fill="none" stroke="black" points="1450,-56.5 1450,-86.5 1561,-86.5 1561,-56.5 1450,-56.5"/>
<text text-anchor="start" x="1458" y="-74.5" font-family="Helvetica,sans-Serif" font-size="10.00">modules/web/web&#45;api</text>
<text text-anchor="middle" x="1505.5" y="-63.5" font-family="Helvetica,sans-Serif" font-size="10.00">&#45;concrete.hpp</text>
</a>
</g>
</g>
<!-- Node17&#45;&gt;Node18 -->
<g id="edge20" class="edge"><title>Node17&#45;&gt;Node18</title>
<path fill="none" stroke="midnightblue" d="M1502.65,-118.739C1503.29,-108.487 1504.05,-96.0011 1504.63,-86.589"/>
<polygon fill="midnightblue" stroke="midnightblue" points="1499.16,-118.538 1502.04,-128.734 1506.15,-118.968 1499.16,-118.538"/>
</g>
<!-- Node19 -->
<g id="node19" class="node"><title>Node19</title>
<g id="a_node19"><a xlink:href="web_8cpp.html" target="_top" xlink:title="modules/web/web.cpp">
<polygon fill="none" stroke="black" points="1491.5,-0.5 1491.5,-19.5 1605.5,-19.5 1605.5,-0.5 1491.5,-0.5"/>
<text text-anchor="middle" x="1548.5" y="-7.5" font-family="Helvetica,sans-Serif" font-size="10.00">modules/web/web.cpp</text>
</a>
</g>
</g>
<!-- Node18&#45;&gt;Node19 -->
<g id="edge21" class="edge"><title>Node18&#45;&gt;Node19</title>
<path fill="none" stroke="midnightblue" d="M1521.69,-48.1041C1528.85,-38.1868 1536.86,-27.1062 1542.24,-19.6578"/>
<polygon fill="midnightblue" stroke="midnightblue" points="1518.71,-46.2442 1515.69,-56.3993 1524.38,-50.3444 1518.71,-46.2442"/>
</g>
<!-- Node21 -->
<g id="node21" class="node"><title>Node21</title>
<g id="a_node21"><a xlink:href="irc_8cpp.html" target="_top" xlink:title="modules/irc/irc.cpp">
<polygon fill="none" stroke="black" points="837,-62 837,-81 936,-81 936,-62 837,-62"/>
<text text-anchor="middle" x="886.5" y="-69" font-family="Helvetica,sans-Serif" font-size="10.00">modules/irc/irc.cpp</text>
</a>
</g>
</g>
<!-- Node20&#45;&gt;Node21 -->
<g id="edge23" class="edge"><title>Node20&#45;&gt;Node21</title>
<path fill="none" stroke="midnightblue" d="M915.905,-114.974C907.845,-103.332 898.476,-89.7985 892.519,-81.1945"/>
<polygon fill="midnightblue" stroke="midnightblue" points="913.166,-117.166 921.736,-123.396 918.921,-113.182 913.166,-117.166"/>
</g>
<!-- Node22&#45;&gt;Node21 -->
<g id="edge25" class="edge"><title>Node22&#45;&gt;Node21</title>
<path fill="none" stroke="midnightblue" d="M361.153,-122.863C541.009,-92.9572 744.623,-79.7274 836.777,-74.8494"/>
<polygon fill="midnightblue" stroke="midnightblue" points="360.531,-119.418 351.251,-124.53 361.693,-126.321 360.531,-119.418"/>
</g>
<!-- Node23&#45;&gt;Node21 -->
<g id="edge27" class="edge"><title>Node23&#45;&gt;Node21</title>
<path fill="none" stroke="midnightblue" d="M836.212,-116.672C849.875,-104.671 866.326,-90.2203 876.602,-81.1945"/>
<polygon fill="midnightblue" stroke="midnightblue" points="833.76,-114.167 828.557,-123.396 838.38,-119.426 833.76,-114.167"/>
</g>
<!-- Node24&#45;&gt;Node21 -->
<g id="edge29" class="edge"><title>Node24&#45;&gt;Node21</title>
<path fill="none" stroke="midnightblue" d="M242.317,-122.867C468.755,-87.2184 729.527,-76.6608 836.737,-73.6309"/>
<polygon fill="midnightblue" stroke="midnightblue" points="241.565,-119.442 232.241,-124.473 242.668,-126.355 241.565,-119.442"/>
</g>
<!-- Node26&#45;&gt;Node21 -->
<g id="edge32" class="edge"><title>Node26&#45;&gt;Node21</title>
<path fill="none" stroke="midnightblue" d="M1165.11,-180.272C1164.21,-161.992 1159.85,-137.641 1144.5,-123 1136.97,-115.814 1009.05,-93.2089 936.227,-80.821"/>
<polygon fill="midnightblue" stroke="midnightblue" points="1161.62,-180.537 1165.3,-190.471 1168.62,-180.408 1161.62,-180.537"/>
</g>
<!-- Node27 -->
<g id="node27" class="node"><title>Node27</title>
<g id="a_node27"><a xlink:href="buffer_8cpp.html" target="_top" xlink:title="modules/irc/network\l/buffer.cpp">
<polygon fill="none" stroke="black" points="1192.5,-123.5 1192.5,-153.5 1296.5,-153.5 1296.5,-123.5 1192.5,-123.5"/>
<text text-anchor="start" x="1200.5" y="-141.5" font-family="Helvetica,sans-Serif" font-size="10.00">modules/irc/network</text>
<text text-anchor="middle" x="1244.5" y="-130.5" font-family="Helvetica,sans-Serif" font-size="10.00">/buffer.cpp</text>
</a>
</g>
</g>
<!-- Node26&#45;&gt;Node27 -->
<g id="edge33" class="edge"><title>Node26&#45;&gt;Node27</title>
<path fill="none" stroke="midnightblue" d="M1189.87,-183.883C1202.03,-174.005 1216.28,-162.429 1227.18,-153.577"/>
<polygon fill="midnightblue" stroke="midnightblue" points="1187.41,-181.374 1181.86,-190.396 1191.83,-186.806 1187.41,-181.374"/>
</g>
<!-- Node26&#45;&gt;Node28 -->
<g id="edge34" class="edge"><title>Node26&#45;&gt;Node28</title>
<path fill="none" stroke="midnightblue" d="M1218.18,-187.228C1250.85,-176.713 1292.07,-163.451 1322.75,-153.577"/>
<polygon fill="midnightblue" stroke="midnightblue" points="1216.78,-184.001 1208.33,-190.396 1218.92,-190.665 1216.78,-184.001"/>
</g>
<!-- Node29&#45;&gt;Node26 -->
<g id="edge38" class="edge"><title>Node29&#45;&gt;Node26</title>
<path fill="none" stroke="midnightblue" d="M1173.31,-247.403C1171.36,-238.37 1169.22,-228.408 1167.53,-220.577"/>
<polygon fill="midnightblue" stroke="midnightblue" points="1169.94,-248.357 1175.46,-257.396 1176.78,-246.883 1169.94,-248.357"/>
</g>
<!-- Node29&#45;&gt;Node27 -->
<g id="edge37" class="edge"><title>Node29&#45;&gt;Node27</title>
<path fill="none" stroke="midnightblue" d="M1203.06,-250.138C1211.29,-241.803 1219.81,-231.684 1225.5,-221 1237.11,-199.199 1241.68,-170.413 1243.44,-153.532"/>
<polygon fill="midnightblue" stroke="midnightblue" points="1200.44,-247.797 1195.67,-257.255 1205.3,-252.838 1200.44,-247.797"/>
</g>
<!-- Node31&#45;&gt;Node17 -->
<g id="edge44" class="edge"><title>Node31&#45;&gt;Node17</title>
<path fill="none" stroke="midnightblue" d="M1273.29,-321.238C1295.13,-313.705 1322.05,-302.591 1343.5,-288 1393.4,-254.058 1392.81,-230.567 1437.5,-190 1454.69,-174.398 1476.12,-158.061 1489.3,-148.333"/>
<polygon fill="midnightblue" stroke="midnightblue" points="1272.04,-317.967 1263.65,-324.446 1274.25,-324.608 1272.04,-317.967"/>
</g>
<!-- Node31&#45;&gt;Node30 -->
<g id="edge43" class="edge"><title>Node31&#45;&gt;Node30</title>
<path fill="none" stroke="midnightblue" d="M1249.1,-316.997C1260.08,-305.736 1274.34,-291.104 1283.21,-282.009"/>
<polygon fill="midnightblue" stroke="midnightblue" points="1246.28,-314.871 1241.81,-324.475 1251.3,-319.757 1246.28,-314.871"/>
</g>
<!-- Node32&#45;&gt;Node25 -->
<g id="edge47" class="edge"><title>Node32&#45;&gt;Node25</title>
<path fill="none" stroke="midnightblue" d="M1554.86,-256.92C1536.68,-244.069 1510.79,-225.782 1495.71,-215.127"/>
<polygon fill="midnightblue" stroke="midnightblue" points="1552.91,-259.822 1563.09,-262.734 1556.94,-254.105 1552.91,-259.822"/>
</g>
<!-- Node33 -->
<g id="node33" class="node"><title>Node33</title>
<g id="a_node33"><a xlink:href="http_8hpp.html" target="_top" xlink:title="modules/web/http.hpp">
<polygon fill="none" stroke="black" points="1538,-196 1538,-215 1651,-215 1651,-196 1538,-196"/>
<text text-anchor="middle" x="1594.5" y="-203" font-family="Helvetica,sans-Serif" font-size="10.00">modules/web/http.hpp</text>
</a>
</g>
</g>
<!-- Node32&#45;&gt;Node33 -->
<g id="edge48" class="edge"><title>Node32&#45;&gt;Node33</title>
<path fill="none" stroke="midnightblue" d="M1580.93,-252.915C1584.56,-240.488 1589.18,-224.717 1591.98,-215.127"/>
<polygon fill="midnightblue" stroke="midnightblue" points="1577.51,-252.153 1578.06,-262.734 1584.23,-254.117 1577.51,-252.153"/>
</g>
<!-- Node33&#45;&gt;Node17 -->
<g id="edge49" class="edge"><title>Node33&#45;&gt;Node17</title>
<path fill="none" stroke="midnightblue" d="M1573.64,-189.92C1555.25,-177.069 1529.09,-158.782 1513.84,-148.127"/>
<polygon fill="midnightblue" stroke="midnightblue" points="1571.76,-192.874 1581.96,-195.734 1575.77,-187.136 1571.76,-192.874"/>
</g>
<!-- Node33&#45;&gt;Node19 -->
<g id="edge50" class="edge"><title>Node33&#45;&gt;Node19</title>
<path fill="none" stroke="midnightblue" d="M1592.98,-185.806C1590.31,-157.282 1583.63,-101.416 1569.5,-56 1565.4,-42.8289 1558.22,-28.5436 1553.42,-19.6817"/>
<polygon fill="midnightblue" stroke="midnightblue" points="1589.51,-186.284 1593.87,-195.941 1596.48,-185.673 1589.51,-186.284"/>
</g>
<!-- Node33&#45;&gt;Node34 -->
<g id="edge51" class="edge"><title>Node33&#45;&gt;Node34</title>
<path fill="none" stroke="midnightblue" d="M1614.03,-189.568C1630.8,-176.738 1654.41,-158.685 1668.22,-148.127"/>
<polygon fill="midnightblue" stroke="midnightblue" points="1611.78,-186.879 1605.96,-195.734 1616.03,-192.44 1611.78,-186.879"/>
</g>
<!-- Node36&#45;&gt;Node21 -->
<g id="edge58" class="edge"><title>Node36&#45;&gt;Node21</title>
<path fill="none" stroke="midnightblue" d="M1911.5,-370.291C1911.5,-347.448 1911.5,-307.636 1911.5,-273.5 1911.5,-273.5 1911.5,-273.5 1911.5,-204.5 1911.5,-121.911 1824.51,-143.46 1744.5,-123 1578.33,-80.5088 1144.06,-105.131 973.5,-87 959.796,-85.5432 944.975,-83.3186 931.516,-81.0461"/>
<polygon fill="midnightblue" stroke="midnightblue" points="1908,-370.307 1911.5,-380.307 1915,-370.307 1908,-370.307"/>
</g>
<!-- Node37 -->
<g id="node37" class="node"><title>Node37</title>
<g id="a_node37"><a xlink:href="irc__formatter_8cpp.html" target="_top" xlink:title="modules/irc/irc_formatter.cpp">
<polygon fill="none" stroke="black" points="1940,-324.5 1940,-343.5 2083,-343.5 2083,-324.5 1940,-324.5"/>
<text text-anchor="middle" x="2011.5" y="-331.5" font-family="Helvetica,sans-Serif" font-size="10.00">modules/irc/irc_formatter.cpp</text>
</a>
</g>
</g>
<!-- Node36&#45;&gt;Node37 -->
<g id="edge59" class="edge"><title>Node36&#45;&gt;Node37</title>
<path fill="none" stroke="midnightblue" d="M1936.59,-375.453C1955.05,-365.483 1979.6,-352.228 1995.47,-343.655"/>
<polygon fill="midnightblue" stroke="midnightblue" points="1934.7,-372.493 1927.57,-380.324 1938.03,-378.652 1934.7,-372.493"/>
</g>
<!-- Node38&#45;&gt;Node35 -->
<g id="edge62" class="edge"><title>Node38&#45;&gt;Node35</title>
<path fill="none" stroke="midnightblue" d="M1646.5,-369.805C1646.5,-360.91 1646.5,-350.78 1646.5,-343.751"/>
<polygon fill="midnightblue" stroke="midnightblue" points="1643,-370.083 1646.5,-380.083 1650,-370.083 1643,-370.083"/>
</g>
<!-- Node39 -->
<g id="node39" class="node"><title>Node39</title>
<g id="a_node39"><a xlink:href="formatter_8cpp.html" target="_top" xlink:title="modules/xonotic/formatter.cpp">
<polygon fill="none" stroke="black" points="1735,-324.5 1735,-343.5 1884,-343.5 1884,-324.5 1735,-324.5"/>
<text text-anchor="middle" x="1809.5" y="-331.5" font-family="Helvetica,sans-Serif" font-size="10.00">modules/xonotic/formatter.cpp</text>
</a>
</g>
</g>
<!-- Node38&#45;&gt;Node39 -->
<g id="edge61" class="edge"><title>Node38&#45;&gt;Node39</title>
<path fill="none" stroke="midnightblue" d="M1682.2,-377.172C1712.9,-367.004 1756.42,-352.585 1783.79,-343.516"/>
<polygon fill="midnightblue" stroke="midnightblue" points="1680.72,-373.976 1672.33,-380.444 1682.92,-380.621 1680.72,-373.976"/>
</g>
</g>
</svg>
        <g id="navigator" transform="translate(0 0)" fill="#404254">
                <rect fill="#f2f5e9" fill-opacity="0.5" stroke="#606060" stroke-width=".5" x="0" y="0" width="60" height="60"/>
                <use id="zoomplus" xlink:href="#zoomPlus" x="17" y="9" onmousedown="handleZoom(evt,'in')"/>
                <use id="zoomminus" xlink:href="#zoomMin" x="42" y="9" onmousedown="handleZoom(evt,'out')"/>
                <use id="reset" xlink:href="#resetDef" x="30" y="36" onmousedown="handleReset()"/>
                <g id="arrowUp" xlink:href="#dirArrow" transform="translate(30 24)" onmousedown="handlePan(0,-1)">
                  <use xlink:href="#rim" fill="#404040">
                        <set attributeName="fill" to="#808080" begin="arrowUp.mouseover" end="arrowUp.mouseout"/>
                  </use>
                  <path fill="none" stroke="white" stroke-width="1.5" d="M0,-3.0v7 M-2.5,-0.5L0,-3.0L2.5,-0.5"/>
                </g>
                <g id="arrowRight" xlink:href="#dirArrow" transform="rotate(90) translate(36 -43)" onmousedown="handlePan(1,0)">
                  <use xlink:href="#rim" fill="#404040">
                        <set attributeName="fill" to="#808080" begin="arrowRight.mouseover" end="arrowRight.mouseout"/>
                  </use>
                  <path fill="none" stroke="white" stroke-width="1.5" d="M0,-3.0v7 M-2.5,-0.5L0,-3.0L2.5,-0.5"/>
                </g>
                <g id="arrowDown" xlink:href="#dirArrow" transform="rotate(180) translate(-30 -48)" onmousedown="handlePan(0,1)">
                  <use xlink:href="#rim" fill="#404040">
                        <set attributeName="fill" to="#808080" begin="arrowDown.mouseover" end="arrowDown.mouseout"/>
                  </use>
                  <path fill="none" stroke="white" stroke-width="1.5" d="M0,-3.0v7 M-2.5,-0.5L0,-3.0L2.5,-0.5"/>
                </g>
                <g id="arrowLeft" xlink:href="#dirArrow" transform="rotate(270) translate(-36 17)" onmousedown="handlePan(-1,0)">
                  <use xlink:href="#rim" fill="#404040">
                        <set attributeName="fill" to="#808080" begin="arrowLeft.mouseover" end="arrowLeft.mouseout"/>
                  </use>
                  <path fill="none" stroke="white" stroke-width="1.5" d="M0,-3.0v7 M-2.5,-0.5L0,-3.0L2.5,-0.5"/>
                </g>
        </g>
        <svg viewBox="0 0 15 15" width="100%" height="30px" preserveAspectRatio="xMaxYMin meet">
         <g id="arrow_out" transform="scale(0.3 0.3)">
          <a xlink:href="string_8hpp__dep__incl_org.svg" target="_base">
           <rect id="button" ry="5" rx="5" y="6" x="6" height="38" width="38"
                fill="#f2f5e9" fill-opacity="0.5" stroke="#606060" stroke-width="1.0"/>
           <path id="arrow"
             d="M 11.500037,31.436501 C 11.940474,20.09759 22.043105,11.32322 32.158766,21.979434 L 37.068811,17.246167 C 37.068811,17.246167 37.088388,32 37.088388,32 L 22.160133,31.978069 C 22.160133,31.978069 26.997745,27.140456 26.997745,27.140456 C 18.528582,18.264221 13.291696,25.230495 11.500037,31.436501 z"
             style="fill:#404040;"/>
          </a>
         </g>
        </svg>
</svg>
