<?xml version="1.0" encoding="UTF-8" standalone="no"?>
<!DOCTYPE svg PUBLIC "-//W3C//DTD SVG 1.1//EN"
 "http://www.w3.org/Graphics/SVG/1.1/DTD/svg11.dtd">
<!-- Generated by graphviz version 2.38.0 (20140413.2041)
 -->
<!-- Title: src/string/string.hpp Pages: 1 -->
<svg width="553pt" height="196pt"
 viewBox="0.00 0.00 553.17 196.00" xmlns="http://www.w3.org/2000/svg" xmlns:xlink="http://www.w3.org/1999/xlink">
<g id="graph0" class="graph" transform="scale(1 1) rotate(0) translate(4 192)">
<title>src/string/string.hpp</title>
<!-- Node1 -->
<g id="node1" class="node"><title>Node1</title>
<polygon fill="#bfbfbf" stroke="black" points="216.964,-168.5 216.964,-187.5 319.964,-187.5 319.964,-168.5 216.964,-168.5"/>
<text text-anchor="middle" x="268.464" y="-175.5" font-family="Helvetica,sans-Serif" font-size="10.00">src/string/string.hpp</text>
</g>
<!-- Node2 -->
<g id="node2" class="node"><title>Node2</title>
<polygon fill="none" stroke="#bfbfbf" points="69.4643,-56.5 69.4643,-75.5 115.464,-75.5 115.464,-56.5 69.4643,-56.5"/>
<text text-anchor="middle" x="92.4643" y="-63.5" font-family="Helvetica,sans-Serif" font-size="10.00">cstdint</text>
</g>
<!-- Node1&#45;&gt;Node2 -->
<g id="edge1" class="edge"><title>Node1&#45;&gt;Node2</title>
<path fill="none" stroke="midnightblue" d="M216.919,-175.766C148.156,-172.907 31.9703,-163.426 5.46427,-132 -14.5853,-108.229 27.3147,-88.1065 59.6604,-76.799"/>
<polygon fill="midnightblue" stroke="midnightblue" points="60.9346,-80.0636 69.3128,-73.5785 58.7191,-73.4234 60.9346,-80.0636"/>
</g>
<!-- Node3 -->
<g id="node3" class="node"><title>Node3</title>
<polygon fill="none" stroke="#bfbfbf" points="14.9643,-112.5 14.9643,-131.5 73.9643,-131.5 73.9643,-112.5 14.9643,-112.5"/>
<text text-anchor="middle" x="44.4643" y="-119.5" font-family="Helvetica,sans-Serif" font-size="10.00">functional</text>
</g>
<!-- Node1&#45;&gt;Node3 -->
<g id="edge2" class="edge"><title>Node1&#45;&gt;Node3</title>
<path fill="none" stroke="midnightblue" d="M232.971,-168.444C192.399,-158.663 126.169,-142.697 83.9852,-132.527"/>
<polygon fill="midnightblue" stroke="midnightblue" points="84.6106,-129.078 74.0689,-130.137 82.9701,-135.883 84.6106,-129.078"/>
</g>
<!-- Node4 -->
<g id="node4" class="node"><title>Node4</title>
<polygon fill="none" stroke="#bfbfbf" points="92.4643,-112.5 92.4643,-131.5 144.464,-131.5 144.464,-112.5 92.4643,-112.5"/>
<text text-anchor="middle" x="118.464" y="-119.5" font-family="Helvetica,sans-Serif" font-size="10.00">memory</text>
</g>
<!-- Node1&#45;&gt;Node4 -->
<g id="edge3" class="edge"><title>Node1&#45;&gt;Node4</title>
<path fill="none" stroke="midnightblue" d="M244.696,-168.444C219.571,-159.399 179.753,-145.064 151.564,-134.916"/>
<polygon fill="midnightblue" stroke="midnightblue" points="152.715,-131.611 142.121,-131.516 150.344,-138.197 152.715,-131.611"/>
</g>
<!-- Node5 -->
<g id="node5" class="node"><title>Node5</title>
<polygon fill="none" stroke="#bfbfbf" points="162.964,-112.5 162.964,-131.5 221.964,-131.5 221.964,-112.5 162.964,-112.5"/>
<text text-anchor="middle" x="192.464" y="-119.5" font-family="Helvetica,sans-Serif" font-size="10.00">stdexcept</text>
</g>
<!-- Node1&#45;&gt;Node5 -->
<g id="edge4" class="edge"><title>Node1&#45;&gt;Node5</title>
<path fill="none" stroke="midnightblue" d="M256.254,-168.324C244.688,-160.107 227.089,-147.602 213.304,-137.807"/>
<polygon fill="midnightblue" stroke="midnightblue" points="215.076,-134.773 204.897,-131.834 211.022,-140.479 215.076,-134.773"/>
</g>
<!-- Node6 -->
<g id="node6" class="node"><title>Node6</title>
<polygon fill="none" stroke="#bfbfbf" points="425.964,-56.5 425.964,-75.5 466.964,-75.5 466.964,-56.5 425.964,-56.5"/>
<text text-anchor="middle" x="446.464" y="-63.5" font-family="Helvetica,sans-Serif" font-size="10.00">string</text>
</g>
<!-- Node1&#45;&gt;Node6 -->
<g id="edge5" class="edge"><title>Node1&#45;&gt;Node6</title>
<path fill="none" stroke="midnightblue" d="M320.072,-176.063C390.706,-173.563 511.902,-164.516 539.464,-132 561.375,-106.151 511.848,-85.6921 476.996,-75.0505"/>
<polygon fill="midnightblue" stroke="midnightblue" points="477.767,-71.6296 467.187,-72.1904 475.808,-78.3497 477.767,-71.6296"/>
</g>
<!-- Node7 -->
<g id="node7" class="node"><title>Node7</title>
<polygon fill="none" stroke="#bfbfbf" points="314.464,-112.5 314.464,-131.5 366.464,-131.5 366.464,-112.5 314.464,-112.5"/>
<text text-anchor="middle" x="340.464" y="-119.5" font-family="Helvetica,sans-Serif" font-size="10.00">sstream</text>
</g>
<!-- Node1&#45;&gt;Node7 -->
<g id="edge6" class="edge"><title>Node1&#45;&gt;Node7</title>
<path fill="none" stroke="midnightblue" d="M280.032,-168.324C290.884,-160.185 307.345,-147.839 320.348,-138.087"/>
<polygon fill="midnightblue" stroke="midnightblue" points="322.786,-140.634 328.686,-131.834 318.586,-135.034 322.786,-140.634"/>
</g>
<!-- Node8 -->
<g id="node8" class="node"><title>Node8</title>
<polygon fill="none" stroke="#bfbfbf" points="384.964,-112.5 384.964,-131.5 467.964,-131.5 467.964,-112.5 384.964,-112.5"/>
<text text-anchor="middle" x="426.464" y="-119.5" font-family="Helvetica,sans-Serif" font-size="10.00">unordered_map</text>
</g>
<!-- Node1&#45;&gt;Node8 -->
<g id="edge7" class="edge"><title>Node1&#45;&gt;Node8</title>
<path fill="none" stroke="midnightblue" d="M293.5,-168.444C320.08,-159.359 362.273,-144.939 391.988,-134.783"/>
<polygon fill="midnightblue" stroke="midnightblue" points="393.215,-138.062 401.546,-131.516 390.951,-131.439 393.215,-138.062"/>
</g>
<!-- Node9 -->
<g id="node9" class="node"><title>Node9</title>
<polygon fill="none" stroke="#bfbfbf" points="486.464,-112.5 486.464,-131.5 530.464,-131.5 530.464,-112.5 486.464,-112.5"/>
<text text-anchor="middle" x="508.464" y="-119.5" font-family="Helvetica,sans-Serif" font-size="10.00">vector</text>
</g>
<!-- Node1&#45;&gt;Node9 -->
<g id="edge8" class="edge"><title>Node1&#45;&gt;Node9</title>
<path fill="none" stroke="midnightblue" d="M312.305,-168.496C352.584,-160.475 414.138,-147.692 476.202,-132.189"/>
<polygon fill="midnightblue" stroke="midnightblue" points="477.323,-135.516 486.164,-129.678 475.612,-128.728 477.323,-135.516"/>
</g>
<!-- Node10 -->
<g id="node10" class="node"><title>Node10</title>
<g id="a_node10"><a xlink:href="color_8hpp.html" target="_top" xlink:title="color.hpp">
<polygon fill="none" stroke="black" points="240.464,-112.5 240.464,-131.5 296.464,-131.5 296.464,-112.5 240.464,-112.5"/>
<text text-anchor="middle" x="268.464" y="-119.5" font-family="Helvetica,sans-Serif" font-size="10.00">color.hpp</text>
</a>
</g>
</g>
<!-- Node1&#45;&gt;Node10 -->
<g id="edge9" class="edge"><title>Node1&#45;&gt;Node10</title>
<path fill="none" stroke="midnightblue" d="M268.464,-168.083C268.464,-161.006 268.464,-150.861 268.464,-141.986"/>
<polygon fill="midnightblue" stroke="midnightblue" points="271.964,-141.751 268.464,-131.751 264.964,-141.751 271.964,-141.751"/>
</g>
<!-- Node10&#45;&gt;Node2 -->
<g id="edge10" class="edge"><title>Node10&#45;&gt;Node2</title>
<path fill="none" stroke="midnightblue" d="M240.577,-112.444C209.305,-102.849 158.634,-87.3021 125.429,-77.1141"/>
<polygon fill="midnightblue" stroke="midnightblue" points="126.312,-73.7241 115.725,-74.1368 124.259,-80.4162 126.312,-73.7241"/>
</g>
<!-- Node10&#45;&gt;Node6 -->
<g id="edge11" class="edge"><title>Node10&#45;&gt;Node6</title>
<path fill="none" stroke="midnightblue" d="M296.669,-112.444C329.273,-102.552 382.728,-86.3357 416.187,-76.1854"/>
<polygon fill="midnightblue" stroke="midnightblue" points="417.33,-79.4961 425.883,-73.2437 415.298,-72.7976 417.33,-79.4961"/>
</g>
<!-- Node11 -->
<g id="node11" class="node"><title>Node11</title>
<g id="a_node11"><a xlink:href="math_8hpp.html" target="_top" xlink:title="math.hpp">
<polygon fill="none" stroke="black" points="239.964,-56.5 239.964,-75.5 296.964,-75.5 296.964,-56.5 239.964,-56.5"/>
<text text-anchor="middle" x="268.464" y="-63.5" font-family="Helvetica,sans-Serif" font-size="10.00">math.hpp</text>
</a>
</g>
</g>
<!-- Node10&#45;&gt;Node11 -->
<g id="edge12" class="edge"><title>Node10&#45;&gt;Node11</title>
<path fill="none" stroke="midnightblue" d="M268.464,-112.083C268.464,-105.006 268.464,-94.8611 268.464,-85.9865"/>
<polygon fill="midnightblue" stroke="midnightblue" points="271.964,-85.751 268.464,-75.7511 264.964,-85.7511 271.964,-85.751"/>
</g>
<!-- Node12 -->
<g id="node12" class="node"><title>Node12</title>
<polygon fill="none" stroke="#bfbfbf" points="240.464,-0.5 240.464,-19.5 296.464,-19.5 296.464,-0.5 240.464,-0.5"/>
<text text-anchor="middle" x="268.464" y="-7.5" font-family="Helvetica,sans-Serif" font-size="10.00">algorithm</text>
</g>
<!-- Node11&#45;&gt;Node12 -->
<g id="edge13" class="edge"><title>Node11&#45;&gt;Node12</title>
<path fill="none" stroke="midnightblue" d="M268.464,-56.083C268.464,-49.0059 268.464,-38.8611 268.464,-29.9865"/>
<polygon fill="midnightblue" stroke="midnightblue" points="271.964,-29.751 268.464,-19.7511 264.964,-29.7511 271.964,-29.751"/>
</g>
</g>
</svg>
