<?xml version="1.0" encoding="UTF-8" standalone="no"?>
<!DOCTYPE svg PUBLIC "-//W3C//DTD SVG 1.1//EN"
 "http://www.w3.org/Graphics/SVG/1.1/DTD/svg11.dtd">
<!-- Generated by graphviz version 2.38.0 (20140413.2041)
 -->
<!-- Title: src/string/string_functions.hpp Pages: 1 -->
<!--zoomable 341 -->
<svg id="main" version="1.1" xmlns="http://www.w3.org/2000/svg" xmlns:xlink="http://www.w3.org/1999/xlink" xml:space="preserve" onload="init(evt)">
<style type="text/css"><![CDATA[
.edge:hover path { stroke: red; }
.edge:hover polygon { stroke: red; fill: red; }
]]></style>
<script type="text/javascript"><![CDATA[
var edges = document.getElementsByTagName('g');
if (edges && edges.length) {
  for (var i=0;i<edges.length;i++) {
    if (edges[i].id.substr(0,4)=='edge') {
      edges[i].setAttribute('class','edge');
    }
  }
}
]]></script>
        <defs>
                <circle id="rim" cx="0" cy="0" r="7"/>
                <circle id="rim2" cx="0" cy="0" r="3.5"/>
                <g id="zoomPlus">
                        <use xlink:href="#rim" fill="#404040">
                                <set attributeName="fill" to="#808080" begin="zoomplus.mouseover" end="zoomplus.mouseout"/>
                        </use>
                        <path d="M-4,0h8M0,-4v8" fill="none" stroke="white" stroke-width="1.5" pointer-events="none"/>
                </g>
                <g id="zoomMin">
                        <use xlink:href="#rim" fill="#404040">
                                <set attributeName="fill" to="#808080" begin="zoomminus.mouseover" end="zoomminus.mouseout"/>
                        </use>
                        <path d="M-4,0h8" fill="none" stroke="white" stroke-width="1.5" pointer-events="none"/>
                </g>
                <g id="dirArrow">
                        <path fill="none" stroke="white" stroke-width="1.5" d="M0,-3.0v7 M-2.5,-0.5L0,-3.0L2.5,-0.5"/>
                </g>
               <g id="resetDef">
                       <use xlink:href="#rim2" fill="#404040">
                               <set attributeName="fill" to="#808080" begin="reset.mouseover" end="reset.mouseout"/>
                       </use>
               </g>
        </defs>

<script type="text/javascript">
var viewWidth = 1611;
var viewHeight = 341;
var sectionId = 'dynsection-1';
</script>
<script xlink:href="svgpan.js"/>
<svg id="graph" class="graph">
<g id="viewport">
<title>src/string/string_functions.hpp</title>
<!-- Node1 -->
<g id="node1" class="node"><title>Node1</title>
<polygon fill="#bfbfbf" stroke="black" points="1017.5,-313.5 1017.5,-332.5 1165.5,-332.5 1165.5,-313.5 1017.5,-313.5"/>
<text text-anchor="middle" x="1091.5" y="-320.5" font-family="Helvetica,sans-Serif" font-size="10.00">src/string/string_functions.hpp</text>
</g>
<!-- Node2 -->
<g id="node2" class="node"><title>Node2</title>
<g id="a_node2"><a xlink:href="string__functions_8cpp.html" target="_top" xlink:title="src/string/string_functions.cpp">
<polygon fill="none" stroke="black" points="639.5,-257.5 639.5,-276.5 787.5,-276.5 787.5,-257.5 639.5,-257.5"/>
<text text-anchor="middle" x="713.5" y="-264.5" font-family="Helvetica,sans-Serif" font-size="10.00">src/string/string_functions.cpp</text>
</a>
</g>
</g>
<!-- Node1&#45;&gt;Node2 -->
<g id="edge1" class="edge"><title>Node1&#45;&gt;Node2</title>
<path fill="none" stroke="midnightblue" d="M1021.36,-311.979C949.953,-301.779 840.46,-286.137 773.115,-276.516"/>
<polygon fill="midnightblue" stroke="midnightblue" points="1021.21,-315.494 1031.6,-313.444 1022.2,-308.564 1021.21,-315.494"/>
</g>
<!-- Node3 -->
<g id="node3" class="node"><title>Node3</title>
<g id="a_node3"><a xlink:href="string_8cpp.html" target="_top" xlink:title="src/string/string.cpp">
<polygon fill="none" stroke="black" points="806,-257.5 806,-276.5 909,-276.5 909,-257.5 806,-257.5"/>
<text text-anchor="middle" x="857.5" y="-264.5" font-family="Helvetica,sans-Serif" font-size="10.00">src/string/string.cpp</text>
</a>
</g>
</g>
<!-- Node1&#45;&gt;Node3 -->
<g id="edge2" class="edge"><title>Node1&#45;&gt;Node3</title>
<path fill="none" stroke="midnightblue" d="M1044.5,-311.153C1000.28,-300.95 934.984,-285.881 894.405,-276.516"/>
<polygon fill="midnightblue" stroke="midnightblue" points="1043.89,-314.605 1054.42,-313.444 1045.47,-307.784 1043.89,-314.605"/>
</g>
<!-- Node4 -->
<g id="node4" class="node"><title>Node4</title>
<g id="a_node4"><a xlink:href="src_2network_2connection_8hpp.html" target="_top" xlink:title="src/network/connection.hpp">
<polygon fill="none" stroke="black" points="1023,-257.5 1023,-276.5 1160,-276.5 1160,-257.5 1023,-257.5"/>
<text text-anchor="middle" x="1091.5" y="-264.5" font-family="Helvetica,sans-Serif" font-size="10.00">src/network/connection.hpp</text>
</a>
</g>
</g>
<!-- Node1&#45;&gt;Node4 -->
<g id="edge3" class="edge"><title>Node1&#45;&gt;Node4</title>
<path fill="none" stroke="midnightblue" d="M1091.5,-302.805C1091.5,-293.91 1091.5,-283.78 1091.5,-276.751"/>
<polygon fill="midnightblue" stroke="midnightblue" points="1088,-303.083 1091.5,-313.083 1095,-303.083 1088,-303.083"/>
</g>
<!-- Node7 -->
<g id="node7" class="node"><title>Node7</title>
<g id="a_node7"><a xlink:href="handler_8hpp.html" target="_top" xlink:title="src/handler/handler.hpp">
<polygon fill="none" stroke="black" points="753.5,-129 753.5,-148 871.5,-148 871.5,-129 753.5,-129"/>
<text text-anchor="middle" x="812.5" y="-136" font-family="Helvetica,sans-Serif" font-size="10.00">src/handler/handler.hpp</text>
</a>
</g>
</g>
<!-- Node1&#45;&gt;Node7 -->
<g id="edge34" class="edge"><title>Node1&#45;&gt;Node7</title>
<path fill="none" stroke="midnightblue" d="M1067.14,-308.334C1051.86,-299.624 1031.85,-287.954 1014.5,-277 940.968,-230.564 855.669,-170.326 824.602,-148.168"/>
<polygon fill="midnightblue" stroke="midnightblue" points="1065.55,-311.455 1075.97,-313.342 1069,-305.365 1065.55,-311.455"/>
</g>
<!-- Node24 -->
<g id="node24" class="node"><title>Node24</title>
<g id="a_node24"><a xlink:href="connection_8cpp.html" target="_top" xlink:title="modules/irc/network\l/connection.cpp">
<polygon fill="none" stroke="black" points="1413.5,-56.5 1413.5,-86.5 1517.5,-86.5 1517.5,-56.5 1413.5,-56.5"/>
<text text-anchor="start" x="1421.5" y="-74.5" font-family="Helvetica,sans-Serif" font-size="10.00">modules/irc/network</text>
<text text-anchor="middle" x="1465.5" y="-63.5" font-family="Helvetica,sans-Serif" font-size="10.00">/connection.cpp</text>
</a>
</g>
</g>
<!-- Node1&#45;&gt;Node24 -->
<g id="edge38" class="edge"><title>Node1&#45;&gt;Node24</title>
<path fill="none" stroke="midnightblue" d="M1175.67,-318.505C1227.34,-313.669 1293.69,-302.501 1347.5,-277 1381.96,-260.669 1390.93,-252.445 1412.5,-221 1442.54,-177.207 1457.49,-114.507 1462.97,-86.7056"/>
<polygon fill="midnightblue" stroke="midnightblue" points="1175.2,-315.033 1165.54,-319.39 1175.81,-322.006 1175.2,-315.033"/>
</g>
<!-- Node26 -->
<g id="node26" class="node"><title>Node26</title>
<g id="a_node26"><a xlink:href="json_8hpp.html" target="_top" xlink:title="src/string/json.hpp">
<polygon fill="none" stroke="black" points="1241,-257.5 1241,-276.5 1338,-276.5 1338,-257.5 1241,-257.5"/>
<text text-anchor="middle" x="1289.5" y="-264.5" font-family="Helvetica,sans-Serif" font-size="10.00">src/string/json.hpp</text>
</a>
</g>
</g>
<!-- Node1&#45;&gt;Node26 -->
<g id="edge35" class="edge"><title>Node1&#45;&gt;Node26</title>
<path fill="none" stroke="midnightblue" d="M1132.94,-310.699C1170.31,-300.507 1224.44,-285.743 1258.27,-276.516"/>
<polygon fill="midnightblue" stroke="midnightblue" points="1131.6,-307.436 1122.87,-313.444 1133.44,-314.189 1131.6,-307.436"/>
</g>
<!-- Node28 -->
<g id="node28" class="node"><title>Node28</title>
<g id="a_node28"><a xlink:href="irc__formatter_8cpp.html" target="_top" xlink:title="modules/irc/irc_formatter.cpp">
<polygon fill="none" stroke="black" points="1460,-257.5 1460,-276.5 1603,-276.5 1603,-257.5 1460,-257.5"/>
<text text-anchor="middle" x="1531.5" y="-264.5" font-family="Helvetica,sans-Serif" font-size="10.00">modules/irc/irc_formatter.cpp</text>
</a>
</g>
</g>
<!-- Node1&#45;&gt;Node28 -->
<g id="edge39" class="edge"><title>Node1&#45;&gt;Node28</title>
<path fill="none" stroke="midnightblue" d="M1171.37,-312.198C1254.43,-302.004 1383.15,-286.206 1462.11,-276.516"/>
<polygon fill="midnightblue" stroke="midnightblue" points="1170.72,-308.751 1161.22,-313.444 1171.57,-315.699 1170.72,-308.751"/>
</g>
<!-- Node5 -->
<g id="node5" class="node"><title>Node5</title>
<g id="a_node5"><a xlink:href="melanobot_8hpp.html" target="_top" xlink:title="src/melanobot.hpp">
<polygon fill="none" stroke="black" points="1004,-196 1004,-215 1101,-215 1101,-196 1004,-196"/>
<text text-anchor="middle" x="1052.5" y="-203" font-family="Helvetica,sans-Serif" font-size="10.00">src/melanobot.hpp</text>
</a>
</g>
</g>
<!-- Node4&#45;&gt;Node5 -->
<g id="edge4" class="edge"><title>Node4&#45;&gt;Node5</title>
<path fill="none" stroke="midnightblue" d="M1080.36,-249.005C1073.07,-237.888 1063.87,-223.84 1058.08,-215.009"/>
<polygon fill="midnightblue" stroke="midnightblue" points="1077.5,-251.03 1085.91,-257.475 1083.36,-247.193 1077.5,-251.03"/>
</g>
<!-- Node4&#45;&gt;Node7 -->
<g id="edge29" class="edge"><title>Node4&#45;&gt;Node7</title>
<path fill="none" stroke="midnightblue" d="M1061.17,-253.416C1041.93,-245.038 1016.74,-233.334 995.5,-221 974.813,-208.988 972.706,-201.07 951.5,-190 915.88,-171.405 871.864,-156.672 843.029,-148.029"/>
<polygon fill="midnightblue" stroke="midnightblue" points="1059.8,-256.636 1070.37,-257.365 1062.56,-250.204 1059.8,-256.636"/>
</g>
<!-- Node22 -->
<g id="node22" class="node"><title>Node22</title>
<g id="a_node22"><a xlink:href="modules_2irc_2network_2connection_8hpp.html" target="_top" xlink:title="modules/irc/network\l/connection.hpp">
<polygon fill="none" stroke="black" points="1107.5,-123.5 1107.5,-153.5 1211.5,-153.5 1211.5,-123.5 1107.5,-123.5"/>
<text text-anchor="start" x="1115.5" y="-141.5" font-family="Helvetica,sans-Serif" font-size="10.00">modules/irc/network</text>
<text text-anchor="middle" x="1159.5" y="-130.5" font-family="Helvetica,sans-Serif" font-size="10.00">/connection.hpp</text>
</a>
</g>
</g>
<!-- Node4&#45;&gt;Node22 -->
<g id="edge33" class="edge"><title>Node4&#45;&gt;Node22</title>
<path fill="none" stroke="midnightblue" d="M1100.93,-248.466C1114.48,-223.251 1139.22,-177.225 1151.77,-153.888"/>
<polygon fill="midnightblue" stroke="midnightblue" points="1097.83,-246.84 1096.17,-257.305 1103.99,-250.154 1097.83,-246.84"/>
</g>
<!-- Node25 -->
<g id="node25" class="node"><title>Node25</title>
<g id="a_node25"><a xlink:href="buffer_8hpp.html" target="_top" xlink:title="modules/irc/network\l/buffer.hpp">
<polygon fill="none" stroke="black" points="1157.5,-190.5 1157.5,-220.5 1261.5,-220.5 1261.5,-190.5 1157.5,-190.5"/>
<text text-anchor="start" x="1165.5" y="-208.5" font-family="Helvetica,sans-Serif" font-size="10.00">modules/irc/network</text>
<text text-anchor="middle" x="1209.5" y="-197.5" font-family="Helvetica,sans-Serif" font-size="10.00">/buffer.hpp</text>
</a>
</g>
</g>
<!-- Node4&#45;&gt;Node25 -->
<g id="edge30" class="edge"><title>Node4&#45;&gt;Node25</title>
<path fill="none" stroke="midnightblue" d="M1117.4,-252.938C1136.43,-243.347 1162.23,-230.334 1181.69,-220.523"/>
<polygon fill="midnightblue" stroke="midnightblue" points="1115.76,-249.847 1108.41,-257.475 1118.91,-256.098 1115.76,-249.847"/>
</g>
<!-- Node6 -->
<g id="node6" class="node"><title>Node6</title>
<g id="a_node6"><a xlink:href="melanobot_8cpp.html" target="_top" xlink:title="src/melanobot.cpp">
<polygon fill="none" stroke="black" points="1000,-62 1000,-81 1097,-81 1097,-62 1000,-62"/>
<text text-anchor="middle" x="1048.5" y="-69" font-family="Helvetica,sans-Serif" font-size="10.00">src/melanobot.cpp</text>
</a>
</g>
</g>
<!-- Node5&#45;&gt;Node6 -->
<g id="edge5" class="edge"><title>Node5&#45;&gt;Node6</title>
<path fill="none" stroke="midnightblue" d="M1033.31,-189.139C1023.58,-180.079 1012.73,-167.718 1007.5,-154 1002.6,-141.125 1002.89,-135.985 1007.5,-123 1013.54,-105.971 1028.05,-90.5019 1038.08,-81.2945"/>
<polygon fill="midnightblue" stroke="midnightblue" points="1031.25,-191.984 1041.08,-195.929 1035.86,-186.713 1031.25,-191.984"/>
</g>
<!-- Node5&#45;&gt;Node7 -->
<g id="edge6" class="edge"><title>Node5&#45;&gt;Node7</title>
<path fill="none" stroke="midnightblue" d="M1010.97,-193.253C963.535,-180.405 886.963,-159.667 844.12,-148.064"/>
<polygon fill="midnightblue" stroke="midnightblue" points="1010.06,-196.633 1020.63,-195.869 1011.89,-189.876 1010.06,-196.633"/>
</g>
<!-- Node21 -->
<g id="node21" class="node"><title>Node21</title>
<g id="a_node21"><a xlink:href="main_8cpp.html" target="_top" xlink:title="src/main.cpp">
<polygon fill="none" stroke="black" points="1016,-129 1016,-148 1089,-148 1089,-129 1016,-129"/>
<text text-anchor="middle" x="1052.5" y="-136" font-family="Helvetica,sans-Serif" font-size="10.00">src/main.cpp</text>
</a>
</g>
</g>
<!-- Node5&#45;&gt;Node21 -->
<g id="edge24" class="edge"><title>Node5&#45;&gt;Node21</title>
<path fill="none" stroke="midnightblue" d="M1052.5,-185.537C1052.5,-173.17 1052.5,-157.62 1052.5,-148.127"/>
<polygon fill="midnightblue" stroke="midnightblue" points="1049,-185.734 1052.5,-195.734 1056,-185.734 1049,-185.734"/>
</g>
<!-- Node5&#45;&gt;Node22 -->
<g id="edge25" class="edge"><title>Node5&#45;&gt;Node22</title>
<path fill="none" stroke="midnightblue" d="M1075.62,-190.454C1093.57,-179.551 1118.34,-164.503 1136.31,-153.589"/>
<polygon fill="midnightblue" stroke="midnightblue" points="1073.66,-187.551 1066.93,-195.734 1077.29,-193.533 1073.66,-187.551"/>
</g>
<!-- Node7&#45;&gt;Node6 -->
<g id="edge7" class="edge"><title>Node7&#45;&gt;Node6</title>
<path fill="none" stroke="midnightblue" d="M853.629,-126.172C900.297,-113.319 975.366,-92.6427 1017.41,-81.0637"/>
<polygon fill="midnightblue" stroke="midnightblue" points="852.551,-122.839 843.839,-128.869 854.409,-129.587 852.551,-122.839"/>
</g>
<!-- Node8 -->
<g id="node8" class="node"><title>Node8</title>
<g id="a_node8"><a xlink:href="web-api_8hpp.html" target="_top" xlink:title="src/handler/web&#45;api.hpp">
<polygon fill="none" stroke="black" points="1275.5,-62 1275.5,-81 1395.5,-81 1395.5,-62 1275.5,-62"/>
<text text-anchor="middle" x="1335.5" y="-69" font-family="Helvetica,sans-Serif" font-size="10.00">src/handler/web&#45;api.hpp</text>
</a>
</g>
</g>
<!-- Node7&#45;&gt;Node8 -->
<g id="edge8" class="edge"><title>Node7&#45;&gt;Node8</title>
<path fill="none" stroke="midnightblue" d="M881.509,-131.908C970.732,-124.201 1130.78,-108.757 1266.5,-87 1276.77,-85.3531 1287.83,-83.2013 1298.02,-81.0614"/>
<polygon fill="midnightblue" stroke="midnightblue" points="881.178,-128.423 871.514,-132.765 881.776,-135.398 881.178,-128.423"/>
</g>
<!-- Node11 -->
<g id="node11" class="node"><title>Node11</title>
<g id="a_node11"><a xlink:href="misc_8cpp.html" target="_top" xlink:title="This file defines handlers which perform miscellaneous tasks. ">
<polygon fill="none" stroke="black" points="637,-62 637,-81 744,-81 744,-62 637,-62"/>
<text text-anchor="middle" x="690.5" y="-69" font-family="Helvetica,sans-Serif" font-size="10.00">src/handler/misc.cpp</text>
</a>
</g>
</g>
<!-- Node7&#45;&gt;Node11 -->
<g id="edge11" class="edge"><title>Node7&#45;&gt;Node11</title>
<path fill="none" stroke="midnightblue" d="M787.356,-124.103C763.195,-111.231 727.4,-92.16 706.768,-81.1672"/>
<polygon fill="midnightblue" stroke="midnightblue" points="785.828,-127.255 796.299,-128.869 789.12,-121.077 785.828,-127.255"/>
</g>
<!-- Node12 -->
<g id="node12" class="node"><title>Node12</title>
<g id="a_node12"><a xlink:href="bridge_8hpp.html" target="_top" xlink:title="src/handler/bridge.hpp">
<polygon fill="none" stroke="black" points="0,-62 0,-81 113,-81 113,-62 0,-62"/>
<text text-anchor="middle" x="56.5" y="-69" font-family="Helvetica,sans-Serif" font-size="10.00">src/handler/bridge.hpp</text>
</a>
</g>
</g>
<!-- Node7&#45;&gt;Node12 -->
<g id="edge12" class="edge"><title>Node7&#45;&gt;Node12</title>
<path fill="none" stroke="midnightblue" d="M743.306,-135.795C618.463,-131.976 347.497,-120.282 121.5,-87 111.32,-85.5007 100.361,-83.2914 90.3969,-81.0469"/>
<polygon fill="midnightblue" stroke="midnightblue" points="743.384,-139.299 753.484,-136.099 743.593,-132.302 743.384,-139.299"/>
</g>
<!-- Node14 -->
<g id="node14" class="node"><title>Node14</title>
<g id="a_node14"><a xlink:href="admin_8cpp.html" target="_top" xlink:title="This file defines handlers which allows admin to administrate the bot. ">
<polygon fill="none" stroke="black" points="131,-62 131,-81 244,-81 244,-62 131,-62"/>
<text text-anchor="middle" x="187.5" y="-69" font-family="Helvetica,sans-Serif" font-size="10.00">src/handler/admin.cpp</text>
</a>
</g>
</g>
<!-- Node7&#45;&gt;Node14 -->
<g id="edge14" class="edge"><title>Node7&#45;&gt;Node14</title>
<path fill="none" stroke="midnightblue" d="M743.076,-134.137C636.892,-128.342 427.984,-114.368 252.5,-87 242.447,-85.4322 231.625,-83.2288 221.75,-81.0122"/>
<polygon fill="midnightblue" stroke="midnightblue" points="743.163,-137.647 753.337,-134.689 743.539,-130.657 743.163,-137.647"/>
</g>
<!-- Node15 -->
<g id="node15" class="node"><title>Node15</title>
<g id="a_node15"><a xlink:href="handler_8cpp.html" target="_top" xlink:title="This file contains the definitions for the most basic and reusable handlers. ">
<polygon fill="none" stroke="black" points="381.5,-62 381.5,-81 499.5,-81 499.5,-62 381.5,-62"/>
<text text-anchor="middle" x="440.5" y="-69" font-family="Helvetica,sans-Serif" font-size="10.00">src/handler/handler.cpp</text>
</a>
</g>
</g>
<!-- Node7&#45;&gt;Node15 -->
<g id="edge15" class="edge"><title>Node7&#45;&gt;Node15</title>
<path fill="none" stroke="midnightblue" d="M746.628,-127.443C684.949,-117.816 590.285,-102.504 508.5,-87 498.894,-85.1789 488.559,-83.0585 478.918,-81.0107"/>
<polygon fill="midnightblue" stroke="midnightblue" points="746.195,-130.918 756.614,-128.997 747.271,-124.001 746.195,-130.918"/>
</g>
<!-- Node16 -->
<g id="node16" class="node"><title>Node16</title>
<g id="a_node16"><a xlink:href="irc__actions_8hpp.html" target="_top" xlink:title="modules/irc/handler\l/irc_actions.hpp">
<polygon fill="none" stroke="black" points="262,-56.5 262,-86.5 363,-86.5 363,-56.5 262,-56.5"/>
<text text-anchor="start" x="270" y="-74.5" font-family="Helvetica,sans-Serif" font-size="10.00">modules/irc/handler</text>
<text text-anchor="middle" x="312.5" y="-63.5" font-family="Helvetica,sans-Serif" font-size="10.00">/irc_actions.hpp</text>
</a>
</g>
</g>
<!-- Node7&#45;&gt;Node16 -->
<g id="edge16" class="edge"><title>Node7&#45;&gt;Node16</title>
<path fill="none" stroke="midnightblue" d="M743.441,-132.216C656.473,-124.957 502.672,-110.109 372.5,-87 369.44,-86.4568 366.303,-85.8506 363.147,-85.2026"/>
<polygon fill="midnightblue" stroke="midnightblue" points="743.197,-135.708 753.451,-133.043 743.773,-128.731 743.197,-135.708"/>
</g>
<!-- Node18 -->
<g id="node18" class="node"><title>Node18</title>
<g id="a_node18"><a xlink:href="ctcp_8hpp.html" target="_top" xlink:title="This files has handlers for CTCP messages. ">
<polygon fill="none" stroke="black" points="518,-56.5 518,-86.5 619,-86.5 619,-56.5 518,-56.5"/>
<text text-anchor="start" x="526" y="-74.5" font-family="Helvetica,sans-Serif" font-size="10.00">modules/irc/handler</text>
<text text-anchor="middle" x="568.5" y="-63.5" font-family="Helvetica,sans-Serif" font-size="10.00">/ctcp.hpp</text>
</a>
</g>
</g>
<!-- Node7&#45;&gt;Node18 -->
<g id="edge18" class="edge"><title>Node7&#45;&gt;Node18</title>
<path fill="none" stroke="midnightblue" d="M770.47,-126.304C728.579,-115.144 664.202,-97.9943 619.43,-86.0675"/>
<polygon fill="midnightblue" stroke="midnightblue" points="769.786,-129.743 780.35,-128.936 771.588,-122.979 769.786,-129.743"/>
</g>
<!-- Node19 -->
<g id="node19" class="node"><title>Node19</title>
<g id="a_node19"><a xlink:href="irc__admin_8hpp.html" target="_top" xlink:title="This file defines handlers which allows admin to administrate the bot (IRC&#45;specific actions) ...">
<polygon fill="none" stroke="black" points="762,-56.5 762,-86.5 863,-86.5 863,-56.5 762,-56.5"/>
<text text-anchor="start" x="770" y="-74.5" font-family="Helvetica,sans-Serif" font-size="10.00">modules/irc/handler</text>
<text text-anchor="middle" x="812.5" y="-63.5" font-family="Helvetica,sans-Serif" font-size="10.00">/irc_admin.hpp</text>
</a>
</g>
</g>
<!-- Node7&#45;&gt;Node19 -->
<g id="edge20" class="edge"><title>Node7&#45;&gt;Node19</title>
<path fill="none" stroke="midnightblue" d="M812.5,-118.411C812.5,-108.222 812.5,-95.901 812.5,-86.589"/>
<polygon fill="midnightblue" stroke="midnightblue" points="809,-118.734 812.5,-128.734 816,-118.734 809,-118.734"/>
</g>
<!-- Node20 -->
<g id="node20" class="node"><title>Node20</title>
<g id="a_node20"><a xlink:href="irc__whois_8hpp.html" target="_top" xlink:title="This file contains handlers for WHOIS recognition on IRC. ">
<polygon fill="none" stroke="black" points="881,-56.5 881,-86.5 982,-86.5 982,-56.5 881,-56.5"/>
<text text-anchor="start" x="889" y="-74.5" font-family="Helvetica,sans-Serif" font-size="10.00">modules/irc/handler</text>
<text text-anchor="middle" x="931.5" y="-63.5" font-family="Helvetica,sans-Serif" font-size="10.00">/irc_whois.hpp</text>
</a>
</g>
</g>
<!-- Node7&#45;&gt;Node20 -->
<g id="edge22" class="edge"><title>Node7&#45;&gt;Node20</title>
<path fill="none" stroke="midnightblue" d="M837.396,-123.902C857.417,-112.966 885.45,-97.6532 905.706,-86.589"/>
<polygon fill="midnightblue" stroke="midnightblue" points="835.647,-120.868 828.549,-128.734 839.003,-127.012 835.647,-120.868"/>
</g>
<!-- Node9 -->
<g id="node9" class="node"><title>Node9</title>
<g id="a_node9"><a xlink:href="web-api_8cpp.html" target="_top" xlink:title="This files defines some simple Handlers using web APIs. ">
<polygon fill="none" stroke="black" points="1211.5,-0.5 1211.5,-19.5 1331.5,-19.5 1331.5,-0.5 1211.5,-0.5"/>
<text text-anchor="middle" x="1271.5" y="-7.5" font-family="Helvetica,sans-Serif" font-size="10.00">src/handler/web&#45;api.cpp</text>
</a>
</g>
</g>
<!-- Node8&#45;&gt;Node9 -->
<g id="edge9" class="edge"><title>Node8&#45;&gt;Node9</title>
<path fill="none" stroke="midnightblue" d="M1318.99,-55.1496C1306.79,-43.8058 1290.63,-28.7811 1280.65,-19.5091"/>
<polygon fill="midnightblue" stroke="midnightblue" points="1316.62,-57.7295 1326.33,-61.9751 1321.39,-52.6028 1316.62,-57.7295"/>
</g>
<!-- Node10 -->
<g id="node10" class="node"><title>Node10</title>
<g id="a_node10"><a xlink:href="fun_8cpp.html" target="_top" xlink:title="This file contains definitions for handlers which are pretty useless. ">
<polygon fill="none" stroke="black" points="1349.5,-0.5 1349.5,-19.5 1449.5,-19.5 1449.5,-0.5 1349.5,-0.5"/>
<text text-anchor="middle" x="1399.5" y="-7.5" font-family="Helvetica,sans-Serif" font-size="10.00">src/handler/fun.cpp</text>
</a>
</g>
</g>
<!-- Node8&#45;&gt;Node10 -->
<g id="edge10" class="edge"><title>Node8&#45;&gt;Node10</title>
<path fill="none" stroke="midnightblue" d="M1352.01,-55.1496C1364.21,-43.8058 1380.37,-28.7811 1390.35,-19.5091"/>
<polygon fill="midnightblue" stroke="midnightblue" points="1349.61,-52.6028 1344.67,-61.9751 1354.38,-57.7295 1349.61,-52.6028"/>
</g>
<!-- Node13 -->
<g id="node13" class="node"><title>Node13</title>
<g id="a_node13"><a xlink:href="bridge_8cpp.html" target="_top" xlink:title="src/handler/bridge.cpp">
<polygon fill="none" stroke="black" points="0,-0.5 0,-19.5 113,-19.5 113,-0.5 0,-0.5"/>
<text text-anchor="middle" x="56.5" y="-7.5" font-family="Helvetica,sans-Serif" font-size="10.00">src/handler/bridge.cpp</text>
</a>
</g>
</g>
<!-- Node12&#45;&gt;Node13 -->
<g id="edge13" class="edge"><title>Node12&#45;&gt;Node13</title>
<path fill="none" stroke="midnightblue" d="M56.5,-51.8165C56.5,-40.9962 56.5,-27.898 56.5,-19.5091"/>
<polygon fill="midnightblue" stroke="midnightblue" points="53.0001,-51.9751 56.5,-61.9751 60.0001,-51.9751 53.0001,-51.9751"/>
</g>
<!-- Node17 -->
<g id="node17" class="node"><title>Node17</title>
<g id="a_node17"><a xlink:href="irc_8cpp.html" target="_top" xlink:title="modules/irc/irc.cpp">
<polygon fill="none" stroke="black" points="763,-0.5 763,-19.5 862,-19.5 862,-0.5 763,-0.5"/>
<text text-anchor="middle" x="812.5" y="-7.5" font-family="Helvetica,sans-Serif" font-size="10.00">modules/irc/irc.cpp</text>
</a>
</g>
</g>
<!-- Node16&#45;&gt;Node17 -->
<g id="edge17" class="edge"><title>Node16&#45;&gt;Node17</title>
<path fill="none" stroke="midnightblue" d="M373.257,-56.035C520.4,-31.3964 682.694,-19.0187 762.714,-13.8912"/>
<polygon fill="midnightblue" stroke="midnightblue" points="372.412,-52.6282 363.139,-57.7528 373.584,-59.5294 372.412,-52.6282"/>
</g>
<!-- Node18&#45;&gt;Node17 -->
<g id="edge19" class="edge"><title>Node18&#45;&gt;Node17</title>
<path fill="none" stroke="midnightblue" d="M628.973,-55.6425C686.222,-41.6525 742.19,-28.0555 777.372,-19.5183"/>
<polygon fill="midnightblue" stroke="midnightblue" points="627.911,-52.299 619.029,-58.0736 629.574,-59.0988 627.911,-52.299"/>
</g>
<!-- Node19&#45;&gt;Node17 -->
<g id="edge21" class="edge"><title>Node19&#45;&gt;Node17</title>
<path fill="none" stroke="midnightblue" d="M812.5,-46.2892C812.5,-36.857 812.5,-26.6548 812.5,-19.6578"/>
<polygon fill="midnightblue" stroke="midnightblue" points="809,-46.3993 812.5,-56.3993 816,-46.3994 809,-46.3993"/>
</g>
<!-- Node20&#45;&gt;Node17 -->
<g id="edge23" class="edge"><title>Node20&#45;&gt;Node17</title>
<path fill="none" stroke="midnightblue" d="M894.091,-51.7954C872.586,-41.0428 846.593,-28.0467 829.816,-19.6578"/>
<polygon fill="midnightblue" stroke="midnightblue" points="892.789,-55.0576 903.299,-56.3993 895.92,-48.7966 892.789,-55.0576"/>
</g>
<!-- Node22&#45;&gt;Node17 -->
<g id="edge26" class="edge"><title>Node22&#45;&gt;Node17</title>
<path fill="none" stroke="midnightblue" d="M1150.57,-113.906C1142.15,-95.071 1127.66,-69.6524 1106.5,-56 1067.02,-30.523 935.077,-18.5267 862.098,-13.7201"/>
<polygon fill="midnightblue" stroke="midnightblue" points="1147.42,-115.45 1154.52,-123.316 1153.88,-112.741 1147.42,-115.45"/>
</g>
<!-- Node23 -->
<g id="node23" class="node"><title>Node23</title>
<g id="a_node23"><a xlink:href="buffer_8cpp.html" target="_top" xlink:title="modules/irc/network\l/buffer.cpp">
<polygon fill="none" stroke="black" points="1153.5,-56.5 1153.5,-86.5 1257.5,-86.5 1257.5,-56.5 1153.5,-56.5"/>
<text text-anchor="start" x="1161.5" y="-74.5" font-family="Helvetica,sans-Serif" font-size="10.00">modules/irc/network</text>
<text text-anchor="middle" x="1205.5" y="-63.5" font-family="Helvetica,sans-Serif" font-size="10.00">/buffer.cpp</text>
</a>
</g>
</g>
<!-- Node22&#45;&gt;Node23 -->
<g id="edge27" class="edge"><title>Node22&#45;&gt;Node23</title>
<path fill="none" stroke="midnightblue" d="M1175.31,-115.157C1182.02,-105.679 1189.63,-94.9186 1195.54,-86.5765"/>
<polygon fill="midnightblue" stroke="midnightblue" points="1172.4,-113.211 1169.48,-123.396 1178.12,-117.255 1172.4,-113.211"/>
</g>
<!-- Node22&#45;&gt;Node24 -->
<g id="edge28" class="edge"><title>Node22&#45;&gt;Node24</title>
<path fill="none" stroke="midnightblue" d="M1221.62,-125.232C1271.21,-115.31 1342.42,-100.772 1404.5,-87 1407.37,-86.3634 1410.31,-85.6998 1413.28,-85.022"/>
<polygon fill="midnightblue" stroke="midnightblue" points="1220.81,-121.825 1211.69,-127.215 1222.18,-128.689 1220.81,-121.825"/>
</g>
<!-- Node25&#45;&gt;Node22 -->
<g id="edge32" class="edge"><title>Node25&#45;&gt;Node22</title>
<path fill="none" stroke="midnightblue" d="M1192.54,-182.447C1185.19,-172.899 1176.81,-162.004 1170.33,-153.577"/>
<polygon fill="midnightblue" stroke="midnightblue" points="1189.78,-184.604 1198.65,-190.396 1195.33,-180.336 1189.78,-184.604"/>
</g>
<!-- Node25&#45;&gt;Node23 -->
<g id="edge31" class="edge"><title>Node25&#45;&gt;Node23</title>
<path fill="none" stroke="midnightblue" d="M1216.25,-180.586C1219.97,-164.334 1223.31,-142.356 1220.5,-123 1218.68,-110.51 1214.47,-96.811 1210.97,-86.836"/>
<polygon fill="midnightblue" stroke="midnightblue" points="1212.83,-179.803 1213.81,-190.353 1219.63,-181.499 1212.83,-179.803"/>
</g>
<!-- Node26&#45;&gt;Node8 -->
<g id="edge36" class="edge"><title>Node26&#45;&gt;Node8</title>
<path fill="none" stroke="midnightblue" d="M1293.89,-247.547C1303.54,-206.936 1326.33,-111.072 1333.38,-81.4068"/>
<polygon fill="midnightblue" stroke="midnightblue" points="1290.44,-246.897 1291.54,-257.436 1297.25,-248.517 1290.44,-246.897"/>
</g>
<!-- Node27 -->
<g id="node27" class="node"><title>Node27</title>
<g id="a_node27"><a xlink:href="settings_8cpp.html" target="_top" xlink:title="src/settings.cpp">
<polygon fill="none" stroke="black" points="1317.5,-196 1317.5,-215 1403.5,-215 1403.5,-196 1317.5,-196"/>
<text text-anchor="middle" x="1360.5" y="-203" font-family="Helvetica,sans-Serif" font-size="10.00">src/settings.cpp</text>
</a>
</g>
</g>
<!-- Node26&#45;&gt;Node27 -->
<g id="edge37" class="edge"><title>Node26&#45;&gt;Node27</title>
<path fill="none" stroke="midnightblue" d="M1307.43,-250.973C1321.01,-239.593 1339.18,-224.369 1350.35,-215.009"/>
<polygon fill="midnightblue" stroke="midnightblue" points="1305.09,-248.369 1299.67,-257.475 1309.59,-253.735 1305.09,-248.369"/>
</g>
</g>
</svg>
        <g id="navigator" transform="translate(0 0)" fill="#404254">
                <rect fill="#f2f5e9" fill-opacity="0.5" stroke="#606060" stroke-width=".5" x="0" y="0" width="60" height="60"/>
                <use id="zoomplus" xlink:href="#zoomPlus" x="17" y="9" onmousedown="handleZoom(evt,'in')"/>
                <use id="zoomminus" xlink:href="#zoomMin" x="42" y="9" onmousedown="handleZoom(evt,'out')"/>
                <use id="reset" xlink:href="#resetDef" x="30" y="36" onmousedown="handleReset()"/>
                <g id="arrowUp" xlink:href="#dirArrow" transform="translate(30 24)" onmousedown="handlePan(0,-1)">
                  <use xlink:href="#rim" fill="#404040">
                        <set attributeName="fill" to="#808080" begin="arrowUp.mouseover" end="arrowUp.mouseout"/>
                  </use>
                  <path fill="none" stroke="white" stroke-width="1.5" d="M0,-3.0v7 M-2.5,-0.5L0,-3.0L2.5,-0.5"/>
                </g>
                <g id="arrowRight" xlink:href="#dirArrow" transform="rotate(90) translate(36 -43)" onmousedown="handlePan(1,0)">
                  <use xlink:href="#rim" fill="#404040">
                        <set attributeName="fill" to="#808080" begin="arrowRight.mouseover" end="arrowRight.mouseout"/>
                  </use>
                  <path fill="none" stroke="white" stroke-width="1.5" d="M0,-3.0v7 M-2.5,-0.5L0,-3.0L2.5,-0.5"/>
                </g>
                <g id="arrowDown" xlink:href="#dirArrow" transform="rotate(180) translate(-30 -48)" onmousedown="handlePan(0,1)">
                  <use xlink:href="#rim" fill="#404040">
                        <set attributeName="fill" to="#808080" begin="arrowDown.mouseover" end="arrowDown.mouseout"/>
                  </use>
                  <path fill="none" stroke="white" stroke-width="1.5" d="M0,-3.0v7 M-2.5,-0.5L0,-3.0L2.5,-0.5"/>
                </g>
                <g id="arrowLeft" xlink:href="#dirArrow" transform="rotate(270) translate(-36 17)" onmousedown="handlePan(-1,0)">
                  <use xlink:href="#rim" fill="#404040">
                        <set attributeName="fill" to="#808080" begin="arrowLeft.mouseover" end="arrowLeft.mouseout"/>
                  </use>
                  <path fill="none" stroke="white" stroke-width="1.5" d="M0,-3.0v7 M-2.5,-0.5L0,-3.0L2.5,-0.5"/>
                </g>
        </g>
        <svg viewBox="0 0 15 15" width="100%" height="30px" preserveAspectRatio="xMaxYMin meet">
         <g id="arrow_out" transform="scale(0.3 0.3)">
          <a xlink:href="string__functions_8hpp__dep__incl_org.svg" target="_base">
           <rect id="button" ry="5" rx="5" y="6" x="6" height="38" width="38"
                fill="#f2f5e9" fill-opacity="0.5" stroke="#606060" stroke-width="1.0"/>
           <path id="arrow"
             d="M 11.500037,31.436501 C 11.940474,20.09759 22.043105,11.32322 32.158766,21.979434 L 37.068811,17.246167 C 37.068811,17.246167 37.088388,32 37.088388,32 L 22.160133,31.978069 C 22.160133,31.978069 26.997745,27.140456 26.997745,27.140456 C 18.528582,18.264221 13.291696,25.230495 11.500037,31.436501 z"
             style="fill:#404040;"/>
          </a>
         </g>
        </svg>
</svg>
