<?xml version="1.0" encoding="UTF-8" standalone="no"?>
<!DOCTYPE svg PUBLIC "-//W3C//DTD SVG 1.1//EN"
 "http://www.w3.org/Graphics/SVG/1.1/DTD/svg11.dtd">
<!-- Generated by graphviz version 2.38.0 (20140413.2041)
 -->
<!-- Title: src/string/string.hpp Pages: 1 -->
<svg width="631pt" height="140pt"
 viewBox="0.00 0.00 631.00 140.00" xmlns="http://www.w3.org/2000/svg" xmlns:xlink="http://www.w3.org/1999/xlink">
<g id="graph0" class="graph" transform="scale(1 1) rotate(0) translate(4 136)">
<title>src/string/string.hpp</title>
<!-- Node1 -->
<g id="node1" class="node"><title>Node1</title>
<polygon fill="#bfbfbf" stroke="black" points="233.5,-112.5 233.5,-131.5 336.5,-131.5 336.5,-112.5 233.5,-112.5"/>
<text text-anchor="middle" x="285" y="-119.5" font-family="Helvetica,sans-Serif" font-size="10.00">src/string/string.hpp</text>
</g>
<!-- Node2 -->
<g id="node2" class="node"><title>Node2</title>
<polygon fill="none" stroke="#bfbfbf" points="0,-0.5 0,-19.5 46,-19.5 46,-0.5 0,-0.5"/>
<text text-anchor="middle" x="23" y="-7.5" font-family="Helvetica,sans-Serif" font-size="10.00">cstdint</text>
</g>
<!-- Node1&#45;&gt;Node2 -->
<g id="edge1" class="edge"><title>Node1&#45;&gt;Node2</title>
<path fill="none" stroke="midnightblue" d="M233.262,-117.831C190.773,-113.325 130.274,-102.414 84,-76 63.2979,-64.1827 45.4246,-43.0544 34.4706,-28.0978"/>
<polygon fill="midnightblue" stroke="midnightblue" points="37.1958,-25.8885 28.581,-19.7212 31.4696,-29.9147 37.1958,-25.8885"/>
</g>
<!-- Node3 -->
<g id="node3" class="node"><title>Node3</title>
<polygon fill="none" stroke="#bfbfbf" points="181.5,-56.5 181.5,-75.5 240.5,-75.5 240.5,-56.5 181.5,-56.5"/>
<text text-anchor="middle" x="211" y="-63.5" font-family="Helvetica,sans-Serif" font-size="10.00">functional</text>
</g>
<!-- Node1&#45;&gt;Node3 -->
<g id="edge2" class="edge"><title>Node1&#45;&gt;Node3</title>
<path fill="none" stroke="midnightblue" d="M273.111,-112.324C261.85,-104.107 244.713,-91.6017 231.291,-81.8069"/>
<polygon fill="midnightblue" stroke="midnightblue" points="233.247,-78.9014 223.106,-75.8339 229.12,-84.5559 233.247,-78.9014"/>
</g>
<!-- Node4 -->
<g id="node4" class="node"><title>Node4</title>
<polygon fill="none" stroke="#bfbfbf" points="259,-56.5 259,-75.5 311,-75.5 311,-56.5 259,-56.5"/>
<text text-anchor="middle" x="285" y="-63.5" font-family="Helvetica,sans-Serif" font-size="10.00">memory</text>
</g>
<!-- Node1&#45;&gt;Node4 -->
<g id="edge3" class="edge"><title>Node1&#45;&gt;Node4</title>
<path fill="none" stroke="midnightblue" d="M285,-112.083C285,-105.006 285,-94.8611 285,-85.9865"/>
<polygon fill="midnightblue" stroke="midnightblue" points="288.5,-85.751 285,-75.7511 281.5,-85.7511 288.5,-85.751"/>
</g>
<!-- Node5 -->
<g id="node5" class="node"><title>Node5</title>
<polygon fill="none" stroke="#bfbfbf" points="329.5,-56.5 329.5,-75.5 388.5,-75.5 388.5,-56.5 329.5,-56.5"/>
<text text-anchor="middle" x="359" y="-63.5" font-family="Helvetica,sans-Serif" font-size="10.00">stdexcept</text>
</g>
<!-- Node1&#45;&gt;Node5 -->
<g id="edge4" class="edge"><title>Node1&#45;&gt;Node5</title>
<path fill="none" stroke="midnightblue" d="M296.889,-112.324C308.15,-104.107 325.287,-91.6017 338.709,-81.8069"/>
<polygon fill="midnightblue" stroke="midnightblue" points="340.88,-84.5559 346.894,-75.8339 336.753,-78.9014 340.88,-84.5559"/>
</g>
<!-- Node6 -->
<g id="node6" class="node"><title>Node6</title>
<polygon fill="none" stroke="#bfbfbf" points="64.5,-0.5 64.5,-19.5 105.5,-19.5 105.5,-0.5 64.5,-0.5"/>
<text text-anchor="middle" x="85" y="-7.5" font-family="Helvetica,sans-Serif" font-size="10.00">string</text>
</g>
<!-- Node1&#45;&gt;Node6 -->
<g id="edge5" class="edge"><title>Node1&#45;&gt;Node6</title>
<path fill="none" stroke="midnightblue" d="M233.188,-114.819C184.51,-107.937 116.462,-95.1917 98,-76 86.4165,-63.9586 83.7905,-44.6685 83.6875,-30.2248"/>
<polygon fill="midnightblue" stroke="midnightblue" points="87.1959,-30.0198 84.0229,-19.9113 80.1996,-29.7922 87.1959,-30.0198"/>
</g>
<!-- Node7 -->
<g id="node7" class="node"><title>Node7</title>
<polygon fill="none" stroke="#bfbfbf" points="407,-56.5 407,-75.5 459,-75.5 459,-56.5 407,-56.5"/>
<text text-anchor="middle" x="433" y="-63.5" font-family="Helvetica,sans-Serif" font-size="10.00">sstream</text>
</g>
<!-- Node1&#45;&gt;Node7 -->
<g id="edge6" class="edge"><title>Node1&#45;&gt;Node7</title>
<path fill="none" stroke="midnightblue" d="M308.451,-112.444C333.133,-103.438 372.185,-89.1891 399.977,-79.049"/>
<polygon fill="midnightblue" stroke="midnightblue" points="401.464,-82.2321 409.659,-75.5164 399.065,-75.6561 401.464,-82.2321"/>
</g>
<!-- Node8 -->
<g id="node8" class="node"><title>Node8</title>
<polygon fill="none" stroke="#bfbfbf" points="477.5,-56.5 477.5,-75.5 560.5,-75.5 560.5,-56.5 477.5,-56.5"/>
<text text-anchor="middle" x="519" y="-63.5" font-family="Helvetica,sans-Serif" font-size="10.00">unordered_map</text>
</g>
<!-- Node1&#45;&gt;Node8 -->
<g id="edge7" class="edge"><title>Node1&#45;&gt;Node8</title>
<path fill="none" stroke="midnightblue" d="M322.078,-112.444C362.728,-103.063 428.032,-87.9926 472.184,-77.8036"/>
<polygon fill="midnightblue" stroke="midnightblue" points="473.139,-81.1755 482.095,-75.5164 471.565,-74.3547 473.139,-81.1755"/>
</g>
<!-- Node9 -->
<g id="node9" class="node"><title>Node9</title>
<polygon fill="none" stroke="#bfbfbf" points="579,-56.5 579,-75.5 623,-75.5 623,-56.5 579,-56.5"/>
<text text-anchor="middle" x="601" y="-63.5" font-family="Helvetica,sans-Serif" font-size="10.00">vector</text>
</g>
<!-- Node1&#45;&gt;Node9 -->
<g id="edge8" class="edge"><title>Node1&#45;&gt;Node9</title>
<path fill="none" stroke="midnightblue" d="M336.594,-114.842C391.838,-107.805 482.194,-95.0241 568.748,-76.0491"/>
<polygon fill="midnightblue" stroke="midnightblue" points="569.734,-79.4153 578.736,-73.8276 568.214,-72.5822 569.734,-79.4153"/>
</g>
<!-- Node10 -->
<g id="node10" class="node"><title>Node10</title>
<g id="a_node10"><a xlink:href="color_8hpp.html" target="_top" xlink:title="color.hpp">
<polygon fill="none" stroke="black" points="107,-56.5 107,-75.5 163,-75.5 163,-56.5 107,-56.5"/>
<text text-anchor="middle" x="135" y="-63.5" font-family="Helvetica,sans-Serif" font-size="10.00">color.hpp</text>
</a>
</g>
</g>
<!-- Node1&#45;&gt;Node10 -->
<g id="edge9" class="edge"><title>Node1&#45;&gt;Node10</title>
<path fill="none" stroke="midnightblue" d="M261.232,-112.444C236.107,-103.399 196.289,-89.064 168.1,-78.9158"/>
<polygon fill="midnightblue" stroke="midnightblue" points="169.251,-75.6106 158.657,-75.5164 166.88,-82.1968 169.251,-75.6106"/>
</g>
<!-- Node10&#45;&gt;Node2 -->
<g id="edge11" class="edge"><title>Node10&#45;&gt;Node2</title>
<path fill="none" stroke="midnightblue" d="M117.005,-56.324C98.9623,-47.6247 70.9531,-34.1202 50.1973,-24.113"/>
<polygon fill="midnightblue" stroke="midnightblue" points="51.4778,-20.8449 40.9501,-19.6545 48.4377,-27.1502 51.4778,-20.8449"/>
</g>
<!-- Node10&#45;&gt;Node6 -->
<g id="edge13" class="edge"><title>Node10&#45;&gt;Node6</title>
<path fill="none" stroke="midnightblue" d="M126.744,-56.083C119.535,-48.2982 108.89,-36.8015 100.154,-27.3665"/>
<polygon fill="midnightblue" stroke="midnightblue" points="102.465,-24.7108 93.1028,-19.7511 97.3288,-29.4666 102.465,-24.7108"/>
</g>
<!-- Node11 -->
<g id="node11" class="node"><title>Node11</title>
<polygon fill="none" stroke="#bfbfbf" points="124,-0.5 124,-19.5 170,-19.5 170,-0.5 124,-0.5"/>
<text text-anchor="middle" x="147" y="-7.5" font-family="Helvetica,sans-Serif" font-size="10.00">cctype</text>
</g>
<!-- Node10&#45;&gt;Node11 -->
<g id="edge10" class="edge"><title>Node10&#45;&gt;Node11</title>
<path fill="none" stroke="midnightblue" d="M136.982,-56.083C138.572,-48.9272 140.859,-38.6353 142.846,-29.6911"/>
<polygon fill="midnightblue" stroke="midnightblue" points="146.303,-30.2722 145.055,-19.7511 139.469,-28.7537 146.303,-30.2722"/>
</g>
<!-- Node12 -->
<g id="node12" class="node"><title>Node12</title>
<polygon fill="none" stroke="#bfbfbf" points="188.5,-0.5 188.5,-19.5 233.5,-19.5 233.5,-0.5 188.5,-0.5"/>
<text text-anchor="middle" x="211" y="-7.5" font-family="Helvetica,sans-Serif" font-size="10.00">cstdlib</text>
</g>
<!-- Node10&#45;&gt;Node12 -->
<g id="edge12" class="edge"><title>Node10&#45;&gt;Node12</title>
<path fill="none" stroke="midnightblue" d="M147.211,-56.324C158.776,-48.1066 176.375,-35.6017 190.161,-25.8069"/>
<polygon fill="midnightblue" stroke="midnightblue" points="192.443,-28.4791 198.567,-19.8339 188.388,-22.7729 192.443,-28.4791"/>
</g>
</g>
</svg>
