<?xml version="1.0" encoding="UTF-8" standalone="no"?>
<!DOCTYPE svg PUBLIC "-//W3C//DTD SVG 1.1//EN"
 "http://www.w3.org/Graphics/SVG/1.1/DTD/svg11.dtd">
<!-- Generated by graphviz version 2.38.0 (20140413.2041)
 -->
<!-- Title: src/string/string_functions.cpp Pages: 1 -->
<!--zoomable 207 -->
<svg id="main" version="1.1" xmlns="http://www.w3.org/2000/svg" xmlns:xlink="http://www.w3.org/1999/xlink" xml:space="preserve" onload="init(evt)">
<style type="text/css"><![CDATA[
.edge:hover path { stroke: red; }
.edge:hover polygon { stroke: red; fill: red; }
]]></style>
<script type="text/javascript"><![CDATA[
var edges = document.getElementsByTagName('g');
if (edges && edges.length) {
  for (var i=0;i<edges.length;i++) {
    if (edges[i].id.substr(0,4)=='edge') {
      edges[i].setAttribute('class','edge');
    }
  }
}
]]></script>
        <defs>
                <circle id="rim" cx="0" cy="0" r="7"/>
                <circle id="rim2" cx="0" cy="0" r="3.5"/>
                <g id="zoomPlus">
                        <use xlink:href="#rim" fill="#404040">
                                <set attributeName="fill" to="#808080" begin="zoomplus.mouseover" end="zoomplus.mouseout"/>
                        </use>
                        <path d="M-4,0h8M0,-4v8" fill="none" stroke="white" stroke-width="1.5" pointer-events="none"/>
                </g>
                <g id="zoomMin">
                        <use xlink:href="#rim" fill="#404040">
                                <set attributeName="fill" to="#808080" begin="zoomminus.mouseover" end="zoomminus.mouseout"/>
                        </use>
                        <path d="M-4,0h8" fill="none" stroke="white" stroke-width="1.5" pointer-events="none"/>
                </g>
                <g id="dirArrow">
                        <path fill="none" stroke="white" stroke-width="1.5" d="M0,-3.0v7 M-2.5,-0.5L0,-3.0L2.5,-0.5"/>
                </g>
               <g id="resetDef">
                       <use xlink:href="#rim2" fill="#404040">
                               <set attributeName="fill" to="#808080" begin="reset.mouseover" end="reset.mouseout"/>
                       </use>
               </g>
        </defs>

<script type="text/javascript">
var viewWidth = 647;
var viewHeight = 207;
var sectionId = 'dynsection-0';
</script>
<script xlink:href="svgpan.js"/>
<svg id="graph" class="graph">
<g id="viewport">
<title>src/string/string_functions.cpp</title>
<!-- Node1 -->
<g id="node1" class="node"><title>Node1</title>
<polygon fill="#bfbfbf" stroke="black" points="306.5,-179.5 306.5,-198.5 454.5,-198.5 454.5,-179.5 306.5,-179.5"/>
<text text-anchor="middle" x="380.5" y="-186.5" font-family="Helvetica,sans-Serif" font-size="10.00">src/string/string_functions.cpp</text>
</g>
<!-- Node2 -->
<g id="node2" class="node"><title>Node2</title>
<g id="a_node2"><a xlink:href="string__functions_8hpp.html" target="_top" xlink:title="string_functions.hpp">
<polygon fill="none" stroke="black" points="221.5,-123.5 221.5,-142.5 325.5,-142.5 325.5,-123.5 221.5,-123.5"/>
<text text-anchor="middle" x="273.5" y="-130.5" font-family="Helvetica,sans-Serif" font-size="10.00">string_functions.hpp</text>
</a>
</g>
</g>
<!-- Node1&#45;&gt;Node2 -->
<g id="edge1" class="edge"><title>Node1&#45;&gt;Node2</title>
<path fill="none" stroke="midnightblue" d="M363.309,-179.324C346.149,-170.664 319.554,-157.242 299.753,-147.249"/>
<polygon fill="midnightblue" stroke="midnightblue" points="301.153,-144.035 290.649,-142.655 297.999,-150.285 301.153,-144.035"/>
</g>
<!-- Node13 -->
<g id="node13" class="node"><title>Node13</title>
<g id="a_node13"><a xlink:href="trie_8hpp.html" target="_top" xlink:title="trie.hpp">
<polygon fill="none" stroke="black" points="431,-123.5 431,-142.5 480,-142.5 480,-123.5 431,-123.5"/>
<text text-anchor="middle" x="455.5" y="-130.5" font-family="Helvetica,sans-Serif" font-size="10.00">trie.hpp</text>
</a>
</g>
</g>
<!-- Node1&#45;&gt;Node13 -->
<g id="edge13" class="edge"><title>Node1&#45;&gt;Node13</title>
<path fill="none" stroke="midnightblue" d="M392.55,-179.324C403.963,-171.107 421.331,-158.602 434.935,-148.807"/>
<polygon fill="midnightblue" stroke="midnightblue" points="437.16,-151.517 443.231,-142.834 433.07,-145.837 437.16,-151.517"/>
</g>
<!-- Node3 -->
<g id="node3" class="node"><title>Node3</title>
<polygon fill="none" stroke="#bfbfbf" points="350.5,-67.5 350.5,-86.5 406.5,-86.5 406.5,-67.5 350.5,-67.5"/>
<text text-anchor="middle" x="378.5" y="-74.5" font-family="Helvetica,sans-Serif" font-size="10.00">algorithm</text>
</g>
<!-- Node2&#45;&gt;Node3 -->
<g id="edge2" class="edge"><title>Node2&#45;&gt;Node3</title>
<path fill="none" stroke="midnightblue" d="M290.37,-123.324C307.209,-114.664 333.307,-101.242 352.738,-91.249"/>
<polygon fill="midnightblue" stroke="midnightblue" points="354.38,-94.3405 361.672,-86.6545 351.178,-88.1155 354.38,-94.3405"/>
</g>
<!-- Node4 -->
<g id="node4" class="node"><title>Node4</title>
<polygon fill="none" stroke="#bfbfbf" points="156,-67.5 156,-86.5 203,-86.5 203,-67.5 156,-67.5"/>
<text text-anchor="middle" x="179.5" y="-74.5" font-family="Helvetica,sans-Serif" font-size="10.00">iterator</text>
</g>
<!-- Node2&#45;&gt;Node4 -->
<g id="edge3" class="edge"><title>Node2&#45;&gt;Node4</title>
<path fill="none" stroke="midnightblue" d="M258.397,-123.324C243.597,-114.822 220.806,-101.729 203.518,-91.7975"/>
<polygon fill="midnightblue" stroke="midnightblue" points="204.98,-88.6009 194.565,-86.6545 201.493,-94.6707 204.98,-88.6009"/>
</g>
<!-- Node5 -->
<g id="node5" class="node"><title>Node5</title>
<polygon fill="none" stroke="#bfbfbf" points="221,-67.5 221,-86.5 262,-86.5 262,-67.5 221,-67.5"/>
<text text-anchor="middle" x="241.5" y="-74.5" font-family="Helvetica,sans-Serif" font-size="10.00">regex</text>
</g>
<!-- Node2&#45;&gt;Node5 -->
<g id="edge4" class="edge"><title>Node2&#45;&gt;Node5</title>
<path fill="none" stroke="midnightblue" d="M268.216,-123.083C263.789,-115.613 257.337,-104.724 251.882,-95.5199"/>
<polygon fill="midnightblue" stroke="midnightblue" points="254.795,-93.5697 246.686,-86.7511 248.773,-97.1383 254.795,-93.5697"/>
</g>
<!-- Node6 -->
<g id="node6" class="node"><title>Node6</title>
<polygon fill="none" stroke="#bfbfbf" points="280.5,-67.5 280.5,-86.5 332.5,-86.5 332.5,-67.5 280.5,-67.5"/>
<text text-anchor="middle" x="306.5" y="-74.5" font-family="Helvetica,sans-Serif" font-size="10.00">sstream</text>
</g>
<!-- Node2&#45;&gt;Node6 -->
<g id="edge5" class="edge"><title>Node2&#45;&gt;Node6</title>
<path fill="none" stroke="midnightblue" d="M278.949,-123.083C283.514,-115.613 290.168,-104.724 295.793,-95.5199"/>
<polygon fill="midnightblue" stroke="midnightblue" points="298.924,-97.109 301.152,-86.7511 292.951,-93.4588 298.924,-97.109"/>
</g>
<!-- Node7 -->
<g id="node7" class="node"><title>Node7</title>
<polygon fill="none" stroke="#bfbfbf" points="0,-6 0,-25 41,-25 41,-6 0,-6"/>
<text text-anchor="middle" x="20.5" y="-13" font-family="Helvetica,sans-Serif" font-size="10.00">string</text>
</g>
<!-- Node2&#45;&gt;Node7 -->
<g id="edge6" class="edge"><title>Node2&#45;&gt;Node7</title>
<path fill="none" stroke="midnightblue" d="M221.37,-126.183C166.235,-119.156 83.7857,-105.88 58.5,-87 41.4819,-74.2928 31.2435,-51.65 25.7531,-35.4524"/>
<polygon fill="midnightblue" stroke="midnightblue" points="28.9685,-34.0006 22.6856,-25.4697 22.2773,-36.0567 28.9685,-34.0006"/>
</g>
<!-- Node8 -->
<g id="node8" class="node"><title>Node8</title>
<polygon fill="none" stroke="#bfbfbf" points="424.5,-67.5 424.5,-86.5 486.5,-86.5 486.5,-67.5 424.5,-67.5"/>
<text text-anchor="middle" x="455.5" y="-74.5" font-family="Helvetica,sans-Serif" font-size="10.00">type_traits</text>
</g>
<!-- Node2&#45;&gt;Node8 -->
<g id="edge7" class="edge"><title>Node2&#45;&gt;Node8</title>
<path fill="none" stroke="midnightblue" d="M302.338,-123.444C333.356,-114.241 382.829,-99.5617 417.118,-89.3879"/>
<polygon fill="midnightblue" stroke="midnightblue" points="418.205,-92.7164 426.796,-86.5164 416.214,-86.0055 418.205,-92.7164"/>
</g>
<!-- Node9 -->
<g id="node9" class="node"><title>Node9</title>
<g id="a_node9"><a xlink:href="settings_8hpp.html" target="_top" xlink:title="settings.hpp">
<polygon fill="none" stroke="black" points="67.5,-67.5 67.5,-86.5 137.5,-86.5 137.5,-67.5 67.5,-67.5"/>
<text text-anchor="middle" x="102.5" y="-74.5" font-family="Helvetica,sans-Serif" font-size="10.00">settings.hpp</text>
</a>
</g>
</g>
<!-- Node2&#45;&gt;Node9 -->
<g id="edge8" class="edge"><title>Node2&#45;&gt;Node9</title>
<path fill="none" stroke="midnightblue" d="M246.405,-123.444C217.512,-114.32 171.575,-99.8133 139.395,-89.6509"/>
<polygon fill="midnightblue" stroke="midnightblue" points="140.059,-86.1903 129.469,-86.5164 137.951,-92.8654 140.059,-86.1903"/>
</g>
<!-- Node9&#45;&gt;Node7 -->
<g id="edge9" class="edge"><title>Node9&#45;&gt;Node7</title>
<path fill="none" stroke="midnightblue" d="M90.7514,-67.4751C77.7206,-58.0199 56.4644,-42.5961 40.7411,-31.1871"/>
<polygon fill="midnightblue" stroke="midnightblue" points="42.3761,-28.0492 32.2268,-25.0091 38.2651,-33.7149 42.3761,-28.0492"/>
</g>
<!-- Node10 -->
<g id="node10" class="node"><title>Node10</title>
<polygon fill="none" stroke="#bfbfbf" points="178.5,-6 178.5,-25 224.5,-25 224.5,-6 178.5,-6"/>
<text text-anchor="middle" x="201.5" y="-13" font-family="Helvetica,sans-Serif" font-size="10.00">cstdint</text>
</g>
<!-- Node9&#45;&gt;Node10 -->
<g id="edge10" class="edge"><title>Node9&#45;&gt;Node10</title>
<path fill="none" stroke="midnightblue" d="M116.684,-67.4751C132.858,-57.7548 159.526,-41.7266 178.643,-30.2372"/>
<polygon fill="midnightblue" stroke="midnightblue" points="180.574,-33.1603 187.342,-25.0091 176.968,-27.1606 180.574,-33.1603"/>
</g>
<!-- Node11 -->
<g id="node11" class="node"><title>Node11</title>
<polygon fill="none" stroke="#bfbfbf" points="358,-6 358,-25 441,-25 441,-6 358,-6"/>
<text text-anchor="middle" x="399.5" y="-13" font-family="Helvetica,sans-Serif" font-size="10.00">unordered_map</text>
</g>
<!-- Node9&#45;&gt;Node11 -->
<g id="edge11" class="edge"><title>Node9&#45;&gt;Node11</title>
<path fill="none" stroke="midnightblue" d="M137.561,-68.8127C140.584,-68.1978 143.596,-67.5869 146.5,-67 216.264,-52.9025 296.901,-36.8486 348.032,-26.6989"/>
<polygon fill="midnightblue" stroke="midnightblue" points="348.725,-30.1297 357.853,-24.75 347.363,-23.2636 348.725,-30.1297"/>
</g>
<!-- Node12 -->
<g id="node12" class="node"><title>Node12</title>
<polygon fill="none" stroke="#bfbfbf" points="59,-0.5 59,-30.5 160,-30.5 160,-0.5 59,-0.5"/>
<text text-anchor="start" x="67" y="-18.5" font-family="Helvetica,sans-Serif" font-size="10.00">boost/property_tree</text>
<text text-anchor="middle" x="109.5" y="-7.5" font-family="Helvetica,sans-Serif" font-size="10.00">/ptree.hpp</text>
</g>
<!-- Node9&#45;&gt;Node12 -->
<g id="edge12" class="edge"><title>Node9&#45;&gt;Node12</title>
<path fill="none" stroke="midnightblue" d="M103.503,-67.4751C104.327,-60.471 105.536,-50.1919 106.653,-40.6956"/>
<polygon fill="midnightblue" stroke="midnightblue" points="110.158,-40.8635 107.85,-30.523 103.206,-40.0455 110.158,-40.8635"/>
</g>
<!-- Node13&#45;&gt;Node3 -->
<g id="edge14" class="edge"><title>Node13&#45;&gt;Node3</title>
<path fill="none" stroke="midnightblue" d="M443.129,-123.324C431.342,-115.058 413.368,-102.453 399.364,-92.6322"/>
<polygon fill="midnightblue" stroke="midnightblue" points="401.038,-89.5307 390.841,-86.6545 397.018,-95.2619 401.038,-89.5307"/>
</g>
<!-- Node13&#45;&gt;Node8 -->
<g id="edge15" class="edge"><title>Node13&#45;&gt;Node8</title>
<path fill="none" stroke="midnightblue" d="M455.5,-123.083C455.5,-116.006 455.5,-105.861 455.5,-96.9865"/>
<polygon fill="midnightblue" stroke="midnightblue" points="459,-96.751 455.5,-86.7511 452,-96.7511 459,-96.751"/>
</g>
<!-- Node13&#45;&gt;Node11 -->
<g id="edge16" class="edge"><title>Node13&#45;&gt;Node11</title>
<path fill="none" stroke="midnightblue" d="M467.507,-123.406C483.319,-110.993 507.761,-87.3032 495.5,-67 484.257,-48.3825 463.621,-36.2852 444.354,-28.6142"/>
<polygon fill="midnightblue" stroke="midnightblue" points="445.352,-25.2522 434.758,-25.095 442.942,-31.8242 445.352,-25.2522"/>
</g>
<!-- Node14 -->
<g id="node14" class="node"><title>Node14</title>
<polygon fill="none" stroke="#bfbfbf" points="542.5,-67.5 542.5,-86.5 638.5,-86.5 638.5,-67.5 542.5,-67.5"/>
<text text-anchor="middle" x="590.5" y="-74.5" font-family="Helvetica,sans-Serif" font-size="10.00">boost/optional.hpp</text>
</g>
<!-- Node13&#45;&gt;Node14 -->
<g id="edge17" class="edge"><title>Node13&#45;&gt;Node14</title>
<path fill="none" stroke="midnightblue" d="M476.891,-123.444C499.207,-114.517 534.403,-100.439 559.708,-90.3168"/>
<polygon fill="midnightblue" stroke="midnightblue" points="561.224,-93.4801 569.209,-86.5164 558.624,-86.9807 561.224,-93.4801"/>
</g>
</g>
</svg>
        <g id="navigator" transform="translate(0 0)" fill="#404254">
                <rect fill="#f2f5e9" fill-opacity="0.5" stroke="#606060" stroke-width=".5" x="0" y="0" width="60" height="60"/>
                <use id="zoomplus" xlink:href="#zoomPlus" x="17" y="9" onmousedown="handleZoom(evt,'in')"/>
                <use id="zoomminus" xlink:href="#zoomMin" x="42" y="9" onmousedown="handleZoom(evt,'out')"/>
                <use id="reset" xlink:href="#resetDef" x="30" y="36" onmousedown="handleReset()"/>
                <g id="arrowUp" xlink:href="#dirArrow" transform="translate(30 24)" onmousedown="handlePan(0,-1)">
                  <use xlink:href="#rim" fill="#404040">
                        <set attributeName="fill" to="#808080" begin="arrowUp.mouseover" end="arrowUp.mouseout"/>
                  </use>
                  <path fill="none" stroke="white" stroke-width="1.5" d="M0,-3.0v7 M-2.5,-0.5L0,-3.0L2.5,-0.5"/>
                </g>
                <g id="arrowRight" xlink:href="#dirArrow" transform="rotate(90) translate(36 -43)" onmousedown="handlePan(1,0)">
                  <use xlink:href="#rim" fill="#404040">
                        <set attributeName="fill" to="#808080" begin="arrowRight.mouseover" end="arrowRight.mouseout"/>
                  </use>
                  <path fill="none" stroke="white" stroke-width="1.5" d="M0,-3.0v7 M-2.5,-0.5L0,-3.0L2.5,-0.5"/>
                </g>
                <g id="arrowDown" xlink:href="#dirArrow" transform="rotate(180) translate(-30 -48)" onmousedown="handlePan(0,1)">
                  <use xlink:href="#rim" fill="#404040">
                        <set attributeName="fill" to="#808080" begin="arrowDown.mouseover" end="arrowDown.mouseout"/>
                  </use>
                  <path fill="none" stroke="white" stroke-width="1.5" d="M0,-3.0v7 M-2.5,-0.5L0,-3.0L2.5,-0.5"/>
                </g>
                <g id="arrowLeft" xlink:href="#dirArrow" transform="rotate(270) translate(-36 17)" onmousedown="handlePan(-1,0)">
                  <use xlink:href="#rim" fill="#404040">
                        <set attributeName="fill" to="#808080" begin="arrowLeft.mouseover" end="arrowLeft.mouseout"/>
                  </use>
                  <path fill="none" stroke="white" stroke-width="1.5" d="M0,-3.0v7 M-2.5,-0.5L0,-3.0L2.5,-0.5"/>
                </g>
        </g>
        <svg viewBox="0 0 15 15" width="100%" height="30px" preserveAspectRatio="xMaxYMin meet">
         <g id="arrow_out" transform="scale(0.3 0.3)">
          <a xlink:href="string__functions_8cpp__incl_org.svg" target="_base">
           <rect id="button" ry="5" rx="5" y="6" x="6" height="38" width="38"
                fill="#f2f5e9" fill-opacity="0.5" stroke="#606060" stroke-width="1.0"/>
           <path id="arrow"
             d="M 11.500037,31.436501 C 11.940474,20.09759 22.043105,11.32322 32.158766,21.979434 L 37.068811,17.246167 C 37.068811,17.246167 37.088388,32 37.088388,32 L 22.160133,31.978069 C 22.160133,31.978069 26.997745,27.140456 26.997745,27.140456 C 18.528582,18.264221 13.291696,25.230495 11.500037,31.436501 z"
             style="fill:#404040;"/>
          </a>
         </g>
        </svg>
</svg>
