<?xml version="1.0" encoding="UTF-8" standalone="no"?>
<!DOCTYPE svg PUBLIC "-//W3C//DTD SVG 1.1//EN"
 "http://www.w3.org/Graphics/SVG/1.1/DTD/svg11.dtd">
<!-- Generated by graphviz version 2.38.0 (20140413.2041)
 -->
<!-- Title: src/string/string_functions.hpp Pages: 1 -->
<!--zoomable 319 -->
<svg id="main" version="1.1" xmlns="http://www.w3.org/2000/svg" xmlns:xlink="http://www.w3.org/1999/xlink" xml:space="preserve" onload="init(evt)">
<style type="text/css"><![CDATA[
.edge:hover path { stroke: red; }
.edge:hover polygon { stroke: red; fill: red; }
]]></style>
<script type="text/javascript"><![CDATA[
var edges = document.getElementsByTagName('g');
if (edges && edges.length) {
  for (var i=0;i<edges.length;i++) {
    if (edges[i].id.substr(0,4)=='edge') {
      edges[i].setAttribute('class','edge');
    }
  }
}
]]></script>
        <defs>
                <circle id="rim" cx="0" cy="0" r="7"/>
                <circle id="rim2" cx="0" cy="0" r="3.5"/>
                <g id="zoomPlus">
                        <use xlink:href="#rim" fill="#404040">
                                <set attributeName="fill" to="#808080" begin="zoomplus.mouseover" end="zoomplus.mouseout"/>
                        </use>
                        <path d="M-4,0h8M0,-4v8" fill="none" stroke="white" stroke-width="1.5" pointer-events="none"/>
                </g>
                <g id="zoomMin">
                        <use xlink:href="#rim" fill="#404040">
                                <set attributeName="fill" to="#808080" begin="zoomminus.mouseover" end="zoomminus.mouseout"/>
                        </use>
                        <path d="M-4,0h8" fill="none" stroke="white" stroke-width="1.5" pointer-events="none"/>
                </g>
                <g id="dirArrow">
                        <path fill="none" stroke="white" stroke-width="1.5" d="M0,-3.0v7 M-2.5,-0.5L0,-3.0L2.5,-0.5"/>
                </g>
               <g id="resetDef">
                       <use xlink:href="#rim2" fill="#404040">
                               <set attributeName="fill" to="#808080" begin="reset.mouseover" end="reset.mouseout"/>
                       </use>
               </g>
        </defs>

<script type="text/javascript">
var viewWidth = 1112;
var viewHeight = 319;
var sectionId = 'dynsection-0';
</script>
<script xlink:href="svgpan.js"/>
<svg id="graph" class="graph">
<g id="viewport">
<title>src/string/string_functions.hpp</title>
<!-- Node1 -->
<g id="node1" class="node"><title>Node1</title>
<polygon fill="#bfbfbf" stroke="black" points="68.7303,-291.5 68.7303,-310.5 216.73,-310.5 216.73,-291.5 68.7303,-291.5"/>
<text text-anchor="middle" x="142.73" y="-298.5" font-family="Helvetica,sans-Serif" font-size="10.00">src/string/string_functions.hpp</text>
</g>
<!-- Node2 -->
<g id="node2" class="node"><title>Node2</title>
<polygon fill="none" stroke="#bfbfbf" points="259.73,-0.5 259.73,-19.5 315.73,-19.5 315.73,-0.5 259.73,-0.5"/>
<text text-anchor="middle" x="287.73" y="-7.5" font-family="Helvetica,sans-Serif" font-size="10.00">algorithm</text>
</g>
<!-- Node1&#45;&gt;Node2 -->
<g id="edge1" class="edge"><title>Node1&#45;&gt;Node2</title>
<path fill="none" stroke="midnightblue" d="M87.3435,-291.466C63.5473,-285.128 37.2408,-274.113 19.7303,-255 -2.19093,-231.072 0.730309,-216.951 0.730309,-184.5 0.730309,-184.5 0.730309,-184.5 0.730309,-121 0.730309,-68.2724 171.769,-31.3992 249.769,-17.3251"/>
<polygon fill="midnightblue" stroke="midnightblue" points="250.453,-20.7586 259.689,-15.5679 249.232,-13.8659 250.453,-20.7586"/>
</g>
<!-- Node3 -->
<g id="node3" class="node"><title>Node3</title>
<polygon fill="none" stroke="#bfbfbf" points="29.2303,-235.5 29.2303,-254.5 76.2303,-254.5 76.2303,-235.5 29.2303,-235.5"/>
<text text-anchor="middle" x="52.7303" y="-242.5" font-family="Helvetica,sans-Serif" font-size="10.00">iterator</text>
</g>
<!-- Node1&#45;&gt;Node3 -->
<g id="edge2" class="edge"><title>Node1&#45;&gt;Node3</title>
<path fill="none" stroke="midnightblue" d="M128.27,-291.324C114.231,-282.9 92.6818,-269.971 76.1872,-260.074"/>
<polygon fill="midnightblue" stroke="midnightblue" points="77.5302,-256.798 67.1545,-254.655 73.9287,-262.801 77.5302,-256.798"/>
</g>
<!-- Node4 -->
<g id="node4" class="node"><title>Node4</title>
<polygon fill="none" stroke="#bfbfbf" points="174.23,-56.5 174.23,-75.5 215.23,-75.5 215.23,-56.5 174.23,-56.5"/>
<text text-anchor="middle" x="194.73" y="-63.5" font-family="Helvetica,sans-Serif" font-size="10.00">regex</text>
</g>
<!-- Node1&#45;&gt;Node4 -->
<g id="edge3" class="edge"><title>Node1&#45;&gt;Node4</title>
<path fill="none" stroke="midnightblue" d="M139.081,-291.48C127.775,-263.692 96.0032,-173.924 128.73,-112 136.47,-97.3555 151.354,-86.5807 165.031,-79.2524"/>
<polygon fill="midnightblue" stroke="midnightblue" points="166.787,-82.2891 174.205,-74.7243 163.688,-76.0121 166.787,-82.2891"/>
</g>
<!-- Node5 -->
<g id="node5" class="node"><title>Node5</title>
<polygon fill="none" stroke="#bfbfbf" points="170.73,-112.5 170.73,-131.5 222.73,-131.5 222.73,-112.5 170.73,-112.5"/>
<text text-anchor="middle" x="196.73" y="-119.5" font-family="Helvetica,sans-Serif" font-size="10.00">sstream</text>
</g>
<!-- Node1&#45;&gt;Node5 -->
<g id="edge4" class="edge"><title>Node1&#45;&gt;Node5</title>
<path fill="none" stroke="midnightblue" d="M145.433,-291.379C148.267,-282.325 152.84,-267.671 156.73,-255 169.16,-214.522 183.503,-166.982 191.186,-141.45"/>
<polygon fill="midnightblue" stroke="midnightblue" points="194.604,-142.24 194.132,-131.655 187.9,-140.224 194.604,-142.24"/>
</g>
<!-- Node6 -->
<g id="node6" class="node"><title>Node6</title>
<polygon fill="none" stroke="#bfbfbf" points="338.23,-56.5 338.23,-75.5 379.23,-75.5 379.23,-56.5 338.23,-56.5"/>
<text text-anchor="middle" x="358.73" y="-63.5" font-family="Helvetica,sans-Serif" font-size="10.00">string</text>
</g>
<!-- Node1&#45;&gt;Node6 -->
<g id="edge5" class="edge"><title>Node1&#45;&gt;Node6</title>
<path fill="none" stroke="midnightblue" d="M140.443,-291.146C133.373,-261.536 115.039,-164.864 161.73,-112 183.367,-87.5029 277.87,-74.8269 327.706,-69.7416"/>
<polygon fill="midnightblue" stroke="midnightblue" points="328.297,-73.2006 337.908,-68.7432 327.615,-66.2339 328.297,-73.2006"/>
</g>
<!-- Node7 -->
<g id="node7" class="node"><title>Node7</title>
<polygon fill="none" stroke="#bfbfbf" points="208.73,-235.5 208.73,-254.5 270.73,-254.5 270.73,-235.5 208.73,-235.5"/>
<text text-anchor="middle" x="239.73" y="-242.5" font-family="Helvetica,sans-Serif" font-size="10.00">type_traits</text>
</g>
<!-- Node1&#45;&gt;Node7 -->
<g id="edge6" class="edge"><title>Node1&#45;&gt;Node7</title>
<path fill="none" stroke="midnightblue" d="M158.315,-291.324C173.729,-282.743 197.543,-269.486 215.44,-259.522"/>
<polygon fill="midnightblue" stroke="midnightblue" points="217.149,-262.577 224.184,-254.655 213.744,-256.461 217.149,-262.577"/>
</g>
<!-- Node8 -->
<g id="node8" class="node"><title>Node8</title>
<g id="a_node8"><a xlink:href="settings_8hpp.html" target="_top" xlink:title="settings.hpp">
<polygon fill="none" stroke="black" points="831.73,-235.5 831.73,-254.5 901.73,-254.5 901.73,-235.5 831.73,-235.5"/>
<text text-anchor="middle" x="866.73" y="-242.5" font-family="Helvetica,sans-Serif" font-size="10.00">settings.hpp</text>
</a>
</g>
</g>
<!-- Node1&#45;&gt;Node8 -->
<g id="edge7" class="edge"><title>Node1&#45;&gt;Node8</title>
<path fill="none" stroke="midnightblue" d="M216.809,-294.475C366.34,-283.322 700.32,-258.412 821.611,-249.365"/>
<polygon fill="midnightblue" stroke="midnightblue" points="821.952,-252.85 831.664,-248.615 821.431,-245.869 821.952,-252.85"/>
</g>
<!-- Node8&#45;&gt;Node6 -->
<g id="edge8" class="edge"><title>Node8&#45;&gt;Node6</title>
<path fill="none" stroke="midnightblue" d="M831.569,-242.251C771.393,-238.569 645.234,-227.831 542.73,-199 470.877,-178.79 442.088,-184.195 388.73,-132 375.703,-119.257 367.757,-99.788 363.346,-85.4782"/>
<polygon fill="midnightblue" stroke="midnightblue" points="366.688,-84.4335 360.635,-75.7378 359.944,-86.3101 366.688,-84.4335"/>
</g>
<!-- Node9 -->
<g id="node9" class="node"><title>Node9</title>
<polygon fill="none" stroke="#bfbfbf" points="773.73,-56.5 773.73,-75.5 819.73,-75.5 819.73,-56.5 773.73,-56.5"/>
<text text-anchor="middle" x="796.73" y="-63.5" font-family="Helvetica,sans-Serif" font-size="10.00">cstdint</text>
</g>
<!-- Node8&#45;&gt;Node9 -->
<g id="edge9" class="edge"><title>Node8&#45;&gt;Node9</title>
<path fill="none" stroke="midnightblue" d="M875.3,-235.287C896.069,-213.097 945.345,-153.291 916.73,-112 897.401,-84.1082 858.511,-73.4782 830.228,-69.4418"/>
<polygon fill="midnightblue" stroke="midnightblue" points="830.32,-65.9273 819.971,-68.1955 829.475,-72.8762 830.32,-65.9273"/>
</g>
<!-- Node10 -->
<g id="node10" class="node"><title>Node10</title>
<polygon fill="none" stroke="#bfbfbf" points="825.23,-112.5 825.23,-131.5 908.23,-131.5 908.23,-112.5 825.23,-112.5"/>
<text text-anchor="middle" x="866.73" y="-119.5" font-family="Helvetica,sans-Serif" font-size="10.00">unordered_map</text>
</g>
<!-- Node8&#45;&gt;Node10 -->
<g id="edge10" class="edge"><title>Node8&#45;&gt;Node10</title>
<path fill="none" stroke="midnightblue" d="M866.73,-235.298C866.73,-215.85 866.73,-168.49 866.73,-141.904"/>
<polygon fill="midnightblue" stroke="midnightblue" points="870.23,-141.623 866.73,-131.623 863.23,-141.623 870.23,-141.623"/>
</g>
<!-- Node11 -->
<g id="node11" class="node"><title>Node11</title>
<polygon fill="none" stroke="#bfbfbf" points="1003.23,-168.5 1003.23,-198.5 1104.23,-198.5 1104.23,-168.5 1003.23,-168.5"/>
<text text-anchor="start" x="1011.23" y="-186.5" font-family="Helvetica,sans-Serif" font-size="10.00">boost/property_tree</text>
<text text-anchor="middle" x="1053.73" y="-175.5" font-family="Helvetica,sans-Serif" font-size="10.00">/ptree.hpp</text>
</g>
<!-- Node8&#45;&gt;Node11 -->
<g id="edge11" class="edge"><title>Node8&#45;&gt;Node11</title>
<path fill="none" stroke="midnightblue" d="M893.523,-235.475C921.216,-226.664 965.201,-212.668 1000.08,-201.57"/>
<polygon fill="midnightblue" stroke="midnightblue" points="1001.19,-204.89 1009.66,-198.523 999.068,-198.22 1001.19,-204.89"/>
</g>
<!-- Node12 -->
<g id="node12" class="node"><title>Node12</title>
<g id="a_node12"><a xlink:href="c_09_09-compat_8hpp.html" target="_top" xlink:title="This file defined some compatibility for features of C++14 and beyond. ">
<polygon fill="none" stroke="black" points="883.73,-56.5 883.73,-75.5 971.73,-75.5 971.73,-56.5 883.73,-56.5"/>
<text text-anchor="middle" x="927.73" y="-63.5" font-family="Helvetica,sans-Serif" font-size="10.00">c++&#45;compat.hpp</text>
</a>
</g>
</g>
<!-- Node8&#45;&gt;Node12 -->
<g id="edge12" class="edge"><title>Node8&#45;&gt;Node12</title>
<path fill="none" stroke="midnightblue" d="M899.717,-235.438C918.193,-228.769 939.682,-217.453 950.73,-199 970.593,-165.825 959.781,-149.593 950.73,-112 948.424,-102.418 943.713,-92.5813 939.152,-84.5579"/>
<polygon fill="midnightblue" stroke="midnightblue" points="942.02,-82.537 933.835,-75.8095 936.038,-86.1727 942.02,-82.537"/>
</g>
<!-- Node13 -->
<g id="node13" class="node"><title>Node13</title>
<g id="a_node13"><a xlink:href="string_8hpp.html" target="_top" xlink:title="string/string.hpp">
<polygon fill="none" stroke="black" points="551.73,-174 551.73,-193 637.73,-193 637.73,-174 551.73,-174"/>
<text text-anchor="middle" x="594.73" y="-181" font-family="Helvetica,sans-Serif" font-size="10.00">string/string.hpp</text>
</a>
</g>
</g>
<!-- Node8&#45;&gt;Node13 -->
<g id="edge13" class="edge"><title>Node8&#45;&gt;Node13</title>
<path fill="none" stroke="midnightblue" d="M831.728,-236.343C784.011,-225.905 698.291,-207.154 644.07,-195.293"/>
<polygon fill="midnightblue" stroke="midnightblue" points="644.515,-191.808 633.998,-193.09 643.019,-198.646 644.515,-191.808"/>
</g>
<!-- Node13&#45;&gt;Node5 -->
<g id="edge19" class="edge"><title>Node13&#45;&gt;Node5</title>
<path fill="none" stroke="midnightblue" d="M551.718,-178.116C485.356,-171.002 353.875,-155.527 233.182,-132.099"/>
<polygon fill="midnightblue" stroke="midnightblue" points="233.518,-128.598 223.03,-130.104 232.168,-135.466 233.518,-128.598"/>
</g>
<!-- Node13&#45;&gt;Node6 -->
<g id="edge18" class="edge"><title>Node13&#45;&gt;Node6</title>
<path fill="none" stroke="midnightblue" d="M551.408,-177.357C513.288,-171.253 457.51,-158.365 415.73,-132 396.363,-119.779 379.834,-99.0358 369.64,-84.2704"/>
<polygon fill="midnightblue" stroke="midnightblue" points="372.327,-81.9882 363.889,-75.5803 366.489,-85.8512 372.327,-81.9882"/>
</g>
<!-- Node13&#45;&gt;Node9 -->
<g id="edge14" class="edge"><title>Node13&#45;&gt;Node9</title>
<path fill="none" stroke="midnightblue" d="M637.95,-182.056C679.231,-179.282 740.513,-168.658 777.73,-132 789.891,-120.022 794.37,-100.723 795.968,-86.2602"/>
<polygon fill="midnightblue" stroke="midnightblue" points="799.485,-86.1591 796.724,-75.9302 792.503,-85.648 799.485,-86.1591"/>
</g>
<!-- Node13&#45;&gt;Node10 -->
<g id="edge20" class="edge"><title>Node13&#45;&gt;Node10</title>
<path fill="none" stroke="midnightblue" d="M633.701,-173.975C682.278,-163.349 765.314,-145.185 818.034,-133.652"/>
<polygon fill="midnightblue" stroke="midnightblue" points="818.811,-137.065 827.832,-131.509 817.315,-130.227 818.811,-137.065"/>
</g>
<!-- Node14 -->
<g id="node14" class="node"><title>Node14</title>
<polygon fill="none" stroke="#bfbfbf" points="635.23,-112.5 635.23,-131.5 694.23,-131.5 694.23,-112.5 635.23,-112.5"/>
<text text-anchor="middle" x="664.73" y="-119.5" font-family="Helvetica,sans-Serif" font-size="10.00">functional</text>
</g>
<!-- Node13&#45;&gt;Node14 -->
<g id="edge15" class="edge"><title>Node13&#45;&gt;Node14</title>
<path fill="none" stroke="midnightblue" d="M604.76,-173.975C615.779,-164.608 633.69,-149.384 647.074,-138.008"/>
<polygon fill="midnightblue" stroke="midnightblue" points="649.367,-140.652 654.72,-131.509 644.833,-135.319 649.367,-140.652"/>
</g>
<!-- Node15 -->
<g id="node15" class="node"><title>Node15</title>
<polygon fill="none" stroke="#bfbfbf" points="424.73,-112.5 424.73,-131.5 476.73,-131.5 476.73,-112.5 424.73,-112.5"/>
<text text-anchor="middle" x="450.73" y="-119.5" font-family="Helvetica,sans-Serif" font-size="10.00">memory</text>
</g>
<!-- Node13&#45;&gt;Node15 -->
<g id="edge16" class="edge"><title>Node13&#45;&gt;Node15</title>
<path fill="none" stroke="midnightblue" d="M574.099,-173.975C549.611,-163.857 508.583,-146.905 480.621,-135.351"/>
<polygon fill="midnightblue" stroke="midnightblue" points="481.902,-132.093 471.324,-131.509 479.229,-138.563 481.902,-132.093"/>
</g>
<!-- Node16 -->
<g id="node16" class="node"><title>Node16</title>
<polygon fill="none" stroke="#bfbfbf" points="495.23,-112.5 495.23,-131.5 554.23,-131.5 554.23,-112.5 495.23,-112.5"/>
<text text-anchor="middle" x="524.73" y="-119.5" font-family="Helvetica,sans-Serif" font-size="10.00">stdexcept</text>
</g>
<!-- Node13&#45;&gt;Node16 -->
<g id="edge17" class="edge"><title>Node13&#45;&gt;Node16</title>
<path fill="none" stroke="midnightblue" d="M584.701,-173.975C573.681,-164.608 555.77,-149.384 542.387,-138.008"/>
<polygon fill="midnightblue" stroke="midnightblue" points="544.627,-135.319 534.741,-131.509 540.094,-140.652 544.627,-135.319"/>
</g>
<!-- Node17 -->
<g id="node17" class="node"><title>Node17</title>
<polygon fill="none" stroke="#bfbfbf" points="572.73,-112.5 572.73,-131.5 616.73,-131.5 616.73,-112.5 572.73,-112.5"/>
<text text-anchor="middle" x="594.73" y="-119.5" font-family="Helvetica,sans-Serif" font-size="10.00">vector</text>
</g>
<!-- Node13&#45;&gt;Node17 -->
<g id="edge21" class="edge"><title>Node13&#45;&gt;Node17</title>
<path fill="none" stroke="midnightblue" d="M594.73,-173.975C594.73,-165.58 594.73,-152.481 594.73,-141.663"/>
<polygon fill="midnightblue" stroke="midnightblue" points="598.23,-141.509 594.73,-131.509 591.23,-141.509 598.23,-141.509"/>
</g>
<!-- Node18 -->
<g id="node18" class="node"><title>Node18</title>
<g id="a_node18"><a xlink:href="color_8hpp.html" target="_top" xlink:title="color.hpp">
<polygon fill="none" stroke="black" points="712.73,-112.5 712.73,-131.5 768.73,-131.5 768.73,-112.5 712.73,-112.5"/>
<text text-anchor="middle" x="740.73" y="-119.5" font-family="Helvetica,sans-Serif" font-size="10.00">color.hpp</text>
</a>
</g>
</g>
<!-- Node13&#45;&gt;Node18 -->
<g id="edge22" class="edge"><title>Node13&#45;&gt;Node18</title>
<path fill="none" stroke="midnightblue" d="M615.649,-173.975C640.476,-163.857 682.074,-146.905 710.424,-135.351"/>
<polygon fill="midnightblue" stroke="midnightblue" points="711.911,-138.524 719.851,-131.509 709.269,-132.042 711.911,-138.524"/>
</g>
<!-- Node20 -->
<g id="node20" class="node"><title>Node20</title>
<g id="a_node20"><a xlink:href="quickstream_8hpp.html" target="_top" xlink:title="quickstream.hpp">
<polygon fill="none" stroke="black" points="241.23,-112.5 241.23,-131.5 330.23,-131.5 330.23,-112.5 241.23,-112.5"/>
<text text-anchor="middle" x="285.73" y="-119.5" font-family="Helvetica,sans-Serif" font-size="10.00">quickstream.hpp</text>
</a>
</g>
</g>
<!-- Node13&#45;&gt;Node20 -->
<g id="edge28" class="edge"><title>Node13&#45;&gt;Node20</title>
<path fill="none" stroke="midnightblue" d="M551.44,-174.164C496.093,-163.507 400.241,-145.05 340.051,-133.46"/>
<polygon fill="midnightblue" stroke="midnightblue" points="340.459,-129.974 329.977,-131.52 339.135,-136.848 340.459,-129.974"/>
</g>
<!-- Node18&#45;&gt;Node6 -->
<g id="edge24" class="edge"><title>Node18&#45;&gt;Node6</title>
<path fill="none" stroke="midnightblue" d="M712.576,-113.993C709.268,-113.27 705.931,-112.587 702.73,-112 587.88,-90.9446 449.707,-75.9729 389.395,-69.9452"/>
<polygon fill="midnightblue" stroke="midnightblue" points="389.691,-66.4576 379.395,-68.9569 389.002,-73.4236 389.691,-66.4576"/>
</g>
<!-- Node18&#45;&gt;Node9 -->
<g id="edge23" class="edge"><title>Node18&#45;&gt;Node9</title>
<path fill="none" stroke="midnightblue" d="M749.728,-112.324C757.925,-104.42 770.236,-92.5482 780.202,-82.9377"/>
<polygon fill="midnightblue" stroke="midnightblue" points="782.8,-85.2947 787.569,-75.8339 777.941,-80.2558 782.8,-85.2947"/>
</g>
<!-- Node18&#45;&gt;Node12 -->
<g id="edge27" class="edge"><title>Node18&#45;&gt;Node12</title>
<path fill="none" stroke="midnightblue" d="M769.132,-112.799C800.978,-103.602 852.829,-88.6294 888.524,-78.3216"/>
<polygon fill="midnightblue" stroke="midnightblue" points="889.497,-81.6837 898.133,-75.5467 887.555,-74.9585 889.497,-81.6837"/>
</g>
<!-- Node19 -->
<g id="node19" class="node"><title>Node19</title>
<g id="a_node19"><a xlink:href="math_8hpp.html" target="_top" xlink:title="math.hpp">
<polygon fill="none" stroke="black" points="547.23,-56.5 547.23,-75.5 604.23,-75.5 604.23,-56.5 547.23,-56.5"/>
<text text-anchor="middle" x="575.73" y="-63.5" font-family="Helvetica,sans-Serif" font-size="10.00">math.hpp</text>
</a>
</g>
</g>
<!-- Node18&#45;&gt;Node19 -->
<g id="edge25" class="edge"><title>Node18&#45;&gt;Node19</title>
<path fill="none" stroke="midnightblue" d="M714.586,-112.444C686.707,-103.32 642.382,-88.8133 611.33,-78.6509"/>
<polygon fill="midnightblue" stroke="midnightblue" points="612.345,-75.3005 601.753,-75.5164 610.168,-81.9533 612.345,-75.3005"/>
</g>
<!-- Node19&#45;&gt;Node2 -->
<g id="edge26" class="edge"><title>Node19&#45;&gt;Node2</title>
<path fill="none" stroke="midnightblue" d="M547.063,-59.6249C494.852,-49.8352 384.263,-29.0999 325.8,-18.1381"/>
<polygon fill="midnightblue" stroke="midnightblue" points="326.331,-14.6767 315.857,-16.2738 325.041,-21.5568 326.331,-14.6767"/>
</g>
<!-- Node20&#45;&gt;Node4 -->
<g id="edge30" class="edge"><title>Node20&#45;&gt;Node4</title>
<path fill="none" stroke="midnightblue" d="M271.11,-112.324C256.781,-103.822 234.718,-90.7288 217.982,-80.7975"/>
<polygon fill="midnightblue" stroke="midnightblue" points="219.701,-77.7478 209.315,-75.6545 216.128,-83.7677 219.701,-77.7478"/>
</g>
<!-- Node20&#45;&gt;Node6 -->
<g id="edge29" class="edge"><title>Node20&#45;&gt;Node6</title>
<path fill="none" stroke="midnightblue" d="M297.459,-112.324C308.568,-104.107 325.472,-91.6017 338.714,-81.8069"/>
<polygon fill="midnightblue" stroke="midnightblue" points="340.83,-84.5948 346.788,-75.8339 336.667,-78.9671 340.83,-84.5948"/>
</g>
</g>
</svg>
        <g id="navigator" transform="translate(0 0)" fill="#404254">
                <rect fill="#f2f5e9" fill-opacity="0.5" stroke="#606060" stroke-width=".5" x="0" y="0" width="60" height="60"/>
                <use id="zoomplus" xlink:href="#zoomPlus" x="17" y="9" onmousedown="handleZoom(evt,'in')"/>
                <use id="zoomminus" xlink:href="#zoomMin" x="42" y="9" onmousedown="handleZoom(evt,'out')"/>
                <use id="reset" xlink:href="#resetDef" x="30" y="36" onmousedown="handleReset()"/>
                <g id="arrowUp" xlink:href="#dirArrow" transform="translate(30 24)" onmousedown="handlePan(0,-1)">
                  <use xlink:href="#rim" fill="#404040">
                        <set attributeName="fill" to="#808080" begin="arrowUp.mouseover" end="arrowUp.mouseout"/>
                  </use>
                  <path fill="none" stroke="white" stroke-width="1.5" d="M0,-3.0v7 M-2.5,-0.5L0,-3.0L2.5,-0.5"/>
                </g>
                <g id="arrowRight" xlink:href="#dirArrow" transform="rotate(90) translate(36 -43)" onmousedown="handlePan(1,0)">
                  <use xlink:href="#rim" fill="#404040">
                        <set attributeName="fill" to="#808080" begin="arrowRight.mouseover" end="arrowRight.mouseout"/>
                  </use>
                  <path fill="none" stroke="white" stroke-width="1.5" d="M0,-3.0v7 M-2.5,-0.5L0,-3.0L2.5,-0.5"/>
                </g>
                <g id="arrowDown" xlink:href="#dirArrow" transform="rotate(180) translate(-30 -48)" onmousedown="handlePan(0,1)">
                  <use xlink:href="#rim" fill="#404040">
                        <set attributeName="fill" to="#808080" begin="arrowDown.mouseover" end="arrowDown.mouseout"/>
                  </use>
                  <path fill="none" stroke="white" stroke-width="1.5" d="M0,-3.0v7 M-2.5,-0.5L0,-3.0L2.5,-0.5"/>
                </g>
                <g id="arrowLeft" xlink:href="#dirArrow" transform="rotate(270) translate(-36 17)" onmousedown="handlePan(-1,0)">
                  <use xlink:href="#rim" fill="#404040">
                        <set attributeName="fill" to="#808080" begin="arrowLeft.mouseover" end="arrowLeft.mouseout"/>
                  </use>
                  <path fill="none" stroke="white" stroke-width="1.5" d="M0,-3.0v7 M-2.5,-0.5L0,-3.0L2.5,-0.5"/>
                </g>
        </g>
        <svg viewBox="0 0 15 15" width="100%" height="30px" preserveAspectRatio="xMaxYMin meet">
         <g id="arrow_out" transform="scale(0.3 0.3)">
          <a xlink:href="string__functions_8hpp__incl_org.svg" target="_base">
           <rect id="button" ry="5" rx="5" y="6" x="6" height="38" width="38"
                fill="#f2f5e9" fill-opacity="0.5" stroke="#606060" stroke-width="1.0"/>
           <path id="arrow"
             d="M 11.500037,31.436501 C 11.940474,20.09759 22.043105,11.32322 32.158766,21.979434 L 37.068811,17.246167 C 37.068811,17.246167 37.088388,32 37.088388,32 L 22.160133,31.978069 C 22.160133,31.978069 26.997745,27.140456 26.997745,27.140456 C 18.528582,18.264221 13.291696,25.230495 11.500037,31.436501 z"
             style="fill:#404040;"/>
          </a>
         </g>
        </svg>
</svg>
