<?xml version="1.0" encoding="UTF-8" standalone="no"?>
<!DOCTYPE svg PUBLIC "-//W3C//DTD SVG 1.1//EN"
 "http://www.w3.org/Graphics/SVG/1.1/DTD/svg11.dtd">
<!-- Generated by graphviz version 2.38.0 (20140413.2041)
 -->
<!-- Title: src/string/string.cpp Pages: 1 -->
<!--zoomable 285 -->
<svg id="main" version="1.1" xmlns="http://www.w3.org/2000/svg" xmlns:xlink="http://www.w3.org/1999/xlink" xml:space="preserve" onload="init(evt)">
<style type="text/css"><![CDATA[
.edge:hover path { stroke: red; }
.edge:hover polygon { stroke: red; fill: red; }
]]></style>
<script type="text/javascript"><![CDATA[
var edges = document.getElementsByTagName('g');
if (edges && edges.length) {
  for (var i=0;i<edges.length;i++) {
    if (edges[i].id.substr(0,4)=='edge') {
      edges[i].setAttribute('class','edge');
    }
  }
}
]]></script>
        <defs>
                <circle id="rim" cx="0" cy="0" r="7"/>
                <circle id="rim2" cx="0" cy="0" r="3.5"/>
                <g id="zoomPlus">
                        <use xlink:href="#rim" fill="#404040">
                                <set attributeName="fill" to="#808080" begin="zoomplus.mouseover" end="zoomplus.mouseout"/>
                        </use>
                        <path d="M-4,0h8M0,-4v8" fill="none" stroke="white" stroke-width="1.5" pointer-events="none"/>
                </g>
                <g id="zoomMin">
                        <use xlink:href="#rim" fill="#404040">
                                <set attributeName="fill" to="#808080" begin="zoomminus.mouseover" end="zoomminus.mouseout"/>
                        </use>
                        <path d="M-4,0h8" fill="none" stroke="white" stroke-width="1.5" pointer-events="none"/>
                </g>
                <g id="dirArrow">
                        <path fill="none" stroke="white" stroke-width="1.5" d="M0,-3.0v7 M-2.5,-0.5L0,-3.0L2.5,-0.5"/>
                </g>
               <g id="resetDef">
                       <use xlink:href="#rim2" fill="#404040">
                               <set attributeName="fill" to="#808080" begin="reset.mouseover" end="reset.mouseout"/>
                       </use>
               </g>
        </defs>

<script type="text/javascript">
var viewWidth = 1295;
var viewHeight = 285;
var sectionId = 'dynsection-0';
</script>
<script xlink:href="svgpan.js"/>
<svg id="graph" class="graph">
<g id="viewport">
<title>src/string/string.cpp</title>
<!-- Node1 -->
<g id="node1" class="node"><title>Node1</title>
<polygon fill="#bfbfbf" stroke="black" points="1013,-257.5 1013,-276.5 1116,-276.5 1116,-257.5 1013,-257.5"/>
<text text-anchor="middle" x="1064.5" y="-264.5" font-family="Helvetica,sans-Serif" font-size="10.00">src/string/string.cpp</text>
</g>
<!-- Node2 -->
<g id="node2" class="node"><title>Node2</title>
<g id="a_node2"><a xlink:href="string_8hpp.html" target="_top" xlink:title="string.hpp">
<polygon fill="none" stroke="black" points="240,-129 240,-148 299,-148 299,-129 240,-129"/>
<text text-anchor="middle" x="269.5" y="-136" font-family="Helvetica,sans-Serif" font-size="10.00">string.hpp</text>
</a>
</g>
</g>
<!-- Node1&#45;&gt;Node2 -->
<g id="edge1" class="edge"><title>Node1&#45;&gt;Node2</title>
<path fill="none" stroke="midnightblue" d="M1012.91,-261.932C934.686,-255.41 781.514,-241.257 652.5,-221 506.373,-198.056 470.659,-187.131 326.5,-154 320.762,-152.681 314.718,-151.221 308.796,-149.75"/>
<polygon fill="midnightblue" stroke="midnightblue" points="309.573,-146.337 299.021,-147.287 307.863,-153.124 309.573,-146.337"/>
</g>
<!-- Node14 -->
<g id="node14" class="node"><title>Node14</title>
<polygon fill="none" stroke="#bfbfbf" points="1133,-196 1133,-215 1162,-215 1162,-196 1133,-196"/>
<text text-anchor="middle" x="1147.5" y="-203" font-family="Helvetica,sans-Serif" font-size="10.00">list</text>
</g>
<!-- Node1&#45;&gt;Node14 -->
<g id="edge15" class="edge"><title>Node1&#45;&gt;Node14</title>
<path fill="none" stroke="midnightblue" d="M1076.39,-257.475C1089.7,-247.931 1111.5,-232.307 1127.46,-220.868"/>
<polygon fill="midnightblue" stroke="midnightblue" points="1129.54,-223.68 1135.63,-215.009 1125.46,-217.991 1129.54,-223.68"/>
</g>
<!-- Node15 -->
<g id="node15" class="node"><title>Node15</title>
<polygon fill="none" stroke="#bfbfbf" points="1245,-129 1245,-148 1286,-148 1286,-129 1245,-129"/>
<text text-anchor="middle" x="1265.5" y="-136" font-family="Helvetica,sans-Serif" font-size="10.00">regex</text>
</g>
<!-- Node1&#45;&gt;Node15 -->
<g id="edge16" class="edge"><title>Node1&#45;&gt;Node15</title>
<path fill="none" stroke="midnightblue" d="M1069.04,-257.337C1077.72,-241.621 1098.15,-208.343 1124.5,-190 1167.07,-160.372 1187.37,-173.33 1235.5,-154 1236.88,-153.448 1238.28,-152.86 1239.68,-152.251"/>
<polygon fill="midnightblue" stroke="midnightblue" points="1241.23,-155.391 1248.86,-148.04 1238.31,-149.029 1241.23,-155.391"/>
</g>
<!-- Node16 -->
<g id="node16" class="node"><title>Node16</title>
<polygon fill="none" stroke="#bfbfbf" points="1180,-190.5 1180,-220.5 1287,-220.5 1287,-190.5 1180,-190.5"/>
<text text-anchor="start" x="1188" y="-208.5" font-family="Helvetica,sans-Serif" font-size="10.00">boost/iterator/iterator</text>
<text text-anchor="middle" x="1233.5" y="-197.5" font-family="Helvetica,sans-Serif" font-size="10.00">_concepts.hpp</text>
</g>
<!-- Node1&#45;&gt;Node16 -->
<g id="edge17" class="edge"><title>Node1&#45;&gt;Node16</title>
<path fill="none" stroke="midnightblue" d="M1088.71,-257.475C1113.53,-248.739 1152.81,-234.907 1184.21,-223.855"/>
<polygon fill="midnightblue" stroke="midnightblue" points="1185.4,-227.145 1193.67,-220.523 1183.08,-220.543 1185.4,-227.145"/>
</g>
<!-- Node17 -->
<g id="node17" class="node"><title>Node17</title>
<g id="a_node17"><a xlink:href="logger_8hpp.html" target="_top" xlink:title="logger.hpp">
<polygon fill="none" stroke="black" points="661.5,-196 661.5,-215 723.5,-215 723.5,-196 661.5,-196"/>
<text text-anchor="middle" x="692.5" y="-203" font-family="Helvetica,sans-Serif" font-size="10.00">logger.hpp</text>
</a>
</g>
</g>
<!-- Node1&#45;&gt;Node17 -->
<g id="edge18" class="edge"><title>Node1&#45;&gt;Node17</title>
<path fill="none" stroke="midnightblue" d="M1012.77,-257.727C938.148,-245.79 801.77,-223.977 733.59,-213.072"/>
<polygon fill="midnightblue" stroke="midnightblue" points="734.074,-209.605 723.646,-211.482 732.968,-216.517 734.074,-209.605"/>
</g>
<!-- Node26 -->
<g id="node26" class="node"><title>Node26</title>
<g id="a_node26"><a xlink:href="string__functions_8hpp.html" target="_top" xlink:title="string_functions.hpp">
<polygon fill="none" stroke="black" points="972.5,-196 972.5,-215 1076.5,-215 1076.5,-196 972.5,-196"/>
<text text-anchor="middle" x="1024.5" y="-203" font-family="Helvetica,sans-Serif" font-size="10.00">string_functions.hpp</text>
</a>
</g>
</g>
<!-- Node1&#45;&gt;Node26 -->
<g id="edge37" class="edge"><title>Node1&#45;&gt;Node26</title>
<path fill="none" stroke="midnightblue" d="M1058.77,-257.475C1052.83,-248.638 1043.38,-234.589 1035.91,-223.475"/>
<polygon fill="midnightblue" stroke="midnightblue" points="1038.7,-221.355 1030.22,-215.009 1032.89,-225.261 1038.7,-221.355"/>
</g>
<!-- Node3 -->
<g id="node3" class="node"><title>Node3</title>
<polygon fill="none" stroke="#bfbfbf" points="216.5,-0.5 216.5,-19.5 262.5,-19.5 262.5,-0.5 216.5,-0.5"/>
<text text-anchor="middle" x="239.5" y="-7.5" font-family="Helvetica,sans-Serif" font-size="10.00">cstdint</text>
</g>
<!-- Node2&#45;&gt;Node3 -->
<g id="edge2" class="edge"><title>Node2&#45;&gt;Node3</title>
<path fill="none" stroke="midnightblue" d="M266.957,-128.965C264.017,-118.958 259.118,-101.85 255.5,-87 250.774,-67.6031 246.163,-45.2205 243.114,-29.7943"/>
<polygon fill="midnightblue" stroke="midnightblue" points="246.541,-29.0785 241.191,-19.9333 239.67,-30.4184 246.541,-29.0785"/>
</g>
<!-- Node4 -->
<g id="node4" class="node"><title>Node4</title>
<polygon fill="none" stroke="#bfbfbf" points="0,-62 0,-81 59,-81 59,-62 0,-62"/>
<text text-anchor="middle" x="29.5" y="-69" font-family="Helvetica,sans-Serif" font-size="10.00">functional</text>
</g>
<!-- Node2&#45;&gt;Node4 -->
<g id="edge3" class="edge"><title>Node2&#45;&gt;Node4</title>
<path fill="none" stroke="midnightblue" d="M239.926,-131.14C200.481,-122.414 128.634,-105.671 68.5,-87 65.9367,-86.2041 63.2959,-85.3338 60.6541,-84.4274"/>
<polygon fill="midnightblue" stroke="midnightblue" points="61.8136,-81.1251 51.219,-81.0557 59.4579,-87.7168 61.8136,-81.1251"/>
</g>
<!-- Node5 -->
<g id="node5" class="node"><title>Node5</title>
<polygon fill="none" stroke="#bfbfbf" points="77.5,-62 77.5,-81 129.5,-81 129.5,-62 77.5,-62"/>
<text text-anchor="middle" x="103.5" y="-69" font-family="Helvetica,sans-Serif" font-size="10.00">memory</text>
</g>
<!-- Node2&#45;&gt;Node5 -->
<g id="edge4" class="edge"><title>Node2&#45;&gt;Node5</title>
<path fill="none" stroke="midnightblue" d="M246.714,-128.912C220.528,-118.998 176.296,-102.112 138.5,-87 136.863,-86.3453 135.184,-85.6687 133.491,-84.9819"/>
<polygon fill="midnightblue" stroke="midnightblue" points="134.404,-81.5734 123.823,-81.0196 131.749,-88.0505 134.404,-81.5734"/>
</g>
<!-- Node6 -->
<g id="node6" class="node"><title>Node6</title>
<polygon fill="none" stroke="#bfbfbf" points="298,-62 298,-81 357,-81 357,-62 298,-62"/>
<text text-anchor="middle" x="327.5" y="-69" font-family="Helvetica,sans-Serif" font-size="10.00">stdexcept</text>
</g>
<!-- Node2&#45;&gt;Node6 -->
<g id="edge5" class="edge"><title>Node2&#45;&gt;Node6</title>
<path fill="none" stroke="midnightblue" d="M277.322,-128.734C286.453,-118.5 301.744,-101.364 313.051,-88.6924"/>
<polygon fill="midnightblue" stroke="midnightblue" points="315.755,-90.919 319.802,-81.1273 310.532,-86.2585 315.755,-90.919"/>
</g>
<!-- Node7 -->
<g id="node7" class="node"><title>Node7</title>
<polygon fill="none" stroke="#bfbfbf" points="690,-0.5 690,-19.5 731,-19.5 731,-0.5 690,-0.5"/>
<text text-anchor="middle" x="710.5" y="-7.5" font-family="Helvetica,sans-Serif" font-size="10.00">string</text>
</g>
<!-- Node2&#45;&gt;Node7 -->
<g id="edge6" class="edge"><title>Node2&#45;&gt;Node7</title>
<path fill="none" stroke="midnightblue" d="M268.588,-128.76C267.361,-111.847 267.384,-74.6698 288.5,-56 317.736,-30.1508 587.607,-16.2661 679.799,-12.2466"/>
<polygon fill="midnightblue" stroke="midnightblue" points="680.046,-15.7393 689.888,-11.8154 679.747,-8.7457 680.046,-15.7393"/>
</g>
<!-- Node8 -->
<g id="node8" class="node"><title>Node8</title>
<polygon fill="none" stroke="#bfbfbf" points="375.5,-62 375.5,-81 427.5,-81 427.5,-62 375.5,-62"/>
<text text-anchor="middle" x="401.5" y="-69" font-family="Helvetica,sans-Serif" font-size="10.00">sstream</text>
</g>
<!-- Node2&#45;&gt;Node8 -->
<g id="edge7" class="edge"><title>Node2&#45;&gt;Node8</title>
<path fill="none" stroke="midnightblue" d="M287.029,-128.869C309.514,-117.796 348.728,-98.4862 374.901,-85.5978"/>
<polygon fill="midnightblue" stroke="midnightblue" points="376.474,-88.7249 383.899,-81.1672 373.381,-82.445 376.474,-88.7249"/>
</g>
<!-- Node9 -->
<g id="node9" class="node"><title>Node9</title>
<polygon fill="none" stroke="#bfbfbf" points="686,-62 686,-81 769,-81 769,-62 686,-62"/>
<text text-anchor="middle" x="727.5" y="-69" font-family="Helvetica,sans-Serif" font-size="10.00">unordered_map</text>
</g>
<!-- Node2&#45;&gt;Node9 -->
<g id="edge8" class="edge"><title>Node2&#45;&gt;Node9</title>
<path fill="none" stroke="midnightblue" d="M299.027,-131.385C313.321,-128.567 330.757,-125.337 346.5,-123 492.437,-101.332 531.698,-115.274 676.5,-87 681.221,-86.0783 686.139,-84.9288 690.977,-83.6829"/>
<polygon fill="midnightblue" stroke="midnightblue" points="691.979,-87.0375 700.708,-81.0322 690.139,-80.2836 691.979,-87.0375"/>
</g>
<!-- Node10 -->
<g id="node10" class="node"><title>Node10</title>
<polygon fill="none" stroke="#bfbfbf" points="445.5,-62 445.5,-81 489.5,-81 489.5,-62 445.5,-62"/>
<text text-anchor="middle" x="467.5" y="-69" font-family="Helvetica,sans-Serif" font-size="10.00">vector</text>
</g>
<!-- Node2&#45;&gt;Node10 -->
<g id="edge9" class="edge"><title>Node2&#45;&gt;Node10</title>
<path fill="none" stroke="midnightblue" d="M299.193,-129.909C332.925,-120.968 389.4,-105.029 436.5,-87 437.922,-86.4557 439.37,-85.8751 440.824,-85.2709"/>
<polygon fill="midnightblue" stroke="midnightblue" points="442.58,-88.3214 450.31,-81.076 439.749,-81.9194 442.58,-88.3214"/>
</g>
<!-- Node11 -->
<g id="node11" class="node"><title>Node11</title>
<g id="a_node11"><a xlink:href="color_8hpp.html" target="_top" xlink:title="color.hpp">
<polygon fill="none" stroke="black" points="147.5,-62 147.5,-81 203.5,-81 203.5,-62 147.5,-62"/>
<text text-anchor="middle" x="175.5" y="-69" font-family="Helvetica,sans-Serif" font-size="10.00">color.hpp</text>
</a>
</g>
</g>
<!-- Node2&#45;&gt;Node11 -->
<g id="edge10" class="edge"><title>Node2&#45;&gt;Node11</title>
<path fill="none" stroke="midnightblue" d="M256.823,-128.734C241.319,-118.013 214.859,-99.7165 196.344,-86.9137"/>
<polygon fill="midnightblue" stroke="midnightblue" points="198.192,-83.9361 187.976,-81.1273 194.211,-89.6937 198.192,-83.9361"/>
</g>
<!-- Node11&#45;&gt;Node3 -->
<g id="edge12" class="edge"><title>Node11&#45;&gt;Node3</title>
<path fill="none" stroke="midnightblue" d="M184.67,-61.9751C194.65,-52.6966 210.812,-37.6706 223.009,-26.331"/>
<polygon fill="midnightblue" stroke="midnightblue" points="225.407,-28.8814 230.347,-19.5091 220.64,-23.7547 225.407,-28.8814"/>
</g>
<!-- Node11&#45;&gt;Node7 -->
<g id="edge14" class="edge"><title>Node11&#45;&gt;Node7</title>
<path fill="none" stroke="midnightblue" d="M203.549,-64.8437C218.855,-61.9018 238.166,-58.4241 255.5,-56 414.348,-33.7862 605.904,-18.6042 679.571,-13.1928"/>
<polygon fill="midnightblue" stroke="midnightblue" points="679.847,-16.682 689.567,-12.4656 679.339,-9.70049 679.847,-16.682"/>
</g>
<!-- Node12 -->
<g id="node12" class="node"><title>Node12</title>
<polygon fill="none" stroke="#bfbfbf" points="88.5,-0.5 88.5,-19.5 134.5,-19.5 134.5,-0.5 88.5,-0.5"/>
<text text-anchor="middle" x="111.5" y="-7.5" font-family="Helvetica,sans-Serif" font-size="10.00">cctype</text>
</g>
<!-- Node11&#45;&gt;Node12 -->
<g id="edge11" class="edge"><title>Node11&#45;&gt;Node12</title>
<path fill="none" stroke="midnightblue" d="M166.33,-61.9751C156.35,-52.6966 140.188,-37.6706 127.991,-26.331"/>
<polygon fill="midnightblue" stroke="midnightblue" points="130.36,-23.7547 120.653,-19.5091 125.593,-28.8814 130.36,-23.7547"/>
</g>
<!-- Node13 -->
<g id="node13" class="node"><title>Node13</title>
<polygon fill="none" stroke="#bfbfbf" points="153,-0.5 153,-19.5 198,-19.5 198,-0.5 153,-0.5"/>
<text text-anchor="middle" x="175.5" y="-7.5" font-family="Helvetica,sans-Serif" font-size="10.00">cstdlib</text>
</g>
<!-- Node11&#45;&gt;Node13 -->
<g id="edge13" class="edge"><title>Node11&#45;&gt;Node13</title>
<path fill="none" stroke="midnightblue" d="M175.5,-61.9751C175.5,-53.5803 175.5,-40.4806 175.5,-29.6631"/>
<polygon fill="midnightblue" stroke="midnightblue" points="179,-29.5091 175.5,-19.5091 172,-29.5091 179,-29.5091"/>
</g>
<!-- Node17&#45;&gt;Node2 -->
<g id="edge31" class="edge"><title>Node17&#45;&gt;Node2</title>
<path fill="none" stroke="midnightblue" d="M661.2,-202.309C595.897,-197.305 440.638,-183.152 313.5,-154 310.024,-153.203 306.431,-152.247 302.868,-151.211"/>
<polygon fill="midnightblue" stroke="midnightblue" points="303.609,-147.776 293.02,-148.145 301.528,-154.459 303.609,-147.776"/>
</g>
<!-- Node17&#45;&gt;Node6 -->
<g id="edge22" class="edge"><title>Node17&#45;&gt;Node6</title>
<path fill="none" stroke="midnightblue" d="M661.282,-201.945C580.554,-195.061 369.572,-175.209 346.5,-154 329.316,-138.204 326.217,-110.136 326.293,-91.4204"/>
<polygon fill="midnightblue" stroke="midnightblue" points="329.799,-91.2857 326.652,-81.1691 322.804,-91.0402 329.799,-91.2857"/>
</g>
<!-- Node17&#45;&gt;Node7 -->
<g id="edge23" class="edge"><title>Node17&#45;&gt;Node7</title>
<path fill="none" stroke="midnightblue" d="M719.647,-195.854C738.892,-188.162 763.368,-174.847 775.5,-154 797.411,-116.347 797.99,-94.4451 777.5,-56 769.575,-41.1306 754.312,-30.3014 740.353,-22.9976"/>
<polygon fill="midnightblue" stroke="midnightblue" points="741.533,-19.681 731.004,-18.498 738.497,-25.9886 741.533,-19.681"/>
</g>
<!-- Node17&#45;&gt;Node9 -->
<g id="edge24" class="edge"><title>Node17&#45;&gt;Node9</title>
<path fill="none" stroke="midnightblue" d="M712.115,-195.917C728.14,-187.717 749.687,-173.684 759.5,-154 770.357,-132.221 755.12,-105.808 742.18,-89.0749"/>
<polygon fill="midnightblue" stroke="midnightblue" points="744.827,-86.7838 735.773,-81.2826 739.421,-91.2297 744.827,-86.7838"/>
</g>
<!-- Node18 -->
<g id="node18" class="node"><title>Node18</title>
<polygon fill="none" stroke="#bfbfbf" points="667.5,-129 667.5,-148 717.5,-148 717.5,-129 667.5,-129"/>
<text text-anchor="middle" x="692.5" y="-136" font-family="Helvetica,sans-Serif" font-size="10.00">iomanip</text>
</g>
<!-- Node17&#45;&gt;Node18 -->
<g id="edge19" class="edge"><title>Node17&#45;&gt;Node18</title>
<path fill="none" stroke="midnightblue" d="M692.5,-195.734C692.5,-186.183 692.5,-170.618 692.5,-158.283"/>
<polygon fill="midnightblue" stroke="midnightblue" points="696,-158.127 692.5,-148.127 689,-158.127 696,-158.127"/>
</g>
<!-- Node19 -->
<g id="node19" class="node"><title>Node19</title>
<polygon fill="none" stroke="#bfbfbf" points="613.5,-62 613.5,-81 667.5,-81 667.5,-62 613.5,-62"/>
<text text-anchor="middle" x="640.5" y="-69" font-family="Helvetica,sans-Serif" font-size="10.00">iostream</text>
</g>
<!-- Node17&#45;&gt;Node19 -->
<g id="edge20" class="edge"><title>Node17&#45;&gt;Node19</title>
<path fill="none" stroke="midnightblue" d="M701.453,-195.599C715.771,-180.242 740.819,-148.014 726.5,-123 720.027,-111.693 691.442,-96.2266 668.981,-85.3997"/>
<polygon fill="midnightblue" stroke="midnightblue" points="670.349,-82.1751 659.812,-81.0693 667.359,-88.5047 670.349,-82.1751"/>
</g>
<!-- Node20 -->
<g id="node20" class="node"><title>Node20</title>
<polygon fill="none" stroke="#bfbfbf" points="355.5,-129 355.5,-148 399.5,-148 399.5,-129 355.5,-129"/>
<text text-anchor="middle" x="377.5" y="-136" font-family="Helvetica,sans-Serif" font-size="10.00">mutex</text>
</g>
<!-- Node17&#45;&gt;Node20 -->
<g id="edge21" class="edge"><title>Node17&#45;&gt;Node20</title>
<path fill="none" stroke="midnightblue" d="M661.184,-201.634C608.164,-196.189 497.776,-182.277 408.5,-154 406.826,-153.47 405.124,-152.868 403.425,-152.22"/>
<polygon fill="midnightblue" stroke="midnightblue" points="404.481,-148.865 393.911,-148.149 401.728,-155.301 404.481,-148.865"/>
</g>
<!-- Node21 -->
<g id="node21" class="node"><title>Node21</title>
<polygon fill="none" stroke="#bfbfbf" points="418,-123.5 418,-153.5 523,-153.5 523,-123.5 418,-123.5"/>
<text text-anchor="start" x="426" y="-141.5" font-family="Helvetica,sans-Serif" font-size="10.00">boost/chrono/io/time</text>
<text text-anchor="middle" x="470.5" y="-130.5" font-family="Helvetica,sans-Serif" font-size="10.00">_point_io.hpp</text>
</g>
<!-- Node17&#45;&gt;Node21 -->
<g id="edge25" class="edge"><title>Node17&#45;&gt;Node21</title>
<path fill="none" stroke="midnightblue" d="M663.02,-195.869C628.771,-185.841 571.445,-169.056 528.234,-156.404"/>
<polygon fill="midnightblue" stroke="midnightblue" points="528.992,-152.979 518.411,-153.528 527.025,-159.697 528.992,-152.979"/>
</g>
<!-- Node22 -->
<g id="node22" class="node"><title>Node22</title>
<g id="a_node22"><a xlink:href="multibuf_8hpp.html" target="_top" xlink:title="multibuf.hpp">
<polygon fill="none" stroke="black" points="579.5,-129 579.5,-148 649.5,-148 649.5,-129 579.5,-129"/>
<text text-anchor="middle" x="614.5" y="-136" font-family="Helvetica,sans-Serif" font-size="10.00">multibuf.hpp</text>
</a>
</g>
</g>
<!-- Node17&#45;&gt;Node22 -->
<g id="edge26" class="edge"><title>Node17&#45;&gt;Node22</title>
<path fill="none" stroke="midnightblue" d="M681.981,-195.734C669.35,-185.208 647.955,-167.379 632.641,-154.617"/>
<polygon fill="midnightblue" stroke="midnightblue" points="634.776,-151.84 624.853,-148.127 630.294,-157.218 634.776,-151.84"/>
</g>
<!-- Node24 -->
<g id="node24" class="node"><title>Node24</title>
<g id="a_node24"><a xlink:href="settings_8hpp.html" target="_top" xlink:title="settings.hpp">
<polygon fill="none" stroke="black" points="863.5,-129 863.5,-148 933.5,-148 933.5,-129 863.5,-129"/>
<text text-anchor="middle" x="898.5" y="-136" font-family="Helvetica,sans-Serif" font-size="10.00">settings.hpp</text>
</a>
</g>
</g>
<!-- Node17&#45;&gt;Node24 -->
<g id="edge32" class="edge"><title>Node17&#45;&gt;Node24</title>
<path fill="none" stroke="midnightblue" d="M719.855,-195.869C756.355,-184.351 821.101,-163.922 861.81,-151.077"/>
<polygon fill="midnightblue" stroke="midnightblue" points="862.876,-154.411 871.36,-148.064 860.77,-147.735 862.876,-154.411"/>
</g>
<!-- Node22&#45;&gt;Node7 -->
<g id="edge30" class="edge"><title>Node22&#45;&gt;Node7</title>
<path fill="none" stroke="midnightblue" d="M609.987,-128.797C602.435,-112.897 589.472,-78.7053 604.5,-56 621.106,-30.9092 654.823,-19.767 679.792,-14.8446"/>
<polygon fill="midnightblue" stroke="midnightblue" points="680.628,-18.252 689.882,-13.0934 679.431,-11.3551 680.628,-18.252"/>
</g>
<!-- Node22&#45;&gt;Node10 -->
<g id="edge29" class="edge"><title>Node22&#45;&gt;Node10</title>
<path fill="none" stroke="midnightblue" d="M594.31,-128.905C571.11,-118.985 531.932,-102.093 498.5,-87 497.312,-86.4637 496.1,-85.9128 494.877,-85.3538"/>
<polygon fill="midnightblue" stroke="midnightblue" points="496.039,-82.0355 485.494,-81.0163 493.102,-88.3894 496.039,-82.0355"/>
</g>
<!-- Node22&#45;&gt;Node19 -->
<g id="edge27" class="edge"><title>Node22&#45;&gt;Node19</title>
<path fill="none" stroke="midnightblue" d="M618.006,-128.734C621.905,-118.988 628.308,-102.981 633.287,-90.5318"/>
<polygon fill="midnightblue" stroke="midnightblue" points="636.585,-91.712 637.049,-81.1273 630.085,-89.1122 636.585,-91.712"/>
</g>
<!-- Node23 -->
<g id="node23" class="node"><title>Node23</title>
<polygon fill="none" stroke="#bfbfbf" points="507.5,-62 507.5,-81 557.5,-81 557.5,-62 507.5,-62"/>
<text text-anchor="middle" x="532.5" y="-69" font-family="Helvetica,sans-Serif" font-size="10.00">fstream</text>
</g>
<!-- Node22&#45;&gt;Node23 -->
<g id="edge28" class="edge"><title>Node22&#45;&gt;Node23</title>
<path fill="none" stroke="midnightblue" d="M603.441,-128.734C590.162,-118.208 567.671,-100.379 551.571,-87.6174"/>
<polygon fill="midnightblue" stroke="midnightblue" points="553.394,-84.5965 543.384,-81.1273 549.046,-90.0821 553.394,-84.5965"/>
</g>
<!-- Node24&#45;&gt;Node3 -->
<g id="edge34" class="edge"><title>Node24&#45;&gt;Node3</title>
<path fill="none" stroke="midnightblue" d="M889.393,-128.881C870.38,-111.492 824.332,-72.4662 777.5,-56 683.56,-22.9703 374.931,-13.7694 272.713,-11.5956"/>
<polygon fill="midnightblue" stroke="midnightblue" points="272.724,-8.09525 262.655,-11.3905 272.581,-15.0938 272.724,-8.09525"/>
</g>
<!-- Node24&#45;&gt;Node7 -->
<g id="edge33" class="edge"><title>Node24&#45;&gt;Node7</title>
<path fill="none" stroke="midnightblue" d="M895.683,-128.98C889.788,-112.453 874.579,-75.9217 849.5,-56 817.698,-30.7379 771.299,-19.4726 741.005,-14.5778"/>
<polygon fill="midnightblue" stroke="midnightblue" points="741.416,-11.1006 731.012,-13.0996 740.392,-18.0253 741.416,-11.1006"/>
</g>
<!-- Node24&#45;&gt;Node9 -->
<g id="edge35" class="edge"><title>Node24&#45;&gt;Node9</title>
<path fill="none" stroke="midnightblue" d="M875.793,-128.869C845.942,-117.522 793.334,-97.5246 759.47,-84.6522"/>
<polygon fill="midnightblue" stroke="midnightblue" points="760.62,-81.3452 750.029,-81.0637 758.133,-87.8885 760.62,-81.3452"/>
</g>
<!-- Node25 -->
<g id="node25" class="node"><title>Node25</title>
<polygon fill="none" stroke="#bfbfbf" points="902,-56.5 902,-86.5 1003,-86.5 1003,-56.5 902,-56.5"/>
<text text-anchor="start" x="910" y="-74.5" font-family="Helvetica,sans-Serif" font-size="10.00">boost/property_tree</text>
<text text-anchor="middle" x="952.5" y="-63.5" font-family="Helvetica,sans-Serif" font-size="10.00">/ptree.hpp</text>
</g>
<!-- Node24&#45;&gt;Node25 -->
<g id="edge36" class="edge"><title>Node24&#45;&gt;Node25</title>
<path fill="none" stroke="midnightblue" d="M905.783,-128.734C913.081,-119.949 924.604,-106.078 934.38,-94.3111"/>
<polygon fill="midnightblue" stroke="midnightblue" points="937.097,-96.5175 940.795,-86.589 931.713,-92.0444 937.097,-96.5175"/>
</g>
<!-- Node26&#45;&gt;Node7 -->
<g id="edge42" class="edge"><title>Node26&#45;&gt;Node7</title>
<path fill="none" stroke="midnightblue" d="M1022.59,-195.976C1020.44,-185.979 1017.05,-168.881 1015.5,-154 1014.94,-148.582 1016.12,-60.0708 1012.5,-56 977.145,-16.2332 811.513,-11.1632 741.678,-10.8268"/>
<polygon fill="midnightblue" stroke="midnightblue" points="741.333,-7.32625 731.327,-10.8088 741.321,-14.3262 741.333,-7.32625"/>
</g>
<!-- Node26&#45;&gt;Node8 -->
<g id="edge41" class="edge"><title>Node26&#45;&gt;Node8</title>
<path fill="none" stroke="midnightblue" d="M972.423,-202.324C869.143,-197.422 642.165,-183.558 570.5,-154 550.031,-145.557 550.749,-133.943 531.5,-123 492.247,-100.686 478.473,-103.643 436.5,-87 434.861,-86.35 433.181,-85.6771 431.487,-84.9932"/>
<polygon fill="midnightblue" stroke="midnightblue" points="432.396,-81.5839 421.816,-81.0394 429.747,-88.0633 432.396,-81.5839"/>
</g>
<!-- Node26&#45;&gt;Node15 -->
<g id="edge40" class="edge"><title>Node26&#45;&gt;Node15</title>
<path fill="none" stroke="midnightblue" d="M1062.23,-195.935C1118.42,-183.107 1219.27,-159.789 1235.5,-154 1236.93,-153.49 1238.38,-152.932 1239.84,-152.341"/>
<polygon fill="midnightblue" stroke="midnightblue" points="1241.56,-155.404 1249.27,-148.131 1238.71,-149.012 1241.56,-155.404"/>
</g>
<!-- Node26&#45;&gt;Node24 -->
<g id="edge44" class="edge"><title>Node26&#45;&gt;Node24</title>
<path fill="none" stroke="midnightblue" d="M1007.77,-195.869C986.399,-184.845 949.201,-165.655 924.219,-152.768"/>
<polygon fill="midnightblue" stroke="midnightblue" points="925.793,-149.641 915.301,-148.167 922.584,-155.862 925.793,-149.641"/>
</g>
<!-- Node27 -->
<g id="node27" class="node"><title>Node27</title>
<polygon fill="none" stroke="#bfbfbf" points="1024.5,-129 1024.5,-148 1080.5,-148 1080.5,-129 1024.5,-129"/>
<text text-anchor="middle" x="1052.5" y="-136" font-family="Helvetica,sans-Serif" font-size="10.00">algorithm</text>
</g>
<!-- Node26&#45;&gt;Node27 -->
<g id="edge38" class="edge"><title>Node26&#45;&gt;Node27</title>
<path fill="none" stroke="midnightblue" d="M1028.28,-195.734C1032.47,-185.988 1039.37,-169.981 1044.73,-157.532"/>
<polygon fill="midnightblue" stroke="midnightblue" points="1048.04,-158.696 1048.78,-148.127 1041.61,-155.927 1048.04,-158.696"/>
</g>
<!-- Node28 -->
<g id="node28" class="node"><title>Node28</title>
<polygon fill="none" stroke="#bfbfbf" points="1099,-129 1099,-148 1146,-148 1146,-129 1099,-129"/>
<text text-anchor="middle" x="1122.5" y="-136" font-family="Helvetica,sans-Serif" font-size="10.00">iterator</text>
</g>
<!-- Node26&#45;&gt;Node28 -->
<g id="edge39" class="edge"><title>Node26&#45;&gt;Node28</title>
<path fill="none" stroke="midnightblue" d="M1037.72,-195.734C1053.95,-184.964 1081.72,-166.55 1101.03,-153.739"/>
<polygon fill="midnightblue" stroke="midnightblue" points="1103.09,-156.571 1109.49,-148.127 1099.22,-150.738 1103.09,-156.571"/>
</g>
<!-- Node29 -->
<g id="node29" class="node"><title>Node29</title>
<polygon fill="none" stroke="#bfbfbf" points="1164.5,-129 1164.5,-148 1226.5,-148 1226.5,-129 1164.5,-129"/>
<text text-anchor="middle" x="1195.5" y="-136" font-family="Helvetica,sans-Serif" font-size="10.00">type_traits</text>
</g>
<!-- Node26&#45;&gt;Node29 -->
<g id="edge43" class="edge"><title>Node26&#45;&gt;Node29</title>
<path fill="none" stroke="midnightblue" d="M1047.21,-195.869C1077.06,-184.522 1129.67,-164.525 1163.53,-151.652"/>
<polygon fill="midnightblue" stroke="midnightblue" points="1164.87,-154.888 1172.97,-148.064 1162.38,-148.345 1164.87,-154.888"/>
</g>
</g>
</svg>
        <g id="navigator" transform="translate(0 0)" fill="#404254">
                <rect fill="#f2f5e9" fill-opacity="0.5" stroke="#606060" stroke-width=".5" x="0" y="0" width="60" height="60"/>
                <use id="zoomplus" xlink:href="#zoomPlus" x="17" y="9" onmousedown="handleZoom(evt,'in')"/>
                <use id="zoomminus" xlink:href="#zoomMin" x="42" y="9" onmousedown="handleZoom(evt,'out')"/>
                <use id="reset" xlink:href="#resetDef" x="30" y="36" onmousedown="handleReset()"/>
                <g id="arrowUp" xlink:href="#dirArrow" transform="translate(30 24)" onmousedown="handlePan(0,-1)">
                  <use xlink:href="#rim" fill="#404040">
                        <set attributeName="fill" to="#808080" begin="arrowUp.mouseover" end="arrowUp.mouseout"/>
                  </use>
                  <path fill="none" stroke="white" stroke-width="1.5" d="M0,-3.0v7 M-2.5,-0.5L0,-3.0L2.5,-0.5"/>
                </g>
                <g id="arrowRight" xlink:href="#dirArrow" transform="rotate(90) translate(36 -43)" onmousedown="handlePan(1,0)">
                  <use xlink:href="#rim" fill="#404040">
                        <set attributeName="fill" to="#808080" begin="arrowRight.mouseover" end="arrowRight.mouseout"/>
                  </use>
                  <path fill="none" stroke="white" stroke-width="1.5" d="M0,-3.0v7 M-2.5,-0.5L0,-3.0L2.5,-0.5"/>
                </g>
                <g id="arrowDown" xlink:href="#dirArrow" transform="rotate(180) translate(-30 -48)" onmousedown="handlePan(0,1)">
                  <use xlink:href="#rim" fill="#404040">
                        <set attributeName="fill" to="#808080" begin="arrowDown.mouseover" end="arrowDown.mouseout"/>
                  </use>
                  <path fill="none" stroke="white" stroke-width="1.5" d="M0,-3.0v7 M-2.5,-0.5L0,-3.0L2.5,-0.5"/>
                </g>
                <g id="arrowLeft" xlink:href="#dirArrow" transform="rotate(270) translate(-36 17)" onmousedown="handlePan(-1,0)">
                  <use xlink:href="#rim" fill="#404040">
                        <set attributeName="fill" to="#808080" begin="arrowLeft.mouseover" end="arrowLeft.mouseout"/>
                  </use>
                  <path fill="none" stroke="white" stroke-width="1.5" d="M0,-3.0v7 M-2.5,-0.5L0,-3.0L2.5,-0.5"/>
                </g>
        </g>
        <svg viewBox="0 0 15 15" width="100%" height="30px" preserveAspectRatio="xMaxYMin meet">
         <g id="arrow_out" transform="scale(0.3 0.3)">
          <a xlink:href="string_8cpp__incl_org.svg" target="_base">
           <rect id="button" ry="5" rx="5" y="6" x="6" height="38" width="38"
                fill="#f2f5e9" fill-opacity="0.5" stroke="#606060" stroke-width="1.0"/>
           <path id="arrow"
             d="M 11.500037,31.436501 C 11.940474,20.09759 22.043105,11.32322 32.158766,21.979434 L 37.068811,17.246167 C 37.068811,17.246167 37.088388,32 37.088388,32 L 22.160133,31.978069 C 22.160133,31.978069 26.997745,27.140456 26.997745,27.140456 C 18.528582,18.264221 13.291696,25.230495 11.500037,31.436501 z"
             style="fill:#404040;"/>
          </a>
         </g>
        </svg>
</svg>
