<?xml version="1.0" encoding="UTF-8" standalone="no"?>
<!DOCTYPE svg PUBLIC "-//W3C//DTD SVG 1.1//EN"
 "http://www.w3.org/Graphics/SVG/1.1/DTD/svg11.dtd">
<!-- Generated by graphviz version 2.38.0 (20140413.2041)
 -->
<!-- Title: JsonParser Pages: 1 -->
<svg width="174pt" height="163pt"
 viewBox="0.00 0.00 173.50 163.00" xmlns="http://www.w3.org/2000/svg" xmlns:xlink="http://www.w3.org/1999/xlink">
<g id="graph0" class="graph" transform="scale(1 1) rotate(0) translate(4 159)">
<title>JsonParser</title>
<!-- Node1 -->
<g id="node1" class="node"><title>Node1</title>
<polygon fill="#bfbfbf" stroke="black" points="19,-0.5 19,-19.5 85,-19.5 85,-0.5 19,-0.5"/>
<text text-anchor="middle" x="52" y="-7.5" font-family="Helvetica,sans-Serif" font-size="10.00">JsonParser</text>
</g>
<!-- Node2 -->
<g id="node2" class="node"><title>Node2</title>
<g id="a_node2"><a xlink:href="classSettings.html" target="_top" xlink:title="Class containing hierarchical settings. ">
<polygon fill="none" stroke="black" points="25.5,-67.5 25.5,-86.5 78.5,-86.5 78.5,-67.5 25.5,-67.5"/>
<text text-anchor="middle" x="52" y="-74.5" font-family="Helvetica,sans-Serif" font-size="10.00">Settings</text>
</a>
</g>
</g>
<!-- Node2&#45;&gt;Node1 -->
<g id="edge1" class="edge"><title>Node2&#45;&gt;Node1</title>
<path fill="none" stroke="#9a32cd" stroke-dasharray="5,2" d="M52,-57.037C52,-44.6703 52,-29.1198 52,-19.6273"/>
<polygon fill="#9a32cd" stroke="#9a32cd" points="48.5001,-57.2338 52,-67.2338 55.5001,-57.2338 48.5001,-57.2338"/>
<text text-anchor="middle" x="64.5" y="-41" font-family="Helvetica,sans-Serif" font-size="10.00"> ptree</text>
</g>
<!-- Node2&#45;&gt;Node2 -->
<g id="edge3" class="edge"><title>Node2&#45;&gt;Node2</title>
<path fill="none" stroke="#9a32cd" stroke-dasharray="5,2" d="M89.0937,-81.5251C93.5711,-80.7078 96.5,-79.1995 96.5,-77 96.5,-73.3906 88.6125,-71.6423 78.9381,-71.7551"/>
<polygon fill="#9a32cd" stroke="#9a32cd" points="88.6656,-78.0466 78.9381,-82.2449 89.1605,-85.0291 88.6656,-78.0466"/>
<text text-anchor="middle" x="131" y="-74.5" font-family="Helvetica,sans-Serif" font-size="10.00"> global_settings</text>
</g>
<!-- Node3 -->
<g id="node3" class="node"><title>Node3</title>
<polygon fill="none" stroke="#bfbfbf" points="0,-124.5 0,-154.5 104,-154.5 104,-124.5 0,-124.5"/>
<text text-anchor="start" x="8" y="-142.5" font-family="Helvetica,sans-Serif" font-size="10.00">boost::property_tree</text>
<text text-anchor="middle" x="52" y="-131.5" font-family="Helvetica,sans-Serif" font-size="10.00">::ptree</text>
</g>
<!-- Node3&#45;&gt;Node2 -->
<g id="edge2" class="edge"><title>Node3&#45;&gt;Node2</title>
<path fill="none" stroke="midnightblue" d="M52,-114.352C52,-104.513 52,-93.7753 52,-86.5399"/>
<polygon fill="midnightblue" stroke="midnightblue" points="48.5001,-114.468 52,-124.468 55.5001,-114.468 48.5001,-114.468"/>
</g>
</g>
</svg>
