<?xml version="1.0" encoding="UTF-8" standalone="no"?>
<!DOCTYPE svg PUBLIC "-//W3C//DTD SVG 1.1//EN"
 "http://www.w3.org/Graphics/SVG/1.1/DTD/svg11.dtd">
<!-- Generated by graphviz version 2.38.0 (20140413.2041)
 -->
<!-- Title: src/time/time_string.hpp Pages: 1 -->
<svg width="1510pt" height="375pt"
 viewBox="0.00 0.00 1510.47 375.00" xmlns="http://www.w3.org/2000/svg" xmlns:xlink="http://www.w3.org/1999/xlink">
<g id="graph0" class="graph" transform="scale(1 1) rotate(0) translate(4 371)">
<title>src/time/time_string.hpp</title>
<!-- Node1 -->
<g id="node1" class="node"><title>Node1</title>
<polygon fill="#bfbfbf" stroke="black" points="1161,-347.5 1161,-366.5 1283,-366.5 1283,-347.5 1161,-347.5"/>
<text text-anchor="middle" x="1222" y="-354.5" font-family="Helvetica,sans-Serif" font-size="10.00">src/time/time_string.hpp</text>
</g>
<!-- Node2 -->
<g id="node2" class="node"><title>Node2</title>
<g id="a_node2"><a xlink:href="time_8hpp.html" target="_top" xlink:title="time.hpp">
<polygon fill="none" stroke="black" points="206,-235.5 206,-254.5 260,-254.5 260,-235.5 206,-235.5"/>
<text text-anchor="middle" x="233" y="-242.5" font-family="Helvetica,sans-Serif" font-size="10.00">time.hpp</text>
</a>
</g>
</g>
<!-- Node1&#45;&gt;Node2 -->
<g id="edge1" class="edge"><title>Node1&#45;&gt;Node2</title>
<path fill="none" stroke="midnightblue" d="M1160.88,-349.202C974.986,-328.526 419.968,-266.795 270.452,-250.166"/>
<polygon fill="midnightblue" stroke="midnightblue" points="270.724,-246.674 260.399,-249.047 269.95,-253.631 270.724,-246.674"/>
</g>
<!-- Node15 -->
<g id="node15" class="node"><title>Node15</title>
<g id="a_node15"><a xlink:href="language_8hpp.html" target="_top" xlink:title="string/language.hpp">
<polygon fill="none" stroke="black" points="1382.5,-174 1382.5,-193 1483.5,-193 1483.5,-174 1382.5,-174"/>
<text text-anchor="middle" x="1433" y="-181" font-family="Helvetica,sans-Serif" font-size="10.00">string/language.hpp</text>
</a>
</g>
</g>
<!-- Node1&#45;&gt;Node15 -->
<g id="edge15" class="edge"><title>Node1&#45;&gt;Node15</title>
<path fill="none" stroke="midnightblue" d="M1237.58,-347.421C1253.01,-338.752 1277.13,-324.715 1297,-311 1330.08,-288.171 1338.51,-282.304 1368,-255 1386.79,-237.604 1406.47,-215.662 1419.18,-200.916"/>
<polygon fill="midnightblue" stroke="midnightblue" points="1421.97,-203.034 1425.8,-193.155 1416.65,-198.49 1421.97,-203.034"/>
</g>
<!-- Node19 -->
<g id="node19" class="node"><title>Node19</title>
<g id="a_node19"><a xlink:href="string__functions_8hpp.html" target="_top" xlink:title="string/string_functions.hpp">
<polygon fill="none" stroke="black" points="1156.5,-291.5 1156.5,-310.5 1287.5,-310.5 1287.5,-291.5 1156.5,-291.5"/>
<text text-anchor="middle" x="1222" y="-298.5" font-family="Helvetica,sans-Serif" font-size="10.00">string/string_functions.hpp</text>
</a>
</g>
</g>
<!-- Node1&#45;&gt;Node19 -->
<g id="edge19" class="edge"><title>Node1&#45;&gt;Node19</title>
<path fill="none" stroke="midnightblue" d="M1222,-347.083C1222,-340.006 1222,-329.861 1222,-320.986"/>
<polygon fill="midnightblue" stroke="midnightblue" points="1225.5,-320.751 1222,-310.751 1218.5,-320.751 1225.5,-320.751"/>
</g>
<!-- Node3 -->
<g id="node3" class="node"><title>Node3</title>
<polygon fill="none" stroke="#bfbfbf" points="0,-174 0,-193 46,-193 46,-174 0,-174"/>
<text text-anchor="middle" x="23" y="-181" font-family="Helvetica,sans-Serif" font-size="10.00">chrono</text>
</g>
<!-- Node2&#45;&gt;Node3 -->
<g id="edge2" class="edge"><title>Node2&#45;&gt;Node3</title>
<path fill="none" stroke="midnightblue" d="M205.743,-237.97C171.412,-230.133 110.769,-215.486 60,-199 57.73,-198.263 55.3978,-197.46 53.0618,-196.623"/>
<polygon fill="midnightblue" stroke="midnightblue" points="54.1782,-193.304 43.5859,-193.068 51.7194,-199.858 54.1782,-193.304"/>
</g>
<!-- Node4 -->
<g id="node4" class="node"><title>Node4</title>
<polygon fill="none" stroke="#bfbfbf" points="160.5,-112.5 160.5,-131.5 219.5,-131.5 219.5,-112.5 160.5,-112.5"/>
<text text-anchor="middle" x="190" y="-119.5" font-family="Helvetica,sans-Serif" font-size="10.00">functional</text>
</g>
<!-- Node2&#45;&gt;Node4 -->
<g id="edge3" class="edge"><title>Node2&#45;&gt;Node4</title>
<path fill="none" stroke="midnightblue" d="M231.363,-235.378C228.511,-221.084 222.056,-191.706 213,-168 209.438,-158.677 204.501,-148.754 200.113,-140.606"/>
<polygon fill="midnightblue" stroke="midnightblue" points="203.083,-138.744 195.164,-131.706 196.965,-142.146 203.083,-138.744"/>
</g>
<!-- Node5 -->
<g id="node5" class="node"><title>Node5</title>
<g id="a_node5"><a xlink:href="functional_8hpp.html" target="_top" xlink:title="functional.hpp">
<polygon fill="none" stroke="black" points="127.5,-174 127.5,-193 204.5,-193 204.5,-174 127.5,-174"/>
<text text-anchor="middle" x="166" y="-181" font-family="Helvetica,sans-Serif" font-size="10.00">functional.hpp</text>
</a>
</g>
</g>
<!-- Node2&#45;&gt;Node5 -->
<g id="edge4" class="edge"><title>Node2&#45;&gt;Node5</title>
<path fill="none" stroke="midnightblue" d="M223.401,-235.475C212.952,-226.197 196.032,-211.171 183.264,-199.831"/>
<polygon fill="midnightblue" stroke="midnightblue" points="185.383,-197.032 175.582,-193.009 180.735,-202.266 185.383,-197.032"/>
</g>
<!-- Node7 -->
<g id="node7" class="node"><title>Node7</title>
<g id="a_node7"><a xlink:href="concurrency_8hpp.html" target="_top" xlink:title="concurrency.hpp">
<polygon fill="none" stroke="black" points="305.5,-174 305.5,-193 394.5,-193 394.5,-174 305.5,-174"/>
<text text-anchor="middle" x="350" y="-181" font-family="Helvetica,sans-Serif" font-size="10.00">concurrency.hpp</text>
</a>
</g>
</g>
<!-- Node2&#45;&gt;Node7 -->
<g id="edge7" class="edge"><title>Node2&#45;&gt;Node7</title>
<path fill="none" stroke="midnightblue" d="M249.763,-235.475C269.225,-225.578 301.545,-209.142 324.211,-197.615"/>
<polygon fill="midnightblue" stroke="midnightblue" points="325.941,-200.662 333.268,-193.009 322.768,-194.422 325.941,-200.662"/>
</g>
<!-- Node12 -->
<g id="node12" class="node"><title>Node12</title>
<g id="a_node12"><a xlink:href="c_09_09-compat_8hpp.html" target="_top" xlink:title="This file defined some compatibility for features of C++14 and beyond. ">
<polygon fill="none" stroke="black" points="582,-56.5 582,-75.5 670,-75.5 670,-56.5 582,-56.5"/>
<text text-anchor="middle" x="626" y="-63.5" font-family="Helvetica,sans-Serif" font-size="10.00">c++&#45;compat.hpp</text>
</a>
</g>
</g>
<!-- Node2&#45;&gt;Node12 -->
<g id="edge12" class="edge"><title>Node2&#45;&gt;Node12</title>
<path fill="none" stroke="midnightblue" d="M260.088,-238.786C294.136,-231.791 354.051,-218.014 403,-199 462.854,-175.751 475.963,-165.076 531,-132 557.765,-115.915 587.249,-95.25 606.162,-81.5883"/>
<polygon fill="midnightblue" stroke="midnightblue" points="608.27,-84.3826 614.299,-75.6704 604.153,-78.7214 608.27,-84.3826"/>
</g>
<!-- Node13 -->
<g id="node13" class="node"><title>Node13</title>
<g id="a_node13"><a xlink:href="math_8hpp.html" target="_top" xlink:title="math.hpp">
<polygon fill="none" stroke="black" points="464.5,-56.5 464.5,-75.5 521.5,-75.5 521.5,-56.5 464.5,-56.5"/>
<text text-anchor="middle" x="493" y="-63.5" font-family="Helvetica,sans-Serif" font-size="10.00">math.hpp</text>
</a>
</g>
</g>
<!-- Node2&#45;&gt;Node13 -->
<g id="edge13" class="edge"><title>Node2&#45;&gt;Node13</title>
<path fill="none" stroke="midnightblue" d="M205.791,-239.879C179.999,-234.625 141.762,-223.142 118,-199 89.7785,-170.327 66.1894,-141.996 93,-112 116.847,-85.3202 358.589,-72.5265 454.292,-68.4775"/>
<polygon fill="midnightblue" stroke="midnightblue" points="454.573,-71.9689 464.42,-68.0587 454.284,-64.9749 454.573,-71.9689"/>
</g>
<!-- Node5&#45;&gt;Node4 -->
<g id="edge5" class="edge"><title>Node5&#45;&gt;Node4</title>
<path fill="none" stroke="midnightblue" d="M169.439,-173.975C172.896,-165.404 178.332,-151.927 182.746,-140.983"/>
<polygon fill="midnightblue" stroke="midnightblue" points="186.073,-142.092 186.568,-131.509 179.581,-139.474 186.073,-142.092"/>
</g>
<!-- Node6 -->
<g id="node6" class="node"><title>Node6</title>
<polygon fill="none" stroke="#bfbfbf" points="102,-112.5 102,-131.5 142,-131.5 142,-112.5 102,-112.5"/>
<text text-anchor="middle" x="122" y="-119.5" font-family="Helvetica,sans-Serif" font-size="10.00">utility</text>
</g>
<!-- Node5&#45;&gt;Node6 -->
<g id="edge6" class="edge"><title>Node5&#45;&gt;Node6</title>
<path fill="none" stroke="midnightblue" d="M159.696,-173.975C153.096,-165.05 142.563,-150.807 134.307,-139.643"/>
<polygon fill="midnightblue" stroke="midnightblue" points="137.052,-137.468 128.292,-131.509 131.424,-141.631 137.052,-137.468"/>
</g>
<!-- Node8 -->
<g id="node8" class="node"><title>Node8</title>
<polygon fill="none" stroke="#bfbfbf" points="238,-112.5 238,-131.5 284,-131.5 284,-112.5 238,-112.5"/>
<text text-anchor="middle" x="261" y="-119.5" font-family="Helvetica,sans-Serif" font-size="10.00">atomic</text>
</g>
<!-- Node7&#45;&gt;Node8 -->
<g id="edge8" class="edge"><title>Node7&#45;&gt;Node8</title>
<path fill="none" stroke="midnightblue" d="M337.248,-173.975C322.973,-164.431 299.603,-148.807 282.492,-137.368"/>
<polygon fill="midnightblue" stroke="midnightblue" points="283.986,-134.157 273.728,-131.509 280.096,-139.977 283.986,-134.157"/>
</g>
<!-- Node9 -->
<g id="node9" class="node"><title>Node9</title>
<polygon fill="none" stroke="#bfbfbf" points="302.5,-112.5 302.5,-131.5 397.5,-131.5 397.5,-112.5 302.5,-112.5"/>
<text text-anchor="middle" x="350" y="-119.5" font-family="Helvetica,sans-Serif" font-size="10.00">condition_variable</text>
</g>
<!-- Node7&#45;&gt;Node9 -->
<g id="edge9" class="edge"><title>Node7&#45;&gt;Node9</title>
<path fill="none" stroke="midnightblue" d="M350,-173.975C350,-165.58 350,-152.481 350,-141.663"/>
<polygon fill="midnightblue" stroke="midnightblue" points="353.5,-141.509 350,-131.509 346.5,-141.509 353.5,-141.509"/>
</g>
<!-- Node10 -->
<g id="node10" class="node"><title>Node10</title>
<polygon fill="none" stroke="#bfbfbf" points="416,-112.5 416,-131.5 460,-131.5 460,-112.5 416,-112.5"/>
<text text-anchor="middle" x="438" y="-119.5" font-family="Helvetica,sans-Serif" font-size="10.00">thread</text>
</g>
<!-- Node7&#45;&gt;Node10 -->
<g id="edge10" class="edge"><title>Node7&#45;&gt;Node10</title>
<path fill="none" stroke="midnightblue" d="M362.608,-173.975C376.723,-164.431 399.831,-148.807 416.749,-137.368"/>
<polygon fill="midnightblue" stroke="midnightblue" points="419.091,-140.01 425.415,-131.509 415.171,-134.211 419.091,-140.01"/>
</g>
<!-- Node11 -->
<g id="node11" class="node"><title>Node11</title>
<polygon fill="none" stroke="#bfbfbf" points="478,-112.5 478,-131.5 522,-131.5 522,-112.5 478,-112.5"/>
<text text-anchor="middle" x="500" y="-119.5" font-family="Helvetica,sans-Serif" font-size="10.00">mutex</text>
</g>
<!-- Node7&#45;&gt;Node11 -->
<g id="edge11" class="edge"><title>Node7&#45;&gt;Node11</title>
<path fill="none" stroke="midnightblue" d="M371.491,-173.975C397.11,-163.813 440.11,-146.756 469.245,-135.2"/>
<polygon fill="midnightblue" stroke="midnightblue" points="470.544,-138.45 478.549,-131.509 467.963,-131.943 470.544,-138.45"/>
</g>
<!-- Node14 -->
<g id="node14" class="node"><title>Node14</title>
<polygon fill="none" stroke="#bfbfbf" points="493,-0.5 493,-19.5 549,-19.5 549,-0.5 493,-0.5"/>
<text text-anchor="middle" x="521" y="-7.5" font-family="Helvetica,sans-Serif" font-size="10.00">algorithm</text>
</g>
<!-- Node13&#45;&gt;Node14 -->
<g id="edge14" class="edge"><title>Node13&#45;&gt;Node14</title>
<path fill="none" stroke="midnightblue" d="M497.624,-56.083C501.456,-48.6913 507.024,-37.9533 511.765,-28.8111"/>
<polygon fill="midnightblue" stroke="midnightblue" points="514.966,-30.2398 516.462,-19.7511 508.752,-27.0175 514.966,-30.2398"/>
</g>
<!-- Node16 -->
<g id="node16" class="node"><title>Node16</title>
<polygon fill="none" stroke="#bfbfbf" points="1147.5,-56.5 1147.5,-75.5 1188.5,-75.5 1188.5,-56.5 1147.5,-56.5"/>
<text text-anchor="middle" x="1168" y="-63.5" font-family="Helvetica,sans-Serif" font-size="10.00">string</text>
</g>
<!-- Node15&#45;&gt;Node16 -->
<g id="edge16" class="edge"><title>Node15&#45;&gt;Node16</title>
<path fill="none" stroke="midnightblue" d="M1430.72,-173.982C1426.21,-158.913 1414.67,-127.667 1393,-112 1362.28,-89.7886 1252.89,-75.732 1198.77,-69.9807"/>
<polygon fill="midnightblue" stroke="midnightblue" points="1199.03,-66.4891 1188.73,-68.9413 1198.31,-73.4519 1199.03,-66.4891"/>
</g>
<!-- Node17 -->
<g id="node17" class="node"><title>Node17</title>
<polygon fill="none" stroke="#bfbfbf" points="1434.5,-56.5 1434.5,-75.5 1475.5,-75.5 1475.5,-56.5 1434.5,-56.5"/>
<text text-anchor="middle" x="1455" y="-63.5" font-family="Helvetica,sans-Serif" font-size="10.00">regex</text>
</g>
<!-- Node15&#45;&gt;Node17 -->
<g id="edge17" class="edge"><title>Node15&#45;&gt;Node17</title>
<path fill="none" stroke="midnightblue" d="M1434.65,-173.819C1438.21,-155.173 1446.63,-110.943 1451.45,-85.6317"/>
<polygon fill="midnightblue" stroke="midnightblue" points="1454.89,-86.2603 1453.33,-75.782 1448.02,-84.9505 1454.89,-86.2603"/>
</g>
<!-- Node18 -->
<g id="node18" class="node"><title>Node18</title>
<polygon fill="none" stroke="#bfbfbf" points="1267.5,-112.5 1267.5,-131.5 1350.5,-131.5 1350.5,-112.5 1267.5,-112.5"/>
<text text-anchor="middle" x="1309" y="-119.5" font-family="Helvetica,sans-Serif" font-size="10.00">unordered_map</text>
</g>
<!-- Node15&#45;&gt;Node18 -->
<g id="edge18" class="edge"><title>Node15&#45;&gt;Node18</title>
<path fill="none" stroke="midnightblue" d="M1415.23,-173.975C1394.52,-164.034 1360.05,-147.495 1336.01,-135.961"/>
<polygon fill="midnightblue" stroke="midnightblue" points="1337.26,-132.68 1326.73,-131.509 1334.23,-138.991 1337.26,-132.68"/>
</g>
<!-- Node19&#45;&gt;Node14 -->
<g id="edge20" class="edge"><title>Node19&#45;&gt;Node14</title>
<path fill="none" stroke="midnightblue" d="M1156.38,-297.468C1055.54,-291.345 858.469,-270.428 709,-199 625.686,-159.186 557.781,-66.7961 532.077,-28.3113"/>
<polygon fill="midnightblue" stroke="midnightblue" points="534.877,-26.1982 526.468,-19.7532 529.022,-30.0355 534.877,-26.1982"/>
</g>
<!-- Node19&#45;&gt;Node16 -->
<g id="edge24" class="edge"><title>Node19&#45;&gt;Node16</title>
<path fill="none" stroke="midnightblue" d="M1271.46,-291.455C1293.98,-285.08 1319.09,-274.038 1335,-255 1355.69,-230.247 1380.04,-137.28 1360,-112 1340.24,-87.0672 1247.96,-74.6181 1198.89,-69.668"/>
<polygon fill="midnightblue" stroke="midnightblue" points="1199.12,-66.1741 1188.83,-68.6975 1198.45,-73.1417 1199.12,-66.1741"/>
</g>
<!-- Node19&#45;&gt;Node17 -->
<g id="edge22" class="edge"><title>Node19&#45;&gt;Node17</title>
<path fill="none" stroke="midnightblue" d="M1287.57,-296.275C1352.24,-288.671 1447.76,-265.995 1493,-199 1517.47,-162.757 1487.39,-110.706 1468.35,-84.0908"/>
<polygon fill="midnightblue" stroke="midnightblue" points="1470.96,-81.738 1462.18,-75.8052 1465.34,-85.9171 1470.96,-81.738"/>
</g>
<!-- Node20 -->
<g id="node20" class="node"><title>Node20</title>
<polygon fill="none" stroke="#bfbfbf" points="1198.5,-235.5 1198.5,-254.5 1245.5,-254.5 1245.5,-235.5 1198.5,-235.5"/>
<text text-anchor="middle" x="1222" y="-242.5" font-family="Helvetica,sans-Serif" font-size="10.00">iterator</text>
</g>
<!-- Node19&#45;&gt;Node20 -->
<g id="edge21" class="edge"><title>Node19&#45;&gt;Node20</title>
<path fill="none" stroke="midnightblue" d="M1222,-291.083C1222,-284.006 1222,-273.861 1222,-264.986"/>
<polygon fill="midnightblue" stroke="midnightblue" points="1225.5,-264.751 1222,-254.751 1218.5,-264.751 1225.5,-264.751"/>
</g>
<!-- Node21 -->
<g id="node21" class="node"><title>Node21</title>
<polygon fill="none" stroke="#bfbfbf" points="1014,-112.5 1014,-131.5 1066,-131.5 1066,-112.5 1014,-112.5"/>
<text text-anchor="middle" x="1040" y="-119.5" font-family="Helvetica,sans-Serif" font-size="10.00">sstream</text>
</g>
<!-- Node19&#45;&gt;Node21 -->
<g id="edge23" class="edge"><title>Node19&#45;&gt;Node21</title>
<path fill="none" stroke="midnightblue" d="M1215.48,-291.484C1195.63,-265.67 1135.83,-188.787 1112,-168 1097.97,-155.759 1080.25,-144.641 1065.9,-136.518"/>
<polygon fill="midnightblue" stroke="midnightblue" points="1067.48,-133.392 1057.04,-131.632 1064.1,-139.523 1067.48,-133.392"/>
</g>
<!-- Node22 -->
<g id="node22" class="node"><title>Node22</title>
<polygon fill="none" stroke="#bfbfbf" points="1264,-235.5 1264,-254.5 1326,-254.5 1326,-235.5 1264,-235.5"/>
<text text-anchor="middle" x="1295" y="-242.5" font-family="Helvetica,sans-Serif" font-size="10.00">type_traits</text>
</g>
<!-- Node19&#45;&gt;Node22 -->
<g id="edge25" class="edge"><title>Node19&#45;&gt;Node22</title>
<path fill="none" stroke="midnightblue" d="M1233.73,-291.324C1244.84,-283.107 1261.74,-270.602 1274.98,-260.807"/>
<polygon fill="midnightblue" stroke="midnightblue" points="1277.1,-263.595 1283.06,-254.834 1272.94,-257.967 1277.1,-263.595"/>
</g>
<!-- Node23 -->
<g id="node23" class="node"><title>Node23</title>
<g id="a_node23"><a xlink:href="settings_8hpp.html" target="_top" xlink:title="settings.hpp">
<polygon fill="none" stroke="black" points="1018,-235.5 1018,-254.5 1088,-254.5 1088,-235.5 1018,-235.5"/>
<text text-anchor="middle" x="1053" y="-242.5" font-family="Helvetica,sans-Serif" font-size="10.00">settings.hpp</text>
</a>
</g>
</g>
<!-- Node19&#45;&gt;Node23 -->
<g id="edge26" class="edge"><title>Node19&#45;&gt;Node23</title>
<path fill="none" stroke="midnightblue" d="M1195.22,-291.444C1166.67,-282.32 1121.27,-267.813 1089.46,-257.651"/>
<polygon fill="midnightblue" stroke="midnightblue" points="1090.24,-254.226 1079.65,-254.516 1088.11,-260.894 1090.24,-254.226"/>
</g>
<!-- Node23&#45;&gt;Node12 -->
<g id="edge31" class="edge"><title>Node23&#45;&gt;Node12</title>
<path fill="none" stroke="midnightblue" d="M1017.77,-238.968C928.644,-225.54 697.56,-186.164 645,-132 633.113,-119.75 628.598,-100.488 626.916,-86.1074"/>
<polygon fill="midnightblue" stroke="midnightblue" points="630.381,-85.5346 626.088,-75.8485 623.404,-86.0976 630.381,-85.5346"/>
</g>
<!-- Node23&#45;&gt;Node16 -->
<g id="edge27" class="edge"><title>Node23&#45;&gt;Node16</title>
<path fill="none" stroke="midnightblue" d="M1068.35,-235.412C1081.44,-227.431 1099.99,-214.466 1112,-199 1126.48,-180.356 1150.24,-116.898 1161.58,-85.252"/>
<polygon fill="midnightblue" stroke="midnightblue" points="1164.99,-86.1054 1165.04,-75.5107 1158.4,-83.7628 1164.99,-86.1054"/>
</g>
<!-- Node23&#45;&gt;Node18 -->
<g id="edge29" class="edge"><title>Node23&#45;&gt;Node18</title>
<path fill="none" stroke="midnightblue" d="M1071,-235.492C1115.14,-214.627 1228.99,-160.819 1281.6,-135.953"/>
<polygon fill="midnightblue" stroke="midnightblue" points="1283.13,-139.099 1290.68,-131.661 1280.14,-132.77 1283.13,-139.099"/>
</g>
<!-- Node24 -->
<g id="node24" class="node"><title>Node24</title>
<polygon fill="none" stroke="#bfbfbf" points="715,-56.5 715,-75.5 761,-75.5 761,-56.5 715,-56.5"/>
<text text-anchor="middle" x="738" y="-63.5" font-family="Helvetica,sans-Serif" font-size="10.00">cstdint</text>
</g>
<!-- Node23&#45;&gt;Node24 -->
<g id="edge28" class="edge"><title>Node23&#45;&gt;Node24</title>
<path fill="none" stroke="midnightblue" d="M1033.7,-235.48C1019.57,-228.081 1001.44,-215.887 993,-199 986.838,-186.677 985.466,-179.536 993,-168 1014.76,-134.676 1053.24,-165.324 1075,-132 1079.86,-124.558 1080.85,-118.688 1075,-112 1055.14,-89.3125 852.3,-74.1741 771.221,-68.9871"/>
<polygon fill="midnightblue" stroke="midnightblue" points="771.265,-65.483 761.065,-68.3489 770.825,-72.4692 771.265,-65.483"/>
</g>
<!-- Node25 -->
<g id="node25" class="node"><title>Node25</title>
<polygon fill="none" stroke="#bfbfbf" points="1002.5,-168.5 1002.5,-198.5 1103.5,-198.5 1103.5,-168.5 1002.5,-168.5"/>
<text text-anchor="start" x="1010.5" y="-186.5" font-family="Helvetica,sans-Serif" font-size="10.00">boost/property_tree</text>
<text text-anchor="middle" x="1053" y="-175.5" font-family="Helvetica,sans-Serif" font-size="10.00">/ptree.hpp</text>
</g>
<!-- Node23&#45;&gt;Node25 -->
<g id="edge30" class="edge"><title>Node23&#45;&gt;Node25</title>
<path fill="none" stroke="midnightblue" d="M1053,-235.475C1053,-228.471 1053,-218.192 1053,-208.696"/>
<polygon fill="midnightblue" stroke="midnightblue" points="1056.5,-208.523 1053,-198.523 1049.5,-208.523 1056.5,-208.523"/>
</g>
<!-- Node26 -->
<g id="node26" class="node"><title>Node26</title>
<g id="a_node26"><a xlink:href="string_8hpp.html" target="_top" xlink:title="string/string.hpp">
<polygon fill="none" stroke="black" points="860,-174 860,-193 946,-193 946,-174 860,-174"/>
<text text-anchor="middle" x="903" y="-181" font-family="Helvetica,sans-Serif" font-size="10.00">string/string.hpp</text>
</a>
</g>
</g>
<!-- Node23&#45;&gt;Node26 -->
<g id="edge32" class="edge"><title>Node23&#45;&gt;Node26</title>
<path fill="none" stroke="midnightblue" d="M1031.51,-235.475C1005.89,-225.313 962.89,-208.256 933.755,-196.7"/>
<polygon fill="midnightblue" stroke="midnightblue" points="935.037,-193.443 924.451,-193.009 932.456,-199.95 935.037,-193.443"/>
</g>
<!-- Node26&#45;&gt;Node4 -->
<g id="edge34" class="edge"><title>Node26&#45;&gt;Node4</title>
<path fill="none" stroke="midnightblue" d="M859.77,-181.536C753.903,-178.69 473.187,-168.208 229.819,-131.875"/>
<polygon fill="midnightblue" stroke="midnightblue" points="230.131,-128.382 219.721,-130.349 229.086,-135.304 230.131,-128.382"/>
</g>
<!-- Node26&#45;&gt;Node16 -->
<g id="edge37" class="edge"><title>Node26&#45;&gt;Node16</title>
<path fill="none" stroke="midnightblue" d="M913.006,-173.846C930.512,-159.122 968.334,-129.13 1005,-112 1048.8,-91.5362 1103.7,-78.779 1137.29,-72.2815"/>
<polygon fill="midnightblue" stroke="midnightblue" points="1138.22,-75.6681 1147.41,-70.39 1136.94,-68.7874 1138.22,-75.6681"/>
</g>
<!-- Node26&#45;&gt;Node18 -->
<g id="edge39" class="edge"><title>Node26&#45;&gt;Node18</title>
<path fill="none" stroke="midnightblue" d="M946.454,-175.272C961.215,-172.877 977.814,-170.251 993,-168 1107.78,-150.989 1139.44,-150.581 1257.15,-132.24"/>
<polygon fill="midnightblue" stroke="midnightblue" points="1257.94,-135.657 1267.28,-130.65 1256.86,-128.742 1257.94,-135.657"/>
</g>
<!-- Node26&#45;&gt;Node21 -->
<g id="edge38" class="edge"><title>Node26&#45;&gt;Node21</title>
<path fill="none" stroke="midnightblue" d="M922.629,-173.975C945.824,-163.901 984.619,-147.053 1011.21,-135.502"/>
<polygon fill="midnightblue" stroke="midnightblue" points="1012.63,-138.703 1020.41,-131.509 1009.84,-132.282 1012.63,-138.703"/>
</g>
<!-- Node26&#45;&gt;Node24 -->
<g id="edge33" class="edge"><title>Node26&#45;&gt;Node24</title>
<path fill="none" stroke="midnightblue" d="M859.921,-178.19C827.398,-172.707 783.915,-160.257 757,-132 745.227,-119.64 740.697,-100.393 738.98,-86.0457"/>
<polygon fill="midnightblue" stroke="midnightblue" points="742.446,-85.4881 738.123,-75.8155 735.47,-86.073 742.446,-85.4881"/>
</g>
<!-- Node27 -->
<g id="node27" class="node"><title>Node27</title>
<polygon fill="none" stroke="#bfbfbf" points="766,-112.5 766,-131.5 818,-131.5 818,-112.5 766,-112.5"/>
<text text-anchor="middle" x="792" y="-119.5" font-family="Helvetica,sans-Serif" font-size="10.00">memory</text>
</g>
<!-- Node26&#45;&gt;Node27 -->
<g id="edge35" class="edge"><title>Node26&#45;&gt;Node27</title>
<path fill="none" stroke="midnightblue" d="M887.096,-173.975C868.715,-164.122 838.244,-147.788 816.755,-136.27"/>
<polygon fill="midnightblue" stroke="midnightblue" points="818.341,-133.149 807.874,-131.509 815.034,-139.318 818.341,-133.149"/>
</g>
<!-- Node28 -->
<g id="node28" class="node"><title>Node28</title>
<polygon fill="none" stroke="#bfbfbf" points="836.5,-112.5 836.5,-131.5 895.5,-131.5 895.5,-112.5 836.5,-112.5"/>
<text text-anchor="middle" x="866" y="-119.5" font-family="Helvetica,sans-Serif" font-size="10.00">stdexcept</text>
</g>
<!-- Node26&#45;&gt;Node28 -->
<g id="edge36" class="edge"><title>Node26&#45;&gt;Node28</title>
<path fill="none" stroke="midnightblue" d="M897.699,-173.975C892.259,-165.227 883.641,-151.369 876.764,-140.309"/>
<polygon fill="midnightblue" stroke="midnightblue" points="879.544,-138.153 871.291,-131.509 873.6,-141.849 879.544,-138.153"/>
</g>
<!-- Node29 -->
<g id="node29" class="node"><title>Node29</title>
<polygon fill="none" stroke="#bfbfbf" points="914,-112.5 914,-131.5 958,-131.5 958,-112.5 914,-112.5"/>
<text text-anchor="middle" x="936" y="-119.5" font-family="Helvetica,sans-Serif" font-size="10.00">vector</text>
</g>
<!-- Node26&#45;&gt;Node29 -->
<g id="edge40" class="edge"><title>Node26&#45;&gt;Node29</title>
<path fill="none" stroke="midnightblue" d="M907.728,-173.975C912.58,-165.227 920.266,-151.369 926.4,-140.309"/>
<polygon fill="midnightblue" stroke="midnightblue" points="929.491,-141.952 931.281,-131.509 923.37,-138.557 929.491,-141.952"/>
</g>
<!-- Node30 -->
<g id="node30" class="node"><title>Node30</title>
<g id="a_node30"><a xlink:href="color_8hpp.html" target="_top" xlink:title="color.hpp">
<polygon fill="none" stroke="black" points="654,-112.5 654,-131.5 710,-131.5 710,-112.5 654,-112.5"/>
<text text-anchor="middle" x="682" y="-119.5" font-family="Helvetica,sans-Serif" font-size="10.00">color.hpp</text>
</a>
</g>
</g>
<!-- Node26&#45;&gt;Node30 -->
<g id="edge41" class="edge"><title>Node26&#45;&gt;Node30</title>
<path fill="none" stroke="midnightblue" d="M871.336,-173.975C831.337,-163.206 762.581,-144.695 719.852,-133.191"/>
<polygon fill="midnightblue" stroke="midnightblue" points="720.672,-129.787 710.105,-130.567 718.852,-136.546 720.672,-129.787"/>
</g>
<!-- Node31 -->
<g id="node31" class="node"><title>Node31</title>
<g id="a_node31"><a xlink:href="quickstream_8hpp.html" target="_top" xlink:title="quickstream.hpp">
<polygon fill="none" stroke="black" points="1160.5,-112.5 1160.5,-131.5 1249.5,-131.5 1249.5,-112.5 1160.5,-112.5"/>
<text text-anchor="middle" x="1205" y="-119.5" font-family="Helvetica,sans-Serif" font-size="10.00">quickstream.hpp</text>
</a>
</g>
</g>
<!-- Node26&#45;&gt;Node31 -->
<g id="edge46" class="edge"><title>Node26&#45;&gt;Node31</title>
<path fill="none" stroke="midnightblue" d="M946.269,-173.975C1000.43,-163.305 1093.17,-145.034 1151.66,-133.509"/>
<polygon fill="midnightblue" stroke="midnightblue" points="1152.68,-136.876 1161.81,-131.509 1151.32,-130.008 1152.68,-136.876"/>
</g>
<!-- Node30&#45;&gt;Node12 -->
<g id="edge45" class="edge"><title>Node30&#45;&gt;Node12</title>
<path fill="none" stroke="midnightblue" d="M673.003,-112.324C664.806,-104.42 652.494,-92.5482 642.528,-82.9377"/>
<polygon fill="midnightblue" stroke="midnightblue" points="644.789,-80.2558 635.161,-75.8339 639.93,-85.2947 644.789,-80.2558"/>
</g>
<!-- Node30&#45;&gt;Node13 -->
<g id="edge44" class="edge"><title>Node30&#45;&gt;Node13</title>
<path fill="none" stroke="midnightblue" d="M653.705,-112.916C621.231,-103.637 567.795,-88.3699 531.538,-78.0109"/>
<polygon fill="midnightblue" stroke="midnightblue" points="532.376,-74.6102 521.799,-75.2283 530.453,-81.3409 532.376,-74.6102"/>
</g>
<!-- Node30&#45;&gt;Node16 -->
<g id="edge43" class="edge"><title>Node30&#45;&gt;Node16</title>
<path fill="none" stroke="midnightblue" d="M710.128,-117.555C724.2,-115.849 741.496,-113.779 757,-112 899.152,-95.6893 1069.12,-77.4957 1137.4,-70.2407"/>
<polygon fill="midnightblue" stroke="midnightblue" points="1137.89,-73.7084 1147.46,-69.1723 1137.15,-66.7475 1137.89,-73.7084"/>
</g>
<!-- Node30&#45;&gt;Node24 -->
<g id="edge42" class="edge"><title>Node30&#45;&gt;Node24</title>
<path fill="none" stroke="midnightblue" d="M690.997,-112.324C699.194,-104.42 711.506,-92.5482 721.472,-82.9377"/>
<polygon fill="midnightblue" stroke="midnightblue" points="724.07,-85.2947 728.839,-75.8339 719.211,-80.2558 724.07,-85.2947"/>
</g>
<!-- Node31&#45;&gt;Node16 -->
<g id="edge47" class="edge"><title>Node31&#45;&gt;Node16</title>
<path fill="none" stroke="midnightblue" d="M1198.89,-112.083C1193.72,-104.534 1186.15,-93.4948 1179.81,-84.2298"/>
<polygon fill="midnightblue" stroke="midnightblue" points="1182.54,-82.0221 1174,-75.7511 1176.76,-85.9787 1182.54,-82.0221"/>
</g>
<!-- Node31&#45;&gt;Node17 -->
<g id="edge48" class="edge"><title>Node31&#45;&gt;Node17</title>
<path fill="none" stroke="midnightblue" d="M1244.61,-112.444C1294.56,-101.656 1379.34,-83.3435 1424.52,-73.5837"/>
<polygon fill="midnightblue" stroke="midnightblue" points="1425.29,-76.9987 1434.32,-71.4662 1423.81,-70.1565 1425.29,-76.9987"/>
</g>
</g>
</svg>
