<?xml version="1.0" encoding="UTF-8" standalone="no"?>
<!DOCTYPE svg PUBLIC "-//W3C//DTD SVG 1.1//EN"
 "http://www.w3.org/Graphics/SVG/1.1/DTD/svg11.dtd">
<!-- Generated by graphviz version 2.38.0 (20140413.2041)
 -->
<!-- Title: src/string/trie.hpp Pages: 1 -->
<svg width="360pt" height="84pt"
 viewBox="0.00 0.00 360.00 84.00" xmlns="http://www.w3.org/2000/svg" xmlns:xlink="http://www.w3.org/1999/xlink">
<g id="graph0" class="graph" transform="scale(1 1) rotate(0) translate(4 80)">
<title>src/string/trie.hpp</title>
<!-- Node1 -->
<g id="node1" class="node"><title>Node1</title>
<polygon fill="#bfbfbf" stroke="black" points="104,-56.5 104,-75.5 196,-75.5 196,-56.5 104,-56.5"/>
<text text-anchor="middle" x="150" y="-63.5" font-family="Helvetica,sans-Serif" font-size="10.00">src/string/trie.hpp</text>
</g>
<!-- Node2 -->
<g id="node2" class="node"><title>Node2</title>
<polygon fill="none" stroke="#bfbfbf" points="0,-0.5 0,-19.5 56,-19.5 56,-0.5 0,-0.5"/>
<text text-anchor="middle" x="28" y="-7.5" font-family="Helvetica,sans-Serif" font-size="10.00">algorithm</text>
</g>
<!-- Node1&#45;&gt;Node2 -->
<g id="edge1" class="edge"><title>Node1&#45;&gt;Node2</title>
<path fill="none" stroke="midnightblue" d="M130.669,-56.4435C110.68,-47.5961 79.2569,-33.6875 56.4361,-23.5865"/>
<polygon fill="midnightblue" stroke="midnightblue" points="57.8018,-20.3635 47.2408,-19.5164 54.9685,-26.7645 57.8018,-20.3635"/>
</g>
<!-- Node3 -->
<g id="node3" class="node"><title>Node3</title>
<polygon fill="none" stroke="#bfbfbf" points="74,-0.5 74,-19.5 136,-19.5 136,-0.5 74,-0.5"/>
<text text-anchor="middle" x="105" y="-7.5" font-family="Helvetica,sans-Serif" font-size="10.00">type_traits</text>
</g>
<!-- Node1&#45;&gt;Node3 -->
<g id="edge2" class="edge"><title>Node1&#45;&gt;Node3</title>
<path fill="none" stroke="midnightblue" d="M142.569,-56.083C136.147,-48.3768 126.694,-37.0333 118.878,-27.6531"/>
<polygon fill="midnightblue" stroke="midnightblue" points="121.383,-25.1927 112.293,-19.7511 116.006,-29.674 121.383,-25.1927"/>
</g>
<!-- Node4 -->
<g id="node4" class="node"><title>Node4</title>
<polygon fill="none" stroke="#bfbfbf" points="154.5,-0.5 154.5,-19.5 237.5,-19.5 237.5,-0.5 154.5,-0.5"/>
<text text-anchor="middle" x="196" y="-7.5" font-family="Helvetica,sans-Serif" font-size="10.00">unordered_map</text>
</g>
<!-- Node1&#45;&gt;Node4 -->
<g id="edge3" class="edge"><title>Node1&#45;&gt;Node4</title>
<path fill="none" stroke="midnightblue" d="M157.596,-56.083C164.227,-48.2982 174.021,-36.8015 182.058,-27.3665"/>
<polygon fill="midnightblue" stroke="midnightblue" points="184.725,-29.6332 188.545,-19.7511 179.396,-25.0939 184.725,-29.6332"/>
</g>
<!-- Node5 -->
<g id="node5" class="node"><title>Node5</title>
<polygon fill="none" stroke="#bfbfbf" points="256,-0.5 256,-19.5 352,-19.5 352,-0.5 256,-0.5"/>
<text text-anchor="middle" x="304" y="-7.5" font-family="Helvetica,sans-Serif" font-size="10.00">boost/optional.hpp</text>
</g>
<!-- Node1&#45;&gt;Node5 -->
<g id="edge4" class="edge"><title>Node1&#45;&gt;Node5</title>
<path fill="none" stroke="midnightblue" d="M174.402,-56.4435C200.197,-47.3986 241.077,-33.064 270.018,-22.9158"/>
<polygon fill="midnightblue" stroke="midnightblue" points="271.434,-26.1283 279.712,-19.5164 269.118,-19.5226 271.434,-26.1283"/>
</g>
</g>
</svg>
