<?xml version="1.0" encoding="UTF-8" standalone="no"?>
<!DOCTYPE svg PUBLIC "-//W3C//DTD SVG 1.1//EN"
 "http://www.w3.org/Graphics/SVG/1.1/DTD/svg11.dtd">
<!-- Generated by graphviz version 2.38.0 (20140413.2041)
 -->
<!-- Title: src/network/udp_io.hpp Pages: 1 -->
<svg width="290pt" height="162pt"
 viewBox="0.00 0.00 289.50 162.00" xmlns="http://www.w3.org/2000/svg" xmlns:xlink="http://www.w3.org/1999/xlink">
<g id="graph0" class="graph" transform="scale(1 1) rotate(0) translate(4 158)">
<title>src/network/udp_io.hpp</title>
<!-- Node1 -->
<g id="node1" class="node"><title>Node1</title>
<polygon fill="#bfbfbf" stroke="black" points="77,-134.5 77,-153.5 195,-153.5 195,-134.5 77,-134.5"/>
<text text-anchor="middle" x="136" y="-141.5" font-family="Helvetica,sans-Serif" font-size="10.00">src/network/udp_io.hpp</text>
</g>
<!-- Node2 -->
<g id="node2" class="node"><title>Node2</title>
<g id="a_node2"><a xlink:href="xonotic-connection_8hpp.html" target="_top" xlink:title="modules/xonotic/xonotic\l&#45;connection.hpp">
<polygon fill="none" stroke="black" points="75,-67.5 75,-97.5 197,-97.5 197,-67.5 75,-67.5"/>
<text text-anchor="start" x="83" y="-85.5" font-family="Helvetica,sans-Serif" font-size="10.00">modules/xonotic/xonotic</text>
<text text-anchor="middle" x="136" y="-74.5" font-family="Helvetica,sans-Serif" font-size="10.00">&#45;connection.hpp</text>
</a>
</g>
</g>
<!-- Node1&#45;&gt;Node2 -->
<g id="edge1" class="edge"><title>Node1&#45;&gt;Node2</title>
<path fill="none" stroke="midnightblue" d="M136,-124.235C136,-115.586 136,-105.497 136,-97.523"/>
<polygon fill="midnightblue" stroke="midnightblue" points="132.5,-124.475 136,-134.475 139.5,-124.475 132.5,-124.475"/>
</g>
<!-- Node3 -->
<g id="node3" class="node"><title>Node3</title>
<g id="a_node3"><a xlink:href="xonotic-connection_8cpp.html" target="_top" xlink:title="modules/xonotic/xonotic\l&#45;connection.cpp">
<polygon fill="none" stroke="black" points="0,-0.5 0,-30.5 122,-30.5 122,-0.5 0,-0.5"/>
<text text-anchor="start" x="8" y="-18.5" font-family="Helvetica,sans-Serif" font-size="10.00">modules/xonotic/xonotic</text>
<text text-anchor="middle" x="61" y="-7.5" font-family="Helvetica,sans-Serif" font-size="10.00">&#45;connection.cpp</text>
</a>
</g>
</g>
<!-- Node2&#45;&gt;Node3 -->
<g id="edge2" class="edge"><title>Node2&#45;&gt;Node3</title>
<path fill="none" stroke="midnightblue" d="M111.882,-60.5978C100.557,-50.7831 87.3587,-39.3442 77.2421,-30.5765"/>
<polygon fill="midnightblue" stroke="midnightblue" points="109.877,-63.4915 119.726,-67.396 114.461,-58.2017 109.877,-63.4915"/>
</g>
<!-- Node4 -->
<g id="node4" class="node"><title>Node4</title>
<g id="a_node4"><a xlink:href="xonotic_8cpp.html" target="_top" xlink:title="modules/xonotic/xonotic.cpp">
<polygon fill="none" stroke="black" points="140.5,-6 140.5,-25 281.5,-25 281.5,-6 140.5,-6"/>
<text text-anchor="middle" x="211" y="-13" font-family="Helvetica,sans-Serif" font-size="10.00">modules/xonotic/xonotic.cpp</text>
</a>
</g>
</g>
<!-- Node2&#45;&gt;Node4 -->
<g id="edge3" class="edge"><title>Node2&#45;&gt;Node4</title>
<path fill="none" stroke="midnightblue" d="M160.032,-60.6722C173.88,-48.6707 190.554,-34.2203 200.968,-25.1945"/>
<polygon fill="midnightblue" stroke="midnightblue" points="157.539,-58.2017 152.274,-67.396 162.123,-63.4915 157.539,-58.2017"/>
</g>
</g>
</svg>
