<?xml version="1.0" encoding="UTF-8" standalone="no"?>
<!DOCTYPE svg PUBLIC "-//W3C//DTD SVG 1.1//EN"
 "http://www.w3.org/Graphics/SVG/1.1/DTD/svg11.dtd">
<!-- Generated by graphviz version 2.38.0 (20140413.2041)
 -->
<!-- Title: src/network/udp_io.hpp Pages: 1 -->
<!--zoomable 319 -->
<svg id="main" version="1.1" xmlns="http://www.w3.org/2000/svg" xmlns:xlink="http://www.w3.org/1999/xlink" xml:space="preserve" onload="init(evt)">
<style type="text/css"><![CDATA[
.edge:hover path { stroke: red; }
.edge:hover polygon { stroke: red; fill: red; }
]]></style>
<script type="text/javascript"><![CDATA[
var edges = document.getElementsByTagName('g');
if (edges && edges.length) {
  for (var i=0;i<edges.length;i++) {
    if (edges[i].id.substr(0,4)=='edge') {
      edges[i].setAttribute('class','edge');
    }
  }
}
]]></script>
        <defs>
                <circle id="rim" cx="0" cy="0" r="7"/>
                <circle id="rim2" cx="0" cy="0" r="3.5"/>
                <g id="zoomPlus">
                        <use xlink:href="#rim" fill="#404040">
                                <set attributeName="fill" to="#808080" begin="zoomplus.mouseover" end="zoomplus.mouseout"/>
                        </use>
                        <path d="M-4,0h8M0,-4v8" fill="none" stroke="white" stroke-width="1.5" pointer-events="none"/>
                </g>
                <g id="zoomMin">
                        <use xlink:href="#rim" fill="#404040">
                                <set attributeName="fill" to="#808080" begin="zoomminus.mouseover" end="zoomminus.mouseout"/>
                        </use>
                        <path d="M-4,0h8" fill="none" stroke="white" stroke-width="1.5" pointer-events="none"/>
                </g>
                <g id="dirArrow">
                        <path fill="none" stroke="white" stroke-width="1.5" d="M0,-3.0v7 M-2.5,-0.5L0,-3.0L2.5,-0.5"/>
                </g>
               <g id="resetDef">
                       <use xlink:href="#rim2" fill="#404040">
                               <set attributeName="fill" to="#808080" begin="reset.mouseover" end="reset.mouseout"/>
                       </use>
               </g>
        </defs>

<script type="text/javascript">
var viewWidth = 1535;
var viewHeight = 319;
var sectionId = 'dynsection-0';
</script>
<script xlink:href="svgpan.js"/>
<svg id="graph" class="graph">
<g id="viewport">
<title>src/network/udp_io.hpp</title>
<!-- Node1 -->
<g id="node1" class="node"><title>Node1</title>
<polygon fill="#bfbfbf" stroke="black" points="346,-291.5 346,-310.5 464,-310.5 464,-291.5 346,-291.5"/>
<text text-anchor="middle" x="405" y="-298.5" font-family="Helvetica,sans-Serif" font-size="10.00">src/network/udp_io.hpp</text>
</g>
<!-- Node2 -->
<g id="node2" class="node"><title>Node2</title>
<polygon fill="none" stroke="#bfbfbf" points="129,-235.5 129,-254.5 209,-254.5 209,-235.5 129,-235.5"/>
<text text-anchor="middle" x="169" y="-242.5" font-family="Helvetica,sans-Serif" font-size="10.00">boost/asio.hpp</text>
</g>
<!-- Node1&#45;&gt;Node2 -->
<g id="edge1" class="edge"><title>Node1&#45;&gt;Node2</title>
<path fill="none" stroke="midnightblue" d="M367.605,-291.444C326.608,-282.063 260.746,-266.993 216.216,-256.804"/>
<polygon fill="midnightblue" stroke="midnightblue" points="216.749,-253.335 206.22,-254.516 215.187,-260.159 216.749,-253.335"/>
</g>
<!-- Node3 -->
<g id="node3" class="node"><title>Node3</title>
<g id="a_node3"><a xlink:href="network_8hpp.html" target="_top" xlink:title="network.hpp">
<polygon fill="none" stroke="black" points="473,-235.5 473,-254.5 543,-254.5 543,-235.5 473,-235.5"/>
<text text-anchor="middle" x="508" y="-242.5" font-family="Helvetica,sans-Serif" font-size="10.00">network.hpp</text>
</a>
</g>
</g>
<!-- Node1&#45;&gt;Node3 -->
<g id="edge2" class="edge"><title>Node1&#45;&gt;Node3</title>
<path fill="none" stroke="midnightblue" d="M421.549,-291.324C437.992,-282.703 463.435,-269.364 482.468,-259.386"/>
<polygon fill="midnightblue" stroke="midnightblue" points="484.261,-262.398 491.492,-254.655 481.011,-256.198 484.261,-262.398"/>
</g>
<!-- Node19 -->
<g id="node19" class="node"><title>Node19</title>
<g id="a_node19"><a xlink:href="functional_8hpp.html" target="_top" xlink:title="functional.hpp">
<polygon fill="none" stroke="black" points="6.5,-123.5 6.5,-142.5 83.5,-142.5 83.5,-123.5 6.5,-123.5"/>
<text text-anchor="middle" x="45" y="-130.5" font-family="Helvetica,sans-Serif" font-size="10.00">functional.hpp</text>
</a>
</g>
</g>
<!-- Node1&#45;&gt;Node19 -->
<g id="edge58" class="edge"><title>Node1&#45;&gt;Node19</title>
<path fill="none" stroke="midnightblue" d="M386.403,-291.425C327.273,-264.159 143.346,-179.348 72.8688,-146.851"/>
<polygon fill="midnightblue" stroke="midnightblue" points="74.2486,-143.633 63.7019,-142.624 71.3174,-149.989 74.2486,-143.633"/>
</g>
<!-- Node27 -->
<g id="node27" class="node"><title>Node27</title>
<g id="a_node27"><a xlink:href="logger_8hpp.html" target="_top" xlink:title="string/logger.hpp">
<polygon fill="none" stroke="black" points="1090.5,-235.5 1090.5,-254.5 1179.5,-254.5 1179.5,-235.5 1090.5,-235.5"/>
<text text-anchor="middle" x="1135" y="-242.5" font-family="Helvetica,sans-Serif" font-size="10.00">string/logger.hpp</text>
</a>
</g>
</g>
<!-- Node1&#45;&gt;Node27 -->
<g id="edge31" class="edge"><title>Node1&#45;&gt;Node27</title>
<path fill="none" stroke="midnightblue" d="M464.121,-295.627C602.565,-285.386 946.184,-259.967 1080.22,-250.052"/>
<polygon fill="midnightblue" stroke="midnightblue" points="1080.55,-253.538 1090.26,-249.309 1080.03,-246.557 1080.55,-253.538"/>
</g>
<!-- Node4 -->
<g id="node4" class="node"><title>Node4</title>
<polygon fill="none" stroke="#bfbfbf" points="670,-123.5 670,-142.5 722,-142.5 722,-123.5 670,-123.5"/>
<text text-anchor="middle" x="696" y="-130.5" font-family="Helvetica,sans-Serif" font-size="10.00">sstream</text>
</g>
<!-- Node3&#45;&gt;Node4 -->
<g id="edge3" class="edge"><title>Node3&#45;&gt;Node4</title>
<path fill="none" stroke="midnightblue" d="M543.009,-242.497C578.193,-239.234 632.077,-229.229 667,-199 680.848,-187.013 688.382,-167.118 692.271,-152.489"/>
<polygon fill="midnightblue" stroke="midnightblue" points="695.727,-153.08 694.579,-142.548 688.908,-151.497 695.727,-153.08"/>
</g>
<!-- Node5 -->
<g id="node5" class="node"><title>Node5</title>
<g id="a_node5"><a xlink:href="string__functions_8hpp.html" target="_top" xlink:title="string/string_functions.hpp">
<polygon fill="none" stroke="black" points="526.5,-179.5 526.5,-198.5 657.5,-198.5 657.5,-179.5 526.5,-179.5"/>
<text text-anchor="middle" x="592" y="-186.5" font-family="Helvetica,sans-Serif" font-size="10.00">string/string_functions.hpp</text>
</a>
</g>
</g>
<!-- Node3&#45;&gt;Node5 -->
<g id="edge4" class="edge"><title>Node3&#45;&gt;Node5</title>
<path fill="none" stroke="midnightblue" d="M521.496,-235.324C534.6,-226.9 554.712,-213.971 570.107,-204.074"/>
<polygon fill="midnightblue" stroke="midnightblue" points="572.018,-207.006 578.537,-198.655 568.233,-201.118 572.018,-207.006"/>
</g>
<!-- Node16 -->
<g id="node16" class="node"><title>Node16</title>
<g id="a_node16"><a xlink:href="time_8hpp.html" target="_top" xlink:title="time/time.hpp">
<polygon fill="none" stroke="black" points="265,-179.5 265,-198.5 341,-198.5 341,-179.5 265,-179.5"/>
<text text-anchor="middle" x="303" y="-186.5" font-family="Helvetica,sans-Serif" font-size="10.00">time/time.hpp</text>
</a>
</g>
</g>
<!-- Node3&#45;&gt;Node16 -->
<g id="edge17" class="edge"><title>Node3&#45;&gt;Node16</title>
<path fill="none" stroke="midnightblue" d="M475.517,-235.444C440.28,-226.162 383.896,-211.309 345.241,-201.127"/>
<polygon fill="midnightblue" stroke="midnightblue" points="345.893,-197.679 335.331,-198.516 344.109,-204.448 345.893,-197.679"/>
</g>
<!-- Node5&#45;&gt;Node4 -->
<g id="edge8" class="edge"><title>Node5&#45;&gt;Node4</title>
<path fill="none" stroke="midnightblue" d="M608.709,-179.324C625.312,-170.703 651.002,-157.364 670.22,-147.386"/>
<polygon fill="midnightblue" stroke="midnightblue" points="672.07,-150.369 679.332,-142.655 668.844,-144.156 672.07,-150.369"/>
</g>
<!-- Node6 -->
<g id="node6" class="node"><title>Node6</title>
<polygon fill="none" stroke="#bfbfbf" points="582,-0.5 582,-19.5 638,-19.5 638,-0.5 582,-0.5"/>
<text text-anchor="middle" x="610" y="-7.5" font-family="Helvetica,sans-Serif" font-size="10.00">algorithm</text>
</g>
<!-- Node5&#45;&gt;Node6 -->
<g id="edge5" class="edge"><title>Node5&#45;&gt;Node6</title>
<path fill="none" stroke="midnightblue" d="M592.356,-179.321C593.289,-158.167 596.147,-102.286 602,-56 603.109,-47.2322 604.767,-37.576 606.287,-29.4639"/>
<polygon fill="midnightblue" stroke="midnightblue" points="609.734,-30.0721 608.209,-19.5876 602.863,-28.7349 609.734,-30.0721"/>
</g>
<!-- Node7 -->
<g id="node7" class="node"><title>Node7</title>
<polygon fill="none" stroke="#bfbfbf" points="506.5,-123.5 506.5,-142.5 553.5,-142.5 553.5,-123.5 506.5,-123.5"/>
<text text-anchor="middle" x="530" y="-130.5" font-family="Helvetica,sans-Serif" font-size="10.00">iterator</text>
</g>
<!-- Node5&#45;&gt;Node7 -->
<g id="edge6" class="edge"><title>Node5&#45;&gt;Node7</title>
<path fill="none" stroke="midnightblue" d="M582.039,-179.324C572.873,-171.341 559.063,-159.313 547.972,-149.653"/>
<polygon fill="midnightblue" stroke="midnightblue" points="549.982,-146.762 540.143,-142.834 545.385,-152.041 549.982,-146.762"/>
</g>
<!-- Node8 -->
<g id="node8" class="node"><title>Node8</title>
<polygon fill="none" stroke="#bfbfbf" points="610.5,-123.5 610.5,-142.5 651.5,-142.5 651.5,-123.5 610.5,-123.5"/>
<text text-anchor="middle" x="631" y="-130.5" font-family="Helvetica,sans-Serif" font-size="10.00">regex</text>
</g>
<!-- Node5&#45;&gt;Node8 -->
<g id="edge7" class="edge"><title>Node5&#45;&gt;Node8</title>
<path fill="none" stroke="midnightblue" d="M598.44,-179.083C603.949,-171.455 612.031,-160.264 618.765,-150.941"/>
<polygon fill="midnightblue" stroke="midnightblue" points="621.662,-152.907 624.68,-142.751 615.987,-148.809 621.662,-152.907"/>
</g>
<!-- Node9 -->
<g id="node9" class="node"><title>Node9</title>
<polygon fill="none" stroke="#bfbfbf" points="1012.5,-62 1012.5,-81 1053.5,-81 1053.5,-62 1012.5,-62"/>
<text text-anchor="middle" x="1033" y="-69" font-family="Helvetica,sans-Serif" font-size="10.00">string</text>
</g>
<!-- Node5&#45;&gt;Node9 -->
<g id="edge9" class="edge"><title>Node5&#45;&gt;Node9</title>
<path fill="none" stroke="midnightblue" d="M657.645,-188.304C727.625,-186.59 840.58,-177.902 931,-143 964.238,-130.17 997.132,-104.462 1016.23,-87.8902"/>
<polygon fill="midnightblue" stroke="midnightblue" points="1018.61,-90.4612 1023.77,-81.2048 1013.96,-85.2263 1018.61,-90.4612"/>
</g>
<!-- Node10 -->
<g id="node10" class="node"><title>Node10</title>
<polygon fill="none" stroke="#bfbfbf" points="426,-123.5 426,-142.5 488,-142.5 488,-123.5 426,-123.5"/>
<text text-anchor="middle" x="457" y="-130.5" font-family="Helvetica,sans-Serif" font-size="10.00">type_traits</text>
</g>
<!-- Node5&#45;&gt;Node10 -->
<g id="edge10" class="edge"><title>Node5&#45;&gt;Node10</title>
<path fill="none" stroke="midnightblue" d="M570.609,-179.444C548.293,-170.517 513.097,-156.439 487.792,-146.317"/>
<polygon fill="midnightblue" stroke="midnightblue" points="488.876,-142.981 478.291,-142.516 486.276,-149.48 488.876,-142.981"/>
</g>
<!-- Node11 -->
<g id="node11" class="node"><title>Node11</title>
<g id="a_node11"><a xlink:href="settings_8hpp.html" target="_top" xlink:title="settings.hpp">
<polygon fill="none" stroke="black" points="852,-123.5 852,-142.5 922,-142.5 922,-123.5 852,-123.5"/>
<text text-anchor="middle" x="887" y="-130.5" font-family="Helvetica,sans-Serif" font-size="10.00">settings.hpp</text>
</a>
</g>
</g>
<!-- Node5&#45;&gt;Node11 -->
<g id="edge11" class="edge"><title>Node5&#45;&gt;Node11</title>
<path fill="none" stroke="midnightblue" d="M641.596,-179.475C690.098,-171.056 766.318,-157.608 841.792,-143.196"/>
<polygon fill="midnightblue" stroke="midnightblue" points="842.788,-146.569 851.951,-141.249 841.471,-139.694 842.788,-146.569"/>
</g>
<!-- Node11&#45;&gt;Node9 -->
<g id="edge12" class="edge"><title>Node11&#45;&gt;Node9</title>
<path fill="none" stroke="midnightblue" d="M907.918,-123.475C932.746,-113.357 974.343,-96.4046 1002.69,-84.8507"/>
<polygon fill="midnightblue" stroke="midnightblue" points="1004.18,-88.0243 1012.12,-81.0091 1001.54,-81.5419 1004.18,-88.0243"/>
</g>
<!-- Node12 -->
<g id="node12" class="node"><title>Node12</title>
<polygon fill="none" stroke="#bfbfbf" points="927,-62 927,-81 973,-81 973,-62 927,-62"/>
<text text-anchor="middle" x="950" y="-69" font-family="Helvetica,sans-Serif" font-size="10.00">cstdint</text>
</g>
<!-- Node11&#45;&gt;Node12 -->
<g id="edge13" class="edge"><title>Node11&#45;&gt;Node12</title>
<path fill="none" stroke="midnightblue" d="M896.026,-123.475C905.757,-114.285 921.458,-99.4563 933.423,-88.156"/>
<polygon fill="midnightblue" stroke="midnightblue" points="936.123,-90.4199 940.99,-81.0091 931.317,-85.3308 936.123,-90.4199"/>
</g>
<!-- Node13 -->
<g id="node13" class="node"><title>Node13</title>
<polygon fill="none" stroke="#bfbfbf" points="1092.5,-62 1092.5,-81 1175.5,-81 1175.5,-62 1092.5,-62"/>
<text text-anchor="middle" x="1134" y="-69" font-family="Helvetica,sans-Serif" font-size="10.00">unordered_map</text>
</g>
<!-- Node11&#45;&gt;Node13 -->
<g id="edge14" class="edge"><title>Node11&#45;&gt;Node13</title>
<path fill="none" stroke="midnightblue" d="M922.127,-123.538C965.896,-112.995 1040.76,-94.9598 1088.78,-83.3937"/>
<polygon fill="midnightblue" stroke="midnightblue" points="1089.69,-86.7735 1098.59,-81.0289 1088.05,-79.9682 1089.69,-86.7735"/>
</g>
<!-- Node14 -->
<g id="node14" class="node"><title>Node14</title>
<polygon fill="none" stroke="#bfbfbf" points="807.5,-56.5 807.5,-86.5 908.5,-86.5 908.5,-56.5 807.5,-56.5"/>
<text text-anchor="start" x="815.5" y="-74.5" font-family="Helvetica,sans-Serif" font-size="10.00">boost/property_tree</text>
<text text-anchor="middle" x="858" y="-63.5" font-family="Helvetica,sans-Serif" font-size="10.00">/ptree.hpp</text>
</g>
<!-- Node11&#45;&gt;Node14 -->
<g id="edge15" class="edge"><title>Node11&#45;&gt;Node14</title>
<path fill="none" stroke="midnightblue" d="M882.845,-123.475C879.321,-116.245 874.096,-105.525 869.346,-95.7792"/>
<polygon fill="midnightblue" stroke="midnightblue" points="872.362,-93.9787 864.835,-86.523 866.07,-97.0456 872.362,-93.9787"/>
</g>
<!-- Node15 -->
<g id="node15" class="node"><title>Node15</title>
<g id="a_node15"><a xlink:href="c_09_09-compat_8hpp.html" target="_top" xlink:title="This file defined some compatibility for features of C++14 and beyond. ">
<polygon fill="none" stroke="black" points="701,-62 701,-81 789,-81 789,-62 701,-62"/>
<text text-anchor="middle" x="745" y="-69" font-family="Helvetica,sans-Serif" font-size="10.00">c++&#45;compat.hpp</text>
</a>
</g>
</g>
<!-- Node11&#45;&gt;Node15 -->
<g id="edge16" class="edge"><title>Node11&#45;&gt;Node15</title>
<path fill="none" stroke="midnightblue" d="M866.655,-123.475C842.613,-113.401 802.403,-96.5525 774.837,-85.0023"/>
<polygon fill="midnightblue" stroke="midnightblue" points="775.883,-81.6457 765.307,-81.0091 773.178,-88.1018 775.883,-81.6457"/>
</g>
<!-- Node16&#45;&gt;Node15 -->
<g id="edge28" class="edge"><title>Node16&#45;&gt;Node15</title>
<path fill="none" stroke="midnightblue" d="M314.59,-179.37C334.429,-165.079 376.666,-136.721 417,-123 527.443,-85.4303 562.1,-107.178 677,-87 683.63,-85.8357 690.598,-84.4906 697.443,-83.0987"/>
<polygon fill="midnightblue" stroke="midnightblue" points="698.251,-86.5055 707.328,-81.0416 696.825,-79.6523 698.251,-86.5055"/>
</g>
<!-- Node17 -->
<g id="node17" class="node"><title>Node17</title>
<polygon fill="none" stroke="#bfbfbf" points="102,-123.5 102,-142.5 148,-142.5 148,-123.5 102,-123.5"/>
<text text-anchor="middle" x="125" y="-130.5" font-family="Helvetica,sans-Serif" font-size="10.00">chrono</text>
</g>
<!-- Node16&#45;&gt;Node17 -->
<g id="edge18" class="edge"><title>Node16&#45;&gt;Node17</title>
<path fill="none" stroke="midnightblue" d="M274.795,-179.444C243.08,-169.822 191.634,-154.215 158.056,-144.028"/>
<polygon fill="midnightblue" stroke="midnightblue" points="158.837,-140.608 148.251,-141.054 156.804,-147.306 158.837,-140.608"/>
</g>
<!-- Node18 -->
<g id="node18" class="node"><title>Node18</title>
<polygon fill="none" stroke="#bfbfbf" points="298.5,-62 298.5,-81 357.5,-81 357.5,-62 298.5,-62"/>
<text text-anchor="middle" x="328" y="-69" font-family="Helvetica,sans-Serif" font-size="10.00">functional</text>
</g>
<!-- Node16&#45;&gt;Node18 -->
<g id="edge19" class="edge"><title>Node16&#45;&gt;Node18</title>
<path fill="none" stroke="midnightblue" d="M302.848,-179.464C302.807,-166.921 303.416,-142.85 308,-123 310.586,-111.799 315.245,-99.8143 319.415,-90.3322"/>
<polygon fill="midnightblue" stroke="midnightblue" points="322.626,-91.7281 323.628,-81.1808 316.267,-88.8009 322.626,-91.7281"/>
</g>
<!-- Node16&#45;&gt;Node19 -->
<g id="edge20" class="edge"><title>Node16&#45;&gt;Node19</title>
<path fill="none" stroke="midnightblue" d="M264.931,-180.032C219.427,-170.508 143.21,-154.556 93.5204,-144.155"/>
<polygon fill="midnightblue" stroke="midnightblue" points="94.152,-140.712 83.647,-142.089 92.7179,-147.563 94.152,-140.712"/>
</g>
<!-- Node21 -->
<g id="node21" class="node"><title>Node21</title>
<g id="a_node21"><a xlink:href="concurrency_8hpp.html" target="_top" xlink:title="concurrency.hpp">
<polygon fill="none" stroke="black" points="166.5,-123.5 166.5,-142.5 255.5,-142.5 255.5,-123.5 166.5,-123.5"/>
<text text-anchor="middle" x="211" y="-130.5" font-family="Helvetica,sans-Serif" font-size="10.00">concurrency.hpp</text>
</a>
</g>
</g>
<!-- Node16&#45;&gt;Node21 -->
<g id="edge23" class="edge"><title>Node16&#45;&gt;Node21</title>
<path fill="none" stroke="midnightblue" d="M288.219,-179.324C273.733,-170.822 251.427,-157.729 234.507,-147.797"/>
<polygon fill="midnightblue" stroke="midnightblue" points="236.141,-144.698 225.745,-142.655 232.597,-150.735 236.141,-144.698"/>
</g>
<!-- Node26 -->
<g id="node26" class="node"><title>Node26</title>
<g id="a_node26"><a xlink:href="math_8hpp.html" target="_top" xlink:title="math.hpp">
<polygon fill="none" stroke="black" points="610.5,-62 610.5,-81 667.5,-81 667.5,-62 610.5,-62"/>
<text text-anchor="middle" x="639" y="-69" font-family="Helvetica,sans-Serif" font-size="10.00">math.hpp</text>
</a>
</g>
</g>
<!-- Node16&#45;&gt;Node26 -->
<g id="edge29" class="edge"><title>Node16&#45;&gt;Node26</title>
<path fill="none" stroke="midnightblue" d="M306.16,-179.165C311.777,-164.838 324.928,-136.761 346,-123 387.314,-96.0201 530.337,-81.1726 600.11,-75.3838"/>
<polygon fill="midnightblue" stroke="midnightblue" points="600.568,-78.8584 610.253,-74.5635 600.003,-71.8811 600.568,-78.8584"/>
</g>
<!-- Node19&#45;&gt;Node18 -->
<g id="edge21" class="edge"><title>Node19&#45;&gt;Node18</title>
<path fill="none" stroke="midnightblue" d="M83.51,-124.766C86.7201,-124.167 89.9156,-123.572 93,-123 180.081,-106.839 203.612,-110.522 289,-87 291.807,-86.2266 294.698,-85.3373 297.575,-84.3876"/>
<polygon fill="midnightblue" stroke="midnightblue" points="298.901,-87.6314 307.17,-81.0076 296.575,-81.0291 298.901,-87.6314"/>
</g>
<!-- Node20 -->
<g id="node20" class="node"><title>Node20</title>
<polygon fill="none" stroke="#bfbfbf" points="0,-62 0,-81 40,-81 40,-62 0,-62"/>
<text text-anchor="middle" x="20" y="-69" font-family="Helvetica,sans-Serif" font-size="10.00">utility</text>
</g>
<!-- Node19&#45;&gt;Node20 -->
<g id="edge22" class="edge"><title>Node19&#45;&gt;Node20</title>
<path fill="none" stroke="midnightblue" d="M41.4181,-123.475C37.8166,-114.904 32.1542,-101.427 27.5559,-90.483"/>
<polygon fill="midnightblue" stroke="midnightblue" points="30.6757,-88.8726 23.5752,-81.0091 24.2222,-91.5842 30.6757,-88.8726"/>
</g>
<!-- Node22 -->
<g id="node22" class="node"><title>Node22</title>
<polygon fill="none" stroke="#bfbfbf" points="234,-62 234,-81 280,-81 280,-62 234,-62"/>
<text text-anchor="middle" x="257" y="-69" font-family="Helvetica,sans-Serif" font-size="10.00">atomic</text>
</g>
<!-- Node21&#45;&gt;Node22 -->
<g id="edge24" class="edge"><title>Node21&#45;&gt;Node22</title>
<path fill="none" stroke="midnightblue" d="M217.591,-123.475C224.491,-114.55 235.502,-100.307 244.134,-89.1425"/>
<polygon fill="midnightblue" stroke="midnightblue" points="247.074,-91.0612 250.422,-81.0091 241.536,-86.7798 247.074,-91.0612"/>
</g>
<!-- Node23 -->
<g id="node23" class="node"><title>Node23</title>
<polygon fill="none" stroke="#bfbfbf" points="58.5,-62 58.5,-81 153.5,-81 153.5,-62 58.5,-62"/>
<text text-anchor="middle" x="106" y="-69" font-family="Helvetica,sans-Serif" font-size="10.00">condition_variable</text>
</g>
<!-- Node21&#45;&gt;Node23 -->
<g id="edge25" class="edge"><title>Node21&#45;&gt;Node23</title>
<path fill="none" stroke="midnightblue" d="M195.956,-123.475C178.725,-113.711 150.26,-97.5807 129.966,-86.0808"/>
<polygon fill="midnightblue" stroke="midnightblue" points="131.442,-82.8942 121.016,-81.0091 127.991,-88.9843 131.442,-82.8942"/>
</g>
<!-- Node24 -->
<g id="node24" class="node"><title>Node24</title>
<polygon fill="none" stroke="#bfbfbf" points="172,-62 172,-81 216,-81 216,-62 172,-62"/>
<text text-anchor="middle" x="194" y="-69" font-family="Helvetica,sans-Serif" font-size="10.00">thread</text>
</g>
<!-- Node21&#45;&gt;Node24 -->
<g id="edge26" class="edge"><title>Node21&#45;&gt;Node24</title>
<path fill="none" stroke="midnightblue" d="M208.564,-123.475C206.141,-114.992 202.344,-101.704 199.235,-90.8222"/>
<polygon fill="midnightblue" stroke="midnightblue" points="202.544,-89.6628 196.431,-81.0091 195.813,-91.5859 202.544,-89.6628"/>
</g>
<!-- Node25 -->
<g id="node25" class="node"><title>Node25</title>
<polygon fill="none" stroke="#bfbfbf" points="376,-62 376,-81 420,-81 420,-62 376,-62"/>
<text text-anchor="middle" x="398" y="-69" font-family="Helvetica,sans-Serif" font-size="10.00">mutex</text>
</g>
<!-- Node21&#45;&gt;Node25 -->
<g id="edge27" class="edge"><title>Node21&#45;&gt;Node25</title>
<path fill="none" stroke="midnightblue" d="M245.626,-123.465C277.343,-115.291 325.392,-102.007 366,-87 367.613,-86.404 369.258,-85.7635 370.91,-85.0954"/>
<polygon fill="midnightblue" stroke="midnightblue" points="372.439,-88.2477 380.248,-81.0871 369.678,-81.8152 372.439,-88.2477"/>
</g>
<!-- Node26&#45;&gt;Node6 -->
<g id="edge30" class="edge"><title>Node26&#45;&gt;Node6</title>
<path fill="none" stroke="midnightblue" d="M634.845,-61.9751C630.624,-53.3152 623.963,-39.6486 618.6,-28.6453"/>
<polygon fill="midnightblue" stroke="midnightblue" points="621.675,-26.9648 614.147,-19.5091 615.382,-30.0317 621.675,-26.9648"/>
</g>
<!-- Node27&#45;&gt;Node9 -->
<g id="edge36" class="edge"><title>Node27&#45;&gt;Node9</title>
<path fill="none" stroke="midnightblue" d="M1165.03,-235.44C1222.01,-217.761 1336.41,-174.525 1293,-123 1262.64,-86.9576 1129.95,-97.459 1084,-87 1077.4,-85.4985 1070.39,-83.6639 1063.74,-81.8113"/>
<polygon fill="midnightblue" stroke="midnightblue" points="1064.29,-78.3273 1053.71,-78.9305 1062.36,-85.0552 1064.29,-78.3273"/>
</g>
<!-- Node27&#45;&gt;Node11 -->
<g id="edge57" class="edge"><title>Node27&#45;&gt;Node11</title>
<path fill="none" stroke="midnightblue" d="M1097.69,-235.451C1067.57,-227.859 1024.51,-215.422 989,-199 958.589,-184.936 926.462,-163.152 906.572,-148.735"/>
<polygon fill="midnightblue" stroke="midnightblue" points="908.474,-145.79 898.345,-142.684 904.327,-151.429 908.474,-145.79"/>
</g>
<!-- Node27&#45;&gt;Node13 -->
<g id="edge37" class="edge"><title>Node27&#45;&gt;Node13</title>
<path fill="none" stroke="midnightblue" d="M1179.79,-244.1C1297.87,-242.92 1602.32,-229.732 1509,-123 1488.04,-99.0287 1283.72,-82.4002 1185.81,-75.7424"/>
<polygon fill="midnightblue" stroke="midnightblue" points="1186.04,-72.25 1175.83,-75.0731 1185.57,-79.2343 1186.04,-72.25"/>
</g>
<!-- Node27&#45;&gt;Node25 -->
<g id="edge34" class="edge"><title>Node27&#45;&gt;Node25</title>
<path fill="none" stroke="midnightblue" d="M1090.16,-243.257C966.801,-240.814 624.414,-231.239 517,-199 468.211,-184.356 448.303,-183.186 417,-143 405.454,-128.178 400.909,-106.886 399.128,-91.5852"/>
<polygon fill="midnightblue" stroke="midnightblue" points="402.584,-90.9198 398.235,-81.2586 395.61,-91.523 402.584,-90.9198"/>
</g>
<!-- Node28 -->
<g id="node28" class="node"><title>Node28</title>
<polygon fill="none" stroke="#bfbfbf" points="998,-179.5 998,-198.5 1048,-198.5 1048,-179.5 998,-179.5"/>
<text text-anchor="middle" x="1023" y="-186.5" font-family="Helvetica,sans-Serif" font-size="10.00">iomanip</text>
</g>
<!-- Node27&#45;&gt;Node28 -->
<g id="edge32" class="edge"><title>Node27&#45;&gt;Node28</title>
<path fill="none" stroke="midnightblue" d="M1117.01,-235.324C1098.96,-226.625 1070.95,-213.12 1050.2,-203.113"/>
<polygon fill="midnightblue" stroke="midnightblue" points="1051.48,-199.845 1040.95,-198.655 1048.44,-206.15 1051.48,-199.845"/>
</g>
<!-- Node29 -->
<g id="node29" class="node"><title>Node29</title>
<polygon fill="none" stroke="#bfbfbf" points="1446,-123.5 1446,-142.5 1500,-142.5 1500,-123.5 1446,-123.5"/>
<text text-anchor="middle" x="1473" y="-130.5" font-family="Helvetica,sans-Serif" font-size="10.00">iostream</text>
</g>
<!-- Node27&#45;&gt;Node29 -->
<g id="edge33" class="edge"><title>Node27&#45;&gt;Node29</title>
<path fill="none" stroke="midnightblue" d="M1179.72,-240.76C1249.13,-235.096 1378.98,-221.777 1419,-199 1438.46,-187.929 1453.9,-166.965 1463.21,-151.834"/>
<polygon fill="midnightblue" stroke="midnightblue" points="1466.4,-153.297 1468.42,-142.895 1460.36,-149.773 1466.4,-153.297"/>
</g>
<!-- Node30 -->
<g id="node30" class="node"><title>Node30</title>
<polygon fill="none" stroke="#bfbfbf" points="1162.5,-123.5 1162.5,-142.5 1221.5,-142.5 1221.5,-123.5 1162.5,-123.5"/>
<text text-anchor="middle" x="1192" y="-130.5" font-family="Helvetica,sans-Serif" font-size="10.00">stdexcept</text>
</g>
<!-- Node27&#45;&gt;Node30 -->
<g id="edge35" class="edge"><title>Node27&#45;&gt;Node30</title>
<path fill="none" stroke="midnightblue" d="M1139.47,-235.368C1148.8,-217.376 1170.47,-175.55 1182.87,-151.627"/>
<polygon fill="midnightblue" stroke="midnightblue" points="1186.05,-153.081 1187.55,-142.591 1179.84,-149.86 1186.05,-153.081"/>
</g>
<!-- Node31 -->
<g id="node31" class="node"><title>Node31</title>
<g id="a_node31"><a xlink:href="multibuf_8hpp.html" target="_top" xlink:title="multibuf.hpp">
<polygon fill="none" stroke="black" points="1340,-179.5 1340,-198.5 1410,-198.5 1410,-179.5 1340,-179.5"/>
<text text-anchor="middle" x="1375" y="-186.5" font-family="Helvetica,sans-Serif" font-size="10.00">multibuf.hpp</text>
</a>
</g>
</g>
<!-- Node27&#45;&gt;Node31 -->
<g id="edge38" class="edge"><title>Node27&#45;&gt;Node31</title>
<path fill="none" stroke="midnightblue" d="M1173.03,-235.444C1215.67,-225.85 1284.76,-210.304 1330.04,-200.116"/>
<polygon fill="midnightblue" stroke="midnightblue" points="1330.89,-203.511 1339.88,-197.902 1329.36,-196.682 1330.89,-203.511"/>
</g>
<!-- Node34 -->
<g id="node34" class="node"><title>Node34</title>
<g id="a_node34"><a xlink:href="string_8hpp.html" target="_top" xlink:title="string.hpp">
<polygon fill="none" stroke="black" points="1066.5,-179.5 1066.5,-198.5 1125.5,-198.5 1125.5,-179.5 1066.5,-179.5"/>
<text text-anchor="middle" x="1096" y="-186.5" font-family="Helvetica,sans-Serif" font-size="10.00">string.hpp</text>
</a>
</g>
</g>
<!-- Node27&#45;&gt;Node34 -->
<g id="edge43" class="edge"><title>Node27&#45;&gt;Node34</title>
<path fill="none" stroke="midnightblue" d="M1128.56,-235.083C1123.05,-227.455 1114.97,-216.264 1108.24,-206.941"/>
<polygon fill="midnightblue" stroke="midnightblue" points="1111.01,-204.809 1102.32,-198.751 1105.34,-208.907 1111.01,-204.809"/>
</g>
<!-- Node31&#45;&gt;Node9 -->
<g id="edge42" class="edge"><title>Node31&#45;&gt;Node9</title>
<path fill="none" stroke="midnightblue" d="M1371.08,-179.09C1364.22,-164.658 1348.6,-136.43 1326,-123 1232.52,-67.4427 1190.3,-109.917 1084,-87 1077.39,-85.5741 1070.37,-83.7718 1063.72,-81.9266"/>
<polygon fill="midnightblue" stroke="midnightblue" points="1064.27,-78.4428 1053.69,-79.0399 1062.33,-85.1696 1064.27,-78.4428"/>
</g>
<!-- Node31&#45;&gt;Node29 -->
<g id="edge39" class="edge"><title>Node31&#45;&gt;Node29</title>
<path fill="none" stroke="midnightblue" d="M1390.75,-179.324C1406.32,-170.743 1430.38,-157.486 1448.46,-147.522"/>
<polygon fill="midnightblue" stroke="midnightblue" points="1450.22,-150.546 1457.29,-142.655 1446.85,-144.415 1450.22,-150.546"/>
</g>
<!-- Node32 -->
<g id="node32" class="node"><title>Node32</title>
<polygon fill="none" stroke="#bfbfbf" points="1378,-123.5 1378,-142.5 1428,-142.5 1428,-123.5 1378,-123.5"/>
<text text-anchor="middle" x="1403" y="-130.5" font-family="Helvetica,sans-Serif" font-size="10.00">fstream</text>
</g>
<!-- Node31&#45;&gt;Node32 -->
<g id="edge40" class="edge"><title>Node31&#45;&gt;Node32</title>
<path fill="none" stroke="midnightblue" d="M1379.62,-179.083C1383.46,-171.691 1389.02,-160.953 1393.76,-151.811"/>
<polygon fill="midnightblue" stroke="midnightblue" points="1396.97,-153.24 1398.46,-142.751 1390.75,-150.018 1396.97,-153.24"/>
</g>
<!-- Node33 -->
<g id="node33" class="node"><title>Node33</title>
<polygon fill="none" stroke="#bfbfbf" points="1240,-123.5 1240,-142.5 1284,-142.5 1284,-123.5 1240,-123.5"/>
<text text-anchor="middle" x="1262" y="-130.5" font-family="Helvetica,sans-Serif" font-size="10.00">vector</text>
</g>
<!-- Node31&#45;&gt;Node33 -->
<g id="edge41" class="edge"><title>Node31&#45;&gt;Node33</title>
<path fill="none" stroke="midnightblue" d="M1357.09,-179.444C1338.75,-170.675 1309.99,-156.935 1288.91,-146.858"/>
<polygon fill="midnightblue" stroke="midnightblue" points="1290.35,-143.67 1279.82,-142.516 1287.33,-149.986 1290.35,-143.67"/>
</g>
<!-- Node34&#45;&gt;Node4 -->
<g id="edge49" class="edge"><title>Node34&#45;&gt;Node4</title>
<path fill="none" stroke="midnightblue" d="M1066.26,-180.766C1063.14,-180.119 1060.01,-179.515 1057,-179 915.49,-154.819 877.576,-166.792 736,-143 734.736,-142.788 733.453,-142.561 732.158,-142.322"/>
<polygon fill="midnightblue" stroke="midnightblue" points="732.662,-138.854 722.169,-140.32 731.286,-145.717 732.662,-138.854"/>
</g>
<!-- Node34&#45;&gt;Node9 -->
<g id="edge48" class="edge"><title>Node34&#45;&gt;Node9</title>
<path fill="none" stroke="midnightblue" d="M1094.66,-179.124C1092.42,-166.159 1087.16,-141.566 1077,-123 1069.94,-110.088 1059.1,-97.6004 1049.95,-88.2729"/>
<polygon fill="midnightblue" stroke="midnightblue" points="1052.37,-85.7443 1042.78,-81.2413 1047.47,-90.742 1052.37,-85.7443"/>
</g>
<!-- Node34&#45;&gt;Node12 -->
<g id="edge44" class="edge"><title>Node34&#45;&gt;Node12</title>
<path fill="none" stroke="midnightblue" d="M1072.87,-179.484C1053.93,-171.796 1027.07,-159.212 1007,-143 988.141,-127.765 971.341,-105.34 960.95,-89.8937"/>
<polygon fill="midnightblue" stroke="midnightblue" points="963.742,-87.7676 955.347,-81.3042 957.879,-91.592 963.742,-87.7676"/>
</g>
<!-- Node34&#45;&gt;Node13 -->
<g id="edge50" class="edge"><title>Node34&#45;&gt;Node13</title>
<path fill="none" stroke="midnightblue" d="M1098.86,-179.319C1105.02,-160.59 1119.67,-116.046 1127.98,-90.7924"/>
<polygon fill="midnightblue" stroke="midnightblue" points="1131.31,-91.875 1131.11,-81.282 1124.66,-89.6873 1131.31,-91.875"/>
</g>
<!-- Node34&#45;&gt;Node18 -->
<g id="edge45" class="edge"><title>Node34&#45;&gt;Node18</title>
<path fill="none" stroke="midnightblue" d="M1066.25,-180.805C1063.14,-180.15 1060.01,-179.534 1057,-179 929.987,-156.467 892.065,-181.665 769,-143 750.792,-137.279 749.28,-128.485 731,-123 575.292,-76.2754 525.387,-123.629 367,-87 363.932,-86.2905 360.778,-85.4021 357.656,-84.4164"/>
<polygon fill="midnightblue" stroke="midnightblue" points="358.533,-81.0159 347.939,-81.0359 356.233,-87.6273 358.533,-81.0159"/>
</g>
<!-- Node34&#45;&gt;Node30 -->
<g id="edge47" class="edge"><title>Node34&#45;&gt;Node30</title>
<path fill="none" stroke="midnightblue" d="M1111.42,-179.324C1126.54,-170.822 1149.82,-157.729 1167.47,-147.797"/>
<polygon fill="midnightblue" stroke="midnightblue" points="1169.61,-150.608 1176.61,-142.655 1166.18,-144.507 1169.61,-150.608"/>
</g>
<!-- Node34&#45;&gt;Node33 -->
<g id="edge51" class="edge"><title>Node34&#45;&gt;Node33</title>
<path fill="none" stroke="midnightblue" d="M1122.3,-179.444C1151.59,-169.917 1198.91,-154.523 1230.24,-144.332"/>
<polygon fill="midnightblue" stroke="midnightblue" points="1231.38,-147.642 1239.8,-141.22 1229.21,-140.986 1231.38,-147.642"/>
</g>
<!-- Node35 -->
<g id="node35" class="node"><title>Node35</title>
<polygon fill="none" stroke="#bfbfbf" points="1016,-123.5 1016,-142.5 1068,-142.5 1068,-123.5 1016,-123.5"/>
<text text-anchor="middle" x="1042" y="-130.5" font-family="Helvetica,sans-Serif" font-size="10.00">memory</text>
</g>
<!-- Node34&#45;&gt;Node35 -->
<g id="edge46" class="edge"><title>Node34&#45;&gt;Node35</title>
<path fill="none" stroke="midnightblue" d="M1087.08,-179.083C1079.22,-171.22 1067.57,-159.569 1058.08,-150.081"/>
<polygon fill="midnightblue" stroke="midnightblue" points="1060.3,-147.347 1050.75,-142.751 1055.35,-152.297 1060.3,-147.347"/>
</g>
<!-- Node36 -->
<g id="node36" class="node"><title>Node36</title>
<g id="a_node36"><a xlink:href="color_8hpp.html" target="_top" xlink:title="color.hpp">
<polygon fill="none" stroke="black" points="778,-123.5 778,-142.5 834,-142.5 834,-123.5 778,-123.5"/>
<text text-anchor="middle" x="806" y="-130.5" font-family="Helvetica,sans-Serif" font-size="10.00">color.hpp</text>
</a>
</g>
</g>
<!-- Node34&#45;&gt;Node36 -->
<g id="edge52" class="edge"><title>Node34&#45;&gt;Node36</title>
<path fill="none" stroke="midnightblue" d="M1066.23,-180.936C1063.12,-180.256 1060,-179.598 1057,-179 965.553,-160.774 939.207,-162.283 844.265,-143.137"/>
<polygon fill="midnightblue" stroke="midnightblue" points="844.733,-139.66 834.235,-141.089 843.333,-146.519 844.733,-139.66"/>
</g>
<!-- Node36&#45;&gt;Node9 -->
<g id="edge54" class="edge"><title>Node36&#45;&gt;Node9</title>
<path fill="none" stroke="midnightblue" d="M834.104,-125.06C868.896,-116.412 929.933,-101.055 982,-87 988.532,-85.2367 995.517,-83.2907 1002.16,-81.4122"/>
<polygon fill="midnightblue" stroke="midnightblue" points="1003.53,-84.6591 1012.19,-78.5519 1001.62,-77.9273 1003.53,-84.6591"/>
</g>
<!-- Node36&#45;&gt;Node12 -->
<g id="edge53" class="edge"><title>Node36&#45;&gt;Node12</title>
<path fill="none" stroke="midnightblue" d="M828.006,-123.484C850.675,-114.636 886.975,-100.255 918,-87 919.367,-86.4159 920.764,-85.8116 922.173,-85.1962"/>
<polygon fill="midnightblue" stroke="midnightblue" points="923.733,-88.3331 931.447,-81.0712 920.888,-81.9372 923.733,-88.3331"/>
</g>
<!-- Node36&#45;&gt;Node15 -->
<g id="edge56" class="edge"><title>Node36&#45;&gt;Node15</title>
<path fill="none" stroke="midnightblue" d="M797.26,-123.475C787.838,-114.285 772.636,-99.4563 761.051,-88.156"/>
<polygon fill="midnightblue" stroke="midnightblue" points="763.326,-85.4861 753.724,-81.0091 758.438,-90.4971 763.326,-85.4861"/>
</g>
<!-- Node36&#45;&gt;Node26 -->
<g id="edge55" class="edge"><title>Node36&#45;&gt;Node26</title>
<path fill="none" stroke="midnightblue" d="M782.073,-123.475C753.303,-113.225 704.844,-95.9593 672.398,-84.3994"/>
<polygon fill="midnightblue" stroke="midnightblue" points="673.477,-81.0684 662.883,-81.0091 671.128,-87.6624 673.477,-81.0684"/>
</g>
</g>
</svg>
        <g id="navigator" transform="translate(0 0)" fill="#404254">
                <rect fill="#f2f5e9" fill-opacity="0.5" stroke="#606060" stroke-width=".5" x="0" y="0" width="60" height="60"/>
                <use id="zoomplus" xlink:href="#zoomPlus" x="17" y="9" onmousedown="handleZoom(evt,'in')"/>
                <use id="zoomminus" xlink:href="#zoomMin" x="42" y="9" onmousedown="handleZoom(evt,'out')"/>
                <use id="reset" xlink:href="#resetDef" x="30" y="36" onmousedown="handleReset()"/>
                <g id="arrowUp" xlink:href="#dirArrow" transform="translate(30 24)" onmousedown="handlePan(0,-1)">
                  <use xlink:href="#rim" fill="#404040">
                        <set attributeName="fill" to="#808080" begin="arrowUp.mouseover" end="arrowUp.mouseout"/>
                  </use>
                  <path fill="none" stroke="white" stroke-width="1.5" d="M0,-3.0v7 M-2.5,-0.5L0,-3.0L2.5,-0.5"/>
                </g>
                <g id="arrowRight" xlink:href="#dirArrow" transform="rotate(90) translate(36 -43)" onmousedown="handlePan(1,0)">
                  <use xlink:href="#rim" fill="#404040">
                        <set attributeName="fill" to="#808080" begin="arrowRight.mouseover" end="arrowRight.mouseout"/>
                  </use>
                  <path fill="none" stroke="white" stroke-width="1.5" d="M0,-3.0v7 M-2.5,-0.5L0,-3.0L2.5,-0.5"/>
                </g>
                <g id="arrowDown" xlink:href="#dirArrow" transform="rotate(180) translate(-30 -48)" onmousedown="handlePan(0,1)">
                  <use xlink:href="#rim" fill="#404040">
                        <set attributeName="fill" to="#808080" begin="arrowDown.mouseover" end="arrowDown.mouseout"/>
                  </use>
                  <path fill="none" stroke="white" stroke-width="1.5" d="M0,-3.0v7 M-2.5,-0.5L0,-3.0L2.5,-0.5"/>
                </g>
                <g id="arrowLeft" xlink:href="#dirArrow" transform="rotate(270) translate(-36 17)" onmousedown="handlePan(-1,0)">
                  <use xlink:href="#rim" fill="#404040">
                        <set attributeName="fill" to="#808080" begin="arrowLeft.mouseover" end="arrowLeft.mouseout"/>
                  </use>
                  <path fill="none" stroke="white" stroke-width="1.5" d="M0,-3.0v7 M-2.5,-0.5L0,-3.0L2.5,-0.5"/>
                </g>
        </g>
        <svg viewBox="0 0 15 15" width="100%" height="30px" preserveAspectRatio="xMaxYMin meet">
         <g id="arrow_out" transform="scale(0.3 0.3)">
          <a xlink:href="udp__io_8hpp__incl_org.svg" target="_base">
           <rect id="button" ry="5" rx="5" y="6" x="6" height="38" width="38"
                fill="#f2f5e9" fill-opacity="0.5" stroke="#606060" stroke-width="1.0"/>
           <path id="arrow"
             d="M 11.500037,31.436501 C 11.940474,20.09759 22.043105,11.32322 32.158766,21.979434 L 37.068811,17.246167 C 37.068811,17.246167 37.088388,32 37.088388,32 L 22.160133,31.978069 C 22.160133,31.978069 26.997745,27.140456 26.997745,27.140456 C 18.528582,18.264221 13.291696,25.230495 11.500037,31.436501 z"
             style="fill:#404040;"/>
          </a>
         </g>
        </svg>
</svg>
