<?xml version="1.0" encoding="UTF-8" standalone="no"?>
<!DOCTYPE svg PUBLIC "-//W3C//DTD SVG 1.1//EN"
 "http://www.w3.org/Graphics/SVG/1.1/DTD/svg11.dtd">
<!-- Generated by graphviz version 2.38.0 (20140413.2041)
 -->
<!-- Title: src/user/user_manager.hpp Pages: 1 -->
<svg width="2072pt" height="475pt"
 viewBox="0.00 0.00 2072.00 475.00" xmlns="http://www.w3.org/2000/svg" xmlns:xlink="http://www.w3.org/1999/xlink">
<g id="graph0" class="graph" transform="scale(1 1) rotate(0) translate(4 471)">
<title>src/user/user_manager.hpp</title>
<!-- Node1 -->
<g id="node1" class="node"><title>Node1</title>
<polygon fill="#bfbfbf" stroke="black" points="824.5,-447.5 824.5,-466.5 959.5,-466.5 959.5,-447.5 824.5,-447.5"/>
<text text-anchor="middle" x="892" y="-454.5" font-family="Helvetica,sans-Serif" font-size="10.00">src/user/user_manager.hpp</text>
</g>
<!-- Node2 -->
<g id="node2" class="node"><title>Node2</title>
<g id="a_node2"><a xlink:href="user__manager_8cpp.html" target="_top" xlink:title="src/user/user_manager.cpp">
<polygon fill="none" stroke="black" points="670.5,-391.5 670.5,-410.5 805.5,-410.5 805.5,-391.5 670.5,-391.5"/>
<text text-anchor="middle" x="738" y="-398.5" font-family="Helvetica,sans-Serif" font-size="10.00">src/user/user_manager.cpp</text>
</a>
</g>
</g>
<!-- Node1&#45;&gt;Node2 -->
<g id="edge1" class="edge"><title>Node1&#45;&gt;Node2</title>
<path fill="none" stroke="midnightblue" d="M857.889,-444.039C828.913,-433.879 788.038,-419.546 762.288,-410.516"/>
<polygon fill="midnightblue" stroke="midnightblue" points="857.003,-447.437 867.598,-447.444 859.32,-440.832 857.003,-447.437"/>
</g>
<!-- Node3 -->
<g id="node3" class="node"><title>Node3</title>
<g id="a_node3"><a xlink:href="src_2network_2connection_8hpp.html" target="_top" xlink:title="src/network/connection.hpp">
<polygon fill="none" stroke="black" points="823.5,-391.5 823.5,-410.5 960.5,-410.5 960.5,-391.5 823.5,-391.5"/>
<text text-anchor="middle" x="892" y="-398.5" font-family="Helvetica,sans-Serif" font-size="10.00">src/network/connection.hpp</text>
</a>
</g>
</g>
<!-- Node1&#45;&gt;Node3 -->
<g id="edge2" class="edge"><title>Node1&#45;&gt;Node3</title>
<path fill="none" stroke="midnightblue" d="M892,-436.805C892,-427.91 892,-417.78 892,-410.751"/>
<polygon fill="midnightblue" stroke="midnightblue" points="888.5,-437.083 892,-447.083 895.5,-437.083 888.5,-437.083"/>
</g>
<!-- Node33 -->
<g id="node33" class="node"><title>Node33</title>
<g id="a_node33"><a xlink:href="xonotic-connection_8hpp.html" target="_top" xlink:title="modules/xonotic/xonotic\l&#45;connection.hpp">
<polygon fill="none" stroke="black" points="928,-257.5 928,-287.5 1050,-287.5 1050,-257.5 928,-257.5"/>
<text text-anchor="start" x="936" y="-275.5" font-family="Helvetica,sans-Serif" font-size="10.00">modules/xonotic/xonotic</text>
<text text-anchor="middle" x="989" y="-264.5" font-family="Helvetica,sans-Serif" font-size="10.00">&#45;connection.hpp</text>
</a>
</g>
</g>
<!-- Node1&#45;&gt;Node33 -->
<g id="edge63" class="edge"><title>Node1&#45;&gt;Node33</title>
<path fill="none" stroke="midnightblue" d="M928.408,-443.368C943.651,-436.225 960.096,-425.714 970,-411 995.835,-372.616 993.605,-314.464 990.875,-287.787"/>
<polygon fill="midnightblue" stroke="midnightblue" points="926.922,-440.197 919.141,-447.387 929.708,-446.619 926.922,-440.197"/>
</g>
<!-- Node4 -->
<g id="node4" class="node"><title>Node4</title>
<g id="a_node4"><a xlink:href="melanobot_8hpp.html" target="_top" xlink:title="src/melanobot.hpp">
<polygon fill="none" stroke="black" points="766.5,-330 766.5,-349 863.5,-349 863.5,-330 766.5,-330"/>
<text text-anchor="middle" x="815" y="-337" font-family="Helvetica,sans-Serif" font-size="10.00">src/melanobot.hpp</text>
</a>
</g>
</g>
<!-- Node3&#45;&gt;Node4 -->
<g id="edge3" class="edge"><title>Node3&#45;&gt;Node4</title>
<path fill="none" stroke="midnightblue" d="M872.968,-385.294C858.198,-373.88 838.239,-358.458 826.012,-349.009"/>
<polygon fill="midnightblue" stroke="midnightblue" points="870.915,-388.13 880.968,-391.475 875.195,-382.591 870.915,-388.13"/>
</g>
<!-- Node6 -->
<g id="node6" class="node"><title>Node6</title>
<g id="a_node6"><a xlink:href="handler_8hpp.html" target="_top" xlink:title="src/handler/handler.hpp">
<polygon fill="none" stroke="black" points="792,-263 792,-282 910,-282 910,-263 792,-263"/>
<text text-anchor="middle" x="851" y="-270" font-family="Helvetica,sans-Serif" font-size="10.00">src/handler/handler.hpp</text>
</a>
</g>
</g>
<!-- Node3&#45;&gt;Node6 -->
<g id="edge55" class="edge"><title>Node3&#45;&gt;Node6</title>
<path fill="none" stroke="midnightblue" d="M887.897,-381.571C884.264,-366.05 878.534,-343.347 872,-324 866.957,-309.067 859.624,-292.266 855.092,-282.299"/>
<polygon fill="midnightblue" stroke="midnightblue" points="884.515,-382.483 890.153,-391.453 891.34,-380.925 884.515,-382.483"/>
</g>
<!-- Node8 -->
<g id="node8" class="node"><title>Node8</title>
<g id="a_node8"><a xlink:href="melanomodule_8hpp.html" target="_top" xlink:title="src/melanomodule.hpp">
<polygon fill="none" stroke="black" points="165.5,-196 165.5,-215 280.5,-215 280.5,-196 165.5,-196"/>
<text text-anchor="middle" x="223" y="-203" font-family="Helvetica,sans-Serif" font-size="10.00">src/melanomodule.hpp</text>
</a>
</g>
</g>
<!-- Node3&#45;&gt;Node8 -->
<g id="edge56" class="edge"><title>Node3&#45;&gt;Node8</title>
<path fill="none" stroke="midnightblue" d="M852.704,-388.634C730.724,-353.353 360.313,-246.216 252.646,-215.075"/>
<polygon fill="midnightblue" stroke="midnightblue" points="851.812,-392.02 862.391,-391.436 853.757,-385.295 851.812,-392.02"/>
</g>
<!-- Node32 -->
<g id="node32" class="node"><title>Node32</title>
<g id="a_node32"><a xlink:href="stdin_8hpp.html" target="_top" xlink:title="modules/posix/stdin.hpp">
<polygon fill="none" stroke="black" points="0,-263 0,-282 122,-282 122,-263 0,-263"/>
<text text-anchor="middle" x="61" y="-270" font-family="Helvetica,sans-Serif" font-size="10.00">modules/posix/stdin.hpp</text>
</a>
</g>
</g>
<!-- Node3&#45;&gt;Node32 -->
<g id="edge57" class="edge"><title>Node3&#45;&gt;Node32</title>
<path fill="none" stroke="midnightblue" d="M813.007,-390.934C632.491,-373.027 584.197,-383.157 409,-355 289.839,-335.849 150.866,-298.753 90.971,-282.035"/>
<polygon fill="midnightblue" stroke="midnightblue" points="812.807,-394.432 823.107,-391.952 813.508,-387.467 812.807,-394.432"/>
</g>
<!-- Node3&#45;&gt;Node33 -->
<g id="edge58" class="edge"><title>Node3&#45;&gt;Node33</title>
<path fill="none" stroke="midnightblue" d="M904.936,-383.13C924.154,-358.067 959.915,-311.431 977.967,-287.888"/>
<polygon fill="midnightblue" stroke="midnightblue" points="901.975,-381.24 898.667,-391.305 907.53,-385.499 901.975,-381.24"/>
</g>
<!-- Node35 -->
<g id="node35" class="node"><title>Node35</title>
<g id="a_node35"><a xlink:href="modules_2irc_2network_2connection_8hpp.html" target="_top" xlink:title="modules/irc/network\l/connection.hpp">
<polygon fill="none" stroke="black" points="1304,-257.5 1304,-287.5 1408,-287.5 1408,-257.5 1304,-257.5"/>
<text text-anchor="start" x="1312" y="-275.5" font-family="Helvetica,sans-Serif" font-size="10.00">modules/irc/network</text>
<text text-anchor="middle" x="1356" y="-264.5" font-family="Helvetica,sans-Serif" font-size="10.00">/connection.hpp</text>
</a>
</g>
</g>
<!-- Node3&#45;&gt;Node35 -->
<g id="edge62" class="edge"><title>Node3&#45;&gt;Node35</title>
<path fill="none" stroke="midnightblue" d="M933.322,-388.734C1018.17,-365.601 1211.86,-312.798 1304.62,-287.507"/>
<polygon fill="midnightblue" stroke="midnightblue" points="932.255,-385.397 923.528,-391.405 934.096,-392.151 932.255,-385.397"/>
</g>
<!-- Node38 -->
<g id="node38" class="node"><title>Node38</title>
<g id="a_node38"><a xlink:href="buffer_8hpp.html" target="_top" xlink:title="modules/irc/network\l/buffer.hpp">
<polygon fill="none" stroke="black" points="1304,-324.5 1304,-354.5 1408,-354.5 1408,-324.5 1304,-324.5"/>
<text text-anchor="start" x="1312" y="-342.5" font-family="Helvetica,sans-Serif" font-size="10.00">modules/irc/network</text>
<text text-anchor="middle" x="1356" y="-331.5" font-family="Helvetica,sans-Serif" font-size="10.00">/buffer.hpp</text>
</a>
</g>
</g>
<!-- Node3&#45;&gt;Node38 -->
<g id="edge59" class="edge"><title>Node3&#45;&gt;Node38</title>
<path fill="none" stroke="midnightblue" d="M968.58,-390.18C1063.38,-378.023 1222.28,-357.647 1304,-347.168"/>
<polygon fill="midnightblue" stroke="midnightblue" points="967.953,-386.732 958.48,-391.475 968.844,-393.675 967.953,-386.732"/>
</g>
<!-- Node5 -->
<g id="node5" class="node"><title>Node5</title>
<g id="a_node5"><a xlink:href="melanobot_8cpp.html" target="_top" xlink:title="src/melanobot.cpp">
<polygon fill="none" stroke="black" points="298.5,-196 298.5,-215 395.5,-215 395.5,-196 298.5,-196"/>
<text text-anchor="middle" x="347" y="-203" font-family="Helvetica,sans-Serif" font-size="10.00">src/melanobot.cpp</text>
</a>
</g>
</g>
<!-- Node4&#45;&gt;Node5 -->
<g id="edge4" class="edge"><title>Node4&#45;&gt;Node5</title>
<path fill="none" stroke="midnightblue" d="M774.89,-327.187C682.979,-301.263 458.804,-238.035 377.277,-215.04"/>
<polygon fill="midnightblue" stroke="midnightblue" points="774.079,-330.595 784.654,-329.941 775.979,-323.858 774.079,-330.595"/>
</g>
<!-- Node4&#45;&gt;Node6 -->
<g id="edge5" class="edge"><title>Node4&#45;&gt;Node6</title>
<path fill="none" stroke="midnightblue" d="M824.879,-320.663C831.821,-308.128 840.803,-291.91 846.222,-282.127"/>
<polygon fill="midnightblue" stroke="midnightblue" points="821.638,-319.29 819.855,-329.734 827.762,-322.682 821.638,-319.29"/>
</g>
<!-- Node9 -->
<g id="node9" class="node"><title>Node9</title>
<g id="a_node9"><a xlink:href="main_8cpp.html" target="_top" xlink:title="src/main.cpp">
<polygon fill="none" stroke="black" points="176.5,-129 176.5,-148 249.5,-148 249.5,-129 176.5,-129"/>
<text text-anchor="middle" x="213" y="-136" font-family="Helvetica,sans-Serif" font-size="10.00">src/main.cpp</text>
</a>
</g>
</g>
<!-- Node4&#45;&gt;Node9 -->
<g id="edge45" class="edge"><title>Node4&#45;&gt;Node9</title>
<path fill="none" stroke="midnightblue" d="M756.232,-337.247C609.344,-332.749 232.51,-312.359 156,-221 135.047,-195.981 176.101,-163.482 199.025,-148.184"/>
<polygon fill="midnightblue" stroke="midnightblue" points="756.305,-340.75 766.403,-337.544 756.509,-333.753 756.305,-340.75"/>
</g>
<!-- Node4&#45;&gt;Node32 -->
<g id="edge46" class="edge"><title>Node4&#45;&gt;Node32</title>
<path fill="none" stroke="midnightblue" d="M755.954,-336.429C637.799,-331.774 364.043,-318.419 136,-288 124.432,-286.457 111.955,-284.261 100.56,-282.044"/>
<polygon fill="midnightblue" stroke="midnightblue" points="756.094,-339.937 766.222,-336.827 756.365,-332.942 756.094,-339.937"/>
</g>
<!-- Node4&#45;&gt;Node33 -->
<g id="edge48" class="edge"><title>Node4&#45;&gt;Node33</title>
<path fill="none" stroke="midnightblue" d="M847.534,-326.346C877.027,-315.329 920.49,-299.093 951.448,-287.528"/>
<polygon fill="midnightblue" stroke="midnightblue" points="846.249,-323.09 838.106,-329.869 848.698,-329.648 846.249,-323.09"/>
</g>
<!-- Node4&#45;&gt;Node35 -->
<g id="edge51" class="edge"><title>Node4&#45;&gt;Node35</title>
<path fill="none" stroke="midnightblue" d="M874.212,-331.386C980.728,-318.588 1202.95,-291.889 1303.99,-279.749"/>
<polygon fill="midnightblue" stroke="midnightblue" points="873.475,-327.949 863.964,-332.617 874.31,-334.899 873.475,-327.949"/>
</g>
<!-- Node6&#45;&gt;Node5 -->
<g id="edge6" class="edge"><title>Node6&#45;&gt;Node5</title>
<path fill="none" stroke="midnightblue" d="M781.706,-266.51C693.654,-259.517 537.218,-244.904 405,-221 396.114,-219.393 386.569,-217.204 377.839,-215.014"/>
<polygon fill="midnightblue" stroke="midnightblue" points="781.595,-270.012 791.838,-267.305 782.142,-263.034 781.595,-270.012"/>
</g>
<!-- Node7 -->
<g id="node7" class="node"><title>Node7</title>
<g id="a_node7"><a xlink:href="handler_8cpp.html" target="_top" xlink:title="src/handler/handler.cpp">
<polygon fill="none" stroke="black" points="694,-196 694,-215 812,-215 812,-196 694,-196"/>
<text text-anchor="middle" x="753" y="-203" font-family="Helvetica,sans-Serif" font-size="10.00">src/handler/handler.cpp</text>
</a>
</g>
</g>
<!-- Node6&#45;&gt;Node7 -->
<g id="edge7" class="edge"><title>Node6&#45;&gt;Node7</title>
<path fill="none" stroke="midnightblue" d="M829.281,-257.095C809.894,-244.236 782.145,-225.831 766.007,-215.127"/>
<polygon fill="midnightblue" stroke="midnightblue" points="827.515,-260.123 837.783,-262.734 831.384,-254.29 827.515,-260.123"/>
</g>
<!-- Node6&#45;&gt;Node8 -->
<g id="edge8" class="edge"><title>Node6&#45;&gt;Node8</title>
<path fill="none" stroke="midnightblue" d="M781.339,-268.084C674.79,-262.218 465.154,-248.153 289,-221 278.797,-219.427 267.809,-217.222 257.783,-215.006"/>
<polygon fill="midnightblue" stroke="midnightblue" points="781.46,-271.595 791.635,-268.642 781.84,-264.605 781.46,-271.595"/>
</g>
<!-- Node16 -->
<g id="node16" class="node"><title>Node16</title>
<g id="a_node16"><a xlink:href="web-api_8hpp.html" target="_top" xlink:title="modules/web/web&#45;api.hpp">
<polygon fill="none" stroke="black" points="1384,-196 1384,-215 1514,-215 1514,-196 1384,-196"/>
<text text-anchor="middle" x="1449" y="-203" font-family="Helvetica,sans-Serif" font-size="10.00">modules/web/web&#45;api.hpp</text>
</a>
</g>
</g>
<!-- Node6&#45;&gt;Node16 -->
<g id="edge16" class="edge"><title>Node6&#45;&gt;Node16</title>
<path fill="none" stroke="midnightblue" d="M896.764,-260.931C904.17,-259.455 911.777,-258.077 919,-257 1103.43,-229.504 1151.61,-240.975 1337,-221 1353.18,-219.257 1370.64,-217.12 1386.85,-215.027"/>
<polygon fill="midnightblue" stroke="midnightblue" points="895.927,-257.53 886.845,-262.986 897.347,-264.384 895.927,-257.53"/>
</g>
<!-- Node20 -->
<g id="node20" class="node"><title>Node20</title>
<g id="a_node20"><a xlink:href="simple-group_8hpp.html" target="_top" xlink:title="modules/core/handler\l/simple&#45;group.hpp">
<polygon fill="none" stroke="black" points="1532,-190.5 1532,-220.5 1642,-220.5 1642,-190.5 1532,-190.5"/>
<text text-anchor="start" x="1540" y="-208.5" font-family="Helvetica,sans-Serif" font-size="10.00">modules/core/handler</text>
<text text-anchor="middle" x="1587" y="-197.5" font-family="Helvetica,sans-Serif" font-size="10.00">/simple&#45;group.hpp</text>
</a>
</g>
</g>
<!-- Node6&#45;&gt;Node20 -->
<g id="edge22" class="edge"><title>Node6&#45;&gt;Node20</title>
<path fill="none" stroke="midnightblue" d="M895.978,-260.914C903.626,-259.401 911.515,-258.015 919,-257 1185.48,-220.856 1256.75,-258.837 1523,-221 1525.93,-220.583 1528.93,-220.102 1531.95,-219.572"/>
<polygon fill="midnightblue" stroke="midnightblue" points="895.198,-257.502 886.116,-262.958 896.619,-264.356 895.198,-257.502"/>
</g>
<!-- Node25 -->
<g id="node25" class="node"><title>Node25</title>
<g id="a_node25"><a xlink:href="misc_8hpp.html" target="_top" xlink:title="This file defines handlers which perform miscellaneous tasks. ">
<polygon fill="none" stroke="black" points="1637,-123.5 1637,-153.5 1747,-153.5 1747,-123.5 1637,-123.5"/>
<text text-anchor="start" x="1645" y="-141.5" font-family="Helvetica,sans-Serif" font-size="10.00">modules/core/handler</text>
<text text-anchor="middle" x="1692" y="-130.5" font-family="Helvetica,sans-Serif" font-size="10.00">/misc.hpp</text>
</a>
</g>
</g>
<!-- Node6&#45;&gt;Node25 -->
<g id="edge31" class="edge"><title>Node6&#45;&gt;Node25</title>
<path fill="none" stroke="midnightblue" d="M895.714,-260.898C903.442,-259.372 911.426,-257.987 919,-257 999.749,-246.475 1582.75,-265.416 1651,-221 1674.5,-205.709 1685.1,-172.602 1689.41,-153.625"/>
<polygon fill="midnightblue" stroke="midnightblue" points="894.837,-257.505 885.757,-262.963 896.259,-264.359 894.837,-257.505"/>
</g>
<!-- Node26 -->
<g id="node26" class="node"><title>Node26</title>
<g id="a_node26"><a xlink:href="rcon_8hpp.html" target="_top" xlink:title="modules/xonotic/handler\l/rcon.hpp">
<polygon fill="none" stroke="black" points="554,-190.5 554,-220.5 676,-220.5 676,-190.5 554,-190.5"/>
<text text-anchor="start" x="562" y="-208.5" font-family="Helvetica,sans-Serif" font-size="10.00">modules/xonotic/handler</text>
<text text-anchor="middle" x="615" y="-197.5" font-family="Helvetica,sans-Serif" font-size="10.00">/rcon.hpp</text>
</a>
</g>
</g>
<!-- Node6&#45;&gt;Node26 -->
<g id="edge33" class="edge"><title>Node6&#45;&gt;Node26</title>
<path fill="none" stroke="midnightblue" d="M809.965,-260.198C769.958,-249.179 709.016,-232.394 665.933,-220.528"/>
<polygon fill="midnightblue" stroke="midnightblue" points="809.091,-263.587 819.661,-262.869 810.949,-256.839 809.091,-263.587"/>
</g>
<!-- Node27 -->
<g id="node27" class="node"><title>Node27</title>
<g id="a_node27"><a xlink:href="status_8hpp.html" target="_top" xlink:title="modules/xonotic/handler\l/status.hpp">
<polygon fill="none" stroke="black" points="414,-190.5 414,-220.5 536,-220.5 536,-190.5 414,-190.5"/>
<text text-anchor="start" x="422" y="-208.5" font-family="Helvetica,sans-Serif" font-size="10.00">modules/xonotic/handler</text>
<text text-anchor="middle" x="475" y="-197.5" font-family="Helvetica,sans-Serif" font-size="10.00">/status.hpp</text>
</a>
</g>
</g>
<!-- Node6&#45;&gt;Node27 -->
<g id="edge35" class="edge"><title>Node6&#45;&gt;Node27</title>
<path fill="none" stroke="midnightblue" d="M784.996,-261.402C722.931,-251.718 627.487,-236.343 545,-221 542.072,-220.455 539.077,-219.885 536.055,-219.3"/>
<polygon fill="midnightblue" stroke="midnightblue" points="784.623,-264.886 795.043,-262.965 785.7,-257.969 784.623,-264.886"/>
</g>
<!-- Node28 -->
<g id="node28" class="node"><title>Node28</title>
<g id="a_node28"><a xlink:href="irc__actions_8hpp.html" target="_top" xlink:title="File containing Handlers which manage responses to various IRC commands. ">
<polygon fill="none" stroke="black" points="988.5,-190.5 988.5,-220.5 1089.5,-220.5 1089.5,-190.5 988.5,-190.5"/>
<text text-anchor="start" x="996.5" y="-208.5" font-family="Helvetica,sans-Serif" font-size="10.00">modules/irc/handler</text>
<text text-anchor="middle" x="1039" y="-197.5" font-family="Helvetica,sans-Serif" font-size="10.00">/irc_actions.hpp</text>
</a>
</g>
</g>
<!-- Node6&#45;&gt;Node28 -->
<g id="edge37" class="edge"><title>Node6&#45;&gt;Node28</title>
<path fill="none" stroke="midnightblue" d="M885.737,-259.49C917.609,-248.47 964.833,-232.143 998.427,-220.528"/>
<polygon fill="midnightblue" stroke="midnightblue" points="884.272,-256.293 875.965,-262.869 886.56,-262.909 884.272,-256.293"/>
</g>
<!-- Node29 -->
<g id="node29" class="node"><title>Node29</title>
<g id="a_node29"><a xlink:href="ctcp_8hpp.html" target="_top" xlink:title="This files has handlers for CTCP messages. ">
<polygon fill="none" stroke="black" points="1107.5,-190.5 1107.5,-220.5 1208.5,-220.5 1208.5,-190.5 1107.5,-190.5"/>
<text text-anchor="start" x="1115.5" y="-208.5" font-family="Helvetica,sans-Serif" font-size="10.00">modules/irc/handler</text>
<text text-anchor="middle" x="1158" y="-197.5" font-family="Helvetica,sans-Serif" font-size="10.00">/ctcp.hpp</text>
</a>
</g>
</g>
<!-- Node6&#45;&gt;Node29 -->
<g id="edge39" class="edge"><title>Node6&#45;&gt;Node29</title>
<path fill="none" stroke="midnightblue" d="M900.761,-260.813C906.901,-259.517 913.093,-258.22 919,-257 998.897,-240.493 1019.37,-238.74 1099,-221 1101.68,-220.404 1104.42,-219.779 1107.18,-219.138"/>
<polygon fill="midnightblue" stroke="midnightblue" points="899.592,-257.483 890.535,-262.981 901.044,-264.331 899.592,-257.483"/>
</g>
<!-- Node30 -->
<g id="node30" class="node"><title>Node30</title>
<g id="a_node30"><a xlink:href="irc__admin_8hpp.html" target="_top" xlink:title="This file defines handlers which allows admin to administrate the bot (IRC&#45;specific actions) ...">
<polygon fill="none" stroke="black" points="830.5,-190.5 830.5,-220.5 931.5,-220.5 931.5,-190.5 830.5,-190.5"/>
<text text-anchor="start" x="838.5" y="-208.5" font-family="Helvetica,sans-Serif" font-size="10.00">modules/irc/handler</text>
<text text-anchor="middle" x="881" y="-197.5" font-family="Helvetica,sans-Serif" font-size="10.00">/irc_admin.hpp</text>
</a>
</g>
</g>
<!-- Node6&#45;&gt;Node30 -->
<g id="edge41" class="edge"><title>Node6&#45;&gt;Node30</title>
<path fill="none" stroke="midnightblue" d="M859.359,-253.39C864.145,-243.02 870.061,-230.201 874.497,-220.589"/>
<polygon fill="midnightblue" stroke="midnightblue" points="856.059,-252.187 855.046,-262.734 862.414,-255.121 856.059,-252.187"/>
</g>
<!-- Node31 -->
<g id="node31" class="node"><title>Node31</title>
<g id="a_node31"><a xlink:href="irc__whois_8hpp.html" target="_top" xlink:title="This file contains handlers for WHOIS recognition on IRC. ">
<polygon fill="none" stroke="black" points="1226.5,-190.5 1226.5,-220.5 1327.5,-220.5 1327.5,-190.5 1226.5,-190.5"/>
<text text-anchor="start" x="1234.5" y="-208.5" font-family="Helvetica,sans-Serif" font-size="10.00">modules/irc/handler</text>
<text text-anchor="middle" x="1277" y="-197.5" font-family="Helvetica,sans-Serif" font-size="10.00">/irc_whois.hpp</text>
</a>
</g>
</g>
<!-- Node6&#45;&gt;Node31 -->
<g id="edge43" class="edge"><title>Node6&#45;&gt;Node31</title>
<path fill="none" stroke="midnightblue" d="M898.044,-260.893C905.05,-259.481 912.2,-258.132 919,-257 1051.03,-235.021 1086.32,-245.016 1218,-221 1220.7,-220.508 1223.46,-219.966 1226.24,-219.39"/>
<polygon fill="midnightblue" stroke="midnightblue" points="897.021,-257.53 887.941,-262.989 898.443,-264.384 897.021,-257.53"/>
</g>
<!-- Node8&#45;&gt;Node9 -->
<g id="edge9" class="edge"><title>Node8&#45;&gt;Node9</title>
<path fill="none" stroke="midnightblue" d="M220.083,-185.537C218.18,-173.17 215.788,-157.62 214.327,-148.127"/>
<polygon fill="midnightblue" stroke="midnightblue" points="216.671,-186.382 221.651,-195.734 223.59,-185.318 216.671,-186.382"/>
</g>
<!-- Node10 -->
<g id="node10" class="node"><title>Node10</title>
<g id="a_node10"><a xlink:href="posix_8cpp.html" target="_top" xlink:title="modules/posix/posix.cpp">
<polygon fill="none" stroke="black" points="28.5,-129 28.5,-148 153.5,-148 153.5,-129 28.5,-129"/>
<text text-anchor="middle" x="91" y="-136" font-family="Helvetica,sans-Serif" font-size="10.00">modules/posix/posix.cpp</text>
</a>
</g>
</g>
<!-- Node8&#45;&gt;Node10 -->
<g id="edge10" class="edge"><title>Node8&#45;&gt;Node10</title>
<path fill="none" stroke="midnightblue" d="M196.486,-191.444C170.34,-178.569 131.122,-159.257 108.601,-148.167"/>
<polygon fill="midnightblue" stroke="midnightblue" points="194.954,-194.591 205.471,-195.869 198.046,-188.311 194.954,-194.591"/>
</g>
<!-- Node11 -->
<g id="node11" class="node"><title>Node11</title>
<g id="a_node11"><a xlink:href="fun_8cpp.html" target="_top" xlink:title="modules/fun/fun.cpp">
<polygon fill="none" stroke="black" points="818.5,-0.5 818.5,-19.5 923.5,-19.5 923.5,-0.5 818.5,-0.5"/>
<text text-anchor="middle" x="871" y="-7.5" font-family="Helvetica,sans-Serif" font-size="10.00">modules/fun/fun.cpp</text>
</a>
</g>
</g>
<!-- Node8&#45;&gt;Node11 -->
<g id="edge11" class="edge"><title>Node8&#45;&gt;Node11</title>
<path fill="none" stroke="midnightblue" d="M235.528,-187.975C250.752,-169.142 278.248,-138.917 309,-123 480.407,-34.2803 714.771,-15.707 818.237,-11.9145"/>
<polygon fill="midnightblue" stroke="midnightblue" points="232.678,-185.937 229.254,-195.964 238.183,-190.261 232.678,-185.937"/>
</g>
<!-- Node12 -->
<g id="node12" class="node"><title>Node12</title>
<g id="a_node12"><a xlink:href="web_8cpp.html" target="_top" xlink:title="modules/web/web.cpp">
<polygon fill="none" stroke="black" points="729,-62 729,-81 843,-81 843,-62 729,-62"/>
<text text-anchor="middle" x="786" y="-69" font-family="Helvetica,sans-Serif" font-size="10.00">modules/web/web.cpp</text>
</a>
</g>
</g>
<!-- Node8&#45;&gt;Node12 -->
<g id="edge12" class="edge"><title>Node8&#45;&gt;Node12</title>
<path fill="none" stroke="midnightblue" d="M244.822,-190.563C275.188,-171.893 332.497,-139.235 386,-123 504.387,-87.0758 649.975,-76.6849 728.77,-73.6942"/>
<polygon fill="midnightblue" stroke="midnightblue" points="242.934,-187.616 236.298,-195.875 246.636,-193.557 242.934,-187.616"/>
</g>
<!-- Node13 -->
<g id="node13" class="node"><title>Node13</title>
<g id="a_node13"><a xlink:href="core_8cpp.html" target="_top" xlink:title="modules/core/core.cpp">
<polygon fill="none" stroke="black" points="1336,-62 1336,-81 1452,-81 1452,-62 1336,-62"/>
<text text-anchor="middle" x="1394" y="-69" font-family="Helvetica,sans-Serif" font-size="10.00">modules/core/core.cpp</text>
</a>
</g>
</g>
<!-- Node8&#45;&gt;Node13 -->
<g id="edge13" class="edge"><title>Node8&#45;&gt;Node13</title>
<path fill="none" stroke="midnightblue" d="M257.066,-192.457C318.66,-170.767 444.121,-127.006 465,-123 633.048,-90.7549 1159.28,-77.2927 1335.69,-73.6098"/>
<polygon fill="midnightblue" stroke="midnightblue" points="255.67,-189.238 247.402,-195.863 257.997,-195.84 255.67,-189.238"/>
</g>
<!-- Node14 -->
<g id="node14" class="node"><title>Node14</title>
<g id="a_node14"><a xlink:href="irc_8cpp.html" target="_top" xlink:title="modules/irc/irc.cpp">
<polygon fill="none" stroke="black" points="1012.5,-129 1012.5,-148 1111.5,-148 1111.5,-129 1012.5,-129"/>
<text text-anchor="middle" x="1062" y="-136" font-family="Helvetica,sans-Serif" font-size="10.00">modules/irc/irc.cpp</text>
</a>
</g>
</g>
<!-- Node8&#45;&gt;Node14 -->
<g id="edge14" class="edge"><title>Node8&#45;&gt;Node14</title>
<path fill="none" stroke="midnightblue" d="M266.899,-193.888C274.244,-192.391 281.813,-191.018 289,-190 560.308,-151.559 889.409,-142.319 1012.45,-140.148"/>
<polygon fill="midnightblue" stroke="midnightblue" points="266.126,-190.474 257.077,-195.985 267.587,-197.32 266.126,-190.474"/>
</g>
<!-- Node15 -->
<g id="node15" class="node"><title>Node15</title>
<g id="a_node15"><a xlink:href="xonotic_8cpp.html" target="_top" xlink:title="modules/xonotic/xonotic.cpp">
<polygon fill="none" stroke="black" points="474.5,-129 474.5,-148 615.5,-148 615.5,-129 474.5,-129"/>
<text text-anchor="middle" x="545" y="-136" font-family="Helvetica,sans-Serif" font-size="10.00">modules/xonotic/xonotic.cpp</text>
</a>
</g>
</g>
<!-- Node8&#45;&gt;Node15 -->
<g id="edge15" class="edge"><title>Node8&#45;&gt;Node15</title>
<path fill="none" stroke="midnightblue" d="M271.287,-193.766C277.248,-192.478 283.261,-191.196 289,-190 362.839,-174.608 448.92,-157.876 500.084,-148.057"/>
<polygon fill="midnightblue" stroke="midnightblue" points="270.387,-190.38 261.36,-195.926 271.875,-197.22 270.387,-190.38"/>
</g>
<!-- Node17 -->
<g id="node17" class="node"><title>Node17</title>
<g id="a_node17"><a xlink:href="fun-handlers_8hpp.html" target="_top" xlink:title="This file contains definitions for handlers which are pretty useless. ">
<polygon fill="none" stroke="black" points="1470.5,-62 1470.5,-81 1615.5,-81 1615.5,-62 1470.5,-62"/>
<text text-anchor="middle" x="1543" y="-69" font-family="Helvetica,sans-Serif" font-size="10.00">modules/fun/fun&#45;handlers.hpp</text>
</a>
</g>
</g>
<!-- Node16&#45;&gt;Node17 -->
<g id="edge17" class="edge"><title>Node16&#45;&gt;Node17</title>
<path fill="none" stroke="midnightblue" d="M1415.43,-191.591C1399.2,-183.444 1381.27,-171.168 1372,-154 1365.45,-141.877 1363.75,-134.036 1372,-123 1386.27,-103.908 1445.25,-89.511 1489.99,-81.0696"/>
<polygon fill="midnightblue" stroke="midnightblue" points="1414.17,-194.864 1424.71,-195.916 1417.13,-188.519 1414.17,-194.864"/>
</g>
<!-- Node19 -->
<g id="node19" class="node"><title>Node19</title>
<g id="a_node19"><a xlink:href="web-api-concrete_8hpp.html" target="_top" xlink:title="This files defines some simple Handlers using web APIs. ">
<polygon fill="none" stroke="black" points="1152.5,-123.5 1152.5,-153.5 1263.5,-153.5 1263.5,-123.5 1152.5,-123.5"/>
<text text-anchor="start" x="1160.5" y="-141.5" font-family="Helvetica,sans-Serif" font-size="10.00">modules/web/web&#45;api</text>
<text text-anchor="middle" x="1208" y="-130.5" font-family="Helvetica,sans-Serif" font-size="10.00">&#45;concrete.hpp</text>
</a>
</g>
</g>
<!-- Node16&#45;&gt;Node19 -->
<g id="edge20" class="edge"><title>Node16&#45;&gt;Node19</title>
<path fill="none" stroke="midnightblue" d="M1407.1,-193.198C1366.24,-182.179 1304.01,-165.394 1260.01,-153.528"/>
<polygon fill="midnightblue" stroke="midnightblue" points="1406.43,-196.644 1417,-195.869 1408.25,-189.885 1406.43,-196.644"/>
</g>
<!-- Node17&#45;&gt;Node11 -->
<g id="edge19" class="edge"><title>Node17&#45;&gt;Node11</title>
<path fill="none" stroke="midnightblue" d="M1489.25,-60.213C1479.86,-58.6394 1470.16,-57.1568 1461,-56 1263.53,-31.0723 1027.01,-18.101 923.664,-13.2665"/>
<polygon fill="midnightblue" stroke="midnightblue" points="1488.84,-63.693 1499.29,-61.9452 1490.03,-56.795 1488.84,-63.693"/>
</g>
<!-- Node18 -->
<g id="node18" class="node"><title>Node18</title>
<g id="a_node18"><a xlink:href="fun-handlers_8cpp.html" target="_top" xlink:title="modules/fun/fun&#45;handlers.cpp">
<polygon fill="none" stroke="black" points="1470.5,-0.5 1470.5,-19.5 1615.5,-19.5 1615.5,-0.5 1470.5,-0.5"/>
<text text-anchor="middle" x="1543" y="-7.5" font-family="Helvetica,sans-Serif" font-size="10.00">modules/fun/fun&#45;handlers.cpp</text>
</a>
</g>
</g>
<!-- Node17&#45;&gt;Node18 -->
<g id="edge18" class="edge"><title>Node17&#45;&gt;Node18</title>
<path fill="none" stroke="midnightblue" d="M1543,-51.8165C1543,-40.9962 1543,-27.898 1543,-19.5091"/>
<polygon fill="midnightblue" stroke="midnightblue" points="1539.5,-51.9751 1543,-61.9751 1546.5,-51.9751 1539.5,-51.9751"/>
</g>
<!-- Node19&#45;&gt;Node12 -->
<g id="edge21" class="edge"><title>Node19&#45;&gt;Node12</title>
<path fill="none" stroke="midnightblue" d="M1142,-126.389C1134.91,-125.229 1127.81,-124.08 1121,-123 1023.55,-107.536 909.972,-90.6542 843.243,-80.853"/>
<polygon fill="midnightblue" stroke="midnightblue" points="1141.89,-129.919 1152.33,-128.089 1143.03,-123.011 1141.89,-129.919"/>
</g>
<!-- Node20&#45;&gt;Node13 -->
<g id="edge30" class="edge"><title>Node20&#45;&gt;Node13</title>
<path fill="none" stroke="midnightblue" d="M1521.9,-189.71C1459.07,-175.359 1373.21,-155.522 1372,-154 1354.53,-131.945 1375.64,-97.1287 1387.29,-81.099"/>
<polygon fill="midnightblue" stroke="midnightblue" points="1521.25,-193.15 1531.78,-191.963 1522.8,-186.326 1521.25,-193.15"/>
</g>
<!-- Node21 -->
<g id="node21" class="node"><title>Node21</title>
<g id="a_node21"><a xlink:href="bridge_8hpp.html" target="_top" xlink:title="modules/core/handler\l/bridge.hpp">
<polygon fill="none" stroke="black" points="1765,-123.5 1765,-153.5 1875,-153.5 1875,-123.5 1765,-123.5"/>
<text text-anchor="start" x="1773" y="-141.5" font-family="Helvetica,sans-Serif" font-size="10.00">modules/core/handler</text>
<text text-anchor="middle" x="1820" y="-130.5" font-family="Helvetica,sans-Serif" font-size="10.00">/bridge.hpp</text>
</a>
</g>
</g>
<!-- Node20&#45;&gt;Node21 -->
<g id="edge23" class="edge"><title>Node20&#45;&gt;Node21</title>
<path fill="none" stroke="midnightblue" d="M1647.17,-187.715C1685.08,-177.137 1733.49,-163.635 1769.42,-153.611"/>
<polygon fill="midnightblue" stroke="midnightblue" points="1645.96,-184.418 1637.27,-190.476 1647.84,-191.16 1645.96,-184.418"/>
</g>
<!-- Node23 -->
<g id="node23" class="node"><title>Node23</title>
<g id="a_node23"><a xlink:href="simple-group_8cpp.html" target="_top" xlink:title="This file contains the definitions for the most basic and reusable handlers. ">
<polygon fill="none" stroke="black" points="1509,-123.5 1509,-153.5 1619,-153.5 1619,-123.5 1509,-123.5"/>
<text text-anchor="start" x="1517" y="-141.5" font-family="Helvetica,sans-Serif" font-size="10.00">modules/core/handler</text>
<text text-anchor="middle" x="1564" y="-130.5" font-family="Helvetica,sans-Serif" font-size="10.00">/simple&#45;group.cpp</text>
</a>
</g>
</g>
<!-- Node20&#45;&gt;Node23 -->
<g id="edge27" class="edge"><title>Node20&#45;&gt;Node23</title>
<path fill="none" stroke="midnightblue" d="M1578.58,-180.697C1575.35,-171.587 1571.78,-161.493 1568.98,-153.577"/>
<polygon fill="midnightblue" stroke="midnightblue" points="1575.37,-182.136 1582.01,-190.396 1581.97,-179.801 1575.37,-182.136"/>
</g>
<!-- Node24 -->
<g id="node24" class="node"><title>Node24</title>
<g id="a_node24"><a xlink:href="admin_8hpp.html" target="_top" xlink:title="This file defines handlers which allows admin to administrate the bot. ">
<polygon fill="none" stroke="black" points="1381,-123.5 1381,-153.5 1491,-153.5 1491,-123.5 1381,-123.5"/>
<text text-anchor="start" x="1389" y="-141.5" font-family="Helvetica,sans-Serif" font-size="10.00">modules/core/handler</text>
<text text-anchor="middle" x="1436" y="-130.5" font-family="Helvetica,sans-Serif" font-size="10.00">/admin.hpp</text>
</a>
</g>
</g>
<!-- Node20&#45;&gt;Node24 -->
<g id="edge28" class="edge"><title>Node20&#45;&gt;Node24</title>
<path fill="none" stroke="midnightblue" d="M1544.97,-186.407C1520.86,-176.029 1491.05,-163.195 1468.7,-153.577"/>
<polygon fill="midnightblue" stroke="midnightblue" points="1543.67,-189.657 1554.24,-190.396 1546.43,-183.227 1543.67,-189.657"/>
</g>
<!-- Node21&#45;&gt;Node13 -->
<g id="edge26" class="edge"><title>Node21&#45;&gt;Node13</title>
<path fill="none" stroke="midnightblue" d="M1754.94,-122.932C1624.57,-100.816 1588.66,-108.217 1462,-87 1452,-85.3249 1441.24,-83.1879 1431.3,-81.0725"/>
<polygon fill="midnightblue" stroke="midnightblue" points="1754.46,-126.4 1764.91,-124.648 1755.65,-119.502 1754.46,-126.4"/>
</g>
<!-- Node21&#45;&gt;Node17 -->
<g id="edge24" class="edge"><title>Node21&#45;&gt;Node17</title>
<path fill="none" stroke="midnightblue" d="M1754.99,-122.244C1700.26,-109.402 1623.99,-91.504 1579.42,-81.0458"/>
<polygon fill="midnightblue" stroke="midnightblue" points="1754.41,-125.703 1764.94,-124.58 1756.01,-118.888 1754.41,-125.703"/>
</g>
<!-- Node22 -->
<g id="node22" class="node"><title>Node22</title>
<g id="a_node22"><a xlink:href="bridge_8cpp.html" target="_top" xlink:title="modules/core/handler\l/bridge.cpp">
<polygon fill="none" stroke="black" points="1765,-56.5 1765,-86.5 1875,-86.5 1875,-56.5 1765,-56.5"/>
<text text-anchor="start" x="1773" y="-74.5" font-family="Helvetica,sans-Serif" font-size="10.00">modules/core/handler</text>
<text text-anchor="middle" x="1820" y="-63.5" font-family="Helvetica,sans-Serif" font-size="10.00">/bridge.cpp</text>
</a>
</g>
</g>
<!-- Node21&#45;&gt;Node22 -->
<g id="edge25" class="edge"><title>Node21&#45;&gt;Node22</title>
<path fill="none" stroke="midnightblue" d="M1820,-113.108C1820,-104.154 1820,-94.3227 1820,-86.5765"/>
<polygon fill="midnightblue" stroke="midnightblue" points="1816.5,-113.396 1820,-123.396 1823.5,-113.396 1816.5,-113.396"/>
</g>
<!-- Node24&#45;&gt;Node13 -->
<g id="edge29" class="edge"><title>Node24&#45;&gt;Node13</title>
<path fill="none" stroke="midnightblue" d="M1421.45,-114.974C1413.92,-103.332 1405.18,-89.7985 1399.62,-81.1945"/>
<polygon fill="midnightblue" stroke="midnightblue" points="1418.52,-116.896 1426.89,-123.396 1424.4,-113.097 1418.52,-116.896"/>
</g>
<!-- Node25&#45;&gt;Node13 -->
<g id="edge32" class="edge"><title>Node25&#45;&gt;Node13</title>
<path fill="none" stroke="midnightblue" d="M1626.8,-122.751C1577.9,-112.002 1486.76,-92.4058 1433.97,-81.0739"/>
<polygon fill="midnightblue" stroke="midnightblue" points="1626.33,-126.232 1636.85,-124.967 1627.84,-119.396 1626.33,-126.232"/>
</g>
<!-- Node26&#45;&gt;Node15 -->
<g id="edge34" class="edge"><title>Node26&#45;&gt;Node15</title>
<path fill="none" stroke="midnightblue" d="M592.207,-183.335C579.355,-171.401 563.993,-157.136 554.363,-148.195"/>
<polygon fill="midnightblue" stroke="midnightblue" points="590.101,-186.156 599.811,-190.396 594.865,-181.027 590.101,-186.156"/>
</g>
<!-- Node27&#45;&gt;Node15 -->
<g id="edge36" class="edge"><title>Node27&#45;&gt;Node15</title>
<path fill="none" stroke="midnightblue" d="M497.793,-183.335C510.645,-171.401 526.007,-157.136 535.637,-148.195"/>
<polygon fill="midnightblue" stroke="midnightblue" points="495.135,-181.027 490.189,-190.396 499.899,-186.156 495.135,-181.027"/>
</g>
<!-- Node28&#45;&gt;Node14 -->
<g id="edge38" class="edge"><title>Node28&#45;&gt;Node14</title>
<path fill="none" stroke="midnightblue" d="M1047.34,-180.942C1051.37,-169.54 1055.97,-156.545 1058.92,-148.195"/>
<polygon fill="midnightblue" stroke="midnightblue" points="1044.03,-179.801 1043.99,-190.396 1050.63,-182.136 1044.03,-179.801"/>
</g>
<!-- Node29&#45;&gt;Node14 -->
<g id="edge40" class="edge"><title>Node29&#45;&gt;Node14</title>
<path fill="none" stroke="midnightblue" d="M1128.67,-184.641C1110.55,-172.374 1088.23,-157.261 1074.56,-148.007"/>
<polygon fill="midnightblue" stroke="midnightblue" points="1126.93,-187.688 1137.17,-190.396 1130.85,-181.891 1126.93,-187.688"/>
</g>
<!-- Node30&#45;&gt;Node14 -->
<g id="edge42" class="edge"><title>Node30&#45;&gt;Node14</title>
<path fill="none" stroke="midnightblue" d="M929.881,-186.946C965.036,-174.321 1010.9,-157.85 1038.31,-148.007"/>
<polygon fill="midnightblue" stroke="midnightblue" points="928.503,-183.722 920.274,-190.396 930.869,-190.31 928.503,-183.722"/>
</g>
<!-- Node31&#45;&gt;Node14 -->
<g id="edge44" class="edge"><title>Node31&#45;&gt;Node14</title>
<path fill="none" stroke="midnightblue" d="M1220.8,-187.51C1178.84,-174.825 1123.26,-158.022 1090.21,-148.029"/>
<polygon fill="midnightblue" stroke="midnightblue" points="1220.03,-190.932 1230.61,-190.476 1222.05,-184.232 1220.03,-190.932"/>
</g>
<!-- Node32&#45;&gt;Node10 -->
<g id="edge47" class="edge"><title>Node32&#45;&gt;Node10</title>
<path fill="none" stroke="midnightblue" d="M65.2556,-252.775C71.8531,-223.746 84.2868,-169.038 89.0634,-148.021"/>
<polygon fill="midnightblue" stroke="midnightblue" points="61.7717,-252.312 62.9684,-262.839 68.5976,-253.863 61.7717,-252.312"/>
</g>
<!-- Node33&#45;&gt;Node15 -->
<g id="edge50" class="edge"><title>Node33&#45;&gt;Node15</title>
<path fill="none" stroke="midnightblue" d="M981.588,-247.816C974.371,-228.928 961.455,-203.481 941,-190 888.989,-155.724 714.784,-144.685 615.624,-141.149"/>
<polygon fill="midnightblue" stroke="midnightblue" points="978.295,-249.002 984.937,-257.257 984.892,-246.662 978.295,-249.002"/>
</g>
<!-- Node34 -->
<g id="node34" class="node"><title>Node34</title>
<g id="a_node34"><a xlink:href="xonotic-connection_8cpp.html" target="_top" xlink:title="modules/xonotic/xonotic\l&#45;connection.cpp">
<polygon fill="none" stroke="black" points="1698,-190.5 1698,-220.5 1820,-220.5 1820,-190.5 1698,-190.5"/>
<text text-anchor="start" x="1706" y="-208.5" font-family="Helvetica,sans-Serif" font-size="10.00">modules/xonotic/xonotic</text>
<text text-anchor="middle" x="1759" y="-197.5" font-family="Helvetica,sans-Serif" font-size="10.00">&#45;connection.cpp</text>
</a>
</g>
</g>
<!-- Node33&#45;&gt;Node34 -->
<g id="edge49" class="edge"><title>Node33&#45;&gt;Node34</title>
<path fill="none" stroke="midnightblue" d="M1060.28,-267.397C1212.45,-258.462 1564.93,-236.779 1684,-221 1688.47,-220.408 1693.08,-219.717 1697.7,-218.964"/>
<polygon fill="midnightblue" stroke="midnightblue" points="1059.89,-263.914 1050.11,-267.993 1060.3,-270.902 1059.89,-263.914"/>
</g>
<!-- Node35&#45;&gt;Node14 -->
<g id="edge52" class="edge"><title>Node35&#45;&gt;Node14</title>
<path fill="none" stroke="midnightblue" d="M1356.99,-247.249C1356.35,-228.957 1352.31,-204.6 1337,-190 1334.94,-188.04 1188.77,-161.929 1110.4,-148.046"/>
<polygon fill="midnightblue" stroke="midnightblue" points="1353.49,-247.468 1357.02,-257.456 1360.49,-247.444 1353.49,-247.468"/>
</g>
<!-- Node36 -->
<g id="node36" class="node"><title>Node36</title>
<g id="a_node36"><a xlink:href="buffer_8cpp.html" target="_top" xlink:title="modules/irc/network\l/buffer.cpp">
<polygon fill="none" stroke="black" points="1960,-190.5 1960,-220.5 2064,-220.5 2064,-190.5 1960,-190.5"/>
<text text-anchor="start" x="1968" y="-208.5" font-family="Helvetica,sans-Serif" font-size="10.00">modules/irc/network</text>
<text text-anchor="middle" x="2012" y="-197.5" font-family="Helvetica,sans-Serif" font-size="10.00">/buffer.cpp</text>
</a>
</g>
</g>
<!-- Node35&#45;&gt;Node36 -->
<g id="edge53" class="edge"><title>Node35&#45;&gt;Node36</title>
<path fill="none" stroke="midnightblue" d="M1418.18,-269.267C1526.84,-264.688 1758.13,-251.932 1951,-221 1953.9,-220.535 1956.87,-220.006 1959.86,-219.433"/>
<polygon fill="midnightblue" stroke="midnightblue" points="1417.89,-265.776 1408.05,-269.685 1418.18,-272.77 1417.89,-265.776"/>
</g>
<!-- Node37 -->
<g id="node37" class="node"><title>Node37</title>
<g id="a_node37"><a xlink:href="connection_8cpp.html" target="_top" xlink:title="modules/irc/network\l/connection.cpp">
<polygon fill="none" stroke="black" points="1838,-190.5 1838,-220.5 1942,-220.5 1942,-190.5 1838,-190.5"/>
<text text-anchor="start" x="1846" y="-208.5" font-family="Helvetica,sans-Serif" font-size="10.00">modules/irc/network</text>
<text text-anchor="middle" x="1890" y="-197.5" font-family="Helvetica,sans-Serif" font-size="10.00">/connection.cpp</text>
</a>
</g>
</g>
<!-- Node35&#45;&gt;Node37 -->
<g id="edge54" class="edge"><title>Node35&#45;&gt;Node37</title>
<path fill="none" stroke="midnightblue" d="M1418.21,-267.389C1508.98,-260.818 1682.83,-246.071 1829,-221 1831.9,-220.503 1834.86,-219.95 1837.85,-219.357"/>
<polygon fill="midnightblue" stroke="midnightblue" points="1417.82,-263.908 1408.09,-268.112 1418.32,-270.89 1417.82,-263.908"/>
</g>
<!-- Node38&#45;&gt;Node35 -->
<g id="edge61" class="edge"><title>Node38&#45;&gt;Node35</title>
<path fill="none" stroke="midnightblue" d="M1356,-314.108C1356,-305.154 1356,-295.323 1356,-287.577"/>
<polygon fill="midnightblue" stroke="midnightblue" points="1352.5,-314.396 1356,-324.396 1359.5,-314.396 1352.5,-314.396"/>
</g>
<!-- Node38&#45;&gt;Node36 -->
<g id="edge60" class="edge"><title>Node38&#45;&gt;Node36</title>
<path fill="none" stroke="midnightblue" d="M1418.39,-326.996C1526.91,-306.803 1757.39,-263.113 1951,-221 1953.87,-220.375 1956.82,-219.721 1959.79,-219.051"/>
<polygon fill="midnightblue" stroke="midnightblue" points="1417.46,-323.608 1408.27,-328.876 1418.74,-330.49 1417.46,-323.608"/>
</g>
</g>
</svg>
