<?xml version="1.0" encoding="UTF-8" standalone="no"?>
<!DOCTYPE svg PUBLIC "-//W3C//DTD SVG 1.1//EN"
 "http://www.w3.org/Graphics/SVG/1.1/DTD/svg11.dtd">
<!-- Generated by graphviz version 2.38.0 (20140413.2041)
 -->
<!-- Title: src/user/user_group.cpp Pages: 1 -->
<svg width="222pt" height="196pt"
 viewBox="0.00 0.00 221.50 196.00" xmlns="http://www.w3.org/2000/svg" xmlns:xlink="http://www.w3.org/1999/xlink">
<g id="graph0" class="graph" transform="scale(1 1) rotate(0) translate(4 192)">
<title>src/user/user_group.cpp</title>
<!-- Node1 -->
<g id="node1" class="node"><title>Node1</title>
<polygon fill="#bfbfbf" stroke="black" points="0,-168.5 0,-187.5 122,-187.5 122,-168.5 0,-168.5"/>
<text text-anchor="middle" x="61" y="-175.5" font-family="Helvetica,sans-Serif" font-size="10.00">src/user/user_group.cpp</text>
</g>
<!-- Node2 -->
<g id="node2" class="node"><title>Node2</title>
<g id="a_node2"><a xlink:href="user__group_8hpp.html" target="_top" xlink:title="user_group.hpp">
<polygon fill="none" stroke="black" points="19.5,-112.5 19.5,-131.5 102.5,-131.5 102.5,-112.5 19.5,-112.5"/>
<text text-anchor="middle" x="61" y="-119.5" font-family="Helvetica,sans-Serif" font-size="10.00">user_group.hpp</text>
</a>
</g>
</g>
<!-- Node1&#45;&gt;Node2 -->
<g id="edge1" class="edge"><title>Node1&#45;&gt;Node2</title>
<path fill="none" stroke="midnightblue" d="M61,-168.083C61,-161.006 61,-150.861 61,-141.986"/>
<polygon fill="midnightblue" stroke="midnightblue" points="64.5001,-141.751 61,-131.751 57.5001,-141.751 64.5001,-141.751"/>
</g>
<!-- Node3 -->
<g id="node3" class="node"><title>Node3</title>
<polygon fill="none" stroke="#bfbfbf" points="9,-0.5 9,-19.5 53,-19.5 53,-0.5 9,-0.5"/>
<text text-anchor="middle" x="31" y="-7.5" font-family="Helvetica,sans-Serif" font-size="10.00">vector</text>
</g>
<!-- Node2&#45;&gt;Node3 -->
<g id="edge2" class="edge"><title>Node2&#45;&gt;Node3</title>
<path fill="none" stroke="midnightblue" d="M58.646,-112.368C53.7827,-94.5366 42.5351,-53.2953 35.9832,-29.2717"/>
<polygon fill="midnightblue" stroke="midnightblue" points="39.351,-28.3181 33.3431,-19.5914 32.5977,-30.16 39.351,-28.3181"/>
</g>
<!-- Node4 -->
<g id="node4" class="node"><title>Node4</title>
<g id="a_node4"><a xlink:href="user_8hpp.html" target="_top" xlink:title="user.hpp">
<polygon fill="none" stroke="black" points="63,-56.5 63,-75.5 117,-75.5 117,-56.5 63,-56.5"/>
<text text-anchor="middle" x="90" y="-63.5" font-family="Helvetica,sans-Serif" font-size="10.00">user.hpp</text>
</a>
</g>
</g>
<!-- Node2&#45;&gt;Node4 -->
<g id="edge3" class="edge"><title>Node2&#45;&gt;Node4</title>
<path fill="none" stroke="midnightblue" d="M65.7888,-112.083C69.7584,-104.691 75.5251,-93.9533 80.4348,-84.8111"/>
<polygon fill="midnightblue" stroke="midnightblue" points="83.6525,-86.217 85.3003,-75.7511 77.4855,-82.9051 83.6525,-86.217"/>
</g>
<!-- Node4&#45;&gt;Node3 -->
<g id="edge5" class="edge"><title>Node4&#45;&gt;Node3</title>
<path fill="none" stroke="midnightblue" d="M80.5206,-56.324C71.7989,-48.3414 58.6565,-36.3128 48.1022,-26.6529"/>
<polygon fill="midnightblue" stroke="midnightblue" points="50.3917,-24.0036 40.6519,-19.8339 45.6655,-29.1674 50.3917,-24.0036"/>
</g>
<!-- Node5 -->
<g id="node5" class="node"><title>Node5</title>
<polygon fill="none" stroke="#bfbfbf" points="71.5,-0.5 71.5,-19.5 112.5,-19.5 112.5,-0.5 71.5,-0.5"/>
<text text-anchor="middle" x="92" y="-7.5" font-family="Helvetica,sans-Serif" font-size="10.00">string</text>
</g>
<!-- Node4&#45;&gt;Node5 -->
<g id="edge4" class="edge"><title>Node4&#45;&gt;Node5</title>
<path fill="none" stroke="midnightblue" d="M90.3303,-56.083C90.5924,-49.0059 90.9681,-38.8611 91.2968,-29.9865"/>
<polygon fill="midnightblue" stroke="midnightblue" points="94.8033,-29.8738 91.6759,-19.7511 87.8081,-29.6147 94.8033,-29.8738"/>
</g>
<!-- Node6 -->
<g id="node6" class="node"><title>Node6</title>
<polygon fill="none" stroke="#bfbfbf" points="130.5,-0.5 130.5,-19.5 213.5,-19.5 213.5,-0.5 130.5,-0.5"/>
<text text-anchor="middle" x="172" y="-7.5" font-family="Helvetica,sans-Serif" font-size="10.00">unordered_map</text>
</g>
<!-- Node4&#45;&gt;Node6 -->
<g id="edge6" class="edge"><title>Node4&#45;&gt;Node6</title>
<path fill="none" stroke="midnightblue" d="M103.175,-56.324C115.847,-47.979 135.233,-35.2122 150.206,-25.3524"/>
<polygon fill="midnightblue" stroke="midnightblue" points="152.431,-28.0776 158.858,-19.6545 148.581,-22.2313 152.431,-28.0776"/>
</g>
</g>
</svg>
