<?xml version="1.0" encoding="UTF-8" standalone="no"?>
<!DOCTYPE svg PUBLIC "-//W3C//DTD SVG 1.1//EN"
 "http://www.w3.org/Graphics/SVG/1.1/DTD/svg11.dtd">
<!-- Generated by graphviz version 2.38.0 (20140413.2041)
 -->
<!-- Title: src/user/user_manager.hpp Pages: 1 -->
<svg width="1377pt" height="308pt"
 viewBox="0.00 0.00 1377.00 308.00" xmlns="http://www.w3.org/2000/svg" xmlns:xlink="http://www.w3.org/1999/xlink">
<g id="graph0" class="graph" transform="scale(1 1) rotate(0) translate(4 304)">
<title>src/user/user_manager.hpp</title>
<!-- Node1 -->
<g id="node1" class="node"><title>Node1</title>
<polygon fill="#bfbfbf" stroke="black" points="740.5,-280.5 740.5,-299.5 875.5,-299.5 875.5,-280.5 740.5,-280.5"/>
<text text-anchor="middle" x="808" y="-287.5" font-family="Helvetica,sans-Serif" font-size="10.00">src/user/user_manager.hpp</text>
</g>
<!-- Node2 -->
<g id="node2" class="node"><title>Node2</title>
<g id="a_node2"><a xlink:href="user__manager_8cpp.html" target="_top" xlink:title="src/user/user_manager.cpp">
<polygon fill="none" stroke="black" points="663.5,-224.5 663.5,-243.5 798.5,-243.5 798.5,-224.5 663.5,-224.5"/>
<text text-anchor="middle" x="731" y="-231.5" font-family="Helvetica,sans-Serif" font-size="10.00">src/user/user_manager.cpp</text>
</a>
</g>
</g>
<!-- Node1&#45;&gt;Node2 -->
<g id="edge1" class="edge"><title>Node1&#45;&gt;Node2</title>
<path fill="none" stroke="midnightblue" d="M787.099,-274.342C773.089,-264.517 755.117,-251.913 743.341,-243.655"/>
<polygon fill="midnightblue" stroke="midnightblue" points="785.432,-277.448 795.629,-280.324 789.451,-271.717 785.432,-277.448"/>
</g>
<!-- Node3 -->
<g id="node3" class="node"><title>Node3</title>
<g id="a_node3"><a xlink:href="connection_8hpp.html" target="_top" xlink:title="src/network/connection.hpp">
<polygon fill="none" stroke="black" points="816.5,-224.5 816.5,-243.5 953.5,-243.5 953.5,-224.5 816.5,-224.5"/>
<text text-anchor="middle" x="885" y="-231.5" font-family="Helvetica,sans-Serif" font-size="10.00">src/network/connection.hpp</text>
</a>
</g>
</g>
<!-- Node1&#45;&gt;Node3 -->
<g id="edge2" class="edge"><title>Node1&#45;&gt;Node3</title>
<path fill="none" stroke="midnightblue" d="M828.901,-274.342C842.911,-264.517 860.883,-251.913 872.659,-243.655"/>
<polygon fill="midnightblue" stroke="midnightblue" points="826.549,-271.717 820.371,-280.324 830.568,-277.448 826.549,-271.717"/>
</g>
<!-- Node4 -->
<g id="node4" class="node"><title>Node4</title>
<g id="a_node4"><a xlink:href="melanobot_8hpp.html" target="_top" xlink:title="src/melanobot.hpp">
<polygon fill="none" stroke="black" points="797.5,-168.5 797.5,-187.5 894.5,-187.5 894.5,-168.5 797.5,-168.5"/>
<text text-anchor="middle" x="846" y="-175.5" font-family="Helvetica,sans-Serif" font-size="10.00">src/melanobot.hpp</text>
</a>
</g>
</g>
<!-- Node3&#45;&gt;Node4 -->
<g id="edge3" class="edge"><title>Node3&#45;&gt;Node4</title>
<path fill="none" stroke="midnightblue" d="M872.618,-215.855C865.865,-206.505 857.791,-195.327 852.32,-187.751"/>
<polygon fill="midnightblue" stroke="midnightblue" points="869.868,-218.025 878.56,-224.083 875.542,-213.927 869.868,-218.025"/>
</g>
<!-- Node6 -->
<g id="node6" class="node"><title>Node6</title>
<g id="a_node6"><a xlink:href="handler_8hpp.html" target="_top" xlink:title="src/handler/handler.hpp">
<polygon fill="none" stroke="black" points="575,-112.5 575,-131.5 693,-131.5 693,-112.5 575,-112.5"/>
<text text-anchor="middle" x="634" y="-119.5" font-family="Helvetica,sans-Serif" font-size="10.00">src/handler/handler.hpp</text>
</a>
</g>
</g>
<!-- Node3&#45;&gt;Node6 -->
<g id="edge21" class="edge"><title>Node3&#45;&gt;Node6</title>
<path fill="none" stroke="midnightblue" d="M856.032,-220.305C804.361,-197.66 697.597,-150.871 653.604,-131.591"/>
<polygon fill="midnightblue" stroke="midnightblue" points="854.74,-223.56 865.304,-224.368 857.55,-217.149 854.74,-223.56"/>
</g>
<!-- Node16 -->
<g id="node16" class="node"><title>Node16</title>
<g id="a_node16"><a xlink:href="irc__connection_8hpp.html" target="_top" xlink:title="src/network/irc_connection.hpp">
<polygon fill="none" stroke="black" points="921,-112.5 921,-131.5 1073,-131.5 1073,-112.5 921,-112.5"/>
<text text-anchor="middle" x="997" y="-119.5" font-family="Helvetica,sans-Serif" font-size="10.00">src/network/irc_connection.hpp</text>
</a>
</g>
</g>
<!-- Node3&#45;&gt;Node16 -->
<g id="edge22" class="edge"><title>Node3&#45;&gt;Node16</title>
<path fill="none" stroke="midnightblue" d="M898.423,-216.203C909.548,-202.66 926.064,-183.401 942,-168 956.017,-154.454 973.683,-140.487 985.153,-131.779"/>
<polygon fill="midnightblue" stroke="midnightblue" points="895.534,-214.208 891.952,-224.179 900.97,-218.619 895.534,-214.208"/>
</g>
<!-- Node20 -->
<g id="node20" class="node"><title>Node20</title>
<g id="a_node20"><a xlink:href="irc__buffer_8hpp.html" target="_top" xlink:title="src/network/irc_buffer.hpp">
<polygon fill="none" stroke="black" points="951,-168.5 951,-187.5 1081,-187.5 1081,-168.5 951,-168.5"/>
<text text-anchor="middle" x="1016" y="-175.5" font-family="Helvetica,sans-Serif" font-size="10.00">src/network/irc_buffer.hpp</text>
</a>
</g>
</g>
<!-- Node3&#45;&gt;Node20 -->
<g id="edge23" class="edge"><title>Node3&#45;&gt;Node20</title>
<path fill="none" stroke="midnightblue" d="M915.317,-220.503C939.876,-210.38 973.818,-196.388 995.34,-187.516"/>
<polygon fill="midnightblue" stroke="midnightblue" points="913.669,-217.397 905.757,-224.444 916.337,-223.868 913.669,-217.397"/>
</g>
<!-- Node5 -->
<g id="node5" class="node"><title>Node5</title>
<g id="a_node5"><a xlink:href="melanobot_8cpp.html" target="_top" xlink:title="src/melanobot.cpp">
<polygon fill="none" stroke="black" points="807.5,-56.5 807.5,-75.5 904.5,-75.5 904.5,-56.5 807.5,-56.5"/>
<text text-anchor="middle" x="856" y="-63.5" font-family="Helvetica,sans-Serif" font-size="10.00">src/melanobot.cpp</text>
</a>
</g>
</g>
<!-- Node4&#45;&gt;Node5 -->
<g id="edge4" class="edge"><title>Node4&#45;&gt;Node5</title>
<path fill="none" stroke="midnightblue" d="M847.696,-158.348C849.886,-134.254 853.608,-93.3079 855.219,-75.5914"/>
<polygon fill="midnightblue" stroke="midnightblue" points="844.205,-158.093 846.785,-168.368 851.176,-158.726 844.205,-158.093"/>
</g>
<!-- Node4&#45;&gt;Node6 -->
<g id="edge5" class="edge"><title>Node4&#45;&gt;Node6</title>
<path fill="none" stroke="midnightblue" d="M802.654,-165.959C762.613,-155.76 703.967,-140.822 667.435,-131.516"/>
<polygon fill="midnightblue" stroke="midnightblue" points="801.853,-169.367 812.408,-168.444 803.581,-162.583 801.853,-169.367"/>
</g>
<!-- Node4&#45;&gt;Node16 -->
<g id="edge16" class="edge"><title>Node4&#45;&gt;Node16</title>
<path fill="none" stroke="midnightblue" d="M879.446,-165.039C907.858,-154.879 947.937,-140.546 973.186,-131.516"/>
<polygon fill="midnightblue" stroke="midnightblue" points="878.164,-161.781 869.926,-168.444 880.521,-168.372 878.164,-161.781"/>
</g>
<!-- Node19 -->
<g id="node19" class="node"><title>Node19</title>
<g id="a_node19"><a xlink:href="main_8cpp.html" target="_top" xlink:title="src/main.cpp">
<polygon fill="none" stroke="black" points="754.5,-112.5 754.5,-131.5 827.5,-131.5 827.5,-112.5 754.5,-112.5"/>
<text text-anchor="middle" x="791" y="-119.5" font-family="Helvetica,sans-Serif" font-size="10.00">src/main.cpp</text>
</a>
</g>
</g>
<!-- Node4&#45;&gt;Node19 -->
<g id="edge20" class="edge"><title>Node4&#45;&gt;Node19</title>
<path fill="none" stroke="midnightblue" d="M829.706,-161.002C819.959,-151.433 807.947,-139.639 799.913,-131.751"/>
<polygon fill="midnightblue" stroke="midnightblue" points="827.33,-163.575 836.918,-168.083 832.234,-158.58 827.33,-163.575"/>
</g>
<!-- Node6&#45;&gt;Node5 -->
<g id="edge6" class="edge"><title>Node6&#45;&gt;Node5</title>
<path fill="none" stroke="midnightblue" d="M679.125,-110.024C721.06,-99.8232 782.652,-84.8414 820.988,-75.5164"/>
<polygon fill="midnightblue" stroke="midnightblue" points="678.066,-106.679 669.177,-112.444 679.72,-113.481 678.066,-106.679"/>
</g>
<!-- Node7 -->
<g id="node7" class="node"><title>Node7</title>
<g id="a_node7"><a xlink:href="ctcp_8cpp.html" target="_top" xlink:title="This files has handlers for CTCP messages. ">
<polygon fill="none" stroke="black" points="136.5,-56.5 136.5,-75.5 241.5,-75.5 241.5,-56.5 136.5,-56.5"/>
<text text-anchor="middle" x="189" y="-63.5" font-family="Helvetica,sans-Serif" font-size="10.00">src/handler/ctcp.cpp</text>
</a>
</g>
</g>
<!-- Node6&#45;&gt;Node7 -->
<g id="edge7" class="edge"><title>Node6&#45;&gt;Node7</title>
<path fill="none" stroke="midnightblue" d="M564.862,-113.449C488.109,-104.934 360.586,-90.389 251,-76 247.98,-75.6035 244.88,-75.1861 241.752,-74.7571"/>
<polygon fill="midnightblue" stroke="midnightblue" points="564.563,-116.937 574.887,-114.559 565.333,-109.98 564.563,-116.937"/>
</g>
<!-- Node8 -->
<g id="node8" class="node"><title>Node8</title>
<g id="a_node8"><a xlink:href="web-api_8hpp.html" target="_top" xlink:title="src/handler/web&#45;api.hpp">
<polygon fill="none" stroke="black" points="260,-56.5 260,-75.5 380,-75.5 380,-56.5 260,-56.5"/>
<text text-anchor="middle" x="320" y="-63.5" font-family="Helvetica,sans-Serif" font-size="10.00">src/handler/web&#45;api.hpp</text>
</a>
</g>
</g>
<!-- Node6&#45;&gt;Node8 -->
<g id="edge8" class="edge"><title>Node6&#45;&gt;Node8</title>
<path fill="none" stroke="midnightblue" d="M574.267,-110.727C514.93,-100.523 425.006,-85.0583 369.521,-75.5164"/>
<polygon fill="midnightblue" stroke="midnightblue" points="573.797,-114.198 584.246,-112.444 574.984,-107.299 573.797,-114.198"/>
</g>
<!-- Node11 -->
<g id="node11" class="node"><title>Node11</title>
<g id="a_node11"><a xlink:href="misc_8cpp.html" target="_top" xlink:title="This file defines handlers which perform miscellaneous tasks. ">
<polygon fill="none" stroke="black" points="398.5,-56.5 398.5,-75.5 505.5,-75.5 505.5,-56.5 398.5,-56.5"/>
<text text-anchor="middle" x="452" y="-63.5" font-family="Helvetica,sans-Serif" font-size="10.00">src/handler/misc.cpp</text>
</a>
</g>
</g>
<!-- Node6&#45;&gt;Node11 -->
<g id="edge11" class="edge"><title>Node6&#45;&gt;Node11</title>
<path fill="none" stroke="midnightblue" d="M595.469,-109.568C561.136,-99.381 511.667,-84.7034 480.704,-75.5164"/>
<polygon fill="midnightblue" stroke="midnightblue" points="594.579,-112.954 605.162,-112.444 596.57,-106.244 594.579,-112.954"/>
</g>
<!-- Node12 -->
<g id="node12" class="node"><title>Node12</title>
<g id="a_node12"><a xlink:href="irc__actions_8cpp.html" target="_top" xlink:title="src/handler/irc_actions.cpp">
<polygon fill="none" stroke="black" points="524,-56.5 524,-75.5 658,-75.5 658,-56.5 524,-56.5"/>
<text text-anchor="middle" x="591" y="-63.5" font-family="Helvetica,sans-Serif" font-size="10.00">src/handler/irc_actions.cpp</text>
</a>
</g>
</g>
<!-- Node6&#45;&gt;Node12 -->
<g id="edge12" class="edge"><title>Node6&#45;&gt;Node12</title>
<path fill="none" stroke="midnightblue" d="M620.578,-104.144C613.086,-94.7357 604.063,-83.4046 597.968,-75.7511"/>
<polygon fill="midnightblue" stroke="midnightblue" points="617.932,-106.44 626.899,-112.083 623.408,-102.08 617.932,-106.44"/>
</g>
<!-- Node13 -->
<g id="node13" class="node"><title>Node13</title>
<g id="a_node13"><a xlink:href="irc__whois_8cpp.html" target="_top" xlink:title="This file contains handlers for WHOIS recognition on IRC. ">
<polygon fill="none" stroke="black" points="923,-56.5 923,-75.5 1051,-75.5 1051,-56.5 923,-56.5"/>
<text text-anchor="middle" x="987" y="-63.5" font-family="Helvetica,sans-Serif" font-size="10.00">src/handler/irc_whois.cpp</text>
</a>
</g>
</g>
<!-- Node6&#45;&gt;Node13 -->
<g id="edge13" class="edge"><title>Node6&#45;&gt;Node13</title>
<path fill="none" stroke="midnightblue" d="M699.915,-110.917C766.604,-100.715 868.566,-85.1174 931.328,-75.5164"/>
<polygon fill="midnightblue" stroke="midnightblue" points="699.29,-107.472 689.934,-112.444 700.348,-114.391 699.29,-107.472"/>
</g>
<!-- Node14 -->
<g id="node14" class="node"><title>Node14</title>
<g id="a_node14"><a xlink:href="admin_8cpp.html" target="_top" xlink:title="This file defines handlers which allows admin to administrate the bot (Mostly IRC&#45;specific action) ...">
<polygon fill="none" stroke="black" points="676.5,-56.5 676.5,-75.5 789.5,-75.5 789.5,-56.5 676.5,-56.5"/>
<text text-anchor="middle" x="733" y="-63.5" font-family="Helvetica,sans-Serif" font-size="10.00">src/handler/admin.cpp</text>
</a>
</g>
</g>
<!-- Node6&#45;&gt;Node14 -->
<g id="edge14" class="edge"><title>Node6&#45;&gt;Node14</title>
<path fill="none" stroke="midnightblue" d="M658.837,-107.453C677.114,-97.4835 701.416,-84.2279 717.133,-75.6545"/>
<polygon fill="midnightblue" stroke="midnightblue" points="657.009,-104.463 649.906,-112.324 660.361,-110.608 657.009,-104.463"/>
</g>
<!-- Node15 -->
<g id="node15" class="node"><title>Node15</title>
<g id="a_node15"><a xlink:href="handler_8cpp.html" target="_top" xlink:title="This file contains the definitions for the most basic and reusable handlers. ">
<polygon fill="none" stroke="black" points="0,-56.5 0,-75.5 118,-75.5 118,-56.5 0,-56.5"/>
<text text-anchor="middle" x="59" y="-63.5" font-family="Helvetica,sans-Serif" font-size="10.00">src/handler/handler.cpp</text>
</a>
</g>
</g>
<!-- Node6&#45;&gt;Node15 -->
<g id="edge15" class="edge"><title>Node6&#45;&gt;Node15</title>
<path fill="none" stroke="midnightblue" d="M564.944,-115.818C467.286,-108.275 283.3,-93.2716 127,-76 124.159,-75.6861 121.253,-75.3519 118.32,-75.0041"/>
<polygon fill="midnightblue" stroke="midnightblue" points="564.743,-119.313 574.982,-116.591 565.28,-112.334 564.743,-119.313"/>
</g>
<!-- Node9 -->
<g id="node9" class="node"><title>Node9</title>
<g id="a_node9"><a xlink:href="web-api_8cpp.html" target="_top" xlink:title="This files defines some simple Handlers using web APIs. ">
<polygon fill="none" stroke="black" points="196,-0.5 196,-19.5 316,-19.5 316,-0.5 196,-0.5"/>
<text text-anchor="middle" x="256" y="-7.5" font-family="Helvetica,sans-Serif" font-size="10.00">src/handler/web&#45;api.cpp</text>
</a>
</g>
</g>
<!-- Node8&#45;&gt;Node9 -->
<g id="edge9" class="edge"><title>Node8&#45;&gt;Node9</title>
<path fill="none" stroke="midnightblue" d="M302.009,-49.8197C290.542,-40.1452 276.087,-27.9481 266.47,-19.8339"/>
<polygon fill="midnightblue" stroke="midnightblue" points="299.817,-52.5502 309.717,-56.324 304.331,-47.2002 299.817,-52.5502"/>
</g>
<!-- Node10 -->
<g id="node10" class="node"><title>Node10</title>
<g id="a_node10"><a xlink:href="fun_8cpp.html" target="_top" xlink:title="This file contains definitions for handlers which are pretty useless. ">
<polygon fill="none" stroke="black" points="334,-0.5 334,-19.5 434,-19.5 434,-0.5 334,-0.5"/>
<text text-anchor="middle" x="384" y="-7.5" font-family="Helvetica,sans-Serif" font-size="10.00">src/handler/fun.cpp</text>
</a>
</g>
</g>
<!-- Node8&#45;&gt;Node10 -->
<g id="edge10" class="edge"><title>Node8&#45;&gt;Node10</title>
<path fill="none" stroke="midnightblue" d="M337.991,-49.8197C349.458,-40.1452 363.913,-27.9481 373.53,-19.8339"/>
<polygon fill="midnightblue" stroke="midnightblue" points="335.669,-47.2002 330.283,-56.324 340.183,-52.5502 335.669,-47.2002"/>
</g>
<!-- Node16&#45;&gt;Node13 -->
<g id="edge17" class="edge"><title>Node16&#45;&gt;Node13</title>
<path fill="none" stroke="midnightblue" d="M993.5,-102.101C991.84,-93.1357 989.937,-82.8579 988.621,-75.7511"/>
<polygon fill="midnightblue" stroke="midnightblue" points="990.086,-102.888 995.349,-112.083 996.969,-101.613 990.086,-102.888"/>
</g>
<!-- Node17 -->
<g id="node17" class="node"><title>Node17</title>
<g id="a_node17"><a xlink:href="irc__connection_8cpp.html" target="_top" xlink:title="src/network/irc_connection.cpp">
<polygon fill="none" stroke="black" points="1069,-56.5 1069,-75.5 1221,-75.5 1221,-56.5 1069,-56.5"/>
<text text-anchor="middle" x="1145" y="-63.5" font-family="Helvetica,sans-Serif" font-size="10.00">src/network/irc_connection.cpp</text>
</a>
</g>
</g>
<!-- Node16&#45;&gt;Node17 -->
<g id="edge18" class="edge"><title>Node16&#45;&gt;Node17</title>
<path fill="none" stroke="midnightblue" d="M1030.15,-108.906C1057.97,-98.7536 1097.02,-84.5063 1121.66,-75.5164"/>
<polygon fill="midnightblue" stroke="midnightblue" points="1028.65,-105.728 1020.45,-112.444 1031.04,-112.304 1028.65,-105.728"/>
</g>
<!-- Node18 -->
<g id="node18" class="node"><title>Node18</title>
<g id="a_node18"><a xlink:href="irc__buffer_8cpp.html" target="_top" xlink:title="src/network/irc_buffer.cpp">
<polygon fill="none" stroke="black" points="1239,-56.5 1239,-75.5 1369,-75.5 1369,-56.5 1239,-56.5"/>
<text text-anchor="middle" x="1304" y="-63.5" font-family="Helvetica,sans-Serif" font-size="10.00">src/network/irc_buffer.cpp</text>
</a>
</g>
</g>
<!-- Node16&#45;&gt;Node18 -->
<g id="edge19" class="edge"><title>Node16&#45;&gt;Node18</title>
<path fill="none" stroke="midnightblue" d="M1055.76,-110.664C1113.78,-100.459 1201.45,-85.0386 1255.58,-75.5164"/>
<polygon fill="midnightblue" stroke="midnightblue" points="1054.89,-107.264 1045.65,-112.444 1056.1,-114.158 1054.89,-107.264"/>
</g>
<!-- Node20&#45;&gt;Node16 -->
<g id="edge24" class="edge"><title>Node20&#45;&gt;Node16</title>
<path fill="none" stroke="midnightblue" d="M1009.45,-158.396C1006.28,-149.362 1002.61,-138.936 1000.08,-131.751"/>
<polygon fill="midnightblue" stroke="midnightblue" points="1006.24,-159.812 1012.86,-168.083 1012.85,-157.488 1006.24,-159.812"/>
</g>
<!-- Node20&#45;&gt;Node18 -->
<g id="edge25" class="edge"><title>Node20&#45;&gt;Node18</title>
<path fill="none" stroke="midnightblue" d="M1048.14,-164.726C1106.99,-142.245 1230.71,-94.9914 1281.51,-75.5914"/>
<polygon fill="midnightblue" stroke="midnightblue" points="1046.69,-161.531 1038.6,-168.368 1049.19,-168.07 1046.69,-161.531"/>
</g>
</g>
</svg>
