<?xml version="1.0" encoding="UTF-8" standalone="no"?>
<!DOCTYPE svg PUBLIC "-//W3C//DTD SVG 1.1//EN"
 "http://www.w3.org/Graphics/SVG/1.1/DTD/svg11.dtd">
<!-- Generated by graphviz version 2.38.0 (20140413.2041)
 -->
<!-- Title: src/user/user_manager.hpp Pages: 1 -->
<svg width="645pt" height="308pt"
 viewBox="0.00 0.00 644.50 308.00" xmlns="http://www.w3.org/2000/svg" xmlns:xlink="http://www.w3.org/1999/xlink">
<g id="graph0" class="graph" transform="scale(1 1) rotate(0) translate(4 304)">
<title>src/user/user_manager.hpp</title>
<!-- Node1 -->
<g id="node1" class="node"><title>Node1</title>
<polygon fill="#bfbfbf" stroke="black" points="295,-280.5 295,-299.5 430,-299.5 430,-280.5 295,-280.5"/>
<text text-anchor="middle" x="362.5" y="-287.5" font-family="Helvetica,sans-Serif" font-size="10.00">src/user/user_manager.hpp</text>
</g>
<!-- Node2 -->
<g id="node2" class="node"><title>Node2</title>
<g id="a_node2"><a xlink:href="user__manager_8cpp.html" target="_top" xlink:title="src/user/user_manager.cpp">
<polygon fill="none" stroke="black" points="218,-224.5 218,-243.5 353,-243.5 353,-224.5 218,-224.5"/>
<text text-anchor="middle" x="285.5" y="-231.5" font-family="Helvetica,sans-Serif" font-size="10.00">src/user/user_manager.cpp</text>
</a>
</g>
</g>
<!-- Node1&#45;&gt;Node2 -->
<g id="edge1" class="edge"><title>Node1&#45;&gt;Node2</title>
<path fill="none" stroke="midnightblue" d="M341.599,-274.342C327.589,-264.517 309.617,-251.913 297.841,-243.655"/>
<polygon fill="midnightblue" stroke="midnightblue" points="339.932,-277.448 350.129,-280.324 343.951,-271.717 339.932,-277.448"/>
</g>
<!-- Node3 -->
<g id="node3" class="node"><title>Node3</title>
<g id="a_node3"><a xlink:href="connection_8hpp.html" target="_top" xlink:title="src/network/connection.hpp">
<polygon fill="none" stroke="black" points="371,-224.5 371,-243.5 508,-243.5 508,-224.5 371,-224.5"/>
<text text-anchor="middle" x="439.5" y="-231.5" font-family="Helvetica,sans-Serif" font-size="10.00">src/network/connection.hpp</text>
</a>
</g>
</g>
<!-- Node1&#45;&gt;Node3 -->
<g id="edge2" class="edge"><title>Node1&#45;&gt;Node3</title>
<path fill="none" stroke="midnightblue" d="M383.401,-274.342C397.411,-264.517 415.383,-251.913 427.159,-243.655"/>
<polygon fill="midnightblue" stroke="midnightblue" points="381.049,-271.717 374.871,-280.324 385.068,-277.448 381.049,-271.717"/>
</g>
<!-- Node4 -->
<g id="node4" class="node"><title>Node4</title>
<g id="a_node4"><a xlink:href="melanobot_8hpp.html" target="_top" xlink:title="src/melanobot.hpp">
<polygon fill="none" stroke="black" points="391,-168.5 391,-187.5 488,-187.5 488,-168.5 391,-168.5"/>
<text text-anchor="middle" x="439.5" y="-175.5" font-family="Helvetica,sans-Serif" font-size="10.00">src/melanobot.hpp</text>
</a>
</g>
</g>
<!-- Node3&#45;&gt;Node4 -->
<g id="edge3" class="edge"><title>Node3&#45;&gt;Node4</title>
<path fill="none" stroke="midnightblue" d="M439.5,-213.805C439.5,-204.91 439.5,-194.78 439.5,-187.751"/>
<polygon fill="midnightblue" stroke="midnightblue" points="436,-214.083 439.5,-224.083 443,-214.083 436,-214.083"/>
</g>
<!-- Node6 -->
<g id="node6" class="node"><title>Node6</title>
<g id="a_node6"><a xlink:href="handler_8hpp.html" target="_top" xlink:title="src/handler/handler.hpp">
<polygon fill="none" stroke="black" points="270.5,-112.5 270.5,-131.5 388.5,-131.5 388.5,-112.5 270.5,-112.5"/>
<text text-anchor="middle" x="329.5" y="-119.5" font-family="Helvetica,sans-Serif" font-size="10.00">src/handler/handler.hpp</text>
</a>
</g>
</g>
<!-- Node3&#45;&gt;Node6 -->
<g id="edge14" class="edge"><title>Node3&#45;&gt;Node6</title>
<path fill="none" stroke="midnightblue" d="M418.733,-218.328C407.512,-209.986 393.702,-199.027 382.5,-188 363.822,-169.614 345.208,-144.948 335.801,-131.924"/>
<polygon fill="midnightblue" stroke="midnightblue" points="416.934,-221.349 427.077,-224.409 421.057,-215.691 416.934,-221.349"/>
</g>
<!-- Node11 -->
<g id="node11" class="node"><title>Node11</title>
<g id="a_node11"><a xlink:href="irc_8hpp.html" target="_top" xlink:title="src/network/irc.hpp">
<polygon fill="none" stroke="black" points="536.5,-112.5 536.5,-131.5 636.5,-131.5 636.5,-112.5 536.5,-112.5"/>
<text text-anchor="middle" x="586.5" y="-119.5" font-family="Helvetica,sans-Serif" font-size="10.00">src/network/irc.hpp</text>
</a>
</g>
</g>
<!-- Node3&#45;&gt;Node11 -->
<g id="edge15" class="edge"><title>Node3&#45;&gt;Node11</title>
<path fill="none" stroke="midnightblue" d="M459.388,-218.118C490.591,-194.769 550.057,-150.27 575.019,-131.591"/>
<polygon fill="midnightblue" stroke="midnightblue" points="456.944,-215.575 451.035,-224.368 461.138,-221.179 456.944,-215.575"/>
</g>
<!-- Node5 -->
<g id="node5" class="node"><title>Node5</title>
<g id="a_node5"><a xlink:href="melanobot_8cpp.html" target="_top" xlink:title="src/melanobot.cpp">
<polygon fill="none" stroke="black" points="407,-56.5 407,-75.5 504,-75.5 504,-56.5 407,-56.5"/>
<text text-anchor="middle" x="455.5" y="-63.5" font-family="Helvetica,sans-Serif" font-size="10.00">src/melanobot.cpp</text>
</a>
</g>
</g>
<!-- Node4&#45;&gt;Node5 -->
<g id="edge4" class="edge"><title>Node4&#45;&gt;Node5</title>
<path fill="none" stroke="midnightblue" d="M436.248,-158.385C434.54,-145.287 433.379,-127.414 436.5,-112 439.192,-98.7013 445.941,-84.4478 450.624,-75.6279"/>
<polygon fill="midnightblue" stroke="midnightblue" points="432.822,-159.131 437.797,-168.485 439.741,-158.07 432.822,-159.131"/>
</g>
<!-- Node4&#45;&gt;Node6 -->
<g id="edge5" class="edge"><title>Node4&#45;&gt;Node6</title>
<path fill="none" stroke="midnightblue" d="M412.738,-163.862C392.341,-153.849 364.834,-140.346 347.13,-131.655"/>
<polygon fill="midnightblue" stroke="midnightblue" points="411.308,-167.059 421.827,-168.324 414.392,-160.775 411.308,-167.059"/>
</g>
<!-- Node4&#45;&gt;Node11 -->
<g id="edge11" class="edge"><title>Node4&#45;&gt;Node11</title>
<path fill="none" stroke="midnightblue" d="M472.423,-164.906C500.06,-154.754 538.844,-140.506 563.316,-131.516"/>
<polygon fill="midnightblue" stroke="midnightblue" points="470.972,-161.71 462.793,-168.444 473.386,-168.281 470.972,-161.71"/>
</g>
<!-- Node13 -->
<g id="node13" class="node"><title>Node13</title>
<g id="a_node13"><a xlink:href="main_8cpp.html" target="_top" xlink:title="src/main.cpp">
<polygon fill="none" stroke="black" points="445,-112.5 445,-131.5 518,-131.5 518,-112.5 445,-112.5"/>
<text text-anchor="middle" x="481.5" y="-119.5" font-family="Helvetica,sans-Serif" font-size="10.00">src/main.cpp</text>
</a>
</g>
</g>
<!-- Node4&#45;&gt;Node13 -->
<g id="edge13" class="edge"><title>Node4&#45;&gt;Node13</title>
<path fill="none" stroke="midnightblue" d="M452.61,-160.144C459.928,-150.736 468.741,-139.405 474.694,-131.751"/>
<polygon fill="midnightblue" stroke="midnightblue" points="449.812,-158.041 446.435,-168.083 455.338,-162.338 449.812,-158.041"/>
</g>
<!-- Node6&#45;&gt;Node5 -->
<g id="edge6" class="edge"><title>Node6&#45;&gt;Node5</title>
<path fill="none" stroke="midnightblue" d="M358.66,-108.503C382.281,-98.3795 414.928,-84.388 435.628,-75.5164"/>
<polygon fill="midnightblue" stroke="midnightblue" points="357.278,-105.287 349.465,-112.444 360.035,-111.721 357.278,-105.287"/>
</g>
<!-- Node7 -->
<g id="node7" class="node"><title>Node7</title>
<g id="a_node7"><a xlink:href="web-api_8hpp.html" target="_top" xlink:title="src/handler/web&#45;api.hpp">
<polygon fill="none" stroke="black" points="269.5,-56.5 269.5,-75.5 389.5,-75.5 389.5,-56.5 269.5,-56.5"/>
<text text-anchor="middle" x="329.5" y="-63.5" font-family="Helvetica,sans-Serif" font-size="10.00">src/handler/web&#45;api.hpp</text>
</a>
</g>
</g>
<!-- Node6&#45;&gt;Node7 -->
<g id="edge7" class="edge"><title>Node6&#45;&gt;Node7</title>
<path fill="none" stroke="midnightblue" d="M329.5,-101.805C329.5,-92.9102 329.5,-82.7798 329.5,-75.7511"/>
<polygon fill="midnightblue" stroke="midnightblue" points="326,-102.083 329.5,-112.083 333,-102.083 326,-102.083"/>
</g>
<!-- Node9 -->
<g id="node9" class="node"><title>Node9</title>
<g id="a_node9"><a xlink:href="simple_8cpp.html" target="_top" xlink:title="src/handler/simple.cpp">
<polygon fill="none" stroke="black" points="0,-56.5 0,-75.5 115,-75.5 115,-56.5 0,-56.5"/>
<text text-anchor="middle" x="57.5" y="-63.5" font-family="Helvetica,sans-Serif" font-size="10.00">src/handler/simple.cpp</text>
</a>
</g>
</g>
<!-- Node6&#45;&gt;Node9 -->
<g id="edge9" class="edge"><title>Node6&#45;&gt;Node9</title>
<path fill="none" stroke="midnightblue" d="M276.477,-110.473C225.071,-100.268 148.063,-84.9794 100.398,-75.5164"/>
<polygon fill="midnightblue" stroke="midnightblue" points="275.911,-113.929 286.401,-112.444 277.274,-107.063 275.911,-113.929"/>
</g>
<!-- Node10 -->
<g id="node10" class="node"><title>Node10</title>
<g id="a_node10"><a xlink:href="handler_8cpp.html" target="_top" xlink:title="src/handler/handler.cpp">
<polygon fill="none" stroke="black" points="133.5,-56.5 133.5,-75.5 251.5,-75.5 251.5,-56.5 133.5,-56.5"/>
<text text-anchor="middle" x="192.5" y="-63.5" font-family="Helvetica,sans-Serif" font-size="10.00">src/handler/handler.cpp</text>
</a>
</g>
</g>
<!-- Node6&#45;&gt;Node10 -->
<g id="edge10" class="edge"><title>Node6&#45;&gt;Node10</title>
<path fill="none" stroke="midnightblue" d="M298.477,-108.772C272.743,-98.6287 236.814,-84.4669 214.106,-75.5164"/>
<polygon fill="midnightblue" stroke="midnightblue" points="297.205,-112.033 307.792,-112.444 299.772,-105.52 297.205,-112.033"/>
</g>
<!-- Node8 -->
<g id="node8" class="node"><title>Node8</title>
<g id="a_node8"><a xlink:href="web-api_8cpp.html" target="_top" xlink:title="src/handler/web&#45;api.cpp">
<polygon fill="none" stroke="black" points="269.5,-0.5 269.5,-19.5 389.5,-19.5 389.5,-0.5 269.5,-0.5"/>
<text text-anchor="middle" x="329.5" y="-7.5" font-family="Helvetica,sans-Serif" font-size="10.00">src/handler/web&#45;api.cpp</text>
</a>
</g>
</g>
<!-- Node7&#45;&gt;Node8 -->
<g id="edge8" class="edge"><title>Node7&#45;&gt;Node8</title>
<path fill="none" stroke="midnightblue" d="M329.5,-45.8045C329.5,-36.9102 329.5,-26.7798 329.5,-19.7511"/>
<polygon fill="midnightblue" stroke="midnightblue" points="326,-46.083 329.5,-56.083 333,-46.083 326,-46.083"/>
</g>
<!-- Node12 -->
<g id="node12" class="node"><title>Node12</title>
<g id="a_node12"><a xlink:href="irc_8cpp.html" target="_top" xlink:title="src/network/irc.cpp">
<polygon fill="none" stroke="black" points="536.5,-56.5 536.5,-75.5 636.5,-75.5 636.5,-56.5 536.5,-56.5"/>
<text text-anchor="middle" x="586.5" y="-63.5" font-family="Helvetica,sans-Serif" font-size="10.00">src/network/irc.cpp</text>
</a>
</g>
</g>
<!-- Node11&#45;&gt;Node12 -->
<g id="edge12" class="edge"><title>Node11&#45;&gt;Node12</title>
<path fill="none" stroke="midnightblue" d="M586.5,-101.805C586.5,-92.9102 586.5,-82.7798 586.5,-75.7511"/>
<polygon fill="midnightblue" stroke="midnightblue" points="583,-102.083 586.5,-112.083 590,-102.083 583,-102.083"/>
</g>
</g>
</svg>
