<?xml version="1.0" encoding="UTF-8" standalone="no"?>
<!DOCTYPE svg PUBLIC "-//W3C//DTD SVG 1.1//EN"
 "http://www.w3.org/Graphics/SVG/1.1/DTD/svg11.dtd">
<!-- Generated by graphviz version 2.38.0 (20140413.2041)
 -->
<!-- Title: src/user/user_manager.hpp Pages: 1 -->
<svg width="1288pt" height="308pt"
 viewBox="0.00 0.00 1288.00 308.00" xmlns="http://www.w3.org/2000/svg" xmlns:xlink="http://www.w3.org/1999/xlink">
<g id="graph0" class="graph" transform="scale(1 1) rotate(0) translate(4 304)">
<title>src/user/user_manager.hpp</title>
<!-- Node1 -->
<g id="node1" class="node"><title>Node1</title>
<polygon fill="#bfbfbf" stroke="black" points="651.5,-280.5 651.5,-299.5 786.5,-299.5 786.5,-280.5 651.5,-280.5"/>
<text text-anchor="middle" x="719" y="-287.5" font-family="Helvetica,sans-Serif" font-size="10.00">src/user/user_manager.hpp</text>
</g>
<!-- Node2 -->
<g id="node2" class="node"><title>Node2</title>
<g id="a_node2"><a xlink:href="user__manager_8cpp.html" target="_top" xlink:title="src/user/user_manager.cpp">
<polygon fill="none" stroke="black" points="574.5,-224.5 574.5,-243.5 709.5,-243.5 709.5,-224.5 574.5,-224.5"/>
<text text-anchor="middle" x="642" y="-231.5" font-family="Helvetica,sans-Serif" font-size="10.00">src/user/user_manager.cpp</text>
</a>
</g>
</g>
<!-- Node1&#45;&gt;Node2 -->
<g id="edge1" class="edge"><title>Node1&#45;&gt;Node2</title>
<path fill="none" stroke="midnightblue" d="M698.099,-274.342C684.089,-264.517 666.117,-251.913 654.341,-243.655"/>
<polygon fill="midnightblue" stroke="midnightblue" points="696.432,-277.448 706.629,-280.324 700.451,-271.717 696.432,-277.448"/>
</g>
<!-- Node3 -->
<g id="node3" class="node"><title>Node3</title>
<g id="a_node3"><a xlink:href="connection_8hpp.html" target="_top" xlink:title="src/network/connection.hpp">
<polygon fill="none" stroke="black" points="727.5,-224.5 727.5,-243.5 864.5,-243.5 864.5,-224.5 727.5,-224.5"/>
<text text-anchor="middle" x="796" y="-231.5" font-family="Helvetica,sans-Serif" font-size="10.00">src/network/connection.hpp</text>
</a>
</g>
</g>
<!-- Node1&#45;&gt;Node3 -->
<g id="edge2" class="edge"><title>Node1&#45;&gt;Node3</title>
<path fill="none" stroke="midnightblue" d="M739.901,-274.342C753.911,-264.517 771.883,-251.913 783.659,-243.655"/>
<polygon fill="midnightblue" stroke="midnightblue" points="737.549,-271.717 731.371,-280.324 741.568,-277.448 737.549,-271.717"/>
</g>
<!-- Node4 -->
<g id="node4" class="node"><title>Node4</title>
<g id="a_node4"><a xlink:href="melanobot_8hpp.html" target="_top" xlink:title="src/melanobot.hpp">
<polygon fill="none" stroke="black" points="708.5,-168.5 708.5,-187.5 805.5,-187.5 805.5,-168.5 708.5,-168.5"/>
<text text-anchor="middle" x="757" y="-175.5" font-family="Helvetica,sans-Serif" font-size="10.00">src/melanobot.hpp</text>
</a>
</g>
</g>
<!-- Node3&#45;&gt;Node4 -->
<g id="edge3" class="edge"><title>Node3&#45;&gt;Node4</title>
<path fill="none" stroke="midnightblue" d="M783.618,-215.855C776.865,-206.505 768.791,-195.327 763.32,-187.751"/>
<polygon fill="midnightblue" stroke="midnightblue" points="780.868,-218.025 789.56,-224.083 786.542,-213.927 780.868,-218.025"/>
</g>
<!-- Node6 -->
<g id="node6" class="node"><title>Node6</title>
<g id="a_node6"><a xlink:href="handler_8hpp.html" target="_top" xlink:title="src/handler/handler.hpp">
<polygon fill="none" stroke="black" points="547,-112.5 547,-131.5 665,-131.5 665,-112.5 547,-112.5"/>
<text text-anchor="middle" x="606" y="-119.5" font-family="Helvetica,sans-Serif" font-size="10.00">src/handler/handler.hpp</text>
</a>
</g>
</g>
<!-- Node3&#45;&gt;Node6 -->
<g id="edge20" class="edge"><title>Node3&#45;&gt;Node6</title>
<path fill="none" stroke="midnightblue" d="M766.076,-220.513C746.801,-212.099 721.434,-200.32 700,-188 668.692,-170.005 634.39,-144.744 617.174,-131.643"/>
<polygon fill="midnightblue" stroke="midnightblue" points="764.706,-223.734 775.274,-224.477 767.475,-217.305 764.706,-223.734"/>
</g>
<!-- Node15 -->
<g id="node15" class="node"><title>Node15</title>
<g id="a_node15"><a xlink:href="irc__connection_8hpp.html" target="_top" xlink:title="src/network/irc_connection.hpp">
<polygon fill="none" stroke="black" points="832,-112.5 832,-131.5 984,-131.5 984,-112.5 832,-112.5"/>
<text text-anchor="middle" x="908" y="-119.5" font-family="Helvetica,sans-Serif" font-size="10.00">src/network/irc_connection.hpp</text>
</a>
</g>
</g>
<!-- Node3&#45;&gt;Node15 -->
<g id="edge21" class="edge"><title>Node3&#45;&gt;Node15</title>
<path fill="none" stroke="midnightblue" d="M809.423,-216.203C820.548,-202.66 837.064,-183.401 853,-168 867.017,-154.454 884.683,-140.487 896.153,-131.779"/>
<polygon fill="midnightblue" stroke="midnightblue" points="806.534,-214.208 802.952,-224.179 811.97,-218.619 806.534,-214.208"/>
</g>
<!-- Node19 -->
<g id="node19" class="node"><title>Node19</title>
<g id="a_node19"><a xlink:href="irc__buffer_8hpp.html" target="_top" xlink:title="src/network/irc_buffer.hpp">
<polygon fill="none" stroke="black" points="862,-168.5 862,-187.5 992,-187.5 992,-168.5 862,-168.5"/>
<text text-anchor="middle" x="927" y="-175.5" font-family="Helvetica,sans-Serif" font-size="10.00">src/network/irc_buffer.hpp</text>
</a>
</g>
</g>
<!-- Node3&#45;&gt;Node19 -->
<g id="edge22" class="edge"><title>Node3&#45;&gt;Node19</title>
<path fill="none" stroke="midnightblue" d="M826.317,-220.503C850.876,-210.38 884.818,-196.388 906.34,-187.516"/>
<polygon fill="midnightblue" stroke="midnightblue" points="824.669,-217.397 816.757,-224.444 827.337,-223.868 824.669,-217.397"/>
</g>
<!-- Node5 -->
<g id="node5" class="node"><title>Node5</title>
<g id="a_node5"><a xlink:href="melanobot_8cpp.html" target="_top" xlink:title="src/melanobot.cpp">
<polygon fill="none" stroke="black" points="718.5,-56.5 718.5,-75.5 815.5,-75.5 815.5,-56.5 718.5,-56.5"/>
<text text-anchor="middle" x="767" y="-63.5" font-family="Helvetica,sans-Serif" font-size="10.00">src/melanobot.cpp</text>
</a>
</g>
</g>
<!-- Node4&#45;&gt;Node5 -->
<g id="edge4" class="edge"><title>Node4&#45;&gt;Node5</title>
<path fill="none" stroke="midnightblue" d="M761.47,-158.589C763.232,-150.487 765.058,-140.823 766,-132 768.133,-112.024 767.783,-88.4025 767.372,-75.8623"/>
<polygon fill="midnightblue" stroke="midnightblue" points="758.033,-157.914 759.195,-168.445 764.854,-159.488 758.033,-157.914"/>
</g>
<!-- Node4&#45;&gt;Node6 -->
<g id="edge5" class="edge"><title>Node4&#45;&gt;Node6</title>
<path fill="none" stroke="midnightblue" d="M723.554,-165.039C695.142,-154.879 655.063,-140.546 629.814,-131.516"/>
<polygon fill="midnightblue" stroke="midnightblue" points="722.479,-168.372 733.074,-168.444 724.836,-161.781 722.479,-168.372"/>
</g>
<!-- Node4&#45;&gt;Node15 -->
<g id="edge15" class="edge"><title>Node4&#45;&gt;Node15</title>
<path fill="none" stroke="midnightblue" d="M790.446,-165.039C818.858,-154.879 858.937,-140.546 884.186,-131.516"/>
<polygon fill="midnightblue" stroke="midnightblue" points="789.164,-161.781 780.926,-168.444 791.521,-168.372 789.164,-161.781"/>
</g>
<!-- Node18 -->
<g id="node18" class="node"><title>Node18</title>
<g id="a_node18"><a xlink:href="main_8cpp.html" target="_top" xlink:title="src/main.cpp">
<polygon fill="none" stroke="black" points="683.5,-112.5 683.5,-131.5 756.5,-131.5 756.5,-112.5 683.5,-112.5"/>
<text text-anchor="middle" x="720" y="-119.5" font-family="Helvetica,sans-Serif" font-size="10.00">src/main.cpp</text>
</a>
</g>
</g>
<!-- Node4&#45;&gt;Node18 -->
<g id="edge19" class="edge"><title>Node4&#45;&gt;Node18</title>
<path fill="none" stroke="midnightblue" d="M745.054,-159.566C738.688,-150.275 731.133,-139.248 725.996,-131.751"/>
<polygon fill="midnightblue" stroke="midnightblue" points="742.351,-161.812 750.89,-168.083 748.125,-157.855 742.351,-161.812"/>
</g>
<!-- Node6&#45;&gt;Node5 -->
<g id="edge6" class="edge"><title>Node6&#45;&gt;Node5</title>
<path fill="none" stroke="midnightblue" d="M641.265,-109.172C671.581,-99.0039 714.57,-84.5852 741.608,-75.5164"/>
<polygon fill="midnightblue" stroke="midnightblue" points="639.879,-105.945 631.511,-112.444 642.105,-112.582 639.879,-105.945"/>
</g>
<!-- Node7 -->
<g id="node7" class="node"><title>Node7</title>
<g id="a_node7"><a xlink:href="ctcp_8cpp.html" target="_top" xlink:title="This files has handlers for CTCP messages. ">
<polygon fill="none" stroke="black" points="595.5,-56.5 595.5,-75.5 700.5,-75.5 700.5,-56.5 595.5,-56.5"/>
<text text-anchor="middle" x="648" y="-63.5" font-family="Helvetica,sans-Serif" font-size="10.00">src/handler/ctcp.cpp</text>
</a>
</g>
</g>
<!-- Node6&#45;&gt;Node7 -->
<g id="edge7" class="edge"><title>Node6&#45;&gt;Node7</title>
<path fill="none" stroke="midnightblue" d="M619.11,-104.144C626.428,-94.7357 635.241,-83.4046 641.194,-75.7511"/>
<polygon fill="midnightblue" stroke="midnightblue" points="616.312,-102.041 612.935,-112.083 621.838,-106.338 616.312,-102.041"/>
</g>
<!-- Node8 -->
<g id="node8" class="node"><title>Node8</title>
<g id="a_node8"><a xlink:href="web-api_8hpp.html" target="_top" xlink:title="src/handler/web&#45;api.hpp">
<polygon fill="none" stroke="black" points="64,-56.5 64,-75.5 184,-75.5 184,-56.5 64,-56.5"/>
<text text-anchor="middle" x="124" y="-63.5" font-family="Helvetica,sans-Serif" font-size="10.00">src/handler/web&#45;api.hpp</text>
</a>
</g>
</g>
<!-- Node6&#45;&gt;Node8 -->
<g id="edge8" class="edge"><title>Node6&#45;&gt;Node8</title>
<path fill="none" stroke="midnightblue" d="M536.84,-113.916C454.77,-105.406 313.823,-90.4605 193,-76 190.121,-75.6555 187.176,-75.2964 184.201,-74.9286"/>
<polygon fill="midnightblue" stroke="midnightblue" points="536.488,-117.399 546.796,-114.947 537.209,-110.436 536.488,-117.399"/>
</g>
<!-- Node11 -->
<g id="node11" class="node"><title>Node11</title>
<g id="a_node11"><a xlink:href="misc_8cpp.html" target="_top" xlink:title="This file defines handlers which perform miscellaneous tasks. ">
<polygon fill="none" stroke="black" points="202.5,-56.5 202.5,-75.5 309.5,-75.5 309.5,-56.5 202.5,-56.5"/>
<text text-anchor="middle" x="256" y="-63.5" font-family="Helvetica,sans-Serif" font-size="10.00">src/handler/misc.cpp</text>
</a>
</g>
</g>
<!-- Node6&#45;&gt;Node11 -->
<g id="edge11" class="edge"><title>Node6&#45;&gt;Node11</title>
<path fill="none" stroke="midnightblue" d="M540.57,-110.905C473.935,-100.624 371.84,-84.8724 309.763,-75.2948"/>
<polygon fill="midnightblue" stroke="midnightblue" points="540.125,-114.378 550.541,-112.444 541.192,-107.46 540.125,-114.378"/>
</g>
<!-- Node12 -->
<g id="node12" class="node"><title>Node12</title>
<g id="a_node12"><a xlink:href="irc__whois_8cpp.html" target="_top" xlink:title="This file contains handlers for WHOIS recognition on IRC. ">
<polygon fill="none" stroke="black" points="834,-56.5 834,-75.5 962,-75.5 962,-56.5 834,-56.5"/>
<text text-anchor="middle" x="898" y="-63.5" font-family="Helvetica,sans-Serif" font-size="10.00">src/handler/irc_whois.cpp</text>
</a>
</g>
</g>
<!-- Node6&#45;&gt;Node12 -->
<g id="edge12" class="edge"><title>Node6&#45;&gt;Node12</title>
<path fill="none" stroke="midnightblue" d="M662.233,-110.601C717.418,-100.395 800.565,-85.0189 851.948,-75.5164"/>
<polygon fill="midnightblue" stroke="midnightblue" points="661.465,-107.183 652.268,-112.444 662.738,-114.067 661.465,-107.183"/>
</g>
<!-- Node13 -->
<g id="node13" class="node"><title>Node13</title>
<g id="a_node13"><a xlink:href="admin_8cpp.html" target="_top" xlink:title="This file defines handlers which allows admin to administrate the bot (Mostly IRC&#45;specific action) ...">
<polygon fill="none" stroke="black" points="327.5,-56.5 327.5,-75.5 440.5,-75.5 440.5,-56.5 327.5,-56.5"/>
<text text-anchor="middle" x="384" y="-63.5" font-family="Helvetica,sans-Serif" font-size="10.00">src/handler/admin.cpp</text>
</a>
</g>
</g>
<!-- Node6&#45;&gt;Node13 -->
<g id="edge13" class="edge"><title>Node6&#45;&gt;Node13</title>
<path fill="none" stroke="midnightblue" d="M560.875,-110.024C518.94,-99.8232 457.348,-84.8414 419.012,-75.5164"/>
<polygon fill="midnightblue" stroke="midnightblue" points="560.28,-113.481 570.823,-112.444 561.934,-106.679 560.28,-113.481"/>
</g>
<!-- Node14 -->
<g id="node14" class="node"><title>Node14</title>
<g id="a_node14"><a xlink:href="handler_8cpp.html" target="_top" xlink:title="This file contains the definitions for the most basic and reusable handlers. ">
<polygon fill="none" stroke="black" points="459,-56.5 459,-75.5 577,-75.5 577,-56.5 459,-56.5"/>
<text text-anchor="middle" x="518" y="-63.5" font-family="Helvetica,sans-Serif" font-size="10.00">src/handler/handler.cpp</text>
</a>
</g>
</g>
<!-- Node6&#45;&gt;Node14 -->
<g id="edge14" class="edge"><title>Node6&#45;&gt;Node14</title>
<path fill="none" stroke="midnightblue" d="M583.023,-106.901C566.887,-96.9986 545.819,-84.0705 532.104,-75.6545"/>
<polygon fill="midnightblue" stroke="midnightblue" points="581.507,-110.077 591.861,-112.324 585.169,-104.111 581.507,-110.077"/>
</g>
<!-- Node9 -->
<g id="node9" class="node"><title>Node9</title>
<g id="a_node9"><a xlink:href="web-api_8cpp.html" target="_top" xlink:title="This files defines some simple Handlers using web APIs. ">
<polygon fill="none" stroke="black" points="0,-0.5 0,-19.5 120,-19.5 120,-0.5 0,-0.5"/>
<text text-anchor="middle" x="60" y="-7.5" font-family="Helvetica,sans-Serif" font-size="10.00">src/handler/web&#45;api.cpp</text>
</a>
</g>
</g>
<!-- Node8&#45;&gt;Node9 -->
<g id="edge9" class="edge"><title>Node8&#45;&gt;Node9</title>
<path fill="none" stroke="midnightblue" d="M106.009,-49.8197C94.5424,-40.1452 80.0867,-27.9481 70.4698,-19.8339"/>
<polygon fill="midnightblue" stroke="midnightblue" points="103.817,-52.5502 113.717,-56.324 108.331,-47.2002 103.817,-52.5502"/>
</g>
<!-- Node10 -->
<g id="node10" class="node"><title>Node10</title>
<g id="a_node10"><a xlink:href="fun_8cpp.html" target="_top" xlink:title="This file contains definitions for handlers which are pretty useless. ">
<polygon fill="none" stroke="black" points="138,-0.5 138,-19.5 238,-19.5 238,-0.5 138,-0.5"/>
<text text-anchor="middle" x="188" y="-7.5" font-family="Helvetica,sans-Serif" font-size="10.00">src/handler/fun.cpp</text>
</a>
</g>
</g>
<!-- Node8&#45;&gt;Node10 -->
<g id="edge10" class="edge"><title>Node8&#45;&gt;Node10</title>
<path fill="none" stroke="midnightblue" d="M141.991,-49.8197C153.458,-40.1452 167.913,-27.9481 177.53,-19.8339"/>
<polygon fill="midnightblue" stroke="midnightblue" points="139.669,-47.2002 134.283,-56.324 144.183,-52.5502 139.669,-47.2002"/>
</g>
<!-- Node15&#45;&gt;Node12 -->
<g id="edge16" class="edge"><title>Node15&#45;&gt;Node12</title>
<path fill="none" stroke="midnightblue" d="M904.5,-102.101C902.84,-93.1357 900.937,-82.8579 899.621,-75.7511"/>
<polygon fill="midnightblue" stroke="midnightblue" points="901.086,-102.888 906.349,-112.083 907.969,-101.613 901.086,-102.888"/>
</g>
<!-- Node16 -->
<g id="node16" class="node"><title>Node16</title>
<g id="a_node16"><a xlink:href="irc__connection_8cpp.html" target="_top" xlink:title="src/network/irc_connection.cpp">
<polygon fill="none" stroke="black" points="980,-56.5 980,-75.5 1132,-75.5 1132,-56.5 980,-56.5"/>
<text text-anchor="middle" x="1056" y="-63.5" font-family="Helvetica,sans-Serif" font-size="10.00">src/network/irc_connection.cpp</text>
</a>
</g>
</g>
<!-- Node15&#45;&gt;Node16 -->
<g id="edge17" class="edge"><title>Node15&#45;&gt;Node16</title>
<path fill="none" stroke="midnightblue" d="M941.147,-108.906C968.972,-98.7536 1008.02,-84.5063 1032.66,-75.5164"/>
<polygon fill="midnightblue" stroke="midnightblue" points="939.646,-105.728 931.451,-112.444 942.045,-112.304 939.646,-105.728"/>
</g>
<!-- Node17 -->
<g id="node17" class="node"><title>Node17</title>
<g id="a_node17"><a xlink:href="irc__buffer_8cpp.html" target="_top" xlink:title="src/network/irc_buffer.cpp">
<polygon fill="none" stroke="black" points="1150,-56.5 1150,-75.5 1280,-75.5 1280,-56.5 1150,-56.5"/>
<text text-anchor="middle" x="1215" y="-63.5" font-family="Helvetica,sans-Serif" font-size="10.00">src/network/irc_buffer.cpp</text>
</a>
</g>
</g>
<!-- Node15&#45;&gt;Node17 -->
<g id="edge18" class="edge"><title>Node15&#45;&gt;Node17</title>
<path fill="none" stroke="midnightblue" d="M966.761,-110.664C1024.78,-100.459 1112.45,-85.0386 1166.58,-75.5164"/>
<polygon fill="midnightblue" stroke="midnightblue" points="965.888,-107.264 956.645,-112.444 967.1,-114.158 965.888,-107.264"/>
</g>
<!-- Node19&#45;&gt;Node15 -->
<g id="edge23" class="edge"><title>Node19&#45;&gt;Node15</title>
<path fill="none" stroke="midnightblue" d="M920.454,-158.396C917.276,-149.362 913.607,-138.936 911.079,-131.751"/>
<polygon fill="midnightblue" stroke="midnightblue" points="917.242,-159.812 923.863,-168.083 923.845,-157.488 917.242,-159.812"/>
</g>
<!-- Node19&#45;&gt;Node17 -->
<g id="edge24" class="edge"><title>Node19&#45;&gt;Node17</title>
<path fill="none" stroke="midnightblue" d="M959.136,-164.726C1017.99,-142.245 1141.71,-94.9914 1192.51,-75.5914"/>
<polygon fill="midnightblue" stroke="midnightblue" points="957.692,-161.531 949.599,-168.368 960.19,-168.07 957.692,-161.531"/>
</g>
</g>
</svg>
