<?xml version="1.0" encoding="UTF-8" standalone="no"?>
<!DOCTYPE svg PUBLIC "-//W3C//DTD SVG 1.1//EN"
 "http://www.w3.org/Graphics/SVG/1.1/DTD/svg11.dtd">
<!-- Generated by graphviz version 2.38.0 (20140413.2041)
 -->
<!-- Title: src/user/user_manager.cpp Pages: 1 -->
<!--zoomable 431 -->
<svg id="main" version="1.1" xmlns="http://www.w3.org/2000/svg" xmlns:xlink="http://www.w3.org/1999/xlink" xml:space="preserve" onload="init(evt)">
<style type="text/css"><![CDATA[
.edge:hover path { stroke: red; }
.edge:hover polygon { stroke: red; fill: red; }
]]></style>
<script type="text/javascript"><![CDATA[
var edges = document.getElementsByTagName('g');
if (edges && edges.length) {
  for (var i=0;i<edges.length;i++) {
    if (edges[i].id.substr(0,4)=='edge') {
      edges[i].setAttribute('class','edge');
    }
  }
}
]]></script>
        <defs>
                <circle id="rim" cx="0" cy="0" r="7"/>
                <circle id="rim2" cx="0" cy="0" r="3.5"/>
                <g id="zoomPlus">
                        <use xlink:href="#rim" fill="#404040">
                                <set attributeName="fill" to="#808080" begin="zoomplus.mouseover" end="zoomplus.mouseout"/>
                        </use>
                        <path d="M-4,0h8M0,-4v8" fill="none" stroke="white" stroke-width="1.5" pointer-events="none"/>
                </g>
                <g id="zoomMin">
                        <use xlink:href="#rim" fill="#404040">
                                <set attributeName="fill" to="#808080" begin="zoomminus.mouseover" end="zoomminus.mouseout"/>
                        </use>
                        <path d="M-4,0h8" fill="none" stroke="white" stroke-width="1.5" pointer-events="none"/>
                </g>
                <g id="dirArrow">
                        <path fill="none" stroke="white" stroke-width="1.5" d="M0,-3.0v7 M-2.5,-0.5L0,-3.0L2.5,-0.5"/>
                </g>
               <g id="resetDef">
                       <use xlink:href="#rim2" fill="#404040">
                               <set attributeName="fill" to="#808080" begin="reset.mouseover" end="reset.mouseout"/>
                       </use>
               </g>
        </defs>

<script type="text/javascript">
var viewWidth = 764;
var viewHeight = 431;
var sectionId = 'dynsection-0';
</script>
<script xlink:href="svgpan.js"/>
<svg id="graph" class="graph">
<g id="viewport">
<title>src/user/user_manager.cpp</title>
<!-- Node1 -->
<g id="node1" class="node"><title>Node1</title>
<polygon fill="#bfbfbf" stroke="black" points="88.6183,-403.5 88.6183,-422.5 223.618,-422.5 223.618,-403.5 88.6183,-403.5"/>
<text text-anchor="middle" x="156.118" y="-410.5" font-family="Helvetica,sans-Serif" font-size="10.00">src/user/user_manager.cpp</text>
</g>
<!-- Node2 -->
<g id="node2" class="node"><title>Node2</title>
<g id="a_node2"><a xlink:href="user__manager_8hpp.html" target="_top" xlink:title="user_manager.hpp">
<polygon fill="none" stroke="black" points="107.618,-347.5 107.618,-366.5 204.618,-366.5 204.618,-347.5 107.618,-347.5"/>
<text text-anchor="middle" x="156.118" y="-354.5" font-family="Helvetica,sans-Serif" font-size="10.00">user_manager.hpp</text>
</a>
</g>
</g>
<!-- Node1&#45;&gt;Node2 -->
<g id="edge1" class="edge"><title>Node1&#45;&gt;Node2</title>
<path fill="none" stroke="midnightblue" d="M156.118,-403.083C156.118,-396.006 156.118,-385.861 156.118,-376.986"/>
<polygon fill="midnightblue" stroke="midnightblue" points="159.618,-376.751 156.118,-366.751 152.618,-376.751 159.618,-376.751"/>
</g>
<!-- Node3 -->
<g id="node3" class="node"><title>Node3</title>
<g id="a_node3"><a xlink:href="user_8hpp.html" target="_top" xlink:title="user.hpp">
<polygon fill="none" stroke="black" points="99.1183,-291.5 99.1183,-310.5 153.118,-310.5 153.118,-291.5 99.1183,-291.5"/>
<text text-anchor="middle" x="126.118" y="-298.5" font-family="Helvetica,sans-Serif" font-size="10.00">user.hpp</text>
</a>
</g>
</g>
<!-- Node2&#45;&gt;Node3 -->
<g id="edge2" class="edge"><title>Node2&#45;&gt;Node3</title>
<path fill="none" stroke="midnightblue" d="M151.164,-347.083C147.014,-339.613 140.965,-328.724 135.852,-319.52"/>
<polygon fill="midnightblue" stroke="midnightblue" points="138.896,-317.793 130.98,-310.751 132.777,-321.192 138.896,-317.793"/>
</g>
<!-- Node21 -->
<g id="node21" class="node"><title>Node21</title>
<polygon fill="none" stroke="#bfbfbf" points="171.618,-291.5 171.618,-310.5 200.618,-310.5 200.618,-291.5 171.618,-291.5"/>
<text text-anchor="middle" x="186.118" y="-298.5" font-family="Helvetica,sans-Serif" font-size="10.00">list</text>
</g>
<!-- Node2&#45;&gt;Node21 -->
<g id="edge30" class="edge"><title>Node2&#45;&gt;Node21</title>
<path fill="none" stroke="midnightblue" d="M161.072,-347.083C165.222,-339.613 171.271,-328.724 176.385,-319.52"/>
<polygon fill="midnightblue" stroke="midnightblue" points="179.46,-321.192 181.257,-310.751 173.341,-317.793 179.46,-321.192"/>
</g>
<!-- Node4 -->
<g id="node4" class="node"><title>Node4</title>
<polygon fill="none" stroke="#bfbfbf" points="119.618,-56.5 119.618,-75.5 160.618,-75.5 160.618,-56.5 119.618,-56.5"/>
<text text-anchor="middle" x="140.118" y="-63.5" font-family="Helvetica,sans-Serif" font-size="10.00">string</text>
</g>
<!-- Node3&#45;&gt;Node4 -->
<g id="edge3" class="edge"><title>Node3&#45;&gt;Node4</title>
<path fill="none" stroke="midnightblue" d="M113.572,-291.485C75.2489,-264.435 -34.8812,-178.343 12.1183,-112 34.0435,-81.0513 79.025,-71.232 109.386,-68.2061"/>
<polygon fill="midnightblue" stroke="midnightblue" points="109.767,-71.6868 119.453,-67.3956 109.205,-64.7094 109.767,-71.6868"/>
</g>
<!-- Node5 -->
<g id="node5" class="node"><title>Node5</title>
<polygon fill="none" stroke="#bfbfbf" points="683.118,-112.5 683.118,-131.5 727.118,-131.5 727.118,-112.5 683.118,-112.5"/>
<text text-anchor="middle" x="705.118" y="-119.5" font-family="Helvetica,sans-Serif" font-size="10.00">vector</text>
</g>
<!-- Node3&#45;&gt;Node5 -->
<g id="edge4" class="edge"><title>Node3&#45;&gt;Node5</title>
<path fill="none" stroke="midnightblue" d="M153.166,-293.029C193.961,-282.482 269.314,-262.867 296.118,-255 437.762,-213.428 604.753,-157.274 673.316,-133.905"/>
<polygon fill="midnightblue" stroke="midnightblue" points="674.747,-137.115 683.079,-130.572 672.485,-130.491 674.747,-137.115"/>
</g>
<!-- Node6 -->
<g id="node6" class="node"><title>Node6</title>
<polygon fill="none" stroke="#bfbfbf" points="28.6183,-112.5 28.6183,-131.5 111.618,-131.5 111.618,-112.5 28.6183,-112.5"/>
<text text-anchor="middle" x="70.1183" y="-119.5" font-family="Helvetica,sans-Serif" font-size="10.00">unordered_map</text>
</g>
<!-- Node3&#45;&gt;Node6 -->
<g id="edge5" class="edge"><title>Node3&#45;&gt;Node6</title>
<path fill="none" stroke="midnightblue" d="M123.417,-291.463C114.827,-264.311 87.9979,-179.512 76.0089,-141.618"/>
<polygon fill="midnightblue" stroke="midnightblue" points="79.2776,-140.347 72.9241,-131.868 72.6037,-142.458 79.2776,-140.347"/>
</g>
<!-- Node7 -->
<g id="node7" class="node"><title>Node7</title>
<g id="a_node7"><a xlink:href="settings_8hpp.html" target="_top" xlink:title="settings.hpp">
<polygon fill="none" stroke="black" points="217.118,-235.5 217.118,-254.5 287.118,-254.5 287.118,-235.5 217.118,-235.5"/>
<text text-anchor="middle" x="252.118" y="-242.5" font-family="Helvetica,sans-Serif" font-size="10.00">settings.hpp</text>
</a>
</g>
</g>
<!-- Node3&#45;&gt;Node7 -->
<g id="edge6" class="edge"><title>Node3&#45;&gt;Node7</title>
<path fill="none" stroke="midnightblue" d="M146.083,-291.444C166.727,-282.596 199.181,-268.687 222.75,-258.586"/>
<polygon fill="midnightblue" stroke="midnightblue" points="224.434,-261.673 232.247,-254.516 221.676,-255.239 224.434,-261.673"/>
</g>
<!-- Node7&#45;&gt;Node4 -->
<g id="edge7" class="edge"><title>Node7&#45;&gt;Node4</title>
<path fill="none" stroke="midnightblue" d="M217.069,-239.966C161.894,-231.432 57.1493,-205.81 19.1183,-132 -0.566448,-93.7961 67.4366,-77.1681 109.418,-70.6717"/>
<polygon fill="midnightblue" stroke="midnightblue" points="110.059,-74.1156 119.461,-69.2314 109.065,-67.1865 110.059,-74.1156"/>
</g>
<!-- Node7&#45;&gt;Node6 -->
<g id="edge9" class="edge"><title>Node7&#45;&gt;Node6</title>
<path fill="none" stroke="midnightblue" d="M252.444,-235.377C252.545,-219.727 250.419,-186.552 232.118,-168 216.637,-152.306 163.027,-139.466 121.673,-131.575"/>
<polygon fill="midnightblue" stroke="midnightblue" points="122.192,-128.112 111.721,-129.726 120.913,-134.994 122.192,-128.112"/>
</g>
<!-- Node8 -->
<g id="node8" class="node"><title>Node8</title>
<polygon fill="none" stroke="#bfbfbf" points="632.118,-56.5 632.118,-75.5 678.118,-75.5 678.118,-56.5 632.118,-56.5"/>
<text text-anchor="middle" x="655.118" y="-63.5" font-family="Helvetica,sans-Serif" font-size="10.00">cstdint</text>
</g>
<!-- Node7&#45;&gt;Node8 -->
<g id="edge8" class="edge"><title>Node7&#45;&gt;Node8</title>
<path fill="none" stroke="midnightblue" d="M287.218,-241.974C370.759,-236.832 579.328,-222.03 645.118,-199 698.077,-180.462 724.939,-181.087 752.118,-132 768.518,-102.381 722.234,-83.7432 688.076,-74.365"/>
<polygon fill="midnightblue" stroke="midnightblue" points="688.945,-70.9746 678.387,-71.8567 687.19,-77.7512 688.945,-70.9746"/>
</g>
<!-- Node9 -->
<g id="node9" class="node"><title>Node9</title>
<polygon fill="none" stroke="#bfbfbf" points="122.618,-168.5 122.618,-198.5 223.618,-198.5 223.618,-168.5 122.618,-168.5"/>
<text text-anchor="start" x="130.618" y="-186.5" font-family="Helvetica,sans-Serif" font-size="10.00">boost/property_tree</text>
<text text-anchor="middle" x="173.118" y="-175.5" font-family="Helvetica,sans-Serif" font-size="10.00">/ptree.hpp</text>
</g>
<!-- Node7&#45;&gt;Node9 -->
<g id="edge10" class="edge"><title>Node7&#45;&gt;Node9</title>
<path fill="none" stroke="midnightblue" d="M240.8,-235.475C230.2,-227.492 213.952,-215.254 200.032,-204.77"/>
<polygon fill="midnightblue" stroke="midnightblue" points="201.831,-201.743 191.737,-198.523 197.619,-207.335 201.831,-201.743"/>
</g>
<!-- Node10 -->
<g id="node10" class="node"><title>Node10</title>
<g id="a_node10"><a xlink:href="c_09_09-compat_8hpp.html" target="_top" xlink:title="This file defined some compatibility for features of C++14 and beyond. ">
<polygon fill="none" stroke="black" points="512.118,-56.5 512.118,-75.5 600.118,-75.5 600.118,-56.5 512.118,-56.5"/>
<text text-anchor="middle" x="556.118" y="-63.5" font-family="Helvetica,sans-Serif" font-size="10.00">c++&#45;compat.hpp</text>
</a>
</g>
</g>
<!-- Node7&#45;&gt;Node10 -->
<g id="edge11" class="edge"><title>Node7&#45;&gt;Node10</title>
<path fill="none" stroke="midnightblue" d="M287.198,-241.378C388.795,-232.984 679.627,-203.057 736.118,-132 741.65,-125.042 741.589,-119.006 736.118,-112 728.236,-101.905 660.674,-86.9848 610.628,-77.1311"/>
<polygon fill="midnightblue" stroke="midnightblue" points="611.043,-73.6464 600.559,-75.17 609.705,-80.5173 611.043,-73.6464"/>
</g>
<!-- Node11 -->
<g id="node11" class="node"><title>Node11</title>
<g id="a_node11"><a xlink:href="string_8hpp.html" target="_top" xlink:title="string/string.hpp">
<polygon fill="none" stroke="black" points="336.118,-174 336.118,-193 422.118,-193 422.118,-174 336.118,-174"/>
<text text-anchor="middle" x="379.118" y="-181" font-family="Helvetica,sans-Serif" font-size="10.00">string/string.hpp</text>
</a>
</g>
</g>
<!-- Node7&#45;&gt;Node11 -->
<g id="edge12" class="edge"><title>Node7&#45;&gt;Node11</title>
<path fill="none" stroke="midnightblue" d="M270.314,-235.475C291.628,-225.49 327.149,-208.848 351.781,-197.307"/>
<polygon fill="midnightblue" stroke="midnightblue" points="353.385,-200.421 360.956,-193.009 350.416,-194.082 353.385,-200.421"/>
</g>
<!-- Node11&#45;&gt;Node4 -->
<g id="edge17" class="edge"><title>Node11&#45;&gt;Node4</title>
<path fill="none" stroke="midnightblue" d="M335.926,-177.778C279.322,-170.741 184.28,-155.725 159.118,-132 146.564,-120.162 142.16,-100.534 140.687,-85.9383"/>
<polygon fill="midnightblue" stroke="midnightblue" points="144.155,-85.3177 140.034,-75.557 137.169,-85.7568 144.155,-85.3177"/>
</g>
<!-- Node11&#45;&gt;Node5 -->
<g id="edge20" class="edge"><title>Node11&#45;&gt;Node5</title>
<path fill="none" stroke="midnightblue" d="M422.543,-175.946C479.416,-167.132 582.125,-150.423 669.118,-132 670.395,-131.73 671.694,-131.446 673.005,-131.152"/>
<polygon fill="midnightblue" stroke="midnightblue" points="674.162,-134.476 683.092,-128.775 672.556,-127.662 674.162,-134.476"/>
</g>
<!-- Node11&#45;&gt;Node6 -->
<g id="edge19" class="edge"><title>Node11&#45;&gt;Node6</title>
<path fill="none" stroke="midnightblue" d="M335.828,-174.164C279.617,-163.34 181.628,-144.472 121.647,-132.922"/>
<polygon fill="midnightblue" stroke="midnightblue" points="122.116,-129.448 111.635,-130.994 120.793,-136.322 122.116,-129.448"/>
</g>
<!-- Node11&#45;&gt;Node8 -->
<g id="edge13" class="edge"><title>Node11&#45;&gt;Node8</title>
<path fill="none" stroke="midnightblue" d="M422.134,-179.391C486.949,-173.847 605.358,-160.1 636.118,-132 648.984,-120.247 653.321,-100.314 654.692,-85.6136"/>
<polygon fill="midnightblue" stroke="midnightblue" points="658.188,-85.7946 655.255,-75.6138 651.199,-85.4013 658.188,-85.7946"/>
</g>
<!-- Node12 -->
<g id="node12" class="node"><title>Node12</title>
<polygon fill="none" stroke="#bfbfbf" points="275.618,-112.5 275.618,-131.5 334.618,-131.5 334.618,-112.5 275.618,-112.5"/>
<text text-anchor="middle" x="305.118" y="-119.5" font-family="Helvetica,sans-Serif" font-size="10.00">functional</text>
</g>
<!-- Node11&#45;&gt;Node12 -->
<g id="edge14" class="edge"><title>Node11&#45;&gt;Node12</title>
<path fill="none" stroke="midnightblue" d="M368.516,-173.975C356.866,-164.608 337.932,-149.384 323.784,-138.008"/>
<polygon fill="midnightblue" stroke="midnightblue" points="325.687,-135.048 315.701,-131.509 321.301,-140.503 325.687,-135.048"/>
</g>
<!-- Node13 -->
<g id="node13" class="node"><title>Node13</title>
<polygon fill="none" stroke="#bfbfbf" points="353.118,-112.5 353.118,-131.5 405.118,-131.5 405.118,-112.5 353.118,-112.5"/>
<text text-anchor="middle" x="379.118" y="-119.5" font-family="Helvetica,sans-Serif" font-size="10.00">memory</text>
</g>
<!-- Node11&#45;&gt;Node13 -->
<g id="edge15" class="edge"><title>Node11&#45;&gt;Node13</title>
<path fill="none" stroke="midnightblue" d="M379.118,-173.975C379.118,-165.58 379.118,-152.481 379.118,-141.663"/>
<polygon fill="midnightblue" stroke="midnightblue" points="382.618,-141.509 379.118,-131.509 375.618,-141.509 382.618,-141.509"/>
</g>
<!-- Node14 -->
<g id="node14" class="node"><title>Node14</title>
<polygon fill="none" stroke="#bfbfbf" points="497.618,-112.5 497.618,-131.5 556.618,-131.5 556.618,-112.5 497.618,-112.5"/>
<text text-anchor="middle" x="527.118" y="-119.5" font-family="Helvetica,sans-Serif" font-size="10.00">stdexcept</text>
</g>
<!-- Node11&#45;&gt;Node14 -->
<g id="edge16" class="edge"><title>Node11&#45;&gt;Node14</title>
<path fill="none" stroke="midnightblue" d="M400.323,-173.975C425.491,-163.857 467.658,-146.905 496.397,-135.351"/>
<polygon fill="midnightblue" stroke="midnightblue" points="497.98,-138.487 505.953,-131.509 495.369,-131.992 497.98,-138.487"/>
</g>
<!-- Node15 -->
<g id="node15" class="node"><title>Node15</title>
<polygon fill="none" stroke="#bfbfbf" points="575.118,-112.5 575.118,-131.5 627.118,-131.5 627.118,-112.5 575.118,-112.5"/>
<text text-anchor="middle" x="601.118" y="-119.5" font-family="Helvetica,sans-Serif" font-size="10.00">sstream</text>
</g>
<!-- Node11&#45;&gt;Node15 -->
<g id="edge18" class="edge"><title>Node11&#45;&gt;Node15</title>
<path fill="none" stroke="midnightblue" d="M410.925,-173.975C451.771,-163.028 522.47,-144.079 565.207,-132.625"/>
<polygon fill="midnightblue" stroke="midnightblue" points="566.164,-135.992 574.917,-130.022 564.352,-129.231 566.164,-135.992"/>
</g>
<!-- Node16 -->
<g id="node16" class="node"><title>Node16</title>
<g id="a_node16"><a xlink:href="color_8hpp.html" target="_top" xlink:title="color.hpp">
<polygon fill="none" stroke="black" points="423.118,-112.5 423.118,-131.5 479.118,-131.5 479.118,-112.5 423.118,-112.5"/>
<text text-anchor="middle" x="451.118" y="-119.5" font-family="Helvetica,sans-Serif" font-size="10.00">color.hpp</text>
</a>
</g>
</g>
<!-- Node11&#45;&gt;Node16 -->
<g id="edge21" class="edge"><title>Node11&#45;&gt;Node16</title>
<path fill="none" stroke="midnightblue" d="M389.434,-173.975C400.769,-164.608 419.192,-149.384 432.957,-138.008"/>
<polygon fill="midnightblue" stroke="midnightblue" points="435.343,-140.577 440.822,-131.509 430.883,-135.181 435.343,-140.577"/>
</g>
<!-- Node19 -->
<g id="node19" class="node"><title>Node19</title>
<g id="a_node19"><a xlink:href="quickstream_8hpp.html" target="_top" xlink:title="quickstream.hpp">
<polygon fill="none" stroke="black" points="168.618,-112.5 168.618,-131.5 257.618,-131.5 257.618,-112.5 168.618,-112.5"/>
<text text-anchor="middle" x="213.118" y="-119.5" font-family="Helvetica,sans-Serif" font-size="10.00">quickstream.hpp</text>
</a>
</g>
</g>
<!-- Node11&#45;&gt;Node19 -->
<g id="edge27" class="edge"><title>Node11&#45;&gt;Node19</title>
<path fill="none" stroke="midnightblue" d="M355.335,-173.975C326.736,-163.725 278.568,-146.459 246.317,-134.899"/>
<polygon fill="midnightblue" stroke="midnightblue" points="247.452,-131.589 236.858,-131.509 245.091,-138.178 247.452,-131.589"/>
</g>
<!-- Node16&#45;&gt;Node4 -->
<g id="edge23" class="edge"><title>Node16&#45;&gt;Node4</title>
<path fill="none" stroke="midnightblue" d="M422.891,-113.875C419.936,-113.207 416.971,-112.568 414.118,-112 312.214,-91.7029 285.337,-94.6495 183.118,-76 179.097,-75.2663 174.875,-74.4454 170.712,-73.6059"/>
<polygon fill="midnightblue" stroke="midnightblue" points="171.138,-70.1198 160.636,-71.52 169.718,-76.9745 171.138,-70.1198"/>
</g>
<!-- Node16&#45;&gt;Node8 -->
<g id="edge22" class="edge"><title>Node16&#45;&gt;Node8</title>
<path fill="none" stroke="midnightblue" d="M479.484,-113.492C516.949,-103.574 582.794,-86.1447 622.345,-75.6754"/>
<polygon fill="midnightblue" stroke="midnightblue" points="623.268,-79.0516 632.039,-73.1091 621.477,-72.2847 623.268,-79.0516"/>
</g>
<!-- Node16&#45;&gt;Node10 -->
<g id="edge26" class="edge"><title>Node16&#45;&gt;Node10</title>
<path fill="none" stroke="midnightblue" d="M467.988,-112.324C484.827,-103.664 510.925,-90.2424 530.356,-80.249"/>
<polygon fill="midnightblue" stroke="midnightblue" points="531.998,-83.3405 539.29,-75.6545 528.796,-77.1155 531.998,-83.3405"/>
</g>
<!-- Node17 -->
<g id="node17" class="node"><title>Node17</title>
<g id="a_node17"><a xlink:href="math_8hpp.html" target="_top" xlink:title="math.hpp">
<polygon fill="none" stroke="black" points="422.618,-56.5 422.618,-75.5 479.618,-75.5 479.618,-56.5 422.618,-56.5"/>
<text text-anchor="middle" x="451.118" y="-63.5" font-family="Helvetica,sans-Serif" font-size="10.00">math.hpp</text>
</a>
</g>
</g>
<!-- Node16&#45;&gt;Node17 -->
<g id="edge24" class="edge"><title>Node16&#45;&gt;Node17</title>
<path fill="none" stroke="midnightblue" d="M451.118,-112.083C451.118,-105.006 451.118,-94.8611 451.118,-85.9865"/>
<polygon fill="midnightblue" stroke="midnightblue" points="454.618,-85.751 451.118,-75.7511 447.618,-85.7511 454.618,-85.751"/>
</g>
<!-- Node18 -->
<g id="node18" class="node"><title>Node18</title>
<polygon fill="none" stroke="#bfbfbf" points="423.118,-0.5 423.118,-19.5 479.118,-19.5 479.118,-0.5 423.118,-0.5"/>
<text text-anchor="middle" x="451.118" y="-7.5" font-family="Helvetica,sans-Serif" font-size="10.00">algorithm</text>
</g>
<!-- Node17&#45;&gt;Node18 -->
<g id="edge25" class="edge"><title>Node17&#45;&gt;Node18</title>
<path fill="none" stroke="midnightblue" d="M451.118,-56.083C451.118,-49.0059 451.118,-38.8611 451.118,-29.9865"/>
<polygon fill="midnightblue" stroke="midnightblue" points="454.618,-29.751 451.118,-19.7511 447.618,-29.7511 454.618,-29.751"/>
</g>
<!-- Node19&#45;&gt;Node4 -->
<g id="edge28" class="edge"><title>Node19&#45;&gt;Node4</title>
<path fill="none" stroke="midnightblue" d="M201.39,-112.324C190.281,-104.107 173.376,-91.6017 160.135,-81.8069"/>
<polygon fill="midnightblue" stroke="midnightblue" points="162.181,-78.9671 152.06,-75.8339 158.018,-84.5948 162.181,-78.9671"/>
</g>
<!-- Node20 -->
<g id="node20" class="node"><title>Node20</title>
<polygon fill="none" stroke="#bfbfbf" points="192.618,-56.5 192.618,-75.5 233.618,-75.5 233.618,-56.5 192.618,-56.5"/>
<text text-anchor="middle" x="213.118" y="-63.5" font-family="Helvetica,sans-Serif" font-size="10.00">regex</text>
</g>
<!-- Node19&#45;&gt;Node20 -->
<g id="edge29" class="edge"><title>Node19&#45;&gt;Node20</title>
<path fill="none" stroke="midnightblue" d="M213.118,-112.083C213.118,-105.006 213.118,-94.8611 213.118,-85.9865"/>
<polygon fill="midnightblue" stroke="midnightblue" points="216.618,-85.751 213.118,-75.7511 209.618,-85.7511 216.618,-85.751"/>
</g>
</g>
</svg>
        <g id="navigator" transform="translate(0 0)" fill="#404254">
                <rect fill="#f2f5e9" fill-opacity="0.5" stroke="#606060" stroke-width=".5" x="0" y="0" width="60" height="60"/>
                <use id="zoomplus" xlink:href="#zoomPlus" x="17" y="9" onmousedown="handleZoom(evt,'in')"/>
                <use id="zoomminus" xlink:href="#zoomMin" x="42" y="9" onmousedown="handleZoom(evt,'out')"/>
                <use id="reset" xlink:href="#resetDef" x="30" y="36" onmousedown="handleReset()"/>
                <g id="arrowUp" xlink:href="#dirArrow" transform="translate(30 24)" onmousedown="handlePan(0,-1)">
                  <use xlink:href="#rim" fill="#404040">
                        <set attributeName="fill" to="#808080" begin="arrowUp.mouseover" end="arrowUp.mouseout"/>
                  </use>
                  <path fill="none" stroke="white" stroke-width="1.5" d="M0,-3.0v7 M-2.5,-0.5L0,-3.0L2.5,-0.5"/>
                </g>
                <g id="arrowRight" xlink:href="#dirArrow" transform="rotate(90) translate(36 -43)" onmousedown="handlePan(1,0)">
                  <use xlink:href="#rim" fill="#404040">
                        <set attributeName="fill" to="#808080" begin="arrowRight.mouseover" end="arrowRight.mouseout"/>
                  </use>
                  <path fill="none" stroke="white" stroke-width="1.5" d="M0,-3.0v7 M-2.5,-0.5L0,-3.0L2.5,-0.5"/>
                </g>
                <g id="arrowDown" xlink:href="#dirArrow" transform="rotate(180) translate(-30 -48)" onmousedown="handlePan(0,1)">
                  <use xlink:href="#rim" fill="#404040">
                        <set attributeName="fill" to="#808080" begin="arrowDown.mouseover" end="arrowDown.mouseout"/>
                  </use>
                  <path fill="none" stroke="white" stroke-width="1.5" d="M0,-3.0v7 M-2.5,-0.5L0,-3.0L2.5,-0.5"/>
                </g>
                <g id="arrowLeft" xlink:href="#dirArrow" transform="rotate(270) translate(-36 17)" onmousedown="handlePan(-1,0)">
                  <use xlink:href="#rim" fill="#404040">
                        <set attributeName="fill" to="#808080" begin="arrowLeft.mouseover" end="arrowLeft.mouseout"/>
                  </use>
                  <path fill="none" stroke="white" stroke-width="1.5" d="M0,-3.0v7 M-2.5,-0.5L0,-3.0L2.5,-0.5"/>
                </g>
        </g>
        <svg viewBox="0 0 15 15" width="100%" height="30px" preserveAspectRatio="xMaxYMin meet">
         <g id="arrow_out" transform="scale(0.3 0.3)">
          <a xlink:href="user__manager_8cpp__incl_org.svg" target="_base">
           <rect id="button" ry="5" rx="5" y="6" x="6" height="38" width="38"
                fill="#f2f5e9" fill-opacity="0.5" stroke="#606060" stroke-width="1.0"/>
           <path id="arrow"
             d="M 11.500037,31.436501 C 11.940474,20.09759 22.043105,11.32322 32.158766,21.979434 L 37.068811,17.246167 C 37.068811,17.246167 37.088388,32 37.088388,32 L 22.160133,31.978069 C 22.160133,31.978069 26.997745,27.140456 26.997745,27.140456 C 18.528582,18.264221 13.291696,25.230495 11.500037,31.436501 z"
             style="fill:#404040;"/>
          </a>
         </g>
        </svg>
</svg>
