<?xml version="1.0" encoding="UTF-8" standalone="no"?>
<!DOCTYPE svg PUBLIC "-//W3C//DTD SVG 1.1//EN"
 "http://www.w3.org/Graphics/SVG/1.1/DTD/svg11.dtd">
<!-- Generated by graphviz version 2.38.0 (20140413.2041)
 -->
<!-- Title: src/user/user.hpp Pages: 1 -->
<svg width="2002pt" height="587pt"
 viewBox="0.00 0.00 2002.00 587.00" xmlns="http://www.w3.org/2000/svg" xmlns:xlink="http://www.w3.org/1999/xlink">
<g id="graph0" class="graph" transform="scale(1 1) rotate(0) translate(4 583)">
<title>src/user/user.hpp</title>
<!-- Node1 -->
<g id="node1" class="node"><title>Node1</title>
<polygon fill="#bfbfbf" stroke="black" points="378,-559.5 378,-578.5 470,-578.5 470,-559.5 378,-559.5"/>
<text text-anchor="middle" x="424" y="-566.5" font-family="Helvetica,sans-Serif" font-size="10.00">src/user/user.hpp</text>
</g>
<!-- Node2 -->
<g id="node2" class="node"><title>Node2</title>
<g id="a_node2"><a xlink:href="user__manager_8hpp.html" target="_top" xlink:title="src/user/user_manager.hpp">
<polygon fill="none" stroke="black" points="254.5,-447.5 254.5,-466.5 389.5,-466.5 389.5,-447.5 254.5,-447.5"/>
<text text-anchor="middle" x="322" y="-454.5" font-family="Helvetica,sans-Serif" font-size="10.00">src/user/user_manager.hpp</text>
</a>
</g>
</g>
<!-- Node1&#45;&gt;Node2 -->
<g id="edge1" class="edge"><title>Node1&#45;&gt;Node2</title>
<path fill="none" stroke="midnightblue" d="M409.068,-551.897C387.14,-528.249 346.989,-484.949 329.967,-466.591"/>
<polygon fill="midnightblue" stroke="midnightblue" points="406.63,-554.416 415.996,-559.368 411.763,-549.656 406.63,-554.416"/>
</g>
<!-- Node40 -->
<g id="node40" class="node"><title>Node40</title>
<g id="a_node40"><a xlink:href="user__group_8hpp.html" target="_top" xlink:title="src/user/user_group.hpp">
<polygon fill="none" stroke="black" points="408,-503.5 408,-522.5 530,-522.5 530,-503.5 408,-503.5"/>
<text text-anchor="middle" x="469" y="-510.5" font-family="Helvetica,sans-Serif" font-size="10.00">src/user/user_group.hpp</text>
</a>
</g>
</g>
<!-- Node1&#45;&gt;Node40 -->
<g id="edge65" class="edge"><title>Node1&#45;&gt;Node40</title>
<path fill="none" stroke="midnightblue" d="M438.047,-551.144C445.887,-541.736 455.329,-530.405 461.707,-522.751"/>
<polygon fill="midnightblue" stroke="midnightblue" points="435.144,-549.16 431.431,-559.083 440.521,-553.641 435.144,-549.16"/>
</g>
<!-- Node3 -->
<g id="node3" class="node"><title>Node3</title>
<g id="a_node3"><a xlink:href="user__manager_8cpp.html" target="_top" xlink:title="src/user/user_manager.cpp">
<polygon fill="none" stroke="black" points="158.5,-391.5 158.5,-410.5 293.5,-410.5 293.5,-391.5 158.5,-391.5"/>
<text text-anchor="middle" x="226" y="-398.5" font-family="Helvetica,sans-Serif" font-size="10.00">src/user/user_manager.cpp</text>
</a>
</g>
</g>
<!-- Node2&#45;&gt;Node3 -->
<g id="edge2" class="edge"><title>Node2&#45;&gt;Node3</title>
<path fill="none" stroke="midnightblue" d="M297.426,-442.177C279.761,-432.241 256.487,-419.149 241.386,-410.655"/>
<polygon fill="midnightblue" stroke="midnightblue" points="296.144,-445.472 306.576,-447.324 299.576,-439.371 296.144,-445.472"/>
</g>
<!-- Node4 -->
<g id="node4" class="node"><title>Node4</title>
<g id="a_node4"><a xlink:href="src_2network_2connection_8hpp.html" target="_top" xlink:title="src/network/connection.hpp">
<polygon fill="none" stroke="black" points="544.5,-391.5 544.5,-410.5 681.5,-410.5 681.5,-391.5 544.5,-391.5"/>
<text text-anchor="middle" x="613" y="-398.5" font-family="Helvetica,sans-Serif" font-size="10.00">src/network/connection.hpp</text>
</a>
</g>
</g>
<!-- Node2&#45;&gt;Node4 -->
<g id="edge3" class="edge"><title>Node2&#45;&gt;Node4</title>
<path fill="none" stroke="midnightblue" d="M378.041,-445.601C433.036,-435.395 515.898,-420.019 567.106,-410.516"/>
<polygon fill="midnightblue" stroke="midnightblue" points="377.303,-442.178 368.11,-447.444 378.581,-449.06 377.303,-442.178"/>
</g>
<!-- Node34 -->
<g id="node34" class="node"><title>Node34</title>
<g id="a_node34"><a xlink:href="xonotic-connection_8hpp.html" target="_top" xlink:title="modules/xonotic/xonotic\l&#45;connection.hpp">
<polygon fill="none" stroke="black" points="199,-257.5 199,-287.5 321,-287.5 321,-257.5 199,-257.5"/>
<text text-anchor="start" x="207" y="-275.5" font-family="Helvetica,sans-Serif" font-size="10.00">modules/xonotic/xonotic</text>
<text text-anchor="middle" x="260" y="-264.5" font-family="Helvetica,sans-Serif" font-size="10.00">&#45;connection.hpp</text>
</a>
</g>
</g>
<!-- Node2&#45;&gt;Node34 -->
<g id="edge64" class="edge"><title>Node2&#45;&gt;Node34</title>
<path fill="none" stroke="midnightblue" d="M316.535,-437.456C312.633,-424.414 307.179,-406.581 302,-391 289.496,-353.38 273.407,-309.502 265.248,-287.537"/>
<polygon fill="midnightblue" stroke="midnightblue" points="313.205,-438.539 319.408,-447.129 319.916,-436.546 313.205,-438.539"/>
</g>
<!-- Node5 -->
<g id="node5" class="node"><title>Node5</title>
<g id="a_node5"><a xlink:href="melanobot_8hpp.html" target="_top" xlink:title="src/melanobot.hpp">
<polygon fill="none" stroke="black" points="478.5,-330 478.5,-349 575.5,-349 575.5,-330 478.5,-330"/>
<text text-anchor="middle" x="527" y="-337" font-family="Helvetica,sans-Serif" font-size="10.00">src/melanobot.hpp</text>
</a>
</g>
</g>
<!-- Node4&#45;&gt;Node5 -->
<g id="edge4" class="edge"><title>Node4&#45;&gt;Node5</title>
<path fill="none" stroke="midnightblue" d="M592.205,-385.613C575.665,-374.169 553.083,-358.546 539.299,-349.009"/>
<polygon fill="midnightblue" stroke="midnightblue" points="590.463,-388.664 600.678,-391.475 594.446,-382.907 590.463,-388.664"/>
</g>
<!-- Node7 -->
<g id="node7" class="node"><title>Node7</title>
<g id="a_node7"><a xlink:href="handler_8hpp.html" target="_top" xlink:title="src/handler/handler.hpp">
<polygon fill="none" stroke="black" points="776,-263 776,-282 894,-282 894,-263 776,-263"/>
<text text-anchor="middle" x="835" y="-270" font-family="Helvetica,sans-Serif" font-size="10.00">src/handler/handler.hpp</text>
</a>
</g>
</g>
<!-- Node4&#45;&gt;Node7 -->
<g id="edge56" class="edge"><title>Node4&#45;&gt;Node7</title>
<path fill="none" stroke="midnightblue" d="M636.954,-386.351C682.875,-360.184 782.095,-303.646 819.928,-282.088"/>
<polygon fill="midnightblue" stroke="midnightblue" points="635.215,-383.313 628.259,-391.305 638.68,-389.395 635.215,-383.313"/>
</g>
<!-- Node9 -->
<g id="node9" class="node"><title>Node9</title>
<g id="a_node9"><a xlink:href="melanomodule_8hpp.html" target="_top" xlink:title="src/melanomodule.hpp">
<polygon fill="none" stroke="black" points="1120.5,-196 1120.5,-215 1235.5,-215 1235.5,-196 1120.5,-196"/>
<text text-anchor="middle" x="1178" y="-203" font-family="Helvetica,sans-Serif" font-size="10.00">src/melanomodule.hpp</text>
</a>
</g>
</g>
<!-- Node4&#45;&gt;Node9 -->
<g id="edge57" class="edge"><title>Node4&#45;&gt;Node9</title>
<path fill="none" stroke="midnightblue" d="M647.755,-388.097C752.34,-352.279 1062.49,-246.06 1152.96,-215.075"/>
<polygon fill="midnightblue" stroke="midnightblue" points="646.333,-384.885 638.006,-391.436 648.601,-391.507 646.333,-384.885"/>
</g>
<!-- Node33 -->
<g id="node33" class="node"><title>Node33</title>
<g id="a_node33"><a xlink:href="stdin_8hpp.html" target="_top" xlink:title="modules/posix/stdin.hpp">
<polygon fill="none" stroke="black" points="339,-263 339,-282 461,-282 461,-263 339,-263"/>
<text text-anchor="middle" x="400" y="-270" font-family="Helvetica,sans-Serif" font-size="10.00">modules/posix/stdin.hpp</text>
</a>
</g>
</g>
<!-- Node4&#45;&gt;Node33 -->
<g id="edge58" class="edge"><title>Node4&#45;&gt;Node33</title>
<path fill="none" stroke="midnightblue" d="M552.521,-389.136C525.406,-382.315 493.982,-371.567 469,-355 439.026,-335.122 414.856,-298.568 404.907,-282.028"/>
<polygon fill="midnightblue" stroke="midnightblue" points="551.755,-392.551 562.295,-391.474 553.384,-385.743 551.755,-392.551"/>
</g>
<!-- Node4&#45;&gt;Node34 -->
<g id="edge59" class="edge"><title>Node4&#45;&gt;Node34</title>
<path fill="none" stroke="midnightblue" d="M558.781,-389.342C522.622,-381.532 474.321,-369.739 433,-355 378.901,-335.704 318.915,-305.268 285.704,-287.561"/>
<polygon fill="midnightblue" stroke="midnightblue" points="558.133,-392.782 568.642,-391.438 559.588,-385.935 558.133,-392.782"/>
</g>
<!-- Node36 -->
<g id="node36" class="node"><title>Node36</title>
<g id="a_node36"><a xlink:href="modules_2irc_2network_2connection_8hpp.html" target="_top" xlink:title="modules/irc/network\l/connection.hpp">
<polygon fill="none" stroke="black" points="1688,-257.5 1688,-287.5 1792,-287.5 1792,-257.5 1688,-257.5"/>
<text text-anchor="start" x="1696" y="-275.5" font-family="Helvetica,sans-Serif" font-size="10.00">modules/irc/network</text>
<text text-anchor="middle" x="1740" y="-264.5" font-family="Helvetica,sans-Serif" font-size="10.00">/connection.hpp</text>
</a>
</g>
</g>
<!-- Node4&#45;&gt;Node36 -->
<g id="edge63" class="edge"><title>Node4&#45;&gt;Node36</title>
<path fill="none" stroke="midnightblue" d="M692.121,-393.509C788.373,-385.42 955.765,-370.732 1099,-355 1318.12,-330.933 1578.52,-295.795 1687.73,-280.761"/>
<polygon fill="midnightblue" stroke="midnightblue" points="691.56,-390.044 681.887,-394.367 692.145,-397.019 691.56,-390.044"/>
</g>
<!-- Node39 -->
<g id="node39" class="node"><title>Node39</title>
<g id="a_node39"><a xlink:href="buffer_8hpp.html" target="_top" xlink:title="modules/irc/network\l/buffer.hpp">
<polygon fill="none" stroke="black" points="1688,-324.5 1688,-354.5 1792,-354.5 1792,-324.5 1688,-324.5"/>
<text text-anchor="start" x="1696" y="-342.5" font-family="Helvetica,sans-Serif" font-size="10.00">modules/irc/network</text>
<text text-anchor="middle" x="1740" y="-331.5" font-family="Helvetica,sans-Serif" font-size="10.00">/buffer.hpp</text>
</a>
</g>
</g>
<!-- Node4&#45;&gt;Node39 -->
<g id="edge60" class="edge"><title>Node4&#45;&gt;Node39</title>
<path fill="none" stroke="midnightblue" d="M691.808,-396.549C849.491,-389.544 1215.03,-372.806 1522,-355 1578.61,-351.716 1643.45,-347.323 1687.6,-344.236"/>
<polygon fill="midnightblue" stroke="midnightblue" points="691.56,-393.056 681.725,-396.996 691.87,-400.049 691.56,-393.056"/>
</g>
<!-- Node6 -->
<g id="node6" class="node"><title>Node6</title>
<g id="a_node6"><a xlink:href="melanobot_8cpp.html" target="_top" xlink:title="src/melanobot.cpp">
<polygon fill="none" stroke="black" points="402.5,-196 402.5,-215 499.5,-215 499.5,-196 402.5,-196"/>
<text text-anchor="middle" x="451" y="-203" font-family="Helvetica,sans-Serif" font-size="10.00">src/melanobot.cpp</text>
</a>
</g>
</g>
<!-- Node5&#45;&gt;Node6 -->
<g id="edge5" class="edge"><title>Node5&#45;&gt;Node6</title>
<path fill="none" stroke="midnightblue" d="M524.311,-319.878C521.193,-302.606 514.883,-276.68 503,-257 492.593,-239.763 474.882,-224.346 463.062,-215.207"/>
<polygon fill="midnightblue" stroke="midnightblue" points="520.868,-320.516 525.925,-329.826 527.778,-319.394 520.868,-320.516"/>
</g>
<!-- Node5&#45;&gt;Node7 -->
<g id="edge6" class="edge"><title>Node5&#45;&gt;Node7</title>
<path fill="none" stroke="midnightblue" d="M577.687,-327.803C638.298,-315.012 738.535,-293.858 794.328,-282.083"/>
<polygon fill="midnightblue" stroke="midnightblue" points="576.644,-324.446 567.582,-329.936 578.09,-331.295 576.644,-324.446"/>
</g>
<!-- Node10 -->
<g id="node10" class="node"><title>Node10</title>
<g id="a_node10"><a xlink:href="main_8cpp.html" target="_top" xlink:title="src/main.cpp">
<polygon fill="none" stroke="black" points="1019.5,-129 1019.5,-148 1092.5,-148 1092.5,-129 1019.5,-129"/>
<text text-anchor="middle" x="1056" y="-136" font-family="Helvetica,sans-Serif" font-size="10.00">src/main.cpp</text>
</a>
</g>
</g>
<!-- Node5&#45;&gt;Node10 -->
<g id="edge46" class="edge"><title>Node5&#45;&gt;Node10</title>
<path fill="none" stroke="midnightblue" d="M518.25,-320.884C508.551,-302.853 491.414,-274.997 470,-257 441.079,-232.694 413.282,-252.872 393,-221 385.603,-209.376 383.545,-200.022 393,-190 440.202,-139.969 943.39,-166.649 1011,-154 1018.42,-152.611 1026.32,-150.348 1033.4,-148.018"/>
<polygon fill="midnightblue" stroke="midnightblue" points="515.144,-322.497 522.852,-329.765 521.359,-319.276 515.144,-322.497"/>
</g>
<!-- Node5&#45;&gt;Node33 -->
<g id="edge47" class="edge"><title>Node5&#45;&gt;Node33</title>
<path fill="none" stroke="midnightblue" d="M501.158,-325.274C476.004,-312.4 438.508,-293.209 416.934,-282.167"/>
<polygon fill="midnightblue" stroke="midnightblue" points="499.639,-328.428 510.135,-329.869 502.828,-322.197 499.639,-328.428"/>
</g>
<!-- Node5&#45;&gt;Node34 -->
<g id="edge49" class="edge"><title>Node5&#45;&gt;Node34</title>
<path fill="none" stroke="midnightblue" d="M482.009,-327.547C436.819,-316.546 367.005,-299.55 317.751,-287.559"/>
<polygon fill="midnightblue" stroke="midnightblue" points="481.276,-330.971 491.82,-329.936 482.932,-324.169 481.276,-330.971"/>
</g>
<!-- Node5&#45;&gt;Node36 -->
<g id="edge52" class="edge"><title>Node5&#45;&gt;Node36</title>
<path fill="none" stroke="midnightblue" d="M585.772,-335.351C793.492,-324.22 1491.12,-286.837 1687.92,-276.291"/>
<polygon fill="midnightblue" stroke="midnightblue" points="585.474,-331.861 575.676,-335.892 585.849,-338.851 585.474,-331.861"/>
</g>
<!-- Node7&#45;&gt;Node6 -->
<g id="edge7" class="edge"><title>Node7&#45;&gt;Node6</title>
<path fill="none" stroke="midnightblue" d="M765.763,-262.04C700.586,-252.796 600.354,-237.709 514,-221 504.964,-219.252 495.253,-217.136 486.227,-215.067"/>
<polygon fill="midnightblue" stroke="midnightblue" points="765.524,-265.541 775.915,-263.473 766.502,-258.61 765.524,-265.541"/>
</g>
<!-- Node8 -->
<g id="node8" class="node"><title>Node8</title>
<g id="a_node8"><a xlink:href="handler_8cpp.html" target="_top" xlink:title="src/handler/handler.cpp">
<polygon fill="none" stroke="black" points="984,-196 984,-215 1102,-215 1102,-196 984,-196"/>
<text text-anchor="middle" x="1043" y="-203" font-family="Helvetica,sans-Serif" font-size="10.00">src/handler/handler.cpp</text>
</a>
</g>
</g>
<!-- Node7&#45;&gt;Node8 -->
<g id="edge8" class="edge"><title>Node7&#45;&gt;Node8</title>
<path fill="none" stroke="midnightblue" d="M872.289,-259.847C913.488,-246.973 978.854,-226.546 1015.6,-215.064"/>
<polygon fill="midnightblue" stroke="midnightblue" points="871.122,-256.545 862.621,-262.869 873.21,-263.226 871.122,-256.545"/>
</g>
<!-- Node7&#45;&gt;Node9 -->
<g id="edge9" class="edge"><title>Node7&#45;&gt;Node9</title>
<path fill="none" stroke="midnightblue" d="M894.287,-261.221C950.25,-251.383 1036.46,-235.881 1111,-221 1120.22,-219.159 1130.13,-217.074 1139.43,-215.07"/>
<polygon fill="midnightblue" stroke="midnightblue" points="893.444,-257.815 884.2,-262.99 894.654,-264.71 893.444,-257.815"/>
</g>
<!-- Node17 -->
<g id="node17" class="node"><title>Node17</title>
<g id="a_node17"><a xlink:href="web-api_8hpp.html" target="_top" xlink:title="modules/web/web&#45;api.hpp">
<polygon fill="none" stroke="black" points="556,-196 556,-215 686,-215 686,-196 556,-196"/>
<text text-anchor="middle" x="621" y="-203" font-family="Helvetica,sans-Serif" font-size="10.00">modules/web/web&#45;api.hpp</text>
</a>
</g>
</g>
<!-- Node7&#45;&gt;Node17 -->
<g id="edge17" class="edge"><title>Node7&#45;&gt;Node17</title>
<path fill="none" stroke="midnightblue" d="M796.904,-259.929C754.532,-247.059 687.076,-226.57 649.194,-215.064"/>
<polygon fill="midnightblue" stroke="midnightblue" points="795.997,-263.311 806.582,-262.869 798.031,-256.613 795.997,-263.311"/>
</g>
<!-- Node21 -->
<g id="node21" class="node"><title>Node21</title>
<g id="a_node21"><a xlink:href="simple-group_8hpp.html" target="_top" xlink:title="modules/core/handler\l/simple&#45;group.hpp">
<polygon fill="none" stroke="black" points="160,-190.5 160,-220.5 270,-220.5 270,-190.5 160,-190.5"/>
<text text-anchor="start" x="168" y="-208.5" font-family="Helvetica,sans-Serif" font-size="10.00">modules/core/handler</text>
<text text-anchor="middle" x="215" y="-197.5" font-family="Helvetica,sans-Serif" font-size="10.00">/simple&#45;group.hpp</text>
</a>
</g>
</g>
<!-- Node7&#45;&gt;Node21 -->
<g id="edge23" class="edge"><title>Node7&#45;&gt;Node21</title>
<path fill="none" stroke="midnightblue" d="M765.683,-264.233C641.504,-251.214 383.526,-224.168 270.302,-212.298"/>
<polygon fill="midnightblue" stroke="midnightblue" points="765.522,-267.735 775.833,-265.297 766.252,-260.773 765.522,-267.735"/>
</g>
<!-- Node26 -->
<g id="node26" class="node"><title>Node26</title>
<g id="a_node26"><a xlink:href="misc_8hpp.html" target="_top" xlink:title="This file defines handlers which perform miscellaneous tasks. ">
<polygon fill="none" stroke="black" points="422,-123.5 422,-153.5 532,-153.5 532,-123.5 422,-123.5"/>
<text text-anchor="start" x="430" y="-141.5" font-family="Helvetica,sans-Serif" font-size="10.00">modules/core/handler</text>
<text text-anchor="middle" x="477" y="-130.5" font-family="Helvetica,sans-Serif" font-size="10.00">/misc.hpp</text>
</a>
</g>
</g>
<!-- Node7&#45;&gt;Node26 -->
<g id="edge32" class="edge"><title>Node7&#45;&gt;Node26</title>
<path fill="none" stroke="midnightblue" d="M765.799,-264.779C692.82,-256.746 583.449,-241.742 547,-221 518.469,-204.764 496.082,-172.331 484.877,-153.646"/>
<polygon fill="midnightblue" stroke="midnightblue" points="765.525,-268.269 775.844,-265.866 766.278,-261.31 765.525,-268.269"/>
</g>
<!-- Node27 -->
<g id="node27" class="node"><title>Node27</title>
<g id="a_node27"><a xlink:href="rcon_8hpp.html" target="_top" xlink:title="modules/xonotic/handler\l/rcon.hpp">
<polygon fill="none" stroke="black" points="704,-190.5 704,-220.5 826,-220.5 826,-190.5 704,-190.5"/>
<text text-anchor="start" x="712" y="-208.5" font-family="Helvetica,sans-Serif" font-size="10.00">modules/xonotic/handler</text>
<text text-anchor="middle" x="765" y="-197.5" font-family="Helvetica,sans-Serif" font-size="10.00">/rcon.hpp</text>
</a>
</g>
</g>
<!-- Node7&#45;&gt;Node27 -->
<g id="edge34" class="edge"><title>Node7&#45;&gt;Node27</title>
<path fill="none" stroke="midnightblue" d="M818.23,-255.928C806.654,-245.179 791.387,-231.002 780.173,-220.589"/>
<polygon fill="midnightblue" stroke="midnightblue" points="815.85,-258.494 825.559,-262.734 820.613,-253.364 815.85,-258.494"/>
</g>
<!-- Node28 -->
<g id="node28" class="node"><title>Node28</title>
<g id="a_node28"><a xlink:href="status_8hpp.html" target="_top" xlink:title="modules/xonotic/handler\l/status.hpp">
<polygon fill="none" stroke="black" points="844,-190.5 844,-220.5 966,-220.5 966,-190.5 844,-190.5"/>
<text text-anchor="start" x="852" y="-208.5" font-family="Helvetica,sans-Serif" font-size="10.00">modules/xonotic/handler</text>
<text text-anchor="middle" x="905" y="-197.5" font-family="Helvetica,sans-Serif" font-size="10.00">/status.hpp</text>
</a>
</g>
</g>
<!-- Node7&#45;&gt;Node28 -->
<g id="edge36" class="edge"><title>Node7&#45;&gt;Node28</title>
<path fill="none" stroke="midnightblue" d="M851.77,-255.928C863.346,-245.179 878.613,-231.002 889.827,-220.589"/>
<polygon fill="midnightblue" stroke="midnightblue" points="849.387,-253.364 844.441,-262.734 854.15,-258.494 849.387,-253.364"/>
</g>
<!-- Node29 -->
<g id="node29" class="node"><title>Node29</title>
<g id="a_node29"><a xlink:href="irc__actions_8hpp.html" target="_top" xlink:title="File containing Handlers which manage responses to various IRC commands. ">
<polygon fill="none" stroke="black" points="1491.5,-190.5 1491.5,-220.5 1592.5,-220.5 1592.5,-190.5 1491.5,-190.5"/>
<text text-anchor="start" x="1499.5" y="-208.5" font-family="Helvetica,sans-Serif" font-size="10.00">modules/irc/handler</text>
<text text-anchor="middle" x="1542" y="-197.5" font-family="Helvetica,sans-Serif" font-size="10.00">/irc_actions.hpp</text>
</a>
</g>
</g>
<!-- Node7&#45;&gt;Node29 -->
<g id="edge38" class="edge"><title>Node7&#45;&gt;Node29</title>
<path fill="none" stroke="midnightblue" d="M904.423,-269.802C1023.5,-266.064 1274.07,-254.585 1483,-221 1485.71,-220.565 1488.47,-220.068 1491.26,-219.528"/>
<polygon fill="midnightblue" stroke="midnightblue" points="904.239,-266.306 894.35,-270.11 904.453,-273.303 904.239,-266.306"/>
</g>
<!-- Node30 -->
<g id="node30" class="node"><title>Node30</title>
<g id="a_node30"><a xlink:href="ctcp_8hpp.html" target="_top" xlink:title="This files has handlers for CTCP messages. ">
<polygon fill="none" stroke="black" points="1610.5,-190.5 1610.5,-220.5 1711.5,-220.5 1711.5,-190.5 1610.5,-190.5"/>
<text text-anchor="start" x="1618.5" y="-208.5" font-family="Helvetica,sans-Serif" font-size="10.00">modules/irc/handler</text>
<text text-anchor="middle" x="1661" y="-197.5" font-family="Helvetica,sans-Serif" font-size="10.00">/ctcp.hpp</text>
</a>
</g>
</g>
<!-- Node7&#45;&gt;Node30 -->
<g id="edge40" class="edge"><title>Node7&#45;&gt;Node30</title>
<path fill="none" stroke="midnightblue" d="M904.28,-270.992C1039.32,-269.11 1346.86,-260.439 1602,-221 1604.71,-220.581 1607.48,-220.098 1610.27,-219.567"/>
<polygon fill="midnightblue" stroke="midnightblue" points="904.034,-267.495 894.081,-271.126 904.126,-274.494 904.034,-267.495"/>
</g>
<!-- Node31 -->
<g id="node31" class="node"><title>Node31</title>
<g id="a_node31"><a xlink:href="irc__admin_8hpp.html" target="_top" xlink:title="This file defines handlers which allows admin to administrate the bot (IRC&#45;specific actions) ...">
<polygon fill="none" stroke="black" points="1253.5,-190.5 1253.5,-220.5 1354.5,-220.5 1354.5,-190.5 1253.5,-190.5"/>
<text text-anchor="start" x="1261.5" y="-208.5" font-family="Helvetica,sans-Serif" font-size="10.00">modules/irc/handler</text>
<text text-anchor="middle" x="1304" y="-197.5" font-family="Helvetica,sans-Serif" font-size="10.00">/irc_admin.hpp</text>
</a>
</g>
</g>
<!-- Node7&#45;&gt;Node31 -->
<g id="edge42" class="edge"><title>Node7&#45;&gt;Node31</title>
<path fill="none" stroke="midnightblue" d="M904.236,-265.496C986.058,-257.819 1126.12,-242.851 1245,-221 1247.7,-220.504 1250.46,-219.96 1253.23,-219.381"/>
<polygon fill="midnightblue" stroke="midnightblue" points="903.696,-262.031 894.063,-266.441 904.344,-269.001 903.696,-262.031"/>
</g>
<!-- Node32 -->
<g id="node32" class="node"><title>Node32</title>
<g id="a_node32"><a xlink:href="irc__whois_8hpp.html" target="_top" xlink:title="This file contains handlers for WHOIS recognition on IRC. ">
<polygon fill="none" stroke="black" points="1372.5,-190.5 1372.5,-220.5 1473.5,-220.5 1473.5,-190.5 1372.5,-190.5"/>
<text text-anchor="start" x="1380.5" y="-208.5" font-family="Helvetica,sans-Serif" font-size="10.00">modules/irc/handler</text>
<text text-anchor="middle" x="1423" y="-197.5" font-family="Helvetica,sans-Serif" font-size="10.00">/irc_whois.hpp</text>
</a>
</g>
</g>
<!-- Node7&#45;&gt;Node32 -->
<g id="edge44" class="edge"><title>Node7&#45;&gt;Node32</title>
<path fill="none" stroke="midnightblue" d="M904.195,-268.119C1005.64,-262.435 1200.44,-248.754 1364,-221 1366.7,-220.541 1369.47,-220.026 1372.25,-219.471"/>
<polygon fill="midnightblue" stroke="midnightblue" points="903.871,-264.631 894.079,-268.677 904.256,-271.621 903.871,-264.631"/>
</g>
<!-- Node9&#45;&gt;Node10 -->
<g id="edge10" class="edge"><title>Node9&#45;&gt;Node10</title>
<path fill="none" stroke="midnightblue" d="M1152.86,-191.103C1128.69,-178.231 1092.9,-159.16 1072.27,-148.167"/>
<polygon fill="midnightblue" stroke="midnightblue" points="1151.33,-194.255 1161.8,-195.869 1154.62,-188.077 1151.33,-194.255"/>
</g>
<!-- Node11 -->
<g id="node11" class="node"><title>Node11</title>
<g id="a_node11"><a xlink:href="posix_8cpp.html" target="_top" xlink:title="modules/posix/posix.cpp">
<polygon fill="none" stroke="black" points="717.5,-129 717.5,-148 842.5,-148 842.5,-129 717.5,-129"/>
<text text-anchor="middle" x="780" y="-136" font-family="Helvetica,sans-Serif" font-size="10.00">modules/posix/posix.cpp</text>
</a>
</g>
</g>
<!-- Node9&#45;&gt;Node11 -->
<g id="edge11" class="edge"><title>Node9&#45;&gt;Node11</title>
<path fill="none" stroke="midnightblue" d="M1130.68,-193.796C1124.08,-192.44 1117.38,-191.133 1111,-190 996.57,-169.694 966.573,-173.481 852,-154 841.692,-152.247 830.601,-150.13 820.285,-148.061"/>
<polygon fill="midnightblue" stroke="midnightblue" points="1130.38,-197.31 1140.89,-195.949 1131.82,-190.461 1130.38,-197.31"/>
</g>
<!-- Node12 -->
<g id="node12" class="node"><title>Node12</title>
<g id="a_node12"><a xlink:href="fun_8cpp.html" target="_top" xlink:title="modules/fun/fun.cpp">
<polygon fill="none" stroke="black" points="781.5,-0.5 781.5,-19.5 886.5,-19.5 886.5,-0.5 781.5,-0.5"/>
<text text-anchor="middle" x="834" y="-7.5" font-family="Helvetica,sans-Serif" font-size="10.00">modules/fun/fun.cpp</text>
</a>
</g>
</g>
<!-- Node9&#45;&gt;Node12 -->
<g id="edge12" class="edge"><title>Node9&#45;&gt;Node12</title>
<path fill="none" stroke="midnightblue" d="M1179.08,-185.427C1179.06,-167.238 1176.14,-140.147 1161,-123 1090.21,-42.811 959.465,-19.9918 886.577,-13.5275"/>
<polygon fill="midnightblue" stroke="midnightblue" points="1175.57,-185.571 1178.79,-195.666 1182.57,-185.77 1175.57,-185.571"/>
</g>
<!-- Node13 -->
<g id="node13" class="node"><title>Node13</title>
<g id="a_node13"><a xlink:href="web_8cpp.html" target="_top" xlink:title="modules/web/web.cpp">
<polygon fill="none" stroke="black" points="821,-62 821,-81 935,-81 935,-62 821,-62"/>
<text text-anchor="middle" x="878" y="-69" font-family="Helvetica,sans-Serif" font-size="10.00">modules/web/web.cpp</text>
</a>
</g>
</g>
<!-- Node9&#45;&gt;Node13 -->
<g id="edge13" class="edge"><title>Node9&#45;&gt;Node13</title>
<path fill="none" stroke="midnightblue" d="M1173.38,-186.213C1167.63,-167.353 1155.92,-138.567 1135,-123 1103.99,-99.9284 1000.83,-85.2293 935.025,-77.9571"/>
<polygon fill="midnightblue" stroke="midnightblue" points="1170.05,-187.298 1176.1,-195.995 1176.8,-185.423 1170.05,-187.298"/>
</g>
<!-- Node14 -->
<g id="node14" class="node"><title>Node14</title>
<g id="a_node14"><a xlink:href="core_8cpp.html" target="_top" xlink:title="modules/core/core.cpp">
<polygon fill="none" stroke="black" points="419,-62 419,-81 535,-81 535,-62 419,-62"/>
<text text-anchor="middle" x="477" y="-69" font-family="Helvetica,sans-Serif" font-size="10.00">modules/core/core.cpp</text>
</a>
</g>
</g>
<!-- Node9&#45;&gt;Node14 -->
<g id="edge14" class="edge"><title>Node9&#45;&gt;Node14</title>
<path fill="none" stroke="midnightblue" d="M1163.66,-187.883C1143.89,-165.164 1109.8,-126.772 1102,-123 1051.71,-98.6799 680.302,-80.8953 535.02,-74.7997"/>
<polygon fill="midnightblue" stroke="midnightblue" points="1161.26,-190.455 1170.46,-195.719 1166.55,-185.87 1161.26,-190.455"/>
</g>
<!-- Node15 -->
<g id="node15" class="node"><title>Node15</title>
<g id="a_node15"><a xlink:href="irc_8cpp.html" target="_top" xlink:title="modules/irc/irc.cpp">
<polygon fill="none" stroke="black" points="1432.5,-129 1432.5,-148 1531.5,-148 1531.5,-129 1432.5,-129"/>
<text text-anchor="middle" x="1482" y="-136" font-family="Helvetica,sans-Serif" font-size="10.00">modules/irc/irc.cpp</text>
</a>
</g>
</g>
<!-- Node9&#45;&gt;Node15 -->
<g id="edge15" class="edge"><title>Node9&#45;&gt;Node15</title>
<path fill="none" stroke="midnightblue" d="M1227.27,-193.818C1233.24,-192.529 1239.26,-191.233 1245,-190 1314.1,-175.161 1394.57,-158.049 1441.73,-148.039"/>
<polygon fill="midnightblue" stroke="midnightblue" points="1226.36,-190.435 1217.32,-195.968 1227.83,-197.277 1226.36,-190.435"/>
</g>
<!-- Node16 -->
<g id="node16" class="node"><title>Node16</title>
<g id="a_node16"><a xlink:href="xonotic_8cpp.html" target="_top" xlink:title="modules/xonotic/xonotic.cpp">
<polygon fill="none" stroke="black" points="860.5,-129 860.5,-148 1001.5,-148 1001.5,-129 860.5,-129"/>
<text text-anchor="middle" x="931" y="-136" font-family="Helvetica,sans-Serif" font-size="10.00">modules/xonotic/xonotic.cpp</text>
</a>
</g>
</g>
<!-- Node9&#45;&gt;Node16 -->
<g id="edge16" class="edge"><title>Node9&#45;&gt;Node16</title>
<path fill="none" stroke="midnightblue" d="M1135.53,-193.323C1086.76,-180.489 1007.8,-159.712 963.617,-148.083"/>
<polygon fill="midnightblue" stroke="midnightblue" points="1134.89,-196.775 1145.46,-195.936 1136.68,-190.006 1134.89,-196.775"/>
</g>
<!-- Node18 -->
<g id="node18" class="node"><title>Node18</title>
<g id="a_node18"><a xlink:href="fun-handlers_8hpp.html" target="_top" xlink:title="This file contains definitions for handlers which are pretty useless. ">
<polygon fill="none" stroke="black" points="255.5,-62 255.5,-81 400.5,-81 400.5,-62 255.5,-62"/>
<text text-anchor="middle" x="328" y="-69" font-family="Helvetica,sans-Serif" font-size="10.00">modules/fun/fun&#45;handlers.hpp</text>
</a>
</g>
</g>
<!-- Node17&#45;&gt;Node18 -->
<g id="edge18" class="edge"><title>Node17&#45;&gt;Node18</title>
<path fill="none" stroke="midnightblue" d="M607.075,-188.313C588.515,-167.106 556.244,-131.602 541,-123 513.446,-107.452 431.633,-90.7664 377.796,-81.0002"/>
<polygon fill="midnightblue" stroke="midnightblue" points="604.469,-190.65 613.669,-195.905 609.754,-186.06 604.469,-190.65"/>
</g>
<!-- Node20 -->
<g id="node20" class="node"><title>Node20</title>
<g id="a_node20"><a xlink:href="web-api-concrete_8hpp.html" target="_top" xlink:title="This files defines some simple Handlers using web APIs. ">
<polygon fill="none" stroke="black" points="588.5,-123.5 588.5,-153.5 699.5,-153.5 699.5,-123.5 588.5,-123.5"/>
<text text-anchor="start" x="596.5" y="-141.5" font-family="Helvetica,sans-Serif" font-size="10.00">modules/web/web&#45;api</text>
<text text-anchor="middle" x="644" y="-130.5" font-family="Helvetica,sans-Serif" font-size="10.00">&#45;concrete.hpp</text>
</a>
</g>
</g>
<!-- Node17&#45;&gt;Node20 -->
<g id="edge21" class="edge"><title>Node17&#45;&gt;Node20</title>
<path fill="none" stroke="midnightblue" d="M627.523,-186.065C631.172,-175.753 635.649,-163.101 639.015,-153.589"/>
<polygon fill="midnightblue" stroke="midnightblue" points="624.138,-185.139 624.102,-195.734 630.737,-187.474 624.138,-185.139"/>
</g>
<!-- Node18&#45;&gt;Node12 -->
<g id="edge20" class="edge"><title>Node18&#45;&gt;Node12</title>
<path fill="none" stroke="midnightblue" d="M383.038,-60.2276C392.032,-58.7046 401.264,-57.2345 410,-56 543.216,-37.1756 700.991,-22.3983 781.306,-15.41"/>
<polygon fill="midnightblue" stroke="midnightblue" points="382.281,-56.8066 373.024,-61.96 383.474,-63.7041 382.281,-56.8066"/>
</g>
<!-- Node19 -->
<g id="node19" class="node"><title>Node19</title>
<g id="a_node19"><a xlink:href="fun-handlers_8cpp.html" target="_top" xlink:title="modules/fun/fun&#45;handlers.cpp">
<polygon fill="none" stroke="black" points="255.5,-0.5 255.5,-19.5 400.5,-19.5 400.5,-0.5 255.5,-0.5"/>
<text text-anchor="middle" x="328" y="-7.5" font-family="Helvetica,sans-Serif" font-size="10.00">modules/fun/fun&#45;handlers.cpp</text>
</a>
</g>
</g>
<!-- Node18&#45;&gt;Node19 -->
<g id="edge19" class="edge"><title>Node18&#45;&gt;Node19</title>
<path fill="none" stroke="midnightblue" d="M328,-51.8165C328,-40.9962 328,-27.898 328,-19.5091"/>
<polygon fill="midnightblue" stroke="midnightblue" points="324.5,-51.9751 328,-61.9751 331.5,-51.9751 324.5,-51.9751"/>
</g>
<!-- Node20&#45;&gt;Node13 -->
<g id="edge22" class="edge"><title>Node20&#45;&gt;Node13</title>
<path fill="none" stroke="midnightblue" d="M704.298,-120.751C750.063,-108.038 811.094,-91.0851 847.297,-81.0287"/>
<polygon fill="midnightblue" stroke="midnightblue" points="703.185,-117.427 694.486,-123.476 705.058,-124.172 703.185,-117.427"/>
</g>
<!-- Node21&#45;&gt;Node14 -->
<g id="edge31" class="edge"><title>Node21&#45;&gt;Node14</title>
<path fill="none" stroke="midnightblue" d="M279.969,-189.994C309.966,-181.812 345.408,-169.975 375,-154 394.18,-143.646 396,-136.64 413,-123 431.546,-108.12 453.313,-91.0212 466.086,-81.0244"/>
<polygon fill="midnightblue" stroke="midnightblue" points="278.791,-186.685 270.021,-192.63 280.584,-193.452 278.791,-186.685"/>
</g>
<!-- Node22 -->
<g id="node22" class="node"><title>Node22</title>
<g id="a_node22"><a xlink:href="bridge_8hpp.html" target="_top" xlink:title="modules/core/handler\l/bridge.hpp">
<polygon fill="none" stroke="black" points="128,-123.5 128,-153.5 238,-153.5 238,-123.5 128,-123.5"/>
<text text-anchor="start" x="136" y="-141.5" font-family="Helvetica,sans-Serif" font-size="10.00">modules/core/handler</text>
<text text-anchor="middle" x="183" y="-130.5" font-family="Helvetica,sans-Serif" font-size="10.00">/bridge.hpp</text>
</a>
</g>
</g>
<!-- Node21&#45;&gt;Node22 -->
<g id="edge24" class="edge"><title>Node21&#45;&gt;Node22</title>
<path fill="none" stroke="midnightblue" d="M203.57,-181.283C199.011,-172.022 193.911,-161.663 189.93,-153.577"/>
<polygon fill="midnightblue" stroke="midnightblue" points="200.499,-182.97 208.056,-190.396 206.78,-179.878 200.499,-182.97"/>
</g>
<!-- Node24 -->
<g id="node24" class="node"><title>Node24</title>
<g id="a_node24"><a xlink:href="simple-group_8cpp.html" target="_top" xlink:title="This file contains the definitions for the most basic and reusable handlers. ">
<polygon fill="none" stroke="black" points="0,-123.5 0,-153.5 110,-153.5 110,-123.5 0,-123.5"/>
<text text-anchor="start" x="8" y="-141.5" font-family="Helvetica,sans-Serif" font-size="10.00">modules/core/handler</text>
<text text-anchor="middle" x="55" y="-130.5" font-family="Helvetica,sans-Serif" font-size="10.00">/simple&#45;group.cpp</text>
</a>
</g>
</g>
<!-- Node21&#45;&gt;Node24 -->
<g id="edge28" class="edge"><title>Node21&#45;&gt;Node24</title>
<path fill="none" stroke="midnightblue" d="M170.801,-186.544C145.198,-176.143 113.432,-163.238 89.6499,-153.577"/>
<polygon fill="midnightblue" stroke="midnightblue" points="169.7,-189.875 180.282,-190.396 172.335,-183.39 169.7,-189.875"/>
</g>
<!-- Node25 -->
<g id="node25" class="node"><title>Node25</title>
<g id="a_node25"><a xlink:href="admin_8hpp.html" target="_top" xlink:title="This file defines handlers which allows admin to administrate the bot. ">
<polygon fill="none" stroke="black" points="256,-123.5 256,-153.5 366,-153.5 366,-123.5 256,-123.5"/>
<text text-anchor="start" x="264" y="-141.5" font-family="Helvetica,sans-Serif" font-size="10.00">modules/core/handler</text>
<text text-anchor="middle" x="311" y="-130.5" font-family="Helvetica,sans-Serif" font-size="10.00">/admin.hpp</text>
</a>
</g>
</g>
<!-- Node21&#45;&gt;Node25 -->
<g id="edge29" class="edge"><title>Node21&#45;&gt;Node25</title>
<path fill="none" stroke="midnightblue" d="M244.193,-184.734C259.048,-174.676 276.758,-162.685 290.21,-153.577"/>
<polygon fill="midnightblue" stroke="midnightblue" points="242.149,-181.891 235.831,-190.396 246.073,-187.688 242.149,-181.891"/>
</g>
<!-- Node22&#45;&gt;Node14 -->
<g id="edge27" class="edge"><title>Node22&#45;&gt;Node14</title>
<path fill="none" stroke="midnightblue" d="M247.918,-122.803C320.465,-106.642 393.643,-90.6441 437.505,-81.088"/>
<polygon fill="midnightblue" stroke="midnightblue" points="247.151,-119.388 238.153,-124.98 248.675,-126.22 247.151,-119.388"/>
</g>
<!-- Node22&#45;&gt;Node18 -->
<g id="edge25" class="edge"><title>Node22&#45;&gt;Node18</title>
<path fill="none" stroke="midnightblue" d="M223.611,-119.295C251.574,-106.76 287.44,-90.682 309.023,-81.007"/>
<polygon fill="midnightblue" stroke="midnightblue" points="222.156,-116.112 214.463,-123.396 225.02,-122.499 222.156,-116.112"/>
</g>
<!-- Node23 -->
<g id="node23" class="node"><title>Node23</title>
<g id="a_node23"><a xlink:href="bridge_8cpp.html" target="_top" xlink:title="modules/core/handler\l/bridge.cpp">
<polygon fill="none" stroke="black" points="127,-56.5 127,-86.5 237,-86.5 237,-56.5 127,-56.5"/>
<text text-anchor="start" x="135" y="-74.5" font-family="Helvetica,sans-Serif" font-size="10.00">modules/core/handler</text>
<text text-anchor="middle" x="182" y="-63.5" font-family="Helvetica,sans-Serif" font-size="10.00">/bridge.cpp</text>
</a>
</g>
</g>
<!-- Node22&#45;&gt;Node23 -->
<g id="edge26" class="edge"><title>Node22&#45;&gt;Node23</title>
<path fill="none" stroke="midnightblue" d="M182.625,-113.108C182.487,-104.154 182.336,-94.3227 182.217,-86.5765"/>
<polygon fill="midnightblue" stroke="midnightblue" points="179.13,-113.451 182.783,-123.396 186.129,-113.343 179.13,-113.451"/>
</g>
<!-- Node25&#45;&gt;Node14 -->
<g id="edge30" class="edge"><title>Node25&#45;&gt;Node14</title>
<path fill="none" stroke="midnightblue" d="M356.659,-119.621C388.79,-107.04 430.351,-90.7661 455.274,-81.007"/>
<polygon fill="midnightblue" stroke="midnightblue" points="355.055,-116.491 347.02,-123.396 357.607,-123.009 355.055,-116.491"/>
</g>
<!-- Node26&#45;&gt;Node14 -->
<g id="edge33" class="edge"><title>Node26&#45;&gt;Node14</title>
<path fill="none" stroke="midnightblue" d="M477,-113.25C477,-102.017 477,-89.3767 477,-81.1945"/>
<polygon fill="midnightblue" stroke="midnightblue" points="473.5,-113.396 477,-123.396 480.5,-113.396 473.5,-113.396"/>
</g>
<!-- Node27&#45;&gt;Node16 -->
<g id="edge35" class="edge"><title>Node27&#45;&gt;Node16</title>
<path fill="none" stroke="midnightblue" d="M810.659,-186.621C842.79,-174.04 884.351,-157.766 909.274,-148.007"/>
<polygon fill="midnightblue" stroke="midnightblue" points="809.055,-183.491 801.02,-190.396 811.607,-190.009 809.055,-183.491"/>
</g>
<!-- Node28&#45;&gt;Node16 -->
<g id="edge37" class="edge"><title>Node28&#45;&gt;Node16</title>
<path fill="none" stroke="midnightblue" d="M914.423,-180.942C918.984,-169.54 924.182,-156.545 927.522,-148.195"/>
<polygon fill="midnightblue" stroke="midnightblue" points="911.106,-179.811 910.642,-190.396 917.605,-182.411 911.106,-179.811"/>
</g>
<!-- Node29&#45;&gt;Node15 -->
<g id="edge39" class="edge"><title>Node29&#45;&gt;Node15</title>
<path fill="none" stroke="midnightblue" d="M1522.15,-182.997C1511.2,-171.132 1498.2,-157.052 1490.03,-148.195"/>
<polygon fill="midnightblue" stroke="midnightblue" points="1519.63,-185.422 1528.98,-190.396 1524.77,-180.674 1519.63,-185.422"/>
</g>
<!-- Node30&#45;&gt;Node15 -->
<g id="edge41" class="edge"><title>Node30&#45;&gt;Node15</title>
<path fill="none" stroke="midnightblue" d="M1612.66,-186.946C1577.89,-174.321 1532.53,-157.85 1505.43,-148.007"/>
<polygon fill="midnightblue" stroke="midnightblue" points="1611.57,-190.273 1622.16,-190.396 1613.95,-183.693 1611.57,-190.273"/>
</g>
<!-- Node31&#45;&gt;Node15 -->
<g id="edge43" class="edge"><title>Node31&#45;&gt;Node15</title>
<path fill="none" stroke="midnightblue" d="M1352.07,-186.946C1386.64,-174.321 1431.75,-157.85 1458.7,-148.007"/>
<polygon fill="midnightblue" stroke="midnightblue" points="1350.82,-183.678 1342.62,-190.396 1353.22,-190.253 1350.82,-183.678"/>
</g>
<!-- Node32&#45;&gt;Node15 -->
<g id="edge45" class="edge"><title>Node32&#45;&gt;Node15</title>
<path fill="none" stroke="midnightblue" d="M1442.83,-182.657C1453.53,-170.865 1466.15,-156.967 1474.11,-148.195"/>
<polygon fill="midnightblue" stroke="midnightblue" points="1439.93,-180.639 1435.8,-190.396 1445.11,-185.344 1439.93,-180.639"/>
</g>
<!-- Node33&#45;&gt;Node11 -->
<g id="edge48" class="edge"><title>Node33&#45;&gt;Node11</title>
<path fill="none" stroke="midnightblue" d="M382.306,-255.726C364.629,-238.1 342.421,-209.485 360,-190 412.226,-132.11 631.933,-165.815 709,-154 719.695,-152.36 731.216,-150.186 741.803,-148.021"/>
<polygon fill="midnightblue" stroke="midnightblue" points="380.286,-258.634 389.949,-262.979 385.104,-253.557 380.286,-258.634"/>
</g>
<!-- Node34&#45;&gt;Node16 -->
<g id="edge51" class="edge"><title>Node34&#45;&gt;Node16</title>
<path fill="none" stroke="midnightblue" d="M279.148,-249.654C297.669,-230.196 327.624,-202.873 360,-190 461.869,-149.497 743.261,-167.916 852,-154 864.172,-152.442 877.31,-150.242 889.313,-148.025"/>
<polygon fill="midnightblue" stroke="midnightblue" points="276.395,-247.476 272.167,-257.191 281.531,-252.233 276.395,-247.476"/>
</g>
<!-- Node35 -->
<g id="node35" class="node"><title>Node35</title>
<g id="a_node35"><a xlink:href="xonotic-connection_8cpp.html" target="_top" xlink:title="modules/xonotic/xonotic\l&#45;connection.cpp">
<polygon fill="none" stroke="black" points="20,-190.5 20,-220.5 142,-220.5 142,-190.5 20,-190.5"/>
<text text-anchor="start" x="28" y="-208.5" font-family="Helvetica,sans-Serif" font-size="10.00">modules/xonotic/xonotic</text>
<text text-anchor="middle" x="81" y="-197.5" font-family="Helvetica,sans-Serif" font-size="10.00">&#45;connection.cpp</text>
</a>
</g>
</g>
<!-- Node34&#45;&gt;Node35 -->
<g id="edge50" class="edge"><title>Node34&#45;&gt;Node35</title>
<path fill="none" stroke="midnightblue" d="M211.684,-253.955C182.85,-243.485 146.722,-230.366 119.765,-220.577"/>
<polygon fill="midnightblue" stroke="midnightblue" points="210.566,-257.273 221.16,-257.396 212.955,-250.693 210.566,-257.273"/>
</g>
<!-- Node36&#45;&gt;Node15 -->
<g id="edge53" class="edge"><title>Node36&#45;&gt;Node15</title>
<path fill="none" stroke="midnightblue" d="M1740.87,-247.049C1740.13,-228.854 1736.03,-204.718 1721,-190 1694.64,-164.183 1593.7,-150.131 1531.74,-143.778"/>
<polygon fill="midnightblue" stroke="midnightblue" points="1737.37,-247.248 1740.96,-257.216 1744.37,-247.184 1737.37,-247.248"/>
</g>
<!-- Node37 -->
<g id="node37" class="node"><title>Node37</title>
<g id="a_node37"><a xlink:href="buffer_8cpp.html" target="_top" xlink:title="modules/irc/network\l/buffer.cpp">
<polygon fill="none" stroke="black" points="1890,-190.5 1890,-220.5 1994,-220.5 1994,-190.5 1890,-190.5"/>
<text text-anchor="start" x="1898" y="-208.5" font-family="Helvetica,sans-Serif" font-size="10.00">modules/irc/network</text>
<text text-anchor="middle" x="1942" y="-197.5" font-family="Helvetica,sans-Serif" font-size="10.00">/buffer.cpp</text>
</a>
</g>
</g>
<!-- Node36&#45;&gt;Node37 -->
<g id="edge54" class="edge"><title>Node36&#45;&gt;Node37</title>
<path fill="none" stroke="midnightblue" d="M1793.68,-254.228C1826.35,-243.713 1867.57,-230.451 1898.25,-220.577"/>
<polygon fill="midnightblue" stroke="midnightblue" points="1792.28,-251.001 1783.83,-257.396 1794.42,-257.665 1792.28,-251.001"/>
</g>
<!-- Node38 -->
<g id="node38" class="node"><title>Node38</title>
<g id="a_node38"><a xlink:href="connection_8cpp.html" target="_top" xlink:title="modules/irc/network\l/connection.cpp">
<polygon fill="none" stroke="black" points="1768,-190.5 1768,-220.5 1872,-220.5 1872,-190.5 1768,-190.5"/>
<text text-anchor="start" x="1776" y="-208.5" font-family="Helvetica,sans-Serif" font-size="10.00">modules/irc/network</text>
<text text-anchor="middle" x="1820" y="-197.5" font-family="Helvetica,sans-Serif" font-size="10.00">/connection.cpp</text>
</a>
</g>
</g>
<!-- Node36&#45;&gt;Node38 -->
<g id="edge55" class="edge"><title>Node36&#45;&gt;Node38</title>
<path fill="none" stroke="midnightblue" d="M1765.37,-250.883C1777.53,-241.005 1791.78,-229.429 1802.68,-220.577"/>
<polygon fill="midnightblue" stroke="midnightblue" points="1762.91,-248.374 1757.36,-257.396 1767.33,-253.806 1762.91,-248.374"/>
</g>
<!-- Node39&#45;&gt;Node36 -->
<g id="edge62" class="edge"><title>Node39&#45;&gt;Node36</title>
<path fill="none" stroke="midnightblue" d="M1740,-314.108C1740,-305.154 1740,-295.323 1740,-287.577"/>
<polygon fill="midnightblue" stroke="midnightblue" points="1736.5,-314.396 1740,-324.396 1743.5,-314.396 1736.5,-314.396"/>
</g>
<!-- Node39&#45;&gt;Node37 -->
<g id="edge61" class="edge"><title>Node39&#45;&gt;Node37</title>
<path fill="none" stroke="midnightblue" d="M1770.16,-318.793C1811.41,-291.836 1884.42,-244.125 1920.54,-220.525"/>
<polygon fill="midnightblue" stroke="midnightblue" points="1768.07,-315.973 1761.62,-324.374 1771.9,-321.833 1768.07,-315.973"/>
</g>
<!-- Node41 -->
<g id="node41" class="node"><title>Node41</title>
<g id="a_node41"><a xlink:href="user__group_8cpp.html" target="_top" xlink:title="src/user/user_group.cpp">
<polygon fill="none" stroke="black" points="408,-447.5 408,-466.5 530,-466.5 530,-447.5 408,-447.5"/>
<text text-anchor="middle" x="469" y="-454.5" font-family="Helvetica,sans-Serif" font-size="10.00">src/user/user_group.cpp</text>
</a>
</g>
</g>
<!-- Node40&#45;&gt;Node41 -->
<g id="edge66" class="edge"><title>Node40&#45;&gt;Node41</title>
<path fill="none" stroke="midnightblue" d="M469,-492.805C469,-483.91 469,-473.78 469,-466.751"/>
<polygon fill="midnightblue" stroke="midnightblue" points="465.5,-493.083 469,-503.083 472.5,-493.083 465.5,-493.083"/>
</g>
<!-- Node42 -->
<g id="node42" class="node"><title>Node42</title>
<g id="a_node42"><a xlink:href="auth__system_8hpp.html" target="_top" xlink:title="src/user/auth_system.hpp">
<polygon fill="none" stroke="black" points="548,-447.5 548,-466.5 678,-466.5 678,-447.5 548,-447.5"/>
<text text-anchor="middle" x="613" y="-454.5" font-family="Helvetica,sans-Serif" font-size="10.00">src/user/auth_system.hpp</text>
</a>
</g>
</g>
<!-- Node40&#45;&gt;Node42 -->
<g id="edge67" class="edge"><title>Node40&#45;&gt;Node42</title>
<path fill="none" stroke="midnightblue" d="M501.251,-499.906C528.324,-489.754 566.317,-475.506 590.29,-466.516"/>
<polygon fill="midnightblue" stroke="midnightblue" points="499.952,-496.655 491.817,-503.444 502.409,-503.209 499.952,-496.655"/>
</g>
<!-- Node42&#45;&gt;Node4 -->
<g id="edge68" class="edge"><title>Node42&#45;&gt;Node4</title>
<path fill="none" stroke="midnightblue" d="M613,-436.805C613,-427.91 613,-417.78 613,-410.751"/>
<polygon fill="midnightblue" stroke="midnightblue" points="609.5,-437.083 613,-447.083 616.5,-437.083 609.5,-437.083"/>
</g>
</g>
</svg>
