<?xml version="1.0" encoding="UTF-8" standalone="no"?>
<!DOCTYPE svg PUBLIC "-//W3C//DTD SVG 1.1//EN"
 "http://www.w3.org/Graphics/SVG/1.1/DTD/svg11.dtd">
<!-- Generated by graphviz version 2.38.0 (20140413.2041)
 -->
<!-- Title: src/user/user_manager.hpp Pages: 1 -->
<svg width="441pt" height="207pt"
 viewBox="0.00 0.00 440.50 207.00" xmlns="http://www.w3.org/2000/svg" xmlns:xlink="http://www.w3.org/1999/xlink">
<g id="graph0" class="graph" transform="scale(1 1) rotate(0) translate(4 203)">
<title>src/user/user_manager.hpp</title>
<!-- Node1 -->
<g id="node1" class="node"><title>Node1</title>
<polygon fill="#bfbfbf" stroke="black" points="94,-179.5 94,-198.5 229,-198.5 229,-179.5 94,-179.5"/>
<text text-anchor="middle" x="161.5" y="-186.5" font-family="Helvetica,sans-Serif" font-size="10.00">src/user/user_manager.hpp</text>
</g>
<!-- Node2 -->
<g id="node2" class="node"><title>Node2</title>
<g id="a_node2"><a xlink:href="user_8hpp.html" target="_top" xlink:title="user.hpp">
<polygon fill="none" stroke="black" points="104.5,-123.5 104.5,-142.5 158.5,-142.5 158.5,-123.5 104.5,-123.5"/>
<text text-anchor="middle" x="131.5" y="-130.5" font-family="Helvetica,sans-Serif" font-size="10.00">user.hpp</text>
</a>
</g>
</g>
<!-- Node1&#45;&gt;Node2 -->
<g id="edge1" class="edge"><title>Node1&#45;&gt;Node2</title>
<path fill="none" stroke="midnightblue" d="M156.546,-179.083C152.396,-171.613 146.347,-160.724 141.233,-151.52"/>
<polygon fill="midnightblue" stroke="midnightblue" points="144.278,-149.793 136.362,-142.751 138.159,-153.192 144.278,-149.793"/>
</g>
<!-- Node10 -->
<g id="node10" class="node"><title>Node10</title>
<polygon fill="none" stroke="#bfbfbf" points="177,-123.5 177,-142.5 206,-142.5 206,-123.5 177,-123.5"/>
<text text-anchor="middle" x="191.5" y="-130.5" font-family="Helvetica,sans-Serif" font-size="10.00">list</text>
</g>
<!-- Node1&#45;&gt;Node10 -->
<g id="edge11" class="edge"><title>Node1&#45;&gt;Node10</title>
<path fill="none" stroke="midnightblue" d="M166.454,-179.083C170.604,-171.613 176.653,-160.724 181.767,-151.52"/>
<polygon fill="midnightblue" stroke="midnightblue" points="184.841,-153.192 186.638,-142.751 178.722,-149.793 184.841,-153.192"/>
</g>
<!-- Node3 -->
<g id="node3" class="node"><title>Node3</title>
<polygon fill="none" stroke="#bfbfbf" points="0,-6 0,-25 41,-25 41,-6 0,-6"/>
<text text-anchor="middle" x="20.5" y="-13" font-family="Helvetica,sans-Serif" font-size="10.00">string</text>
</g>
<!-- Node2&#45;&gt;Node3 -->
<g id="edge2" class="edge"><title>Node2&#45;&gt;Node3</title>
<path fill="none" stroke="midnightblue" d="M123.157,-123.319C104.675,-104.088 60.0381,-57.641 36.1702,-32.8054"/>
<polygon fill="midnightblue" stroke="midnightblue" points="38.3927,-30.0669 28.9399,-25.282 33.3455,-34.9174 38.3927,-30.0669"/>
</g>
<!-- Node4 -->
<g id="node4" class="node"><title>Node4</title>
<polygon fill="none" stroke="#bfbfbf" points="216.5,-67.5 216.5,-86.5 260.5,-86.5 260.5,-67.5 216.5,-67.5"/>
<text text-anchor="middle" x="238.5" y="-74.5" font-family="Helvetica,sans-Serif" font-size="10.00">vector</text>
</g>
<!-- Node2&#45;&gt;Node4 -->
<g id="edge3" class="edge"><title>Node2&#45;&gt;Node4</title>
<path fill="none" stroke="midnightblue" d="M148.691,-123.324C165.851,-114.664 192.446,-101.242 212.247,-91.249"/>
<polygon fill="midnightblue" stroke="midnightblue" points="214.001,-94.2847 221.351,-86.6545 210.847,-88.0354 214.001,-94.2847"/>
</g>
<!-- Node5 -->
<g id="node5" class="node"><title>Node5</title>
<polygon fill="none" stroke="#bfbfbf" points="59,-6 59,-25 142,-25 142,-6 59,-6"/>
<text text-anchor="middle" x="100.5" y="-13" font-family="Helvetica,sans-Serif" font-size="10.00">unordered_map</text>
</g>
<!-- Node2&#45;&gt;Node5 -->
<g id="edge4" class="edge"><title>Node2&#45;&gt;Node5</title>
<path fill="none" stroke="midnightblue" d="M129.17,-123.319C124.166,-104.673 112.294,-60.443 105.501,-35.1317"/>
<polygon fill="midnightblue" stroke="midnightblue" points="108.83,-34.0329 102.857,-25.282 102.069,-35.8475 108.83,-34.0329"/>
</g>
<!-- Node6 -->
<g id="node6" class="node"><title>Node6</title>
<g id="a_node6"><a xlink:href="settings_8hpp.html" target="_top" xlink:title="settings.hpp">
<polygon fill="none" stroke="black" points="128.5,-67.5 128.5,-86.5 198.5,-86.5 198.5,-67.5 128.5,-67.5"/>
<text text-anchor="middle" x="163.5" y="-74.5" font-family="Helvetica,sans-Serif" font-size="10.00">settings.hpp</text>
</a>
</g>
</g>
<!-- Node2&#45;&gt;Node6 -->
<g id="edge5" class="edge"><title>Node2&#45;&gt;Node6</title>
<path fill="none" stroke="midnightblue" d="M136.784,-123.083C141.211,-115.613 147.663,-104.724 153.118,-95.5199"/>
<polygon fill="midnightblue" stroke="midnightblue" points="156.227,-97.1383 158.314,-86.7511 150.205,-93.5697 156.227,-97.1383"/>
</g>
<!-- Node6&#45;&gt;Node3 -->
<g id="edge6" class="edge"><title>Node6&#45;&gt;Node3</title>
<path fill="none" stroke="midnightblue" d="M140.109,-67.4532C116.888,-58.8087 80.3941,-44.7892 49.5,-31 48.3435,-30.4838 47.1662,-29.9463 45.9808,-29.3953"/>
<polygon fill="midnightblue" stroke="midnightblue" points="47.4704,-26.228 36.943,-25.0344 44.4283,-32.5324 47.4704,-26.228"/>
</g>
<!-- Node6&#45;&gt;Node5 -->
<g id="edge8" class="edge"><title>Node6&#45;&gt;Node5</title>
<path fill="none" stroke="midnightblue" d="M154.474,-67.4751C144.743,-58.285 129.042,-43.4563 117.077,-32.156"/>
<polygon fill="midnightblue" stroke="midnightblue" points="119.183,-29.3308 109.51,-25.0091 114.377,-34.4199 119.183,-29.3308"/>
</g>
<!-- Node7 -->
<g id="node7" class="node"><title>Node7</title>
<polygon fill="none" stroke="#bfbfbf" points="160.5,-6 160.5,-25 206.5,-25 206.5,-6 160.5,-6"/>
<text text-anchor="middle" x="183.5" y="-13" font-family="Helvetica,sans-Serif" font-size="10.00">cstdint</text>
</g>
<!-- Node6&#45;&gt;Node7 -->
<g id="edge7" class="edge"><title>Node6&#45;&gt;Node7</title>
<path fill="none" stroke="midnightblue" d="M166.366,-67.4751C169.217,-58.9919 173.683,-45.7043 177.341,-34.8222"/>
<polygon fill="midnightblue" stroke="midnightblue" points="180.771,-35.6031 180.64,-25.0091 174.136,-33.3727 180.771,-35.6031"/>
</g>
<!-- Node8 -->
<g id="node8" class="node"><title>Node8</title>
<polygon fill="none" stroke="#bfbfbf" points="225,-0.5 225,-30.5 326,-30.5 326,-0.5 225,-0.5"/>
<text text-anchor="start" x="233" y="-18.5" font-family="Helvetica,sans-Serif" font-size="10.00">boost/property_tree</text>
<text text-anchor="middle" x="275.5" y="-7.5" font-family="Helvetica,sans-Serif" font-size="10.00">/ptree.hpp</text>
</g>
<!-- Node6&#45;&gt;Node8 -->
<g id="edge9" class="edge"><title>Node6&#45;&gt;Node8</title>
<path fill="none" stroke="midnightblue" d="M179.547,-67.4751C195.283,-59.1154 219.801,-46.0902 240.114,-35.2991"/>
<polygon fill="midnightblue" stroke="midnightblue" points="241.915,-38.3055 249.104,-30.523 238.631,-32.1237 241.915,-38.3055"/>
</g>
<!-- Node9 -->
<g id="node9" class="node"><title>Node9</title>
<g id="a_node9"><a xlink:href="c_09_09-compat_8hpp.html" target="_top" xlink:title="This file defined some compatibility for features of C++14 and beyond. ">
<polygon fill="none" stroke="black" points="344.5,-6 344.5,-25 432.5,-25 432.5,-6 344.5,-6"/>
<text text-anchor="middle" x="388.5" y="-13" font-family="Helvetica,sans-Serif" font-size="10.00">c++&#45;compat.hpp</text>
</a>
</g>
</g>
<!-- Node6&#45;&gt;Node9 -->
<g id="edge10" class="edge"><title>Node6&#45;&gt;Node9</title>
<path fill="none" stroke="midnightblue" d="M196.502,-67.4823C231.149,-58.5128 287.196,-43.9259 335.5,-31 339.381,-29.9616 343.418,-28.8725 347.457,-27.7774"/>
<polygon fill="midnightblue" stroke="midnightblue" points="348.678,-31.0724 357.408,-25.0687 346.84,-24.3182 348.678,-31.0724"/>
</g>
</g>
</svg>
